M48
; DRILL file {KiCad (5.1.4-0-10_14)} date Tuesday, October 08, 2019 at 09:19:10 PM
; FORMAT={-:-/ absolute / inch / decimal}
; #@! TF.CreationDate,2019-10-08T21:19:10-07:00
; #@! TF.GenerationSoftware,Kicad,Pcbnew,(5.1.4-0-10_14)
; #@! TF.FileFunction,Plated,1,2,PTH
FMAT,2
INCH
T1C0.0394
T2C0.0480
T3C0.0559
T4C0.0563
T5C0.0787
T6C0.0866
T7C0.1181
T8C0.1260
%
G90
G05
T1
X2.65Y-3.1
X2.75Y-3.1
X2.85Y-3.1
X2.95Y-3.1
X3.05Y-3.1
X3.15Y-3.1
X3.25Y-3.1
X3.35Y-3.1
X3.45Y-3.1
X3.55Y-3.1
X3.1Y-4.8361
X3.1984Y-4.8361
X3.2969Y-4.8361
X2.65Y-5.35
X2.75Y-5.35
X2.85Y-5.35
X2.95Y-5.35
X3.05Y-5.35
X3.15Y-5.35
X3.25Y-5.35
X3.35Y-5.35
X3.45Y-5.35
X3.55Y-5.35
X3.1Y-2.5861
X3.1984Y-2.5861
X3.2969Y-2.5861
T2
X3.1561Y-6.09
X2.5861Y-5.65
X3.1561Y-5.65
X2.5861Y-3.4
X3.1561Y-3.4
X2.5861Y-3.84
X2.5861Y-6.09
X3.1561Y-3.84
T3
X3.2781Y-3.4
X2.7081Y-3.84
X3.2781Y-3.84
X3.2781Y-6.09
X2.7081Y-5.65
X3.2781Y-5.65
X2.7081Y-3.4
X2.7081Y-6.09
T4
X3.6049Y-6.09
X3.0349Y-5.65
X3.6049Y-5.65
X3.0349Y-3.4
X3.0349Y-6.09
X3.6049Y-3.4
X3.0349Y-3.84
X3.6049Y-3.84
T5
X3.0114Y-4.5408
X3.3854Y-4.5408
X3.0114Y-2.2908
X3.3854Y-2.2908
T6
X2.915Y-5.125
X3.1Y-5.125
X3.2811Y-5.125
X2.915Y-2.875
X3.1Y-2.875
X3.2811Y-2.875
T7
X3.41Y-6.09
X2.84Y-5.65
X3.41Y-5.65
X2.84Y-3.4
X3.41Y-3.4
X2.84Y-6.09
X2.84Y-3.84
X3.41Y-3.84
T8
X2.65Y-2.9
X2.65Y-5.15
X3.55Y-2.9
X3.55Y-5.15
T0
M30
