G04 #@! TF.GenerationSoftware,KiCad,Pcbnew,(5.1.4-0-10_14)*
G04 #@! TF.CreationDate,2019-10-08T21:19:08-07:00*
G04 #@! TF.ProjectId,VCA_IO,5643415f-494f-42e6-9b69-6361645f7063,rev?*
G04 #@! TF.SameCoordinates,Original*
G04 #@! TF.FileFunction,Copper,L1,Top*
G04 #@! TF.FilePolarity,Positive*
%FSLAX46Y46*%
G04 Gerber Fmt 4.6, Leading zero omitted, Abs format (unit mm)*
G04 Created by KiCad (PCBNEW (5.1.4-0-10_14)) date 2019-10-08 21:19:08*
%MOMM*%
%LPD*%
G04 APERTURE LIST*
%ADD10R,1.800000X1.800000*%
%ADD11C,1.800000*%
%ADD12O,4.000000X4.000000*%
%ADD13C,2.130000*%
%ADD14R,1.830000X1.930000*%
%ADD15C,3.100000*%
%ADD16C,3.200000*%
%ADD17R,1.700000X1.700000*%
%ADD18O,1.700000X1.700000*%
%ADD19C,5.000000*%
%ADD20C,0.250000*%
%ADD21C,0.254000*%
G04 APERTURE END LIST*
D10*
X78740000Y-65686000D03*
D11*
X81240000Y-65686000D03*
X83740000Y-65686000D03*
D12*
X76490000Y-58186000D03*
X85990000Y-58186000D03*
D10*
X78740000Y-122836000D03*
D11*
X81240000Y-122836000D03*
X83740000Y-122836000D03*
D12*
X76490000Y-115336000D03*
X85990000Y-115336000D03*
D13*
X83264000Y-154686000D03*
D14*
X80164000Y-154686000D03*
D13*
X91564000Y-154686000D03*
D15*
X86614000Y-154686000D03*
X72136000Y-143510000D03*
D13*
X77086000Y-143510000D03*
D14*
X65686000Y-143510000D03*
D13*
X68786000Y-143510000D03*
D15*
X86614000Y-143510000D03*
D13*
X91564000Y-143510000D03*
D14*
X80164000Y-143510000D03*
D13*
X83264000Y-143510000D03*
X68786000Y-154686000D03*
D14*
X65686000Y-154686000D03*
D13*
X77086000Y-154686000D03*
D15*
X72136000Y-154686000D03*
D13*
X68786000Y-86360000D03*
D14*
X65686000Y-86360000D03*
D13*
X77086000Y-86360000D03*
D15*
X72136000Y-86360000D03*
X86614000Y-86360000D03*
D13*
X91564000Y-86360000D03*
D14*
X80164000Y-86360000D03*
D13*
X83264000Y-86360000D03*
D15*
X72136000Y-97536000D03*
D13*
X77086000Y-97536000D03*
D14*
X65686000Y-97536000D03*
D13*
X68786000Y-97536000D03*
X83264000Y-97536000D03*
D14*
X80164000Y-97536000D03*
D13*
X91564000Y-97536000D03*
D15*
X86614000Y-97536000D03*
D16*
X83340000Y-73025000D03*
X78740000Y-73025000D03*
X74040000Y-73025000D03*
X74040000Y-130175000D03*
X78740000Y-130175000D03*
X83340000Y-130175000D03*
D17*
X67310000Y-78740000D03*
D18*
X69850000Y-78740000D03*
X72390000Y-78740000D03*
X74930000Y-78740000D03*
X77470000Y-78740000D03*
X80010000Y-78740000D03*
X82550000Y-78740000D03*
X85090000Y-78740000D03*
X87630000Y-78740000D03*
X90170000Y-78740000D03*
X90170000Y-135890000D03*
X87630000Y-135890000D03*
X85090000Y-135890000D03*
X82550000Y-135890000D03*
X80010000Y-135890000D03*
X77470000Y-135890000D03*
X74930000Y-135890000D03*
X72390000Y-135890000D03*
X69850000Y-135890000D03*
D17*
X67310000Y-135890000D03*
D19*
X67310000Y-73660000D03*
X67310000Y-130810000D03*
X90170000Y-73660000D03*
X90170000Y-130810000D03*
D20*
X67310000Y-77841002D02*
X70612000Y-74539002D01*
X67310000Y-78740000D02*
X67310000Y-77841002D01*
X70612000Y-74539002D02*
X70612000Y-70866000D01*
X75792000Y-65686000D02*
X78740000Y-65686000D01*
X70612000Y-70866000D02*
X75792000Y-65686000D01*
X90499001Y-153621001D02*
X91564000Y-154686000D01*
X88544989Y-151666989D02*
X90499001Y-153621001D01*
X88544989Y-136804989D02*
X88544989Y-151666989D01*
X87630000Y-135890000D02*
X88544989Y-136804989D01*
X72390000Y-138814000D02*
X77086000Y-143510000D01*
X72390000Y-135890000D02*
X72390000Y-138814000D01*
X90499001Y-142445001D02*
X91564000Y-143510000D01*
X88994999Y-135515997D02*
X88994999Y-140940999D01*
X88194001Y-134714999D02*
X88994999Y-135515997D01*
X88994999Y-140940999D02*
X90499001Y-142445001D01*
X86265001Y-134714999D02*
X88194001Y-134714999D01*
X85090000Y-135890000D02*
X86265001Y-134714999D01*
X78150999Y-153621001D02*
X77086000Y-154686000D01*
X78740000Y-153032000D02*
X78150999Y-153621001D01*
X78740000Y-139700000D02*
X78740000Y-153032000D01*
X74930000Y-135890000D02*
X78740000Y-139700000D01*
X71062010Y-77527990D02*
X71062010Y-71939990D01*
X69850000Y-78740000D02*
X71062010Y-77527990D01*
X80014999Y-66911001D02*
X80340001Y-66585999D01*
X76090999Y-66911001D02*
X80014999Y-66911001D01*
X80340001Y-66585999D02*
X81240000Y-65686000D01*
X71062010Y-71939990D02*
X76090999Y-66911001D01*
X72390000Y-81664000D02*
X77086000Y-86360000D01*
X72390000Y-78740000D02*
X72390000Y-81664000D01*
X78150999Y-96471001D02*
X77086000Y-97536000D01*
X78476001Y-96145999D02*
X78150999Y-96471001D01*
X78476001Y-82286001D02*
X78476001Y-96145999D01*
X74930000Y-78740000D02*
X78476001Y-82286001D01*
X74040000Y-75310000D02*
X77470000Y-78740000D01*
X74040000Y-73025000D02*
X74040000Y-75310000D01*
X80010000Y-76355000D02*
X80010000Y-78740000D01*
X83340000Y-73025000D02*
X80010000Y-76355000D01*
X91564000Y-84853863D02*
X91564000Y-86360000D01*
X91564000Y-82037590D02*
X91564000Y-84853863D01*
X88994999Y-78326999D02*
X88994999Y-79468589D01*
X88232999Y-77564999D02*
X88994999Y-78326999D01*
X88994999Y-79468589D02*
X91564000Y-82037590D01*
X86265001Y-77564999D02*
X88232999Y-77564999D01*
X85090000Y-78740000D02*
X86265001Y-77564999D01*
X89408000Y-95380000D02*
X90499001Y-96471001D01*
X89408000Y-80518000D02*
X89408000Y-95380000D01*
X90499001Y-96471001D02*
X91564000Y-97536000D01*
X87630000Y-78740000D02*
X89408000Y-80518000D01*
X80010000Y-133505000D02*
X83340000Y-130175000D01*
X80010000Y-135890000D02*
X80010000Y-133505000D01*
X77470000Y-133605000D02*
X74040000Y-130175000D01*
X77470000Y-135890000D02*
X77470000Y-133605000D01*
X72114999Y-133625001D02*
X72114999Y-128545001D01*
X69850000Y-135890000D02*
X72114999Y-133625001D01*
X72114999Y-128545001D02*
X74930000Y-125730000D01*
X78346000Y-125730000D02*
X81240000Y-122836000D01*
X74930000Y-125730000D02*
X78346000Y-125730000D01*
X70135001Y-132166001D02*
X70135001Y-127285001D01*
X67310000Y-134991002D02*
X70135001Y-132166001D01*
X67310000Y-135890000D02*
X67310000Y-134991002D01*
X74584002Y-122836000D02*
X78740000Y-122836000D01*
X70135001Y-127285001D02*
X74584002Y-122836000D01*
D21*
G36*
X92812000Y-71951695D02*
G01*
X92791118Y-71912627D01*
X92373148Y-71636457D01*
X90349605Y-73660000D01*
X92373148Y-75683543D01*
X92791118Y-75407373D01*
X92812000Y-75368206D01*
X92812000Y-85203836D01*
X92647687Y-85039523D01*
X92369252Y-84853479D01*
X92324000Y-84834735D01*
X92324000Y-82074912D01*
X92327676Y-82037589D01*
X92324000Y-82000266D01*
X92324000Y-82000257D01*
X92313003Y-81888604D01*
X92269546Y-81745343D01*
X92226067Y-81664000D01*
X92198974Y-81613313D01*
X92127799Y-81526587D01*
X92104001Y-81497589D01*
X92075004Y-81473792D01*
X90717408Y-80116197D01*
X90936920Y-80011641D01*
X91170269Y-79837588D01*
X91365178Y-79621355D01*
X91514157Y-79371252D01*
X91611481Y-79096891D01*
X91490814Y-78867000D01*
X90297000Y-78867000D01*
X90297000Y-78887000D01*
X90043000Y-78887000D01*
X90043000Y-78867000D01*
X90023000Y-78867000D01*
X90023000Y-78613000D01*
X90043000Y-78613000D01*
X90043000Y-77419845D01*
X90297000Y-77419845D01*
X90297000Y-78613000D01*
X91490814Y-78613000D01*
X91611481Y-78383109D01*
X91514157Y-78108748D01*
X91365178Y-77858645D01*
X91170269Y-77642412D01*
X90936920Y-77468359D01*
X90674099Y-77343175D01*
X90526890Y-77298524D01*
X90297000Y-77419845D01*
X90043000Y-77419845D01*
X89813110Y-77298524D01*
X89665901Y-77343175D01*
X89403080Y-77468359D01*
X89293154Y-77550352D01*
X88796802Y-77054001D01*
X88773000Y-77024998D01*
X88657275Y-76930025D01*
X88525246Y-76859453D01*
X88381985Y-76815996D01*
X88270332Y-76804999D01*
X88270321Y-76804999D01*
X88232999Y-76801323D01*
X88195677Y-76804999D01*
X86302323Y-76804999D01*
X86265000Y-76801323D01*
X86227677Y-76804999D01*
X86227668Y-76804999D01*
X86116015Y-76815996D01*
X85972754Y-76859453D01*
X85840725Y-76930025D01*
X85725000Y-77024998D01*
X85701202Y-77053996D01*
X85455995Y-77299203D01*
X85381111Y-77276487D01*
X85162950Y-77255000D01*
X85017050Y-77255000D01*
X84798889Y-77276487D01*
X84518966Y-77361401D01*
X84260986Y-77499294D01*
X84034866Y-77684866D01*
X83849294Y-77910986D01*
X83820000Y-77965791D01*
X83790706Y-77910986D01*
X83605134Y-77684866D01*
X83379014Y-77499294D01*
X83121034Y-77361401D01*
X82841111Y-77276487D01*
X82622950Y-77255000D01*
X82477050Y-77255000D01*
X82258889Y-77276487D01*
X81978966Y-77361401D01*
X81720986Y-77499294D01*
X81494866Y-77684866D01*
X81309294Y-77910986D01*
X81280000Y-77965791D01*
X81250706Y-77910986D01*
X81065134Y-77684866D01*
X80839014Y-77499294D01*
X80770000Y-77462405D01*
X80770000Y-76669801D01*
X81576653Y-75863148D01*
X88146457Y-75863148D01*
X88422627Y-76281118D01*
X88967557Y-76571649D01*
X89558696Y-76750287D01*
X90173328Y-76810168D01*
X90787831Y-76748990D01*
X91378592Y-76569103D01*
X91917373Y-76281118D01*
X92193543Y-75863148D01*
X90170000Y-73839605D01*
X88146457Y-75863148D01*
X81576653Y-75863148D01*
X82389405Y-75050397D01*
X82688075Y-75174110D01*
X83119872Y-75260000D01*
X83560128Y-75260000D01*
X83991925Y-75174110D01*
X84398669Y-75005631D01*
X84764729Y-74761038D01*
X85076038Y-74449729D01*
X85320631Y-74083669D01*
X85489110Y-73676925D01*
X85491814Y-73663328D01*
X87019832Y-73663328D01*
X87081010Y-74277831D01*
X87260897Y-74868592D01*
X87548882Y-75407373D01*
X87966852Y-75683543D01*
X89990395Y-73660000D01*
X87966852Y-71636457D01*
X87548882Y-71912627D01*
X87258351Y-72457557D01*
X87079713Y-73048696D01*
X87019832Y-73663328D01*
X85491814Y-73663328D01*
X85575000Y-73245128D01*
X85575000Y-72804872D01*
X85489110Y-72373075D01*
X85320631Y-71966331D01*
X85076038Y-71600271D01*
X84932619Y-71456852D01*
X88146457Y-71456852D01*
X90170000Y-73480395D01*
X92193543Y-71456852D01*
X91917373Y-71038882D01*
X91372443Y-70748351D01*
X90781304Y-70569713D01*
X90166672Y-70509832D01*
X89552169Y-70571010D01*
X88961408Y-70750897D01*
X88422627Y-71038882D01*
X88146457Y-71456852D01*
X84932619Y-71456852D01*
X84764729Y-71288962D01*
X84398669Y-71044369D01*
X83991925Y-70875890D01*
X83560128Y-70790000D01*
X83119872Y-70790000D01*
X82688075Y-70875890D01*
X82281331Y-71044369D01*
X81915271Y-71288962D01*
X81603962Y-71600271D01*
X81359369Y-71966331D01*
X81190890Y-72373075D01*
X81105000Y-72804872D01*
X81105000Y-73245128D01*
X81190890Y-73676925D01*
X81314603Y-73975595D01*
X79499003Y-75791196D01*
X79469999Y-75814999D01*
X79441274Y-75850001D01*
X79375026Y-75930724D01*
X79306459Y-76059003D01*
X79304454Y-76062754D01*
X79260997Y-76206015D01*
X79250000Y-76317668D01*
X79250000Y-76317678D01*
X79246324Y-76355000D01*
X79250000Y-76392323D01*
X79250000Y-77462405D01*
X79180986Y-77499294D01*
X78954866Y-77684866D01*
X78769294Y-77910986D01*
X78740000Y-77965791D01*
X78710706Y-77910986D01*
X78525134Y-77684866D01*
X78299014Y-77499294D01*
X78041034Y-77361401D01*
X77761111Y-77276487D01*
X77542950Y-77255000D01*
X77397050Y-77255000D01*
X77178889Y-77276487D01*
X77104005Y-77299203D01*
X74894855Y-75090054D01*
X75098669Y-75005631D01*
X75464729Y-74761038D01*
X75776038Y-74449729D01*
X76020631Y-74083669D01*
X76189110Y-73676925D01*
X76275000Y-73245128D01*
X76275000Y-72804872D01*
X76505000Y-72804872D01*
X76505000Y-73245128D01*
X76590890Y-73676925D01*
X76759369Y-74083669D01*
X77003962Y-74449729D01*
X77315271Y-74761038D01*
X77681331Y-75005631D01*
X78088075Y-75174110D01*
X78519872Y-75260000D01*
X78960128Y-75260000D01*
X79391925Y-75174110D01*
X79798669Y-75005631D01*
X80164729Y-74761038D01*
X80476038Y-74449729D01*
X80720631Y-74083669D01*
X80889110Y-73676925D01*
X80975000Y-73245128D01*
X80975000Y-72804872D01*
X80889110Y-72373075D01*
X80720631Y-71966331D01*
X80476038Y-71600271D01*
X80164729Y-71288962D01*
X79798669Y-71044369D01*
X79391925Y-70875890D01*
X78960128Y-70790000D01*
X78519872Y-70790000D01*
X78088075Y-70875890D01*
X77681331Y-71044369D01*
X77315271Y-71288962D01*
X77003962Y-71600271D01*
X76759369Y-71966331D01*
X76590890Y-72373075D01*
X76505000Y-72804872D01*
X76275000Y-72804872D01*
X76189110Y-72373075D01*
X76020631Y-71966331D01*
X75776038Y-71600271D01*
X75464729Y-71288962D01*
X75098669Y-71044369D01*
X74691925Y-70875890D01*
X74260128Y-70790000D01*
X73819872Y-70790000D01*
X73388075Y-70875890D01*
X73068567Y-71008235D01*
X76405802Y-67671001D01*
X79977677Y-67671001D01*
X80014999Y-67674677D01*
X80052321Y-67671001D01*
X80052332Y-67671001D01*
X80163985Y-67660004D01*
X80307246Y-67616547D01*
X80439275Y-67545975D01*
X80555000Y-67451002D01*
X80578803Y-67421998D01*
X80831070Y-67169731D01*
X81088816Y-67221000D01*
X81391184Y-67221000D01*
X81687743Y-67162011D01*
X81967095Y-67046299D01*
X82218505Y-66878312D01*
X82346737Y-66750080D01*
X82855525Y-66750080D01*
X82939208Y-67004261D01*
X83211775Y-67135158D01*
X83504642Y-67210365D01*
X83806553Y-67226991D01*
X84105907Y-67184397D01*
X84391199Y-67084222D01*
X84540792Y-67004261D01*
X84624475Y-66750080D01*
X83740000Y-65865605D01*
X82855525Y-66750080D01*
X82346737Y-66750080D01*
X82432312Y-66664505D01*
X82527738Y-66521690D01*
X82675920Y-66570475D01*
X83560395Y-65686000D01*
X83919605Y-65686000D01*
X84804080Y-66570475D01*
X85058261Y-66486792D01*
X85189158Y-66214225D01*
X85264365Y-65921358D01*
X85280991Y-65619447D01*
X85238397Y-65320093D01*
X85138222Y-65034801D01*
X85058261Y-64885208D01*
X84804080Y-64801525D01*
X83919605Y-65686000D01*
X83560395Y-65686000D01*
X82675920Y-64801525D01*
X82527738Y-64850310D01*
X82432312Y-64707495D01*
X82346737Y-64621920D01*
X82855525Y-64621920D01*
X83740000Y-65506395D01*
X84624475Y-64621920D01*
X84540792Y-64367739D01*
X84268225Y-64236842D01*
X83975358Y-64161635D01*
X83673447Y-64145009D01*
X83374093Y-64187603D01*
X83088801Y-64287778D01*
X82939208Y-64367739D01*
X82855525Y-64621920D01*
X82346737Y-64621920D01*
X82218505Y-64493688D01*
X81967095Y-64325701D01*
X81687743Y-64209989D01*
X81391184Y-64151000D01*
X81088816Y-64151000D01*
X80792257Y-64209989D01*
X80512905Y-64325701D01*
X80261495Y-64493688D01*
X80223880Y-64531303D01*
X80170537Y-64431506D01*
X80091185Y-64334815D01*
X79994494Y-64255463D01*
X79884180Y-64196498D01*
X79764482Y-64160188D01*
X79640000Y-64147928D01*
X77840000Y-64147928D01*
X77715518Y-64160188D01*
X77595820Y-64196498D01*
X77485506Y-64255463D01*
X77388815Y-64334815D01*
X77309463Y-64431506D01*
X77250498Y-64541820D01*
X77214188Y-64661518D01*
X77201928Y-64786000D01*
X77201928Y-64926000D01*
X75829322Y-64926000D01*
X75791999Y-64922324D01*
X75754676Y-64926000D01*
X75754667Y-64926000D01*
X75643014Y-64936997D01*
X75499753Y-64980454D01*
X75367724Y-65051026D01*
X75251999Y-65145999D01*
X75228201Y-65174997D01*
X70100998Y-70302201D01*
X70072000Y-70325999D01*
X70048202Y-70354997D01*
X70048201Y-70354998D01*
X69977026Y-70441724D01*
X69906454Y-70573754D01*
X69862998Y-70717015D01*
X69848324Y-70866000D01*
X69852001Y-70903332D01*
X69852001Y-71860351D01*
X69513148Y-71636457D01*
X67489605Y-73660000D01*
X67503748Y-73674143D01*
X67324143Y-73853748D01*
X67310000Y-73839605D01*
X65286457Y-75863148D01*
X65562627Y-76281118D01*
X66107557Y-76571649D01*
X66698696Y-76750287D01*
X67270232Y-76805969D01*
X66824273Y-77251928D01*
X66460000Y-77251928D01*
X66335518Y-77264188D01*
X66215820Y-77300498D01*
X66105506Y-77359463D01*
X66008815Y-77438815D01*
X65929463Y-77535506D01*
X65870498Y-77645820D01*
X65834188Y-77765518D01*
X65821928Y-77890000D01*
X65821928Y-79590000D01*
X65834188Y-79714482D01*
X65870498Y-79834180D01*
X65929463Y-79944494D01*
X66008815Y-80041185D01*
X66105506Y-80120537D01*
X66215820Y-80179502D01*
X66335518Y-80215812D01*
X66460000Y-80228072D01*
X68160000Y-80228072D01*
X68284482Y-80215812D01*
X68404180Y-80179502D01*
X68514494Y-80120537D01*
X68611185Y-80041185D01*
X68690537Y-79944494D01*
X68749502Y-79834180D01*
X68770393Y-79765313D01*
X68794866Y-79795134D01*
X69020986Y-79980706D01*
X69278966Y-80118599D01*
X69558889Y-80203513D01*
X69777050Y-80225000D01*
X69922950Y-80225000D01*
X70141111Y-80203513D01*
X70421034Y-80118599D01*
X70679014Y-79980706D01*
X70905134Y-79795134D01*
X71090706Y-79569014D01*
X71120000Y-79514209D01*
X71149294Y-79569014D01*
X71334866Y-79795134D01*
X71560986Y-79980706D01*
X71630000Y-80017595D01*
X71630001Y-81626668D01*
X71626324Y-81664000D01*
X71630001Y-81701333D01*
X71637257Y-81774998D01*
X71640998Y-81812985D01*
X71684454Y-81956246D01*
X71755026Y-82088276D01*
X71826201Y-82175002D01*
X71850000Y-82204001D01*
X71878998Y-82227799D01*
X75470074Y-85818876D01*
X75451330Y-85864128D01*
X75386000Y-86192565D01*
X75386000Y-86527435D01*
X75451330Y-86855872D01*
X75579479Y-87165252D01*
X75765523Y-87443687D01*
X76002313Y-87680477D01*
X76280748Y-87866521D01*
X76590128Y-87994670D01*
X76918565Y-88060000D01*
X77253435Y-88060000D01*
X77581872Y-87994670D01*
X77716001Y-87939112D01*
X77716002Y-95831197D01*
X77640002Y-95907197D01*
X77639996Y-95907202D01*
X77627124Y-95920074D01*
X77581872Y-95901330D01*
X77253435Y-95836000D01*
X76918565Y-95836000D01*
X76590128Y-95901330D01*
X76280748Y-96029479D01*
X76002313Y-96215523D01*
X75765523Y-96452313D01*
X75579479Y-96730748D01*
X75451330Y-97040128D01*
X75386000Y-97368565D01*
X75386000Y-97703435D01*
X75451330Y-98031872D01*
X75579479Y-98341252D01*
X75765523Y-98619687D01*
X76002313Y-98856477D01*
X76280748Y-99042521D01*
X76590128Y-99170670D01*
X76918565Y-99236000D01*
X77253435Y-99236000D01*
X77581872Y-99170670D01*
X77891252Y-99042521D01*
X78169687Y-98856477D01*
X78406477Y-98619687D01*
X78592521Y-98341252D01*
X78611862Y-98294559D01*
X78610928Y-98501000D01*
X78623188Y-98625482D01*
X78659498Y-98745180D01*
X78718463Y-98855494D01*
X78797815Y-98952185D01*
X78894506Y-99031537D01*
X79004820Y-99090502D01*
X79124518Y-99126812D01*
X79249000Y-99139072D01*
X79878250Y-99136000D01*
X80037000Y-98977250D01*
X80037000Y-97663000D01*
X80017000Y-97663000D01*
X80017000Y-97409000D01*
X80037000Y-97409000D01*
X80037000Y-96094750D01*
X80291000Y-96094750D01*
X80291000Y-97409000D01*
X80311000Y-97409000D01*
X80311000Y-97663000D01*
X80291000Y-97663000D01*
X80291000Y-98977250D01*
X80449750Y-99136000D01*
X81079000Y-99139072D01*
X81203482Y-99126812D01*
X81323180Y-99090502D01*
X81433494Y-99031537D01*
X81530185Y-98952185D01*
X81609537Y-98855494D01*
X81668502Y-98745180D01*
X81704812Y-98625482D01*
X81717072Y-98501000D01*
X81715895Y-98240860D01*
X81757479Y-98341252D01*
X81943523Y-98619687D01*
X82180313Y-98856477D01*
X82458748Y-99042521D01*
X82768128Y-99170670D01*
X83096565Y-99236000D01*
X83431435Y-99236000D01*
X83759872Y-99170670D01*
X84069252Y-99042521D01*
X84347687Y-98856477D01*
X84584477Y-98619687D01*
X84654465Y-98514943D01*
X84677678Y-98570985D01*
X84916800Y-98928856D01*
X85221144Y-99233200D01*
X85579015Y-99472322D01*
X85976659Y-99637031D01*
X86398796Y-99721000D01*
X86829204Y-99721000D01*
X87251341Y-99637031D01*
X87648985Y-99472322D01*
X88006856Y-99233200D01*
X88311200Y-98928856D01*
X88550322Y-98570985D01*
X88715031Y-98173341D01*
X88799000Y-97751204D01*
X88799000Y-97320796D01*
X88715031Y-96898659D01*
X88550322Y-96501015D01*
X88311200Y-96143144D01*
X88006856Y-95838800D01*
X87648985Y-95599678D01*
X87251341Y-95434969D01*
X86829204Y-95351000D01*
X86398796Y-95351000D01*
X85976659Y-95434969D01*
X85579015Y-95599678D01*
X85221144Y-95838800D01*
X84916800Y-96143144D01*
X84677678Y-96501015D01*
X84654465Y-96557057D01*
X84584477Y-96452313D01*
X84347687Y-96215523D01*
X84069252Y-96029479D01*
X83759872Y-95901330D01*
X83431435Y-95836000D01*
X83096565Y-95836000D01*
X82768128Y-95901330D01*
X82458748Y-96029479D01*
X82180313Y-96215523D01*
X81943523Y-96452313D01*
X81757479Y-96730748D01*
X81715895Y-96831140D01*
X81717072Y-96571000D01*
X81704812Y-96446518D01*
X81668502Y-96326820D01*
X81609537Y-96216506D01*
X81530185Y-96119815D01*
X81433494Y-96040463D01*
X81323180Y-95981498D01*
X81203482Y-95945188D01*
X81079000Y-95932928D01*
X80449750Y-95936000D01*
X80291000Y-96094750D01*
X80037000Y-96094750D01*
X79878250Y-95936000D01*
X79249000Y-95932928D01*
X79236001Y-95934208D01*
X79236001Y-87961792D01*
X79249000Y-87963072D01*
X79878250Y-87960000D01*
X80037000Y-87801250D01*
X80037000Y-86487000D01*
X80017000Y-86487000D01*
X80017000Y-86233000D01*
X80037000Y-86233000D01*
X80037000Y-84918750D01*
X79878250Y-84760000D01*
X79249000Y-84756928D01*
X79236001Y-84758208D01*
X79236001Y-82323326D01*
X79239677Y-82286001D01*
X79236001Y-82248676D01*
X79236001Y-82248668D01*
X79225004Y-82137015D01*
X79181547Y-81993754D01*
X79110975Y-81861725D01*
X79016002Y-81746000D01*
X78987005Y-81722203D01*
X77489802Y-80225000D01*
X77542950Y-80225000D01*
X77761111Y-80203513D01*
X78041034Y-80118599D01*
X78299014Y-79980706D01*
X78525134Y-79795134D01*
X78710706Y-79569014D01*
X78740000Y-79514209D01*
X78769294Y-79569014D01*
X78954866Y-79795134D01*
X79180986Y-79980706D01*
X79438966Y-80118599D01*
X79718889Y-80203513D01*
X79937050Y-80225000D01*
X80082950Y-80225000D01*
X80301111Y-80203513D01*
X80581034Y-80118599D01*
X80839014Y-79980706D01*
X81065134Y-79795134D01*
X81250706Y-79569014D01*
X81280000Y-79514209D01*
X81309294Y-79569014D01*
X81494866Y-79795134D01*
X81720986Y-79980706D01*
X81978966Y-80118599D01*
X82258889Y-80203513D01*
X82477050Y-80225000D01*
X82622950Y-80225000D01*
X82841111Y-80203513D01*
X83121034Y-80118599D01*
X83379014Y-79980706D01*
X83605134Y-79795134D01*
X83790706Y-79569014D01*
X83820000Y-79514209D01*
X83849294Y-79569014D01*
X84034866Y-79795134D01*
X84260986Y-79980706D01*
X84518966Y-80118599D01*
X84798889Y-80203513D01*
X85017050Y-80225000D01*
X85162950Y-80225000D01*
X85381111Y-80203513D01*
X85661034Y-80118599D01*
X85919014Y-79980706D01*
X86145134Y-79795134D01*
X86330706Y-79569014D01*
X86360000Y-79514209D01*
X86389294Y-79569014D01*
X86574866Y-79795134D01*
X86800986Y-79980706D01*
X87058966Y-80118599D01*
X87338889Y-80203513D01*
X87557050Y-80225000D01*
X87702950Y-80225000D01*
X87921111Y-80203513D01*
X87995995Y-80180797D01*
X88648000Y-80832802D01*
X88648000Y-85560832D01*
X88550322Y-85325015D01*
X88311200Y-84967144D01*
X88006856Y-84662800D01*
X87648985Y-84423678D01*
X87251341Y-84258969D01*
X86829204Y-84175000D01*
X86398796Y-84175000D01*
X85976659Y-84258969D01*
X85579015Y-84423678D01*
X85221144Y-84662800D01*
X84916800Y-84967144D01*
X84677678Y-85325015D01*
X84654465Y-85381057D01*
X84584477Y-85276313D01*
X84347687Y-85039523D01*
X84069252Y-84853479D01*
X83759872Y-84725330D01*
X83431435Y-84660000D01*
X83096565Y-84660000D01*
X82768128Y-84725330D01*
X82458748Y-84853479D01*
X82180313Y-85039523D01*
X81943523Y-85276313D01*
X81757479Y-85554748D01*
X81715895Y-85655140D01*
X81717072Y-85395000D01*
X81704812Y-85270518D01*
X81668502Y-85150820D01*
X81609537Y-85040506D01*
X81530185Y-84943815D01*
X81433494Y-84864463D01*
X81323180Y-84805498D01*
X81203482Y-84769188D01*
X81079000Y-84756928D01*
X80449750Y-84760000D01*
X80291000Y-84918750D01*
X80291000Y-86233000D01*
X80311000Y-86233000D01*
X80311000Y-86487000D01*
X80291000Y-86487000D01*
X80291000Y-87801250D01*
X80449750Y-87960000D01*
X81079000Y-87963072D01*
X81203482Y-87950812D01*
X81323180Y-87914502D01*
X81433494Y-87855537D01*
X81530185Y-87776185D01*
X81609537Y-87679494D01*
X81668502Y-87569180D01*
X81704812Y-87449482D01*
X81717072Y-87325000D01*
X81715895Y-87064860D01*
X81757479Y-87165252D01*
X81943523Y-87443687D01*
X82180313Y-87680477D01*
X82458748Y-87866521D01*
X82768128Y-87994670D01*
X83096565Y-88060000D01*
X83431435Y-88060000D01*
X83759872Y-87994670D01*
X84069252Y-87866521D01*
X84347687Y-87680477D01*
X84584477Y-87443687D01*
X84654465Y-87338943D01*
X84677678Y-87394985D01*
X84916800Y-87752856D01*
X85221144Y-88057200D01*
X85579015Y-88296322D01*
X85976659Y-88461031D01*
X86398796Y-88545000D01*
X86829204Y-88545000D01*
X87251341Y-88461031D01*
X87648985Y-88296322D01*
X88006856Y-88057200D01*
X88311200Y-87752856D01*
X88550322Y-87394985D01*
X88648000Y-87159168D01*
X88648001Y-95342668D01*
X88644324Y-95380000D01*
X88658998Y-95528985D01*
X88702454Y-95672246D01*
X88773026Y-95804276D01*
X88844201Y-95891002D01*
X88868000Y-95920001D01*
X88896998Y-95943799D01*
X89948074Y-96994877D01*
X89929330Y-97040128D01*
X89864000Y-97368565D01*
X89864000Y-97703435D01*
X89929330Y-98031872D01*
X90057479Y-98341252D01*
X90243523Y-98619687D01*
X90480313Y-98856477D01*
X90758748Y-99042521D01*
X91068128Y-99170670D01*
X91396565Y-99236000D01*
X91731435Y-99236000D01*
X92059872Y-99170670D01*
X92369252Y-99042521D01*
X92647687Y-98856477D01*
X92812000Y-98692164D01*
X92812001Y-129101696D01*
X92791118Y-129062627D01*
X92373148Y-128786457D01*
X90349605Y-130810000D01*
X92373148Y-132833543D01*
X92791118Y-132557373D01*
X92812001Y-132518205D01*
X92812001Y-142353837D01*
X92647687Y-142189523D01*
X92369252Y-142003479D01*
X92059872Y-141875330D01*
X91731435Y-141810000D01*
X91396565Y-141810000D01*
X91068128Y-141875330D01*
X91022876Y-141894074D01*
X89754999Y-140626198D01*
X89754999Y-137313850D01*
X89813110Y-137331476D01*
X90043000Y-137210155D01*
X90043000Y-136017000D01*
X90297000Y-136017000D01*
X90297000Y-137210155D01*
X90526890Y-137331476D01*
X90674099Y-137286825D01*
X90936920Y-137161641D01*
X91170269Y-136987588D01*
X91365178Y-136771355D01*
X91514157Y-136521252D01*
X91611481Y-136246891D01*
X91490814Y-136017000D01*
X90297000Y-136017000D01*
X90043000Y-136017000D01*
X90023000Y-136017000D01*
X90023000Y-135763000D01*
X90043000Y-135763000D01*
X90043000Y-134569845D01*
X90297000Y-134569845D01*
X90297000Y-135763000D01*
X91490814Y-135763000D01*
X91611481Y-135533109D01*
X91514157Y-135258748D01*
X91365178Y-135008645D01*
X91170269Y-134792412D01*
X90936920Y-134618359D01*
X90674099Y-134493175D01*
X90526890Y-134448524D01*
X90297000Y-134569845D01*
X90043000Y-134569845D01*
X89813110Y-134448524D01*
X89665901Y-134493175D01*
X89403080Y-134618359D01*
X89270817Y-134717013D01*
X88757804Y-134204001D01*
X88734002Y-134174998D01*
X88618277Y-134080025D01*
X88486248Y-134009453D01*
X88342987Y-133965996D01*
X88231334Y-133954999D01*
X88231323Y-133954999D01*
X88194001Y-133951323D01*
X88156679Y-133954999D01*
X86302323Y-133954999D01*
X86265000Y-133951323D01*
X86227677Y-133954999D01*
X86227668Y-133954999D01*
X86116015Y-133965996D01*
X85972754Y-134009453D01*
X85840725Y-134080025D01*
X85725000Y-134174998D01*
X85701202Y-134203996D01*
X85455995Y-134449203D01*
X85381111Y-134426487D01*
X85162950Y-134405000D01*
X85017050Y-134405000D01*
X84798889Y-134426487D01*
X84518966Y-134511401D01*
X84260986Y-134649294D01*
X84034866Y-134834866D01*
X83849294Y-135060986D01*
X83820000Y-135115791D01*
X83790706Y-135060986D01*
X83605134Y-134834866D01*
X83379014Y-134649294D01*
X83121034Y-134511401D01*
X82841111Y-134426487D01*
X82622950Y-134405000D01*
X82477050Y-134405000D01*
X82258889Y-134426487D01*
X81978966Y-134511401D01*
X81720986Y-134649294D01*
X81494866Y-134834866D01*
X81309294Y-135060986D01*
X81280000Y-135115791D01*
X81250706Y-135060986D01*
X81065134Y-134834866D01*
X80839014Y-134649294D01*
X80770000Y-134612405D01*
X80770000Y-133819801D01*
X81576653Y-133013148D01*
X88146457Y-133013148D01*
X88422627Y-133431118D01*
X88967557Y-133721649D01*
X89558696Y-133900287D01*
X90173328Y-133960168D01*
X90787831Y-133898990D01*
X91378592Y-133719103D01*
X91917373Y-133431118D01*
X92193543Y-133013148D01*
X90170000Y-130989605D01*
X88146457Y-133013148D01*
X81576653Y-133013148D01*
X82389405Y-132200397D01*
X82688075Y-132324110D01*
X83119872Y-132410000D01*
X83560128Y-132410000D01*
X83991925Y-132324110D01*
X84398669Y-132155631D01*
X84764729Y-131911038D01*
X85076038Y-131599729D01*
X85320631Y-131233669D01*
X85489110Y-130826925D01*
X85491814Y-130813328D01*
X87019832Y-130813328D01*
X87081010Y-131427831D01*
X87260897Y-132018592D01*
X87548882Y-132557373D01*
X87966852Y-132833543D01*
X89990395Y-130810000D01*
X87966852Y-128786457D01*
X87548882Y-129062627D01*
X87258351Y-129607557D01*
X87079713Y-130198696D01*
X87019832Y-130813328D01*
X85491814Y-130813328D01*
X85575000Y-130395128D01*
X85575000Y-129954872D01*
X85489110Y-129523075D01*
X85320631Y-129116331D01*
X85076038Y-128750271D01*
X84932619Y-128606852D01*
X88146457Y-128606852D01*
X90170000Y-130630395D01*
X92193543Y-128606852D01*
X91917373Y-128188882D01*
X91372443Y-127898351D01*
X90781304Y-127719713D01*
X90166672Y-127659832D01*
X89552169Y-127721010D01*
X88961408Y-127900897D01*
X88422627Y-128188882D01*
X88146457Y-128606852D01*
X84932619Y-128606852D01*
X84764729Y-128438962D01*
X84398669Y-128194369D01*
X83991925Y-128025890D01*
X83560128Y-127940000D01*
X83119872Y-127940000D01*
X82688075Y-128025890D01*
X82281331Y-128194369D01*
X81915271Y-128438962D01*
X81603962Y-128750271D01*
X81359369Y-129116331D01*
X81190890Y-129523075D01*
X81105000Y-129954872D01*
X81105000Y-130395128D01*
X81190890Y-130826925D01*
X81314603Y-131125595D01*
X79498998Y-132941201D01*
X79470000Y-132964999D01*
X79446202Y-132993997D01*
X79446201Y-132993998D01*
X79375026Y-133080724D01*
X79304454Y-133212754D01*
X79274180Y-133312558D01*
X79268054Y-133332755D01*
X79260998Y-133356015D01*
X79246324Y-133505000D01*
X79250001Y-133542332D01*
X79250001Y-134612405D01*
X79180986Y-134649294D01*
X78954866Y-134834866D01*
X78769294Y-135060986D01*
X78740000Y-135115791D01*
X78710706Y-135060986D01*
X78525134Y-134834866D01*
X78299014Y-134649294D01*
X78230000Y-134612405D01*
X78230000Y-133642333D01*
X78233677Y-133605000D01*
X78219003Y-133456014D01*
X78175546Y-133312753D01*
X78104974Y-133180724D01*
X78033799Y-133093997D01*
X78010001Y-133064999D01*
X77981003Y-133041201D01*
X76065397Y-131125595D01*
X76189110Y-130826925D01*
X76275000Y-130395128D01*
X76275000Y-129954872D01*
X76505000Y-129954872D01*
X76505000Y-130395128D01*
X76590890Y-130826925D01*
X76759369Y-131233669D01*
X77003962Y-131599729D01*
X77315271Y-131911038D01*
X77681331Y-132155631D01*
X78088075Y-132324110D01*
X78519872Y-132410000D01*
X78960128Y-132410000D01*
X79391925Y-132324110D01*
X79798669Y-132155631D01*
X80164729Y-131911038D01*
X80476038Y-131599729D01*
X80720631Y-131233669D01*
X80889110Y-130826925D01*
X80975000Y-130395128D01*
X80975000Y-129954872D01*
X80889110Y-129523075D01*
X80720631Y-129116331D01*
X80476038Y-128750271D01*
X80164729Y-128438962D01*
X79798669Y-128194369D01*
X79391925Y-128025890D01*
X78960128Y-127940000D01*
X78519872Y-127940000D01*
X78088075Y-128025890D01*
X77681331Y-128194369D01*
X77315271Y-128438962D01*
X77003962Y-128750271D01*
X76759369Y-129116331D01*
X76590890Y-129523075D01*
X76505000Y-129954872D01*
X76275000Y-129954872D01*
X76189110Y-129523075D01*
X76020631Y-129116331D01*
X75776038Y-128750271D01*
X75464729Y-128438962D01*
X75098669Y-128194369D01*
X74691925Y-128025890D01*
X74260128Y-127940000D01*
X73819872Y-127940000D01*
X73788576Y-127946225D01*
X75244802Y-126490000D01*
X78308678Y-126490000D01*
X78346000Y-126493676D01*
X78383322Y-126490000D01*
X78383333Y-126490000D01*
X78494986Y-126479003D01*
X78638247Y-126435546D01*
X78770276Y-126364974D01*
X78886001Y-126270001D01*
X78909804Y-126240997D01*
X80831070Y-124319731D01*
X81088816Y-124371000D01*
X81391184Y-124371000D01*
X81687743Y-124312011D01*
X81967095Y-124196299D01*
X82218505Y-124028312D01*
X82346737Y-123900080D01*
X82855525Y-123900080D01*
X82939208Y-124154261D01*
X83211775Y-124285158D01*
X83504642Y-124360365D01*
X83806553Y-124376991D01*
X84105907Y-124334397D01*
X84391199Y-124234222D01*
X84540792Y-124154261D01*
X84624475Y-123900080D01*
X83740000Y-123015605D01*
X82855525Y-123900080D01*
X82346737Y-123900080D01*
X82432312Y-123814505D01*
X82527738Y-123671690D01*
X82675920Y-123720475D01*
X83560395Y-122836000D01*
X83919605Y-122836000D01*
X84804080Y-123720475D01*
X85058261Y-123636792D01*
X85189158Y-123364225D01*
X85264365Y-123071358D01*
X85280991Y-122769447D01*
X85238397Y-122470093D01*
X85138222Y-122184801D01*
X85058261Y-122035208D01*
X84804080Y-121951525D01*
X83919605Y-122836000D01*
X83560395Y-122836000D01*
X82675920Y-121951525D01*
X82527738Y-122000310D01*
X82432312Y-121857495D01*
X82346737Y-121771920D01*
X82855525Y-121771920D01*
X83740000Y-122656395D01*
X84624475Y-121771920D01*
X84540792Y-121517739D01*
X84268225Y-121386842D01*
X83975358Y-121311635D01*
X83673447Y-121295009D01*
X83374093Y-121337603D01*
X83088801Y-121437778D01*
X82939208Y-121517739D01*
X82855525Y-121771920D01*
X82346737Y-121771920D01*
X82218505Y-121643688D01*
X81967095Y-121475701D01*
X81687743Y-121359989D01*
X81391184Y-121301000D01*
X81088816Y-121301000D01*
X80792257Y-121359989D01*
X80512905Y-121475701D01*
X80261495Y-121643688D01*
X80223880Y-121681303D01*
X80170537Y-121581506D01*
X80091185Y-121484815D01*
X79994494Y-121405463D01*
X79884180Y-121346498D01*
X79764482Y-121310188D01*
X79640000Y-121297928D01*
X77840000Y-121297928D01*
X77715518Y-121310188D01*
X77595820Y-121346498D01*
X77485506Y-121405463D01*
X77388815Y-121484815D01*
X77309463Y-121581506D01*
X77250498Y-121691820D01*
X77214188Y-121811518D01*
X77201928Y-121936000D01*
X77201928Y-122076000D01*
X74621335Y-122076000D01*
X74584002Y-122072323D01*
X74546669Y-122076000D01*
X74435016Y-122086997D01*
X74291755Y-122130454D01*
X74159726Y-122201026D01*
X74044001Y-122295999D01*
X74020203Y-122324997D01*
X69623999Y-126721202D01*
X69595001Y-126745000D01*
X69571203Y-126773998D01*
X69571202Y-126773999D01*
X69500027Y-126860725D01*
X69429455Y-126992755D01*
X69385999Y-127136016D01*
X69371325Y-127285001D01*
X69375002Y-127322333D01*
X69375002Y-128565390D01*
X69333542Y-128606850D01*
X69057373Y-128188882D01*
X68512443Y-127898351D01*
X67921304Y-127719713D01*
X67306672Y-127659832D01*
X66692169Y-127721010D01*
X66101408Y-127900897D01*
X65562627Y-128188882D01*
X65286457Y-128606852D01*
X67310000Y-130630395D01*
X67324143Y-130616253D01*
X67503748Y-130795858D01*
X67489605Y-130810000D01*
X67503748Y-130824143D01*
X67324143Y-131003748D01*
X67310000Y-130989605D01*
X65286457Y-133013148D01*
X65562627Y-133431118D01*
X66107557Y-133721649D01*
X66698696Y-133900287D01*
X67270232Y-133955969D01*
X66824273Y-134401928D01*
X66460000Y-134401928D01*
X66335518Y-134414188D01*
X66215820Y-134450498D01*
X66105506Y-134509463D01*
X66008815Y-134588815D01*
X65929463Y-134685506D01*
X65870498Y-134795820D01*
X65834188Y-134915518D01*
X65821928Y-135040000D01*
X65821928Y-136740000D01*
X65834188Y-136864482D01*
X65870498Y-136984180D01*
X65929463Y-137094494D01*
X66008815Y-137191185D01*
X66105506Y-137270537D01*
X66215820Y-137329502D01*
X66335518Y-137365812D01*
X66460000Y-137378072D01*
X68160000Y-137378072D01*
X68284482Y-137365812D01*
X68404180Y-137329502D01*
X68514494Y-137270537D01*
X68611185Y-137191185D01*
X68690537Y-137094494D01*
X68749502Y-136984180D01*
X68770393Y-136915313D01*
X68794866Y-136945134D01*
X69020986Y-137130706D01*
X69278966Y-137268599D01*
X69558889Y-137353513D01*
X69777050Y-137375000D01*
X69922950Y-137375000D01*
X70141111Y-137353513D01*
X70421034Y-137268599D01*
X70679014Y-137130706D01*
X70905134Y-136945134D01*
X71090706Y-136719014D01*
X71120000Y-136664209D01*
X71149294Y-136719014D01*
X71334866Y-136945134D01*
X71560986Y-137130706D01*
X71630000Y-137167595D01*
X71630001Y-138776668D01*
X71626324Y-138814000D01*
X71640998Y-138962985D01*
X71684454Y-139106246D01*
X71755026Y-139238276D01*
X71826201Y-139325002D01*
X71850000Y-139354001D01*
X71878998Y-139377799D01*
X75470074Y-142968876D01*
X75451330Y-143014128D01*
X75386000Y-143342565D01*
X75386000Y-143677435D01*
X75451330Y-144005872D01*
X75579479Y-144315252D01*
X75765523Y-144593687D01*
X76002313Y-144830477D01*
X76280748Y-145016521D01*
X76590128Y-145144670D01*
X76918565Y-145210000D01*
X77253435Y-145210000D01*
X77581872Y-145144670D01*
X77891252Y-145016521D01*
X77980000Y-144957221D01*
X77980001Y-152717197D01*
X77640001Y-153057198D01*
X77639996Y-153057202D01*
X77627124Y-153070074D01*
X77581872Y-153051330D01*
X77253435Y-152986000D01*
X76918565Y-152986000D01*
X76590128Y-153051330D01*
X76280748Y-153179479D01*
X76002313Y-153365523D01*
X75765523Y-153602313D01*
X75579479Y-153880748D01*
X75451330Y-154190128D01*
X75386000Y-154518565D01*
X75386000Y-154853435D01*
X75451330Y-155181872D01*
X75579479Y-155491252D01*
X75765523Y-155769687D01*
X76002313Y-156006477D01*
X76280748Y-156192521D01*
X76590128Y-156320670D01*
X76918565Y-156386000D01*
X77253435Y-156386000D01*
X77581872Y-156320670D01*
X77891252Y-156192521D01*
X78169687Y-156006477D01*
X78406477Y-155769687D01*
X78592521Y-155491252D01*
X78611862Y-155444559D01*
X78610928Y-155651000D01*
X78623188Y-155775482D01*
X78659498Y-155895180D01*
X78718463Y-156005494D01*
X78797815Y-156102185D01*
X78894506Y-156181537D01*
X79004820Y-156240502D01*
X79124518Y-156276812D01*
X79249000Y-156289072D01*
X79878250Y-156286000D01*
X80037000Y-156127250D01*
X80037000Y-154813000D01*
X80017000Y-154813000D01*
X80017000Y-154559000D01*
X80037000Y-154559000D01*
X80037000Y-153244750D01*
X80291000Y-153244750D01*
X80291000Y-154559000D01*
X80311000Y-154559000D01*
X80311000Y-154813000D01*
X80291000Y-154813000D01*
X80291000Y-156127250D01*
X80449750Y-156286000D01*
X81079000Y-156289072D01*
X81203482Y-156276812D01*
X81323180Y-156240502D01*
X81433494Y-156181537D01*
X81530185Y-156102185D01*
X81609537Y-156005494D01*
X81668502Y-155895180D01*
X81704812Y-155775482D01*
X81717072Y-155651000D01*
X81715895Y-155390860D01*
X81757479Y-155491252D01*
X81943523Y-155769687D01*
X82180313Y-156006477D01*
X82458748Y-156192521D01*
X82768128Y-156320670D01*
X83096565Y-156386000D01*
X83431435Y-156386000D01*
X83759872Y-156320670D01*
X84069252Y-156192521D01*
X84347687Y-156006477D01*
X84584477Y-155769687D01*
X84654465Y-155664943D01*
X84677678Y-155720985D01*
X84916800Y-156078856D01*
X85221144Y-156383200D01*
X85579015Y-156622322D01*
X85976659Y-156787031D01*
X86398796Y-156871000D01*
X86829204Y-156871000D01*
X87251341Y-156787031D01*
X87648985Y-156622322D01*
X88006856Y-156383200D01*
X88311200Y-156078856D01*
X88550322Y-155720985D01*
X88715031Y-155323341D01*
X88799000Y-154901204D01*
X88799000Y-154470796D01*
X88715031Y-154048659D01*
X88550322Y-153651015D01*
X88311200Y-153293144D01*
X88006856Y-152988800D01*
X87648985Y-152749678D01*
X87251341Y-152584969D01*
X86829204Y-152501000D01*
X86398796Y-152501000D01*
X85976659Y-152584969D01*
X85579015Y-152749678D01*
X85221144Y-152988800D01*
X84916800Y-153293144D01*
X84677678Y-153651015D01*
X84654465Y-153707057D01*
X84584477Y-153602313D01*
X84347687Y-153365523D01*
X84069252Y-153179479D01*
X83759872Y-153051330D01*
X83431435Y-152986000D01*
X83096565Y-152986000D01*
X82768128Y-153051330D01*
X82458748Y-153179479D01*
X82180313Y-153365523D01*
X81943523Y-153602313D01*
X81757479Y-153880748D01*
X81715895Y-153981140D01*
X81717072Y-153721000D01*
X81704812Y-153596518D01*
X81668502Y-153476820D01*
X81609537Y-153366506D01*
X81530185Y-153269815D01*
X81433494Y-153190463D01*
X81323180Y-153131498D01*
X81203482Y-153095188D01*
X81079000Y-153082928D01*
X80449750Y-153086000D01*
X80291000Y-153244750D01*
X80037000Y-153244750D01*
X79878250Y-153086000D01*
X79498541Y-153084146D01*
X79500000Y-153069333D01*
X79500000Y-153069324D01*
X79503676Y-153032001D01*
X79500000Y-152994678D01*
X79500000Y-145111847D01*
X79878250Y-145110000D01*
X80037000Y-144951250D01*
X80037000Y-143637000D01*
X80017000Y-143637000D01*
X80017000Y-143383000D01*
X80037000Y-143383000D01*
X80037000Y-142068750D01*
X79878250Y-141910000D01*
X79500000Y-141908153D01*
X79500000Y-139737325D01*
X79503676Y-139700000D01*
X79500000Y-139662675D01*
X79500000Y-139662667D01*
X79489003Y-139551014D01*
X79445546Y-139407753D01*
X79374974Y-139275724D01*
X79280001Y-139159999D01*
X79251004Y-139136202D01*
X77489802Y-137375000D01*
X77542950Y-137375000D01*
X77761111Y-137353513D01*
X78041034Y-137268599D01*
X78299014Y-137130706D01*
X78525134Y-136945134D01*
X78710706Y-136719014D01*
X78740000Y-136664209D01*
X78769294Y-136719014D01*
X78954866Y-136945134D01*
X79180986Y-137130706D01*
X79438966Y-137268599D01*
X79718889Y-137353513D01*
X79937050Y-137375000D01*
X80082950Y-137375000D01*
X80301111Y-137353513D01*
X80581034Y-137268599D01*
X80839014Y-137130706D01*
X81065134Y-136945134D01*
X81250706Y-136719014D01*
X81280000Y-136664209D01*
X81309294Y-136719014D01*
X81494866Y-136945134D01*
X81720986Y-137130706D01*
X81978966Y-137268599D01*
X82258889Y-137353513D01*
X82477050Y-137375000D01*
X82622950Y-137375000D01*
X82841111Y-137353513D01*
X83121034Y-137268599D01*
X83379014Y-137130706D01*
X83605134Y-136945134D01*
X83790706Y-136719014D01*
X83820000Y-136664209D01*
X83849294Y-136719014D01*
X84034866Y-136945134D01*
X84260986Y-137130706D01*
X84518966Y-137268599D01*
X84798889Y-137353513D01*
X85017050Y-137375000D01*
X85162950Y-137375000D01*
X85381111Y-137353513D01*
X85661034Y-137268599D01*
X85919014Y-137130706D01*
X86145134Y-136945134D01*
X86330706Y-136719014D01*
X86360000Y-136664209D01*
X86389294Y-136719014D01*
X86574866Y-136945134D01*
X86800986Y-137130706D01*
X87058966Y-137268599D01*
X87338889Y-137353513D01*
X87557050Y-137375000D01*
X87702950Y-137375000D01*
X87784989Y-137366920D01*
X87784989Y-141664553D01*
X87648985Y-141573678D01*
X87251341Y-141408969D01*
X86829204Y-141325000D01*
X86398796Y-141325000D01*
X85976659Y-141408969D01*
X85579015Y-141573678D01*
X85221144Y-141812800D01*
X84916800Y-142117144D01*
X84677678Y-142475015D01*
X84654465Y-142531057D01*
X84584477Y-142426313D01*
X84347687Y-142189523D01*
X84069252Y-142003479D01*
X83759872Y-141875330D01*
X83431435Y-141810000D01*
X83096565Y-141810000D01*
X82768128Y-141875330D01*
X82458748Y-142003479D01*
X82180313Y-142189523D01*
X81943523Y-142426313D01*
X81757479Y-142704748D01*
X81715895Y-142805140D01*
X81717072Y-142545000D01*
X81704812Y-142420518D01*
X81668502Y-142300820D01*
X81609537Y-142190506D01*
X81530185Y-142093815D01*
X81433494Y-142014463D01*
X81323180Y-141955498D01*
X81203482Y-141919188D01*
X81079000Y-141906928D01*
X80449750Y-141910000D01*
X80291000Y-142068750D01*
X80291000Y-143383000D01*
X80311000Y-143383000D01*
X80311000Y-143637000D01*
X80291000Y-143637000D01*
X80291000Y-144951250D01*
X80449750Y-145110000D01*
X81079000Y-145113072D01*
X81203482Y-145100812D01*
X81323180Y-145064502D01*
X81433494Y-145005537D01*
X81530185Y-144926185D01*
X81609537Y-144829494D01*
X81668502Y-144719180D01*
X81704812Y-144599482D01*
X81717072Y-144475000D01*
X81715895Y-144214860D01*
X81757479Y-144315252D01*
X81943523Y-144593687D01*
X82180313Y-144830477D01*
X82458748Y-145016521D01*
X82768128Y-145144670D01*
X83096565Y-145210000D01*
X83431435Y-145210000D01*
X83759872Y-145144670D01*
X84069252Y-145016521D01*
X84347687Y-144830477D01*
X84584477Y-144593687D01*
X84654465Y-144488943D01*
X84677678Y-144544985D01*
X84916800Y-144902856D01*
X85221144Y-145207200D01*
X85579015Y-145446322D01*
X85976659Y-145611031D01*
X86398796Y-145695000D01*
X86829204Y-145695000D01*
X87251341Y-145611031D01*
X87648985Y-145446322D01*
X87784990Y-145355447D01*
X87784990Y-151629657D01*
X87781313Y-151666989D01*
X87795987Y-151815974D01*
X87839443Y-151959235D01*
X87910015Y-152091265D01*
X87981190Y-152177991D01*
X88004989Y-152206990D01*
X88033987Y-152230788D01*
X89948074Y-154144876D01*
X89929330Y-154190128D01*
X89864000Y-154518565D01*
X89864000Y-154853435D01*
X89929330Y-155181872D01*
X90057479Y-155491252D01*
X90243523Y-155769687D01*
X90480313Y-156006477D01*
X90758748Y-156192521D01*
X91068128Y-156320670D01*
X91396565Y-156386000D01*
X91731435Y-156386000D01*
X92059872Y-156320670D01*
X92369252Y-156192521D01*
X92647687Y-156006477D01*
X92812001Y-155842163D01*
X92812001Y-159360000D01*
X64668000Y-159360000D01*
X64668000Y-156278928D01*
X64771000Y-156289072D01*
X65400250Y-156286000D01*
X65559000Y-156127250D01*
X65559000Y-154813000D01*
X65539000Y-154813000D01*
X65539000Y-154559000D01*
X65559000Y-154559000D01*
X65559000Y-153244750D01*
X65813000Y-153244750D01*
X65813000Y-154559000D01*
X65833000Y-154559000D01*
X65833000Y-154813000D01*
X65813000Y-154813000D01*
X65813000Y-156127250D01*
X65971750Y-156286000D01*
X66601000Y-156289072D01*
X66725482Y-156276812D01*
X66845180Y-156240502D01*
X66955494Y-156181537D01*
X67052185Y-156102185D01*
X67131537Y-156005494D01*
X67190502Y-155895180D01*
X67226812Y-155775482D01*
X67239072Y-155651000D01*
X67237895Y-155390860D01*
X67279479Y-155491252D01*
X67465523Y-155769687D01*
X67702313Y-156006477D01*
X67980748Y-156192521D01*
X68290128Y-156320670D01*
X68618565Y-156386000D01*
X68953435Y-156386000D01*
X69281872Y-156320670D01*
X69591252Y-156192521D01*
X69869687Y-156006477D01*
X70106477Y-155769687D01*
X70176465Y-155664943D01*
X70199678Y-155720985D01*
X70438800Y-156078856D01*
X70743144Y-156383200D01*
X71101015Y-156622322D01*
X71498659Y-156787031D01*
X71920796Y-156871000D01*
X72351204Y-156871000D01*
X72773341Y-156787031D01*
X73170985Y-156622322D01*
X73528856Y-156383200D01*
X73833200Y-156078856D01*
X74072322Y-155720985D01*
X74237031Y-155323341D01*
X74321000Y-154901204D01*
X74321000Y-154470796D01*
X74237031Y-154048659D01*
X74072322Y-153651015D01*
X73833200Y-153293144D01*
X73528856Y-152988800D01*
X73170985Y-152749678D01*
X72773341Y-152584969D01*
X72351204Y-152501000D01*
X71920796Y-152501000D01*
X71498659Y-152584969D01*
X71101015Y-152749678D01*
X70743144Y-152988800D01*
X70438800Y-153293144D01*
X70199678Y-153651015D01*
X70176465Y-153707057D01*
X70106477Y-153602313D01*
X69869687Y-153365523D01*
X69591252Y-153179479D01*
X69281872Y-153051330D01*
X68953435Y-152986000D01*
X68618565Y-152986000D01*
X68290128Y-153051330D01*
X67980748Y-153179479D01*
X67702313Y-153365523D01*
X67465523Y-153602313D01*
X67279479Y-153880748D01*
X67237895Y-153981140D01*
X67239072Y-153721000D01*
X67226812Y-153596518D01*
X67190502Y-153476820D01*
X67131537Y-153366506D01*
X67052185Y-153269815D01*
X66955494Y-153190463D01*
X66845180Y-153131498D01*
X66725482Y-153095188D01*
X66601000Y-153082928D01*
X65971750Y-153086000D01*
X65813000Y-153244750D01*
X65559000Y-153244750D01*
X65400250Y-153086000D01*
X64771000Y-153082928D01*
X64668000Y-153093072D01*
X64668000Y-145102928D01*
X64771000Y-145113072D01*
X65400250Y-145110000D01*
X65559000Y-144951250D01*
X65559000Y-143637000D01*
X65539000Y-143637000D01*
X65539000Y-143383000D01*
X65559000Y-143383000D01*
X65559000Y-142068750D01*
X65813000Y-142068750D01*
X65813000Y-143383000D01*
X65833000Y-143383000D01*
X65833000Y-143637000D01*
X65813000Y-143637000D01*
X65813000Y-144951250D01*
X65971750Y-145110000D01*
X66601000Y-145113072D01*
X66725482Y-145100812D01*
X66845180Y-145064502D01*
X66955494Y-145005537D01*
X67052185Y-144926185D01*
X67131537Y-144829494D01*
X67190502Y-144719180D01*
X67226812Y-144599482D01*
X67239072Y-144475000D01*
X67237895Y-144214860D01*
X67279479Y-144315252D01*
X67465523Y-144593687D01*
X67702313Y-144830477D01*
X67980748Y-145016521D01*
X68290128Y-145144670D01*
X68618565Y-145210000D01*
X68953435Y-145210000D01*
X69281872Y-145144670D01*
X69591252Y-145016521D01*
X69869687Y-144830477D01*
X70106477Y-144593687D01*
X70176465Y-144488943D01*
X70199678Y-144544985D01*
X70438800Y-144902856D01*
X70743144Y-145207200D01*
X71101015Y-145446322D01*
X71498659Y-145611031D01*
X71920796Y-145695000D01*
X72351204Y-145695000D01*
X72773341Y-145611031D01*
X73170985Y-145446322D01*
X73528856Y-145207200D01*
X73833200Y-144902856D01*
X74072322Y-144544985D01*
X74237031Y-144147341D01*
X74321000Y-143725204D01*
X74321000Y-143294796D01*
X74237031Y-142872659D01*
X74072322Y-142475015D01*
X73833200Y-142117144D01*
X73528856Y-141812800D01*
X73170985Y-141573678D01*
X72773341Y-141408969D01*
X72351204Y-141325000D01*
X71920796Y-141325000D01*
X71498659Y-141408969D01*
X71101015Y-141573678D01*
X70743144Y-141812800D01*
X70438800Y-142117144D01*
X70199678Y-142475015D01*
X70176465Y-142531057D01*
X70106477Y-142426313D01*
X69869687Y-142189523D01*
X69591252Y-142003479D01*
X69281872Y-141875330D01*
X68953435Y-141810000D01*
X68618565Y-141810000D01*
X68290128Y-141875330D01*
X67980748Y-142003479D01*
X67702313Y-142189523D01*
X67465523Y-142426313D01*
X67279479Y-142704748D01*
X67237895Y-142805140D01*
X67239072Y-142545000D01*
X67226812Y-142420518D01*
X67190502Y-142300820D01*
X67131537Y-142190506D01*
X67052185Y-142093815D01*
X66955494Y-142014463D01*
X66845180Y-141955498D01*
X66725482Y-141919188D01*
X66601000Y-141906928D01*
X65971750Y-141910000D01*
X65813000Y-142068750D01*
X65559000Y-142068750D01*
X65400250Y-141910000D01*
X64771000Y-141906928D01*
X64668000Y-141917072D01*
X64668000Y-132518306D01*
X64688882Y-132557373D01*
X65106852Y-132833543D01*
X67130395Y-130810000D01*
X65106852Y-128786457D01*
X64688882Y-129062627D01*
X64668000Y-129101794D01*
X64668000Y-115873162D01*
X73910333Y-115873162D01*
X74046652Y-116322553D01*
X74286067Y-116780270D01*
X74610178Y-117182485D01*
X75006530Y-117513740D01*
X75459890Y-117761306D01*
X75952837Y-117915669D01*
X76363000Y-117809190D01*
X76363000Y-115463000D01*
X76617000Y-115463000D01*
X76617000Y-117809190D01*
X77027163Y-117915669D01*
X77520110Y-117761306D01*
X77973470Y-117513740D01*
X78369822Y-117182485D01*
X78693933Y-116780270D01*
X78933348Y-116322553D01*
X79069667Y-115873162D01*
X83410333Y-115873162D01*
X83546652Y-116322553D01*
X83786067Y-116780270D01*
X84110178Y-117182485D01*
X84506530Y-117513740D01*
X84959890Y-117761306D01*
X85452837Y-117915669D01*
X85863000Y-117809190D01*
X85863000Y-115463000D01*
X86117000Y-115463000D01*
X86117000Y-117809190D01*
X86527163Y-117915669D01*
X87020110Y-117761306D01*
X87473470Y-117513740D01*
X87869822Y-117182485D01*
X88193933Y-116780270D01*
X88433348Y-116322553D01*
X88569667Y-115873162D01*
X88462991Y-115463000D01*
X86117000Y-115463000D01*
X85863000Y-115463000D01*
X83517009Y-115463000D01*
X83410333Y-115873162D01*
X79069667Y-115873162D01*
X78962991Y-115463000D01*
X76617000Y-115463000D01*
X76363000Y-115463000D01*
X74017009Y-115463000D01*
X73910333Y-115873162D01*
X64668000Y-115873162D01*
X64668000Y-114798838D01*
X73910333Y-114798838D01*
X74017009Y-115209000D01*
X76363000Y-115209000D01*
X76363000Y-112862810D01*
X76617000Y-112862810D01*
X76617000Y-115209000D01*
X78962991Y-115209000D01*
X79069667Y-114798838D01*
X83410333Y-114798838D01*
X83517009Y-115209000D01*
X85863000Y-115209000D01*
X85863000Y-112862810D01*
X86117000Y-112862810D01*
X86117000Y-115209000D01*
X88462991Y-115209000D01*
X88569667Y-114798838D01*
X88433348Y-114349447D01*
X88193933Y-113891730D01*
X87869822Y-113489515D01*
X87473470Y-113158260D01*
X87020110Y-112910694D01*
X86527163Y-112756331D01*
X86117000Y-112862810D01*
X85863000Y-112862810D01*
X85452837Y-112756331D01*
X84959890Y-112910694D01*
X84506530Y-113158260D01*
X84110178Y-113489515D01*
X83786067Y-113891730D01*
X83546652Y-114349447D01*
X83410333Y-114798838D01*
X79069667Y-114798838D01*
X78933348Y-114349447D01*
X78693933Y-113891730D01*
X78369822Y-113489515D01*
X77973470Y-113158260D01*
X77520110Y-112910694D01*
X77027163Y-112756331D01*
X76617000Y-112862810D01*
X76363000Y-112862810D01*
X75952837Y-112756331D01*
X75459890Y-112910694D01*
X75006530Y-113158260D01*
X74610178Y-113489515D01*
X74286067Y-113891730D01*
X74046652Y-114349447D01*
X73910333Y-114798838D01*
X64668000Y-114798838D01*
X64668000Y-99128928D01*
X64771000Y-99139072D01*
X65400250Y-99136000D01*
X65559000Y-98977250D01*
X65559000Y-97663000D01*
X65539000Y-97663000D01*
X65539000Y-97409000D01*
X65559000Y-97409000D01*
X65559000Y-96094750D01*
X65813000Y-96094750D01*
X65813000Y-97409000D01*
X65833000Y-97409000D01*
X65833000Y-97663000D01*
X65813000Y-97663000D01*
X65813000Y-98977250D01*
X65971750Y-99136000D01*
X66601000Y-99139072D01*
X66725482Y-99126812D01*
X66845180Y-99090502D01*
X66955494Y-99031537D01*
X67052185Y-98952185D01*
X67131537Y-98855494D01*
X67190502Y-98745180D01*
X67226812Y-98625482D01*
X67239072Y-98501000D01*
X67237895Y-98240860D01*
X67279479Y-98341252D01*
X67465523Y-98619687D01*
X67702313Y-98856477D01*
X67980748Y-99042521D01*
X68290128Y-99170670D01*
X68618565Y-99236000D01*
X68953435Y-99236000D01*
X69281872Y-99170670D01*
X69591252Y-99042521D01*
X69869687Y-98856477D01*
X70106477Y-98619687D01*
X70176465Y-98514943D01*
X70199678Y-98570985D01*
X70438800Y-98928856D01*
X70743144Y-99233200D01*
X71101015Y-99472322D01*
X71498659Y-99637031D01*
X71920796Y-99721000D01*
X72351204Y-99721000D01*
X72773341Y-99637031D01*
X73170985Y-99472322D01*
X73528856Y-99233200D01*
X73833200Y-98928856D01*
X74072322Y-98570985D01*
X74237031Y-98173341D01*
X74321000Y-97751204D01*
X74321000Y-97320796D01*
X74237031Y-96898659D01*
X74072322Y-96501015D01*
X73833200Y-96143144D01*
X73528856Y-95838800D01*
X73170985Y-95599678D01*
X72773341Y-95434969D01*
X72351204Y-95351000D01*
X71920796Y-95351000D01*
X71498659Y-95434969D01*
X71101015Y-95599678D01*
X70743144Y-95838800D01*
X70438800Y-96143144D01*
X70199678Y-96501015D01*
X70176465Y-96557057D01*
X70106477Y-96452313D01*
X69869687Y-96215523D01*
X69591252Y-96029479D01*
X69281872Y-95901330D01*
X68953435Y-95836000D01*
X68618565Y-95836000D01*
X68290128Y-95901330D01*
X67980748Y-96029479D01*
X67702313Y-96215523D01*
X67465523Y-96452313D01*
X67279479Y-96730748D01*
X67237895Y-96831140D01*
X67239072Y-96571000D01*
X67226812Y-96446518D01*
X67190502Y-96326820D01*
X67131537Y-96216506D01*
X67052185Y-96119815D01*
X66955494Y-96040463D01*
X66845180Y-95981498D01*
X66725482Y-95945188D01*
X66601000Y-95932928D01*
X65971750Y-95936000D01*
X65813000Y-96094750D01*
X65559000Y-96094750D01*
X65400250Y-95936000D01*
X64771000Y-95932928D01*
X64668000Y-95943072D01*
X64668000Y-87952928D01*
X64771000Y-87963072D01*
X65400250Y-87960000D01*
X65559000Y-87801250D01*
X65559000Y-86487000D01*
X65539000Y-86487000D01*
X65539000Y-86233000D01*
X65559000Y-86233000D01*
X65559000Y-84918750D01*
X65813000Y-84918750D01*
X65813000Y-86233000D01*
X65833000Y-86233000D01*
X65833000Y-86487000D01*
X65813000Y-86487000D01*
X65813000Y-87801250D01*
X65971750Y-87960000D01*
X66601000Y-87963072D01*
X66725482Y-87950812D01*
X66845180Y-87914502D01*
X66955494Y-87855537D01*
X67052185Y-87776185D01*
X67131537Y-87679494D01*
X67190502Y-87569180D01*
X67226812Y-87449482D01*
X67239072Y-87325000D01*
X67237895Y-87064860D01*
X67279479Y-87165252D01*
X67465523Y-87443687D01*
X67702313Y-87680477D01*
X67980748Y-87866521D01*
X68290128Y-87994670D01*
X68618565Y-88060000D01*
X68953435Y-88060000D01*
X69281872Y-87994670D01*
X69591252Y-87866521D01*
X69869687Y-87680477D01*
X70106477Y-87443687D01*
X70176465Y-87338943D01*
X70199678Y-87394985D01*
X70438800Y-87752856D01*
X70743144Y-88057200D01*
X71101015Y-88296322D01*
X71498659Y-88461031D01*
X71920796Y-88545000D01*
X72351204Y-88545000D01*
X72773341Y-88461031D01*
X73170985Y-88296322D01*
X73528856Y-88057200D01*
X73833200Y-87752856D01*
X74072322Y-87394985D01*
X74237031Y-86997341D01*
X74321000Y-86575204D01*
X74321000Y-86144796D01*
X74237031Y-85722659D01*
X74072322Y-85325015D01*
X73833200Y-84967144D01*
X73528856Y-84662800D01*
X73170985Y-84423678D01*
X72773341Y-84258969D01*
X72351204Y-84175000D01*
X71920796Y-84175000D01*
X71498659Y-84258969D01*
X71101015Y-84423678D01*
X70743144Y-84662800D01*
X70438800Y-84967144D01*
X70199678Y-85325015D01*
X70176465Y-85381057D01*
X70106477Y-85276313D01*
X69869687Y-85039523D01*
X69591252Y-84853479D01*
X69281872Y-84725330D01*
X68953435Y-84660000D01*
X68618565Y-84660000D01*
X68290128Y-84725330D01*
X67980748Y-84853479D01*
X67702313Y-85039523D01*
X67465523Y-85276313D01*
X67279479Y-85554748D01*
X67237895Y-85655140D01*
X67239072Y-85395000D01*
X67226812Y-85270518D01*
X67190502Y-85150820D01*
X67131537Y-85040506D01*
X67052185Y-84943815D01*
X66955494Y-84864463D01*
X66845180Y-84805498D01*
X66725482Y-84769188D01*
X66601000Y-84756928D01*
X65971750Y-84760000D01*
X65813000Y-84918750D01*
X65559000Y-84918750D01*
X65400250Y-84760000D01*
X64771000Y-84756928D01*
X64668000Y-84767072D01*
X64668000Y-75368306D01*
X64688882Y-75407373D01*
X65106852Y-75683543D01*
X67130395Y-73660000D01*
X65106852Y-71636457D01*
X64688882Y-71912627D01*
X64668000Y-71951794D01*
X64668000Y-71456852D01*
X65286457Y-71456852D01*
X67310000Y-73480395D01*
X69333543Y-71456852D01*
X69057373Y-71038882D01*
X68512443Y-70748351D01*
X67921304Y-70569713D01*
X67306672Y-70509832D01*
X66692169Y-70571010D01*
X66101408Y-70750897D01*
X65562627Y-71038882D01*
X65286457Y-71456852D01*
X64668000Y-71456852D01*
X64668000Y-58723162D01*
X73910333Y-58723162D01*
X74046652Y-59172553D01*
X74286067Y-59630270D01*
X74610178Y-60032485D01*
X75006530Y-60363740D01*
X75459890Y-60611306D01*
X75952837Y-60765669D01*
X76363000Y-60659190D01*
X76363000Y-58313000D01*
X76617000Y-58313000D01*
X76617000Y-60659190D01*
X77027163Y-60765669D01*
X77520110Y-60611306D01*
X77973470Y-60363740D01*
X78369822Y-60032485D01*
X78693933Y-59630270D01*
X78933348Y-59172553D01*
X79069667Y-58723162D01*
X83410333Y-58723162D01*
X83546652Y-59172553D01*
X83786067Y-59630270D01*
X84110178Y-60032485D01*
X84506530Y-60363740D01*
X84959890Y-60611306D01*
X85452837Y-60765669D01*
X85863000Y-60659190D01*
X85863000Y-58313000D01*
X86117000Y-58313000D01*
X86117000Y-60659190D01*
X86527163Y-60765669D01*
X87020110Y-60611306D01*
X87473470Y-60363740D01*
X87869822Y-60032485D01*
X88193933Y-59630270D01*
X88433348Y-59172553D01*
X88569667Y-58723162D01*
X88462991Y-58313000D01*
X86117000Y-58313000D01*
X85863000Y-58313000D01*
X83517009Y-58313000D01*
X83410333Y-58723162D01*
X79069667Y-58723162D01*
X78962991Y-58313000D01*
X76617000Y-58313000D01*
X76363000Y-58313000D01*
X74017009Y-58313000D01*
X73910333Y-58723162D01*
X64668000Y-58723162D01*
X64668000Y-57648838D01*
X73910333Y-57648838D01*
X74017009Y-58059000D01*
X76363000Y-58059000D01*
X76363000Y-55712810D01*
X76617000Y-55712810D01*
X76617000Y-58059000D01*
X78962991Y-58059000D01*
X79069667Y-57648838D01*
X83410333Y-57648838D01*
X83517009Y-58059000D01*
X85863000Y-58059000D01*
X85863000Y-55712810D01*
X86117000Y-55712810D01*
X86117000Y-58059000D01*
X88462991Y-58059000D01*
X88569667Y-57648838D01*
X88433348Y-57199447D01*
X88193933Y-56741730D01*
X87869822Y-56339515D01*
X87473470Y-56008260D01*
X87020110Y-55760694D01*
X86527163Y-55606331D01*
X86117000Y-55712810D01*
X85863000Y-55712810D01*
X85452837Y-55606331D01*
X84959890Y-55760694D01*
X84506530Y-56008260D01*
X84110178Y-56339515D01*
X83786067Y-56741730D01*
X83546652Y-57199447D01*
X83410333Y-57648838D01*
X79069667Y-57648838D01*
X78933348Y-57199447D01*
X78693933Y-56741730D01*
X78369822Y-56339515D01*
X77973470Y-56008260D01*
X77520110Y-55760694D01*
X77027163Y-55606331D01*
X76617000Y-55712810D01*
X76363000Y-55712810D01*
X75952837Y-55606331D01*
X75459890Y-55760694D01*
X75006530Y-56008260D01*
X74610178Y-56339515D01*
X74286067Y-56741730D01*
X74046652Y-57199447D01*
X73910333Y-57648838D01*
X64668000Y-57648838D01*
X64668000Y-48920000D01*
X92812000Y-48920000D01*
X92812000Y-71951695D01*
X92812000Y-71951695D01*
G37*
X92812000Y-71951695D02*
X92791118Y-71912627D01*
X92373148Y-71636457D01*
X90349605Y-73660000D01*
X92373148Y-75683543D01*
X92791118Y-75407373D01*
X92812000Y-75368206D01*
X92812000Y-85203836D01*
X92647687Y-85039523D01*
X92369252Y-84853479D01*
X92324000Y-84834735D01*
X92324000Y-82074912D01*
X92327676Y-82037589D01*
X92324000Y-82000266D01*
X92324000Y-82000257D01*
X92313003Y-81888604D01*
X92269546Y-81745343D01*
X92226067Y-81664000D01*
X92198974Y-81613313D01*
X92127799Y-81526587D01*
X92104001Y-81497589D01*
X92075004Y-81473792D01*
X90717408Y-80116197D01*
X90936920Y-80011641D01*
X91170269Y-79837588D01*
X91365178Y-79621355D01*
X91514157Y-79371252D01*
X91611481Y-79096891D01*
X91490814Y-78867000D01*
X90297000Y-78867000D01*
X90297000Y-78887000D01*
X90043000Y-78887000D01*
X90043000Y-78867000D01*
X90023000Y-78867000D01*
X90023000Y-78613000D01*
X90043000Y-78613000D01*
X90043000Y-77419845D01*
X90297000Y-77419845D01*
X90297000Y-78613000D01*
X91490814Y-78613000D01*
X91611481Y-78383109D01*
X91514157Y-78108748D01*
X91365178Y-77858645D01*
X91170269Y-77642412D01*
X90936920Y-77468359D01*
X90674099Y-77343175D01*
X90526890Y-77298524D01*
X90297000Y-77419845D01*
X90043000Y-77419845D01*
X89813110Y-77298524D01*
X89665901Y-77343175D01*
X89403080Y-77468359D01*
X89293154Y-77550352D01*
X88796802Y-77054001D01*
X88773000Y-77024998D01*
X88657275Y-76930025D01*
X88525246Y-76859453D01*
X88381985Y-76815996D01*
X88270332Y-76804999D01*
X88270321Y-76804999D01*
X88232999Y-76801323D01*
X88195677Y-76804999D01*
X86302323Y-76804999D01*
X86265000Y-76801323D01*
X86227677Y-76804999D01*
X86227668Y-76804999D01*
X86116015Y-76815996D01*
X85972754Y-76859453D01*
X85840725Y-76930025D01*
X85725000Y-77024998D01*
X85701202Y-77053996D01*
X85455995Y-77299203D01*
X85381111Y-77276487D01*
X85162950Y-77255000D01*
X85017050Y-77255000D01*
X84798889Y-77276487D01*
X84518966Y-77361401D01*
X84260986Y-77499294D01*
X84034866Y-77684866D01*
X83849294Y-77910986D01*
X83820000Y-77965791D01*
X83790706Y-77910986D01*
X83605134Y-77684866D01*
X83379014Y-77499294D01*
X83121034Y-77361401D01*
X82841111Y-77276487D01*
X82622950Y-77255000D01*
X82477050Y-77255000D01*
X82258889Y-77276487D01*
X81978966Y-77361401D01*
X81720986Y-77499294D01*
X81494866Y-77684866D01*
X81309294Y-77910986D01*
X81280000Y-77965791D01*
X81250706Y-77910986D01*
X81065134Y-77684866D01*
X80839014Y-77499294D01*
X80770000Y-77462405D01*
X80770000Y-76669801D01*
X81576653Y-75863148D01*
X88146457Y-75863148D01*
X88422627Y-76281118D01*
X88967557Y-76571649D01*
X89558696Y-76750287D01*
X90173328Y-76810168D01*
X90787831Y-76748990D01*
X91378592Y-76569103D01*
X91917373Y-76281118D01*
X92193543Y-75863148D01*
X90170000Y-73839605D01*
X88146457Y-75863148D01*
X81576653Y-75863148D01*
X82389405Y-75050397D01*
X82688075Y-75174110D01*
X83119872Y-75260000D01*
X83560128Y-75260000D01*
X83991925Y-75174110D01*
X84398669Y-75005631D01*
X84764729Y-74761038D01*
X85076038Y-74449729D01*
X85320631Y-74083669D01*
X85489110Y-73676925D01*
X85491814Y-73663328D01*
X87019832Y-73663328D01*
X87081010Y-74277831D01*
X87260897Y-74868592D01*
X87548882Y-75407373D01*
X87966852Y-75683543D01*
X89990395Y-73660000D01*
X87966852Y-71636457D01*
X87548882Y-71912627D01*
X87258351Y-72457557D01*
X87079713Y-73048696D01*
X87019832Y-73663328D01*
X85491814Y-73663328D01*
X85575000Y-73245128D01*
X85575000Y-72804872D01*
X85489110Y-72373075D01*
X85320631Y-71966331D01*
X85076038Y-71600271D01*
X84932619Y-71456852D01*
X88146457Y-71456852D01*
X90170000Y-73480395D01*
X92193543Y-71456852D01*
X91917373Y-71038882D01*
X91372443Y-70748351D01*
X90781304Y-70569713D01*
X90166672Y-70509832D01*
X89552169Y-70571010D01*
X88961408Y-70750897D01*
X88422627Y-71038882D01*
X88146457Y-71456852D01*
X84932619Y-71456852D01*
X84764729Y-71288962D01*
X84398669Y-71044369D01*
X83991925Y-70875890D01*
X83560128Y-70790000D01*
X83119872Y-70790000D01*
X82688075Y-70875890D01*
X82281331Y-71044369D01*
X81915271Y-71288962D01*
X81603962Y-71600271D01*
X81359369Y-71966331D01*
X81190890Y-72373075D01*
X81105000Y-72804872D01*
X81105000Y-73245128D01*
X81190890Y-73676925D01*
X81314603Y-73975595D01*
X79499003Y-75791196D01*
X79469999Y-75814999D01*
X79441274Y-75850001D01*
X79375026Y-75930724D01*
X79306459Y-76059003D01*
X79304454Y-76062754D01*
X79260997Y-76206015D01*
X79250000Y-76317668D01*
X79250000Y-76317678D01*
X79246324Y-76355000D01*
X79250000Y-76392323D01*
X79250000Y-77462405D01*
X79180986Y-77499294D01*
X78954866Y-77684866D01*
X78769294Y-77910986D01*
X78740000Y-77965791D01*
X78710706Y-77910986D01*
X78525134Y-77684866D01*
X78299014Y-77499294D01*
X78041034Y-77361401D01*
X77761111Y-77276487D01*
X77542950Y-77255000D01*
X77397050Y-77255000D01*
X77178889Y-77276487D01*
X77104005Y-77299203D01*
X74894855Y-75090054D01*
X75098669Y-75005631D01*
X75464729Y-74761038D01*
X75776038Y-74449729D01*
X76020631Y-74083669D01*
X76189110Y-73676925D01*
X76275000Y-73245128D01*
X76275000Y-72804872D01*
X76505000Y-72804872D01*
X76505000Y-73245128D01*
X76590890Y-73676925D01*
X76759369Y-74083669D01*
X77003962Y-74449729D01*
X77315271Y-74761038D01*
X77681331Y-75005631D01*
X78088075Y-75174110D01*
X78519872Y-75260000D01*
X78960128Y-75260000D01*
X79391925Y-75174110D01*
X79798669Y-75005631D01*
X80164729Y-74761038D01*
X80476038Y-74449729D01*
X80720631Y-74083669D01*
X80889110Y-73676925D01*
X80975000Y-73245128D01*
X80975000Y-72804872D01*
X80889110Y-72373075D01*
X80720631Y-71966331D01*
X80476038Y-71600271D01*
X80164729Y-71288962D01*
X79798669Y-71044369D01*
X79391925Y-70875890D01*
X78960128Y-70790000D01*
X78519872Y-70790000D01*
X78088075Y-70875890D01*
X77681331Y-71044369D01*
X77315271Y-71288962D01*
X77003962Y-71600271D01*
X76759369Y-71966331D01*
X76590890Y-72373075D01*
X76505000Y-72804872D01*
X76275000Y-72804872D01*
X76189110Y-72373075D01*
X76020631Y-71966331D01*
X75776038Y-71600271D01*
X75464729Y-71288962D01*
X75098669Y-71044369D01*
X74691925Y-70875890D01*
X74260128Y-70790000D01*
X73819872Y-70790000D01*
X73388075Y-70875890D01*
X73068567Y-71008235D01*
X76405802Y-67671001D01*
X79977677Y-67671001D01*
X80014999Y-67674677D01*
X80052321Y-67671001D01*
X80052332Y-67671001D01*
X80163985Y-67660004D01*
X80307246Y-67616547D01*
X80439275Y-67545975D01*
X80555000Y-67451002D01*
X80578803Y-67421998D01*
X80831070Y-67169731D01*
X81088816Y-67221000D01*
X81391184Y-67221000D01*
X81687743Y-67162011D01*
X81967095Y-67046299D01*
X82218505Y-66878312D01*
X82346737Y-66750080D01*
X82855525Y-66750080D01*
X82939208Y-67004261D01*
X83211775Y-67135158D01*
X83504642Y-67210365D01*
X83806553Y-67226991D01*
X84105907Y-67184397D01*
X84391199Y-67084222D01*
X84540792Y-67004261D01*
X84624475Y-66750080D01*
X83740000Y-65865605D01*
X82855525Y-66750080D01*
X82346737Y-66750080D01*
X82432312Y-66664505D01*
X82527738Y-66521690D01*
X82675920Y-66570475D01*
X83560395Y-65686000D01*
X83919605Y-65686000D01*
X84804080Y-66570475D01*
X85058261Y-66486792D01*
X85189158Y-66214225D01*
X85264365Y-65921358D01*
X85280991Y-65619447D01*
X85238397Y-65320093D01*
X85138222Y-65034801D01*
X85058261Y-64885208D01*
X84804080Y-64801525D01*
X83919605Y-65686000D01*
X83560395Y-65686000D01*
X82675920Y-64801525D01*
X82527738Y-64850310D01*
X82432312Y-64707495D01*
X82346737Y-64621920D01*
X82855525Y-64621920D01*
X83740000Y-65506395D01*
X84624475Y-64621920D01*
X84540792Y-64367739D01*
X84268225Y-64236842D01*
X83975358Y-64161635D01*
X83673447Y-64145009D01*
X83374093Y-64187603D01*
X83088801Y-64287778D01*
X82939208Y-64367739D01*
X82855525Y-64621920D01*
X82346737Y-64621920D01*
X82218505Y-64493688D01*
X81967095Y-64325701D01*
X81687743Y-64209989D01*
X81391184Y-64151000D01*
X81088816Y-64151000D01*
X80792257Y-64209989D01*
X80512905Y-64325701D01*
X80261495Y-64493688D01*
X80223880Y-64531303D01*
X80170537Y-64431506D01*
X80091185Y-64334815D01*
X79994494Y-64255463D01*
X79884180Y-64196498D01*
X79764482Y-64160188D01*
X79640000Y-64147928D01*
X77840000Y-64147928D01*
X77715518Y-64160188D01*
X77595820Y-64196498D01*
X77485506Y-64255463D01*
X77388815Y-64334815D01*
X77309463Y-64431506D01*
X77250498Y-64541820D01*
X77214188Y-64661518D01*
X77201928Y-64786000D01*
X77201928Y-64926000D01*
X75829322Y-64926000D01*
X75791999Y-64922324D01*
X75754676Y-64926000D01*
X75754667Y-64926000D01*
X75643014Y-64936997D01*
X75499753Y-64980454D01*
X75367724Y-65051026D01*
X75251999Y-65145999D01*
X75228201Y-65174997D01*
X70100998Y-70302201D01*
X70072000Y-70325999D01*
X70048202Y-70354997D01*
X70048201Y-70354998D01*
X69977026Y-70441724D01*
X69906454Y-70573754D01*
X69862998Y-70717015D01*
X69848324Y-70866000D01*
X69852001Y-70903332D01*
X69852001Y-71860351D01*
X69513148Y-71636457D01*
X67489605Y-73660000D01*
X67503748Y-73674143D01*
X67324143Y-73853748D01*
X67310000Y-73839605D01*
X65286457Y-75863148D01*
X65562627Y-76281118D01*
X66107557Y-76571649D01*
X66698696Y-76750287D01*
X67270232Y-76805969D01*
X66824273Y-77251928D01*
X66460000Y-77251928D01*
X66335518Y-77264188D01*
X66215820Y-77300498D01*
X66105506Y-77359463D01*
X66008815Y-77438815D01*
X65929463Y-77535506D01*
X65870498Y-77645820D01*
X65834188Y-77765518D01*
X65821928Y-77890000D01*
X65821928Y-79590000D01*
X65834188Y-79714482D01*
X65870498Y-79834180D01*
X65929463Y-79944494D01*
X66008815Y-80041185D01*
X66105506Y-80120537D01*
X66215820Y-80179502D01*
X66335518Y-80215812D01*
X66460000Y-80228072D01*
X68160000Y-80228072D01*
X68284482Y-80215812D01*
X68404180Y-80179502D01*
X68514494Y-80120537D01*
X68611185Y-80041185D01*
X68690537Y-79944494D01*
X68749502Y-79834180D01*
X68770393Y-79765313D01*
X68794866Y-79795134D01*
X69020986Y-79980706D01*
X69278966Y-80118599D01*
X69558889Y-80203513D01*
X69777050Y-80225000D01*
X69922950Y-80225000D01*
X70141111Y-80203513D01*
X70421034Y-80118599D01*
X70679014Y-79980706D01*
X70905134Y-79795134D01*
X71090706Y-79569014D01*
X71120000Y-79514209D01*
X71149294Y-79569014D01*
X71334866Y-79795134D01*
X71560986Y-79980706D01*
X71630000Y-80017595D01*
X71630001Y-81626668D01*
X71626324Y-81664000D01*
X71630001Y-81701333D01*
X71637257Y-81774998D01*
X71640998Y-81812985D01*
X71684454Y-81956246D01*
X71755026Y-82088276D01*
X71826201Y-82175002D01*
X71850000Y-82204001D01*
X71878998Y-82227799D01*
X75470074Y-85818876D01*
X75451330Y-85864128D01*
X75386000Y-86192565D01*
X75386000Y-86527435D01*
X75451330Y-86855872D01*
X75579479Y-87165252D01*
X75765523Y-87443687D01*
X76002313Y-87680477D01*
X76280748Y-87866521D01*
X76590128Y-87994670D01*
X76918565Y-88060000D01*
X77253435Y-88060000D01*
X77581872Y-87994670D01*
X77716001Y-87939112D01*
X77716002Y-95831197D01*
X77640002Y-95907197D01*
X77639996Y-95907202D01*
X77627124Y-95920074D01*
X77581872Y-95901330D01*
X77253435Y-95836000D01*
X76918565Y-95836000D01*
X76590128Y-95901330D01*
X76280748Y-96029479D01*
X76002313Y-96215523D01*
X75765523Y-96452313D01*
X75579479Y-96730748D01*
X75451330Y-97040128D01*
X75386000Y-97368565D01*
X75386000Y-97703435D01*
X75451330Y-98031872D01*
X75579479Y-98341252D01*
X75765523Y-98619687D01*
X76002313Y-98856477D01*
X76280748Y-99042521D01*
X76590128Y-99170670D01*
X76918565Y-99236000D01*
X77253435Y-99236000D01*
X77581872Y-99170670D01*
X77891252Y-99042521D01*
X78169687Y-98856477D01*
X78406477Y-98619687D01*
X78592521Y-98341252D01*
X78611862Y-98294559D01*
X78610928Y-98501000D01*
X78623188Y-98625482D01*
X78659498Y-98745180D01*
X78718463Y-98855494D01*
X78797815Y-98952185D01*
X78894506Y-99031537D01*
X79004820Y-99090502D01*
X79124518Y-99126812D01*
X79249000Y-99139072D01*
X79878250Y-99136000D01*
X80037000Y-98977250D01*
X80037000Y-97663000D01*
X80017000Y-97663000D01*
X80017000Y-97409000D01*
X80037000Y-97409000D01*
X80037000Y-96094750D01*
X80291000Y-96094750D01*
X80291000Y-97409000D01*
X80311000Y-97409000D01*
X80311000Y-97663000D01*
X80291000Y-97663000D01*
X80291000Y-98977250D01*
X80449750Y-99136000D01*
X81079000Y-99139072D01*
X81203482Y-99126812D01*
X81323180Y-99090502D01*
X81433494Y-99031537D01*
X81530185Y-98952185D01*
X81609537Y-98855494D01*
X81668502Y-98745180D01*
X81704812Y-98625482D01*
X81717072Y-98501000D01*
X81715895Y-98240860D01*
X81757479Y-98341252D01*
X81943523Y-98619687D01*
X82180313Y-98856477D01*
X82458748Y-99042521D01*
X82768128Y-99170670D01*
X83096565Y-99236000D01*
X83431435Y-99236000D01*
X83759872Y-99170670D01*
X84069252Y-99042521D01*
X84347687Y-98856477D01*
X84584477Y-98619687D01*
X84654465Y-98514943D01*
X84677678Y-98570985D01*
X84916800Y-98928856D01*
X85221144Y-99233200D01*
X85579015Y-99472322D01*
X85976659Y-99637031D01*
X86398796Y-99721000D01*
X86829204Y-99721000D01*
X87251341Y-99637031D01*
X87648985Y-99472322D01*
X88006856Y-99233200D01*
X88311200Y-98928856D01*
X88550322Y-98570985D01*
X88715031Y-98173341D01*
X88799000Y-97751204D01*
X88799000Y-97320796D01*
X88715031Y-96898659D01*
X88550322Y-96501015D01*
X88311200Y-96143144D01*
X88006856Y-95838800D01*
X87648985Y-95599678D01*
X87251341Y-95434969D01*
X86829204Y-95351000D01*
X86398796Y-95351000D01*
X85976659Y-95434969D01*
X85579015Y-95599678D01*
X85221144Y-95838800D01*
X84916800Y-96143144D01*
X84677678Y-96501015D01*
X84654465Y-96557057D01*
X84584477Y-96452313D01*
X84347687Y-96215523D01*
X84069252Y-96029479D01*
X83759872Y-95901330D01*
X83431435Y-95836000D01*
X83096565Y-95836000D01*
X82768128Y-95901330D01*
X82458748Y-96029479D01*
X82180313Y-96215523D01*
X81943523Y-96452313D01*
X81757479Y-96730748D01*
X81715895Y-96831140D01*
X81717072Y-96571000D01*
X81704812Y-96446518D01*
X81668502Y-96326820D01*
X81609537Y-96216506D01*
X81530185Y-96119815D01*
X81433494Y-96040463D01*
X81323180Y-95981498D01*
X81203482Y-95945188D01*
X81079000Y-95932928D01*
X80449750Y-95936000D01*
X80291000Y-96094750D01*
X80037000Y-96094750D01*
X79878250Y-95936000D01*
X79249000Y-95932928D01*
X79236001Y-95934208D01*
X79236001Y-87961792D01*
X79249000Y-87963072D01*
X79878250Y-87960000D01*
X80037000Y-87801250D01*
X80037000Y-86487000D01*
X80017000Y-86487000D01*
X80017000Y-86233000D01*
X80037000Y-86233000D01*
X80037000Y-84918750D01*
X79878250Y-84760000D01*
X79249000Y-84756928D01*
X79236001Y-84758208D01*
X79236001Y-82323326D01*
X79239677Y-82286001D01*
X79236001Y-82248676D01*
X79236001Y-82248668D01*
X79225004Y-82137015D01*
X79181547Y-81993754D01*
X79110975Y-81861725D01*
X79016002Y-81746000D01*
X78987005Y-81722203D01*
X77489802Y-80225000D01*
X77542950Y-80225000D01*
X77761111Y-80203513D01*
X78041034Y-80118599D01*
X78299014Y-79980706D01*
X78525134Y-79795134D01*
X78710706Y-79569014D01*
X78740000Y-79514209D01*
X78769294Y-79569014D01*
X78954866Y-79795134D01*
X79180986Y-79980706D01*
X79438966Y-80118599D01*
X79718889Y-80203513D01*
X79937050Y-80225000D01*
X80082950Y-80225000D01*
X80301111Y-80203513D01*
X80581034Y-80118599D01*
X80839014Y-79980706D01*
X81065134Y-79795134D01*
X81250706Y-79569014D01*
X81280000Y-79514209D01*
X81309294Y-79569014D01*
X81494866Y-79795134D01*
X81720986Y-79980706D01*
X81978966Y-80118599D01*
X82258889Y-80203513D01*
X82477050Y-80225000D01*
X82622950Y-80225000D01*
X82841111Y-80203513D01*
X83121034Y-80118599D01*
X83379014Y-79980706D01*
X83605134Y-79795134D01*
X83790706Y-79569014D01*
X83820000Y-79514209D01*
X83849294Y-79569014D01*
X84034866Y-79795134D01*
X84260986Y-79980706D01*
X84518966Y-80118599D01*
X84798889Y-80203513D01*
X85017050Y-80225000D01*
X85162950Y-80225000D01*
X85381111Y-80203513D01*
X85661034Y-80118599D01*
X85919014Y-79980706D01*
X86145134Y-79795134D01*
X86330706Y-79569014D01*
X86360000Y-79514209D01*
X86389294Y-79569014D01*
X86574866Y-79795134D01*
X86800986Y-79980706D01*
X87058966Y-80118599D01*
X87338889Y-80203513D01*
X87557050Y-80225000D01*
X87702950Y-80225000D01*
X87921111Y-80203513D01*
X87995995Y-80180797D01*
X88648000Y-80832802D01*
X88648000Y-85560832D01*
X88550322Y-85325015D01*
X88311200Y-84967144D01*
X88006856Y-84662800D01*
X87648985Y-84423678D01*
X87251341Y-84258969D01*
X86829204Y-84175000D01*
X86398796Y-84175000D01*
X85976659Y-84258969D01*
X85579015Y-84423678D01*
X85221144Y-84662800D01*
X84916800Y-84967144D01*
X84677678Y-85325015D01*
X84654465Y-85381057D01*
X84584477Y-85276313D01*
X84347687Y-85039523D01*
X84069252Y-84853479D01*
X83759872Y-84725330D01*
X83431435Y-84660000D01*
X83096565Y-84660000D01*
X82768128Y-84725330D01*
X82458748Y-84853479D01*
X82180313Y-85039523D01*
X81943523Y-85276313D01*
X81757479Y-85554748D01*
X81715895Y-85655140D01*
X81717072Y-85395000D01*
X81704812Y-85270518D01*
X81668502Y-85150820D01*
X81609537Y-85040506D01*
X81530185Y-84943815D01*
X81433494Y-84864463D01*
X81323180Y-84805498D01*
X81203482Y-84769188D01*
X81079000Y-84756928D01*
X80449750Y-84760000D01*
X80291000Y-84918750D01*
X80291000Y-86233000D01*
X80311000Y-86233000D01*
X80311000Y-86487000D01*
X80291000Y-86487000D01*
X80291000Y-87801250D01*
X80449750Y-87960000D01*
X81079000Y-87963072D01*
X81203482Y-87950812D01*
X81323180Y-87914502D01*
X81433494Y-87855537D01*
X81530185Y-87776185D01*
X81609537Y-87679494D01*
X81668502Y-87569180D01*
X81704812Y-87449482D01*
X81717072Y-87325000D01*
X81715895Y-87064860D01*
X81757479Y-87165252D01*
X81943523Y-87443687D01*
X82180313Y-87680477D01*
X82458748Y-87866521D01*
X82768128Y-87994670D01*
X83096565Y-88060000D01*
X83431435Y-88060000D01*
X83759872Y-87994670D01*
X84069252Y-87866521D01*
X84347687Y-87680477D01*
X84584477Y-87443687D01*
X84654465Y-87338943D01*
X84677678Y-87394985D01*
X84916800Y-87752856D01*
X85221144Y-88057200D01*
X85579015Y-88296322D01*
X85976659Y-88461031D01*
X86398796Y-88545000D01*
X86829204Y-88545000D01*
X87251341Y-88461031D01*
X87648985Y-88296322D01*
X88006856Y-88057200D01*
X88311200Y-87752856D01*
X88550322Y-87394985D01*
X88648000Y-87159168D01*
X88648001Y-95342668D01*
X88644324Y-95380000D01*
X88658998Y-95528985D01*
X88702454Y-95672246D01*
X88773026Y-95804276D01*
X88844201Y-95891002D01*
X88868000Y-95920001D01*
X88896998Y-95943799D01*
X89948074Y-96994877D01*
X89929330Y-97040128D01*
X89864000Y-97368565D01*
X89864000Y-97703435D01*
X89929330Y-98031872D01*
X90057479Y-98341252D01*
X90243523Y-98619687D01*
X90480313Y-98856477D01*
X90758748Y-99042521D01*
X91068128Y-99170670D01*
X91396565Y-99236000D01*
X91731435Y-99236000D01*
X92059872Y-99170670D01*
X92369252Y-99042521D01*
X92647687Y-98856477D01*
X92812000Y-98692164D01*
X92812001Y-129101696D01*
X92791118Y-129062627D01*
X92373148Y-128786457D01*
X90349605Y-130810000D01*
X92373148Y-132833543D01*
X92791118Y-132557373D01*
X92812001Y-132518205D01*
X92812001Y-142353837D01*
X92647687Y-142189523D01*
X92369252Y-142003479D01*
X92059872Y-141875330D01*
X91731435Y-141810000D01*
X91396565Y-141810000D01*
X91068128Y-141875330D01*
X91022876Y-141894074D01*
X89754999Y-140626198D01*
X89754999Y-137313850D01*
X89813110Y-137331476D01*
X90043000Y-137210155D01*
X90043000Y-136017000D01*
X90297000Y-136017000D01*
X90297000Y-137210155D01*
X90526890Y-137331476D01*
X90674099Y-137286825D01*
X90936920Y-137161641D01*
X91170269Y-136987588D01*
X91365178Y-136771355D01*
X91514157Y-136521252D01*
X91611481Y-136246891D01*
X91490814Y-136017000D01*
X90297000Y-136017000D01*
X90043000Y-136017000D01*
X90023000Y-136017000D01*
X90023000Y-135763000D01*
X90043000Y-135763000D01*
X90043000Y-134569845D01*
X90297000Y-134569845D01*
X90297000Y-135763000D01*
X91490814Y-135763000D01*
X91611481Y-135533109D01*
X91514157Y-135258748D01*
X91365178Y-135008645D01*
X91170269Y-134792412D01*
X90936920Y-134618359D01*
X90674099Y-134493175D01*
X90526890Y-134448524D01*
X90297000Y-134569845D01*
X90043000Y-134569845D01*
X89813110Y-134448524D01*
X89665901Y-134493175D01*
X89403080Y-134618359D01*
X89270817Y-134717013D01*
X88757804Y-134204001D01*
X88734002Y-134174998D01*
X88618277Y-134080025D01*
X88486248Y-134009453D01*
X88342987Y-133965996D01*
X88231334Y-133954999D01*
X88231323Y-133954999D01*
X88194001Y-133951323D01*
X88156679Y-133954999D01*
X86302323Y-133954999D01*
X86265000Y-133951323D01*
X86227677Y-133954999D01*
X86227668Y-133954999D01*
X86116015Y-133965996D01*
X85972754Y-134009453D01*
X85840725Y-134080025D01*
X85725000Y-134174998D01*
X85701202Y-134203996D01*
X85455995Y-134449203D01*
X85381111Y-134426487D01*
X85162950Y-134405000D01*
X85017050Y-134405000D01*
X84798889Y-134426487D01*
X84518966Y-134511401D01*
X84260986Y-134649294D01*
X84034866Y-134834866D01*
X83849294Y-135060986D01*
X83820000Y-135115791D01*
X83790706Y-135060986D01*
X83605134Y-134834866D01*
X83379014Y-134649294D01*
X83121034Y-134511401D01*
X82841111Y-134426487D01*
X82622950Y-134405000D01*
X82477050Y-134405000D01*
X82258889Y-134426487D01*
X81978966Y-134511401D01*
X81720986Y-134649294D01*
X81494866Y-134834866D01*
X81309294Y-135060986D01*
X81280000Y-135115791D01*
X81250706Y-135060986D01*
X81065134Y-134834866D01*
X80839014Y-134649294D01*
X80770000Y-134612405D01*
X80770000Y-133819801D01*
X81576653Y-133013148D01*
X88146457Y-133013148D01*
X88422627Y-133431118D01*
X88967557Y-133721649D01*
X89558696Y-133900287D01*
X90173328Y-133960168D01*
X90787831Y-133898990D01*
X91378592Y-133719103D01*
X91917373Y-133431118D01*
X92193543Y-133013148D01*
X90170000Y-130989605D01*
X88146457Y-133013148D01*
X81576653Y-133013148D01*
X82389405Y-132200397D01*
X82688075Y-132324110D01*
X83119872Y-132410000D01*
X83560128Y-132410000D01*
X83991925Y-132324110D01*
X84398669Y-132155631D01*
X84764729Y-131911038D01*
X85076038Y-131599729D01*
X85320631Y-131233669D01*
X85489110Y-130826925D01*
X85491814Y-130813328D01*
X87019832Y-130813328D01*
X87081010Y-131427831D01*
X87260897Y-132018592D01*
X87548882Y-132557373D01*
X87966852Y-132833543D01*
X89990395Y-130810000D01*
X87966852Y-128786457D01*
X87548882Y-129062627D01*
X87258351Y-129607557D01*
X87079713Y-130198696D01*
X87019832Y-130813328D01*
X85491814Y-130813328D01*
X85575000Y-130395128D01*
X85575000Y-129954872D01*
X85489110Y-129523075D01*
X85320631Y-129116331D01*
X85076038Y-128750271D01*
X84932619Y-128606852D01*
X88146457Y-128606852D01*
X90170000Y-130630395D01*
X92193543Y-128606852D01*
X91917373Y-128188882D01*
X91372443Y-127898351D01*
X90781304Y-127719713D01*
X90166672Y-127659832D01*
X89552169Y-127721010D01*
X88961408Y-127900897D01*
X88422627Y-128188882D01*
X88146457Y-128606852D01*
X84932619Y-128606852D01*
X84764729Y-128438962D01*
X84398669Y-128194369D01*
X83991925Y-128025890D01*
X83560128Y-127940000D01*
X83119872Y-127940000D01*
X82688075Y-128025890D01*
X82281331Y-128194369D01*
X81915271Y-128438962D01*
X81603962Y-128750271D01*
X81359369Y-129116331D01*
X81190890Y-129523075D01*
X81105000Y-129954872D01*
X81105000Y-130395128D01*
X81190890Y-130826925D01*
X81314603Y-131125595D01*
X79498998Y-132941201D01*
X79470000Y-132964999D01*
X79446202Y-132993997D01*
X79446201Y-132993998D01*
X79375026Y-133080724D01*
X79304454Y-133212754D01*
X79274180Y-133312558D01*
X79268054Y-133332755D01*
X79260998Y-133356015D01*
X79246324Y-133505000D01*
X79250001Y-133542332D01*
X79250001Y-134612405D01*
X79180986Y-134649294D01*
X78954866Y-134834866D01*
X78769294Y-135060986D01*
X78740000Y-135115791D01*
X78710706Y-135060986D01*
X78525134Y-134834866D01*
X78299014Y-134649294D01*
X78230000Y-134612405D01*
X78230000Y-133642333D01*
X78233677Y-133605000D01*
X78219003Y-133456014D01*
X78175546Y-133312753D01*
X78104974Y-133180724D01*
X78033799Y-133093997D01*
X78010001Y-133064999D01*
X77981003Y-133041201D01*
X76065397Y-131125595D01*
X76189110Y-130826925D01*
X76275000Y-130395128D01*
X76275000Y-129954872D01*
X76505000Y-129954872D01*
X76505000Y-130395128D01*
X76590890Y-130826925D01*
X76759369Y-131233669D01*
X77003962Y-131599729D01*
X77315271Y-131911038D01*
X77681331Y-132155631D01*
X78088075Y-132324110D01*
X78519872Y-132410000D01*
X78960128Y-132410000D01*
X79391925Y-132324110D01*
X79798669Y-132155631D01*
X80164729Y-131911038D01*
X80476038Y-131599729D01*
X80720631Y-131233669D01*
X80889110Y-130826925D01*
X80975000Y-130395128D01*
X80975000Y-129954872D01*
X80889110Y-129523075D01*
X80720631Y-129116331D01*
X80476038Y-128750271D01*
X80164729Y-128438962D01*
X79798669Y-128194369D01*
X79391925Y-128025890D01*
X78960128Y-127940000D01*
X78519872Y-127940000D01*
X78088075Y-128025890D01*
X77681331Y-128194369D01*
X77315271Y-128438962D01*
X77003962Y-128750271D01*
X76759369Y-129116331D01*
X76590890Y-129523075D01*
X76505000Y-129954872D01*
X76275000Y-129954872D01*
X76189110Y-129523075D01*
X76020631Y-129116331D01*
X75776038Y-128750271D01*
X75464729Y-128438962D01*
X75098669Y-128194369D01*
X74691925Y-128025890D01*
X74260128Y-127940000D01*
X73819872Y-127940000D01*
X73788576Y-127946225D01*
X75244802Y-126490000D01*
X78308678Y-126490000D01*
X78346000Y-126493676D01*
X78383322Y-126490000D01*
X78383333Y-126490000D01*
X78494986Y-126479003D01*
X78638247Y-126435546D01*
X78770276Y-126364974D01*
X78886001Y-126270001D01*
X78909804Y-126240997D01*
X80831070Y-124319731D01*
X81088816Y-124371000D01*
X81391184Y-124371000D01*
X81687743Y-124312011D01*
X81967095Y-124196299D01*
X82218505Y-124028312D01*
X82346737Y-123900080D01*
X82855525Y-123900080D01*
X82939208Y-124154261D01*
X83211775Y-124285158D01*
X83504642Y-124360365D01*
X83806553Y-124376991D01*
X84105907Y-124334397D01*
X84391199Y-124234222D01*
X84540792Y-124154261D01*
X84624475Y-123900080D01*
X83740000Y-123015605D01*
X82855525Y-123900080D01*
X82346737Y-123900080D01*
X82432312Y-123814505D01*
X82527738Y-123671690D01*
X82675920Y-123720475D01*
X83560395Y-122836000D01*
X83919605Y-122836000D01*
X84804080Y-123720475D01*
X85058261Y-123636792D01*
X85189158Y-123364225D01*
X85264365Y-123071358D01*
X85280991Y-122769447D01*
X85238397Y-122470093D01*
X85138222Y-122184801D01*
X85058261Y-122035208D01*
X84804080Y-121951525D01*
X83919605Y-122836000D01*
X83560395Y-122836000D01*
X82675920Y-121951525D01*
X82527738Y-122000310D01*
X82432312Y-121857495D01*
X82346737Y-121771920D01*
X82855525Y-121771920D01*
X83740000Y-122656395D01*
X84624475Y-121771920D01*
X84540792Y-121517739D01*
X84268225Y-121386842D01*
X83975358Y-121311635D01*
X83673447Y-121295009D01*
X83374093Y-121337603D01*
X83088801Y-121437778D01*
X82939208Y-121517739D01*
X82855525Y-121771920D01*
X82346737Y-121771920D01*
X82218505Y-121643688D01*
X81967095Y-121475701D01*
X81687743Y-121359989D01*
X81391184Y-121301000D01*
X81088816Y-121301000D01*
X80792257Y-121359989D01*
X80512905Y-121475701D01*
X80261495Y-121643688D01*
X80223880Y-121681303D01*
X80170537Y-121581506D01*
X80091185Y-121484815D01*
X79994494Y-121405463D01*
X79884180Y-121346498D01*
X79764482Y-121310188D01*
X79640000Y-121297928D01*
X77840000Y-121297928D01*
X77715518Y-121310188D01*
X77595820Y-121346498D01*
X77485506Y-121405463D01*
X77388815Y-121484815D01*
X77309463Y-121581506D01*
X77250498Y-121691820D01*
X77214188Y-121811518D01*
X77201928Y-121936000D01*
X77201928Y-122076000D01*
X74621335Y-122076000D01*
X74584002Y-122072323D01*
X74546669Y-122076000D01*
X74435016Y-122086997D01*
X74291755Y-122130454D01*
X74159726Y-122201026D01*
X74044001Y-122295999D01*
X74020203Y-122324997D01*
X69623999Y-126721202D01*
X69595001Y-126745000D01*
X69571203Y-126773998D01*
X69571202Y-126773999D01*
X69500027Y-126860725D01*
X69429455Y-126992755D01*
X69385999Y-127136016D01*
X69371325Y-127285001D01*
X69375002Y-127322333D01*
X69375002Y-128565390D01*
X69333542Y-128606850D01*
X69057373Y-128188882D01*
X68512443Y-127898351D01*
X67921304Y-127719713D01*
X67306672Y-127659832D01*
X66692169Y-127721010D01*
X66101408Y-127900897D01*
X65562627Y-128188882D01*
X65286457Y-128606852D01*
X67310000Y-130630395D01*
X67324143Y-130616253D01*
X67503748Y-130795858D01*
X67489605Y-130810000D01*
X67503748Y-130824143D01*
X67324143Y-131003748D01*
X67310000Y-130989605D01*
X65286457Y-133013148D01*
X65562627Y-133431118D01*
X66107557Y-133721649D01*
X66698696Y-133900287D01*
X67270232Y-133955969D01*
X66824273Y-134401928D01*
X66460000Y-134401928D01*
X66335518Y-134414188D01*
X66215820Y-134450498D01*
X66105506Y-134509463D01*
X66008815Y-134588815D01*
X65929463Y-134685506D01*
X65870498Y-134795820D01*
X65834188Y-134915518D01*
X65821928Y-135040000D01*
X65821928Y-136740000D01*
X65834188Y-136864482D01*
X65870498Y-136984180D01*
X65929463Y-137094494D01*
X66008815Y-137191185D01*
X66105506Y-137270537D01*
X66215820Y-137329502D01*
X66335518Y-137365812D01*
X66460000Y-137378072D01*
X68160000Y-137378072D01*
X68284482Y-137365812D01*
X68404180Y-137329502D01*
X68514494Y-137270537D01*
X68611185Y-137191185D01*
X68690537Y-137094494D01*
X68749502Y-136984180D01*
X68770393Y-136915313D01*
X68794866Y-136945134D01*
X69020986Y-137130706D01*
X69278966Y-137268599D01*
X69558889Y-137353513D01*
X69777050Y-137375000D01*
X69922950Y-137375000D01*
X70141111Y-137353513D01*
X70421034Y-137268599D01*
X70679014Y-137130706D01*
X70905134Y-136945134D01*
X71090706Y-136719014D01*
X71120000Y-136664209D01*
X71149294Y-136719014D01*
X71334866Y-136945134D01*
X71560986Y-137130706D01*
X71630000Y-137167595D01*
X71630001Y-138776668D01*
X71626324Y-138814000D01*
X71640998Y-138962985D01*
X71684454Y-139106246D01*
X71755026Y-139238276D01*
X71826201Y-139325002D01*
X71850000Y-139354001D01*
X71878998Y-139377799D01*
X75470074Y-142968876D01*
X75451330Y-143014128D01*
X75386000Y-143342565D01*
X75386000Y-143677435D01*
X75451330Y-144005872D01*
X75579479Y-144315252D01*
X75765523Y-144593687D01*
X76002313Y-144830477D01*
X76280748Y-145016521D01*
X76590128Y-145144670D01*
X76918565Y-145210000D01*
X77253435Y-145210000D01*
X77581872Y-145144670D01*
X77891252Y-145016521D01*
X77980000Y-144957221D01*
X77980001Y-152717197D01*
X77640001Y-153057198D01*
X77639996Y-153057202D01*
X77627124Y-153070074D01*
X77581872Y-153051330D01*
X77253435Y-152986000D01*
X76918565Y-152986000D01*
X76590128Y-153051330D01*
X76280748Y-153179479D01*
X76002313Y-153365523D01*
X75765523Y-153602313D01*
X75579479Y-153880748D01*
X75451330Y-154190128D01*
X75386000Y-154518565D01*
X75386000Y-154853435D01*
X75451330Y-155181872D01*
X75579479Y-155491252D01*
X75765523Y-155769687D01*
X76002313Y-156006477D01*
X76280748Y-156192521D01*
X76590128Y-156320670D01*
X76918565Y-156386000D01*
X77253435Y-156386000D01*
X77581872Y-156320670D01*
X77891252Y-156192521D01*
X78169687Y-156006477D01*
X78406477Y-155769687D01*
X78592521Y-155491252D01*
X78611862Y-155444559D01*
X78610928Y-155651000D01*
X78623188Y-155775482D01*
X78659498Y-155895180D01*
X78718463Y-156005494D01*
X78797815Y-156102185D01*
X78894506Y-156181537D01*
X79004820Y-156240502D01*
X79124518Y-156276812D01*
X79249000Y-156289072D01*
X79878250Y-156286000D01*
X80037000Y-156127250D01*
X80037000Y-154813000D01*
X80017000Y-154813000D01*
X80017000Y-154559000D01*
X80037000Y-154559000D01*
X80037000Y-153244750D01*
X80291000Y-153244750D01*
X80291000Y-154559000D01*
X80311000Y-154559000D01*
X80311000Y-154813000D01*
X80291000Y-154813000D01*
X80291000Y-156127250D01*
X80449750Y-156286000D01*
X81079000Y-156289072D01*
X81203482Y-156276812D01*
X81323180Y-156240502D01*
X81433494Y-156181537D01*
X81530185Y-156102185D01*
X81609537Y-156005494D01*
X81668502Y-155895180D01*
X81704812Y-155775482D01*
X81717072Y-155651000D01*
X81715895Y-155390860D01*
X81757479Y-155491252D01*
X81943523Y-155769687D01*
X82180313Y-156006477D01*
X82458748Y-156192521D01*
X82768128Y-156320670D01*
X83096565Y-156386000D01*
X83431435Y-156386000D01*
X83759872Y-156320670D01*
X84069252Y-156192521D01*
X84347687Y-156006477D01*
X84584477Y-155769687D01*
X84654465Y-155664943D01*
X84677678Y-155720985D01*
X84916800Y-156078856D01*
X85221144Y-156383200D01*
X85579015Y-156622322D01*
X85976659Y-156787031D01*
X86398796Y-156871000D01*
X86829204Y-156871000D01*
X87251341Y-156787031D01*
X87648985Y-156622322D01*
X88006856Y-156383200D01*
X88311200Y-156078856D01*
X88550322Y-155720985D01*
X88715031Y-155323341D01*
X88799000Y-154901204D01*
X88799000Y-154470796D01*
X88715031Y-154048659D01*
X88550322Y-153651015D01*
X88311200Y-153293144D01*
X88006856Y-152988800D01*
X87648985Y-152749678D01*
X87251341Y-152584969D01*
X86829204Y-152501000D01*
X86398796Y-152501000D01*
X85976659Y-152584969D01*
X85579015Y-152749678D01*
X85221144Y-152988800D01*
X84916800Y-153293144D01*
X84677678Y-153651015D01*
X84654465Y-153707057D01*
X84584477Y-153602313D01*
X84347687Y-153365523D01*
X84069252Y-153179479D01*
X83759872Y-153051330D01*
X83431435Y-152986000D01*
X83096565Y-152986000D01*
X82768128Y-153051330D01*
X82458748Y-153179479D01*
X82180313Y-153365523D01*
X81943523Y-153602313D01*
X81757479Y-153880748D01*
X81715895Y-153981140D01*
X81717072Y-153721000D01*
X81704812Y-153596518D01*
X81668502Y-153476820D01*
X81609537Y-153366506D01*
X81530185Y-153269815D01*
X81433494Y-153190463D01*
X81323180Y-153131498D01*
X81203482Y-153095188D01*
X81079000Y-153082928D01*
X80449750Y-153086000D01*
X80291000Y-153244750D01*
X80037000Y-153244750D01*
X79878250Y-153086000D01*
X79498541Y-153084146D01*
X79500000Y-153069333D01*
X79500000Y-153069324D01*
X79503676Y-153032001D01*
X79500000Y-152994678D01*
X79500000Y-145111847D01*
X79878250Y-145110000D01*
X80037000Y-144951250D01*
X80037000Y-143637000D01*
X80017000Y-143637000D01*
X80017000Y-143383000D01*
X80037000Y-143383000D01*
X80037000Y-142068750D01*
X79878250Y-141910000D01*
X79500000Y-141908153D01*
X79500000Y-139737325D01*
X79503676Y-139700000D01*
X79500000Y-139662675D01*
X79500000Y-139662667D01*
X79489003Y-139551014D01*
X79445546Y-139407753D01*
X79374974Y-139275724D01*
X79280001Y-139159999D01*
X79251004Y-139136202D01*
X77489802Y-137375000D01*
X77542950Y-137375000D01*
X77761111Y-137353513D01*
X78041034Y-137268599D01*
X78299014Y-137130706D01*
X78525134Y-136945134D01*
X78710706Y-136719014D01*
X78740000Y-136664209D01*
X78769294Y-136719014D01*
X78954866Y-136945134D01*
X79180986Y-137130706D01*
X79438966Y-137268599D01*
X79718889Y-137353513D01*
X79937050Y-137375000D01*
X80082950Y-137375000D01*
X80301111Y-137353513D01*
X80581034Y-137268599D01*
X80839014Y-137130706D01*
X81065134Y-136945134D01*
X81250706Y-136719014D01*
X81280000Y-136664209D01*
X81309294Y-136719014D01*
X81494866Y-136945134D01*
X81720986Y-137130706D01*
X81978966Y-137268599D01*
X82258889Y-137353513D01*
X82477050Y-137375000D01*
X82622950Y-137375000D01*
X82841111Y-137353513D01*
X83121034Y-137268599D01*
X83379014Y-137130706D01*
X83605134Y-136945134D01*
X83790706Y-136719014D01*
X83820000Y-136664209D01*
X83849294Y-136719014D01*
X84034866Y-136945134D01*
X84260986Y-137130706D01*
X84518966Y-137268599D01*
X84798889Y-137353513D01*
X85017050Y-137375000D01*
X85162950Y-137375000D01*
X85381111Y-137353513D01*
X85661034Y-137268599D01*
X85919014Y-137130706D01*
X86145134Y-136945134D01*
X86330706Y-136719014D01*
X86360000Y-136664209D01*
X86389294Y-136719014D01*
X86574866Y-136945134D01*
X86800986Y-137130706D01*
X87058966Y-137268599D01*
X87338889Y-137353513D01*
X87557050Y-137375000D01*
X87702950Y-137375000D01*
X87784989Y-137366920D01*
X87784989Y-141664553D01*
X87648985Y-141573678D01*
X87251341Y-141408969D01*
X86829204Y-141325000D01*
X86398796Y-141325000D01*
X85976659Y-141408969D01*
X85579015Y-141573678D01*
X85221144Y-141812800D01*
X84916800Y-142117144D01*
X84677678Y-142475015D01*
X84654465Y-142531057D01*
X84584477Y-142426313D01*
X84347687Y-142189523D01*
X84069252Y-142003479D01*
X83759872Y-141875330D01*
X83431435Y-141810000D01*
X83096565Y-141810000D01*
X82768128Y-141875330D01*
X82458748Y-142003479D01*
X82180313Y-142189523D01*
X81943523Y-142426313D01*
X81757479Y-142704748D01*
X81715895Y-142805140D01*
X81717072Y-142545000D01*
X81704812Y-142420518D01*
X81668502Y-142300820D01*
X81609537Y-142190506D01*
X81530185Y-142093815D01*
X81433494Y-142014463D01*
X81323180Y-141955498D01*
X81203482Y-141919188D01*
X81079000Y-141906928D01*
X80449750Y-141910000D01*
X80291000Y-142068750D01*
X80291000Y-143383000D01*
X80311000Y-143383000D01*
X80311000Y-143637000D01*
X80291000Y-143637000D01*
X80291000Y-144951250D01*
X80449750Y-145110000D01*
X81079000Y-145113072D01*
X81203482Y-145100812D01*
X81323180Y-145064502D01*
X81433494Y-145005537D01*
X81530185Y-144926185D01*
X81609537Y-144829494D01*
X81668502Y-144719180D01*
X81704812Y-144599482D01*
X81717072Y-144475000D01*
X81715895Y-144214860D01*
X81757479Y-144315252D01*
X81943523Y-144593687D01*
X82180313Y-144830477D01*
X82458748Y-145016521D01*
X82768128Y-145144670D01*
X83096565Y-145210000D01*
X83431435Y-145210000D01*
X83759872Y-145144670D01*
X84069252Y-145016521D01*
X84347687Y-144830477D01*
X84584477Y-144593687D01*
X84654465Y-144488943D01*
X84677678Y-144544985D01*
X84916800Y-144902856D01*
X85221144Y-145207200D01*
X85579015Y-145446322D01*
X85976659Y-145611031D01*
X86398796Y-145695000D01*
X86829204Y-145695000D01*
X87251341Y-145611031D01*
X87648985Y-145446322D01*
X87784990Y-145355447D01*
X87784990Y-151629657D01*
X87781313Y-151666989D01*
X87795987Y-151815974D01*
X87839443Y-151959235D01*
X87910015Y-152091265D01*
X87981190Y-152177991D01*
X88004989Y-152206990D01*
X88033987Y-152230788D01*
X89948074Y-154144876D01*
X89929330Y-154190128D01*
X89864000Y-154518565D01*
X89864000Y-154853435D01*
X89929330Y-155181872D01*
X90057479Y-155491252D01*
X90243523Y-155769687D01*
X90480313Y-156006477D01*
X90758748Y-156192521D01*
X91068128Y-156320670D01*
X91396565Y-156386000D01*
X91731435Y-156386000D01*
X92059872Y-156320670D01*
X92369252Y-156192521D01*
X92647687Y-156006477D01*
X92812001Y-155842163D01*
X92812001Y-159360000D01*
X64668000Y-159360000D01*
X64668000Y-156278928D01*
X64771000Y-156289072D01*
X65400250Y-156286000D01*
X65559000Y-156127250D01*
X65559000Y-154813000D01*
X65539000Y-154813000D01*
X65539000Y-154559000D01*
X65559000Y-154559000D01*
X65559000Y-153244750D01*
X65813000Y-153244750D01*
X65813000Y-154559000D01*
X65833000Y-154559000D01*
X65833000Y-154813000D01*
X65813000Y-154813000D01*
X65813000Y-156127250D01*
X65971750Y-156286000D01*
X66601000Y-156289072D01*
X66725482Y-156276812D01*
X66845180Y-156240502D01*
X66955494Y-156181537D01*
X67052185Y-156102185D01*
X67131537Y-156005494D01*
X67190502Y-155895180D01*
X67226812Y-155775482D01*
X67239072Y-155651000D01*
X67237895Y-155390860D01*
X67279479Y-155491252D01*
X67465523Y-155769687D01*
X67702313Y-156006477D01*
X67980748Y-156192521D01*
X68290128Y-156320670D01*
X68618565Y-156386000D01*
X68953435Y-156386000D01*
X69281872Y-156320670D01*
X69591252Y-156192521D01*
X69869687Y-156006477D01*
X70106477Y-155769687D01*
X70176465Y-155664943D01*
X70199678Y-155720985D01*
X70438800Y-156078856D01*
X70743144Y-156383200D01*
X71101015Y-156622322D01*
X71498659Y-156787031D01*
X71920796Y-156871000D01*
X72351204Y-156871000D01*
X72773341Y-156787031D01*
X73170985Y-156622322D01*
X73528856Y-156383200D01*
X73833200Y-156078856D01*
X74072322Y-155720985D01*
X74237031Y-155323341D01*
X74321000Y-154901204D01*
X74321000Y-154470796D01*
X74237031Y-154048659D01*
X74072322Y-153651015D01*
X73833200Y-153293144D01*
X73528856Y-152988800D01*
X73170985Y-152749678D01*
X72773341Y-152584969D01*
X72351204Y-152501000D01*
X71920796Y-152501000D01*
X71498659Y-152584969D01*
X71101015Y-152749678D01*
X70743144Y-152988800D01*
X70438800Y-153293144D01*
X70199678Y-153651015D01*
X70176465Y-153707057D01*
X70106477Y-153602313D01*
X69869687Y-153365523D01*
X69591252Y-153179479D01*
X69281872Y-153051330D01*
X68953435Y-152986000D01*
X68618565Y-152986000D01*
X68290128Y-153051330D01*
X67980748Y-153179479D01*
X67702313Y-153365523D01*
X67465523Y-153602313D01*
X67279479Y-153880748D01*
X67237895Y-153981140D01*
X67239072Y-153721000D01*
X67226812Y-153596518D01*
X67190502Y-153476820D01*
X67131537Y-153366506D01*
X67052185Y-153269815D01*
X66955494Y-153190463D01*
X66845180Y-153131498D01*
X66725482Y-153095188D01*
X66601000Y-153082928D01*
X65971750Y-153086000D01*
X65813000Y-153244750D01*
X65559000Y-153244750D01*
X65400250Y-153086000D01*
X64771000Y-153082928D01*
X64668000Y-153093072D01*
X64668000Y-145102928D01*
X64771000Y-145113072D01*
X65400250Y-145110000D01*
X65559000Y-144951250D01*
X65559000Y-143637000D01*
X65539000Y-143637000D01*
X65539000Y-143383000D01*
X65559000Y-143383000D01*
X65559000Y-142068750D01*
X65813000Y-142068750D01*
X65813000Y-143383000D01*
X65833000Y-143383000D01*
X65833000Y-143637000D01*
X65813000Y-143637000D01*
X65813000Y-144951250D01*
X65971750Y-145110000D01*
X66601000Y-145113072D01*
X66725482Y-145100812D01*
X66845180Y-145064502D01*
X66955494Y-145005537D01*
X67052185Y-144926185D01*
X67131537Y-144829494D01*
X67190502Y-144719180D01*
X67226812Y-144599482D01*
X67239072Y-144475000D01*
X67237895Y-144214860D01*
X67279479Y-144315252D01*
X67465523Y-144593687D01*
X67702313Y-144830477D01*
X67980748Y-145016521D01*
X68290128Y-145144670D01*
X68618565Y-145210000D01*
X68953435Y-145210000D01*
X69281872Y-145144670D01*
X69591252Y-145016521D01*
X69869687Y-144830477D01*
X70106477Y-144593687D01*
X70176465Y-144488943D01*
X70199678Y-144544985D01*
X70438800Y-144902856D01*
X70743144Y-145207200D01*
X71101015Y-145446322D01*
X71498659Y-145611031D01*
X71920796Y-145695000D01*
X72351204Y-145695000D01*
X72773341Y-145611031D01*
X73170985Y-145446322D01*
X73528856Y-145207200D01*
X73833200Y-144902856D01*
X74072322Y-144544985D01*
X74237031Y-144147341D01*
X74321000Y-143725204D01*
X74321000Y-143294796D01*
X74237031Y-142872659D01*
X74072322Y-142475015D01*
X73833200Y-142117144D01*
X73528856Y-141812800D01*
X73170985Y-141573678D01*
X72773341Y-141408969D01*
X72351204Y-141325000D01*
X71920796Y-141325000D01*
X71498659Y-141408969D01*
X71101015Y-141573678D01*
X70743144Y-141812800D01*
X70438800Y-142117144D01*
X70199678Y-142475015D01*
X70176465Y-142531057D01*
X70106477Y-142426313D01*
X69869687Y-142189523D01*
X69591252Y-142003479D01*
X69281872Y-141875330D01*
X68953435Y-141810000D01*
X68618565Y-141810000D01*
X68290128Y-141875330D01*
X67980748Y-142003479D01*
X67702313Y-142189523D01*
X67465523Y-142426313D01*
X67279479Y-142704748D01*
X67237895Y-142805140D01*
X67239072Y-142545000D01*
X67226812Y-142420518D01*
X67190502Y-142300820D01*
X67131537Y-142190506D01*
X67052185Y-142093815D01*
X66955494Y-142014463D01*
X66845180Y-141955498D01*
X66725482Y-141919188D01*
X66601000Y-141906928D01*
X65971750Y-141910000D01*
X65813000Y-142068750D01*
X65559000Y-142068750D01*
X65400250Y-141910000D01*
X64771000Y-141906928D01*
X64668000Y-141917072D01*
X64668000Y-132518306D01*
X64688882Y-132557373D01*
X65106852Y-132833543D01*
X67130395Y-130810000D01*
X65106852Y-128786457D01*
X64688882Y-129062627D01*
X64668000Y-129101794D01*
X64668000Y-115873162D01*
X73910333Y-115873162D01*
X74046652Y-116322553D01*
X74286067Y-116780270D01*
X74610178Y-117182485D01*
X75006530Y-117513740D01*
X75459890Y-117761306D01*
X75952837Y-117915669D01*
X76363000Y-117809190D01*
X76363000Y-115463000D01*
X76617000Y-115463000D01*
X76617000Y-117809190D01*
X77027163Y-117915669D01*
X77520110Y-117761306D01*
X77973470Y-117513740D01*
X78369822Y-117182485D01*
X78693933Y-116780270D01*
X78933348Y-116322553D01*
X79069667Y-115873162D01*
X83410333Y-115873162D01*
X83546652Y-116322553D01*
X83786067Y-116780270D01*
X84110178Y-117182485D01*
X84506530Y-117513740D01*
X84959890Y-117761306D01*
X85452837Y-117915669D01*
X85863000Y-117809190D01*
X85863000Y-115463000D01*
X86117000Y-115463000D01*
X86117000Y-117809190D01*
X86527163Y-117915669D01*
X87020110Y-117761306D01*
X87473470Y-117513740D01*
X87869822Y-117182485D01*
X88193933Y-116780270D01*
X88433348Y-116322553D01*
X88569667Y-115873162D01*
X88462991Y-115463000D01*
X86117000Y-115463000D01*
X85863000Y-115463000D01*
X83517009Y-115463000D01*
X83410333Y-115873162D01*
X79069667Y-115873162D01*
X78962991Y-115463000D01*
X76617000Y-115463000D01*
X76363000Y-115463000D01*
X74017009Y-115463000D01*
X73910333Y-115873162D01*
X64668000Y-115873162D01*
X64668000Y-114798838D01*
X73910333Y-114798838D01*
X74017009Y-115209000D01*
X76363000Y-115209000D01*
X76363000Y-112862810D01*
X76617000Y-112862810D01*
X76617000Y-115209000D01*
X78962991Y-115209000D01*
X79069667Y-114798838D01*
X83410333Y-114798838D01*
X83517009Y-115209000D01*
X85863000Y-115209000D01*
X85863000Y-112862810D01*
X86117000Y-112862810D01*
X86117000Y-115209000D01*
X88462991Y-115209000D01*
X88569667Y-114798838D01*
X88433348Y-114349447D01*
X88193933Y-113891730D01*
X87869822Y-113489515D01*
X87473470Y-113158260D01*
X87020110Y-112910694D01*
X86527163Y-112756331D01*
X86117000Y-112862810D01*
X85863000Y-112862810D01*
X85452837Y-112756331D01*
X84959890Y-112910694D01*
X84506530Y-113158260D01*
X84110178Y-113489515D01*
X83786067Y-113891730D01*
X83546652Y-114349447D01*
X83410333Y-114798838D01*
X79069667Y-114798838D01*
X78933348Y-114349447D01*
X78693933Y-113891730D01*
X78369822Y-113489515D01*
X77973470Y-113158260D01*
X77520110Y-112910694D01*
X77027163Y-112756331D01*
X76617000Y-112862810D01*
X76363000Y-112862810D01*
X75952837Y-112756331D01*
X75459890Y-112910694D01*
X75006530Y-113158260D01*
X74610178Y-113489515D01*
X74286067Y-113891730D01*
X74046652Y-114349447D01*
X73910333Y-114798838D01*
X64668000Y-114798838D01*
X64668000Y-99128928D01*
X64771000Y-99139072D01*
X65400250Y-99136000D01*
X65559000Y-98977250D01*
X65559000Y-97663000D01*
X65539000Y-97663000D01*
X65539000Y-97409000D01*
X65559000Y-97409000D01*
X65559000Y-96094750D01*
X65813000Y-96094750D01*
X65813000Y-97409000D01*
X65833000Y-97409000D01*
X65833000Y-97663000D01*
X65813000Y-97663000D01*
X65813000Y-98977250D01*
X65971750Y-99136000D01*
X66601000Y-99139072D01*
X66725482Y-99126812D01*
X66845180Y-99090502D01*
X66955494Y-99031537D01*
X67052185Y-98952185D01*
X67131537Y-98855494D01*
X67190502Y-98745180D01*
X67226812Y-98625482D01*
X67239072Y-98501000D01*
X67237895Y-98240860D01*
X67279479Y-98341252D01*
X67465523Y-98619687D01*
X67702313Y-98856477D01*
X67980748Y-99042521D01*
X68290128Y-99170670D01*
X68618565Y-99236000D01*
X68953435Y-99236000D01*
X69281872Y-99170670D01*
X69591252Y-99042521D01*
X69869687Y-98856477D01*
X70106477Y-98619687D01*
X70176465Y-98514943D01*
X70199678Y-98570985D01*
X70438800Y-98928856D01*
X70743144Y-99233200D01*
X71101015Y-99472322D01*
X71498659Y-99637031D01*
X71920796Y-99721000D01*
X72351204Y-99721000D01*
X72773341Y-99637031D01*
X73170985Y-99472322D01*
X73528856Y-99233200D01*
X73833200Y-98928856D01*
X74072322Y-98570985D01*
X74237031Y-98173341D01*
X74321000Y-97751204D01*
X74321000Y-97320796D01*
X74237031Y-96898659D01*
X74072322Y-96501015D01*
X73833200Y-96143144D01*
X73528856Y-95838800D01*
X73170985Y-95599678D01*
X72773341Y-95434969D01*
X72351204Y-95351000D01*
X71920796Y-95351000D01*
X71498659Y-95434969D01*
X71101015Y-95599678D01*
X70743144Y-95838800D01*
X70438800Y-96143144D01*
X70199678Y-96501015D01*
X70176465Y-96557057D01*
X70106477Y-96452313D01*
X69869687Y-96215523D01*
X69591252Y-96029479D01*
X69281872Y-95901330D01*
X68953435Y-95836000D01*
X68618565Y-95836000D01*
X68290128Y-95901330D01*
X67980748Y-96029479D01*
X67702313Y-96215523D01*
X67465523Y-96452313D01*
X67279479Y-96730748D01*
X67237895Y-96831140D01*
X67239072Y-96571000D01*
X67226812Y-96446518D01*
X67190502Y-96326820D01*
X67131537Y-96216506D01*
X67052185Y-96119815D01*
X66955494Y-96040463D01*
X66845180Y-95981498D01*
X66725482Y-95945188D01*
X66601000Y-95932928D01*
X65971750Y-95936000D01*
X65813000Y-96094750D01*
X65559000Y-96094750D01*
X65400250Y-95936000D01*
X64771000Y-95932928D01*
X64668000Y-95943072D01*
X64668000Y-87952928D01*
X64771000Y-87963072D01*
X65400250Y-87960000D01*
X65559000Y-87801250D01*
X65559000Y-86487000D01*
X65539000Y-86487000D01*
X65539000Y-86233000D01*
X65559000Y-86233000D01*
X65559000Y-84918750D01*
X65813000Y-84918750D01*
X65813000Y-86233000D01*
X65833000Y-86233000D01*
X65833000Y-86487000D01*
X65813000Y-86487000D01*
X65813000Y-87801250D01*
X65971750Y-87960000D01*
X66601000Y-87963072D01*
X66725482Y-87950812D01*
X66845180Y-87914502D01*
X66955494Y-87855537D01*
X67052185Y-87776185D01*
X67131537Y-87679494D01*
X67190502Y-87569180D01*
X67226812Y-87449482D01*
X67239072Y-87325000D01*
X67237895Y-87064860D01*
X67279479Y-87165252D01*
X67465523Y-87443687D01*
X67702313Y-87680477D01*
X67980748Y-87866521D01*
X68290128Y-87994670D01*
X68618565Y-88060000D01*
X68953435Y-88060000D01*
X69281872Y-87994670D01*
X69591252Y-87866521D01*
X69869687Y-87680477D01*
X70106477Y-87443687D01*
X70176465Y-87338943D01*
X70199678Y-87394985D01*
X70438800Y-87752856D01*
X70743144Y-88057200D01*
X71101015Y-88296322D01*
X71498659Y-88461031D01*
X71920796Y-88545000D01*
X72351204Y-88545000D01*
X72773341Y-88461031D01*
X73170985Y-88296322D01*
X73528856Y-88057200D01*
X73833200Y-87752856D01*
X74072322Y-87394985D01*
X74237031Y-86997341D01*
X74321000Y-86575204D01*
X74321000Y-86144796D01*
X74237031Y-85722659D01*
X74072322Y-85325015D01*
X73833200Y-84967144D01*
X73528856Y-84662800D01*
X73170985Y-84423678D01*
X72773341Y-84258969D01*
X72351204Y-84175000D01*
X71920796Y-84175000D01*
X71498659Y-84258969D01*
X71101015Y-84423678D01*
X70743144Y-84662800D01*
X70438800Y-84967144D01*
X70199678Y-85325015D01*
X70176465Y-85381057D01*
X70106477Y-85276313D01*
X69869687Y-85039523D01*
X69591252Y-84853479D01*
X69281872Y-84725330D01*
X68953435Y-84660000D01*
X68618565Y-84660000D01*
X68290128Y-84725330D01*
X67980748Y-84853479D01*
X67702313Y-85039523D01*
X67465523Y-85276313D01*
X67279479Y-85554748D01*
X67237895Y-85655140D01*
X67239072Y-85395000D01*
X67226812Y-85270518D01*
X67190502Y-85150820D01*
X67131537Y-85040506D01*
X67052185Y-84943815D01*
X66955494Y-84864463D01*
X66845180Y-84805498D01*
X66725482Y-84769188D01*
X66601000Y-84756928D01*
X65971750Y-84760000D01*
X65813000Y-84918750D01*
X65559000Y-84918750D01*
X65400250Y-84760000D01*
X64771000Y-84756928D01*
X64668000Y-84767072D01*
X64668000Y-75368306D01*
X64688882Y-75407373D01*
X65106852Y-75683543D01*
X67130395Y-73660000D01*
X65106852Y-71636457D01*
X64688882Y-71912627D01*
X64668000Y-71951794D01*
X64668000Y-71456852D01*
X65286457Y-71456852D01*
X67310000Y-73480395D01*
X69333543Y-71456852D01*
X69057373Y-71038882D01*
X68512443Y-70748351D01*
X67921304Y-70569713D01*
X67306672Y-70509832D01*
X66692169Y-70571010D01*
X66101408Y-70750897D01*
X65562627Y-71038882D01*
X65286457Y-71456852D01*
X64668000Y-71456852D01*
X64668000Y-58723162D01*
X73910333Y-58723162D01*
X74046652Y-59172553D01*
X74286067Y-59630270D01*
X74610178Y-60032485D01*
X75006530Y-60363740D01*
X75459890Y-60611306D01*
X75952837Y-60765669D01*
X76363000Y-60659190D01*
X76363000Y-58313000D01*
X76617000Y-58313000D01*
X76617000Y-60659190D01*
X77027163Y-60765669D01*
X77520110Y-60611306D01*
X77973470Y-60363740D01*
X78369822Y-60032485D01*
X78693933Y-59630270D01*
X78933348Y-59172553D01*
X79069667Y-58723162D01*
X83410333Y-58723162D01*
X83546652Y-59172553D01*
X83786067Y-59630270D01*
X84110178Y-60032485D01*
X84506530Y-60363740D01*
X84959890Y-60611306D01*
X85452837Y-60765669D01*
X85863000Y-60659190D01*
X85863000Y-58313000D01*
X86117000Y-58313000D01*
X86117000Y-60659190D01*
X86527163Y-60765669D01*
X87020110Y-60611306D01*
X87473470Y-60363740D01*
X87869822Y-60032485D01*
X88193933Y-59630270D01*
X88433348Y-59172553D01*
X88569667Y-58723162D01*
X88462991Y-58313000D01*
X86117000Y-58313000D01*
X85863000Y-58313000D01*
X83517009Y-58313000D01*
X83410333Y-58723162D01*
X79069667Y-58723162D01*
X78962991Y-58313000D01*
X76617000Y-58313000D01*
X76363000Y-58313000D01*
X74017009Y-58313000D01*
X73910333Y-58723162D01*
X64668000Y-58723162D01*
X64668000Y-57648838D01*
X73910333Y-57648838D01*
X74017009Y-58059000D01*
X76363000Y-58059000D01*
X76363000Y-55712810D01*
X76617000Y-55712810D01*
X76617000Y-58059000D01*
X78962991Y-58059000D01*
X79069667Y-57648838D01*
X83410333Y-57648838D01*
X83517009Y-58059000D01*
X85863000Y-58059000D01*
X85863000Y-55712810D01*
X86117000Y-55712810D01*
X86117000Y-58059000D01*
X88462991Y-58059000D01*
X88569667Y-57648838D01*
X88433348Y-57199447D01*
X88193933Y-56741730D01*
X87869822Y-56339515D01*
X87473470Y-56008260D01*
X87020110Y-55760694D01*
X86527163Y-55606331D01*
X86117000Y-55712810D01*
X85863000Y-55712810D01*
X85452837Y-55606331D01*
X84959890Y-55760694D01*
X84506530Y-56008260D01*
X84110178Y-56339515D01*
X83786067Y-56741730D01*
X83546652Y-57199447D01*
X83410333Y-57648838D01*
X79069667Y-57648838D01*
X78933348Y-57199447D01*
X78693933Y-56741730D01*
X78369822Y-56339515D01*
X77973470Y-56008260D01*
X77520110Y-55760694D01*
X77027163Y-55606331D01*
X76617000Y-55712810D01*
X76363000Y-55712810D01*
X75952837Y-55606331D01*
X75459890Y-55760694D01*
X75006530Y-56008260D01*
X74610178Y-56339515D01*
X74286067Y-56741730D01*
X74046652Y-57199447D01*
X73910333Y-57648838D01*
X64668000Y-57648838D01*
X64668000Y-48920000D01*
X92812000Y-48920000D01*
X92812000Y-71951695D01*
M02*
