G04 #@! TF.GenerationSoftware,KiCad,Pcbnew,(5.1.2-1)-1*
G04 #@! TF.CreationDate,2019-08-21T10:56:27-07:00*
G04 #@! TF.ProjectId,AS3360_VCA,41533333-3630-45f5-9643-412e6b696361,rev?*
G04 #@! TF.SameCoordinates,Original*
G04 #@! TF.FileFunction,Soldermask,Bot*
G04 #@! TF.FilePolarity,Negative*
%FSLAX46Y46*%
G04 Gerber Fmt 4.6, Leading zero omitted, Abs format (unit mm)*
G04 Created by KiCad (PCBNEW (5.1.2-1)-1) date 2019-08-21 10:56:27*
%MOMM*%
%LPD*%
G04 APERTURE LIST*
%ADD10C,0.100000*%
G04 APERTURE END LIST*
D10*
G36*
X89193823Y-107619313D02*
G01*
X89354242Y-107667976D01*
X89486906Y-107738886D01*
X89502078Y-107746996D01*
X89631659Y-107853341D01*
X89738004Y-107982922D01*
X89738005Y-107982924D01*
X89817024Y-108130758D01*
X89865687Y-108291177D01*
X89882117Y-108458000D01*
X89865687Y-108624823D01*
X89817024Y-108785242D01*
X89746114Y-108917906D01*
X89738004Y-108933078D01*
X89631659Y-109062659D01*
X89502078Y-109169004D01*
X89502076Y-109169005D01*
X89354242Y-109248024D01*
X89193823Y-109296687D01*
X89068804Y-109309000D01*
X88985196Y-109309000D01*
X88860177Y-109296687D01*
X88699758Y-109248024D01*
X88551924Y-109169005D01*
X88551922Y-109169004D01*
X88422341Y-109062659D01*
X88315996Y-108933078D01*
X88307886Y-108917906D01*
X88236976Y-108785242D01*
X88188313Y-108624823D01*
X88171883Y-108458000D01*
X88188313Y-108291177D01*
X88236976Y-108130758D01*
X88315995Y-107982924D01*
X88315996Y-107982922D01*
X88422341Y-107853341D01*
X88551922Y-107746996D01*
X88567094Y-107738886D01*
X88699758Y-107667976D01*
X88860177Y-107619313D01*
X88985196Y-107607000D01*
X89068804Y-107607000D01*
X89193823Y-107619313D01*
X89193823Y-107619313D01*
G37*
G36*
X81573823Y-107619313D02*
G01*
X81734242Y-107667976D01*
X81866906Y-107738886D01*
X81882078Y-107746996D01*
X82011659Y-107853341D01*
X82118004Y-107982922D01*
X82118005Y-107982924D01*
X82197024Y-108130758D01*
X82245687Y-108291177D01*
X82262117Y-108458000D01*
X82245687Y-108624823D01*
X82197024Y-108785242D01*
X82126114Y-108917906D01*
X82118004Y-108933078D01*
X82011659Y-109062659D01*
X81882078Y-109169004D01*
X81882076Y-109169005D01*
X81734242Y-109248024D01*
X81573823Y-109296687D01*
X81448804Y-109309000D01*
X81365196Y-109309000D01*
X81240177Y-109296687D01*
X81079758Y-109248024D01*
X80931924Y-109169005D01*
X80931922Y-109169004D01*
X80802341Y-109062659D01*
X80695996Y-108933078D01*
X80687886Y-108917906D01*
X80616976Y-108785242D01*
X80568313Y-108624823D01*
X80551883Y-108458000D01*
X80568313Y-108291177D01*
X80616976Y-108130758D01*
X80695995Y-107982924D01*
X80695996Y-107982922D01*
X80802341Y-107853341D01*
X80931922Y-107746996D01*
X80947094Y-107738886D01*
X81079758Y-107667976D01*
X81240177Y-107619313D01*
X81365196Y-107607000D01*
X81448804Y-107607000D01*
X81573823Y-107619313D01*
X81573823Y-107619313D01*
G37*
G36*
X116950442Y-107309518D02*
G01*
X117016627Y-107316037D01*
X117186466Y-107367557D01*
X117342991Y-107451222D01*
X117378729Y-107480552D01*
X117480186Y-107563814D01*
X117563448Y-107665271D01*
X117592778Y-107701009D01*
X117676443Y-107857534D01*
X117727963Y-108027373D01*
X117745359Y-108204000D01*
X117727963Y-108380627D01*
X117676443Y-108550466D01*
X117592778Y-108706991D01*
X117563448Y-108742729D01*
X117480186Y-108844186D01*
X117378729Y-108927448D01*
X117342991Y-108956778D01*
X117186466Y-109040443D01*
X117016627Y-109091963D01*
X116950443Y-109098481D01*
X116884260Y-109105000D01*
X116795740Y-109105000D01*
X116729557Y-109098481D01*
X116663373Y-109091963D01*
X116493534Y-109040443D01*
X116337009Y-108956778D01*
X116301271Y-108927448D01*
X116199814Y-108844186D01*
X116116552Y-108742729D01*
X116087222Y-108706991D01*
X116003557Y-108550466D01*
X115952037Y-108380627D01*
X115934641Y-108204000D01*
X115952037Y-108027373D01*
X116003557Y-107857534D01*
X116087222Y-107701009D01*
X116116552Y-107665271D01*
X116199814Y-107563814D01*
X116301271Y-107480552D01*
X116337009Y-107451222D01*
X116493534Y-107367557D01*
X116663373Y-107316037D01*
X116729558Y-107309518D01*
X116795740Y-107303000D01*
X116884260Y-107303000D01*
X116950442Y-107309518D01*
X116950442Y-107309518D01*
G37*
G36*
X114410442Y-107309518D02*
G01*
X114476627Y-107316037D01*
X114646466Y-107367557D01*
X114802991Y-107451222D01*
X114838729Y-107480552D01*
X114940186Y-107563814D01*
X115023448Y-107665271D01*
X115052778Y-107701009D01*
X115136443Y-107857534D01*
X115187963Y-108027373D01*
X115205359Y-108204000D01*
X115187963Y-108380627D01*
X115136443Y-108550466D01*
X115052778Y-108706991D01*
X115023448Y-108742729D01*
X114940186Y-108844186D01*
X114838729Y-108927448D01*
X114802991Y-108956778D01*
X114646466Y-109040443D01*
X114476627Y-109091963D01*
X114410443Y-109098481D01*
X114344260Y-109105000D01*
X114255740Y-109105000D01*
X114189557Y-109098481D01*
X114123373Y-109091963D01*
X113953534Y-109040443D01*
X113797009Y-108956778D01*
X113761271Y-108927448D01*
X113659814Y-108844186D01*
X113576552Y-108742729D01*
X113547222Y-108706991D01*
X113463557Y-108550466D01*
X113412037Y-108380627D01*
X113394641Y-108204000D01*
X113412037Y-108027373D01*
X113463557Y-107857534D01*
X113547222Y-107701009D01*
X113576552Y-107665271D01*
X113659814Y-107563814D01*
X113761271Y-107480552D01*
X113797009Y-107451222D01*
X113953534Y-107367557D01*
X114123373Y-107316037D01*
X114189558Y-107309518D01*
X114255740Y-107303000D01*
X114344260Y-107303000D01*
X114410442Y-107309518D01*
X114410442Y-107309518D01*
G37*
G36*
X112661000Y-109105000D02*
G01*
X110859000Y-109105000D01*
X110859000Y-107303000D01*
X112661000Y-107303000D01*
X112661000Y-109105000D01*
X112661000Y-109105000D01*
G37*
G36*
X96376442Y-107055518D02*
G01*
X96442627Y-107062037D01*
X96612466Y-107113557D01*
X96768991Y-107197222D01*
X96804729Y-107226552D01*
X96906186Y-107309814D01*
X96989448Y-107411271D01*
X97018778Y-107447009D01*
X97102443Y-107603534D01*
X97153963Y-107773373D01*
X97171359Y-107950000D01*
X97153963Y-108126627D01*
X97107910Y-108278443D01*
X97102442Y-108296468D01*
X97078046Y-108342109D01*
X97018778Y-108452991D01*
X97014667Y-108458000D01*
X96906186Y-108590186D01*
X96804729Y-108673448D01*
X96768991Y-108702778D01*
X96612466Y-108786443D01*
X96442627Y-108837963D01*
X96379453Y-108844185D01*
X96310260Y-108851000D01*
X96221740Y-108851000D01*
X96152547Y-108844185D01*
X96089373Y-108837963D01*
X95919534Y-108786443D01*
X95763009Y-108702778D01*
X95727271Y-108673448D01*
X95625814Y-108590186D01*
X95517333Y-108458000D01*
X95513222Y-108452991D01*
X95453954Y-108342109D01*
X95429558Y-108296468D01*
X95424090Y-108278443D01*
X95378037Y-108126627D01*
X95360641Y-107950000D01*
X95378037Y-107773373D01*
X95429557Y-107603534D01*
X95513222Y-107447009D01*
X95542552Y-107411271D01*
X95625814Y-107309814D01*
X95727271Y-107226552D01*
X95763009Y-107197222D01*
X95919534Y-107113557D01*
X96089373Y-107062037D01*
X96155558Y-107055518D01*
X96221740Y-107049000D01*
X96310260Y-107049000D01*
X96376442Y-107055518D01*
X96376442Y-107055518D01*
G37*
G36*
X98916442Y-107055518D02*
G01*
X98982627Y-107062037D01*
X99152466Y-107113557D01*
X99308991Y-107197222D01*
X99344729Y-107226552D01*
X99446186Y-107309814D01*
X99529448Y-107411271D01*
X99558778Y-107447009D01*
X99642443Y-107603534D01*
X99693963Y-107773373D01*
X99711359Y-107950000D01*
X99693963Y-108126627D01*
X99647910Y-108278443D01*
X99642442Y-108296468D01*
X99618046Y-108342109D01*
X99558778Y-108452991D01*
X99554667Y-108458000D01*
X99446186Y-108590186D01*
X99344729Y-108673448D01*
X99308991Y-108702778D01*
X99152466Y-108786443D01*
X98982627Y-108837963D01*
X98919453Y-108844185D01*
X98850260Y-108851000D01*
X98761740Y-108851000D01*
X98692547Y-108844185D01*
X98629373Y-108837963D01*
X98459534Y-108786443D01*
X98303009Y-108702778D01*
X98267271Y-108673448D01*
X98165814Y-108590186D01*
X98057333Y-108458000D01*
X98053222Y-108452991D01*
X97993954Y-108342109D01*
X97969558Y-108296468D01*
X97964090Y-108278443D01*
X97918037Y-108126627D01*
X97900641Y-107950000D01*
X97918037Y-107773373D01*
X97969557Y-107603534D01*
X98053222Y-107447009D01*
X98082552Y-107411271D01*
X98165814Y-107309814D01*
X98267271Y-107226552D01*
X98303009Y-107197222D01*
X98459534Y-107113557D01*
X98629373Y-107062037D01*
X98695558Y-107055518D01*
X98761740Y-107049000D01*
X98850260Y-107049000D01*
X98916442Y-107055518D01*
X98916442Y-107055518D01*
G37*
G36*
X102247000Y-108851000D02*
G01*
X100445000Y-108851000D01*
X100445000Y-107049000D01*
X102247000Y-107049000D01*
X102247000Y-108851000D01*
X102247000Y-108851000D01*
G37*
G36*
X121706997Y-106722051D02*
G01*
X121740652Y-106732261D01*
X121771665Y-106748838D01*
X121798851Y-106771149D01*
X121821162Y-106798335D01*
X121837739Y-106829348D01*
X121847949Y-106863003D01*
X121852000Y-106904138D01*
X121852000Y-108233862D01*
X121847949Y-108274997D01*
X121837739Y-108308652D01*
X121821162Y-108339665D01*
X121798851Y-108366851D01*
X121771665Y-108389162D01*
X121740652Y-108405739D01*
X121706997Y-108415949D01*
X121665862Y-108420000D01*
X119336138Y-108420000D01*
X119295003Y-108415949D01*
X119261348Y-108405739D01*
X119230335Y-108389162D01*
X119203149Y-108366851D01*
X119180838Y-108339665D01*
X119164261Y-108308652D01*
X119154051Y-108274997D01*
X119150000Y-108233862D01*
X119150000Y-106904138D01*
X119154051Y-106863003D01*
X119164261Y-106829348D01*
X119180838Y-106798335D01*
X119203149Y-106771149D01*
X119230335Y-106748838D01*
X119261348Y-106732261D01*
X119295003Y-106722051D01*
X119336138Y-106718000D01*
X121665862Y-106718000D01*
X121706997Y-106722051D01*
X121706997Y-106722051D01*
G37*
G36*
X125306997Y-106722051D02*
G01*
X125340652Y-106732261D01*
X125371665Y-106748838D01*
X125398851Y-106771149D01*
X125421162Y-106798335D01*
X125437739Y-106829348D01*
X125447949Y-106863003D01*
X125452000Y-106904138D01*
X125452000Y-108233862D01*
X125447949Y-108274997D01*
X125437739Y-108308652D01*
X125421162Y-108339665D01*
X125398851Y-108366851D01*
X125371665Y-108389162D01*
X125340652Y-108405739D01*
X125306997Y-108415949D01*
X125265862Y-108420000D01*
X122936138Y-108420000D01*
X122895003Y-108415949D01*
X122861348Y-108405739D01*
X122830335Y-108389162D01*
X122803149Y-108366851D01*
X122780838Y-108339665D01*
X122764261Y-108308652D01*
X122754051Y-108274997D01*
X122750000Y-108233862D01*
X122750000Y-106904138D01*
X122754051Y-106863003D01*
X122764261Y-106829348D01*
X122780838Y-106798335D01*
X122803149Y-106771149D01*
X122830335Y-106748838D01*
X122861348Y-106732261D01*
X122895003Y-106722051D01*
X122936138Y-106718000D01*
X125265862Y-106718000D01*
X125306997Y-106722051D01*
X125306997Y-106722051D01*
G37*
G36*
X128669997Y-106722051D02*
G01*
X128703652Y-106732261D01*
X128734665Y-106748838D01*
X128761851Y-106771149D01*
X128784162Y-106798335D01*
X128800739Y-106829348D01*
X128810949Y-106863003D01*
X128815000Y-106904138D01*
X128815000Y-108233862D01*
X128810949Y-108274997D01*
X128800739Y-108308652D01*
X128784162Y-108339665D01*
X128761851Y-108366851D01*
X128734665Y-108389162D01*
X128703652Y-108405739D01*
X128669997Y-108415949D01*
X128628862Y-108420000D01*
X126299138Y-108420000D01*
X126258003Y-108415949D01*
X126224348Y-108405739D01*
X126193335Y-108389162D01*
X126166149Y-108366851D01*
X126143838Y-108339665D01*
X126127261Y-108308652D01*
X126117051Y-108274997D01*
X126113000Y-108233862D01*
X126113000Y-106904138D01*
X126117051Y-106863003D01*
X126127261Y-106829348D01*
X126143838Y-106798335D01*
X126166149Y-106771149D01*
X126193335Y-106748838D01*
X126224348Y-106732261D01*
X126258003Y-106722051D01*
X126299138Y-106718000D01*
X128628862Y-106718000D01*
X128669997Y-106722051D01*
X128669997Y-106722051D01*
G37*
G36*
X132269997Y-106722051D02*
G01*
X132303652Y-106732261D01*
X132334665Y-106748838D01*
X132361851Y-106771149D01*
X132384162Y-106798335D01*
X132400739Y-106829348D01*
X132410949Y-106863003D01*
X132415000Y-106904138D01*
X132415000Y-108233862D01*
X132410949Y-108274997D01*
X132400739Y-108308652D01*
X132384162Y-108339665D01*
X132361851Y-108366851D01*
X132334665Y-108389162D01*
X132303652Y-108405739D01*
X132269997Y-108415949D01*
X132228862Y-108420000D01*
X129899138Y-108420000D01*
X129858003Y-108415949D01*
X129824348Y-108405739D01*
X129793335Y-108389162D01*
X129766149Y-108366851D01*
X129743838Y-108339665D01*
X129727261Y-108308652D01*
X129717051Y-108274997D01*
X129713000Y-108233862D01*
X129713000Y-106904138D01*
X129717051Y-106863003D01*
X129727261Y-106829348D01*
X129743838Y-106798335D01*
X129766149Y-106771149D01*
X129793335Y-106748838D01*
X129824348Y-106732261D01*
X129858003Y-106722051D01*
X129899138Y-106718000D01*
X132228862Y-106718000D01*
X132269997Y-106722051D01*
X132269997Y-106722051D01*
G37*
G36*
X78342443Y-106547519D02*
G01*
X78408627Y-106554037D01*
X78578466Y-106605557D01*
X78734991Y-106689222D01*
X78757901Y-106708024D01*
X78872186Y-106801814D01*
X78938129Y-106882167D01*
X78984778Y-106939009D01*
X79068443Y-107095534D01*
X79119963Y-107265373D01*
X79137359Y-107442000D01*
X79119963Y-107618627D01*
X79068443Y-107788466D01*
X78984778Y-107944991D01*
X78980667Y-107950000D01*
X78872186Y-108082186D01*
X78784602Y-108154063D01*
X78734991Y-108194778D01*
X78578466Y-108278443D01*
X78408627Y-108329963D01*
X78342442Y-108336482D01*
X78276260Y-108343000D01*
X78187740Y-108343000D01*
X78121558Y-108336482D01*
X78055373Y-108329963D01*
X77885534Y-108278443D01*
X77729009Y-108194778D01*
X77679398Y-108154063D01*
X77591814Y-108082186D01*
X77483333Y-107950000D01*
X77479222Y-107944991D01*
X77395557Y-107788466D01*
X77344037Y-107618627D01*
X77326641Y-107442000D01*
X77344037Y-107265373D01*
X77395557Y-107095534D01*
X77479222Y-106939009D01*
X77525871Y-106882167D01*
X77591814Y-106801814D01*
X77706099Y-106708024D01*
X77729009Y-106689222D01*
X77885534Y-106605557D01*
X78055373Y-106554037D01*
X78121557Y-106547519D01*
X78187740Y-106541000D01*
X78276260Y-106541000D01*
X78342443Y-106547519D01*
X78342443Y-106547519D01*
G37*
G36*
X75802443Y-106547519D02*
G01*
X75868627Y-106554037D01*
X76038466Y-106605557D01*
X76194991Y-106689222D01*
X76217901Y-106708024D01*
X76332186Y-106801814D01*
X76398129Y-106882167D01*
X76444778Y-106939009D01*
X76528443Y-107095534D01*
X76579963Y-107265373D01*
X76597359Y-107442000D01*
X76579963Y-107618627D01*
X76528443Y-107788466D01*
X76444778Y-107944991D01*
X76440667Y-107950000D01*
X76332186Y-108082186D01*
X76244602Y-108154063D01*
X76194991Y-108194778D01*
X76038466Y-108278443D01*
X75868627Y-108329963D01*
X75802442Y-108336482D01*
X75736260Y-108343000D01*
X75647740Y-108343000D01*
X75581558Y-108336482D01*
X75515373Y-108329963D01*
X75345534Y-108278443D01*
X75189009Y-108194778D01*
X75139398Y-108154063D01*
X75051814Y-108082186D01*
X74943333Y-107950000D01*
X74939222Y-107944991D01*
X74855557Y-107788466D01*
X74804037Y-107618627D01*
X74786641Y-107442000D01*
X74804037Y-107265373D01*
X74855557Y-107095534D01*
X74939222Y-106939009D01*
X74985871Y-106882167D01*
X75051814Y-106801814D01*
X75166099Y-106708024D01*
X75189009Y-106689222D01*
X75345534Y-106605557D01*
X75515373Y-106554037D01*
X75581557Y-106547519D01*
X75647740Y-106541000D01*
X75736260Y-106541000D01*
X75802443Y-106547519D01*
X75802443Y-106547519D01*
G37*
G36*
X74053000Y-108343000D02*
G01*
X72251000Y-108343000D01*
X72251000Y-106541000D01*
X74053000Y-106541000D01*
X74053000Y-108343000D01*
X74053000Y-108343000D01*
G37*
G36*
X64372443Y-106547519D02*
G01*
X64438627Y-106554037D01*
X64608466Y-106605557D01*
X64764991Y-106689222D01*
X64787901Y-106708024D01*
X64902186Y-106801814D01*
X64968129Y-106882167D01*
X65014778Y-106939009D01*
X65098443Y-107095534D01*
X65149963Y-107265373D01*
X65167359Y-107442000D01*
X65149963Y-107618627D01*
X65098443Y-107788466D01*
X65014778Y-107944991D01*
X65010667Y-107950000D01*
X64902186Y-108082186D01*
X64814602Y-108154063D01*
X64764991Y-108194778D01*
X64608466Y-108278443D01*
X64438627Y-108329963D01*
X64372442Y-108336482D01*
X64306260Y-108343000D01*
X64217740Y-108343000D01*
X64151558Y-108336482D01*
X64085373Y-108329963D01*
X63915534Y-108278443D01*
X63759009Y-108194778D01*
X63709398Y-108154063D01*
X63621814Y-108082186D01*
X63513333Y-107950000D01*
X63509222Y-107944991D01*
X63425557Y-107788466D01*
X63374037Y-107618627D01*
X63356641Y-107442000D01*
X63374037Y-107265373D01*
X63425557Y-107095534D01*
X63509222Y-106939009D01*
X63555871Y-106882167D01*
X63621814Y-106801814D01*
X63736099Y-106708024D01*
X63759009Y-106689222D01*
X63915534Y-106605557D01*
X64085373Y-106554037D01*
X64151557Y-106547519D01*
X64217740Y-106541000D01*
X64306260Y-106541000D01*
X64372443Y-106547519D01*
X64372443Y-106547519D01*
G37*
G36*
X61832443Y-106547519D02*
G01*
X61898627Y-106554037D01*
X62068466Y-106605557D01*
X62224991Y-106689222D01*
X62247901Y-106708024D01*
X62362186Y-106801814D01*
X62428129Y-106882167D01*
X62474778Y-106939009D01*
X62558443Y-107095534D01*
X62609963Y-107265373D01*
X62627359Y-107442000D01*
X62609963Y-107618627D01*
X62558443Y-107788466D01*
X62474778Y-107944991D01*
X62470667Y-107950000D01*
X62362186Y-108082186D01*
X62274602Y-108154063D01*
X62224991Y-108194778D01*
X62068466Y-108278443D01*
X61898627Y-108329963D01*
X61832442Y-108336482D01*
X61766260Y-108343000D01*
X61677740Y-108343000D01*
X61611558Y-108336482D01*
X61545373Y-108329963D01*
X61375534Y-108278443D01*
X61219009Y-108194778D01*
X61169398Y-108154063D01*
X61081814Y-108082186D01*
X60973333Y-107950000D01*
X60969222Y-107944991D01*
X60885557Y-107788466D01*
X60834037Y-107618627D01*
X60816641Y-107442000D01*
X60834037Y-107265373D01*
X60885557Y-107095534D01*
X60969222Y-106939009D01*
X61015871Y-106882167D01*
X61081814Y-106801814D01*
X61196099Y-106708024D01*
X61219009Y-106689222D01*
X61375534Y-106605557D01*
X61545373Y-106554037D01*
X61611557Y-106547519D01*
X61677740Y-106541000D01*
X61766260Y-106541000D01*
X61832443Y-106547519D01*
X61832443Y-106547519D01*
G37*
G36*
X60083000Y-108343000D02*
G01*
X58281000Y-108343000D01*
X58281000Y-106541000D01*
X60083000Y-106541000D01*
X60083000Y-108343000D01*
X60083000Y-108343000D01*
G37*
G36*
X89193823Y-105079313D02*
G01*
X89354242Y-105127976D01*
X89486906Y-105198886D01*
X89502078Y-105206996D01*
X89631659Y-105313341D01*
X89738004Y-105442922D01*
X89738005Y-105442924D01*
X89817024Y-105590758D01*
X89865687Y-105751177D01*
X89882117Y-105918000D01*
X89865687Y-106084823D01*
X89817024Y-106245242D01*
X89746114Y-106377906D01*
X89738004Y-106393078D01*
X89631659Y-106522659D01*
X89502078Y-106629004D01*
X89502076Y-106629005D01*
X89354242Y-106708024D01*
X89193823Y-106756687D01*
X89068804Y-106769000D01*
X88985196Y-106769000D01*
X88860177Y-106756687D01*
X88699758Y-106708024D01*
X88551924Y-106629005D01*
X88551922Y-106629004D01*
X88422341Y-106522659D01*
X88315996Y-106393078D01*
X88307886Y-106377906D01*
X88236976Y-106245242D01*
X88188313Y-106084823D01*
X88171883Y-105918000D01*
X88188313Y-105751177D01*
X88236976Y-105590758D01*
X88315995Y-105442924D01*
X88315996Y-105442922D01*
X88422341Y-105313341D01*
X88551922Y-105206996D01*
X88567094Y-105198886D01*
X88699758Y-105127976D01*
X88860177Y-105079313D01*
X88985196Y-105067000D01*
X89068804Y-105067000D01*
X89193823Y-105079313D01*
X89193823Y-105079313D01*
G37*
G36*
X81573823Y-105079313D02*
G01*
X81734242Y-105127976D01*
X81866906Y-105198886D01*
X81882078Y-105206996D01*
X82011659Y-105313341D01*
X82118004Y-105442922D01*
X82118005Y-105442924D01*
X82197024Y-105590758D01*
X82245687Y-105751177D01*
X82262117Y-105918000D01*
X82245687Y-106084823D01*
X82197024Y-106245242D01*
X82126114Y-106377906D01*
X82118004Y-106393078D01*
X82011659Y-106522659D01*
X81882078Y-106629004D01*
X81882076Y-106629005D01*
X81734242Y-106708024D01*
X81573823Y-106756687D01*
X81448804Y-106769000D01*
X81365196Y-106769000D01*
X81240177Y-106756687D01*
X81079758Y-106708024D01*
X80931924Y-106629005D01*
X80931922Y-106629004D01*
X80802341Y-106522659D01*
X80695996Y-106393078D01*
X80687886Y-106377906D01*
X80616976Y-106245242D01*
X80568313Y-106084823D01*
X80551883Y-105918000D01*
X80568313Y-105751177D01*
X80616976Y-105590758D01*
X80695995Y-105442924D01*
X80695996Y-105442922D01*
X80802341Y-105313341D01*
X80931922Y-105206996D01*
X80947094Y-105198886D01*
X81079758Y-105127976D01*
X81240177Y-105079313D01*
X81365196Y-105067000D01*
X81448804Y-105067000D01*
X81573823Y-105079313D01*
X81573823Y-105079313D01*
G37*
G36*
X95162823Y-102920313D02*
G01*
X95323242Y-102968976D01*
X95432435Y-103027341D01*
X95471078Y-103047996D01*
X95600659Y-103154341D01*
X95707004Y-103283922D01*
X95707005Y-103283924D01*
X95786024Y-103431758D01*
X95834687Y-103592177D01*
X95851117Y-103759000D01*
X95834687Y-103925823D01*
X95786024Y-104086242D01*
X95742310Y-104168025D01*
X95707004Y-104234078D01*
X95600659Y-104363659D01*
X95471078Y-104470004D01*
X95471076Y-104470005D01*
X95323242Y-104549024D01*
X95162823Y-104597687D01*
X95037804Y-104610000D01*
X94954196Y-104610000D01*
X94829177Y-104597687D01*
X94668758Y-104549024D01*
X94520924Y-104470005D01*
X94520922Y-104470004D01*
X94391341Y-104363659D01*
X94284996Y-104234078D01*
X94249690Y-104168025D01*
X94205976Y-104086242D01*
X94157313Y-103925823D01*
X94140883Y-103759000D01*
X94157313Y-103592177D01*
X94205976Y-103431758D01*
X94284995Y-103283924D01*
X94284996Y-103283922D01*
X94391341Y-103154341D01*
X94520922Y-103047996D01*
X94559565Y-103027341D01*
X94668758Y-102968976D01*
X94829177Y-102920313D01*
X94954196Y-102908000D01*
X95037804Y-102908000D01*
X95162823Y-102920313D01*
X95162823Y-102920313D01*
G37*
G36*
X102782823Y-102920313D02*
G01*
X102943242Y-102968976D01*
X103052435Y-103027341D01*
X103091078Y-103047996D01*
X103220659Y-103154341D01*
X103327004Y-103283922D01*
X103327005Y-103283924D01*
X103406024Y-103431758D01*
X103454687Y-103592177D01*
X103471117Y-103759000D01*
X103454687Y-103925823D01*
X103406024Y-104086242D01*
X103362310Y-104168025D01*
X103327004Y-104234078D01*
X103220659Y-104363659D01*
X103091078Y-104470004D01*
X103091076Y-104470005D01*
X102943242Y-104549024D01*
X102782823Y-104597687D01*
X102657804Y-104610000D01*
X102574196Y-104610000D01*
X102449177Y-104597687D01*
X102288758Y-104549024D01*
X102140924Y-104470005D01*
X102140922Y-104470004D01*
X102011341Y-104363659D01*
X101904996Y-104234078D01*
X101869690Y-104168025D01*
X101825976Y-104086242D01*
X101777313Y-103925823D01*
X101760883Y-103759000D01*
X101777313Y-103592177D01*
X101825976Y-103431758D01*
X101904995Y-103283924D01*
X101904996Y-103283922D01*
X102011341Y-103154341D01*
X102140922Y-103047996D01*
X102179565Y-103027341D01*
X102288758Y-102968976D01*
X102449177Y-102920313D01*
X102574196Y-102908000D01*
X102657804Y-102908000D01*
X102782823Y-102920313D01*
X102782823Y-102920313D01*
G37*
G36*
X66079823Y-102793313D02*
G01*
X66240242Y-102841976D01*
X66357276Y-102904532D01*
X66388078Y-102920996D01*
X66517659Y-103027341D01*
X66624004Y-103156922D01*
X66624005Y-103156924D01*
X66703024Y-103304758D01*
X66703025Y-103304761D01*
X66709299Y-103325443D01*
X66751687Y-103465177D01*
X66768117Y-103632000D01*
X66751687Y-103798823D01*
X66703024Y-103959242D01*
X66690507Y-103982659D01*
X66624004Y-104107078D01*
X66517659Y-104236659D01*
X66388078Y-104343004D01*
X66388076Y-104343005D01*
X66240242Y-104422024D01*
X66079823Y-104470687D01*
X65954804Y-104483000D01*
X65871196Y-104483000D01*
X65746177Y-104470687D01*
X65585758Y-104422024D01*
X65437924Y-104343005D01*
X65437922Y-104343004D01*
X65308341Y-104236659D01*
X65201996Y-104107078D01*
X65135493Y-103982659D01*
X65122976Y-103959242D01*
X65074313Y-103798823D01*
X65057883Y-103632000D01*
X65074313Y-103465177D01*
X65116701Y-103325443D01*
X65122975Y-103304761D01*
X65122976Y-103304758D01*
X65201995Y-103156924D01*
X65201996Y-103156922D01*
X65308341Y-103027341D01*
X65437922Y-102920996D01*
X65468724Y-102904532D01*
X65585758Y-102841976D01*
X65746177Y-102793313D01*
X65871196Y-102781000D01*
X65954804Y-102781000D01*
X66079823Y-102793313D01*
X66079823Y-102793313D01*
G37*
G36*
X73699823Y-102793313D02*
G01*
X73860242Y-102841976D01*
X73977276Y-102904532D01*
X74008078Y-102920996D01*
X74137659Y-103027341D01*
X74244004Y-103156922D01*
X74244005Y-103156924D01*
X74323024Y-103304758D01*
X74323025Y-103304761D01*
X74329299Y-103325443D01*
X74371687Y-103465177D01*
X74388117Y-103632000D01*
X74371687Y-103798823D01*
X74323024Y-103959242D01*
X74310507Y-103982659D01*
X74244004Y-104107078D01*
X74137659Y-104236659D01*
X74008078Y-104343004D01*
X74008076Y-104343005D01*
X73860242Y-104422024D01*
X73699823Y-104470687D01*
X73574804Y-104483000D01*
X73491196Y-104483000D01*
X73366177Y-104470687D01*
X73205758Y-104422024D01*
X73057924Y-104343005D01*
X73057922Y-104343004D01*
X72928341Y-104236659D01*
X72821996Y-104107078D01*
X72755493Y-103982659D01*
X72742976Y-103959242D01*
X72694313Y-103798823D01*
X72677883Y-103632000D01*
X72694313Y-103465177D01*
X72736701Y-103325443D01*
X72742975Y-103304761D01*
X72742976Y-103304758D01*
X72821995Y-103156924D01*
X72821996Y-103156922D01*
X72928341Y-103027341D01*
X73057922Y-102920996D01*
X73088724Y-102904532D01*
X73205758Y-102841976D01*
X73366177Y-102793313D01*
X73491196Y-102781000D01*
X73574804Y-102781000D01*
X73699823Y-102793313D01*
X73699823Y-102793313D01*
G37*
G36*
X89193823Y-102539313D02*
G01*
X89354242Y-102587976D01*
X89486906Y-102658886D01*
X89502078Y-102666996D01*
X89631659Y-102773341D01*
X89738004Y-102902922D01*
X89738866Y-102904534D01*
X89817024Y-103050758D01*
X89865687Y-103211177D01*
X89882117Y-103378000D01*
X89865687Y-103544823D01*
X89817024Y-103705242D01*
X89767004Y-103798823D01*
X89738004Y-103853078D01*
X89631659Y-103982659D01*
X89502078Y-104089004D01*
X89502076Y-104089005D01*
X89354242Y-104168024D01*
X89193823Y-104216687D01*
X89068804Y-104229000D01*
X88985196Y-104229000D01*
X88860177Y-104216687D01*
X88699758Y-104168024D01*
X88551924Y-104089005D01*
X88551922Y-104089004D01*
X88422341Y-103982659D01*
X88315996Y-103853078D01*
X88286996Y-103798823D01*
X88236976Y-103705242D01*
X88188313Y-103544823D01*
X88171883Y-103378000D01*
X88188313Y-103211177D01*
X88236976Y-103050758D01*
X88315134Y-102904534D01*
X88315996Y-102902922D01*
X88422341Y-102773341D01*
X88551922Y-102666996D01*
X88567094Y-102658886D01*
X88699758Y-102587976D01*
X88860177Y-102539313D01*
X88985196Y-102527000D01*
X89068804Y-102527000D01*
X89193823Y-102539313D01*
X89193823Y-102539313D01*
G37*
G36*
X81573823Y-102539313D02*
G01*
X81734242Y-102587976D01*
X81866906Y-102658886D01*
X81882078Y-102666996D01*
X82011659Y-102773341D01*
X82118004Y-102902922D01*
X82118866Y-102904534D01*
X82197024Y-103050758D01*
X82245687Y-103211177D01*
X82262117Y-103378000D01*
X82245687Y-103544823D01*
X82197024Y-103705242D01*
X82147004Y-103798823D01*
X82118004Y-103853078D01*
X82011659Y-103982659D01*
X81882078Y-104089004D01*
X81882076Y-104089005D01*
X81734242Y-104168024D01*
X81573823Y-104216687D01*
X81448804Y-104229000D01*
X81365196Y-104229000D01*
X81240177Y-104216687D01*
X81079758Y-104168024D01*
X80931924Y-104089005D01*
X80931922Y-104089004D01*
X80802341Y-103982659D01*
X80695996Y-103853078D01*
X80666996Y-103798823D01*
X80616976Y-103705242D01*
X80568313Y-103544823D01*
X80551883Y-103378000D01*
X80568313Y-103211177D01*
X80616976Y-103050758D01*
X80695134Y-102904534D01*
X80695996Y-102902922D01*
X80802341Y-102773341D01*
X80931922Y-102666996D01*
X80947094Y-102658886D01*
X81079758Y-102587976D01*
X81240177Y-102539313D01*
X81365196Y-102527000D01*
X81448804Y-102527000D01*
X81573823Y-102539313D01*
X81573823Y-102539313D01*
G37*
G36*
X113140442Y-102356518D02*
G01*
X113206627Y-102363037D01*
X113376466Y-102414557D01*
X113532991Y-102498222D01*
X113568057Y-102527000D01*
X113670186Y-102610814D01*
X113753448Y-102712271D01*
X113782778Y-102748009D01*
X113866443Y-102904534D01*
X113917963Y-103074373D01*
X113935359Y-103251000D01*
X113917963Y-103427627D01*
X113866443Y-103597466D01*
X113782778Y-103753991D01*
X113778667Y-103759000D01*
X113670186Y-103891186D01*
X113587262Y-103959239D01*
X113532991Y-104003778D01*
X113376466Y-104087443D01*
X113206627Y-104138963D01*
X113140443Y-104145481D01*
X113074260Y-104152000D01*
X112985740Y-104152000D01*
X112919558Y-104145482D01*
X112853373Y-104138963D01*
X112683534Y-104087443D01*
X112527009Y-104003778D01*
X112472738Y-103959239D01*
X112389814Y-103891186D01*
X112281333Y-103759000D01*
X112277222Y-103753991D01*
X112193557Y-103597466D01*
X112142037Y-103427627D01*
X112124641Y-103251000D01*
X112142037Y-103074373D01*
X112193557Y-102904534D01*
X112277222Y-102748009D01*
X112306552Y-102712271D01*
X112389814Y-102610814D01*
X112491943Y-102527000D01*
X112527009Y-102498222D01*
X112683534Y-102414557D01*
X112853373Y-102363037D01*
X112919557Y-102356519D01*
X112985740Y-102350000D01*
X113074260Y-102350000D01*
X113140442Y-102356518D01*
X113140442Y-102356518D01*
G37*
G36*
X57260443Y-101594519D02*
G01*
X57326627Y-101601037D01*
X57496466Y-101652557D01*
X57652991Y-101736222D01*
X57688729Y-101765552D01*
X57790186Y-101848814D01*
X57857376Y-101930687D01*
X57902778Y-101986009D01*
X57986443Y-102142534D01*
X58037963Y-102312373D01*
X58055359Y-102489000D01*
X58037963Y-102665627D01*
X57986443Y-102835466D01*
X57902778Y-102991991D01*
X57873767Y-103027341D01*
X57790186Y-103129186D01*
X57690281Y-103211175D01*
X57652991Y-103241778D01*
X57496466Y-103325443D01*
X57326627Y-103376963D01*
X57260443Y-103383481D01*
X57194260Y-103390000D01*
X57105740Y-103390000D01*
X57039557Y-103383481D01*
X56973373Y-103376963D01*
X56803534Y-103325443D01*
X56647009Y-103241778D01*
X56609719Y-103211175D01*
X56509814Y-103129186D01*
X56426233Y-103027341D01*
X56397222Y-102991991D01*
X56313557Y-102835466D01*
X56262037Y-102665627D01*
X56244641Y-102489000D01*
X56262037Y-102312373D01*
X56313557Y-102142534D01*
X56397222Y-101986009D01*
X56442624Y-101930687D01*
X56509814Y-101848814D01*
X56611271Y-101765552D01*
X56647009Y-101736222D01*
X56803534Y-101652557D01*
X56973373Y-101601037D01*
X57039557Y-101594519D01*
X57105740Y-101588000D01*
X57194260Y-101588000D01*
X57260443Y-101594519D01*
X57260443Y-101594519D01*
G37*
G36*
X95162823Y-100380313D02*
G01*
X95323242Y-100428976D01*
X95432435Y-100487341D01*
X95471078Y-100507996D01*
X95600659Y-100614341D01*
X95707004Y-100743922D01*
X95707005Y-100743924D01*
X95786024Y-100891758D01*
X95834687Y-101052177D01*
X95851117Y-101219000D01*
X95834687Y-101385823D01*
X95786024Y-101546242D01*
X95742310Y-101628025D01*
X95707004Y-101694078D01*
X95600659Y-101823659D01*
X95471078Y-101930004D01*
X95471076Y-101930005D01*
X95323242Y-102009024D01*
X95162823Y-102057687D01*
X95037804Y-102070000D01*
X94954196Y-102070000D01*
X94829177Y-102057687D01*
X94668758Y-102009024D01*
X94520924Y-101930005D01*
X94520922Y-101930004D01*
X94391341Y-101823659D01*
X94284996Y-101694078D01*
X94249690Y-101628025D01*
X94205976Y-101546242D01*
X94157313Y-101385823D01*
X94140883Y-101219000D01*
X94157313Y-101052177D01*
X94205976Y-100891758D01*
X94284995Y-100743924D01*
X94284996Y-100743922D01*
X94391341Y-100614341D01*
X94520922Y-100507996D01*
X94559565Y-100487341D01*
X94668758Y-100428976D01*
X94829177Y-100380313D01*
X94954196Y-100368000D01*
X95037804Y-100368000D01*
X95162823Y-100380313D01*
X95162823Y-100380313D01*
G37*
G36*
X102782823Y-100380313D02*
G01*
X102943242Y-100428976D01*
X103052435Y-100487341D01*
X103091078Y-100507996D01*
X103220659Y-100614341D01*
X103327004Y-100743922D01*
X103327005Y-100743924D01*
X103406024Y-100891758D01*
X103454687Y-101052177D01*
X103471117Y-101219000D01*
X103454687Y-101385823D01*
X103406024Y-101546242D01*
X103362310Y-101628025D01*
X103327004Y-101694078D01*
X103220659Y-101823659D01*
X103091078Y-101930004D01*
X103091076Y-101930005D01*
X102943242Y-102009024D01*
X102782823Y-102057687D01*
X102657804Y-102070000D01*
X102574196Y-102070000D01*
X102449177Y-102057687D01*
X102288758Y-102009024D01*
X102140924Y-101930005D01*
X102140922Y-101930004D01*
X102011341Y-101823659D01*
X101904996Y-101694078D01*
X101869690Y-101628025D01*
X101825976Y-101546242D01*
X101777313Y-101385823D01*
X101760883Y-101219000D01*
X101777313Y-101052177D01*
X101825976Y-100891758D01*
X101904995Y-100743924D01*
X101904996Y-100743922D01*
X102011341Y-100614341D01*
X102140922Y-100507996D01*
X102179565Y-100487341D01*
X102288758Y-100428976D01*
X102449177Y-100380313D01*
X102574196Y-100368000D01*
X102657804Y-100368000D01*
X102782823Y-100380313D01*
X102782823Y-100380313D01*
G37*
G36*
X73699823Y-100253313D02*
G01*
X73860242Y-100301976D01*
X73977276Y-100364532D01*
X74008078Y-100380996D01*
X74137659Y-100487341D01*
X74244004Y-100616922D01*
X74244005Y-100616924D01*
X74323024Y-100764758D01*
X74323025Y-100764761D01*
X74329299Y-100785443D01*
X74371687Y-100925177D01*
X74388117Y-101092000D01*
X74371687Y-101258823D01*
X74323024Y-101419242D01*
X74310507Y-101442659D01*
X74244004Y-101567078D01*
X74137659Y-101696659D01*
X74008078Y-101803004D01*
X74008076Y-101803005D01*
X73860242Y-101882024D01*
X73699823Y-101930687D01*
X73574804Y-101943000D01*
X73491196Y-101943000D01*
X73366177Y-101930687D01*
X73205758Y-101882024D01*
X73057924Y-101803005D01*
X73057922Y-101803004D01*
X72928341Y-101696659D01*
X72821996Y-101567078D01*
X72755493Y-101442659D01*
X72742976Y-101419242D01*
X72694313Y-101258823D01*
X72677883Y-101092000D01*
X72694313Y-100925177D01*
X72736701Y-100785443D01*
X72742975Y-100764761D01*
X72742976Y-100764758D01*
X72821995Y-100616924D01*
X72821996Y-100616922D01*
X72928341Y-100487341D01*
X73057922Y-100380996D01*
X73088724Y-100364532D01*
X73205758Y-100301976D01*
X73366177Y-100253313D01*
X73491196Y-100241000D01*
X73574804Y-100241000D01*
X73699823Y-100253313D01*
X73699823Y-100253313D01*
G37*
G36*
X66079823Y-100253313D02*
G01*
X66240242Y-100301976D01*
X66357276Y-100364532D01*
X66388078Y-100380996D01*
X66517659Y-100487341D01*
X66624004Y-100616922D01*
X66624005Y-100616924D01*
X66703024Y-100764758D01*
X66703025Y-100764761D01*
X66709299Y-100785443D01*
X66751687Y-100925177D01*
X66768117Y-101092000D01*
X66751687Y-101258823D01*
X66703024Y-101419242D01*
X66690507Y-101442659D01*
X66624004Y-101567078D01*
X66517659Y-101696659D01*
X66388078Y-101803004D01*
X66388076Y-101803005D01*
X66240242Y-101882024D01*
X66079823Y-101930687D01*
X65954804Y-101943000D01*
X65871196Y-101943000D01*
X65746177Y-101930687D01*
X65585758Y-101882024D01*
X65437924Y-101803005D01*
X65437922Y-101803004D01*
X65308341Y-101696659D01*
X65201996Y-101567078D01*
X65135493Y-101442659D01*
X65122976Y-101419242D01*
X65074313Y-101258823D01*
X65057883Y-101092000D01*
X65074313Y-100925177D01*
X65116701Y-100785443D01*
X65122975Y-100764761D01*
X65122976Y-100764758D01*
X65201995Y-100616924D01*
X65201996Y-100616922D01*
X65308341Y-100487341D01*
X65437922Y-100380996D01*
X65468724Y-100364532D01*
X65585758Y-100301976D01*
X65746177Y-100253313D01*
X65871196Y-100241000D01*
X65954804Y-100241000D01*
X66079823Y-100253313D01*
X66079823Y-100253313D01*
G37*
G36*
X89193823Y-99999313D02*
G01*
X89354242Y-100047976D01*
X89461495Y-100105304D01*
X89502078Y-100126996D01*
X89631659Y-100233341D01*
X89738004Y-100362922D01*
X89738866Y-100364534D01*
X89817024Y-100510758D01*
X89865687Y-100671177D01*
X89882117Y-100838000D01*
X89865687Y-101004823D01*
X89817024Y-101165242D01*
X89767004Y-101258823D01*
X89738004Y-101313078D01*
X89631659Y-101442659D01*
X89502078Y-101549004D01*
X89502076Y-101549005D01*
X89354242Y-101628024D01*
X89193823Y-101676687D01*
X89068804Y-101689000D01*
X88985196Y-101689000D01*
X88860177Y-101676687D01*
X88699758Y-101628024D01*
X88551924Y-101549005D01*
X88551922Y-101549004D01*
X88422341Y-101442659D01*
X88315996Y-101313078D01*
X88286996Y-101258823D01*
X88236976Y-101165242D01*
X88188313Y-101004823D01*
X88171883Y-100838000D01*
X88188313Y-100671177D01*
X88236976Y-100510758D01*
X88315134Y-100364534D01*
X88315996Y-100362922D01*
X88422341Y-100233341D01*
X88551922Y-100126996D01*
X88592505Y-100105304D01*
X88699758Y-100047976D01*
X88860177Y-99999313D01*
X88985196Y-99987000D01*
X89068804Y-99987000D01*
X89193823Y-99999313D01*
X89193823Y-99999313D01*
G37*
G36*
X81573823Y-99999313D02*
G01*
X81734242Y-100047976D01*
X81841495Y-100105304D01*
X81882078Y-100126996D01*
X82011659Y-100233341D01*
X82118004Y-100362922D01*
X82118866Y-100364534D01*
X82197024Y-100510758D01*
X82245687Y-100671177D01*
X82262117Y-100838000D01*
X82245687Y-101004823D01*
X82197024Y-101165242D01*
X82147004Y-101258823D01*
X82118004Y-101313078D01*
X82011659Y-101442659D01*
X81882078Y-101549004D01*
X81882076Y-101549005D01*
X81734242Y-101628024D01*
X81573823Y-101676687D01*
X81448804Y-101689000D01*
X81365196Y-101689000D01*
X81240177Y-101676687D01*
X81079758Y-101628024D01*
X80931924Y-101549005D01*
X80931922Y-101549004D01*
X80802341Y-101442659D01*
X80695996Y-101313078D01*
X80666996Y-101258823D01*
X80616976Y-101165242D01*
X80568313Y-101004823D01*
X80551883Y-100838000D01*
X80568313Y-100671177D01*
X80616976Y-100510758D01*
X80695134Y-100364534D01*
X80695996Y-100362922D01*
X80802341Y-100233341D01*
X80931922Y-100126996D01*
X80972505Y-100105304D01*
X81079758Y-100047976D01*
X81240177Y-99999313D01*
X81365196Y-99987000D01*
X81448804Y-99987000D01*
X81573823Y-99999313D01*
X81573823Y-99999313D01*
G37*
G36*
X113140442Y-99816518D02*
G01*
X113206627Y-99823037D01*
X113376466Y-99874557D01*
X113532991Y-99958222D01*
X113568057Y-99987000D01*
X113670186Y-100070814D01*
X113753448Y-100172271D01*
X113782778Y-100208009D01*
X113866443Y-100364534D01*
X113917963Y-100534373D01*
X113935359Y-100711000D01*
X113917963Y-100887627D01*
X113866443Y-101057466D01*
X113782778Y-101213991D01*
X113778667Y-101219000D01*
X113670186Y-101351186D01*
X113587262Y-101419239D01*
X113532991Y-101463778D01*
X113376466Y-101547443D01*
X113206627Y-101598963D01*
X113140442Y-101605482D01*
X113074260Y-101612000D01*
X112985740Y-101612000D01*
X112919557Y-101605481D01*
X112853373Y-101598963D01*
X112683534Y-101547443D01*
X112527009Y-101463778D01*
X112472738Y-101419239D01*
X112389814Y-101351186D01*
X112281333Y-101219000D01*
X112277222Y-101213991D01*
X112193557Y-101057466D01*
X112142037Y-100887627D01*
X112124641Y-100711000D01*
X112142037Y-100534373D01*
X112193557Y-100364534D01*
X112277222Y-100208009D01*
X112306552Y-100172271D01*
X112389814Y-100070814D01*
X112491943Y-99987000D01*
X112527009Y-99958222D01*
X112683534Y-99874557D01*
X112853373Y-99823037D01*
X112919558Y-99816518D01*
X112985740Y-99810000D01*
X113074260Y-99810000D01*
X113140442Y-99816518D01*
X113140442Y-99816518D01*
G37*
G36*
X130835600Y-101371600D02*
G01*
X129006400Y-101371600D01*
X129006400Y-99542400D01*
X130835600Y-99542400D01*
X130835600Y-101371600D01*
X130835600Y-101371600D01*
G37*
G36*
X119940294Y-99555633D02*
G01*
X120112695Y-99607931D01*
X120271583Y-99692858D01*
X120410849Y-99807151D01*
X120525142Y-99946417D01*
X120610069Y-100105305D01*
X120662367Y-100277706D01*
X120680025Y-100457000D01*
X120662367Y-100636294D01*
X120610069Y-100808695D01*
X120525142Y-100967583D01*
X120410849Y-101106849D01*
X120271583Y-101221142D01*
X120112695Y-101306069D01*
X119940294Y-101358367D01*
X119805931Y-101371600D01*
X119716069Y-101371600D01*
X119581706Y-101358367D01*
X119409305Y-101306069D01*
X119250417Y-101221142D01*
X119111151Y-101106849D01*
X118996858Y-100967583D01*
X118911931Y-100808695D01*
X118859633Y-100636294D01*
X118841975Y-100457000D01*
X118859633Y-100277706D01*
X118911931Y-100105305D01*
X118996858Y-99946417D01*
X119111151Y-99807151D01*
X119250417Y-99692858D01*
X119409305Y-99607931D01*
X119581706Y-99555633D01*
X119716069Y-99542400D01*
X119805931Y-99542400D01*
X119940294Y-99555633D01*
X119940294Y-99555633D01*
G37*
G36*
X122480294Y-99555633D02*
G01*
X122652695Y-99607931D01*
X122811583Y-99692858D01*
X122950849Y-99807151D01*
X123065142Y-99946417D01*
X123150069Y-100105305D01*
X123202367Y-100277706D01*
X123220025Y-100457000D01*
X123202367Y-100636294D01*
X123150069Y-100808695D01*
X123065142Y-100967583D01*
X122950849Y-101106849D01*
X122811583Y-101221142D01*
X122652695Y-101306069D01*
X122480294Y-101358367D01*
X122345931Y-101371600D01*
X122256069Y-101371600D01*
X122121706Y-101358367D01*
X121949305Y-101306069D01*
X121790417Y-101221142D01*
X121651151Y-101106849D01*
X121536858Y-100967583D01*
X121451931Y-100808695D01*
X121399633Y-100636294D01*
X121381975Y-100457000D01*
X121399633Y-100277706D01*
X121451931Y-100105305D01*
X121536858Y-99946417D01*
X121651151Y-99807151D01*
X121790417Y-99692858D01*
X121949305Y-99607931D01*
X122121706Y-99555633D01*
X122256069Y-99542400D01*
X122345931Y-99542400D01*
X122480294Y-99555633D01*
X122480294Y-99555633D01*
G37*
G36*
X127560294Y-99555633D02*
G01*
X127732695Y-99607931D01*
X127891583Y-99692858D01*
X128030849Y-99807151D01*
X128145142Y-99946417D01*
X128230069Y-100105305D01*
X128282367Y-100277706D01*
X128300025Y-100457000D01*
X128282367Y-100636294D01*
X128230069Y-100808695D01*
X128145142Y-100967583D01*
X128030849Y-101106849D01*
X127891583Y-101221142D01*
X127732695Y-101306069D01*
X127560294Y-101358367D01*
X127425931Y-101371600D01*
X127336069Y-101371600D01*
X127201706Y-101358367D01*
X127029305Y-101306069D01*
X126870417Y-101221142D01*
X126731151Y-101106849D01*
X126616858Y-100967583D01*
X126531931Y-100808695D01*
X126479633Y-100636294D01*
X126461975Y-100457000D01*
X126479633Y-100277706D01*
X126531931Y-100105305D01*
X126616858Y-99946417D01*
X126731151Y-99807151D01*
X126870417Y-99692858D01*
X127029305Y-99607931D01*
X127201706Y-99555633D01*
X127336069Y-99542400D01*
X127425931Y-99542400D01*
X127560294Y-99555633D01*
X127560294Y-99555633D01*
G37*
G36*
X125020294Y-99555633D02*
G01*
X125192695Y-99607931D01*
X125351583Y-99692858D01*
X125490849Y-99807151D01*
X125605142Y-99946417D01*
X125690069Y-100105305D01*
X125742367Y-100277706D01*
X125760025Y-100457000D01*
X125742367Y-100636294D01*
X125690069Y-100808695D01*
X125605142Y-100967583D01*
X125490849Y-101106849D01*
X125351583Y-101221142D01*
X125192695Y-101306069D01*
X125020294Y-101358367D01*
X124885931Y-101371600D01*
X124796069Y-101371600D01*
X124661706Y-101358367D01*
X124489305Y-101306069D01*
X124330417Y-101221142D01*
X124191151Y-101106849D01*
X124076858Y-100967583D01*
X123991931Y-100808695D01*
X123939633Y-100636294D01*
X123921975Y-100457000D01*
X123939633Y-100277706D01*
X123991931Y-100105305D01*
X124076858Y-99946417D01*
X124191151Y-99807151D01*
X124330417Y-99692858D01*
X124489305Y-99607931D01*
X124661706Y-99555633D01*
X124796069Y-99542400D01*
X124885931Y-99542400D01*
X125020294Y-99555633D01*
X125020294Y-99555633D01*
G37*
G36*
X57260442Y-99054518D02*
G01*
X57326627Y-99061037D01*
X57496466Y-99112557D01*
X57652991Y-99196222D01*
X57688729Y-99225552D01*
X57790186Y-99308814D01*
X57857376Y-99390687D01*
X57902778Y-99446009D01*
X57986443Y-99602534D01*
X58037963Y-99772373D01*
X58055359Y-99949000D01*
X58037963Y-100125627D01*
X57986443Y-100295466D01*
X57902778Y-100451991D01*
X57898667Y-100457000D01*
X57790186Y-100589186D01*
X57690281Y-100671175D01*
X57652991Y-100701778D01*
X57496466Y-100785443D01*
X57326627Y-100836963D01*
X57260442Y-100843482D01*
X57194260Y-100850000D01*
X57105740Y-100850000D01*
X57039558Y-100843482D01*
X56973373Y-100836963D01*
X56803534Y-100785443D01*
X56647009Y-100701778D01*
X56609719Y-100671175D01*
X56509814Y-100589186D01*
X56401333Y-100457000D01*
X56397222Y-100451991D01*
X56313557Y-100295466D01*
X56262037Y-100125627D01*
X56244641Y-99949000D01*
X56262037Y-99772373D01*
X56313557Y-99602534D01*
X56397222Y-99446009D01*
X56442624Y-99390687D01*
X56509814Y-99308814D01*
X56611271Y-99225552D01*
X56647009Y-99196222D01*
X56803534Y-99112557D01*
X56973373Y-99061037D01*
X57039558Y-99054518D01*
X57105740Y-99048000D01*
X57194260Y-99048000D01*
X57260442Y-99054518D01*
X57260442Y-99054518D01*
G37*
G36*
X95162823Y-97840313D02*
G01*
X95323242Y-97888976D01*
X95432435Y-97947341D01*
X95471078Y-97967996D01*
X95600659Y-98074341D01*
X95707004Y-98203922D01*
X95707005Y-98203924D01*
X95786024Y-98351758D01*
X95834687Y-98512177D01*
X95851117Y-98679000D01*
X95834687Y-98845823D01*
X95786024Y-99006242D01*
X95742310Y-99088025D01*
X95707004Y-99154078D01*
X95600659Y-99283659D01*
X95471078Y-99390004D01*
X95471076Y-99390005D01*
X95323242Y-99469024D01*
X95162823Y-99517687D01*
X95037804Y-99530000D01*
X94954196Y-99530000D01*
X94829177Y-99517687D01*
X94668758Y-99469024D01*
X94520924Y-99390005D01*
X94520922Y-99390004D01*
X94391341Y-99283659D01*
X94284996Y-99154078D01*
X94249690Y-99088025D01*
X94205976Y-99006242D01*
X94157313Y-98845823D01*
X94140883Y-98679000D01*
X94157313Y-98512177D01*
X94205976Y-98351758D01*
X94284995Y-98203924D01*
X94284996Y-98203922D01*
X94391341Y-98074341D01*
X94520922Y-97967996D01*
X94559565Y-97947341D01*
X94668758Y-97888976D01*
X94829177Y-97840313D01*
X94954196Y-97828000D01*
X95037804Y-97828000D01*
X95162823Y-97840313D01*
X95162823Y-97840313D01*
G37*
G36*
X102782823Y-97840313D02*
G01*
X102943242Y-97888976D01*
X103052435Y-97947341D01*
X103091078Y-97967996D01*
X103220659Y-98074341D01*
X103327004Y-98203922D01*
X103327005Y-98203924D01*
X103406024Y-98351758D01*
X103454687Y-98512177D01*
X103471117Y-98679000D01*
X103454687Y-98845823D01*
X103406024Y-99006242D01*
X103362310Y-99088025D01*
X103327004Y-99154078D01*
X103220659Y-99283659D01*
X103091078Y-99390004D01*
X103091076Y-99390005D01*
X102943242Y-99469024D01*
X102782823Y-99517687D01*
X102657804Y-99530000D01*
X102574196Y-99530000D01*
X102449177Y-99517687D01*
X102288758Y-99469024D01*
X102140924Y-99390005D01*
X102140922Y-99390004D01*
X102011341Y-99283659D01*
X101904996Y-99154078D01*
X101869690Y-99088025D01*
X101825976Y-99006242D01*
X101777313Y-98845823D01*
X101760883Y-98679000D01*
X101777313Y-98512177D01*
X101825976Y-98351758D01*
X101904995Y-98203924D01*
X101904996Y-98203922D01*
X102011341Y-98074341D01*
X102140922Y-97967996D01*
X102179565Y-97947341D01*
X102288758Y-97888976D01*
X102449177Y-97840313D01*
X102574196Y-97828000D01*
X102657804Y-97828000D01*
X102782823Y-97840313D01*
X102782823Y-97840313D01*
G37*
G36*
X73699823Y-97713313D02*
G01*
X73860242Y-97761976D01*
X73977276Y-97824532D01*
X74008078Y-97840996D01*
X74137659Y-97947341D01*
X74244004Y-98076922D01*
X74244005Y-98076924D01*
X74323024Y-98224758D01*
X74323025Y-98224761D01*
X74329299Y-98245443D01*
X74371687Y-98385177D01*
X74388117Y-98552000D01*
X74371687Y-98718823D01*
X74323024Y-98879242D01*
X74310507Y-98902659D01*
X74244004Y-99027078D01*
X74137659Y-99156659D01*
X74008078Y-99263004D01*
X74008076Y-99263005D01*
X73860242Y-99342024D01*
X73699823Y-99390687D01*
X73574804Y-99403000D01*
X73491196Y-99403000D01*
X73366177Y-99390687D01*
X73205758Y-99342024D01*
X73057924Y-99263005D01*
X73057922Y-99263004D01*
X72928341Y-99156659D01*
X72821996Y-99027078D01*
X72755493Y-98902659D01*
X72742976Y-98879242D01*
X72694313Y-98718823D01*
X72677883Y-98552000D01*
X72694313Y-98385177D01*
X72736701Y-98245443D01*
X72742975Y-98224761D01*
X72742976Y-98224758D01*
X72821995Y-98076924D01*
X72821996Y-98076922D01*
X72928341Y-97947341D01*
X73057922Y-97840996D01*
X73088724Y-97824532D01*
X73205758Y-97761976D01*
X73366177Y-97713313D01*
X73491196Y-97701000D01*
X73574804Y-97701000D01*
X73699823Y-97713313D01*
X73699823Y-97713313D01*
G37*
G36*
X66079823Y-97713313D02*
G01*
X66240242Y-97761976D01*
X66357276Y-97824532D01*
X66388078Y-97840996D01*
X66517659Y-97947341D01*
X66624004Y-98076922D01*
X66624005Y-98076924D01*
X66703024Y-98224758D01*
X66703025Y-98224761D01*
X66709299Y-98245443D01*
X66751687Y-98385177D01*
X66768117Y-98552000D01*
X66751687Y-98718823D01*
X66703024Y-98879242D01*
X66690507Y-98902659D01*
X66624004Y-99027078D01*
X66517659Y-99156659D01*
X66388078Y-99263004D01*
X66388076Y-99263005D01*
X66240242Y-99342024D01*
X66079823Y-99390687D01*
X65954804Y-99403000D01*
X65871196Y-99403000D01*
X65746177Y-99390687D01*
X65585758Y-99342024D01*
X65437924Y-99263005D01*
X65437922Y-99263004D01*
X65308341Y-99156659D01*
X65201996Y-99027078D01*
X65135493Y-98902659D01*
X65122976Y-98879242D01*
X65074313Y-98718823D01*
X65057883Y-98552000D01*
X65074313Y-98385177D01*
X65116701Y-98245443D01*
X65122975Y-98224761D01*
X65122976Y-98224758D01*
X65201995Y-98076924D01*
X65201996Y-98076922D01*
X65308341Y-97947341D01*
X65437922Y-97840996D01*
X65468724Y-97824532D01*
X65585758Y-97761976D01*
X65746177Y-97713313D01*
X65871196Y-97701000D01*
X65954804Y-97701000D01*
X66079823Y-97713313D01*
X66079823Y-97713313D01*
G37*
G36*
X89193823Y-97459313D02*
G01*
X89354242Y-97507976D01*
X89461495Y-97565304D01*
X89502078Y-97586996D01*
X89631659Y-97693341D01*
X89738004Y-97822922D01*
X89738866Y-97824534D01*
X89817024Y-97970758D01*
X89865687Y-98131177D01*
X89882117Y-98298000D01*
X89865687Y-98464823D01*
X89817024Y-98625242D01*
X89767004Y-98718823D01*
X89738004Y-98773078D01*
X89631659Y-98902659D01*
X89502078Y-99009004D01*
X89502076Y-99009005D01*
X89354242Y-99088024D01*
X89193823Y-99136687D01*
X89068804Y-99149000D01*
X88985196Y-99149000D01*
X88860177Y-99136687D01*
X88699758Y-99088024D01*
X88551924Y-99009005D01*
X88551922Y-99009004D01*
X88422341Y-98902659D01*
X88315996Y-98773078D01*
X88286996Y-98718823D01*
X88236976Y-98625242D01*
X88188313Y-98464823D01*
X88171883Y-98298000D01*
X88188313Y-98131177D01*
X88236976Y-97970758D01*
X88315134Y-97824534D01*
X88315996Y-97822922D01*
X88422341Y-97693341D01*
X88551922Y-97586996D01*
X88592505Y-97565304D01*
X88699758Y-97507976D01*
X88860177Y-97459313D01*
X88985196Y-97447000D01*
X89068804Y-97447000D01*
X89193823Y-97459313D01*
X89193823Y-97459313D01*
G37*
G36*
X81573823Y-97459313D02*
G01*
X81734242Y-97507976D01*
X81841495Y-97565304D01*
X81882078Y-97586996D01*
X82011659Y-97693341D01*
X82118004Y-97822922D01*
X82118866Y-97824534D01*
X82197024Y-97970758D01*
X82245687Y-98131177D01*
X82262117Y-98298000D01*
X82245687Y-98464823D01*
X82197024Y-98625242D01*
X82147004Y-98718823D01*
X82118004Y-98773078D01*
X82011659Y-98902659D01*
X81882078Y-99009004D01*
X81882076Y-99009005D01*
X81734242Y-99088024D01*
X81573823Y-99136687D01*
X81448804Y-99149000D01*
X81365196Y-99149000D01*
X81240177Y-99136687D01*
X81079758Y-99088024D01*
X80931924Y-99009005D01*
X80931922Y-99009004D01*
X80802341Y-98902659D01*
X80695996Y-98773078D01*
X80666996Y-98718823D01*
X80616976Y-98625242D01*
X80568313Y-98464823D01*
X80551883Y-98298000D01*
X80568313Y-98131177D01*
X80616976Y-97970758D01*
X80695134Y-97824534D01*
X80695996Y-97822922D01*
X80802341Y-97693341D01*
X80931922Y-97586996D01*
X80972505Y-97565304D01*
X81079758Y-97507976D01*
X81240177Y-97459313D01*
X81365196Y-97447000D01*
X81448804Y-97447000D01*
X81573823Y-97459313D01*
X81573823Y-97459313D01*
G37*
G36*
X113140443Y-97276519D02*
G01*
X113206627Y-97283037D01*
X113376466Y-97334557D01*
X113532991Y-97418222D01*
X113568057Y-97447000D01*
X113670186Y-97530814D01*
X113753448Y-97632271D01*
X113782778Y-97668009D01*
X113866443Y-97824534D01*
X113917963Y-97994373D01*
X113935359Y-98171000D01*
X113917963Y-98347627D01*
X113866443Y-98517466D01*
X113782778Y-98673991D01*
X113778667Y-98679000D01*
X113670186Y-98811186D01*
X113587262Y-98879239D01*
X113532991Y-98923778D01*
X113376466Y-99007443D01*
X113206627Y-99058963D01*
X113140442Y-99065482D01*
X113074260Y-99072000D01*
X112985740Y-99072000D01*
X112919558Y-99065482D01*
X112853373Y-99058963D01*
X112683534Y-99007443D01*
X112527009Y-98923778D01*
X112472738Y-98879239D01*
X112389814Y-98811186D01*
X112281333Y-98679000D01*
X112277222Y-98673991D01*
X112193557Y-98517466D01*
X112142037Y-98347627D01*
X112124641Y-98171000D01*
X112142037Y-97994373D01*
X112193557Y-97824534D01*
X112277222Y-97668009D01*
X112306552Y-97632271D01*
X112389814Y-97530814D01*
X112491943Y-97447000D01*
X112527009Y-97418222D01*
X112683534Y-97334557D01*
X112853373Y-97283037D01*
X112919557Y-97276519D01*
X112985740Y-97270000D01*
X113074260Y-97270000D01*
X113140443Y-97276519D01*
X113140443Y-97276519D01*
G37*
G36*
X130100294Y-97015633D02*
G01*
X130272695Y-97067931D01*
X130431583Y-97152858D01*
X130570849Y-97267151D01*
X130685142Y-97406417D01*
X130770069Y-97565305D01*
X130822367Y-97737706D01*
X130840025Y-97917000D01*
X130822367Y-98096294D01*
X130770069Y-98268695D01*
X130685142Y-98427583D01*
X130570849Y-98566849D01*
X130431583Y-98681142D01*
X130272695Y-98766069D01*
X130100294Y-98818367D01*
X129965931Y-98831600D01*
X129876069Y-98831600D01*
X129741706Y-98818367D01*
X129569305Y-98766069D01*
X129410417Y-98681142D01*
X129271151Y-98566849D01*
X129156858Y-98427583D01*
X129071931Y-98268695D01*
X129019633Y-98096294D01*
X129001975Y-97917000D01*
X129019633Y-97737706D01*
X129071931Y-97565305D01*
X129156858Y-97406417D01*
X129271151Y-97267151D01*
X129410417Y-97152858D01*
X129569305Y-97067931D01*
X129741706Y-97015633D01*
X129876069Y-97002400D01*
X129965931Y-97002400D01*
X130100294Y-97015633D01*
X130100294Y-97015633D01*
G37*
G36*
X127560294Y-97015633D02*
G01*
X127732695Y-97067931D01*
X127891583Y-97152858D01*
X128030849Y-97267151D01*
X128145142Y-97406417D01*
X128230069Y-97565305D01*
X128282367Y-97737706D01*
X128300025Y-97917000D01*
X128282367Y-98096294D01*
X128230069Y-98268695D01*
X128145142Y-98427583D01*
X128030849Y-98566849D01*
X127891583Y-98681142D01*
X127732695Y-98766069D01*
X127560294Y-98818367D01*
X127425931Y-98831600D01*
X127336069Y-98831600D01*
X127201706Y-98818367D01*
X127029305Y-98766069D01*
X126870417Y-98681142D01*
X126731151Y-98566849D01*
X126616858Y-98427583D01*
X126531931Y-98268695D01*
X126479633Y-98096294D01*
X126461975Y-97917000D01*
X126479633Y-97737706D01*
X126531931Y-97565305D01*
X126616858Y-97406417D01*
X126731151Y-97267151D01*
X126870417Y-97152858D01*
X127029305Y-97067931D01*
X127201706Y-97015633D01*
X127336069Y-97002400D01*
X127425931Y-97002400D01*
X127560294Y-97015633D01*
X127560294Y-97015633D01*
G37*
G36*
X125020294Y-97015633D02*
G01*
X125192695Y-97067931D01*
X125351583Y-97152858D01*
X125490849Y-97267151D01*
X125605142Y-97406417D01*
X125690069Y-97565305D01*
X125742367Y-97737706D01*
X125760025Y-97917000D01*
X125742367Y-98096294D01*
X125690069Y-98268695D01*
X125605142Y-98427583D01*
X125490849Y-98566849D01*
X125351583Y-98681142D01*
X125192695Y-98766069D01*
X125020294Y-98818367D01*
X124885931Y-98831600D01*
X124796069Y-98831600D01*
X124661706Y-98818367D01*
X124489305Y-98766069D01*
X124330417Y-98681142D01*
X124191151Y-98566849D01*
X124076858Y-98427583D01*
X123991931Y-98268695D01*
X123939633Y-98096294D01*
X123921975Y-97917000D01*
X123939633Y-97737706D01*
X123991931Y-97565305D01*
X124076858Y-97406417D01*
X124191151Y-97267151D01*
X124330417Y-97152858D01*
X124489305Y-97067931D01*
X124661706Y-97015633D01*
X124796069Y-97002400D01*
X124885931Y-97002400D01*
X125020294Y-97015633D01*
X125020294Y-97015633D01*
G37*
G36*
X122480294Y-97015633D02*
G01*
X122652695Y-97067931D01*
X122811583Y-97152858D01*
X122950849Y-97267151D01*
X123065142Y-97406417D01*
X123150069Y-97565305D01*
X123202367Y-97737706D01*
X123220025Y-97917000D01*
X123202367Y-98096294D01*
X123150069Y-98268695D01*
X123065142Y-98427583D01*
X122950849Y-98566849D01*
X122811583Y-98681142D01*
X122652695Y-98766069D01*
X122480294Y-98818367D01*
X122345931Y-98831600D01*
X122256069Y-98831600D01*
X122121706Y-98818367D01*
X121949305Y-98766069D01*
X121790417Y-98681142D01*
X121651151Y-98566849D01*
X121536858Y-98427583D01*
X121451931Y-98268695D01*
X121399633Y-98096294D01*
X121381975Y-97917000D01*
X121399633Y-97737706D01*
X121451931Y-97565305D01*
X121536858Y-97406417D01*
X121651151Y-97267151D01*
X121790417Y-97152858D01*
X121949305Y-97067931D01*
X122121706Y-97015633D01*
X122256069Y-97002400D01*
X122345931Y-97002400D01*
X122480294Y-97015633D01*
X122480294Y-97015633D01*
G37*
G36*
X119940294Y-97015633D02*
G01*
X120112695Y-97067931D01*
X120271583Y-97152858D01*
X120410849Y-97267151D01*
X120525142Y-97406417D01*
X120610069Y-97565305D01*
X120662367Y-97737706D01*
X120680025Y-97917000D01*
X120662367Y-98096294D01*
X120610069Y-98268695D01*
X120525142Y-98427583D01*
X120410849Y-98566849D01*
X120271583Y-98681142D01*
X120112695Y-98766069D01*
X119940294Y-98818367D01*
X119805931Y-98831600D01*
X119716069Y-98831600D01*
X119581706Y-98818367D01*
X119409305Y-98766069D01*
X119250417Y-98681142D01*
X119111151Y-98566849D01*
X118996858Y-98427583D01*
X118911931Y-98268695D01*
X118859633Y-98096294D01*
X118841975Y-97917000D01*
X118859633Y-97737706D01*
X118911931Y-97565305D01*
X118996858Y-97406417D01*
X119111151Y-97267151D01*
X119250417Y-97152858D01*
X119409305Y-97067931D01*
X119581706Y-97015633D01*
X119716069Y-97002400D01*
X119805931Y-97002400D01*
X119940294Y-97015633D01*
X119940294Y-97015633D01*
G37*
G36*
X57260443Y-96514519D02*
G01*
X57326627Y-96521037D01*
X57496466Y-96572557D01*
X57652991Y-96656222D01*
X57688729Y-96685552D01*
X57790186Y-96768814D01*
X57857376Y-96850687D01*
X57902778Y-96906009D01*
X57986443Y-97062534D01*
X58037963Y-97232373D01*
X58055359Y-97409000D01*
X58037963Y-97585627D01*
X57986443Y-97755466D01*
X57902778Y-97911991D01*
X57898667Y-97917000D01*
X57790186Y-98049186D01*
X57690281Y-98131175D01*
X57652991Y-98161778D01*
X57496466Y-98245443D01*
X57326627Y-98296963D01*
X57260443Y-98303481D01*
X57194260Y-98310000D01*
X57105740Y-98310000D01*
X57039557Y-98303481D01*
X56973373Y-98296963D01*
X56803534Y-98245443D01*
X56647009Y-98161778D01*
X56609719Y-98131175D01*
X56509814Y-98049186D01*
X56401333Y-97917000D01*
X56397222Y-97911991D01*
X56313557Y-97755466D01*
X56262037Y-97585627D01*
X56244641Y-97409000D01*
X56262037Y-97232373D01*
X56313557Y-97062534D01*
X56397222Y-96906009D01*
X56442624Y-96850687D01*
X56509814Y-96768814D01*
X56611271Y-96685552D01*
X56647009Y-96656222D01*
X56803534Y-96572557D01*
X56973373Y-96521037D01*
X57039557Y-96514519D01*
X57105740Y-96508000D01*
X57194260Y-96508000D01*
X57260443Y-96514519D01*
X57260443Y-96514519D01*
G37*
G36*
X95847000Y-96990000D02*
G01*
X94145000Y-96990000D01*
X94145000Y-95288000D01*
X95847000Y-95288000D01*
X95847000Y-96990000D01*
X95847000Y-96990000D01*
G37*
G36*
X102782823Y-95300313D02*
G01*
X102943242Y-95348976D01*
X103052435Y-95407341D01*
X103091078Y-95427996D01*
X103220659Y-95534341D01*
X103327004Y-95663922D01*
X103327005Y-95663924D01*
X103406024Y-95811758D01*
X103454687Y-95972177D01*
X103471117Y-96139000D01*
X103454687Y-96305823D01*
X103406024Y-96466242D01*
X103362310Y-96548025D01*
X103327004Y-96614078D01*
X103220659Y-96743659D01*
X103091078Y-96850004D01*
X103091076Y-96850005D01*
X102943242Y-96929024D01*
X102782823Y-96977687D01*
X102657804Y-96990000D01*
X102574196Y-96990000D01*
X102449177Y-96977687D01*
X102288758Y-96929024D01*
X102140924Y-96850005D01*
X102140922Y-96850004D01*
X102011341Y-96743659D01*
X101904996Y-96614078D01*
X101869690Y-96548025D01*
X101825976Y-96466242D01*
X101777313Y-96305823D01*
X101760883Y-96139000D01*
X101777313Y-95972177D01*
X101825976Y-95811758D01*
X101904995Y-95663924D01*
X101904996Y-95663922D01*
X102011341Y-95534341D01*
X102140922Y-95427996D01*
X102179565Y-95407341D01*
X102288758Y-95348976D01*
X102449177Y-95300313D01*
X102574196Y-95288000D01*
X102657804Y-95288000D01*
X102782823Y-95300313D01*
X102782823Y-95300313D01*
G37*
G36*
X73699823Y-95173313D02*
G01*
X73860242Y-95221976D01*
X73977276Y-95284532D01*
X74008078Y-95300996D01*
X74137659Y-95407341D01*
X74244004Y-95536922D01*
X74244005Y-95536924D01*
X74323024Y-95684758D01*
X74323025Y-95684761D01*
X74329299Y-95705443D01*
X74371687Y-95845177D01*
X74388117Y-96012000D01*
X74371687Y-96178823D01*
X74323024Y-96339242D01*
X74310507Y-96362659D01*
X74244004Y-96487078D01*
X74137659Y-96616659D01*
X74008078Y-96723004D01*
X74008076Y-96723005D01*
X73860242Y-96802024D01*
X73699823Y-96850687D01*
X73574804Y-96863000D01*
X73491196Y-96863000D01*
X73366177Y-96850687D01*
X73205758Y-96802024D01*
X73057924Y-96723005D01*
X73057922Y-96723004D01*
X72928341Y-96616659D01*
X72821996Y-96487078D01*
X72755493Y-96362659D01*
X72742976Y-96339242D01*
X72694313Y-96178823D01*
X72677883Y-96012000D01*
X72694313Y-95845177D01*
X72736701Y-95705443D01*
X72742975Y-95684761D01*
X72742976Y-95684758D01*
X72821995Y-95536924D01*
X72821996Y-95536922D01*
X72928341Y-95407341D01*
X73057922Y-95300996D01*
X73088724Y-95284532D01*
X73205758Y-95221976D01*
X73366177Y-95173313D01*
X73491196Y-95161000D01*
X73574804Y-95161000D01*
X73699823Y-95173313D01*
X73699823Y-95173313D01*
G37*
G36*
X66764000Y-96863000D02*
G01*
X65062000Y-96863000D01*
X65062000Y-95161000D01*
X66764000Y-95161000D01*
X66764000Y-96863000D01*
X66764000Y-96863000D01*
G37*
G36*
X81573823Y-94919313D02*
G01*
X81734242Y-94967976D01*
X81866906Y-95038886D01*
X81882078Y-95046996D01*
X82011659Y-95153341D01*
X82118004Y-95282922D01*
X82118866Y-95284534D01*
X82197024Y-95430758D01*
X82245687Y-95591177D01*
X82262117Y-95758000D01*
X82245687Y-95924823D01*
X82197024Y-96085242D01*
X82147004Y-96178823D01*
X82118004Y-96233078D01*
X82011659Y-96362659D01*
X81882078Y-96469004D01*
X81882076Y-96469005D01*
X81734242Y-96548024D01*
X81573823Y-96596687D01*
X81448804Y-96609000D01*
X81365196Y-96609000D01*
X81240177Y-96596687D01*
X81079758Y-96548024D01*
X80931924Y-96469005D01*
X80931922Y-96469004D01*
X80802341Y-96362659D01*
X80695996Y-96233078D01*
X80666996Y-96178823D01*
X80616976Y-96085242D01*
X80568313Y-95924823D01*
X80551883Y-95758000D01*
X80568313Y-95591177D01*
X80616976Y-95430758D01*
X80695134Y-95284534D01*
X80695996Y-95282922D01*
X80802341Y-95153341D01*
X80931922Y-95046996D01*
X80947094Y-95038886D01*
X81079758Y-94967976D01*
X81240177Y-94919313D01*
X81365196Y-94907000D01*
X81448804Y-94907000D01*
X81573823Y-94919313D01*
X81573823Y-94919313D01*
G37*
G36*
X89193823Y-94919313D02*
G01*
X89354242Y-94967976D01*
X89486906Y-95038886D01*
X89502078Y-95046996D01*
X89631659Y-95153341D01*
X89738004Y-95282922D01*
X89738866Y-95284534D01*
X89817024Y-95430758D01*
X89865687Y-95591177D01*
X89882117Y-95758000D01*
X89865687Y-95924823D01*
X89817024Y-96085242D01*
X89767004Y-96178823D01*
X89738004Y-96233078D01*
X89631659Y-96362659D01*
X89502078Y-96469004D01*
X89502076Y-96469005D01*
X89354242Y-96548024D01*
X89193823Y-96596687D01*
X89068804Y-96609000D01*
X88985196Y-96609000D01*
X88860177Y-96596687D01*
X88699758Y-96548024D01*
X88551924Y-96469005D01*
X88551922Y-96469004D01*
X88422341Y-96362659D01*
X88315996Y-96233078D01*
X88286996Y-96178823D01*
X88236976Y-96085242D01*
X88188313Y-95924823D01*
X88171883Y-95758000D01*
X88188313Y-95591177D01*
X88236976Y-95430758D01*
X88315134Y-95284534D01*
X88315996Y-95282922D01*
X88422341Y-95153341D01*
X88551922Y-95046996D01*
X88567094Y-95038886D01*
X88699758Y-94967976D01*
X88860177Y-94919313D01*
X88985196Y-94907000D01*
X89068804Y-94907000D01*
X89193823Y-94919313D01*
X89193823Y-94919313D01*
G37*
G36*
X113140442Y-94736518D02*
G01*
X113206627Y-94743037D01*
X113376466Y-94794557D01*
X113532991Y-94878222D01*
X113568057Y-94907000D01*
X113670186Y-94990814D01*
X113753448Y-95092271D01*
X113782778Y-95128009D01*
X113866443Y-95284534D01*
X113917963Y-95454373D01*
X113935359Y-95631000D01*
X113917963Y-95807627D01*
X113866443Y-95977466D01*
X113782778Y-96133991D01*
X113778667Y-96139000D01*
X113670186Y-96271186D01*
X113587262Y-96339239D01*
X113532991Y-96383778D01*
X113376466Y-96467443D01*
X113206627Y-96518963D01*
X113140443Y-96525481D01*
X113074260Y-96532000D01*
X112985740Y-96532000D01*
X112919557Y-96525481D01*
X112853373Y-96518963D01*
X112683534Y-96467443D01*
X112527009Y-96383778D01*
X112472738Y-96339239D01*
X112389814Y-96271186D01*
X112281333Y-96139000D01*
X112277222Y-96133991D01*
X112193557Y-95977466D01*
X112142037Y-95807627D01*
X112124641Y-95631000D01*
X112142037Y-95454373D01*
X112193557Y-95284534D01*
X112277222Y-95128009D01*
X112306552Y-95092271D01*
X112389814Y-94990814D01*
X112491943Y-94907000D01*
X112527009Y-94878222D01*
X112683534Y-94794557D01*
X112853373Y-94743037D01*
X112919557Y-94736519D01*
X112985740Y-94730000D01*
X113074260Y-94730000D01*
X113140442Y-94736518D01*
X113140442Y-94736518D01*
G37*
G36*
X57260442Y-93974518D02*
G01*
X57326627Y-93981037D01*
X57496466Y-94032557D01*
X57652991Y-94116222D01*
X57688729Y-94145552D01*
X57790186Y-94228814D01*
X57873448Y-94330271D01*
X57902778Y-94366009D01*
X57986443Y-94522534D01*
X58037963Y-94692373D01*
X58055359Y-94869000D01*
X58037963Y-95045627D01*
X57986443Y-95215466D01*
X57902778Y-95371991D01*
X57873767Y-95407341D01*
X57790186Y-95509186D01*
X57690281Y-95591175D01*
X57652991Y-95621778D01*
X57496466Y-95705443D01*
X57326627Y-95756963D01*
X57260443Y-95763481D01*
X57194260Y-95770000D01*
X57105740Y-95770000D01*
X57039557Y-95763481D01*
X56973373Y-95756963D01*
X56803534Y-95705443D01*
X56647009Y-95621778D01*
X56609719Y-95591175D01*
X56509814Y-95509186D01*
X56426233Y-95407341D01*
X56397222Y-95371991D01*
X56313557Y-95215466D01*
X56262037Y-95045627D01*
X56244641Y-94869000D01*
X56262037Y-94692373D01*
X56313557Y-94522534D01*
X56397222Y-94366009D01*
X56426552Y-94330271D01*
X56509814Y-94228814D01*
X56611271Y-94145552D01*
X56647009Y-94116222D01*
X56803534Y-94032557D01*
X56973373Y-93981037D01*
X57039558Y-93974518D01*
X57105740Y-93968000D01*
X57194260Y-93968000D01*
X57260442Y-93974518D01*
X57260442Y-93974518D01*
G37*
G36*
X89193823Y-92379313D02*
G01*
X89354242Y-92427976D01*
X89486906Y-92498886D01*
X89502078Y-92506996D01*
X89631659Y-92613341D01*
X89738004Y-92742922D01*
X89738005Y-92742924D01*
X89817024Y-92890758D01*
X89865687Y-93051177D01*
X89882117Y-93218000D01*
X89865687Y-93384823D01*
X89817024Y-93545242D01*
X89746114Y-93677906D01*
X89738004Y-93693078D01*
X89631659Y-93822659D01*
X89502078Y-93929004D01*
X89502076Y-93929005D01*
X89354242Y-94008024D01*
X89193823Y-94056687D01*
X89068804Y-94069000D01*
X88985196Y-94069000D01*
X88860177Y-94056687D01*
X88699758Y-94008024D01*
X88551924Y-93929005D01*
X88551922Y-93929004D01*
X88422341Y-93822659D01*
X88315996Y-93693078D01*
X88307886Y-93677906D01*
X88236976Y-93545242D01*
X88188313Y-93384823D01*
X88171883Y-93218000D01*
X88188313Y-93051177D01*
X88236976Y-92890758D01*
X88315995Y-92742924D01*
X88315996Y-92742922D01*
X88422341Y-92613341D01*
X88551922Y-92506996D01*
X88567094Y-92498886D01*
X88699758Y-92427976D01*
X88860177Y-92379313D01*
X88985196Y-92367000D01*
X89068804Y-92367000D01*
X89193823Y-92379313D01*
X89193823Y-92379313D01*
G37*
G36*
X82258000Y-94069000D02*
G01*
X80556000Y-94069000D01*
X80556000Y-92367000D01*
X82258000Y-92367000D01*
X82258000Y-94069000D01*
X82258000Y-94069000D01*
G37*
G36*
X113931000Y-93992000D02*
G01*
X112129000Y-93992000D01*
X112129000Y-92190000D01*
X113931000Y-92190000D01*
X113931000Y-93992000D01*
X113931000Y-93992000D01*
G37*
G36*
X58051000Y-93230000D02*
G01*
X56249000Y-93230000D01*
X56249000Y-91428000D01*
X58051000Y-91428000D01*
X58051000Y-93230000D01*
X58051000Y-93230000D01*
G37*
M02*
