G04 #@! TF.GenerationSoftware,KiCad,Pcbnew,(5.1.2-1)-1*
G04 #@! TF.CreationDate,2019-08-21T10:56:26-07:00*
G04 #@! TF.ProjectId,AS3360_VCA,41533333-3630-45f5-9643-412e6b696361,rev?*
G04 #@! TF.SameCoordinates,Original*
G04 #@! TF.FileFunction,Legend,Top*
G04 #@! TF.FilePolarity,Positive*
%FSLAX46Y46*%
G04 Gerber Fmt 4.6, Leading zero omitted, Abs format (unit mm)*
G04 Created by KiCad (PCBNEW (5.1.2-1)-1) date 2019-08-21 10:56:26*
%MOMM*%
%LPD*%
G04 APERTURE LIST*
%ADD10C,0.150000*%
%ADD11C,0.120000*%
G04 APERTURE END LIST*
D10*
X119372857Y-108672380D02*
X119706190Y-109672380D01*
X120039523Y-108672380D01*
X120944285Y-109577142D02*
X120896666Y-109624761D01*
X120753809Y-109672380D01*
X120658571Y-109672380D01*
X120515714Y-109624761D01*
X120420476Y-109529523D01*
X120372857Y-109434285D01*
X120325238Y-109243809D01*
X120325238Y-109100952D01*
X120372857Y-108910476D01*
X120420476Y-108815238D01*
X120515714Y-108720000D01*
X120658571Y-108672380D01*
X120753809Y-108672380D01*
X120896666Y-108720000D01*
X120944285Y-108767619D01*
X121325238Y-109386666D02*
X121801428Y-109386666D01*
X121230000Y-109672380D02*
X121563333Y-108672380D01*
X121896666Y-109672380D01*
X123325238Y-109148571D02*
X123468095Y-109196190D01*
X123515714Y-109243809D01*
X123563333Y-109339047D01*
X123563333Y-109481904D01*
X123515714Y-109577142D01*
X123468095Y-109624761D01*
X123372857Y-109672380D01*
X122991904Y-109672380D01*
X122991904Y-108672380D01*
X123325238Y-108672380D01*
X123420476Y-108720000D01*
X123468095Y-108767619D01*
X123515714Y-108862857D01*
X123515714Y-108958095D01*
X123468095Y-109053333D01*
X123420476Y-109100952D01*
X123325238Y-109148571D01*
X122991904Y-109148571D01*
X124134761Y-109672380D02*
X124039523Y-109624761D01*
X123991904Y-109577142D01*
X123944285Y-109481904D01*
X123944285Y-109196190D01*
X123991904Y-109100952D01*
X124039523Y-109053333D01*
X124134761Y-109005714D01*
X124277619Y-109005714D01*
X124372857Y-109053333D01*
X124420476Y-109100952D01*
X124468095Y-109196190D01*
X124468095Y-109481904D01*
X124420476Y-109577142D01*
X124372857Y-109624761D01*
X124277619Y-109672380D01*
X124134761Y-109672380D01*
X125325238Y-109672380D02*
X125325238Y-109148571D01*
X125277619Y-109053333D01*
X125182380Y-109005714D01*
X124991904Y-109005714D01*
X124896666Y-109053333D01*
X125325238Y-109624761D02*
X125230000Y-109672380D01*
X124991904Y-109672380D01*
X124896666Y-109624761D01*
X124849047Y-109529523D01*
X124849047Y-109434285D01*
X124896666Y-109339047D01*
X124991904Y-109291428D01*
X125230000Y-109291428D01*
X125325238Y-109243809D01*
X125801428Y-109672380D02*
X125801428Y-109005714D01*
X125801428Y-109196190D02*
X125849047Y-109100952D01*
X125896666Y-109053333D01*
X125991904Y-109005714D01*
X126087142Y-109005714D01*
X126849047Y-109672380D02*
X126849047Y-108672380D01*
X126849047Y-109624761D02*
X126753809Y-109672380D01*
X126563333Y-109672380D01*
X126468095Y-109624761D01*
X126420476Y-109577142D01*
X126372857Y-109481904D01*
X126372857Y-109196190D01*
X126420476Y-109100952D01*
X126468095Y-109053333D01*
X126563333Y-109005714D01*
X126753809Y-109005714D01*
X126849047Y-109053333D01*
X128658571Y-109672380D02*
X128325238Y-109196190D01*
X128087142Y-109672380D02*
X128087142Y-108672380D01*
X128468095Y-108672380D01*
X128563333Y-108720000D01*
X128610952Y-108767619D01*
X128658571Y-108862857D01*
X128658571Y-109005714D01*
X128610952Y-109100952D01*
X128563333Y-109148571D01*
X128468095Y-109196190D01*
X128087142Y-109196190D01*
X129468095Y-109624761D02*
X129372857Y-109672380D01*
X129182380Y-109672380D01*
X129087142Y-109624761D01*
X129039523Y-109529523D01*
X129039523Y-109148571D01*
X129087142Y-109053333D01*
X129182380Y-109005714D01*
X129372857Y-109005714D01*
X129468095Y-109053333D01*
X129515714Y-109148571D01*
X129515714Y-109243809D01*
X129039523Y-109339047D01*
X129849047Y-109005714D02*
X130087142Y-109672380D01*
X130325238Y-109005714D01*
X131991904Y-109672380D02*
X131420476Y-109672380D01*
X131706190Y-109672380D02*
X131706190Y-108672380D01*
X131610952Y-108815238D01*
X131515714Y-108910476D01*
X131420476Y-108958095D01*
X116380000Y-90892380D02*
X116618095Y-91892380D01*
X116808571Y-91178095D01*
X116999047Y-91892380D01*
X117237142Y-90892380D01*
X117618095Y-91892380D02*
X117618095Y-90892380D01*
X117618095Y-91368571D02*
X118189523Y-91368571D01*
X118189523Y-91892380D02*
X118189523Y-90892380D01*
X118618095Y-91844761D02*
X118760952Y-91892380D01*
X118999047Y-91892380D01*
X119094285Y-91844761D01*
X119141904Y-91797142D01*
X119189523Y-91701904D01*
X119189523Y-91606666D01*
X119141904Y-91511428D01*
X119094285Y-91463809D01*
X118999047Y-91416190D01*
X118808571Y-91368571D01*
X118713333Y-91320952D01*
X118665714Y-91273333D01*
X118618095Y-91178095D01*
X118618095Y-91082857D01*
X118665714Y-90987619D01*
X118713333Y-90940000D01*
X118808571Y-90892380D01*
X119046666Y-90892380D01*
X119189523Y-90940000D01*
X119522857Y-91225714D02*
X119760952Y-91892380D01*
X119999047Y-91225714D02*
X119760952Y-91892380D01*
X119665714Y-92130476D01*
X119618095Y-92178095D01*
X119522857Y-92225714D01*
X120380000Y-91225714D02*
X120380000Y-91892380D01*
X120380000Y-91320952D02*
X120427619Y-91273333D01*
X120522857Y-91225714D01*
X120665714Y-91225714D01*
X120760952Y-91273333D01*
X120808571Y-91368571D01*
X120808571Y-91892380D01*
X121141904Y-91225714D02*
X121522857Y-91225714D01*
X121284761Y-90892380D02*
X121284761Y-91749523D01*
X121332380Y-91844761D01*
X121427619Y-91892380D01*
X121522857Y-91892380D01*
X121856190Y-91892380D02*
X121856190Y-90892380D01*
X122284761Y-91892380D02*
X122284761Y-91368571D01*
X122237142Y-91273333D01*
X122141904Y-91225714D01*
X121999047Y-91225714D01*
X121903809Y-91273333D01*
X121856190Y-91320952D01*
D11*
X57150000Y-90999000D02*
X58480000Y-90999000D01*
X58480000Y-90999000D02*
X58480000Y-92329000D01*
X58480000Y-93599000D02*
X58480000Y-103819000D01*
X55820000Y-103819000D02*
X58480000Y-103819000D01*
X55820000Y-93599000D02*
X55820000Y-103819000D01*
X55820000Y-93599000D02*
X58480000Y-93599000D01*
X111700000Y-94361000D02*
X114360000Y-94361000D01*
X111700000Y-94361000D02*
X111700000Y-104581000D01*
X111700000Y-104581000D02*
X114360000Y-104581000D01*
X114360000Y-94361000D02*
X114360000Y-104581000D01*
X114360000Y-91761000D02*
X114360000Y-93091000D01*
X113030000Y-91761000D02*
X114360000Y-91761000D01*
X57852000Y-107442000D02*
X57852000Y-106112000D01*
X57852000Y-106112000D02*
X59182000Y-106112000D01*
X60452000Y-106112000D02*
X65592000Y-106112000D01*
X65592000Y-108772000D02*
X65592000Y-106112000D01*
X60452000Y-108772000D02*
X65592000Y-108772000D01*
X60452000Y-108772000D02*
X60452000Y-106112000D01*
X110430000Y-108204000D02*
X110430000Y-106874000D01*
X110430000Y-106874000D02*
X111760000Y-106874000D01*
X113030000Y-106874000D02*
X118170000Y-106874000D01*
X118170000Y-109534000D02*
X118170000Y-106874000D01*
X113030000Y-109534000D02*
X118170000Y-109534000D01*
X113030000Y-109534000D02*
X113030000Y-106874000D01*
X74422000Y-108772000D02*
X74422000Y-106112000D01*
X74422000Y-108772000D02*
X79562000Y-108772000D01*
X79562000Y-108772000D02*
X79562000Y-106112000D01*
X74422000Y-106112000D02*
X79562000Y-106112000D01*
X71822000Y-106112000D02*
X73152000Y-106112000D01*
X71822000Y-107442000D02*
X71822000Y-106112000D01*
X100076000Y-106620000D02*
X100076000Y-109280000D01*
X100076000Y-106620000D02*
X94936000Y-106620000D01*
X94936000Y-106620000D02*
X94936000Y-109280000D01*
X100076000Y-109280000D02*
X94936000Y-109280000D01*
X102676000Y-109280000D02*
X101346000Y-109280000D01*
X102676000Y-107950000D02*
X102676000Y-109280000D01*
X70723000Y-94682000D02*
G75*
G02X68723000Y-94682000I-1000000J0D01*
G01*
X68723000Y-94682000D02*
X67073000Y-94682000D01*
X67073000Y-94682000D02*
X67073000Y-104962000D01*
X67073000Y-104962000D02*
X72373000Y-104962000D01*
X72373000Y-104962000D02*
X72373000Y-94682000D01*
X72373000Y-94682000D02*
X70723000Y-94682000D01*
X86217000Y-91888000D02*
G75*
G02X84217000Y-91888000I-1000000J0D01*
G01*
X84217000Y-91888000D02*
X82567000Y-91888000D01*
X82567000Y-91888000D02*
X82567000Y-109788000D01*
X82567000Y-109788000D02*
X87867000Y-109788000D01*
X87867000Y-109788000D02*
X87867000Y-91888000D01*
X87867000Y-91888000D02*
X86217000Y-91888000D01*
X91767922Y-108002000D02*
X92285078Y-108002000D01*
X91767922Y-109422000D02*
X92285078Y-109422000D01*
X61091578Y-90984000D02*
X60574422Y-90984000D01*
X61091578Y-92404000D02*
X60574422Y-92404000D01*
X61091578Y-95579000D02*
X60574422Y-95579000D01*
X61091578Y-94159000D02*
X60574422Y-94159000D01*
X61012000Y-103373422D02*
X61012000Y-103890578D01*
X62432000Y-103373422D02*
X62432000Y-103890578D01*
X109088422Y-93801000D02*
X109605578Y-93801000D01*
X109088422Y-92381000D02*
X109605578Y-92381000D01*
X109088422Y-95683000D02*
X109605578Y-95683000D01*
X109088422Y-97103000D02*
X109605578Y-97103000D01*
X109018000Y-103500422D02*
X109018000Y-104017578D01*
X110438000Y-103500422D02*
X110438000Y-104017578D01*
X64464000Y-93086422D02*
X64464000Y-93603578D01*
X63044000Y-93086422D02*
X63044000Y-93603578D01*
X95245422Y-92762000D02*
X95762578Y-92762000D01*
X95245422Y-94182000D02*
X95762578Y-94182000D01*
X76624922Y-102922000D02*
X77142078Y-102922000D01*
X76624922Y-104342000D02*
X77142078Y-104342000D01*
X68076578Y-106478000D02*
X67559422Y-106478000D01*
X68076578Y-107898000D02*
X67559422Y-107898000D01*
X106684578Y-108533000D02*
X106167422Y-108533000D01*
X106684578Y-107113000D02*
X106167422Y-107113000D01*
X91816422Y-105993000D02*
X92333578Y-105993000D01*
X91816422Y-104573000D02*
X92333578Y-104573000D01*
X53138000Y-99318578D02*
X53138000Y-98801422D01*
X54558000Y-99318578D02*
X54558000Y-98801422D01*
X109088422Y-98985000D02*
X109605578Y-98985000D01*
X109088422Y-100405000D02*
X109605578Y-100405000D01*
X73918578Y-92785000D02*
X73401422Y-92785000D01*
X73918578Y-91365000D02*
X73401422Y-91365000D01*
X91873000Y-93730578D02*
X91873000Y-93213422D01*
X93293000Y-93730578D02*
X93293000Y-93213422D01*
X77799000Y-95968078D02*
X77799000Y-95450922D01*
X76379000Y-95968078D02*
X76379000Y-95450922D01*
X93547000Y-97492078D02*
X93547000Y-96974922D01*
X92127000Y-97492078D02*
X92127000Y-96974922D01*
X77799000Y-99699578D02*
X77799000Y-99182422D01*
X76379000Y-99699578D02*
X76379000Y-99182422D01*
X104573000Y-99738922D02*
X104573000Y-100256078D01*
X105993000Y-99738922D02*
X105993000Y-100256078D01*
X99806000Y-94809000D02*
G75*
G02X97806000Y-94809000I-1000000J0D01*
G01*
X97806000Y-94809000D02*
X96156000Y-94809000D01*
X96156000Y-94809000D02*
X96156000Y-105089000D01*
X96156000Y-105089000D02*
X101456000Y-105089000D01*
X101456000Y-105089000D02*
X101456000Y-94809000D01*
X101456000Y-94809000D02*
X99806000Y-94809000D01*
D10*
X56816666Y-104544880D02*
X56816666Y-105259166D01*
X56769047Y-105402023D01*
X56673809Y-105497261D01*
X56530952Y-105544880D01*
X56435714Y-105544880D01*
X57816666Y-105544880D02*
X57245238Y-105544880D01*
X57530952Y-105544880D02*
X57530952Y-104544880D01*
X57435714Y-104687738D01*
X57340476Y-104782976D01*
X57245238Y-104830595D01*
X112696666Y-105243380D02*
X112696666Y-105957666D01*
X112649047Y-106100523D01*
X112553809Y-106195761D01*
X112410952Y-106243380D01*
X112315714Y-106243380D01*
X113125238Y-105338619D02*
X113172857Y-105291000D01*
X113268095Y-105243380D01*
X113506190Y-105243380D01*
X113601428Y-105291000D01*
X113649047Y-105338619D01*
X113696666Y-105433857D01*
X113696666Y-105529095D01*
X113649047Y-105671952D01*
X113077619Y-106243380D01*
X113696666Y-106243380D01*
X56864380Y-108037238D02*
X56388190Y-108370571D01*
X56864380Y-108608666D02*
X55864380Y-108608666D01*
X55864380Y-108227714D01*
X55912000Y-108132476D01*
X55959619Y-108084857D01*
X56054857Y-108037238D01*
X56197714Y-108037238D01*
X56292952Y-108084857D01*
X56340571Y-108132476D01*
X56388190Y-108227714D01*
X56388190Y-108608666D01*
X55864380Y-107751523D02*
X56864380Y-107418190D01*
X55864380Y-107084857D01*
X56864380Y-106227714D02*
X56864380Y-106799142D01*
X56864380Y-106513428D02*
X55864380Y-106513428D01*
X56007238Y-106608666D01*
X56102476Y-106703904D01*
X56150095Y-106799142D01*
X109442380Y-108799238D02*
X108966190Y-109132571D01*
X109442380Y-109370666D02*
X108442380Y-109370666D01*
X108442380Y-108989714D01*
X108490000Y-108894476D01*
X108537619Y-108846857D01*
X108632857Y-108799238D01*
X108775714Y-108799238D01*
X108870952Y-108846857D01*
X108918571Y-108894476D01*
X108966190Y-108989714D01*
X108966190Y-109370666D01*
X108442380Y-108513523D02*
X109442380Y-108180190D01*
X108442380Y-107846857D01*
X108537619Y-107561142D02*
X108490000Y-107513523D01*
X108442380Y-107418285D01*
X108442380Y-107180190D01*
X108490000Y-107084952D01*
X108537619Y-107037333D01*
X108632857Y-106989714D01*
X108728095Y-106989714D01*
X108870952Y-107037333D01*
X109442380Y-107608761D01*
X109442380Y-106989714D01*
X70786761Y-108775333D02*
X70834380Y-108632476D01*
X70834380Y-108394380D01*
X70786761Y-108299142D01*
X70739142Y-108251523D01*
X70643904Y-108203904D01*
X70548666Y-108203904D01*
X70453428Y-108251523D01*
X70405809Y-108299142D01*
X70358190Y-108394380D01*
X70310571Y-108584857D01*
X70262952Y-108680095D01*
X70215333Y-108727714D01*
X70120095Y-108775333D01*
X70024857Y-108775333D01*
X69929619Y-108727714D01*
X69882000Y-108680095D01*
X69834380Y-108584857D01*
X69834380Y-108346761D01*
X69882000Y-108203904D01*
X69834380Y-107870571D02*
X70834380Y-107632476D01*
X70120095Y-107442000D01*
X70834380Y-107251523D01*
X69834380Y-107013428D01*
X70834380Y-106108666D02*
X70834380Y-106680095D01*
X70834380Y-106394380D02*
X69834380Y-106394380D01*
X69977238Y-106489619D01*
X70072476Y-106584857D01*
X70120095Y-106680095D01*
X104520761Y-109283333D02*
X104568380Y-109140476D01*
X104568380Y-108902380D01*
X104520761Y-108807142D01*
X104473142Y-108759523D01*
X104377904Y-108711904D01*
X104282666Y-108711904D01*
X104187428Y-108759523D01*
X104139809Y-108807142D01*
X104092190Y-108902380D01*
X104044571Y-109092857D01*
X103996952Y-109188095D01*
X103949333Y-109235714D01*
X103854095Y-109283333D01*
X103758857Y-109283333D01*
X103663619Y-109235714D01*
X103616000Y-109188095D01*
X103568380Y-109092857D01*
X103568380Y-108854761D01*
X103616000Y-108711904D01*
X103568380Y-108378571D02*
X104568380Y-108140476D01*
X103854095Y-107950000D01*
X104568380Y-107759523D01*
X103568380Y-107521428D01*
X103663619Y-107188095D02*
X103616000Y-107140476D01*
X103568380Y-107045238D01*
X103568380Y-106807142D01*
X103616000Y-106711904D01*
X103663619Y-106664285D01*
X103758857Y-106616666D01*
X103854095Y-106616666D01*
X103996952Y-106664285D01*
X104568380Y-107235714D01*
X104568380Y-106616666D01*
X68961095Y-93134380D02*
X68961095Y-93943904D01*
X69008714Y-94039142D01*
X69056333Y-94086761D01*
X69151571Y-94134380D01*
X69342047Y-94134380D01*
X69437285Y-94086761D01*
X69484904Y-94039142D01*
X69532523Y-93943904D01*
X69532523Y-93134380D01*
X70532523Y-94134380D02*
X69961095Y-94134380D01*
X70246809Y-94134380D02*
X70246809Y-93134380D01*
X70151571Y-93277238D01*
X70056333Y-93372476D01*
X69961095Y-93420095D01*
X84455095Y-90340380D02*
X84455095Y-91149904D01*
X84502714Y-91245142D01*
X84550333Y-91292761D01*
X84645571Y-91340380D01*
X84836047Y-91340380D01*
X84931285Y-91292761D01*
X84978904Y-91245142D01*
X85026523Y-91149904D01*
X85026523Y-90340380D01*
X85455095Y-90435619D02*
X85502714Y-90388000D01*
X85597952Y-90340380D01*
X85836047Y-90340380D01*
X85931285Y-90388000D01*
X85978904Y-90435619D01*
X86026523Y-90530857D01*
X86026523Y-90626095D01*
X85978904Y-90768952D01*
X85407476Y-91340380D01*
X86026523Y-91340380D01*
X91859833Y-107419142D02*
X91812214Y-107466761D01*
X91669357Y-107514380D01*
X91574119Y-107514380D01*
X91431261Y-107466761D01*
X91336023Y-107371523D01*
X91288404Y-107276285D01*
X91240785Y-107085809D01*
X91240785Y-106942952D01*
X91288404Y-106752476D01*
X91336023Y-106657238D01*
X91431261Y-106562000D01*
X91574119Y-106514380D01*
X91669357Y-106514380D01*
X91812214Y-106562000D01*
X91859833Y-106609619D01*
X92193166Y-106514380D02*
X92812214Y-106514380D01*
X92478880Y-106895333D01*
X92621738Y-106895333D01*
X92716976Y-106942952D01*
X92764595Y-106990571D01*
X92812214Y-107085809D01*
X92812214Y-107323904D01*
X92764595Y-107419142D01*
X92716976Y-107466761D01*
X92621738Y-107514380D01*
X92336023Y-107514380D01*
X92240785Y-107466761D01*
X92193166Y-107419142D01*
X60666333Y-93796380D02*
X60333000Y-93320190D01*
X60094904Y-93796380D02*
X60094904Y-92796380D01*
X60475857Y-92796380D01*
X60571095Y-92844000D01*
X60618714Y-92891619D01*
X60666333Y-92986857D01*
X60666333Y-93129714D01*
X60618714Y-93224952D01*
X60571095Y-93272571D01*
X60475857Y-93320190D01*
X60094904Y-93320190D01*
X61618714Y-93796380D02*
X61047285Y-93796380D01*
X61333000Y-93796380D02*
X61333000Y-92796380D01*
X61237761Y-92939238D01*
X61142523Y-93034476D01*
X61047285Y-93082095D01*
X60666333Y-96971380D02*
X60333000Y-96495190D01*
X60094904Y-96971380D02*
X60094904Y-95971380D01*
X60475857Y-95971380D01*
X60571095Y-96019000D01*
X60618714Y-96066619D01*
X60666333Y-96161857D01*
X60666333Y-96304714D01*
X60618714Y-96399952D01*
X60571095Y-96447571D01*
X60475857Y-96495190D01*
X60094904Y-96495190D01*
X61047285Y-96066619D02*
X61094904Y-96019000D01*
X61190142Y-95971380D01*
X61428238Y-95971380D01*
X61523476Y-96019000D01*
X61571095Y-96066619D01*
X61618714Y-96161857D01*
X61618714Y-96257095D01*
X61571095Y-96399952D01*
X60999666Y-96971380D01*
X61618714Y-96971380D01*
X63824380Y-103798666D02*
X63348190Y-104132000D01*
X63824380Y-104370095D02*
X62824380Y-104370095D01*
X62824380Y-103989142D01*
X62872000Y-103893904D01*
X62919619Y-103846285D01*
X63014857Y-103798666D01*
X63157714Y-103798666D01*
X63252952Y-103846285D01*
X63300571Y-103893904D01*
X63348190Y-103989142D01*
X63348190Y-104370095D01*
X62824380Y-103465333D02*
X62824380Y-102846285D01*
X63205333Y-103179619D01*
X63205333Y-103036761D01*
X63252952Y-102941523D01*
X63300571Y-102893904D01*
X63395809Y-102846285D01*
X63633904Y-102846285D01*
X63729142Y-102893904D01*
X63776761Y-102941523D01*
X63824380Y-103036761D01*
X63824380Y-103322476D01*
X63776761Y-103417714D01*
X63729142Y-103465333D01*
X109180333Y-91893380D02*
X108847000Y-91417190D01*
X108608904Y-91893380D02*
X108608904Y-90893380D01*
X108989857Y-90893380D01*
X109085095Y-90941000D01*
X109132714Y-90988619D01*
X109180333Y-91083857D01*
X109180333Y-91226714D01*
X109132714Y-91321952D01*
X109085095Y-91369571D01*
X108989857Y-91417190D01*
X108608904Y-91417190D01*
X110037476Y-91226714D02*
X110037476Y-91893380D01*
X109799380Y-90845761D02*
X109561285Y-91560047D01*
X110180333Y-91560047D01*
X109180333Y-95195380D02*
X108847000Y-94719190D01*
X108608904Y-95195380D02*
X108608904Y-94195380D01*
X108989857Y-94195380D01*
X109085095Y-94243000D01*
X109132714Y-94290619D01*
X109180333Y-94385857D01*
X109180333Y-94528714D01*
X109132714Y-94623952D01*
X109085095Y-94671571D01*
X108989857Y-94719190D01*
X108608904Y-94719190D01*
X110085095Y-94195380D02*
X109608904Y-94195380D01*
X109561285Y-94671571D01*
X109608904Y-94623952D01*
X109704142Y-94576333D01*
X109942238Y-94576333D01*
X110037476Y-94623952D01*
X110085095Y-94671571D01*
X110132714Y-94766809D01*
X110132714Y-95004904D01*
X110085095Y-95100142D01*
X110037476Y-95147761D01*
X109942238Y-95195380D01*
X109704142Y-95195380D01*
X109608904Y-95147761D01*
X109561285Y-95100142D01*
X111830380Y-103925666D02*
X111354190Y-104259000D01*
X111830380Y-104497095D02*
X110830380Y-104497095D01*
X110830380Y-104116142D01*
X110878000Y-104020904D01*
X110925619Y-103973285D01*
X111020857Y-103925666D01*
X111163714Y-103925666D01*
X111258952Y-103973285D01*
X111306571Y-104020904D01*
X111354190Y-104116142D01*
X111354190Y-104497095D01*
X110830380Y-103068523D02*
X110830380Y-103259000D01*
X110878000Y-103354238D01*
X110925619Y-103401857D01*
X111068476Y-103497095D01*
X111258952Y-103544714D01*
X111639904Y-103544714D01*
X111735142Y-103497095D01*
X111782761Y-103449476D01*
X111830380Y-103354238D01*
X111830380Y-103163761D01*
X111782761Y-103068523D01*
X111735142Y-103020904D01*
X111639904Y-102973285D01*
X111401809Y-102973285D01*
X111306571Y-103020904D01*
X111258952Y-103068523D01*
X111211333Y-103163761D01*
X111211333Y-103354238D01*
X111258952Y-103449476D01*
X111306571Y-103497095D01*
X111401809Y-103544714D01*
X65856380Y-93511666D02*
X65380190Y-93845000D01*
X65856380Y-94083095D02*
X64856380Y-94083095D01*
X64856380Y-93702142D01*
X64904000Y-93606904D01*
X64951619Y-93559285D01*
X65046857Y-93511666D01*
X65189714Y-93511666D01*
X65284952Y-93559285D01*
X65332571Y-93606904D01*
X65380190Y-93702142D01*
X65380190Y-94083095D01*
X64856380Y-93178333D02*
X64856380Y-92511666D01*
X65856380Y-92940238D01*
X95337333Y-92274380D02*
X95004000Y-91798190D01*
X94765904Y-92274380D02*
X94765904Y-91274380D01*
X95146857Y-91274380D01*
X95242095Y-91322000D01*
X95289714Y-91369619D01*
X95337333Y-91464857D01*
X95337333Y-91607714D01*
X95289714Y-91702952D01*
X95242095Y-91750571D01*
X95146857Y-91798190D01*
X94765904Y-91798190D01*
X95908761Y-91702952D02*
X95813523Y-91655333D01*
X95765904Y-91607714D01*
X95718285Y-91512476D01*
X95718285Y-91464857D01*
X95765904Y-91369619D01*
X95813523Y-91322000D01*
X95908761Y-91274380D01*
X96099238Y-91274380D01*
X96194476Y-91322000D01*
X96242095Y-91369619D01*
X96289714Y-91464857D01*
X96289714Y-91512476D01*
X96242095Y-91607714D01*
X96194476Y-91655333D01*
X96099238Y-91702952D01*
X95908761Y-91702952D01*
X95813523Y-91750571D01*
X95765904Y-91798190D01*
X95718285Y-91893428D01*
X95718285Y-92083904D01*
X95765904Y-92179142D01*
X95813523Y-92226761D01*
X95908761Y-92274380D01*
X96099238Y-92274380D01*
X96194476Y-92226761D01*
X96242095Y-92179142D01*
X96289714Y-92083904D01*
X96289714Y-91893428D01*
X96242095Y-91798190D01*
X96194476Y-91750571D01*
X96099238Y-91702952D01*
X76716833Y-102434380D02*
X76383500Y-101958190D01*
X76145404Y-102434380D02*
X76145404Y-101434380D01*
X76526357Y-101434380D01*
X76621595Y-101482000D01*
X76669214Y-101529619D01*
X76716833Y-101624857D01*
X76716833Y-101767714D01*
X76669214Y-101862952D01*
X76621595Y-101910571D01*
X76526357Y-101958190D01*
X76145404Y-101958190D01*
X77193023Y-102434380D02*
X77383500Y-102434380D01*
X77478738Y-102386761D01*
X77526357Y-102339142D01*
X77621595Y-102196285D01*
X77669214Y-102005809D01*
X77669214Y-101624857D01*
X77621595Y-101529619D01*
X77573976Y-101482000D01*
X77478738Y-101434380D01*
X77288261Y-101434380D01*
X77193023Y-101482000D01*
X77145404Y-101529619D01*
X77097785Y-101624857D01*
X77097785Y-101862952D01*
X77145404Y-101958190D01*
X77193023Y-102005809D01*
X77288261Y-102053428D01*
X77478738Y-102053428D01*
X77573976Y-102005809D01*
X77621595Y-101958190D01*
X77669214Y-101862952D01*
X67175142Y-109290380D02*
X66841809Y-108814190D01*
X66603714Y-109290380D02*
X66603714Y-108290380D01*
X66984666Y-108290380D01*
X67079904Y-108338000D01*
X67127523Y-108385619D01*
X67175142Y-108480857D01*
X67175142Y-108623714D01*
X67127523Y-108718952D01*
X67079904Y-108766571D01*
X66984666Y-108814190D01*
X66603714Y-108814190D01*
X68127523Y-109290380D02*
X67556095Y-109290380D01*
X67841809Y-109290380D02*
X67841809Y-108290380D01*
X67746571Y-108433238D01*
X67651333Y-108528476D01*
X67556095Y-108576095D01*
X68746571Y-108290380D02*
X68841809Y-108290380D01*
X68937047Y-108338000D01*
X68984666Y-108385619D01*
X69032285Y-108480857D01*
X69079904Y-108671333D01*
X69079904Y-108909428D01*
X69032285Y-109099904D01*
X68984666Y-109195142D01*
X68937047Y-109242761D01*
X68841809Y-109290380D01*
X68746571Y-109290380D01*
X68651333Y-109242761D01*
X68603714Y-109195142D01*
X68556095Y-109099904D01*
X68508476Y-108909428D01*
X68508476Y-108671333D01*
X68556095Y-108480857D01*
X68603714Y-108385619D01*
X68651333Y-108338000D01*
X68746571Y-108290380D01*
X105783142Y-109925380D02*
X105449809Y-109449190D01*
X105211714Y-109925380D02*
X105211714Y-108925380D01*
X105592666Y-108925380D01*
X105687904Y-108973000D01*
X105735523Y-109020619D01*
X105783142Y-109115857D01*
X105783142Y-109258714D01*
X105735523Y-109353952D01*
X105687904Y-109401571D01*
X105592666Y-109449190D01*
X105211714Y-109449190D01*
X106735523Y-109925380D02*
X106164095Y-109925380D01*
X106449809Y-109925380D02*
X106449809Y-108925380D01*
X106354571Y-109068238D01*
X106259333Y-109163476D01*
X106164095Y-109211095D01*
X107687904Y-109925380D02*
X107116476Y-109925380D01*
X107402190Y-109925380D02*
X107402190Y-108925380D01*
X107306952Y-109068238D01*
X107211714Y-109163476D01*
X107116476Y-109211095D01*
X91432142Y-104085380D02*
X91098809Y-103609190D01*
X90860714Y-104085380D02*
X90860714Y-103085380D01*
X91241666Y-103085380D01*
X91336904Y-103133000D01*
X91384523Y-103180619D01*
X91432142Y-103275857D01*
X91432142Y-103418714D01*
X91384523Y-103513952D01*
X91336904Y-103561571D01*
X91241666Y-103609190D01*
X90860714Y-103609190D01*
X92384523Y-104085380D02*
X91813095Y-104085380D01*
X92098809Y-104085380D02*
X92098809Y-103085380D01*
X92003571Y-103228238D01*
X91908333Y-103323476D01*
X91813095Y-103371095D01*
X92765476Y-103180619D02*
X92813095Y-103133000D01*
X92908333Y-103085380D01*
X93146428Y-103085380D01*
X93241666Y-103133000D01*
X93289285Y-103180619D01*
X93336904Y-103275857D01*
X93336904Y-103371095D01*
X93289285Y-103513952D01*
X92717857Y-104085380D01*
X93336904Y-104085380D01*
X52650380Y-99702857D02*
X52174190Y-100036190D01*
X52650380Y-100274285D02*
X51650380Y-100274285D01*
X51650380Y-99893333D01*
X51698000Y-99798095D01*
X51745619Y-99750476D01*
X51840857Y-99702857D01*
X51983714Y-99702857D01*
X52078952Y-99750476D01*
X52126571Y-99798095D01*
X52174190Y-99893333D01*
X52174190Y-100274285D01*
X52650380Y-98750476D02*
X52650380Y-99321904D01*
X52650380Y-99036190D02*
X51650380Y-99036190D01*
X51793238Y-99131428D01*
X51888476Y-99226666D01*
X51936095Y-99321904D01*
X51650380Y-98417142D02*
X51650380Y-97798095D01*
X52031333Y-98131428D01*
X52031333Y-97988571D01*
X52078952Y-97893333D01*
X52126571Y-97845714D01*
X52221809Y-97798095D01*
X52459904Y-97798095D01*
X52555142Y-97845714D01*
X52602761Y-97893333D01*
X52650380Y-97988571D01*
X52650380Y-98274285D01*
X52602761Y-98369523D01*
X52555142Y-98417142D01*
X108704142Y-98497380D02*
X108370809Y-98021190D01*
X108132714Y-98497380D02*
X108132714Y-97497380D01*
X108513666Y-97497380D01*
X108608904Y-97545000D01*
X108656523Y-97592619D01*
X108704142Y-97687857D01*
X108704142Y-97830714D01*
X108656523Y-97925952D01*
X108608904Y-97973571D01*
X108513666Y-98021190D01*
X108132714Y-98021190D01*
X109656523Y-98497380D02*
X109085095Y-98497380D01*
X109370809Y-98497380D02*
X109370809Y-97497380D01*
X109275571Y-97640238D01*
X109180333Y-97735476D01*
X109085095Y-97783095D01*
X110513666Y-97830714D02*
X110513666Y-98497380D01*
X110275571Y-97449761D02*
X110037476Y-98164047D01*
X110656523Y-98164047D01*
X73017142Y-94177380D02*
X72683809Y-93701190D01*
X72445714Y-94177380D02*
X72445714Y-93177380D01*
X72826666Y-93177380D01*
X72921904Y-93225000D01*
X72969523Y-93272619D01*
X73017142Y-93367857D01*
X73017142Y-93510714D01*
X72969523Y-93605952D01*
X72921904Y-93653571D01*
X72826666Y-93701190D01*
X72445714Y-93701190D01*
X73969523Y-94177380D02*
X73398095Y-94177380D01*
X73683809Y-94177380D02*
X73683809Y-93177380D01*
X73588571Y-93320238D01*
X73493333Y-93415476D01*
X73398095Y-93463095D01*
X74874285Y-93177380D02*
X74398095Y-93177380D01*
X74350476Y-93653571D01*
X74398095Y-93605952D01*
X74493333Y-93558333D01*
X74731428Y-93558333D01*
X74826666Y-93605952D01*
X74874285Y-93653571D01*
X74921904Y-93748809D01*
X74921904Y-93986904D01*
X74874285Y-94082142D01*
X74826666Y-94129761D01*
X74731428Y-94177380D01*
X74493333Y-94177380D01*
X74398095Y-94129761D01*
X74350476Y-94082142D01*
X91385380Y-94114857D02*
X90909190Y-94448190D01*
X91385380Y-94686285D02*
X90385380Y-94686285D01*
X90385380Y-94305333D01*
X90433000Y-94210095D01*
X90480619Y-94162476D01*
X90575857Y-94114857D01*
X90718714Y-94114857D01*
X90813952Y-94162476D01*
X90861571Y-94210095D01*
X90909190Y-94305333D01*
X90909190Y-94686285D01*
X91385380Y-93162476D02*
X91385380Y-93733904D01*
X91385380Y-93448190D02*
X90385380Y-93448190D01*
X90528238Y-93543428D01*
X90623476Y-93638666D01*
X90671095Y-93733904D01*
X90385380Y-92305333D02*
X90385380Y-92495809D01*
X90433000Y-92591047D01*
X90480619Y-92638666D01*
X90623476Y-92733904D01*
X90813952Y-92781523D01*
X91194904Y-92781523D01*
X91290142Y-92733904D01*
X91337761Y-92686285D01*
X91385380Y-92591047D01*
X91385380Y-92400571D01*
X91337761Y-92305333D01*
X91290142Y-92257714D01*
X91194904Y-92210095D01*
X90956809Y-92210095D01*
X90861571Y-92257714D01*
X90813952Y-92305333D01*
X90766333Y-92400571D01*
X90766333Y-92591047D01*
X90813952Y-92686285D01*
X90861571Y-92733904D01*
X90956809Y-92781523D01*
X75891380Y-96352357D02*
X75415190Y-96685690D01*
X75891380Y-96923785D02*
X74891380Y-96923785D01*
X74891380Y-96542833D01*
X74939000Y-96447595D01*
X74986619Y-96399976D01*
X75081857Y-96352357D01*
X75224714Y-96352357D01*
X75319952Y-96399976D01*
X75367571Y-96447595D01*
X75415190Y-96542833D01*
X75415190Y-96923785D01*
X75891380Y-95399976D02*
X75891380Y-95971404D01*
X75891380Y-95685690D02*
X74891380Y-95685690D01*
X75034238Y-95780928D01*
X75129476Y-95876166D01*
X75177095Y-95971404D01*
X74891380Y-95066642D02*
X74891380Y-94399976D01*
X75891380Y-94828547D01*
X91639380Y-97876357D02*
X91163190Y-98209690D01*
X91639380Y-98447785D02*
X90639380Y-98447785D01*
X90639380Y-98066833D01*
X90687000Y-97971595D01*
X90734619Y-97923976D01*
X90829857Y-97876357D01*
X90972714Y-97876357D01*
X91067952Y-97923976D01*
X91115571Y-97971595D01*
X91163190Y-98066833D01*
X91163190Y-98447785D01*
X91639380Y-96923976D02*
X91639380Y-97495404D01*
X91639380Y-97209690D02*
X90639380Y-97209690D01*
X90782238Y-97304928D01*
X90877476Y-97400166D01*
X90925095Y-97495404D01*
X91067952Y-96352547D02*
X91020333Y-96447785D01*
X90972714Y-96495404D01*
X90877476Y-96543023D01*
X90829857Y-96543023D01*
X90734619Y-96495404D01*
X90687000Y-96447785D01*
X90639380Y-96352547D01*
X90639380Y-96162071D01*
X90687000Y-96066833D01*
X90734619Y-96019214D01*
X90829857Y-95971595D01*
X90877476Y-95971595D01*
X90972714Y-96019214D01*
X91020333Y-96066833D01*
X91067952Y-96162071D01*
X91067952Y-96352547D01*
X91115571Y-96447785D01*
X91163190Y-96495404D01*
X91258428Y-96543023D01*
X91448904Y-96543023D01*
X91544142Y-96495404D01*
X91591761Y-96447785D01*
X91639380Y-96352547D01*
X91639380Y-96162071D01*
X91591761Y-96066833D01*
X91544142Y-96019214D01*
X91448904Y-95971595D01*
X91258428Y-95971595D01*
X91163190Y-96019214D01*
X91115571Y-96066833D01*
X91067952Y-96162071D01*
X75891380Y-100083857D02*
X75415190Y-100417190D01*
X75891380Y-100655285D02*
X74891380Y-100655285D01*
X74891380Y-100274333D01*
X74939000Y-100179095D01*
X74986619Y-100131476D01*
X75081857Y-100083857D01*
X75224714Y-100083857D01*
X75319952Y-100131476D01*
X75367571Y-100179095D01*
X75415190Y-100274333D01*
X75415190Y-100655285D01*
X75891380Y-99131476D02*
X75891380Y-99702904D01*
X75891380Y-99417190D02*
X74891380Y-99417190D01*
X75034238Y-99512428D01*
X75129476Y-99607666D01*
X75177095Y-99702904D01*
X75891380Y-98655285D02*
X75891380Y-98464809D01*
X75843761Y-98369571D01*
X75796142Y-98321952D01*
X75653285Y-98226714D01*
X75462809Y-98179095D01*
X75081857Y-98179095D01*
X74986619Y-98226714D01*
X74939000Y-98274333D01*
X74891380Y-98369571D01*
X74891380Y-98560047D01*
X74939000Y-98655285D01*
X74986619Y-98702904D01*
X75081857Y-98750523D01*
X75319952Y-98750523D01*
X75415190Y-98702904D01*
X75462809Y-98655285D01*
X75510428Y-98560047D01*
X75510428Y-98369571D01*
X75462809Y-98274333D01*
X75415190Y-98226714D01*
X75319952Y-98179095D01*
X107385380Y-100640357D02*
X106909190Y-100973690D01*
X107385380Y-101211785D02*
X106385380Y-101211785D01*
X106385380Y-100830833D01*
X106433000Y-100735595D01*
X106480619Y-100687976D01*
X106575857Y-100640357D01*
X106718714Y-100640357D01*
X106813952Y-100687976D01*
X106861571Y-100735595D01*
X106909190Y-100830833D01*
X106909190Y-101211785D01*
X106480619Y-100259404D02*
X106433000Y-100211785D01*
X106385380Y-100116547D01*
X106385380Y-99878452D01*
X106433000Y-99783214D01*
X106480619Y-99735595D01*
X106575857Y-99687976D01*
X106671095Y-99687976D01*
X106813952Y-99735595D01*
X107385380Y-100307023D01*
X107385380Y-99687976D01*
X106385380Y-99068928D02*
X106385380Y-98973690D01*
X106433000Y-98878452D01*
X106480619Y-98830833D01*
X106575857Y-98783214D01*
X106766333Y-98735595D01*
X107004428Y-98735595D01*
X107194904Y-98783214D01*
X107290142Y-98830833D01*
X107337761Y-98878452D01*
X107385380Y-98973690D01*
X107385380Y-99068928D01*
X107337761Y-99164166D01*
X107290142Y-99211785D01*
X107194904Y-99259404D01*
X107004428Y-99307023D01*
X106766333Y-99307023D01*
X106575857Y-99259404D01*
X106480619Y-99211785D01*
X106433000Y-99164166D01*
X106385380Y-99068928D01*
X98044095Y-93261380D02*
X98044095Y-94070904D01*
X98091714Y-94166142D01*
X98139333Y-94213761D01*
X98234571Y-94261380D01*
X98425047Y-94261380D01*
X98520285Y-94213761D01*
X98567904Y-94166142D01*
X98615523Y-94070904D01*
X98615523Y-93261380D01*
X98996476Y-93261380D02*
X99615523Y-93261380D01*
X99282190Y-93642333D01*
X99425047Y-93642333D01*
X99520285Y-93689952D01*
X99567904Y-93737571D01*
X99615523Y-93832809D01*
X99615523Y-94070904D01*
X99567904Y-94166142D01*
X99520285Y-94213761D01*
X99425047Y-94261380D01*
X99139333Y-94261380D01*
X99044095Y-94213761D01*
X98996476Y-94166142D01*
M02*
