M48
; DRILL file {KiCad (5.1.4-0-10_14)} date Tuesday, October 08, 2019 at 08:58:24 PM
; FORMAT={-:-/ absolute / inch / decimal}
; #@! TF.CreationDate,2019-10-08T20:58:24-07:00
; #@! TF.GenerationSoftware,Kicad,Pcbnew,(5.1.4-0-10_14)
; #@! TF.FileFunction,Plated,1,2,PTH
FMAT,2
INCH
T1C0.0394
T2C0.0480
T3C0.0559
T4C0.0563
T5C0.0787
T6C0.1181
T7C0.1260
T8C0.1260
%
G90
G05
T1
X3.64Y-2.6461
X3.7384Y-2.6461
X3.8369Y-2.6461
X3.64Y-3.4161
X3.7384Y-3.4161
X2.76Y-5.8961
X2.8584Y-5.8961
X2.9569Y-5.8961
X2.76Y-5.2761
X2.9569Y-5.2761
X4.06Y-4.25
X4.06Y-4.35
X4.06Y-4.45
X4.06Y-4.55
X4.06Y-4.65
X4.06Y-4.75
X4.06Y-4.85
X4.06Y-4.95
X4.06Y-5.05
X4.06Y-5.15
X4.06Y-5.25
X4.06Y-5.35
X3.8369Y-3.4161
X2.8584Y-5.2761
X2.76Y-2.6461
X2.8584Y-2.6461
X2.9569Y-2.6461
X2.76Y-3.4161
X2.8584Y-3.4161
X2.9569Y-3.4161
X2.76Y-4.6461
X2.8584Y-4.6461
X2.9569Y-4.6461
T2
X3.74Y-5.3461
X3.4861Y-3.725
X2.6061Y-3.725
X3.3461Y-6.1
X3.74Y-4.0961
X3.74Y-4.7261
T3
X2.7281Y-3.725
X3.4681Y-6.1
X3.74Y-4.2181
X3.74Y-4.8481
X3.74Y-5.4681
X3.6081Y-3.725
T4
X3.74Y-5.1749
X3.74Y-5.7949
X3.9349Y-3.725
X3.0549Y-3.725
X3.74Y-4.5449
X3.7949Y-6.1
T5
X3.5514Y-3.1208
X3.9254Y-3.1208
X2.6714Y-2.3508
X3.0454Y-2.3508
X2.6714Y-3.1208
X3.0454Y-3.1208
X2.6714Y-4.3508
X3.0454Y-4.3508
X2.6714Y-5.6008
X3.0454Y-5.6008
X3.5514Y-2.3508
X3.9254Y-2.3508
X2.6714Y-4.9808
X3.0454Y-4.9808
T6
X3.74Y-5.6
X3.74Y-3.725
X2.86Y-3.725
X3.6Y-6.1
X3.74Y-4.35
X3.74Y-4.98
T7
X4.05Y-3.4
X4.05Y-6.1
X3.17Y-3.4
T8
X2.65Y-6.1
T0
M30
