G04 #@! TF.GenerationSoftware,KiCad,Pcbnew,(5.1.4-0-10_14)*
G04 #@! TF.CreationDate,2019-10-08T20:59:58-07:00*
G04 #@! TF.ProjectId,VCO_IO,56434f5f-494f-42e6-9b69-6361645f7063,rev?*
G04 #@! TF.SameCoordinates,Original*
G04 #@! TF.FileFunction,Soldermask,Top*
G04 #@! TF.FilePolarity,Negative*
%FSLAX46Y46*%
G04 Gerber Fmt 4.6, Leading zero omitted, Abs format (unit mm)*
G04 Created by KiCad (PCBNEW (5.1.4-0-10_14)) date 2019-10-08 20:59:58*
%MOMM*%
%LPD*%
G04 APERTURE LIST*
%ADD10C,0.100000*%
G04 APERTURE END LIST*
D10*
G36*
X92946098Y-154265033D02*
G01*
X93307948Y-154414916D01*
X93410352Y-154457333D01*
X93828168Y-154736509D01*
X94183491Y-155091832D01*
X94339675Y-155325578D01*
X94462668Y-155509650D01*
X94654967Y-155973902D01*
X94753000Y-156466747D01*
X94753000Y-156969253D01*
X94654967Y-157462098D01*
X94462668Y-157926350D01*
X94462667Y-157926352D01*
X94183491Y-158344168D01*
X93828168Y-158699491D01*
X93410352Y-158978667D01*
X93410351Y-158978668D01*
X93410350Y-158978668D01*
X92946098Y-159170967D01*
X92453253Y-159269000D01*
X91950747Y-159269000D01*
X91457902Y-159170967D01*
X90993650Y-158978668D01*
X90993649Y-158978668D01*
X90993648Y-158978667D01*
X90575832Y-158699491D01*
X90220509Y-158344168D01*
X89941333Y-157926352D01*
X89941332Y-157926350D01*
X89749033Y-157462098D01*
X89651000Y-156969253D01*
X89651000Y-156466747D01*
X89749033Y-155973902D01*
X89941332Y-155509650D01*
X90064325Y-155325578D01*
X90220509Y-155091832D01*
X90575832Y-154736509D01*
X90993648Y-154457333D01*
X91096052Y-154414916D01*
X91457902Y-154265033D01*
X91950747Y-154167000D01*
X92453253Y-154167000D01*
X92946098Y-154265033D01*
X92946098Y-154265033D01*
G37*
G36*
X71356098Y-154265033D02*
G01*
X71717948Y-154414916D01*
X71820352Y-154457333D01*
X72238168Y-154736509D01*
X72593491Y-155091832D01*
X72749675Y-155325578D01*
X72872668Y-155509650D01*
X73064967Y-155973902D01*
X73163000Y-156466747D01*
X73163000Y-156969253D01*
X73064967Y-157462098D01*
X72872668Y-157926350D01*
X72872667Y-157926352D01*
X72593491Y-158344168D01*
X72238168Y-158699491D01*
X71820352Y-158978667D01*
X71820351Y-158978668D01*
X71820350Y-158978668D01*
X71356098Y-159170967D01*
X70863253Y-159269000D01*
X70360747Y-159269000D01*
X69867902Y-159170967D01*
X69403650Y-158978668D01*
X69403649Y-158978668D01*
X69403648Y-158978667D01*
X68985832Y-158699491D01*
X68630509Y-158344168D01*
X68351333Y-157926352D01*
X68351332Y-157926350D01*
X68159033Y-157462098D01*
X68061000Y-156969253D01*
X68061000Y-156466747D01*
X68159033Y-155973902D01*
X68351332Y-155509650D01*
X68474325Y-155325578D01*
X68630509Y-155091832D01*
X68985832Y-154736509D01*
X69403648Y-154457333D01*
X69506052Y-154414916D01*
X69867902Y-154265033D01*
X70360747Y-154167000D01*
X70863253Y-154167000D01*
X71356098Y-154265033D01*
X71356098Y-154265033D01*
G37*
G36*
X82746217Y-152711665D02*
G01*
X83016995Y-152765525D01*
X83308358Y-152886212D01*
X83570578Y-153061422D01*
X83793578Y-153284422D01*
X83968788Y-153546642D01*
X84089475Y-153838005D01*
X84151000Y-154147315D01*
X84151000Y-154462685D01*
X84089475Y-154771995D01*
X83968788Y-155063358D01*
X83793578Y-155325578D01*
X83570578Y-155548578D01*
X83308358Y-155723788D01*
X83016995Y-155844475D01*
X82746217Y-155898335D01*
X82707686Y-155906000D01*
X82392314Y-155906000D01*
X82353783Y-155898335D01*
X82083005Y-155844475D01*
X81791642Y-155723788D01*
X81529422Y-155548578D01*
X81306422Y-155325578D01*
X81131212Y-155063358D01*
X81010525Y-154771995D01*
X80949000Y-154462685D01*
X80949000Y-154147315D01*
X81010525Y-153838005D01*
X81131212Y-153546642D01*
X81306422Y-153284422D01*
X81529422Y-153061422D01*
X81791642Y-152886212D01*
X82083005Y-152765525D01*
X82353783Y-152711665D01*
X82392314Y-152704000D01*
X82707686Y-152704000D01*
X82746217Y-152711665D01*
X82746217Y-152711665D01*
G37*
G36*
X103066217Y-152711665D02*
G01*
X103336995Y-152765525D01*
X103628358Y-152886212D01*
X103890578Y-153061422D01*
X104113578Y-153284422D01*
X104288788Y-153546642D01*
X104409475Y-153838005D01*
X104471000Y-154147315D01*
X104471000Y-154462685D01*
X104409475Y-154771995D01*
X104288788Y-155063358D01*
X104113578Y-155325578D01*
X103890578Y-155548578D01*
X103628358Y-155723788D01*
X103336995Y-155844475D01*
X103066217Y-155898335D01*
X103027686Y-155906000D01*
X102712314Y-155906000D01*
X102673783Y-155898335D01*
X102403005Y-155844475D01*
X102111642Y-155723788D01*
X101849422Y-155548578D01*
X101626422Y-155325578D01*
X101451212Y-155063358D01*
X101330525Y-154771995D01*
X101269000Y-154462685D01*
X101269000Y-154147315D01*
X101330525Y-153838005D01*
X101451212Y-153546642D01*
X101626422Y-153284422D01*
X101849422Y-153061422D01*
X102111642Y-152886212D01*
X102403005Y-152765525D01*
X102673783Y-152711665D01*
X102712314Y-152704000D01*
X103027686Y-152704000D01*
X103066217Y-152711665D01*
X103066217Y-152711665D01*
G37*
G36*
X108073655Y-153217591D02*
G01*
X108145525Y-153231887D01*
X108348624Y-153316013D01*
X108531409Y-153438146D01*
X108686854Y-153593591D01*
X108808987Y-153776376D01*
X108893113Y-153979475D01*
X108936000Y-154195084D01*
X108936000Y-154414916D01*
X108893113Y-154630525D01*
X108808987Y-154833624D01*
X108686854Y-155016409D01*
X108531409Y-155171854D01*
X108348624Y-155293987D01*
X108145525Y-155378113D01*
X108073655Y-155392409D01*
X107929918Y-155421000D01*
X107710082Y-155421000D01*
X107566345Y-155392409D01*
X107494475Y-155378113D01*
X107291376Y-155293987D01*
X107108591Y-155171854D01*
X106953146Y-155016409D01*
X106831013Y-154833624D01*
X106746887Y-154630525D01*
X106704000Y-154414916D01*
X106704000Y-154195084D01*
X106746887Y-153979475D01*
X106831013Y-153776376D01*
X106953146Y-153593591D01*
X107108591Y-153438146D01*
X107291376Y-153316013D01*
X107494475Y-153231887D01*
X107566345Y-153217591D01*
X107710082Y-153189000D01*
X107929918Y-153189000D01*
X108073655Y-153217591D01*
X108073655Y-153217591D01*
G37*
G36*
X99773655Y-153217591D02*
G01*
X99845525Y-153231887D01*
X100048624Y-153316013D01*
X100231409Y-153438146D01*
X100386854Y-153593591D01*
X100508987Y-153776376D01*
X100593113Y-153979475D01*
X100636000Y-154195084D01*
X100636000Y-154414916D01*
X100593113Y-154630525D01*
X100508987Y-154833624D01*
X100386854Y-155016409D01*
X100231409Y-155171854D01*
X100048624Y-155293987D01*
X99845525Y-155378113D01*
X99773655Y-155392409D01*
X99629918Y-155421000D01*
X99410082Y-155421000D01*
X99266345Y-155392409D01*
X99194475Y-155378113D01*
X98991376Y-155293987D01*
X98808591Y-155171854D01*
X98653146Y-155016409D01*
X98531013Y-154833624D01*
X98446887Y-154630525D01*
X98404000Y-154414916D01*
X98404000Y-154195084D01*
X98446887Y-153979475D01*
X98531013Y-153776376D01*
X98653146Y-153593591D01*
X98808591Y-153438146D01*
X98991376Y-153316013D01*
X99194475Y-153231887D01*
X99266345Y-153217591D01*
X99410082Y-153189000D01*
X99629918Y-153189000D01*
X99773655Y-153217591D01*
X99773655Y-153217591D01*
G37*
G36*
X87753655Y-153217591D02*
G01*
X87825525Y-153231887D01*
X88028624Y-153316013D01*
X88211409Y-153438146D01*
X88366854Y-153593591D01*
X88488987Y-153776376D01*
X88573113Y-153979475D01*
X88616000Y-154195084D01*
X88616000Y-154414916D01*
X88573113Y-154630525D01*
X88488987Y-154833624D01*
X88366854Y-155016409D01*
X88211409Y-155171854D01*
X88028624Y-155293987D01*
X87825525Y-155378113D01*
X87753655Y-155392409D01*
X87609918Y-155421000D01*
X87390082Y-155421000D01*
X87246345Y-155392409D01*
X87174475Y-155378113D01*
X86971376Y-155293987D01*
X86788591Y-155171854D01*
X86633146Y-155016409D01*
X86511013Y-154833624D01*
X86426887Y-154630525D01*
X86384000Y-154414916D01*
X86384000Y-154195084D01*
X86426887Y-153979475D01*
X86511013Y-153776376D01*
X86633146Y-153593591D01*
X86788591Y-153438146D01*
X86971376Y-153316013D01*
X87174475Y-153231887D01*
X87246345Y-153217591D01*
X87390082Y-153189000D01*
X87609918Y-153189000D01*
X87753655Y-153217591D01*
X87753655Y-153217591D01*
G37*
G36*
X79453655Y-153217591D02*
G01*
X79525525Y-153231887D01*
X79728624Y-153316013D01*
X79911409Y-153438146D01*
X80066854Y-153593591D01*
X80188987Y-153776376D01*
X80273113Y-153979475D01*
X80316000Y-154195084D01*
X80316000Y-154414916D01*
X80273113Y-154630525D01*
X80188987Y-154833624D01*
X80066854Y-155016409D01*
X79911409Y-155171854D01*
X79728624Y-155293987D01*
X79525525Y-155378113D01*
X79453655Y-155392409D01*
X79309918Y-155421000D01*
X79090082Y-155421000D01*
X78946345Y-155392409D01*
X78874475Y-155378113D01*
X78671376Y-155293987D01*
X78488591Y-155171854D01*
X78333146Y-155016409D01*
X78211013Y-154833624D01*
X78126887Y-154630525D01*
X78084000Y-154414916D01*
X78084000Y-154195084D01*
X78126887Y-153979475D01*
X78211013Y-153776376D01*
X78333146Y-153593591D01*
X78488591Y-153438146D01*
X78671376Y-153316013D01*
X78874475Y-153231887D01*
X78946345Y-153217591D01*
X79090082Y-153189000D01*
X79309918Y-153189000D01*
X79453655Y-153217591D01*
X79453655Y-153217591D01*
G37*
G36*
X77066000Y-155321000D02*
G01*
X75134000Y-155321000D01*
X75134000Y-153289000D01*
X77066000Y-153289000D01*
X77066000Y-155321000D01*
X77066000Y-155321000D01*
G37*
G36*
X97386000Y-155321000D02*
G01*
X95454000Y-155321000D01*
X95454000Y-153289000D01*
X97386000Y-153289000D01*
X97386000Y-155321000D01*
X97386000Y-155321000D01*
G37*
G36*
X71230442Y-150489518D02*
G01*
X71296627Y-150496037D01*
X71466466Y-150547557D01*
X71622991Y-150631222D01*
X71658729Y-150660552D01*
X71760186Y-150743814D01*
X71843448Y-150845271D01*
X71872778Y-150881009D01*
X71956443Y-151037534D01*
X72007963Y-151207373D01*
X72025359Y-151384000D01*
X72007963Y-151560627D01*
X71956443Y-151730466D01*
X71872778Y-151886991D01*
X71843448Y-151922729D01*
X71760186Y-152024186D01*
X71658729Y-152107448D01*
X71622991Y-152136778D01*
X71466466Y-152220443D01*
X71296627Y-152271963D01*
X71230443Y-152278481D01*
X71164260Y-152285000D01*
X71075740Y-152285000D01*
X71009557Y-152278481D01*
X70943373Y-152271963D01*
X70773534Y-152220443D01*
X70617009Y-152136778D01*
X70581271Y-152107448D01*
X70479814Y-152024186D01*
X70396552Y-151922729D01*
X70367222Y-151886991D01*
X70283557Y-151730466D01*
X70232037Y-151560627D01*
X70214641Y-151384000D01*
X70232037Y-151207373D01*
X70283557Y-151037534D01*
X70367222Y-150881009D01*
X70396552Y-150845271D01*
X70479814Y-150743814D01*
X70581271Y-150660552D01*
X70617009Y-150631222D01*
X70773534Y-150547557D01*
X70943373Y-150496037D01*
X71009558Y-150489518D01*
X71075740Y-150483000D01*
X71164260Y-150483000D01*
X71230442Y-150489518D01*
X71230442Y-150489518D01*
G37*
G36*
X71230442Y-147949518D02*
G01*
X71296627Y-147956037D01*
X71466466Y-148007557D01*
X71622991Y-148091222D01*
X71658729Y-148120552D01*
X71760186Y-148203814D01*
X71843448Y-148305271D01*
X71872778Y-148341009D01*
X71956443Y-148497534D01*
X72007963Y-148667373D01*
X72025359Y-148844000D01*
X72007963Y-149020627D01*
X71956443Y-149190466D01*
X71872778Y-149346991D01*
X71843448Y-149382729D01*
X71760186Y-149484186D01*
X71658729Y-149567448D01*
X71622991Y-149596778D01*
X71466466Y-149680443D01*
X71296627Y-149731963D01*
X71230442Y-149738482D01*
X71164260Y-149745000D01*
X71075740Y-149745000D01*
X71009558Y-149738482D01*
X70943373Y-149731963D01*
X70773534Y-149680443D01*
X70617009Y-149596778D01*
X70581271Y-149567448D01*
X70479814Y-149484186D01*
X70396552Y-149382729D01*
X70367222Y-149346991D01*
X70283557Y-149190466D01*
X70232037Y-149020627D01*
X70214641Y-148844000D01*
X70232037Y-148667373D01*
X70283557Y-148497534D01*
X70367222Y-148341009D01*
X70396552Y-148305271D01*
X70479814Y-148203814D01*
X70581271Y-148120552D01*
X70617009Y-148091222D01*
X70773534Y-148007557D01*
X70943373Y-147956037D01*
X71009558Y-147949518D01*
X71075740Y-147943000D01*
X71164260Y-147943000D01*
X71230442Y-147949518D01*
X71230442Y-147949518D01*
G37*
G36*
X71230443Y-145409519D02*
G01*
X71296627Y-145416037D01*
X71466466Y-145467557D01*
X71622991Y-145551222D01*
X71658729Y-145580552D01*
X71760186Y-145663814D01*
X71827633Y-145746000D01*
X71872778Y-145801009D01*
X71956443Y-145957534D01*
X72007963Y-146127373D01*
X72025359Y-146304000D01*
X72007963Y-146480627D01*
X71956443Y-146650466D01*
X71872778Y-146806991D01*
X71843448Y-146842729D01*
X71760186Y-146944186D01*
X71658729Y-147027448D01*
X71622991Y-147056778D01*
X71466466Y-147140443D01*
X71296627Y-147191963D01*
X71230442Y-147198482D01*
X71164260Y-147205000D01*
X71075740Y-147205000D01*
X71009558Y-147198482D01*
X70943373Y-147191963D01*
X70773534Y-147140443D01*
X70617009Y-147056778D01*
X70581271Y-147027448D01*
X70479814Y-146944186D01*
X70396552Y-146842729D01*
X70367222Y-146806991D01*
X70283557Y-146650466D01*
X70232037Y-146480627D01*
X70214641Y-146304000D01*
X70232037Y-146127373D01*
X70283557Y-145957534D01*
X70367222Y-145801009D01*
X70412367Y-145746000D01*
X70479814Y-145663814D01*
X70581271Y-145580552D01*
X70617009Y-145551222D01*
X70773534Y-145467557D01*
X70943373Y-145416037D01*
X71009557Y-145409519D01*
X71075740Y-145403000D01*
X71164260Y-145403000D01*
X71230443Y-145409519D01*
X71230443Y-145409519D01*
G37*
G36*
X103066217Y-142551665D02*
G01*
X103336995Y-142605525D01*
X103628358Y-142726212D01*
X103890578Y-142901422D01*
X104113578Y-143124422D01*
X104288788Y-143386642D01*
X104409475Y-143678005D01*
X104471000Y-143987315D01*
X104471000Y-144302685D01*
X104409475Y-144611995D01*
X104288788Y-144903358D01*
X104113578Y-145165578D01*
X103890578Y-145388578D01*
X103628358Y-145563788D01*
X103336995Y-145684475D01*
X103066217Y-145738335D01*
X103027686Y-145746000D01*
X102712314Y-145746000D01*
X102673783Y-145738335D01*
X102403005Y-145684475D01*
X102111642Y-145563788D01*
X101849422Y-145388578D01*
X101626422Y-145165578D01*
X101451212Y-144903358D01*
X101330525Y-144611995D01*
X101269000Y-144302685D01*
X101269000Y-143987315D01*
X101330525Y-143678005D01*
X101451212Y-143386642D01*
X101626422Y-143124422D01*
X101849422Y-142901422D01*
X102111642Y-142726212D01*
X102403005Y-142605525D01*
X102673783Y-142551665D01*
X102712314Y-142544000D01*
X103027686Y-142544000D01*
X103066217Y-142551665D01*
X103066217Y-142551665D01*
G37*
G36*
X82746217Y-142551665D02*
G01*
X83016995Y-142605525D01*
X83308358Y-142726212D01*
X83570578Y-142901422D01*
X83793578Y-143124422D01*
X83968788Y-143386642D01*
X84089475Y-143678005D01*
X84151000Y-143987315D01*
X84151000Y-144302685D01*
X84089475Y-144611995D01*
X83968788Y-144903358D01*
X83793578Y-145165578D01*
X83570578Y-145388578D01*
X83308358Y-145563788D01*
X83016995Y-145684475D01*
X82746217Y-145738335D01*
X82707686Y-145746000D01*
X82392314Y-145746000D01*
X82353783Y-145738335D01*
X82083005Y-145684475D01*
X81791642Y-145563788D01*
X81529422Y-145388578D01*
X81306422Y-145165578D01*
X81131212Y-144903358D01*
X81010525Y-144611995D01*
X80949000Y-144302685D01*
X80949000Y-143987315D01*
X81010525Y-143678005D01*
X81131212Y-143386642D01*
X81306422Y-143124422D01*
X81529422Y-142901422D01*
X81791642Y-142726212D01*
X82083005Y-142605525D01*
X82353783Y-142551665D01*
X82392314Y-142544000D01*
X82707686Y-142544000D01*
X82746217Y-142551665D01*
X82746217Y-142551665D01*
G37*
G36*
X99773655Y-143057591D02*
G01*
X99845525Y-143071887D01*
X100048624Y-143156013D01*
X100231409Y-143278146D01*
X100386854Y-143433591D01*
X100508987Y-143616376D01*
X100593113Y-143819475D01*
X100593113Y-143819476D01*
X100636000Y-144035082D01*
X100636000Y-144254918D01*
X100626498Y-144302685D01*
X100593113Y-144470525D01*
X100508987Y-144673624D01*
X100386854Y-144856409D01*
X100231409Y-145011854D01*
X100048624Y-145133987D01*
X99845525Y-145218113D01*
X99773655Y-145232409D01*
X99629918Y-145261000D01*
X99410082Y-145261000D01*
X99266345Y-145232409D01*
X99194475Y-145218113D01*
X98991376Y-145133987D01*
X98808591Y-145011854D01*
X98653146Y-144856409D01*
X98531013Y-144673624D01*
X98446887Y-144470525D01*
X98413502Y-144302685D01*
X98404000Y-144254918D01*
X98404000Y-144035082D01*
X98446887Y-143819476D01*
X98446887Y-143819475D01*
X98531013Y-143616376D01*
X98653146Y-143433591D01*
X98808591Y-143278146D01*
X98991376Y-143156013D01*
X99194475Y-143071887D01*
X99266345Y-143057591D01*
X99410082Y-143029000D01*
X99629918Y-143029000D01*
X99773655Y-143057591D01*
X99773655Y-143057591D01*
G37*
G36*
X108073655Y-143057591D02*
G01*
X108145525Y-143071887D01*
X108348624Y-143156013D01*
X108531409Y-143278146D01*
X108686854Y-143433591D01*
X108808987Y-143616376D01*
X108893113Y-143819475D01*
X108893113Y-143819476D01*
X108936000Y-144035082D01*
X108936000Y-144254918D01*
X108926498Y-144302685D01*
X108893113Y-144470525D01*
X108808987Y-144673624D01*
X108686854Y-144856409D01*
X108531409Y-145011854D01*
X108348624Y-145133987D01*
X108145525Y-145218113D01*
X108073655Y-145232409D01*
X107929918Y-145261000D01*
X107710082Y-145261000D01*
X107566345Y-145232409D01*
X107494475Y-145218113D01*
X107291376Y-145133987D01*
X107108591Y-145011854D01*
X106953146Y-144856409D01*
X106831013Y-144673624D01*
X106746887Y-144470525D01*
X106713502Y-144302685D01*
X106704000Y-144254918D01*
X106704000Y-144035082D01*
X106746887Y-143819476D01*
X106746887Y-143819475D01*
X106831013Y-143616376D01*
X106953146Y-143433591D01*
X107108591Y-143278146D01*
X107291376Y-143156013D01*
X107494475Y-143071887D01*
X107566345Y-143057591D01*
X107710082Y-143029000D01*
X107929918Y-143029000D01*
X108073655Y-143057591D01*
X108073655Y-143057591D01*
G37*
G36*
X87753655Y-143057591D02*
G01*
X87825525Y-143071887D01*
X88028624Y-143156013D01*
X88211409Y-143278146D01*
X88366854Y-143433591D01*
X88488987Y-143616376D01*
X88573113Y-143819475D01*
X88573113Y-143819476D01*
X88616000Y-144035082D01*
X88616000Y-144254918D01*
X88606498Y-144302685D01*
X88573113Y-144470525D01*
X88488987Y-144673624D01*
X88366854Y-144856409D01*
X88211409Y-145011854D01*
X88028624Y-145133987D01*
X87825525Y-145218113D01*
X87753655Y-145232409D01*
X87609918Y-145261000D01*
X87390082Y-145261000D01*
X87246345Y-145232409D01*
X87174475Y-145218113D01*
X86971376Y-145133987D01*
X86788591Y-145011854D01*
X86633146Y-144856409D01*
X86511013Y-144673624D01*
X86426887Y-144470525D01*
X86393502Y-144302685D01*
X86384000Y-144254918D01*
X86384000Y-144035082D01*
X86426887Y-143819476D01*
X86426887Y-143819475D01*
X86511013Y-143616376D01*
X86633146Y-143433591D01*
X86788591Y-143278146D01*
X86971376Y-143156013D01*
X87174475Y-143071887D01*
X87246345Y-143057591D01*
X87390082Y-143029000D01*
X87609918Y-143029000D01*
X87753655Y-143057591D01*
X87753655Y-143057591D01*
G37*
G36*
X79453655Y-143057591D02*
G01*
X79525525Y-143071887D01*
X79728624Y-143156013D01*
X79911409Y-143278146D01*
X80066854Y-143433591D01*
X80188987Y-143616376D01*
X80273113Y-143819475D01*
X80273113Y-143819476D01*
X80316000Y-144035082D01*
X80316000Y-144254918D01*
X80306498Y-144302685D01*
X80273113Y-144470525D01*
X80188987Y-144673624D01*
X80066854Y-144856409D01*
X79911409Y-145011854D01*
X79728624Y-145133987D01*
X79525525Y-145218113D01*
X79453655Y-145232409D01*
X79309918Y-145261000D01*
X79090082Y-145261000D01*
X78946345Y-145232409D01*
X78874475Y-145218113D01*
X78671376Y-145133987D01*
X78488591Y-145011854D01*
X78333146Y-144856409D01*
X78211013Y-144673624D01*
X78126887Y-144470525D01*
X78093502Y-144302685D01*
X78084000Y-144254918D01*
X78084000Y-144035082D01*
X78126887Y-143819476D01*
X78126887Y-143819475D01*
X78211013Y-143616376D01*
X78333146Y-143433591D01*
X78488591Y-143278146D01*
X78671376Y-143156013D01*
X78874475Y-143071887D01*
X78946345Y-143057591D01*
X79090082Y-143029000D01*
X79309918Y-143029000D01*
X79453655Y-143057591D01*
X79453655Y-143057591D01*
G37*
G36*
X97386000Y-145161000D02*
G01*
X95454000Y-145161000D01*
X95454000Y-143129000D01*
X97386000Y-143129000D01*
X97386000Y-145161000D01*
X97386000Y-145161000D01*
G37*
G36*
X77066000Y-145161000D02*
G01*
X75134000Y-145161000D01*
X75134000Y-143129000D01*
X77066000Y-143129000D01*
X77066000Y-145161000D01*
X77066000Y-145161000D01*
G37*
G36*
X71230443Y-142869519D02*
G01*
X71296627Y-142876037D01*
X71466466Y-142927557D01*
X71622991Y-143011222D01*
X71644653Y-143029000D01*
X71760186Y-143123814D01*
X71843448Y-143225271D01*
X71872778Y-143261009D01*
X71956443Y-143417534D01*
X72007963Y-143587373D01*
X72025359Y-143764000D01*
X72007963Y-143940627D01*
X71956443Y-144110466D01*
X71872778Y-144266991D01*
X71843484Y-144302685D01*
X71760186Y-144404186D01*
X71679350Y-144470525D01*
X71622991Y-144516778D01*
X71466466Y-144600443D01*
X71296627Y-144651963D01*
X71230442Y-144658482D01*
X71164260Y-144665000D01*
X71075740Y-144665000D01*
X71009558Y-144658482D01*
X70943373Y-144651963D01*
X70773534Y-144600443D01*
X70617009Y-144516778D01*
X70560650Y-144470525D01*
X70479814Y-144404186D01*
X70396516Y-144302685D01*
X70367222Y-144266991D01*
X70283557Y-144110466D01*
X70232037Y-143940627D01*
X70214641Y-143764000D01*
X70232037Y-143587373D01*
X70283557Y-143417534D01*
X70367222Y-143261009D01*
X70396552Y-143225271D01*
X70479814Y-143123814D01*
X70595347Y-143029000D01*
X70617009Y-143011222D01*
X70773534Y-142927557D01*
X70943373Y-142876037D01*
X71009557Y-142869519D01*
X71075740Y-142863000D01*
X71164260Y-142863000D01*
X71230443Y-142869519D01*
X71230443Y-142869519D01*
G37*
G36*
X71230442Y-140329518D02*
G01*
X71296627Y-140336037D01*
X71466466Y-140387557D01*
X71622991Y-140471222D01*
X71658729Y-140500552D01*
X71760186Y-140583814D01*
X71843448Y-140685271D01*
X71872778Y-140721009D01*
X71956443Y-140877534D01*
X72007963Y-141047373D01*
X72025359Y-141224000D01*
X72007963Y-141400627D01*
X71956443Y-141570466D01*
X71872778Y-141726991D01*
X71843448Y-141762729D01*
X71760186Y-141864186D01*
X71658729Y-141947448D01*
X71622991Y-141976778D01*
X71466466Y-142060443D01*
X71296627Y-142111963D01*
X71230443Y-142118481D01*
X71164260Y-142125000D01*
X71075740Y-142125000D01*
X71009557Y-142118481D01*
X70943373Y-142111963D01*
X70773534Y-142060443D01*
X70617009Y-141976778D01*
X70581271Y-141947448D01*
X70479814Y-141864186D01*
X70396552Y-141762729D01*
X70367222Y-141726991D01*
X70283557Y-141570466D01*
X70232037Y-141400627D01*
X70214641Y-141224000D01*
X70232037Y-141047373D01*
X70283557Y-140877534D01*
X70367222Y-140721009D01*
X70396552Y-140685271D01*
X70479814Y-140583814D01*
X70581271Y-140500552D01*
X70617009Y-140471222D01*
X70773534Y-140387557D01*
X70943373Y-140336037D01*
X71009558Y-140329518D01*
X71075740Y-140323000D01*
X71164260Y-140323000D01*
X71230442Y-140329518D01*
X71230442Y-140329518D01*
G37*
G36*
X71230443Y-137789519D02*
G01*
X71296627Y-137796037D01*
X71466466Y-137847557D01*
X71622991Y-137931222D01*
X71658729Y-137960552D01*
X71760186Y-138043814D01*
X71843448Y-138145271D01*
X71872778Y-138181009D01*
X71956443Y-138337534D01*
X72007963Y-138507373D01*
X72025359Y-138684000D01*
X72007963Y-138860627D01*
X71956443Y-139030466D01*
X71872778Y-139186991D01*
X71843448Y-139222729D01*
X71760186Y-139324186D01*
X71658729Y-139407448D01*
X71622991Y-139436778D01*
X71466466Y-139520443D01*
X71296627Y-139571963D01*
X71230443Y-139578481D01*
X71164260Y-139585000D01*
X71075740Y-139585000D01*
X71009557Y-139578481D01*
X70943373Y-139571963D01*
X70773534Y-139520443D01*
X70617009Y-139436778D01*
X70581271Y-139407448D01*
X70479814Y-139324186D01*
X70396552Y-139222729D01*
X70367222Y-139186991D01*
X70283557Y-139030466D01*
X70232037Y-138860627D01*
X70214641Y-138684000D01*
X70232037Y-138507373D01*
X70283557Y-138337534D01*
X70367222Y-138181009D01*
X70396552Y-138145271D01*
X70479814Y-138043814D01*
X70581271Y-137960552D01*
X70617009Y-137931222D01*
X70773534Y-137847557D01*
X70943373Y-137796037D01*
X71009557Y-137789519D01*
X71075740Y-137783000D01*
X71164260Y-137783000D01*
X71230443Y-137789519D01*
X71230443Y-137789519D01*
G37*
G36*
X71230443Y-135249519D02*
G01*
X71296627Y-135256037D01*
X71466466Y-135307557D01*
X71622991Y-135391222D01*
X71658729Y-135420552D01*
X71760186Y-135503814D01*
X71827633Y-135586000D01*
X71872778Y-135641009D01*
X71956443Y-135797534D01*
X72007963Y-135967373D01*
X72025359Y-136144000D01*
X72007963Y-136320627D01*
X71956443Y-136490466D01*
X71872778Y-136646991D01*
X71843448Y-136682729D01*
X71760186Y-136784186D01*
X71658729Y-136867448D01*
X71622991Y-136896778D01*
X71466466Y-136980443D01*
X71296627Y-137031963D01*
X71230443Y-137038481D01*
X71164260Y-137045000D01*
X71075740Y-137045000D01*
X71009557Y-137038481D01*
X70943373Y-137031963D01*
X70773534Y-136980443D01*
X70617009Y-136896778D01*
X70581271Y-136867448D01*
X70479814Y-136784186D01*
X70396552Y-136682729D01*
X70367222Y-136646991D01*
X70283557Y-136490466D01*
X70232037Y-136320627D01*
X70214641Y-136144000D01*
X70232037Y-135967373D01*
X70283557Y-135797534D01*
X70367222Y-135641009D01*
X70412367Y-135586000D01*
X70479814Y-135503814D01*
X70581271Y-135420552D01*
X70617009Y-135391222D01*
X70773534Y-135307557D01*
X70943373Y-135256037D01*
X71009557Y-135249519D01*
X71075740Y-135243000D01*
X71164260Y-135243000D01*
X71230443Y-135249519D01*
X71230443Y-135249519D01*
G37*
G36*
X82746217Y-132391665D02*
G01*
X83016995Y-132445525D01*
X83308358Y-132566212D01*
X83570578Y-132741422D01*
X83793578Y-132964422D01*
X83968788Y-133226642D01*
X84089475Y-133518005D01*
X84151000Y-133827315D01*
X84151000Y-134142685D01*
X84089475Y-134451995D01*
X83968788Y-134743358D01*
X83793578Y-135005578D01*
X83570578Y-135228578D01*
X83308358Y-135403788D01*
X83016995Y-135524475D01*
X82746217Y-135578335D01*
X82707686Y-135586000D01*
X82392314Y-135586000D01*
X82353783Y-135578335D01*
X82083005Y-135524475D01*
X81791642Y-135403788D01*
X81529422Y-135228578D01*
X81306422Y-135005578D01*
X81131212Y-134743358D01*
X81010525Y-134451995D01*
X80949000Y-134142685D01*
X80949000Y-133827315D01*
X81010525Y-133518005D01*
X81131212Y-133226642D01*
X81306422Y-132964422D01*
X81529422Y-132741422D01*
X81791642Y-132566212D01*
X82083005Y-132445525D01*
X82353783Y-132391665D01*
X82392314Y-132384000D01*
X82707686Y-132384000D01*
X82746217Y-132391665D01*
X82746217Y-132391665D01*
G37*
G36*
X103066217Y-132391665D02*
G01*
X103336995Y-132445525D01*
X103628358Y-132566212D01*
X103890578Y-132741422D01*
X104113578Y-132964422D01*
X104288788Y-133226642D01*
X104409475Y-133518005D01*
X104471000Y-133827315D01*
X104471000Y-134142685D01*
X104409475Y-134451995D01*
X104288788Y-134743358D01*
X104113578Y-135005578D01*
X103890578Y-135228578D01*
X103628358Y-135403788D01*
X103336995Y-135524475D01*
X103066217Y-135578335D01*
X103027686Y-135586000D01*
X102712314Y-135586000D01*
X102673783Y-135578335D01*
X102403005Y-135524475D01*
X102111642Y-135403788D01*
X101849422Y-135228578D01*
X101626422Y-135005578D01*
X101451212Y-134743358D01*
X101330525Y-134451995D01*
X101269000Y-134142685D01*
X101269000Y-133827315D01*
X101330525Y-133518005D01*
X101451212Y-133226642D01*
X101626422Y-132964422D01*
X101849422Y-132741422D01*
X102111642Y-132566212D01*
X102403005Y-132445525D01*
X102673783Y-132391665D01*
X102712314Y-132384000D01*
X103027686Y-132384000D01*
X103066217Y-132391665D01*
X103066217Y-132391665D01*
G37*
G36*
X108073655Y-132897591D02*
G01*
X108145525Y-132911887D01*
X108348624Y-132996013D01*
X108531409Y-133118146D01*
X108686854Y-133273591D01*
X108808987Y-133456376D01*
X108893113Y-133659475D01*
X108893113Y-133659476D01*
X108936000Y-133875082D01*
X108936000Y-134094918D01*
X108926498Y-134142685D01*
X108893113Y-134310525D01*
X108808987Y-134513624D01*
X108686854Y-134696409D01*
X108531409Y-134851854D01*
X108348624Y-134973987D01*
X108145525Y-135058113D01*
X108073655Y-135072409D01*
X107929918Y-135101000D01*
X107710082Y-135101000D01*
X107566345Y-135072409D01*
X107494475Y-135058113D01*
X107291376Y-134973987D01*
X107108591Y-134851854D01*
X106953146Y-134696409D01*
X106831013Y-134513624D01*
X106746887Y-134310525D01*
X106713502Y-134142685D01*
X106704000Y-134094918D01*
X106704000Y-133875082D01*
X106746887Y-133659476D01*
X106746887Y-133659475D01*
X106831013Y-133456376D01*
X106953146Y-133273591D01*
X107108591Y-133118146D01*
X107291376Y-132996013D01*
X107494475Y-132911887D01*
X107566345Y-132897591D01*
X107710082Y-132869000D01*
X107929918Y-132869000D01*
X108073655Y-132897591D01*
X108073655Y-132897591D01*
G37*
G36*
X87753655Y-132897591D02*
G01*
X87825525Y-132911887D01*
X88028624Y-132996013D01*
X88211409Y-133118146D01*
X88366854Y-133273591D01*
X88488987Y-133456376D01*
X88573113Y-133659475D01*
X88573113Y-133659476D01*
X88616000Y-133875082D01*
X88616000Y-134094918D01*
X88606498Y-134142685D01*
X88573113Y-134310525D01*
X88488987Y-134513624D01*
X88366854Y-134696409D01*
X88211409Y-134851854D01*
X88028624Y-134973987D01*
X87825525Y-135058113D01*
X87753655Y-135072409D01*
X87609918Y-135101000D01*
X87390082Y-135101000D01*
X87246345Y-135072409D01*
X87174475Y-135058113D01*
X86971376Y-134973987D01*
X86788591Y-134851854D01*
X86633146Y-134696409D01*
X86511013Y-134513624D01*
X86426887Y-134310525D01*
X86393502Y-134142685D01*
X86384000Y-134094918D01*
X86384000Y-133875082D01*
X86426887Y-133659476D01*
X86426887Y-133659475D01*
X86511013Y-133456376D01*
X86633146Y-133273591D01*
X86788591Y-133118146D01*
X86971376Y-132996013D01*
X87174475Y-132911887D01*
X87246345Y-132897591D01*
X87390082Y-132869000D01*
X87609918Y-132869000D01*
X87753655Y-132897591D01*
X87753655Y-132897591D01*
G37*
G36*
X79453655Y-132897591D02*
G01*
X79525525Y-132911887D01*
X79728624Y-132996013D01*
X79911409Y-133118146D01*
X80066854Y-133273591D01*
X80188987Y-133456376D01*
X80273113Y-133659475D01*
X80273113Y-133659476D01*
X80316000Y-133875082D01*
X80316000Y-134094918D01*
X80306498Y-134142685D01*
X80273113Y-134310525D01*
X80188987Y-134513624D01*
X80066854Y-134696409D01*
X79911409Y-134851854D01*
X79728624Y-134973987D01*
X79525525Y-135058113D01*
X79453655Y-135072409D01*
X79309918Y-135101000D01*
X79090082Y-135101000D01*
X78946345Y-135072409D01*
X78874475Y-135058113D01*
X78671376Y-134973987D01*
X78488591Y-134851854D01*
X78333146Y-134696409D01*
X78211013Y-134513624D01*
X78126887Y-134310525D01*
X78093502Y-134142685D01*
X78084000Y-134094918D01*
X78084000Y-133875082D01*
X78126887Y-133659476D01*
X78126887Y-133659475D01*
X78211013Y-133456376D01*
X78333146Y-133273591D01*
X78488591Y-133118146D01*
X78671376Y-132996013D01*
X78874475Y-132911887D01*
X78946345Y-132897591D01*
X79090082Y-132869000D01*
X79309918Y-132869000D01*
X79453655Y-132897591D01*
X79453655Y-132897591D01*
G37*
G36*
X99773655Y-132897591D02*
G01*
X99845525Y-132911887D01*
X100048624Y-132996013D01*
X100231409Y-133118146D01*
X100386854Y-133273591D01*
X100508987Y-133456376D01*
X100593113Y-133659475D01*
X100593113Y-133659476D01*
X100636000Y-133875082D01*
X100636000Y-134094918D01*
X100626498Y-134142685D01*
X100593113Y-134310525D01*
X100508987Y-134513624D01*
X100386854Y-134696409D01*
X100231409Y-134851854D01*
X100048624Y-134973987D01*
X99845525Y-135058113D01*
X99773655Y-135072409D01*
X99629918Y-135101000D01*
X99410082Y-135101000D01*
X99266345Y-135072409D01*
X99194475Y-135058113D01*
X98991376Y-134973987D01*
X98808591Y-134851854D01*
X98653146Y-134696409D01*
X98531013Y-134513624D01*
X98446887Y-134310525D01*
X98413502Y-134142685D01*
X98404000Y-134094918D01*
X98404000Y-133875082D01*
X98446887Y-133659476D01*
X98446887Y-133659475D01*
X98531013Y-133456376D01*
X98653146Y-133273591D01*
X98808591Y-133118146D01*
X98991376Y-132996013D01*
X99194475Y-132911887D01*
X99266345Y-132897591D01*
X99410082Y-132869000D01*
X99629918Y-132869000D01*
X99773655Y-132897591D01*
X99773655Y-132897591D01*
G37*
G36*
X97386000Y-135001000D02*
G01*
X95454000Y-135001000D01*
X95454000Y-132969000D01*
X97386000Y-132969000D01*
X97386000Y-135001000D01*
X97386000Y-135001000D01*
G37*
G36*
X77066000Y-135001000D02*
G01*
X75134000Y-135001000D01*
X75134000Y-132969000D01*
X77066000Y-132969000D01*
X77066000Y-135001000D01*
X77066000Y-135001000D01*
G37*
G36*
X71230442Y-132709518D02*
G01*
X71296627Y-132716037D01*
X71466466Y-132767557D01*
X71622991Y-132851222D01*
X71644653Y-132869000D01*
X71760186Y-132963814D01*
X71843448Y-133065271D01*
X71872778Y-133101009D01*
X71956443Y-133257534D01*
X72007963Y-133427373D01*
X72025359Y-133604000D01*
X72007963Y-133780627D01*
X71956443Y-133950466D01*
X71872778Y-134106991D01*
X71843484Y-134142685D01*
X71760186Y-134244186D01*
X71679350Y-134310525D01*
X71622991Y-134356778D01*
X71466466Y-134440443D01*
X71296627Y-134491963D01*
X71230442Y-134498482D01*
X71164260Y-134505000D01*
X71075740Y-134505000D01*
X71009558Y-134498482D01*
X70943373Y-134491963D01*
X70773534Y-134440443D01*
X70617009Y-134356778D01*
X70560650Y-134310525D01*
X70479814Y-134244186D01*
X70396516Y-134142685D01*
X70367222Y-134106991D01*
X70283557Y-133950466D01*
X70232037Y-133780627D01*
X70214641Y-133604000D01*
X70232037Y-133427373D01*
X70283557Y-133257534D01*
X70367222Y-133101009D01*
X70396552Y-133065271D01*
X70479814Y-132963814D01*
X70595347Y-132869000D01*
X70617009Y-132851222D01*
X70773534Y-132767557D01*
X70943373Y-132716037D01*
X71009558Y-132709518D01*
X71075740Y-132703000D01*
X71164260Y-132703000D01*
X71230442Y-132709518D01*
X71230442Y-132709518D01*
G37*
G36*
X71230442Y-130169518D02*
G01*
X71296627Y-130176037D01*
X71466466Y-130227557D01*
X71622991Y-130311222D01*
X71658729Y-130340552D01*
X71760186Y-130423814D01*
X71843448Y-130525271D01*
X71872778Y-130561009D01*
X71956443Y-130717534D01*
X72007963Y-130887373D01*
X72025359Y-131064000D01*
X72007963Y-131240627D01*
X71956443Y-131410466D01*
X71872778Y-131566991D01*
X71843448Y-131602729D01*
X71760186Y-131704186D01*
X71658729Y-131787448D01*
X71622991Y-131816778D01*
X71466466Y-131900443D01*
X71296627Y-131951963D01*
X71230443Y-131958481D01*
X71164260Y-131965000D01*
X71075740Y-131965000D01*
X71009557Y-131958481D01*
X70943373Y-131951963D01*
X70773534Y-131900443D01*
X70617009Y-131816778D01*
X70581271Y-131787448D01*
X70479814Y-131704186D01*
X70396552Y-131602729D01*
X70367222Y-131566991D01*
X70283557Y-131410466D01*
X70232037Y-131240627D01*
X70214641Y-131064000D01*
X70232037Y-130887373D01*
X70283557Y-130717534D01*
X70367222Y-130561009D01*
X70396552Y-130525271D01*
X70479814Y-130423814D01*
X70581271Y-130340552D01*
X70617009Y-130311222D01*
X70773534Y-130227557D01*
X70943373Y-130176037D01*
X71009558Y-130169518D01*
X71075740Y-130163000D01*
X71164260Y-130163000D01*
X71230442Y-130169518D01*
X71230442Y-130169518D01*
G37*
G36*
X71230442Y-127629518D02*
G01*
X71296627Y-127636037D01*
X71466466Y-127687557D01*
X71622991Y-127771222D01*
X71658729Y-127800552D01*
X71760186Y-127883814D01*
X71843448Y-127985271D01*
X71872778Y-128021009D01*
X71956443Y-128177534D01*
X72007963Y-128347373D01*
X72025359Y-128524000D01*
X72007963Y-128700627D01*
X71956443Y-128870466D01*
X71872778Y-129026991D01*
X71843448Y-129062729D01*
X71760186Y-129164186D01*
X71658729Y-129247448D01*
X71622991Y-129276778D01*
X71466466Y-129360443D01*
X71296627Y-129411963D01*
X71230443Y-129418481D01*
X71164260Y-129425000D01*
X71075740Y-129425000D01*
X71009557Y-129418481D01*
X70943373Y-129411963D01*
X70773534Y-129360443D01*
X70617009Y-129276778D01*
X70581271Y-129247448D01*
X70479814Y-129164186D01*
X70396552Y-129062729D01*
X70367222Y-129026991D01*
X70283557Y-128870466D01*
X70232037Y-128700627D01*
X70214641Y-128524000D01*
X70232037Y-128347373D01*
X70283557Y-128177534D01*
X70367222Y-128021009D01*
X70396552Y-127985271D01*
X70479814Y-127883814D01*
X70581271Y-127800552D01*
X70617009Y-127771222D01*
X70773534Y-127687557D01*
X70943373Y-127636037D01*
X71009558Y-127629518D01*
X71075740Y-127623000D01*
X71164260Y-127623000D01*
X71230442Y-127629518D01*
X71230442Y-127629518D01*
G37*
G36*
X71230442Y-125089518D02*
G01*
X71296627Y-125096037D01*
X71466466Y-125147557D01*
X71622991Y-125231222D01*
X71658729Y-125260552D01*
X71760186Y-125343814D01*
X71827633Y-125426000D01*
X71872778Y-125481009D01*
X71956443Y-125637534D01*
X72007963Y-125807373D01*
X72025359Y-125984000D01*
X72007963Y-126160627D01*
X71956443Y-126330466D01*
X71872778Y-126486991D01*
X71843448Y-126522729D01*
X71760186Y-126624186D01*
X71658729Y-126707448D01*
X71622991Y-126736778D01*
X71466466Y-126820443D01*
X71296627Y-126871963D01*
X71230442Y-126878482D01*
X71164260Y-126885000D01*
X71075740Y-126885000D01*
X71009558Y-126878482D01*
X70943373Y-126871963D01*
X70773534Y-126820443D01*
X70617009Y-126736778D01*
X70581271Y-126707448D01*
X70479814Y-126624186D01*
X70396552Y-126522729D01*
X70367222Y-126486991D01*
X70283557Y-126330466D01*
X70232037Y-126160627D01*
X70214641Y-125984000D01*
X70232037Y-125807373D01*
X70283557Y-125637534D01*
X70367222Y-125481009D01*
X70412367Y-125426000D01*
X70479814Y-125343814D01*
X70581271Y-125260552D01*
X70617009Y-125231222D01*
X70773534Y-125147557D01*
X70943373Y-125096037D01*
X71009558Y-125089518D01*
X71075740Y-125083000D01*
X71164260Y-125083000D01*
X71230442Y-125089518D01*
X71230442Y-125089518D01*
G37*
G36*
X82746217Y-122231665D02*
G01*
X83016995Y-122285525D01*
X83308358Y-122406212D01*
X83570578Y-122581422D01*
X83793578Y-122804422D01*
X83968788Y-123066642D01*
X84089475Y-123358005D01*
X84151000Y-123667315D01*
X84151000Y-123982685D01*
X84089475Y-124291995D01*
X83968788Y-124583358D01*
X83793578Y-124845578D01*
X83570578Y-125068578D01*
X83308358Y-125243788D01*
X83016995Y-125364475D01*
X82746217Y-125418335D01*
X82707686Y-125426000D01*
X82392314Y-125426000D01*
X82353783Y-125418335D01*
X82083005Y-125364475D01*
X81791642Y-125243788D01*
X81529422Y-125068578D01*
X81306422Y-124845578D01*
X81131212Y-124583358D01*
X81010525Y-124291995D01*
X80949000Y-123982685D01*
X80949000Y-123667315D01*
X81010525Y-123358005D01*
X81131212Y-123066642D01*
X81306422Y-122804422D01*
X81529422Y-122581422D01*
X81791642Y-122406212D01*
X82083005Y-122285525D01*
X82353783Y-122231665D01*
X82392314Y-122224000D01*
X82707686Y-122224000D01*
X82746217Y-122231665D01*
X82746217Y-122231665D01*
G37*
G36*
X103066217Y-122231665D02*
G01*
X103336995Y-122285525D01*
X103628358Y-122406212D01*
X103890578Y-122581422D01*
X104113578Y-122804422D01*
X104288788Y-123066642D01*
X104409475Y-123358005D01*
X104471000Y-123667315D01*
X104471000Y-123982685D01*
X104409475Y-124291995D01*
X104288788Y-124583358D01*
X104113578Y-124845578D01*
X103890578Y-125068578D01*
X103628358Y-125243788D01*
X103336995Y-125364475D01*
X103066217Y-125418335D01*
X103027686Y-125426000D01*
X102712314Y-125426000D01*
X102673783Y-125418335D01*
X102403005Y-125364475D01*
X102111642Y-125243788D01*
X101849422Y-125068578D01*
X101626422Y-124845578D01*
X101451212Y-124583358D01*
X101330525Y-124291995D01*
X101269000Y-123982685D01*
X101269000Y-123667315D01*
X101330525Y-123358005D01*
X101451212Y-123066642D01*
X101626422Y-122804422D01*
X101849422Y-122581422D01*
X102111642Y-122406212D01*
X102403005Y-122285525D01*
X102673783Y-122231665D01*
X102712314Y-122224000D01*
X103027686Y-122224000D01*
X103066217Y-122231665D01*
X103066217Y-122231665D01*
G37*
G36*
X79453655Y-122737591D02*
G01*
X79525525Y-122751887D01*
X79728624Y-122836013D01*
X79911409Y-122958146D01*
X80066854Y-123113591D01*
X80188987Y-123296376D01*
X80273113Y-123499475D01*
X80273113Y-123499476D01*
X80316000Y-123715082D01*
X80316000Y-123934918D01*
X80306498Y-123982685D01*
X80273113Y-124150525D01*
X80188987Y-124353624D01*
X80066854Y-124536409D01*
X79911409Y-124691854D01*
X79728624Y-124813987D01*
X79525525Y-124898113D01*
X79453655Y-124912409D01*
X79309918Y-124941000D01*
X79090082Y-124941000D01*
X78946345Y-124912409D01*
X78874475Y-124898113D01*
X78671376Y-124813987D01*
X78488591Y-124691854D01*
X78333146Y-124536409D01*
X78211013Y-124353624D01*
X78126887Y-124150525D01*
X78093502Y-123982685D01*
X78084000Y-123934918D01*
X78084000Y-123715082D01*
X78126887Y-123499476D01*
X78126887Y-123499475D01*
X78211013Y-123296376D01*
X78333146Y-123113591D01*
X78488591Y-122958146D01*
X78671376Y-122836013D01*
X78874475Y-122751887D01*
X78946345Y-122737591D01*
X79090082Y-122709000D01*
X79309918Y-122709000D01*
X79453655Y-122737591D01*
X79453655Y-122737591D01*
G37*
G36*
X87753655Y-122737591D02*
G01*
X87825525Y-122751887D01*
X88028624Y-122836013D01*
X88211409Y-122958146D01*
X88366854Y-123113591D01*
X88488987Y-123296376D01*
X88573113Y-123499475D01*
X88573113Y-123499476D01*
X88616000Y-123715082D01*
X88616000Y-123934918D01*
X88606498Y-123982685D01*
X88573113Y-124150525D01*
X88488987Y-124353624D01*
X88366854Y-124536409D01*
X88211409Y-124691854D01*
X88028624Y-124813987D01*
X87825525Y-124898113D01*
X87753655Y-124912409D01*
X87609918Y-124941000D01*
X87390082Y-124941000D01*
X87246345Y-124912409D01*
X87174475Y-124898113D01*
X86971376Y-124813987D01*
X86788591Y-124691854D01*
X86633146Y-124536409D01*
X86511013Y-124353624D01*
X86426887Y-124150525D01*
X86393502Y-123982685D01*
X86384000Y-123934918D01*
X86384000Y-123715082D01*
X86426887Y-123499476D01*
X86426887Y-123499475D01*
X86511013Y-123296376D01*
X86633146Y-123113591D01*
X86788591Y-122958146D01*
X86971376Y-122836013D01*
X87174475Y-122751887D01*
X87246345Y-122737591D01*
X87390082Y-122709000D01*
X87609918Y-122709000D01*
X87753655Y-122737591D01*
X87753655Y-122737591D01*
G37*
G36*
X99773655Y-122737591D02*
G01*
X99845525Y-122751887D01*
X100048624Y-122836013D01*
X100231409Y-122958146D01*
X100386854Y-123113591D01*
X100508987Y-123296376D01*
X100593113Y-123499475D01*
X100593113Y-123499476D01*
X100636000Y-123715082D01*
X100636000Y-123934918D01*
X100626498Y-123982685D01*
X100593113Y-124150525D01*
X100508987Y-124353624D01*
X100386854Y-124536409D01*
X100231409Y-124691854D01*
X100048624Y-124813987D01*
X99845525Y-124898113D01*
X99773655Y-124912409D01*
X99629918Y-124941000D01*
X99410082Y-124941000D01*
X99266345Y-124912409D01*
X99194475Y-124898113D01*
X98991376Y-124813987D01*
X98808591Y-124691854D01*
X98653146Y-124536409D01*
X98531013Y-124353624D01*
X98446887Y-124150525D01*
X98413502Y-123982685D01*
X98404000Y-123934918D01*
X98404000Y-123715082D01*
X98446887Y-123499476D01*
X98446887Y-123499475D01*
X98531013Y-123296376D01*
X98653146Y-123113591D01*
X98808591Y-122958146D01*
X98991376Y-122836013D01*
X99194475Y-122751887D01*
X99266345Y-122737591D01*
X99410082Y-122709000D01*
X99629918Y-122709000D01*
X99773655Y-122737591D01*
X99773655Y-122737591D01*
G37*
G36*
X108073655Y-122737591D02*
G01*
X108145525Y-122751887D01*
X108348624Y-122836013D01*
X108531409Y-122958146D01*
X108686854Y-123113591D01*
X108808987Y-123296376D01*
X108893113Y-123499475D01*
X108893113Y-123499476D01*
X108936000Y-123715082D01*
X108936000Y-123934918D01*
X108926498Y-123982685D01*
X108893113Y-124150525D01*
X108808987Y-124353624D01*
X108686854Y-124536409D01*
X108531409Y-124691854D01*
X108348624Y-124813987D01*
X108145525Y-124898113D01*
X108073655Y-124912409D01*
X107929918Y-124941000D01*
X107710082Y-124941000D01*
X107566345Y-124912409D01*
X107494475Y-124898113D01*
X107291376Y-124813987D01*
X107108591Y-124691854D01*
X106953146Y-124536409D01*
X106831013Y-124353624D01*
X106746887Y-124150525D01*
X106713502Y-123982685D01*
X106704000Y-123934918D01*
X106704000Y-123715082D01*
X106746887Y-123499476D01*
X106746887Y-123499475D01*
X106831013Y-123296376D01*
X106953146Y-123113591D01*
X107108591Y-122958146D01*
X107291376Y-122836013D01*
X107494475Y-122751887D01*
X107566345Y-122737591D01*
X107710082Y-122709000D01*
X107929918Y-122709000D01*
X108073655Y-122737591D01*
X108073655Y-122737591D01*
G37*
G36*
X97386000Y-124841000D02*
G01*
X95454000Y-124841000D01*
X95454000Y-122809000D01*
X97386000Y-122809000D01*
X97386000Y-124841000D01*
X97386000Y-124841000D01*
G37*
G36*
X77066000Y-124841000D02*
G01*
X75134000Y-124841000D01*
X75134000Y-122809000D01*
X77066000Y-122809000D01*
X77066000Y-124841000D01*
X77066000Y-124841000D01*
G37*
G36*
X71230443Y-122549519D02*
G01*
X71296627Y-122556037D01*
X71466466Y-122607557D01*
X71622991Y-122691222D01*
X71644653Y-122709000D01*
X71760186Y-122803814D01*
X71843448Y-122905271D01*
X71872778Y-122941009D01*
X71956443Y-123097534D01*
X72007963Y-123267373D01*
X72025359Y-123444000D01*
X72007963Y-123620627D01*
X71956443Y-123790466D01*
X71872778Y-123946991D01*
X71843484Y-123982685D01*
X71760186Y-124084186D01*
X71679350Y-124150525D01*
X71622991Y-124196778D01*
X71466466Y-124280443D01*
X71296627Y-124331963D01*
X71230442Y-124338482D01*
X71164260Y-124345000D01*
X71075740Y-124345000D01*
X71009558Y-124338482D01*
X70943373Y-124331963D01*
X70773534Y-124280443D01*
X70617009Y-124196778D01*
X70560650Y-124150525D01*
X70479814Y-124084186D01*
X70396516Y-123982685D01*
X70367222Y-123946991D01*
X70283557Y-123790466D01*
X70232037Y-123620627D01*
X70214641Y-123444000D01*
X70232037Y-123267373D01*
X70283557Y-123097534D01*
X70367222Y-122941009D01*
X70396552Y-122905271D01*
X70479814Y-122803814D01*
X70595347Y-122709000D01*
X70617009Y-122691222D01*
X70773534Y-122607557D01*
X70943373Y-122556037D01*
X71009557Y-122549519D01*
X71075740Y-122543000D01*
X71164260Y-122543000D01*
X71230443Y-122549519D01*
X71230443Y-122549519D01*
G37*
G36*
X71230443Y-120009519D02*
G01*
X71296627Y-120016037D01*
X71466466Y-120067557D01*
X71622991Y-120151222D01*
X71658729Y-120180552D01*
X71760186Y-120263814D01*
X71843448Y-120365271D01*
X71872778Y-120401009D01*
X71956443Y-120557534D01*
X72007963Y-120727373D01*
X72025359Y-120904000D01*
X72007963Y-121080627D01*
X71956443Y-121250466D01*
X71872778Y-121406991D01*
X71843448Y-121442729D01*
X71760186Y-121544186D01*
X71658729Y-121627448D01*
X71622991Y-121656778D01*
X71466466Y-121740443D01*
X71296627Y-121791963D01*
X71230442Y-121798482D01*
X71164260Y-121805000D01*
X71075740Y-121805000D01*
X71009558Y-121798482D01*
X70943373Y-121791963D01*
X70773534Y-121740443D01*
X70617009Y-121656778D01*
X70581271Y-121627448D01*
X70479814Y-121544186D01*
X70396552Y-121442729D01*
X70367222Y-121406991D01*
X70283557Y-121250466D01*
X70232037Y-121080627D01*
X70214641Y-120904000D01*
X70232037Y-120727373D01*
X70283557Y-120557534D01*
X70367222Y-120401009D01*
X70396552Y-120365271D01*
X70479814Y-120263814D01*
X70581271Y-120180552D01*
X70617009Y-120151222D01*
X70773534Y-120067557D01*
X70943373Y-120016037D01*
X71009557Y-120009519D01*
X71075740Y-120003000D01*
X71164260Y-120003000D01*
X71230443Y-120009519D01*
X71230443Y-120009519D01*
G37*
G36*
X72021000Y-119265000D02*
G01*
X70219000Y-119265000D01*
X70219000Y-117463000D01*
X72021000Y-117463000D01*
X72021000Y-119265000D01*
X72021000Y-119265000D01*
G37*
G36*
X103066217Y-112071665D02*
G01*
X103336995Y-112125525D01*
X103628358Y-112246212D01*
X103890578Y-112421422D01*
X104113578Y-112644422D01*
X104288788Y-112906642D01*
X104409475Y-113198005D01*
X104471000Y-113507315D01*
X104471000Y-113822685D01*
X104409475Y-114131995D01*
X104288788Y-114423358D01*
X104113578Y-114685578D01*
X103890578Y-114908578D01*
X103628358Y-115083788D01*
X103336995Y-115204475D01*
X103066217Y-115258335D01*
X103027686Y-115266000D01*
X102712314Y-115266000D01*
X102673783Y-115258335D01*
X102403005Y-115204475D01*
X102111642Y-115083788D01*
X101849422Y-114908578D01*
X101626422Y-114685578D01*
X101451212Y-114423358D01*
X101330525Y-114131995D01*
X101269000Y-113822685D01*
X101269000Y-113507315D01*
X101330525Y-113198005D01*
X101451212Y-112906642D01*
X101626422Y-112644422D01*
X101849422Y-112421422D01*
X102111642Y-112246212D01*
X102403005Y-112125525D01*
X102673783Y-112071665D01*
X102712314Y-112064000D01*
X103027686Y-112064000D01*
X103066217Y-112071665D01*
X103066217Y-112071665D01*
G37*
G36*
X82746217Y-112071665D02*
G01*
X83016995Y-112125525D01*
X83308358Y-112246212D01*
X83570578Y-112421422D01*
X83793578Y-112644422D01*
X83968788Y-112906642D01*
X84089475Y-113198005D01*
X84151000Y-113507315D01*
X84151000Y-113822685D01*
X84089475Y-114131995D01*
X83968788Y-114423358D01*
X83793578Y-114685578D01*
X83570578Y-114908578D01*
X83308358Y-115083788D01*
X83016995Y-115204475D01*
X82746217Y-115258335D01*
X82707686Y-115266000D01*
X82392314Y-115266000D01*
X82353783Y-115258335D01*
X82083005Y-115204475D01*
X81791642Y-115083788D01*
X81529422Y-114908578D01*
X81306422Y-114685578D01*
X81131212Y-114423358D01*
X81010525Y-114131995D01*
X80949000Y-113822685D01*
X80949000Y-113507315D01*
X81010525Y-113198005D01*
X81131212Y-112906642D01*
X81306422Y-112644422D01*
X81529422Y-112421422D01*
X81791642Y-112246212D01*
X82083005Y-112125525D01*
X82353783Y-112071665D01*
X82392314Y-112064000D01*
X82707686Y-112064000D01*
X82746217Y-112071665D01*
X82746217Y-112071665D01*
G37*
G36*
X108073655Y-112577591D02*
G01*
X108145525Y-112591887D01*
X108348624Y-112676013D01*
X108531409Y-112798146D01*
X108686854Y-112953591D01*
X108808987Y-113136376D01*
X108893113Y-113339475D01*
X108936000Y-113555084D01*
X108936000Y-113774916D01*
X108893113Y-113990525D01*
X108808987Y-114193624D01*
X108686854Y-114376409D01*
X108531409Y-114531854D01*
X108348624Y-114653987D01*
X108145525Y-114738113D01*
X108073655Y-114752409D01*
X107929918Y-114781000D01*
X107710082Y-114781000D01*
X107566345Y-114752409D01*
X107494475Y-114738113D01*
X107291376Y-114653987D01*
X107108591Y-114531854D01*
X106953146Y-114376409D01*
X106831013Y-114193624D01*
X106746887Y-113990525D01*
X106704000Y-113774916D01*
X106704000Y-113555084D01*
X106746887Y-113339475D01*
X106831013Y-113136376D01*
X106953146Y-112953591D01*
X107108591Y-112798146D01*
X107291376Y-112676013D01*
X107494475Y-112591887D01*
X107566345Y-112577591D01*
X107710082Y-112549000D01*
X107929918Y-112549000D01*
X108073655Y-112577591D01*
X108073655Y-112577591D01*
G37*
G36*
X87753655Y-112577591D02*
G01*
X87825525Y-112591887D01*
X88028624Y-112676013D01*
X88211409Y-112798146D01*
X88366854Y-112953591D01*
X88488987Y-113136376D01*
X88573113Y-113339475D01*
X88616000Y-113555084D01*
X88616000Y-113774916D01*
X88573113Y-113990525D01*
X88488987Y-114193624D01*
X88366854Y-114376409D01*
X88211409Y-114531854D01*
X88028624Y-114653987D01*
X87825525Y-114738113D01*
X87753655Y-114752409D01*
X87609918Y-114781000D01*
X87390082Y-114781000D01*
X87246345Y-114752409D01*
X87174475Y-114738113D01*
X86971376Y-114653987D01*
X86788591Y-114531854D01*
X86633146Y-114376409D01*
X86511013Y-114193624D01*
X86426887Y-113990525D01*
X86384000Y-113774916D01*
X86384000Y-113555084D01*
X86426887Y-113339475D01*
X86511013Y-113136376D01*
X86633146Y-112953591D01*
X86788591Y-112798146D01*
X86971376Y-112676013D01*
X87174475Y-112591887D01*
X87246345Y-112577591D01*
X87390082Y-112549000D01*
X87609918Y-112549000D01*
X87753655Y-112577591D01*
X87753655Y-112577591D01*
G37*
G36*
X79453655Y-112577591D02*
G01*
X79525525Y-112591887D01*
X79728624Y-112676013D01*
X79911409Y-112798146D01*
X80066854Y-112953591D01*
X80188987Y-113136376D01*
X80273113Y-113339475D01*
X80316000Y-113555084D01*
X80316000Y-113774916D01*
X80273113Y-113990525D01*
X80188987Y-114193624D01*
X80066854Y-114376409D01*
X79911409Y-114531854D01*
X79728624Y-114653987D01*
X79525525Y-114738113D01*
X79453655Y-114752409D01*
X79309918Y-114781000D01*
X79090082Y-114781000D01*
X78946345Y-114752409D01*
X78874475Y-114738113D01*
X78671376Y-114653987D01*
X78488591Y-114531854D01*
X78333146Y-114376409D01*
X78211013Y-114193624D01*
X78126887Y-113990525D01*
X78084000Y-113774916D01*
X78084000Y-113555084D01*
X78126887Y-113339475D01*
X78211013Y-113136376D01*
X78333146Y-112953591D01*
X78488591Y-112798146D01*
X78671376Y-112676013D01*
X78874475Y-112591887D01*
X78946345Y-112577591D01*
X79090082Y-112549000D01*
X79309918Y-112549000D01*
X79453655Y-112577591D01*
X79453655Y-112577591D01*
G37*
G36*
X99773655Y-112577591D02*
G01*
X99845525Y-112591887D01*
X100048624Y-112676013D01*
X100231409Y-112798146D01*
X100386854Y-112953591D01*
X100508987Y-113136376D01*
X100593113Y-113339475D01*
X100636000Y-113555084D01*
X100636000Y-113774916D01*
X100593113Y-113990525D01*
X100508987Y-114193624D01*
X100386854Y-114376409D01*
X100231409Y-114531854D01*
X100048624Y-114653987D01*
X99845525Y-114738113D01*
X99773655Y-114752409D01*
X99629918Y-114781000D01*
X99410082Y-114781000D01*
X99266345Y-114752409D01*
X99194475Y-114738113D01*
X98991376Y-114653987D01*
X98808591Y-114531854D01*
X98653146Y-114376409D01*
X98531013Y-114193624D01*
X98446887Y-113990525D01*
X98404000Y-113774916D01*
X98404000Y-113555084D01*
X98446887Y-113339475D01*
X98531013Y-113136376D01*
X98653146Y-112953591D01*
X98808591Y-112798146D01*
X98991376Y-112676013D01*
X99194475Y-112591887D01*
X99266345Y-112577591D01*
X99410082Y-112549000D01*
X99629918Y-112549000D01*
X99773655Y-112577591D01*
X99773655Y-112577591D01*
G37*
G36*
X77066000Y-114681000D02*
G01*
X75134000Y-114681000D01*
X75134000Y-112649000D01*
X77066000Y-112649000D01*
X77066000Y-114681000D01*
X77066000Y-114681000D01*
G37*
G36*
X97386000Y-114681000D02*
G01*
X95454000Y-114681000D01*
X95454000Y-112649000D01*
X97386000Y-112649000D01*
X97386000Y-114681000D01*
X97386000Y-114681000D01*
G37*
G36*
X103671823Y-105841313D02*
G01*
X103832242Y-105889976D01*
X103964906Y-105960886D01*
X103980078Y-105968996D01*
X104109659Y-106075341D01*
X104216004Y-106204922D01*
X104216005Y-106204924D01*
X104295024Y-106352758D01*
X104343687Y-106513177D01*
X104360117Y-106680000D01*
X104343687Y-106846823D01*
X104295024Y-107007242D01*
X104224114Y-107139906D01*
X104216004Y-107155078D01*
X104109659Y-107284659D01*
X103980078Y-107391004D01*
X103980076Y-107391005D01*
X103832242Y-107470024D01*
X103671823Y-107518687D01*
X103546804Y-107531000D01*
X103463196Y-107531000D01*
X103338177Y-107518687D01*
X103177758Y-107470024D01*
X103029924Y-107391005D01*
X103029922Y-107391004D01*
X102900341Y-107284659D01*
X102793996Y-107155078D01*
X102785886Y-107139906D01*
X102714976Y-107007242D01*
X102666313Y-106846823D01*
X102649883Y-106680000D01*
X102666313Y-106513177D01*
X102714976Y-106352758D01*
X102793995Y-106204924D01*
X102793996Y-106204922D01*
X102900341Y-106075341D01*
X103029922Y-105968996D01*
X103045094Y-105960886D01*
X103177758Y-105889976D01*
X103338177Y-105841313D01*
X103463196Y-105829000D01*
X103546804Y-105829000D01*
X103671823Y-105841313D01*
X103671823Y-105841313D01*
G37*
G36*
X101131823Y-105841313D02*
G01*
X101292242Y-105889976D01*
X101424906Y-105960886D01*
X101440078Y-105968996D01*
X101569659Y-106075341D01*
X101676004Y-106204922D01*
X101676005Y-106204924D01*
X101755024Y-106352758D01*
X101803687Y-106513177D01*
X101820117Y-106680000D01*
X101803687Y-106846823D01*
X101755024Y-107007242D01*
X101684114Y-107139906D01*
X101676004Y-107155078D01*
X101569659Y-107284659D01*
X101440078Y-107391004D01*
X101440076Y-107391005D01*
X101292242Y-107470024D01*
X101131823Y-107518687D01*
X101006804Y-107531000D01*
X100923196Y-107531000D01*
X100798177Y-107518687D01*
X100637758Y-107470024D01*
X100489924Y-107391005D01*
X100489922Y-107391004D01*
X100360341Y-107284659D01*
X100253996Y-107155078D01*
X100245886Y-107139906D01*
X100174976Y-107007242D01*
X100126313Y-106846823D01*
X100109883Y-106680000D01*
X100126313Y-106513177D01*
X100174976Y-106352758D01*
X100253995Y-106204924D01*
X100253996Y-106204922D01*
X100360341Y-106075341D01*
X100489922Y-105968996D01*
X100505094Y-105960886D01*
X100637758Y-105889976D01*
X100798177Y-105841313D01*
X100923196Y-105829000D01*
X101006804Y-105829000D01*
X101131823Y-105841313D01*
X101131823Y-105841313D01*
G37*
G36*
X106211823Y-105841313D02*
G01*
X106372242Y-105889976D01*
X106504906Y-105960886D01*
X106520078Y-105968996D01*
X106649659Y-106075341D01*
X106756004Y-106204922D01*
X106756005Y-106204924D01*
X106835024Y-106352758D01*
X106883687Y-106513177D01*
X106900117Y-106680000D01*
X106883687Y-106846823D01*
X106835024Y-107007242D01*
X106764114Y-107139906D01*
X106756004Y-107155078D01*
X106649659Y-107284659D01*
X106520078Y-107391004D01*
X106520076Y-107391005D01*
X106372242Y-107470024D01*
X106211823Y-107518687D01*
X106086804Y-107531000D01*
X106003196Y-107531000D01*
X105878177Y-107518687D01*
X105717758Y-107470024D01*
X105569924Y-107391005D01*
X105569922Y-107391004D01*
X105440341Y-107284659D01*
X105333996Y-107155078D01*
X105325886Y-107139906D01*
X105254976Y-107007242D01*
X105206313Y-106846823D01*
X105189883Y-106680000D01*
X105206313Y-106513177D01*
X105254976Y-106352758D01*
X105333995Y-106204924D01*
X105333996Y-106204922D01*
X105440341Y-106075341D01*
X105569922Y-105968996D01*
X105585094Y-105960886D01*
X105717758Y-105889976D01*
X105878177Y-105841313D01*
X106003196Y-105829000D01*
X106086804Y-105829000D01*
X106211823Y-105841313D01*
X106211823Y-105841313D01*
G37*
G36*
X99276000Y-107531000D02*
G01*
X97574000Y-107531000D01*
X97574000Y-105829000D01*
X99276000Y-105829000D01*
X99276000Y-107531000D01*
X99276000Y-107531000D01*
G37*
G36*
X89096217Y-101276665D02*
G01*
X89366995Y-101330525D01*
X89658358Y-101451212D01*
X89920578Y-101626422D01*
X90143578Y-101849422D01*
X90318788Y-102111642D01*
X90439475Y-102403005D01*
X90501000Y-102712315D01*
X90501000Y-103027685D01*
X90439475Y-103336995D01*
X90318788Y-103628358D01*
X90143578Y-103890578D01*
X89920578Y-104113578D01*
X89658358Y-104288788D01*
X89366995Y-104409475D01*
X89096217Y-104463335D01*
X89057686Y-104471000D01*
X88742314Y-104471000D01*
X88703783Y-104463335D01*
X88433005Y-104409475D01*
X88141642Y-104288788D01*
X87879422Y-104113578D01*
X87656422Y-103890578D01*
X87481212Y-103628358D01*
X87360525Y-103336995D01*
X87299000Y-103027685D01*
X87299000Y-102712315D01*
X87360525Y-102403005D01*
X87481212Y-102111642D01*
X87656422Y-101849422D01*
X87879422Y-101626422D01*
X88141642Y-101451212D01*
X88433005Y-101330525D01*
X88703783Y-101276665D01*
X88742314Y-101269000D01*
X89057686Y-101269000D01*
X89096217Y-101276665D01*
X89096217Y-101276665D01*
G37*
G36*
X94103655Y-101782591D02*
G01*
X94175525Y-101796887D01*
X94378624Y-101881013D01*
X94561409Y-102003146D01*
X94716854Y-102158591D01*
X94838987Y-102341376D01*
X94923113Y-102544475D01*
X94966000Y-102760084D01*
X94966000Y-102979916D01*
X94923113Y-103195525D01*
X94838987Y-103398624D01*
X94716854Y-103581409D01*
X94561409Y-103736854D01*
X94378624Y-103858987D01*
X94175525Y-103943113D01*
X94103655Y-103957409D01*
X93959918Y-103986000D01*
X93740082Y-103986000D01*
X93596345Y-103957409D01*
X93524475Y-103943113D01*
X93321376Y-103858987D01*
X93138591Y-103736854D01*
X92983146Y-103581409D01*
X92861013Y-103398624D01*
X92776887Y-103195525D01*
X92734000Y-102979916D01*
X92734000Y-102760084D01*
X92776887Y-102544475D01*
X92861013Y-102341376D01*
X92983146Y-102158591D01*
X93138591Y-102003146D01*
X93321376Y-101881013D01*
X93524475Y-101796887D01*
X93596345Y-101782591D01*
X93740082Y-101754000D01*
X93959918Y-101754000D01*
X94103655Y-101782591D01*
X94103655Y-101782591D01*
G37*
G36*
X85803655Y-101782591D02*
G01*
X85875525Y-101796887D01*
X86078624Y-101881013D01*
X86261409Y-102003146D01*
X86416854Y-102158591D01*
X86538987Y-102341376D01*
X86623113Y-102544475D01*
X86666000Y-102760084D01*
X86666000Y-102979916D01*
X86623113Y-103195525D01*
X86538987Y-103398624D01*
X86416854Y-103581409D01*
X86261409Y-103736854D01*
X86078624Y-103858987D01*
X85875525Y-103943113D01*
X85803655Y-103957409D01*
X85659918Y-103986000D01*
X85440082Y-103986000D01*
X85296345Y-103957409D01*
X85224475Y-103943113D01*
X85021376Y-103858987D01*
X84838591Y-103736854D01*
X84683146Y-103581409D01*
X84561013Y-103398624D01*
X84476887Y-103195525D01*
X84434000Y-102979916D01*
X84434000Y-102760084D01*
X84476887Y-102544475D01*
X84561013Y-102341376D01*
X84683146Y-102158591D01*
X84838591Y-102003146D01*
X85021376Y-101881013D01*
X85224475Y-101796887D01*
X85296345Y-101782591D01*
X85440082Y-101754000D01*
X85659918Y-101754000D01*
X85803655Y-101782591D01*
X85803655Y-101782591D01*
G37*
G36*
X83416000Y-103886000D02*
G01*
X81484000Y-103886000D01*
X81484000Y-101854000D01*
X83416000Y-101854000D01*
X83416000Y-103886000D01*
X83416000Y-103886000D01*
G37*
G36*
X106211823Y-98221313D02*
G01*
X106372242Y-98269976D01*
X106504906Y-98340886D01*
X106520078Y-98348996D01*
X106649659Y-98455341D01*
X106756004Y-98584922D01*
X106756005Y-98584924D01*
X106835024Y-98732758D01*
X106883687Y-98893177D01*
X106900117Y-99060000D01*
X106883687Y-99226823D01*
X106835024Y-99387242D01*
X106764114Y-99519906D01*
X106756004Y-99535078D01*
X106649659Y-99664659D01*
X106520078Y-99771004D01*
X106520076Y-99771005D01*
X106372242Y-99850024D01*
X106211823Y-99898687D01*
X106086804Y-99911000D01*
X106003196Y-99911000D01*
X105878177Y-99898687D01*
X105717758Y-99850024D01*
X105569924Y-99771005D01*
X105569922Y-99771004D01*
X105440341Y-99664659D01*
X105333996Y-99535078D01*
X105325886Y-99519906D01*
X105254976Y-99387242D01*
X105206313Y-99226823D01*
X105189883Y-99060000D01*
X105206313Y-98893177D01*
X105254976Y-98732758D01*
X105333995Y-98584924D01*
X105333996Y-98584922D01*
X105440341Y-98455341D01*
X105569922Y-98348996D01*
X105585094Y-98340886D01*
X105717758Y-98269976D01*
X105878177Y-98221313D01*
X106003196Y-98209000D01*
X106086804Y-98209000D01*
X106211823Y-98221313D01*
X106211823Y-98221313D01*
G37*
G36*
X103671823Y-98221313D02*
G01*
X103832242Y-98269976D01*
X103964906Y-98340886D01*
X103980078Y-98348996D01*
X104109659Y-98455341D01*
X104216004Y-98584922D01*
X104216005Y-98584924D01*
X104295024Y-98732758D01*
X104343687Y-98893177D01*
X104360117Y-99060000D01*
X104343687Y-99226823D01*
X104295024Y-99387242D01*
X104224114Y-99519906D01*
X104216004Y-99535078D01*
X104109659Y-99664659D01*
X103980078Y-99771004D01*
X103980076Y-99771005D01*
X103832242Y-99850024D01*
X103671823Y-99898687D01*
X103546804Y-99911000D01*
X103463196Y-99911000D01*
X103338177Y-99898687D01*
X103177758Y-99850024D01*
X103029924Y-99771005D01*
X103029922Y-99771004D01*
X102900341Y-99664659D01*
X102793996Y-99535078D01*
X102785886Y-99519906D01*
X102714976Y-99387242D01*
X102666313Y-99226823D01*
X102649883Y-99060000D01*
X102666313Y-98893177D01*
X102714976Y-98732758D01*
X102793995Y-98584924D01*
X102793996Y-98584922D01*
X102900341Y-98455341D01*
X103029922Y-98348996D01*
X103045094Y-98340886D01*
X103177758Y-98269976D01*
X103338177Y-98221313D01*
X103463196Y-98209000D01*
X103546804Y-98209000D01*
X103671823Y-98221313D01*
X103671823Y-98221313D01*
G37*
G36*
X101131823Y-98221313D02*
G01*
X101292242Y-98269976D01*
X101424906Y-98340886D01*
X101440078Y-98348996D01*
X101569659Y-98455341D01*
X101676004Y-98584922D01*
X101676005Y-98584924D01*
X101755024Y-98732758D01*
X101803687Y-98893177D01*
X101820117Y-99060000D01*
X101803687Y-99226823D01*
X101755024Y-99387242D01*
X101684114Y-99519906D01*
X101676004Y-99535078D01*
X101569659Y-99664659D01*
X101440078Y-99771004D01*
X101440076Y-99771005D01*
X101292242Y-99850024D01*
X101131823Y-99898687D01*
X101006804Y-99911000D01*
X100923196Y-99911000D01*
X100798177Y-99898687D01*
X100637758Y-99850024D01*
X100489924Y-99771005D01*
X100489922Y-99771004D01*
X100360341Y-99664659D01*
X100253996Y-99535078D01*
X100245886Y-99519906D01*
X100174976Y-99387242D01*
X100126313Y-99226823D01*
X100109883Y-99060000D01*
X100126313Y-98893177D01*
X100174976Y-98732758D01*
X100253995Y-98584924D01*
X100253996Y-98584922D01*
X100360341Y-98455341D01*
X100489922Y-98348996D01*
X100505094Y-98340886D01*
X100637758Y-98269976D01*
X100798177Y-98221313D01*
X100923196Y-98209000D01*
X101006804Y-98209000D01*
X101131823Y-98221313D01*
X101131823Y-98221313D01*
G37*
G36*
X98591823Y-98221313D02*
G01*
X98752242Y-98269976D01*
X98884906Y-98340886D01*
X98900078Y-98348996D01*
X99029659Y-98455341D01*
X99136004Y-98584922D01*
X99136005Y-98584924D01*
X99215024Y-98732758D01*
X99263687Y-98893177D01*
X99280117Y-99060000D01*
X99263687Y-99226823D01*
X99215024Y-99387242D01*
X99144114Y-99519906D01*
X99136004Y-99535078D01*
X99029659Y-99664659D01*
X98900078Y-99771004D01*
X98900076Y-99771005D01*
X98752242Y-99850024D01*
X98591823Y-99898687D01*
X98466804Y-99911000D01*
X98383196Y-99911000D01*
X98258177Y-99898687D01*
X98097758Y-99850024D01*
X97949924Y-99771005D01*
X97949922Y-99771004D01*
X97820341Y-99664659D01*
X97713996Y-99535078D01*
X97705886Y-99519906D01*
X97634976Y-99387242D01*
X97586313Y-99226823D01*
X97569883Y-99060000D01*
X97586313Y-98893177D01*
X97634976Y-98732758D01*
X97713995Y-98584924D01*
X97713996Y-98584922D01*
X97820341Y-98455341D01*
X97949922Y-98348996D01*
X97965094Y-98340886D01*
X98097758Y-98269976D01*
X98258177Y-98221313D01*
X98383196Y-98209000D01*
X98466804Y-98209000D01*
X98591823Y-98221313D01*
X98591823Y-98221313D01*
G37*
G36*
X76546564Y-94119389D02*
G01*
X76737833Y-94198615D01*
X76737835Y-94198616D01*
X76909973Y-94313635D01*
X77056365Y-94460027D01*
X77171385Y-94632167D01*
X77250611Y-94823436D01*
X77291000Y-95026484D01*
X77291000Y-95233516D01*
X77250611Y-95436564D01*
X77171385Y-95627833D01*
X77171384Y-95627835D01*
X77056365Y-95799973D01*
X76909973Y-95946365D01*
X76737835Y-96061384D01*
X76737834Y-96061385D01*
X76737833Y-96061385D01*
X76546564Y-96140611D01*
X76343516Y-96181000D01*
X76136484Y-96181000D01*
X75933436Y-96140611D01*
X75742167Y-96061385D01*
X75742166Y-96061385D01*
X75742165Y-96061384D01*
X75570027Y-95946365D01*
X75423635Y-95799973D01*
X75308616Y-95627835D01*
X75308615Y-95627833D01*
X75229389Y-95436564D01*
X75189000Y-95233516D01*
X75189000Y-95026484D01*
X75229389Y-94823436D01*
X75308615Y-94632167D01*
X75423635Y-94460027D01*
X75570027Y-94313635D01*
X75742165Y-94198616D01*
X75742167Y-94198615D01*
X75933436Y-94119389D01*
X76136484Y-94079000D01*
X76343516Y-94079000D01*
X76546564Y-94119389D01*
X76546564Y-94119389D01*
G37*
G36*
X101866564Y-94119389D02*
G01*
X102057833Y-94198615D01*
X102057835Y-94198616D01*
X102229973Y-94313635D01*
X102376365Y-94460027D01*
X102491385Y-94632167D01*
X102570611Y-94823436D01*
X102611000Y-95026484D01*
X102611000Y-95233516D01*
X102570611Y-95436564D01*
X102491385Y-95627833D01*
X102491384Y-95627835D01*
X102376365Y-95799973D01*
X102229973Y-95946365D01*
X102057835Y-96061384D01*
X102057834Y-96061385D01*
X102057833Y-96061385D01*
X101866564Y-96140611D01*
X101663516Y-96181000D01*
X101456484Y-96181000D01*
X101253436Y-96140611D01*
X101062167Y-96061385D01*
X101062166Y-96061385D01*
X101062165Y-96061384D01*
X100890027Y-95946365D01*
X100743635Y-95799973D01*
X100628616Y-95627835D01*
X100628615Y-95627833D01*
X100549389Y-95436564D01*
X100509000Y-95233516D01*
X100509000Y-95026484D01*
X100549389Y-94823436D01*
X100628615Y-94632167D01*
X100743635Y-94460027D01*
X100890027Y-94313635D01*
X101062165Y-94198616D01*
X101062167Y-94198615D01*
X101253436Y-94119389D01*
X101456484Y-94079000D01*
X101663516Y-94079000D01*
X101866564Y-94119389D01*
X101866564Y-94119389D01*
G37*
G36*
X99366564Y-94119389D02*
G01*
X99557833Y-94198615D01*
X99557835Y-94198616D01*
X99729973Y-94313635D01*
X99876365Y-94460027D01*
X99991385Y-94632167D01*
X100070611Y-94823436D01*
X100111000Y-95026484D01*
X100111000Y-95233516D01*
X100070611Y-95436564D01*
X99991385Y-95627833D01*
X99991384Y-95627835D01*
X99876365Y-95799973D01*
X99729973Y-95946365D01*
X99557835Y-96061384D01*
X99557834Y-96061385D01*
X99557833Y-96061385D01*
X99366564Y-96140611D01*
X99163516Y-96181000D01*
X98956484Y-96181000D01*
X98753436Y-96140611D01*
X98562167Y-96061385D01*
X98562166Y-96061385D01*
X98562165Y-96061384D01*
X98390027Y-95946365D01*
X98243635Y-95799973D01*
X98128616Y-95627835D01*
X98128615Y-95627833D01*
X98049389Y-95436564D01*
X98009000Y-95233516D01*
X98009000Y-95026484D01*
X98049389Y-94823436D01*
X98128615Y-94632167D01*
X98243635Y-94460027D01*
X98390027Y-94313635D01*
X98562165Y-94198616D01*
X98562167Y-94198615D01*
X98753436Y-94119389D01*
X98956484Y-94079000D01*
X99163516Y-94079000D01*
X99366564Y-94119389D01*
X99366564Y-94119389D01*
G37*
G36*
X96866564Y-94119389D02*
G01*
X97057833Y-94198615D01*
X97057835Y-94198616D01*
X97229973Y-94313635D01*
X97376365Y-94460027D01*
X97491385Y-94632167D01*
X97570611Y-94823436D01*
X97611000Y-95026484D01*
X97611000Y-95233516D01*
X97570611Y-95436564D01*
X97491385Y-95627833D01*
X97491384Y-95627835D01*
X97376365Y-95799973D01*
X97229973Y-95946365D01*
X97057835Y-96061384D01*
X97057834Y-96061385D01*
X97057833Y-96061385D01*
X96866564Y-96140611D01*
X96663516Y-96181000D01*
X96456484Y-96181000D01*
X96253436Y-96140611D01*
X96062167Y-96061385D01*
X96062166Y-96061385D01*
X96062165Y-96061384D01*
X95890027Y-95946365D01*
X95743635Y-95799973D01*
X95628616Y-95627835D01*
X95628615Y-95627833D01*
X95549389Y-95436564D01*
X95509000Y-95233516D01*
X95509000Y-95026484D01*
X95549389Y-94823436D01*
X95628615Y-94632167D01*
X95743635Y-94460027D01*
X95890027Y-94313635D01*
X96062165Y-94198616D01*
X96062167Y-94198615D01*
X96253436Y-94119389D01*
X96456484Y-94079000D01*
X96663516Y-94079000D01*
X96866564Y-94119389D01*
X96866564Y-94119389D01*
G37*
G36*
X81546564Y-94119389D02*
G01*
X81737833Y-94198615D01*
X81737835Y-94198616D01*
X81909973Y-94313635D01*
X82056365Y-94460027D01*
X82171385Y-94632167D01*
X82250611Y-94823436D01*
X82291000Y-95026484D01*
X82291000Y-95233516D01*
X82250611Y-95436564D01*
X82171385Y-95627833D01*
X82171384Y-95627835D01*
X82056365Y-95799973D01*
X81909973Y-95946365D01*
X81737835Y-96061384D01*
X81737834Y-96061385D01*
X81737833Y-96061385D01*
X81546564Y-96140611D01*
X81343516Y-96181000D01*
X81136484Y-96181000D01*
X80933436Y-96140611D01*
X80742167Y-96061385D01*
X80742166Y-96061385D01*
X80742165Y-96061384D01*
X80570027Y-95946365D01*
X80423635Y-95799973D01*
X80308616Y-95627835D01*
X80308615Y-95627833D01*
X80229389Y-95436564D01*
X80189000Y-95233516D01*
X80189000Y-95026484D01*
X80229389Y-94823436D01*
X80308615Y-94632167D01*
X80423635Y-94460027D01*
X80570027Y-94313635D01*
X80742165Y-94198616D01*
X80742167Y-94198615D01*
X80933436Y-94119389D01*
X81136484Y-94079000D01*
X81343516Y-94079000D01*
X81546564Y-94119389D01*
X81546564Y-94119389D01*
G37*
G36*
X79046564Y-94119389D02*
G01*
X79237833Y-94198615D01*
X79237835Y-94198616D01*
X79409973Y-94313635D01*
X79556365Y-94460027D01*
X79671385Y-94632167D01*
X79750611Y-94823436D01*
X79791000Y-95026484D01*
X79791000Y-95233516D01*
X79750611Y-95436564D01*
X79671385Y-95627833D01*
X79671384Y-95627835D01*
X79556365Y-95799973D01*
X79409973Y-95946365D01*
X79237835Y-96061384D01*
X79237834Y-96061385D01*
X79237833Y-96061385D01*
X79046564Y-96140611D01*
X78843516Y-96181000D01*
X78636484Y-96181000D01*
X78433436Y-96140611D01*
X78242167Y-96061385D01*
X78242166Y-96061385D01*
X78242165Y-96061384D01*
X78070027Y-95946365D01*
X77923635Y-95799973D01*
X77808616Y-95627835D01*
X77808615Y-95627833D01*
X77729389Y-95436564D01*
X77689000Y-95233516D01*
X77689000Y-95026484D01*
X77729389Y-94823436D01*
X77808615Y-94632167D01*
X77923635Y-94460027D01*
X78070027Y-94313635D01*
X78242165Y-94198616D01*
X78242167Y-94198615D01*
X78433436Y-94119389D01*
X78636484Y-94079000D01*
X78843516Y-94079000D01*
X79046564Y-94119389D01*
X79046564Y-94119389D01*
G37*
G36*
X104539487Y-86378996D02*
G01*
X104776253Y-86477068D01*
X104776255Y-86477069D01*
X104989339Y-86619447D01*
X105170553Y-86800661D01*
X105312932Y-87013747D01*
X105411004Y-87250513D01*
X105461000Y-87501861D01*
X105461000Y-87758139D01*
X105411004Y-88009487D01*
X105312932Y-88246253D01*
X105312931Y-88246255D01*
X105170553Y-88459339D01*
X104989339Y-88640553D01*
X104776255Y-88782931D01*
X104776254Y-88782932D01*
X104776253Y-88782932D01*
X104539487Y-88881004D01*
X104288139Y-88931000D01*
X104031861Y-88931000D01*
X103780513Y-88881004D01*
X103543747Y-88782932D01*
X103543746Y-88782932D01*
X103543745Y-88782931D01*
X103330661Y-88640553D01*
X103149447Y-88459339D01*
X103007069Y-88246255D01*
X103007068Y-88246253D01*
X102908996Y-88009487D01*
X102859000Y-87758139D01*
X102859000Y-87501861D01*
X102908996Y-87250513D01*
X103007068Y-87013747D01*
X103149447Y-86800661D01*
X103330661Y-86619447D01*
X103543745Y-86477069D01*
X103543747Y-86477068D01*
X103780513Y-86378996D01*
X104031861Y-86329000D01*
X104288139Y-86329000D01*
X104539487Y-86378996D01*
X104539487Y-86378996D01*
G37*
G36*
X94439487Y-86378996D02*
G01*
X94676253Y-86477068D01*
X94676255Y-86477069D01*
X94889339Y-86619447D01*
X95070553Y-86800661D01*
X95212932Y-87013747D01*
X95311004Y-87250513D01*
X95361000Y-87501861D01*
X95361000Y-87758139D01*
X95311004Y-88009487D01*
X95212932Y-88246253D01*
X95212931Y-88246255D01*
X95070553Y-88459339D01*
X94889339Y-88640553D01*
X94676255Y-88782931D01*
X94676254Y-88782932D01*
X94676253Y-88782932D01*
X94439487Y-88881004D01*
X94188139Y-88931000D01*
X93931861Y-88931000D01*
X93680513Y-88881004D01*
X93443747Y-88782932D01*
X93443746Y-88782932D01*
X93443745Y-88782931D01*
X93230661Y-88640553D01*
X93049447Y-88459339D01*
X92907069Y-88246255D01*
X92907068Y-88246253D01*
X92808996Y-88009487D01*
X92759000Y-87758139D01*
X92759000Y-87501861D01*
X92808996Y-87250513D01*
X92907068Y-87013747D01*
X93049447Y-86800661D01*
X93230661Y-86619447D01*
X93443745Y-86477069D01*
X93443747Y-86477068D01*
X93680513Y-86378996D01*
X93931861Y-86329000D01*
X94188139Y-86329000D01*
X94439487Y-86378996D01*
X94439487Y-86378996D01*
G37*
G36*
X84219487Y-86378996D02*
G01*
X84456253Y-86477068D01*
X84456255Y-86477069D01*
X84669339Y-86619447D01*
X84850553Y-86800661D01*
X84992932Y-87013747D01*
X85091004Y-87250513D01*
X85141000Y-87501861D01*
X85141000Y-87758139D01*
X85091004Y-88009487D01*
X84992932Y-88246253D01*
X84992931Y-88246255D01*
X84850553Y-88459339D01*
X84669339Y-88640553D01*
X84456255Y-88782931D01*
X84456254Y-88782932D01*
X84456253Y-88782932D01*
X84219487Y-88881004D01*
X83968139Y-88931000D01*
X83711861Y-88931000D01*
X83460513Y-88881004D01*
X83223747Y-88782932D01*
X83223746Y-88782932D01*
X83223745Y-88782931D01*
X83010661Y-88640553D01*
X82829447Y-88459339D01*
X82687069Y-88246255D01*
X82687068Y-88246253D01*
X82588996Y-88009487D01*
X82539000Y-87758139D01*
X82539000Y-87501861D01*
X82588996Y-87250513D01*
X82687068Y-87013747D01*
X82829447Y-86800661D01*
X83010661Y-86619447D01*
X83223745Y-86477069D01*
X83223747Y-86477068D01*
X83460513Y-86378996D01*
X83711861Y-86329000D01*
X83968139Y-86329000D01*
X84219487Y-86378996D01*
X84219487Y-86378996D01*
G37*
G36*
X74119487Y-86378996D02*
G01*
X74356253Y-86477068D01*
X74356255Y-86477069D01*
X74569339Y-86619447D01*
X74750553Y-86800661D01*
X74892932Y-87013747D01*
X74991004Y-87250513D01*
X75041000Y-87501861D01*
X75041000Y-87758139D01*
X74991004Y-88009487D01*
X74892932Y-88246253D01*
X74892931Y-88246255D01*
X74750553Y-88459339D01*
X74569339Y-88640553D01*
X74356255Y-88782931D01*
X74356254Y-88782932D01*
X74356253Y-88782932D01*
X74119487Y-88881004D01*
X73868139Y-88931000D01*
X73611861Y-88931000D01*
X73360513Y-88881004D01*
X73123747Y-88782932D01*
X73123746Y-88782932D01*
X73123745Y-88782931D01*
X72910661Y-88640553D01*
X72729447Y-88459339D01*
X72587069Y-88246255D01*
X72587068Y-88246253D01*
X72488996Y-88009487D01*
X72439000Y-87758139D01*
X72439000Y-87501861D01*
X72488996Y-87250513D01*
X72587068Y-87013747D01*
X72729447Y-86800661D01*
X72910661Y-86619447D01*
X73123745Y-86477069D01*
X73123747Y-86477068D01*
X73360513Y-86378996D01*
X73611861Y-86329000D01*
X73868139Y-86329000D01*
X74119487Y-86378996D01*
X74119487Y-86378996D01*
G37*
G36*
X107932098Y-68159033D02*
G01*
X108249768Y-68290616D01*
X108396352Y-68351333D01*
X108814168Y-68630509D01*
X109169491Y-68985832D01*
X109448667Y-69403648D01*
X109448668Y-69403650D01*
X109640967Y-69867902D01*
X109739000Y-70360747D01*
X109739000Y-70863253D01*
X109640967Y-71356098D01*
X109448668Y-71820350D01*
X109448667Y-71820352D01*
X109169491Y-72238168D01*
X108814168Y-72593491D01*
X108396352Y-72872667D01*
X108396351Y-72872668D01*
X108396350Y-72872668D01*
X107932098Y-73064967D01*
X107439253Y-73163000D01*
X106936747Y-73163000D01*
X106443902Y-73064967D01*
X105979650Y-72872668D01*
X105979649Y-72872668D01*
X105979648Y-72872667D01*
X105561832Y-72593491D01*
X105206509Y-72238168D01*
X104927333Y-71820352D01*
X104927332Y-71820350D01*
X104735033Y-71356098D01*
X104637000Y-70863253D01*
X104637000Y-70360747D01*
X104735033Y-69867902D01*
X104927332Y-69403650D01*
X104927333Y-69403648D01*
X105206509Y-68985832D01*
X105561832Y-68630509D01*
X105979648Y-68351333D01*
X106126232Y-68290616D01*
X106443902Y-68159033D01*
X106936747Y-68061000D01*
X107439253Y-68061000D01*
X107932098Y-68159033D01*
X107932098Y-68159033D01*
G37*
G36*
X71356098Y-68159033D02*
G01*
X71673768Y-68290616D01*
X71820352Y-68351333D01*
X72238168Y-68630509D01*
X72593491Y-68985832D01*
X72872667Y-69403648D01*
X72872668Y-69403650D01*
X73064967Y-69867902D01*
X73163000Y-70360747D01*
X73163000Y-70863253D01*
X73064967Y-71356098D01*
X72872668Y-71820350D01*
X72872667Y-71820352D01*
X72593491Y-72238168D01*
X72238168Y-72593491D01*
X71820352Y-72872667D01*
X71820351Y-72872668D01*
X71820350Y-72872668D01*
X71356098Y-73064967D01*
X70863253Y-73163000D01*
X70360747Y-73163000D01*
X69867902Y-73064967D01*
X69403650Y-72872668D01*
X69403649Y-72872668D01*
X69403648Y-72872667D01*
X68985832Y-72593491D01*
X68630509Y-72238168D01*
X68351333Y-71820352D01*
X68351332Y-71820350D01*
X68159033Y-71356098D01*
X68061000Y-70863253D01*
X68061000Y-70360747D01*
X68159033Y-69867902D01*
X68351332Y-69403650D01*
X68351333Y-69403648D01*
X68630509Y-68985832D01*
X68985832Y-68630509D01*
X69403648Y-68351333D01*
X69550232Y-68290616D01*
X69867902Y-68159033D01*
X70360747Y-68061000D01*
X70863253Y-68061000D01*
X71356098Y-68159033D01*
X71356098Y-68159033D01*
G37*
G36*
X101866564Y-68211389D02*
G01*
X102057833Y-68290615D01*
X102057835Y-68290616D01*
X102148703Y-68351332D01*
X102229973Y-68405635D01*
X102376365Y-68552027D01*
X102491385Y-68724167D01*
X102570611Y-68915436D01*
X102611000Y-69118484D01*
X102611000Y-69325516D01*
X102570611Y-69528564D01*
X102491385Y-69719833D01*
X102491384Y-69719835D01*
X102376365Y-69891973D01*
X102229973Y-70038365D01*
X102057835Y-70153384D01*
X102057834Y-70153385D01*
X102057833Y-70153385D01*
X101866564Y-70232611D01*
X101663516Y-70273000D01*
X101456484Y-70273000D01*
X101253436Y-70232611D01*
X101062167Y-70153385D01*
X101062166Y-70153385D01*
X101062165Y-70153384D01*
X100890027Y-70038365D01*
X100743635Y-69891973D01*
X100628616Y-69719835D01*
X100628615Y-69719833D01*
X100549389Y-69528564D01*
X100509000Y-69325516D01*
X100509000Y-69118484D01*
X100549389Y-68915436D01*
X100628615Y-68724167D01*
X100743635Y-68552027D01*
X100890027Y-68405635D01*
X100971297Y-68351332D01*
X101062165Y-68290616D01*
X101062167Y-68290615D01*
X101253436Y-68211389D01*
X101456484Y-68171000D01*
X101663516Y-68171000D01*
X101866564Y-68211389D01*
X101866564Y-68211389D01*
G37*
G36*
X99366564Y-68211389D02*
G01*
X99557833Y-68290615D01*
X99557835Y-68290616D01*
X99648703Y-68351332D01*
X99729973Y-68405635D01*
X99876365Y-68552027D01*
X99991385Y-68724167D01*
X100070611Y-68915436D01*
X100111000Y-69118484D01*
X100111000Y-69325516D01*
X100070611Y-69528564D01*
X99991385Y-69719833D01*
X99991384Y-69719835D01*
X99876365Y-69891973D01*
X99729973Y-70038365D01*
X99557835Y-70153384D01*
X99557834Y-70153385D01*
X99557833Y-70153385D01*
X99366564Y-70232611D01*
X99163516Y-70273000D01*
X98956484Y-70273000D01*
X98753436Y-70232611D01*
X98562167Y-70153385D01*
X98562166Y-70153385D01*
X98562165Y-70153384D01*
X98390027Y-70038365D01*
X98243635Y-69891973D01*
X98128616Y-69719835D01*
X98128615Y-69719833D01*
X98049389Y-69528564D01*
X98009000Y-69325516D01*
X98009000Y-69118484D01*
X98049389Y-68915436D01*
X98128615Y-68724167D01*
X98243635Y-68552027D01*
X98390027Y-68405635D01*
X98471297Y-68351332D01*
X98562165Y-68290616D01*
X98562167Y-68290615D01*
X98753436Y-68211389D01*
X98956484Y-68171000D01*
X99163516Y-68171000D01*
X99366564Y-68211389D01*
X99366564Y-68211389D01*
G37*
G36*
X79046564Y-68211389D02*
G01*
X79237833Y-68290615D01*
X79237835Y-68290616D01*
X79328703Y-68351332D01*
X79409973Y-68405635D01*
X79556365Y-68552027D01*
X79671385Y-68724167D01*
X79750611Y-68915436D01*
X79791000Y-69118484D01*
X79791000Y-69325516D01*
X79750611Y-69528564D01*
X79671385Y-69719833D01*
X79671384Y-69719835D01*
X79556365Y-69891973D01*
X79409973Y-70038365D01*
X79237835Y-70153384D01*
X79237834Y-70153385D01*
X79237833Y-70153385D01*
X79046564Y-70232611D01*
X78843516Y-70273000D01*
X78636484Y-70273000D01*
X78433436Y-70232611D01*
X78242167Y-70153385D01*
X78242166Y-70153385D01*
X78242165Y-70153384D01*
X78070027Y-70038365D01*
X77923635Y-69891973D01*
X77808616Y-69719835D01*
X77808615Y-69719833D01*
X77729389Y-69528564D01*
X77689000Y-69325516D01*
X77689000Y-69118484D01*
X77729389Y-68915436D01*
X77808615Y-68724167D01*
X77923635Y-68552027D01*
X78070027Y-68405635D01*
X78151297Y-68351332D01*
X78242165Y-68290616D01*
X78242167Y-68290615D01*
X78433436Y-68211389D01*
X78636484Y-68171000D01*
X78843516Y-68171000D01*
X79046564Y-68211389D01*
X79046564Y-68211389D01*
G37*
G36*
X76546564Y-68211389D02*
G01*
X76737833Y-68290615D01*
X76737835Y-68290616D01*
X76828703Y-68351332D01*
X76909973Y-68405635D01*
X77056365Y-68552027D01*
X77171385Y-68724167D01*
X77250611Y-68915436D01*
X77291000Y-69118484D01*
X77291000Y-69325516D01*
X77250611Y-69528564D01*
X77171385Y-69719833D01*
X77171384Y-69719835D01*
X77056365Y-69891973D01*
X76909973Y-70038365D01*
X76737835Y-70153384D01*
X76737834Y-70153385D01*
X76737833Y-70153385D01*
X76546564Y-70232611D01*
X76343516Y-70273000D01*
X76136484Y-70273000D01*
X75933436Y-70232611D01*
X75742167Y-70153385D01*
X75742166Y-70153385D01*
X75742165Y-70153384D01*
X75570027Y-70038365D01*
X75423635Y-69891973D01*
X75308616Y-69719835D01*
X75308615Y-69719833D01*
X75229389Y-69528564D01*
X75189000Y-69325516D01*
X75189000Y-69118484D01*
X75229389Y-68915436D01*
X75308615Y-68724167D01*
X75423635Y-68552027D01*
X75570027Y-68405635D01*
X75651297Y-68351332D01*
X75742165Y-68290616D01*
X75742167Y-68290615D01*
X75933436Y-68211389D01*
X76136484Y-68171000D01*
X76343516Y-68171000D01*
X76546564Y-68211389D01*
X76546564Y-68211389D01*
G37*
G36*
X96866564Y-68211389D02*
G01*
X97057833Y-68290615D01*
X97057835Y-68290616D01*
X97148703Y-68351332D01*
X97229973Y-68405635D01*
X97376365Y-68552027D01*
X97491385Y-68724167D01*
X97570611Y-68915436D01*
X97611000Y-69118484D01*
X97611000Y-69325516D01*
X97570611Y-69528564D01*
X97491385Y-69719833D01*
X97491384Y-69719835D01*
X97376365Y-69891973D01*
X97229973Y-70038365D01*
X97057835Y-70153384D01*
X97057834Y-70153385D01*
X97057833Y-70153385D01*
X96866564Y-70232611D01*
X96663516Y-70273000D01*
X96456484Y-70273000D01*
X96253436Y-70232611D01*
X96062167Y-70153385D01*
X96062166Y-70153385D01*
X96062165Y-70153384D01*
X95890027Y-70038365D01*
X95743635Y-69891973D01*
X95628616Y-69719835D01*
X95628615Y-69719833D01*
X95549389Y-69528564D01*
X95509000Y-69325516D01*
X95509000Y-69118484D01*
X95549389Y-68915436D01*
X95628615Y-68724167D01*
X95743635Y-68552027D01*
X95890027Y-68405635D01*
X95971297Y-68351332D01*
X96062165Y-68290616D01*
X96062167Y-68290615D01*
X96253436Y-68211389D01*
X96456484Y-68171000D01*
X96663516Y-68171000D01*
X96866564Y-68211389D01*
X96866564Y-68211389D01*
G37*
G36*
X81546564Y-68211389D02*
G01*
X81737833Y-68290615D01*
X81737835Y-68290616D01*
X81828703Y-68351332D01*
X81909973Y-68405635D01*
X82056365Y-68552027D01*
X82171385Y-68724167D01*
X82250611Y-68915436D01*
X82291000Y-69118484D01*
X82291000Y-69325516D01*
X82250611Y-69528564D01*
X82171385Y-69719833D01*
X82171384Y-69719835D01*
X82056365Y-69891973D01*
X81909973Y-70038365D01*
X81737835Y-70153384D01*
X81737834Y-70153385D01*
X81737833Y-70153385D01*
X81546564Y-70232611D01*
X81343516Y-70273000D01*
X81136484Y-70273000D01*
X80933436Y-70232611D01*
X80742167Y-70153385D01*
X80742166Y-70153385D01*
X80742165Y-70153384D01*
X80570027Y-70038365D01*
X80423635Y-69891973D01*
X80308616Y-69719835D01*
X80308615Y-69719833D01*
X80229389Y-69528564D01*
X80189000Y-69325516D01*
X80189000Y-69118484D01*
X80229389Y-68915436D01*
X80308615Y-68724167D01*
X80423635Y-68552027D01*
X80570027Y-68405635D01*
X80651297Y-68351332D01*
X80742165Y-68290616D01*
X80742167Y-68290615D01*
X80933436Y-68211389D01*
X81136484Y-68171000D01*
X81343516Y-68171000D01*
X81546564Y-68211389D01*
X81546564Y-68211389D01*
G37*
G36*
X104539487Y-60470996D02*
G01*
X104776253Y-60569068D01*
X104776255Y-60569069D01*
X104989339Y-60711447D01*
X105170553Y-60892661D01*
X105312932Y-61105747D01*
X105411004Y-61342513D01*
X105461000Y-61593861D01*
X105461000Y-61850139D01*
X105411004Y-62101487D01*
X105312932Y-62338253D01*
X105312931Y-62338255D01*
X105170553Y-62551339D01*
X104989339Y-62732553D01*
X104776255Y-62874931D01*
X104776254Y-62874932D01*
X104776253Y-62874932D01*
X104539487Y-62973004D01*
X104288139Y-63023000D01*
X104031861Y-63023000D01*
X103780513Y-62973004D01*
X103543747Y-62874932D01*
X103543746Y-62874932D01*
X103543745Y-62874931D01*
X103330661Y-62732553D01*
X103149447Y-62551339D01*
X103007069Y-62338255D01*
X103007068Y-62338253D01*
X102908996Y-62101487D01*
X102859000Y-61850139D01*
X102859000Y-61593861D01*
X102908996Y-61342513D01*
X103007068Y-61105747D01*
X103149447Y-60892661D01*
X103330661Y-60711447D01*
X103543745Y-60569069D01*
X103543747Y-60569068D01*
X103780513Y-60470996D01*
X104031861Y-60421000D01*
X104288139Y-60421000D01*
X104539487Y-60470996D01*
X104539487Y-60470996D01*
G37*
G36*
X94439487Y-60470996D02*
G01*
X94676253Y-60569068D01*
X94676255Y-60569069D01*
X94889339Y-60711447D01*
X95070553Y-60892661D01*
X95212932Y-61105747D01*
X95311004Y-61342513D01*
X95361000Y-61593861D01*
X95361000Y-61850139D01*
X95311004Y-62101487D01*
X95212932Y-62338253D01*
X95212931Y-62338255D01*
X95070553Y-62551339D01*
X94889339Y-62732553D01*
X94676255Y-62874931D01*
X94676254Y-62874932D01*
X94676253Y-62874932D01*
X94439487Y-62973004D01*
X94188139Y-63023000D01*
X93931861Y-63023000D01*
X93680513Y-62973004D01*
X93443747Y-62874932D01*
X93443746Y-62874932D01*
X93443745Y-62874931D01*
X93230661Y-62732553D01*
X93049447Y-62551339D01*
X92907069Y-62338255D01*
X92907068Y-62338253D01*
X92808996Y-62101487D01*
X92759000Y-61850139D01*
X92759000Y-61593861D01*
X92808996Y-61342513D01*
X92907068Y-61105747D01*
X93049447Y-60892661D01*
X93230661Y-60711447D01*
X93443745Y-60569069D01*
X93443747Y-60569068D01*
X93680513Y-60470996D01*
X93931861Y-60421000D01*
X94188139Y-60421000D01*
X94439487Y-60470996D01*
X94439487Y-60470996D01*
G37*
G36*
X84219487Y-60470996D02*
G01*
X84456253Y-60569068D01*
X84456255Y-60569069D01*
X84669339Y-60711447D01*
X84850553Y-60892661D01*
X84992932Y-61105747D01*
X85091004Y-61342513D01*
X85141000Y-61593861D01*
X85141000Y-61850139D01*
X85091004Y-62101487D01*
X84992932Y-62338253D01*
X84992931Y-62338255D01*
X84850553Y-62551339D01*
X84669339Y-62732553D01*
X84456255Y-62874931D01*
X84456254Y-62874932D01*
X84456253Y-62874932D01*
X84219487Y-62973004D01*
X83968139Y-63023000D01*
X83711861Y-63023000D01*
X83460513Y-62973004D01*
X83223747Y-62874932D01*
X83223746Y-62874932D01*
X83223745Y-62874931D01*
X83010661Y-62732553D01*
X82829447Y-62551339D01*
X82687069Y-62338255D01*
X82687068Y-62338253D01*
X82588996Y-62101487D01*
X82539000Y-61850139D01*
X82539000Y-61593861D01*
X82588996Y-61342513D01*
X82687068Y-61105747D01*
X82829447Y-60892661D01*
X83010661Y-60711447D01*
X83223745Y-60569069D01*
X83223747Y-60569068D01*
X83460513Y-60470996D01*
X83711861Y-60421000D01*
X83968139Y-60421000D01*
X84219487Y-60470996D01*
X84219487Y-60470996D01*
G37*
G36*
X74119487Y-60470996D02*
G01*
X74356253Y-60569068D01*
X74356255Y-60569069D01*
X74569339Y-60711447D01*
X74750553Y-60892661D01*
X74892932Y-61105747D01*
X74991004Y-61342513D01*
X75041000Y-61593861D01*
X75041000Y-61850139D01*
X74991004Y-62101487D01*
X74892932Y-62338253D01*
X74892931Y-62338255D01*
X74750553Y-62551339D01*
X74569339Y-62732553D01*
X74356255Y-62874931D01*
X74356254Y-62874932D01*
X74356253Y-62874932D01*
X74119487Y-62973004D01*
X73868139Y-63023000D01*
X73611861Y-63023000D01*
X73360513Y-62973004D01*
X73123747Y-62874932D01*
X73123746Y-62874932D01*
X73123745Y-62874931D01*
X72910661Y-62732553D01*
X72729447Y-62551339D01*
X72587069Y-62338255D01*
X72587068Y-62338253D01*
X72488996Y-62101487D01*
X72439000Y-61850139D01*
X72439000Y-61593861D01*
X72488996Y-61342513D01*
X72587068Y-61105747D01*
X72729447Y-60892661D01*
X72910661Y-60711447D01*
X73123745Y-60569069D01*
X73123747Y-60569068D01*
X73360513Y-60470996D01*
X73611861Y-60421000D01*
X73868139Y-60421000D01*
X74119487Y-60470996D01*
X74119487Y-60470996D01*
G37*
M02*
