G04 #@! TF.GenerationSoftware,KiCad,Pcbnew,(5.1.4-0-10_14)*
G04 #@! TF.CreationDate,2019-10-08T20:56:09-07:00*
G04 #@! TF.ProjectId,VCA_Main,5643415f-4d61-4696-9e2e-6b696361645f,rev?*
G04 #@! TF.SameCoordinates,Original*
G04 #@! TF.FileFunction,Legend,Top*
G04 #@! TF.FilePolarity,Positive*
%FSLAX46Y46*%
G04 Gerber Fmt 4.6, Leading zero omitted, Abs format (unit mm)*
G04 Created by KiCad (PCBNEW (5.1.4-0-10_14)) date 2019-10-08 20:56:09*
%MOMM*%
%LPD*%
G04 APERTURE LIST*
%ADD10C,0.150000*%
%ADD11C,0.120000*%
G04 APERTURE END LIST*
D10*
X92781428Y-135818571D02*
X92924285Y-135866190D01*
X92971904Y-135913809D01*
X93019523Y-136009047D01*
X93019523Y-136151904D01*
X92971904Y-136247142D01*
X92924285Y-136294761D01*
X92829047Y-136342380D01*
X92448095Y-136342380D01*
X92448095Y-135342380D01*
X92781428Y-135342380D01*
X92876666Y-135390000D01*
X92924285Y-135437619D01*
X92971904Y-135532857D01*
X92971904Y-135628095D01*
X92924285Y-135723333D01*
X92876666Y-135770952D01*
X92781428Y-135818571D01*
X92448095Y-135818571D01*
X92471904Y-78906666D02*
X92948095Y-78906666D01*
X92376666Y-79192380D02*
X92710000Y-78192380D01*
X93043333Y-79192380D01*
D11*
X84868000Y-110280000D02*
X84368000Y-110280000D01*
X84618000Y-110030000D02*
X84618000Y-110530000D01*
X81862437Y-110770000D02*
X80798000Y-111834437D01*
X84253563Y-110770000D02*
X85318000Y-111834437D01*
X84253563Y-110770000D02*
X84118000Y-110770000D01*
X81862437Y-110770000D02*
X81998000Y-110770000D01*
X80798000Y-111834437D02*
X80798000Y-115290000D01*
X85318000Y-111834437D02*
X85318000Y-115290000D01*
X85318000Y-115290000D02*
X84118000Y-115290000D01*
X80798000Y-115290000D02*
X81998000Y-115290000D01*
X80798000Y-123418000D02*
X81998000Y-123418000D01*
X85318000Y-123418000D02*
X84118000Y-123418000D01*
X85318000Y-119962437D02*
X85318000Y-123418000D01*
X80798000Y-119962437D02*
X80798000Y-123418000D01*
X81862437Y-118898000D02*
X81998000Y-118898000D01*
X84253563Y-118898000D02*
X84118000Y-118898000D01*
X84253563Y-118898000D02*
X85318000Y-119962437D01*
X81862437Y-118898000D02*
X80798000Y-119962437D01*
X84618000Y-118158000D02*
X84618000Y-118658000D01*
X84868000Y-118408000D02*
X84368000Y-118408000D01*
X67178422Y-98731000D02*
X67695578Y-98731000D01*
X67178422Y-100151000D02*
X67695578Y-100151000D01*
X65980000Y-80070000D02*
X65980000Y-78740000D01*
X67310000Y-80070000D02*
X65980000Y-80070000D01*
X68580000Y-80070000D02*
X68580000Y-77410000D01*
X68580000Y-77410000D02*
X91500000Y-77410000D01*
X68580000Y-80070000D02*
X91500000Y-80070000D01*
X91500000Y-80070000D02*
X91500000Y-77410000D01*
X91500000Y-137220000D02*
X91500000Y-134560000D01*
X68580000Y-137220000D02*
X91500000Y-137220000D01*
X68580000Y-134560000D02*
X91500000Y-134560000D01*
X68580000Y-137220000D02*
X68580000Y-134560000D01*
X67310000Y-137220000D02*
X65980000Y-137220000D01*
X65980000Y-137220000D02*
X65980000Y-135890000D01*
X69417000Y-82554578D02*
X69417000Y-82037422D01*
X67997000Y-82554578D02*
X67997000Y-82037422D01*
X72719000Y-82554578D02*
X72719000Y-82037422D01*
X71299000Y-82554578D02*
X71299000Y-82037422D01*
X74474000Y-82554578D02*
X74474000Y-82037422D01*
X75894000Y-82554578D02*
X75894000Y-82037422D01*
X72592000Y-131948422D02*
X72592000Y-132465578D01*
X71172000Y-131948422D02*
X71172000Y-132465578D01*
X74624000Y-131948422D02*
X74624000Y-132465578D01*
X73204000Y-131948422D02*
X73204000Y-132465578D01*
X75236000Y-131948422D02*
X75236000Y-132465578D01*
X76656000Y-131948422D02*
X76656000Y-132465578D01*
X74553578Y-88848000D02*
X74036422Y-88848000D01*
X74553578Y-87428000D02*
X74036422Y-87428000D01*
X73537578Y-120090000D02*
X73020422Y-120090000D01*
X73537578Y-118670000D02*
X73020422Y-118670000D01*
X67108000Y-89657422D02*
X67108000Y-90174578D01*
X68528000Y-89657422D02*
X68528000Y-90174578D01*
X71703000Y-110993422D02*
X71703000Y-111510578D01*
X70283000Y-110993422D02*
X70283000Y-111510578D01*
X70997578Y-88848000D02*
X70480422Y-88848000D01*
X70997578Y-87428000D02*
X70480422Y-87428000D01*
X69727578Y-116384000D02*
X69210422Y-116384000D01*
X69727578Y-117804000D02*
X69210422Y-117804000D01*
X79497422Y-87428000D02*
X80014578Y-87428000D01*
X79497422Y-88848000D02*
X80014578Y-88848000D01*
X80014578Y-89333000D02*
X79497422Y-89333000D01*
X80014578Y-90753000D02*
X79497422Y-90753000D01*
X72569000Y-124709422D02*
X72569000Y-125226578D01*
X73989000Y-124709422D02*
X73989000Y-125226578D01*
X70687000Y-124709422D02*
X70687000Y-125226578D01*
X69267000Y-124709422D02*
X69267000Y-125226578D01*
X81355000Y-84459578D02*
X81355000Y-83942422D01*
X79935000Y-84459578D02*
X79935000Y-83942422D01*
X84657000Y-83942422D02*
X84657000Y-84459578D01*
X83237000Y-83942422D02*
X83237000Y-84459578D01*
X73655422Y-101802000D02*
X74172578Y-101802000D01*
X73655422Y-100382000D02*
X74172578Y-100382000D01*
X73410578Y-107898000D02*
X72893422Y-107898000D01*
X73410578Y-106478000D02*
X72893422Y-106478000D01*
X67051422Y-95706000D02*
X67568578Y-95706000D01*
X67051422Y-94286000D02*
X67568578Y-94286000D01*
X84323422Y-100024000D02*
X84840578Y-100024000D01*
X84323422Y-98604000D02*
X84840578Y-98604000D01*
X90936578Y-101652000D02*
X90419422Y-101652000D01*
X90936578Y-103072000D02*
X90419422Y-103072000D01*
X74553578Y-90753000D02*
X74036422Y-90753000D01*
X74553578Y-89333000D02*
X74036422Y-89333000D01*
X73537578Y-117804000D02*
X73020422Y-117804000D01*
X73537578Y-116384000D02*
X73020422Y-116384000D01*
X70997578Y-89333000D02*
X70480422Y-89333000D01*
X70997578Y-90753000D02*
X70480422Y-90753000D01*
X69727578Y-118670000D02*
X69210422Y-118670000D01*
X69727578Y-120090000D02*
X69210422Y-120090000D01*
X76966578Y-84761000D02*
X76449422Y-84761000D01*
X76966578Y-86181000D02*
X76449422Y-86181000D01*
X66369000Y-89657422D02*
X66369000Y-90174578D01*
X64949000Y-89657422D02*
X64949000Y-90174578D01*
X73585000Y-110993422D02*
X73585000Y-111510578D01*
X75005000Y-110993422D02*
X75005000Y-111510578D01*
X65965000Y-125226578D02*
X65965000Y-124709422D01*
X67385000Y-125226578D02*
X67385000Y-124709422D01*
X90419422Y-100024000D02*
X90936578Y-100024000D01*
X90419422Y-98604000D02*
X90936578Y-98604000D01*
X84840578Y-103072000D02*
X84323422Y-103072000D01*
X84840578Y-101652000D02*
X84323422Y-101652000D01*
X67695578Y-103199000D02*
X67178422Y-103199000D01*
X67695578Y-101779000D02*
X67178422Y-101779000D01*
X80339000Y-100334578D02*
X80339000Y-99817422D01*
X78919000Y-100334578D02*
X78919000Y-99817422D01*
X66092000Y-107954578D02*
X66092000Y-107437422D01*
X67512000Y-107954578D02*
X67512000Y-107437422D01*
D10*
X81383142Y-109894666D02*
X81430761Y-109942285D01*
X81478380Y-110085142D01*
X81478380Y-110180380D01*
X81430761Y-110323238D01*
X81335523Y-110418476D01*
X81240285Y-110466095D01*
X81049809Y-110513714D01*
X80906952Y-110513714D01*
X80716476Y-110466095D01*
X80621238Y-110418476D01*
X80526000Y-110323238D01*
X80478380Y-110180380D01*
X80478380Y-110085142D01*
X80526000Y-109942285D01*
X80573619Y-109894666D01*
X81478380Y-108942285D02*
X81478380Y-109513714D01*
X81478380Y-109228000D02*
X80478380Y-109228000D01*
X80621238Y-109323238D01*
X80716476Y-109418476D01*
X80764095Y-109513714D01*
X81383142Y-118276666D02*
X81430761Y-118324285D01*
X81478380Y-118467142D01*
X81478380Y-118562380D01*
X81430761Y-118705238D01*
X81335523Y-118800476D01*
X81240285Y-118848095D01*
X81049809Y-118895714D01*
X80906952Y-118895714D01*
X80716476Y-118848095D01*
X80621238Y-118800476D01*
X80526000Y-118705238D01*
X80478380Y-118562380D01*
X80478380Y-118467142D01*
X80526000Y-118324285D01*
X80573619Y-118276666D01*
X80573619Y-117895714D02*
X80526000Y-117848095D01*
X80478380Y-117752857D01*
X80478380Y-117514761D01*
X80526000Y-117419523D01*
X80573619Y-117371904D01*
X80668857Y-117324285D01*
X80764095Y-117324285D01*
X80906952Y-117371904D01*
X81478380Y-117943333D01*
X81478380Y-117324285D01*
X69937333Y-99798142D02*
X69889714Y-99845761D01*
X69746857Y-99893380D01*
X69651619Y-99893380D01*
X69508761Y-99845761D01*
X69413523Y-99750523D01*
X69365904Y-99655285D01*
X69318285Y-99464809D01*
X69318285Y-99321952D01*
X69365904Y-99131476D01*
X69413523Y-99036238D01*
X69508761Y-98941000D01*
X69651619Y-98893380D01*
X69746857Y-98893380D01*
X69889714Y-98941000D01*
X69937333Y-98988619D01*
X70270666Y-98893380D02*
X70889714Y-98893380D01*
X70556380Y-99274333D01*
X70699238Y-99274333D01*
X70794476Y-99321952D01*
X70842095Y-99369571D01*
X70889714Y-99464809D01*
X70889714Y-99702904D01*
X70842095Y-99798142D01*
X70794476Y-99845761D01*
X70699238Y-99893380D01*
X70413523Y-99893380D01*
X70318285Y-99845761D01*
X70270666Y-99798142D01*
X64432380Y-79073333D02*
X65146666Y-79073333D01*
X65289523Y-79120952D01*
X65384761Y-79216190D01*
X65432380Y-79359047D01*
X65432380Y-79454285D01*
X64432380Y-78120952D02*
X64432380Y-78597142D01*
X64908571Y-78644761D01*
X64860952Y-78597142D01*
X64813333Y-78501904D01*
X64813333Y-78263809D01*
X64860952Y-78168571D01*
X64908571Y-78120952D01*
X65003809Y-78073333D01*
X65241904Y-78073333D01*
X65337142Y-78120952D01*
X65384761Y-78168571D01*
X65432380Y-78263809D01*
X65432380Y-78501904D01*
X65384761Y-78597142D01*
X65337142Y-78644761D01*
X64432380Y-136699523D02*
X65146666Y-136699523D01*
X65289523Y-136747142D01*
X65384761Y-136842380D01*
X65432380Y-136985238D01*
X65432380Y-137080476D01*
X65432380Y-135699523D02*
X65432380Y-136270952D01*
X65432380Y-135985238D02*
X64432380Y-135985238D01*
X64575238Y-136080476D01*
X64670476Y-136175714D01*
X64718095Y-136270952D01*
X64432380Y-135080476D02*
X64432380Y-134985238D01*
X64480000Y-134890000D01*
X64527619Y-134842380D01*
X64622857Y-134794761D01*
X64813333Y-134747142D01*
X65051428Y-134747142D01*
X65241904Y-134794761D01*
X65337142Y-134842380D01*
X65384761Y-134890000D01*
X65432380Y-134985238D01*
X65432380Y-135080476D01*
X65384761Y-135175714D01*
X65337142Y-135223333D01*
X65241904Y-135270952D01*
X65051428Y-135318571D01*
X64813333Y-135318571D01*
X64622857Y-135270952D01*
X64527619Y-135223333D01*
X64480000Y-135175714D01*
X64432380Y-135080476D01*
X67508380Y-82589666D02*
X67032190Y-82923000D01*
X67508380Y-83161095D02*
X66508380Y-83161095D01*
X66508380Y-82780142D01*
X66556000Y-82684904D01*
X66603619Y-82637285D01*
X66698857Y-82589666D01*
X66841714Y-82589666D01*
X66936952Y-82637285D01*
X66984571Y-82684904D01*
X67032190Y-82780142D01*
X67032190Y-83161095D01*
X67508380Y-81637285D02*
X67508380Y-82208714D01*
X67508380Y-81923000D02*
X66508380Y-81923000D01*
X66651238Y-82018238D01*
X66746476Y-82113476D01*
X66794095Y-82208714D01*
X70810380Y-82589666D02*
X70334190Y-82923000D01*
X70810380Y-83161095D02*
X69810380Y-83161095D01*
X69810380Y-82780142D01*
X69858000Y-82684904D01*
X69905619Y-82637285D01*
X70000857Y-82589666D01*
X70143714Y-82589666D01*
X70238952Y-82637285D01*
X70286571Y-82684904D01*
X70334190Y-82780142D01*
X70334190Y-83161095D01*
X69905619Y-82208714D02*
X69858000Y-82161095D01*
X69810380Y-82065857D01*
X69810380Y-81827761D01*
X69858000Y-81732523D01*
X69905619Y-81684904D01*
X70000857Y-81637285D01*
X70096095Y-81637285D01*
X70238952Y-81684904D01*
X70810380Y-82256333D01*
X70810380Y-81637285D01*
X74112380Y-82589666D02*
X73636190Y-82923000D01*
X74112380Y-83161095D02*
X73112380Y-83161095D01*
X73112380Y-82780142D01*
X73160000Y-82684904D01*
X73207619Y-82637285D01*
X73302857Y-82589666D01*
X73445714Y-82589666D01*
X73540952Y-82637285D01*
X73588571Y-82684904D01*
X73636190Y-82780142D01*
X73636190Y-83161095D01*
X73112380Y-82256333D02*
X73112380Y-81637285D01*
X73493333Y-81970619D01*
X73493333Y-81827761D01*
X73540952Y-81732523D01*
X73588571Y-81684904D01*
X73683809Y-81637285D01*
X73921904Y-81637285D01*
X74017142Y-81684904D01*
X74064761Y-81732523D01*
X74112380Y-81827761D01*
X74112380Y-82113476D01*
X74064761Y-82208714D01*
X74017142Y-82256333D01*
X72334380Y-129706666D02*
X71858190Y-130040000D01*
X72334380Y-130278095D02*
X71334380Y-130278095D01*
X71334380Y-129897142D01*
X71382000Y-129801904D01*
X71429619Y-129754285D01*
X71524857Y-129706666D01*
X71667714Y-129706666D01*
X71762952Y-129754285D01*
X71810571Y-129801904D01*
X71858190Y-129897142D01*
X71858190Y-130278095D01*
X71667714Y-128849523D02*
X72334380Y-128849523D01*
X71286761Y-129087619D02*
X72001047Y-129325714D01*
X72001047Y-128706666D01*
X74366380Y-129706666D02*
X73890190Y-130040000D01*
X74366380Y-130278095D02*
X73366380Y-130278095D01*
X73366380Y-129897142D01*
X73414000Y-129801904D01*
X73461619Y-129754285D01*
X73556857Y-129706666D01*
X73699714Y-129706666D01*
X73794952Y-129754285D01*
X73842571Y-129801904D01*
X73890190Y-129897142D01*
X73890190Y-130278095D01*
X73366380Y-128801904D02*
X73366380Y-129278095D01*
X73842571Y-129325714D01*
X73794952Y-129278095D01*
X73747333Y-129182857D01*
X73747333Y-128944761D01*
X73794952Y-128849523D01*
X73842571Y-128801904D01*
X73937809Y-128754285D01*
X74175904Y-128754285D01*
X74271142Y-128801904D01*
X74318761Y-128849523D01*
X74366380Y-128944761D01*
X74366380Y-129182857D01*
X74318761Y-129278095D01*
X74271142Y-129325714D01*
X76398380Y-129706666D02*
X75922190Y-130040000D01*
X76398380Y-130278095D02*
X75398380Y-130278095D01*
X75398380Y-129897142D01*
X75446000Y-129801904D01*
X75493619Y-129754285D01*
X75588857Y-129706666D01*
X75731714Y-129706666D01*
X75826952Y-129754285D01*
X75874571Y-129801904D01*
X75922190Y-129897142D01*
X75922190Y-130278095D01*
X75398380Y-128849523D02*
X75398380Y-129040000D01*
X75446000Y-129135238D01*
X75493619Y-129182857D01*
X75636476Y-129278095D01*
X75826952Y-129325714D01*
X76207904Y-129325714D01*
X76303142Y-129278095D01*
X76350761Y-129230476D01*
X76398380Y-129135238D01*
X76398380Y-128944761D01*
X76350761Y-128849523D01*
X76303142Y-128801904D01*
X76207904Y-128754285D01*
X75969809Y-128754285D01*
X75874571Y-128801904D01*
X75826952Y-128849523D01*
X75779333Y-128944761D01*
X75779333Y-129135238D01*
X75826952Y-129230476D01*
X75874571Y-129278095D01*
X75969809Y-129325714D01*
X76922333Y-88590380D02*
X76589000Y-88114190D01*
X76350904Y-88590380D02*
X76350904Y-87590380D01*
X76731857Y-87590380D01*
X76827095Y-87638000D01*
X76874714Y-87685619D01*
X76922333Y-87780857D01*
X76922333Y-87923714D01*
X76874714Y-88018952D01*
X76827095Y-88066571D01*
X76731857Y-88114190D01*
X76350904Y-88114190D01*
X77255666Y-87590380D02*
X77922333Y-87590380D01*
X77493761Y-88590380D01*
X75906333Y-119832380D02*
X75573000Y-119356190D01*
X75334904Y-119832380D02*
X75334904Y-118832380D01*
X75715857Y-118832380D01*
X75811095Y-118880000D01*
X75858714Y-118927619D01*
X75906333Y-119022857D01*
X75906333Y-119165714D01*
X75858714Y-119260952D01*
X75811095Y-119308571D01*
X75715857Y-119356190D01*
X75334904Y-119356190D01*
X76477761Y-119260952D02*
X76382523Y-119213333D01*
X76334904Y-119165714D01*
X76287285Y-119070476D01*
X76287285Y-119022857D01*
X76334904Y-118927619D01*
X76382523Y-118880000D01*
X76477761Y-118832380D01*
X76668238Y-118832380D01*
X76763476Y-118880000D01*
X76811095Y-118927619D01*
X76858714Y-119022857D01*
X76858714Y-119070476D01*
X76811095Y-119165714D01*
X76763476Y-119213333D01*
X76668238Y-119260952D01*
X76477761Y-119260952D01*
X76382523Y-119308571D01*
X76334904Y-119356190D01*
X76287285Y-119451428D01*
X76287285Y-119641904D01*
X76334904Y-119737142D01*
X76382523Y-119784761D01*
X76477761Y-119832380D01*
X76668238Y-119832380D01*
X76763476Y-119784761D01*
X76811095Y-119737142D01*
X76858714Y-119641904D01*
X76858714Y-119451428D01*
X76811095Y-119356190D01*
X76763476Y-119308571D01*
X76668238Y-119260952D01*
X68143380Y-87415666D02*
X67667190Y-87749000D01*
X68143380Y-87987095D02*
X67143380Y-87987095D01*
X67143380Y-87606142D01*
X67191000Y-87510904D01*
X67238619Y-87463285D01*
X67333857Y-87415666D01*
X67476714Y-87415666D01*
X67571952Y-87463285D01*
X67619571Y-87510904D01*
X67667190Y-87606142D01*
X67667190Y-87987095D01*
X68143380Y-86939476D02*
X68143380Y-86749000D01*
X68095761Y-86653761D01*
X68048142Y-86606142D01*
X67905285Y-86510904D01*
X67714809Y-86463285D01*
X67333857Y-86463285D01*
X67238619Y-86510904D01*
X67191000Y-86558523D01*
X67143380Y-86653761D01*
X67143380Y-86844238D01*
X67191000Y-86939476D01*
X67238619Y-86987095D01*
X67333857Y-87034714D01*
X67571952Y-87034714D01*
X67667190Y-86987095D01*
X67714809Y-86939476D01*
X67762428Y-86844238D01*
X67762428Y-86653761D01*
X67714809Y-86558523D01*
X67667190Y-86510904D01*
X67571952Y-86463285D01*
X73095380Y-111894857D02*
X72619190Y-112228190D01*
X73095380Y-112466285D02*
X72095380Y-112466285D01*
X72095380Y-112085333D01*
X72143000Y-111990095D01*
X72190619Y-111942476D01*
X72285857Y-111894857D01*
X72428714Y-111894857D01*
X72523952Y-111942476D01*
X72571571Y-111990095D01*
X72619190Y-112085333D01*
X72619190Y-112466285D01*
X73095380Y-110942476D02*
X73095380Y-111513904D01*
X73095380Y-111228190D02*
X72095380Y-111228190D01*
X72238238Y-111323428D01*
X72333476Y-111418666D01*
X72381095Y-111513904D01*
X72095380Y-110323428D02*
X72095380Y-110228190D01*
X72143000Y-110132952D01*
X72190619Y-110085333D01*
X72285857Y-110037714D01*
X72476333Y-109990095D01*
X72714428Y-109990095D01*
X72904904Y-110037714D01*
X73000142Y-110085333D01*
X73047761Y-110132952D01*
X73095380Y-110228190D01*
X73095380Y-110323428D01*
X73047761Y-110418666D01*
X73000142Y-110466285D01*
X72904904Y-110513904D01*
X72714428Y-110561523D01*
X72476333Y-110561523D01*
X72285857Y-110513904D01*
X72190619Y-110466285D01*
X72143000Y-110418666D01*
X72095380Y-110323428D01*
X70223142Y-87066380D02*
X69889809Y-86590190D01*
X69651714Y-87066380D02*
X69651714Y-86066380D01*
X70032666Y-86066380D01*
X70127904Y-86114000D01*
X70175523Y-86161619D01*
X70223142Y-86256857D01*
X70223142Y-86399714D01*
X70175523Y-86494952D01*
X70127904Y-86542571D01*
X70032666Y-86590190D01*
X69651714Y-86590190D01*
X71175523Y-87066380D02*
X70604095Y-87066380D01*
X70889809Y-87066380D02*
X70889809Y-86066380D01*
X70794571Y-86209238D01*
X70699333Y-86304476D01*
X70604095Y-86352095D01*
X72127904Y-87066380D02*
X71556476Y-87066380D01*
X71842190Y-87066380D02*
X71842190Y-86066380D01*
X71746952Y-86209238D01*
X71651714Y-86304476D01*
X71556476Y-86352095D01*
X65778142Y-117546380D02*
X65444809Y-117070190D01*
X65206714Y-117546380D02*
X65206714Y-116546380D01*
X65587666Y-116546380D01*
X65682904Y-116594000D01*
X65730523Y-116641619D01*
X65778142Y-116736857D01*
X65778142Y-116879714D01*
X65730523Y-116974952D01*
X65682904Y-117022571D01*
X65587666Y-117070190D01*
X65206714Y-117070190D01*
X66730523Y-117546380D02*
X66159095Y-117546380D01*
X66444809Y-117546380D02*
X66444809Y-116546380D01*
X66349571Y-116689238D01*
X66254333Y-116784476D01*
X66159095Y-116832095D01*
X67111476Y-116641619D02*
X67159095Y-116594000D01*
X67254333Y-116546380D01*
X67492428Y-116546380D01*
X67587666Y-116594000D01*
X67635285Y-116641619D01*
X67682904Y-116736857D01*
X67682904Y-116832095D01*
X67635285Y-116974952D01*
X67063857Y-117546380D01*
X67682904Y-117546380D01*
X82288142Y-88590380D02*
X81954809Y-88114190D01*
X81716714Y-88590380D02*
X81716714Y-87590380D01*
X82097666Y-87590380D01*
X82192904Y-87638000D01*
X82240523Y-87685619D01*
X82288142Y-87780857D01*
X82288142Y-87923714D01*
X82240523Y-88018952D01*
X82192904Y-88066571D01*
X82097666Y-88114190D01*
X81716714Y-88114190D01*
X83240523Y-88590380D02*
X82669095Y-88590380D01*
X82954809Y-88590380D02*
X82954809Y-87590380D01*
X82859571Y-87733238D01*
X82764333Y-87828476D01*
X82669095Y-87876095D01*
X83573857Y-87590380D02*
X84192904Y-87590380D01*
X83859571Y-87971333D01*
X84002428Y-87971333D01*
X84097666Y-88018952D01*
X84145285Y-88066571D01*
X84192904Y-88161809D01*
X84192904Y-88399904D01*
X84145285Y-88495142D01*
X84097666Y-88542761D01*
X84002428Y-88590380D01*
X83716714Y-88590380D01*
X83621476Y-88542761D01*
X83573857Y-88495142D01*
X82288142Y-90495380D02*
X81954809Y-90019190D01*
X81716714Y-90495380D02*
X81716714Y-89495380D01*
X82097666Y-89495380D01*
X82192904Y-89543000D01*
X82240523Y-89590619D01*
X82288142Y-89685857D01*
X82288142Y-89828714D01*
X82240523Y-89923952D01*
X82192904Y-89971571D01*
X82097666Y-90019190D01*
X81716714Y-90019190D01*
X83240523Y-90495380D02*
X82669095Y-90495380D01*
X82954809Y-90495380D02*
X82954809Y-89495380D01*
X82859571Y-89638238D01*
X82764333Y-89733476D01*
X82669095Y-89781095D01*
X84097666Y-89828714D02*
X84097666Y-90495380D01*
X83859571Y-89447761D02*
X83621476Y-90162047D01*
X84240523Y-90162047D01*
X75381380Y-125610857D02*
X74905190Y-125944190D01*
X75381380Y-126182285D02*
X74381380Y-126182285D01*
X74381380Y-125801333D01*
X74429000Y-125706095D01*
X74476619Y-125658476D01*
X74571857Y-125610857D01*
X74714714Y-125610857D01*
X74809952Y-125658476D01*
X74857571Y-125706095D01*
X74905190Y-125801333D01*
X74905190Y-126182285D01*
X75381380Y-124658476D02*
X75381380Y-125229904D01*
X75381380Y-124944190D02*
X74381380Y-124944190D01*
X74524238Y-125039428D01*
X74619476Y-125134666D01*
X74667095Y-125229904D01*
X74381380Y-123753714D02*
X74381380Y-124229904D01*
X74857571Y-124277523D01*
X74809952Y-124229904D01*
X74762333Y-124134666D01*
X74762333Y-123896571D01*
X74809952Y-123801333D01*
X74857571Y-123753714D01*
X74952809Y-123706095D01*
X75190904Y-123706095D01*
X75286142Y-123753714D01*
X75333761Y-123801333D01*
X75381380Y-123896571D01*
X75381380Y-124134666D01*
X75333761Y-124229904D01*
X75286142Y-124277523D01*
X71953380Y-125610857D02*
X71477190Y-125944190D01*
X71953380Y-126182285D02*
X70953380Y-126182285D01*
X70953380Y-125801333D01*
X71001000Y-125706095D01*
X71048619Y-125658476D01*
X71143857Y-125610857D01*
X71286714Y-125610857D01*
X71381952Y-125658476D01*
X71429571Y-125706095D01*
X71477190Y-125801333D01*
X71477190Y-126182285D01*
X71953380Y-124658476D02*
X71953380Y-125229904D01*
X71953380Y-124944190D02*
X70953380Y-124944190D01*
X71096238Y-125039428D01*
X71191476Y-125134666D01*
X71239095Y-125229904D01*
X70953380Y-123801333D02*
X70953380Y-123991809D01*
X71001000Y-124087047D01*
X71048619Y-124134666D01*
X71191476Y-124229904D01*
X71381952Y-124277523D01*
X71762904Y-124277523D01*
X71858142Y-124229904D01*
X71905761Y-124182285D01*
X71953380Y-124087047D01*
X71953380Y-123896571D01*
X71905761Y-123801333D01*
X71858142Y-123753714D01*
X71762904Y-123706095D01*
X71524809Y-123706095D01*
X71429571Y-123753714D01*
X71381952Y-123801333D01*
X71334333Y-123896571D01*
X71334333Y-124087047D01*
X71381952Y-124182285D01*
X71429571Y-124229904D01*
X71524809Y-124277523D01*
X79573380Y-84716857D02*
X79097190Y-85050190D01*
X79573380Y-85288285D02*
X78573380Y-85288285D01*
X78573380Y-84907333D01*
X78621000Y-84812095D01*
X78668619Y-84764476D01*
X78763857Y-84716857D01*
X78906714Y-84716857D01*
X79001952Y-84764476D01*
X79049571Y-84812095D01*
X79097190Y-84907333D01*
X79097190Y-85288285D01*
X79573380Y-83764476D02*
X79573380Y-84335904D01*
X79573380Y-84050190D02*
X78573380Y-84050190D01*
X78716238Y-84145428D01*
X78811476Y-84240666D01*
X78859095Y-84335904D01*
X78573380Y-83431142D02*
X78573380Y-82764476D01*
X79573380Y-83193047D01*
X82875380Y-84843857D02*
X82399190Y-85177190D01*
X82875380Y-85415285D02*
X81875380Y-85415285D01*
X81875380Y-85034333D01*
X81923000Y-84939095D01*
X81970619Y-84891476D01*
X82065857Y-84843857D01*
X82208714Y-84843857D01*
X82303952Y-84891476D01*
X82351571Y-84939095D01*
X82399190Y-85034333D01*
X82399190Y-85415285D01*
X82875380Y-83891476D02*
X82875380Y-84462904D01*
X82875380Y-84177190D02*
X81875380Y-84177190D01*
X82018238Y-84272428D01*
X82113476Y-84367666D01*
X82161095Y-84462904D01*
X82303952Y-83320047D02*
X82256333Y-83415285D01*
X82208714Y-83462904D01*
X82113476Y-83510523D01*
X82065857Y-83510523D01*
X81970619Y-83462904D01*
X81923000Y-83415285D01*
X81875380Y-83320047D01*
X81875380Y-83129571D01*
X81923000Y-83034333D01*
X81970619Y-82986714D01*
X82065857Y-82939095D01*
X82113476Y-82939095D01*
X82208714Y-82986714D01*
X82256333Y-83034333D01*
X82303952Y-83129571D01*
X82303952Y-83320047D01*
X82351571Y-83415285D01*
X82399190Y-83462904D01*
X82494428Y-83510523D01*
X82684904Y-83510523D01*
X82780142Y-83462904D01*
X82827761Y-83415285D01*
X82875380Y-83320047D01*
X82875380Y-83129571D01*
X82827761Y-83034333D01*
X82780142Y-82986714D01*
X82684904Y-82939095D01*
X82494428Y-82939095D01*
X82399190Y-82986714D01*
X82351571Y-83034333D01*
X82303952Y-83129571D01*
X76319142Y-101544380D02*
X75985809Y-101068190D01*
X75747714Y-101544380D02*
X75747714Y-100544380D01*
X76128666Y-100544380D01*
X76223904Y-100592000D01*
X76271523Y-100639619D01*
X76319142Y-100734857D01*
X76319142Y-100877714D01*
X76271523Y-100972952D01*
X76223904Y-101020571D01*
X76128666Y-101068190D01*
X75747714Y-101068190D01*
X77271523Y-101544380D02*
X76700095Y-101544380D01*
X76985809Y-101544380D02*
X76985809Y-100544380D01*
X76890571Y-100687238D01*
X76795333Y-100782476D01*
X76700095Y-100830095D01*
X77747714Y-101544380D02*
X77938190Y-101544380D01*
X78033428Y-101496761D01*
X78081047Y-101449142D01*
X78176285Y-101306285D01*
X78223904Y-101115809D01*
X78223904Y-100734857D01*
X78176285Y-100639619D01*
X78128666Y-100592000D01*
X78033428Y-100544380D01*
X77842952Y-100544380D01*
X77747714Y-100592000D01*
X77700095Y-100639619D01*
X77652476Y-100734857D01*
X77652476Y-100972952D01*
X77700095Y-101068190D01*
X77747714Y-101115809D01*
X77842952Y-101163428D01*
X78033428Y-101163428D01*
X78128666Y-101115809D01*
X78176285Y-101068190D01*
X78223904Y-100972952D01*
X72509142Y-109164380D02*
X72175809Y-108688190D01*
X71937714Y-109164380D02*
X71937714Y-108164380D01*
X72318666Y-108164380D01*
X72413904Y-108212000D01*
X72461523Y-108259619D01*
X72509142Y-108354857D01*
X72509142Y-108497714D01*
X72461523Y-108592952D01*
X72413904Y-108640571D01*
X72318666Y-108688190D01*
X71937714Y-108688190D01*
X72890095Y-108259619D02*
X72937714Y-108212000D01*
X73032952Y-108164380D01*
X73271047Y-108164380D01*
X73366285Y-108212000D01*
X73413904Y-108259619D01*
X73461523Y-108354857D01*
X73461523Y-108450095D01*
X73413904Y-108592952D01*
X72842476Y-109164380D01*
X73461523Y-109164380D01*
X74080571Y-108164380D02*
X74175809Y-108164380D01*
X74271047Y-108212000D01*
X74318666Y-108259619D01*
X74366285Y-108354857D01*
X74413904Y-108545333D01*
X74413904Y-108783428D01*
X74366285Y-108973904D01*
X74318666Y-109069142D01*
X74271047Y-109116761D01*
X74175809Y-109164380D01*
X74080571Y-109164380D01*
X73985333Y-109116761D01*
X73937714Y-109069142D01*
X73890095Y-108973904D01*
X73842476Y-108783428D01*
X73842476Y-108545333D01*
X73890095Y-108354857D01*
X73937714Y-108259619D01*
X73985333Y-108212000D01*
X74080571Y-108164380D01*
X69969142Y-95575380D02*
X69635809Y-95099190D01*
X69397714Y-95575380D02*
X69397714Y-94575380D01*
X69778666Y-94575380D01*
X69873904Y-94623000D01*
X69921523Y-94670619D01*
X69969142Y-94765857D01*
X69969142Y-94908714D01*
X69921523Y-95003952D01*
X69873904Y-95051571D01*
X69778666Y-95099190D01*
X69397714Y-95099190D01*
X70350095Y-94670619D02*
X70397714Y-94623000D01*
X70492952Y-94575380D01*
X70731047Y-94575380D01*
X70826285Y-94623000D01*
X70873904Y-94670619D01*
X70921523Y-94765857D01*
X70921523Y-94861095D01*
X70873904Y-95003952D01*
X70302476Y-95575380D01*
X70921523Y-95575380D01*
X71873904Y-95575380D02*
X71302476Y-95575380D01*
X71588190Y-95575380D02*
X71588190Y-94575380D01*
X71492952Y-94718238D01*
X71397714Y-94813476D01*
X71302476Y-94861095D01*
X81145142Y-99893380D02*
X80811809Y-99417190D01*
X80573714Y-99893380D02*
X80573714Y-98893380D01*
X80954666Y-98893380D01*
X81049904Y-98941000D01*
X81097523Y-98988619D01*
X81145142Y-99083857D01*
X81145142Y-99226714D01*
X81097523Y-99321952D01*
X81049904Y-99369571D01*
X80954666Y-99417190D01*
X80573714Y-99417190D01*
X81526095Y-98988619D02*
X81573714Y-98941000D01*
X81668952Y-98893380D01*
X81907047Y-98893380D01*
X82002285Y-98941000D01*
X82049904Y-98988619D01*
X82097523Y-99083857D01*
X82097523Y-99179095D01*
X82049904Y-99321952D01*
X81478476Y-99893380D01*
X82097523Y-99893380D01*
X82430857Y-98893380D02*
X83049904Y-98893380D01*
X82716571Y-99274333D01*
X82859428Y-99274333D01*
X82954666Y-99321952D01*
X83002285Y-99369571D01*
X83049904Y-99464809D01*
X83049904Y-99702904D01*
X83002285Y-99798142D01*
X82954666Y-99845761D01*
X82859428Y-99893380D01*
X82573714Y-99893380D01*
X82478476Y-99845761D01*
X82430857Y-99798142D01*
X87114142Y-102814380D02*
X86780809Y-102338190D01*
X86542714Y-102814380D02*
X86542714Y-101814380D01*
X86923666Y-101814380D01*
X87018904Y-101862000D01*
X87066523Y-101909619D01*
X87114142Y-102004857D01*
X87114142Y-102147714D01*
X87066523Y-102242952D01*
X87018904Y-102290571D01*
X86923666Y-102338190D01*
X86542714Y-102338190D01*
X87495095Y-101909619D02*
X87542714Y-101862000D01*
X87637952Y-101814380D01*
X87876047Y-101814380D01*
X87971285Y-101862000D01*
X88018904Y-101909619D01*
X88066523Y-102004857D01*
X88066523Y-102100095D01*
X88018904Y-102242952D01*
X87447476Y-102814380D01*
X88066523Y-102814380D01*
X88923666Y-102147714D02*
X88923666Y-102814380D01*
X88685571Y-101766761D02*
X88447476Y-102481047D01*
X89066523Y-102481047D01*
X76922333Y-90527142D02*
X76874714Y-90574761D01*
X76731857Y-90622380D01*
X76636619Y-90622380D01*
X76493761Y-90574761D01*
X76398523Y-90479523D01*
X76350904Y-90384285D01*
X76303285Y-90193809D01*
X76303285Y-90050952D01*
X76350904Y-89860476D01*
X76398523Y-89765238D01*
X76493761Y-89670000D01*
X76636619Y-89622380D01*
X76731857Y-89622380D01*
X76874714Y-89670000D01*
X76922333Y-89717619D01*
X77779476Y-89622380D02*
X77589000Y-89622380D01*
X77493761Y-89670000D01*
X77446142Y-89717619D01*
X77350904Y-89860476D01*
X77303285Y-90050952D01*
X77303285Y-90431904D01*
X77350904Y-90527142D01*
X77398523Y-90574761D01*
X77493761Y-90622380D01*
X77684238Y-90622380D01*
X77779476Y-90574761D01*
X77827095Y-90527142D01*
X77874714Y-90431904D01*
X77874714Y-90193809D01*
X77827095Y-90098571D01*
X77779476Y-90050952D01*
X77684238Y-90003333D01*
X77493761Y-90003333D01*
X77398523Y-90050952D01*
X77350904Y-90098571D01*
X77303285Y-90193809D01*
X75779333Y-117451142D02*
X75731714Y-117498761D01*
X75588857Y-117546380D01*
X75493619Y-117546380D01*
X75350761Y-117498761D01*
X75255523Y-117403523D01*
X75207904Y-117308285D01*
X75160285Y-117117809D01*
X75160285Y-116974952D01*
X75207904Y-116784476D01*
X75255523Y-116689238D01*
X75350761Y-116594000D01*
X75493619Y-116546380D01*
X75588857Y-116546380D01*
X75731714Y-116594000D01*
X75779333Y-116641619D01*
X76112666Y-116546380D02*
X76779333Y-116546380D01*
X76350761Y-117546380D01*
X70572333Y-91924142D02*
X70524714Y-91971761D01*
X70381857Y-92019380D01*
X70286619Y-92019380D01*
X70143761Y-91971761D01*
X70048523Y-91876523D01*
X70000904Y-91781285D01*
X69953285Y-91590809D01*
X69953285Y-91447952D01*
X70000904Y-91257476D01*
X70048523Y-91162238D01*
X70143761Y-91067000D01*
X70286619Y-91019380D01*
X70381857Y-91019380D01*
X70524714Y-91067000D01*
X70572333Y-91114619D01*
X71143761Y-91447952D02*
X71048523Y-91400333D01*
X71000904Y-91352714D01*
X70953285Y-91257476D01*
X70953285Y-91209857D01*
X71000904Y-91114619D01*
X71048523Y-91067000D01*
X71143761Y-91019380D01*
X71334238Y-91019380D01*
X71429476Y-91067000D01*
X71477095Y-91114619D01*
X71524714Y-91209857D01*
X71524714Y-91257476D01*
X71477095Y-91352714D01*
X71429476Y-91400333D01*
X71334238Y-91447952D01*
X71143761Y-91447952D01*
X71048523Y-91495571D01*
X71000904Y-91543190D01*
X70953285Y-91638428D01*
X70953285Y-91828904D01*
X71000904Y-91924142D01*
X71048523Y-91971761D01*
X71143761Y-92019380D01*
X71334238Y-92019380D01*
X71429476Y-91971761D01*
X71477095Y-91924142D01*
X71524714Y-91828904D01*
X71524714Y-91638428D01*
X71477095Y-91543190D01*
X71429476Y-91495571D01*
X71334238Y-91447952D01*
X66762333Y-119864142D02*
X66714714Y-119911761D01*
X66571857Y-119959380D01*
X66476619Y-119959380D01*
X66333761Y-119911761D01*
X66238523Y-119816523D01*
X66190904Y-119721285D01*
X66143285Y-119530809D01*
X66143285Y-119387952D01*
X66190904Y-119197476D01*
X66238523Y-119102238D01*
X66333761Y-119007000D01*
X66476619Y-118959380D01*
X66571857Y-118959380D01*
X66714714Y-119007000D01*
X66762333Y-119054619D01*
X67238523Y-119959380D02*
X67429000Y-119959380D01*
X67524238Y-119911761D01*
X67571857Y-119864142D01*
X67667095Y-119721285D01*
X67714714Y-119530809D01*
X67714714Y-119149857D01*
X67667095Y-119054619D01*
X67619476Y-119007000D01*
X67524238Y-118959380D01*
X67333761Y-118959380D01*
X67238523Y-119007000D01*
X67190904Y-119054619D01*
X67143285Y-119149857D01*
X67143285Y-119387952D01*
X67190904Y-119483190D01*
X67238523Y-119530809D01*
X67333761Y-119578428D01*
X67524238Y-119578428D01*
X67619476Y-119530809D01*
X67667095Y-119483190D01*
X67714714Y-119387952D01*
X77176333Y-84177142D02*
X77128714Y-84224761D01*
X76985857Y-84272380D01*
X76890619Y-84272380D01*
X76747761Y-84224761D01*
X76652523Y-84129523D01*
X76604904Y-84034285D01*
X76557285Y-83843809D01*
X76557285Y-83700952D01*
X76604904Y-83510476D01*
X76652523Y-83415238D01*
X76747761Y-83320000D01*
X76890619Y-83272380D01*
X76985857Y-83272380D01*
X77128714Y-83320000D01*
X77176333Y-83367619D01*
X78033476Y-83605714D02*
X78033476Y-84272380D01*
X77795380Y-83224761D02*
X77557285Y-83939047D01*
X78176333Y-83939047D01*
X66016142Y-87415666D02*
X66063761Y-87463285D01*
X66111380Y-87606142D01*
X66111380Y-87701380D01*
X66063761Y-87844238D01*
X65968523Y-87939476D01*
X65873285Y-87987095D01*
X65682809Y-88034714D01*
X65539952Y-88034714D01*
X65349476Y-87987095D01*
X65254238Y-87939476D01*
X65159000Y-87844238D01*
X65111380Y-87701380D01*
X65111380Y-87606142D01*
X65159000Y-87463285D01*
X65206619Y-87415666D01*
X65111380Y-86510904D02*
X65111380Y-86987095D01*
X65587571Y-87034714D01*
X65539952Y-86987095D01*
X65492333Y-86891857D01*
X65492333Y-86653761D01*
X65539952Y-86558523D01*
X65587571Y-86510904D01*
X65682809Y-86463285D01*
X65920904Y-86463285D01*
X66016142Y-86510904D01*
X66063761Y-86558523D01*
X66111380Y-86653761D01*
X66111380Y-86891857D01*
X66063761Y-86987095D01*
X66016142Y-87034714D01*
X76302142Y-111894857D02*
X76349761Y-111942476D01*
X76397380Y-112085333D01*
X76397380Y-112180571D01*
X76349761Y-112323428D01*
X76254523Y-112418666D01*
X76159285Y-112466285D01*
X75968809Y-112513904D01*
X75825952Y-112513904D01*
X75635476Y-112466285D01*
X75540238Y-112418666D01*
X75445000Y-112323428D01*
X75397380Y-112180571D01*
X75397380Y-112085333D01*
X75445000Y-111942476D01*
X75492619Y-111894857D01*
X76397380Y-110942476D02*
X76397380Y-111513904D01*
X76397380Y-111228190D02*
X75397380Y-111228190D01*
X75540238Y-111323428D01*
X75635476Y-111418666D01*
X75683095Y-111513904D01*
X75397380Y-110323428D02*
X75397380Y-110228190D01*
X75445000Y-110132952D01*
X75492619Y-110085333D01*
X75587857Y-110037714D01*
X75778333Y-109990095D01*
X76016428Y-109990095D01*
X76206904Y-110037714D01*
X76302142Y-110085333D01*
X76349761Y-110132952D01*
X76397380Y-110228190D01*
X76397380Y-110323428D01*
X76349761Y-110418666D01*
X76302142Y-110466285D01*
X76206904Y-110513904D01*
X76016428Y-110561523D01*
X75778333Y-110561523D01*
X75587857Y-110513904D01*
X75492619Y-110466285D01*
X75445000Y-110418666D01*
X75397380Y-110323428D01*
X68556142Y-125610857D02*
X68603761Y-125658476D01*
X68651380Y-125801333D01*
X68651380Y-125896571D01*
X68603761Y-126039428D01*
X68508523Y-126134666D01*
X68413285Y-126182285D01*
X68222809Y-126229904D01*
X68079952Y-126229904D01*
X67889476Y-126182285D01*
X67794238Y-126134666D01*
X67699000Y-126039428D01*
X67651380Y-125896571D01*
X67651380Y-125801333D01*
X67699000Y-125658476D01*
X67746619Y-125610857D01*
X68651380Y-124658476D02*
X68651380Y-125229904D01*
X68651380Y-124944190D02*
X67651380Y-124944190D01*
X67794238Y-125039428D01*
X67889476Y-125134666D01*
X67937095Y-125229904D01*
X68651380Y-123706095D02*
X68651380Y-124277523D01*
X68651380Y-123991809D02*
X67651380Y-123991809D01*
X67794238Y-124087047D01*
X67889476Y-124182285D01*
X67937095Y-124277523D01*
X86987142Y-99798142D02*
X86939523Y-99845761D01*
X86796666Y-99893380D01*
X86701428Y-99893380D01*
X86558571Y-99845761D01*
X86463333Y-99750523D01*
X86415714Y-99655285D01*
X86368095Y-99464809D01*
X86368095Y-99321952D01*
X86415714Y-99131476D01*
X86463333Y-99036238D01*
X86558571Y-98941000D01*
X86701428Y-98893380D01*
X86796666Y-98893380D01*
X86939523Y-98941000D01*
X86987142Y-98988619D01*
X87939523Y-99893380D02*
X87368095Y-99893380D01*
X87653809Y-99893380D02*
X87653809Y-98893380D01*
X87558571Y-99036238D01*
X87463333Y-99131476D01*
X87368095Y-99179095D01*
X88320476Y-98988619D02*
X88368095Y-98941000D01*
X88463333Y-98893380D01*
X88701428Y-98893380D01*
X88796666Y-98941000D01*
X88844285Y-98988619D01*
X88891904Y-99083857D01*
X88891904Y-99179095D01*
X88844285Y-99321952D01*
X88272857Y-99893380D01*
X88891904Y-99893380D01*
X80891142Y-102846142D02*
X80843523Y-102893761D01*
X80700666Y-102941380D01*
X80605428Y-102941380D01*
X80462571Y-102893761D01*
X80367333Y-102798523D01*
X80319714Y-102703285D01*
X80272095Y-102512809D01*
X80272095Y-102369952D01*
X80319714Y-102179476D01*
X80367333Y-102084238D01*
X80462571Y-101989000D01*
X80605428Y-101941380D01*
X80700666Y-101941380D01*
X80843523Y-101989000D01*
X80891142Y-102036619D01*
X81843523Y-102941380D02*
X81272095Y-102941380D01*
X81557809Y-102941380D02*
X81557809Y-101941380D01*
X81462571Y-102084238D01*
X81367333Y-102179476D01*
X81272095Y-102227095D01*
X82176857Y-101941380D02*
X82795904Y-101941380D01*
X82462571Y-102322333D01*
X82605428Y-102322333D01*
X82700666Y-102369952D01*
X82748285Y-102417571D01*
X82795904Y-102512809D01*
X82795904Y-102750904D01*
X82748285Y-102846142D01*
X82700666Y-102893761D01*
X82605428Y-102941380D01*
X82319714Y-102941380D01*
X82224476Y-102893761D01*
X82176857Y-102846142D01*
X69969142Y-102846142D02*
X69921523Y-102893761D01*
X69778666Y-102941380D01*
X69683428Y-102941380D01*
X69540571Y-102893761D01*
X69445333Y-102798523D01*
X69397714Y-102703285D01*
X69350095Y-102512809D01*
X69350095Y-102369952D01*
X69397714Y-102179476D01*
X69445333Y-102084238D01*
X69540571Y-101989000D01*
X69683428Y-101941380D01*
X69778666Y-101941380D01*
X69921523Y-101989000D01*
X69969142Y-102036619D01*
X70921523Y-102941380D02*
X70350095Y-102941380D01*
X70635809Y-102941380D02*
X70635809Y-101941380D01*
X70540571Y-102084238D01*
X70445333Y-102179476D01*
X70350095Y-102227095D01*
X71778666Y-102274714D02*
X71778666Y-102941380D01*
X71540571Y-101893761D02*
X71302476Y-102608047D01*
X71921523Y-102608047D01*
X76446142Y-99544142D02*
X76398523Y-99591761D01*
X76255666Y-99639380D01*
X76160428Y-99639380D01*
X76017571Y-99591761D01*
X75922333Y-99496523D01*
X75874714Y-99401285D01*
X75827095Y-99210809D01*
X75827095Y-99067952D01*
X75874714Y-98877476D01*
X75922333Y-98782238D01*
X76017571Y-98687000D01*
X76160428Y-98639380D01*
X76255666Y-98639380D01*
X76398523Y-98687000D01*
X76446142Y-98734619D01*
X77398523Y-99639380D02*
X76827095Y-99639380D01*
X77112809Y-99639380D02*
X77112809Y-98639380D01*
X77017571Y-98782238D01*
X76922333Y-98877476D01*
X76827095Y-98925095D01*
X78303285Y-98639380D02*
X77827095Y-98639380D01*
X77779476Y-99115571D01*
X77827095Y-99067952D01*
X77922333Y-99020333D01*
X78160428Y-99020333D01*
X78255666Y-99067952D01*
X78303285Y-99115571D01*
X78350904Y-99210809D01*
X78350904Y-99448904D01*
X78303285Y-99544142D01*
X78255666Y-99591761D01*
X78160428Y-99639380D01*
X77922333Y-99639380D01*
X77827095Y-99591761D01*
X77779476Y-99544142D01*
X65730380Y-108338857D02*
X65254190Y-108672190D01*
X65730380Y-108910285D02*
X64730380Y-108910285D01*
X64730380Y-108529333D01*
X64778000Y-108434095D01*
X64825619Y-108386476D01*
X64920857Y-108338857D01*
X65063714Y-108338857D01*
X65158952Y-108386476D01*
X65206571Y-108434095D01*
X65254190Y-108529333D01*
X65254190Y-108910285D01*
X64825619Y-107957904D02*
X64778000Y-107910285D01*
X64730380Y-107815047D01*
X64730380Y-107576952D01*
X64778000Y-107481714D01*
X64825619Y-107434095D01*
X64920857Y-107386476D01*
X65016095Y-107386476D01*
X65158952Y-107434095D01*
X65730380Y-108005523D01*
X65730380Y-107386476D01*
X64825619Y-107005523D02*
X64778000Y-106957904D01*
X64730380Y-106862666D01*
X64730380Y-106624571D01*
X64778000Y-106529333D01*
X64825619Y-106481714D01*
X64920857Y-106434095D01*
X65016095Y-106434095D01*
X65158952Y-106481714D01*
X65730380Y-107053142D01*
X65730380Y-106434095D01*
M02*
