G04 #@! TF.GenerationSoftware,KiCad,Pcbnew,(5.1.2-1)-1*
G04 #@! TF.CreationDate,2019-08-21T10:35:04-07:00*
G04 #@! TF.ProjectId,AS3340_VCO,41533333-3430-45f5-9643-4f2e6b696361,rev?*
G04 #@! TF.SameCoordinates,Original*
G04 #@! TF.FileFunction,Legend,Top*
G04 #@! TF.FilePolarity,Positive*
%FSLAX46Y46*%
G04 Gerber Fmt 4.6, Leading zero omitted, Abs format (unit mm)*
G04 Created by KiCad (PCBNEW (5.1.2-1)-1) date 2019-08-21 10:35:04*
%MOMM*%
%LPD*%
G04 APERTURE LIST*
%ADD10C,0.150000*%
%ADD11C,0.120000*%
G04 APERTURE END LIST*
D10*
X179880000Y-64222380D02*
X180118095Y-65222380D01*
X180308571Y-64508095D01*
X180499047Y-65222380D01*
X180737142Y-64222380D01*
X181118095Y-65222380D02*
X181118095Y-64222380D01*
X181118095Y-64698571D02*
X181689523Y-64698571D01*
X181689523Y-65222380D02*
X181689523Y-64222380D01*
X182118095Y-65174761D02*
X182260952Y-65222380D01*
X182499047Y-65222380D01*
X182594285Y-65174761D01*
X182641904Y-65127142D01*
X182689523Y-65031904D01*
X182689523Y-64936666D01*
X182641904Y-64841428D01*
X182594285Y-64793809D01*
X182499047Y-64746190D01*
X182308571Y-64698571D01*
X182213333Y-64650952D01*
X182165714Y-64603333D01*
X182118095Y-64508095D01*
X182118095Y-64412857D01*
X182165714Y-64317619D01*
X182213333Y-64270000D01*
X182308571Y-64222380D01*
X182546666Y-64222380D01*
X182689523Y-64270000D01*
X183022857Y-64555714D02*
X183260952Y-65222380D01*
X183499047Y-64555714D02*
X183260952Y-65222380D01*
X183165714Y-65460476D01*
X183118095Y-65508095D01*
X183022857Y-65555714D01*
X183880000Y-64555714D02*
X183880000Y-65222380D01*
X183880000Y-64650952D02*
X183927619Y-64603333D01*
X184022857Y-64555714D01*
X184165714Y-64555714D01*
X184260952Y-64603333D01*
X184308571Y-64698571D01*
X184308571Y-65222380D01*
X184641904Y-64555714D02*
X185022857Y-64555714D01*
X184784761Y-64222380D02*
X184784761Y-65079523D01*
X184832380Y-65174761D01*
X184927619Y-65222380D01*
X185022857Y-65222380D01*
X185356190Y-65222380D02*
X185356190Y-64222380D01*
X185784761Y-65222380D02*
X185784761Y-64698571D01*
X185737142Y-64603333D01*
X185641904Y-64555714D01*
X185499047Y-64555714D01*
X185403809Y-64603333D01*
X185356190Y-64650952D01*
X188746619Y-64349380D02*
X189079952Y-65349380D01*
X189413285Y-64349380D01*
X190318047Y-65254142D02*
X190270428Y-65301761D01*
X190127571Y-65349380D01*
X190032333Y-65349380D01*
X189889476Y-65301761D01*
X189794238Y-65206523D01*
X189746619Y-65111285D01*
X189699000Y-64920809D01*
X189699000Y-64777952D01*
X189746619Y-64587476D01*
X189794238Y-64492238D01*
X189889476Y-64397000D01*
X190032333Y-64349380D01*
X190127571Y-64349380D01*
X190270428Y-64397000D01*
X190318047Y-64444619D01*
X190937095Y-64349380D02*
X191127571Y-64349380D01*
X191222809Y-64397000D01*
X191318047Y-64492238D01*
X191365666Y-64682714D01*
X191365666Y-65016047D01*
X191318047Y-65206523D01*
X191222809Y-65301761D01*
X191127571Y-65349380D01*
X190937095Y-65349380D01*
X190841857Y-65301761D01*
X190746619Y-65206523D01*
X190699000Y-65016047D01*
X190699000Y-64682714D01*
X190746619Y-64492238D01*
X190841857Y-64397000D01*
X190937095Y-64349380D01*
X192889476Y-64825571D02*
X193032333Y-64873190D01*
X193079952Y-64920809D01*
X193127571Y-65016047D01*
X193127571Y-65158904D01*
X193079952Y-65254142D01*
X193032333Y-65301761D01*
X192937095Y-65349380D01*
X192556142Y-65349380D01*
X192556142Y-64349380D01*
X192889476Y-64349380D01*
X192984714Y-64397000D01*
X193032333Y-64444619D01*
X193079952Y-64539857D01*
X193079952Y-64635095D01*
X193032333Y-64730333D01*
X192984714Y-64777952D01*
X192889476Y-64825571D01*
X192556142Y-64825571D01*
X193699000Y-65349380D02*
X193603761Y-65301761D01*
X193556142Y-65254142D01*
X193508523Y-65158904D01*
X193508523Y-64873190D01*
X193556142Y-64777952D01*
X193603761Y-64730333D01*
X193699000Y-64682714D01*
X193841857Y-64682714D01*
X193937095Y-64730333D01*
X193984714Y-64777952D01*
X194032333Y-64873190D01*
X194032333Y-65158904D01*
X193984714Y-65254142D01*
X193937095Y-65301761D01*
X193841857Y-65349380D01*
X193699000Y-65349380D01*
X194889476Y-65349380D02*
X194889476Y-64825571D01*
X194841857Y-64730333D01*
X194746619Y-64682714D01*
X194556142Y-64682714D01*
X194460904Y-64730333D01*
X194889476Y-65301761D02*
X194794238Y-65349380D01*
X194556142Y-65349380D01*
X194460904Y-65301761D01*
X194413285Y-65206523D01*
X194413285Y-65111285D01*
X194460904Y-65016047D01*
X194556142Y-64968428D01*
X194794238Y-64968428D01*
X194889476Y-64920809D01*
X195365666Y-65349380D02*
X195365666Y-64682714D01*
X195365666Y-64873190D02*
X195413285Y-64777952D01*
X195460904Y-64730333D01*
X195556142Y-64682714D01*
X195651380Y-64682714D01*
X196413285Y-65349380D02*
X196413285Y-64349380D01*
X196413285Y-65301761D02*
X196318047Y-65349380D01*
X196127571Y-65349380D01*
X196032333Y-65301761D01*
X195984714Y-65254142D01*
X195937095Y-65158904D01*
X195937095Y-64873190D01*
X195984714Y-64777952D01*
X196032333Y-64730333D01*
X196127571Y-64682714D01*
X196318047Y-64682714D01*
X196413285Y-64730333D01*
X198222809Y-65349380D02*
X197889476Y-64873190D01*
X197651380Y-65349380D02*
X197651380Y-64349380D01*
X198032333Y-64349380D01*
X198127571Y-64397000D01*
X198175190Y-64444619D01*
X198222809Y-64539857D01*
X198222809Y-64682714D01*
X198175190Y-64777952D01*
X198127571Y-64825571D01*
X198032333Y-64873190D01*
X197651380Y-64873190D01*
X199032333Y-65301761D02*
X198937095Y-65349380D01*
X198746619Y-65349380D01*
X198651380Y-65301761D01*
X198603761Y-65206523D01*
X198603761Y-64825571D01*
X198651380Y-64730333D01*
X198746619Y-64682714D01*
X198937095Y-64682714D01*
X199032333Y-64730333D01*
X199079952Y-64825571D01*
X199079952Y-64920809D01*
X198603761Y-65016047D01*
X199413285Y-64682714D02*
X199651380Y-65349380D01*
X199889476Y-64682714D01*
X200984714Y-64444619D02*
X201032333Y-64397000D01*
X201127571Y-64349380D01*
X201365666Y-64349380D01*
X201460904Y-64397000D01*
X201508523Y-64444619D01*
X201556142Y-64539857D01*
X201556142Y-64635095D01*
X201508523Y-64777952D01*
X200937095Y-65349380D01*
X201556142Y-65349380D01*
X221130761Y-70238761D02*
X221178380Y-70095904D01*
X221178380Y-69857809D01*
X221130761Y-69762571D01*
X221083142Y-69714952D01*
X220987904Y-69667333D01*
X220892666Y-69667333D01*
X220797428Y-69714952D01*
X220749809Y-69762571D01*
X220702190Y-69857809D01*
X220654571Y-70048285D01*
X220606952Y-70143523D01*
X220559333Y-70191142D01*
X220464095Y-70238761D01*
X220368857Y-70238761D01*
X220273619Y-70191142D01*
X220226000Y-70143523D01*
X220178380Y-70048285D01*
X220178380Y-69810190D01*
X220226000Y-69667333D01*
X221178380Y-69238761D02*
X220511714Y-69238761D01*
X220178380Y-69238761D02*
X220226000Y-69286380D01*
X220273619Y-69238761D01*
X220226000Y-69191142D01*
X220178380Y-69238761D01*
X220273619Y-69238761D01*
X220511714Y-68762571D02*
X221178380Y-68762571D01*
X220606952Y-68762571D02*
X220559333Y-68714952D01*
X220511714Y-68619714D01*
X220511714Y-68476857D01*
X220559333Y-68381619D01*
X220654571Y-68334000D01*
X221178380Y-68334000D01*
X221130761Y-67476857D02*
X221178380Y-67572095D01*
X221178380Y-67762571D01*
X221130761Y-67857809D01*
X221035523Y-67905428D01*
X220654571Y-67905428D01*
X220559333Y-67857809D01*
X220511714Y-67762571D01*
X220511714Y-67572095D01*
X220559333Y-67476857D01*
X220654571Y-67429238D01*
X220749809Y-67429238D01*
X220845047Y-67905428D01*
X222718380Y-69413333D02*
X222718380Y-68841904D01*
X223718380Y-69127619D02*
X222718380Y-69127619D01*
X223718380Y-68508571D02*
X223051714Y-68508571D01*
X223242190Y-68508571D02*
X223146952Y-68460952D01*
X223099333Y-68413333D01*
X223051714Y-68318095D01*
X223051714Y-68222857D01*
X223718380Y-67889523D02*
X223051714Y-67889523D01*
X222718380Y-67889523D02*
X222766000Y-67937142D01*
X222813619Y-67889523D01*
X222766000Y-67841904D01*
X222718380Y-67889523D01*
X222813619Y-67889523D01*
X228798380Y-70897523D02*
X227798380Y-70897523D01*
X227798380Y-70516571D01*
X227846000Y-70421333D01*
X227893619Y-70373714D01*
X227988857Y-70326095D01*
X228131714Y-70326095D01*
X228226952Y-70373714D01*
X228274571Y-70421333D01*
X228322190Y-70516571D01*
X228322190Y-70897523D01*
X228131714Y-69468952D02*
X228798380Y-69468952D01*
X228131714Y-69897523D02*
X228655523Y-69897523D01*
X228750761Y-69849904D01*
X228798380Y-69754666D01*
X228798380Y-69611809D01*
X228750761Y-69516571D01*
X228703142Y-69468952D01*
X228798380Y-68849904D02*
X228750761Y-68945142D01*
X228655523Y-68992761D01*
X227798380Y-68992761D01*
X228750761Y-68516571D02*
X228798380Y-68421333D01*
X228798380Y-68230857D01*
X228750761Y-68135619D01*
X228655523Y-68088000D01*
X228607904Y-68088000D01*
X228512666Y-68135619D01*
X228465047Y-68230857D01*
X228465047Y-68373714D01*
X228417428Y-68468952D01*
X228322190Y-68516571D01*
X228274571Y-68516571D01*
X228179333Y-68468952D01*
X228131714Y-68373714D01*
X228131714Y-68230857D01*
X228179333Y-68135619D01*
X228750761Y-67278476D02*
X228798380Y-67373714D01*
X228798380Y-67564190D01*
X228750761Y-67659428D01*
X228655523Y-67707047D01*
X228274571Y-67707047D01*
X228179333Y-67659428D01*
X228131714Y-67564190D01*
X228131714Y-67373714D01*
X228179333Y-67278476D01*
X228274571Y-67230857D01*
X228369809Y-67230857D01*
X228465047Y-67707047D01*
X226210761Y-70095904D02*
X226258380Y-69953047D01*
X226258380Y-69714952D01*
X226210761Y-69619714D01*
X226163142Y-69572095D01*
X226067904Y-69524476D01*
X225972666Y-69524476D01*
X225877428Y-69572095D01*
X225829809Y-69619714D01*
X225782190Y-69714952D01*
X225734571Y-69905428D01*
X225686952Y-70000666D01*
X225639333Y-70048285D01*
X225544095Y-70095904D01*
X225448857Y-70095904D01*
X225353619Y-70048285D01*
X225306000Y-70000666D01*
X225258380Y-69905428D01*
X225258380Y-69667333D01*
X225306000Y-69524476D01*
X226258380Y-68667333D02*
X225734571Y-68667333D01*
X225639333Y-68714952D01*
X225591714Y-68810190D01*
X225591714Y-69000666D01*
X225639333Y-69095904D01*
X226210761Y-68667333D02*
X226258380Y-68762571D01*
X226258380Y-69000666D01*
X226210761Y-69095904D01*
X226115523Y-69143523D01*
X226020285Y-69143523D01*
X225925047Y-69095904D01*
X225877428Y-69000666D01*
X225877428Y-68762571D01*
X225829809Y-68667333D01*
X225591714Y-68286380D02*
X226258380Y-68095904D01*
X225782190Y-67905428D01*
X226258380Y-67714952D01*
X225591714Y-67524476D01*
X141136761Y-86971142D02*
X141089142Y-87018761D01*
X140946285Y-87066380D01*
X140851047Y-87066380D01*
X140708190Y-87018761D01*
X140612952Y-86923523D01*
X140565333Y-86828285D01*
X140517714Y-86637809D01*
X140517714Y-86494952D01*
X140565333Y-86304476D01*
X140612952Y-86209238D01*
X140708190Y-86114000D01*
X140851047Y-86066380D01*
X140946285Y-86066380D01*
X141089142Y-86114000D01*
X141136761Y-86161619D01*
X141422476Y-86066380D02*
X141755809Y-87066380D01*
X142089142Y-86066380D01*
X142327238Y-86066380D02*
X142946285Y-86066380D01*
X142612952Y-86447333D01*
X142755809Y-86447333D01*
X142851047Y-86494952D01*
X142898666Y-86542571D01*
X142946285Y-86637809D01*
X142946285Y-86875904D01*
X142898666Y-86971142D01*
X142851047Y-87018761D01*
X142755809Y-87066380D01*
X142470095Y-87066380D01*
X142374857Y-87018761D01*
X142327238Y-86971142D01*
X141136761Y-84431142D02*
X141089142Y-84478761D01*
X140946285Y-84526380D01*
X140851047Y-84526380D01*
X140708190Y-84478761D01*
X140612952Y-84383523D01*
X140565333Y-84288285D01*
X140517714Y-84097809D01*
X140517714Y-83954952D01*
X140565333Y-83764476D01*
X140612952Y-83669238D01*
X140708190Y-83574000D01*
X140851047Y-83526380D01*
X140946285Y-83526380D01*
X141089142Y-83574000D01*
X141136761Y-83621619D01*
X141422476Y-83526380D02*
X141755809Y-84526380D01*
X142089142Y-83526380D01*
X142374857Y-83621619D02*
X142422476Y-83574000D01*
X142517714Y-83526380D01*
X142755809Y-83526380D01*
X142851047Y-83574000D01*
X142898666Y-83621619D01*
X142946285Y-83716857D01*
X142946285Y-83812095D01*
X142898666Y-83954952D01*
X142327238Y-84526380D01*
X142946285Y-84526380D01*
X141136761Y-81891142D02*
X141089142Y-81938761D01*
X140946285Y-81986380D01*
X140851047Y-81986380D01*
X140708190Y-81938761D01*
X140612952Y-81843523D01*
X140565333Y-81748285D01*
X140517714Y-81557809D01*
X140517714Y-81414952D01*
X140565333Y-81224476D01*
X140612952Y-81129238D01*
X140708190Y-81034000D01*
X140851047Y-80986380D01*
X140946285Y-80986380D01*
X141089142Y-81034000D01*
X141136761Y-81081619D01*
X141422476Y-80986380D02*
X141755809Y-81986380D01*
X142089142Y-80986380D01*
X142946285Y-81986380D02*
X142374857Y-81986380D01*
X142660571Y-81986380D02*
X142660571Y-80986380D01*
X142565333Y-81129238D01*
X142470095Y-81224476D01*
X142374857Y-81272095D01*
X141097047Y-79446380D02*
X140620857Y-79446380D01*
X140620857Y-78446380D01*
X141430380Y-79446380D02*
X141430380Y-78779714D01*
X141430380Y-78446380D02*
X141382761Y-78494000D01*
X141430380Y-78541619D01*
X141478000Y-78494000D01*
X141430380Y-78446380D01*
X141430380Y-78541619D01*
X141906571Y-78779714D02*
X141906571Y-79446380D01*
X141906571Y-78874952D02*
X141954190Y-78827333D01*
X142049428Y-78779714D01*
X142192285Y-78779714D01*
X142287523Y-78827333D01*
X142335142Y-78922571D01*
X142335142Y-79446380D01*
X140549476Y-76858761D02*
X140692333Y-76906380D01*
X140930428Y-76906380D01*
X141025666Y-76858761D01*
X141073285Y-76811142D01*
X141120904Y-76715904D01*
X141120904Y-76620666D01*
X141073285Y-76525428D01*
X141025666Y-76477809D01*
X140930428Y-76430190D01*
X140739952Y-76382571D01*
X140644714Y-76334952D01*
X140597095Y-76287333D01*
X140549476Y-76192095D01*
X140549476Y-76096857D01*
X140597095Y-76001619D01*
X140644714Y-75954000D01*
X140739952Y-75906380D01*
X140978047Y-75906380D01*
X141120904Y-75954000D01*
X141692333Y-76906380D02*
X141597095Y-76858761D01*
X141549476Y-76811142D01*
X141501857Y-76715904D01*
X141501857Y-76430190D01*
X141549476Y-76334952D01*
X141597095Y-76287333D01*
X141692333Y-76239714D01*
X141835190Y-76239714D01*
X141930428Y-76287333D01*
X141978047Y-76334952D01*
X142025666Y-76430190D01*
X142025666Y-76715904D01*
X141978047Y-76811142D01*
X141930428Y-76858761D01*
X141835190Y-76906380D01*
X141692333Y-76906380D01*
X142311380Y-76239714D02*
X142692333Y-76239714D01*
X142454238Y-76906380D02*
X142454238Y-76049238D01*
X142501857Y-75954000D01*
X142597095Y-75906380D01*
X142692333Y-75906380D01*
X142882809Y-76239714D02*
X143263761Y-76239714D01*
X143025666Y-75906380D02*
X143025666Y-76763523D01*
X143073285Y-76858761D01*
X143168523Y-76906380D01*
X143263761Y-76906380D01*
X140486000Y-74366380D02*
X140486000Y-73366380D01*
X140486000Y-73842571D02*
X141057428Y-73842571D01*
X141057428Y-74366380D02*
X141057428Y-73366380D01*
X141962190Y-74366380D02*
X141962190Y-73842571D01*
X141914571Y-73747333D01*
X141819333Y-73699714D01*
X141628857Y-73699714D01*
X141533619Y-73747333D01*
X141962190Y-74318761D02*
X141866952Y-74366380D01*
X141628857Y-74366380D01*
X141533619Y-74318761D01*
X141486000Y-74223523D01*
X141486000Y-74128285D01*
X141533619Y-74033047D01*
X141628857Y-73985428D01*
X141866952Y-73985428D01*
X141962190Y-73937809D01*
X142438380Y-74366380D02*
X142438380Y-73699714D01*
X142438380Y-73890190D02*
X142486000Y-73794952D01*
X142533619Y-73747333D01*
X142628857Y-73699714D01*
X142724095Y-73699714D01*
X143486000Y-74366380D02*
X143486000Y-73366380D01*
X143486000Y-74318761D02*
X143390761Y-74366380D01*
X143200285Y-74366380D01*
X143105047Y-74318761D01*
X143057428Y-74271142D01*
X143009809Y-74175904D01*
X143009809Y-73890190D01*
X143057428Y-73794952D01*
X143105047Y-73747333D01*
X143200285Y-73699714D01*
X143390761Y-73699714D01*
X143486000Y-73747333D01*
X140454238Y-71953380D02*
X140454238Y-70953380D01*
X140835190Y-70953380D01*
X140930428Y-71001000D01*
X140978047Y-71048619D01*
X141025666Y-71143857D01*
X141025666Y-71286714D01*
X140978047Y-71381952D01*
X140930428Y-71429571D01*
X140835190Y-71477190D01*
X140454238Y-71477190D01*
X141359000Y-70953380D02*
X141597095Y-71953380D01*
X141787571Y-71239095D01*
X141978047Y-71953380D01*
X142216142Y-70953380D01*
X142597095Y-71953380D02*
X142597095Y-70953380D01*
X142930428Y-71667666D01*
X143263761Y-70953380D01*
X143263761Y-71953380D01*
X160313809Y-100766571D02*
X159980476Y-100766571D01*
X159980476Y-101290380D02*
X159980476Y-100290380D01*
X160456666Y-100290380D01*
X160837619Y-101290380D02*
X160837619Y-100623714D01*
X160837619Y-100290380D02*
X160790000Y-100338000D01*
X160837619Y-100385619D01*
X160885238Y-100338000D01*
X160837619Y-100290380D01*
X160837619Y-100385619D01*
X161313809Y-100623714D02*
X161313809Y-101290380D01*
X161313809Y-100718952D02*
X161361428Y-100671333D01*
X161456666Y-100623714D01*
X161599523Y-100623714D01*
X161694761Y-100671333D01*
X161742380Y-100766571D01*
X161742380Y-101290380D01*
X162599523Y-101242761D02*
X162504285Y-101290380D01*
X162313809Y-101290380D01*
X162218571Y-101242761D01*
X162170952Y-101147523D01*
X162170952Y-100766571D01*
X162218571Y-100671333D01*
X162313809Y-100623714D01*
X162504285Y-100623714D01*
X162599523Y-100671333D01*
X162647142Y-100766571D01*
X162647142Y-100861809D01*
X162170952Y-100957047D01*
X158789904Y-92559142D02*
X158742285Y-92606761D01*
X158599428Y-92654380D01*
X158504190Y-92654380D01*
X158361333Y-92606761D01*
X158266095Y-92511523D01*
X158218476Y-92416285D01*
X158170857Y-92225809D01*
X158170857Y-92082952D01*
X158218476Y-91892476D01*
X158266095Y-91797238D01*
X158361333Y-91702000D01*
X158504190Y-91654380D01*
X158599428Y-91654380D01*
X158742285Y-91702000D01*
X158789904Y-91749619D01*
X159361333Y-92654380D02*
X159266095Y-92606761D01*
X159218476Y-92559142D01*
X159170857Y-92463904D01*
X159170857Y-92178190D01*
X159218476Y-92082952D01*
X159266095Y-92035333D01*
X159361333Y-91987714D01*
X159504190Y-91987714D01*
X159599428Y-92035333D01*
X159647047Y-92082952D01*
X159694666Y-92178190D01*
X159694666Y-92463904D01*
X159647047Y-92559142D01*
X159599428Y-92606761D01*
X159504190Y-92654380D01*
X159361333Y-92654380D01*
X160551809Y-92654380D02*
X160551809Y-92130571D01*
X160504190Y-92035333D01*
X160408952Y-91987714D01*
X160218476Y-91987714D01*
X160123238Y-92035333D01*
X160551809Y-92606761D02*
X160456571Y-92654380D01*
X160218476Y-92654380D01*
X160123238Y-92606761D01*
X160075619Y-92511523D01*
X160075619Y-92416285D01*
X160123238Y-92321047D01*
X160218476Y-92273428D01*
X160456571Y-92273428D01*
X160551809Y-92225809D01*
X161028000Y-92654380D02*
X161028000Y-91987714D01*
X161028000Y-92178190D02*
X161075619Y-92082952D01*
X161123238Y-92035333D01*
X161218476Y-91987714D01*
X161313714Y-91987714D01*
X161599428Y-92606761D02*
X161694666Y-92654380D01*
X161885142Y-92654380D01*
X161980380Y-92606761D01*
X162028000Y-92511523D01*
X162028000Y-92463904D01*
X161980380Y-92368666D01*
X161885142Y-92321047D01*
X161742285Y-92321047D01*
X161647047Y-92273428D01*
X161599428Y-92178190D01*
X161599428Y-92130571D01*
X161647047Y-92035333D01*
X161742285Y-91987714D01*
X161885142Y-91987714D01*
X161980380Y-92035333D01*
X162837523Y-92606761D02*
X162742285Y-92654380D01*
X162551809Y-92654380D01*
X162456571Y-92606761D01*
X162408952Y-92511523D01*
X162408952Y-92130571D01*
X162456571Y-92035333D01*
X162551809Y-91987714D01*
X162742285Y-91987714D01*
X162837523Y-92035333D01*
X162885142Y-92130571D01*
X162885142Y-92225809D01*
X162408952Y-92321047D01*
D11*
X182626000Y-85694000D02*
X185626000Y-85694000D01*
X185626000Y-85694000D02*
X185626000Y-97694000D01*
X185626000Y-97694000D02*
X179626000Y-97694000D01*
X179626000Y-97694000D02*
X179626000Y-85694000D01*
X179626000Y-85694000D02*
X182626000Y-85694000D01*
X153872000Y-91874078D02*
X153872000Y-91356922D01*
X152452000Y-91874078D02*
X152452000Y-91356922D01*
X159770578Y-78284000D02*
X159253422Y-78284000D01*
X159770578Y-79704000D02*
X159253422Y-79704000D01*
X165945078Y-78284000D02*
X165427922Y-78284000D01*
X165945078Y-79704000D02*
X165427922Y-79704000D01*
X149610578Y-78284000D02*
X149093422Y-78284000D01*
X149610578Y-79704000D02*
X149093422Y-79704000D01*
X174922922Y-71068000D02*
X175440078Y-71068000D01*
X174922922Y-69648000D02*
X175440078Y-69648000D01*
X149610578Y-80824000D02*
X149093422Y-80824000D01*
X149610578Y-82244000D02*
X149093422Y-82244000D01*
X149610578Y-83364000D02*
X149093422Y-83364000D01*
X149610578Y-84784000D02*
X149093422Y-84784000D01*
X149610578Y-85904000D02*
X149093422Y-85904000D01*
X149610578Y-87324000D02*
X149093422Y-87324000D01*
X190924922Y-78688000D02*
X191442078Y-78688000D01*
X190924922Y-77268000D02*
X191442078Y-77268000D01*
X181097422Y-81990000D02*
X181614578Y-81990000D01*
X181097422Y-80570000D02*
X181614578Y-80570000D01*
X192988000Y-93476578D02*
X192988000Y-92959422D01*
X191568000Y-93476578D02*
X191568000Y-92959422D01*
X193464922Y-74624000D02*
X193982078Y-74624000D01*
X193464922Y-73204000D02*
X193982078Y-73204000D01*
X181812000Y-99826578D02*
X181812000Y-99309422D01*
X180392000Y-99826578D02*
X180392000Y-99309422D01*
X171523922Y-65480000D02*
X172041078Y-65480000D01*
X171523922Y-64060000D02*
X172041078Y-64060000D01*
X161470078Y-66346000D02*
X160952922Y-66346000D01*
X161470078Y-67766000D02*
X160952922Y-67766000D01*
X161470078Y-70664000D02*
X160952922Y-70664000D01*
X161470078Y-72084000D02*
X160952922Y-72084000D01*
X165280078Y-64822000D02*
X164762922Y-64822000D01*
X165280078Y-66242000D02*
X164762922Y-66242000D01*
X155374078Y-80824000D02*
X154856922Y-80824000D01*
X155374078Y-82244000D02*
X154856922Y-82244000D01*
X156158000Y-89842078D02*
X156158000Y-89324922D01*
X154738000Y-89842078D02*
X154738000Y-89324922D01*
X153420578Y-93778000D02*
X152903422Y-93778000D01*
X153420578Y-95198000D02*
X152903422Y-95198000D01*
X165788078Y-94286000D02*
X165270922Y-94286000D01*
X165788078Y-95706000D02*
X165270922Y-95706000D01*
X153342078Y-97080000D02*
X152824922Y-97080000D01*
X153342078Y-98500000D02*
X152824922Y-98500000D01*
X165945078Y-98096000D02*
X165427922Y-98096000D01*
X165945078Y-99516000D02*
X165427922Y-99516000D01*
X183558922Y-72846000D02*
X184076078Y-72846000D01*
X183558922Y-71426000D02*
X184076078Y-71426000D01*
X181558000Y-71711078D02*
X181558000Y-71193922D01*
X180138000Y-71711078D02*
X180138000Y-71193922D01*
X177716922Y-73100000D02*
X178234078Y-73100000D01*
X177716922Y-71680000D02*
X178234078Y-71680000D01*
X217243922Y-90118000D02*
X217761078Y-90118000D01*
X217243922Y-88698000D02*
X217761078Y-88698000D01*
X217165422Y-100786000D02*
X217682578Y-100786000D01*
X217165422Y-99366000D02*
X217682578Y-99366000D01*
X222069922Y-89102000D02*
X222587078Y-89102000D01*
X222069922Y-87682000D02*
X222587078Y-87682000D01*
X200830922Y-88594000D02*
X201348078Y-88594000D01*
X200830922Y-87174000D02*
X201348078Y-87174000D01*
X201348078Y-85142000D02*
X200830922Y-85142000D01*
X201348078Y-86562000D02*
X200830922Y-86562000D01*
X201348078Y-89206000D02*
X200830922Y-89206000D01*
X201348078Y-90626000D02*
X200830922Y-90626000D01*
X198378578Y-76252000D02*
X197861422Y-76252000D01*
X198378578Y-77672000D02*
X197861422Y-77672000D01*
X201348078Y-97334000D02*
X200830922Y-97334000D01*
X201348078Y-98754000D02*
X200830922Y-98754000D01*
X200830922Y-96722000D02*
X201348078Y-96722000D01*
X200830922Y-95302000D02*
X201348078Y-95302000D01*
X201348078Y-91492000D02*
X200830922Y-91492000D01*
X201348078Y-92912000D02*
X200830922Y-92912000D01*
X201348078Y-93397000D02*
X200830922Y-93397000D01*
X201348078Y-94817000D02*
X200830922Y-94817000D01*
X217594922Y-84022000D02*
X218112078Y-84022000D01*
X217594922Y-82602000D02*
X218112078Y-82602000D01*
X216149422Y-74624000D02*
X216666578Y-74624000D01*
X216149422Y-73204000D02*
X216666578Y-73204000D01*
X223270578Y-71426000D02*
X222753422Y-71426000D01*
X223270578Y-72846000D02*
X222753422Y-72846000D01*
X227833422Y-88848000D02*
X228350578Y-88848000D01*
X227833422Y-87428000D02*
X228350578Y-87428000D01*
X233120000Y-84078578D02*
X233120000Y-83561422D01*
X231700000Y-84078578D02*
X231700000Y-83561422D01*
X233120000Y-79174078D02*
X233120000Y-78656922D01*
X231700000Y-79174078D02*
X231700000Y-78656922D01*
X148530000Y-72196000D02*
X148530000Y-70866000D01*
X149860000Y-72196000D02*
X148530000Y-72196000D01*
X151130000Y-72196000D02*
X151130000Y-69536000D01*
X151130000Y-69536000D02*
X156270000Y-69536000D01*
X151130000Y-72196000D02*
X156270000Y-72196000D01*
X156270000Y-72196000D02*
X156270000Y-69536000D01*
X155388000Y-96072000D02*
X155388000Y-94742000D01*
X156718000Y-96072000D02*
X155388000Y-96072000D01*
X157988000Y-96072000D02*
X157988000Y-93412000D01*
X157988000Y-93412000D02*
X163128000Y-93412000D01*
X157988000Y-96072000D02*
X163128000Y-96072000D01*
X163128000Y-96072000D02*
X163128000Y-93412000D01*
X155388000Y-99882000D02*
X155388000Y-98552000D01*
X156718000Y-99882000D02*
X155388000Y-99882000D01*
X157988000Y-99882000D02*
X157988000Y-97222000D01*
X157988000Y-97222000D02*
X163128000Y-97222000D01*
X157988000Y-99882000D02*
X163128000Y-99882000D01*
X163128000Y-99882000D02*
X163128000Y-97222000D01*
X148530000Y-68386000D02*
X148530000Y-67056000D01*
X149860000Y-68386000D02*
X148530000Y-68386000D01*
X151130000Y-68386000D02*
X151130000Y-65726000D01*
X151130000Y-65726000D02*
X156270000Y-65726000D01*
X151130000Y-68386000D02*
X156270000Y-68386000D01*
X156270000Y-68386000D02*
X156270000Y-65726000D01*
X156290000Y-77708000D02*
X154890000Y-77708000D01*
X154190000Y-77008000D02*
X154190000Y-76408000D01*
X154890000Y-75708000D02*
X156290000Y-75708000D01*
X156990000Y-76408000D02*
X156990000Y-77008000D01*
X156990000Y-77008000D02*
G75*
G02X156290000Y-77708000I-700000J0D01*
G01*
X156290000Y-75708000D02*
G75*
G02X156990000Y-76408000I0J-700000D01*
G01*
X154190000Y-76408000D02*
G75*
G02X154890000Y-75708000I700000J0D01*
G01*
X154890000Y-77708000D02*
G75*
G02X154190000Y-77008000I0J700000D01*
G01*
X156290000Y-75168000D02*
X154890000Y-75168000D01*
X154190000Y-74468000D02*
X154190000Y-73868000D01*
X154890000Y-73168000D02*
X156290000Y-73168000D01*
X156990000Y-73868000D02*
X156990000Y-74468000D01*
X156990000Y-74468000D02*
G75*
G02X156290000Y-75168000I-700000J0D01*
G01*
X156290000Y-73168000D02*
G75*
G02X156990000Y-73868000I0J-700000D01*
G01*
X154190000Y-73868000D02*
G75*
G02X154890000Y-73168000I700000J0D01*
G01*
X154890000Y-75168000D02*
G75*
G02X154190000Y-74468000I0J700000D01*
G01*
X148540000Y-75708000D02*
X149940000Y-75708000D01*
X150640000Y-76408000D02*
X150640000Y-77008000D01*
X149940000Y-77708000D02*
X148540000Y-77708000D01*
X147840000Y-77008000D02*
X147840000Y-76408000D01*
X147840000Y-76408000D02*
G75*
G02X148540000Y-75708000I700000J0D01*
G01*
X148540000Y-77708000D02*
G75*
G02X147840000Y-77008000I0J700000D01*
G01*
X150640000Y-77008000D02*
G75*
G02X149940000Y-77708000I-700000J0D01*
G01*
X149940000Y-75708000D02*
G75*
G02X150640000Y-76408000I0J-700000D01*
G01*
X149910000Y-73168000D02*
G75*
G02X150610000Y-73868000I0J-700000D01*
G01*
X150610000Y-74468000D02*
G75*
G02X149910000Y-75168000I-700000J0D01*
G01*
X148510000Y-75168000D02*
G75*
G02X147810000Y-74468000I0J700000D01*
G01*
X147810000Y-73868000D02*
G75*
G02X148510000Y-73168000I700000J0D01*
G01*
X147810000Y-74468000D02*
X147810000Y-73868000D01*
X149910000Y-75168000D02*
X148510000Y-75168000D01*
X150610000Y-73868000D02*
X150610000Y-74468000D01*
X148510000Y-73168000D02*
X149910000Y-73168000D01*
X144212000Y-72644000D02*
X146872000Y-72644000D01*
X144212000Y-72644000D02*
X144212000Y-90484000D01*
X144212000Y-90484000D02*
X146872000Y-90484000D01*
X146872000Y-72644000D02*
X146872000Y-90484000D01*
X146872000Y-70044000D02*
X146872000Y-71374000D01*
X145542000Y-70044000D02*
X146872000Y-70044000D01*
X227076000Y-64202000D02*
X227076000Y-66862000D01*
X227076000Y-64202000D02*
X216856000Y-64202000D01*
X216856000Y-64202000D02*
X216856000Y-66862000D01*
X227076000Y-66862000D02*
X216856000Y-66862000D01*
X229676000Y-66862000D02*
X228346000Y-66862000D01*
X229676000Y-65532000D02*
X229676000Y-66862000D01*
X189282000Y-93476578D02*
X189282000Y-92959422D01*
X190702000Y-93476578D02*
X190702000Y-92959422D01*
X180256922Y-78180000D02*
X180774078Y-78180000D01*
X180256922Y-76760000D02*
X180774078Y-76760000D01*
X174922922Y-67616000D02*
X175440078Y-67616000D01*
X174922922Y-69036000D02*
X175440078Y-69036000D01*
X159714000Y-89324922D02*
X159714000Y-89842078D01*
X158294000Y-89324922D02*
X158294000Y-89842078D01*
X161596000Y-89324922D02*
X161596000Y-89842078D01*
X163016000Y-89324922D02*
X163016000Y-89842078D01*
X149920000Y-95564000D02*
X149920000Y-92904000D01*
X144780000Y-95564000D02*
X149920000Y-95564000D01*
X144780000Y-92904000D02*
X149920000Y-92904000D01*
X144780000Y-95564000D02*
X144780000Y-92904000D01*
X143510000Y-95564000D02*
X142180000Y-95564000D01*
X142180000Y-95564000D02*
X142180000Y-94234000D01*
X149808000Y-89578922D02*
X149808000Y-90096078D01*
X148388000Y-89578922D02*
X148388000Y-90096078D01*
X174736000Y-79442000D02*
G75*
G02X172736000Y-79442000I-1000000J0D01*
G01*
X172736000Y-79442000D02*
X171086000Y-79442000D01*
X171086000Y-79442000D02*
X171086000Y-99882000D01*
X171086000Y-99882000D02*
X176386000Y-99882000D01*
X176386000Y-99882000D02*
X176386000Y-79442000D01*
X176386000Y-79442000D02*
X174736000Y-79442000D01*
X169148000Y-66996000D02*
G75*
G02X167148000Y-66996000I-1000000J0D01*
G01*
X167148000Y-66996000D02*
X165498000Y-66996000D01*
X165498000Y-66996000D02*
X165498000Y-77276000D01*
X165498000Y-77276000D02*
X170798000Y-77276000D01*
X170798000Y-77276000D02*
X170798000Y-66996000D01*
X170798000Y-66996000D02*
X169148000Y-66996000D01*
X226806000Y-89856000D02*
G75*
G02X224806000Y-89856000I-1000000J0D01*
G01*
X224806000Y-89856000D02*
X223156000Y-89856000D01*
X223156000Y-89856000D02*
X223156000Y-100136000D01*
X223156000Y-100136000D02*
X228456000Y-100136000D01*
X228456000Y-100136000D02*
X228456000Y-89856000D01*
X228456000Y-89856000D02*
X226806000Y-89856000D01*
X228710000Y-73600000D02*
X227060000Y-73600000D01*
X228710000Y-83880000D02*
X228710000Y-73600000D01*
X223410000Y-83880000D02*
X228710000Y-83880000D01*
X223410000Y-73600000D02*
X223410000Y-83880000D01*
X225060000Y-73600000D02*
X223410000Y-73600000D01*
X227060000Y-73600000D02*
G75*
G02X225060000Y-73600000I-1000000J0D01*
G01*
X209280000Y-77664000D02*
G75*
G02X207280000Y-77664000I-1000000J0D01*
G01*
X207280000Y-77664000D02*
X205630000Y-77664000D01*
X205630000Y-77664000D02*
X205630000Y-98104000D01*
X205630000Y-98104000D02*
X210930000Y-98104000D01*
X210930000Y-98104000D02*
X210930000Y-77664000D01*
X210930000Y-77664000D02*
X209280000Y-77664000D01*
X203958000Y-75666000D02*
X203958000Y-74466000D01*
X203958000Y-71146000D02*
X203958000Y-72346000D01*
X200502437Y-71146000D02*
X203958000Y-71146000D01*
X200502437Y-75666000D02*
X203958000Y-75666000D01*
X199438000Y-74601563D02*
X199438000Y-74466000D01*
X199438000Y-72210437D02*
X199438000Y-72346000D01*
X199438000Y-72210437D02*
X200502437Y-71146000D01*
X199438000Y-74601563D02*
X200502437Y-75666000D01*
X198698000Y-71846000D02*
X199198000Y-71846000D01*
X198948000Y-71596000D02*
X198948000Y-72096000D01*
X206016000Y-71596000D02*
X206016000Y-72096000D01*
X205766000Y-71846000D02*
X206266000Y-71846000D01*
X206506000Y-74601563D02*
X207570437Y-75666000D01*
X206506000Y-72210437D02*
X207570437Y-71146000D01*
X206506000Y-72210437D02*
X206506000Y-72346000D01*
X206506000Y-74601563D02*
X206506000Y-74466000D01*
X207570437Y-75666000D02*
X211026000Y-75666000D01*
X207570437Y-71146000D02*
X211026000Y-71146000D01*
X211026000Y-71146000D02*
X211026000Y-72346000D01*
X211026000Y-75666000D02*
X211026000Y-74466000D01*
D10*
X182883142Y-91860666D02*
X182930761Y-91908285D01*
X182978380Y-92051142D01*
X182978380Y-92146380D01*
X182930761Y-92289238D01*
X182835523Y-92384476D01*
X182740285Y-92432095D01*
X182549809Y-92479714D01*
X182406952Y-92479714D01*
X182216476Y-92432095D01*
X182121238Y-92384476D01*
X182026000Y-92289238D01*
X181978380Y-92146380D01*
X181978380Y-92051142D01*
X182026000Y-91908285D01*
X182073619Y-91860666D01*
X182978380Y-90908285D02*
X182978380Y-91479714D01*
X182978380Y-91194000D02*
X181978380Y-91194000D01*
X182121238Y-91289238D01*
X182216476Y-91384476D01*
X182264095Y-91479714D01*
X152487333Y-89511142D02*
X152439714Y-89558761D01*
X152296857Y-89606380D01*
X152201619Y-89606380D01*
X152058761Y-89558761D01*
X151963523Y-89463523D01*
X151915904Y-89368285D01*
X151868285Y-89177809D01*
X151868285Y-89034952D01*
X151915904Y-88844476D01*
X151963523Y-88749238D01*
X152058761Y-88654000D01*
X152201619Y-88606380D01*
X152296857Y-88606380D01*
X152439714Y-88654000D01*
X152487333Y-88701619D01*
X152868285Y-88701619D02*
X152915904Y-88654000D01*
X153011142Y-88606380D01*
X153249238Y-88606380D01*
X153344476Y-88654000D01*
X153392095Y-88701619D01*
X153439714Y-88796857D01*
X153439714Y-88892095D01*
X153392095Y-89034952D01*
X152820666Y-89606380D01*
X153439714Y-89606380D01*
X156551333Y-79351142D02*
X156503714Y-79398761D01*
X156360857Y-79446380D01*
X156265619Y-79446380D01*
X156122761Y-79398761D01*
X156027523Y-79303523D01*
X155979904Y-79208285D01*
X155932285Y-79017809D01*
X155932285Y-78874952D01*
X155979904Y-78684476D01*
X156027523Y-78589238D01*
X156122761Y-78494000D01*
X156265619Y-78446380D01*
X156360857Y-78446380D01*
X156503714Y-78494000D01*
X156551333Y-78541619D01*
X156884666Y-78446380D02*
X157503714Y-78446380D01*
X157170380Y-78827333D01*
X157313238Y-78827333D01*
X157408476Y-78874952D01*
X157456095Y-78922571D01*
X157503714Y-79017809D01*
X157503714Y-79255904D01*
X157456095Y-79351142D01*
X157408476Y-79398761D01*
X157313238Y-79446380D01*
X157027523Y-79446380D01*
X156932285Y-79398761D01*
X156884666Y-79351142D01*
X162550333Y-79351142D02*
X162502714Y-79398761D01*
X162359857Y-79446380D01*
X162264619Y-79446380D01*
X162121761Y-79398761D01*
X162026523Y-79303523D01*
X161978904Y-79208285D01*
X161931285Y-79017809D01*
X161931285Y-78874952D01*
X161978904Y-78684476D01*
X162026523Y-78589238D01*
X162121761Y-78494000D01*
X162264619Y-78446380D01*
X162359857Y-78446380D01*
X162502714Y-78494000D01*
X162550333Y-78541619D01*
X163407476Y-78779714D02*
X163407476Y-79446380D01*
X163169380Y-78398761D02*
X162931285Y-79113047D01*
X163550333Y-79113047D01*
X151930833Y-79351142D02*
X151883214Y-79398761D01*
X151740357Y-79446380D01*
X151645119Y-79446380D01*
X151502261Y-79398761D01*
X151407023Y-79303523D01*
X151359404Y-79208285D01*
X151311785Y-79017809D01*
X151311785Y-78874952D01*
X151359404Y-78684476D01*
X151407023Y-78589238D01*
X151502261Y-78494000D01*
X151645119Y-78446380D01*
X151740357Y-78446380D01*
X151883214Y-78494000D01*
X151930833Y-78541619D01*
X152835595Y-78446380D02*
X152359404Y-78446380D01*
X152311785Y-78922571D01*
X152359404Y-78874952D01*
X152454642Y-78827333D01*
X152692738Y-78827333D01*
X152787976Y-78874952D01*
X152835595Y-78922571D01*
X152883214Y-79017809D01*
X152883214Y-79255904D01*
X152835595Y-79351142D01*
X152787976Y-79398761D01*
X152692738Y-79446380D01*
X152454642Y-79446380D01*
X152359404Y-79398761D01*
X152311785Y-79351142D01*
X177935833Y-70588142D02*
X177888214Y-70635761D01*
X177745357Y-70683380D01*
X177650119Y-70683380D01*
X177507261Y-70635761D01*
X177412023Y-70540523D01*
X177364404Y-70445285D01*
X177316785Y-70254809D01*
X177316785Y-70111952D01*
X177364404Y-69921476D01*
X177412023Y-69826238D01*
X177507261Y-69731000D01*
X177650119Y-69683380D01*
X177745357Y-69683380D01*
X177888214Y-69731000D01*
X177935833Y-69778619D01*
X178792976Y-69683380D02*
X178602500Y-69683380D01*
X178507261Y-69731000D01*
X178459642Y-69778619D01*
X178364404Y-69921476D01*
X178316785Y-70111952D01*
X178316785Y-70492904D01*
X178364404Y-70588142D01*
X178412023Y-70635761D01*
X178507261Y-70683380D01*
X178697738Y-70683380D01*
X178792976Y-70635761D01*
X178840595Y-70588142D01*
X178888214Y-70492904D01*
X178888214Y-70254809D01*
X178840595Y-70159571D01*
X178792976Y-70111952D01*
X178697738Y-70064333D01*
X178507261Y-70064333D01*
X178412023Y-70111952D01*
X178364404Y-70159571D01*
X178316785Y-70254809D01*
X151979333Y-81986380D02*
X151646000Y-81510190D01*
X151407904Y-81986380D02*
X151407904Y-80986380D01*
X151788857Y-80986380D01*
X151884095Y-81034000D01*
X151931714Y-81081619D01*
X151979333Y-81176857D01*
X151979333Y-81319714D01*
X151931714Y-81414952D01*
X151884095Y-81462571D01*
X151788857Y-81510190D01*
X151407904Y-81510190D01*
X152931714Y-81986380D02*
X152360285Y-81986380D01*
X152646000Y-81986380D02*
X152646000Y-80986380D01*
X152550761Y-81129238D01*
X152455523Y-81224476D01*
X152360285Y-81272095D01*
X152027833Y-84526380D02*
X151694500Y-84050190D01*
X151456404Y-84526380D02*
X151456404Y-83526380D01*
X151837357Y-83526380D01*
X151932595Y-83574000D01*
X151980214Y-83621619D01*
X152027833Y-83716857D01*
X152027833Y-83859714D01*
X151980214Y-83954952D01*
X151932595Y-84002571D01*
X151837357Y-84050190D01*
X151456404Y-84050190D01*
X152408785Y-83621619D02*
X152456404Y-83574000D01*
X152551642Y-83526380D01*
X152789738Y-83526380D01*
X152884976Y-83574000D01*
X152932595Y-83621619D01*
X152980214Y-83716857D01*
X152980214Y-83812095D01*
X152932595Y-83954952D01*
X152361166Y-84526380D01*
X152980214Y-84526380D01*
X152057833Y-87066380D02*
X151724500Y-86590190D01*
X151486404Y-87066380D02*
X151486404Y-86066380D01*
X151867357Y-86066380D01*
X151962595Y-86114000D01*
X152010214Y-86161619D01*
X152057833Y-86256857D01*
X152057833Y-86399714D01*
X152010214Y-86494952D01*
X151962595Y-86542571D01*
X151867357Y-86590190D01*
X151486404Y-86590190D01*
X152391166Y-86066380D02*
X153010214Y-86066380D01*
X152676880Y-86447333D01*
X152819738Y-86447333D01*
X152914976Y-86494952D01*
X152962595Y-86542571D01*
X153010214Y-86637809D01*
X153010214Y-86875904D01*
X152962595Y-86971142D01*
X152914976Y-87018761D01*
X152819738Y-87066380D01*
X152534023Y-87066380D01*
X152438785Y-87018761D01*
X152391166Y-86971142D01*
X191016833Y-76906380D02*
X190683500Y-76430190D01*
X190445404Y-76906380D02*
X190445404Y-75906380D01*
X190826357Y-75906380D01*
X190921595Y-75954000D01*
X190969214Y-76001619D01*
X191016833Y-76096857D01*
X191016833Y-76239714D01*
X190969214Y-76334952D01*
X190921595Y-76382571D01*
X190826357Y-76430190D01*
X190445404Y-76430190D01*
X191873976Y-76239714D02*
X191873976Y-76906380D01*
X191635880Y-75858761D02*
X191397785Y-76573047D01*
X192016833Y-76573047D01*
X181189333Y-80208380D02*
X180856000Y-79732190D01*
X180617904Y-80208380D02*
X180617904Y-79208380D01*
X180998857Y-79208380D01*
X181094095Y-79256000D01*
X181141714Y-79303619D01*
X181189333Y-79398857D01*
X181189333Y-79541714D01*
X181141714Y-79636952D01*
X181094095Y-79684571D01*
X180998857Y-79732190D01*
X180617904Y-79732190D01*
X182094095Y-79208380D02*
X181617904Y-79208380D01*
X181570285Y-79684571D01*
X181617904Y-79636952D01*
X181713142Y-79589333D01*
X181951238Y-79589333D01*
X182046476Y-79636952D01*
X182094095Y-79684571D01*
X182141714Y-79779809D01*
X182141714Y-80017904D01*
X182094095Y-80113142D01*
X182046476Y-80160761D01*
X181951238Y-80208380D01*
X181713142Y-80208380D01*
X181617904Y-80160761D01*
X181570285Y-80113142D01*
X192111333Y-91384380D02*
X191778000Y-90908190D01*
X191539904Y-91384380D02*
X191539904Y-90384380D01*
X191920857Y-90384380D01*
X192016095Y-90432000D01*
X192063714Y-90479619D01*
X192111333Y-90574857D01*
X192111333Y-90717714D01*
X192063714Y-90812952D01*
X192016095Y-90860571D01*
X191920857Y-90908190D01*
X191539904Y-90908190D01*
X192968476Y-90384380D02*
X192778000Y-90384380D01*
X192682761Y-90432000D01*
X192635142Y-90479619D01*
X192539904Y-90622476D01*
X192492285Y-90812952D01*
X192492285Y-91193904D01*
X192539904Y-91289142D01*
X192587523Y-91336761D01*
X192682761Y-91384380D01*
X192873238Y-91384380D01*
X192968476Y-91336761D01*
X193016095Y-91289142D01*
X193063714Y-91193904D01*
X193063714Y-90955809D01*
X193016095Y-90860571D01*
X192968476Y-90812952D01*
X192873238Y-90765333D01*
X192682761Y-90765333D01*
X192587523Y-90812952D01*
X192539904Y-90860571D01*
X192492285Y-90955809D01*
X190762833Y-74366380D02*
X190429500Y-73890190D01*
X190191404Y-74366380D02*
X190191404Y-73366380D01*
X190572357Y-73366380D01*
X190667595Y-73414000D01*
X190715214Y-73461619D01*
X190762833Y-73556857D01*
X190762833Y-73699714D01*
X190715214Y-73794952D01*
X190667595Y-73842571D01*
X190572357Y-73890190D01*
X190191404Y-73890190D01*
X191096166Y-73366380D02*
X191762833Y-73366380D01*
X191334261Y-74366380D01*
X179904380Y-99734666D02*
X179428190Y-100068000D01*
X179904380Y-100306095D02*
X178904380Y-100306095D01*
X178904380Y-99925142D01*
X178952000Y-99829904D01*
X178999619Y-99782285D01*
X179094857Y-99734666D01*
X179237714Y-99734666D01*
X179332952Y-99782285D01*
X179380571Y-99829904D01*
X179428190Y-99925142D01*
X179428190Y-100306095D01*
X179332952Y-99163238D02*
X179285333Y-99258476D01*
X179237714Y-99306095D01*
X179142476Y-99353714D01*
X179094857Y-99353714D01*
X178999619Y-99306095D01*
X178952000Y-99258476D01*
X178904380Y-99163238D01*
X178904380Y-98972761D01*
X178952000Y-98877523D01*
X178999619Y-98829904D01*
X179094857Y-98782285D01*
X179142476Y-98782285D01*
X179237714Y-98829904D01*
X179285333Y-98877523D01*
X179332952Y-98972761D01*
X179332952Y-99163238D01*
X179380571Y-99258476D01*
X179428190Y-99306095D01*
X179523428Y-99353714D01*
X179713904Y-99353714D01*
X179809142Y-99306095D01*
X179856761Y-99258476D01*
X179904380Y-99163238D01*
X179904380Y-98972761D01*
X179856761Y-98877523D01*
X179809142Y-98829904D01*
X179713904Y-98782285D01*
X179523428Y-98782285D01*
X179428190Y-98829904D01*
X179380571Y-98877523D01*
X179332952Y-98972761D01*
X168821833Y-65222380D02*
X168488500Y-64746190D01*
X168250404Y-65222380D02*
X168250404Y-64222380D01*
X168631357Y-64222380D01*
X168726595Y-64270000D01*
X168774214Y-64317619D01*
X168821833Y-64412857D01*
X168821833Y-64555714D01*
X168774214Y-64650952D01*
X168726595Y-64698571D01*
X168631357Y-64746190D01*
X168250404Y-64746190D01*
X169298023Y-65222380D02*
X169488500Y-65222380D01*
X169583738Y-65174761D01*
X169631357Y-65127142D01*
X169726595Y-64984285D01*
X169774214Y-64793809D01*
X169774214Y-64412857D01*
X169726595Y-64317619D01*
X169678976Y-64270000D01*
X169583738Y-64222380D01*
X169393261Y-64222380D01*
X169298023Y-64270000D01*
X169250404Y-64317619D01*
X169202785Y-64412857D01*
X169202785Y-64650952D01*
X169250404Y-64746190D01*
X169298023Y-64793809D01*
X169393261Y-64841428D01*
X169583738Y-64841428D01*
X169678976Y-64793809D01*
X169726595Y-64746190D01*
X169774214Y-64650952D01*
X157442142Y-67508380D02*
X157108809Y-67032190D01*
X156870714Y-67508380D02*
X156870714Y-66508380D01*
X157251666Y-66508380D01*
X157346904Y-66556000D01*
X157394523Y-66603619D01*
X157442142Y-66698857D01*
X157442142Y-66841714D01*
X157394523Y-66936952D01*
X157346904Y-66984571D01*
X157251666Y-67032190D01*
X156870714Y-67032190D01*
X158394523Y-67508380D02*
X157823095Y-67508380D01*
X158108809Y-67508380D02*
X158108809Y-66508380D01*
X158013571Y-66651238D01*
X157918333Y-66746476D01*
X157823095Y-66794095D01*
X159013571Y-66508380D02*
X159108809Y-66508380D01*
X159204047Y-66556000D01*
X159251666Y-66603619D01*
X159299285Y-66698857D01*
X159346904Y-66889333D01*
X159346904Y-67127428D01*
X159299285Y-67317904D01*
X159251666Y-67413142D01*
X159204047Y-67460761D01*
X159108809Y-67508380D01*
X159013571Y-67508380D01*
X158918333Y-67460761D01*
X158870714Y-67413142D01*
X158823095Y-67317904D01*
X158775476Y-67127428D01*
X158775476Y-66889333D01*
X158823095Y-66698857D01*
X158870714Y-66603619D01*
X158918333Y-66556000D01*
X159013571Y-66508380D01*
X157442142Y-72334380D02*
X157108809Y-71858190D01*
X156870714Y-72334380D02*
X156870714Y-71334380D01*
X157251666Y-71334380D01*
X157346904Y-71382000D01*
X157394523Y-71429619D01*
X157442142Y-71524857D01*
X157442142Y-71667714D01*
X157394523Y-71762952D01*
X157346904Y-71810571D01*
X157251666Y-71858190D01*
X156870714Y-71858190D01*
X158394523Y-72334380D02*
X157823095Y-72334380D01*
X158108809Y-72334380D02*
X158108809Y-71334380D01*
X158013571Y-71477238D01*
X157918333Y-71572476D01*
X157823095Y-71620095D01*
X159346904Y-72334380D02*
X158775476Y-72334380D01*
X159061190Y-72334380D02*
X159061190Y-71334380D01*
X158965952Y-71477238D01*
X158870714Y-71572476D01*
X158775476Y-71620095D01*
X161076642Y-65984380D02*
X160743309Y-65508190D01*
X160505214Y-65984380D02*
X160505214Y-64984380D01*
X160886166Y-64984380D01*
X160981404Y-65032000D01*
X161029023Y-65079619D01*
X161076642Y-65174857D01*
X161076642Y-65317714D01*
X161029023Y-65412952D01*
X160981404Y-65460571D01*
X160886166Y-65508190D01*
X160505214Y-65508190D01*
X162029023Y-65984380D02*
X161457595Y-65984380D01*
X161743309Y-65984380D02*
X161743309Y-64984380D01*
X161648071Y-65127238D01*
X161552833Y-65222476D01*
X161457595Y-65270095D01*
X162409976Y-65079619D02*
X162457595Y-65032000D01*
X162552833Y-64984380D01*
X162790928Y-64984380D01*
X162886166Y-65032000D01*
X162933785Y-65079619D01*
X162981404Y-65174857D01*
X162981404Y-65270095D01*
X162933785Y-65412952D01*
X162362357Y-65984380D01*
X162981404Y-65984380D01*
X154170142Y-80335380D02*
X153836809Y-79859190D01*
X153598714Y-80335380D02*
X153598714Y-79335380D01*
X153979666Y-79335380D01*
X154074904Y-79383000D01*
X154122523Y-79430619D01*
X154170142Y-79525857D01*
X154170142Y-79668714D01*
X154122523Y-79763952D01*
X154074904Y-79811571D01*
X153979666Y-79859190D01*
X153598714Y-79859190D01*
X155122523Y-80335380D02*
X154551095Y-80335380D01*
X154836809Y-80335380D02*
X154836809Y-79335380D01*
X154741571Y-79478238D01*
X154646333Y-79573476D01*
X154551095Y-79621095D01*
X155979666Y-79668714D02*
X155979666Y-80335380D01*
X155741571Y-79287761D02*
X155503476Y-80002047D01*
X156122523Y-80002047D01*
X155059142Y-87622880D02*
X154725809Y-87146690D01*
X154487714Y-87622880D02*
X154487714Y-86622880D01*
X154868666Y-86622880D01*
X154963904Y-86670500D01*
X155011523Y-86718119D01*
X155059142Y-86813357D01*
X155059142Y-86956214D01*
X155011523Y-87051452D01*
X154963904Y-87099071D01*
X154868666Y-87146690D01*
X154487714Y-87146690D01*
X156011523Y-87622880D02*
X155440095Y-87622880D01*
X155725809Y-87622880D02*
X155725809Y-86622880D01*
X155630571Y-86765738D01*
X155535333Y-86860976D01*
X155440095Y-86908595D01*
X156916285Y-86622880D02*
X156440095Y-86622880D01*
X156392476Y-87099071D01*
X156440095Y-87051452D01*
X156535333Y-87003833D01*
X156773428Y-87003833D01*
X156868666Y-87051452D01*
X156916285Y-87099071D01*
X156963904Y-87194309D01*
X156963904Y-87432404D01*
X156916285Y-87527642D01*
X156868666Y-87575261D01*
X156773428Y-87622880D01*
X156535333Y-87622880D01*
X156440095Y-87575261D01*
X156392476Y-87527642D01*
X152694642Y-96718380D02*
X152361309Y-96242190D01*
X152123214Y-96718380D02*
X152123214Y-95718380D01*
X152504166Y-95718380D01*
X152599404Y-95766000D01*
X152647023Y-95813619D01*
X152694642Y-95908857D01*
X152694642Y-96051714D01*
X152647023Y-96146952D01*
X152599404Y-96194571D01*
X152504166Y-96242190D01*
X152123214Y-96242190D01*
X153647023Y-96718380D02*
X153075595Y-96718380D01*
X153361309Y-96718380D02*
X153361309Y-95718380D01*
X153266071Y-95861238D01*
X153170833Y-95956476D01*
X153075595Y-96004095D01*
X154504166Y-95718380D02*
X154313690Y-95718380D01*
X154218452Y-95766000D01*
X154170833Y-95813619D01*
X154075595Y-95956476D01*
X154027976Y-96146952D01*
X154027976Y-96527904D01*
X154075595Y-96623142D01*
X154123214Y-96670761D01*
X154218452Y-96718380D01*
X154408928Y-96718380D01*
X154504166Y-96670761D01*
X154551785Y-96623142D01*
X154599404Y-96527904D01*
X154599404Y-96289809D01*
X154551785Y-96194571D01*
X154504166Y-96146952D01*
X154408928Y-96099333D01*
X154218452Y-96099333D01*
X154123214Y-96146952D01*
X154075595Y-96194571D01*
X154027976Y-96289809D01*
X164584142Y-93797380D02*
X164250809Y-93321190D01*
X164012714Y-93797380D02*
X164012714Y-92797380D01*
X164393666Y-92797380D01*
X164488904Y-92845000D01*
X164536523Y-92892619D01*
X164584142Y-92987857D01*
X164584142Y-93130714D01*
X164536523Y-93225952D01*
X164488904Y-93273571D01*
X164393666Y-93321190D01*
X164012714Y-93321190D01*
X165536523Y-93797380D02*
X164965095Y-93797380D01*
X165250809Y-93797380D02*
X165250809Y-92797380D01*
X165155571Y-92940238D01*
X165060333Y-93035476D01*
X164965095Y-93083095D01*
X165869857Y-92797380D02*
X166536523Y-92797380D01*
X166107952Y-93797380D01*
X152694642Y-100020380D02*
X152361309Y-99544190D01*
X152123214Y-100020380D02*
X152123214Y-99020380D01*
X152504166Y-99020380D01*
X152599404Y-99068000D01*
X152647023Y-99115619D01*
X152694642Y-99210857D01*
X152694642Y-99353714D01*
X152647023Y-99448952D01*
X152599404Y-99496571D01*
X152504166Y-99544190D01*
X152123214Y-99544190D01*
X153647023Y-100020380D02*
X153075595Y-100020380D01*
X153361309Y-100020380D02*
X153361309Y-99020380D01*
X153266071Y-99163238D01*
X153170833Y-99258476D01*
X153075595Y-99306095D01*
X154218452Y-99448952D02*
X154123214Y-99401333D01*
X154075595Y-99353714D01*
X154027976Y-99258476D01*
X154027976Y-99210857D01*
X154075595Y-99115619D01*
X154123214Y-99068000D01*
X154218452Y-99020380D01*
X154408928Y-99020380D01*
X154504166Y-99068000D01*
X154551785Y-99115619D01*
X154599404Y-99210857D01*
X154599404Y-99258476D01*
X154551785Y-99353714D01*
X154504166Y-99401333D01*
X154408928Y-99448952D01*
X154218452Y-99448952D01*
X154123214Y-99496571D01*
X154075595Y-99544190D01*
X154027976Y-99639428D01*
X154027976Y-99829904D01*
X154075595Y-99925142D01*
X154123214Y-99972761D01*
X154218452Y-100020380D01*
X154408928Y-100020380D01*
X154504166Y-99972761D01*
X154551785Y-99925142D01*
X154599404Y-99829904D01*
X154599404Y-99639428D01*
X154551785Y-99544190D01*
X154504166Y-99496571D01*
X154408928Y-99448952D01*
X164741142Y-97607380D02*
X164407809Y-97131190D01*
X164169714Y-97607380D02*
X164169714Y-96607380D01*
X164550666Y-96607380D01*
X164645904Y-96655000D01*
X164693523Y-96702619D01*
X164741142Y-96797857D01*
X164741142Y-96940714D01*
X164693523Y-97035952D01*
X164645904Y-97083571D01*
X164550666Y-97131190D01*
X164169714Y-97131190D01*
X165693523Y-97607380D02*
X165122095Y-97607380D01*
X165407809Y-97607380D02*
X165407809Y-96607380D01*
X165312571Y-96750238D01*
X165217333Y-96845476D01*
X165122095Y-96893095D01*
X166169714Y-97607380D02*
X166360190Y-97607380D01*
X166455428Y-97559761D01*
X166503047Y-97512142D01*
X166598285Y-97369285D01*
X166645904Y-97178809D01*
X166645904Y-96797857D01*
X166598285Y-96702619D01*
X166550666Y-96655000D01*
X166455428Y-96607380D01*
X166264952Y-96607380D01*
X166169714Y-96655000D01*
X166122095Y-96702619D01*
X166074476Y-96797857D01*
X166074476Y-97035952D01*
X166122095Y-97131190D01*
X166169714Y-97178809D01*
X166264952Y-97226428D01*
X166455428Y-97226428D01*
X166550666Y-97178809D01*
X166598285Y-97131190D01*
X166645904Y-97035952D01*
X186222642Y-72588380D02*
X185889309Y-72112190D01*
X185651214Y-72588380D02*
X185651214Y-71588380D01*
X186032166Y-71588380D01*
X186127404Y-71636000D01*
X186175023Y-71683619D01*
X186222642Y-71778857D01*
X186222642Y-71921714D01*
X186175023Y-72016952D01*
X186127404Y-72064571D01*
X186032166Y-72112190D01*
X185651214Y-72112190D01*
X186603595Y-71683619D02*
X186651214Y-71636000D01*
X186746452Y-71588380D01*
X186984547Y-71588380D01*
X187079785Y-71636000D01*
X187127404Y-71683619D01*
X187175023Y-71778857D01*
X187175023Y-71874095D01*
X187127404Y-72016952D01*
X186555976Y-72588380D01*
X187175023Y-72588380D01*
X187794071Y-71588380D02*
X187889309Y-71588380D01*
X187984547Y-71636000D01*
X188032166Y-71683619D01*
X188079785Y-71778857D01*
X188127404Y-71969333D01*
X188127404Y-72207428D01*
X188079785Y-72397904D01*
X188032166Y-72493142D01*
X187984547Y-72540761D01*
X187889309Y-72588380D01*
X187794071Y-72588380D01*
X187698833Y-72540761D01*
X187651214Y-72493142D01*
X187603595Y-72397904D01*
X187555976Y-72207428D01*
X187555976Y-71969333D01*
X187603595Y-71778857D01*
X187651214Y-71683619D01*
X187698833Y-71636000D01*
X187794071Y-71588380D01*
X180332142Y-74571880D02*
X179998809Y-74095690D01*
X179760714Y-74571880D02*
X179760714Y-73571880D01*
X180141666Y-73571880D01*
X180236904Y-73619500D01*
X180284523Y-73667119D01*
X180332142Y-73762357D01*
X180332142Y-73905214D01*
X180284523Y-74000452D01*
X180236904Y-74048071D01*
X180141666Y-74095690D01*
X179760714Y-74095690D01*
X180713095Y-73667119D02*
X180760714Y-73619500D01*
X180855952Y-73571880D01*
X181094047Y-73571880D01*
X181189285Y-73619500D01*
X181236904Y-73667119D01*
X181284523Y-73762357D01*
X181284523Y-73857595D01*
X181236904Y-74000452D01*
X180665476Y-74571880D01*
X181284523Y-74571880D01*
X182236904Y-74571880D02*
X181665476Y-74571880D01*
X181951190Y-74571880D02*
X181951190Y-73571880D01*
X181855952Y-73714738D01*
X181760714Y-73809976D01*
X181665476Y-73857595D01*
X174157642Y-72969380D02*
X173824309Y-72493190D01*
X173586214Y-72969380D02*
X173586214Y-71969380D01*
X173967166Y-71969380D01*
X174062404Y-72017000D01*
X174110023Y-72064619D01*
X174157642Y-72159857D01*
X174157642Y-72302714D01*
X174110023Y-72397952D01*
X174062404Y-72445571D01*
X173967166Y-72493190D01*
X173586214Y-72493190D01*
X174538595Y-72064619D02*
X174586214Y-72017000D01*
X174681452Y-71969380D01*
X174919547Y-71969380D01*
X175014785Y-72017000D01*
X175062404Y-72064619D01*
X175110023Y-72159857D01*
X175110023Y-72255095D01*
X175062404Y-72397952D01*
X174490976Y-72969380D01*
X175110023Y-72969380D01*
X175490976Y-72064619D02*
X175538595Y-72017000D01*
X175633833Y-71969380D01*
X175871928Y-71969380D01*
X175967166Y-72017000D01*
X176014785Y-72064619D01*
X176062404Y-72159857D01*
X176062404Y-72255095D01*
X176014785Y-72397952D01*
X175443357Y-72969380D01*
X176062404Y-72969380D01*
X216859642Y-88210380D02*
X216526309Y-87734190D01*
X216288214Y-88210380D02*
X216288214Y-87210380D01*
X216669166Y-87210380D01*
X216764404Y-87258000D01*
X216812023Y-87305619D01*
X216859642Y-87400857D01*
X216859642Y-87543714D01*
X216812023Y-87638952D01*
X216764404Y-87686571D01*
X216669166Y-87734190D01*
X216288214Y-87734190D01*
X217240595Y-87305619D02*
X217288214Y-87258000D01*
X217383452Y-87210380D01*
X217621547Y-87210380D01*
X217716785Y-87258000D01*
X217764404Y-87305619D01*
X217812023Y-87400857D01*
X217812023Y-87496095D01*
X217764404Y-87638952D01*
X217192976Y-88210380D01*
X217812023Y-88210380D01*
X218145357Y-87210380D02*
X218764404Y-87210380D01*
X218431071Y-87591333D01*
X218573928Y-87591333D01*
X218669166Y-87638952D01*
X218716785Y-87686571D01*
X218764404Y-87781809D01*
X218764404Y-88019904D01*
X218716785Y-88115142D01*
X218669166Y-88162761D01*
X218573928Y-88210380D01*
X218288214Y-88210380D01*
X218192976Y-88162761D01*
X218145357Y-88115142D01*
X216781142Y-98878380D02*
X216447809Y-98402190D01*
X216209714Y-98878380D02*
X216209714Y-97878380D01*
X216590666Y-97878380D01*
X216685904Y-97926000D01*
X216733523Y-97973619D01*
X216781142Y-98068857D01*
X216781142Y-98211714D01*
X216733523Y-98306952D01*
X216685904Y-98354571D01*
X216590666Y-98402190D01*
X216209714Y-98402190D01*
X217162095Y-97973619D02*
X217209714Y-97926000D01*
X217304952Y-97878380D01*
X217543047Y-97878380D01*
X217638285Y-97926000D01*
X217685904Y-97973619D01*
X217733523Y-98068857D01*
X217733523Y-98164095D01*
X217685904Y-98306952D01*
X217114476Y-98878380D01*
X217733523Y-98878380D01*
X218590666Y-98211714D02*
X218590666Y-98878380D01*
X218352571Y-97830761D02*
X218114476Y-98545047D01*
X218733523Y-98545047D01*
X221685642Y-87194380D02*
X221352309Y-86718190D01*
X221114214Y-87194380D02*
X221114214Y-86194380D01*
X221495166Y-86194380D01*
X221590404Y-86242000D01*
X221638023Y-86289619D01*
X221685642Y-86384857D01*
X221685642Y-86527714D01*
X221638023Y-86622952D01*
X221590404Y-86670571D01*
X221495166Y-86718190D01*
X221114214Y-86718190D01*
X222066595Y-86289619D02*
X222114214Y-86242000D01*
X222209452Y-86194380D01*
X222447547Y-86194380D01*
X222542785Y-86242000D01*
X222590404Y-86289619D01*
X222638023Y-86384857D01*
X222638023Y-86480095D01*
X222590404Y-86622952D01*
X222018976Y-87194380D01*
X222638023Y-87194380D01*
X223542785Y-86194380D02*
X223066595Y-86194380D01*
X223018976Y-86670571D01*
X223066595Y-86622952D01*
X223161833Y-86575333D01*
X223399928Y-86575333D01*
X223495166Y-86622952D01*
X223542785Y-86670571D01*
X223590404Y-86765809D01*
X223590404Y-87003904D01*
X223542785Y-87099142D01*
X223495166Y-87146761D01*
X223399928Y-87194380D01*
X223161833Y-87194380D01*
X223066595Y-87146761D01*
X223018976Y-87099142D01*
X197223142Y-88463380D02*
X196889809Y-87987190D01*
X196651714Y-88463380D02*
X196651714Y-87463380D01*
X197032666Y-87463380D01*
X197127904Y-87511000D01*
X197175523Y-87558619D01*
X197223142Y-87653857D01*
X197223142Y-87796714D01*
X197175523Y-87891952D01*
X197127904Y-87939571D01*
X197032666Y-87987190D01*
X196651714Y-87987190D01*
X197604095Y-87558619D02*
X197651714Y-87511000D01*
X197746952Y-87463380D01*
X197985047Y-87463380D01*
X198080285Y-87511000D01*
X198127904Y-87558619D01*
X198175523Y-87653857D01*
X198175523Y-87749095D01*
X198127904Y-87891952D01*
X197556476Y-88463380D01*
X198175523Y-88463380D01*
X199032666Y-87463380D02*
X198842190Y-87463380D01*
X198746952Y-87511000D01*
X198699333Y-87558619D01*
X198604095Y-87701476D01*
X198556476Y-87891952D01*
X198556476Y-88272904D01*
X198604095Y-88368142D01*
X198651714Y-88415761D01*
X198746952Y-88463380D01*
X198937428Y-88463380D01*
X199032666Y-88415761D01*
X199080285Y-88368142D01*
X199127904Y-88272904D01*
X199127904Y-88034809D01*
X199080285Y-87939571D01*
X199032666Y-87891952D01*
X198937428Y-87844333D01*
X198746952Y-87844333D01*
X198651714Y-87891952D01*
X198604095Y-87939571D01*
X198556476Y-88034809D01*
X197223142Y-86304380D02*
X196889809Y-85828190D01*
X196651714Y-86304380D02*
X196651714Y-85304380D01*
X197032666Y-85304380D01*
X197127904Y-85352000D01*
X197175523Y-85399619D01*
X197223142Y-85494857D01*
X197223142Y-85637714D01*
X197175523Y-85732952D01*
X197127904Y-85780571D01*
X197032666Y-85828190D01*
X196651714Y-85828190D01*
X197604095Y-85399619D02*
X197651714Y-85352000D01*
X197746952Y-85304380D01*
X197985047Y-85304380D01*
X198080285Y-85352000D01*
X198127904Y-85399619D01*
X198175523Y-85494857D01*
X198175523Y-85590095D01*
X198127904Y-85732952D01*
X197556476Y-86304380D01*
X198175523Y-86304380D01*
X198508857Y-85304380D02*
X199175523Y-85304380D01*
X198746952Y-86304380D01*
X197144642Y-90368380D02*
X196811309Y-89892190D01*
X196573214Y-90368380D02*
X196573214Y-89368380D01*
X196954166Y-89368380D01*
X197049404Y-89416000D01*
X197097023Y-89463619D01*
X197144642Y-89558857D01*
X197144642Y-89701714D01*
X197097023Y-89796952D01*
X197049404Y-89844571D01*
X196954166Y-89892190D01*
X196573214Y-89892190D01*
X197525595Y-89463619D02*
X197573214Y-89416000D01*
X197668452Y-89368380D01*
X197906547Y-89368380D01*
X198001785Y-89416000D01*
X198049404Y-89463619D01*
X198097023Y-89558857D01*
X198097023Y-89654095D01*
X198049404Y-89796952D01*
X197477976Y-90368380D01*
X198097023Y-90368380D01*
X198668452Y-89796952D02*
X198573214Y-89749333D01*
X198525595Y-89701714D01*
X198477976Y-89606476D01*
X198477976Y-89558857D01*
X198525595Y-89463619D01*
X198573214Y-89416000D01*
X198668452Y-89368380D01*
X198858928Y-89368380D01*
X198954166Y-89416000D01*
X199001785Y-89463619D01*
X199049404Y-89558857D01*
X199049404Y-89606476D01*
X199001785Y-89701714D01*
X198954166Y-89749333D01*
X198858928Y-89796952D01*
X198668452Y-89796952D01*
X198573214Y-89844571D01*
X198525595Y-89892190D01*
X198477976Y-89987428D01*
X198477976Y-90177904D01*
X198525595Y-90273142D01*
X198573214Y-90320761D01*
X198668452Y-90368380D01*
X198858928Y-90368380D01*
X198954166Y-90320761D01*
X199001785Y-90273142D01*
X199049404Y-90177904D01*
X199049404Y-89987428D01*
X199001785Y-89892190D01*
X198954166Y-89844571D01*
X198858928Y-89796952D01*
X197223142Y-75890380D02*
X196889809Y-75414190D01*
X196651714Y-75890380D02*
X196651714Y-74890380D01*
X197032666Y-74890380D01*
X197127904Y-74938000D01*
X197175523Y-74985619D01*
X197223142Y-75080857D01*
X197223142Y-75223714D01*
X197175523Y-75318952D01*
X197127904Y-75366571D01*
X197032666Y-75414190D01*
X196651714Y-75414190D01*
X197604095Y-74985619D02*
X197651714Y-74938000D01*
X197746952Y-74890380D01*
X197985047Y-74890380D01*
X198080285Y-74938000D01*
X198127904Y-74985619D01*
X198175523Y-75080857D01*
X198175523Y-75176095D01*
X198127904Y-75318952D01*
X197556476Y-75890380D01*
X198175523Y-75890380D01*
X198651714Y-75890380D02*
X198842190Y-75890380D01*
X198937428Y-75842761D01*
X198985047Y-75795142D01*
X199080285Y-75652285D01*
X199127904Y-75461809D01*
X199127904Y-75080857D01*
X199080285Y-74985619D01*
X199032666Y-74938000D01*
X198937428Y-74890380D01*
X198746952Y-74890380D01*
X198651714Y-74938000D01*
X198604095Y-74985619D01*
X198556476Y-75080857D01*
X198556476Y-75318952D01*
X198604095Y-75414190D01*
X198651714Y-75461809D01*
X198746952Y-75509428D01*
X198937428Y-75509428D01*
X199032666Y-75461809D01*
X199080285Y-75414190D01*
X199127904Y-75318952D01*
X197223142Y-98496380D02*
X196889809Y-98020190D01*
X196651714Y-98496380D02*
X196651714Y-97496380D01*
X197032666Y-97496380D01*
X197127904Y-97544000D01*
X197175523Y-97591619D01*
X197223142Y-97686857D01*
X197223142Y-97829714D01*
X197175523Y-97924952D01*
X197127904Y-97972571D01*
X197032666Y-98020190D01*
X196651714Y-98020190D01*
X197556476Y-97496380D02*
X198175523Y-97496380D01*
X197842190Y-97877333D01*
X197985047Y-97877333D01*
X198080285Y-97924952D01*
X198127904Y-97972571D01*
X198175523Y-98067809D01*
X198175523Y-98305904D01*
X198127904Y-98401142D01*
X198080285Y-98448761D01*
X197985047Y-98496380D01*
X197699333Y-98496380D01*
X197604095Y-98448761D01*
X197556476Y-98401142D01*
X198794571Y-97496380D02*
X198889809Y-97496380D01*
X198985047Y-97544000D01*
X199032666Y-97591619D01*
X199080285Y-97686857D01*
X199127904Y-97877333D01*
X199127904Y-98115428D01*
X199080285Y-98305904D01*
X199032666Y-98401142D01*
X198985047Y-98448761D01*
X198889809Y-98496380D01*
X198794571Y-98496380D01*
X198699333Y-98448761D01*
X198651714Y-98401142D01*
X198604095Y-98305904D01*
X198556476Y-98115428D01*
X198556476Y-97877333D01*
X198604095Y-97686857D01*
X198651714Y-97591619D01*
X198699333Y-97544000D01*
X198794571Y-97496380D01*
X197223142Y-96464380D02*
X196889809Y-95988190D01*
X196651714Y-96464380D02*
X196651714Y-95464380D01*
X197032666Y-95464380D01*
X197127904Y-95512000D01*
X197175523Y-95559619D01*
X197223142Y-95654857D01*
X197223142Y-95797714D01*
X197175523Y-95892952D01*
X197127904Y-95940571D01*
X197032666Y-95988190D01*
X196651714Y-95988190D01*
X197556476Y-95464380D02*
X198175523Y-95464380D01*
X197842190Y-95845333D01*
X197985047Y-95845333D01*
X198080285Y-95892952D01*
X198127904Y-95940571D01*
X198175523Y-96035809D01*
X198175523Y-96273904D01*
X198127904Y-96369142D01*
X198080285Y-96416761D01*
X197985047Y-96464380D01*
X197699333Y-96464380D01*
X197604095Y-96416761D01*
X197556476Y-96369142D01*
X199127904Y-96464380D02*
X198556476Y-96464380D01*
X198842190Y-96464380D02*
X198842190Y-95464380D01*
X198746952Y-95607238D01*
X198651714Y-95702476D01*
X198556476Y-95750095D01*
X197223142Y-92654380D02*
X196889809Y-92178190D01*
X196651714Y-92654380D02*
X196651714Y-91654380D01*
X197032666Y-91654380D01*
X197127904Y-91702000D01*
X197175523Y-91749619D01*
X197223142Y-91844857D01*
X197223142Y-91987714D01*
X197175523Y-92082952D01*
X197127904Y-92130571D01*
X197032666Y-92178190D01*
X196651714Y-92178190D01*
X197556476Y-91654380D02*
X198175523Y-91654380D01*
X197842190Y-92035333D01*
X197985047Y-92035333D01*
X198080285Y-92082952D01*
X198127904Y-92130571D01*
X198175523Y-92225809D01*
X198175523Y-92463904D01*
X198127904Y-92559142D01*
X198080285Y-92606761D01*
X197985047Y-92654380D01*
X197699333Y-92654380D01*
X197604095Y-92606761D01*
X197556476Y-92559142D01*
X198556476Y-91749619D02*
X198604095Y-91702000D01*
X198699333Y-91654380D01*
X198937428Y-91654380D01*
X199032666Y-91702000D01*
X199080285Y-91749619D01*
X199127904Y-91844857D01*
X199127904Y-91940095D01*
X199080285Y-92082952D01*
X198508857Y-92654380D01*
X199127904Y-92654380D01*
X197223142Y-94813380D02*
X196889809Y-94337190D01*
X196651714Y-94813380D02*
X196651714Y-93813380D01*
X197032666Y-93813380D01*
X197127904Y-93861000D01*
X197175523Y-93908619D01*
X197223142Y-94003857D01*
X197223142Y-94146714D01*
X197175523Y-94241952D01*
X197127904Y-94289571D01*
X197032666Y-94337190D01*
X196651714Y-94337190D01*
X197556476Y-93813380D02*
X198175523Y-93813380D01*
X197842190Y-94194333D01*
X197985047Y-94194333D01*
X198080285Y-94241952D01*
X198127904Y-94289571D01*
X198175523Y-94384809D01*
X198175523Y-94622904D01*
X198127904Y-94718142D01*
X198080285Y-94765761D01*
X197985047Y-94813380D01*
X197699333Y-94813380D01*
X197604095Y-94765761D01*
X197556476Y-94718142D01*
X198508857Y-93813380D02*
X199127904Y-93813380D01*
X198794571Y-94194333D01*
X198937428Y-94194333D01*
X199032666Y-94241952D01*
X199080285Y-94289571D01*
X199127904Y-94384809D01*
X199127904Y-94622904D01*
X199080285Y-94718142D01*
X199032666Y-94765761D01*
X198937428Y-94813380D01*
X198651714Y-94813380D01*
X198556476Y-94765761D01*
X198508857Y-94718142D01*
X213908642Y-83764380D02*
X213575309Y-83288190D01*
X213337214Y-83764380D02*
X213337214Y-82764380D01*
X213718166Y-82764380D01*
X213813404Y-82812000D01*
X213861023Y-82859619D01*
X213908642Y-82954857D01*
X213908642Y-83097714D01*
X213861023Y-83192952D01*
X213813404Y-83240571D01*
X213718166Y-83288190D01*
X213337214Y-83288190D01*
X214241976Y-82764380D02*
X214861023Y-82764380D01*
X214527690Y-83145333D01*
X214670547Y-83145333D01*
X214765785Y-83192952D01*
X214813404Y-83240571D01*
X214861023Y-83335809D01*
X214861023Y-83573904D01*
X214813404Y-83669142D01*
X214765785Y-83716761D01*
X214670547Y-83764380D01*
X214384833Y-83764380D01*
X214289595Y-83716761D01*
X214241976Y-83669142D01*
X215718166Y-83097714D02*
X215718166Y-83764380D01*
X215480071Y-82716761D02*
X215241976Y-83431047D01*
X215861023Y-83431047D01*
X215511142Y-72715380D02*
X215177809Y-72239190D01*
X214939714Y-72715380D02*
X214939714Y-71715380D01*
X215320666Y-71715380D01*
X215415904Y-71763000D01*
X215463523Y-71810619D01*
X215511142Y-71905857D01*
X215511142Y-72048714D01*
X215463523Y-72143952D01*
X215415904Y-72191571D01*
X215320666Y-72239190D01*
X214939714Y-72239190D01*
X215844476Y-71715380D02*
X216463523Y-71715380D01*
X216130190Y-72096333D01*
X216273047Y-72096333D01*
X216368285Y-72143952D01*
X216415904Y-72191571D01*
X216463523Y-72286809D01*
X216463523Y-72524904D01*
X216415904Y-72620142D01*
X216368285Y-72667761D01*
X216273047Y-72715380D01*
X215987333Y-72715380D01*
X215892095Y-72667761D01*
X215844476Y-72620142D01*
X217368285Y-71715380D02*
X216892095Y-71715380D01*
X216844476Y-72191571D01*
X216892095Y-72143952D01*
X216987333Y-72096333D01*
X217225428Y-72096333D01*
X217320666Y-72143952D01*
X217368285Y-72191571D01*
X217415904Y-72286809D01*
X217415904Y-72524904D01*
X217368285Y-72620142D01*
X217320666Y-72667761D01*
X217225428Y-72715380D01*
X216987333Y-72715380D01*
X216892095Y-72667761D01*
X216844476Y-72620142D01*
X219067142Y-72842380D02*
X218733809Y-72366190D01*
X218495714Y-72842380D02*
X218495714Y-71842380D01*
X218876666Y-71842380D01*
X218971904Y-71890000D01*
X219019523Y-71937619D01*
X219067142Y-72032857D01*
X219067142Y-72175714D01*
X219019523Y-72270952D01*
X218971904Y-72318571D01*
X218876666Y-72366190D01*
X218495714Y-72366190D01*
X219400476Y-71842380D02*
X220019523Y-71842380D01*
X219686190Y-72223333D01*
X219829047Y-72223333D01*
X219924285Y-72270952D01*
X219971904Y-72318571D01*
X220019523Y-72413809D01*
X220019523Y-72651904D01*
X219971904Y-72747142D01*
X219924285Y-72794761D01*
X219829047Y-72842380D01*
X219543333Y-72842380D01*
X219448095Y-72794761D01*
X219400476Y-72747142D01*
X220876666Y-71842380D02*
X220686190Y-71842380D01*
X220590952Y-71890000D01*
X220543333Y-71937619D01*
X220448095Y-72080476D01*
X220400476Y-72270952D01*
X220400476Y-72651904D01*
X220448095Y-72747142D01*
X220495714Y-72794761D01*
X220590952Y-72842380D01*
X220781428Y-72842380D01*
X220876666Y-72794761D01*
X220924285Y-72747142D01*
X220971904Y-72651904D01*
X220971904Y-72413809D01*
X220924285Y-72318571D01*
X220876666Y-72270952D01*
X220781428Y-72223333D01*
X220590952Y-72223333D01*
X220495714Y-72270952D01*
X220448095Y-72318571D01*
X220400476Y-72413809D01*
X224147142Y-88590380D02*
X223813809Y-88114190D01*
X223575714Y-88590380D02*
X223575714Y-87590380D01*
X223956666Y-87590380D01*
X224051904Y-87638000D01*
X224099523Y-87685619D01*
X224147142Y-87780857D01*
X224147142Y-87923714D01*
X224099523Y-88018952D01*
X224051904Y-88066571D01*
X223956666Y-88114190D01*
X223575714Y-88114190D01*
X224480476Y-87590380D02*
X225099523Y-87590380D01*
X224766190Y-87971333D01*
X224909047Y-87971333D01*
X225004285Y-88018952D01*
X225051904Y-88066571D01*
X225099523Y-88161809D01*
X225099523Y-88399904D01*
X225051904Y-88495142D01*
X225004285Y-88542761D01*
X224909047Y-88590380D01*
X224623333Y-88590380D01*
X224528095Y-88542761D01*
X224480476Y-88495142D01*
X225432857Y-87590380D02*
X226099523Y-87590380D01*
X225670952Y-88590380D01*
X231767142Y-81986380D02*
X231433809Y-81510190D01*
X231195714Y-81986380D02*
X231195714Y-80986380D01*
X231576666Y-80986380D01*
X231671904Y-81034000D01*
X231719523Y-81081619D01*
X231767142Y-81176857D01*
X231767142Y-81319714D01*
X231719523Y-81414952D01*
X231671904Y-81462571D01*
X231576666Y-81510190D01*
X231195714Y-81510190D01*
X232100476Y-80986380D02*
X232719523Y-80986380D01*
X232386190Y-81367333D01*
X232529047Y-81367333D01*
X232624285Y-81414952D01*
X232671904Y-81462571D01*
X232719523Y-81557809D01*
X232719523Y-81795904D01*
X232671904Y-81891142D01*
X232624285Y-81938761D01*
X232529047Y-81986380D01*
X232243333Y-81986380D01*
X232148095Y-81938761D01*
X232100476Y-81891142D01*
X233290952Y-81414952D02*
X233195714Y-81367333D01*
X233148095Y-81319714D01*
X233100476Y-81224476D01*
X233100476Y-81176857D01*
X233148095Y-81081619D01*
X233195714Y-81034000D01*
X233290952Y-80986380D01*
X233481428Y-80986380D01*
X233576666Y-81034000D01*
X233624285Y-81081619D01*
X233671904Y-81176857D01*
X233671904Y-81224476D01*
X233624285Y-81319714D01*
X233576666Y-81367333D01*
X233481428Y-81414952D01*
X233290952Y-81414952D01*
X233195714Y-81462571D01*
X233148095Y-81510190D01*
X233100476Y-81605428D01*
X233100476Y-81795904D01*
X233148095Y-81891142D01*
X233195714Y-81938761D01*
X233290952Y-81986380D01*
X233481428Y-81986380D01*
X233576666Y-81938761D01*
X233624285Y-81891142D01*
X233671904Y-81795904D01*
X233671904Y-81605428D01*
X233624285Y-81510190D01*
X233576666Y-81462571D01*
X233481428Y-81414952D01*
X231894142Y-77081880D02*
X231560809Y-76605690D01*
X231322714Y-77081880D02*
X231322714Y-76081880D01*
X231703666Y-76081880D01*
X231798904Y-76129500D01*
X231846523Y-76177119D01*
X231894142Y-76272357D01*
X231894142Y-76415214D01*
X231846523Y-76510452D01*
X231798904Y-76558071D01*
X231703666Y-76605690D01*
X231322714Y-76605690D01*
X232227476Y-76081880D02*
X232846523Y-76081880D01*
X232513190Y-76462833D01*
X232656047Y-76462833D01*
X232751285Y-76510452D01*
X232798904Y-76558071D01*
X232846523Y-76653309D01*
X232846523Y-76891404D01*
X232798904Y-76986642D01*
X232751285Y-77034261D01*
X232656047Y-77081880D01*
X232370333Y-77081880D01*
X232275095Y-77034261D01*
X232227476Y-76986642D01*
X233322714Y-77081880D02*
X233513190Y-77081880D01*
X233608428Y-77034261D01*
X233656047Y-76986642D01*
X233751285Y-76843785D01*
X233798904Y-76653309D01*
X233798904Y-76272357D01*
X233751285Y-76177119D01*
X233703666Y-76129500D01*
X233608428Y-76081880D01*
X233417952Y-76081880D01*
X233322714Y-76129500D01*
X233275095Y-76177119D01*
X233227476Y-76272357D01*
X233227476Y-76510452D01*
X233275095Y-76605690D01*
X233322714Y-76653309D01*
X233417952Y-76700928D01*
X233608428Y-76700928D01*
X233703666Y-76653309D01*
X233751285Y-76605690D01*
X233798904Y-76510452D01*
X157392761Y-70302380D02*
X157059428Y-69826190D01*
X156821333Y-70302380D02*
X156821333Y-69302380D01*
X157202285Y-69302380D01*
X157297523Y-69350000D01*
X157345142Y-69397619D01*
X157392761Y-69492857D01*
X157392761Y-69635714D01*
X157345142Y-69730952D01*
X157297523Y-69778571D01*
X157202285Y-69826190D01*
X156821333Y-69826190D01*
X157678476Y-69302380D02*
X158011809Y-70302380D01*
X158345142Y-69302380D01*
X158630857Y-69397619D02*
X158678476Y-69350000D01*
X158773714Y-69302380D01*
X159011809Y-69302380D01*
X159107047Y-69350000D01*
X159154666Y-69397619D01*
X159202285Y-69492857D01*
X159202285Y-69588095D01*
X159154666Y-69730952D01*
X158583238Y-70302380D01*
X159202285Y-70302380D01*
X155614761Y-92654380D02*
X155281428Y-92178190D01*
X155043333Y-92654380D02*
X155043333Y-91654380D01*
X155424285Y-91654380D01*
X155519523Y-91702000D01*
X155567142Y-91749619D01*
X155614761Y-91844857D01*
X155614761Y-91987714D01*
X155567142Y-92082952D01*
X155519523Y-92130571D01*
X155424285Y-92178190D01*
X155043333Y-92178190D01*
X155900476Y-91654380D02*
X156233809Y-92654380D01*
X156567142Y-91654380D01*
X157329047Y-91987714D02*
X157329047Y-92654380D01*
X157090952Y-91606761D02*
X156852857Y-92321047D01*
X157471904Y-92321047D01*
X155614761Y-101290380D02*
X155281428Y-100814190D01*
X155043333Y-101290380D02*
X155043333Y-100290380D01*
X155424285Y-100290380D01*
X155519523Y-100338000D01*
X155567142Y-100385619D01*
X155614761Y-100480857D01*
X155614761Y-100623714D01*
X155567142Y-100718952D01*
X155519523Y-100766571D01*
X155424285Y-100814190D01*
X155043333Y-100814190D01*
X155900476Y-100290380D02*
X156233809Y-101290380D01*
X156567142Y-100290380D01*
X157376666Y-100290380D02*
X156900476Y-100290380D01*
X156852857Y-100766571D01*
X156900476Y-100718952D01*
X156995714Y-100671333D01*
X157233809Y-100671333D01*
X157329047Y-100718952D01*
X157376666Y-100766571D01*
X157424285Y-100861809D01*
X157424285Y-101099904D01*
X157376666Y-101195142D01*
X157329047Y-101242761D01*
X157233809Y-101290380D01*
X156995714Y-101290380D01*
X156900476Y-101242761D01*
X156852857Y-101195142D01*
X153868571Y-64968380D02*
X153535238Y-64492190D01*
X153297142Y-64968380D02*
X153297142Y-63968380D01*
X153678095Y-63968380D01*
X153773333Y-64016000D01*
X153820952Y-64063619D01*
X153868571Y-64158857D01*
X153868571Y-64301714D01*
X153820952Y-64396952D01*
X153773333Y-64444571D01*
X153678095Y-64492190D01*
X153297142Y-64492190D01*
X154154285Y-63968380D02*
X154487619Y-64968380D01*
X154820952Y-63968380D01*
X155678095Y-64968380D02*
X155106666Y-64968380D01*
X155392380Y-64968380D02*
X155392380Y-63968380D01*
X155297142Y-64111238D01*
X155201904Y-64206476D01*
X155106666Y-64254095D01*
X156059047Y-64063619D02*
X156106666Y-64016000D01*
X156201904Y-63968380D01*
X156440000Y-63968380D01*
X156535238Y-64016000D01*
X156582857Y-64063619D01*
X156630476Y-64158857D01*
X156630476Y-64254095D01*
X156582857Y-64396952D01*
X156011428Y-64968380D01*
X156630476Y-64968380D01*
X157916666Y-76160380D02*
X157916666Y-76874666D01*
X157869047Y-77017523D01*
X157773809Y-77112761D01*
X157630952Y-77160380D01*
X157535714Y-77160380D01*
X158392857Y-77160380D02*
X158392857Y-76160380D01*
X158773809Y-76160380D01*
X158869047Y-76208000D01*
X158916666Y-76255619D01*
X158964285Y-76350857D01*
X158964285Y-76493714D01*
X158916666Y-76588952D01*
X158869047Y-76636571D01*
X158773809Y-76684190D01*
X158392857Y-76684190D01*
X159916666Y-77160380D02*
X159345238Y-77160380D01*
X159630952Y-77160380D02*
X159630952Y-76160380D01*
X159535714Y-76303238D01*
X159440476Y-76398476D01*
X159345238Y-76446095D01*
X157931666Y-73620380D02*
X157931666Y-74334666D01*
X157884047Y-74477523D01*
X157788809Y-74572761D01*
X157645952Y-74620380D01*
X157550714Y-74620380D01*
X158407857Y-74620380D02*
X158407857Y-73620380D01*
X158788809Y-73620380D01*
X158884047Y-73668000D01*
X158931666Y-73715619D01*
X158979285Y-73810857D01*
X158979285Y-73953714D01*
X158931666Y-74048952D01*
X158884047Y-74096571D01*
X158788809Y-74144190D01*
X158407857Y-74144190D01*
X159312619Y-73620380D02*
X159931666Y-73620380D01*
X159598333Y-74001333D01*
X159741190Y-74001333D01*
X159836428Y-74048952D01*
X159884047Y-74096571D01*
X159931666Y-74191809D01*
X159931666Y-74429904D01*
X159884047Y-74525142D01*
X159836428Y-74572761D01*
X159741190Y-74620380D01*
X159455476Y-74620380D01*
X159360238Y-74572761D01*
X159312619Y-74525142D01*
X151566666Y-76160380D02*
X151566666Y-76874666D01*
X151519047Y-77017523D01*
X151423809Y-77112761D01*
X151280952Y-77160380D01*
X151185714Y-77160380D01*
X152042857Y-77160380D02*
X152042857Y-76160380D01*
X152423809Y-76160380D01*
X152519047Y-76208000D01*
X152566666Y-76255619D01*
X152614285Y-76350857D01*
X152614285Y-76493714D01*
X152566666Y-76588952D01*
X152519047Y-76636571D01*
X152423809Y-76684190D01*
X152042857Y-76684190D01*
X152995238Y-76255619D02*
X153042857Y-76208000D01*
X153138095Y-76160380D01*
X153376190Y-76160380D01*
X153471428Y-76208000D01*
X153519047Y-76255619D01*
X153566666Y-76350857D01*
X153566666Y-76446095D01*
X153519047Y-76588952D01*
X152947619Y-77160380D01*
X153566666Y-77160380D01*
X151536666Y-73620380D02*
X151536666Y-74334666D01*
X151489047Y-74477523D01*
X151393809Y-74572761D01*
X151250952Y-74620380D01*
X151155714Y-74620380D01*
X152012857Y-74620380D02*
X152012857Y-73620380D01*
X152393809Y-73620380D01*
X152489047Y-73668000D01*
X152536666Y-73715619D01*
X152584285Y-73810857D01*
X152584285Y-73953714D01*
X152536666Y-74048952D01*
X152489047Y-74096571D01*
X152393809Y-74144190D01*
X152012857Y-74144190D01*
X153441428Y-73953714D02*
X153441428Y-74620380D01*
X153203333Y-73572761D02*
X152965238Y-74287047D01*
X153584285Y-74287047D01*
X145208666Y-68056380D02*
X145208666Y-68770666D01*
X145161047Y-68913523D01*
X145065809Y-69008761D01*
X144922952Y-69056380D01*
X144827714Y-69056380D01*
X146208666Y-69056380D02*
X145637238Y-69056380D01*
X145922952Y-69056380D02*
X145922952Y-68056380D01*
X145827714Y-68199238D01*
X145732476Y-68294476D01*
X145637238Y-68342095D01*
X230568380Y-65865333D02*
X231282666Y-65865333D01*
X231425523Y-65912952D01*
X231520761Y-66008190D01*
X231568380Y-66151047D01*
X231568380Y-66246285D01*
X230663619Y-65436761D02*
X230616000Y-65389142D01*
X230568380Y-65293904D01*
X230568380Y-65055809D01*
X230616000Y-64960571D01*
X230663619Y-64912952D01*
X230758857Y-64865333D01*
X230854095Y-64865333D01*
X230996952Y-64912952D01*
X231568380Y-65484380D01*
X231568380Y-64865333D01*
X189571333Y-91289142D02*
X189523714Y-91336761D01*
X189380857Y-91384380D01*
X189285619Y-91384380D01*
X189142761Y-91336761D01*
X189047523Y-91241523D01*
X188999904Y-91146285D01*
X188952285Y-90955809D01*
X188952285Y-90812952D01*
X188999904Y-90622476D01*
X189047523Y-90527238D01*
X189142761Y-90432000D01*
X189285619Y-90384380D01*
X189380857Y-90384380D01*
X189523714Y-90432000D01*
X189571333Y-90479619D01*
X189904666Y-90384380D02*
X190571333Y-90384380D01*
X190142761Y-91384380D01*
X179872642Y-76272380D02*
X179539309Y-75796190D01*
X179301214Y-76272380D02*
X179301214Y-75272380D01*
X179682166Y-75272380D01*
X179777404Y-75320000D01*
X179825023Y-75367619D01*
X179872642Y-75462857D01*
X179872642Y-75605714D01*
X179825023Y-75700952D01*
X179777404Y-75748571D01*
X179682166Y-75796190D01*
X179301214Y-75796190D01*
X180825023Y-76272380D02*
X180253595Y-76272380D01*
X180539309Y-76272380D02*
X180539309Y-75272380D01*
X180444071Y-75415238D01*
X180348833Y-75510476D01*
X180253595Y-75558095D01*
X181158357Y-75272380D02*
X181777404Y-75272380D01*
X181444071Y-75653333D01*
X181586928Y-75653333D01*
X181682166Y-75700952D01*
X181729785Y-75748571D01*
X181777404Y-75843809D01*
X181777404Y-76081904D01*
X181729785Y-76177142D01*
X181682166Y-76224761D01*
X181586928Y-76272380D01*
X181301214Y-76272380D01*
X181205976Y-76224761D01*
X181158357Y-76177142D01*
X174538642Y-67128380D02*
X174205309Y-66652190D01*
X173967214Y-67128380D02*
X173967214Y-66128380D01*
X174348166Y-66128380D01*
X174443404Y-66176000D01*
X174491023Y-66223619D01*
X174538642Y-66318857D01*
X174538642Y-66461714D01*
X174491023Y-66556952D01*
X174443404Y-66604571D01*
X174348166Y-66652190D01*
X173967214Y-66652190D01*
X175395785Y-66461714D02*
X175395785Y-67128380D01*
X175157690Y-66080761D02*
X174919595Y-66795047D01*
X175538642Y-66795047D01*
X176110071Y-66128380D02*
X176205309Y-66128380D01*
X176300547Y-66176000D01*
X176348166Y-66223619D01*
X176395785Y-66318857D01*
X176443404Y-66509333D01*
X176443404Y-66747428D01*
X176395785Y-66937904D01*
X176348166Y-67033142D01*
X176300547Y-67080761D01*
X176205309Y-67128380D01*
X176110071Y-67128380D01*
X176014833Y-67080761D01*
X175967214Y-67033142D01*
X175919595Y-66937904D01*
X175871976Y-66747428D01*
X175871976Y-66509333D01*
X175919595Y-66318857D01*
X175967214Y-66223619D01*
X176014833Y-66176000D01*
X176110071Y-66128380D01*
X158361142Y-87574380D02*
X158027809Y-87098190D01*
X157789714Y-87574380D02*
X157789714Y-86574380D01*
X158170666Y-86574380D01*
X158265904Y-86622000D01*
X158313523Y-86669619D01*
X158361142Y-86764857D01*
X158361142Y-86907714D01*
X158313523Y-87002952D01*
X158265904Y-87050571D01*
X158170666Y-87098190D01*
X157789714Y-87098190D01*
X159218285Y-86907714D02*
X159218285Y-87574380D01*
X158980190Y-86526761D02*
X158742095Y-87241047D01*
X159361142Y-87241047D01*
X160265904Y-87574380D02*
X159694476Y-87574380D01*
X159980190Y-87574380D02*
X159980190Y-86574380D01*
X159884952Y-86717238D01*
X159789714Y-86812476D01*
X159694476Y-86860095D01*
X161663142Y-87574380D02*
X161329809Y-87098190D01*
X161091714Y-87574380D02*
X161091714Y-86574380D01*
X161472666Y-86574380D01*
X161567904Y-86622000D01*
X161615523Y-86669619D01*
X161663142Y-86764857D01*
X161663142Y-86907714D01*
X161615523Y-87002952D01*
X161567904Y-87050571D01*
X161472666Y-87098190D01*
X161091714Y-87098190D01*
X162520285Y-86907714D02*
X162520285Y-87574380D01*
X162282190Y-86526761D02*
X162044095Y-87241047D01*
X162663142Y-87241047D01*
X162996476Y-86669619D02*
X163044095Y-86622000D01*
X163139333Y-86574380D01*
X163377428Y-86574380D01*
X163472666Y-86622000D01*
X163520285Y-86669619D01*
X163567904Y-86764857D01*
X163567904Y-86860095D01*
X163520285Y-87002952D01*
X162948857Y-87574380D01*
X163567904Y-87574380D01*
X140632380Y-95067333D02*
X141346666Y-95067333D01*
X141489523Y-95114952D01*
X141584761Y-95210190D01*
X141632380Y-95353047D01*
X141632380Y-95448285D01*
X141632380Y-94591142D02*
X140632380Y-94591142D01*
X140632380Y-94210190D01*
X140680000Y-94114952D01*
X140727619Y-94067333D01*
X140822857Y-94019714D01*
X140965714Y-94019714D01*
X141060952Y-94067333D01*
X141108571Y-94114952D01*
X141156190Y-94210190D01*
X141156190Y-94591142D01*
X140632380Y-93162571D02*
X140632380Y-93353047D01*
X140680000Y-93448285D01*
X140727619Y-93495904D01*
X140870476Y-93591142D01*
X141060952Y-93638761D01*
X141441904Y-93638761D01*
X141537142Y-93591142D01*
X141584761Y-93543523D01*
X141632380Y-93448285D01*
X141632380Y-93257809D01*
X141584761Y-93162571D01*
X141537142Y-93114952D01*
X141441904Y-93067333D01*
X141203809Y-93067333D01*
X141108571Y-93114952D01*
X141060952Y-93162571D01*
X141013333Y-93257809D01*
X141013333Y-93448285D01*
X141060952Y-93543523D01*
X141108571Y-93591142D01*
X141203809Y-93638761D01*
X151200380Y-90480357D02*
X150724190Y-90813690D01*
X151200380Y-91051785D02*
X150200380Y-91051785D01*
X150200380Y-90670833D01*
X150248000Y-90575595D01*
X150295619Y-90527976D01*
X150390857Y-90480357D01*
X150533714Y-90480357D01*
X150628952Y-90527976D01*
X150676571Y-90575595D01*
X150724190Y-90670833D01*
X150724190Y-91051785D01*
X150533714Y-89623214D02*
X151200380Y-89623214D01*
X150152761Y-89861309D02*
X150867047Y-90099404D01*
X150867047Y-89480357D01*
X150200380Y-89194642D02*
X150200380Y-88575595D01*
X150581333Y-88908928D01*
X150581333Y-88766071D01*
X150628952Y-88670833D01*
X150676571Y-88623214D01*
X150771809Y-88575595D01*
X151009904Y-88575595D01*
X151105142Y-88623214D01*
X151152761Y-88670833D01*
X151200380Y-88766071D01*
X151200380Y-89051785D01*
X151152761Y-89147023D01*
X151105142Y-89194642D01*
X172974095Y-77894380D02*
X172974095Y-78703904D01*
X173021714Y-78799142D01*
X173069333Y-78846761D01*
X173164571Y-78894380D01*
X173355047Y-78894380D01*
X173450285Y-78846761D01*
X173497904Y-78799142D01*
X173545523Y-78703904D01*
X173545523Y-77894380D01*
X174545523Y-78894380D02*
X173974095Y-78894380D01*
X174259809Y-78894380D02*
X174259809Y-77894380D01*
X174164571Y-78037238D01*
X174069333Y-78132476D01*
X173974095Y-78180095D01*
X167386095Y-65448380D02*
X167386095Y-66257904D01*
X167433714Y-66353142D01*
X167481333Y-66400761D01*
X167576571Y-66448380D01*
X167767047Y-66448380D01*
X167862285Y-66400761D01*
X167909904Y-66353142D01*
X167957523Y-66257904D01*
X167957523Y-65448380D01*
X168386095Y-65543619D02*
X168433714Y-65496000D01*
X168528952Y-65448380D01*
X168767047Y-65448380D01*
X168862285Y-65496000D01*
X168909904Y-65543619D01*
X168957523Y-65638857D01*
X168957523Y-65734095D01*
X168909904Y-65876952D01*
X168338476Y-66448380D01*
X168957523Y-66448380D01*
X225044095Y-88308380D02*
X225044095Y-89117904D01*
X225091714Y-89213142D01*
X225139333Y-89260761D01*
X225234571Y-89308380D01*
X225425047Y-89308380D01*
X225520285Y-89260761D01*
X225567904Y-89213142D01*
X225615523Y-89117904D01*
X225615523Y-88308380D01*
X226520285Y-88641714D02*
X226520285Y-89308380D01*
X226282190Y-88260761D02*
X226044095Y-88975047D01*
X226663142Y-88975047D01*
X225298095Y-72052380D02*
X225298095Y-72861904D01*
X225345714Y-72957142D01*
X225393333Y-73004761D01*
X225488571Y-73052380D01*
X225679047Y-73052380D01*
X225774285Y-73004761D01*
X225821904Y-72957142D01*
X225869523Y-72861904D01*
X225869523Y-72052380D01*
X226774285Y-72052380D02*
X226583809Y-72052380D01*
X226488571Y-72100000D01*
X226440952Y-72147619D01*
X226345714Y-72290476D01*
X226298095Y-72480952D01*
X226298095Y-72861904D01*
X226345714Y-72957142D01*
X226393333Y-73004761D01*
X226488571Y-73052380D01*
X226679047Y-73052380D01*
X226774285Y-73004761D01*
X226821904Y-72957142D01*
X226869523Y-72861904D01*
X226869523Y-72623809D01*
X226821904Y-72528571D01*
X226774285Y-72480952D01*
X226679047Y-72433333D01*
X226488571Y-72433333D01*
X226393333Y-72480952D01*
X226345714Y-72528571D01*
X226298095Y-72623809D01*
X207518095Y-76116380D02*
X207518095Y-76925904D01*
X207565714Y-77021142D01*
X207613333Y-77068761D01*
X207708571Y-77116380D01*
X207899047Y-77116380D01*
X207994285Y-77068761D01*
X208041904Y-77021142D01*
X208089523Y-76925904D01*
X208089523Y-76116380D01*
X209041904Y-76116380D02*
X208565714Y-76116380D01*
X208518095Y-76592571D01*
X208565714Y-76544952D01*
X208660952Y-76497333D01*
X208899047Y-76497333D01*
X208994285Y-76544952D01*
X209041904Y-76592571D01*
X209089523Y-76687809D01*
X209089523Y-76925904D01*
X209041904Y-77021142D01*
X208994285Y-77068761D01*
X208899047Y-77116380D01*
X208660952Y-77116380D01*
X208565714Y-77068761D01*
X208518095Y-77021142D01*
X197191333Y-71985142D02*
X197143714Y-72032761D01*
X197000857Y-72080380D01*
X196905619Y-72080380D01*
X196762761Y-72032761D01*
X196667523Y-71937523D01*
X196619904Y-71842285D01*
X196572285Y-71651809D01*
X196572285Y-71508952D01*
X196619904Y-71318476D01*
X196667523Y-71223238D01*
X196762761Y-71128000D01*
X196905619Y-71080380D01*
X197000857Y-71080380D01*
X197143714Y-71128000D01*
X197191333Y-71175619D01*
X197762761Y-71508952D02*
X197667523Y-71461333D01*
X197619904Y-71413714D01*
X197572285Y-71318476D01*
X197572285Y-71270857D01*
X197619904Y-71175619D01*
X197667523Y-71128000D01*
X197762761Y-71080380D01*
X197953238Y-71080380D01*
X198048476Y-71128000D01*
X198096095Y-71175619D01*
X198143714Y-71270857D01*
X198143714Y-71318476D01*
X198096095Y-71413714D01*
X198048476Y-71461333D01*
X197953238Y-71508952D01*
X197762761Y-71508952D01*
X197667523Y-71556571D01*
X197619904Y-71604190D01*
X197572285Y-71699428D01*
X197572285Y-71889904D01*
X197619904Y-71985142D01*
X197667523Y-72032761D01*
X197762761Y-72080380D01*
X197953238Y-72080380D01*
X198048476Y-72032761D01*
X198096095Y-71985142D01*
X198143714Y-71889904D01*
X198143714Y-71699428D01*
X198096095Y-71604190D01*
X198048476Y-71556571D01*
X197953238Y-71508952D01*
X212431333Y-71731142D02*
X212383714Y-71778761D01*
X212240857Y-71826380D01*
X212145619Y-71826380D01*
X212002761Y-71778761D01*
X211907523Y-71683523D01*
X211859904Y-71588285D01*
X211812285Y-71397809D01*
X211812285Y-71254952D01*
X211859904Y-71064476D01*
X211907523Y-70969238D01*
X212002761Y-70874000D01*
X212145619Y-70826380D01*
X212240857Y-70826380D01*
X212383714Y-70874000D01*
X212431333Y-70921619D01*
X212907523Y-71826380D02*
X213098000Y-71826380D01*
X213193238Y-71778761D01*
X213240857Y-71731142D01*
X213336095Y-71588285D01*
X213383714Y-71397809D01*
X213383714Y-71016857D01*
X213336095Y-70921619D01*
X213288476Y-70874000D01*
X213193238Y-70826380D01*
X213002761Y-70826380D01*
X212907523Y-70874000D01*
X212859904Y-70921619D01*
X212812285Y-71016857D01*
X212812285Y-71254952D01*
X212859904Y-71350190D01*
X212907523Y-71397809D01*
X213002761Y-71445428D01*
X213193238Y-71445428D01*
X213288476Y-71397809D01*
X213336095Y-71350190D01*
X213383714Y-71254952D01*
M02*
