G04 #@! TF.GenerationSoftware,KiCad,Pcbnew,(5.1.2-1)-1*
G04 #@! TF.CreationDate,2019-08-21T10:35:04-07:00*
G04 #@! TF.ProjectId,AS3340_VCO,41533333-3430-45f5-9643-4f2e6b696361,rev?*
G04 #@! TF.SameCoordinates,Original*
G04 #@! TF.FileFunction,Legend,Bot*
G04 #@! TF.FilePolarity,Positive*
%FSLAX46Y46*%
G04 Gerber Fmt 4.6, Leading zero omitted, Abs format (unit mm)*
G04 Created by KiCad (PCBNEW (5.1.2-1)-1) date 2019-08-21 10:35:04*
%MOMM*%
%LPD*%
G04 APERTURE LIST*
%ADD10C,0.150000*%
%ADD11C,0.120000*%
G04 APERTURE END LIST*
D10*
X190396285Y-73874380D02*
X189824857Y-73874380D01*
X190110571Y-74874380D02*
X190110571Y-73874380D01*
X189110571Y-74826761D02*
X189205809Y-74874380D01*
X189396285Y-74874380D01*
X189491523Y-74826761D01*
X189539142Y-74731523D01*
X189539142Y-74350571D01*
X189491523Y-74255333D01*
X189396285Y-74207714D01*
X189205809Y-74207714D01*
X189110571Y-74255333D01*
X189062952Y-74350571D01*
X189062952Y-74445809D01*
X189539142Y-74541047D01*
X188634380Y-74874380D02*
X188634380Y-74207714D01*
X188634380Y-74302952D02*
X188586761Y-74255333D01*
X188491523Y-74207714D01*
X188348666Y-74207714D01*
X188253428Y-74255333D01*
X188205809Y-74350571D01*
X188205809Y-74874380D01*
X188205809Y-74350571D02*
X188158190Y-74255333D01*
X188062952Y-74207714D01*
X187920095Y-74207714D01*
X187824857Y-74255333D01*
X187777238Y-74350571D01*
X187777238Y-74874380D01*
X187301047Y-74207714D02*
X187301047Y-75207714D01*
X187301047Y-74255333D02*
X187205809Y-74207714D01*
X187015333Y-74207714D01*
X186920095Y-74255333D01*
X186872476Y-74302952D01*
X186824857Y-74398190D01*
X186824857Y-74683904D01*
X186872476Y-74779142D01*
X186920095Y-74826761D01*
X187015333Y-74874380D01*
X187205809Y-74874380D01*
X187301047Y-74826761D01*
X185967714Y-74826761D02*
X186062952Y-74874380D01*
X186253428Y-74874380D01*
X186348666Y-74826761D01*
X186396285Y-74779142D01*
X186443904Y-74683904D01*
X186443904Y-74398190D01*
X186396285Y-74302952D01*
X186348666Y-74255333D01*
X186253428Y-74207714D01*
X186062952Y-74207714D01*
X185967714Y-74255333D01*
X185396285Y-74874380D02*
X185491523Y-74826761D01*
X185539142Y-74779142D01*
X185586761Y-74683904D01*
X185586761Y-74398190D01*
X185539142Y-74302952D01*
X185491523Y-74255333D01*
X185396285Y-74207714D01*
X185253428Y-74207714D01*
X185158190Y-74255333D01*
X185110571Y-74302952D01*
X185062952Y-74398190D01*
X185062952Y-74683904D01*
X185110571Y-74779142D01*
X185158190Y-74826761D01*
X185253428Y-74874380D01*
X185396285Y-74874380D01*
X183920095Y-74588666D02*
X183443904Y-74588666D01*
X184015333Y-74874380D02*
X183682000Y-73874380D01*
X183348666Y-74874380D01*
X182586761Y-74874380D02*
X182586761Y-73874380D01*
X182586761Y-74826761D02*
X182682000Y-74874380D01*
X182872476Y-74874380D01*
X182967714Y-74826761D01*
X183015333Y-74779142D01*
X183062952Y-74683904D01*
X183062952Y-74398190D01*
X183015333Y-74302952D01*
X182967714Y-74255333D01*
X182872476Y-74207714D01*
X182682000Y-74207714D01*
X182586761Y-74255333D01*
X182110571Y-74207714D02*
X182110571Y-75064857D01*
X182158190Y-75160095D01*
X182253428Y-75207714D01*
X182301047Y-75207714D01*
X182110571Y-73874380D02*
X182158190Y-73922000D01*
X182110571Y-73969619D01*
X182062952Y-73922000D01*
X182110571Y-73874380D01*
X182110571Y-73969619D01*
X185062476Y-65222380D02*
X185395809Y-64746190D01*
X185633904Y-65222380D02*
X185633904Y-64222380D01*
X185252952Y-64222380D01*
X185157714Y-64270000D01*
X185110095Y-64317619D01*
X185062476Y-64412857D01*
X185062476Y-64555714D01*
X185110095Y-64650952D01*
X185157714Y-64698571D01*
X185252952Y-64746190D01*
X185633904Y-64746190D01*
X184252952Y-65174761D02*
X184348190Y-65222380D01*
X184538666Y-65222380D01*
X184633904Y-65174761D01*
X184681523Y-65079523D01*
X184681523Y-64698571D01*
X184633904Y-64603333D01*
X184538666Y-64555714D01*
X184348190Y-64555714D01*
X184252952Y-64603333D01*
X184205333Y-64698571D01*
X184205333Y-64793809D01*
X184681523Y-64889047D01*
X183919619Y-64555714D02*
X183538666Y-64555714D01*
X183776761Y-65222380D02*
X183776761Y-64365238D01*
X183729142Y-64270000D01*
X183633904Y-64222380D01*
X183538666Y-64222380D01*
X182443428Y-65222380D02*
X182443428Y-64222380D01*
X182062476Y-64222380D01*
X181967238Y-64270000D01*
X181919619Y-64317619D01*
X181872000Y-64412857D01*
X181872000Y-64555714D01*
X181919619Y-64650952D01*
X181967238Y-64698571D01*
X182062476Y-64746190D01*
X182443428Y-64746190D01*
X181443428Y-65222380D02*
X181443428Y-64555714D01*
X181443428Y-64222380D02*
X181491047Y-64270000D01*
X181443428Y-64317619D01*
X181395809Y-64270000D01*
X181443428Y-64222380D01*
X181443428Y-64317619D01*
X181110095Y-64555714D02*
X180729142Y-64555714D01*
X180967238Y-64222380D02*
X180967238Y-65079523D01*
X180919619Y-65174761D01*
X180824380Y-65222380D01*
X180729142Y-65222380D01*
X179967238Y-65174761D02*
X180062476Y-65222380D01*
X180252952Y-65222380D01*
X180348190Y-65174761D01*
X180395809Y-65127142D01*
X180443428Y-65031904D01*
X180443428Y-64746190D01*
X180395809Y-64650952D01*
X180348190Y-64603333D01*
X180252952Y-64555714D01*
X180062476Y-64555714D01*
X179967238Y-64603333D01*
X179538666Y-65222380D02*
X179538666Y-64222380D01*
X179110095Y-65222380D02*
X179110095Y-64698571D01*
X179157714Y-64603333D01*
X179252952Y-64555714D01*
X179395809Y-64555714D01*
X179491047Y-64603333D01*
X179538666Y-64650952D01*
X165123619Y-77668380D02*
X165456952Y-77192190D01*
X165695047Y-77668380D02*
X165695047Y-76668380D01*
X165314095Y-76668380D01*
X165218857Y-76716000D01*
X165171238Y-76763619D01*
X165123619Y-76858857D01*
X165123619Y-77001714D01*
X165171238Y-77096952D01*
X165218857Y-77144571D01*
X165314095Y-77192190D01*
X165695047Y-77192190D01*
X164314095Y-77620761D02*
X164409333Y-77668380D01*
X164599809Y-77668380D01*
X164695047Y-77620761D01*
X164742666Y-77525523D01*
X164742666Y-77144571D01*
X164695047Y-77049333D01*
X164599809Y-77001714D01*
X164409333Y-77001714D01*
X164314095Y-77049333D01*
X164266476Y-77144571D01*
X164266476Y-77239809D01*
X164742666Y-77335047D01*
X163980761Y-77001714D02*
X163599809Y-77001714D01*
X163837904Y-77668380D02*
X163837904Y-76811238D01*
X163790285Y-76716000D01*
X163695047Y-76668380D01*
X163599809Y-76668380D01*
X163266476Y-77668380D02*
X163266476Y-77001714D01*
X163266476Y-76668380D02*
X163314095Y-76716000D01*
X163266476Y-76763619D01*
X163218857Y-76716000D01*
X163266476Y-76668380D01*
X163266476Y-76763619D01*
X162790285Y-77001714D02*
X162790285Y-77668380D01*
X162790285Y-77096952D02*
X162742666Y-77049333D01*
X162647428Y-77001714D01*
X162504571Y-77001714D01*
X162409333Y-77049333D01*
X162361714Y-77144571D01*
X162361714Y-77668380D01*
X161456952Y-77668380D02*
X161456952Y-76668380D01*
X161456952Y-77620761D02*
X161552190Y-77668380D01*
X161742666Y-77668380D01*
X161837904Y-77620761D01*
X161885523Y-77573142D01*
X161933142Y-77477904D01*
X161933142Y-77192190D01*
X161885523Y-77096952D01*
X161837904Y-77049333D01*
X161742666Y-77001714D01*
X161552190Y-77001714D01*
X161456952Y-77049333D01*
X220852571Y-87844380D02*
X220281142Y-87844380D01*
X220566857Y-88844380D02*
X220566857Y-87844380D01*
X219947809Y-88844380D02*
X219947809Y-88177714D01*
X219947809Y-88368190D02*
X219900190Y-88272952D01*
X219852571Y-88225333D01*
X219757333Y-88177714D01*
X219662095Y-88177714D01*
X219328761Y-88844380D02*
X219328761Y-88177714D01*
X219328761Y-87844380D02*
X219376380Y-87892000D01*
X219328761Y-87939619D01*
X219281142Y-87892000D01*
X219328761Y-87844380D01*
X219328761Y-87939619D01*
X217900190Y-87844380D02*
X217709714Y-87844380D01*
X217614476Y-87892000D01*
X217519238Y-87987238D01*
X217471619Y-88177714D01*
X217471619Y-88511047D01*
X217519238Y-88701523D01*
X217614476Y-88796761D01*
X217709714Y-88844380D01*
X217900190Y-88844380D01*
X217995428Y-88796761D01*
X218090666Y-88701523D01*
X218138285Y-88511047D01*
X218138285Y-88177714D01*
X218090666Y-87987238D01*
X217995428Y-87892000D01*
X217900190Y-87844380D01*
X217185904Y-88177714D02*
X216804952Y-88177714D01*
X217043047Y-88844380D02*
X217043047Y-87987238D01*
X216995428Y-87892000D01*
X216900190Y-87844380D01*
X216804952Y-87844380D01*
X216614476Y-88177714D02*
X216233523Y-88177714D01*
X216471619Y-88844380D02*
X216471619Y-87987238D01*
X216424000Y-87892000D01*
X216328761Y-87844380D01*
X216233523Y-87844380D01*
X215947809Y-88796761D02*
X215852571Y-88844380D01*
X215662095Y-88844380D01*
X215566857Y-88796761D01*
X215519238Y-88701523D01*
X215519238Y-88653904D01*
X215566857Y-88558666D01*
X215662095Y-88511047D01*
X215804952Y-88511047D01*
X215900190Y-88463428D01*
X215947809Y-88368190D01*
X215947809Y-88320571D01*
X215900190Y-88225333D01*
X215804952Y-88177714D01*
X215662095Y-88177714D01*
X215566857Y-88225333D01*
X214709714Y-88796761D02*
X214804952Y-88844380D01*
X214995428Y-88844380D01*
X215090666Y-88796761D01*
X215138285Y-88701523D01*
X215138285Y-88320571D01*
X215090666Y-88225333D01*
X214995428Y-88177714D01*
X214804952Y-88177714D01*
X214709714Y-88225333D01*
X214662095Y-88320571D01*
X214662095Y-88415809D01*
X215138285Y-88511047D01*
X214376380Y-88177714D02*
X213995428Y-88177714D01*
X214233523Y-87844380D02*
X214233523Y-88701523D01*
X214185904Y-88796761D01*
X214090666Y-88844380D01*
X213995428Y-88844380D01*
X230972761Y-89352380D02*
X230972761Y-88352380D01*
X230591809Y-88352380D01*
X230496571Y-88400000D01*
X230448952Y-88447619D01*
X230401333Y-88542857D01*
X230401333Y-88685714D01*
X230448952Y-88780952D01*
X230496571Y-88828571D01*
X230591809Y-88876190D01*
X230972761Y-88876190D01*
X229544190Y-88685714D02*
X229544190Y-89352380D01*
X229972761Y-88685714D02*
X229972761Y-89209523D01*
X229925142Y-89304761D01*
X229829904Y-89352380D01*
X229687047Y-89352380D01*
X229591809Y-89304761D01*
X229544190Y-89257142D01*
X228925142Y-89352380D02*
X229020380Y-89304761D01*
X229068000Y-89209523D01*
X229068000Y-88352380D01*
X228591809Y-89304761D02*
X228496571Y-89352380D01*
X228306095Y-89352380D01*
X228210857Y-89304761D01*
X228163238Y-89209523D01*
X228163238Y-89161904D01*
X228210857Y-89066666D01*
X228306095Y-89019047D01*
X228448952Y-89019047D01*
X228544190Y-88971428D01*
X228591809Y-88876190D01*
X228591809Y-88828571D01*
X228544190Y-88733333D01*
X228448952Y-88685714D01*
X228306095Y-88685714D01*
X228210857Y-88733333D01*
X227353714Y-89304761D02*
X227448952Y-89352380D01*
X227639428Y-89352380D01*
X227734666Y-89304761D01*
X227782285Y-89209523D01*
X227782285Y-88828571D01*
X227734666Y-88733333D01*
X227639428Y-88685714D01*
X227448952Y-88685714D01*
X227353714Y-88733333D01*
X227306095Y-88828571D01*
X227306095Y-88923809D01*
X227782285Y-89019047D01*
X225925142Y-88352380D02*
X225734666Y-88352380D01*
X225639428Y-88400000D01*
X225544190Y-88495238D01*
X225496571Y-88685714D01*
X225496571Y-89019047D01*
X225544190Y-89209523D01*
X225639428Y-89304761D01*
X225734666Y-89352380D01*
X225925142Y-89352380D01*
X226020380Y-89304761D01*
X226115619Y-89209523D01*
X226163238Y-89019047D01*
X226163238Y-88685714D01*
X226115619Y-88495238D01*
X226020380Y-88400000D01*
X225925142Y-88352380D01*
X225210857Y-88685714D02*
X224829904Y-88685714D01*
X225068000Y-89352380D02*
X225068000Y-88495238D01*
X225020380Y-88400000D01*
X224925142Y-88352380D01*
X224829904Y-88352380D01*
X224639428Y-88685714D02*
X224258476Y-88685714D01*
X224496571Y-89352380D02*
X224496571Y-88495238D01*
X224448952Y-88400000D01*
X224353714Y-88352380D01*
X224258476Y-88352380D01*
X223972761Y-89304761D02*
X223877523Y-89352380D01*
X223687047Y-89352380D01*
X223591809Y-89304761D01*
X223544190Y-89209523D01*
X223544190Y-89161904D01*
X223591809Y-89066666D01*
X223687047Y-89019047D01*
X223829904Y-89019047D01*
X223925142Y-88971428D01*
X223972761Y-88876190D01*
X223972761Y-88828571D01*
X223925142Y-88733333D01*
X223829904Y-88685714D01*
X223687047Y-88685714D01*
X223591809Y-88733333D01*
X222734666Y-89304761D02*
X222829904Y-89352380D01*
X223020380Y-89352380D01*
X223115619Y-89304761D01*
X223163238Y-89209523D01*
X223163238Y-88828571D01*
X223115619Y-88733333D01*
X223020380Y-88685714D01*
X222829904Y-88685714D01*
X222734666Y-88733333D01*
X222687047Y-88828571D01*
X222687047Y-88923809D01*
X223163238Y-89019047D01*
X222401333Y-88685714D02*
X222020380Y-88685714D01*
X222258476Y-88352380D02*
X222258476Y-89209523D01*
X222210857Y-89304761D01*
X222115619Y-89352380D01*
X222020380Y-89352380D01*
X223821142Y-73048761D02*
X223678285Y-73096380D01*
X223440190Y-73096380D01*
X223344952Y-73048761D01*
X223297333Y-73001142D01*
X223249714Y-72905904D01*
X223249714Y-72810666D01*
X223297333Y-72715428D01*
X223344952Y-72667809D01*
X223440190Y-72620190D01*
X223630666Y-72572571D01*
X223725904Y-72524952D01*
X223773523Y-72477333D01*
X223821142Y-72382095D01*
X223821142Y-72286857D01*
X223773523Y-72191619D01*
X223725904Y-72144000D01*
X223630666Y-72096380D01*
X223392571Y-72096380D01*
X223249714Y-72144000D01*
X222392571Y-73096380D02*
X222392571Y-72572571D01*
X222440190Y-72477333D01*
X222535428Y-72429714D01*
X222725904Y-72429714D01*
X222821142Y-72477333D01*
X222392571Y-73048761D02*
X222487809Y-73096380D01*
X222725904Y-73096380D01*
X222821142Y-73048761D01*
X222868761Y-72953523D01*
X222868761Y-72858285D01*
X222821142Y-72763047D01*
X222725904Y-72715428D01*
X222487809Y-72715428D01*
X222392571Y-72667809D01*
X222011619Y-72429714D02*
X221821142Y-73096380D01*
X221630666Y-72620190D01*
X221440190Y-73096380D01*
X221249714Y-72429714D01*
X219916380Y-72096380D02*
X219725904Y-72096380D01*
X219630666Y-72144000D01*
X219535428Y-72239238D01*
X219487809Y-72429714D01*
X219487809Y-72763047D01*
X219535428Y-72953523D01*
X219630666Y-73048761D01*
X219725904Y-73096380D01*
X219916380Y-73096380D01*
X220011619Y-73048761D01*
X220106857Y-72953523D01*
X220154476Y-72763047D01*
X220154476Y-72429714D01*
X220106857Y-72239238D01*
X220011619Y-72144000D01*
X219916380Y-72096380D01*
X219202095Y-72429714D02*
X218821142Y-72429714D01*
X219059238Y-73096380D02*
X219059238Y-72239238D01*
X219011619Y-72144000D01*
X218916380Y-72096380D01*
X218821142Y-72096380D01*
X218630666Y-72429714D02*
X218249714Y-72429714D01*
X218487809Y-73096380D02*
X218487809Y-72239238D01*
X218440190Y-72144000D01*
X218344952Y-72096380D01*
X218249714Y-72096380D01*
X217964000Y-73048761D02*
X217868761Y-73096380D01*
X217678285Y-73096380D01*
X217583047Y-73048761D01*
X217535428Y-72953523D01*
X217535428Y-72905904D01*
X217583047Y-72810666D01*
X217678285Y-72763047D01*
X217821142Y-72763047D01*
X217916380Y-72715428D01*
X217964000Y-72620190D01*
X217964000Y-72572571D01*
X217916380Y-72477333D01*
X217821142Y-72429714D01*
X217678285Y-72429714D01*
X217583047Y-72477333D01*
X216725904Y-73048761D02*
X216821142Y-73096380D01*
X217011619Y-73096380D01*
X217106857Y-73048761D01*
X217154476Y-72953523D01*
X217154476Y-72572571D01*
X217106857Y-72477333D01*
X217011619Y-72429714D01*
X216821142Y-72429714D01*
X216725904Y-72477333D01*
X216678285Y-72572571D01*
X216678285Y-72667809D01*
X217154476Y-72763047D01*
X216392571Y-72429714D02*
X216011619Y-72429714D01*
X216249714Y-72096380D02*
X216249714Y-72953523D01*
X216202095Y-73048761D01*
X216106857Y-73096380D01*
X216011619Y-73096380D01*
X194135142Y-95400761D02*
X193992285Y-95448380D01*
X193754190Y-95448380D01*
X193658952Y-95400761D01*
X193611333Y-95353142D01*
X193563714Y-95257904D01*
X193563714Y-95162666D01*
X193611333Y-95067428D01*
X193658952Y-95019809D01*
X193754190Y-94972190D01*
X193944666Y-94924571D01*
X194039904Y-94876952D01*
X194087523Y-94829333D01*
X194135142Y-94734095D01*
X194135142Y-94638857D01*
X194087523Y-94543619D01*
X194039904Y-94496000D01*
X193944666Y-94448380D01*
X193706571Y-94448380D01*
X193563714Y-94496000D01*
X192706571Y-95400761D02*
X192801809Y-95448380D01*
X192992285Y-95448380D01*
X193087523Y-95400761D01*
X193135142Y-95353142D01*
X193182761Y-95257904D01*
X193182761Y-94972190D01*
X193135142Y-94876952D01*
X193087523Y-94829333D01*
X192992285Y-94781714D01*
X192801809Y-94781714D01*
X192706571Y-94829333D01*
X191849428Y-95448380D02*
X191849428Y-94924571D01*
X191897047Y-94829333D01*
X191992285Y-94781714D01*
X192182761Y-94781714D01*
X192278000Y-94829333D01*
X191849428Y-95400761D02*
X191944666Y-95448380D01*
X192182761Y-95448380D01*
X192278000Y-95400761D01*
X192325619Y-95305523D01*
X192325619Y-95210285D01*
X192278000Y-95115047D01*
X192182761Y-95067428D01*
X191944666Y-95067428D01*
X191849428Y-95019809D01*
X191230380Y-95448380D02*
X191325619Y-95400761D01*
X191373238Y-95305523D01*
X191373238Y-94448380D01*
X190468476Y-95400761D02*
X190563714Y-95448380D01*
X190754190Y-95448380D01*
X190849428Y-95400761D01*
X190897047Y-95305523D01*
X190897047Y-94924571D01*
X190849428Y-94829333D01*
X190754190Y-94781714D01*
X190563714Y-94781714D01*
X190468476Y-94829333D01*
X190420857Y-94924571D01*
X190420857Y-95019809D01*
X190897047Y-95115047D01*
X201826761Y-86122380D02*
X201874380Y-86265238D01*
X201874380Y-86503333D01*
X201826761Y-86598571D01*
X201779142Y-86646190D01*
X201683904Y-86693809D01*
X201588666Y-86693809D01*
X201493428Y-86646190D01*
X201445809Y-86598571D01*
X201398190Y-86503333D01*
X201350571Y-86312857D01*
X201302952Y-86217619D01*
X201255333Y-86170000D01*
X201160095Y-86122380D01*
X201064857Y-86122380D01*
X200969619Y-86170000D01*
X200922000Y-86217619D01*
X200874380Y-86312857D01*
X200874380Y-86550952D01*
X200922000Y-86693809D01*
X201874380Y-87122380D02*
X201207714Y-87122380D01*
X200874380Y-87122380D02*
X200922000Y-87074761D01*
X200969619Y-87122380D01*
X200922000Y-87170000D01*
X200874380Y-87122380D01*
X200969619Y-87122380D01*
X201207714Y-87598571D02*
X201874380Y-87598571D01*
X201302952Y-87598571D02*
X201255333Y-87646190D01*
X201207714Y-87741428D01*
X201207714Y-87884285D01*
X201255333Y-87979523D01*
X201350571Y-88027142D01*
X201874380Y-88027142D01*
X201826761Y-88884285D02*
X201874380Y-88789047D01*
X201874380Y-88598571D01*
X201826761Y-88503333D01*
X201731523Y-88455714D01*
X201350571Y-88455714D01*
X201255333Y-88503333D01*
X201207714Y-88598571D01*
X201207714Y-88789047D01*
X201255333Y-88884285D01*
X201350571Y-88931904D01*
X201445809Y-88931904D01*
X201541047Y-88455714D01*
X201826761Y-90074761D02*
X201874380Y-90217619D01*
X201874380Y-90455714D01*
X201826761Y-90550952D01*
X201779142Y-90598571D01*
X201683904Y-90646190D01*
X201588666Y-90646190D01*
X201493428Y-90598571D01*
X201445809Y-90550952D01*
X201398190Y-90455714D01*
X201350571Y-90265238D01*
X201302952Y-90170000D01*
X201255333Y-90122380D01*
X201160095Y-90074761D01*
X201064857Y-90074761D01*
X200969619Y-90122380D01*
X200922000Y-90170000D01*
X200874380Y-90265238D01*
X200874380Y-90503333D01*
X200922000Y-90646190D01*
X201874380Y-91074761D02*
X200874380Y-91074761D01*
X201874380Y-91503333D02*
X201350571Y-91503333D01*
X201255333Y-91455714D01*
X201207714Y-91360476D01*
X201207714Y-91217619D01*
X201255333Y-91122380D01*
X201302952Y-91074761D01*
X201874380Y-92408095D02*
X201350571Y-92408095D01*
X201255333Y-92360476D01*
X201207714Y-92265238D01*
X201207714Y-92074761D01*
X201255333Y-91979523D01*
X201826761Y-92408095D02*
X201874380Y-92312857D01*
X201874380Y-92074761D01*
X201826761Y-91979523D01*
X201731523Y-91931904D01*
X201636285Y-91931904D01*
X201541047Y-91979523D01*
X201493428Y-92074761D01*
X201493428Y-92312857D01*
X201445809Y-92408095D01*
X201207714Y-92884285D02*
X202207714Y-92884285D01*
X201255333Y-92884285D02*
X201207714Y-92979523D01*
X201207714Y-93170000D01*
X201255333Y-93265238D01*
X201302952Y-93312857D01*
X201398190Y-93360476D01*
X201683904Y-93360476D01*
X201779142Y-93312857D01*
X201826761Y-93265238D01*
X201874380Y-93170000D01*
X201874380Y-92979523D01*
X201826761Y-92884285D01*
X201826761Y-94170000D02*
X201874380Y-94074761D01*
X201874380Y-93884285D01*
X201826761Y-93789047D01*
X201731523Y-93741428D01*
X201350571Y-93741428D01*
X201255333Y-93789047D01*
X201207714Y-93884285D01*
X201207714Y-94074761D01*
X201255333Y-94170000D01*
X201350571Y-94217619D01*
X201445809Y-94217619D01*
X201541047Y-93741428D01*
X192174761Y-85011047D02*
X192222380Y-85153904D01*
X192222380Y-85392000D01*
X192174761Y-85487238D01*
X192127142Y-85534857D01*
X192031904Y-85582476D01*
X191936666Y-85582476D01*
X191841428Y-85534857D01*
X191793809Y-85487238D01*
X191746190Y-85392000D01*
X191698571Y-85201523D01*
X191650952Y-85106285D01*
X191603333Y-85058666D01*
X191508095Y-85011047D01*
X191412857Y-85011047D01*
X191317619Y-85058666D01*
X191270000Y-85106285D01*
X191222380Y-85201523D01*
X191222380Y-85439619D01*
X191270000Y-85582476D01*
X192222380Y-86011047D02*
X191555714Y-86011047D01*
X191222380Y-86011047D02*
X191270000Y-85963428D01*
X191317619Y-86011047D01*
X191270000Y-86058666D01*
X191222380Y-86011047D01*
X191317619Y-86011047D01*
X191555714Y-86487238D02*
X192222380Y-86487238D01*
X191650952Y-86487238D02*
X191603333Y-86534857D01*
X191555714Y-86630095D01*
X191555714Y-86772952D01*
X191603333Y-86868190D01*
X191698571Y-86915809D01*
X192222380Y-86915809D01*
X192174761Y-87772952D02*
X192222380Y-87677714D01*
X192222380Y-87487238D01*
X192174761Y-87392000D01*
X192079523Y-87344380D01*
X191698571Y-87344380D01*
X191603333Y-87392000D01*
X191555714Y-87487238D01*
X191555714Y-87677714D01*
X191603333Y-87772952D01*
X191698571Y-87820571D01*
X191793809Y-87820571D01*
X191889047Y-87344380D01*
X191698571Y-89344380D02*
X191746190Y-89487238D01*
X191793809Y-89534857D01*
X191889047Y-89582476D01*
X192031904Y-89582476D01*
X192127142Y-89534857D01*
X192174761Y-89487238D01*
X192222380Y-89392000D01*
X192222380Y-89011047D01*
X191222380Y-89011047D01*
X191222380Y-89344380D01*
X191270000Y-89439619D01*
X191317619Y-89487238D01*
X191412857Y-89534857D01*
X191508095Y-89534857D01*
X191603333Y-89487238D01*
X191650952Y-89439619D01*
X191698571Y-89344380D01*
X191698571Y-89011047D01*
X192222380Y-90011047D02*
X191555714Y-90011047D01*
X191222380Y-90011047D02*
X191270000Y-89963428D01*
X191317619Y-90011047D01*
X191270000Y-90058666D01*
X191222380Y-90011047D01*
X191317619Y-90011047D01*
X192222380Y-90915809D02*
X191698571Y-90915809D01*
X191603333Y-90868190D01*
X191555714Y-90772952D01*
X191555714Y-90582476D01*
X191603333Y-90487238D01*
X192174761Y-90915809D02*
X192222380Y-90820571D01*
X192222380Y-90582476D01*
X192174761Y-90487238D01*
X192079523Y-90439619D01*
X191984285Y-90439619D01*
X191889047Y-90487238D01*
X191841428Y-90582476D01*
X191841428Y-90820571D01*
X191793809Y-90915809D01*
X192174761Y-91344380D02*
X192222380Y-91439619D01*
X192222380Y-91630095D01*
X192174761Y-91725333D01*
X192079523Y-91772952D01*
X192031904Y-91772952D01*
X191936666Y-91725333D01*
X191889047Y-91630095D01*
X191889047Y-91487238D01*
X191841428Y-91392000D01*
X191746190Y-91344380D01*
X191698571Y-91344380D01*
X191603333Y-91392000D01*
X191555714Y-91487238D01*
X191555714Y-91630095D01*
X191603333Y-91725333D01*
X192174761Y-74795523D02*
X192222380Y-74938380D01*
X192222380Y-75176476D01*
X192174761Y-75271714D01*
X192127142Y-75319333D01*
X192031904Y-75366952D01*
X191936666Y-75366952D01*
X191841428Y-75319333D01*
X191793809Y-75271714D01*
X191746190Y-75176476D01*
X191698571Y-74986000D01*
X191650952Y-74890761D01*
X191603333Y-74843142D01*
X191508095Y-74795523D01*
X191412857Y-74795523D01*
X191317619Y-74843142D01*
X191270000Y-74890761D01*
X191222380Y-74986000D01*
X191222380Y-75224095D01*
X191270000Y-75366952D01*
X192222380Y-75795523D02*
X191555714Y-75795523D01*
X191222380Y-75795523D02*
X191270000Y-75747904D01*
X191317619Y-75795523D01*
X191270000Y-75843142D01*
X191222380Y-75795523D01*
X191317619Y-75795523D01*
X191555714Y-76271714D02*
X192222380Y-76271714D01*
X191650952Y-76271714D02*
X191603333Y-76319333D01*
X191555714Y-76414571D01*
X191555714Y-76557428D01*
X191603333Y-76652666D01*
X191698571Y-76700285D01*
X192222380Y-76700285D01*
X192174761Y-77557428D02*
X192222380Y-77462190D01*
X192222380Y-77271714D01*
X192174761Y-77176476D01*
X192079523Y-77128857D01*
X191698571Y-77128857D01*
X191603333Y-77176476D01*
X191555714Y-77271714D01*
X191555714Y-77462190D01*
X191603333Y-77557428D01*
X191698571Y-77605047D01*
X191793809Y-77605047D01*
X191889047Y-77128857D01*
X192222380Y-79271714D02*
X192222380Y-78795523D01*
X191222380Y-78795523D01*
X192174761Y-79986000D02*
X192222380Y-79890761D01*
X192222380Y-79700285D01*
X192174761Y-79605047D01*
X192079523Y-79557428D01*
X191698571Y-79557428D01*
X191603333Y-79605047D01*
X191555714Y-79700285D01*
X191555714Y-79890761D01*
X191603333Y-79986000D01*
X191698571Y-80033619D01*
X191793809Y-80033619D01*
X191889047Y-79557428D01*
X191555714Y-80366952D02*
X192222380Y-80605047D01*
X191555714Y-80843142D01*
X192174761Y-81605047D02*
X192222380Y-81509809D01*
X192222380Y-81319333D01*
X192174761Y-81224095D01*
X192079523Y-81176476D01*
X191698571Y-81176476D01*
X191603333Y-81224095D01*
X191555714Y-81319333D01*
X191555714Y-81509809D01*
X191603333Y-81605047D01*
X191698571Y-81652666D01*
X191793809Y-81652666D01*
X191889047Y-81176476D01*
X192222380Y-82224095D02*
X192174761Y-82128857D01*
X192079523Y-82081238D01*
X191222380Y-82081238D01*
D11*
X190813000Y-80508000D02*
X190813000Y-75438000D01*
X181043000Y-80508000D02*
X181043000Y-75438000D01*
X181043000Y-75438000D02*
X190813000Y-75438000D01*
X181043000Y-80508000D02*
X190813000Y-80508000D01*
X219954000Y-89349000D02*
X214884000Y-89349000D01*
X219954000Y-99119000D02*
X214884000Y-99119000D01*
X214884000Y-99119000D02*
X214884000Y-89349000D01*
X219954000Y-99119000D02*
X219954000Y-89349000D01*
X198130000Y-76141000D02*
X198130000Y-85911000D01*
X203200000Y-76141000D02*
X203200000Y-85911000D01*
X198130000Y-76141000D02*
X203200000Y-76141000D01*
X198130000Y-85911000D02*
X203200000Y-85911000D01*
X192542000Y-84523000D02*
X192542000Y-94293000D01*
X197612000Y-84523000D02*
X197612000Y-94293000D01*
X192542000Y-84523000D02*
X197612000Y-84523000D01*
X192542000Y-94293000D02*
X197612000Y-94293000D01*
X197602000Y-74109000D02*
X192532000Y-74109000D01*
X197602000Y-83879000D02*
X192532000Y-83879000D01*
X192532000Y-83879000D02*
X192532000Y-74109000D01*
X197602000Y-83879000D02*
X197602000Y-74109000D01*
X215783000Y-83371000D02*
X220853000Y-83371000D01*
X215783000Y-73601000D02*
X220853000Y-73601000D01*
X220853000Y-73601000D02*
X220853000Y-83371000D01*
X215783000Y-73601000D02*
X215783000Y-83371000D01*
X222191000Y-88636000D02*
X231961000Y-88636000D01*
X222191000Y-83566000D02*
X231961000Y-83566000D01*
X222191000Y-88636000D02*
X222191000Y-83566000D01*
X231961000Y-88636000D02*
X231961000Y-83566000D01*
X188782000Y-93278000D02*
X186122000Y-93278000D01*
X188782000Y-90678000D02*
X188782000Y-93278000D01*
X186122000Y-90678000D02*
X186122000Y-93278000D01*
X188782000Y-90678000D02*
X186122000Y-90678000D01*
X188782000Y-89408000D02*
X188782000Y-88078000D01*
X188782000Y-88078000D02*
X187452000Y-88078000D01*
X184599000Y-101082000D02*
X194369000Y-101082000D01*
X184599000Y-96012000D02*
X194369000Y-96012000D01*
X184599000Y-101082000D02*
X184599000Y-96012000D01*
X194369000Y-101082000D02*
X194369000Y-96012000D01*
X167191000Y-83810000D02*
X167191000Y-78740000D01*
X157421000Y-83810000D02*
X157421000Y-78740000D01*
X157421000Y-78740000D02*
X167191000Y-78740000D01*
X157421000Y-83810000D02*
X167191000Y-83810000D01*
X175963000Y-70856000D02*
X185733000Y-70856000D01*
X175963000Y-65786000D02*
X185733000Y-65786000D01*
X175963000Y-70856000D02*
X175963000Y-65786000D01*
X185733000Y-70856000D02*
X185733000Y-65786000D01*
X184080000Y-83820000D02*
G75*
G03X184080000Y-83820000I-1200000J0D01*
G01*
X187890000Y-83820000D02*
G75*
G03X187890000Y-83820000I-1200000J0D01*
G01*
X215408000Y-63651000D02*
X186928000Y-63651000D01*
X186928000Y-63651000D02*
X186928000Y-73001000D01*
X186928000Y-73001000D02*
X215408000Y-73001000D01*
X215408000Y-73001000D02*
X215408000Y-63651000D01*
X215658000Y-73251000D02*
X213118000Y-73251000D01*
X215658000Y-73251000D02*
X215658000Y-70711000D01*
D10*
X186523238Y-82090380D02*
X186856571Y-81614190D01*
X187094666Y-82090380D02*
X187094666Y-81090380D01*
X186713714Y-81090380D01*
X186618476Y-81138000D01*
X186570857Y-81185619D01*
X186523238Y-81280857D01*
X186523238Y-81423714D01*
X186570857Y-81518952D01*
X186618476Y-81566571D01*
X186713714Y-81614190D01*
X187094666Y-81614190D01*
X186237523Y-81090380D02*
X185904190Y-82090380D01*
X185570857Y-81090380D01*
X184713714Y-82090380D02*
X185285142Y-82090380D01*
X184999428Y-82090380D02*
X184999428Y-81090380D01*
X185094666Y-81233238D01*
X185189904Y-81328476D01*
X185285142Y-81376095D01*
X214574380Y-90082761D02*
X214098190Y-89749428D01*
X214574380Y-89511333D02*
X213574380Y-89511333D01*
X213574380Y-89892285D01*
X213622000Y-89987523D01*
X213669619Y-90035142D01*
X213764857Y-90082761D01*
X213907714Y-90082761D01*
X214002952Y-90035142D01*
X214050571Y-89987523D01*
X214098190Y-89892285D01*
X214098190Y-89511333D01*
X213574380Y-90368476D02*
X214574380Y-90701809D01*
X213574380Y-91035142D01*
X213574380Y-91797047D02*
X213574380Y-91606571D01*
X213622000Y-91511333D01*
X213669619Y-91463714D01*
X213812476Y-91368476D01*
X214002952Y-91320857D01*
X214383904Y-91320857D01*
X214479142Y-91368476D01*
X214526761Y-91416095D01*
X214574380Y-91511333D01*
X214574380Y-91701809D01*
X214526761Y-91797047D01*
X214479142Y-91844666D01*
X214383904Y-91892285D01*
X214145809Y-91892285D01*
X214050571Y-91844666D01*
X214002952Y-91797047D01*
X213955333Y-91701809D01*
X213955333Y-91511333D01*
X214002952Y-91416095D01*
X214050571Y-91368476D01*
X214145809Y-91320857D01*
X204414380Y-74080761D02*
X203938190Y-73747428D01*
X204414380Y-73509333D02*
X203414380Y-73509333D01*
X203414380Y-73890285D01*
X203462000Y-73985523D01*
X203509619Y-74033142D01*
X203604857Y-74080761D01*
X203747714Y-74080761D01*
X203842952Y-74033142D01*
X203890571Y-73985523D01*
X203938190Y-73890285D01*
X203938190Y-73509333D01*
X203414380Y-74366476D02*
X204414380Y-74699809D01*
X203414380Y-75033142D01*
X203414380Y-75271238D02*
X203414380Y-75937904D01*
X204414380Y-75509333D01*
X198953380Y-88685761D02*
X198477190Y-88352428D01*
X198953380Y-88114333D02*
X197953380Y-88114333D01*
X197953380Y-88495285D01*
X198001000Y-88590523D01*
X198048619Y-88638142D01*
X198143857Y-88685761D01*
X198286714Y-88685761D01*
X198381952Y-88638142D01*
X198429571Y-88590523D01*
X198477190Y-88495285D01*
X198477190Y-88114333D01*
X197953380Y-88971476D02*
X198953380Y-89304809D01*
X197953380Y-89638142D01*
X198381952Y-90114333D02*
X198334333Y-90019095D01*
X198286714Y-89971476D01*
X198191476Y-89923857D01*
X198143857Y-89923857D01*
X198048619Y-89971476D01*
X198001000Y-90019095D01*
X197953380Y-90114333D01*
X197953380Y-90304809D01*
X198001000Y-90400047D01*
X198048619Y-90447666D01*
X198143857Y-90495285D01*
X198191476Y-90495285D01*
X198286714Y-90447666D01*
X198334333Y-90400047D01*
X198381952Y-90304809D01*
X198381952Y-90114333D01*
X198429571Y-90019095D01*
X198477190Y-89971476D01*
X198572428Y-89923857D01*
X198762904Y-89923857D01*
X198858142Y-89971476D01*
X198905761Y-90019095D01*
X198953380Y-90114333D01*
X198953380Y-90304809D01*
X198905761Y-90400047D01*
X198858142Y-90447666D01*
X198762904Y-90495285D01*
X198572428Y-90495285D01*
X198477190Y-90447666D01*
X198429571Y-90400047D01*
X198381952Y-90304809D01*
X199080380Y-73826761D02*
X198604190Y-73493428D01*
X199080380Y-73255333D02*
X198080380Y-73255333D01*
X198080380Y-73636285D01*
X198128000Y-73731523D01*
X198175619Y-73779142D01*
X198270857Y-73826761D01*
X198413714Y-73826761D01*
X198508952Y-73779142D01*
X198556571Y-73731523D01*
X198604190Y-73636285D01*
X198604190Y-73255333D01*
X198080380Y-74112476D02*
X199080380Y-74445809D01*
X198080380Y-74779142D01*
X199080380Y-75160095D02*
X199080380Y-75350571D01*
X199032761Y-75445809D01*
X198985142Y-75493428D01*
X198842285Y-75588666D01*
X198651809Y-75636285D01*
X198270857Y-75636285D01*
X198175619Y-75588666D01*
X198128000Y-75541047D01*
X198080380Y-75445809D01*
X198080380Y-75255333D01*
X198128000Y-75160095D01*
X198175619Y-75112476D01*
X198270857Y-75064857D01*
X198508952Y-75064857D01*
X198604190Y-75112476D01*
X198651809Y-75160095D01*
X198699428Y-75255333D01*
X198699428Y-75445809D01*
X198651809Y-75541047D01*
X198604190Y-75588666D01*
X198508952Y-75636285D01*
X215105380Y-77414571D02*
X214629190Y-77081238D01*
X215105380Y-76843142D02*
X214105380Y-76843142D01*
X214105380Y-77224095D01*
X214153000Y-77319333D01*
X214200619Y-77366952D01*
X214295857Y-77414571D01*
X214438714Y-77414571D01*
X214533952Y-77366952D01*
X214581571Y-77319333D01*
X214629190Y-77224095D01*
X214629190Y-76843142D01*
X214105380Y-77700285D02*
X215105380Y-78033619D01*
X214105380Y-78366952D01*
X215105380Y-79224095D02*
X215105380Y-78652666D01*
X215105380Y-78938380D02*
X214105380Y-78938380D01*
X214248238Y-78843142D01*
X214343476Y-78747904D01*
X214391095Y-78652666D01*
X214105380Y-79843142D02*
X214105380Y-79938380D01*
X214153000Y-80033619D01*
X214200619Y-80081238D01*
X214295857Y-80128857D01*
X214486333Y-80176476D01*
X214724428Y-80176476D01*
X214914904Y-80128857D01*
X215010142Y-80081238D01*
X215057761Y-80033619D01*
X215105380Y-79938380D01*
X215105380Y-79843142D01*
X215057761Y-79747904D01*
X215010142Y-79700285D01*
X214914904Y-79652666D01*
X214724428Y-79605047D01*
X214486333Y-79605047D01*
X214295857Y-79652666D01*
X214200619Y-79700285D01*
X214153000Y-79747904D01*
X214105380Y-79843142D01*
X221289428Y-86558380D02*
X221622761Y-86082190D01*
X221860857Y-86558380D02*
X221860857Y-85558380D01*
X221479904Y-85558380D01*
X221384666Y-85606000D01*
X221337047Y-85653619D01*
X221289428Y-85748857D01*
X221289428Y-85891714D01*
X221337047Y-85986952D01*
X221384666Y-86034571D01*
X221479904Y-86082190D01*
X221860857Y-86082190D01*
X221003714Y-85558380D02*
X220670380Y-86558380D01*
X220337047Y-85558380D01*
X219479904Y-86558380D02*
X220051333Y-86558380D01*
X219765619Y-86558380D02*
X219765619Y-85558380D01*
X219860857Y-85701238D01*
X219956095Y-85796476D01*
X220051333Y-85844095D01*
X218527523Y-86558380D02*
X219098952Y-86558380D01*
X218813238Y-86558380D02*
X218813238Y-85558380D01*
X218908476Y-85701238D01*
X219003714Y-85796476D01*
X219098952Y-85844095D01*
X188285333Y-86530380D02*
X188285333Y-87244666D01*
X188332952Y-87387523D01*
X188428190Y-87482761D01*
X188571047Y-87530380D01*
X188666285Y-87530380D01*
X187809142Y-87530380D02*
X187809142Y-86530380D01*
X187428190Y-86530380D01*
X187332952Y-86578000D01*
X187285333Y-86625619D01*
X187237714Y-86720857D01*
X187237714Y-86863714D01*
X187285333Y-86958952D01*
X187332952Y-87006571D01*
X187428190Y-87054190D01*
X187809142Y-87054190D01*
X186332952Y-86530380D02*
X186809142Y-86530380D01*
X186856761Y-87006571D01*
X186809142Y-86958952D01*
X186713904Y-86911333D01*
X186475809Y-86911333D01*
X186380571Y-86958952D01*
X186332952Y-87006571D01*
X186285333Y-87101809D01*
X186285333Y-87339904D01*
X186332952Y-87435142D01*
X186380571Y-87482761D01*
X186475809Y-87530380D01*
X186713904Y-87530380D01*
X186809142Y-87482761D01*
X186856761Y-87435142D01*
X187539238Y-95448380D02*
X187872571Y-94972190D01*
X188110666Y-95448380D02*
X188110666Y-94448380D01*
X187729714Y-94448380D01*
X187634476Y-94496000D01*
X187586857Y-94543619D01*
X187539238Y-94638857D01*
X187539238Y-94781714D01*
X187586857Y-94876952D01*
X187634476Y-94924571D01*
X187729714Y-94972190D01*
X188110666Y-94972190D01*
X187253523Y-94448380D02*
X186920190Y-95448380D01*
X186586857Y-94448380D01*
X186348761Y-94448380D02*
X185729714Y-94448380D01*
X186063047Y-94829333D01*
X185920190Y-94829333D01*
X185824952Y-94876952D01*
X185777333Y-94924571D01*
X185729714Y-95019809D01*
X185729714Y-95257904D01*
X185777333Y-95353142D01*
X185824952Y-95400761D01*
X185920190Y-95448380D01*
X186205904Y-95448380D01*
X186301142Y-95400761D01*
X186348761Y-95353142D01*
X163377428Y-85392380D02*
X163710761Y-84916190D01*
X163948857Y-85392380D02*
X163948857Y-84392380D01*
X163567904Y-84392380D01*
X163472666Y-84440000D01*
X163425047Y-84487619D01*
X163377428Y-84582857D01*
X163377428Y-84725714D01*
X163425047Y-84820952D01*
X163472666Y-84868571D01*
X163567904Y-84916190D01*
X163948857Y-84916190D01*
X163091714Y-84392380D02*
X162758380Y-85392380D01*
X162425047Y-84392380D01*
X161567904Y-85392380D02*
X162139333Y-85392380D01*
X161853619Y-85392380D02*
X161853619Y-84392380D01*
X161948857Y-84535238D01*
X162044095Y-84630476D01*
X162139333Y-84678095D01*
X161234571Y-84392380D02*
X160615523Y-84392380D01*
X160948857Y-84773333D01*
X160806000Y-84773333D01*
X160710761Y-84820952D01*
X160663142Y-84868571D01*
X160615523Y-84963809D01*
X160615523Y-85201904D01*
X160663142Y-85297142D01*
X160710761Y-85344761D01*
X160806000Y-85392380D01*
X161091714Y-85392380D01*
X161186952Y-85344761D01*
X161234571Y-85297142D01*
X181919428Y-72438380D02*
X182252761Y-71962190D01*
X182490857Y-72438380D02*
X182490857Y-71438380D01*
X182109904Y-71438380D01*
X182014666Y-71486000D01*
X181967047Y-71533619D01*
X181919428Y-71628857D01*
X181919428Y-71771714D01*
X181967047Y-71866952D01*
X182014666Y-71914571D01*
X182109904Y-71962190D01*
X182490857Y-71962190D01*
X181633714Y-71438380D02*
X181300380Y-72438380D01*
X180967047Y-71438380D01*
X180109904Y-72438380D02*
X180681333Y-72438380D01*
X180395619Y-72438380D02*
X180395619Y-71438380D01*
X180490857Y-71581238D01*
X180586095Y-71676476D01*
X180681333Y-71724095D01*
X179252761Y-71771714D02*
X179252761Y-72438380D01*
X179490857Y-71390761D02*
X179728952Y-72105047D01*
X179109904Y-72105047D01*
X184141904Y-85270380D02*
X183570476Y-85270380D01*
X183856190Y-86270380D02*
X183856190Y-85270380D01*
X183237142Y-86270380D02*
X183237142Y-85270380D01*
X182856190Y-85270380D01*
X182760952Y-85318000D01*
X182713333Y-85365619D01*
X182665714Y-85460857D01*
X182665714Y-85603714D01*
X182713333Y-85698952D01*
X182760952Y-85746571D01*
X182856190Y-85794190D01*
X183237142Y-85794190D01*
X181713333Y-86270380D02*
X182284761Y-86270380D01*
X181999047Y-86270380D02*
X181999047Y-85270380D01*
X182094285Y-85413238D01*
X182189523Y-85508476D01*
X182284761Y-85556095D01*
X187951904Y-85270380D02*
X187380476Y-85270380D01*
X187666190Y-86270380D02*
X187666190Y-85270380D01*
X187047142Y-86270380D02*
X187047142Y-85270380D01*
X186666190Y-85270380D01*
X186570952Y-85318000D01*
X186523333Y-85365619D01*
X186475714Y-85460857D01*
X186475714Y-85603714D01*
X186523333Y-85698952D01*
X186570952Y-85746571D01*
X186666190Y-85794190D01*
X187047142Y-85794190D01*
X186094761Y-85365619D02*
X186047142Y-85318000D01*
X185951904Y-85270380D01*
X185713809Y-85270380D01*
X185618571Y-85318000D01*
X185570952Y-85365619D01*
X185523333Y-85460857D01*
X185523333Y-85556095D01*
X185570952Y-85698952D01*
X186142380Y-86270380D01*
X185523333Y-86270380D01*
X216114380Y-67992666D02*
X216828666Y-67992666D01*
X216971523Y-67945047D01*
X217066761Y-67849809D01*
X217114380Y-67706952D01*
X217114380Y-67611714D01*
X216114380Y-68373619D02*
X216114380Y-68992666D01*
X216495333Y-68659333D01*
X216495333Y-68802190D01*
X216542952Y-68897428D01*
X216590571Y-68945047D01*
X216685809Y-68992666D01*
X216923904Y-68992666D01*
X217019142Y-68945047D01*
X217066761Y-68897428D01*
X217114380Y-68802190D01*
X217114380Y-68516476D01*
X217066761Y-68421238D01*
X217019142Y-68373619D01*
M02*
