M48
; DRILL file {KiCad (5.1.4-0-10_14)} date Tuesday, October 08, 2019 at 09:24:43 PM
; FORMAT={-:-/ absolute / inch / decimal}
; #@! TF.CreationDate,2019-10-08T21:24:43-07:00
; #@! TF.GenerationSoftware,Kicad,Pcbnew,(5.1.4-0-10_14)
; #@! TF.FileFunction,Plated,1,2,PTH
FMAT,2
INCH
T1C0.0157
T2C0.0300
T3C0.0315
T4C0.0394
T5C0.0400
T6C0.1260
%
G90
G05
T1
X3.19Y-3.78
X3.2Y-5.09
X3.25Y-4.7
X3.47Y-3.94
X3.53Y-3.44
X3.71Y-4.6
X3.71Y-5.61
X3.75Y-5.15
X3.75Y-5.72
X3.83Y-3.74
X3.85Y-3.05
X3.97Y-5.21
X4.12Y-4.96
X4.13Y-5.11
X4.14Y-5.6
X4.15Y-3.71
X4.25Y-3.08
T2
X3.43Y-3.235
X3.43Y-3.485
T3
X3.62Y-5.3
X3.62Y-5.4
X3.92Y-5.5
X3.92Y-5.6
X4.17Y-3.86
X3.92Y-5.3
X4.17Y-4.81
X4.17Y-4.91
X4.17Y-5.01
X4.17Y-3.96
X4.17Y-4.06
X3.62Y-5.5
X3.62Y-5.6
X3.92Y-5.4
X3.11Y-4.7
X3.11Y-4.8
X3.11Y-4.9
X4.17Y-4.4
X4.17Y-4.5
X4.17Y-4.6
X2.89Y-4.2
X2.89Y-4.3
X2.89Y-4.4
X3.62Y-2.99
X3.62Y-3.09
X3.62Y-3.19
X3.62Y-3.29
X3.62Y-3.39
X3.62Y-3.88
X3.62Y-3.98
X3.92Y-4.18
X3.41Y-4.4
X3.41Y-4.5
X3.41Y-4.6
X3.92Y-3.69
X3.92Y-4.08
X3.62Y-3.49
X3.62Y-3.59
X3.62Y-3.69
X3.92Y-2.99
X3.92Y-3.09
X3.92Y-3.19
X3.92Y-3.29
X3.62Y-4.08
X3.92Y-3.39
X3.92Y-3.98
X3.92Y-3.49
X3.62Y-4.18
X3.92Y-3.59
X3.92Y-3.88
X3.62Y-4.38
X3.62Y-4.48
X3.62Y-4.58
X3.62Y-4.68
X3.62Y-4.78
X4.17Y-5.3
X4.17Y-5.4
X4.17Y-5.5
X3.18Y-2.84
X3.28Y-2.84
X3.38Y-2.84
X3.62Y-4.88
X3.62Y-4.98
X3.62Y-5.08
X3.92Y-4.38
X3.92Y-4.48
X3.92Y-4.58
X3.92Y-4.68
X3.92Y-4.78
X3.92Y-4.88
X3.92Y-4.98
X3.92Y-5.08
X3.38Y-3.85
X3.38Y-3.95
X3.38Y-4.05
X4.18Y-3.03
X4.18Y-3.13
X4.18Y-3.23
T4
X2.8Y-4.66
X2.8Y-4.76
X2.8Y-4.86
X2.8Y-4.96
X2.8Y-5.06
X3.31Y-3.07
X3.41Y-3.07
X2.8Y-5.16
X2.8Y-5.26
X2.8Y-5.36
X2.8Y-5.46
X2.8Y-5.56
X2.8Y-5.66
X2.8Y-5.76
X2.8Y-5.86
X2.8Y-5.96
T5
X2.8Y-3.15
X2.8Y-3.25
X2.8Y-3.35
X2.8Y-3.45
X2.8Y-3.55
X2.8Y-3.65
X2.8Y-3.75
X2.8Y-3.85
X2.9Y-3.15
X2.9Y-3.25
X2.9Y-3.35
X2.9Y-3.45
X2.9Y-3.55
X2.9Y-3.65
X2.9Y-3.75
X2.9Y-3.85
T6
X2.78Y-2.78
X2.78Y-6.17
X4.22Y-2.78
X3.63Y-6.17
T0
M30
