G04 #@! TF.GenerationSoftware,KiCad,Pcbnew,(5.1.4-0-10_14)*
G04 #@! TF.CreationDate,2019-10-08T21:24:40-07:00*
G04 #@! TF.ProjectId,VCO_Main,56434f5f-4d61-4696-9e2e-6b696361645f,rev?*
G04 #@! TF.SameCoordinates,Original*
G04 #@! TF.FileFunction,Paste,Top*
G04 #@! TF.FilePolarity,Positive*
%FSLAX46Y46*%
G04 Gerber Fmt 4.6, Leading zero omitted, Abs format (unit mm)*
G04 Created by KiCad (PCBNEW (5.1.4-0-10_14)) date 2019-10-08 21:24:40*
%MOMM*%
%LPD*%
G04 APERTURE LIST*
%ADD10C,0.150000*%
%ADD11C,0.975000*%
%ADD12C,1.600000*%
G04 APERTURE END LIST*
D10*
G36*
X101946142Y-74739174D02*
G01*
X101969803Y-74742684D01*
X101993007Y-74748496D01*
X102015529Y-74756554D01*
X102037153Y-74766782D01*
X102057670Y-74779079D01*
X102076883Y-74793329D01*
X102094607Y-74809393D01*
X102110671Y-74827117D01*
X102124921Y-74846330D01*
X102137218Y-74866847D01*
X102147446Y-74888471D01*
X102155504Y-74910993D01*
X102161316Y-74934197D01*
X102164826Y-74957858D01*
X102166000Y-74981750D01*
X102166000Y-75894250D01*
X102164826Y-75918142D01*
X102161316Y-75941803D01*
X102155504Y-75965007D01*
X102147446Y-75987529D01*
X102137218Y-76009153D01*
X102124921Y-76029670D01*
X102110671Y-76048883D01*
X102094607Y-76066607D01*
X102076883Y-76082671D01*
X102057670Y-76096921D01*
X102037153Y-76109218D01*
X102015529Y-76119446D01*
X101993007Y-76127504D01*
X101969803Y-76133316D01*
X101946142Y-76136826D01*
X101922250Y-76138000D01*
X101434750Y-76138000D01*
X101410858Y-76136826D01*
X101387197Y-76133316D01*
X101363993Y-76127504D01*
X101341471Y-76119446D01*
X101319847Y-76109218D01*
X101299330Y-76096921D01*
X101280117Y-76082671D01*
X101262393Y-76066607D01*
X101246329Y-76048883D01*
X101232079Y-76029670D01*
X101219782Y-76009153D01*
X101209554Y-75987529D01*
X101201496Y-75965007D01*
X101195684Y-75941803D01*
X101192174Y-75918142D01*
X101191000Y-75894250D01*
X101191000Y-74981750D01*
X101192174Y-74957858D01*
X101195684Y-74934197D01*
X101201496Y-74910993D01*
X101209554Y-74888471D01*
X101219782Y-74866847D01*
X101232079Y-74846330D01*
X101246329Y-74827117D01*
X101262393Y-74809393D01*
X101280117Y-74793329D01*
X101299330Y-74779079D01*
X101319847Y-74766782D01*
X101341471Y-74756554D01*
X101363993Y-74748496D01*
X101387197Y-74742684D01*
X101410858Y-74739174D01*
X101434750Y-74738000D01*
X101922250Y-74738000D01*
X101946142Y-74739174D01*
X101946142Y-74739174D01*
G37*
D11*
X101678500Y-75438000D03*
D10*
G36*
X103821142Y-74739174D02*
G01*
X103844803Y-74742684D01*
X103868007Y-74748496D01*
X103890529Y-74756554D01*
X103912153Y-74766782D01*
X103932670Y-74779079D01*
X103951883Y-74793329D01*
X103969607Y-74809393D01*
X103985671Y-74827117D01*
X103999921Y-74846330D01*
X104012218Y-74866847D01*
X104022446Y-74888471D01*
X104030504Y-74910993D01*
X104036316Y-74934197D01*
X104039826Y-74957858D01*
X104041000Y-74981750D01*
X104041000Y-75894250D01*
X104039826Y-75918142D01*
X104036316Y-75941803D01*
X104030504Y-75965007D01*
X104022446Y-75987529D01*
X104012218Y-76009153D01*
X103999921Y-76029670D01*
X103985671Y-76048883D01*
X103969607Y-76066607D01*
X103951883Y-76082671D01*
X103932670Y-76096921D01*
X103912153Y-76109218D01*
X103890529Y-76119446D01*
X103868007Y-76127504D01*
X103844803Y-76133316D01*
X103821142Y-76136826D01*
X103797250Y-76138000D01*
X103309750Y-76138000D01*
X103285858Y-76136826D01*
X103262197Y-76133316D01*
X103238993Y-76127504D01*
X103216471Y-76119446D01*
X103194847Y-76109218D01*
X103174330Y-76096921D01*
X103155117Y-76082671D01*
X103137393Y-76066607D01*
X103121329Y-76048883D01*
X103107079Y-76029670D01*
X103094782Y-76009153D01*
X103084554Y-75987529D01*
X103076496Y-75965007D01*
X103070684Y-75941803D01*
X103067174Y-75918142D01*
X103066000Y-75894250D01*
X103066000Y-74981750D01*
X103067174Y-74957858D01*
X103070684Y-74934197D01*
X103076496Y-74910993D01*
X103084554Y-74888471D01*
X103094782Y-74866847D01*
X103107079Y-74846330D01*
X103121329Y-74827117D01*
X103137393Y-74809393D01*
X103155117Y-74793329D01*
X103174330Y-74779079D01*
X103194847Y-74766782D01*
X103216471Y-74756554D01*
X103238993Y-74748496D01*
X103262197Y-74742684D01*
X103285858Y-74739174D01*
X103309750Y-74738000D01*
X103797250Y-74738000D01*
X103821142Y-74739174D01*
X103821142Y-74739174D01*
G37*
D11*
X103553500Y-75438000D03*
D10*
G36*
X103821142Y-77787174D02*
G01*
X103844803Y-77790684D01*
X103868007Y-77796496D01*
X103890529Y-77804554D01*
X103912153Y-77814782D01*
X103932670Y-77827079D01*
X103951883Y-77841329D01*
X103969607Y-77857393D01*
X103985671Y-77875117D01*
X103999921Y-77894330D01*
X104012218Y-77914847D01*
X104022446Y-77936471D01*
X104030504Y-77958993D01*
X104036316Y-77982197D01*
X104039826Y-78005858D01*
X104041000Y-78029750D01*
X104041000Y-78942250D01*
X104039826Y-78966142D01*
X104036316Y-78989803D01*
X104030504Y-79013007D01*
X104022446Y-79035529D01*
X104012218Y-79057153D01*
X103999921Y-79077670D01*
X103985671Y-79096883D01*
X103969607Y-79114607D01*
X103951883Y-79130671D01*
X103932670Y-79144921D01*
X103912153Y-79157218D01*
X103890529Y-79167446D01*
X103868007Y-79175504D01*
X103844803Y-79181316D01*
X103821142Y-79184826D01*
X103797250Y-79186000D01*
X103309750Y-79186000D01*
X103285858Y-79184826D01*
X103262197Y-79181316D01*
X103238993Y-79175504D01*
X103216471Y-79167446D01*
X103194847Y-79157218D01*
X103174330Y-79144921D01*
X103155117Y-79130671D01*
X103137393Y-79114607D01*
X103121329Y-79096883D01*
X103107079Y-79077670D01*
X103094782Y-79057153D01*
X103084554Y-79035529D01*
X103076496Y-79013007D01*
X103070684Y-78989803D01*
X103067174Y-78966142D01*
X103066000Y-78942250D01*
X103066000Y-78029750D01*
X103067174Y-78005858D01*
X103070684Y-77982197D01*
X103076496Y-77958993D01*
X103084554Y-77936471D01*
X103094782Y-77914847D01*
X103107079Y-77894330D01*
X103121329Y-77875117D01*
X103137393Y-77857393D01*
X103155117Y-77841329D01*
X103174330Y-77827079D01*
X103194847Y-77814782D01*
X103216471Y-77804554D01*
X103238993Y-77796496D01*
X103262197Y-77790684D01*
X103285858Y-77787174D01*
X103309750Y-77786000D01*
X103797250Y-77786000D01*
X103821142Y-77787174D01*
X103821142Y-77787174D01*
G37*
D11*
X103553500Y-78486000D03*
D10*
G36*
X101946142Y-77787174D02*
G01*
X101969803Y-77790684D01*
X101993007Y-77796496D01*
X102015529Y-77804554D01*
X102037153Y-77814782D01*
X102057670Y-77827079D01*
X102076883Y-77841329D01*
X102094607Y-77857393D01*
X102110671Y-77875117D01*
X102124921Y-77894330D01*
X102137218Y-77914847D01*
X102147446Y-77936471D01*
X102155504Y-77958993D01*
X102161316Y-77982197D01*
X102164826Y-78005858D01*
X102166000Y-78029750D01*
X102166000Y-78942250D01*
X102164826Y-78966142D01*
X102161316Y-78989803D01*
X102155504Y-79013007D01*
X102147446Y-79035529D01*
X102137218Y-79057153D01*
X102124921Y-79077670D01*
X102110671Y-79096883D01*
X102094607Y-79114607D01*
X102076883Y-79130671D01*
X102057670Y-79144921D01*
X102037153Y-79157218D01*
X102015529Y-79167446D01*
X101993007Y-79175504D01*
X101969803Y-79181316D01*
X101946142Y-79184826D01*
X101922250Y-79186000D01*
X101434750Y-79186000D01*
X101410858Y-79184826D01*
X101387197Y-79181316D01*
X101363993Y-79175504D01*
X101341471Y-79167446D01*
X101319847Y-79157218D01*
X101299330Y-79144921D01*
X101280117Y-79130671D01*
X101262393Y-79114607D01*
X101246329Y-79096883D01*
X101232079Y-79077670D01*
X101219782Y-79057153D01*
X101209554Y-79035529D01*
X101201496Y-79013007D01*
X101195684Y-78989803D01*
X101192174Y-78966142D01*
X101191000Y-78942250D01*
X101191000Y-78029750D01*
X101192174Y-78005858D01*
X101195684Y-77982197D01*
X101201496Y-77958993D01*
X101209554Y-77936471D01*
X101219782Y-77914847D01*
X101232079Y-77894330D01*
X101246329Y-77875117D01*
X101262393Y-77857393D01*
X101280117Y-77841329D01*
X101299330Y-77827079D01*
X101319847Y-77814782D01*
X101341471Y-77804554D01*
X101363993Y-77796496D01*
X101387197Y-77790684D01*
X101410858Y-77787174D01*
X101434750Y-77786000D01*
X101922250Y-77786000D01*
X101946142Y-77787174D01*
X101946142Y-77787174D01*
G37*
D11*
X101678500Y-78486000D03*
D10*
G36*
X90359142Y-70421174D02*
G01*
X90382803Y-70424684D01*
X90406007Y-70430496D01*
X90428529Y-70438554D01*
X90450153Y-70448782D01*
X90470670Y-70461079D01*
X90489883Y-70475329D01*
X90507607Y-70491393D01*
X90523671Y-70509117D01*
X90537921Y-70528330D01*
X90550218Y-70548847D01*
X90560446Y-70570471D01*
X90568504Y-70592993D01*
X90574316Y-70616197D01*
X90577826Y-70639858D01*
X90579000Y-70663750D01*
X90579000Y-71576250D01*
X90577826Y-71600142D01*
X90574316Y-71623803D01*
X90568504Y-71647007D01*
X90560446Y-71669529D01*
X90550218Y-71691153D01*
X90537921Y-71711670D01*
X90523671Y-71730883D01*
X90507607Y-71748607D01*
X90489883Y-71764671D01*
X90470670Y-71778921D01*
X90450153Y-71791218D01*
X90428529Y-71801446D01*
X90406007Y-71809504D01*
X90382803Y-71815316D01*
X90359142Y-71818826D01*
X90335250Y-71820000D01*
X89847750Y-71820000D01*
X89823858Y-71818826D01*
X89800197Y-71815316D01*
X89776993Y-71809504D01*
X89754471Y-71801446D01*
X89732847Y-71791218D01*
X89712330Y-71778921D01*
X89693117Y-71764671D01*
X89675393Y-71748607D01*
X89659329Y-71730883D01*
X89645079Y-71711670D01*
X89632782Y-71691153D01*
X89622554Y-71669529D01*
X89614496Y-71647007D01*
X89608684Y-71623803D01*
X89605174Y-71600142D01*
X89604000Y-71576250D01*
X89604000Y-70663750D01*
X89605174Y-70639858D01*
X89608684Y-70616197D01*
X89614496Y-70592993D01*
X89622554Y-70570471D01*
X89632782Y-70548847D01*
X89645079Y-70528330D01*
X89659329Y-70509117D01*
X89675393Y-70491393D01*
X89693117Y-70475329D01*
X89712330Y-70461079D01*
X89732847Y-70448782D01*
X89754471Y-70438554D01*
X89776993Y-70430496D01*
X89800197Y-70424684D01*
X89823858Y-70421174D01*
X89847750Y-70420000D01*
X90335250Y-70420000D01*
X90359142Y-70421174D01*
X90359142Y-70421174D01*
G37*
D11*
X90091500Y-71120000D03*
D10*
G36*
X88484142Y-70421174D02*
G01*
X88507803Y-70424684D01*
X88531007Y-70430496D01*
X88553529Y-70438554D01*
X88575153Y-70448782D01*
X88595670Y-70461079D01*
X88614883Y-70475329D01*
X88632607Y-70491393D01*
X88648671Y-70509117D01*
X88662921Y-70528330D01*
X88675218Y-70548847D01*
X88685446Y-70570471D01*
X88693504Y-70592993D01*
X88699316Y-70616197D01*
X88702826Y-70639858D01*
X88704000Y-70663750D01*
X88704000Y-71576250D01*
X88702826Y-71600142D01*
X88699316Y-71623803D01*
X88693504Y-71647007D01*
X88685446Y-71669529D01*
X88675218Y-71691153D01*
X88662921Y-71711670D01*
X88648671Y-71730883D01*
X88632607Y-71748607D01*
X88614883Y-71764671D01*
X88595670Y-71778921D01*
X88575153Y-71791218D01*
X88553529Y-71801446D01*
X88531007Y-71809504D01*
X88507803Y-71815316D01*
X88484142Y-71818826D01*
X88460250Y-71820000D01*
X87972750Y-71820000D01*
X87948858Y-71818826D01*
X87925197Y-71815316D01*
X87901993Y-71809504D01*
X87879471Y-71801446D01*
X87857847Y-71791218D01*
X87837330Y-71778921D01*
X87818117Y-71764671D01*
X87800393Y-71748607D01*
X87784329Y-71730883D01*
X87770079Y-71711670D01*
X87757782Y-71691153D01*
X87747554Y-71669529D01*
X87739496Y-71647007D01*
X87733684Y-71623803D01*
X87730174Y-71600142D01*
X87729000Y-71576250D01*
X87729000Y-70663750D01*
X87730174Y-70639858D01*
X87733684Y-70616197D01*
X87739496Y-70592993D01*
X87747554Y-70570471D01*
X87757782Y-70548847D01*
X87770079Y-70528330D01*
X87784329Y-70509117D01*
X87800393Y-70491393D01*
X87818117Y-70475329D01*
X87837330Y-70461079D01*
X87857847Y-70448782D01*
X87879471Y-70438554D01*
X87901993Y-70430496D01*
X87925197Y-70424684D01*
X87948858Y-70421174D01*
X87972750Y-70420000D01*
X88460250Y-70420000D01*
X88484142Y-70421174D01*
X88484142Y-70421174D01*
G37*
D11*
X88216500Y-71120000D03*
D10*
G36*
X95850142Y-79565174D02*
G01*
X95873803Y-79568684D01*
X95897007Y-79574496D01*
X95919529Y-79582554D01*
X95941153Y-79592782D01*
X95961670Y-79605079D01*
X95980883Y-79619329D01*
X95998607Y-79635393D01*
X96014671Y-79653117D01*
X96028921Y-79672330D01*
X96041218Y-79692847D01*
X96051446Y-79714471D01*
X96059504Y-79736993D01*
X96065316Y-79760197D01*
X96068826Y-79783858D01*
X96070000Y-79807750D01*
X96070000Y-80720250D01*
X96068826Y-80744142D01*
X96065316Y-80767803D01*
X96059504Y-80791007D01*
X96051446Y-80813529D01*
X96041218Y-80835153D01*
X96028921Y-80855670D01*
X96014671Y-80874883D01*
X95998607Y-80892607D01*
X95980883Y-80908671D01*
X95961670Y-80922921D01*
X95941153Y-80935218D01*
X95919529Y-80945446D01*
X95897007Y-80953504D01*
X95873803Y-80959316D01*
X95850142Y-80962826D01*
X95826250Y-80964000D01*
X95338750Y-80964000D01*
X95314858Y-80962826D01*
X95291197Y-80959316D01*
X95267993Y-80953504D01*
X95245471Y-80945446D01*
X95223847Y-80935218D01*
X95203330Y-80922921D01*
X95184117Y-80908671D01*
X95166393Y-80892607D01*
X95150329Y-80874883D01*
X95136079Y-80855670D01*
X95123782Y-80835153D01*
X95113554Y-80813529D01*
X95105496Y-80791007D01*
X95099684Y-80767803D01*
X95096174Y-80744142D01*
X95095000Y-80720250D01*
X95095000Y-79807750D01*
X95096174Y-79783858D01*
X95099684Y-79760197D01*
X95105496Y-79736993D01*
X95113554Y-79714471D01*
X95123782Y-79692847D01*
X95136079Y-79672330D01*
X95150329Y-79653117D01*
X95166393Y-79635393D01*
X95184117Y-79619329D01*
X95203330Y-79605079D01*
X95223847Y-79592782D01*
X95245471Y-79582554D01*
X95267993Y-79574496D01*
X95291197Y-79568684D01*
X95314858Y-79565174D01*
X95338750Y-79564000D01*
X95826250Y-79564000D01*
X95850142Y-79565174D01*
X95850142Y-79565174D01*
G37*
D11*
X95582500Y-80264000D03*
D10*
G36*
X97725142Y-79565174D02*
G01*
X97748803Y-79568684D01*
X97772007Y-79574496D01*
X97794529Y-79582554D01*
X97816153Y-79592782D01*
X97836670Y-79605079D01*
X97855883Y-79619329D01*
X97873607Y-79635393D01*
X97889671Y-79653117D01*
X97903921Y-79672330D01*
X97916218Y-79692847D01*
X97926446Y-79714471D01*
X97934504Y-79736993D01*
X97940316Y-79760197D01*
X97943826Y-79783858D01*
X97945000Y-79807750D01*
X97945000Y-80720250D01*
X97943826Y-80744142D01*
X97940316Y-80767803D01*
X97934504Y-80791007D01*
X97926446Y-80813529D01*
X97916218Y-80835153D01*
X97903921Y-80855670D01*
X97889671Y-80874883D01*
X97873607Y-80892607D01*
X97855883Y-80908671D01*
X97836670Y-80922921D01*
X97816153Y-80935218D01*
X97794529Y-80945446D01*
X97772007Y-80953504D01*
X97748803Y-80959316D01*
X97725142Y-80962826D01*
X97701250Y-80964000D01*
X97213750Y-80964000D01*
X97189858Y-80962826D01*
X97166197Y-80959316D01*
X97142993Y-80953504D01*
X97120471Y-80945446D01*
X97098847Y-80935218D01*
X97078330Y-80922921D01*
X97059117Y-80908671D01*
X97041393Y-80892607D01*
X97025329Y-80874883D01*
X97011079Y-80855670D01*
X96998782Y-80835153D01*
X96988554Y-80813529D01*
X96980496Y-80791007D01*
X96974684Y-80767803D01*
X96971174Y-80744142D01*
X96970000Y-80720250D01*
X96970000Y-79807750D01*
X96971174Y-79783858D01*
X96974684Y-79760197D01*
X96980496Y-79736993D01*
X96988554Y-79714471D01*
X96998782Y-79692847D01*
X97011079Y-79672330D01*
X97025329Y-79653117D01*
X97041393Y-79635393D01*
X97059117Y-79619329D01*
X97078330Y-79605079D01*
X97098847Y-79592782D01*
X97120471Y-79582554D01*
X97142993Y-79574496D01*
X97166197Y-79568684D01*
X97189858Y-79565174D01*
X97213750Y-79564000D01*
X97701250Y-79564000D01*
X97725142Y-79565174D01*
X97725142Y-79565174D01*
G37*
D11*
X97457500Y-80264000D03*
D10*
G36*
X97725142Y-82867174D02*
G01*
X97748803Y-82870684D01*
X97772007Y-82876496D01*
X97794529Y-82884554D01*
X97816153Y-82894782D01*
X97836670Y-82907079D01*
X97855883Y-82921329D01*
X97873607Y-82937393D01*
X97889671Y-82955117D01*
X97903921Y-82974330D01*
X97916218Y-82994847D01*
X97926446Y-83016471D01*
X97934504Y-83038993D01*
X97940316Y-83062197D01*
X97943826Y-83085858D01*
X97945000Y-83109750D01*
X97945000Y-84022250D01*
X97943826Y-84046142D01*
X97940316Y-84069803D01*
X97934504Y-84093007D01*
X97926446Y-84115529D01*
X97916218Y-84137153D01*
X97903921Y-84157670D01*
X97889671Y-84176883D01*
X97873607Y-84194607D01*
X97855883Y-84210671D01*
X97836670Y-84224921D01*
X97816153Y-84237218D01*
X97794529Y-84247446D01*
X97772007Y-84255504D01*
X97748803Y-84261316D01*
X97725142Y-84264826D01*
X97701250Y-84266000D01*
X97213750Y-84266000D01*
X97189858Y-84264826D01*
X97166197Y-84261316D01*
X97142993Y-84255504D01*
X97120471Y-84247446D01*
X97098847Y-84237218D01*
X97078330Y-84224921D01*
X97059117Y-84210671D01*
X97041393Y-84194607D01*
X97025329Y-84176883D01*
X97011079Y-84157670D01*
X96998782Y-84137153D01*
X96988554Y-84115529D01*
X96980496Y-84093007D01*
X96974684Y-84069803D01*
X96971174Y-84046142D01*
X96970000Y-84022250D01*
X96970000Y-83109750D01*
X96971174Y-83085858D01*
X96974684Y-83062197D01*
X96980496Y-83038993D01*
X96988554Y-83016471D01*
X96998782Y-82994847D01*
X97011079Y-82974330D01*
X97025329Y-82955117D01*
X97041393Y-82937393D01*
X97059117Y-82921329D01*
X97078330Y-82907079D01*
X97098847Y-82894782D01*
X97120471Y-82884554D01*
X97142993Y-82876496D01*
X97166197Y-82870684D01*
X97189858Y-82867174D01*
X97213750Y-82866000D01*
X97701250Y-82866000D01*
X97725142Y-82867174D01*
X97725142Y-82867174D01*
G37*
D11*
X97457500Y-83566000D03*
D10*
G36*
X95850142Y-82867174D02*
G01*
X95873803Y-82870684D01*
X95897007Y-82876496D01*
X95919529Y-82884554D01*
X95941153Y-82894782D01*
X95961670Y-82907079D01*
X95980883Y-82921329D01*
X95998607Y-82937393D01*
X96014671Y-82955117D01*
X96028921Y-82974330D01*
X96041218Y-82994847D01*
X96051446Y-83016471D01*
X96059504Y-83038993D01*
X96065316Y-83062197D01*
X96068826Y-83085858D01*
X96070000Y-83109750D01*
X96070000Y-84022250D01*
X96068826Y-84046142D01*
X96065316Y-84069803D01*
X96059504Y-84093007D01*
X96051446Y-84115529D01*
X96041218Y-84137153D01*
X96028921Y-84157670D01*
X96014671Y-84176883D01*
X95998607Y-84194607D01*
X95980883Y-84210671D01*
X95961670Y-84224921D01*
X95941153Y-84237218D01*
X95919529Y-84247446D01*
X95897007Y-84255504D01*
X95873803Y-84261316D01*
X95850142Y-84264826D01*
X95826250Y-84266000D01*
X95338750Y-84266000D01*
X95314858Y-84264826D01*
X95291197Y-84261316D01*
X95267993Y-84255504D01*
X95245471Y-84247446D01*
X95223847Y-84237218D01*
X95203330Y-84224921D01*
X95184117Y-84210671D01*
X95166393Y-84194607D01*
X95150329Y-84176883D01*
X95136079Y-84157670D01*
X95123782Y-84137153D01*
X95113554Y-84115529D01*
X95105496Y-84093007D01*
X95099684Y-84069803D01*
X95096174Y-84046142D01*
X95095000Y-84022250D01*
X95095000Y-83109750D01*
X95096174Y-83085858D01*
X95099684Y-83062197D01*
X95105496Y-83038993D01*
X95113554Y-83016471D01*
X95123782Y-82994847D01*
X95136079Y-82974330D01*
X95150329Y-82955117D01*
X95166393Y-82937393D01*
X95184117Y-82921329D01*
X95203330Y-82907079D01*
X95223847Y-82894782D01*
X95245471Y-82884554D01*
X95267993Y-82876496D01*
X95291197Y-82870684D01*
X95314858Y-82867174D01*
X95338750Y-82866000D01*
X95826250Y-82866000D01*
X95850142Y-82867174D01*
X95850142Y-82867174D01*
G37*
D11*
X95582500Y-83566000D03*
D10*
G36*
X88230142Y-94551174D02*
G01*
X88253803Y-94554684D01*
X88277007Y-94560496D01*
X88299529Y-94568554D01*
X88321153Y-94578782D01*
X88341670Y-94591079D01*
X88360883Y-94605329D01*
X88378607Y-94621393D01*
X88394671Y-94639117D01*
X88408921Y-94658330D01*
X88421218Y-94678847D01*
X88431446Y-94700471D01*
X88439504Y-94722993D01*
X88445316Y-94746197D01*
X88448826Y-94769858D01*
X88450000Y-94793750D01*
X88450000Y-95706250D01*
X88448826Y-95730142D01*
X88445316Y-95753803D01*
X88439504Y-95777007D01*
X88431446Y-95799529D01*
X88421218Y-95821153D01*
X88408921Y-95841670D01*
X88394671Y-95860883D01*
X88378607Y-95878607D01*
X88360883Y-95894671D01*
X88341670Y-95908921D01*
X88321153Y-95921218D01*
X88299529Y-95931446D01*
X88277007Y-95939504D01*
X88253803Y-95945316D01*
X88230142Y-95948826D01*
X88206250Y-95950000D01*
X87718750Y-95950000D01*
X87694858Y-95948826D01*
X87671197Y-95945316D01*
X87647993Y-95939504D01*
X87625471Y-95931446D01*
X87603847Y-95921218D01*
X87583330Y-95908921D01*
X87564117Y-95894671D01*
X87546393Y-95878607D01*
X87530329Y-95860883D01*
X87516079Y-95841670D01*
X87503782Y-95821153D01*
X87493554Y-95799529D01*
X87485496Y-95777007D01*
X87479684Y-95753803D01*
X87476174Y-95730142D01*
X87475000Y-95706250D01*
X87475000Y-94793750D01*
X87476174Y-94769858D01*
X87479684Y-94746197D01*
X87485496Y-94722993D01*
X87493554Y-94700471D01*
X87503782Y-94678847D01*
X87516079Y-94658330D01*
X87530329Y-94639117D01*
X87546393Y-94621393D01*
X87564117Y-94605329D01*
X87583330Y-94591079D01*
X87603847Y-94578782D01*
X87625471Y-94568554D01*
X87647993Y-94560496D01*
X87671197Y-94554684D01*
X87694858Y-94551174D01*
X87718750Y-94550000D01*
X88206250Y-94550000D01*
X88230142Y-94551174D01*
X88230142Y-94551174D01*
G37*
D11*
X87962500Y-95250000D03*
D10*
G36*
X90105142Y-94551174D02*
G01*
X90128803Y-94554684D01*
X90152007Y-94560496D01*
X90174529Y-94568554D01*
X90196153Y-94578782D01*
X90216670Y-94591079D01*
X90235883Y-94605329D01*
X90253607Y-94621393D01*
X90269671Y-94639117D01*
X90283921Y-94658330D01*
X90296218Y-94678847D01*
X90306446Y-94700471D01*
X90314504Y-94722993D01*
X90320316Y-94746197D01*
X90323826Y-94769858D01*
X90325000Y-94793750D01*
X90325000Y-95706250D01*
X90323826Y-95730142D01*
X90320316Y-95753803D01*
X90314504Y-95777007D01*
X90306446Y-95799529D01*
X90296218Y-95821153D01*
X90283921Y-95841670D01*
X90269671Y-95860883D01*
X90253607Y-95878607D01*
X90235883Y-95894671D01*
X90216670Y-95908921D01*
X90196153Y-95921218D01*
X90174529Y-95931446D01*
X90152007Y-95939504D01*
X90128803Y-95945316D01*
X90105142Y-95948826D01*
X90081250Y-95950000D01*
X89593750Y-95950000D01*
X89569858Y-95948826D01*
X89546197Y-95945316D01*
X89522993Y-95939504D01*
X89500471Y-95931446D01*
X89478847Y-95921218D01*
X89458330Y-95908921D01*
X89439117Y-95894671D01*
X89421393Y-95878607D01*
X89405329Y-95860883D01*
X89391079Y-95841670D01*
X89378782Y-95821153D01*
X89368554Y-95799529D01*
X89360496Y-95777007D01*
X89354684Y-95753803D01*
X89351174Y-95730142D01*
X89350000Y-95706250D01*
X89350000Y-94793750D01*
X89351174Y-94769858D01*
X89354684Y-94746197D01*
X89360496Y-94722993D01*
X89368554Y-94700471D01*
X89378782Y-94678847D01*
X89391079Y-94658330D01*
X89405329Y-94639117D01*
X89421393Y-94621393D01*
X89439117Y-94605329D01*
X89458330Y-94591079D01*
X89478847Y-94578782D01*
X89500471Y-94568554D01*
X89522993Y-94560496D01*
X89546197Y-94554684D01*
X89569858Y-94551174D01*
X89593750Y-94550000D01*
X90081250Y-94550000D01*
X90105142Y-94551174D01*
X90105142Y-94551174D01*
G37*
D11*
X89837500Y-95250000D03*
D10*
G36*
X90105142Y-102933174D02*
G01*
X90128803Y-102936684D01*
X90152007Y-102942496D01*
X90174529Y-102950554D01*
X90196153Y-102960782D01*
X90216670Y-102973079D01*
X90235883Y-102987329D01*
X90253607Y-103003393D01*
X90269671Y-103021117D01*
X90283921Y-103040330D01*
X90296218Y-103060847D01*
X90306446Y-103082471D01*
X90314504Y-103104993D01*
X90320316Y-103128197D01*
X90323826Y-103151858D01*
X90325000Y-103175750D01*
X90325000Y-104088250D01*
X90323826Y-104112142D01*
X90320316Y-104135803D01*
X90314504Y-104159007D01*
X90306446Y-104181529D01*
X90296218Y-104203153D01*
X90283921Y-104223670D01*
X90269671Y-104242883D01*
X90253607Y-104260607D01*
X90235883Y-104276671D01*
X90216670Y-104290921D01*
X90196153Y-104303218D01*
X90174529Y-104313446D01*
X90152007Y-104321504D01*
X90128803Y-104327316D01*
X90105142Y-104330826D01*
X90081250Y-104332000D01*
X89593750Y-104332000D01*
X89569858Y-104330826D01*
X89546197Y-104327316D01*
X89522993Y-104321504D01*
X89500471Y-104313446D01*
X89478847Y-104303218D01*
X89458330Y-104290921D01*
X89439117Y-104276671D01*
X89421393Y-104260607D01*
X89405329Y-104242883D01*
X89391079Y-104223670D01*
X89378782Y-104203153D01*
X89368554Y-104181529D01*
X89360496Y-104159007D01*
X89354684Y-104135803D01*
X89351174Y-104112142D01*
X89350000Y-104088250D01*
X89350000Y-103175750D01*
X89351174Y-103151858D01*
X89354684Y-103128197D01*
X89360496Y-103104993D01*
X89368554Y-103082471D01*
X89378782Y-103060847D01*
X89391079Y-103040330D01*
X89405329Y-103021117D01*
X89421393Y-103003393D01*
X89439117Y-102987329D01*
X89458330Y-102973079D01*
X89478847Y-102960782D01*
X89500471Y-102950554D01*
X89522993Y-102942496D01*
X89546197Y-102936684D01*
X89569858Y-102933174D01*
X89593750Y-102932000D01*
X90081250Y-102932000D01*
X90105142Y-102933174D01*
X90105142Y-102933174D01*
G37*
D11*
X89837500Y-103632000D03*
D10*
G36*
X88230142Y-102933174D02*
G01*
X88253803Y-102936684D01*
X88277007Y-102942496D01*
X88299529Y-102950554D01*
X88321153Y-102960782D01*
X88341670Y-102973079D01*
X88360883Y-102987329D01*
X88378607Y-103003393D01*
X88394671Y-103021117D01*
X88408921Y-103040330D01*
X88421218Y-103060847D01*
X88431446Y-103082471D01*
X88439504Y-103104993D01*
X88445316Y-103128197D01*
X88448826Y-103151858D01*
X88450000Y-103175750D01*
X88450000Y-104088250D01*
X88448826Y-104112142D01*
X88445316Y-104135803D01*
X88439504Y-104159007D01*
X88431446Y-104181529D01*
X88421218Y-104203153D01*
X88408921Y-104223670D01*
X88394671Y-104242883D01*
X88378607Y-104260607D01*
X88360883Y-104276671D01*
X88341670Y-104290921D01*
X88321153Y-104303218D01*
X88299529Y-104313446D01*
X88277007Y-104321504D01*
X88253803Y-104327316D01*
X88230142Y-104330826D01*
X88206250Y-104332000D01*
X87718750Y-104332000D01*
X87694858Y-104330826D01*
X87671197Y-104327316D01*
X87647993Y-104321504D01*
X87625471Y-104313446D01*
X87603847Y-104303218D01*
X87583330Y-104290921D01*
X87564117Y-104276671D01*
X87546393Y-104260607D01*
X87530329Y-104242883D01*
X87516079Y-104223670D01*
X87503782Y-104203153D01*
X87493554Y-104181529D01*
X87485496Y-104159007D01*
X87479684Y-104135803D01*
X87476174Y-104112142D01*
X87475000Y-104088250D01*
X87475000Y-103175750D01*
X87476174Y-103151858D01*
X87479684Y-103128197D01*
X87485496Y-103104993D01*
X87493554Y-103082471D01*
X87503782Y-103060847D01*
X87516079Y-103040330D01*
X87530329Y-103021117D01*
X87546393Y-103003393D01*
X87564117Y-102987329D01*
X87583330Y-102973079D01*
X87603847Y-102960782D01*
X87625471Y-102950554D01*
X87647993Y-102942496D01*
X87671197Y-102936684D01*
X87694858Y-102933174D01*
X87718750Y-102932000D01*
X88206250Y-102932000D01*
X88230142Y-102933174D01*
X88230142Y-102933174D01*
G37*
D11*
X87962500Y-103632000D03*
D10*
G36*
X97254142Y-102208174D02*
G01*
X97277803Y-102211684D01*
X97301007Y-102217496D01*
X97323529Y-102225554D01*
X97345153Y-102235782D01*
X97365670Y-102248079D01*
X97384883Y-102262329D01*
X97402607Y-102278393D01*
X97418671Y-102296117D01*
X97432921Y-102315330D01*
X97445218Y-102335847D01*
X97455446Y-102357471D01*
X97463504Y-102379993D01*
X97469316Y-102403197D01*
X97472826Y-102426858D01*
X97474000Y-102450750D01*
X97474000Y-102938250D01*
X97472826Y-102962142D01*
X97469316Y-102985803D01*
X97463504Y-103009007D01*
X97455446Y-103031529D01*
X97445218Y-103053153D01*
X97432921Y-103073670D01*
X97418671Y-103092883D01*
X97402607Y-103110607D01*
X97384883Y-103126671D01*
X97365670Y-103140921D01*
X97345153Y-103153218D01*
X97323529Y-103163446D01*
X97301007Y-103171504D01*
X97277803Y-103177316D01*
X97254142Y-103180826D01*
X97230250Y-103182000D01*
X96317750Y-103182000D01*
X96293858Y-103180826D01*
X96270197Y-103177316D01*
X96246993Y-103171504D01*
X96224471Y-103163446D01*
X96202847Y-103153218D01*
X96182330Y-103140921D01*
X96163117Y-103126671D01*
X96145393Y-103110607D01*
X96129329Y-103092883D01*
X96115079Y-103073670D01*
X96102782Y-103053153D01*
X96092554Y-103031529D01*
X96084496Y-103009007D01*
X96078684Y-102985803D01*
X96075174Y-102962142D01*
X96074000Y-102938250D01*
X96074000Y-102450750D01*
X96075174Y-102426858D01*
X96078684Y-102403197D01*
X96084496Y-102379993D01*
X96092554Y-102357471D01*
X96102782Y-102335847D01*
X96115079Y-102315330D01*
X96129329Y-102296117D01*
X96145393Y-102278393D01*
X96163117Y-102262329D01*
X96182330Y-102248079D01*
X96202847Y-102235782D01*
X96224471Y-102225554D01*
X96246993Y-102217496D01*
X96270197Y-102211684D01*
X96293858Y-102208174D01*
X96317750Y-102207000D01*
X97230250Y-102207000D01*
X97254142Y-102208174D01*
X97254142Y-102208174D01*
G37*
D11*
X96774000Y-102694500D03*
D10*
G36*
X97254142Y-104083174D02*
G01*
X97277803Y-104086684D01*
X97301007Y-104092496D01*
X97323529Y-104100554D01*
X97345153Y-104110782D01*
X97365670Y-104123079D01*
X97384883Y-104137329D01*
X97402607Y-104153393D01*
X97418671Y-104171117D01*
X97432921Y-104190330D01*
X97445218Y-104210847D01*
X97455446Y-104232471D01*
X97463504Y-104254993D01*
X97469316Y-104278197D01*
X97472826Y-104301858D01*
X97474000Y-104325750D01*
X97474000Y-104813250D01*
X97472826Y-104837142D01*
X97469316Y-104860803D01*
X97463504Y-104884007D01*
X97455446Y-104906529D01*
X97445218Y-104928153D01*
X97432921Y-104948670D01*
X97418671Y-104967883D01*
X97402607Y-104985607D01*
X97384883Y-105001671D01*
X97365670Y-105015921D01*
X97345153Y-105028218D01*
X97323529Y-105038446D01*
X97301007Y-105046504D01*
X97277803Y-105052316D01*
X97254142Y-105055826D01*
X97230250Y-105057000D01*
X96317750Y-105057000D01*
X96293858Y-105055826D01*
X96270197Y-105052316D01*
X96246993Y-105046504D01*
X96224471Y-105038446D01*
X96202847Y-105028218D01*
X96182330Y-105015921D01*
X96163117Y-105001671D01*
X96145393Y-104985607D01*
X96129329Y-104967883D01*
X96115079Y-104948670D01*
X96102782Y-104928153D01*
X96092554Y-104906529D01*
X96084496Y-104884007D01*
X96078684Y-104860803D01*
X96075174Y-104837142D01*
X96074000Y-104813250D01*
X96074000Y-104325750D01*
X96075174Y-104301858D01*
X96078684Y-104278197D01*
X96084496Y-104254993D01*
X96092554Y-104232471D01*
X96102782Y-104210847D01*
X96115079Y-104190330D01*
X96129329Y-104171117D01*
X96145393Y-104153393D01*
X96163117Y-104137329D01*
X96182330Y-104123079D01*
X96202847Y-104110782D01*
X96224471Y-104100554D01*
X96246993Y-104092496D01*
X96270197Y-104086684D01*
X96293858Y-104083174D01*
X96317750Y-104082000D01*
X97230250Y-104082000D01*
X97254142Y-104083174D01*
X97254142Y-104083174D01*
G37*
D11*
X96774000Y-104569500D03*
D10*
G36*
X101946142Y-118173174D02*
G01*
X101969803Y-118176684D01*
X101993007Y-118182496D01*
X102015529Y-118190554D01*
X102037153Y-118200782D01*
X102057670Y-118213079D01*
X102076883Y-118227329D01*
X102094607Y-118243393D01*
X102110671Y-118261117D01*
X102124921Y-118280330D01*
X102137218Y-118300847D01*
X102147446Y-118322471D01*
X102155504Y-118344993D01*
X102161316Y-118368197D01*
X102164826Y-118391858D01*
X102166000Y-118415750D01*
X102166000Y-119328250D01*
X102164826Y-119352142D01*
X102161316Y-119375803D01*
X102155504Y-119399007D01*
X102147446Y-119421529D01*
X102137218Y-119443153D01*
X102124921Y-119463670D01*
X102110671Y-119482883D01*
X102094607Y-119500607D01*
X102076883Y-119516671D01*
X102057670Y-119530921D01*
X102037153Y-119543218D01*
X102015529Y-119553446D01*
X101993007Y-119561504D01*
X101969803Y-119567316D01*
X101946142Y-119570826D01*
X101922250Y-119572000D01*
X101434750Y-119572000D01*
X101410858Y-119570826D01*
X101387197Y-119567316D01*
X101363993Y-119561504D01*
X101341471Y-119553446D01*
X101319847Y-119543218D01*
X101299330Y-119530921D01*
X101280117Y-119516671D01*
X101262393Y-119500607D01*
X101246329Y-119482883D01*
X101232079Y-119463670D01*
X101219782Y-119443153D01*
X101209554Y-119421529D01*
X101201496Y-119399007D01*
X101195684Y-119375803D01*
X101192174Y-119352142D01*
X101191000Y-119328250D01*
X101191000Y-118415750D01*
X101192174Y-118391858D01*
X101195684Y-118368197D01*
X101201496Y-118344993D01*
X101209554Y-118322471D01*
X101219782Y-118300847D01*
X101232079Y-118280330D01*
X101246329Y-118261117D01*
X101262393Y-118243393D01*
X101280117Y-118227329D01*
X101299330Y-118213079D01*
X101319847Y-118200782D01*
X101341471Y-118190554D01*
X101363993Y-118182496D01*
X101387197Y-118176684D01*
X101410858Y-118173174D01*
X101434750Y-118172000D01*
X101922250Y-118172000D01*
X101946142Y-118173174D01*
X101946142Y-118173174D01*
G37*
D11*
X101678500Y-118872000D03*
D10*
G36*
X103821142Y-118173174D02*
G01*
X103844803Y-118176684D01*
X103868007Y-118182496D01*
X103890529Y-118190554D01*
X103912153Y-118200782D01*
X103932670Y-118213079D01*
X103951883Y-118227329D01*
X103969607Y-118243393D01*
X103985671Y-118261117D01*
X103999921Y-118280330D01*
X104012218Y-118300847D01*
X104022446Y-118322471D01*
X104030504Y-118344993D01*
X104036316Y-118368197D01*
X104039826Y-118391858D01*
X104041000Y-118415750D01*
X104041000Y-119328250D01*
X104039826Y-119352142D01*
X104036316Y-119375803D01*
X104030504Y-119399007D01*
X104022446Y-119421529D01*
X104012218Y-119443153D01*
X103999921Y-119463670D01*
X103985671Y-119482883D01*
X103969607Y-119500607D01*
X103951883Y-119516671D01*
X103932670Y-119530921D01*
X103912153Y-119543218D01*
X103890529Y-119553446D01*
X103868007Y-119561504D01*
X103844803Y-119567316D01*
X103821142Y-119570826D01*
X103797250Y-119572000D01*
X103309750Y-119572000D01*
X103285858Y-119570826D01*
X103262197Y-119567316D01*
X103238993Y-119561504D01*
X103216471Y-119553446D01*
X103194847Y-119543218D01*
X103174330Y-119530921D01*
X103155117Y-119516671D01*
X103137393Y-119500607D01*
X103121329Y-119482883D01*
X103107079Y-119463670D01*
X103094782Y-119443153D01*
X103084554Y-119421529D01*
X103076496Y-119399007D01*
X103070684Y-119375803D01*
X103067174Y-119352142D01*
X103066000Y-119328250D01*
X103066000Y-118415750D01*
X103067174Y-118391858D01*
X103070684Y-118368197D01*
X103076496Y-118344993D01*
X103084554Y-118322471D01*
X103094782Y-118300847D01*
X103107079Y-118280330D01*
X103121329Y-118261117D01*
X103137393Y-118243393D01*
X103155117Y-118227329D01*
X103174330Y-118213079D01*
X103194847Y-118200782D01*
X103216471Y-118190554D01*
X103238993Y-118182496D01*
X103262197Y-118176684D01*
X103285858Y-118173174D01*
X103309750Y-118172000D01*
X103797250Y-118172000D01*
X103821142Y-118173174D01*
X103821142Y-118173174D01*
G37*
D11*
X103553500Y-118872000D03*
D10*
G36*
X95342142Y-118427174D02*
G01*
X95365803Y-118430684D01*
X95389007Y-118436496D01*
X95411529Y-118444554D01*
X95433153Y-118454782D01*
X95453670Y-118467079D01*
X95472883Y-118481329D01*
X95490607Y-118497393D01*
X95506671Y-118515117D01*
X95520921Y-118534330D01*
X95533218Y-118554847D01*
X95543446Y-118576471D01*
X95551504Y-118598993D01*
X95557316Y-118622197D01*
X95560826Y-118645858D01*
X95562000Y-118669750D01*
X95562000Y-119582250D01*
X95560826Y-119606142D01*
X95557316Y-119629803D01*
X95551504Y-119653007D01*
X95543446Y-119675529D01*
X95533218Y-119697153D01*
X95520921Y-119717670D01*
X95506671Y-119736883D01*
X95490607Y-119754607D01*
X95472883Y-119770671D01*
X95453670Y-119784921D01*
X95433153Y-119797218D01*
X95411529Y-119807446D01*
X95389007Y-119815504D01*
X95365803Y-119821316D01*
X95342142Y-119824826D01*
X95318250Y-119826000D01*
X94830750Y-119826000D01*
X94806858Y-119824826D01*
X94783197Y-119821316D01*
X94759993Y-119815504D01*
X94737471Y-119807446D01*
X94715847Y-119797218D01*
X94695330Y-119784921D01*
X94676117Y-119770671D01*
X94658393Y-119754607D01*
X94642329Y-119736883D01*
X94628079Y-119717670D01*
X94615782Y-119697153D01*
X94605554Y-119675529D01*
X94597496Y-119653007D01*
X94591684Y-119629803D01*
X94588174Y-119606142D01*
X94587000Y-119582250D01*
X94587000Y-118669750D01*
X94588174Y-118645858D01*
X94591684Y-118622197D01*
X94597496Y-118598993D01*
X94605554Y-118576471D01*
X94615782Y-118554847D01*
X94628079Y-118534330D01*
X94642329Y-118515117D01*
X94658393Y-118497393D01*
X94676117Y-118481329D01*
X94695330Y-118467079D01*
X94715847Y-118454782D01*
X94737471Y-118444554D01*
X94759993Y-118436496D01*
X94783197Y-118430684D01*
X94806858Y-118427174D01*
X94830750Y-118426000D01*
X95318250Y-118426000D01*
X95342142Y-118427174D01*
X95342142Y-118427174D01*
G37*
D11*
X95074500Y-119126000D03*
D10*
G36*
X97217142Y-118427174D02*
G01*
X97240803Y-118430684D01*
X97264007Y-118436496D01*
X97286529Y-118444554D01*
X97308153Y-118454782D01*
X97328670Y-118467079D01*
X97347883Y-118481329D01*
X97365607Y-118497393D01*
X97381671Y-118515117D01*
X97395921Y-118534330D01*
X97408218Y-118554847D01*
X97418446Y-118576471D01*
X97426504Y-118598993D01*
X97432316Y-118622197D01*
X97435826Y-118645858D01*
X97437000Y-118669750D01*
X97437000Y-119582250D01*
X97435826Y-119606142D01*
X97432316Y-119629803D01*
X97426504Y-119653007D01*
X97418446Y-119675529D01*
X97408218Y-119697153D01*
X97395921Y-119717670D01*
X97381671Y-119736883D01*
X97365607Y-119754607D01*
X97347883Y-119770671D01*
X97328670Y-119784921D01*
X97308153Y-119797218D01*
X97286529Y-119807446D01*
X97264007Y-119815504D01*
X97240803Y-119821316D01*
X97217142Y-119824826D01*
X97193250Y-119826000D01*
X96705750Y-119826000D01*
X96681858Y-119824826D01*
X96658197Y-119821316D01*
X96634993Y-119815504D01*
X96612471Y-119807446D01*
X96590847Y-119797218D01*
X96570330Y-119784921D01*
X96551117Y-119770671D01*
X96533393Y-119754607D01*
X96517329Y-119736883D01*
X96503079Y-119717670D01*
X96490782Y-119697153D01*
X96480554Y-119675529D01*
X96472496Y-119653007D01*
X96466684Y-119629803D01*
X96463174Y-119606142D01*
X96462000Y-119582250D01*
X96462000Y-118669750D01*
X96463174Y-118645858D01*
X96466684Y-118622197D01*
X96472496Y-118598993D01*
X96480554Y-118576471D01*
X96490782Y-118554847D01*
X96503079Y-118534330D01*
X96517329Y-118515117D01*
X96533393Y-118497393D01*
X96551117Y-118481329D01*
X96570330Y-118467079D01*
X96590847Y-118454782D01*
X96612471Y-118444554D01*
X96634993Y-118436496D01*
X96658197Y-118430684D01*
X96681858Y-118427174D01*
X96705750Y-118426000D01*
X97193250Y-118426000D01*
X97217142Y-118427174D01*
X97217142Y-118427174D01*
G37*
D11*
X96949500Y-119126000D03*
D10*
G36*
X95342142Y-121729174D02*
G01*
X95365803Y-121732684D01*
X95389007Y-121738496D01*
X95411529Y-121746554D01*
X95433153Y-121756782D01*
X95453670Y-121769079D01*
X95472883Y-121783329D01*
X95490607Y-121799393D01*
X95506671Y-121817117D01*
X95520921Y-121836330D01*
X95533218Y-121856847D01*
X95543446Y-121878471D01*
X95551504Y-121900993D01*
X95557316Y-121924197D01*
X95560826Y-121947858D01*
X95562000Y-121971750D01*
X95562000Y-122884250D01*
X95560826Y-122908142D01*
X95557316Y-122931803D01*
X95551504Y-122955007D01*
X95543446Y-122977529D01*
X95533218Y-122999153D01*
X95520921Y-123019670D01*
X95506671Y-123038883D01*
X95490607Y-123056607D01*
X95472883Y-123072671D01*
X95453670Y-123086921D01*
X95433153Y-123099218D01*
X95411529Y-123109446D01*
X95389007Y-123117504D01*
X95365803Y-123123316D01*
X95342142Y-123126826D01*
X95318250Y-123128000D01*
X94830750Y-123128000D01*
X94806858Y-123126826D01*
X94783197Y-123123316D01*
X94759993Y-123117504D01*
X94737471Y-123109446D01*
X94715847Y-123099218D01*
X94695330Y-123086921D01*
X94676117Y-123072671D01*
X94658393Y-123056607D01*
X94642329Y-123038883D01*
X94628079Y-123019670D01*
X94615782Y-122999153D01*
X94605554Y-122977529D01*
X94597496Y-122955007D01*
X94591684Y-122931803D01*
X94588174Y-122908142D01*
X94587000Y-122884250D01*
X94587000Y-121971750D01*
X94588174Y-121947858D01*
X94591684Y-121924197D01*
X94597496Y-121900993D01*
X94605554Y-121878471D01*
X94615782Y-121856847D01*
X94628079Y-121836330D01*
X94642329Y-121817117D01*
X94658393Y-121799393D01*
X94676117Y-121783329D01*
X94695330Y-121769079D01*
X94715847Y-121756782D01*
X94737471Y-121746554D01*
X94759993Y-121738496D01*
X94783197Y-121732684D01*
X94806858Y-121729174D01*
X94830750Y-121728000D01*
X95318250Y-121728000D01*
X95342142Y-121729174D01*
X95342142Y-121729174D01*
G37*
D11*
X95074500Y-122428000D03*
D10*
G36*
X97217142Y-121729174D02*
G01*
X97240803Y-121732684D01*
X97264007Y-121738496D01*
X97286529Y-121746554D01*
X97308153Y-121756782D01*
X97328670Y-121769079D01*
X97347883Y-121783329D01*
X97365607Y-121799393D01*
X97381671Y-121817117D01*
X97395921Y-121836330D01*
X97408218Y-121856847D01*
X97418446Y-121878471D01*
X97426504Y-121900993D01*
X97432316Y-121924197D01*
X97435826Y-121947858D01*
X97437000Y-121971750D01*
X97437000Y-122884250D01*
X97435826Y-122908142D01*
X97432316Y-122931803D01*
X97426504Y-122955007D01*
X97418446Y-122977529D01*
X97408218Y-122999153D01*
X97395921Y-123019670D01*
X97381671Y-123038883D01*
X97365607Y-123056607D01*
X97347883Y-123072671D01*
X97328670Y-123086921D01*
X97308153Y-123099218D01*
X97286529Y-123109446D01*
X97264007Y-123117504D01*
X97240803Y-123123316D01*
X97217142Y-123126826D01*
X97193250Y-123128000D01*
X96705750Y-123128000D01*
X96681858Y-123126826D01*
X96658197Y-123123316D01*
X96634993Y-123117504D01*
X96612471Y-123109446D01*
X96590847Y-123099218D01*
X96570330Y-123086921D01*
X96551117Y-123072671D01*
X96533393Y-123056607D01*
X96517329Y-123038883D01*
X96503079Y-123019670D01*
X96490782Y-122999153D01*
X96480554Y-122977529D01*
X96472496Y-122955007D01*
X96466684Y-122931803D01*
X96463174Y-122908142D01*
X96462000Y-122884250D01*
X96462000Y-121971750D01*
X96463174Y-121947858D01*
X96466684Y-121924197D01*
X96472496Y-121900993D01*
X96480554Y-121878471D01*
X96490782Y-121856847D01*
X96503079Y-121836330D01*
X96517329Y-121817117D01*
X96533393Y-121799393D01*
X96551117Y-121783329D01*
X96570330Y-121769079D01*
X96590847Y-121756782D01*
X96612471Y-121746554D01*
X96634993Y-121738496D01*
X96658197Y-121732684D01*
X96681858Y-121729174D01*
X96705750Y-121728000D01*
X97193250Y-121728000D01*
X97217142Y-121729174D01*
X97217142Y-121729174D01*
G37*
D11*
X96949500Y-122428000D03*
D10*
G36*
X103821142Y-113601174D02*
G01*
X103844803Y-113604684D01*
X103868007Y-113610496D01*
X103890529Y-113618554D01*
X103912153Y-113628782D01*
X103932670Y-113641079D01*
X103951883Y-113655329D01*
X103969607Y-113671393D01*
X103985671Y-113689117D01*
X103999921Y-113708330D01*
X104012218Y-113728847D01*
X104022446Y-113750471D01*
X104030504Y-113772993D01*
X104036316Y-113796197D01*
X104039826Y-113819858D01*
X104041000Y-113843750D01*
X104041000Y-114756250D01*
X104039826Y-114780142D01*
X104036316Y-114803803D01*
X104030504Y-114827007D01*
X104022446Y-114849529D01*
X104012218Y-114871153D01*
X103999921Y-114891670D01*
X103985671Y-114910883D01*
X103969607Y-114928607D01*
X103951883Y-114944671D01*
X103932670Y-114958921D01*
X103912153Y-114971218D01*
X103890529Y-114981446D01*
X103868007Y-114989504D01*
X103844803Y-114995316D01*
X103821142Y-114998826D01*
X103797250Y-115000000D01*
X103309750Y-115000000D01*
X103285858Y-114998826D01*
X103262197Y-114995316D01*
X103238993Y-114989504D01*
X103216471Y-114981446D01*
X103194847Y-114971218D01*
X103174330Y-114958921D01*
X103155117Y-114944671D01*
X103137393Y-114928607D01*
X103121329Y-114910883D01*
X103107079Y-114891670D01*
X103094782Y-114871153D01*
X103084554Y-114849529D01*
X103076496Y-114827007D01*
X103070684Y-114803803D01*
X103067174Y-114780142D01*
X103066000Y-114756250D01*
X103066000Y-113843750D01*
X103067174Y-113819858D01*
X103070684Y-113796197D01*
X103076496Y-113772993D01*
X103084554Y-113750471D01*
X103094782Y-113728847D01*
X103107079Y-113708330D01*
X103121329Y-113689117D01*
X103137393Y-113671393D01*
X103155117Y-113655329D01*
X103174330Y-113641079D01*
X103194847Y-113628782D01*
X103216471Y-113618554D01*
X103238993Y-113610496D01*
X103262197Y-113604684D01*
X103285858Y-113601174D01*
X103309750Y-113600000D01*
X103797250Y-113600000D01*
X103821142Y-113601174D01*
X103821142Y-113601174D01*
G37*
D11*
X103553500Y-114300000D03*
D10*
G36*
X101946142Y-113601174D02*
G01*
X101969803Y-113604684D01*
X101993007Y-113610496D01*
X102015529Y-113618554D01*
X102037153Y-113628782D01*
X102057670Y-113641079D01*
X102076883Y-113655329D01*
X102094607Y-113671393D01*
X102110671Y-113689117D01*
X102124921Y-113708330D01*
X102137218Y-113728847D01*
X102147446Y-113750471D01*
X102155504Y-113772993D01*
X102161316Y-113796197D01*
X102164826Y-113819858D01*
X102166000Y-113843750D01*
X102166000Y-114756250D01*
X102164826Y-114780142D01*
X102161316Y-114803803D01*
X102155504Y-114827007D01*
X102147446Y-114849529D01*
X102137218Y-114871153D01*
X102124921Y-114891670D01*
X102110671Y-114910883D01*
X102094607Y-114928607D01*
X102076883Y-114944671D01*
X102057670Y-114958921D01*
X102037153Y-114971218D01*
X102015529Y-114981446D01*
X101993007Y-114989504D01*
X101969803Y-114995316D01*
X101946142Y-114998826D01*
X101922250Y-115000000D01*
X101434750Y-115000000D01*
X101410858Y-114998826D01*
X101387197Y-114995316D01*
X101363993Y-114989504D01*
X101341471Y-114981446D01*
X101319847Y-114971218D01*
X101299330Y-114958921D01*
X101280117Y-114944671D01*
X101262393Y-114928607D01*
X101246329Y-114910883D01*
X101232079Y-114891670D01*
X101219782Y-114871153D01*
X101209554Y-114849529D01*
X101201496Y-114827007D01*
X101195684Y-114803803D01*
X101192174Y-114780142D01*
X101191000Y-114756250D01*
X101191000Y-113843750D01*
X101192174Y-113819858D01*
X101195684Y-113796197D01*
X101201496Y-113772993D01*
X101209554Y-113750471D01*
X101219782Y-113728847D01*
X101232079Y-113708330D01*
X101246329Y-113689117D01*
X101262393Y-113671393D01*
X101280117Y-113655329D01*
X101299330Y-113641079D01*
X101319847Y-113628782D01*
X101341471Y-113618554D01*
X101363993Y-113610496D01*
X101387197Y-113604684D01*
X101410858Y-113601174D01*
X101434750Y-113600000D01*
X101922250Y-113600000D01*
X101946142Y-113601174D01*
X101946142Y-113601174D01*
G37*
D11*
X101678500Y-114300000D03*
D10*
G36*
X103821142Y-128333174D02*
G01*
X103844803Y-128336684D01*
X103868007Y-128342496D01*
X103890529Y-128350554D01*
X103912153Y-128360782D01*
X103932670Y-128373079D01*
X103951883Y-128387329D01*
X103969607Y-128403393D01*
X103985671Y-128421117D01*
X103999921Y-128440330D01*
X104012218Y-128460847D01*
X104022446Y-128482471D01*
X104030504Y-128504993D01*
X104036316Y-128528197D01*
X104039826Y-128551858D01*
X104041000Y-128575750D01*
X104041000Y-129488250D01*
X104039826Y-129512142D01*
X104036316Y-129535803D01*
X104030504Y-129559007D01*
X104022446Y-129581529D01*
X104012218Y-129603153D01*
X103999921Y-129623670D01*
X103985671Y-129642883D01*
X103969607Y-129660607D01*
X103951883Y-129676671D01*
X103932670Y-129690921D01*
X103912153Y-129703218D01*
X103890529Y-129713446D01*
X103868007Y-129721504D01*
X103844803Y-129727316D01*
X103821142Y-129730826D01*
X103797250Y-129732000D01*
X103309750Y-129732000D01*
X103285858Y-129730826D01*
X103262197Y-129727316D01*
X103238993Y-129721504D01*
X103216471Y-129713446D01*
X103194847Y-129703218D01*
X103174330Y-129690921D01*
X103155117Y-129676671D01*
X103137393Y-129660607D01*
X103121329Y-129642883D01*
X103107079Y-129623670D01*
X103094782Y-129603153D01*
X103084554Y-129581529D01*
X103076496Y-129559007D01*
X103070684Y-129535803D01*
X103067174Y-129512142D01*
X103066000Y-129488250D01*
X103066000Y-128575750D01*
X103067174Y-128551858D01*
X103070684Y-128528197D01*
X103076496Y-128504993D01*
X103084554Y-128482471D01*
X103094782Y-128460847D01*
X103107079Y-128440330D01*
X103121329Y-128421117D01*
X103137393Y-128403393D01*
X103155117Y-128387329D01*
X103174330Y-128373079D01*
X103194847Y-128360782D01*
X103216471Y-128350554D01*
X103238993Y-128342496D01*
X103262197Y-128336684D01*
X103285858Y-128333174D01*
X103309750Y-128332000D01*
X103797250Y-128332000D01*
X103821142Y-128333174D01*
X103821142Y-128333174D01*
G37*
D11*
X103553500Y-129032000D03*
D10*
G36*
X101946142Y-128333174D02*
G01*
X101969803Y-128336684D01*
X101993007Y-128342496D01*
X102015529Y-128350554D01*
X102037153Y-128360782D01*
X102057670Y-128373079D01*
X102076883Y-128387329D01*
X102094607Y-128403393D01*
X102110671Y-128421117D01*
X102124921Y-128440330D01*
X102137218Y-128460847D01*
X102147446Y-128482471D01*
X102155504Y-128504993D01*
X102161316Y-128528197D01*
X102164826Y-128551858D01*
X102166000Y-128575750D01*
X102166000Y-129488250D01*
X102164826Y-129512142D01*
X102161316Y-129535803D01*
X102155504Y-129559007D01*
X102147446Y-129581529D01*
X102137218Y-129603153D01*
X102124921Y-129623670D01*
X102110671Y-129642883D01*
X102094607Y-129660607D01*
X102076883Y-129676671D01*
X102057670Y-129690921D01*
X102037153Y-129703218D01*
X102015529Y-129713446D01*
X101993007Y-129721504D01*
X101969803Y-129727316D01*
X101946142Y-129730826D01*
X101922250Y-129732000D01*
X101434750Y-129732000D01*
X101410858Y-129730826D01*
X101387197Y-129727316D01*
X101363993Y-129721504D01*
X101341471Y-129713446D01*
X101319847Y-129703218D01*
X101299330Y-129690921D01*
X101280117Y-129676671D01*
X101262393Y-129660607D01*
X101246329Y-129642883D01*
X101232079Y-129623670D01*
X101219782Y-129603153D01*
X101209554Y-129581529D01*
X101201496Y-129559007D01*
X101195684Y-129535803D01*
X101192174Y-129512142D01*
X101191000Y-129488250D01*
X101191000Y-128575750D01*
X101192174Y-128551858D01*
X101195684Y-128528197D01*
X101201496Y-128504993D01*
X101209554Y-128482471D01*
X101219782Y-128460847D01*
X101232079Y-128440330D01*
X101246329Y-128421117D01*
X101262393Y-128403393D01*
X101280117Y-128387329D01*
X101299330Y-128373079D01*
X101319847Y-128360782D01*
X101341471Y-128350554D01*
X101363993Y-128342496D01*
X101387197Y-128336684D01*
X101410858Y-128333174D01*
X101434750Y-128332000D01*
X101922250Y-128332000D01*
X101946142Y-128333174D01*
X101946142Y-128333174D01*
G37*
D11*
X101678500Y-129032000D03*
D10*
G36*
X101946142Y-121729174D02*
G01*
X101969803Y-121732684D01*
X101993007Y-121738496D01*
X102015529Y-121746554D01*
X102037153Y-121756782D01*
X102057670Y-121769079D01*
X102076883Y-121783329D01*
X102094607Y-121799393D01*
X102110671Y-121817117D01*
X102124921Y-121836330D01*
X102137218Y-121856847D01*
X102147446Y-121878471D01*
X102155504Y-121900993D01*
X102161316Y-121924197D01*
X102164826Y-121947858D01*
X102166000Y-121971750D01*
X102166000Y-122884250D01*
X102164826Y-122908142D01*
X102161316Y-122931803D01*
X102155504Y-122955007D01*
X102147446Y-122977529D01*
X102137218Y-122999153D01*
X102124921Y-123019670D01*
X102110671Y-123038883D01*
X102094607Y-123056607D01*
X102076883Y-123072671D01*
X102057670Y-123086921D01*
X102037153Y-123099218D01*
X102015529Y-123109446D01*
X101993007Y-123117504D01*
X101969803Y-123123316D01*
X101946142Y-123126826D01*
X101922250Y-123128000D01*
X101434750Y-123128000D01*
X101410858Y-123126826D01*
X101387197Y-123123316D01*
X101363993Y-123117504D01*
X101341471Y-123109446D01*
X101319847Y-123099218D01*
X101299330Y-123086921D01*
X101280117Y-123072671D01*
X101262393Y-123056607D01*
X101246329Y-123038883D01*
X101232079Y-123019670D01*
X101219782Y-122999153D01*
X101209554Y-122977529D01*
X101201496Y-122955007D01*
X101195684Y-122931803D01*
X101192174Y-122908142D01*
X101191000Y-122884250D01*
X101191000Y-121971750D01*
X101192174Y-121947858D01*
X101195684Y-121924197D01*
X101201496Y-121900993D01*
X101209554Y-121878471D01*
X101219782Y-121856847D01*
X101232079Y-121836330D01*
X101246329Y-121817117D01*
X101262393Y-121799393D01*
X101280117Y-121783329D01*
X101299330Y-121769079D01*
X101319847Y-121756782D01*
X101341471Y-121746554D01*
X101363993Y-121738496D01*
X101387197Y-121732684D01*
X101410858Y-121729174D01*
X101434750Y-121728000D01*
X101922250Y-121728000D01*
X101946142Y-121729174D01*
X101946142Y-121729174D01*
G37*
D11*
X101678500Y-122428000D03*
D10*
G36*
X103821142Y-121729174D02*
G01*
X103844803Y-121732684D01*
X103868007Y-121738496D01*
X103890529Y-121746554D01*
X103912153Y-121756782D01*
X103932670Y-121769079D01*
X103951883Y-121783329D01*
X103969607Y-121799393D01*
X103985671Y-121817117D01*
X103999921Y-121836330D01*
X104012218Y-121856847D01*
X104022446Y-121878471D01*
X104030504Y-121900993D01*
X104036316Y-121924197D01*
X104039826Y-121947858D01*
X104041000Y-121971750D01*
X104041000Y-122884250D01*
X104039826Y-122908142D01*
X104036316Y-122931803D01*
X104030504Y-122955007D01*
X104022446Y-122977529D01*
X104012218Y-122999153D01*
X103999921Y-123019670D01*
X103985671Y-123038883D01*
X103969607Y-123056607D01*
X103951883Y-123072671D01*
X103932670Y-123086921D01*
X103912153Y-123099218D01*
X103890529Y-123109446D01*
X103868007Y-123117504D01*
X103844803Y-123123316D01*
X103821142Y-123126826D01*
X103797250Y-123128000D01*
X103309750Y-123128000D01*
X103285858Y-123126826D01*
X103262197Y-123123316D01*
X103238993Y-123117504D01*
X103216471Y-123109446D01*
X103194847Y-123099218D01*
X103174330Y-123086921D01*
X103155117Y-123072671D01*
X103137393Y-123056607D01*
X103121329Y-123038883D01*
X103107079Y-123019670D01*
X103094782Y-122999153D01*
X103084554Y-122977529D01*
X103076496Y-122955007D01*
X103070684Y-122931803D01*
X103067174Y-122908142D01*
X103066000Y-122884250D01*
X103066000Y-121971750D01*
X103067174Y-121947858D01*
X103070684Y-121924197D01*
X103076496Y-121900993D01*
X103084554Y-121878471D01*
X103094782Y-121856847D01*
X103107079Y-121836330D01*
X103121329Y-121817117D01*
X103137393Y-121799393D01*
X103155117Y-121783329D01*
X103174330Y-121769079D01*
X103194847Y-121756782D01*
X103216471Y-121746554D01*
X103238993Y-121738496D01*
X103262197Y-121732684D01*
X103285858Y-121729174D01*
X103309750Y-121728000D01*
X103797250Y-121728000D01*
X103821142Y-121729174D01*
X103821142Y-121729174D01*
G37*
D11*
X103553500Y-122428000D03*
D10*
G36*
X95342142Y-125031174D02*
G01*
X95365803Y-125034684D01*
X95389007Y-125040496D01*
X95411529Y-125048554D01*
X95433153Y-125058782D01*
X95453670Y-125071079D01*
X95472883Y-125085329D01*
X95490607Y-125101393D01*
X95506671Y-125119117D01*
X95520921Y-125138330D01*
X95533218Y-125158847D01*
X95543446Y-125180471D01*
X95551504Y-125202993D01*
X95557316Y-125226197D01*
X95560826Y-125249858D01*
X95562000Y-125273750D01*
X95562000Y-126186250D01*
X95560826Y-126210142D01*
X95557316Y-126233803D01*
X95551504Y-126257007D01*
X95543446Y-126279529D01*
X95533218Y-126301153D01*
X95520921Y-126321670D01*
X95506671Y-126340883D01*
X95490607Y-126358607D01*
X95472883Y-126374671D01*
X95453670Y-126388921D01*
X95433153Y-126401218D01*
X95411529Y-126411446D01*
X95389007Y-126419504D01*
X95365803Y-126425316D01*
X95342142Y-126428826D01*
X95318250Y-126430000D01*
X94830750Y-126430000D01*
X94806858Y-126428826D01*
X94783197Y-126425316D01*
X94759993Y-126419504D01*
X94737471Y-126411446D01*
X94715847Y-126401218D01*
X94695330Y-126388921D01*
X94676117Y-126374671D01*
X94658393Y-126358607D01*
X94642329Y-126340883D01*
X94628079Y-126321670D01*
X94615782Y-126301153D01*
X94605554Y-126279529D01*
X94597496Y-126257007D01*
X94591684Y-126233803D01*
X94588174Y-126210142D01*
X94587000Y-126186250D01*
X94587000Y-125273750D01*
X94588174Y-125249858D01*
X94591684Y-125226197D01*
X94597496Y-125202993D01*
X94605554Y-125180471D01*
X94615782Y-125158847D01*
X94628079Y-125138330D01*
X94642329Y-125119117D01*
X94658393Y-125101393D01*
X94676117Y-125085329D01*
X94695330Y-125071079D01*
X94715847Y-125058782D01*
X94737471Y-125048554D01*
X94759993Y-125040496D01*
X94783197Y-125034684D01*
X94806858Y-125031174D01*
X94830750Y-125030000D01*
X95318250Y-125030000D01*
X95342142Y-125031174D01*
X95342142Y-125031174D01*
G37*
D11*
X95074500Y-125730000D03*
D10*
G36*
X97217142Y-125031174D02*
G01*
X97240803Y-125034684D01*
X97264007Y-125040496D01*
X97286529Y-125048554D01*
X97308153Y-125058782D01*
X97328670Y-125071079D01*
X97347883Y-125085329D01*
X97365607Y-125101393D01*
X97381671Y-125119117D01*
X97395921Y-125138330D01*
X97408218Y-125158847D01*
X97418446Y-125180471D01*
X97426504Y-125202993D01*
X97432316Y-125226197D01*
X97435826Y-125249858D01*
X97437000Y-125273750D01*
X97437000Y-126186250D01*
X97435826Y-126210142D01*
X97432316Y-126233803D01*
X97426504Y-126257007D01*
X97418446Y-126279529D01*
X97408218Y-126301153D01*
X97395921Y-126321670D01*
X97381671Y-126340883D01*
X97365607Y-126358607D01*
X97347883Y-126374671D01*
X97328670Y-126388921D01*
X97308153Y-126401218D01*
X97286529Y-126411446D01*
X97264007Y-126419504D01*
X97240803Y-126425316D01*
X97217142Y-126428826D01*
X97193250Y-126430000D01*
X96705750Y-126430000D01*
X96681858Y-126428826D01*
X96658197Y-126425316D01*
X96634993Y-126419504D01*
X96612471Y-126411446D01*
X96590847Y-126401218D01*
X96570330Y-126388921D01*
X96551117Y-126374671D01*
X96533393Y-126358607D01*
X96517329Y-126340883D01*
X96503079Y-126321670D01*
X96490782Y-126301153D01*
X96480554Y-126279529D01*
X96472496Y-126257007D01*
X96466684Y-126233803D01*
X96463174Y-126210142D01*
X96462000Y-126186250D01*
X96462000Y-125273750D01*
X96463174Y-125249858D01*
X96466684Y-125226197D01*
X96472496Y-125202993D01*
X96480554Y-125180471D01*
X96490782Y-125158847D01*
X96503079Y-125138330D01*
X96517329Y-125119117D01*
X96533393Y-125101393D01*
X96551117Y-125085329D01*
X96570330Y-125071079D01*
X96590847Y-125058782D01*
X96612471Y-125048554D01*
X96634993Y-125040496D01*
X96658197Y-125034684D01*
X96681858Y-125031174D01*
X96705750Y-125030000D01*
X97193250Y-125030000D01*
X97217142Y-125031174D01*
X97217142Y-125031174D01*
G37*
D11*
X96949500Y-125730000D03*
D10*
G36*
X95342142Y-128333174D02*
G01*
X95365803Y-128336684D01*
X95389007Y-128342496D01*
X95411529Y-128350554D01*
X95433153Y-128360782D01*
X95453670Y-128373079D01*
X95472883Y-128387329D01*
X95490607Y-128403393D01*
X95506671Y-128421117D01*
X95520921Y-128440330D01*
X95533218Y-128460847D01*
X95543446Y-128482471D01*
X95551504Y-128504993D01*
X95557316Y-128528197D01*
X95560826Y-128551858D01*
X95562000Y-128575750D01*
X95562000Y-129488250D01*
X95560826Y-129512142D01*
X95557316Y-129535803D01*
X95551504Y-129559007D01*
X95543446Y-129581529D01*
X95533218Y-129603153D01*
X95520921Y-129623670D01*
X95506671Y-129642883D01*
X95490607Y-129660607D01*
X95472883Y-129676671D01*
X95453670Y-129690921D01*
X95433153Y-129703218D01*
X95411529Y-129713446D01*
X95389007Y-129721504D01*
X95365803Y-129727316D01*
X95342142Y-129730826D01*
X95318250Y-129732000D01*
X94830750Y-129732000D01*
X94806858Y-129730826D01*
X94783197Y-129727316D01*
X94759993Y-129721504D01*
X94737471Y-129713446D01*
X94715847Y-129703218D01*
X94695330Y-129690921D01*
X94676117Y-129676671D01*
X94658393Y-129660607D01*
X94642329Y-129642883D01*
X94628079Y-129623670D01*
X94615782Y-129603153D01*
X94605554Y-129581529D01*
X94597496Y-129559007D01*
X94591684Y-129535803D01*
X94588174Y-129512142D01*
X94587000Y-129488250D01*
X94587000Y-128575750D01*
X94588174Y-128551858D01*
X94591684Y-128528197D01*
X94597496Y-128504993D01*
X94605554Y-128482471D01*
X94615782Y-128460847D01*
X94628079Y-128440330D01*
X94642329Y-128421117D01*
X94658393Y-128403393D01*
X94676117Y-128387329D01*
X94695330Y-128373079D01*
X94715847Y-128360782D01*
X94737471Y-128350554D01*
X94759993Y-128342496D01*
X94783197Y-128336684D01*
X94806858Y-128333174D01*
X94830750Y-128332000D01*
X95318250Y-128332000D01*
X95342142Y-128333174D01*
X95342142Y-128333174D01*
G37*
D11*
X95074500Y-129032000D03*
D10*
G36*
X97217142Y-128333174D02*
G01*
X97240803Y-128336684D01*
X97264007Y-128342496D01*
X97286529Y-128350554D01*
X97308153Y-128360782D01*
X97328670Y-128373079D01*
X97347883Y-128387329D01*
X97365607Y-128403393D01*
X97381671Y-128421117D01*
X97395921Y-128440330D01*
X97408218Y-128460847D01*
X97418446Y-128482471D01*
X97426504Y-128504993D01*
X97432316Y-128528197D01*
X97435826Y-128551858D01*
X97437000Y-128575750D01*
X97437000Y-129488250D01*
X97435826Y-129512142D01*
X97432316Y-129535803D01*
X97426504Y-129559007D01*
X97418446Y-129581529D01*
X97408218Y-129603153D01*
X97395921Y-129623670D01*
X97381671Y-129642883D01*
X97365607Y-129660607D01*
X97347883Y-129676671D01*
X97328670Y-129690921D01*
X97308153Y-129703218D01*
X97286529Y-129713446D01*
X97264007Y-129721504D01*
X97240803Y-129727316D01*
X97217142Y-129730826D01*
X97193250Y-129732000D01*
X96705750Y-129732000D01*
X96681858Y-129730826D01*
X96658197Y-129727316D01*
X96634993Y-129721504D01*
X96612471Y-129713446D01*
X96590847Y-129703218D01*
X96570330Y-129690921D01*
X96551117Y-129676671D01*
X96533393Y-129660607D01*
X96517329Y-129642883D01*
X96503079Y-129623670D01*
X96490782Y-129603153D01*
X96480554Y-129581529D01*
X96472496Y-129559007D01*
X96466684Y-129535803D01*
X96463174Y-129512142D01*
X96462000Y-129488250D01*
X96462000Y-128575750D01*
X96463174Y-128551858D01*
X96466684Y-128528197D01*
X96472496Y-128504993D01*
X96480554Y-128482471D01*
X96490782Y-128460847D01*
X96503079Y-128440330D01*
X96517329Y-128421117D01*
X96533393Y-128403393D01*
X96551117Y-128387329D01*
X96570330Y-128373079D01*
X96590847Y-128360782D01*
X96612471Y-128350554D01*
X96634993Y-128342496D01*
X96658197Y-128336684D01*
X96681858Y-128333174D01*
X96705750Y-128332000D01*
X97193250Y-128332000D01*
X97217142Y-128333174D01*
X97217142Y-128333174D01*
G37*
D11*
X96949500Y-129032000D03*
D10*
G36*
X107026142Y-141541174D02*
G01*
X107049803Y-141544684D01*
X107073007Y-141550496D01*
X107095529Y-141558554D01*
X107117153Y-141568782D01*
X107137670Y-141581079D01*
X107156883Y-141595329D01*
X107174607Y-141611393D01*
X107190671Y-141629117D01*
X107204921Y-141648330D01*
X107217218Y-141668847D01*
X107227446Y-141690471D01*
X107235504Y-141712993D01*
X107241316Y-141736197D01*
X107244826Y-141759858D01*
X107246000Y-141783750D01*
X107246000Y-142696250D01*
X107244826Y-142720142D01*
X107241316Y-142743803D01*
X107235504Y-142767007D01*
X107227446Y-142789529D01*
X107217218Y-142811153D01*
X107204921Y-142831670D01*
X107190671Y-142850883D01*
X107174607Y-142868607D01*
X107156883Y-142884671D01*
X107137670Y-142898921D01*
X107117153Y-142911218D01*
X107095529Y-142921446D01*
X107073007Y-142929504D01*
X107049803Y-142935316D01*
X107026142Y-142938826D01*
X107002250Y-142940000D01*
X106514750Y-142940000D01*
X106490858Y-142938826D01*
X106467197Y-142935316D01*
X106443993Y-142929504D01*
X106421471Y-142921446D01*
X106399847Y-142911218D01*
X106379330Y-142898921D01*
X106360117Y-142884671D01*
X106342393Y-142868607D01*
X106326329Y-142850883D01*
X106312079Y-142831670D01*
X106299782Y-142811153D01*
X106289554Y-142789529D01*
X106281496Y-142767007D01*
X106275684Y-142743803D01*
X106272174Y-142720142D01*
X106271000Y-142696250D01*
X106271000Y-141783750D01*
X106272174Y-141759858D01*
X106275684Y-141736197D01*
X106281496Y-141712993D01*
X106289554Y-141690471D01*
X106299782Y-141668847D01*
X106312079Y-141648330D01*
X106326329Y-141629117D01*
X106342393Y-141611393D01*
X106360117Y-141595329D01*
X106379330Y-141581079D01*
X106399847Y-141568782D01*
X106421471Y-141558554D01*
X106443993Y-141550496D01*
X106467197Y-141544684D01*
X106490858Y-141541174D01*
X106514750Y-141540000D01*
X107002250Y-141540000D01*
X107026142Y-141541174D01*
X107026142Y-141541174D01*
G37*
D11*
X106758500Y-142240000D03*
D10*
G36*
X108901142Y-141541174D02*
G01*
X108924803Y-141544684D01*
X108948007Y-141550496D01*
X108970529Y-141558554D01*
X108992153Y-141568782D01*
X109012670Y-141581079D01*
X109031883Y-141595329D01*
X109049607Y-141611393D01*
X109065671Y-141629117D01*
X109079921Y-141648330D01*
X109092218Y-141668847D01*
X109102446Y-141690471D01*
X109110504Y-141712993D01*
X109116316Y-141736197D01*
X109119826Y-141759858D01*
X109121000Y-141783750D01*
X109121000Y-142696250D01*
X109119826Y-142720142D01*
X109116316Y-142743803D01*
X109110504Y-142767007D01*
X109102446Y-142789529D01*
X109092218Y-142811153D01*
X109079921Y-142831670D01*
X109065671Y-142850883D01*
X109049607Y-142868607D01*
X109031883Y-142884671D01*
X109012670Y-142898921D01*
X108992153Y-142911218D01*
X108970529Y-142921446D01*
X108948007Y-142929504D01*
X108924803Y-142935316D01*
X108901142Y-142938826D01*
X108877250Y-142940000D01*
X108389750Y-142940000D01*
X108365858Y-142938826D01*
X108342197Y-142935316D01*
X108318993Y-142929504D01*
X108296471Y-142921446D01*
X108274847Y-142911218D01*
X108254330Y-142898921D01*
X108235117Y-142884671D01*
X108217393Y-142868607D01*
X108201329Y-142850883D01*
X108187079Y-142831670D01*
X108174782Y-142811153D01*
X108164554Y-142789529D01*
X108156496Y-142767007D01*
X108150684Y-142743803D01*
X108147174Y-142720142D01*
X108146000Y-142696250D01*
X108146000Y-141783750D01*
X108147174Y-141759858D01*
X108150684Y-141736197D01*
X108156496Y-141712993D01*
X108164554Y-141690471D01*
X108174782Y-141668847D01*
X108187079Y-141648330D01*
X108201329Y-141629117D01*
X108217393Y-141611393D01*
X108235117Y-141595329D01*
X108254330Y-141581079D01*
X108274847Y-141568782D01*
X108296471Y-141558554D01*
X108318993Y-141550496D01*
X108342197Y-141544684D01*
X108365858Y-141541174D01*
X108389750Y-141540000D01*
X108877250Y-141540000D01*
X108901142Y-141541174D01*
X108901142Y-141541174D01*
G37*
D11*
X108633500Y-142240000D03*
D10*
G36*
X101946142Y-136461174D02*
G01*
X101969803Y-136464684D01*
X101993007Y-136470496D01*
X102015529Y-136478554D01*
X102037153Y-136488782D01*
X102057670Y-136501079D01*
X102076883Y-136515329D01*
X102094607Y-136531393D01*
X102110671Y-136549117D01*
X102124921Y-136568330D01*
X102137218Y-136588847D01*
X102147446Y-136610471D01*
X102155504Y-136632993D01*
X102161316Y-136656197D01*
X102164826Y-136679858D01*
X102166000Y-136703750D01*
X102166000Y-137616250D01*
X102164826Y-137640142D01*
X102161316Y-137663803D01*
X102155504Y-137687007D01*
X102147446Y-137709529D01*
X102137218Y-137731153D01*
X102124921Y-137751670D01*
X102110671Y-137770883D01*
X102094607Y-137788607D01*
X102076883Y-137804671D01*
X102057670Y-137818921D01*
X102037153Y-137831218D01*
X102015529Y-137841446D01*
X101993007Y-137849504D01*
X101969803Y-137855316D01*
X101946142Y-137858826D01*
X101922250Y-137860000D01*
X101434750Y-137860000D01*
X101410858Y-137858826D01*
X101387197Y-137855316D01*
X101363993Y-137849504D01*
X101341471Y-137841446D01*
X101319847Y-137831218D01*
X101299330Y-137818921D01*
X101280117Y-137804671D01*
X101262393Y-137788607D01*
X101246329Y-137770883D01*
X101232079Y-137751670D01*
X101219782Y-137731153D01*
X101209554Y-137709529D01*
X101201496Y-137687007D01*
X101195684Y-137663803D01*
X101192174Y-137640142D01*
X101191000Y-137616250D01*
X101191000Y-136703750D01*
X101192174Y-136679858D01*
X101195684Y-136656197D01*
X101201496Y-136632993D01*
X101209554Y-136610471D01*
X101219782Y-136588847D01*
X101232079Y-136568330D01*
X101246329Y-136549117D01*
X101262393Y-136531393D01*
X101280117Y-136515329D01*
X101299330Y-136501079D01*
X101319847Y-136488782D01*
X101341471Y-136478554D01*
X101363993Y-136470496D01*
X101387197Y-136464684D01*
X101410858Y-136461174D01*
X101434750Y-136460000D01*
X101922250Y-136460000D01*
X101946142Y-136461174D01*
X101946142Y-136461174D01*
G37*
D11*
X101678500Y-137160000D03*
D10*
G36*
X103821142Y-136461174D02*
G01*
X103844803Y-136464684D01*
X103868007Y-136470496D01*
X103890529Y-136478554D01*
X103912153Y-136488782D01*
X103932670Y-136501079D01*
X103951883Y-136515329D01*
X103969607Y-136531393D01*
X103985671Y-136549117D01*
X103999921Y-136568330D01*
X104012218Y-136588847D01*
X104022446Y-136610471D01*
X104030504Y-136632993D01*
X104036316Y-136656197D01*
X104039826Y-136679858D01*
X104041000Y-136703750D01*
X104041000Y-137616250D01*
X104039826Y-137640142D01*
X104036316Y-137663803D01*
X104030504Y-137687007D01*
X104022446Y-137709529D01*
X104012218Y-137731153D01*
X103999921Y-137751670D01*
X103985671Y-137770883D01*
X103969607Y-137788607D01*
X103951883Y-137804671D01*
X103932670Y-137818921D01*
X103912153Y-137831218D01*
X103890529Y-137841446D01*
X103868007Y-137849504D01*
X103844803Y-137855316D01*
X103821142Y-137858826D01*
X103797250Y-137860000D01*
X103309750Y-137860000D01*
X103285858Y-137858826D01*
X103262197Y-137855316D01*
X103238993Y-137849504D01*
X103216471Y-137841446D01*
X103194847Y-137831218D01*
X103174330Y-137818921D01*
X103155117Y-137804671D01*
X103137393Y-137788607D01*
X103121329Y-137770883D01*
X103107079Y-137751670D01*
X103094782Y-137731153D01*
X103084554Y-137709529D01*
X103076496Y-137687007D01*
X103070684Y-137663803D01*
X103067174Y-137640142D01*
X103066000Y-137616250D01*
X103066000Y-136703750D01*
X103067174Y-136679858D01*
X103070684Y-136656197D01*
X103076496Y-136632993D01*
X103084554Y-136610471D01*
X103094782Y-136588847D01*
X103107079Y-136568330D01*
X103121329Y-136549117D01*
X103137393Y-136531393D01*
X103155117Y-136515329D01*
X103174330Y-136501079D01*
X103194847Y-136488782D01*
X103216471Y-136478554D01*
X103238993Y-136470496D01*
X103262197Y-136464684D01*
X103285858Y-136461174D01*
X103309750Y-136460000D01*
X103797250Y-136460000D01*
X103821142Y-136461174D01*
X103821142Y-136461174D01*
G37*
D11*
X103553500Y-137160000D03*
D10*
G36*
X95476142Y-134466174D02*
G01*
X95499803Y-134469684D01*
X95523007Y-134475496D01*
X95545529Y-134483554D01*
X95567153Y-134493782D01*
X95587670Y-134506079D01*
X95606883Y-134520329D01*
X95624607Y-134536393D01*
X95640671Y-134554117D01*
X95654921Y-134573330D01*
X95667218Y-134593847D01*
X95677446Y-134615471D01*
X95685504Y-134637993D01*
X95691316Y-134661197D01*
X95694826Y-134684858D01*
X95696000Y-134708750D01*
X95696000Y-135196250D01*
X95694826Y-135220142D01*
X95691316Y-135243803D01*
X95685504Y-135267007D01*
X95677446Y-135289529D01*
X95667218Y-135311153D01*
X95654921Y-135331670D01*
X95640671Y-135350883D01*
X95624607Y-135368607D01*
X95606883Y-135384671D01*
X95587670Y-135398921D01*
X95567153Y-135411218D01*
X95545529Y-135421446D01*
X95523007Y-135429504D01*
X95499803Y-135435316D01*
X95476142Y-135438826D01*
X95452250Y-135440000D01*
X94539750Y-135440000D01*
X94515858Y-135438826D01*
X94492197Y-135435316D01*
X94468993Y-135429504D01*
X94446471Y-135421446D01*
X94424847Y-135411218D01*
X94404330Y-135398921D01*
X94385117Y-135384671D01*
X94367393Y-135368607D01*
X94351329Y-135350883D01*
X94337079Y-135331670D01*
X94324782Y-135311153D01*
X94314554Y-135289529D01*
X94306496Y-135267007D01*
X94300684Y-135243803D01*
X94297174Y-135220142D01*
X94296000Y-135196250D01*
X94296000Y-134708750D01*
X94297174Y-134684858D01*
X94300684Y-134661197D01*
X94306496Y-134637993D01*
X94314554Y-134615471D01*
X94324782Y-134593847D01*
X94337079Y-134573330D01*
X94351329Y-134554117D01*
X94367393Y-134536393D01*
X94385117Y-134520329D01*
X94404330Y-134506079D01*
X94424847Y-134493782D01*
X94446471Y-134483554D01*
X94468993Y-134475496D01*
X94492197Y-134469684D01*
X94515858Y-134466174D01*
X94539750Y-134465000D01*
X95452250Y-134465000D01*
X95476142Y-134466174D01*
X95476142Y-134466174D01*
G37*
D11*
X94996000Y-134952500D03*
D10*
G36*
X95476142Y-136341174D02*
G01*
X95499803Y-136344684D01*
X95523007Y-136350496D01*
X95545529Y-136358554D01*
X95567153Y-136368782D01*
X95587670Y-136381079D01*
X95606883Y-136395329D01*
X95624607Y-136411393D01*
X95640671Y-136429117D01*
X95654921Y-136448330D01*
X95667218Y-136468847D01*
X95677446Y-136490471D01*
X95685504Y-136512993D01*
X95691316Y-136536197D01*
X95694826Y-136559858D01*
X95696000Y-136583750D01*
X95696000Y-137071250D01*
X95694826Y-137095142D01*
X95691316Y-137118803D01*
X95685504Y-137142007D01*
X95677446Y-137164529D01*
X95667218Y-137186153D01*
X95654921Y-137206670D01*
X95640671Y-137225883D01*
X95624607Y-137243607D01*
X95606883Y-137259671D01*
X95587670Y-137273921D01*
X95567153Y-137286218D01*
X95545529Y-137296446D01*
X95523007Y-137304504D01*
X95499803Y-137310316D01*
X95476142Y-137313826D01*
X95452250Y-137315000D01*
X94539750Y-137315000D01*
X94515858Y-137313826D01*
X94492197Y-137310316D01*
X94468993Y-137304504D01*
X94446471Y-137296446D01*
X94424847Y-137286218D01*
X94404330Y-137273921D01*
X94385117Y-137259671D01*
X94367393Y-137243607D01*
X94351329Y-137225883D01*
X94337079Y-137206670D01*
X94324782Y-137186153D01*
X94314554Y-137164529D01*
X94306496Y-137142007D01*
X94300684Y-137118803D01*
X94297174Y-137095142D01*
X94296000Y-137071250D01*
X94296000Y-136583750D01*
X94297174Y-136559858D01*
X94300684Y-136536197D01*
X94306496Y-136512993D01*
X94314554Y-136490471D01*
X94324782Y-136468847D01*
X94337079Y-136448330D01*
X94351329Y-136429117D01*
X94367393Y-136411393D01*
X94385117Y-136395329D01*
X94404330Y-136381079D01*
X94424847Y-136368782D01*
X94446471Y-136358554D01*
X94468993Y-136350496D01*
X94492197Y-136344684D01*
X94515858Y-136341174D01*
X94539750Y-136340000D01*
X95452250Y-136340000D01*
X95476142Y-136341174D01*
X95476142Y-136341174D01*
G37*
D11*
X94996000Y-136827500D03*
D10*
G36*
X106264142Y-105473174D02*
G01*
X106287803Y-105476684D01*
X106311007Y-105482496D01*
X106333529Y-105490554D01*
X106355153Y-105500782D01*
X106375670Y-105513079D01*
X106394883Y-105527329D01*
X106412607Y-105543393D01*
X106428671Y-105561117D01*
X106442921Y-105580330D01*
X106455218Y-105600847D01*
X106465446Y-105622471D01*
X106473504Y-105644993D01*
X106479316Y-105668197D01*
X106482826Y-105691858D01*
X106484000Y-105715750D01*
X106484000Y-106628250D01*
X106482826Y-106652142D01*
X106479316Y-106675803D01*
X106473504Y-106699007D01*
X106465446Y-106721529D01*
X106455218Y-106743153D01*
X106442921Y-106763670D01*
X106428671Y-106782883D01*
X106412607Y-106800607D01*
X106394883Y-106816671D01*
X106375670Y-106830921D01*
X106355153Y-106843218D01*
X106333529Y-106853446D01*
X106311007Y-106861504D01*
X106287803Y-106867316D01*
X106264142Y-106870826D01*
X106240250Y-106872000D01*
X105752750Y-106872000D01*
X105728858Y-106870826D01*
X105705197Y-106867316D01*
X105681993Y-106861504D01*
X105659471Y-106853446D01*
X105637847Y-106843218D01*
X105617330Y-106830921D01*
X105598117Y-106816671D01*
X105580393Y-106800607D01*
X105564329Y-106782883D01*
X105550079Y-106763670D01*
X105537782Y-106743153D01*
X105527554Y-106721529D01*
X105519496Y-106699007D01*
X105513684Y-106675803D01*
X105510174Y-106652142D01*
X105509000Y-106628250D01*
X105509000Y-105715750D01*
X105510174Y-105691858D01*
X105513684Y-105668197D01*
X105519496Y-105644993D01*
X105527554Y-105622471D01*
X105537782Y-105600847D01*
X105550079Y-105580330D01*
X105564329Y-105561117D01*
X105580393Y-105543393D01*
X105598117Y-105527329D01*
X105617330Y-105513079D01*
X105637847Y-105500782D01*
X105659471Y-105490554D01*
X105681993Y-105482496D01*
X105705197Y-105476684D01*
X105728858Y-105473174D01*
X105752750Y-105472000D01*
X106240250Y-105472000D01*
X106264142Y-105473174D01*
X106264142Y-105473174D01*
G37*
D11*
X105996500Y-106172000D03*
D10*
G36*
X108139142Y-105473174D02*
G01*
X108162803Y-105476684D01*
X108186007Y-105482496D01*
X108208529Y-105490554D01*
X108230153Y-105500782D01*
X108250670Y-105513079D01*
X108269883Y-105527329D01*
X108287607Y-105543393D01*
X108303671Y-105561117D01*
X108317921Y-105580330D01*
X108330218Y-105600847D01*
X108340446Y-105622471D01*
X108348504Y-105644993D01*
X108354316Y-105668197D01*
X108357826Y-105691858D01*
X108359000Y-105715750D01*
X108359000Y-106628250D01*
X108357826Y-106652142D01*
X108354316Y-106675803D01*
X108348504Y-106699007D01*
X108340446Y-106721529D01*
X108330218Y-106743153D01*
X108317921Y-106763670D01*
X108303671Y-106782883D01*
X108287607Y-106800607D01*
X108269883Y-106816671D01*
X108250670Y-106830921D01*
X108230153Y-106843218D01*
X108208529Y-106853446D01*
X108186007Y-106861504D01*
X108162803Y-106867316D01*
X108139142Y-106870826D01*
X108115250Y-106872000D01*
X107627750Y-106872000D01*
X107603858Y-106870826D01*
X107580197Y-106867316D01*
X107556993Y-106861504D01*
X107534471Y-106853446D01*
X107512847Y-106843218D01*
X107492330Y-106830921D01*
X107473117Y-106816671D01*
X107455393Y-106800607D01*
X107439329Y-106782883D01*
X107425079Y-106763670D01*
X107412782Y-106743153D01*
X107402554Y-106721529D01*
X107394496Y-106699007D01*
X107388684Y-106675803D01*
X107385174Y-106652142D01*
X107384000Y-106628250D01*
X107384000Y-105715750D01*
X107385174Y-105691858D01*
X107388684Y-105668197D01*
X107394496Y-105644993D01*
X107402554Y-105622471D01*
X107412782Y-105600847D01*
X107425079Y-105580330D01*
X107439329Y-105561117D01*
X107455393Y-105543393D01*
X107473117Y-105527329D01*
X107492330Y-105513079D01*
X107512847Y-105500782D01*
X107534471Y-105490554D01*
X107556993Y-105482496D01*
X107580197Y-105476684D01*
X107603858Y-105473174D01*
X107627750Y-105472000D01*
X108115250Y-105472000D01*
X108139142Y-105473174D01*
X108139142Y-105473174D01*
G37*
D11*
X107871500Y-106172000D03*
D10*
G36*
X101946142Y-100393174D02*
G01*
X101969803Y-100396684D01*
X101993007Y-100402496D01*
X102015529Y-100410554D01*
X102037153Y-100420782D01*
X102057670Y-100433079D01*
X102076883Y-100447329D01*
X102094607Y-100463393D01*
X102110671Y-100481117D01*
X102124921Y-100500330D01*
X102137218Y-100520847D01*
X102147446Y-100542471D01*
X102155504Y-100564993D01*
X102161316Y-100588197D01*
X102164826Y-100611858D01*
X102166000Y-100635750D01*
X102166000Y-101548250D01*
X102164826Y-101572142D01*
X102161316Y-101595803D01*
X102155504Y-101619007D01*
X102147446Y-101641529D01*
X102137218Y-101663153D01*
X102124921Y-101683670D01*
X102110671Y-101702883D01*
X102094607Y-101720607D01*
X102076883Y-101736671D01*
X102057670Y-101750921D01*
X102037153Y-101763218D01*
X102015529Y-101773446D01*
X101993007Y-101781504D01*
X101969803Y-101787316D01*
X101946142Y-101790826D01*
X101922250Y-101792000D01*
X101434750Y-101792000D01*
X101410858Y-101790826D01*
X101387197Y-101787316D01*
X101363993Y-101781504D01*
X101341471Y-101773446D01*
X101319847Y-101763218D01*
X101299330Y-101750921D01*
X101280117Y-101736671D01*
X101262393Y-101720607D01*
X101246329Y-101702883D01*
X101232079Y-101683670D01*
X101219782Y-101663153D01*
X101209554Y-101641529D01*
X101201496Y-101619007D01*
X101195684Y-101595803D01*
X101192174Y-101572142D01*
X101191000Y-101548250D01*
X101191000Y-100635750D01*
X101192174Y-100611858D01*
X101195684Y-100588197D01*
X101201496Y-100564993D01*
X101209554Y-100542471D01*
X101219782Y-100520847D01*
X101232079Y-100500330D01*
X101246329Y-100481117D01*
X101262393Y-100463393D01*
X101280117Y-100447329D01*
X101299330Y-100433079D01*
X101319847Y-100420782D01*
X101341471Y-100410554D01*
X101363993Y-100402496D01*
X101387197Y-100396684D01*
X101410858Y-100393174D01*
X101434750Y-100392000D01*
X101922250Y-100392000D01*
X101946142Y-100393174D01*
X101946142Y-100393174D01*
G37*
D11*
X101678500Y-101092000D03*
D10*
G36*
X103821142Y-100393174D02*
G01*
X103844803Y-100396684D01*
X103868007Y-100402496D01*
X103890529Y-100410554D01*
X103912153Y-100420782D01*
X103932670Y-100433079D01*
X103951883Y-100447329D01*
X103969607Y-100463393D01*
X103985671Y-100481117D01*
X103999921Y-100500330D01*
X104012218Y-100520847D01*
X104022446Y-100542471D01*
X104030504Y-100564993D01*
X104036316Y-100588197D01*
X104039826Y-100611858D01*
X104041000Y-100635750D01*
X104041000Y-101548250D01*
X104039826Y-101572142D01*
X104036316Y-101595803D01*
X104030504Y-101619007D01*
X104022446Y-101641529D01*
X104012218Y-101663153D01*
X103999921Y-101683670D01*
X103985671Y-101702883D01*
X103969607Y-101720607D01*
X103951883Y-101736671D01*
X103932670Y-101750921D01*
X103912153Y-101763218D01*
X103890529Y-101773446D01*
X103868007Y-101781504D01*
X103844803Y-101787316D01*
X103821142Y-101790826D01*
X103797250Y-101792000D01*
X103309750Y-101792000D01*
X103285858Y-101790826D01*
X103262197Y-101787316D01*
X103238993Y-101781504D01*
X103216471Y-101773446D01*
X103194847Y-101763218D01*
X103174330Y-101750921D01*
X103155117Y-101736671D01*
X103137393Y-101720607D01*
X103121329Y-101702883D01*
X103107079Y-101683670D01*
X103094782Y-101663153D01*
X103084554Y-101641529D01*
X103076496Y-101619007D01*
X103070684Y-101595803D01*
X103067174Y-101572142D01*
X103066000Y-101548250D01*
X103066000Y-100635750D01*
X103067174Y-100611858D01*
X103070684Y-100588197D01*
X103076496Y-100564993D01*
X103084554Y-100542471D01*
X103094782Y-100520847D01*
X103107079Y-100500330D01*
X103121329Y-100481117D01*
X103137393Y-100463393D01*
X103155117Y-100447329D01*
X103174330Y-100433079D01*
X103194847Y-100420782D01*
X103216471Y-100410554D01*
X103238993Y-100402496D01*
X103262197Y-100396684D01*
X103285858Y-100393174D01*
X103309750Y-100392000D01*
X103797250Y-100392000D01*
X103821142Y-100393174D01*
X103821142Y-100393174D01*
G37*
D11*
X103553500Y-101092000D03*
D10*
G36*
X95222142Y-98652174D02*
G01*
X95245803Y-98655684D01*
X95269007Y-98661496D01*
X95291529Y-98669554D01*
X95313153Y-98679782D01*
X95333670Y-98692079D01*
X95352883Y-98706329D01*
X95370607Y-98722393D01*
X95386671Y-98740117D01*
X95400921Y-98759330D01*
X95413218Y-98779847D01*
X95423446Y-98801471D01*
X95431504Y-98823993D01*
X95437316Y-98847197D01*
X95440826Y-98870858D01*
X95442000Y-98894750D01*
X95442000Y-99382250D01*
X95440826Y-99406142D01*
X95437316Y-99429803D01*
X95431504Y-99453007D01*
X95423446Y-99475529D01*
X95413218Y-99497153D01*
X95400921Y-99517670D01*
X95386671Y-99536883D01*
X95370607Y-99554607D01*
X95352883Y-99570671D01*
X95333670Y-99584921D01*
X95313153Y-99597218D01*
X95291529Y-99607446D01*
X95269007Y-99615504D01*
X95245803Y-99621316D01*
X95222142Y-99624826D01*
X95198250Y-99626000D01*
X94285750Y-99626000D01*
X94261858Y-99624826D01*
X94238197Y-99621316D01*
X94214993Y-99615504D01*
X94192471Y-99607446D01*
X94170847Y-99597218D01*
X94150330Y-99584921D01*
X94131117Y-99570671D01*
X94113393Y-99554607D01*
X94097329Y-99536883D01*
X94083079Y-99517670D01*
X94070782Y-99497153D01*
X94060554Y-99475529D01*
X94052496Y-99453007D01*
X94046684Y-99429803D01*
X94043174Y-99406142D01*
X94042000Y-99382250D01*
X94042000Y-98894750D01*
X94043174Y-98870858D01*
X94046684Y-98847197D01*
X94052496Y-98823993D01*
X94060554Y-98801471D01*
X94070782Y-98779847D01*
X94083079Y-98759330D01*
X94097329Y-98740117D01*
X94113393Y-98722393D01*
X94131117Y-98706329D01*
X94150330Y-98692079D01*
X94170847Y-98679782D01*
X94192471Y-98669554D01*
X94214993Y-98661496D01*
X94238197Y-98655684D01*
X94261858Y-98652174D01*
X94285750Y-98651000D01*
X95198250Y-98651000D01*
X95222142Y-98652174D01*
X95222142Y-98652174D01*
G37*
D11*
X94742000Y-99138500D03*
D10*
G36*
X95222142Y-100527174D02*
G01*
X95245803Y-100530684D01*
X95269007Y-100536496D01*
X95291529Y-100544554D01*
X95313153Y-100554782D01*
X95333670Y-100567079D01*
X95352883Y-100581329D01*
X95370607Y-100597393D01*
X95386671Y-100615117D01*
X95400921Y-100634330D01*
X95413218Y-100654847D01*
X95423446Y-100676471D01*
X95431504Y-100698993D01*
X95437316Y-100722197D01*
X95440826Y-100745858D01*
X95442000Y-100769750D01*
X95442000Y-101257250D01*
X95440826Y-101281142D01*
X95437316Y-101304803D01*
X95431504Y-101328007D01*
X95423446Y-101350529D01*
X95413218Y-101372153D01*
X95400921Y-101392670D01*
X95386671Y-101411883D01*
X95370607Y-101429607D01*
X95352883Y-101445671D01*
X95333670Y-101459921D01*
X95313153Y-101472218D01*
X95291529Y-101482446D01*
X95269007Y-101490504D01*
X95245803Y-101496316D01*
X95222142Y-101499826D01*
X95198250Y-101501000D01*
X94285750Y-101501000D01*
X94261858Y-101499826D01*
X94238197Y-101496316D01*
X94214993Y-101490504D01*
X94192471Y-101482446D01*
X94170847Y-101472218D01*
X94150330Y-101459921D01*
X94131117Y-101445671D01*
X94113393Y-101429607D01*
X94097329Y-101411883D01*
X94083079Y-101392670D01*
X94070782Y-101372153D01*
X94060554Y-101350529D01*
X94052496Y-101328007D01*
X94046684Y-101304803D01*
X94043174Y-101281142D01*
X94042000Y-101257250D01*
X94042000Y-100769750D01*
X94043174Y-100745858D01*
X94046684Y-100722197D01*
X94052496Y-100698993D01*
X94060554Y-100676471D01*
X94070782Y-100654847D01*
X94083079Y-100634330D01*
X94097329Y-100615117D01*
X94113393Y-100597393D01*
X94131117Y-100581329D01*
X94150330Y-100567079D01*
X94170847Y-100554782D01*
X94192471Y-100544554D01*
X94214993Y-100536496D01*
X94238197Y-100530684D01*
X94261858Y-100527174D01*
X94285750Y-100526000D01*
X95198250Y-100526000D01*
X95222142Y-100527174D01*
X95222142Y-100527174D01*
G37*
D11*
X94742000Y-101013500D03*
D10*
G36*
X88484142Y-72453174D02*
G01*
X88507803Y-72456684D01*
X88531007Y-72462496D01*
X88553529Y-72470554D01*
X88575153Y-72480782D01*
X88595670Y-72493079D01*
X88614883Y-72507329D01*
X88632607Y-72523393D01*
X88648671Y-72541117D01*
X88662921Y-72560330D01*
X88675218Y-72580847D01*
X88685446Y-72602471D01*
X88693504Y-72624993D01*
X88699316Y-72648197D01*
X88702826Y-72671858D01*
X88704000Y-72695750D01*
X88704000Y-73608250D01*
X88702826Y-73632142D01*
X88699316Y-73655803D01*
X88693504Y-73679007D01*
X88685446Y-73701529D01*
X88675218Y-73723153D01*
X88662921Y-73743670D01*
X88648671Y-73762883D01*
X88632607Y-73780607D01*
X88614883Y-73796671D01*
X88595670Y-73810921D01*
X88575153Y-73823218D01*
X88553529Y-73833446D01*
X88531007Y-73841504D01*
X88507803Y-73847316D01*
X88484142Y-73850826D01*
X88460250Y-73852000D01*
X87972750Y-73852000D01*
X87948858Y-73850826D01*
X87925197Y-73847316D01*
X87901993Y-73841504D01*
X87879471Y-73833446D01*
X87857847Y-73823218D01*
X87837330Y-73810921D01*
X87818117Y-73796671D01*
X87800393Y-73780607D01*
X87784329Y-73762883D01*
X87770079Y-73743670D01*
X87757782Y-73723153D01*
X87747554Y-73701529D01*
X87739496Y-73679007D01*
X87733684Y-73655803D01*
X87730174Y-73632142D01*
X87729000Y-73608250D01*
X87729000Y-72695750D01*
X87730174Y-72671858D01*
X87733684Y-72648197D01*
X87739496Y-72624993D01*
X87747554Y-72602471D01*
X87757782Y-72580847D01*
X87770079Y-72560330D01*
X87784329Y-72541117D01*
X87800393Y-72523393D01*
X87818117Y-72507329D01*
X87837330Y-72493079D01*
X87857847Y-72480782D01*
X87879471Y-72470554D01*
X87901993Y-72462496D01*
X87925197Y-72456684D01*
X87948858Y-72453174D01*
X87972750Y-72452000D01*
X88460250Y-72452000D01*
X88484142Y-72453174D01*
X88484142Y-72453174D01*
G37*
D11*
X88216500Y-73152000D03*
D10*
G36*
X90359142Y-72453174D02*
G01*
X90382803Y-72456684D01*
X90406007Y-72462496D01*
X90428529Y-72470554D01*
X90450153Y-72480782D01*
X90470670Y-72493079D01*
X90489883Y-72507329D01*
X90507607Y-72523393D01*
X90523671Y-72541117D01*
X90537921Y-72560330D01*
X90550218Y-72580847D01*
X90560446Y-72602471D01*
X90568504Y-72624993D01*
X90574316Y-72648197D01*
X90577826Y-72671858D01*
X90579000Y-72695750D01*
X90579000Y-73608250D01*
X90577826Y-73632142D01*
X90574316Y-73655803D01*
X90568504Y-73679007D01*
X90560446Y-73701529D01*
X90550218Y-73723153D01*
X90537921Y-73743670D01*
X90523671Y-73762883D01*
X90507607Y-73780607D01*
X90489883Y-73796671D01*
X90470670Y-73810921D01*
X90450153Y-73823218D01*
X90428529Y-73833446D01*
X90406007Y-73841504D01*
X90382803Y-73847316D01*
X90359142Y-73850826D01*
X90335250Y-73852000D01*
X89847750Y-73852000D01*
X89823858Y-73850826D01*
X89800197Y-73847316D01*
X89776993Y-73841504D01*
X89754471Y-73833446D01*
X89732847Y-73823218D01*
X89712330Y-73810921D01*
X89693117Y-73796671D01*
X89675393Y-73780607D01*
X89659329Y-73762883D01*
X89645079Y-73743670D01*
X89632782Y-73723153D01*
X89622554Y-73701529D01*
X89614496Y-73679007D01*
X89608684Y-73655803D01*
X89605174Y-73632142D01*
X89604000Y-73608250D01*
X89604000Y-72695750D01*
X89605174Y-72671858D01*
X89608684Y-72648197D01*
X89614496Y-72624993D01*
X89622554Y-72602471D01*
X89632782Y-72580847D01*
X89645079Y-72560330D01*
X89659329Y-72541117D01*
X89675393Y-72523393D01*
X89693117Y-72507329D01*
X89712330Y-72493079D01*
X89732847Y-72480782D01*
X89754471Y-72470554D01*
X89776993Y-72462496D01*
X89800197Y-72456684D01*
X89823858Y-72453174D01*
X89847750Y-72452000D01*
X90335250Y-72452000D01*
X90359142Y-72453174D01*
X90359142Y-72453174D01*
G37*
D11*
X90091500Y-73152000D03*
D10*
G36*
X103821142Y-81089174D02*
G01*
X103844803Y-81092684D01*
X103868007Y-81098496D01*
X103890529Y-81106554D01*
X103912153Y-81116782D01*
X103932670Y-81129079D01*
X103951883Y-81143329D01*
X103969607Y-81159393D01*
X103985671Y-81177117D01*
X103999921Y-81196330D01*
X104012218Y-81216847D01*
X104022446Y-81238471D01*
X104030504Y-81260993D01*
X104036316Y-81284197D01*
X104039826Y-81307858D01*
X104041000Y-81331750D01*
X104041000Y-82244250D01*
X104039826Y-82268142D01*
X104036316Y-82291803D01*
X104030504Y-82315007D01*
X104022446Y-82337529D01*
X104012218Y-82359153D01*
X103999921Y-82379670D01*
X103985671Y-82398883D01*
X103969607Y-82416607D01*
X103951883Y-82432671D01*
X103932670Y-82446921D01*
X103912153Y-82459218D01*
X103890529Y-82469446D01*
X103868007Y-82477504D01*
X103844803Y-82483316D01*
X103821142Y-82486826D01*
X103797250Y-82488000D01*
X103309750Y-82488000D01*
X103285858Y-82486826D01*
X103262197Y-82483316D01*
X103238993Y-82477504D01*
X103216471Y-82469446D01*
X103194847Y-82459218D01*
X103174330Y-82446921D01*
X103155117Y-82432671D01*
X103137393Y-82416607D01*
X103121329Y-82398883D01*
X103107079Y-82379670D01*
X103094782Y-82359153D01*
X103084554Y-82337529D01*
X103076496Y-82315007D01*
X103070684Y-82291803D01*
X103067174Y-82268142D01*
X103066000Y-82244250D01*
X103066000Y-81331750D01*
X103067174Y-81307858D01*
X103070684Y-81284197D01*
X103076496Y-81260993D01*
X103084554Y-81238471D01*
X103094782Y-81216847D01*
X103107079Y-81196330D01*
X103121329Y-81177117D01*
X103137393Y-81159393D01*
X103155117Y-81143329D01*
X103174330Y-81129079D01*
X103194847Y-81116782D01*
X103216471Y-81106554D01*
X103238993Y-81098496D01*
X103262197Y-81092684D01*
X103285858Y-81089174D01*
X103309750Y-81088000D01*
X103797250Y-81088000D01*
X103821142Y-81089174D01*
X103821142Y-81089174D01*
G37*
D11*
X103553500Y-81788000D03*
D10*
G36*
X101946142Y-81089174D02*
G01*
X101969803Y-81092684D01*
X101993007Y-81098496D01*
X102015529Y-81106554D01*
X102037153Y-81116782D01*
X102057670Y-81129079D01*
X102076883Y-81143329D01*
X102094607Y-81159393D01*
X102110671Y-81177117D01*
X102124921Y-81196330D01*
X102137218Y-81216847D01*
X102147446Y-81238471D01*
X102155504Y-81260993D01*
X102161316Y-81284197D01*
X102164826Y-81307858D01*
X102166000Y-81331750D01*
X102166000Y-82244250D01*
X102164826Y-82268142D01*
X102161316Y-82291803D01*
X102155504Y-82315007D01*
X102147446Y-82337529D01*
X102137218Y-82359153D01*
X102124921Y-82379670D01*
X102110671Y-82398883D01*
X102094607Y-82416607D01*
X102076883Y-82432671D01*
X102057670Y-82446921D01*
X102037153Y-82459218D01*
X102015529Y-82469446D01*
X101993007Y-82477504D01*
X101969803Y-82483316D01*
X101946142Y-82486826D01*
X101922250Y-82488000D01*
X101434750Y-82488000D01*
X101410858Y-82486826D01*
X101387197Y-82483316D01*
X101363993Y-82477504D01*
X101341471Y-82469446D01*
X101319847Y-82459218D01*
X101299330Y-82446921D01*
X101280117Y-82432671D01*
X101262393Y-82416607D01*
X101246329Y-82398883D01*
X101232079Y-82379670D01*
X101219782Y-82359153D01*
X101209554Y-82337529D01*
X101201496Y-82315007D01*
X101195684Y-82291803D01*
X101192174Y-82268142D01*
X101191000Y-82244250D01*
X101191000Y-81331750D01*
X101192174Y-81307858D01*
X101195684Y-81284197D01*
X101201496Y-81260993D01*
X101209554Y-81238471D01*
X101219782Y-81216847D01*
X101232079Y-81196330D01*
X101246329Y-81177117D01*
X101262393Y-81159393D01*
X101280117Y-81143329D01*
X101299330Y-81129079D01*
X101319847Y-81116782D01*
X101341471Y-81106554D01*
X101363993Y-81098496D01*
X101387197Y-81092684D01*
X101410858Y-81089174D01*
X101434750Y-81088000D01*
X101922250Y-81088000D01*
X101946142Y-81089174D01*
X101946142Y-81089174D01*
G37*
D11*
X101678500Y-81788000D03*
D10*
G36*
X79314504Y-83769204D02*
G01*
X79338773Y-83772804D01*
X79362571Y-83778765D01*
X79385671Y-83787030D01*
X79407849Y-83797520D01*
X79428893Y-83810133D01*
X79448598Y-83824747D01*
X79466777Y-83841223D01*
X79483253Y-83859402D01*
X79497867Y-83879107D01*
X79510480Y-83900151D01*
X79520970Y-83922329D01*
X79529235Y-83945429D01*
X79535196Y-83969227D01*
X79538796Y-83993496D01*
X79540000Y-84018000D01*
X79540000Y-86118000D01*
X79538796Y-86142504D01*
X79535196Y-86166773D01*
X79529235Y-86190571D01*
X79520970Y-86213671D01*
X79510480Y-86235849D01*
X79497867Y-86256893D01*
X79483253Y-86276598D01*
X79466777Y-86294777D01*
X79448598Y-86311253D01*
X79428893Y-86325867D01*
X79407849Y-86338480D01*
X79385671Y-86348970D01*
X79362571Y-86357235D01*
X79338773Y-86363196D01*
X79314504Y-86366796D01*
X79290000Y-86368000D01*
X78190000Y-86368000D01*
X78165496Y-86366796D01*
X78141227Y-86363196D01*
X78117429Y-86357235D01*
X78094329Y-86348970D01*
X78072151Y-86338480D01*
X78051107Y-86325867D01*
X78031402Y-86311253D01*
X78013223Y-86294777D01*
X77996747Y-86276598D01*
X77982133Y-86256893D01*
X77969520Y-86235849D01*
X77959030Y-86213671D01*
X77950765Y-86190571D01*
X77944804Y-86166773D01*
X77941204Y-86142504D01*
X77940000Y-86118000D01*
X77940000Y-84018000D01*
X77941204Y-83993496D01*
X77944804Y-83969227D01*
X77950765Y-83945429D01*
X77959030Y-83922329D01*
X77969520Y-83900151D01*
X77982133Y-83879107D01*
X77996747Y-83859402D01*
X78013223Y-83841223D01*
X78031402Y-83824747D01*
X78051107Y-83810133D01*
X78072151Y-83797520D01*
X78094329Y-83787030D01*
X78117429Y-83778765D01*
X78141227Y-83772804D01*
X78165496Y-83769204D01*
X78190000Y-83768000D01*
X79290000Y-83768000D01*
X79314504Y-83769204D01*
X79314504Y-83769204D01*
G37*
D12*
X78740000Y-85068000D03*
D10*
G36*
X79314504Y-87369204D02*
G01*
X79338773Y-87372804D01*
X79362571Y-87378765D01*
X79385671Y-87387030D01*
X79407849Y-87397520D01*
X79428893Y-87410133D01*
X79448598Y-87424747D01*
X79466777Y-87441223D01*
X79483253Y-87459402D01*
X79497867Y-87479107D01*
X79510480Y-87500151D01*
X79520970Y-87522329D01*
X79529235Y-87545429D01*
X79535196Y-87569227D01*
X79538796Y-87593496D01*
X79540000Y-87618000D01*
X79540000Y-89718000D01*
X79538796Y-89742504D01*
X79535196Y-89766773D01*
X79529235Y-89790571D01*
X79520970Y-89813671D01*
X79510480Y-89835849D01*
X79497867Y-89856893D01*
X79483253Y-89876598D01*
X79466777Y-89894777D01*
X79448598Y-89911253D01*
X79428893Y-89925867D01*
X79407849Y-89938480D01*
X79385671Y-89948970D01*
X79362571Y-89957235D01*
X79338773Y-89963196D01*
X79314504Y-89966796D01*
X79290000Y-89968000D01*
X78190000Y-89968000D01*
X78165496Y-89966796D01*
X78141227Y-89963196D01*
X78117429Y-89957235D01*
X78094329Y-89948970D01*
X78072151Y-89938480D01*
X78051107Y-89925867D01*
X78031402Y-89911253D01*
X78013223Y-89894777D01*
X77996747Y-89876598D01*
X77982133Y-89856893D01*
X77969520Y-89835849D01*
X77959030Y-89813671D01*
X77950765Y-89790571D01*
X77944804Y-89766773D01*
X77941204Y-89742504D01*
X77940000Y-89718000D01*
X77940000Y-87618000D01*
X77941204Y-87593496D01*
X77944804Y-87569227D01*
X77950765Y-87545429D01*
X77959030Y-87522329D01*
X77969520Y-87500151D01*
X77982133Y-87479107D01*
X77996747Y-87459402D01*
X78013223Y-87441223D01*
X78031402Y-87424747D01*
X78051107Y-87410133D01*
X78072151Y-87397520D01*
X78094329Y-87387030D01*
X78117429Y-87378765D01*
X78141227Y-87372804D01*
X78165496Y-87369204D01*
X78190000Y-87368000D01*
X79290000Y-87368000D01*
X79314504Y-87369204D01*
X79314504Y-87369204D01*
G37*
D12*
X78740000Y-88668000D03*
D10*
G36*
X79314504Y-94735204D02*
G01*
X79338773Y-94738804D01*
X79362571Y-94744765D01*
X79385671Y-94753030D01*
X79407849Y-94763520D01*
X79428893Y-94776133D01*
X79448598Y-94790747D01*
X79466777Y-94807223D01*
X79483253Y-94825402D01*
X79497867Y-94845107D01*
X79510480Y-94866151D01*
X79520970Y-94888329D01*
X79529235Y-94911429D01*
X79535196Y-94935227D01*
X79538796Y-94959496D01*
X79540000Y-94984000D01*
X79540000Y-97084000D01*
X79538796Y-97108504D01*
X79535196Y-97132773D01*
X79529235Y-97156571D01*
X79520970Y-97179671D01*
X79510480Y-97201849D01*
X79497867Y-97222893D01*
X79483253Y-97242598D01*
X79466777Y-97260777D01*
X79448598Y-97277253D01*
X79428893Y-97291867D01*
X79407849Y-97304480D01*
X79385671Y-97314970D01*
X79362571Y-97323235D01*
X79338773Y-97329196D01*
X79314504Y-97332796D01*
X79290000Y-97334000D01*
X78190000Y-97334000D01*
X78165496Y-97332796D01*
X78141227Y-97329196D01*
X78117429Y-97323235D01*
X78094329Y-97314970D01*
X78072151Y-97304480D01*
X78051107Y-97291867D01*
X78031402Y-97277253D01*
X78013223Y-97260777D01*
X77996747Y-97242598D01*
X77982133Y-97222893D01*
X77969520Y-97201849D01*
X77959030Y-97179671D01*
X77950765Y-97156571D01*
X77944804Y-97132773D01*
X77941204Y-97108504D01*
X77940000Y-97084000D01*
X77940000Y-94984000D01*
X77941204Y-94959496D01*
X77944804Y-94935227D01*
X77950765Y-94911429D01*
X77959030Y-94888329D01*
X77969520Y-94866151D01*
X77982133Y-94845107D01*
X77996747Y-94825402D01*
X78013223Y-94807223D01*
X78031402Y-94790747D01*
X78051107Y-94776133D01*
X78072151Y-94763520D01*
X78094329Y-94753030D01*
X78117429Y-94744765D01*
X78141227Y-94738804D01*
X78165496Y-94735204D01*
X78190000Y-94734000D01*
X79290000Y-94734000D01*
X79314504Y-94735204D01*
X79314504Y-94735204D01*
G37*
D12*
X78740000Y-96034000D03*
D10*
G36*
X79314504Y-91135204D02*
G01*
X79338773Y-91138804D01*
X79362571Y-91144765D01*
X79385671Y-91153030D01*
X79407849Y-91163520D01*
X79428893Y-91176133D01*
X79448598Y-91190747D01*
X79466777Y-91207223D01*
X79483253Y-91225402D01*
X79497867Y-91245107D01*
X79510480Y-91266151D01*
X79520970Y-91288329D01*
X79529235Y-91311429D01*
X79535196Y-91335227D01*
X79538796Y-91359496D01*
X79540000Y-91384000D01*
X79540000Y-93484000D01*
X79538796Y-93508504D01*
X79535196Y-93532773D01*
X79529235Y-93556571D01*
X79520970Y-93579671D01*
X79510480Y-93601849D01*
X79497867Y-93622893D01*
X79483253Y-93642598D01*
X79466777Y-93660777D01*
X79448598Y-93677253D01*
X79428893Y-93691867D01*
X79407849Y-93704480D01*
X79385671Y-93714970D01*
X79362571Y-93723235D01*
X79338773Y-93729196D01*
X79314504Y-93732796D01*
X79290000Y-93734000D01*
X78190000Y-93734000D01*
X78165496Y-93732796D01*
X78141227Y-93729196D01*
X78117429Y-93723235D01*
X78094329Y-93714970D01*
X78072151Y-93704480D01*
X78051107Y-93691867D01*
X78031402Y-93677253D01*
X78013223Y-93660777D01*
X77996747Y-93642598D01*
X77982133Y-93622893D01*
X77969520Y-93601849D01*
X77959030Y-93579671D01*
X77950765Y-93556571D01*
X77944804Y-93532773D01*
X77941204Y-93508504D01*
X77940000Y-93484000D01*
X77940000Y-91384000D01*
X77941204Y-91359496D01*
X77944804Y-91335227D01*
X77950765Y-91311429D01*
X77959030Y-91288329D01*
X77969520Y-91266151D01*
X77982133Y-91245107D01*
X77996747Y-91225402D01*
X78013223Y-91207223D01*
X78031402Y-91190747D01*
X78051107Y-91176133D01*
X78072151Y-91163520D01*
X78094329Y-91153030D01*
X78117429Y-91144765D01*
X78141227Y-91138804D01*
X78165496Y-91135204D01*
X78190000Y-91134000D01*
X79290000Y-91134000D01*
X79314504Y-91135204D01*
X79314504Y-91135204D01*
G37*
D12*
X78740000Y-92434000D03*
D10*
G36*
X79437142Y-130365174D02*
G01*
X79460803Y-130368684D01*
X79484007Y-130374496D01*
X79506529Y-130382554D01*
X79528153Y-130392782D01*
X79548670Y-130405079D01*
X79567883Y-130419329D01*
X79585607Y-130435393D01*
X79601671Y-130453117D01*
X79615921Y-130472330D01*
X79628218Y-130492847D01*
X79638446Y-130514471D01*
X79646504Y-130536993D01*
X79652316Y-130560197D01*
X79655826Y-130583858D01*
X79657000Y-130607750D01*
X79657000Y-131520250D01*
X79655826Y-131544142D01*
X79652316Y-131567803D01*
X79646504Y-131591007D01*
X79638446Y-131613529D01*
X79628218Y-131635153D01*
X79615921Y-131655670D01*
X79601671Y-131674883D01*
X79585607Y-131692607D01*
X79567883Y-131708671D01*
X79548670Y-131722921D01*
X79528153Y-131735218D01*
X79506529Y-131745446D01*
X79484007Y-131753504D01*
X79460803Y-131759316D01*
X79437142Y-131762826D01*
X79413250Y-131764000D01*
X78925750Y-131764000D01*
X78901858Y-131762826D01*
X78878197Y-131759316D01*
X78854993Y-131753504D01*
X78832471Y-131745446D01*
X78810847Y-131735218D01*
X78790330Y-131722921D01*
X78771117Y-131708671D01*
X78753393Y-131692607D01*
X78737329Y-131674883D01*
X78723079Y-131655670D01*
X78710782Y-131635153D01*
X78700554Y-131613529D01*
X78692496Y-131591007D01*
X78686684Y-131567803D01*
X78683174Y-131544142D01*
X78682000Y-131520250D01*
X78682000Y-130607750D01*
X78683174Y-130583858D01*
X78686684Y-130560197D01*
X78692496Y-130536993D01*
X78700554Y-130514471D01*
X78710782Y-130492847D01*
X78723079Y-130472330D01*
X78737329Y-130453117D01*
X78753393Y-130435393D01*
X78771117Y-130419329D01*
X78790330Y-130405079D01*
X78810847Y-130392782D01*
X78832471Y-130382554D01*
X78854993Y-130374496D01*
X78878197Y-130368684D01*
X78901858Y-130365174D01*
X78925750Y-130364000D01*
X79413250Y-130364000D01*
X79437142Y-130365174D01*
X79437142Y-130365174D01*
G37*
D11*
X79169500Y-131064000D03*
D10*
G36*
X77562142Y-130365174D02*
G01*
X77585803Y-130368684D01*
X77609007Y-130374496D01*
X77631529Y-130382554D01*
X77653153Y-130392782D01*
X77673670Y-130405079D01*
X77692883Y-130419329D01*
X77710607Y-130435393D01*
X77726671Y-130453117D01*
X77740921Y-130472330D01*
X77753218Y-130492847D01*
X77763446Y-130514471D01*
X77771504Y-130536993D01*
X77777316Y-130560197D01*
X77780826Y-130583858D01*
X77782000Y-130607750D01*
X77782000Y-131520250D01*
X77780826Y-131544142D01*
X77777316Y-131567803D01*
X77771504Y-131591007D01*
X77763446Y-131613529D01*
X77753218Y-131635153D01*
X77740921Y-131655670D01*
X77726671Y-131674883D01*
X77710607Y-131692607D01*
X77692883Y-131708671D01*
X77673670Y-131722921D01*
X77653153Y-131735218D01*
X77631529Y-131745446D01*
X77609007Y-131753504D01*
X77585803Y-131759316D01*
X77562142Y-131762826D01*
X77538250Y-131764000D01*
X77050750Y-131764000D01*
X77026858Y-131762826D01*
X77003197Y-131759316D01*
X76979993Y-131753504D01*
X76957471Y-131745446D01*
X76935847Y-131735218D01*
X76915330Y-131722921D01*
X76896117Y-131708671D01*
X76878393Y-131692607D01*
X76862329Y-131674883D01*
X76848079Y-131655670D01*
X76835782Y-131635153D01*
X76825554Y-131613529D01*
X76817496Y-131591007D01*
X76811684Y-131567803D01*
X76808174Y-131544142D01*
X76807000Y-131520250D01*
X76807000Y-130607750D01*
X76808174Y-130583858D01*
X76811684Y-130560197D01*
X76817496Y-130536993D01*
X76825554Y-130514471D01*
X76835782Y-130492847D01*
X76848079Y-130472330D01*
X76862329Y-130453117D01*
X76878393Y-130435393D01*
X76896117Y-130419329D01*
X76915330Y-130405079D01*
X76935847Y-130392782D01*
X76957471Y-130382554D01*
X76979993Y-130374496D01*
X77003197Y-130368684D01*
X77026858Y-130365174D01*
X77050750Y-130364000D01*
X77538250Y-130364000D01*
X77562142Y-130365174D01*
X77562142Y-130365174D01*
G37*
D11*
X77294500Y-131064000D03*
D10*
G36*
X69434142Y-105473174D02*
G01*
X69457803Y-105476684D01*
X69481007Y-105482496D01*
X69503529Y-105490554D01*
X69525153Y-105500782D01*
X69545670Y-105513079D01*
X69564883Y-105527329D01*
X69582607Y-105543393D01*
X69598671Y-105561117D01*
X69612921Y-105580330D01*
X69625218Y-105600847D01*
X69635446Y-105622471D01*
X69643504Y-105644993D01*
X69649316Y-105668197D01*
X69652826Y-105691858D01*
X69654000Y-105715750D01*
X69654000Y-106628250D01*
X69652826Y-106652142D01*
X69649316Y-106675803D01*
X69643504Y-106699007D01*
X69635446Y-106721529D01*
X69625218Y-106743153D01*
X69612921Y-106763670D01*
X69598671Y-106782883D01*
X69582607Y-106800607D01*
X69564883Y-106816671D01*
X69545670Y-106830921D01*
X69525153Y-106843218D01*
X69503529Y-106853446D01*
X69481007Y-106861504D01*
X69457803Y-106867316D01*
X69434142Y-106870826D01*
X69410250Y-106872000D01*
X68922750Y-106872000D01*
X68898858Y-106870826D01*
X68875197Y-106867316D01*
X68851993Y-106861504D01*
X68829471Y-106853446D01*
X68807847Y-106843218D01*
X68787330Y-106830921D01*
X68768117Y-106816671D01*
X68750393Y-106800607D01*
X68734329Y-106782883D01*
X68720079Y-106763670D01*
X68707782Y-106743153D01*
X68697554Y-106721529D01*
X68689496Y-106699007D01*
X68683684Y-106675803D01*
X68680174Y-106652142D01*
X68679000Y-106628250D01*
X68679000Y-105715750D01*
X68680174Y-105691858D01*
X68683684Y-105668197D01*
X68689496Y-105644993D01*
X68697554Y-105622471D01*
X68707782Y-105600847D01*
X68720079Y-105580330D01*
X68734329Y-105561117D01*
X68750393Y-105543393D01*
X68768117Y-105527329D01*
X68787330Y-105513079D01*
X68807847Y-105500782D01*
X68829471Y-105490554D01*
X68851993Y-105482496D01*
X68875197Y-105476684D01*
X68898858Y-105473174D01*
X68922750Y-105472000D01*
X69410250Y-105472000D01*
X69434142Y-105473174D01*
X69434142Y-105473174D01*
G37*
D11*
X69166500Y-106172000D03*
D10*
G36*
X71309142Y-105473174D02*
G01*
X71332803Y-105476684D01*
X71356007Y-105482496D01*
X71378529Y-105490554D01*
X71400153Y-105500782D01*
X71420670Y-105513079D01*
X71439883Y-105527329D01*
X71457607Y-105543393D01*
X71473671Y-105561117D01*
X71487921Y-105580330D01*
X71500218Y-105600847D01*
X71510446Y-105622471D01*
X71518504Y-105644993D01*
X71524316Y-105668197D01*
X71527826Y-105691858D01*
X71529000Y-105715750D01*
X71529000Y-106628250D01*
X71527826Y-106652142D01*
X71524316Y-106675803D01*
X71518504Y-106699007D01*
X71510446Y-106721529D01*
X71500218Y-106743153D01*
X71487921Y-106763670D01*
X71473671Y-106782883D01*
X71457607Y-106800607D01*
X71439883Y-106816671D01*
X71420670Y-106830921D01*
X71400153Y-106843218D01*
X71378529Y-106853446D01*
X71356007Y-106861504D01*
X71332803Y-106867316D01*
X71309142Y-106870826D01*
X71285250Y-106872000D01*
X70797750Y-106872000D01*
X70773858Y-106870826D01*
X70750197Y-106867316D01*
X70726993Y-106861504D01*
X70704471Y-106853446D01*
X70682847Y-106843218D01*
X70662330Y-106830921D01*
X70643117Y-106816671D01*
X70625393Y-106800607D01*
X70609329Y-106782883D01*
X70595079Y-106763670D01*
X70582782Y-106743153D01*
X70572554Y-106721529D01*
X70564496Y-106699007D01*
X70558684Y-106675803D01*
X70555174Y-106652142D01*
X70554000Y-106628250D01*
X70554000Y-105715750D01*
X70555174Y-105691858D01*
X70558684Y-105668197D01*
X70564496Y-105644993D01*
X70572554Y-105622471D01*
X70582782Y-105600847D01*
X70595079Y-105580330D01*
X70609329Y-105561117D01*
X70625393Y-105543393D01*
X70643117Y-105527329D01*
X70662330Y-105513079D01*
X70682847Y-105500782D01*
X70704471Y-105490554D01*
X70726993Y-105482496D01*
X70750197Y-105476684D01*
X70773858Y-105473174D01*
X70797750Y-105472000D01*
X71285250Y-105472000D01*
X71309142Y-105473174D01*
X71309142Y-105473174D01*
G37*
D11*
X71041500Y-106172000D03*
D10*
G36*
X83247142Y-130365174D02*
G01*
X83270803Y-130368684D01*
X83294007Y-130374496D01*
X83316529Y-130382554D01*
X83338153Y-130392782D01*
X83358670Y-130405079D01*
X83377883Y-130419329D01*
X83395607Y-130435393D01*
X83411671Y-130453117D01*
X83425921Y-130472330D01*
X83438218Y-130492847D01*
X83448446Y-130514471D01*
X83456504Y-130536993D01*
X83462316Y-130560197D01*
X83465826Y-130583858D01*
X83467000Y-130607750D01*
X83467000Y-131520250D01*
X83465826Y-131544142D01*
X83462316Y-131567803D01*
X83456504Y-131591007D01*
X83448446Y-131613529D01*
X83438218Y-131635153D01*
X83425921Y-131655670D01*
X83411671Y-131674883D01*
X83395607Y-131692607D01*
X83377883Y-131708671D01*
X83358670Y-131722921D01*
X83338153Y-131735218D01*
X83316529Y-131745446D01*
X83294007Y-131753504D01*
X83270803Y-131759316D01*
X83247142Y-131762826D01*
X83223250Y-131764000D01*
X82735750Y-131764000D01*
X82711858Y-131762826D01*
X82688197Y-131759316D01*
X82664993Y-131753504D01*
X82642471Y-131745446D01*
X82620847Y-131735218D01*
X82600330Y-131722921D01*
X82581117Y-131708671D01*
X82563393Y-131692607D01*
X82547329Y-131674883D01*
X82533079Y-131655670D01*
X82520782Y-131635153D01*
X82510554Y-131613529D01*
X82502496Y-131591007D01*
X82496684Y-131567803D01*
X82493174Y-131544142D01*
X82492000Y-131520250D01*
X82492000Y-130607750D01*
X82493174Y-130583858D01*
X82496684Y-130560197D01*
X82502496Y-130536993D01*
X82510554Y-130514471D01*
X82520782Y-130492847D01*
X82533079Y-130472330D01*
X82547329Y-130453117D01*
X82563393Y-130435393D01*
X82581117Y-130419329D01*
X82600330Y-130405079D01*
X82620847Y-130392782D01*
X82642471Y-130382554D01*
X82664993Y-130374496D01*
X82688197Y-130368684D01*
X82711858Y-130365174D01*
X82735750Y-130364000D01*
X83223250Y-130364000D01*
X83247142Y-130365174D01*
X83247142Y-130365174D01*
G37*
D11*
X82979500Y-131064000D03*
D10*
G36*
X81372142Y-130365174D02*
G01*
X81395803Y-130368684D01*
X81419007Y-130374496D01*
X81441529Y-130382554D01*
X81463153Y-130392782D01*
X81483670Y-130405079D01*
X81502883Y-130419329D01*
X81520607Y-130435393D01*
X81536671Y-130453117D01*
X81550921Y-130472330D01*
X81563218Y-130492847D01*
X81573446Y-130514471D01*
X81581504Y-130536993D01*
X81587316Y-130560197D01*
X81590826Y-130583858D01*
X81592000Y-130607750D01*
X81592000Y-131520250D01*
X81590826Y-131544142D01*
X81587316Y-131567803D01*
X81581504Y-131591007D01*
X81573446Y-131613529D01*
X81563218Y-131635153D01*
X81550921Y-131655670D01*
X81536671Y-131674883D01*
X81520607Y-131692607D01*
X81502883Y-131708671D01*
X81483670Y-131722921D01*
X81463153Y-131735218D01*
X81441529Y-131745446D01*
X81419007Y-131753504D01*
X81395803Y-131759316D01*
X81372142Y-131762826D01*
X81348250Y-131764000D01*
X80860750Y-131764000D01*
X80836858Y-131762826D01*
X80813197Y-131759316D01*
X80789993Y-131753504D01*
X80767471Y-131745446D01*
X80745847Y-131735218D01*
X80725330Y-131722921D01*
X80706117Y-131708671D01*
X80688393Y-131692607D01*
X80672329Y-131674883D01*
X80658079Y-131655670D01*
X80645782Y-131635153D01*
X80635554Y-131613529D01*
X80627496Y-131591007D01*
X80621684Y-131567803D01*
X80618174Y-131544142D01*
X80617000Y-131520250D01*
X80617000Y-130607750D01*
X80618174Y-130583858D01*
X80621684Y-130560197D01*
X80627496Y-130536993D01*
X80635554Y-130514471D01*
X80645782Y-130492847D01*
X80658079Y-130472330D01*
X80672329Y-130453117D01*
X80688393Y-130435393D01*
X80706117Y-130419329D01*
X80725330Y-130405079D01*
X80745847Y-130392782D01*
X80767471Y-130382554D01*
X80789993Y-130374496D01*
X80813197Y-130368684D01*
X80836858Y-130365174D01*
X80860750Y-130364000D01*
X81348250Y-130364000D01*
X81372142Y-130365174D01*
X81372142Y-130365174D01*
G37*
D11*
X81104500Y-131064000D03*
D10*
G36*
X101692142Y-87947174D02*
G01*
X101715803Y-87950684D01*
X101739007Y-87956496D01*
X101761529Y-87964554D01*
X101783153Y-87974782D01*
X101803670Y-87987079D01*
X101822883Y-88001329D01*
X101840607Y-88017393D01*
X101856671Y-88035117D01*
X101870921Y-88054330D01*
X101883218Y-88074847D01*
X101893446Y-88096471D01*
X101901504Y-88118993D01*
X101907316Y-88142197D01*
X101910826Y-88165858D01*
X101912000Y-88189750D01*
X101912000Y-89102250D01*
X101910826Y-89126142D01*
X101907316Y-89149803D01*
X101901504Y-89173007D01*
X101893446Y-89195529D01*
X101883218Y-89217153D01*
X101870921Y-89237670D01*
X101856671Y-89256883D01*
X101840607Y-89274607D01*
X101822883Y-89290671D01*
X101803670Y-89304921D01*
X101783153Y-89317218D01*
X101761529Y-89327446D01*
X101739007Y-89335504D01*
X101715803Y-89341316D01*
X101692142Y-89344826D01*
X101668250Y-89346000D01*
X101180750Y-89346000D01*
X101156858Y-89344826D01*
X101133197Y-89341316D01*
X101109993Y-89335504D01*
X101087471Y-89327446D01*
X101065847Y-89317218D01*
X101045330Y-89304921D01*
X101026117Y-89290671D01*
X101008393Y-89274607D01*
X100992329Y-89256883D01*
X100978079Y-89237670D01*
X100965782Y-89217153D01*
X100955554Y-89195529D01*
X100947496Y-89173007D01*
X100941684Y-89149803D01*
X100938174Y-89126142D01*
X100937000Y-89102250D01*
X100937000Y-88189750D01*
X100938174Y-88165858D01*
X100941684Y-88142197D01*
X100947496Y-88118993D01*
X100955554Y-88096471D01*
X100965782Y-88074847D01*
X100978079Y-88054330D01*
X100992329Y-88035117D01*
X101008393Y-88017393D01*
X101026117Y-88001329D01*
X101045330Y-87987079D01*
X101065847Y-87974782D01*
X101087471Y-87964554D01*
X101109993Y-87956496D01*
X101133197Y-87950684D01*
X101156858Y-87947174D01*
X101180750Y-87946000D01*
X101668250Y-87946000D01*
X101692142Y-87947174D01*
X101692142Y-87947174D01*
G37*
D11*
X101424500Y-88646000D03*
D10*
G36*
X103567142Y-87947174D02*
G01*
X103590803Y-87950684D01*
X103614007Y-87956496D01*
X103636529Y-87964554D01*
X103658153Y-87974782D01*
X103678670Y-87987079D01*
X103697883Y-88001329D01*
X103715607Y-88017393D01*
X103731671Y-88035117D01*
X103745921Y-88054330D01*
X103758218Y-88074847D01*
X103768446Y-88096471D01*
X103776504Y-88118993D01*
X103782316Y-88142197D01*
X103785826Y-88165858D01*
X103787000Y-88189750D01*
X103787000Y-89102250D01*
X103785826Y-89126142D01*
X103782316Y-89149803D01*
X103776504Y-89173007D01*
X103768446Y-89195529D01*
X103758218Y-89217153D01*
X103745921Y-89237670D01*
X103731671Y-89256883D01*
X103715607Y-89274607D01*
X103697883Y-89290671D01*
X103678670Y-89304921D01*
X103658153Y-89317218D01*
X103636529Y-89327446D01*
X103614007Y-89335504D01*
X103590803Y-89341316D01*
X103567142Y-89344826D01*
X103543250Y-89346000D01*
X103055750Y-89346000D01*
X103031858Y-89344826D01*
X103008197Y-89341316D01*
X102984993Y-89335504D01*
X102962471Y-89327446D01*
X102940847Y-89317218D01*
X102920330Y-89304921D01*
X102901117Y-89290671D01*
X102883393Y-89274607D01*
X102867329Y-89256883D01*
X102853079Y-89237670D01*
X102840782Y-89217153D01*
X102830554Y-89195529D01*
X102822496Y-89173007D01*
X102816684Y-89149803D01*
X102813174Y-89126142D01*
X102812000Y-89102250D01*
X102812000Y-88189750D01*
X102813174Y-88165858D01*
X102816684Y-88142197D01*
X102822496Y-88118993D01*
X102830554Y-88096471D01*
X102840782Y-88074847D01*
X102853079Y-88054330D01*
X102867329Y-88035117D01*
X102883393Y-88017393D01*
X102901117Y-88001329D01*
X102920330Y-87987079D01*
X102940847Y-87974782D01*
X102962471Y-87964554D01*
X102984993Y-87956496D01*
X103008197Y-87950684D01*
X103031858Y-87947174D01*
X103055750Y-87946000D01*
X103543250Y-87946000D01*
X103567142Y-87947174D01*
X103567142Y-87947174D01*
G37*
D11*
X103299500Y-88646000D03*
D10*
G36*
X96201142Y-93027174D02*
G01*
X96224803Y-93030684D01*
X96248007Y-93036496D01*
X96270529Y-93044554D01*
X96292153Y-93054782D01*
X96312670Y-93067079D01*
X96331883Y-93081329D01*
X96349607Y-93097393D01*
X96365671Y-93115117D01*
X96379921Y-93134330D01*
X96392218Y-93154847D01*
X96402446Y-93176471D01*
X96410504Y-93198993D01*
X96416316Y-93222197D01*
X96419826Y-93245858D01*
X96421000Y-93269750D01*
X96421000Y-94182250D01*
X96419826Y-94206142D01*
X96416316Y-94229803D01*
X96410504Y-94253007D01*
X96402446Y-94275529D01*
X96392218Y-94297153D01*
X96379921Y-94317670D01*
X96365671Y-94336883D01*
X96349607Y-94354607D01*
X96331883Y-94370671D01*
X96312670Y-94384921D01*
X96292153Y-94397218D01*
X96270529Y-94407446D01*
X96248007Y-94415504D01*
X96224803Y-94421316D01*
X96201142Y-94424826D01*
X96177250Y-94426000D01*
X95689750Y-94426000D01*
X95665858Y-94424826D01*
X95642197Y-94421316D01*
X95618993Y-94415504D01*
X95596471Y-94407446D01*
X95574847Y-94397218D01*
X95554330Y-94384921D01*
X95535117Y-94370671D01*
X95517393Y-94354607D01*
X95501329Y-94336883D01*
X95487079Y-94317670D01*
X95474782Y-94297153D01*
X95464554Y-94275529D01*
X95456496Y-94253007D01*
X95450684Y-94229803D01*
X95447174Y-94206142D01*
X95446000Y-94182250D01*
X95446000Y-93269750D01*
X95447174Y-93245858D01*
X95450684Y-93222197D01*
X95456496Y-93198993D01*
X95464554Y-93176471D01*
X95474782Y-93154847D01*
X95487079Y-93134330D01*
X95501329Y-93115117D01*
X95517393Y-93097393D01*
X95535117Y-93081329D01*
X95554330Y-93067079D01*
X95574847Y-93054782D01*
X95596471Y-93044554D01*
X95618993Y-93036496D01*
X95642197Y-93030684D01*
X95665858Y-93027174D01*
X95689750Y-93026000D01*
X96177250Y-93026000D01*
X96201142Y-93027174D01*
X96201142Y-93027174D01*
G37*
D11*
X95933500Y-93726000D03*
D10*
G36*
X94326142Y-93027174D02*
G01*
X94349803Y-93030684D01*
X94373007Y-93036496D01*
X94395529Y-93044554D01*
X94417153Y-93054782D01*
X94437670Y-93067079D01*
X94456883Y-93081329D01*
X94474607Y-93097393D01*
X94490671Y-93115117D01*
X94504921Y-93134330D01*
X94517218Y-93154847D01*
X94527446Y-93176471D01*
X94535504Y-93198993D01*
X94541316Y-93222197D01*
X94544826Y-93245858D01*
X94546000Y-93269750D01*
X94546000Y-94182250D01*
X94544826Y-94206142D01*
X94541316Y-94229803D01*
X94535504Y-94253007D01*
X94527446Y-94275529D01*
X94517218Y-94297153D01*
X94504921Y-94317670D01*
X94490671Y-94336883D01*
X94474607Y-94354607D01*
X94456883Y-94370671D01*
X94437670Y-94384921D01*
X94417153Y-94397218D01*
X94395529Y-94407446D01*
X94373007Y-94415504D01*
X94349803Y-94421316D01*
X94326142Y-94424826D01*
X94302250Y-94426000D01*
X93814750Y-94426000D01*
X93790858Y-94424826D01*
X93767197Y-94421316D01*
X93743993Y-94415504D01*
X93721471Y-94407446D01*
X93699847Y-94397218D01*
X93679330Y-94384921D01*
X93660117Y-94370671D01*
X93642393Y-94354607D01*
X93626329Y-94336883D01*
X93612079Y-94317670D01*
X93599782Y-94297153D01*
X93589554Y-94275529D01*
X93581496Y-94253007D01*
X93575684Y-94229803D01*
X93572174Y-94206142D01*
X93571000Y-94182250D01*
X93571000Y-93269750D01*
X93572174Y-93245858D01*
X93575684Y-93222197D01*
X93581496Y-93198993D01*
X93589554Y-93176471D01*
X93599782Y-93154847D01*
X93612079Y-93134330D01*
X93626329Y-93115117D01*
X93642393Y-93097393D01*
X93660117Y-93081329D01*
X93679330Y-93067079D01*
X93699847Y-93054782D01*
X93721471Y-93044554D01*
X93743993Y-93036496D01*
X93767197Y-93030684D01*
X93790858Y-93027174D01*
X93814750Y-93026000D01*
X94302250Y-93026000D01*
X94326142Y-93027174D01*
X94326142Y-93027174D01*
G37*
D11*
X94058500Y-93726000D03*
D10*
G36*
X71309142Y-112077174D02*
G01*
X71332803Y-112080684D01*
X71356007Y-112086496D01*
X71378529Y-112094554D01*
X71400153Y-112104782D01*
X71420670Y-112117079D01*
X71439883Y-112131329D01*
X71457607Y-112147393D01*
X71473671Y-112165117D01*
X71487921Y-112184330D01*
X71500218Y-112204847D01*
X71510446Y-112226471D01*
X71518504Y-112248993D01*
X71524316Y-112272197D01*
X71527826Y-112295858D01*
X71529000Y-112319750D01*
X71529000Y-113232250D01*
X71527826Y-113256142D01*
X71524316Y-113279803D01*
X71518504Y-113303007D01*
X71510446Y-113325529D01*
X71500218Y-113347153D01*
X71487921Y-113367670D01*
X71473671Y-113386883D01*
X71457607Y-113404607D01*
X71439883Y-113420671D01*
X71420670Y-113434921D01*
X71400153Y-113447218D01*
X71378529Y-113457446D01*
X71356007Y-113465504D01*
X71332803Y-113471316D01*
X71309142Y-113474826D01*
X71285250Y-113476000D01*
X70797750Y-113476000D01*
X70773858Y-113474826D01*
X70750197Y-113471316D01*
X70726993Y-113465504D01*
X70704471Y-113457446D01*
X70682847Y-113447218D01*
X70662330Y-113434921D01*
X70643117Y-113420671D01*
X70625393Y-113404607D01*
X70609329Y-113386883D01*
X70595079Y-113367670D01*
X70582782Y-113347153D01*
X70572554Y-113325529D01*
X70564496Y-113303007D01*
X70558684Y-113279803D01*
X70555174Y-113256142D01*
X70554000Y-113232250D01*
X70554000Y-112319750D01*
X70555174Y-112295858D01*
X70558684Y-112272197D01*
X70564496Y-112248993D01*
X70572554Y-112226471D01*
X70582782Y-112204847D01*
X70595079Y-112184330D01*
X70609329Y-112165117D01*
X70625393Y-112147393D01*
X70643117Y-112131329D01*
X70662330Y-112117079D01*
X70682847Y-112104782D01*
X70704471Y-112094554D01*
X70726993Y-112086496D01*
X70750197Y-112080684D01*
X70773858Y-112077174D01*
X70797750Y-112076000D01*
X71285250Y-112076000D01*
X71309142Y-112077174D01*
X71309142Y-112077174D01*
G37*
D11*
X71041500Y-112776000D03*
D10*
G36*
X69434142Y-112077174D02*
G01*
X69457803Y-112080684D01*
X69481007Y-112086496D01*
X69503529Y-112094554D01*
X69525153Y-112104782D01*
X69545670Y-112117079D01*
X69564883Y-112131329D01*
X69582607Y-112147393D01*
X69598671Y-112165117D01*
X69612921Y-112184330D01*
X69625218Y-112204847D01*
X69635446Y-112226471D01*
X69643504Y-112248993D01*
X69649316Y-112272197D01*
X69652826Y-112295858D01*
X69654000Y-112319750D01*
X69654000Y-113232250D01*
X69652826Y-113256142D01*
X69649316Y-113279803D01*
X69643504Y-113303007D01*
X69635446Y-113325529D01*
X69625218Y-113347153D01*
X69612921Y-113367670D01*
X69598671Y-113386883D01*
X69582607Y-113404607D01*
X69564883Y-113420671D01*
X69545670Y-113434921D01*
X69525153Y-113447218D01*
X69503529Y-113457446D01*
X69481007Y-113465504D01*
X69457803Y-113471316D01*
X69434142Y-113474826D01*
X69410250Y-113476000D01*
X68922750Y-113476000D01*
X68898858Y-113474826D01*
X68875197Y-113471316D01*
X68851993Y-113465504D01*
X68829471Y-113457446D01*
X68807847Y-113447218D01*
X68787330Y-113434921D01*
X68768117Y-113420671D01*
X68750393Y-113404607D01*
X68734329Y-113386883D01*
X68720079Y-113367670D01*
X68707782Y-113347153D01*
X68697554Y-113325529D01*
X68689496Y-113303007D01*
X68683684Y-113279803D01*
X68680174Y-113256142D01*
X68679000Y-113232250D01*
X68679000Y-112319750D01*
X68680174Y-112295858D01*
X68683684Y-112272197D01*
X68689496Y-112248993D01*
X68697554Y-112226471D01*
X68707782Y-112204847D01*
X68720079Y-112184330D01*
X68734329Y-112165117D01*
X68750393Y-112147393D01*
X68768117Y-112131329D01*
X68787330Y-112117079D01*
X68807847Y-112104782D01*
X68829471Y-112094554D01*
X68851993Y-112086496D01*
X68875197Y-112080684D01*
X68898858Y-112077174D01*
X68922750Y-112076000D01*
X69410250Y-112076000D01*
X69434142Y-112077174D01*
X69434142Y-112077174D01*
G37*
D11*
X69166500Y-112776000D03*
D10*
G36*
X71309142Y-108775174D02*
G01*
X71332803Y-108778684D01*
X71356007Y-108784496D01*
X71378529Y-108792554D01*
X71400153Y-108802782D01*
X71420670Y-108815079D01*
X71439883Y-108829329D01*
X71457607Y-108845393D01*
X71473671Y-108863117D01*
X71487921Y-108882330D01*
X71500218Y-108902847D01*
X71510446Y-108924471D01*
X71518504Y-108946993D01*
X71524316Y-108970197D01*
X71527826Y-108993858D01*
X71529000Y-109017750D01*
X71529000Y-109930250D01*
X71527826Y-109954142D01*
X71524316Y-109977803D01*
X71518504Y-110001007D01*
X71510446Y-110023529D01*
X71500218Y-110045153D01*
X71487921Y-110065670D01*
X71473671Y-110084883D01*
X71457607Y-110102607D01*
X71439883Y-110118671D01*
X71420670Y-110132921D01*
X71400153Y-110145218D01*
X71378529Y-110155446D01*
X71356007Y-110163504D01*
X71332803Y-110169316D01*
X71309142Y-110172826D01*
X71285250Y-110174000D01*
X70797750Y-110174000D01*
X70773858Y-110172826D01*
X70750197Y-110169316D01*
X70726993Y-110163504D01*
X70704471Y-110155446D01*
X70682847Y-110145218D01*
X70662330Y-110132921D01*
X70643117Y-110118671D01*
X70625393Y-110102607D01*
X70609329Y-110084883D01*
X70595079Y-110065670D01*
X70582782Y-110045153D01*
X70572554Y-110023529D01*
X70564496Y-110001007D01*
X70558684Y-109977803D01*
X70555174Y-109954142D01*
X70554000Y-109930250D01*
X70554000Y-109017750D01*
X70555174Y-108993858D01*
X70558684Y-108970197D01*
X70564496Y-108946993D01*
X70572554Y-108924471D01*
X70582782Y-108902847D01*
X70595079Y-108882330D01*
X70609329Y-108863117D01*
X70625393Y-108845393D01*
X70643117Y-108829329D01*
X70662330Y-108815079D01*
X70682847Y-108802782D01*
X70704471Y-108792554D01*
X70726993Y-108784496D01*
X70750197Y-108778684D01*
X70773858Y-108775174D01*
X70797750Y-108774000D01*
X71285250Y-108774000D01*
X71309142Y-108775174D01*
X71309142Y-108775174D01*
G37*
D11*
X71041500Y-109474000D03*
D10*
G36*
X69434142Y-108775174D02*
G01*
X69457803Y-108778684D01*
X69481007Y-108784496D01*
X69503529Y-108792554D01*
X69525153Y-108802782D01*
X69545670Y-108815079D01*
X69564883Y-108829329D01*
X69582607Y-108845393D01*
X69598671Y-108863117D01*
X69612921Y-108882330D01*
X69625218Y-108902847D01*
X69635446Y-108924471D01*
X69643504Y-108946993D01*
X69649316Y-108970197D01*
X69652826Y-108993858D01*
X69654000Y-109017750D01*
X69654000Y-109930250D01*
X69652826Y-109954142D01*
X69649316Y-109977803D01*
X69643504Y-110001007D01*
X69635446Y-110023529D01*
X69625218Y-110045153D01*
X69612921Y-110065670D01*
X69598671Y-110084883D01*
X69582607Y-110102607D01*
X69564883Y-110118671D01*
X69545670Y-110132921D01*
X69525153Y-110145218D01*
X69503529Y-110155446D01*
X69481007Y-110163504D01*
X69457803Y-110169316D01*
X69434142Y-110172826D01*
X69410250Y-110174000D01*
X68922750Y-110174000D01*
X68898858Y-110172826D01*
X68875197Y-110169316D01*
X68851993Y-110163504D01*
X68829471Y-110155446D01*
X68807847Y-110145218D01*
X68787330Y-110132921D01*
X68768117Y-110118671D01*
X68750393Y-110102607D01*
X68734329Y-110084883D01*
X68720079Y-110065670D01*
X68707782Y-110045153D01*
X68697554Y-110023529D01*
X68689496Y-110001007D01*
X68683684Y-109977803D01*
X68680174Y-109954142D01*
X68679000Y-109930250D01*
X68679000Y-109017750D01*
X68680174Y-108993858D01*
X68683684Y-108970197D01*
X68689496Y-108946993D01*
X68697554Y-108924471D01*
X68707782Y-108902847D01*
X68720079Y-108882330D01*
X68734329Y-108863117D01*
X68750393Y-108845393D01*
X68768117Y-108829329D01*
X68787330Y-108815079D01*
X68807847Y-108802782D01*
X68829471Y-108792554D01*
X68851993Y-108784496D01*
X68875197Y-108778684D01*
X68898858Y-108775174D01*
X68922750Y-108774000D01*
X69410250Y-108774000D01*
X69434142Y-108775174D01*
X69434142Y-108775174D01*
G37*
D11*
X69166500Y-109474000D03*
D10*
G36*
X81372142Y-120459174D02*
G01*
X81395803Y-120462684D01*
X81419007Y-120468496D01*
X81441529Y-120476554D01*
X81463153Y-120486782D01*
X81483670Y-120499079D01*
X81502883Y-120513329D01*
X81520607Y-120529393D01*
X81536671Y-120547117D01*
X81550921Y-120566330D01*
X81563218Y-120586847D01*
X81573446Y-120608471D01*
X81581504Y-120630993D01*
X81587316Y-120654197D01*
X81590826Y-120677858D01*
X81592000Y-120701750D01*
X81592000Y-121614250D01*
X81590826Y-121638142D01*
X81587316Y-121661803D01*
X81581504Y-121685007D01*
X81573446Y-121707529D01*
X81563218Y-121729153D01*
X81550921Y-121749670D01*
X81536671Y-121768883D01*
X81520607Y-121786607D01*
X81502883Y-121802671D01*
X81483670Y-121816921D01*
X81463153Y-121829218D01*
X81441529Y-121839446D01*
X81419007Y-121847504D01*
X81395803Y-121853316D01*
X81372142Y-121856826D01*
X81348250Y-121858000D01*
X80860750Y-121858000D01*
X80836858Y-121856826D01*
X80813197Y-121853316D01*
X80789993Y-121847504D01*
X80767471Y-121839446D01*
X80745847Y-121829218D01*
X80725330Y-121816921D01*
X80706117Y-121802671D01*
X80688393Y-121786607D01*
X80672329Y-121768883D01*
X80658079Y-121749670D01*
X80645782Y-121729153D01*
X80635554Y-121707529D01*
X80627496Y-121685007D01*
X80621684Y-121661803D01*
X80618174Y-121638142D01*
X80617000Y-121614250D01*
X80617000Y-120701750D01*
X80618174Y-120677858D01*
X80621684Y-120654197D01*
X80627496Y-120630993D01*
X80635554Y-120608471D01*
X80645782Y-120586847D01*
X80658079Y-120566330D01*
X80672329Y-120547117D01*
X80688393Y-120529393D01*
X80706117Y-120513329D01*
X80725330Y-120499079D01*
X80745847Y-120486782D01*
X80767471Y-120476554D01*
X80789993Y-120468496D01*
X80813197Y-120462684D01*
X80836858Y-120459174D01*
X80860750Y-120458000D01*
X81348250Y-120458000D01*
X81372142Y-120459174D01*
X81372142Y-120459174D01*
G37*
D11*
X81104500Y-121158000D03*
D10*
G36*
X83247142Y-120459174D02*
G01*
X83270803Y-120462684D01*
X83294007Y-120468496D01*
X83316529Y-120476554D01*
X83338153Y-120486782D01*
X83358670Y-120499079D01*
X83377883Y-120513329D01*
X83395607Y-120529393D01*
X83411671Y-120547117D01*
X83425921Y-120566330D01*
X83438218Y-120586847D01*
X83448446Y-120608471D01*
X83456504Y-120630993D01*
X83462316Y-120654197D01*
X83465826Y-120677858D01*
X83467000Y-120701750D01*
X83467000Y-121614250D01*
X83465826Y-121638142D01*
X83462316Y-121661803D01*
X83456504Y-121685007D01*
X83448446Y-121707529D01*
X83438218Y-121729153D01*
X83425921Y-121749670D01*
X83411671Y-121768883D01*
X83395607Y-121786607D01*
X83377883Y-121802671D01*
X83358670Y-121816921D01*
X83338153Y-121829218D01*
X83316529Y-121839446D01*
X83294007Y-121847504D01*
X83270803Y-121853316D01*
X83247142Y-121856826D01*
X83223250Y-121858000D01*
X82735750Y-121858000D01*
X82711858Y-121856826D01*
X82688197Y-121853316D01*
X82664993Y-121847504D01*
X82642471Y-121839446D01*
X82620847Y-121829218D01*
X82600330Y-121816921D01*
X82581117Y-121802671D01*
X82563393Y-121786607D01*
X82547329Y-121768883D01*
X82533079Y-121749670D01*
X82520782Y-121729153D01*
X82510554Y-121707529D01*
X82502496Y-121685007D01*
X82496684Y-121661803D01*
X82493174Y-121638142D01*
X82492000Y-121614250D01*
X82492000Y-120701750D01*
X82493174Y-120677858D01*
X82496684Y-120654197D01*
X82502496Y-120630993D01*
X82510554Y-120608471D01*
X82520782Y-120586847D01*
X82533079Y-120566330D01*
X82547329Y-120547117D01*
X82563393Y-120529393D01*
X82581117Y-120513329D01*
X82600330Y-120499079D01*
X82620847Y-120486782D01*
X82642471Y-120476554D01*
X82664993Y-120468496D01*
X82688197Y-120462684D01*
X82711858Y-120459174D01*
X82735750Y-120458000D01*
X83223250Y-120458000D01*
X83247142Y-120459174D01*
X83247142Y-120459174D01*
G37*
D11*
X82979500Y-121158000D03*
D10*
G36*
X79437142Y-127063174D02*
G01*
X79460803Y-127066684D01*
X79484007Y-127072496D01*
X79506529Y-127080554D01*
X79528153Y-127090782D01*
X79548670Y-127103079D01*
X79567883Y-127117329D01*
X79585607Y-127133393D01*
X79601671Y-127151117D01*
X79615921Y-127170330D01*
X79628218Y-127190847D01*
X79638446Y-127212471D01*
X79646504Y-127234993D01*
X79652316Y-127258197D01*
X79655826Y-127281858D01*
X79657000Y-127305750D01*
X79657000Y-128218250D01*
X79655826Y-128242142D01*
X79652316Y-128265803D01*
X79646504Y-128289007D01*
X79638446Y-128311529D01*
X79628218Y-128333153D01*
X79615921Y-128353670D01*
X79601671Y-128372883D01*
X79585607Y-128390607D01*
X79567883Y-128406671D01*
X79548670Y-128420921D01*
X79528153Y-128433218D01*
X79506529Y-128443446D01*
X79484007Y-128451504D01*
X79460803Y-128457316D01*
X79437142Y-128460826D01*
X79413250Y-128462000D01*
X78925750Y-128462000D01*
X78901858Y-128460826D01*
X78878197Y-128457316D01*
X78854993Y-128451504D01*
X78832471Y-128443446D01*
X78810847Y-128433218D01*
X78790330Y-128420921D01*
X78771117Y-128406671D01*
X78753393Y-128390607D01*
X78737329Y-128372883D01*
X78723079Y-128353670D01*
X78710782Y-128333153D01*
X78700554Y-128311529D01*
X78692496Y-128289007D01*
X78686684Y-128265803D01*
X78683174Y-128242142D01*
X78682000Y-128218250D01*
X78682000Y-127305750D01*
X78683174Y-127281858D01*
X78686684Y-127258197D01*
X78692496Y-127234993D01*
X78700554Y-127212471D01*
X78710782Y-127190847D01*
X78723079Y-127170330D01*
X78737329Y-127151117D01*
X78753393Y-127133393D01*
X78771117Y-127117329D01*
X78790330Y-127103079D01*
X78810847Y-127090782D01*
X78832471Y-127080554D01*
X78854993Y-127072496D01*
X78878197Y-127066684D01*
X78901858Y-127063174D01*
X78925750Y-127062000D01*
X79413250Y-127062000D01*
X79437142Y-127063174D01*
X79437142Y-127063174D01*
G37*
D11*
X79169500Y-127762000D03*
D10*
G36*
X77562142Y-127063174D02*
G01*
X77585803Y-127066684D01*
X77609007Y-127072496D01*
X77631529Y-127080554D01*
X77653153Y-127090782D01*
X77673670Y-127103079D01*
X77692883Y-127117329D01*
X77710607Y-127133393D01*
X77726671Y-127151117D01*
X77740921Y-127170330D01*
X77753218Y-127190847D01*
X77763446Y-127212471D01*
X77771504Y-127234993D01*
X77777316Y-127258197D01*
X77780826Y-127281858D01*
X77782000Y-127305750D01*
X77782000Y-128218250D01*
X77780826Y-128242142D01*
X77777316Y-128265803D01*
X77771504Y-128289007D01*
X77763446Y-128311529D01*
X77753218Y-128333153D01*
X77740921Y-128353670D01*
X77726671Y-128372883D01*
X77710607Y-128390607D01*
X77692883Y-128406671D01*
X77673670Y-128420921D01*
X77653153Y-128433218D01*
X77631529Y-128443446D01*
X77609007Y-128451504D01*
X77585803Y-128457316D01*
X77562142Y-128460826D01*
X77538250Y-128462000D01*
X77050750Y-128462000D01*
X77026858Y-128460826D01*
X77003197Y-128457316D01*
X76979993Y-128451504D01*
X76957471Y-128443446D01*
X76935847Y-128433218D01*
X76915330Y-128420921D01*
X76896117Y-128406671D01*
X76878393Y-128390607D01*
X76862329Y-128372883D01*
X76848079Y-128353670D01*
X76835782Y-128333153D01*
X76825554Y-128311529D01*
X76817496Y-128289007D01*
X76811684Y-128265803D01*
X76808174Y-128242142D01*
X76807000Y-128218250D01*
X76807000Y-127305750D01*
X76808174Y-127281858D01*
X76811684Y-127258197D01*
X76817496Y-127234993D01*
X76825554Y-127212471D01*
X76835782Y-127190847D01*
X76848079Y-127170330D01*
X76862329Y-127151117D01*
X76878393Y-127133393D01*
X76896117Y-127117329D01*
X76915330Y-127103079D01*
X76935847Y-127090782D01*
X76957471Y-127080554D01*
X76979993Y-127072496D01*
X77003197Y-127066684D01*
X77026858Y-127063174D01*
X77050750Y-127062000D01*
X77538250Y-127062000D01*
X77562142Y-127063174D01*
X77562142Y-127063174D01*
G37*
D11*
X77294500Y-127762000D03*
D10*
G36*
X81372142Y-123761174D02*
G01*
X81395803Y-123764684D01*
X81419007Y-123770496D01*
X81441529Y-123778554D01*
X81463153Y-123788782D01*
X81483670Y-123801079D01*
X81502883Y-123815329D01*
X81520607Y-123831393D01*
X81536671Y-123849117D01*
X81550921Y-123868330D01*
X81563218Y-123888847D01*
X81573446Y-123910471D01*
X81581504Y-123932993D01*
X81587316Y-123956197D01*
X81590826Y-123979858D01*
X81592000Y-124003750D01*
X81592000Y-124916250D01*
X81590826Y-124940142D01*
X81587316Y-124963803D01*
X81581504Y-124987007D01*
X81573446Y-125009529D01*
X81563218Y-125031153D01*
X81550921Y-125051670D01*
X81536671Y-125070883D01*
X81520607Y-125088607D01*
X81502883Y-125104671D01*
X81483670Y-125118921D01*
X81463153Y-125131218D01*
X81441529Y-125141446D01*
X81419007Y-125149504D01*
X81395803Y-125155316D01*
X81372142Y-125158826D01*
X81348250Y-125160000D01*
X80860750Y-125160000D01*
X80836858Y-125158826D01*
X80813197Y-125155316D01*
X80789993Y-125149504D01*
X80767471Y-125141446D01*
X80745847Y-125131218D01*
X80725330Y-125118921D01*
X80706117Y-125104671D01*
X80688393Y-125088607D01*
X80672329Y-125070883D01*
X80658079Y-125051670D01*
X80645782Y-125031153D01*
X80635554Y-125009529D01*
X80627496Y-124987007D01*
X80621684Y-124963803D01*
X80618174Y-124940142D01*
X80617000Y-124916250D01*
X80617000Y-124003750D01*
X80618174Y-123979858D01*
X80621684Y-123956197D01*
X80627496Y-123932993D01*
X80635554Y-123910471D01*
X80645782Y-123888847D01*
X80658079Y-123868330D01*
X80672329Y-123849117D01*
X80688393Y-123831393D01*
X80706117Y-123815329D01*
X80725330Y-123801079D01*
X80745847Y-123788782D01*
X80767471Y-123778554D01*
X80789993Y-123770496D01*
X80813197Y-123764684D01*
X80836858Y-123761174D01*
X80860750Y-123760000D01*
X81348250Y-123760000D01*
X81372142Y-123761174D01*
X81372142Y-123761174D01*
G37*
D11*
X81104500Y-124460000D03*
D10*
G36*
X83247142Y-123761174D02*
G01*
X83270803Y-123764684D01*
X83294007Y-123770496D01*
X83316529Y-123778554D01*
X83338153Y-123788782D01*
X83358670Y-123801079D01*
X83377883Y-123815329D01*
X83395607Y-123831393D01*
X83411671Y-123849117D01*
X83425921Y-123868330D01*
X83438218Y-123888847D01*
X83448446Y-123910471D01*
X83456504Y-123932993D01*
X83462316Y-123956197D01*
X83465826Y-123979858D01*
X83467000Y-124003750D01*
X83467000Y-124916250D01*
X83465826Y-124940142D01*
X83462316Y-124963803D01*
X83456504Y-124987007D01*
X83448446Y-125009529D01*
X83438218Y-125031153D01*
X83425921Y-125051670D01*
X83411671Y-125070883D01*
X83395607Y-125088607D01*
X83377883Y-125104671D01*
X83358670Y-125118921D01*
X83338153Y-125131218D01*
X83316529Y-125141446D01*
X83294007Y-125149504D01*
X83270803Y-125155316D01*
X83247142Y-125158826D01*
X83223250Y-125160000D01*
X82735750Y-125160000D01*
X82711858Y-125158826D01*
X82688197Y-125155316D01*
X82664993Y-125149504D01*
X82642471Y-125141446D01*
X82620847Y-125131218D01*
X82600330Y-125118921D01*
X82581117Y-125104671D01*
X82563393Y-125088607D01*
X82547329Y-125070883D01*
X82533079Y-125051670D01*
X82520782Y-125031153D01*
X82510554Y-125009529D01*
X82502496Y-124987007D01*
X82496684Y-124963803D01*
X82493174Y-124940142D01*
X82492000Y-124916250D01*
X82492000Y-124003750D01*
X82493174Y-123979858D01*
X82496684Y-123956197D01*
X82502496Y-123932993D01*
X82510554Y-123910471D01*
X82520782Y-123888847D01*
X82533079Y-123868330D01*
X82547329Y-123849117D01*
X82563393Y-123831393D01*
X82581117Y-123815329D01*
X82600330Y-123801079D01*
X82620847Y-123788782D01*
X82642471Y-123778554D01*
X82664993Y-123770496D01*
X82688197Y-123764684D01*
X82711858Y-123761174D01*
X82735750Y-123760000D01*
X83223250Y-123760000D01*
X83247142Y-123761174D01*
X83247142Y-123761174D01*
G37*
D11*
X82979500Y-124460000D03*
D10*
G36*
X83247142Y-127063174D02*
G01*
X83270803Y-127066684D01*
X83294007Y-127072496D01*
X83316529Y-127080554D01*
X83338153Y-127090782D01*
X83358670Y-127103079D01*
X83377883Y-127117329D01*
X83395607Y-127133393D01*
X83411671Y-127151117D01*
X83425921Y-127170330D01*
X83438218Y-127190847D01*
X83448446Y-127212471D01*
X83456504Y-127234993D01*
X83462316Y-127258197D01*
X83465826Y-127281858D01*
X83467000Y-127305750D01*
X83467000Y-128218250D01*
X83465826Y-128242142D01*
X83462316Y-128265803D01*
X83456504Y-128289007D01*
X83448446Y-128311529D01*
X83438218Y-128333153D01*
X83425921Y-128353670D01*
X83411671Y-128372883D01*
X83395607Y-128390607D01*
X83377883Y-128406671D01*
X83358670Y-128420921D01*
X83338153Y-128433218D01*
X83316529Y-128443446D01*
X83294007Y-128451504D01*
X83270803Y-128457316D01*
X83247142Y-128460826D01*
X83223250Y-128462000D01*
X82735750Y-128462000D01*
X82711858Y-128460826D01*
X82688197Y-128457316D01*
X82664993Y-128451504D01*
X82642471Y-128443446D01*
X82620847Y-128433218D01*
X82600330Y-128420921D01*
X82581117Y-128406671D01*
X82563393Y-128390607D01*
X82547329Y-128372883D01*
X82533079Y-128353670D01*
X82520782Y-128333153D01*
X82510554Y-128311529D01*
X82502496Y-128289007D01*
X82496684Y-128265803D01*
X82493174Y-128242142D01*
X82492000Y-128218250D01*
X82492000Y-127305750D01*
X82493174Y-127281858D01*
X82496684Y-127258197D01*
X82502496Y-127234993D01*
X82510554Y-127212471D01*
X82520782Y-127190847D01*
X82533079Y-127170330D01*
X82547329Y-127151117D01*
X82563393Y-127133393D01*
X82581117Y-127117329D01*
X82600330Y-127103079D01*
X82620847Y-127090782D01*
X82642471Y-127080554D01*
X82664993Y-127072496D01*
X82688197Y-127066684D01*
X82711858Y-127063174D01*
X82735750Y-127062000D01*
X83223250Y-127062000D01*
X83247142Y-127063174D01*
X83247142Y-127063174D01*
G37*
D11*
X82979500Y-127762000D03*
D10*
G36*
X81372142Y-127063174D02*
G01*
X81395803Y-127066684D01*
X81419007Y-127072496D01*
X81441529Y-127080554D01*
X81463153Y-127090782D01*
X81483670Y-127103079D01*
X81502883Y-127117329D01*
X81520607Y-127133393D01*
X81536671Y-127151117D01*
X81550921Y-127170330D01*
X81563218Y-127190847D01*
X81573446Y-127212471D01*
X81581504Y-127234993D01*
X81587316Y-127258197D01*
X81590826Y-127281858D01*
X81592000Y-127305750D01*
X81592000Y-128218250D01*
X81590826Y-128242142D01*
X81587316Y-128265803D01*
X81581504Y-128289007D01*
X81573446Y-128311529D01*
X81563218Y-128333153D01*
X81550921Y-128353670D01*
X81536671Y-128372883D01*
X81520607Y-128390607D01*
X81502883Y-128406671D01*
X81483670Y-128420921D01*
X81463153Y-128433218D01*
X81441529Y-128443446D01*
X81419007Y-128451504D01*
X81395803Y-128457316D01*
X81372142Y-128460826D01*
X81348250Y-128462000D01*
X80860750Y-128462000D01*
X80836858Y-128460826D01*
X80813197Y-128457316D01*
X80789993Y-128451504D01*
X80767471Y-128443446D01*
X80745847Y-128433218D01*
X80725330Y-128420921D01*
X80706117Y-128406671D01*
X80688393Y-128390607D01*
X80672329Y-128372883D01*
X80658079Y-128353670D01*
X80645782Y-128333153D01*
X80635554Y-128311529D01*
X80627496Y-128289007D01*
X80621684Y-128265803D01*
X80618174Y-128242142D01*
X80617000Y-128218250D01*
X80617000Y-127305750D01*
X80618174Y-127281858D01*
X80621684Y-127258197D01*
X80627496Y-127234993D01*
X80635554Y-127212471D01*
X80645782Y-127190847D01*
X80658079Y-127170330D01*
X80672329Y-127151117D01*
X80688393Y-127133393D01*
X80706117Y-127117329D01*
X80725330Y-127103079D01*
X80745847Y-127090782D01*
X80767471Y-127080554D01*
X80789993Y-127072496D01*
X80813197Y-127066684D01*
X80836858Y-127063174D01*
X80860750Y-127062000D01*
X81348250Y-127062000D01*
X81372142Y-127063174D01*
X81372142Y-127063174D01*
G37*
D11*
X81104500Y-127762000D03*
D10*
G36*
X90105142Y-139001174D02*
G01*
X90128803Y-139004684D01*
X90152007Y-139010496D01*
X90174529Y-139018554D01*
X90196153Y-139028782D01*
X90216670Y-139041079D01*
X90235883Y-139055329D01*
X90253607Y-139071393D01*
X90269671Y-139089117D01*
X90283921Y-139108330D01*
X90296218Y-139128847D01*
X90306446Y-139150471D01*
X90314504Y-139172993D01*
X90320316Y-139196197D01*
X90323826Y-139219858D01*
X90325000Y-139243750D01*
X90325000Y-140156250D01*
X90323826Y-140180142D01*
X90320316Y-140203803D01*
X90314504Y-140227007D01*
X90306446Y-140249529D01*
X90296218Y-140271153D01*
X90283921Y-140291670D01*
X90269671Y-140310883D01*
X90253607Y-140328607D01*
X90235883Y-140344671D01*
X90216670Y-140358921D01*
X90196153Y-140371218D01*
X90174529Y-140381446D01*
X90152007Y-140389504D01*
X90128803Y-140395316D01*
X90105142Y-140398826D01*
X90081250Y-140400000D01*
X89593750Y-140400000D01*
X89569858Y-140398826D01*
X89546197Y-140395316D01*
X89522993Y-140389504D01*
X89500471Y-140381446D01*
X89478847Y-140371218D01*
X89458330Y-140358921D01*
X89439117Y-140344671D01*
X89421393Y-140328607D01*
X89405329Y-140310883D01*
X89391079Y-140291670D01*
X89378782Y-140271153D01*
X89368554Y-140249529D01*
X89360496Y-140227007D01*
X89354684Y-140203803D01*
X89351174Y-140180142D01*
X89350000Y-140156250D01*
X89350000Y-139243750D01*
X89351174Y-139219858D01*
X89354684Y-139196197D01*
X89360496Y-139172993D01*
X89368554Y-139150471D01*
X89378782Y-139128847D01*
X89391079Y-139108330D01*
X89405329Y-139089117D01*
X89421393Y-139071393D01*
X89439117Y-139055329D01*
X89458330Y-139041079D01*
X89478847Y-139028782D01*
X89500471Y-139018554D01*
X89522993Y-139010496D01*
X89546197Y-139004684D01*
X89569858Y-139001174D01*
X89593750Y-139000000D01*
X90081250Y-139000000D01*
X90105142Y-139001174D01*
X90105142Y-139001174D01*
G37*
D11*
X89837500Y-139700000D03*
D10*
G36*
X88230142Y-139001174D02*
G01*
X88253803Y-139004684D01*
X88277007Y-139010496D01*
X88299529Y-139018554D01*
X88321153Y-139028782D01*
X88341670Y-139041079D01*
X88360883Y-139055329D01*
X88378607Y-139071393D01*
X88394671Y-139089117D01*
X88408921Y-139108330D01*
X88421218Y-139128847D01*
X88431446Y-139150471D01*
X88439504Y-139172993D01*
X88445316Y-139196197D01*
X88448826Y-139219858D01*
X88450000Y-139243750D01*
X88450000Y-140156250D01*
X88448826Y-140180142D01*
X88445316Y-140203803D01*
X88439504Y-140227007D01*
X88431446Y-140249529D01*
X88421218Y-140271153D01*
X88408921Y-140291670D01*
X88394671Y-140310883D01*
X88378607Y-140328607D01*
X88360883Y-140344671D01*
X88341670Y-140358921D01*
X88321153Y-140371218D01*
X88299529Y-140381446D01*
X88277007Y-140389504D01*
X88253803Y-140395316D01*
X88230142Y-140398826D01*
X88206250Y-140400000D01*
X87718750Y-140400000D01*
X87694858Y-140398826D01*
X87671197Y-140395316D01*
X87647993Y-140389504D01*
X87625471Y-140381446D01*
X87603847Y-140371218D01*
X87583330Y-140358921D01*
X87564117Y-140344671D01*
X87546393Y-140328607D01*
X87530329Y-140310883D01*
X87516079Y-140291670D01*
X87503782Y-140271153D01*
X87493554Y-140249529D01*
X87485496Y-140227007D01*
X87479684Y-140203803D01*
X87476174Y-140180142D01*
X87475000Y-140156250D01*
X87475000Y-139243750D01*
X87476174Y-139219858D01*
X87479684Y-139196197D01*
X87485496Y-139172993D01*
X87493554Y-139150471D01*
X87503782Y-139128847D01*
X87516079Y-139108330D01*
X87530329Y-139089117D01*
X87546393Y-139071393D01*
X87564117Y-139055329D01*
X87583330Y-139041079D01*
X87603847Y-139028782D01*
X87625471Y-139018554D01*
X87647993Y-139010496D01*
X87671197Y-139004684D01*
X87694858Y-139001174D01*
X87718750Y-139000000D01*
X88206250Y-139000000D01*
X88230142Y-139001174D01*
X88230142Y-139001174D01*
G37*
D11*
X87962500Y-139700000D03*
D10*
G36*
X97508142Y-139897174D02*
G01*
X97531803Y-139900684D01*
X97555007Y-139906496D01*
X97577529Y-139914554D01*
X97599153Y-139924782D01*
X97619670Y-139937079D01*
X97638883Y-139951329D01*
X97656607Y-139967393D01*
X97672671Y-139985117D01*
X97686921Y-140004330D01*
X97699218Y-140024847D01*
X97709446Y-140046471D01*
X97717504Y-140068993D01*
X97723316Y-140092197D01*
X97726826Y-140115858D01*
X97728000Y-140139750D01*
X97728000Y-140627250D01*
X97726826Y-140651142D01*
X97723316Y-140674803D01*
X97717504Y-140698007D01*
X97709446Y-140720529D01*
X97699218Y-140742153D01*
X97686921Y-140762670D01*
X97672671Y-140781883D01*
X97656607Y-140799607D01*
X97638883Y-140815671D01*
X97619670Y-140829921D01*
X97599153Y-140842218D01*
X97577529Y-140852446D01*
X97555007Y-140860504D01*
X97531803Y-140866316D01*
X97508142Y-140869826D01*
X97484250Y-140871000D01*
X96571750Y-140871000D01*
X96547858Y-140869826D01*
X96524197Y-140866316D01*
X96500993Y-140860504D01*
X96478471Y-140852446D01*
X96456847Y-140842218D01*
X96436330Y-140829921D01*
X96417117Y-140815671D01*
X96399393Y-140799607D01*
X96383329Y-140781883D01*
X96369079Y-140762670D01*
X96356782Y-140742153D01*
X96346554Y-140720529D01*
X96338496Y-140698007D01*
X96332684Y-140674803D01*
X96329174Y-140651142D01*
X96328000Y-140627250D01*
X96328000Y-140139750D01*
X96329174Y-140115858D01*
X96332684Y-140092197D01*
X96338496Y-140068993D01*
X96346554Y-140046471D01*
X96356782Y-140024847D01*
X96369079Y-140004330D01*
X96383329Y-139985117D01*
X96399393Y-139967393D01*
X96417117Y-139951329D01*
X96436330Y-139937079D01*
X96456847Y-139924782D01*
X96478471Y-139914554D01*
X96500993Y-139906496D01*
X96524197Y-139900684D01*
X96547858Y-139897174D01*
X96571750Y-139896000D01*
X97484250Y-139896000D01*
X97508142Y-139897174D01*
X97508142Y-139897174D01*
G37*
D11*
X97028000Y-140383500D03*
D10*
G36*
X97508142Y-138022174D02*
G01*
X97531803Y-138025684D01*
X97555007Y-138031496D01*
X97577529Y-138039554D01*
X97599153Y-138049782D01*
X97619670Y-138062079D01*
X97638883Y-138076329D01*
X97656607Y-138092393D01*
X97672671Y-138110117D01*
X97686921Y-138129330D01*
X97699218Y-138149847D01*
X97709446Y-138171471D01*
X97717504Y-138193993D01*
X97723316Y-138217197D01*
X97726826Y-138240858D01*
X97728000Y-138264750D01*
X97728000Y-138752250D01*
X97726826Y-138776142D01*
X97723316Y-138799803D01*
X97717504Y-138823007D01*
X97709446Y-138845529D01*
X97699218Y-138867153D01*
X97686921Y-138887670D01*
X97672671Y-138906883D01*
X97656607Y-138924607D01*
X97638883Y-138940671D01*
X97619670Y-138954921D01*
X97599153Y-138967218D01*
X97577529Y-138977446D01*
X97555007Y-138985504D01*
X97531803Y-138991316D01*
X97508142Y-138994826D01*
X97484250Y-138996000D01*
X96571750Y-138996000D01*
X96547858Y-138994826D01*
X96524197Y-138991316D01*
X96500993Y-138985504D01*
X96478471Y-138977446D01*
X96456847Y-138967218D01*
X96436330Y-138954921D01*
X96417117Y-138940671D01*
X96399393Y-138924607D01*
X96383329Y-138906883D01*
X96369079Y-138887670D01*
X96356782Y-138867153D01*
X96346554Y-138845529D01*
X96338496Y-138823007D01*
X96332684Y-138799803D01*
X96329174Y-138776142D01*
X96328000Y-138752250D01*
X96328000Y-138264750D01*
X96329174Y-138240858D01*
X96332684Y-138217197D01*
X96338496Y-138193993D01*
X96346554Y-138171471D01*
X96356782Y-138149847D01*
X96369079Y-138129330D01*
X96383329Y-138110117D01*
X96399393Y-138092393D01*
X96417117Y-138076329D01*
X96436330Y-138062079D01*
X96456847Y-138049782D01*
X96478471Y-138039554D01*
X96500993Y-138031496D01*
X96524197Y-138025684D01*
X96547858Y-138022174D01*
X96571750Y-138021000D01*
X97484250Y-138021000D01*
X97508142Y-138022174D01*
X97508142Y-138022174D01*
G37*
D11*
X97028000Y-138508500D03*
D10*
G36*
X97508142Y-136341174D02*
G01*
X97531803Y-136344684D01*
X97555007Y-136350496D01*
X97577529Y-136358554D01*
X97599153Y-136368782D01*
X97619670Y-136381079D01*
X97638883Y-136395329D01*
X97656607Y-136411393D01*
X97672671Y-136429117D01*
X97686921Y-136448330D01*
X97699218Y-136468847D01*
X97709446Y-136490471D01*
X97717504Y-136512993D01*
X97723316Y-136536197D01*
X97726826Y-136559858D01*
X97728000Y-136583750D01*
X97728000Y-137071250D01*
X97726826Y-137095142D01*
X97723316Y-137118803D01*
X97717504Y-137142007D01*
X97709446Y-137164529D01*
X97699218Y-137186153D01*
X97686921Y-137206670D01*
X97672671Y-137225883D01*
X97656607Y-137243607D01*
X97638883Y-137259671D01*
X97619670Y-137273921D01*
X97599153Y-137286218D01*
X97577529Y-137296446D01*
X97555007Y-137304504D01*
X97531803Y-137310316D01*
X97508142Y-137313826D01*
X97484250Y-137315000D01*
X96571750Y-137315000D01*
X96547858Y-137313826D01*
X96524197Y-137310316D01*
X96500993Y-137304504D01*
X96478471Y-137296446D01*
X96456847Y-137286218D01*
X96436330Y-137273921D01*
X96417117Y-137259671D01*
X96399393Y-137243607D01*
X96383329Y-137225883D01*
X96369079Y-137206670D01*
X96356782Y-137186153D01*
X96346554Y-137164529D01*
X96338496Y-137142007D01*
X96332684Y-137118803D01*
X96329174Y-137095142D01*
X96328000Y-137071250D01*
X96328000Y-136583750D01*
X96329174Y-136559858D01*
X96332684Y-136536197D01*
X96338496Y-136512993D01*
X96346554Y-136490471D01*
X96356782Y-136468847D01*
X96369079Y-136448330D01*
X96383329Y-136429117D01*
X96399393Y-136411393D01*
X96417117Y-136395329D01*
X96436330Y-136381079D01*
X96456847Y-136368782D01*
X96478471Y-136358554D01*
X96500993Y-136350496D01*
X96524197Y-136344684D01*
X96547858Y-136341174D01*
X96571750Y-136340000D01*
X97484250Y-136340000D01*
X97508142Y-136341174D01*
X97508142Y-136341174D01*
G37*
D11*
X97028000Y-136827500D03*
D10*
G36*
X97508142Y-134466174D02*
G01*
X97531803Y-134469684D01*
X97555007Y-134475496D01*
X97577529Y-134483554D01*
X97599153Y-134493782D01*
X97619670Y-134506079D01*
X97638883Y-134520329D01*
X97656607Y-134536393D01*
X97672671Y-134554117D01*
X97686921Y-134573330D01*
X97699218Y-134593847D01*
X97709446Y-134615471D01*
X97717504Y-134637993D01*
X97723316Y-134661197D01*
X97726826Y-134684858D01*
X97728000Y-134708750D01*
X97728000Y-135196250D01*
X97726826Y-135220142D01*
X97723316Y-135243803D01*
X97717504Y-135267007D01*
X97709446Y-135289529D01*
X97699218Y-135311153D01*
X97686921Y-135331670D01*
X97672671Y-135350883D01*
X97656607Y-135368607D01*
X97638883Y-135384671D01*
X97619670Y-135398921D01*
X97599153Y-135411218D01*
X97577529Y-135421446D01*
X97555007Y-135429504D01*
X97531803Y-135435316D01*
X97508142Y-135438826D01*
X97484250Y-135440000D01*
X96571750Y-135440000D01*
X96547858Y-135438826D01*
X96524197Y-135435316D01*
X96500993Y-135429504D01*
X96478471Y-135421446D01*
X96456847Y-135411218D01*
X96436330Y-135398921D01*
X96417117Y-135384671D01*
X96399393Y-135368607D01*
X96383329Y-135350883D01*
X96369079Y-135331670D01*
X96356782Y-135311153D01*
X96346554Y-135289529D01*
X96338496Y-135267007D01*
X96332684Y-135243803D01*
X96329174Y-135220142D01*
X96328000Y-135196250D01*
X96328000Y-134708750D01*
X96329174Y-134684858D01*
X96332684Y-134661197D01*
X96338496Y-134637993D01*
X96346554Y-134615471D01*
X96356782Y-134593847D01*
X96369079Y-134573330D01*
X96383329Y-134554117D01*
X96399393Y-134536393D01*
X96417117Y-134520329D01*
X96436330Y-134506079D01*
X96456847Y-134493782D01*
X96478471Y-134483554D01*
X96500993Y-134475496D01*
X96524197Y-134469684D01*
X96547858Y-134466174D01*
X96571750Y-134465000D01*
X97484250Y-134465000D01*
X97508142Y-134466174D01*
X97508142Y-134466174D01*
G37*
D11*
X97028000Y-134952500D03*
D10*
G36*
X95222142Y-102208174D02*
G01*
X95245803Y-102211684D01*
X95269007Y-102217496D01*
X95291529Y-102225554D01*
X95313153Y-102235782D01*
X95333670Y-102248079D01*
X95352883Y-102262329D01*
X95370607Y-102278393D01*
X95386671Y-102296117D01*
X95400921Y-102315330D01*
X95413218Y-102335847D01*
X95423446Y-102357471D01*
X95431504Y-102379993D01*
X95437316Y-102403197D01*
X95440826Y-102426858D01*
X95442000Y-102450750D01*
X95442000Y-102938250D01*
X95440826Y-102962142D01*
X95437316Y-102985803D01*
X95431504Y-103009007D01*
X95423446Y-103031529D01*
X95413218Y-103053153D01*
X95400921Y-103073670D01*
X95386671Y-103092883D01*
X95370607Y-103110607D01*
X95352883Y-103126671D01*
X95333670Y-103140921D01*
X95313153Y-103153218D01*
X95291529Y-103163446D01*
X95269007Y-103171504D01*
X95245803Y-103177316D01*
X95222142Y-103180826D01*
X95198250Y-103182000D01*
X94285750Y-103182000D01*
X94261858Y-103180826D01*
X94238197Y-103177316D01*
X94214993Y-103171504D01*
X94192471Y-103163446D01*
X94170847Y-103153218D01*
X94150330Y-103140921D01*
X94131117Y-103126671D01*
X94113393Y-103110607D01*
X94097329Y-103092883D01*
X94083079Y-103073670D01*
X94070782Y-103053153D01*
X94060554Y-103031529D01*
X94052496Y-103009007D01*
X94046684Y-102985803D01*
X94043174Y-102962142D01*
X94042000Y-102938250D01*
X94042000Y-102450750D01*
X94043174Y-102426858D01*
X94046684Y-102403197D01*
X94052496Y-102379993D01*
X94060554Y-102357471D01*
X94070782Y-102335847D01*
X94083079Y-102315330D01*
X94097329Y-102296117D01*
X94113393Y-102278393D01*
X94131117Y-102262329D01*
X94150330Y-102248079D01*
X94170847Y-102235782D01*
X94192471Y-102225554D01*
X94214993Y-102217496D01*
X94238197Y-102211684D01*
X94261858Y-102208174D01*
X94285750Y-102207000D01*
X95198250Y-102207000D01*
X95222142Y-102208174D01*
X95222142Y-102208174D01*
G37*
D11*
X94742000Y-102694500D03*
D10*
G36*
X95222142Y-104083174D02*
G01*
X95245803Y-104086684D01*
X95269007Y-104092496D01*
X95291529Y-104100554D01*
X95313153Y-104110782D01*
X95333670Y-104123079D01*
X95352883Y-104137329D01*
X95370607Y-104153393D01*
X95386671Y-104171117D01*
X95400921Y-104190330D01*
X95413218Y-104210847D01*
X95423446Y-104232471D01*
X95431504Y-104254993D01*
X95437316Y-104278197D01*
X95440826Y-104301858D01*
X95442000Y-104325750D01*
X95442000Y-104813250D01*
X95440826Y-104837142D01*
X95437316Y-104860803D01*
X95431504Y-104884007D01*
X95423446Y-104906529D01*
X95413218Y-104928153D01*
X95400921Y-104948670D01*
X95386671Y-104967883D01*
X95370607Y-104985607D01*
X95352883Y-105001671D01*
X95333670Y-105015921D01*
X95313153Y-105028218D01*
X95291529Y-105038446D01*
X95269007Y-105046504D01*
X95245803Y-105052316D01*
X95222142Y-105055826D01*
X95198250Y-105057000D01*
X94285750Y-105057000D01*
X94261858Y-105055826D01*
X94238197Y-105052316D01*
X94214993Y-105046504D01*
X94192471Y-105038446D01*
X94170847Y-105028218D01*
X94150330Y-105015921D01*
X94131117Y-105001671D01*
X94113393Y-104985607D01*
X94097329Y-104967883D01*
X94083079Y-104948670D01*
X94070782Y-104928153D01*
X94060554Y-104906529D01*
X94052496Y-104884007D01*
X94046684Y-104860803D01*
X94043174Y-104837142D01*
X94042000Y-104813250D01*
X94042000Y-104325750D01*
X94043174Y-104301858D01*
X94046684Y-104278197D01*
X94052496Y-104254993D01*
X94060554Y-104232471D01*
X94070782Y-104210847D01*
X94083079Y-104190330D01*
X94097329Y-104171117D01*
X94113393Y-104153393D01*
X94131117Y-104137329D01*
X94150330Y-104123079D01*
X94170847Y-104110782D01*
X94192471Y-104100554D01*
X94214993Y-104092496D01*
X94238197Y-104086684D01*
X94261858Y-104083174D01*
X94285750Y-104082000D01*
X95198250Y-104082000D01*
X95222142Y-104083174D01*
X95222142Y-104083174D01*
G37*
D11*
X94742000Y-104569500D03*
D10*
G36*
X95476142Y-138022174D02*
G01*
X95499803Y-138025684D01*
X95523007Y-138031496D01*
X95545529Y-138039554D01*
X95567153Y-138049782D01*
X95587670Y-138062079D01*
X95606883Y-138076329D01*
X95624607Y-138092393D01*
X95640671Y-138110117D01*
X95654921Y-138129330D01*
X95667218Y-138149847D01*
X95677446Y-138171471D01*
X95685504Y-138193993D01*
X95691316Y-138217197D01*
X95694826Y-138240858D01*
X95696000Y-138264750D01*
X95696000Y-138752250D01*
X95694826Y-138776142D01*
X95691316Y-138799803D01*
X95685504Y-138823007D01*
X95677446Y-138845529D01*
X95667218Y-138867153D01*
X95654921Y-138887670D01*
X95640671Y-138906883D01*
X95624607Y-138924607D01*
X95606883Y-138940671D01*
X95587670Y-138954921D01*
X95567153Y-138967218D01*
X95545529Y-138977446D01*
X95523007Y-138985504D01*
X95499803Y-138991316D01*
X95476142Y-138994826D01*
X95452250Y-138996000D01*
X94539750Y-138996000D01*
X94515858Y-138994826D01*
X94492197Y-138991316D01*
X94468993Y-138985504D01*
X94446471Y-138977446D01*
X94424847Y-138967218D01*
X94404330Y-138954921D01*
X94385117Y-138940671D01*
X94367393Y-138924607D01*
X94351329Y-138906883D01*
X94337079Y-138887670D01*
X94324782Y-138867153D01*
X94314554Y-138845529D01*
X94306496Y-138823007D01*
X94300684Y-138799803D01*
X94297174Y-138776142D01*
X94296000Y-138752250D01*
X94296000Y-138264750D01*
X94297174Y-138240858D01*
X94300684Y-138217197D01*
X94306496Y-138193993D01*
X94314554Y-138171471D01*
X94324782Y-138149847D01*
X94337079Y-138129330D01*
X94351329Y-138110117D01*
X94367393Y-138092393D01*
X94385117Y-138076329D01*
X94404330Y-138062079D01*
X94424847Y-138049782D01*
X94446471Y-138039554D01*
X94468993Y-138031496D01*
X94492197Y-138025684D01*
X94515858Y-138022174D01*
X94539750Y-138021000D01*
X95452250Y-138021000D01*
X95476142Y-138022174D01*
X95476142Y-138022174D01*
G37*
D11*
X94996000Y-138508500D03*
D10*
G36*
X95476142Y-139897174D02*
G01*
X95499803Y-139900684D01*
X95523007Y-139906496D01*
X95545529Y-139914554D01*
X95567153Y-139924782D01*
X95587670Y-139937079D01*
X95606883Y-139951329D01*
X95624607Y-139967393D01*
X95640671Y-139985117D01*
X95654921Y-140004330D01*
X95667218Y-140024847D01*
X95677446Y-140046471D01*
X95685504Y-140068993D01*
X95691316Y-140092197D01*
X95694826Y-140115858D01*
X95696000Y-140139750D01*
X95696000Y-140627250D01*
X95694826Y-140651142D01*
X95691316Y-140674803D01*
X95685504Y-140698007D01*
X95677446Y-140720529D01*
X95667218Y-140742153D01*
X95654921Y-140762670D01*
X95640671Y-140781883D01*
X95624607Y-140799607D01*
X95606883Y-140815671D01*
X95587670Y-140829921D01*
X95567153Y-140842218D01*
X95545529Y-140852446D01*
X95523007Y-140860504D01*
X95499803Y-140866316D01*
X95476142Y-140869826D01*
X95452250Y-140871000D01*
X94539750Y-140871000D01*
X94515858Y-140869826D01*
X94492197Y-140866316D01*
X94468993Y-140860504D01*
X94446471Y-140852446D01*
X94424847Y-140842218D01*
X94404330Y-140829921D01*
X94385117Y-140815671D01*
X94367393Y-140799607D01*
X94351329Y-140781883D01*
X94337079Y-140762670D01*
X94324782Y-140742153D01*
X94314554Y-140720529D01*
X94306496Y-140698007D01*
X94300684Y-140674803D01*
X94297174Y-140651142D01*
X94296000Y-140627250D01*
X94296000Y-140139750D01*
X94297174Y-140115858D01*
X94300684Y-140092197D01*
X94306496Y-140068993D01*
X94314554Y-140046471D01*
X94324782Y-140024847D01*
X94337079Y-140004330D01*
X94351329Y-139985117D01*
X94367393Y-139967393D01*
X94385117Y-139951329D01*
X94404330Y-139937079D01*
X94424847Y-139924782D01*
X94446471Y-139914554D01*
X94468993Y-139906496D01*
X94492197Y-139900684D01*
X94515858Y-139897174D01*
X94539750Y-139896000D01*
X95452250Y-139896000D01*
X95476142Y-139897174D01*
X95476142Y-139897174D01*
G37*
D11*
X94996000Y-140383500D03*
D10*
G36*
X97254142Y-100527174D02*
G01*
X97277803Y-100530684D01*
X97301007Y-100536496D01*
X97323529Y-100544554D01*
X97345153Y-100554782D01*
X97365670Y-100567079D01*
X97384883Y-100581329D01*
X97402607Y-100597393D01*
X97418671Y-100615117D01*
X97432921Y-100634330D01*
X97445218Y-100654847D01*
X97455446Y-100676471D01*
X97463504Y-100698993D01*
X97469316Y-100722197D01*
X97472826Y-100745858D01*
X97474000Y-100769750D01*
X97474000Y-101257250D01*
X97472826Y-101281142D01*
X97469316Y-101304803D01*
X97463504Y-101328007D01*
X97455446Y-101350529D01*
X97445218Y-101372153D01*
X97432921Y-101392670D01*
X97418671Y-101411883D01*
X97402607Y-101429607D01*
X97384883Y-101445671D01*
X97365670Y-101459921D01*
X97345153Y-101472218D01*
X97323529Y-101482446D01*
X97301007Y-101490504D01*
X97277803Y-101496316D01*
X97254142Y-101499826D01*
X97230250Y-101501000D01*
X96317750Y-101501000D01*
X96293858Y-101499826D01*
X96270197Y-101496316D01*
X96246993Y-101490504D01*
X96224471Y-101482446D01*
X96202847Y-101472218D01*
X96182330Y-101459921D01*
X96163117Y-101445671D01*
X96145393Y-101429607D01*
X96129329Y-101411883D01*
X96115079Y-101392670D01*
X96102782Y-101372153D01*
X96092554Y-101350529D01*
X96084496Y-101328007D01*
X96078684Y-101304803D01*
X96075174Y-101281142D01*
X96074000Y-101257250D01*
X96074000Y-100769750D01*
X96075174Y-100745858D01*
X96078684Y-100722197D01*
X96084496Y-100698993D01*
X96092554Y-100676471D01*
X96102782Y-100654847D01*
X96115079Y-100634330D01*
X96129329Y-100615117D01*
X96145393Y-100597393D01*
X96163117Y-100581329D01*
X96182330Y-100567079D01*
X96202847Y-100554782D01*
X96224471Y-100544554D01*
X96246993Y-100536496D01*
X96270197Y-100530684D01*
X96293858Y-100527174D01*
X96317750Y-100526000D01*
X97230250Y-100526000D01*
X97254142Y-100527174D01*
X97254142Y-100527174D01*
G37*
D11*
X96774000Y-101013500D03*
D10*
G36*
X97254142Y-98652174D02*
G01*
X97277803Y-98655684D01*
X97301007Y-98661496D01*
X97323529Y-98669554D01*
X97345153Y-98679782D01*
X97365670Y-98692079D01*
X97384883Y-98706329D01*
X97402607Y-98722393D01*
X97418671Y-98740117D01*
X97432921Y-98759330D01*
X97445218Y-98779847D01*
X97455446Y-98801471D01*
X97463504Y-98823993D01*
X97469316Y-98847197D01*
X97472826Y-98870858D01*
X97474000Y-98894750D01*
X97474000Y-99382250D01*
X97472826Y-99406142D01*
X97469316Y-99429803D01*
X97463504Y-99453007D01*
X97455446Y-99475529D01*
X97445218Y-99497153D01*
X97432921Y-99517670D01*
X97418671Y-99536883D01*
X97402607Y-99554607D01*
X97384883Y-99570671D01*
X97365670Y-99584921D01*
X97345153Y-99597218D01*
X97323529Y-99607446D01*
X97301007Y-99615504D01*
X97277803Y-99621316D01*
X97254142Y-99624826D01*
X97230250Y-99626000D01*
X96317750Y-99626000D01*
X96293858Y-99624826D01*
X96270197Y-99621316D01*
X96246993Y-99615504D01*
X96224471Y-99607446D01*
X96202847Y-99597218D01*
X96182330Y-99584921D01*
X96163117Y-99570671D01*
X96145393Y-99554607D01*
X96129329Y-99536883D01*
X96115079Y-99517670D01*
X96102782Y-99497153D01*
X96092554Y-99475529D01*
X96084496Y-99453007D01*
X96078684Y-99429803D01*
X96075174Y-99406142D01*
X96074000Y-99382250D01*
X96074000Y-98894750D01*
X96075174Y-98870858D01*
X96078684Y-98847197D01*
X96084496Y-98823993D01*
X96092554Y-98801471D01*
X96102782Y-98779847D01*
X96115079Y-98759330D01*
X96129329Y-98740117D01*
X96145393Y-98722393D01*
X96163117Y-98706329D01*
X96182330Y-98692079D01*
X96202847Y-98679782D01*
X96224471Y-98669554D01*
X96246993Y-98661496D01*
X96270197Y-98655684D01*
X96293858Y-98652174D01*
X96317750Y-98651000D01*
X97230250Y-98651000D01*
X97254142Y-98652174D01*
X97254142Y-98652174D01*
G37*
D11*
X96774000Y-99138500D03*
D10*
G36*
X88230142Y-97853174D02*
G01*
X88253803Y-97856684D01*
X88277007Y-97862496D01*
X88299529Y-97870554D01*
X88321153Y-97880782D01*
X88341670Y-97893079D01*
X88360883Y-97907329D01*
X88378607Y-97923393D01*
X88394671Y-97941117D01*
X88408921Y-97960330D01*
X88421218Y-97980847D01*
X88431446Y-98002471D01*
X88439504Y-98024993D01*
X88445316Y-98048197D01*
X88448826Y-98071858D01*
X88450000Y-98095750D01*
X88450000Y-99008250D01*
X88448826Y-99032142D01*
X88445316Y-99055803D01*
X88439504Y-99079007D01*
X88431446Y-99101529D01*
X88421218Y-99123153D01*
X88408921Y-99143670D01*
X88394671Y-99162883D01*
X88378607Y-99180607D01*
X88360883Y-99196671D01*
X88341670Y-99210921D01*
X88321153Y-99223218D01*
X88299529Y-99233446D01*
X88277007Y-99241504D01*
X88253803Y-99247316D01*
X88230142Y-99250826D01*
X88206250Y-99252000D01*
X87718750Y-99252000D01*
X87694858Y-99250826D01*
X87671197Y-99247316D01*
X87647993Y-99241504D01*
X87625471Y-99233446D01*
X87603847Y-99223218D01*
X87583330Y-99210921D01*
X87564117Y-99196671D01*
X87546393Y-99180607D01*
X87530329Y-99162883D01*
X87516079Y-99143670D01*
X87503782Y-99123153D01*
X87493554Y-99101529D01*
X87485496Y-99079007D01*
X87479684Y-99055803D01*
X87476174Y-99032142D01*
X87475000Y-99008250D01*
X87475000Y-98095750D01*
X87476174Y-98071858D01*
X87479684Y-98048197D01*
X87485496Y-98024993D01*
X87493554Y-98002471D01*
X87503782Y-97980847D01*
X87516079Y-97960330D01*
X87530329Y-97941117D01*
X87546393Y-97923393D01*
X87564117Y-97907329D01*
X87583330Y-97893079D01*
X87603847Y-97880782D01*
X87625471Y-97870554D01*
X87647993Y-97862496D01*
X87671197Y-97856684D01*
X87694858Y-97853174D01*
X87718750Y-97852000D01*
X88206250Y-97852000D01*
X88230142Y-97853174D01*
X88230142Y-97853174D01*
G37*
D11*
X87962500Y-98552000D03*
D10*
G36*
X90105142Y-97853174D02*
G01*
X90128803Y-97856684D01*
X90152007Y-97862496D01*
X90174529Y-97870554D01*
X90196153Y-97880782D01*
X90216670Y-97893079D01*
X90235883Y-97907329D01*
X90253607Y-97923393D01*
X90269671Y-97941117D01*
X90283921Y-97960330D01*
X90296218Y-97980847D01*
X90306446Y-98002471D01*
X90314504Y-98024993D01*
X90320316Y-98048197D01*
X90323826Y-98071858D01*
X90325000Y-98095750D01*
X90325000Y-99008250D01*
X90323826Y-99032142D01*
X90320316Y-99055803D01*
X90314504Y-99079007D01*
X90306446Y-99101529D01*
X90296218Y-99123153D01*
X90283921Y-99143670D01*
X90269671Y-99162883D01*
X90253607Y-99180607D01*
X90235883Y-99196671D01*
X90216670Y-99210921D01*
X90196153Y-99223218D01*
X90174529Y-99233446D01*
X90152007Y-99241504D01*
X90128803Y-99247316D01*
X90105142Y-99250826D01*
X90081250Y-99252000D01*
X89593750Y-99252000D01*
X89569858Y-99250826D01*
X89546197Y-99247316D01*
X89522993Y-99241504D01*
X89500471Y-99233446D01*
X89478847Y-99223218D01*
X89458330Y-99210921D01*
X89439117Y-99196671D01*
X89421393Y-99180607D01*
X89405329Y-99162883D01*
X89391079Y-99143670D01*
X89378782Y-99123153D01*
X89368554Y-99101529D01*
X89360496Y-99079007D01*
X89354684Y-99055803D01*
X89351174Y-99032142D01*
X89350000Y-99008250D01*
X89350000Y-98095750D01*
X89351174Y-98071858D01*
X89354684Y-98048197D01*
X89360496Y-98024993D01*
X89368554Y-98002471D01*
X89378782Y-97980847D01*
X89391079Y-97960330D01*
X89405329Y-97941117D01*
X89421393Y-97923393D01*
X89439117Y-97907329D01*
X89458330Y-97893079D01*
X89478847Y-97880782D01*
X89500471Y-97870554D01*
X89522993Y-97862496D01*
X89546197Y-97856684D01*
X89569858Y-97853174D01*
X89593750Y-97852000D01*
X90081250Y-97852000D01*
X90105142Y-97853174D01*
X90105142Y-97853174D01*
G37*
D11*
X89837500Y-98552000D03*
D10*
G36*
X101946142Y-105473174D02*
G01*
X101969803Y-105476684D01*
X101993007Y-105482496D01*
X102015529Y-105490554D01*
X102037153Y-105500782D01*
X102057670Y-105513079D01*
X102076883Y-105527329D01*
X102094607Y-105543393D01*
X102110671Y-105561117D01*
X102124921Y-105580330D01*
X102137218Y-105600847D01*
X102147446Y-105622471D01*
X102155504Y-105644993D01*
X102161316Y-105668197D01*
X102164826Y-105691858D01*
X102166000Y-105715750D01*
X102166000Y-106628250D01*
X102164826Y-106652142D01*
X102161316Y-106675803D01*
X102155504Y-106699007D01*
X102147446Y-106721529D01*
X102137218Y-106743153D01*
X102124921Y-106763670D01*
X102110671Y-106782883D01*
X102094607Y-106800607D01*
X102076883Y-106816671D01*
X102057670Y-106830921D01*
X102037153Y-106843218D01*
X102015529Y-106853446D01*
X101993007Y-106861504D01*
X101969803Y-106867316D01*
X101946142Y-106870826D01*
X101922250Y-106872000D01*
X101434750Y-106872000D01*
X101410858Y-106870826D01*
X101387197Y-106867316D01*
X101363993Y-106861504D01*
X101341471Y-106853446D01*
X101319847Y-106843218D01*
X101299330Y-106830921D01*
X101280117Y-106816671D01*
X101262393Y-106800607D01*
X101246329Y-106782883D01*
X101232079Y-106763670D01*
X101219782Y-106743153D01*
X101209554Y-106721529D01*
X101201496Y-106699007D01*
X101195684Y-106675803D01*
X101192174Y-106652142D01*
X101191000Y-106628250D01*
X101191000Y-105715750D01*
X101192174Y-105691858D01*
X101195684Y-105668197D01*
X101201496Y-105644993D01*
X101209554Y-105622471D01*
X101219782Y-105600847D01*
X101232079Y-105580330D01*
X101246329Y-105561117D01*
X101262393Y-105543393D01*
X101280117Y-105527329D01*
X101299330Y-105513079D01*
X101319847Y-105500782D01*
X101341471Y-105490554D01*
X101363993Y-105482496D01*
X101387197Y-105476684D01*
X101410858Y-105473174D01*
X101434750Y-105472000D01*
X101922250Y-105472000D01*
X101946142Y-105473174D01*
X101946142Y-105473174D01*
G37*
D11*
X101678500Y-106172000D03*
D10*
G36*
X103821142Y-105473174D02*
G01*
X103844803Y-105476684D01*
X103868007Y-105482496D01*
X103890529Y-105490554D01*
X103912153Y-105500782D01*
X103932670Y-105513079D01*
X103951883Y-105527329D01*
X103969607Y-105543393D01*
X103985671Y-105561117D01*
X103999921Y-105580330D01*
X104012218Y-105600847D01*
X104022446Y-105622471D01*
X104030504Y-105644993D01*
X104036316Y-105668197D01*
X104039826Y-105691858D01*
X104041000Y-105715750D01*
X104041000Y-106628250D01*
X104039826Y-106652142D01*
X104036316Y-106675803D01*
X104030504Y-106699007D01*
X104022446Y-106721529D01*
X104012218Y-106743153D01*
X103999921Y-106763670D01*
X103985671Y-106782883D01*
X103969607Y-106800607D01*
X103951883Y-106816671D01*
X103932670Y-106830921D01*
X103912153Y-106843218D01*
X103890529Y-106853446D01*
X103868007Y-106861504D01*
X103844803Y-106867316D01*
X103821142Y-106870826D01*
X103797250Y-106872000D01*
X103309750Y-106872000D01*
X103285858Y-106870826D01*
X103262197Y-106867316D01*
X103238993Y-106861504D01*
X103216471Y-106853446D01*
X103194847Y-106843218D01*
X103174330Y-106830921D01*
X103155117Y-106816671D01*
X103137393Y-106800607D01*
X103121329Y-106782883D01*
X103107079Y-106763670D01*
X103094782Y-106743153D01*
X103084554Y-106721529D01*
X103076496Y-106699007D01*
X103070684Y-106675803D01*
X103067174Y-106652142D01*
X103066000Y-106628250D01*
X103066000Y-105715750D01*
X103067174Y-105691858D01*
X103070684Y-105668197D01*
X103076496Y-105644993D01*
X103084554Y-105622471D01*
X103094782Y-105600847D01*
X103107079Y-105580330D01*
X103121329Y-105561117D01*
X103137393Y-105543393D01*
X103155117Y-105527329D01*
X103174330Y-105513079D01*
X103194847Y-105500782D01*
X103216471Y-105490554D01*
X103238993Y-105482496D01*
X103262197Y-105476684D01*
X103285858Y-105473174D01*
X103309750Y-105472000D01*
X103797250Y-105472000D01*
X103821142Y-105473174D01*
X103821142Y-105473174D01*
G37*
D11*
X103553500Y-106172000D03*
D10*
G36*
X88230142Y-133921174D02*
G01*
X88253803Y-133924684D01*
X88277007Y-133930496D01*
X88299529Y-133938554D01*
X88321153Y-133948782D01*
X88341670Y-133961079D01*
X88360883Y-133975329D01*
X88378607Y-133991393D01*
X88394671Y-134009117D01*
X88408921Y-134028330D01*
X88421218Y-134048847D01*
X88431446Y-134070471D01*
X88439504Y-134092993D01*
X88445316Y-134116197D01*
X88448826Y-134139858D01*
X88450000Y-134163750D01*
X88450000Y-135076250D01*
X88448826Y-135100142D01*
X88445316Y-135123803D01*
X88439504Y-135147007D01*
X88431446Y-135169529D01*
X88421218Y-135191153D01*
X88408921Y-135211670D01*
X88394671Y-135230883D01*
X88378607Y-135248607D01*
X88360883Y-135264671D01*
X88341670Y-135278921D01*
X88321153Y-135291218D01*
X88299529Y-135301446D01*
X88277007Y-135309504D01*
X88253803Y-135315316D01*
X88230142Y-135318826D01*
X88206250Y-135320000D01*
X87718750Y-135320000D01*
X87694858Y-135318826D01*
X87671197Y-135315316D01*
X87647993Y-135309504D01*
X87625471Y-135301446D01*
X87603847Y-135291218D01*
X87583330Y-135278921D01*
X87564117Y-135264671D01*
X87546393Y-135248607D01*
X87530329Y-135230883D01*
X87516079Y-135211670D01*
X87503782Y-135191153D01*
X87493554Y-135169529D01*
X87485496Y-135147007D01*
X87479684Y-135123803D01*
X87476174Y-135100142D01*
X87475000Y-135076250D01*
X87475000Y-134163750D01*
X87476174Y-134139858D01*
X87479684Y-134116197D01*
X87485496Y-134092993D01*
X87493554Y-134070471D01*
X87503782Y-134048847D01*
X87516079Y-134028330D01*
X87530329Y-134009117D01*
X87546393Y-133991393D01*
X87564117Y-133975329D01*
X87583330Y-133961079D01*
X87603847Y-133948782D01*
X87625471Y-133938554D01*
X87647993Y-133930496D01*
X87671197Y-133924684D01*
X87694858Y-133921174D01*
X87718750Y-133920000D01*
X88206250Y-133920000D01*
X88230142Y-133921174D01*
X88230142Y-133921174D01*
G37*
D11*
X87962500Y-134620000D03*
D10*
G36*
X90105142Y-133921174D02*
G01*
X90128803Y-133924684D01*
X90152007Y-133930496D01*
X90174529Y-133938554D01*
X90196153Y-133948782D01*
X90216670Y-133961079D01*
X90235883Y-133975329D01*
X90253607Y-133991393D01*
X90269671Y-134009117D01*
X90283921Y-134028330D01*
X90296218Y-134048847D01*
X90306446Y-134070471D01*
X90314504Y-134092993D01*
X90320316Y-134116197D01*
X90323826Y-134139858D01*
X90325000Y-134163750D01*
X90325000Y-135076250D01*
X90323826Y-135100142D01*
X90320316Y-135123803D01*
X90314504Y-135147007D01*
X90306446Y-135169529D01*
X90296218Y-135191153D01*
X90283921Y-135211670D01*
X90269671Y-135230883D01*
X90253607Y-135248607D01*
X90235883Y-135264671D01*
X90216670Y-135278921D01*
X90196153Y-135291218D01*
X90174529Y-135301446D01*
X90152007Y-135309504D01*
X90128803Y-135315316D01*
X90105142Y-135318826D01*
X90081250Y-135320000D01*
X89593750Y-135320000D01*
X89569858Y-135318826D01*
X89546197Y-135315316D01*
X89522993Y-135309504D01*
X89500471Y-135301446D01*
X89478847Y-135291218D01*
X89458330Y-135278921D01*
X89439117Y-135264671D01*
X89421393Y-135248607D01*
X89405329Y-135230883D01*
X89391079Y-135211670D01*
X89378782Y-135191153D01*
X89368554Y-135169529D01*
X89360496Y-135147007D01*
X89354684Y-135123803D01*
X89351174Y-135100142D01*
X89350000Y-135076250D01*
X89350000Y-134163750D01*
X89351174Y-134139858D01*
X89354684Y-134116197D01*
X89360496Y-134092993D01*
X89368554Y-134070471D01*
X89378782Y-134048847D01*
X89391079Y-134028330D01*
X89405329Y-134009117D01*
X89421393Y-133991393D01*
X89439117Y-133975329D01*
X89458330Y-133961079D01*
X89478847Y-133948782D01*
X89500471Y-133938554D01*
X89522993Y-133930496D01*
X89546197Y-133924684D01*
X89569858Y-133921174D01*
X89593750Y-133920000D01*
X90081250Y-133920000D01*
X90105142Y-133921174D01*
X90105142Y-133921174D01*
G37*
D11*
X89837500Y-134620000D03*
D10*
G36*
X101946142Y-141541174D02*
G01*
X101969803Y-141544684D01*
X101993007Y-141550496D01*
X102015529Y-141558554D01*
X102037153Y-141568782D01*
X102057670Y-141581079D01*
X102076883Y-141595329D01*
X102094607Y-141611393D01*
X102110671Y-141629117D01*
X102124921Y-141648330D01*
X102137218Y-141668847D01*
X102147446Y-141690471D01*
X102155504Y-141712993D01*
X102161316Y-141736197D01*
X102164826Y-141759858D01*
X102166000Y-141783750D01*
X102166000Y-142696250D01*
X102164826Y-142720142D01*
X102161316Y-142743803D01*
X102155504Y-142767007D01*
X102147446Y-142789529D01*
X102137218Y-142811153D01*
X102124921Y-142831670D01*
X102110671Y-142850883D01*
X102094607Y-142868607D01*
X102076883Y-142884671D01*
X102057670Y-142898921D01*
X102037153Y-142911218D01*
X102015529Y-142921446D01*
X101993007Y-142929504D01*
X101969803Y-142935316D01*
X101946142Y-142938826D01*
X101922250Y-142940000D01*
X101434750Y-142940000D01*
X101410858Y-142938826D01*
X101387197Y-142935316D01*
X101363993Y-142929504D01*
X101341471Y-142921446D01*
X101319847Y-142911218D01*
X101299330Y-142898921D01*
X101280117Y-142884671D01*
X101262393Y-142868607D01*
X101246329Y-142850883D01*
X101232079Y-142831670D01*
X101219782Y-142811153D01*
X101209554Y-142789529D01*
X101201496Y-142767007D01*
X101195684Y-142743803D01*
X101192174Y-142720142D01*
X101191000Y-142696250D01*
X101191000Y-141783750D01*
X101192174Y-141759858D01*
X101195684Y-141736197D01*
X101201496Y-141712993D01*
X101209554Y-141690471D01*
X101219782Y-141668847D01*
X101232079Y-141648330D01*
X101246329Y-141629117D01*
X101262393Y-141611393D01*
X101280117Y-141595329D01*
X101299330Y-141581079D01*
X101319847Y-141568782D01*
X101341471Y-141558554D01*
X101363993Y-141550496D01*
X101387197Y-141544684D01*
X101410858Y-141541174D01*
X101434750Y-141540000D01*
X101922250Y-141540000D01*
X101946142Y-141541174D01*
X101946142Y-141541174D01*
G37*
D11*
X101678500Y-142240000D03*
D10*
G36*
X103821142Y-141541174D02*
G01*
X103844803Y-141544684D01*
X103868007Y-141550496D01*
X103890529Y-141558554D01*
X103912153Y-141568782D01*
X103932670Y-141581079D01*
X103951883Y-141595329D01*
X103969607Y-141611393D01*
X103985671Y-141629117D01*
X103999921Y-141648330D01*
X104012218Y-141668847D01*
X104022446Y-141690471D01*
X104030504Y-141712993D01*
X104036316Y-141736197D01*
X104039826Y-141759858D01*
X104041000Y-141783750D01*
X104041000Y-142696250D01*
X104039826Y-142720142D01*
X104036316Y-142743803D01*
X104030504Y-142767007D01*
X104022446Y-142789529D01*
X104012218Y-142811153D01*
X103999921Y-142831670D01*
X103985671Y-142850883D01*
X103969607Y-142868607D01*
X103951883Y-142884671D01*
X103932670Y-142898921D01*
X103912153Y-142911218D01*
X103890529Y-142921446D01*
X103868007Y-142929504D01*
X103844803Y-142935316D01*
X103821142Y-142938826D01*
X103797250Y-142940000D01*
X103309750Y-142940000D01*
X103285858Y-142938826D01*
X103262197Y-142935316D01*
X103238993Y-142929504D01*
X103216471Y-142921446D01*
X103194847Y-142911218D01*
X103174330Y-142898921D01*
X103155117Y-142884671D01*
X103137393Y-142868607D01*
X103121329Y-142850883D01*
X103107079Y-142831670D01*
X103094782Y-142811153D01*
X103084554Y-142789529D01*
X103076496Y-142767007D01*
X103070684Y-142743803D01*
X103067174Y-142720142D01*
X103066000Y-142696250D01*
X103066000Y-141783750D01*
X103067174Y-141759858D01*
X103070684Y-141736197D01*
X103076496Y-141712993D01*
X103084554Y-141690471D01*
X103094782Y-141668847D01*
X103107079Y-141648330D01*
X103121329Y-141629117D01*
X103137393Y-141611393D01*
X103155117Y-141595329D01*
X103174330Y-141581079D01*
X103194847Y-141568782D01*
X103216471Y-141558554D01*
X103238993Y-141550496D01*
X103262197Y-141544684D01*
X103285858Y-141541174D01*
X103309750Y-141540000D01*
X103797250Y-141540000D01*
X103821142Y-141541174D01*
X103821142Y-141541174D01*
G37*
D11*
X103553500Y-142240000D03*
D10*
G36*
X88230142Y-123253174D02*
G01*
X88253803Y-123256684D01*
X88277007Y-123262496D01*
X88299529Y-123270554D01*
X88321153Y-123280782D01*
X88341670Y-123293079D01*
X88360883Y-123307329D01*
X88378607Y-123323393D01*
X88394671Y-123341117D01*
X88408921Y-123360330D01*
X88421218Y-123380847D01*
X88431446Y-123402471D01*
X88439504Y-123424993D01*
X88445316Y-123448197D01*
X88448826Y-123471858D01*
X88450000Y-123495750D01*
X88450000Y-124408250D01*
X88448826Y-124432142D01*
X88445316Y-124455803D01*
X88439504Y-124479007D01*
X88431446Y-124501529D01*
X88421218Y-124523153D01*
X88408921Y-124543670D01*
X88394671Y-124562883D01*
X88378607Y-124580607D01*
X88360883Y-124596671D01*
X88341670Y-124610921D01*
X88321153Y-124623218D01*
X88299529Y-124633446D01*
X88277007Y-124641504D01*
X88253803Y-124647316D01*
X88230142Y-124650826D01*
X88206250Y-124652000D01*
X87718750Y-124652000D01*
X87694858Y-124650826D01*
X87671197Y-124647316D01*
X87647993Y-124641504D01*
X87625471Y-124633446D01*
X87603847Y-124623218D01*
X87583330Y-124610921D01*
X87564117Y-124596671D01*
X87546393Y-124580607D01*
X87530329Y-124562883D01*
X87516079Y-124543670D01*
X87503782Y-124523153D01*
X87493554Y-124501529D01*
X87485496Y-124479007D01*
X87479684Y-124455803D01*
X87476174Y-124432142D01*
X87475000Y-124408250D01*
X87475000Y-123495750D01*
X87476174Y-123471858D01*
X87479684Y-123448197D01*
X87485496Y-123424993D01*
X87493554Y-123402471D01*
X87503782Y-123380847D01*
X87516079Y-123360330D01*
X87530329Y-123341117D01*
X87546393Y-123323393D01*
X87564117Y-123307329D01*
X87583330Y-123293079D01*
X87603847Y-123280782D01*
X87625471Y-123270554D01*
X87647993Y-123262496D01*
X87671197Y-123256684D01*
X87694858Y-123253174D01*
X87718750Y-123252000D01*
X88206250Y-123252000D01*
X88230142Y-123253174D01*
X88230142Y-123253174D01*
G37*
D11*
X87962500Y-123952000D03*
D10*
G36*
X90105142Y-123253174D02*
G01*
X90128803Y-123256684D01*
X90152007Y-123262496D01*
X90174529Y-123270554D01*
X90196153Y-123280782D01*
X90216670Y-123293079D01*
X90235883Y-123307329D01*
X90253607Y-123323393D01*
X90269671Y-123341117D01*
X90283921Y-123360330D01*
X90296218Y-123380847D01*
X90306446Y-123402471D01*
X90314504Y-123424993D01*
X90320316Y-123448197D01*
X90323826Y-123471858D01*
X90325000Y-123495750D01*
X90325000Y-124408250D01*
X90323826Y-124432142D01*
X90320316Y-124455803D01*
X90314504Y-124479007D01*
X90306446Y-124501529D01*
X90296218Y-124523153D01*
X90283921Y-124543670D01*
X90269671Y-124562883D01*
X90253607Y-124580607D01*
X90235883Y-124596671D01*
X90216670Y-124610921D01*
X90196153Y-124623218D01*
X90174529Y-124633446D01*
X90152007Y-124641504D01*
X90128803Y-124647316D01*
X90105142Y-124650826D01*
X90081250Y-124652000D01*
X89593750Y-124652000D01*
X89569858Y-124650826D01*
X89546197Y-124647316D01*
X89522993Y-124641504D01*
X89500471Y-124633446D01*
X89478847Y-124623218D01*
X89458330Y-124610921D01*
X89439117Y-124596671D01*
X89421393Y-124580607D01*
X89405329Y-124562883D01*
X89391079Y-124543670D01*
X89378782Y-124523153D01*
X89368554Y-124501529D01*
X89360496Y-124479007D01*
X89354684Y-124455803D01*
X89351174Y-124432142D01*
X89350000Y-124408250D01*
X89350000Y-123495750D01*
X89351174Y-123471858D01*
X89354684Y-123448197D01*
X89360496Y-123424993D01*
X89368554Y-123402471D01*
X89378782Y-123380847D01*
X89391079Y-123360330D01*
X89405329Y-123341117D01*
X89421393Y-123323393D01*
X89439117Y-123307329D01*
X89458330Y-123293079D01*
X89478847Y-123280782D01*
X89500471Y-123270554D01*
X89522993Y-123262496D01*
X89546197Y-123256684D01*
X89569858Y-123253174D01*
X89593750Y-123252000D01*
X90081250Y-123252000D01*
X90105142Y-123253174D01*
X90105142Y-123253174D01*
G37*
D11*
X89837500Y-123952000D03*
D10*
G36*
X101946142Y-125031174D02*
G01*
X101969803Y-125034684D01*
X101993007Y-125040496D01*
X102015529Y-125048554D01*
X102037153Y-125058782D01*
X102057670Y-125071079D01*
X102076883Y-125085329D01*
X102094607Y-125101393D01*
X102110671Y-125119117D01*
X102124921Y-125138330D01*
X102137218Y-125158847D01*
X102147446Y-125180471D01*
X102155504Y-125202993D01*
X102161316Y-125226197D01*
X102164826Y-125249858D01*
X102166000Y-125273750D01*
X102166000Y-126186250D01*
X102164826Y-126210142D01*
X102161316Y-126233803D01*
X102155504Y-126257007D01*
X102147446Y-126279529D01*
X102137218Y-126301153D01*
X102124921Y-126321670D01*
X102110671Y-126340883D01*
X102094607Y-126358607D01*
X102076883Y-126374671D01*
X102057670Y-126388921D01*
X102037153Y-126401218D01*
X102015529Y-126411446D01*
X101993007Y-126419504D01*
X101969803Y-126425316D01*
X101946142Y-126428826D01*
X101922250Y-126430000D01*
X101434750Y-126430000D01*
X101410858Y-126428826D01*
X101387197Y-126425316D01*
X101363993Y-126419504D01*
X101341471Y-126411446D01*
X101319847Y-126401218D01*
X101299330Y-126388921D01*
X101280117Y-126374671D01*
X101262393Y-126358607D01*
X101246329Y-126340883D01*
X101232079Y-126321670D01*
X101219782Y-126301153D01*
X101209554Y-126279529D01*
X101201496Y-126257007D01*
X101195684Y-126233803D01*
X101192174Y-126210142D01*
X101191000Y-126186250D01*
X101191000Y-125273750D01*
X101192174Y-125249858D01*
X101195684Y-125226197D01*
X101201496Y-125202993D01*
X101209554Y-125180471D01*
X101219782Y-125158847D01*
X101232079Y-125138330D01*
X101246329Y-125119117D01*
X101262393Y-125101393D01*
X101280117Y-125085329D01*
X101299330Y-125071079D01*
X101319847Y-125058782D01*
X101341471Y-125048554D01*
X101363993Y-125040496D01*
X101387197Y-125034684D01*
X101410858Y-125031174D01*
X101434750Y-125030000D01*
X101922250Y-125030000D01*
X101946142Y-125031174D01*
X101946142Y-125031174D01*
G37*
D11*
X101678500Y-125730000D03*
D10*
G36*
X103821142Y-125031174D02*
G01*
X103844803Y-125034684D01*
X103868007Y-125040496D01*
X103890529Y-125048554D01*
X103912153Y-125058782D01*
X103932670Y-125071079D01*
X103951883Y-125085329D01*
X103969607Y-125101393D01*
X103985671Y-125119117D01*
X103999921Y-125138330D01*
X104012218Y-125158847D01*
X104022446Y-125180471D01*
X104030504Y-125202993D01*
X104036316Y-125226197D01*
X104039826Y-125249858D01*
X104041000Y-125273750D01*
X104041000Y-126186250D01*
X104039826Y-126210142D01*
X104036316Y-126233803D01*
X104030504Y-126257007D01*
X104022446Y-126279529D01*
X104012218Y-126301153D01*
X103999921Y-126321670D01*
X103985671Y-126340883D01*
X103969607Y-126358607D01*
X103951883Y-126374671D01*
X103932670Y-126388921D01*
X103912153Y-126401218D01*
X103890529Y-126411446D01*
X103868007Y-126419504D01*
X103844803Y-126425316D01*
X103821142Y-126428826D01*
X103797250Y-126430000D01*
X103309750Y-126430000D01*
X103285858Y-126428826D01*
X103262197Y-126425316D01*
X103238993Y-126419504D01*
X103216471Y-126411446D01*
X103194847Y-126401218D01*
X103174330Y-126388921D01*
X103155117Y-126374671D01*
X103137393Y-126358607D01*
X103121329Y-126340883D01*
X103107079Y-126321670D01*
X103094782Y-126301153D01*
X103084554Y-126279529D01*
X103076496Y-126257007D01*
X103070684Y-126233803D01*
X103067174Y-126210142D01*
X103066000Y-126186250D01*
X103066000Y-125273750D01*
X103067174Y-125249858D01*
X103070684Y-125226197D01*
X103076496Y-125202993D01*
X103084554Y-125180471D01*
X103094782Y-125158847D01*
X103107079Y-125138330D01*
X103121329Y-125119117D01*
X103137393Y-125101393D01*
X103155117Y-125085329D01*
X103174330Y-125071079D01*
X103194847Y-125058782D01*
X103216471Y-125048554D01*
X103238993Y-125040496D01*
X103262197Y-125034684D01*
X103285858Y-125031174D01*
X103309750Y-125030000D01*
X103797250Y-125030000D01*
X103821142Y-125031174D01*
X103821142Y-125031174D01*
G37*
D11*
X103553500Y-125730000D03*
M02*
