G04 #@! TF.GenerationSoftware,KiCad,Pcbnew,(5.1.4-0-10_14)*
G04 #@! TF.CreationDate,2019-10-08T21:24:40-07:00*
G04 #@! TF.ProjectId,VCO_Main,56434f5f-4d61-4696-9e2e-6b696361645f,rev?*
G04 #@! TF.SameCoordinates,Original*
G04 #@! TF.FileFunction,Copper,L2,Bot*
G04 #@! TF.FilePolarity,Positive*
%FSLAX46Y46*%
G04 Gerber Fmt 4.6, Leading zero omitted, Abs format (unit mm)*
G04 Created by KiCad (PCBNEW (5.1.4-0-10_14)) date 2019-10-08 21:24:40*
%MOMM*%
%LPD*%
G04 APERTURE LIST*
%ADD10C,1.440000*%
%ADD11R,1.700000X1.700000*%
%ADD12O,1.700000X1.700000*%
%ADD13C,2.000000*%
%ADD14R,1.727200X1.727200*%
%ADD15O,1.727200X1.727200*%
%ADD16R,1.600000X1.600000*%
%ADD17O,1.600000X1.600000*%
%ADD18C,1.524000*%
%ADD19C,5.000000*%
%ADD20C,0.800000*%
%ADD21C,0.250000*%
%ADD22C,0.254000*%
G04 APERTURE END LIST*
D10*
X106172000Y-82042000D03*
X106172000Y-79502000D03*
X106172000Y-76962000D03*
X85852000Y-102870000D03*
X85852000Y-100330000D03*
X85852000Y-97790000D03*
X86614000Y-116840000D03*
X86614000Y-114300000D03*
X86614000Y-111760000D03*
X105918000Y-122174000D03*
X105918000Y-124714000D03*
X105918000Y-127254000D03*
X105918000Y-116840000D03*
X105918000Y-114300000D03*
X105918000Y-111760000D03*
X105918000Y-134620000D03*
X105918000Y-137160000D03*
X105918000Y-139700000D03*
X105918000Y-103124000D03*
X105918000Y-100584000D03*
X105918000Y-98044000D03*
D11*
X86614000Y-77978000D03*
D12*
X84074000Y-77978000D03*
D10*
X85852000Y-72136000D03*
X83312000Y-72136000D03*
X80772000Y-72136000D03*
D13*
X106172000Y-90170000D03*
X106172000Y-86614000D03*
D14*
X71120000Y-97790000D03*
D15*
X73660000Y-97790000D03*
X71120000Y-95250000D03*
X73660000Y-95250000D03*
X71120000Y-92710000D03*
X73660000Y-92710000D03*
X71120000Y-90170000D03*
X73660000Y-90170000D03*
X71120000Y-87630000D03*
X73660000Y-87630000D03*
X71120000Y-85090000D03*
X73660000Y-85090000D03*
X71120000Y-82550000D03*
X73660000Y-82550000D03*
X71120000Y-80010000D03*
X73660000Y-80010000D03*
D16*
X99568000Y-75946000D03*
D17*
X91948000Y-93726000D03*
X99568000Y-78486000D03*
X91948000Y-91186000D03*
X99568000Y-81026000D03*
X91948000Y-88646000D03*
X99568000Y-83566000D03*
X91948000Y-86106000D03*
X99568000Y-86106000D03*
X91948000Y-83566000D03*
X99568000Y-88646000D03*
X91948000Y-81026000D03*
X99568000Y-91186000D03*
X91948000Y-78486000D03*
X99568000Y-93726000D03*
X91948000Y-75946000D03*
X91948000Y-134620000D03*
X99568000Y-142240000D03*
X91948000Y-137160000D03*
X99568000Y-139700000D03*
X91948000Y-139700000D03*
X99568000Y-137160000D03*
X91948000Y-142240000D03*
D16*
X99568000Y-134620000D03*
X99568000Y-111252000D03*
D17*
X91948000Y-129032000D03*
X99568000Y-113792000D03*
X91948000Y-126492000D03*
X99568000Y-116332000D03*
X91948000Y-123952000D03*
X99568000Y-118872000D03*
X91948000Y-121412000D03*
X99568000Y-121412000D03*
X91948000Y-118872000D03*
X99568000Y-123952000D03*
X91948000Y-116332000D03*
X99568000Y-126492000D03*
X91948000Y-113792000D03*
X99568000Y-129032000D03*
X91948000Y-111252000D03*
D10*
X78994000Y-119380000D03*
X78994000Y-121920000D03*
X78994000Y-124460000D03*
X73406000Y-111760000D03*
X73406000Y-109220000D03*
X73406000Y-106680000D03*
D11*
X71120000Y-118364000D03*
D12*
X71120000Y-120904000D03*
X71120000Y-123444000D03*
X71120000Y-125984000D03*
X71120000Y-128524000D03*
X71120000Y-131064000D03*
X71120000Y-133604000D03*
X71120000Y-136144000D03*
X71120000Y-138684000D03*
X71120000Y-141224000D03*
X71120000Y-143764000D03*
X71120000Y-146304000D03*
X71120000Y-148844000D03*
X71120000Y-151384000D03*
D16*
X99568000Y-98552000D03*
D17*
X91948000Y-106172000D03*
X99568000Y-101092000D03*
X91948000Y-103632000D03*
X99568000Y-103632000D03*
X91948000Y-101092000D03*
X99568000Y-106172000D03*
X91948000Y-98552000D03*
D18*
X87122000Y-82169000D03*
X87122000Y-88519000D03*
D19*
X70612000Y-70612000D03*
X70612000Y-156718000D03*
X107188000Y-70612000D03*
X92202000Y-156718000D03*
D20*
X104902000Y-129794000D03*
X104648000Y-125984000D03*
X81280000Y-129286000D03*
X82550000Y-119380000D03*
X88138000Y-100076000D03*
X97282000Y-94996000D03*
X105156000Y-142240000D03*
X107950000Y-78232000D03*
X97790000Y-77470000D03*
X81026000Y-96012000D03*
X94234000Y-142494000D03*
X94234000Y-116840000D03*
X89662000Y-87376000D03*
X100838000Y-132334000D03*
X95250000Y-145288000D03*
X95250000Y-130810000D03*
X105410000Y-94234000D03*
D21*
X107950000Y-88392000D02*
X107950000Y-78232000D01*
X106172000Y-90170000D02*
X107950000Y-88392000D01*
X98768001Y-124751999D02*
X99568000Y-123952000D01*
X98442999Y-125077001D02*
X98768001Y-124751999D01*
X98442999Y-141114999D02*
X98442999Y-125077001D01*
X99568000Y-142240000D02*
X98442999Y-141114999D01*
X98768001Y-106971999D02*
X99568000Y-106172000D01*
X98442999Y-107297001D02*
X98768001Y-106971999D01*
X98442999Y-122826999D02*
X98442999Y-107297001D01*
X99568000Y-123952000D02*
X98442999Y-122826999D01*
X98442999Y-105046999D02*
X98442999Y-78884999D01*
X99568000Y-106172000D02*
X98442999Y-105046999D01*
X97790000Y-78232000D02*
X97790000Y-77470000D01*
X98442999Y-78884999D02*
X97790000Y-78232000D01*
X72322081Y-123444000D02*
X83058000Y-134179919D01*
X71120000Y-123444000D02*
X72322081Y-123444000D01*
X83058000Y-134179919D02*
X83058000Y-141224000D01*
X83058000Y-141224000D02*
X90932000Y-149098000D01*
X90932000Y-149098000D02*
X96774000Y-149098000D01*
X99568000Y-146304000D02*
X99568000Y-142240000D01*
X96774000Y-149098000D02*
X99568000Y-146304000D01*
X81026000Y-79248000D02*
X86106000Y-74168000D01*
X81026000Y-96012000D02*
X81026000Y-79248000D01*
X94488000Y-74168000D02*
X97790000Y-77470000D01*
X86106000Y-74168000D02*
X94488000Y-74168000D01*
X72233600Y-97790000D02*
X73660000Y-97790000D01*
X71120000Y-97790000D02*
X72233600Y-97790000D01*
X92747999Y-124751999D02*
X91948000Y-123952000D01*
X93073001Y-133494999D02*
X93073001Y-125077001D01*
X93073001Y-125077001D02*
X92747999Y-124751999D01*
X91948000Y-134620000D02*
X93073001Y-133494999D01*
X92747999Y-99351999D02*
X91948000Y-98552000D01*
X93073001Y-99677001D02*
X92747999Y-99351999D01*
X91948000Y-123952000D02*
X93073001Y-122826999D01*
X93073001Y-77071001D02*
X92747999Y-76745999D01*
X93073001Y-97426999D02*
X93073001Y-77071001D01*
X92747999Y-76745999D02*
X91948000Y-75946000D01*
X91948000Y-98552000D02*
X93073001Y-97426999D01*
X94234000Y-136906000D02*
X91948000Y-134620000D01*
X94234000Y-142494000D02*
X94234000Y-136906000D01*
X91440000Y-124460000D02*
X91948000Y-123952000D01*
X78994000Y-124460000D02*
X91440000Y-124460000D01*
X93218000Y-116840000D02*
X93073001Y-116984999D01*
X94234000Y-116840000D02*
X93218000Y-116840000D01*
X93073001Y-116984999D02*
X93073001Y-99677001D01*
X93073001Y-122826999D02*
X93073001Y-116984999D01*
X106172000Y-82042000D02*
X106172000Y-86614000D01*
X89262001Y-87775999D02*
X89262001Y-90823999D01*
X89662000Y-87376000D02*
X89262001Y-87775999D01*
X89262001Y-90823999D02*
X83058000Y-97028000D01*
X83058000Y-97028000D02*
X83058000Y-99060000D01*
X83058000Y-99060000D02*
X80010000Y-102108000D01*
X80010000Y-102108000D02*
X71628000Y-102108000D01*
X71628000Y-102108000D02*
X68072000Y-105664000D01*
X68072000Y-122936000D02*
X71120000Y-125984000D01*
X68072000Y-105664000D02*
X68072000Y-122936000D01*
X100618000Y-98552000D02*
X99568000Y-98552000D01*
X100838000Y-98772000D02*
X100618000Y-98552000D01*
X100838000Y-132334000D02*
X100838000Y-98772000D01*
X95250000Y-145288000D02*
X95250000Y-131318000D01*
X95250000Y-131318000D02*
X95250000Y-130810000D01*
X100076000Y-94234000D02*
X99568000Y-93726000D01*
X105410000Y-94234000D02*
X100076000Y-94234000D01*
D22*
G36*
X68864627Y-67990882D02*
G01*
X68588457Y-68408852D01*
X70612000Y-70432395D01*
X72635543Y-68408852D01*
X72359373Y-67990882D01*
X72305201Y-67962000D01*
X105494661Y-67962000D01*
X105440627Y-67990882D01*
X105164457Y-68408852D01*
X107188000Y-70432395D01*
X109211543Y-68408852D01*
X108935373Y-67990882D01*
X108881201Y-67962000D01*
X109838001Y-67962000D01*
X109838001Y-68918663D01*
X109809118Y-68864627D01*
X109391148Y-68588457D01*
X107367605Y-70612000D01*
X109391148Y-72635543D01*
X109809118Y-72359373D01*
X109838001Y-72305199D01*
X109838000Y-159368000D01*
X93895339Y-159368000D01*
X93949373Y-159339118D01*
X94225543Y-158921148D01*
X92202000Y-156897605D01*
X90178457Y-158921148D01*
X90454627Y-159339118D01*
X90508799Y-159368000D01*
X72305339Y-159368000D01*
X72359373Y-159339118D01*
X72635543Y-158921148D01*
X70612000Y-156897605D01*
X68588457Y-158921148D01*
X68864627Y-159339118D01*
X68918799Y-159368000D01*
X67962000Y-159368000D01*
X67962000Y-158411339D01*
X67990882Y-158465373D01*
X68408852Y-158741543D01*
X70432395Y-156718000D01*
X70791605Y-156718000D01*
X72815148Y-158741543D01*
X73233118Y-158465373D01*
X73523649Y-157920443D01*
X73702287Y-157329304D01*
X73761519Y-156721328D01*
X89051832Y-156721328D01*
X89113010Y-157335831D01*
X89292897Y-157926592D01*
X89580882Y-158465373D01*
X89998852Y-158741543D01*
X92022395Y-156718000D01*
X92381605Y-156718000D01*
X94405148Y-158741543D01*
X94823118Y-158465373D01*
X95113649Y-157920443D01*
X95292287Y-157329304D01*
X95352168Y-156714672D01*
X95290990Y-156100169D01*
X95111103Y-155509408D01*
X94823118Y-154970627D01*
X94405148Y-154694457D01*
X92381605Y-156718000D01*
X92022395Y-156718000D01*
X89998852Y-154694457D01*
X89580882Y-154970627D01*
X89290351Y-155515557D01*
X89111713Y-156106696D01*
X89051832Y-156721328D01*
X73761519Y-156721328D01*
X73762168Y-156714672D01*
X73700990Y-156100169D01*
X73521103Y-155509408D01*
X73233118Y-154970627D01*
X72815148Y-154694457D01*
X70791605Y-156718000D01*
X70432395Y-156718000D01*
X68408852Y-154694457D01*
X67990882Y-154970627D01*
X67962000Y-155024799D01*
X67962000Y-154514852D01*
X68588457Y-154514852D01*
X70612000Y-156538395D01*
X72635543Y-154514852D01*
X90178457Y-154514852D01*
X92202000Y-156538395D01*
X94225543Y-154514852D01*
X93949373Y-154096882D01*
X93404443Y-153806351D01*
X92813304Y-153627713D01*
X92198672Y-153567832D01*
X91584169Y-153629010D01*
X90993408Y-153808897D01*
X90454627Y-154096882D01*
X90178457Y-154514852D01*
X72635543Y-154514852D01*
X72359373Y-154096882D01*
X71814443Y-153806351D01*
X71223304Y-153627713D01*
X70608672Y-153567832D01*
X69994169Y-153629010D01*
X69403408Y-153808897D01*
X68864627Y-154096882D01*
X68588457Y-154514852D01*
X67962000Y-154514852D01*
X67962000Y-151740890D01*
X69678524Y-151740890D01*
X69723175Y-151888099D01*
X69848359Y-152150920D01*
X70022412Y-152384269D01*
X70238645Y-152579178D01*
X70488748Y-152728157D01*
X70763109Y-152825481D01*
X70993000Y-152704814D01*
X70993000Y-151511000D01*
X71247000Y-151511000D01*
X71247000Y-152704814D01*
X71476891Y-152825481D01*
X71751252Y-152728157D01*
X72001355Y-152579178D01*
X72217588Y-152384269D01*
X72391641Y-152150920D01*
X72516825Y-151888099D01*
X72561476Y-151740890D01*
X72440155Y-151511000D01*
X71247000Y-151511000D01*
X70993000Y-151511000D01*
X69799845Y-151511000D01*
X69678524Y-151740890D01*
X67962000Y-151740890D01*
X67962000Y-123889488D01*
X69688250Y-125615739D01*
X69664371Y-125694457D01*
X69635854Y-125984000D01*
X69664371Y-126273543D01*
X69748828Y-126551958D01*
X69885978Y-126808547D01*
X70070550Y-127033450D01*
X70295453Y-127218022D01*
X70362763Y-127254000D01*
X70295453Y-127289978D01*
X70070550Y-127474550D01*
X69885978Y-127699453D01*
X69748828Y-127956042D01*
X69664371Y-128234457D01*
X69635854Y-128524000D01*
X69664371Y-128813543D01*
X69748828Y-129091958D01*
X69885978Y-129348547D01*
X70070550Y-129573450D01*
X70295453Y-129758022D01*
X70362763Y-129794000D01*
X70295453Y-129829978D01*
X70070550Y-130014550D01*
X69885978Y-130239453D01*
X69748828Y-130496042D01*
X69664371Y-130774457D01*
X69635854Y-131064000D01*
X69664371Y-131353543D01*
X69748828Y-131631958D01*
X69885978Y-131888547D01*
X70070550Y-132113450D01*
X70295453Y-132298022D01*
X70362763Y-132334000D01*
X70295453Y-132369978D01*
X70070550Y-132554550D01*
X69885978Y-132779453D01*
X69748828Y-133036042D01*
X69664371Y-133314457D01*
X69635854Y-133604000D01*
X69664371Y-133893543D01*
X69748828Y-134171958D01*
X69885978Y-134428547D01*
X70070550Y-134653450D01*
X70295453Y-134838022D01*
X70362763Y-134874000D01*
X70295453Y-134909978D01*
X70070550Y-135094550D01*
X69885978Y-135319453D01*
X69748828Y-135576042D01*
X69664371Y-135854457D01*
X69635854Y-136144000D01*
X69664371Y-136433543D01*
X69748828Y-136711958D01*
X69885978Y-136968547D01*
X70070550Y-137193450D01*
X70295453Y-137378022D01*
X70362763Y-137414000D01*
X70295453Y-137449978D01*
X70070550Y-137634550D01*
X69885978Y-137859453D01*
X69748828Y-138116042D01*
X69664371Y-138394457D01*
X69635854Y-138684000D01*
X69664371Y-138973543D01*
X69748828Y-139251958D01*
X69885978Y-139508547D01*
X70070550Y-139733450D01*
X70295453Y-139918022D01*
X70362763Y-139954000D01*
X70295453Y-139989978D01*
X70070550Y-140174550D01*
X69885978Y-140399453D01*
X69748828Y-140656042D01*
X69664371Y-140934457D01*
X69635854Y-141224000D01*
X69664371Y-141513543D01*
X69748828Y-141791958D01*
X69885978Y-142048547D01*
X70070550Y-142273450D01*
X70295453Y-142458022D01*
X70362763Y-142494000D01*
X70295453Y-142529978D01*
X70070550Y-142714550D01*
X69885978Y-142939453D01*
X69748828Y-143196042D01*
X69664371Y-143474457D01*
X69635854Y-143764000D01*
X69664371Y-144053543D01*
X69748828Y-144331958D01*
X69885978Y-144588547D01*
X70070550Y-144813450D01*
X70295453Y-144998022D01*
X70362763Y-145034000D01*
X70295453Y-145069978D01*
X70070550Y-145254550D01*
X69885978Y-145479453D01*
X69748828Y-145736042D01*
X69664371Y-146014457D01*
X69635854Y-146304000D01*
X69664371Y-146593543D01*
X69748828Y-146871958D01*
X69885978Y-147128547D01*
X70070550Y-147353450D01*
X70295453Y-147538022D01*
X70362763Y-147574000D01*
X70295453Y-147609978D01*
X70070550Y-147794550D01*
X69885978Y-148019453D01*
X69748828Y-148276042D01*
X69664371Y-148554457D01*
X69635854Y-148844000D01*
X69664371Y-149133543D01*
X69748828Y-149411958D01*
X69885978Y-149668547D01*
X70070550Y-149893450D01*
X70295453Y-150078022D01*
X70363549Y-150114420D01*
X70238645Y-150188822D01*
X70022412Y-150383731D01*
X69848359Y-150617080D01*
X69723175Y-150879901D01*
X69678524Y-151027110D01*
X69799845Y-151257000D01*
X70993000Y-151257000D01*
X70993000Y-151237000D01*
X71247000Y-151237000D01*
X71247000Y-151257000D01*
X72440155Y-151257000D01*
X72561476Y-151027110D01*
X72516825Y-150879901D01*
X72391641Y-150617080D01*
X72217588Y-150383731D01*
X72001355Y-150188822D01*
X71876451Y-150114420D01*
X71944547Y-150078022D01*
X72169450Y-149893450D01*
X72354022Y-149668547D01*
X72491172Y-149411958D01*
X72575629Y-149133543D01*
X72604146Y-148844000D01*
X72575629Y-148554457D01*
X72491172Y-148276042D01*
X72354022Y-148019453D01*
X72169450Y-147794550D01*
X71944547Y-147609978D01*
X71877237Y-147574000D01*
X71944547Y-147538022D01*
X72169450Y-147353450D01*
X72354022Y-147128547D01*
X72491172Y-146871958D01*
X72575629Y-146593543D01*
X72604146Y-146304000D01*
X72575629Y-146014457D01*
X72491172Y-145736042D01*
X72354022Y-145479453D01*
X72169450Y-145254550D01*
X71944547Y-145069978D01*
X71877237Y-145034000D01*
X71944547Y-144998022D01*
X72169450Y-144813450D01*
X72354022Y-144588547D01*
X72491172Y-144331958D01*
X72575629Y-144053543D01*
X72604146Y-143764000D01*
X72575629Y-143474457D01*
X72491172Y-143196042D01*
X72354022Y-142939453D01*
X72169450Y-142714550D01*
X71944547Y-142529978D01*
X71877237Y-142494000D01*
X71944547Y-142458022D01*
X72169450Y-142273450D01*
X72354022Y-142048547D01*
X72491172Y-141791958D01*
X72575629Y-141513543D01*
X72604146Y-141224000D01*
X72575629Y-140934457D01*
X72491172Y-140656042D01*
X72354022Y-140399453D01*
X72169450Y-140174550D01*
X71944547Y-139989978D01*
X71877237Y-139954000D01*
X71944547Y-139918022D01*
X72169450Y-139733450D01*
X72354022Y-139508547D01*
X72491172Y-139251958D01*
X72575629Y-138973543D01*
X72604146Y-138684000D01*
X72575629Y-138394457D01*
X72491172Y-138116042D01*
X72354022Y-137859453D01*
X72169450Y-137634550D01*
X71944547Y-137449978D01*
X71877237Y-137414000D01*
X71944547Y-137378022D01*
X72169450Y-137193450D01*
X72354022Y-136968547D01*
X72491172Y-136711958D01*
X72575629Y-136433543D01*
X72604146Y-136144000D01*
X72575629Y-135854457D01*
X72491172Y-135576042D01*
X72354022Y-135319453D01*
X72169450Y-135094550D01*
X71944547Y-134909978D01*
X71877237Y-134874000D01*
X71944547Y-134838022D01*
X72169450Y-134653450D01*
X72354022Y-134428547D01*
X72491172Y-134171958D01*
X72575629Y-133893543D01*
X72604146Y-133604000D01*
X72575629Y-133314457D01*
X72491172Y-133036042D01*
X72354022Y-132779453D01*
X72169450Y-132554550D01*
X71944547Y-132369978D01*
X71877237Y-132334000D01*
X71944547Y-132298022D01*
X72169450Y-132113450D01*
X72354022Y-131888547D01*
X72491172Y-131631958D01*
X72575629Y-131353543D01*
X72604146Y-131064000D01*
X72575629Y-130774457D01*
X72491172Y-130496042D01*
X72354022Y-130239453D01*
X72169450Y-130014550D01*
X71944547Y-129829978D01*
X71877237Y-129794000D01*
X71944547Y-129758022D01*
X72169450Y-129573450D01*
X72354022Y-129348547D01*
X72491172Y-129091958D01*
X72575629Y-128813543D01*
X72604146Y-128524000D01*
X72575629Y-128234457D01*
X72491172Y-127956042D01*
X72354022Y-127699453D01*
X72169450Y-127474550D01*
X71944547Y-127289978D01*
X71877237Y-127254000D01*
X71944547Y-127218022D01*
X72169450Y-127033450D01*
X72354022Y-126808547D01*
X72491172Y-126551958D01*
X72575629Y-126273543D01*
X72604146Y-125984000D01*
X72575629Y-125694457D01*
X72491172Y-125416042D01*
X72354022Y-125159453D01*
X72169450Y-124934550D01*
X71944547Y-124749978D01*
X71877237Y-124714000D01*
X71944547Y-124678022D01*
X72169450Y-124493450D01*
X72231921Y-124417328D01*
X82306000Y-134491408D01*
X82306001Y-141187054D01*
X82302362Y-141224000D01*
X82316882Y-141371417D01*
X82359882Y-141513169D01*
X82429710Y-141643810D01*
X82500137Y-141729625D01*
X82523684Y-141758317D01*
X82552375Y-141781863D01*
X90374133Y-149603621D01*
X90397683Y-149632317D01*
X90512190Y-149726290D01*
X90642830Y-149796118D01*
X90784582Y-149839119D01*
X90895062Y-149850000D01*
X90895064Y-149850000D01*
X90932000Y-149853638D01*
X90968935Y-149850000D01*
X96737065Y-149850000D01*
X96774000Y-149853638D01*
X96810935Y-149850000D01*
X96810938Y-149850000D01*
X96921418Y-149839119D01*
X97063170Y-149796118D01*
X97193810Y-149726290D01*
X97308317Y-149632317D01*
X97331867Y-149603621D01*
X100073622Y-146861866D01*
X100102317Y-146838317D01*
X100196290Y-146723810D01*
X100266118Y-146593170D01*
X100309119Y-146451418D01*
X100320000Y-146340938D01*
X100320000Y-146340936D01*
X100323638Y-146304000D01*
X100320000Y-146267065D01*
X100320000Y-143456105D01*
X100364634Y-143432248D01*
X100581923Y-143253923D01*
X100760248Y-143036634D01*
X100892755Y-142788731D01*
X100974352Y-142519741D01*
X101001904Y-142240000D01*
X100974352Y-141960259D01*
X100892755Y-141691269D01*
X100760248Y-141443366D01*
X100581923Y-141226077D01*
X100364634Y-141047752D01*
X100219170Y-140970000D01*
X100364634Y-140892248D01*
X100581923Y-140713923D01*
X100760248Y-140496634D01*
X100892755Y-140248731D01*
X100974352Y-139979741D01*
X101001904Y-139700000D01*
X100974352Y-139420259D01*
X100892755Y-139151269D01*
X100760248Y-138903366D01*
X100581923Y-138686077D01*
X100364634Y-138507752D01*
X100219170Y-138430000D01*
X100364634Y-138352248D01*
X100581923Y-138173923D01*
X100760248Y-137956634D01*
X100892755Y-137708731D01*
X100974352Y-137439741D01*
X101001904Y-137160000D01*
X100988838Y-137027332D01*
X104571000Y-137027332D01*
X104571000Y-137292668D01*
X104622764Y-137552906D01*
X104724304Y-137798044D01*
X104871716Y-138018663D01*
X105059337Y-138206284D01*
X105279956Y-138353696D01*
X105464169Y-138430000D01*
X105279956Y-138506304D01*
X105059337Y-138653716D01*
X104871716Y-138841337D01*
X104724304Y-139061956D01*
X104622764Y-139307094D01*
X104571000Y-139567332D01*
X104571000Y-139832668D01*
X104622764Y-140092906D01*
X104724304Y-140338044D01*
X104871716Y-140558663D01*
X105059337Y-140746284D01*
X105279956Y-140893696D01*
X105525094Y-140995236D01*
X105785332Y-141047000D01*
X106050668Y-141047000D01*
X106310906Y-140995236D01*
X106556044Y-140893696D01*
X106776663Y-140746284D01*
X106964284Y-140558663D01*
X107111696Y-140338044D01*
X107213236Y-140092906D01*
X107265000Y-139832668D01*
X107265000Y-139567332D01*
X107213236Y-139307094D01*
X107111696Y-139061956D01*
X106964284Y-138841337D01*
X106776663Y-138653716D01*
X106556044Y-138506304D01*
X106371831Y-138430000D01*
X106556044Y-138353696D01*
X106776663Y-138206284D01*
X106964284Y-138018663D01*
X107111696Y-137798044D01*
X107213236Y-137552906D01*
X107265000Y-137292668D01*
X107265000Y-137027332D01*
X107213236Y-136767094D01*
X107111696Y-136521956D01*
X106964284Y-136301337D01*
X106776663Y-136113716D01*
X106556044Y-135966304D01*
X106380543Y-135893609D01*
X106506353Y-135847875D01*
X106612068Y-135791368D01*
X106673955Y-135555560D01*
X105918000Y-134799605D01*
X105162045Y-135555560D01*
X105223932Y-135791368D01*
X105448835Y-135896352D01*
X105279956Y-135966304D01*
X105059337Y-136113716D01*
X104871716Y-136301337D01*
X104724304Y-136521956D01*
X104622764Y-136767094D01*
X104571000Y-137027332D01*
X100988838Y-137027332D01*
X100974352Y-136880259D01*
X100892755Y-136611269D01*
X100760248Y-136363366D01*
X100581923Y-136146077D01*
X100454511Y-136041512D01*
X100490913Y-136037927D01*
X100609103Y-136002075D01*
X100718028Y-135943853D01*
X100813501Y-135865501D01*
X100891853Y-135770028D01*
X100950075Y-135661103D01*
X100985927Y-135542913D01*
X100998033Y-135420000D01*
X100998033Y-134693680D01*
X104558439Y-134693680D01*
X104598937Y-134957501D01*
X104690125Y-135208353D01*
X104746632Y-135314068D01*
X104982440Y-135375955D01*
X105738395Y-134620000D01*
X106097605Y-134620000D01*
X106853560Y-135375955D01*
X107089368Y-135314068D01*
X107202266Y-135072210D01*
X107265811Y-134812973D01*
X107277561Y-134546320D01*
X107237063Y-134282499D01*
X107145875Y-134031647D01*
X107089368Y-133925932D01*
X106853560Y-133864045D01*
X106097605Y-134620000D01*
X105738395Y-134620000D01*
X104982440Y-133864045D01*
X104746632Y-133925932D01*
X104633734Y-134167790D01*
X104570189Y-134427027D01*
X104558439Y-134693680D01*
X100998033Y-134693680D01*
X100998033Y-133820000D01*
X100985927Y-133697087D01*
X100982091Y-133684440D01*
X105162045Y-133684440D01*
X105918000Y-134440395D01*
X106673955Y-133684440D01*
X106612068Y-133448632D01*
X106370210Y-133335734D01*
X106110973Y-133272189D01*
X105844320Y-133260439D01*
X105580499Y-133300937D01*
X105329647Y-133392125D01*
X105223932Y-133448632D01*
X105162045Y-133684440D01*
X100982091Y-133684440D01*
X100950075Y-133578897D01*
X100891853Y-133469972D01*
X100813501Y-133374499D01*
X100797052Y-133361000D01*
X100939151Y-133361000D01*
X101137565Y-133321533D01*
X101324467Y-133244115D01*
X101492674Y-133131723D01*
X101635723Y-132988674D01*
X101748115Y-132820467D01*
X101825533Y-132633565D01*
X101865000Y-132435151D01*
X101865000Y-132232849D01*
X101825533Y-132034435D01*
X101748115Y-131847533D01*
X101635723Y-131679326D01*
X101590000Y-131633603D01*
X101590000Y-122041332D01*
X104571000Y-122041332D01*
X104571000Y-122306668D01*
X104622764Y-122566906D01*
X104724304Y-122812044D01*
X104871716Y-123032663D01*
X105059337Y-123220284D01*
X105279956Y-123367696D01*
X105464169Y-123444000D01*
X105279956Y-123520304D01*
X105059337Y-123667716D01*
X104871716Y-123855337D01*
X104724304Y-124075956D01*
X104622764Y-124321094D01*
X104571000Y-124581332D01*
X104571000Y-124846668D01*
X104622764Y-125106906D01*
X104724304Y-125352044D01*
X104871716Y-125572663D01*
X105059337Y-125760284D01*
X105279956Y-125907696D01*
X105464169Y-125984000D01*
X105279956Y-126060304D01*
X105059337Y-126207716D01*
X104871716Y-126395337D01*
X104724304Y-126615956D01*
X104622764Y-126861094D01*
X104571000Y-127121332D01*
X104571000Y-127386668D01*
X104622764Y-127646906D01*
X104724304Y-127892044D01*
X104871716Y-128112663D01*
X105059337Y-128300284D01*
X105279956Y-128447696D01*
X105525094Y-128549236D01*
X105785332Y-128601000D01*
X106050668Y-128601000D01*
X106310906Y-128549236D01*
X106556044Y-128447696D01*
X106776663Y-128300284D01*
X106964284Y-128112663D01*
X107111696Y-127892044D01*
X107213236Y-127646906D01*
X107265000Y-127386668D01*
X107265000Y-127121332D01*
X107213236Y-126861094D01*
X107111696Y-126615956D01*
X106964284Y-126395337D01*
X106776663Y-126207716D01*
X106556044Y-126060304D01*
X106371831Y-125984000D01*
X106556044Y-125907696D01*
X106776663Y-125760284D01*
X106964284Y-125572663D01*
X107111696Y-125352044D01*
X107213236Y-125106906D01*
X107265000Y-124846668D01*
X107265000Y-124581332D01*
X107213236Y-124321094D01*
X107111696Y-124075956D01*
X106964284Y-123855337D01*
X106776663Y-123667716D01*
X106556044Y-123520304D01*
X106371831Y-123444000D01*
X106556044Y-123367696D01*
X106776663Y-123220284D01*
X106964284Y-123032663D01*
X107111696Y-122812044D01*
X107213236Y-122566906D01*
X107265000Y-122306668D01*
X107265000Y-122041332D01*
X107213236Y-121781094D01*
X107111696Y-121535956D01*
X106964284Y-121315337D01*
X106776663Y-121127716D01*
X106556044Y-120980304D01*
X106310906Y-120878764D01*
X106050668Y-120827000D01*
X105785332Y-120827000D01*
X105525094Y-120878764D01*
X105279956Y-120980304D01*
X105059337Y-121127716D01*
X104871716Y-121315337D01*
X104724304Y-121535956D01*
X104622764Y-121781094D01*
X104571000Y-122041332D01*
X101590000Y-122041332D01*
X101590000Y-111627332D01*
X104571000Y-111627332D01*
X104571000Y-111892668D01*
X104622764Y-112152906D01*
X104724304Y-112398044D01*
X104871716Y-112618663D01*
X105059337Y-112806284D01*
X105279956Y-112953696D01*
X105464169Y-113030000D01*
X105279956Y-113106304D01*
X105059337Y-113253716D01*
X104871716Y-113441337D01*
X104724304Y-113661956D01*
X104622764Y-113907094D01*
X104571000Y-114167332D01*
X104571000Y-114432668D01*
X104622764Y-114692906D01*
X104724304Y-114938044D01*
X104871716Y-115158663D01*
X105059337Y-115346284D01*
X105279956Y-115493696D01*
X105464169Y-115570000D01*
X105279956Y-115646304D01*
X105059337Y-115793716D01*
X104871716Y-115981337D01*
X104724304Y-116201956D01*
X104622764Y-116447094D01*
X104571000Y-116707332D01*
X104571000Y-116972668D01*
X104622764Y-117232906D01*
X104724304Y-117478044D01*
X104871716Y-117698663D01*
X105059337Y-117886284D01*
X105279956Y-118033696D01*
X105525094Y-118135236D01*
X105785332Y-118187000D01*
X106050668Y-118187000D01*
X106310906Y-118135236D01*
X106556044Y-118033696D01*
X106776663Y-117886284D01*
X106964284Y-117698663D01*
X107111696Y-117478044D01*
X107213236Y-117232906D01*
X107265000Y-116972668D01*
X107265000Y-116707332D01*
X107213236Y-116447094D01*
X107111696Y-116201956D01*
X106964284Y-115981337D01*
X106776663Y-115793716D01*
X106556044Y-115646304D01*
X106371831Y-115570000D01*
X106556044Y-115493696D01*
X106776663Y-115346284D01*
X106964284Y-115158663D01*
X107111696Y-114938044D01*
X107213236Y-114692906D01*
X107265000Y-114432668D01*
X107265000Y-114167332D01*
X107213236Y-113907094D01*
X107111696Y-113661956D01*
X106964284Y-113441337D01*
X106776663Y-113253716D01*
X106556044Y-113106304D01*
X106371831Y-113030000D01*
X106556044Y-112953696D01*
X106776663Y-112806284D01*
X106964284Y-112618663D01*
X107111696Y-112398044D01*
X107213236Y-112152906D01*
X107265000Y-111892668D01*
X107265000Y-111627332D01*
X107213236Y-111367094D01*
X107111696Y-111121956D01*
X106964284Y-110901337D01*
X106776663Y-110713716D01*
X106556044Y-110566304D01*
X106310906Y-110464764D01*
X106050668Y-110413000D01*
X105785332Y-110413000D01*
X105525094Y-110464764D01*
X105279956Y-110566304D01*
X105059337Y-110713716D01*
X104871716Y-110901337D01*
X104724304Y-111121956D01*
X104622764Y-111367094D01*
X104571000Y-111627332D01*
X101590000Y-111627332D01*
X101590000Y-100451332D01*
X104571000Y-100451332D01*
X104571000Y-100716668D01*
X104622764Y-100976906D01*
X104724304Y-101222044D01*
X104871716Y-101442663D01*
X105059337Y-101630284D01*
X105279956Y-101777696D01*
X105464169Y-101854000D01*
X105279956Y-101930304D01*
X105059337Y-102077716D01*
X104871716Y-102265337D01*
X104724304Y-102485956D01*
X104622764Y-102731094D01*
X104571000Y-102991332D01*
X104571000Y-103256668D01*
X104622764Y-103516906D01*
X104724304Y-103762044D01*
X104871716Y-103982663D01*
X105059337Y-104170284D01*
X105279956Y-104317696D01*
X105525094Y-104419236D01*
X105785332Y-104471000D01*
X106050668Y-104471000D01*
X106310906Y-104419236D01*
X106556044Y-104317696D01*
X106776663Y-104170284D01*
X106964284Y-103982663D01*
X107111696Y-103762044D01*
X107213236Y-103516906D01*
X107265000Y-103256668D01*
X107265000Y-102991332D01*
X107213236Y-102731094D01*
X107111696Y-102485956D01*
X106964284Y-102265337D01*
X106776663Y-102077716D01*
X106556044Y-101930304D01*
X106371831Y-101854000D01*
X106556044Y-101777696D01*
X106776663Y-101630284D01*
X106964284Y-101442663D01*
X107111696Y-101222044D01*
X107213236Y-100976906D01*
X107265000Y-100716668D01*
X107265000Y-100451332D01*
X107213236Y-100191094D01*
X107111696Y-99945956D01*
X106964284Y-99725337D01*
X106776663Y-99537716D01*
X106556044Y-99390304D01*
X106380543Y-99317609D01*
X106506353Y-99271875D01*
X106612068Y-99215368D01*
X106673955Y-98979560D01*
X105918000Y-98223605D01*
X105162045Y-98979560D01*
X105223932Y-99215368D01*
X105448835Y-99320352D01*
X105279956Y-99390304D01*
X105059337Y-99537716D01*
X104871716Y-99725337D01*
X104724304Y-99945956D01*
X104622764Y-100191094D01*
X104571000Y-100451332D01*
X101590000Y-100451332D01*
X101590000Y-98808935D01*
X101593638Y-98772000D01*
X101586489Y-98699417D01*
X101579119Y-98624582D01*
X101536118Y-98482830D01*
X101466290Y-98352190D01*
X101372317Y-98237683D01*
X101343621Y-98214133D01*
X101247168Y-98117680D01*
X104558439Y-98117680D01*
X104598937Y-98381501D01*
X104690125Y-98632353D01*
X104746632Y-98738068D01*
X104982440Y-98799955D01*
X105738395Y-98044000D01*
X106097605Y-98044000D01*
X106853560Y-98799955D01*
X107089368Y-98738068D01*
X107202266Y-98496210D01*
X107265811Y-98236973D01*
X107277561Y-97970320D01*
X107237063Y-97706499D01*
X107145875Y-97455647D01*
X107089368Y-97349932D01*
X106853560Y-97288045D01*
X106097605Y-98044000D01*
X105738395Y-98044000D01*
X104982440Y-97288045D01*
X104746632Y-97349932D01*
X104633734Y-97591790D01*
X104570189Y-97851027D01*
X104558439Y-98117680D01*
X101247168Y-98117680D01*
X101175867Y-98046379D01*
X101152317Y-98017683D01*
X101037810Y-97923710D01*
X100998033Y-97902449D01*
X100998033Y-97752000D01*
X100985927Y-97629087D01*
X100950075Y-97510897D01*
X100891853Y-97401972D01*
X100813501Y-97306499D01*
X100718028Y-97228147D01*
X100609103Y-97169925D01*
X100490913Y-97134073D01*
X100368000Y-97121967D01*
X99194999Y-97121967D01*
X99194999Y-97108440D01*
X105162045Y-97108440D01*
X105918000Y-97864395D01*
X106673955Y-97108440D01*
X106612068Y-96872632D01*
X106370210Y-96759734D01*
X106110973Y-96696189D01*
X105844320Y-96684439D01*
X105580499Y-96724937D01*
X105329647Y-96816125D01*
X105223932Y-96872632D01*
X105162045Y-97108440D01*
X99194999Y-97108440D01*
X99194999Y-95104062D01*
X99288259Y-95132352D01*
X99497902Y-95153000D01*
X99638098Y-95153000D01*
X99847741Y-95132352D01*
X100116731Y-95050755D01*
X100237879Y-94986000D01*
X104709603Y-94986000D01*
X104755326Y-95031723D01*
X104923533Y-95144115D01*
X105110435Y-95221533D01*
X105308849Y-95261000D01*
X105511151Y-95261000D01*
X105709565Y-95221533D01*
X105896467Y-95144115D01*
X106064674Y-95031723D01*
X106207723Y-94888674D01*
X106320115Y-94720467D01*
X106397533Y-94533565D01*
X106437000Y-94335151D01*
X106437000Y-94132849D01*
X106397533Y-93934435D01*
X106320115Y-93747533D01*
X106207723Y-93579326D01*
X106064674Y-93436277D01*
X105896467Y-93323885D01*
X105709565Y-93246467D01*
X105511151Y-93207000D01*
X105308849Y-93207000D01*
X105110435Y-93246467D01*
X104923533Y-93323885D01*
X104755326Y-93436277D01*
X104709603Y-93482000D01*
X100977872Y-93482000D01*
X100974352Y-93446259D01*
X100892755Y-93177269D01*
X100760248Y-92929366D01*
X100581923Y-92712077D01*
X100364634Y-92533752D01*
X100219170Y-92456000D01*
X100364634Y-92378248D01*
X100581923Y-92199923D01*
X100760248Y-91982634D01*
X100892755Y-91734731D01*
X100974352Y-91465741D01*
X101001904Y-91186000D01*
X100974352Y-90906259D01*
X100892755Y-90637269D01*
X100760248Y-90389366D01*
X100581923Y-90172077D01*
X100364634Y-89993752D01*
X100219170Y-89916000D01*
X100364634Y-89838248D01*
X100581923Y-89659923D01*
X100760248Y-89442634D01*
X100892755Y-89194731D01*
X100974352Y-88925741D01*
X101001904Y-88646000D01*
X100974352Y-88366259D01*
X100892755Y-88097269D01*
X100760248Y-87849366D01*
X100581923Y-87632077D01*
X100364634Y-87453752D01*
X100219170Y-87376000D01*
X100364634Y-87298248D01*
X100581923Y-87119923D01*
X100760248Y-86902634D01*
X100892755Y-86654731D01*
X100953720Y-86453755D01*
X104545000Y-86453755D01*
X104545000Y-86774245D01*
X104607525Y-87088578D01*
X104730172Y-87384673D01*
X104908227Y-87651152D01*
X105134848Y-87877773D01*
X105401327Y-88055828D01*
X105697422Y-88178475D01*
X106011755Y-88241000D01*
X106332245Y-88241000D01*
X106646578Y-88178475D01*
X106942673Y-88055828D01*
X107198000Y-87885224D01*
X107198000Y-88080512D01*
X106665252Y-88613260D01*
X106646578Y-88605525D01*
X106332245Y-88543000D01*
X106011755Y-88543000D01*
X105697422Y-88605525D01*
X105401327Y-88728172D01*
X105134848Y-88906227D01*
X104908227Y-89132848D01*
X104730172Y-89399327D01*
X104607525Y-89695422D01*
X104545000Y-90009755D01*
X104545000Y-90330245D01*
X104607525Y-90644578D01*
X104730172Y-90940673D01*
X104908227Y-91207152D01*
X105134848Y-91433773D01*
X105401327Y-91611828D01*
X105697422Y-91734475D01*
X106011755Y-91797000D01*
X106332245Y-91797000D01*
X106646578Y-91734475D01*
X106942673Y-91611828D01*
X107209152Y-91433773D01*
X107435773Y-91207152D01*
X107613828Y-90940673D01*
X107736475Y-90644578D01*
X107799000Y-90330245D01*
X107799000Y-90009755D01*
X107736475Y-89695422D01*
X107728740Y-89676748D01*
X108455622Y-88949866D01*
X108484317Y-88926317D01*
X108578290Y-88811810D01*
X108648118Y-88681170D01*
X108691119Y-88539418D01*
X108702000Y-88428938D01*
X108702000Y-88428936D01*
X108705638Y-88392000D01*
X108702000Y-88355065D01*
X108702000Y-78932397D01*
X108747723Y-78886674D01*
X108860115Y-78718467D01*
X108937533Y-78531565D01*
X108977000Y-78333151D01*
X108977000Y-78130849D01*
X108937533Y-77932435D01*
X108860115Y-77745533D01*
X108747723Y-77577326D01*
X108604674Y-77434277D01*
X108436467Y-77321885D01*
X108249565Y-77244467D01*
X108051151Y-77205000D01*
X107848849Y-77205000D01*
X107650435Y-77244467D01*
X107474726Y-77317248D01*
X107519000Y-77094668D01*
X107519000Y-76829332D01*
X107467236Y-76569094D01*
X107365696Y-76323956D01*
X107218284Y-76103337D01*
X107030663Y-75915716D01*
X106810044Y-75768304D01*
X106564906Y-75666764D01*
X106304668Y-75615000D01*
X106039332Y-75615000D01*
X105779094Y-75666764D01*
X105533956Y-75768304D01*
X105313337Y-75915716D01*
X105125716Y-76103337D01*
X104978304Y-76323956D01*
X104876764Y-76569094D01*
X104825000Y-76829332D01*
X104825000Y-77094668D01*
X104876764Y-77354906D01*
X104978304Y-77600044D01*
X105125716Y-77820663D01*
X105313337Y-78008284D01*
X105533956Y-78155696D01*
X105718169Y-78232000D01*
X105533956Y-78308304D01*
X105313337Y-78455716D01*
X105125716Y-78643337D01*
X104978304Y-78863956D01*
X104876764Y-79109094D01*
X104825000Y-79369332D01*
X104825000Y-79634668D01*
X104876764Y-79894906D01*
X104978304Y-80140044D01*
X105125716Y-80360663D01*
X105313337Y-80548284D01*
X105533956Y-80695696D01*
X105718169Y-80772000D01*
X105533956Y-80848304D01*
X105313337Y-80995716D01*
X105125716Y-81183337D01*
X104978304Y-81403956D01*
X104876764Y-81649094D01*
X104825000Y-81909332D01*
X104825000Y-82174668D01*
X104876764Y-82434906D01*
X104978304Y-82680044D01*
X105125716Y-82900663D01*
X105313337Y-83088284D01*
X105420000Y-83159554D01*
X105420001Y-85164437D01*
X105401327Y-85172172D01*
X105134848Y-85350227D01*
X104908227Y-85576848D01*
X104730172Y-85843327D01*
X104607525Y-86139422D01*
X104545000Y-86453755D01*
X100953720Y-86453755D01*
X100974352Y-86385741D01*
X101001904Y-86106000D01*
X100974352Y-85826259D01*
X100892755Y-85557269D01*
X100760248Y-85309366D01*
X100581923Y-85092077D01*
X100364634Y-84913752D01*
X100219170Y-84836000D01*
X100364634Y-84758248D01*
X100581923Y-84579923D01*
X100760248Y-84362634D01*
X100892755Y-84114731D01*
X100974352Y-83845741D01*
X101001904Y-83566000D01*
X100974352Y-83286259D01*
X100892755Y-83017269D01*
X100760248Y-82769366D01*
X100581923Y-82552077D01*
X100364634Y-82373752D01*
X100219170Y-82296000D01*
X100364634Y-82218248D01*
X100581923Y-82039923D01*
X100760248Y-81822634D01*
X100892755Y-81574731D01*
X100974352Y-81305741D01*
X101001904Y-81026000D01*
X100974352Y-80746259D01*
X100892755Y-80477269D01*
X100760248Y-80229366D01*
X100581923Y-80012077D01*
X100364634Y-79833752D01*
X100219170Y-79756000D01*
X100364634Y-79678248D01*
X100581923Y-79499923D01*
X100760248Y-79282634D01*
X100892755Y-79034731D01*
X100974352Y-78765741D01*
X101001904Y-78486000D01*
X100974352Y-78206259D01*
X100892755Y-77937269D01*
X100760248Y-77689366D01*
X100581923Y-77472077D01*
X100454511Y-77367512D01*
X100490913Y-77363927D01*
X100609103Y-77328075D01*
X100718028Y-77269853D01*
X100813501Y-77191501D01*
X100891853Y-77096028D01*
X100950075Y-76987103D01*
X100985927Y-76868913D01*
X100998033Y-76746000D01*
X100998033Y-75146000D01*
X100985927Y-75023087D01*
X100950075Y-74904897D01*
X100891853Y-74795972D01*
X100813501Y-74700499D01*
X100718028Y-74622147D01*
X100609103Y-74563925D01*
X100490913Y-74528073D01*
X100368000Y-74515967D01*
X98768000Y-74515967D01*
X98645087Y-74528073D01*
X98526897Y-74563925D01*
X98417972Y-74622147D01*
X98322499Y-74700499D01*
X98244147Y-74795972D01*
X98185925Y-74904897D01*
X98150073Y-75023087D01*
X98137967Y-75146000D01*
X98137967Y-76502516D01*
X98089565Y-76482467D01*
X97891151Y-76443000D01*
X97826489Y-76443000D01*
X95045867Y-73662379D01*
X95022317Y-73633683D01*
X94907810Y-73539710D01*
X94777170Y-73469882D01*
X94635418Y-73426881D01*
X94524938Y-73416000D01*
X94524935Y-73416000D01*
X94488000Y-73412362D01*
X94451065Y-73416000D01*
X86281689Y-73416000D01*
X86490044Y-73329696D01*
X86710663Y-73182284D01*
X86898284Y-72994663D01*
X87018231Y-72815148D01*
X105164457Y-72815148D01*
X105440627Y-73233118D01*
X105985557Y-73523649D01*
X106576696Y-73702287D01*
X107191328Y-73762168D01*
X107805831Y-73700990D01*
X108396592Y-73521103D01*
X108935373Y-73233118D01*
X109211543Y-72815148D01*
X107188000Y-70791605D01*
X105164457Y-72815148D01*
X87018231Y-72815148D01*
X87045696Y-72774044D01*
X87147236Y-72528906D01*
X87199000Y-72268668D01*
X87199000Y-72003332D01*
X87147236Y-71743094D01*
X87045696Y-71497956D01*
X86898284Y-71277337D01*
X86710663Y-71089716D01*
X86490044Y-70942304D01*
X86244906Y-70840764D01*
X85984668Y-70789000D01*
X85719332Y-70789000D01*
X85459094Y-70840764D01*
X85213956Y-70942304D01*
X84993337Y-71089716D01*
X84805716Y-71277337D01*
X84658304Y-71497956D01*
X84585609Y-71673457D01*
X84539875Y-71547647D01*
X84483368Y-71441932D01*
X84247560Y-71380045D01*
X83491605Y-72136000D01*
X84247560Y-72891955D01*
X84483368Y-72830068D01*
X84588352Y-72605165D01*
X84658304Y-72774044D01*
X84805716Y-72994663D01*
X84993337Y-73182284D01*
X85213956Y-73329696D01*
X85459094Y-73431236D01*
X85719332Y-73483000D01*
X85792288Y-73483000D01*
X85686190Y-73539710D01*
X85571683Y-73633683D01*
X85548137Y-73662374D01*
X80520375Y-78690137D01*
X80491684Y-78713683D01*
X80468138Y-78742374D01*
X80468137Y-78742375D01*
X80397710Y-78828190D01*
X80327882Y-78958831D01*
X80284882Y-79100583D01*
X80270362Y-79248000D01*
X80274001Y-79284946D01*
X80274000Y-95311603D01*
X80228277Y-95357326D01*
X80115885Y-95525533D01*
X80038467Y-95712435D01*
X79999000Y-95910849D01*
X79999000Y-96113151D01*
X80038467Y-96311565D01*
X80115885Y-96498467D01*
X80228277Y-96666674D01*
X80371326Y-96809723D01*
X80539533Y-96922115D01*
X80726435Y-96999533D01*
X80924849Y-97039000D01*
X81127151Y-97039000D01*
X81325565Y-96999533D01*
X81512467Y-96922115D01*
X81680674Y-96809723D01*
X81823723Y-96666674D01*
X81936115Y-96498467D01*
X82013533Y-96311565D01*
X82053000Y-96113151D01*
X82053000Y-95910849D01*
X82013533Y-95712435D01*
X81936115Y-95525533D01*
X81823723Y-95357326D01*
X81778000Y-95311603D01*
X81778000Y-83134565D01*
X86336040Y-83134565D01*
X86403020Y-83374656D01*
X86652048Y-83491756D01*
X86919135Y-83558023D01*
X87194017Y-83570910D01*
X87466133Y-83529922D01*
X87725023Y-83436636D01*
X87840980Y-83374656D01*
X87907960Y-83134565D01*
X87122000Y-82348605D01*
X86336040Y-83134565D01*
X81778000Y-83134565D01*
X81778000Y-82241017D01*
X85720090Y-82241017D01*
X85761078Y-82513133D01*
X85854364Y-82772023D01*
X85916344Y-82887980D01*
X86156435Y-82954960D01*
X86942395Y-82169000D01*
X87301605Y-82169000D01*
X88087565Y-82954960D01*
X88327656Y-82887980D01*
X88444756Y-82638952D01*
X88511023Y-82371865D01*
X88523910Y-82096983D01*
X88482922Y-81824867D01*
X88389636Y-81565977D01*
X88327656Y-81450020D01*
X88087565Y-81383040D01*
X87301605Y-82169000D01*
X86942395Y-82169000D01*
X86156435Y-81383040D01*
X85916344Y-81450020D01*
X85799244Y-81699048D01*
X85732977Y-81966135D01*
X85720090Y-82241017D01*
X81778000Y-82241017D01*
X81778000Y-81203435D01*
X86336040Y-81203435D01*
X87122000Y-81989395D01*
X87907960Y-81203435D01*
X87840980Y-80963344D01*
X87591952Y-80846244D01*
X87324865Y-80779977D01*
X87049983Y-80767090D01*
X86777867Y-80808078D01*
X86518977Y-80901364D01*
X86403020Y-80963344D01*
X86336040Y-81203435D01*
X81778000Y-81203435D01*
X81778000Y-79559488D01*
X82729422Y-78608066D01*
X82729843Y-78609252D01*
X82878822Y-78859355D01*
X83073731Y-79075588D01*
X83307080Y-79249641D01*
X83569901Y-79374825D01*
X83717110Y-79419476D01*
X83947000Y-79298155D01*
X83947000Y-78105000D01*
X83927000Y-78105000D01*
X83927000Y-77851000D01*
X83947000Y-77851000D01*
X83947000Y-77831000D01*
X84201000Y-77831000D01*
X84201000Y-77851000D01*
X84221000Y-77851000D01*
X84221000Y-78105000D01*
X84201000Y-78105000D01*
X84201000Y-79298155D01*
X84430890Y-79419476D01*
X84578099Y-79374825D01*
X84840920Y-79249641D01*
X85074269Y-79075588D01*
X85156290Y-78984594D01*
X85181925Y-79069103D01*
X85240147Y-79178028D01*
X85318499Y-79273501D01*
X85413972Y-79351853D01*
X85522897Y-79410075D01*
X85641087Y-79445927D01*
X85764000Y-79458033D01*
X87464000Y-79458033D01*
X87586913Y-79445927D01*
X87705103Y-79410075D01*
X87814028Y-79351853D01*
X87909501Y-79273501D01*
X87987853Y-79178028D01*
X88046075Y-79069103D01*
X88081927Y-78950913D01*
X88094033Y-78828000D01*
X88094033Y-77128000D01*
X88081927Y-77005087D01*
X88046075Y-76886897D01*
X87987853Y-76777972D01*
X87909501Y-76682499D01*
X87814028Y-76604147D01*
X87705103Y-76545925D01*
X87586913Y-76510073D01*
X87464000Y-76497967D01*
X85764000Y-76497967D01*
X85641087Y-76510073D01*
X85522897Y-76545925D01*
X85413972Y-76604147D01*
X85318499Y-76682499D01*
X85240147Y-76777972D01*
X85181925Y-76886897D01*
X85156290Y-76971406D01*
X85074269Y-76880412D01*
X84840920Y-76706359D01*
X84698815Y-76638673D01*
X86417489Y-74920000D01*
X90948793Y-74920000D01*
X90934077Y-74932077D01*
X90755752Y-75149366D01*
X90623245Y-75397269D01*
X90541648Y-75666259D01*
X90514096Y-75946000D01*
X90541648Y-76225741D01*
X90623245Y-76494731D01*
X90755752Y-76742634D01*
X90934077Y-76959923D01*
X91151366Y-77138248D01*
X91296830Y-77216000D01*
X91151366Y-77293752D01*
X90934077Y-77472077D01*
X90755752Y-77689366D01*
X90623245Y-77937269D01*
X90541648Y-78206259D01*
X90514096Y-78486000D01*
X90541648Y-78765741D01*
X90623245Y-79034731D01*
X90755752Y-79282634D01*
X90934077Y-79499923D01*
X91151366Y-79678248D01*
X91296830Y-79756000D01*
X91151366Y-79833752D01*
X90934077Y-80012077D01*
X90755752Y-80229366D01*
X90623245Y-80477269D01*
X90541648Y-80746259D01*
X90514096Y-81026000D01*
X90541648Y-81305741D01*
X90623245Y-81574731D01*
X90755752Y-81822634D01*
X90934077Y-82039923D01*
X91151366Y-82218248D01*
X91296830Y-82296000D01*
X91151366Y-82373752D01*
X90934077Y-82552077D01*
X90755752Y-82769366D01*
X90623245Y-83017269D01*
X90541648Y-83286259D01*
X90514096Y-83566000D01*
X90541648Y-83845741D01*
X90623245Y-84114731D01*
X90755752Y-84362634D01*
X90934077Y-84579923D01*
X91151366Y-84758248D01*
X91292680Y-84833782D01*
X91092869Y-84953615D01*
X90884481Y-85142586D01*
X90716963Y-85368580D01*
X90596754Y-85622913D01*
X90556096Y-85756961D01*
X90678085Y-85979000D01*
X91821000Y-85979000D01*
X91821000Y-85959000D01*
X92075000Y-85959000D01*
X92075000Y-85979000D01*
X92095000Y-85979000D01*
X92095000Y-86233000D01*
X92075000Y-86233000D01*
X92075000Y-86253000D01*
X91821000Y-86253000D01*
X91821000Y-86233000D01*
X90678085Y-86233000D01*
X90556096Y-86455039D01*
X90596754Y-86589087D01*
X90716963Y-86843420D01*
X90884481Y-87069414D01*
X91092869Y-87258385D01*
X91292680Y-87378218D01*
X91151366Y-87453752D01*
X90934077Y-87632077D01*
X90755752Y-87849366D01*
X90623245Y-88097269D01*
X90541648Y-88366259D01*
X90514096Y-88646000D01*
X90541648Y-88925741D01*
X90623245Y-89194731D01*
X90755752Y-89442634D01*
X90934077Y-89659923D01*
X91151366Y-89838248D01*
X91296830Y-89916000D01*
X91151366Y-89993752D01*
X90934077Y-90172077D01*
X90755752Y-90389366D01*
X90623245Y-90637269D01*
X90541648Y-90906259D01*
X90514096Y-91186000D01*
X90541648Y-91465741D01*
X90623245Y-91734731D01*
X90755752Y-91982634D01*
X90934077Y-92199923D01*
X91151366Y-92378248D01*
X91296830Y-92456000D01*
X91151366Y-92533752D01*
X90934077Y-92712077D01*
X90755752Y-92929366D01*
X90623245Y-93177269D01*
X90541648Y-93446259D01*
X90514096Y-93726000D01*
X90541648Y-94005741D01*
X90623245Y-94274731D01*
X90755752Y-94522634D01*
X90934077Y-94739923D01*
X91151366Y-94918248D01*
X91399269Y-95050755D01*
X91668259Y-95132352D01*
X91877902Y-95153000D01*
X92018098Y-95153000D01*
X92227741Y-95132352D01*
X92321001Y-95104062D01*
X92321001Y-97115511D01*
X92276173Y-97160339D01*
X92227741Y-97145648D01*
X92018098Y-97125000D01*
X91877902Y-97125000D01*
X91668259Y-97145648D01*
X91399269Y-97227245D01*
X91151366Y-97359752D01*
X90934077Y-97538077D01*
X90755752Y-97755366D01*
X90623245Y-98003269D01*
X90541648Y-98272259D01*
X90514096Y-98552000D01*
X90541648Y-98831741D01*
X90623245Y-99100731D01*
X90755752Y-99348634D01*
X90934077Y-99565923D01*
X91151366Y-99744248D01*
X91296830Y-99822000D01*
X91151366Y-99899752D01*
X90934077Y-100078077D01*
X90755752Y-100295366D01*
X90623245Y-100543269D01*
X90541648Y-100812259D01*
X90514096Y-101092000D01*
X90541648Y-101371741D01*
X90623245Y-101640731D01*
X90755752Y-101888634D01*
X90934077Y-102105923D01*
X91151366Y-102284248D01*
X91296830Y-102362000D01*
X91151366Y-102439752D01*
X90934077Y-102618077D01*
X90755752Y-102835366D01*
X90623245Y-103083269D01*
X90541648Y-103352259D01*
X90514096Y-103632000D01*
X90541648Y-103911741D01*
X90623245Y-104180731D01*
X90755752Y-104428634D01*
X90934077Y-104645923D01*
X91151366Y-104824248D01*
X91296830Y-104902000D01*
X91151366Y-104979752D01*
X90934077Y-105158077D01*
X90755752Y-105375366D01*
X90623245Y-105623269D01*
X90541648Y-105892259D01*
X90514096Y-106172000D01*
X90541648Y-106451741D01*
X90623245Y-106720731D01*
X90755752Y-106968634D01*
X90934077Y-107185923D01*
X91151366Y-107364248D01*
X91399269Y-107496755D01*
X91668259Y-107578352D01*
X91877902Y-107599000D01*
X92018098Y-107599000D01*
X92227741Y-107578352D01*
X92321002Y-107550062D01*
X92321001Y-109873938D01*
X92227741Y-109845648D01*
X92018098Y-109825000D01*
X91877902Y-109825000D01*
X91668259Y-109845648D01*
X91399269Y-109927245D01*
X91151366Y-110059752D01*
X90934077Y-110238077D01*
X90755752Y-110455366D01*
X90623245Y-110703269D01*
X90541648Y-110972259D01*
X90514096Y-111252000D01*
X90541648Y-111531741D01*
X90623245Y-111800731D01*
X90755752Y-112048634D01*
X90934077Y-112265923D01*
X91151366Y-112444248D01*
X91296830Y-112522000D01*
X91151366Y-112599752D01*
X90934077Y-112778077D01*
X90755752Y-112995366D01*
X90623245Y-113243269D01*
X90541648Y-113512259D01*
X90514096Y-113792000D01*
X90541648Y-114071741D01*
X90623245Y-114340731D01*
X90755752Y-114588634D01*
X90934077Y-114805923D01*
X91151366Y-114984248D01*
X91292680Y-115059782D01*
X91092869Y-115179615D01*
X90884481Y-115368586D01*
X90716963Y-115594580D01*
X90596754Y-115848913D01*
X90556096Y-115982961D01*
X90678085Y-116205000D01*
X91821000Y-116205000D01*
X91821000Y-116185000D01*
X92075000Y-116185000D01*
X92075000Y-116205000D01*
X92095000Y-116205000D01*
X92095000Y-116459000D01*
X92075000Y-116459000D01*
X92075000Y-118745000D01*
X92095000Y-118745000D01*
X92095000Y-118999000D01*
X92075000Y-118999000D01*
X92075000Y-119019000D01*
X91821000Y-119019000D01*
X91821000Y-118999000D01*
X90678085Y-118999000D01*
X90556096Y-119221039D01*
X90596754Y-119355087D01*
X90716963Y-119609420D01*
X90884481Y-119835414D01*
X91092869Y-120024385D01*
X91292680Y-120144218D01*
X91151366Y-120219752D01*
X90934077Y-120398077D01*
X90755752Y-120615366D01*
X90623245Y-120863269D01*
X90541648Y-121132259D01*
X90514096Y-121412000D01*
X90541648Y-121691741D01*
X90623245Y-121960731D01*
X90755752Y-122208634D01*
X90934077Y-122425923D01*
X91151366Y-122604248D01*
X91296830Y-122682000D01*
X91151366Y-122759752D01*
X90934077Y-122938077D01*
X90755752Y-123155366D01*
X90623245Y-123403269D01*
X90541648Y-123672259D01*
X90538128Y-123708000D01*
X80111554Y-123708000D01*
X80040284Y-123601337D01*
X79852663Y-123413716D01*
X79632044Y-123266304D01*
X79447831Y-123190000D01*
X79632044Y-123113696D01*
X79852663Y-122966284D01*
X80040284Y-122778663D01*
X80187696Y-122558044D01*
X80289236Y-122312906D01*
X80341000Y-122052668D01*
X80341000Y-121787332D01*
X80289236Y-121527094D01*
X80187696Y-121281956D01*
X80040284Y-121061337D01*
X79852663Y-120873716D01*
X79632044Y-120726304D01*
X79447831Y-120650000D01*
X79632044Y-120573696D01*
X79852663Y-120426284D01*
X80040284Y-120238663D01*
X80187696Y-120018044D01*
X80289236Y-119772906D01*
X80341000Y-119512668D01*
X80341000Y-119247332D01*
X80289236Y-118987094D01*
X80187696Y-118741956D01*
X80040284Y-118521337D01*
X79852663Y-118333716D01*
X79632044Y-118186304D01*
X79386906Y-118084764D01*
X79126668Y-118033000D01*
X78861332Y-118033000D01*
X78601094Y-118084764D01*
X78355956Y-118186304D01*
X78135337Y-118333716D01*
X77947716Y-118521337D01*
X77800304Y-118741956D01*
X77698764Y-118987094D01*
X77647000Y-119247332D01*
X77647000Y-119512668D01*
X77698764Y-119772906D01*
X77800304Y-120018044D01*
X77947716Y-120238663D01*
X78135337Y-120426284D01*
X78355956Y-120573696D01*
X78540169Y-120650000D01*
X78355956Y-120726304D01*
X78135337Y-120873716D01*
X77947716Y-121061337D01*
X77800304Y-121281956D01*
X77698764Y-121527094D01*
X77647000Y-121787332D01*
X77647000Y-122052668D01*
X77698764Y-122312906D01*
X77800304Y-122558044D01*
X77947716Y-122778663D01*
X78135337Y-122966284D01*
X78355956Y-123113696D01*
X78540169Y-123190000D01*
X78355956Y-123266304D01*
X78135337Y-123413716D01*
X77947716Y-123601337D01*
X77800304Y-123821956D01*
X77698764Y-124067094D01*
X77647000Y-124327332D01*
X77647000Y-124592668D01*
X77698764Y-124852906D01*
X77800304Y-125098044D01*
X77947716Y-125318663D01*
X78135337Y-125506284D01*
X78355956Y-125653696D01*
X78601094Y-125755236D01*
X78861332Y-125807000D01*
X79126668Y-125807000D01*
X79386906Y-125755236D01*
X79632044Y-125653696D01*
X79852663Y-125506284D01*
X80040284Y-125318663D01*
X80111554Y-125212000D01*
X91278121Y-125212000D01*
X91296830Y-125222000D01*
X91151366Y-125299752D01*
X90934077Y-125478077D01*
X90755752Y-125695366D01*
X90623245Y-125943269D01*
X90541648Y-126212259D01*
X90514096Y-126492000D01*
X90541648Y-126771741D01*
X90623245Y-127040731D01*
X90755752Y-127288634D01*
X90934077Y-127505923D01*
X91151366Y-127684248D01*
X91296830Y-127762000D01*
X91151366Y-127839752D01*
X90934077Y-128018077D01*
X90755752Y-128235366D01*
X90623245Y-128483269D01*
X90541648Y-128752259D01*
X90514096Y-129032000D01*
X90541648Y-129311741D01*
X90623245Y-129580731D01*
X90755752Y-129828634D01*
X90934077Y-130045923D01*
X91151366Y-130224248D01*
X91399269Y-130356755D01*
X91668259Y-130438352D01*
X91877902Y-130459000D01*
X92018098Y-130459000D01*
X92227741Y-130438352D01*
X92321001Y-130410062D01*
X92321001Y-133183511D01*
X92276173Y-133228339D01*
X92227741Y-133213648D01*
X92018098Y-133193000D01*
X91877902Y-133193000D01*
X91668259Y-133213648D01*
X91399269Y-133295245D01*
X91151366Y-133427752D01*
X90934077Y-133606077D01*
X90755752Y-133823366D01*
X90623245Y-134071269D01*
X90541648Y-134340259D01*
X90514096Y-134620000D01*
X90541648Y-134899741D01*
X90623245Y-135168731D01*
X90755752Y-135416634D01*
X90934077Y-135633923D01*
X91151366Y-135812248D01*
X91296830Y-135890000D01*
X91151366Y-135967752D01*
X90934077Y-136146077D01*
X90755752Y-136363366D01*
X90623245Y-136611269D01*
X90541648Y-136880259D01*
X90514096Y-137160000D01*
X90541648Y-137439741D01*
X90623245Y-137708731D01*
X90755752Y-137956634D01*
X90934077Y-138173923D01*
X91151366Y-138352248D01*
X91296830Y-138430000D01*
X91151366Y-138507752D01*
X90934077Y-138686077D01*
X90755752Y-138903366D01*
X90623245Y-139151269D01*
X90541648Y-139420259D01*
X90514096Y-139700000D01*
X90541648Y-139979741D01*
X90623245Y-140248731D01*
X90755752Y-140496634D01*
X90934077Y-140713923D01*
X91151366Y-140892248D01*
X91292680Y-140967782D01*
X91092869Y-141087615D01*
X90884481Y-141276586D01*
X90716963Y-141502580D01*
X90596754Y-141756913D01*
X90556096Y-141890961D01*
X90678085Y-142113000D01*
X91821000Y-142113000D01*
X91821000Y-142093000D01*
X92075000Y-142093000D01*
X92075000Y-142113000D01*
X92095000Y-142113000D01*
X92095000Y-142367000D01*
X92075000Y-142367000D01*
X92075000Y-143510624D01*
X92297040Y-143631909D01*
X92561881Y-143537070D01*
X92803131Y-143392385D01*
X93011519Y-143203414D01*
X93179037Y-142977420D01*
X93255560Y-142815517D01*
X93323885Y-142980467D01*
X93436277Y-143148674D01*
X93579326Y-143291723D01*
X93747533Y-143404115D01*
X93934435Y-143481533D01*
X94132849Y-143521000D01*
X94335151Y-143521000D01*
X94498000Y-143488607D01*
X94498000Y-144587603D01*
X94452277Y-144633326D01*
X94339885Y-144801533D01*
X94262467Y-144988435D01*
X94223000Y-145186849D01*
X94223000Y-145389151D01*
X94262467Y-145587565D01*
X94339885Y-145774467D01*
X94452277Y-145942674D01*
X94595326Y-146085723D01*
X94763533Y-146198115D01*
X94950435Y-146275533D01*
X95148849Y-146315000D01*
X95351151Y-146315000D01*
X95549565Y-146275533D01*
X95736467Y-146198115D01*
X95904674Y-146085723D01*
X96047723Y-145942674D01*
X96160115Y-145774467D01*
X96237533Y-145587565D01*
X96277000Y-145389151D01*
X96277000Y-145186849D01*
X96237533Y-144988435D01*
X96160115Y-144801533D01*
X96047723Y-144633326D01*
X96002000Y-144587603D01*
X96002000Y-131510397D01*
X96047723Y-131464674D01*
X96160115Y-131296467D01*
X96237533Y-131109565D01*
X96277000Y-130911151D01*
X96277000Y-130708849D01*
X96237533Y-130510435D01*
X96160115Y-130323533D01*
X96047723Y-130155326D01*
X95904674Y-130012277D01*
X95736467Y-129899885D01*
X95549565Y-129822467D01*
X95351151Y-129783000D01*
X95148849Y-129783000D01*
X94950435Y-129822467D01*
X94763533Y-129899885D01*
X94595326Y-130012277D01*
X94452277Y-130155326D01*
X94339885Y-130323533D01*
X94262467Y-130510435D01*
X94223000Y-130708849D01*
X94223000Y-130911151D01*
X94262467Y-131109565D01*
X94339885Y-131296467D01*
X94452277Y-131464674D01*
X94498001Y-131510398D01*
X94498001Y-136106512D01*
X93339661Y-134948172D01*
X93354352Y-134899741D01*
X93381904Y-134620000D01*
X93354352Y-134340259D01*
X93339661Y-134291827D01*
X93578623Y-134052865D01*
X93607318Y-134029316D01*
X93701291Y-133914809D01*
X93771119Y-133784169D01*
X93814120Y-133642417D01*
X93825001Y-133531937D01*
X93825001Y-133531935D01*
X93828639Y-133494999D01*
X93825001Y-133458064D01*
X93825001Y-125113936D01*
X93828639Y-125077000D01*
X93825001Y-125040063D01*
X93814120Y-124929583D01*
X93771119Y-124787831D01*
X93701291Y-124657191D01*
X93607318Y-124542684D01*
X93578622Y-124519134D01*
X93339661Y-124280173D01*
X93354352Y-124231741D01*
X93381904Y-123952000D01*
X93354352Y-123672259D01*
X93339661Y-123623827D01*
X93578623Y-123384865D01*
X93607318Y-123361316D01*
X93701291Y-123246809D01*
X93771119Y-123116169D01*
X93814120Y-122974417D01*
X93825001Y-122863937D01*
X93825001Y-122863935D01*
X93828639Y-122826999D01*
X93825001Y-122790064D01*
X93825001Y-117782204D01*
X93934435Y-117827533D01*
X94132849Y-117867000D01*
X94335151Y-117867000D01*
X94533565Y-117827533D01*
X94720467Y-117750115D01*
X94888674Y-117637723D01*
X95031723Y-117494674D01*
X95144115Y-117326467D01*
X95221533Y-117139565D01*
X95261000Y-116941151D01*
X95261000Y-116738849D01*
X95221533Y-116540435D01*
X95144115Y-116353533D01*
X95031723Y-116185326D01*
X94888674Y-116042277D01*
X94720467Y-115929885D01*
X94533565Y-115852467D01*
X94335151Y-115813000D01*
X94132849Y-115813000D01*
X93934435Y-115852467D01*
X93825001Y-115897796D01*
X93825001Y-99713936D01*
X93828639Y-99677000D01*
X93825001Y-99640063D01*
X93814120Y-99529583D01*
X93771119Y-99387831D01*
X93701291Y-99257191D01*
X93607318Y-99142684D01*
X93578622Y-99119134D01*
X93339661Y-98880173D01*
X93354352Y-98831741D01*
X93381904Y-98552000D01*
X93354352Y-98272259D01*
X93339661Y-98223827D01*
X93578623Y-97984865D01*
X93607318Y-97961316D01*
X93701291Y-97846809D01*
X93771119Y-97716169D01*
X93814120Y-97574417D01*
X93825001Y-97463937D01*
X93825001Y-97463935D01*
X93828639Y-97426999D01*
X93825001Y-97390064D01*
X93825001Y-77107936D01*
X93828639Y-77071000D01*
X93822147Y-77005087D01*
X93814120Y-76923583D01*
X93771119Y-76781831D01*
X93701291Y-76651191D01*
X93607318Y-76536684D01*
X93578622Y-76513134D01*
X93339661Y-76274173D01*
X93354352Y-76225741D01*
X93381904Y-75946000D01*
X93354352Y-75666259D01*
X93272755Y-75397269D01*
X93140248Y-75149366D01*
X92961923Y-74932077D01*
X92947207Y-74920000D01*
X94176512Y-74920000D01*
X96763000Y-77506489D01*
X96763000Y-77571151D01*
X96802467Y-77769565D01*
X96879885Y-77956467D01*
X96992277Y-78124674D01*
X97038000Y-78170397D01*
X97038000Y-78195062D01*
X97034362Y-78232000D01*
X97038000Y-78268935D01*
X97038000Y-78268937D01*
X97048881Y-78379417D01*
X97083143Y-78492362D01*
X97091882Y-78521169D01*
X97161710Y-78651810D01*
X97202583Y-78701614D01*
X97255683Y-78766317D01*
X97284379Y-78789867D01*
X97691000Y-79196489D01*
X97690999Y-105010063D01*
X97687361Y-105046999D01*
X97690999Y-105083934D01*
X97690999Y-105083936D01*
X97701880Y-105194416D01*
X97743920Y-105333000D01*
X97744881Y-105336168D01*
X97814709Y-105466809D01*
X97855557Y-105516582D01*
X97908682Y-105581316D01*
X97937378Y-105604866D01*
X98176339Y-105843827D01*
X98161648Y-105892259D01*
X98134096Y-106172000D01*
X98161648Y-106451741D01*
X98176339Y-106500173D01*
X97937374Y-106739138D01*
X97908683Y-106762684D01*
X97885137Y-106791375D01*
X97885136Y-106791376D01*
X97814709Y-106877191D01*
X97744881Y-107007832D01*
X97701881Y-107149584D01*
X97687361Y-107297001D01*
X97691000Y-107333947D01*
X97690999Y-122790063D01*
X97687361Y-122826999D01*
X97690999Y-122863934D01*
X97690999Y-122863936D01*
X97701880Y-122974416D01*
X97734946Y-123083417D01*
X97744881Y-123116168D01*
X97814709Y-123246809D01*
X97855557Y-123296582D01*
X97908682Y-123361316D01*
X97937378Y-123384866D01*
X98176339Y-123623827D01*
X98161648Y-123672259D01*
X98134096Y-123952000D01*
X98161648Y-124231741D01*
X98176339Y-124280173D01*
X97937374Y-124519138D01*
X97908683Y-124542684D01*
X97885137Y-124571375D01*
X97885136Y-124571376D01*
X97814709Y-124657191D01*
X97744881Y-124787832D01*
X97701881Y-124929584D01*
X97687361Y-125077001D01*
X97691000Y-125113947D01*
X97690999Y-141078063D01*
X97687361Y-141114999D01*
X97690999Y-141151934D01*
X97690999Y-141151936D01*
X97701880Y-141262416D01*
X97706179Y-141276586D01*
X97744881Y-141404168D01*
X97814709Y-141534809D01*
X97820514Y-141541882D01*
X97908682Y-141649316D01*
X97937378Y-141672866D01*
X98176339Y-141911827D01*
X98161648Y-141960259D01*
X98134096Y-142240000D01*
X98161648Y-142519741D01*
X98243245Y-142788731D01*
X98375752Y-143036634D01*
X98554077Y-143253923D01*
X98771366Y-143432248D01*
X98816001Y-143456106D01*
X98816000Y-145992512D01*
X96462512Y-148346000D01*
X91243488Y-148346000D01*
X85486527Y-142589039D01*
X90556096Y-142589039D01*
X90596754Y-142723087D01*
X90716963Y-142977420D01*
X90884481Y-143203414D01*
X91092869Y-143392385D01*
X91334119Y-143537070D01*
X91598960Y-143631909D01*
X91821000Y-143510624D01*
X91821000Y-142367000D01*
X90678085Y-142367000D01*
X90556096Y-142589039D01*
X85486527Y-142589039D01*
X83810000Y-140912512D01*
X83810000Y-134216854D01*
X83813638Y-134179918D01*
X83810000Y-134142981D01*
X83799119Y-134032501D01*
X83756118Y-133890749D01*
X83718302Y-133820000D01*
X83686290Y-133760108D01*
X83615863Y-133674293D01*
X83592317Y-133645602D01*
X83563627Y-133622057D01*
X72879948Y-122938379D01*
X72856398Y-122909683D01*
X72741891Y-122815710D01*
X72611251Y-122745882D01*
X72469499Y-122702881D01*
X72394676Y-122695512D01*
X72354022Y-122619453D01*
X72169450Y-122394550D01*
X71944547Y-122209978D01*
X71877237Y-122174000D01*
X71944547Y-122138022D01*
X72169450Y-121953450D01*
X72354022Y-121728547D01*
X72491172Y-121471958D01*
X72575629Y-121193543D01*
X72604146Y-120904000D01*
X72575629Y-120614457D01*
X72491172Y-120336042D01*
X72354022Y-120079453D01*
X72169450Y-119854550D01*
X72136106Y-119827185D01*
X72214180Y-119803502D01*
X72324494Y-119744537D01*
X72421185Y-119665185D01*
X72500537Y-119568494D01*
X72559502Y-119458180D01*
X72595812Y-119338482D01*
X72608072Y-119214000D01*
X72605000Y-118649750D01*
X72446250Y-118491000D01*
X71247000Y-118491000D01*
X71247000Y-118511000D01*
X70993000Y-118511000D01*
X70993000Y-118491000D01*
X69793750Y-118491000D01*
X69635000Y-118649750D01*
X69631928Y-119214000D01*
X69644188Y-119338482D01*
X69680498Y-119458180D01*
X69739463Y-119568494D01*
X69818815Y-119665185D01*
X69915506Y-119744537D01*
X70025820Y-119803502D01*
X70103894Y-119827185D01*
X70070550Y-119854550D01*
X69885978Y-120079453D01*
X69748828Y-120336042D01*
X69664371Y-120614457D01*
X69635854Y-120904000D01*
X69664371Y-121193543D01*
X69748828Y-121471958D01*
X69885978Y-121728547D01*
X70070550Y-121953450D01*
X70295453Y-122138022D01*
X70362763Y-122174000D01*
X70295453Y-122209978D01*
X70070550Y-122394550D01*
X69885978Y-122619453D01*
X69748828Y-122876042D01*
X69664371Y-123154457D01*
X69636538Y-123437050D01*
X68824000Y-122624512D01*
X68824000Y-117514000D01*
X69631928Y-117514000D01*
X69635000Y-118078250D01*
X69793750Y-118237000D01*
X70993000Y-118237000D01*
X70993000Y-117037750D01*
X71247000Y-117037750D01*
X71247000Y-118237000D01*
X72446250Y-118237000D01*
X72605000Y-118078250D01*
X72608072Y-117514000D01*
X72595812Y-117389518D01*
X72559502Y-117269820D01*
X72500537Y-117159506D01*
X72421185Y-117062815D01*
X72324494Y-116983463D01*
X72214180Y-116924498D01*
X72094482Y-116888188D01*
X71970000Y-116875928D01*
X71405750Y-116879000D01*
X71247000Y-117037750D01*
X70993000Y-117037750D01*
X70834250Y-116879000D01*
X70270000Y-116875928D01*
X70145518Y-116888188D01*
X70025820Y-116924498D01*
X69915506Y-116983463D01*
X69818815Y-117062815D01*
X69739463Y-117159506D01*
X69680498Y-117269820D01*
X69644188Y-117389518D01*
X69631928Y-117514000D01*
X68824000Y-117514000D01*
X68824000Y-106547332D01*
X72059000Y-106547332D01*
X72059000Y-106812668D01*
X72110764Y-107072906D01*
X72212304Y-107318044D01*
X72359716Y-107538663D01*
X72547337Y-107726284D01*
X72767956Y-107873696D01*
X72952169Y-107950000D01*
X72767956Y-108026304D01*
X72547337Y-108173716D01*
X72359716Y-108361337D01*
X72212304Y-108581956D01*
X72110764Y-108827094D01*
X72059000Y-109087332D01*
X72059000Y-109352668D01*
X72110764Y-109612906D01*
X72212304Y-109858044D01*
X72359716Y-110078663D01*
X72547337Y-110266284D01*
X72767956Y-110413696D01*
X72952169Y-110490000D01*
X72767956Y-110566304D01*
X72547337Y-110713716D01*
X72359716Y-110901337D01*
X72212304Y-111121956D01*
X72110764Y-111367094D01*
X72059000Y-111627332D01*
X72059000Y-111892668D01*
X72110764Y-112152906D01*
X72212304Y-112398044D01*
X72359716Y-112618663D01*
X72547337Y-112806284D01*
X72767956Y-112953696D01*
X73013094Y-113055236D01*
X73273332Y-113107000D01*
X73538668Y-113107000D01*
X73798906Y-113055236D01*
X74044044Y-112953696D01*
X74264663Y-112806284D01*
X74452284Y-112618663D01*
X74599696Y-112398044D01*
X74701236Y-112152906D01*
X74753000Y-111892668D01*
X74753000Y-111627332D01*
X85267000Y-111627332D01*
X85267000Y-111892668D01*
X85318764Y-112152906D01*
X85420304Y-112398044D01*
X85567716Y-112618663D01*
X85755337Y-112806284D01*
X85975956Y-112953696D01*
X86160169Y-113030000D01*
X85975956Y-113106304D01*
X85755337Y-113253716D01*
X85567716Y-113441337D01*
X85420304Y-113661956D01*
X85318764Y-113907094D01*
X85267000Y-114167332D01*
X85267000Y-114432668D01*
X85318764Y-114692906D01*
X85420304Y-114938044D01*
X85567716Y-115158663D01*
X85755337Y-115346284D01*
X85975956Y-115493696D01*
X86160169Y-115570000D01*
X85975956Y-115646304D01*
X85755337Y-115793716D01*
X85567716Y-115981337D01*
X85420304Y-116201956D01*
X85318764Y-116447094D01*
X85267000Y-116707332D01*
X85267000Y-116972668D01*
X85318764Y-117232906D01*
X85420304Y-117478044D01*
X85567716Y-117698663D01*
X85755337Y-117886284D01*
X85975956Y-118033696D01*
X86221094Y-118135236D01*
X86481332Y-118187000D01*
X86746668Y-118187000D01*
X87006906Y-118135236D01*
X87252044Y-118033696D01*
X87472663Y-117886284D01*
X87660284Y-117698663D01*
X87807696Y-117478044D01*
X87909236Y-117232906D01*
X87961000Y-116972668D01*
X87961000Y-116707332D01*
X87955771Y-116681039D01*
X90556096Y-116681039D01*
X90596754Y-116815087D01*
X90716963Y-117069420D01*
X90884481Y-117295414D01*
X91092869Y-117484385D01*
X91288982Y-117602000D01*
X91092869Y-117719615D01*
X90884481Y-117908586D01*
X90716963Y-118134580D01*
X90596754Y-118388913D01*
X90556096Y-118522961D01*
X90678085Y-118745000D01*
X91821000Y-118745000D01*
X91821000Y-116459000D01*
X90678085Y-116459000D01*
X90556096Y-116681039D01*
X87955771Y-116681039D01*
X87909236Y-116447094D01*
X87807696Y-116201956D01*
X87660284Y-115981337D01*
X87472663Y-115793716D01*
X87252044Y-115646304D01*
X87067831Y-115570000D01*
X87252044Y-115493696D01*
X87472663Y-115346284D01*
X87660284Y-115158663D01*
X87807696Y-114938044D01*
X87909236Y-114692906D01*
X87961000Y-114432668D01*
X87961000Y-114167332D01*
X87909236Y-113907094D01*
X87807696Y-113661956D01*
X87660284Y-113441337D01*
X87472663Y-113253716D01*
X87252044Y-113106304D01*
X87067831Y-113030000D01*
X87252044Y-112953696D01*
X87472663Y-112806284D01*
X87660284Y-112618663D01*
X87807696Y-112398044D01*
X87909236Y-112152906D01*
X87961000Y-111892668D01*
X87961000Y-111627332D01*
X87909236Y-111367094D01*
X87807696Y-111121956D01*
X87660284Y-110901337D01*
X87472663Y-110713716D01*
X87252044Y-110566304D01*
X87006906Y-110464764D01*
X86746668Y-110413000D01*
X86481332Y-110413000D01*
X86221094Y-110464764D01*
X85975956Y-110566304D01*
X85755337Y-110713716D01*
X85567716Y-110901337D01*
X85420304Y-111121956D01*
X85318764Y-111367094D01*
X85267000Y-111627332D01*
X74753000Y-111627332D01*
X74701236Y-111367094D01*
X74599696Y-111121956D01*
X74452284Y-110901337D01*
X74264663Y-110713716D01*
X74044044Y-110566304D01*
X73859831Y-110490000D01*
X74044044Y-110413696D01*
X74264663Y-110266284D01*
X74452284Y-110078663D01*
X74599696Y-109858044D01*
X74701236Y-109612906D01*
X74753000Y-109352668D01*
X74753000Y-109087332D01*
X74701236Y-108827094D01*
X74599696Y-108581956D01*
X74452284Y-108361337D01*
X74264663Y-108173716D01*
X74044044Y-108026304D01*
X73859831Y-107950000D01*
X74044044Y-107873696D01*
X74264663Y-107726284D01*
X74452284Y-107538663D01*
X74599696Y-107318044D01*
X74701236Y-107072906D01*
X74753000Y-106812668D01*
X74753000Y-106547332D01*
X74701236Y-106287094D01*
X74599696Y-106041956D01*
X74452284Y-105821337D01*
X74264663Y-105633716D01*
X74044044Y-105486304D01*
X73798906Y-105384764D01*
X73538668Y-105333000D01*
X73273332Y-105333000D01*
X73013094Y-105384764D01*
X72767956Y-105486304D01*
X72547337Y-105633716D01*
X72359716Y-105821337D01*
X72212304Y-106041956D01*
X72110764Y-106287094D01*
X72059000Y-106547332D01*
X68824000Y-106547332D01*
X68824000Y-105975488D01*
X70993928Y-103805560D01*
X85096045Y-103805560D01*
X85157932Y-104041368D01*
X85399790Y-104154266D01*
X85659027Y-104217811D01*
X85925680Y-104229561D01*
X86189501Y-104189063D01*
X86440353Y-104097875D01*
X86546068Y-104041368D01*
X86607955Y-103805560D01*
X85852000Y-103049605D01*
X85096045Y-103805560D01*
X70993928Y-103805560D01*
X71855808Y-102943680D01*
X84492439Y-102943680D01*
X84532937Y-103207501D01*
X84624125Y-103458353D01*
X84680632Y-103564068D01*
X84916440Y-103625955D01*
X85672395Y-102870000D01*
X86031605Y-102870000D01*
X86787560Y-103625955D01*
X87023368Y-103564068D01*
X87136266Y-103322210D01*
X87199811Y-103062973D01*
X87211561Y-102796320D01*
X87171063Y-102532499D01*
X87079875Y-102281647D01*
X87023368Y-102175932D01*
X86787560Y-102114045D01*
X86031605Y-102870000D01*
X85672395Y-102870000D01*
X84916440Y-102114045D01*
X84680632Y-102175932D01*
X84567734Y-102417790D01*
X84504189Y-102677027D01*
X84492439Y-102943680D01*
X71855808Y-102943680D01*
X71939489Y-102860000D01*
X79973065Y-102860000D01*
X80010000Y-102863638D01*
X80046935Y-102860000D01*
X80046938Y-102860000D01*
X80157418Y-102849119D01*
X80299170Y-102806118D01*
X80429810Y-102736290D01*
X80544317Y-102642317D01*
X80567867Y-102613621D01*
X83563626Y-99617863D01*
X83592317Y-99594317D01*
X83686290Y-99479810D01*
X83756118Y-99349170D01*
X83799119Y-99207418D01*
X83810000Y-99096938D01*
X83810000Y-99096936D01*
X83813638Y-99060000D01*
X83810000Y-99023065D01*
X83810000Y-97657332D01*
X84505000Y-97657332D01*
X84505000Y-97922668D01*
X84556764Y-98182906D01*
X84658304Y-98428044D01*
X84805716Y-98648663D01*
X84993337Y-98836284D01*
X85213956Y-98983696D01*
X85398169Y-99060000D01*
X85213956Y-99136304D01*
X84993337Y-99283716D01*
X84805716Y-99471337D01*
X84658304Y-99691956D01*
X84556764Y-99937094D01*
X84505000Y-100197332D01*
X84505000Y-100462668D01*
X84556764Y-100722906D01*
X84658304Y-100968044D01*
X84805716Y-101188663D01*
X84993337Y-101376284D01*
X85213956Y-101523696D01*
X85389457Y-101596391D01*
X85263647Y-101642125D01*
X85157932Y-101698632D01*
X85096045Y-101934440D01*
X85852000Y-102690395D01*
X86607955Y-101934440D01*
X86546068Y-101698632D01*
X86321165Y-101593648D01*
X86490044Y-101523696D01*
X86710663Y-101376284D01*
X86898284Y-101188663D01*
X87045696Y-100968044D01*
X87147236Y-100722906D01*
X87199000Y-100462668D01*
X87199000Y-100197332D01*
X87147236Y-99937094D01*
X87045696Y-99691956D01*
X86898284Y-99471337D01*
X86710663Y-99283716D01*
X86490044Y-99136304D01*
X86305831Y-99060000D01*
X86490044Y-98983696D01*
X86710663Y-98836284D01*
X86898284Y-98648663D01*
X87045696Y-98428044D01*
X87147236Y-98182906D01*
X87199000Y-97922668D01*
X87199000Y-97657332D01*
X87147236Y-97397094D01*
X87045696Y-97151956D01*
X86898284Y-96931337D01*
X86710663Y-96743716D01*
X86490044Y-96596304D01*
X86244906Y-96494764D01*
X85984668Y-96443000D01*
X85719332Y-96443000D01*
X85459094Y-96494764D01*
X85213956Y-96596304D01*
X84993337Y-96743716D01*
X84805716Y-96931337D01*
X84658304Y-97151956D01*
X84556764Y-97397094D01*
X84505000Y-97657332D01*
X83810000Y-97657332D01*
X83810000Y-97339488D01*
X89767627Y-91381862D01*
X89796318Y-91358316D01*
X89819864Y-91329625D01*
X89890291Y-91243810D01*
X89960118Y-91113170D01*
X89960119Y-91113169D01*
X90003120Y-90971417D01*
X90014001Y-90860937D01*
X90014001Y-90860935D01*
X90017639Y-90824000D01*
X90014001Y-90787064D01*
X90014001Y-88341813D01*
X90148467Y-88286115D01*
X90316674Y-88173723D01*
X90459723Y-88030674D01*
X90572115Y-87862467D01*
X90649533Y-87675565D01*
X90689000Y-87477151D01*
X90689000Y-87274849D01*
X90649533Y-87076435D01*
X90572115Y-86889533D01*
X90459723Y-86721326D01*
X90316674Y-86578277D01*
X90148467Y-86465885D01*
X89961565Y-86388467D01*
X89763151Y-86349000D01*
X89560849Y-86349000D01*
X89362435Y-86388467D01*
X89175533Y-86465885D01*
X89007326Y-86578277D01*
X88864277Y-86721326D01*
X88751885Y-86889533D01*
X88674467Y-87076435D01*
X88635000Y-87274849D01*
X88635000Y-87354618D01*
X88633711Y-87356189D01*
X88608653Y-87403070D01*
X88563883Y-87486830D01*
X88520882Y-87628582D01*
X88517279Y-87665170D01*
X88506363Y-87775999D01*
X88510001Y-87812935D01*
X88510001Y-88377174D01*
X88457622Y-88113844D01*
X88352916Y-87861062D01*
X88200907Y-87633564D01*
X88007436Y-87440093D01*
X87779938Y-87288084D01*
X87527156Y-87183378D01*
X87258805Y-87130000D01*
X86985195Y-87130000D01*
X86716844Y-87183378D01*
X86464062Y-87288084D01*
X86236564Y-87440093D01*
X86043093Y-87633564D01*
X85891084Y-87861062D01*
X85786378Y-88113844D01*
X85733000Y-88382195D01*
X85733000Y-88655805D01*
X85786378Y-88924156D01*
X85891084Y-89176938D01*
X86043093Y-89404436D01*
X86236564Y-89597907D01*
X86464062Y-89749916D01*
X86716844Y-89854622D01*
X86985195Y-89908000D01*
X87258805Y-89908000D01*
X87527156Y-89854622D01*
X87779938Y-89749916D01*
X88007436Y-89597907D01*
X88200907Y-89404436D01*
X88352916Y-89176938D01*
X88457622Y-88924156D01*
X88510001Y-88660826D01*
X88510002Y-90512509D01*
X82552379Y-96470133D01*
X82523683Y-96493683D01*
X82481885Y-96544615D01*
X82429710Y-96608190D01*
X82398450Y-96666674D01*
X82359882Y-96738831D01*
X82316881Y-96880583D01*
X82306000Y-96991062D01*
X82302362Y-97028000D01*
X82306000Y-97064936D01*
X82306001Y-98748510D01*
X79698512Y-101356000D01*
X71664935Y-101356000D01*
X71627999Y-101352362D01*
X71591064Y-101356000D01*
X71591062Y-101356000D01*
X71480582Y-101366881D01*
X71338830Y-101409882D01*
X71278017Y-101442387D01*
X71208189Y-101479710D01*
X71122374Y-101550137D01*
X71093683Y-101573683D01*
X71070137Y-101602374D01*
X67962000Y-104710512D01*
X67962000Y-96926400D01*
X69626367Y-96926400D01*
X69626367Y-98653600D01*
X69638473Y-98776513D01*
X69674325Y-98894703D01*
X69732547Y-99003628D01*
X69810899Y-99099101D01*
X69906372Y-99177453D01*
X70015297Y-99235675D01*
X70133487Y-99271527D01*
X70256400Y-99283633D01*
X71983600Y-99283633D01*
X72106513Y-99271527D01*
X72224703Y-99235675D01*
X72333628Y-99177453D01*
X72429101Y-99099101D01*
X72507453Y-99003628D01*
X72565675Y-98894703D01*
X72585275Y-98830090D01*
X72600887Y-98849113D01*
X72827860Y-99035385D01*
X73086812Y-99173798D01*
X73367791Y-99259032D01*
X73586775Y-99280600D01*
X73733225Y-99280600D01*
X73952209Y-99259032D01*
X74233188Y-99173798D01*
X74492140Y-99035385D01*
X74719113Y-98849113D01*
X74905385Y-98622140D01*
X75043798Y-98363188D01*
X75129032Y-98082209D01*
X75157812Y-97790000D01*
X75129032Y-97497791D01*
X75043798Y-97216812D01*
X74905385Y-96957860D01*
X74719113Y-96730887D01*
X74492140Y-96544615D01*
X74444057Y-96518914D01*
X74548488Y-96456817D01*
X74766854Y-96260293D01*
X74942684Y-96024944D01*
X75069222Y-95759814D01*
X75114958Y-95609026D01*
X74993817Y-95377000D01*
X73787000Y-95377000D01*
X73787000Y-95397000D01*
X73533000Y-95397000D01*
X73533000Y-95377000D01*
X71247000Y-95377000D01*
X71247000Y-95397000D01*
X70993000Y-95397000D01*
X70993000Y-95377000D01*
X69786183Y-95377000D01*
X69665042Y-95609026D01*
X69710778Y-95759814D01*
X69837316Y-96024944D01*
X70013146Y-96260293D01*
X70083522Y-96323630D01*
X70015297Y-96344325D01*
X69906372Y-96402547D01*
X69810899Y-96480899D01*
X69732547Y-96576372D01*
X69674325Y-96685297D01*
X69638473Y-96803487D01*
X69626367Y-96926400D01*
X67962000Y-96926400D01*
X67962000Y-93069026D01*
X69665042Y-93069026D01*
X69710778Y-93219814D01*
X69837316Y-93484944D01*
X70013146Y-93720293D01*
X70231512Y-93916817D01*
X70337770Y-93980000D01*
X70231512Y-94043183D01*
X70013146Y-94239707D01*
X69837316Y-94475056D01*
X69710778Y-94740186D01*
X69665042Y-94890974D01*
X69786183Y-95123000D01*
X70993000Y-95123000D01*
X70993000Y-92837000D01*
X71247000Y-92837000D01*
X71247000Y-95123000D01*
X73533000Y-95123000D01*
X73533000Y-92837000D01*
X73787000Y-92837000D01*
X73787000Y-95123000D01*
X74993817Y-95123000D01*
X75114958Y-94890974D01*
X75069222Y-94740186D01*
X74942684Y-94475056D01*
X74766854Y-94239707D01*
X74548488Y-94043183D01*
X74442230Y-93980000D01*
X74548488Y-93916817D01*
X74766854Y-93720293D01*
X74942684Y-93484944D01*
X75069222Y-93219814D01*
X75114958Y-93069026D01*
X74993817Y-92837000D01*
X73787000Y-92837000D01*
X73533000Y-92837000D01*
X71247000Y-92837000D01*
X70993000Y-92837000D01*
X69786183Y-92837000D01*
X69665042Y-93069026D01*
X67962000Y-93069026D01*
X67962000Y-90529026D01*
X69665042Y-90529026D01*
X69710778Y-90679814D01*
X69837316Y-90944944D01*
X70013146Y-91180293D01*
X70231512Y-91376817D01*
X70337770Y-91440000D01*
X70231512Y-91503183D01*
X70013146Y-91699707D01*
X69837316Y-91935056D01*
X69710778Y-92200186D01*
X69665042Y-92350974D01*
X69786183Y-92583000D01*
X70993000Y-92583000D01*
X70993000Y-90297000D01*
X71247000Y-90297000D01*
X71247000Y-92583000D01*
X73533000Y-92583000D01*
X73533000Y-90297000D01*
X73787000Y-90297000D01*
X73787000Y-92583000D01*
X74993817Y-92583000D01*
X75114958Y-92350974D01*
X75069222Y-92200186D01*
X74942684Y-91935056D01*
X74766854Y-91699707D01*
X74548488Y-91503183D01*
X74442230Y-91440000D01*
X74548488Y-91376817D01*
X74766854Y-91180293D01*
X74942684Y-90944944D01*
X75069222Y-90679814D01*
X75114958Y-90529026D01*
X74993817Y-90297000D01*
X73787000Y-90297000D01*
X73533000Y-90297000D01*
X71247000Y-90297000D01*
X70993000Y-90297000D01*
X69786183Y-90297000D01*
X69665042Y-90529026D01*
X67962000Y-90529026D01*
X67962000Y-80010000D01*
X69622188Y-80010000D01*
X69650968Y-80302209D01*
X69736202Y-80583188D01*
X69874615Y-80842140D01*
X70060887Y-81069113D01*
X70287860Y-81255385D01*
X70333911Y-81280000D01*
X70287860Y-81304615D01*
X70060887Y-81490887D01*
X69874615Y-81717860D01*
X69736202Y-81976812D01*
X69650968Y-82257791D01*
X69622188Y-82550000D01*
X69650968Y-82842209D01*
X69736202Y-83123188D01*
X69874615Y-83382140D01*
X70060887Y-83609113D01*
X70287860Y-83795385D01*
X70333911Y-83820000D01*
X70287860Y-83844615D01*
X70060887Y-84030887D01*
X69874615Y-84257860D01*
X69736202Y-84516812D01*
X69650968Y-84797791D01*
X69622188Y-85090000D01*
X69650968Y-85382209D01*
X69736202Y-85663188D01*
X69874615Y-85922140D01*
X70060887Y-86149113D01*
X70287860Y-86335385D01*
X70333911Y-86360000D01*
X70287860Y-86384615D01*
X70060887Y-86570887D01*
X69874615Y-86797860D01*
X69736202Y-87056812D01*
X69650968Y-87337791D01*
X69622188Y-87630000D01*
X69650968Y-87922209D01*
X69736202Y-88203188D01*
X69874615Y-88462140D01*
X70060887Y-88689113D01*
X70287860Y-88875385D01*
X70335943Y-88901086D01*
X70231512Y-88963183D01*
X70013146Y-89159707D01*
X69837316Y-89395056D01*
X69710778Y-89660186D01*
X69665042Y-89810974D01*
X69786183Y-90043000D01*
X70993000Y-90043000D01*
X70993000Y-90023000D01*
X71247000Y-90023000D01*
X71247000Y-90043000D01*
X73533000Y-90043000D01*
X73533000Y-90023000D01*
X73787000Y-90023000D01*
X73787000Y-90043000D01*
X74993817Y-90043000D01*
X75114958Y-89810974D01*
X75069222Y-89660186D01*
X74942684Y-89395056D01*
X74766854Y-89159707D01*
X74548488Y-88963183D01*
X74444057Y-88901086D01*
X74492140Y-88875385D01*
X74719113Y-88689113D01*
X74905385Y-88462140D01*
X75043798Y-88203188D01*
X75129032Y-87922209D01*
X75157812Y-87630000D01*
X75129032Y-87337791D01*
X75043798Y-87056812D01*
X74905385Y-86797860D01*
X74719113Y-86570887D01*
X74492140Y-86384615D01*
X74446089Y-86360000D01*
X74492140Y-86335385D01*
X74719113Y-86149113D01*
X74905385Y-85922140D01*
X75043798Y-85663188D01*
X75129032Y-85382209D01*
X75157812Y-85090000D01*
X75129032Y-84797791D01*
X75043798Y-84516812D01*
X74905385Y-84257860D01*
X74719113Y-84030887D01*
X74492140Y-83844615D01*
X74446089Y-83820000D01*
X74492140Y-83795385D01*
X74719113Y-83609113D01*
X74905385Y-83382140D01*
X75043798Y-83123188D01*
X75129032Y-82842209D01*
X75157812Y-82550000D01*
X75129032Y-82257791D01*
X75043798Y-81976812D01*
X74905385Y-81717860D01*
X74719113Y-81490887D01*
X74492140Y-81304615D01*
X74446089Y-81280000D01*
X74492140Y-81255385D01*
X74719113Y-81069113D01*
X74905385Y-80842140D01*
X75043798Y-80583188D01*
X75129032Y-80302209D01*
X75157812Y-80010000D01*
X75129032Y-79717791D01*
X75043798Y-79436812D01*
X74905385Y-79177860D01*
X74719113Y-78950887D01*
X74492140Y-78764615D01*
X74233188Y-78626202D01*
X73952209Y-78540968D01*
X73733225Y-78519400D01*
X73586775Y-78519400D01*
X73367791Y-78540968D01*
X73086812Y-78626202D01*
X72827860Y-78764615D01*
X72600887Y-78950887D01*
X72414615Y-79177860D01*
X72390000Y-79223911D01*
X72365385Y-79177860D01*
X72179113Y-78950887D01*
X71952140Y-78764615D01*
X71693188Y-78626202D01*
X71412209Y-78540968D01*
X71193225Y-78519400D01*
X71046775Y-78519400D01*
X70827791Y-78540968D01*
X70546812Y-78626202D01*
X70287860Y-78764615D01*
X70060887Y-78950887D01*
X69874615Y-79177860D01*
X69736202Y-79436812D01*
X69650968Y-79717791D01*
X69622188Y-80010000D01*
X67962000Y-80010000D01*
X67962000Y-72815148D01*
X68588457Y-72815148D01*
X68864627Y-73233118D01*
X69409557Y-73523649D01*
X70000696Y-73702287D01*
X70615328Y-73762168D01*
X71229831Y-73700990D01*
X71820592Y-73521103D01*
X72359373Y-73233118D01*
X72466121Y-73071560D01*
X80016045Y-73071560D01*
X80077932Y-73307368D01*
X80319790Y-73420266D01*
X80579027Y-73483811D01*
X80845680Y-73495561D01*
X81109501Y-73455063D01*
X81360353Y-73363875D01*
X81466068Y-73307368D01*
X81527955Y-73071560D01*
X82556045Y-73071560D01*
X82617932Y-73307368D01*
X82859790Y-73420266D01*
X83119027Y-73483811D01*
X83385680Y-73495561D01*
X83649501Y-73455063D01*
X83900353Y-73363875D01*
X84006068Y-73307368D01*
X84067955Y-73071560D01*
X83312000Y-72315605D01*
X82556045Y-73071560D01*
X81527955Y-73071560D01*
X80772000Y-72315605D01*
X80016045Y-73071560D01*
X72466121Y-73071560D01*
X72635543Y-72815148D01*
X70612000Y-70791605D01*
X68588457Y-72815148D01*
X67962000Y-72815148D01*
X67962000Y-72305339D01*
X67990882Y-72359373D01*
X68408852Y-72635543D01*
X70432395Y-70612000D01*
X70791605Y-70612000D01*
X72815148Y-72635543D01*
X73233118Y-72359373D01*
X73312927Y-72209680D01*
X79412439Y-72209680D01*
X79452937Y-72473501D01*
X79544125Y-72724353D01*
X79600632Y-72830068D01*
X79836440Y-72891955D01*
X80592395Y-72136000D01*
X80951605Y-72136000D01*
X81707560Y-72891955D01*
X81943368Y-72830068D01*
X82044105Y-72614262D01*
X82084125Y-72724353D01*
X82140632Y-72830068D01*
X82376440Y-72891955D01*
X83132395Y-72136000D01*
X82376440Y-71380045D01*
X82140632Y-71441932D01*
X82039895Y-71657738D01*
X81999875Y-71547647D01*
X81943368Y-71441932D01*
X81707560Y-71380045D01*
X80951605Y-72136000D01*
X80592395Y-72136000D01*
X79836440Y-71380045D01*
X79600632Y-71441932D01*
X79487734Y-71683790D01*
X79424189Y-71943027D01*
X79412439Y-72209680D01*
X73312927Y-72209680D01*
X73523649Y-71814443D01*
X73702287Y-71223304D01*
X73704514Y-71200440D01*
X80016045Y-71200440D01*
X80772000Y-71956395D01*
X81527955Y-71200440D01*
X82556045Y-71200440D01*
X83312000Y-71956395D01*
X84067955Y-71200440D01*
X84006068Y-70964632D01*
X83764210Y-70851734D01*
X83504973Y-70788189D01*
X83238320Y-70776439D01*
X82974499Y-70816937D01*
X82723647Y-70908125D01*
X82617932Y-70964632D01*
X82556045Y-71200440D01*
X81527955Y-71200440D01*
X81466068Y-70964632D01*
X81224210Y-70851734D01*
X80964973Y-70788189D01*
X80698320Y-70776439D01*
X80434499Y-70816937D01*
X80183647Y-70908125D01*
X80077932Y-70964632D01*
X80016045Y-71200440D01*
X73704514Y-71200440D01*
X73761519Y-70615328D01*
X104037832Y-70615328D01*
X104099010Y-71229831D01*
X104278897Y-71820592D01*
X104566882Y-72359373D01*
X104984852Y-72635543D01*
X107008395Y-70612000D01*
X104984852Y-68588457D01*
X104566882Y-68864627D01*
X104276351Y-69409557D01*
X104097713Y-70000696D01*
X104037832Y-70615328D01*
X73761519Y-70615328D01*
X73762168Y-70608672D01*
X73700990Y-69994169D01*
X73521103Y-69403408D01*
X73233118Y-68864627D01*
X72815148Y-68588457D01*
X70791605Y-70612000D01*
X70432395Y-70612000D01*
X68408852Y-68588457D01*
X67990882Y-68864627D01*
X67962000Y-68918799D01*
X67962000Y-67962000D01*
X68918661Y-67962000D01*
X68864627Y-67990882D01*
X68864627Y-67990882D01*
G37*
X68864627Y-67990882D02*
X68588457Y-68408852D01*
X70612000Y-70432395D01*
X72635543Y-68408852D01*
X72359373Y-67990882D01*
X72305201Y-67962000D01*
X105494661Y-67962000D01*
X105440627Y-67990882D01*
X105164457Y-68408852D01*
X107188000Y-70432395D01*
X109211543Y-68408852D01*
X108935373Y-67990882D01*
X108881201Y-67962000D01*
X109838001Y-67962000D01*
X109838001Y-68918663D01*
X109809118Y-68864627D01*
X109391148Y-68588457D01*
X107367605Y-70612000D01*
X109391148Y-72635543D01*
X109809118Y-72359373D01*
X109838001Y-72305199D01*
X109838000Y-159368000D01*
X93895339Y-159368000D01*
X93949373Y-159339118D01*
X94225543Y-158921148D01*
X92202000Y-156897605D01*
X90178457Y-158921148D01*
X90454627Y-159339118D01*
X90508799Y-159368000D01*
X72305339Y-159368000D01*
X72359373Y-159339118D01*
X72635543Y-158921148D01*
X70612000Y-156897605D01*
X68588457Y-158921148D01*
X68864627Y-159339118D01*
X68918799Y-159368000D01*
X67962000Y-159368000D01*
X67962000Y-158411339D01*
X67990882Y-158465373D01*
X68408852Y-158741543D01*
X70432395Y-156718000D01*
X70791605Y-156718000D01*
X72815148Y-158741543D01*
X73233118Y-158465373D01*
X73523649Y-157920443D01*
X73702287Y-157329304D01*
X73761519Y-156721328D01*
X89051832Y-156721328D01*
X89113010Y-157335831D01*
X89292897Y-157926592D01*
X89580882Y-158465373D01*
X89998852Y-158741543D01*
X92022395Y-156718000D01*
X92381605Y-156718000D01*
X94405148Y-158741543D01*
X94823118Y-158465373D01*
X95113649Y-157920443D01*
X95292287Y-157329304D01*
X95352168Y-156714672D01*
X95290990Y-156100169D01*
X95111103Y-155509408D01*
X94823118Y-154970627D01*
X94405148Y-154694457D01*
X92381605Y-156718000D01*
X92022395Y-156718000D01*
X89998852Y-154694457D01*
X89580882Y-154970627D01*
X89290351Y-155515557D01*
X89111713Y-156106696D01*
X89051832Y-156721328D01*
X73761519Y-156721328D01*
X73762168Y-156714672D01*
X73700990Y-156100169D01*
X73521103Y-155509408D01*
X73233118Y-154970627D01*
X72815148Y-154694457D01*
X70791605Y-156718000D01*
X70432395Y-156718000D01*
X68408852Y-154694457D01*
X67990882Y-154970627D01*
X67962000Y-155024799D01*
X67962000Y-154514852D01*
X68588457Y-154514852D01*
X70612000Y-156538395D01*
X72635543Y-154514852D01*
X90178457Y-154514852D01*
X92202000Y-156538395D01*
X94225543Y-154514852D01*
X93949373Y-154096882D01*
X93404443Y-153806351D01*
X92813304Y-153627713D01*
X92198672Y-153567832D01*
X91584169Y-153629010D01*
X90993408Y-153808897D01*
X90454627Y-154096882D01*
X90178457Y-154514852D01*
X72635543Y-154514852D01*
X72359373Y-154096882D01*
X71814443Y-153806351D01*
X71223304Y-153627713D01*
X70608672Y-153567832D01*
X69994169Y-153629010D01*
X69403408Y-153808897D01*
X68864627Y-154096882D01*
X68588457Y-154514852D01*
X67962000Y-154514852D01*
X67962000Y-151740890D01*
X69678524Y-151740890D01*
X69723175Y-151888099D01*
X69848359Y-152150920D01*
X70022412Y-152384269D01*
X70238645Y-152579178D01*
X70488748Y-152728157D01*
X70763109Y-152825481D01*
X70993000Y-152704814D01*
X70993000Y-151511000D01*
X71247000Y-151511000D01*
X71247000Y-152704814D01*
X71476891Y-152825481D01*
X71751252Y-152728157D01*
X72001355Y-152579178D01*
X72217588Y-152384269D01*
X72391641Y-152150920D01*
X72516825Y-151888099D01*
X72561476Y-151740890D01*
X72440155Y-151511000D01*
X71247000Y-151511000D01*
X70993000Y-151511000D01*
X69799845Y-151511000D01*
X69678524Y-151740890D01*
X67962000Y-151740890D01*
X67962000Y-123889488D01*
X69688250Y-125615739D01*
X69664371Y-125694457D01*
X69635854Y-125984000D01*
X69664371Y-126273543D01*
X69748828Y-126551958D01*
X69885978Y-126808547D01*
X70070550Y-127033450D01*
X70295453Y-127218022D01*
X70362763Y-127254000D01*
X70295453Y-127289978D01*
X70070550Y-127474550D01*
X69885978Y-127699453D01*
X69748828Y-127956042D01*
X69664371Y-128234457D01*
X69635854Y-128524000D01*
X69664371Y-128813543D01*
X69748828Y-129091958D01*
X69885978Y-129348547D01*
X70070550Y-129573450D01*
X70295453Y-129758022D01*
X70362763Y-129794000D01*
X70295453Y-129829978D01*
X70070550Y-130014550D01*
X69885978Y-130239453D01*
X69748828Y-130496042D01*
X69664371Y-130774457D01*
X69635854Y-131064000D01*
X69664371Y-131353543D01*
X69748828Y-131631958D01*
X69885978Y-131888547D01*
X70070550Y-132113450D01*
X70295453Y-132298022D01*
X70362763Y-132334000D01*
X70295453Y-132369978D01*
X70070550Y-132554550D01*
X69885978Y-132779453D01*
X69748828Y-133036042D01*
X69664371Y-133314457D01*
X69635854Y-133604000D01*
X69664371Y-133893543D01*
X69748828Y-134171958D01*
X69885978Y-134428547D01*
X70070550Y-134653450D01*
X70295453Y-134838022D01*
X70362763Y-134874000D01*
X70295453Y-134909978D01*
X70070550Y-135094550D01*
X69885978Y-135319453D01*
X69748828Y-135576042D01*
X69664371Y-135854457D01*
X69635854Y-136144000D01*
X69664371Y-136433543D01*
X69748828Y-136711958D01*
X69885978Y-136968547D01*
X70070550Y-137193450D01*
X70295453Y-137378022D01*
X70362763Y-137414000D01*
X70295453Y-137449978D01*
X70070550Y-137634550D01*
X69885978Y-137859453D01*
X69748828Y-138116042D01*
X69664371Y-138394457D01*
X69635854Y-138684000D01*
X69664371Y-138973543D01*
X69748828Y-139251958D01*
X69885978Y-139508547D01*
X70070550Y-139733450D01*
X70295453Y-139918022D01*
X70362763Y-139954000D01*
X70295453Y-139989978D01*
X70070550Y-140174550D01*
X69885978Y-140399453D01*
X69748828Y-140656042D01*
X69664371Y-140934457D01*
X69635854Y-141224000D01*
X69664371Y-141513543D01*
X69748828Y-141791958D01*
X69885978Y-142048547D01*
X70070550Y-142273450D01*
X70295453Y-142458022D01*
X70362763Y-142494000D01*
X70295453Y-142529978D01*
X70070550Y-142714550D01*
X69885978Y-142939453D01*
X69748828Y-143196042D01*
X69664371Y-143474457D01*
X69635854Y-143764000D01*
X69664371Y-144053543D01*
X69748828Y-144331958D01*
X69885978Y-144588547D01*
X70070550Y-144813450D01*
X70295453Y-144998022D01*
X70362763Y-145034000D01*
X70295453Y-145069978D01*
X70070550Y-145254550D01*
X69885978Y-145479453D01*
X69748828Y-145736042D01*
X69664371Y-146014457D01*
X69635854Y-146304000D01*
X69664371Y-146593543D01*
X69748828Y-146871958D01*
X69885978Y-147128547D01*
X70070550Y-147353450D01*
X70295453Y-147538022D01*
X70362763Y-147574000D01*
X70295453Y-147609978D01*
X70070550Y-147794550D01*
X69885978Y-148019453D01*
X69748828Y-148276042D01*
X69664371Y-148554457D01*
X69635854Y-148844000D01*
X69664371Y-149133543D01*
X69748828Y-149411958D01*
X69885978Y-149668547D01*
X70070550Y-149893450D01*
X70295453Y-150078022D01*
X70363549Y-150114420D01*
X70238645Y-150188822D01*
X70022412Y-150383731D01*
X69848359Y-150617080D01*
X69723175Y-150879901D01*
X69678524Y-151027110D01*
X69799845Y-151257000D01*
X70993000Y-151257000D01*
X70993000Y-151237000D01*
X71247000Y-151237000D01*
X71247000Y-151257000D01*
X72440155Y-151257000D01*
X72561476Y-151027110D01*
X72516825Y-150879901D01*
X72391641Y-150617080D01*
X72217588Y-150383731D01*
X72001355Y-150188822D01*
X71876451Y-150114420D01*
X71944547Y-150078022D01*
X72169450Y-149893450D01*
X72354022Y-149668547D01*
X72491172Y-149411958D01*
X72575629Y-149133543D01*
X72604146Y-148844000D01*
X72575629Y-148554457D01*
X72491172Y-148276042D01*
X72354022Y-148019453D01*
X72169450Y-147794550D01*
X71944547Y-147609978D01*
X71877237Y-147574000D01*
X71944547Y-147538022D01*
X72169450Y-147353450D01*
X72354022Y-147128547D01*
X72491172Y-146871958D01*
X72575629Y-146593543D01*
X72604146Y-146304000D01*
X72575629Y-146014457D01*
X72491172Y-145736042D01*
X72354022Y-145479453D01*
X72169450Y-145254550D01*
X71944547Y-145069978D01*
X71877237Y-145034000D01*
X71944547Y-144998022D01*
X72169450Y-144813450D01*
X72354022Y-144588547D01*
X72491172Y-144331958D01*
X72575629Y-144053543D01*
X72604146Y-143764000D01*
X72575629Y-143474457D01*
X72491172Y-143196042D01*
X72354022Y-142939453D01*
X72169450Y-142714550D01*
X71944547Y-142529978D01*
X71877237Y-142494000D01*
X71944547Y-142458022D01*
X72169450Y-142273450D01*
X72354022Y-142048547D01*
X72491172Y-141791958D01*
X72575629Y-141513543D01*
X72604146Y-141224000D01*
X72575629Y-140934457D01*
X72491172Y-140656042D01*
X72354022Y-140399453D01*
X72169450Y-140174550D01*
X71944547Y-139989978D01*
X71877237Y-139954000D01*
X71944547Y-139918022D01*
X72169450Y-139733450D01*
X72354022Y-139508547D01*
X72491172Y-139251958D01*
X72575629Y-138973543D01*
X72604146Y-138684000D01*
X72575629Y-138394457D01*
X72491172Y-138116042D01*
X72354022Y-137859453D01*
X72169450Y-137634550D01*
X71944547Y-137449978D01*
X71877237Y-137414000D01*
X71944547Y-137378022D01*
X72169450Y-137193450D01*
X72354022Y-136968547D01*
X72491172Y-136711958D01*
X72575629Y-136433543D01*
X72604146Y-136144000D01*
X72575629Y-135854457D01*
X72491172Y-135576042D01*
X72354022Y-135319453D01*
X72169450Y-135094550D01*
X71944547Y-134909978D01*
X71877237Y-134874000D01*
X71944547Y-134838022D01*
X72169450Y-134653450D01*
X72354022Y-134428547D01*
X72491172Y-134171958D01*
X72575629Y-133893543D01*
X72604146Y-133604000D01*
X72575629Y-133314457D01*
X72491172Y-133036042D01*
X72354022Y-132779453D01*
X72169450Y-132554550D01*
X71944547Y-132369978D01*
X71877237Y-132334000D01*
X71944547Y-132298022D01*
X72169450Y-132113450D01*
X72354022Y-131888547D01*
X72491172Y-131631958D01*
X72575629Y-131353543D01*
X72604146Y-131064000D01*
X72575629Y-130774457D01*
X72491172Y-130496042D01*
X72354022Y-130239453D01*
X72169450Y-130014550D01*
X71944547Y-129829978D01*
X71877237Y-129794000D01*
X71944547Y-129758022D01*
X72169450Y-129573450D01*
X72354022Y-129348547D01*
X72491172Y-129091958D01*
X72575629Y-128813543D01*
X72604146Y-128524000D01*
X72575629Y-128234457D01*
X72491172Y-127956042D01*
X72354022Y-127699453D01*
X72169450Y-127474550D01*
X71944547Y-127289978D01*
X71877237Y-127254000D01*
X71944547Y-127218022D01*
X72169450Y-127033450D01*
X72354022Y-126808547D01*
X72491172Y-126551958D01*
X72575629Y-126273543D01*
X72604146Y-125984000D01*
X72575629Y-125694457D01*
X72491172Y-125416042D01*
X72354022Y-125159453D01*
X72169450Y-124934550D01*
X71944547Y-124749978D01*
X71877237Y-124714000D01*
X71944547Y-124678022D01*
X72169450Y-124493450D01*
X72231921Y-124417328D01*
X82306000Y-134491408D01*
X82306001Y-141187054D01*
X82302362Y-141224000D01*
X82316882Y-141371417D01*
X82359882Y-141513169D01*
X82429710Y-141643810D01*
X82500137Y-141729625D01*
X82523684Y-141758317D01*
X82552375Y-141781863D01*
X90374133Y-149603621D01*
X90397683Y-149632317D01*
X90512190Y-149726290D01*
X90642830Y-149796118D01*
X90784582Y-149839119D01*
X90895062Y-149850000D01*
X90895064Y-149850000D01*
X90932000Y-149853638D01*
X90968935Y-149850000D01*
X96737065Y-149850000D01*
X96774000Y-149853638D01*
X96810935Y-149850000D01*
X96810938Y-149850000D01*
X96921418Y-149839119D01*
X97063170Y-149796118D01*
X97193810Y-149726290D01*
X97308317Y-149632317D01*
X97331867Y-149603621D01*
X100073622Y-146861866D01*
X100102317Y-146838317D01*
X100196290Y-146723810D01*
X100266118Y-146593170D01*
X100309119Y-146451418D01*
X100320000Y-146340938D01*
X100320000Y-146340936D01*
X100323638Y-146304000D01*
X100320000Y-146267065D01*
X100320000Y-143456105D01*
X100364634Y-143432248D01*
X100581923Y-143253923D01*
X100760248Y-143036634D01*
X100892755Y-142788731D01*
X100974352Y-142519741D01*
X101001904Y-142240000D01*
X100974352Y-141960259D01*
X100892755Y-141691269D01*
X100760248Y-141443366D01*
X100581923Y-141226077D01*
X100364634Y-141047752D01*
X100219170Y-140970000D01*
X100364634Y-140892248D01*
X100581923Y-140713923D01*
X100760248Y-140496634D01*
X100892755Y-140248731D01*
X100974352Y-139979741D01*
X101001904Y-139700000D01*
X100974352Y-139420259D01*
X100892755Y-139151269D01*
X100760248Y-138903366D01*
X100581923Y-138686077D01*
X100364634Y-138507752D01*
X100219170Y-138430000D01*
X100364634Y-138352248D01*
X100581923Y-138173923D01*
X100760248Y-137956634D01*
X100892755Y-137708731D01*
X100974352Y-137439741D01*
X101001904Y-137160000D01*
X100988838Y-137027332D01*
X104571000Y-137027332D01*
X104571000Y-137292668D01*
X104622764Y-137552906D01*
X104724304Y-137798044D01*
X104871716Y-138018663D01*
X105059337Y-138206284D01*
X105279956Y-138353696D01*
X105464169Y-138430000D01*
X105279956Y-138506304D01*
X105059337Y-138653716D01*
X104871716Y-138841337D01*
X104724304Y-139061956D01*
X104622764Y-139307094D01*
X104571000Y-139567332D01*
X104571000Y-139832668D01*
X104622764Y-140092906D01*
X104724304Y-140338044D01*
X104871716Y-140558663D01*
X105059337Y-140746284D01*
X105279956Y-140893696D01*
X105525094Y-140995236D01*
X105785332Y-141047000D01*
X106050668Y-141047000D01*
X106310906Y-140995236D01*
X106556044Y-140893696D01*
X106776663Y-140746284D01*
X106964284Y-140558663D01*
X107111696Y-140338044D01*
X107213236Y-140092906D01*
X107265000Y-139832668D01*
X107265000Y-139567332D01*
X107213236Y-139307094D01*
X107111696Y-139061956D01*
X106964284Y-138841337D01*
X106776663Y-138653716D01*
X106556044Y-138506304D01*
X106371831Y-138430000D01*
X106556044Y-138353696D01*
X106776663Y-138206284D01*
X106964284Y-138018663D01*
X107111696Y-137798044D01*
X107213236Y-137552906D01*
X107265000Y-137292668D01*
X107265000Y-137027332D01*
X107213236Y-136767094D01*
X107111696Y-136521956D01*
X106964284Y-136301337D01*
X106776663Y-136113716D01*
X106556044Y-135966304D01*
X106380543Y-135893609D01*
X106506353Y-135847875D01*
X106612068Y-135791368D01*
X106673955Y-135555560D01*
X105918000Y-134799605D01*
X105162045Y-135555560D01*
X105223932Y-135791368D01*
X105448835Y-135896352D01*
X105279956Y-135966304D01*
X105059337Y-136113716D01*
X104871716Y-136301337D01*
X104724304Y-136521956D01*
X104622764Y-136767094D01*
X104571000Y-137027332D01*
X100988838Y-137027332D01*
X100974352Y-136880259D01*
X100892755Y-136611269D01*
X100760248Y-136363366D01*
X100581923Y-136146077D01*
X100454511Y-136041512D01*
X100490913Y-136037927D01*
X100609103Y-136002075D01*
X100718028Y-135943853D01*
X100813501Y-135865501D01*
X100891853Y-135770028D01*
X100950075Y-135661103D01*
X100985927Y-135542913D01*
X100998033Y-135420000D01*
X100998033Y-134693680D01*
X104558439Y-134693680D01*
X104598937Y-134957501D01*
X104690125Y-135208353D01*
X104746632Y-135314068D01*
X104982440Y-135375955D01*
X105738395Y-134620000D01*
X106097605Y-134620000D01*
X106853560Y-135375955D01*
X107089368Y-135314068D01*
X107202266Y-135072210D01*
X107265811Y-134812973D01*
X107277561Y-134546320D01*
X107237063Y-134282499D01*
X107145875Y-134031647D01*
X107089368Y-133925932D01*
X106853560Y-133864045D01*
X106097605Y-134620000D01*
X105738395Y-134620000D01*
X104982440Y-133864045D01*
X104746632Y-133925932D01*
X104633734Y-134167790D01*
X104570189Y-134427027D01*
X104558439Y-134693680D01*
X100998033Y-134693680D01*
X100998033Y-133820000D01*
X100985927Y-133697087D01*
X100982091Y-133684440D01*
X105162045Y-133684440D01*
X105918000Y-134440395D01*
X106673955Y-133684440D01*
X106612068Y-133448632D01*
X106370210Y-133335734D01*
X106110973Y-133272189D01*
X105844320Y-133260439D01*
X105580499Y-133300937D01*
X105329647Y-133392125D01*
X105223932Y-133448632D01*
X105162045Y-133684440D01*
X100982091Y-133684440D01*
X100950075Y-133578897D01*
X100891853Y-133469972D01*
X100813501Y-133374499D01*
X100797052Y-133361000D01*
X100939151Y-133361000D01*
X101137565Y-133321533D01*
X101324467Y-133244115D01*
X101492674Y-133131723D01*
X101635723Y-132988674D01*
X101748115Y-132820467D01*
X101825533Y-132633565D01*
X101865000Y-132435151D01*
X101865000Y-132232849D01*
X101825533Y-132034435D01*
X101748115Y-131847533D01*
X101635723Y-131679326D01*
X101590000Y-131633603D01*
X101590000Y-122041332D01*
X104571000Y-122041332D01*
X104571000Y-122306668D01*
X104622764Y-122566906D01*
X104724304Y-122812044D01*
X104871716Y-123032663D01*
X105059337Y-123220284D01*
X105279956Y-123367696D01*
X105464169Y-123444000D01*
X105279956Y-123520304D01*
X105059337Y-123667716D01*
X104871716Y-123855337D01*
X104724304Y-124075956D01*
X104622764Y-124321094D01*
X104571000Y-124581332D01*
X104571000Y-124846668D01*
X104622764Y-125106906D01*
X104724304Y-125352044D01*
X104871716Y-125572663D01*
X105059337Y-125760284D01*
X105279956Y-125907696D01*
X105464169Y-125984000D01*
X105279956Y-126060304D01*
X105059337Y-126207716D01*
X104871716Y-126395337D01*
X104724304Y-126615956D01*
X104622764Y-126861094D01*
X104571000Y-127121332D01*
X104571000Y-127386668D01*
X104622764Y-127646906D01*
X104724304Y-127892044D01*
X104871716Y-128112663D01*
X105059337Y-128300284D01*
X105279956Y-128447696D01*
X105525094Y-128549236D01*
X105785332Y-128601000D01*
X106050668Y-128601000D01*
X106310906Y-128549236D01*
X106556044Y-128447696D01*
X106776663Y-128300284D01*
X106964284Y-128112663D01*
X107111696Y-127892044D01*
X107213236Y-127646906D01*
X107265000Y-127386668D01*
X107265000Y-127121332D01*
X107213236Y-126861094D01*
X107111696Y-126615956D01*
X106964284Y-126395337D01*
X106776663Y-126207716D01*
X106556044Y-126060304D01*
X106371831Y-125984000D01*
X106556044Y-125907696D01*
X106776663Y-125760284D01*
X106964284Y-125572663D01*
X107111696Y-125352044D01*
X107213236Y-125106906D01*
X107265000Y-124846668D01*
X107265000Y-124581332D01*
X107213236Y-124321094D01*
X107111696Y-124075956D01*
X106964284Y-123855337D01*
X106776663Y-123667716D01*
X106556044Y-123520304D01*
X106371831Y-123444000D01*
X106556044Y-123367696D01*
X106776663Y-123220284D01*
X106964284Y-123032663D01*
X107111696Y-122812044D01*
X107213236Y-122566906D01*
X107265000Y-122306668D01*
X107265000Y-122041332D01*
X107213236Y-121781094D01*
X107111696Y-121535956D01*
X106964284Y-121315337D01*
X106776663Y-121127716D01*
X106556044Y-120980304D01*
X106310906Y-120878764D01*
X106050668Y-120827000D01*
X105785332Y-120827000D01*
X105525094Y-120878764D01*
X105279956Y-120980304D01*
X105059337Y-121127716D01*
X104871716Y-121315337D01*
X104724304Y-121535956D01*
X104622764Y-121781094D01*
X104571000Y-122041332D01*
X101590000Y-122041332D01*
X101590000Y-111627332D01*
X104571000Y-111627332D01*
X104571000Y-111892668D01*
X104622764Y-112152906D01*
X104724304Y-112398044D01*
X104871716Y-112618663D01*
X105059337Y-112806284D01*
X105279956Y-112953696D01*
X105464169Y-113030000D01*
X105279956Y-113106304D01*
X105059337Y-113253716D01*
X104871716Y-113441337D01*
X104724304Y-113661956D01*
X104622764Y-113907094D01*
X104571000Y-114167332D01*
X104571000Y-114432668D01*
X104622764Y-114692906D01*
X104724304Y-114938044D01*
X104871716Y-115158663D01*
X105059337Y-115346284D01*
X105279956Y-115493696D01*
X105464169Y-115570000D01*
X105279956Y-115646304D01*
X105059337Y-115793716D01*
X104871716Y-115981337D01*
X104724304Y-116201956D01*
X104622764Y-116447094D01*
X104571000Y-116707332D01*
X104571000Y-116972668D01*
X104622764Y-117232906D01*
X104724304Y-117478044D01*
X104871716Y-117698663D01*
X105059337Y-117886284D01*
X105279956Y-118033696D01*
X105525094Y-118135236D01*
X105785332Y-118187000D01*
X106050668Y-118187000D01*
X106310906Y-118135236D01*
X106556044Y-118033696D01*
X106776663Y-117886284D01*
X106964284Y-117698663D01*
X107111696Y-117478044D01*
X107213236Y-117232906D01*
X107265000Y-116972668D01*
X107265000Y-116707332D01*
X107213236Y-116447094D01*
X107111696Y-116201956D01*
X106964284Y-115981337D01*
X106776663Y-115793716D01*
X106556044Y-115646304D01*
X106371831Y-115570000D01*
X106556044Y-115493696D01*
X106776663Y-115346284D01*
X106964284Y-115158663D01*
X107111696Y-114938044D01*
X107213236Y-114692906D01*
X107265000Y-114432668D01*
X107265000Y-114167332D01*
X107213236Y-113907094D01*
X107111696Y-113661956D01*
X106964284Y-113441337D01*
X106776663Y-113253716D01*
X106556044Y-113106304D01*
X106371831Y-113030000D01*
X106556044Y-112953696D01*
X106776663Y-112806284D01*
X106964284Y-112618663D01*
X107111696Y-112398044D01*
X107213236Y-112152906D01*
X107265000Y-111892668D01*
X107265000Y-111627332D01*
X107213236Y-111367094D01*
X107111696Y-111121956D01*
X106964284Y-110901337D01*
X106776663Y-110713716D01*
X106556044Y-110566304D01*
X106310906Y-110464764D01*
X106050668Y-110413000D01*
X105785332Y-110413000D01*
X105525094Y-110464764D01*
X105279956Y-110566304D01*
X105059337Y-110713716D01*
X104871716Y-110901337D01*
X104724304Y-111121956D01*
X104622764Y-111367094D01*
X104571000Y-111627332D01*
X101590000Y-111627332D01*
X101590000Y-100451332D01*
X104571000Y-100451332D01*
X104571000Y-100716668D01*
X104622764Y-100976906D01*
X104724304Y-101222044D01*
X104871716Y-101442663D01*
X105059337Y-101630284D01*
X105279956Y-101777696D01*
X105464169Y-101854000D01*
X105279956Y-101930304D01*
X105059337Y-102077716D01*
X104871716Y-102265337D01*
X104724304Y-102485956D01*
X104622764Y-102731094D01*
X104571000Y-102991332D01*
X104571000Y-103256668D01*
X104622764Y-103516906D01*
X104724304Y-103762044D01*
X104871716Y-103982663D01*
X105059337Y-104170284D01*
X105279956Y-104317696D01*
X105525094Y-104419236D01*
X105785332Y-104471000D01*
X106050668Y-104471000D01*
X106310906Y-104419236D01*
X106556044Y-104317696D01*
X106776663Y-104170284D01*
X106964284Y-103982663D01*
X107111696Y-103762044D01*
X107213236Y-103516906D01*
X107265000Y-103256668D01*
X107265000Y-102991332D01*
X107213236Y-102731094D01*
X107111696Y-102485956D01*
X106964284Y-102265337D01*
X106776663Y-102077716D01*
X106556044Y-101930304D01*
X106371831Y-101854000D01*
X106556044Y-101777696D01*
X106776663Y-101630284D01*
X106964284Y-101442663D01*
X107111696Y-101222044D01*
X107213236Y-100976906D01*
X107265000Y-100716668D01*
X107265000Y-100451332D01*
X107213236Y-100191094D01*
X107111696Y-99945956D01*
X106964284Y-99725337D01*
X106776663Y-99537716D01*
X106556044Y-99390304D01*
X106380543Y-99317609D01*
X106506353Y-99271875D01*
X106612068Y-99215368D01*
X106673955Y-98979560D01*
X105918000Y-98223605D01*
X105162045Y-98979560D01*
X105223932Y-99215368D01*
X105448835Y-99320352D01*
X105279956Y-99390304D01*
X105059337Y-99537716D01*
X104871716Y-99725337D01*
X104724304Y-99945956D01*
X104622764Y-100191094D01*
X104571000Y-100451332D01*
X101590000Y-100451332D01*
X101590000Y-98808935D01*
X101593638Y-98772000D01*
X101586489Y-98699417D01*
X101579119Y-98624582D01*
X101536118Y-98482830D01*
X101466290Y-98352190D01*
X101372317Y-98237683D01*
X101343621Y-98214133D01*
X101247168Y-98117680D01*
X104558439Y-98117680D01*
X104598937Y-98381501D01*
X104690125Y-98632353D01*
X104746632Y-98738068D01*
X104982440Y-98799955D01*
X105738395Y-98044000D01*
X106097605Y-98044000D01*
X106853560Y-98799955D01*
X107089368Y-98738068D01*
X107202266Y-98496210D01*
X107265811Y-98236973D01*
X107277561Y-97970320D01*
X107237063Y-97706499D01*
X107145875Y-97455647D01*
X107089368Y-97349932D01*
X106853560Y-97288045D01*
X106097605Y-98044000D01*
X105738395Y-98044000D01*
X104982440Y-97288045D01*
X104746632Y-97349932D01*
X104633734Y-97591790D01*
X104570189Y-97851027D01*
X104558439Y-98117680D01*
X101247168Y-98117680D01*
X101175867Y-98046379D01*
X101152317Y-98017683D01*
X101037810Y-97923710D01*
X100998033Y-97902449D01*
X100998033Y-97752000D01*
X100985927Y-97629087D01*
X100950075Y-97510897D01*
X100891853Y-97401972D01*
X100813501Y-97306499D01*
X100718028Y-97228147D01*
X100609103Y-97169925D01*
X100490913Y-97134073D01*
X100368000Y-97121967D01*
X99194999Y-97121967D01*
X99194999Y-97108440D01*
X105162045Y-97108440D01*
X105918000Y-97864395D01*
X106673955Y-97108440D01*
X106612068Y-96872632D01*
X106370210Y-96759734D01*
X106110973Y-96696189D01*
X105844320Y-96684439D01*
X105580499Y-96724937D01*
X105329647Y-96816125D01*
X105223932Y-96872632D01*
X105162045Y-97108440D01*
X99194999Y-97108440D01*
X99194999Y-95104062D01*
X99288259Y-95132352D01*
X99497902Y-95153000D01*
X99638098Y-95153000D01*
X99847741Y-95132352D01*
X100116731Y-95050755D01*
X100237879Y-94986000D01*
X104709603Y-94986000D01*
X104755326Y-95031723D01*
X104923533Y-95144115D01*
X105110435Y-95221533D01*
X105308849Y-95261000D01*
X105511151Y-95261000D01*
X105709565Y-95221533D01*
X105896467Y-95144115D01*
X106064674Y-95031723D01*
X106207723Y-94888674D01*
X106320115Y-94720467D01*
X106397533Y-94533565D01*
X106437000Y-94335151D01*
X106437000Y-94132849D01*
X106397533Y-93934435D01*
X106320115Y-93747533D01*
X106207723Y-93579326D01*
X106064674Y-93436277D01*
X105896467Y-93323885D01*
X105709565Y-93246467D01*
X105511151Y-93207000D01*
X105308849Y-93207000D01*
X105110435Y-93246467D01*
X104923533Y-93323885D01*
X104755326Y-93436277D01*
X104709603Y-93482000D01*
X100977872Y-93482000D01*
X100974352Y-93446259D01*
X100892755Y-93177269D01*
X100760248Y-92929366D01*
X100581923Y-92712077D01*
X100364634Y-92533752D01*
X100219170Y-92456000D01*
X100364634Y-92378248D01*
X100581923Y-92199923D01*
X100760248Y-91982634D01*
X100892755Y-91734731D01*
X100974352Y-91465741D01*
X101001904Y-91186000D01*
X100974352Y-90906259D01*
X100892755Y-90637269D01*
X100760248Y-90389366D01*
X100581923Y-90172077D01*
X100364634Y-89993752D01*
X100219170Y-89916000D01*
X100364634Y-89838248D01*
X100581923Y-89659923D01*
X100760248Y-89442634D01*
X100892755Y-89194731D01*
X100974352Y-88925741D01*
X101001904Y-88646000D01*
X100974352Y-88366259D01*
X100892755Y-88097269D01*
X100760248Y-87849366D01*
X100581923Y-87632077D01*
X100364634Y-87453752D01*
X100219170Y-87376000D01*
X100364634Y-87298248D01*
X100581923Y-87119923D01*
X100760248Y-86902634D01*
X100892755Y-86654731D01*
X100953720Y-86453755D01*
X104545000Y-86453755D01*
X104545000Y-86774245D01*
X104607525Y-87088578D01*
X104730172Y-87384673D01*
X104908227Y-87651152D01*
X105134848Y-87877773D01*
X105401327Y-88055828D01*
X105697422Y-88178475D01*
X106011755Y-88241000D01*
X106332245Y-88241000D01*
X106646578Y-88178475D01*
X106942673Y-88055828D01*
X107198000Y-87885224D01*
X107198000Y-88080512D01*
X106665252Y-88613260D01*
X106646578Y-88605525D01*
X106332245Y-88543000D01*
X106011755Y-88543000D01*
X105697422Y-88605525D01*
X105401327Y-88728172D01*
X105134848Y-88906227D01*
X104908227Y-89132848D01*
X104730172Y-89399327D01*
X104607525Y-89695422D01*
X104545000Y-90009755D01*
X104545000Y-90330245D01*
X104607525Y-90644578D01*
X104730172Y-90940673D01*
X104908227Y-91207152D01*
X105134848Y-91433773D01*
X105401327Y-91611828D01*
X105697422Y-91734475D01*
X106011755Y-91797000D01*
X106332245Y-91797000D01*
X106646578Y-91734475D01*
X106942673Y-91611828D01*
X107209152Y-91433773D01*
X107435773Y-91207152D01*
X107613828Y-90940673D01*
X107736475Y-90644578D01*
X107799000Y-90330245D01*
X107799000Y-90009755D01*
X107736475Y-89695422D01*
X107728740Y-89676748D01*
X108455622Y-88949866D01*
X108484317Y-88926317D01*
X108578290Y-88811810D01*
X108648118Y-88681170D01*
X108691119Y-88539418D01*
X108702000Y-88428938D01*
X108702000Y-88428936D01*
X108705638Y-88392000D01*
X108702000Y-88355065D01*
X108702000Y-78932397D01*
X108747723Y-78886674D01*
X108860115Y-78718467D01*
X108937533Y-78531565D01*
X108977000Y-78333151D01*
X108977000Y-78130849D01*
X108937533Y-77932435D01*
X108860115Y-77745533D01*
X108747723Y-77577326D01*
X108604674Y-77434277D01*
X108436467Y-77321885D01*
X108249565Y-77244467D01*
X108051151Y-77205000D01*
X107848849Y-77205000D01*
X107650435Y-77244467D01*
X107474726Y-77317248D01*
X107519000Y-77094668D01*
X107519000Y-76829332D01*
X107467236Y-76569094D01*
X107365696Y-76323956D01*
X107218284Y-76103337D01*
X107030663Y-75915716D01*
X106810044Y-75768304D01*
X106564906Y-75666764D01*
X106304668Y-75615000D01*
X106039332Y-75615000D01*
X105779094Y-75666764D01*
X105533956Y-75768304D01*
X105313337Y-75915716D01*
X105125716Y-76103337D01*
X104978304Y-76323956D01*
X104876764Y-76569094D01*
X104825000Y-76829332D01*
X104825000Y-77094668D01*
X104876764Y-77354906D01*
X104978304Y-77600044D01*
X105125716Y-77820663D01*
X105313337Y-78008284D01*
X105533956Y-78155696D01*
X105718169Y-78232000D01*
X105533956Y-78308304D01*
X105313337Y-78455716D01*
X105125716Y-78643337D01*
X104978304Y-78863956D01*
X104876764Y-79109094D01*
X104825000Y-79369332D01*
X104825000Y-79634668D01*
X104876764Y-79894906D01*
X104978304Y-80140044D01*
X105125716Y-80360663D01*
X105313337Y-80548284D01*
X105533956Y-80695696D01*
X105718169Y-80772000D01*
X105533956Y-80848304D01*
X105313337Y-80995716D01*
X105125716Y-81183337D01*
X104978304Y-81403956D01*
X104876764Y-81649094D01*
X104825000Y-81909332D01*
X104825000Y-82174668D01*
X104876764Y-82434906D01*
X104978304Y-82680044D01*
X105125716Y-82900663D01*
X105313337Y-83088284D01*
X105420000Y-83159554D01*
X105420001Y-85164437D01*
X105401327Y-85172172D01*
X105134848Y-85350227D01*
X104908227Y-85576848D01*
X104730172Y-85843327D01*
X104607525Y-86139422D01*
X104545000Y-86453755D01*
X100953720Y-86453755D01*
X100974352Y-86385741D01*
X101001904Y-86106000D01*
X100974352Y-85826259D01*
X100892755Y-85557269D01*
X100760248Y-85309366D01*
X100581923Y-85092077D01*
X100364634Y-84913752D01*
X100219170Y-84836000D01*
X100364634Y-84758248D01*
X100581923Y-84579923D01*
X100760248Y-84362634D01*
X100892755Y-84114731D01*
X100974352Y-83845741D01*
X101001904Y-83566000D01*
X100974352Y-83286259D01*
X100892755Y-83017269D01*
X100760248Y-82769366D01*
X100581923Y-82552077D01*
X100364634Y-82373752D01*
X100219170Y-82296000D01*
X100364634Y-82218248D01*
X100581923Y-82039923D01*
X100760248Y-81822634D01*
X100892755Y-81574731D01*
X100974352Y-81305741D01*
X101001904Y-81026000D01*
X100974352Y-80746259D01*
X100892755Y-80477269D01*
X100760248Y-80229366D01*
X100581923Y-80012077D01*
X100364634Y-79833752D01*
X100219170Y-79756000D01*
X100364634Y-79678248D01*
X100581923Y-79499923D01*
X100760248Y-79282634D01*
X100892755Y-79034731D01*
X100974352Y-78765741D01*
X101001904Y-78486000D01*
X100974352Y-78206259D01*
X100892755Y-77937269D01*
X100760248Y-77689366D01*
X100581923Y-77472077D01*
X100454511Y-77367512D01*
X100490913Y-77363927D01*
X100609103Y-77328075D01*
X100718028Y-77269853D01*
X100813501Y-77191501D01*
X100891853Y-77096028D01*
X100950075Y-76987103D01*
X100985927Y-76868913D01*
X100998033Y-76746000D01*
X100998033Y-75146000D01*
X100985927Y-75023087D01*
X100950075Y-74904897D01*
X100891853Y-74795972D01*
X100813501Y-74700499D01*
X100718028Y-74622147D01*
X100609103Y-74563925D01*
X100490913Y-74528073D01*
X100368000Y-74515967D01*
X98768000Y-74515967D01*
X98645087Y-74528073D01*
X98526897Y-74563925D01*
X98417972Y-74622147D01*
X98322499Y-74700499D01*
X98244147Y-74795972D01*
X98185925Y-74904897D01*
X98150073Y-75023087D01*
X98137967Y-75146000D01*
X98137967Y-76502516D01*
X98089565Y-76482467D01*
X97891151Y-76443000D01*
X97826489Y-76443000D01*
X95045867Y-73662379D01*
X95022317Y-73633683D01*
X94907810Y-73539710D01*
X94777170Y-73469882D01*
X94635418Y-73426881D01*
X94524938Y-73416000D01*
X94524935Y-73416000D01*
X94488000Y-73412362D01*
X94451065Y-73416000D01*
X86281689Y-73416000D01*
X86490044Y-73329696D01*
X86710663Y-73182284D01*
X86898284Y-72994663D01*
X87018231Y-72815148D01*
X105164457Y-72815148D01*
X105440627Y-73233118D01*
X105985557Y-73523649D01*
X106576696Y-73702287D01*
X107191328Y-73762168D01*
X107805831Y-73700990D01*
X108396592Y-73521103D01*
X108935373Y-73233118D01*
X109211543Y-72815148D01*
X107188000Y-70791605D01*
X105164457Y-72815148D01*
X87018231Y-72815148D01*
X87045696Y-72774044D01*
X87147236Y-72528906D01*
X87199000Y-72268668D01*
X87199000Y-72003332D01*
X87147236Y-71743094D01*
X87045696Y-71497956D01*
X86898284Y-71277337D01*
X86710663Y-71089716D01*
X86490044Y-70942304D01*
X86244906Y-70840764D01*
X85984668Y-70789000D01*
X85719332Y-70789000D01*
X85459094Y-70840764D01*
X85213956Y-70942304D01*
X84993337Y-71089716D01*
X84805716Y-71277337D01*
X84658304Y-71497956D01*
X84585609Y-71673457D01*
X84539875Y-71547647D01*
X84483368Y-71441932D01*
X84247560Y-71380045D01*
X83491605Y-72136000D01*
X84247560Y-72891955D01*
X84483368Y-72830068D01*
X84588352Y-72605165D01*
X84658304Y-72774044D01*
X84805716Y-72994663D01*
X84993337Y-73182284D01*
X85213956Y-73329696D01*
X85459094Y-73431236D01*
X85719332Y-73483000D01*
X85792288Y-73483000D01*
X85686190Y-73539710D01*
X85571683Y-73633683D01*
X85548137Y-73662374D01*
X80520375Y-78690137D01*
X80491684Y-78713683D01*
X80468138Y-78742374D01*
X80468137Y-78742375D01*
X80397710Y-78828190D01*
X80327882Y-78958831D01*
X80284882Y-79100583D01*
X80270362Y-79248000D01*
X80274001Y-79284946D01*
X80274000Y-95311603D01*
X80228277Y-95357326D01*
X80115885Y-95525533D01*
X80038467Y-95712435D01*
X79999000Y-95910849D01*
X79999000Y-96113151D01*
X80038467Y-96311565D01*
X80115885Y-96498467D01*
X80228277Y-96666674D01*
X80371326Y-96809723D01*
X80539533Y-96922115D01*
X80726435Y-96999533D01*
X80924849Y-97039000D01*
X81127151Y-97039000D01*
X81325565Y-96999533D01*
X81512467Y-96922115D01*
X81680674Y-96809723D01*
X81823723Y-96666674D01*
X81936115Y-96498467D01*
X82013533Y-96311565D01*
X82053000Y-96113151D01*
X82053000Y-95910849D01*
X82013533Y-95712435D01*
X81936115Y-95525533D01*
X81823723Y-95357326D01*
X81778000Y-95311603D01*
X81778000Y-83134565D01*
X86336040Y-83134565D01*
X86403020Y-83374656D01*
X86652048Y-83491756D01*
X86919135Y-83558023D01*
X87194017Y-83570910D01*
X87466133Y-83529922D01*
X87725023Y-83436636D01*
X87840980Y-83374656D01*
X87907960Y-83134565D01*
X87122000Y-82348605D01*
X86336040Y-83134565D01*
X81778000Y-83134565D01*
X81778000Y-82241017D01*
X85720090Y-82241017D01*
X85761078Y-82513133D01*
X85854364Y-82772023D01*
X85916344Y-82887980D01*
X86156435Y-82954960D01*
X86942395Y-82169000D01*
X87301605Y-82169000D01*
X88087565Y-82954960D01*
X88327656Y-82887980D01*
X88444756Y-82638952D01*
X88511023Y-82371865D01*
X88523910Y-82096983D01*
X88482922Y-81824867D01*
X88389636Y-81565977D01*
X88327656Y-81450020D01*
X88087565Y-81383040D01*
X87301605Y-82169000D01*
X86942395Y-82169000D01*
X86156435Y-81383040D01*
X85916344Y-81450020D01*
X85799244Y-81699048D01*
X85732977Y-81966135D01*
X85720090Y-82241017D01*
X81778000Y-82241017D01*
X81778000Y-81203435D01*
X86336040Y-81203435D01*
X87122000Y-81989395D01*
X87907960Y-81203435D01*
X87840980Y-80963344D01*
X87591952Y-80846244D01*
X87324865Y-80779977D01*
X87049983Y-80767090D01*
X86777867Y-80808078D01*
X86518977Y-80901364D01*
X86403020Y-80963344D01*
X86336040Y-81203435D01*
X81778000Y-81203435D01*
X81778000Y-79559488D01*
X82729422Y-78608066D01*
X82729843Y-78609252D01*
X82878822Y-78859355D01*
X83073731Y-79075588D01*
X83307080Y-79249641D01*
X83569901Y-79374825D01*
X83717110Y-79419476D01*
X83947000Y-79298155D01*
X83947000Y-78105000D01*
X83927000Y-78105000D01*
X83927000Y-77851000D01*
X83947000Y-77851000D01*
X83947000Y-77831000D01*
X84201000Y-77831000D01*
X84201000Y-77851000D01*
X84221000Y-77851000D01*
X84221000Y-78105000D01*
X84201000Y-78105000D01*
X84201000Y-79298155D01*
X84430890Y-79419476D01*
X84578099Y-79374825D01*
X84840920Y-79249641D01*
X85074269Y-79075588D01*
X85156290Y-78984594D01*
X85181925Y-79069103D01*
X85240147Y-79178028D01*
X85318499Y-79273501D01*
X85413972Y-79351853D01*
X85522897Y-79410075D01*
X85641087Y-79445927D01*
X85764000Y-79458033D01*
X87464000Y-79458033D01*
X87586913Y-79445927D01*
X87705103Y-79410075D01*
X87814028Y-79351853D01*
X87909501Y-79273501D01*
X87987853Y-79178028D01*
X88046075Y-79069103D01*
X88081927Y-78950913D01*
X88094033Y-78828000D01*
X88094033Y-77128000D01*
X88081927Y-77005087D01*
X88046075Y-76886897D01*
X87987853Y-76777972D01*
X87909501Y-76682499D01*
X87814028Y-76604147D01*
X87705103Y-76545925D01*
X87586913Y-76510073D01*
X87464000Y-76497967D01*
X85764000Y-76497967D01*
X85641087Y-76510073D01*
X85522897Y-76545925D01*
X85413972Y-76604147D01*
X85318499Y-76682499D01*
X85240147Y-76777972D01*
X85181925Y-76886897D01*
X85156290Y-76971406D01*
X85074269Y-76880412D01*
X84840920Y-76706359D01*
X84698815Y-76638673D01*
X86417489Y-74920000D01*
X90948793Y-74920000D01*
X90934077Y-74932077D01*
X90755752Y-75149366D01*
X90623245Y-75397269D01*
X90541648Y-75666259D01*
X90514096Y-75946000D01*
X90541648Y-76225741D01*
X90623245Y-76494731D01*
X90755752Y-76742634D01*
X90934077Y-76959923D01*
X91151366Y-77138248D01*
X91296830Y-77216000D01*
X91151366Y-77293752D01*
X90934077Y-77472077D01*
X90755752Y-77689366D01*
X90623245Y-77937269D01*
X90541648Y-78206259D01*
X90514096Y-78486000D01*
X90541648Y-78765741D01*
X90623245Y-79034731D01*
X90755752Y-79282634D01*
X90934077Y-79499923D01*
X91151366Y-79678248D01*
X91296830Y-79756000D01*
X91151366Y-79833752D01*
X90934077Y-80012077D01*
X90755752Y-80229366D01*
X90623245Y-80477269D01*
X90541648Y-80746259D01*
X90514096Y-81026000D01*
X90541648Y-81305741D01*
X90623245Y-81574731D01*
X90755752Y-81822634D01*
X90934077Y-82039923D01*
X91151366Y-82218248D01*
X91296830Y-82296000D01*
X91151366Y-82373752D01*
X90934077Y-82552077D01*
X90755752Y-82769366D01*
X90623245Y-83017269D01*
X90541648Y-83286259D01*
X90514096Y-83566000D01*
X90541648Y-83845741D01*
X90623245Y-84114731D01*
X90755752Y-84362634D01*
X90934077Y-84579923D01*
X91151366Y-84758248D01*
X91292680Y-84833782D01*
X91092869Y-84953615D01*
X90884481Y-85142586D01*
X90716963Y-85368580D01*
X90596754Y-85622913D01*
X90556096Y-85756961D01*
X90678085Y-85979000D01*
X91821000Y-85979000D01*
X91821000Y-85959000D01*
X92075000Y-85959000D01*
X92075000Y-85979000D01*
X92095000Y-85979000D01*
X92095000Y-86233000D01*
X92075000Y-86233000D01*
X92075000Y-86253000D01*
X91821000Y-86253000D01*
X91821000Y-86233000D01*
X90678085Y-86233000D01*
X90556096Y-86455039D01*
X90596754Y-86589087D01*
X90716963Y-86843420D01*
X90884481Y-87069414D01*
X91092869Y-87258385D01*
X91292680Y-87378218D01*
X91151366Y-87453752D01*
X90934077Y-87632077D01*
X90755752Y-87849366D01*
X90623245Y-88097269D01*
X90541648Y-88366259D01*
X90514096Y-88646000D01*
X90541648Y-88925741D01*
X90623245Y-89194731D01*
X90755752Y-89442634D01*
X90934077Y-89659923D01*
X91151366Y-89838248D01*
X91296830Y-89916000D01*
X91151366Y-89993752D01*
X90934077Y-90172077D01*
X90755752Y-90389366D01*
X90623245Y-90637269D01*
X90541648Y-90906259D01*
X90514096Y-91186000D01*
X90541648Y-91465741D01*
X90623245Y-91734731D01*
X90755752Y-91982634D01*
X90934077Y-92199923D01*
X91151366Y-92378248D01*
X91296830Y-92456000D01*
X91151366Y-92533752D01*
X90934077Y-92712077D01*
X90755752Y-92929366D01*
X90623245Y-93177269D01*
X90541648Y-93446259D01*
X90514096Y-93726000D01*
X90541648Y-94005741D01*
X90623245Y-94274731D01*
X90755752Y-94522634D01*
X90934077Y-94739923D01*
X91151366Y-94918248D01*
X91399269Y-95050755D01*
X91668259Y-95132352D01*
X91877902Y-95153000D01*
X92018098Y-95153000D01*
X92227741Y-95132352D01*
X92321001Y-95104062D01*
X92321001Y-97115511D01*
X92276173Y-97160339D01*
X92227741Y-97145648D01*
X92018098Y-97125000D01*
X91877902Y-97125000D01*
X91668259Y-97145648D01*
X91399269Y-97227245D01*
X91151366Y-97359752D01*
X90934077Y-97538077D01*
X90755752Y-97755366D01*
X90623245Y-98003269D01*
X90541648Y-98272259D01*
X90514096Y-98552000D01*
X90541648Y-98831741D01*
X90623245Y-99100731D01*
X90755752Y-99348634D01*
X90934077Y-99565923D01*
X91151366Y-99744248D01*
X91296830Y-99822000D01*
X91151366Y-99899752D01*
X90934077Y-100078077D01*
X90755752Y-100295366D01*
X90623245Y-100543269D01*
X90541648Y-100812259D01*
X90514096Y-101092000D01*
X90541648Y-101371741D01*
X90623245Y-101640731D01*
X90755752Y-101888634D01*
X90934077Y-102105923D01*
X91151366Y-102284248D01*
X91296830Y-102362000D01*
X91151366Y-102439752D01*
X90934077Y-102618077D01*
X90755752Y-102835366D01*
X90623245Y-103083269D01*
X90541648Y-103352259D01*
X90514096Y-103632000D01*
X90541648Y-103911741D01*
X90623245Y-104180731D01*
X90755752Y-104428634D01*
X90934077Y-104645923D01*
X91151366Y-104824248D01*
X91296830Y-104902000D01*
X91151366Y-104979752D01*
X90934077Y-105158077D01*
X90755752Y-105375366D01*
X90623245Y-105623269D01*
X90541648Y-105892259D01*
X90514096Y-106172000D01*
X90541648Y-106451741D01*
X90623245Y-106720731D01*
X90755752Y-106968634D01*
X90934077Y-107185923D01*
X91151366Y-107364248D01*
X91399269Y-107496755D01*
X91668259Y-107578352D01*
X91877902Y-107599000D01*
X92018098Y-107599000D01*
X92227741Y-107578352D01*
X92321002Y-107550062D01*
X92321001Y-109873938D01*
X92227741Y-109845648D01*
X92018098Y-109825000D01*
X91877902Y-109825000D01*
X91668259Y-109845648D01*
X91399269Y-109927245D01*
X91151366Y-110059752D01*
X90934077Y-110238077D01*
X90755752Y-110455366D01*
X90623245Y-110703269D01*
X90541648Y-110972259D01*
X90514096Y-111252000D01*
X90541648Y-111531741D01*
X90623245Y-111800731D01*
X90755752Y-112048634D01*
X90934077Y-112265923D01*
X91151366Y-112444248D01*
X91296830Y-112522000D01*
X91151366Y-112599752D01*
X90934077Y-112778077D01*
X90755752Y-112995366D01*
X90623245Y-113243269D01*
X90541648Y-113512259D01*
X90514096Y-113792000D01*
X90541648Y-114071741D01*
X90623245Y-114340731D01*
X90755752Y-114588634D01*
X90934077Y-114805923D01*
X91151366Y-114984248D01*
X91292680Y-115059782D01*
X91092869Y-115179615D01*
X90884481Y-115368586D01*
X90716963Y-115594580D01*
X90596754Y-115848913D01*
X90556096Y-115982961D01*
X90678085Y-116205000D01*
X91821000Y-116205000D01*
X91821000Y-116185000D01*
X92075000Y-116185000D01*
X92075000Y-116205000D01*
X92095000Y-116205000D01*
X92095000Y-116459000D01*
X92075000Y-116459000D01*
X92075000Y-118745000D01*
X92095000Y-118745000D01*
X92095000Y-118999000D01*
X92075000Y-118999000D01*
X92075000Y-119019000D01*
X91821000Y-119019000D01*
X91821000Y-118999000D01*
X90678085Y-118999000D01*
X90556096Y-119221039D01*
X90596754Y-119355087D01*
X90716963Y-119609420D01*
X90884481Y-119835414D01*
X91092869Y-120024385D01*
X91292680Y-120144218D01*
X91151366Y-120219752D01*
X90934077Y-120398077D01*
X90755752Y-120615366D01*
X90623245Y-120863269D01*
X90541648Y-121132259D01*
X90514096Y-121412000D01*
X90541648Y-121691741D01*
X90623245Y-121960731D01*
X90755752Y-122208634D01*
X90934077Y-122425923D01*
X91151366Y-122604248D01*
X91296830Y-122682000D01*
X91151366Y-122759752D01*
X90934077Y-122938077D01*
X90755752Y-123155366D01*
X90623245Y-123403269D01*
X90541648Y-123672259D01*
X90538128Y-123708000D01*
X80111554Y-123708000D01*
X80040284Y-123601337D01*
X79852663Y-123413716D01*
X79632044Y-123266304D01*
X79447831Y-123190000D01*
X79632044Y-123113696D01*
X79852663Y-122966284D01*
X80040284Y-122778663D01*
X80187696Y-122558044D01*
X80289236Y-122312906D01*
X80341000Y-122052668D01*
X80341000Y-121787332D01*
X80289236Y-121527094D01*
X80187696Y-121281956D01*
X80040284Y-121061337D01*
X79852663Y-120873716D01*
X79632044Y-120726304D01*
X79447831Y-120650000D01*
X79632044Y-120573696D01*
X79852663Y-120426284D01*
X80040284Y-120238663D01*
X80187696Y-120018044D01*
X80289236Y-119772906D01*
X80341000Y-119512668D01*
X80341000Y-119247332D01*
X80289236Y-118987094D01*
X80187696Y-118741956D01*
X80040284Y-118521337D01*
X79852663Y-118333716D01*
X79632044Y-118186304D01*
X79386906Y-118084764D01*
X79126668Y-118033000D01*
X78861332Y-118033000D01*
X78601094Y-118084764D01*
X78355956Y-118186304D01*
X78135337Y-118333716D01*
X77947716Y-118521337D01*
X77800304Y-118741956D01*
X77698764Y-118987094D01*
X77647000Y-119247332D01*
X77647000Y-119512668D01*
X77698764Y-119772906D01*
X77800304Y-120018044D01*
X77947716Y-120238663D01*
X78135337Y-120426284D01*
X78355956Y-120573696D01*
X78540169Y-120650000D01*
X78355956Y-120726304D01*
X78135337Y-120873716D01*
X77947716Y-121061337D01*
X77800304Y-121281956D01*
X77698764Y-121527094D01*
X77647000Y-121787332D01*
X77647000Y-122052668D01*
X77698764Y-122312906D01*
X77800304Y-122558044D01*
X77947716Y-122778663D01*
X78135337Y-122966284D01*
X78355956Y-123113696D01*
X78540169Y-123190000D01*
X78355956Y-123266304D01*
X78135337Y-123413716D01*
X77947716Y-123601337D01*
X77800304Y-123821956D01*
X77698764Y-124067094D01*
X77647000Y-124327332D01*
X77647000Y-124592668D01*
X77698764Y-124852906D01*
X77800304Y-125098044D01*
X77947716Y-125318663D01*
X78135337Y-125506284D01*
X78355956Y-125653696D01*
X78601094Y-125755236D01*
X78861332Y-125807000D01*
X79126668Y-125807000D01*
X79386906Y-125755236D01*
X79632044Y-125653696D01*
X79852663Y-125506284D01*
X80040284Y-125318663D01*
X80111554Y-125212000D01*
X91278121Y-125212000D01*
X91296830Y-125222000D01*
X91151366Y-125299752D01*
X90934077Y-125478077D01*
X90755752Y-125695366D01*
X90623245Y-125943269D01*
X90541648Y-126212259D01*
X90514096Y-126492000D01*
X90541648Y-126771741D01*
X90623245Y-127040731D01*
X90755752Y-127288634D01*
X90934077Y-127505923D01*
X91151366Y-127684248D01*
X91296830Y-127762000D01*
X91151366Y-127839752D01*
X90934077Y-128018077D01*
X90755752Y-128235366D01*
X90623245Y-128483269D01*
X90541648Y-128752259D01*
X90514096Y-129032000D01*
X90541648Y-129311741D01*
X90623245Y-129580731D01*
X90755752Y-129828634D01*
X90934077Y-130045923D01*
X91151366Y-130224248D01*
X91399269Y-130356755D01*
X91668259Y-130438352D01*
X91877902Y-130459000D01*
X92018098Y-130459000D01*
X92227741Y-130438352D01*
X92321001Y-130410062D01*
X92321001Y-133183511D01*
X92276173Y-133228339D01*
X92227741Y-133213648D01*
X92018098Y-133193000D01*
X91877902Y-133193000D01*
X91668259Y-133213648D01*
X91399269Y-133295245D01*
X91151366Y-133427752D01*
X90934077Y-133606077D01*
X90755752Y-133823366D01*
X90623245Y-134071269D01*
X90541648Y-134340259D01*
X90514096Y-134620000D01*
X90541648Y-134899741D01*
X90623245Y-135168731D01*
X90755752Y-135416634D01*
X90934077Y-135633923D01*
X91151366Y-135812248D01*
X91296830Y-135890000D01*
X91151366Y-135967752D01*
X90934077Y-136146077D01*
X90755752Y-136363366D01*
X90623245Y-136611269D01*
X90541648Y-136880259D01*
X90514096Y-137160000D01*
X90541648Y-137439741D01*
X90623245Y-137708731D01*
X90755752Y-137956634D01*
X90934077Y-138173923D01*
X91151366Y-138352248D01*
X91296830Y-138430000D01*
X91151366Y-138507752D01*
X90934077Y-138686077D01*
X90755752Y-138903366D01*
X90623245Y-139151269D01*
X90541648Y-139420259D01*
X90514096Y-139700000D01*
X90541648Y-139979741D01*
X90623245Y-140248731D01*
X90755752Y-140496634D01*
X90934077Y-140713923D01*
X91151366Y-140892248D01*
X91292680Y-140967782D01*
X91092869Y-141087615D01*
X90884481Y-141276586D01*
X90716963Y-141502580D01*
X90596754Y-141756913D01*
X90556096Y-141890961D01*
X90678085Y-142113000D01*
X91821000Y-142113000D01*
X91821000Y-142093000D01*
X92075000Y-142093000D01*
X92075000Y-142113000D01*
X92095000Y-142113000D01*
X92095000Y-142367000D01*
X92075000Y-142367000D01*
X92075000Y-143510624D01*
X92297040Y-143631909D01*
X92561881Y-143537070D01*
X92803131Y-143392385D01*
X93011519Y-143203414D01*
X93179037Y-142977420D01*
X93255560Y-142815517D01*
X93323885Y-142980467D01*
X93436277Y-143148674D01*
X93579326Y-143291723D01*
X93747533Y-143404115D01*
X93934435Y-143481533D01*
X94132849Y-143521000D01*
X94335151Y-143521000D01*
X94498000Y-143488607D01*
X94498000Y-144587603D01*
X94452277Y-144633326D01*
X94339885Y-144801533D01*
X94262467Y-144988435D01*
X94223000Y-145186849D01*
X94223000Y-145389151D01*
X94262467Y-145587565D01*
X94339885Y-145774467D01*
X94452277Y-145942674D01*
X94595326Y-146085723D01*
X94763533Y-146198115D01*
X94950435Y-146275533D01*
X95148849Y-146315000D01*
X95351151Y-146315000D01*
X95549565Y-146275533D01*
X95736467Y-146198115D01*
X95904674Y-146085723D01*
X96047723Y-145942674D01*
X96160115Y-145774467D01*
X96237533Y-145587565D01*
X96277000Y-145389151D01*
X96277000Y-145186849D01*
X96237533Y-144988435D01*
X96160115Y-144801533D01*
X96047723Y-144633326D01*
X96002000Y-144587603D01*
X96002000Y-131510397D01*
X96047723Y-131464674D01*
X96160115Y-131296467D01*
X96237533Y-131109565D01*
X96277000Y-130911151D01*
X96277000Y-130708849D01*
X96237533Y-130510435D01*
X96160115Y-130323533D01*
X96047723Y-130155326D01*
X95904674Y-130012277D01*
X95736467Y-129899885D01*
X95549565Y-129822467D01*
X95351151Y-129783000D01*
X95148849Y-129783000D01*
X94950435Y-129822467D01*
X94763533Y-129899885D01*
X94595326Y-130012277D01*
X94452277Y-130155326D01*
X94339885Y-130323533D01*
X94262467Y-130510435D01*
X94223000Y-130708849D01*
X94223000Y-130911151D01*
X94262467Y-131109565D01*
X94339885Y-131296467D01*
X94452277Y-131464674D01*
X94498001Y-131510398D01*
X94498001Y-136106512D01*
X93339661Y-134948172D01*
X93354352Y-134899741D01*
X93381904Y-134620000D01*
X93354352Y-134340259D01*
X93339661Y-134291827D01*
X93578623Y-134052865D01*
X93607318Y-134029316D01*
X93701291Y-133914809D01*
X93771119Y-133784169D01*
X93814120Y-133642417D01*
X93825001Y-133531937D01*
X93825001Y-133531935D01*
X93828639Y-133494999D01*
X93825001Y-133458064D01*
X93825001Y-125113936D01*
X93828639Y-125077000D01*
X93825001Y-125040063D01*
X93814120Y-124929583D01*
X93771119Y-124787831D01*
X93701291Y-124657191D01*
X93607318Y-124542684D01*
X93578622Y-124519134D01*
X93339661Y-124280173D01*
X93354352Y-124231741D01*
X93381904Y-123952000D01*
X93354352Y-123672259D01*
X93339661Y-123623827D01*
X93578623Y-123384865D01*
X93607318Y-123361316D01*
X93701291Y-123246809D01*
X93771119Y-123116169D01*
X93814120Y-122974417D01*
X93825001Y-122863937D01*
X93825001Y-122863935D01*
X93828639Y-122826999D01*
X93825001Y-122790064D01*
X93825001Y-117782204D01*
X93934435Y-117827533D01*
X94132849Y-117867000D01*
X94335151Y-117867000D01*
X94533565Y-117827533D01*
X94720467Y-117750115D01*
X94888674Y-117637723D01*
X95031723Y-117494674D01*
X95144115Y-117326467D01*
X95221533Y-117139565D01*
X95261000Y-116941151D01*
X95261000Y-116738849D01*
X95221533Y-116540435D01*
X95144115Y-116353533D01*
X95031723Y-116185326D01*
X94888674Y-116042277D01*
X94720467Y-115929885D01*
X94533565Y-115852467D01*
X94335151Y-115813000D01*
X94132849Y-115813000D01*
X93934435Y-115852467D01*
X93825001Y-115897796D01*
X93825001Y-99713936D01*
X93828639Y-99677000D01*
X93825001Y-99640063D01*
X93814120Y-99529583D01*
X93771119Y-99387831D01*
X93701291Y-99257191D01*
X93607318Y-99142684D01*
X93578622Y-99119134D01*
X93339661Y-98880173D01*
X93354352Y-98831741D01*
X93381904Y-98552000D01*
X93354352Y-98272259D01*
X93339661Y-98223827D01*
X93578623Y-97984865D01*
X93607318Y-97961316D01*
X93701291Y-97846809D01*
X93771119Y-97716169D01*
X93814120Y-97574417D01*
X93825001Y-97463937D01*
X93825001Y-97463935D01*
X93828639Y-97426999D01*
X93825001Y-97390064D01*
X93825001Y-77107936D01*
X93828639Y-77071000D01*
X93822147Y-77005087D01*
X93814120Y-76923583D01*
X93771119Y-76781831D01*
X93701291Y-76651191D01*
X93607318Y-76536684D01*
X93578622Y-76513134D01*
X93339661Y-76274173D01*
X93354352Y-76225741D01*
X93381904Y-75946000D01*
X93354352Y-75666259D01*
X93272755Y-75397269D01*
X93140248Y-75149366D01*
X92961923Y-74932077D01*
X92947207Y-74920000D01*
X94176512Y-74920000D01*
X96763000Y-77506489D01*
X96763000Y-77571151D01*
X96802467Y-77769565D01*
X96879885Y-77956467D01*
X96992277Y-78124674D01*
X97038000Y-78170397D01*
X97038000Y-78195062D01*
X97034362Y-78232000D01*
X97038000Y-78268935D01*
X97038000Y-78268937D01*
X97048881Y-78379417D01*
X97083143Y-78492362D01*
X97091882Y-78521169D01*
X97161710Y-78651810D01*
X97202583Y-78701614D01*
X97255683Y-78766317D01*
X97284379Y-78789867D01*
X97691000Y-79196489D01*
X97690999Y-105010063D01*
X97687361Y-105046999D01*
X97690999Y-105083934D01*
X97690999Y-105083936D01*
X97701880Y-105194416D01*
X97743920Y-105333000D01*
X97744881Y-105336168D01*
X97814709Y-105466809D01*
X97855557Y-105516582D01*
X97908682Y-105581316D01*
X97937378Y-105604866D01*
X98176339Y-105843827D01*
X98161648Y-105892259D01*
X98134096Y-106172000D01*
X98161648Y-106451741D01*
X98176339Y-106500173D01*
X97937374Y-106739138D01*
X97908683Y-106762684D01*
X97885137Y-106791375D01*
X97885136Y-106791376D01*
X97814709Y-106877191D01*
X97744881Y-107007832D01*
X97701881Y-107149584D01*
X97687361Y-107297001D01*
X97691000Y-107333947D01*
X97690999Y-122790063D01*
X97687361Y-122826999D01*
X97690999Y-122863934D01*
X97690999Y-122863936D01*
X97701880Y-122974416D01*
X97734946Y-123083417D01*
X97744881Y-123116168D01*
X97814709Y-123246809D01*
X97855557Y-123296582D01*
X97908682Y-123361316D01*
X97937378Y-123384866D01*
X98176339Y-123623827D01*
X98161648Y-123672259D01*
X98134096Y-123952000D01*
X98161648Y-124231741D01*
X98176339Y-124280173D01*
X97937374Y-124519138D01*
X97908683Y-124542684D01*
X97885137Y-124571375D01*
X97885136Y-124571376D01*
X97814709Y-124657191D01*
X97744881Y-124787832D01*
X97701881Y-124929584D01*
X97687361Y-125077001D01*
X97691000Y-125113947D01*
X97690999Y-141078063D01*
X97687361Y-141114999D01*
X97690999Y-141151934D01*
X97690999Y-141151936D01*
X97701880Y-141262416D01*
X97706179Y-141276586D01*
X97744881Y-141404168D01*
X97814709Y-141534809D01*
X97820514Y-141541882D01*
X97908682Y-141649316D01*
X97937378Y-141672866D01*
X98176339Y-141911827D01*
X98161648Y-141960259D01*
X98134096Y-142240000D01*
X98161648Y-142519741D01*
X98243245Y-142788731D01*
X98375752Y-143036634D01*
X98554077Y-143253923D01*
X98771366Y-143432248D01*
X98816001Y-143456106D01*
X98816000Y-145992512D01*
X96462512Y-148346000D01*
X91243488Y-148346000D01*
X85486527Y-142589039D01*
X90556096Y-142589039D01*
X90596754Y-142723087D01*
X90716963Y-142977420D01*
X90884481Y-143203414D01*
X91092869Y-143392385D01*
X91334119Y-143537070D01*
X91598960Y-143631909D01*
X91821000Y-143510624D01*
X91821000Y-142367000D01*
X90678085Y-142367000D01*
X90556096Y-142589039D01*
X85486527Y-142589039D01*
X83810000Y-140912512D01*
X83810000Y-134216854D01*
X83813638Y-134179918D01*
X83810000Y-134142981D01*
X83799119Y-134032501D01*
X83756118Y-133890749D01*
X83718302Y-133820000D01*
X83686290Y-133760108D01*
X83615863Y-133674293D01*
X83592317Y-133645602D01*
X83563627Y-133622057D01*
X72879948Y-122938379D01*
X72856398Y-122909683D01*
X72741891Y-122815710D01*
X72611251Y-122745882D01*
X72469499Y-122702881D01*
X72394676Y-122695512D01*
X72354022Y-122619453D01*
X72169450Y-122394550D01*
X71944547Y-122209978D01*
X71877237Y-122174000D01*
X71944547Y-122138022D01*
X72169450Y-121953450D01*
X72354022Y-121728547D01*
X72491172Y-121471958D01*
X72575629Y-121193543D01*
X72604146Y-120904000D01*
X72575629Y-120614457D01*
X72491172Y-120336042D01*
X72354022Y-120079453D01*
X72169450Y-119854550D01*
X72136106Y-119827185D01*
X72214180Y-119803502D01*
X72324494Y-119744537D01*
X72421185Y-119665185D01*
X72500537Y-119568494D01*
X72559502Y-119458180D01*
X72595812Y-119338482D01*
X72608072Y-119214000D01*
X72605000Y-118649750D01*
X72446250Y-118491000D01*
X71247000Y-118491000D01*
X71247000Y-118511000D01*
X70993000Y-118511000D01*
X70993000Y-118491000D01*
X69793750Y-118491000D01*
X69635000Y-118649750D01*
X69631928Y-119214000D01*
X69644188Y-119338482D01*
X69680498Y-119458180D01*
X69739463Y-119568494D01*
X69818815Y-119665185D01*
X69915506Y-119744537D01*
X70025820Y-119803502D01*
X70103894Y-119827185D01*
X70070550Y-119854550D01*
X69885978Y-120079453D01*
X69748828Y-120336042D01*
X69664371Y-120614457D01*
X69635854Y-120904000D01*
X69664371Y-121193543D01*
X69748828Y-121471958D01*
X69885978Y-121728547D01*
X70070550Y-121953450D01*
X70295453Y-122138022D01*
X70362763Y-122174000D01*
X70295453Y-122209978D01*
X70070550Y-122394550D01*
X69885978Y-122619453D01*
X69748828Y-122876042D01*
X69664371Y-123154457D01*
X69636538Y-123437050D01*
X68824000Y-122624512D01*
X68824000Y-117514000D01*
X69631928Y-117514000D01*
X69635000Y-118078250D01*
X69793750Y-118237000D01*
X70993000Y-118237000D01*
X70993000Y-117037750D01*
X71247000Y-117037750D01*
X71247000Y-118237000D01*
X72446250Y-118237000D01*
X72605000Y-118078250D01*
X72608072Y-117514000D01*
X72595812Y-117389518D01*
X72559502Y-117269820D01*
X72500537Y-117159506D01*
X72421185Y-117062815D01*
X72324494Y-116983463D01*
X72214180Y-116924498D01*
X72094482Y-116888188D01*
X71970000Y-116875928D01*
X71405750Y-116879000D01*
X71247000Y-117037750D01*
X70993000Y-117037750D01*
X70834250Y-116879000D01*
X70270000Y-116875928D01*
X70145518Y-116888188D01*
X70025820Y-116924498D01*
X69915506Y-116983463D01*
X69818815Y-117062815D01*
X69739463Y-117159506D01*
X69680498Y-117269820D01*
X69644188Y-117389518D01*
X69631928Y-117514000D01*
X68824000Y-117514000D01*
X68824000Y-106547332D01*
X72059000Y-106547332D01*
X72059000Y-106812668D01*
X72110764Y-107072906D01*
X72212304Y-107318044D01*
X72359716Y-107538663D01*
X72547337Y-107726284D01*
X72767956Y-107873696D01*
X72952169Y-107950000D01*
X72767956Y-108026304D01*
X72547337Y-108173716D01*
X72359716Y-108361337D01*
X72212304Y-108581956D01*
X72110764Y-108827094D01*
X72059000Y-109087332D01*
X72059000Y-109352668D01*
X72110764Y-109612906D01*
X72212304Y-109858044D01*
X72359716Y-110078663D01*
X72547337Y-110266284D01*
X72767956Y-110413696D01*
X72952169Y-110490000D01*
X72767956Y-110566304D01*
X72547337Y-110713716D01*
X72359716Y-110901337D01*
X72212304Y-111121956D01*
X72110764Y-111367094D01*
X72059000Y-111627332D01*
X72059000Y-111892668D01*
X72110764Y-112152906D01*
X72212304Y-112398044D01*
X72359716Y-112618663D01*
X72547337Y-112806284D01*
X72767956Y-112953696D01*
X73013094Y-113055236D01*
X73273332Y-113107000D01*
X73538668Y-113107000D01*
X73798906Y-113055236D01*
X74044044Y-112953696D01*
X74264663Y-112806284D01*
X74452284Y-112618663D01*
X74599696Y-112398044D01*
X74701236Y-112152906D01*
X74753000Y-111892668D01*
X74753000Y-111627332D01*
X85267000Y-111627332D01*
X85267000Y-111892668D01*
X85318764Y-112152906D01*
X85420304Y-112398044D01*
X85567716Y-112618663D01*
X85755337Y-112806284D01*
X85975956Y-112953696D01*
X86160169Y-113030000D01*
X85975956Y-113106304D01*
X85755337Y-113253716D01*
X85567716Y-113441337D01*
X85420304Y-113661956D01*
X85318764Y-113907094D01*
X85267000Y-114167332D01*
X85267000Y-114432668D01*
X85318764Y-114692906D01*
X85420304Y-114938044D01*
X85567716Y-115158663D01*
X85755337Y-115346284D01*
X85975956Y-115493696D01*
X86160169Y-115570000D01*
X85975956Y-115646304D01*
X85755337Y-115793716D01*
X85567716Y-115981337D01*
X85420304Y-116201956D01*
X85318764Y-116447094D01*
X85267000Y-116707332D01*
X85267000Y-116972668D01*
X85318764Y-117232906D01*
X85420304Y-117478044D01*
X85567716Y-117698663D01*
X85755337Y-117886284D01*
X85975956Y-118033696D01*
X86221094Y-118135236D01*
X86481332Y-118187000D01*
X86746668Y-118187000D01*
X87006906Y-118135236D01*
X87252044Y-118033696D01*
X87472663Y-117886284D01*
X87660284Y-117698663D01*
X87807696Y-117478044D01*
X87909236Y-117232906D01*
X87961000Y-116972668D01*
X87961000Y-116707332D01*
X87955771Y-116681039D01*
X90556096Y-116681039D01*
X90596754Y-116815087D01*
X90716963Y-117069420D01*
X90884481Y-117295414D01*
X91092869Y-117484385D01*
X91288982Y-117602000D01*
X91092869Y-117719615D01*
X90884481Y-117908586D01*
X90716963Y-118134580D01*
X90596754Y-118388913D01*
X90556096Y-118522961D01*
X90678085Y-118745000D01*
X91821000Y-118745000D01*
X91821000Y-116459000D01*
X90678085Y-116459000D01*
X90556096Y-116681039D01*
X87955771Y-116681039D01*
X87909236Y-116447094D01*
X87807696Y-116201956D01*
X87660284Y-115981337D01*
X87472663Y-115793716D01*
X87252044Y-115646304D01*
X87067831Y-115570000D01*
X87252044Y-115493696D01*
X87472663Y-115346284D01*
X87660284Y-115158663D01*
X87807696Y-114938044D01*
X87909236Y-114692906D01*
X87961000Y-114432668D01*
X87961000Y-114167332D01*
X87909236Y-113907094D01*
X87807696Y-113661956D01*
X87660284Y-113441337D01*
X87472663Y-113253716D01*
X87252044Y-113106304D01*
X87067831Y-113030000D01*
X87252044Y-112953696D01*
X87472663Y-112806284D01*
X87660284Y-112618663D01*
X87807696Y-112398044D01*
X87909236Y-112152906D01*
X87961000Y-111892668D01*
X87961000Y-111627332D01*
X87909236Y-111367094D01*
X87807696Y-111121956D01*
X87660284Y-110901337D01*
X87472663Y-110713716D01*
X87252044Y-110566304D01*
X87006906Y-110464764D01*
X86746668Y-110413000D01*
X86481332Y-110413000D01*
X86221094Y-110464764D01*
X85975956Y-110566304D01*
X85755337Y-110713716D01*
X85567716Y-110901337D01*
X85420304Y-111121956D01*
X85318764Y-111367094D01*
X85267000Y-111627332D01*
X74753000Y-111627332D01*
X74701236Y-111367094D01*
X74599696Y-111121956D01*
X74452284Y-110901337D01*
X74264663Y-110713716D01*
X74044044Y-110566304D01*
X73859831Y-110490000D01*
X74044044Y-110413696D01*
X74264663Y-110266284D01*
X74452284Y-110078663D01*
X74599696Y-109858044D01*
X74701236Y-109612906D01*
X74753000Y-109352668D01*
X74753000Y-109087332D01*
X74701236Y-108827094D01*
X74599696Y-108581956D01*
X74452284Y-108361337D01*
X74264663Y-108173716D01*
X74044044Y-108026304D01*
X73859831Y-107950000D01*
X74044044Y-107873696D01*
X74264663Y-107726284D01*
X74452284Y-107538663D01*
X74599696Y-107318044D01*
X74701236Y-107072906D01*
X74753000Y-106812668D01*
X74753000Y-106547332D01*
X74701236Y-106287094D01*
X74599696Y-106041956D01*
X74452284Y-105821337D01*
X74264663Y-105633716D01*
X74044044Y-105486304D01*
X73798906Y-105384764D01*
X73538668Y-105333000D01*
X73273332Y-105333000D01*
X73013094Y-105384764D01*
X72767956Y-105486304D01*
X72547337Y-105633716D01*
X72359716Y-105821337D01*
X72212304Y-106041956D01*
X72110764Y-106287094D01*
X72059000Y-106547332D01*
X68824000Y-106547332D01*
X68824000Y-105975488D01*
X70993928Y-103805560D01*
X85096045Y-103805560D01*
X85157932Y-104041368D01*
X85399790Y-104154266D01*
X85659027Y-104217811D01*
X85925680Y-104229561D01*
X86189501Y-104189063D01*
X86440353Y-104097875D01*
X86546068Y-104041368D01*
X86607955Y-103805560D01*
X85852000Y-103049605D01*
X85096045Y-103805560D01*
X70993928Y-103805560D01*
X71855808Y-102943680D01*
X84492439Y-102943680D01*
X84532937Y-103207501D01*
X84624125Y-103458353D01*
X84680632Y-103564068D01*
X84916440Y-103625955D01*
X85672395Y-102870000D01*
X86031605Y-102870000D01*
X86787560Y-103625955D01*
X87023368Y-103564068D01*
X87136266Y-103322210D01*
X87199811Y-103062973D01*
X87211561Y-102796320D01*
X87171063Y-102532499D01*
X87079875Y-102281647D01*
X87023368Y-102175932D01*
X86787560Y-102114045D01*
X86031605Y-102870000D01*
X85672395Y-102870000D01*
X84916440Y-102114045D01*
X84680632Y-102175932D01*
X84567734Y-102417790D01*
X84504189Y-102677027D01*
X84492439Y-102943680D01*
X71855808Y-102943680D01*
X71939489Y-102860000D01*
X79973065Y-102860000D01*
X80010000Y-102863638D01*
X80046935Y-102860000D01*
X80046938Y-102860000D01*
X80157418Y-102849119D01*
X80299170Y-102806118D01*
X80429810Y-102736290D01*
X80544317Y-102642317D01*
X80567867Y-102613621D01*
X83563626Y-99617863D01*
X83592317Y-99594317D01*
X83686290Y-99479810D01*
X83756118Y-99349170D01*
X83799119Y-99207418D01*
X83810000Y-99096938D01*
X83810000Y-99096936D01*
X83813638Y-99060000D01*
X83810000Y-99023065D01*
X83810000Y-97657332D01*
X84505000Y-97657332D01*
X84505000Y-97922668D01*
X84556764Y-98182906D01*
X84658304Y-98428044D01*
X84805716Y-98648663D01*
X84993337Y-98836284D01*
X85213956Y-98983696D01*
X85398169Y-99060000D01*
X85213956Y-99136304D01*
X84993337Y-99283716D01*
X84805716Y-99471337D01*
X84658304Y-99691956D01*
X84556764Y-99937094D01*
X84505000Y-100197332D01*
X84505000Y-100462668D01*
X84556764Y-100722906D01*
X84658304Y-100968044D01*
X84805716Y-101188663D01*
X84993337Y-101376284D01*
X85213956Y-101523696D01*
X85389457Y-101596391D01*
X85263647Y-101642125D01*
X85157932Y-101698632D01*
X85096045Y-101934440D01*
X85852000Y-102690395D01*
X86607955Y-101934440D01*
X86546068Y-101698632D01*
X86321165Y-101593648D01*
X86490044Y-101523696D01*
X86710663Y-101376284D01*
X86898284Y-101188663D01*
X87045696Y-100968044D01*
X87147236Y-100722906D01*
X87199000Y-100462668D01*
X87199000Y-100197332D01*
X87147236Y-99937094D01*
X87045696Y-99691956D01*
X86898284Y-99471337D01*
X86710663Y-99283716D01*
X86490044Y-99136304D01*
X86305831Y-99060000D01*
X86490044Y-98983696D01*
X86710663Y-98836284D01*
X86898284Y-98648663D01*
X87045696Y-98428044D01*
X87147236Y-98182906D01*
X87199000Y-97922668D01*
X87199000Y-97657332D01*
X87147236Y-97397094D01*
X87045696Y-97151956D01*
X86898284Y-96931337D01*
X86710663Y-96743716D01*
X86490044Y-96596304D01*
X86244906Y-96494764D01*
X85984668Y-96443000D01*
X85719332Y-96443000D01*
X85459094Y-96494764D01*
X85213956Y-96596304D01*
X84993337Y-96743716D01*
X84805716Y-96931337D01*
X84658304Y-97151956D01*
X84556764Y-97397094D01*
X84505000Y-97657332D01*
X83810000Y-97657332D01*
X83810000Y-97339488D01*
X89767627Y-91381862D01*
X89796318Y-91358316D01*
X89819864Y-91329625D01*
X89890291Y-91243810D01*
X89960118Y-91113170D01*
X89960119Y-91113169D01*
X90003120Y-90971417D01*
X90014001Y-90860937D01*
X90014001Y-90860935D01*
X90017639Y-90824000D01*
X90014001Y-90787064D01*
X90014001Y-88341813D01*
X90148467Y-88286115D01*
X90316674Y-88173723D01*
X90459723Y-88030674D01*
X90572115Y-87862467D01*
X90649533Y-87675565D01*
X90689000Y-87477151D01*
X90689000Y-87274849D01*
X90649533Y-87076435D01*
X90572115Y-86889533D01*
X90459723Y-86721326D01*
X90316674Y-86578277D01*
X90148467Y-86465885D01*
X89961565Y-86388467D01*
X89763151Y-86349000D01*
X89560849Y-86349000D01*
X89362435Y-86388467D01*
X89175533Y-86465885D01*
X89007326Y-86578277D01*
X88864277Y-86721326D01*
X88751885Y-86889533D01*
X88674467Y-87076435D01*
X88635000Y-87274849D01*
X88635000Y-87354618D01*
X88633711Y-87356189D01*
X88608653Y-87403070D01*
X88563883Y-87486830D01*
X88520882Y-87628582D01*
X88517279Y-87665170D01*
X88506363Y-87775999D01*
X88510001Y-87812935D01*
X88510001Y-88377174D01*
X88457622Y-88113844D01*
X88352916Y-87861062D01*
X88200907Y-87633564D01*
X88007436Y-87440093D01*
X87779938Y-87288084D01*
X87527156Y-87183378D01*
X87258805Y-87130000D01*
X86985195Y-87130000D01*
X86716844Y-87183378D01*
X86464062Y-87288084D01*
X86236564Y-87440093D01*
X86043093Y-87633564D01*
X85891084Y-87861062D01*
X85786378Y-88113844D01*
X85733000Y-88382195D01*
X85733000Y-88655805D01*
X85786378Y-88924156D01*
X85891084Y-89176938D01*
X86043093Y-89404436D01*
X86236564Y-89597907D01*
X86464062Y-89749916D01*
X86716844Y-89854622D01*
X86985195Y-89908000D01*
X87258805Y-89908000D01*
X87527156Y-89854622D01*
X87779938Y-89749916D01*
X88007436Y-89597907D01*
X88200907Y-89404436D01*
X88352916Y-89176938D01*
X88457622Y-88924156D01*
X88510001Y-88660826D01*
X88510002Y-90512509D01*
X82552379Y-96470133D01*
X82523683Y-96493683D01*
X82481885Y-96544615D01*
X82429710Y-96608190D01*
X82398450Y-96666674D01*
X82359882Y-96738831D01*
X82316881Y-96880583D01*
X82306000Y-96991062D01*
X82302362Y-97028000D01*
X82306000Y-97064936D01*
X82306001Y-98748510D01*
X79698512Y-101356000D01*
X71664935Y-101356000D01*
X71627999Y-101352362D01*
X71591064Y-101356000D01*
X71591062Y-101356000D01*
X71480582Y-101366881D01*
X71338830Y-101409882D01*
X71278017Y-101442387D01*
X71208189Y-101479710D01*
X71122374Y-101550137D01*
X71093683Y-101573683D01*
X71070137Y-101602374D01*
X67962000Y-104710512D01*
X67962000Y-96926400D01*
X69626367Y-96926400D01*
X69626367Y-98653600D01*
X69638473Y-98776513D01*
X69674325Y-98894703D01*
X69732547Y-99003628D01*
X69810899Y-99099101D01*
X69906372Y-99177453D01*
X70015297Y-99235675D01*
X70133487Y-99271527D01*
X70256400Y-99283633D01*
X71983600Y-99283633D01*
X72106513Y-99271527D01*
X72224703Y-99235675D01*
X72333628Y-99177453D01*
X72429101Y-99099101D01*
X72507453Y-99003628D01*
X72565675Y-98894703D01*
X72585275Y-98830090D01*
X72600887Y-98849113D01*
X72827860Y-99035385D01*
X73086812Y-99173798D01*
X73367791Y-99259032D01*
X73586775Y-99280600D01*
X73733225Y-99280600D01*
X73952209Y-99259032D01*
X74233188Y-99173798D01*
X74492140Y-99035385D01*
X74719113Y-98849113D01*
X74905385Y-98622140D01*
X75043798Y-98363188D01*
X75129032Y-98082209D01*
X75157812Y-97790000D01*
X75129032Y-97497791D01*
X75043798Y-97216812D01*
X74905385Y-96957860D01*
X74719113Y-96730887D01*
X74492140Y-96544615D01*
X74444057Y-96518914D01*
X74548488Y-96456817D01*
X74766854Y-96260293D01*
X74942684Y-96024944D01*
X75069222Y-95759814D01*
X75114958Y-95609026D01*
X74993817Y-95377000D01*
X73787000Y-95377000D01*
X73787000Y-95397000D01*
X73533000Y-95397000D01*
X73533000Y-95377000D01*
X71247000Y-95377000D01*
X71247000Y-95397000D01*
X70993000Y-95397000D01*
X70993000Y-95377000D01*
X69786183Y-95377000D01*
X69665042Y-95609026D01*
X69710778Y-95759814D01*
X69837316Y-96024944D01*
X70013146Y-96260293D01*
X70083522Y-96323630D01*
X70015297Y-96344325D01*
X69906372Y-96402547D01*
X69810899Y-96480899D01*
X69732547Y-96576372D01*
X69674325Y-96685297D01*
X69638473Y-96803487D01*
X69626367Y-96926400D01*
X67962000Y-96926400D01*
X67962000Y-93069026D01*
X69665042Y-93069026D01*
X69710778Y-93219814D01*
X69837316Y-93484944D01*
X70013146Y-93720293D01*
X70231512Y-93916817D01*
X70337770Y-93980000D01*
X70231512Y-94043183D01*
X70013146Y-94239707D01*
X69837316Y-94475056D01*
X69710778Y-94740186D01*
X69665042Y-94890974D01*
X69786183Y-95123000D01*
X70993000Y-95123000D01*
X70993000Y-92837000D01*
X71247000Y-92837000D01*
X71247000Y-95123000D01*
X73533000Y-95123000D01*
X73533000Y-92837000D01*
X73787000Y-92837000D01*
X73787000Y-95123000D01*
X74993817Y-95123000D01*
X75114958Y-94890974D01*
X75069222Y-94740186D01*
X74942684Y-94475056D01*
X74766854Y-94239707D01*
X74548488Y-94043183D01*
X74442230Y-93980000D01*
X74548488Y-93916817D01*
X74766854Y-93720293D01*
X74942684Y-93484944D01*
X75069222Y-93219814D01*
X75114958Y-93069026D01*
X74993817Y-92837000D01*
X73787000Y-92837000D01*
X73533000Y-92837000D01*
X71247000Y-92837000D01*
X70993000Y-92837000D01*
X69786183Y-92837000D01*
X69665042Y-93069026D01*
X67962000Y-93069026D01*
X67962000Y-90529026D01*
X69665042Y-90529026D01*
X69710778Y-90679814D01*
X69837316Y-90944944D01*
X70013146Y-91180293D01*
X70231512Y-91376817D01*
X70337770Y-91440000D01*
X70231512Y-91503183D01*
X70013146Y-91699707D01*
X69837316Y-91935056D01*
X69710778Y-92200186D01*
X69665042Y-92350974D01*
X69786183Y-92583000D01*
X70993000Y-92583000D01*
X70993000Y-90297000D01*
X71247000Y-90297000D01*
X71247000Y-92583000D01*
X73533000Y-92583000D01*
X73533000Y-90297000D01*
X73787000Y-90297000D01*
X73787000Y-92583000D01*
X74993817Y-92583000D01*
X75114958Y-92350974D01*
X75069222Y-92200186D01*
X74942684Y-91935056D01*
X74766854Y-91699707D01*
X74548488Y-91503183D01*
X74442230Y-91440000D01*
X74548488Y-91376817D01*
X74766854Y-91180293D01*
X74942684Y-90944944D01*
X75069222Y-90679814D01*
X75114958Y-90529026D01*
X74993817Y-90297000D01*
X73787000Y-90297000D01*
X73533000Y-90297000D01*
X71247000Y-90297000D01*
X70993000Y-90297000D01*
X69786183Y-90297000D01*
X69665042Y-90529026D01*
X67962000Y-90529026D01*
X67962000Y-80010000D01*
X69622188Y-80010000D01*
X69650968Y-80302209D01*
X69736202Y-80583188D01*
X69874615Y-80842140D01*
X70060887Y-81069113D01*
X70287860Y-81255385D01*
X70333911Y-81280000D01*
X70287860Y-81304615D01*
X70060887Y-81490887D01*
X69874615Y-81717860D01*
X69736202Y-81976812D01*
X69650968Y-82257791D01*
X69622188Y-82550000D01*
X69650968Y-82842209D01*
X69736202Y-83123188D01*
X69874615Y-83382140D01*
X70060887Y-83609113D01*
X70287860Y-83795385D01*
X70333911Y-83820000D01*
X70287860Y-83844615D01*
X70060887Y-84030887D01*
X69874615Y-84257860D01*
X69736202Y-84516812D01*
X69650968Y-84797791D01*
X69622188Y-85090000D01*
X69650968Y-85382209D01*
X69736202Y-85663188D01*
X69874615Y-85922140D01*
X70060887Y-86149113D01*
X70287860Y-86335385D01*
X70333911Y-86360000D01*
X70287860Y-86384615D01*
X70060887Y-86570887D01*
X69874615Y-86797860D01*
X69736202Y-87056812D01*
X69650968Y-87337791D01*
X69622188Y-87630000D01*
X69650968Y-87922209D01*
X69736202Y-88203188D01*
X69874615Y-88462140D01*
X70060887Y-88689113D01*
X70287860Y-88875385D01*
X70335943Y-88901086D01*
X70231512Y-88963183D01*
X70013146Y-89159707D01*
X69837316Y-89395056D01*
X69710778Y-89660186D01*
X69665042Y-89810974D01*
X69786183Y-90043000D01*
X70993000Y-90043000D01*
X70993000Y-90023000D01*
X71247000Y-90023000D01*
X71247000Y-90043000D01*
X73533000Y-90043000D01*
X73533000Y-90023000D01*
X73787000Y-90023000D01*
X73787000Y-90043000D01*
X74993817Y-90043000D01*
X75114958Y-89810974D01*
X75069222Y-89660186D01*
X74942684Y-89395056D01*
X74766854Y-89159707D01*
X74548488Y-88963183D01*
X74444057Y-88901086D01*
X74492140Y-88875385D01*
X74719113Y-88689113D01*
X74905385Y-88462140D01*
X75043798Y-88203188D01*
X75129032Y-87922209D01*
X75157812Y-87630000D01*
X75129032Y-87337791D01*
X75043798Y-87056812D01*
X74905385Y-86797860D01*
X74719113Y-86570887D01*
X74492140Y-86384615D01*
X74446089Y-86360000D01*
X74492140Y-86335385D01*
X74719113Y-86149113D01*
X74905385Y-85922140D01*
X75043798Y-85663188D01*
X75129032Y-85382209D01*
X75157812Y-85090000D01*
X75129032Y-84797791D01*
X75043798Y-84516812D01*
X74905385Y-84257860D01*
X74719113Y-84030887D01*
X74492140Y-83844615D01*
X74446089Y-83820000D01*
X74492140Y-83795385D01*
X74719113Y-83609113D01*
X74905385Y-83382140D01*
X75043798Y-83123188D01*
X75129032Y-82842209D01*
X75157812Y-82550000D01*
X75129032Y-82257791D01*
X75043798Y-81976812D01*
X74905385Y-81717860D01*
X74719113Y-81490887D01*
X74492140Y-81304615D01*
X74446089Y-81280000D01*
X74492140Y-81255385D01*
X74719113Y-81069113D01*
X74905385Y-80842140D01*
X75043798Y-80583188D01*
X75129032Y-80302209D01*
X75157812Y-80010000D01*
X75129032Y-79717791D01*
X75043798Y-79436812D01*
X74905385Y-79177860D01*
X74719113Y-78950887D01*
X74492140Y-78764615D01*
X74233188Y-78626202D01*
X73952209Y-78540968D01*
X73733225Y-78519400D01*
X73586775Y-78519400D01*
X73367791Y-78540968D01*
X73086812Y-78626202D01*
X72827860Y-78764615D01*
X72600887Y-78950887D01*
X72414615Y-79177860D01*
X72390000Y-79223911D01*
X72365385Y-79177860D01*
X72179113Y-78950887D01*
X71952140Y-78764615D01*
X71693188Y-78626202D01*
X71412209Y-78540968D01*
X71193225Y-78519400D01*
X71046775Y-78519400D01*
X70827791Y-78540968D01*
X70546812Y-78626202D01*
X70287860Y-78764615D01*
X70060887Y-78950887D01*
X69874615Y-79177860D01*
X69736202Y-79436812D01*
X69650968Y-79717791D01*
X69622188Y-80010000D01*
X67962000Y-80010000D01*
X67962000Y-72815148D01*
X68588457Y-72815148D01*
X68864627Y-73233118D01*
X69409557Y-73523649D01*
X70000696Y-73702287D01*
X70615328Y-73762168D01*
X71229831Y-73700990D01*
X71820592Y-73521103D01*
X72359373Y-73233118D01*
X72466121Y-73071560D01*
X80016045Y-73071560D01*
X80077932Y-73307368D01*
X80319790Y-73420266D01*
X80579027Y-73483811D01*
X80845680Y-73495561D01*
X81109501Y-73455063D01*
X81360353Y-73363875D01*
X81466068Y-73307368D01*
X81527955Y-73071560D01*
X82556045Y-73071560D01*
X82617932Y-73307368D01*
X82859790Y-73420266D01*
X83119027Y-73483811D01*
X83385680Y-73495561D01*
X83649501Y-73455063D01*
X83900353Y-73363875D01*
X84006068Y-73307368D01*
X84067955Y-73071560D01*
X83312000Y-72315605D01*
X82556045Y-73071560D01*
X81527955Y-73071560D01*
X80772000Y-72315605D01*
X80016045Y-73071560D01*
X72466121Y-73071560D01*
X72635543Y-72815148D01*
X70612000Y-70791605D01*
X68588457Y-72815148D01*
X67962000Y-72815148D01*
X67962000Y-72305339D01*
X67990882Y-72359373D01*
X68408852Y-72635543D01*
X70432395Y-70612000D01*
X70791605Y-70612000D01*
X72815148Y-72635543D01*
X73233118Y-72359373D01*
X73312927Y-72209680D01*
X79412439Y-72209680D01*
X79452937Y-72473501D01*
X79544125Y-72724353D01*
X79600632Y-72830068D01*
X79836440Y-72891955D01*
X80592395Y-72136000D01*
X80951605Y-72136000D01*
X81707560Y-72891955D01*
X81943368Y-72830068D01*
X82044105Y-72614262D01*
X82084125Y-72724353D01*
X82140632Y-72830068D01*
X82376440Y-72891955D01*
X83132395Y-72136000D01*
X82376440Y-71380045D01*
X82140632Y-71441932D01*
X82039895Y-71657738D01*
X81999875Y-71547647D01*
X81943368Y-71441932D01*
X81707560Y-71380045D01*
X80951605Y-72136000D01*
X80592395Y-72136000D01*
X79836440Y-71380045D01*
X79600632Y-71441932D01*
X79487734Y-71683790D01*
X79424189Y-71943027D01*
X79412439Y-72209680D01*
X73312927Y-72209680D01*
X73523649Y-71814443D01*
X73702287Y-71223304D01*
X73704514Y-71200440D01*
X80016045Y-71200440D01*
X80772000Y-71956395D01*
X81527955Y-71200440D01*
X82556045Y-71200440D01*
X83312000Y-71956395D01*
X84067955Y-71200440D01*
X84006068Y-70964632D01*
X83764210Y-70851734D01*
X83504973Y-70788189D01*
X83238320Y-70776439D01*
X82974499Y-70816937D01*
X82723647Y-70908125D01*
X82617932Y-70964632D01*
X82556045Y-71200440D01*
X81527955Y-71200440D01*
X81466068Y-70964632D01*
X81224210Y-70851734D01*
X80964973Y-70788189D01*
X80698320Y-70776439D01*
X80434499Y-70816937D01*
X80183647Y-70908125D01*
X80077932Y-70964632D01*
X80016045Y-71200440D01*
X73704514Y-71200440D01*
X73761519Y-70615328D01*
X104037832Y-70615328D01*
X104099010Y-71229831D01*
X104278897Y-71820592D01*
X104566882Y-72359373D01*
X104984852Y-72635543D01*
X107008395Y-70612000D01*
X104984852Y-68588457D01*
X104566882Y-68864627D01*
X104276351Y-69409557D01*
X104097713Y-70000696D01*
X104037832Y-70615328D01*
X73761519Y-70615328D01*
X73762168Y-70608672D01*
X73700990Y-69994169D01*
X73521103Y-69403408D01*
X73233118Y-68864627D01*
X72815148Y-68588457D01*
X70791605Y-70612000D01*
X70432395Y-70612000D01*
X68408852Y-68588457D01*
X67990882Y-68864627D01*
X67962000Y-68918799D01*
X67962000Y-67962000D01*
X68918661Y-67962000D01*
X68864627Y-67990882D01*
G36*
X99695000Y-116205000D02*
G01*
X99715000Y-116205000D01*
X99715000Y-116459000D01*
X99695000Y-116459000D01*
X99695000Y-116479000D01*
X99441000Y-116479000D01*
X99441000Y-116459000D01*
X99421000Y-116459000D01*
X99421000Y-116205000D01*
X99441000Y-116205000D01*
X99441000Y-116185000D01*
X99695000Y-116185000D01*
X99695000Y-116205000D01*
X99695000Y-116205000D01*
G37*
X99695000Y-116205000D02*
X99715000Y-116205000D01*
X99715000Y-116459000D01*
X99695000Y-116459000D01*
X99695000Y-116479000D01*
X99441000Y-116479000D01*
X99441000Y-116459000D01*
X99421000Y-116459000D01*
X99421000Y-116205000D01*
X99441000Y-116205000D01*
X99441000Y-116185000D01*
X99695000Y-116185000D01*
X99695000Y-116205000D01*
M02*
