G04 #@! TF.GenerationSoftware,KiCad,Pcbnew,(5.1.4-0-10_14)*
G04 #@! TF.CreationDate,2019-10-08T21:24:41-07:00*
G04 #@! TF.ProjectId,VCO_Main,56434f5f-4d61-4696-9e2e-6b696361645f,rev?*
G04 #@! TF.SameCoordinates,Original*
G04 #@! TF.FileFunction,Soldermask,Bot*
G04 #@! TF.FilePolarity,Negative*
%FSLAX46Y46*%
G04 Gerber Fmt 4.6, Leading zero omitted, Abs format (unit mm)*
G04 Created by KiCad (PCBNEW (5.1.4-0-10_14)) date 2019-10-08 21:24:41*
%MOMM*%
%LPD*%
G04 APERTURE LIST*
%ADD10C,0.150000*%
G04 APERTURE END LIST*
D10*
G36*
X92946098Y-154265033D02*
G01*
X93410350Y-154457332D01*
X93410352Y-154457333D01*
X93828168Y-154736509D01*
X94183491Y-155091832D01*
X94462667Y-155509648D01*
X94462668Y-155509650D01*
X94654967Y-155973902D01*
X94753000Y-156466747D01*
X94753000Y-156969253D01*
X94654967Y-157462098D01*
X94462668Y-157926350D01*
X94462667Y-157926352D01*
X94183491Y-158344168D01*
X93828168Y-158699491D01*
X93410352Y-158978667D01*
X93410351Y-158978668D01*
X93410350Y-158978668D01*
X92946098Y-159170967D01*
X92453253Y-159269000D01*
X91950747Y-159269000D01*
X91457902Y-159170967D01*
X90993650Y-158978668D01*
X90993649Y-158978668D01*
X90993648Y-158978667D01*
X90575832Y-158699491D01*
X90220509Y-158344168D01*
X89941333Y-157926352D01*
X89941332Y-157926350D01*
X89749033Y-157462098D01*
X89651000Y-156969253D01*
X89651000Y-156466747D01*
X89749033Y-155973902D01*
X89941332Y-155509650D01*
X89941333Y-155509648D01*
X90220509Y-155091832D01*
X90575832Y-154736509D01*
X90993648Y-154457333D01*
X90993650Y-154457332D01*
X91457902Y-154265033D01*
X91950747Y-154167000D01*
X92453253Y-154167000D01*
X92946098Y-154265033D01*
X92946098Y-154265033D01*
G37*
G36*
X71356098Y-154265033D02*
G01*
X71820350Y-154457332D01*
X71820352Y-154457333D01*
X72238168Y-154736509D01*
X72593491Y-155091832D01*
X72872667Y-155509648D01*
X72872668Y-155509650D01*
X73064967Y-155973902D01*
X73163000Y-156466747D01*
X73163000Y-156969253D01*
X73064967Y-157462098D01*
X72872668Y-157926350D01*
X72872667Y-157926352D01*
X72593491Y-158344168D01*
X72238168Y-158699491D01*
X71820352Y-158978667D01*
X71820351Y-158978668D01*
X71820350Y-158978668D01*
X71356098Y-159170967D01*
X70863253Y-159269000D01*
X70360747Y-159269000D01*
X69867902Y-159170967D01*
X69403650Y-158978668D01*
X69403649Y-158978668D01*
X69403648Y-158978667D01*
X68985832Y-158699491D01*
X68630509Y-158344168D01*
X68351333Y-157926352D01*
X68351332Y-157926350D01*
X68159033Y-157462098D01*
X68061000Y-156969253D01*
X68061000Y-156466747D01*
X68159033Y-155973902D01*
X68351332Y-155509650D01*
X68351333Y-155509648D01*
X68630509Y-155091832D01*
X68985832Y-154736509D01*
X69403648Y-154457333D01*
X69403650Y-154457332D01*
X69867902Y-154265033D01*
X70360747Y-154167000D01*
X70863253Y-154167000D01*
X71356098Y-154265033D01*
X71356098Y-154265033D01*
G37*
G36*
X71230442Y-150489518D02*
G01*
X71296627Y-150496037D01*
X71466466Y-150547557D01*
X71622991Y-150631222D01*
X71658729Y-150660552D01*
X71760186Y-150743814D01*
X71843448Y-150845271D01*
X71872778Y-150881009D01*
X71956443Y-151037534D01*
X72007963Y-151207373D01*
X72025359Y-151384000D01*
X72007963Y-151560627D01*
X71956443Y-151730466D01*
X71872778Y-151886991D01*
X71843448Y-151922729D01*
X71760186Y-152024186D01*
X71658729Y-152107448D01*
X71622991Y-152136778D01*
X71466466Y-152220443D01*
X71296627Y-152271963D01*
X71230443Y-152278481D01*
X71164260Y-152285000D01*
X71075740Y-152285000D01*
X71009557Y-152278481D01*
X70943373Y-152271963D01*
X70773534Y-152220443D01*
X70617009Y-152136778D01*
X70581271Y-152107448D01*
X70479814Y-152024186D01*
X70396552Y-151922729D01*
X70367222Y-151886991D01*
X70283557Y-151730466D01*
X70232037Y-151560627D01*
X70214641Y-151384000D01*
X70232037Y-151207373D01*
X70283557Y-151037534D01*
X70367222Y-150881009D01*
X70396552Y-150845271D01*
X70479814Y-150743814D01*
X70581271Y-150660552D01*
X70617009Y-150631222D01*
X70773534Y-150547557D01*
X70943373Y-150496037D01*
X71009558Y-150489518D01*
X71075740Y-150483000D01*
X71164260Y-150483000D01*
X71230442Y-150489518D01*
X71230442Y-150489518D01*
G37*
G36*
X71230442Y-147949518D02*
G01*
X71296627Y-147956037D01*
X71466466Y-148007557D01*
X71622991Y-148091222D01*
X71658729Y-148120552D01*
X71760186Y-148203814D01*
X71843448Y-148305271D01*
X71872778Y-148341009D01*
X71956443Y-148497534D01*
X72007963Y-148667373D01*
X72025359Y-148844000D01*
X72007963Y-149020627D01*
X71956443Y-149190466D01*
X71872778Y-149346991D01*
X71843448Y-149382729D01*
X71760186Y-149484186D01*
X71658729Y-149567448D01*
X71622991Y-149596778D01*
X71466466Y-149680443D01*
X71296627Y-149731963D01*
X71230442Y-149738482D01*
X71164260Y-149745000D01*
X71075740Y-149745000D01*
X71009558Y-149738482D01*
X70943373Y-149731963D01*
X70773534Y-149680443D01*
X70617009Y-149596778D01*
X70581271Y-149567448D01*
X70479814Y-149484186D01*
X70396552Y-149382729D01*
X70367222Y-149346991D01*
X70283557Y-149190466D01*
X70232037Y-149020627D01*
X70214641Y-148844000D01*
X70232037Y-148667373D01*
X70283557Y-148497534D01*
X70367222Y-148341009D01*
X70396552Y-148305271D01*
X70479814Y-148203814D01*
X70581271Y-148120552D01*
X70617009Y-148091222D01*
X70773534Y-148007557D01*
X70943373Y-147956037D01*
X71009558Y-147949518D01*
X71075740Y-147943000D01*
X71164260Y-147943000D01*
X71230442Y-147949518D01*
X71230442Y-147949518D01*
G37*
G36*
X71230443Y-145409519D02*
G01*
X71296627Y-145416037D01*
X71466466Y-145467557D01*
X71622991Y-145551222D01*
X71658729Y-145580552D01*
X71760186Y-145663814D01*
X71843448Y-145765271D01*
X71872778Y-145801009D01*
X71956443Y-145957534D01*
X72007963Y-146127373D01*
X72025359Y-146304000D01*
X72007963Y-146480627D01*
X71956443Y-146650466D01*
X71872778Y-146806991D01*
X71843448Y-146842729D01*
X71760186Y-146944186D01*
X71658729Y-147027448D01*
X71622991Y-147056778D01*
X71466466Y-147140443D01*
X71296627Y-147191963D01*
X71230442Y-147198482D01*
X71164260Y-147205000D01*
X71075740Y-147205000D01*
X71009558Y-147198482D01*
X70943373Y-147191963D01*
X70773534Y-147140443D01*
X70617009Y-147056778D01*
X70581271Y-147027448D01*
X70479814Y-146944186D01*
X70396552Y-146842729D01*
X70367222Y-146806991D01*
X70283557Y-146650466D01*
X70232037Y-146480627D01*
X70214641Y-146304000D01*
X70232037Y-146127373D01*
X70283557Y-145957534D01*
X70367222Y-145801009D01*
X70396552Y-145765271D01*
X70479814Y-145663814D01*
X70581271Y-145580552D01*
X70617009Y-145551222D01*
X70773534Y-145467557D01*
X70943373Y-145416037D01*
X71009557Y-145409519D01*
X71075740Y-145403000D01*
X71164260Y-145403000D01*
X71230443Y-145409519D01*
X71230443Y-145409519D01*
G37*
G36*
X71230443Y-142869519D02*
G01*
X71296627Y-142876037D01*
X71466466Y-142927557D01*
X71622991Y-143011222D01*
X71645901Y-143030024D01*
X71760186Y-143123814D01*
X71843448Y-143225271D01*
X71872778Y-143261009D01*
X71956443Y-143417534D01*
X72007963Y-143587373D01*
X72025359Y-143764000D01*
X72007963Y-143940627D01*
X71956443Y-144110466D01*
X71872778Y-144266991D01*
X71843448Y-144302729D01*
X71760186Y-144404186D01*
X71658729Y-144487448D01*
X71622991Y-144516778D01*
X71466466Y-144600443D01*
X71296627Y-144651963D01*
X71230442Y-144658482D01*
X71164260Y-144665000D01*
X71075740Y-144665000D01*
X71009558Y-144658482D01*
X70943373Y-144651963D01*
X70773534Y-144600443D01*
X70617009Y-144516778D01*
X70581271Y-144487448D01*
X70479814Y-144404186D01*
X70396552Y-144302729D01*
X70367222Y-144266991D01*
X70283557Y-144110466D01*
X70232037Y-143940627D01*
X70214641Y-143764000D01*
X70232037Y-143587373D01*
X70283557Y-143417534D01*
X70367222Y-143261009D01*
X70396552Y-143225271D01*
X70479814Y-143123814D01*
X70594099Y-143030024D01*
X70617009Y-143011222D01*
X70773534Y-142927557D01*
X70943373Y-142876037D01*
X71009557Y-142869519D01*
X71075740Y-142863000D01*
X71164260Y-142863000D01*
X71230443Y-142869519D01*
X71230443Y-142869519D01*
G37*
G36*
X92114823Y-141401313D02*
G01*
X92275242Y-141449976D01*
X92407906Y-141520886D01*
X92423078Y-141528996D01*
X92552659Y-141635341D01*
X92659004Y-141764922D01*
X92659005Y-141764924D01*
X92738024Y-141912758D01*
X92786687Y-142073177D01*
X92803117Y-142240000D01*
X92786687Y-142406823D01*
X92738024Y-142567242D01*
X92667114Y-142699906D01*
X92659004Y-142715078D01*
X92552659Y-142844659D01*
X92423078Y-142951004D01*
X92423076Y-142951005D01*
X92275242Y-143030024D01*
X92114823Y-143078687D01*
X91989804Y-143091000D01*
X91906196Y-143091000D01*
X91781177Y-143078687D01*
X91620758Y-143030024D01*
X91472924Y-142951005D01*
X91472922Y-142951004D01*
X91343341Y-142844659D01*
X91236996Y-142715078D01*
X91228886Y-142699906D01*
X91157976Y-142567242D01*
X91109313Y-142406823D01*
X91092883Y-142240000D01*
X91109313Y-142073177D01*
X91157976Y-141912758D01*
X91236995Y-141764924D01*
X91236996Y-141764922D01*
X91343341Y-141635341D01*
X91472922Y-141528996D01*
X91488094Y-141520886D01*
X91620758Y-141449976D01*
X91781177Y-141401313D01*
X91906196Y-141389000D01*
X91989804Y-141389000D01*
X92114823Y-141401313D01*
X92114823Y-141401313D01*
G37*
G36*
X99734823Y-141401313D02*
G01*
X99895242Y-141449976D01*
X100027906Y-141520886D01*
X100043078Y-141528996D01*
X100172659Y-141635341D01*
X100279004Y-141764922D01*
X100279005Y-141764924D01*
X100358024Y-141912758D01*
X100406687Y-142073177D01*
X100423117Y-142240000D01*
X100406687Y-142406823D01*
X100358024Y-142567242D01*
X100287114Y-142699906D01*
X100279004Y-142715078D01*
X100172659Y-142844659D01*
X100043078Y-142951004D01*
X100043076Y-142951005D01*
X99895242Y-143030024D01*
X99734823Y-143078687D01*
X99609804Y-143091000D01*
X99526196Y-143091000D01*
X99401177Y-143078687D01*
X99240758Y-143030024D01*
X99092924Y-142951005D01*
X99092922Y-142951004D01*
X98963341Y-142844659D01*
X98856996Y-142715078D01*
X98848886Y-142699906D01*
X98777976Y-142567242D01*
X98729313Y-142406823D01*
X98712883Y-142240000D01*
X98729313Y-142073177D01*
X98777976Y-141912758D01*
X98856995Y-141764924D01*
X98856996Y-141764922D01*
X98963341Y-141635341D01*
X99092922Y-141528996D01*
X99108094Y-141520886D01*
X99240758Y-141449976D01*
X99401177Y-141401313D01*
X99526196Y-141389000D01*
X99609804Y-141389000D01*
X99734823Y-141401313D01*
X99734823Y-141401313D01*
G37*
G36*
X71230442Y-140329518D02*
G01*
X71296627Y-140336037D01*
X71466466Y-140387557D01*
X71622991Y-140471222D01*
X71645901Y-140490024D01*
X71760186Y-140583814D01*
X71843448Y-140685271D01*
X71872778Y-140721009D01*
X71956443Y-140877534D01*
X72007963Y-141047373D01*
X72025359Y-141224000D01*
X72007963Y-141400627D01*
X71956443Y-141570466D01*
X71872778Y-141726991D01*
X71843448Y-141762729D01*
X71760186Y-141864186D01*
X71658729Y-141947448D01*
X71622991Y-141976778D01*
X71466466Y-142060443D01*
X71296627Y-142111963D01*
X71230443Y-142118481D01*
X71164260Y-142125000D01*
X71075740Y-142125000D01*
X71009557Y-142118481D01*
X70943373Y-142111963D01*
X70773534Y-142060443D01*
X70617009Y-141976778D01*
X70581271Y-141947448D01*
X70479814Y-141864186D01*
X70396552Y-141762729D01*
X70367222Y-141726991D01*
X70283557Y-141570466D01*
X70232037Y-141400627D01*
X70214641Y-141224000D01*
X70232037Y-141047373D01*
X70283557Y-140877534D01*
X70367222Y-140721009D01*
X70396552Y-140685271D01*
X70479814Y-140583814D01*
X70594099Y-140490024D01*
X70617009Y-140471222D01*
X70773534Y-140387557D01*
X70943373Y-140336037D01*
X71009558Y-140329518D01*
X71075740Y-140323000D01*
X71164260Y-140323000D01*
X71230442Y-140329518D01*
X71230442Y-140329518D01*
G37*
G36*
X99734823Y-138861313D02*
G01*
X99895242Y-138909976D01*
X99930833Y-138929000D01*
X100043078Y-138988996D01*
X100172659Y-139095341D01*
X100279004Y-139224922D01*
X100279005Y-139224924D01*
X100358024Y-139372758D01*
X100406687Y-139533177D01*
X100423117Y-139700000D01*
X100406687Y-139866823D01*
X100358024Y-140027242D01*
X100287114Y-140159906D01*
X100279004Y-140175078D01*
X100172659Y-140304659D01*
X100043078Y-140411004D01*
X100043076Y-140411005D01*
X99895242Y-140490024D01*
X99734823Y-140538687D01*
X99609804Y-140551000D01*
X99526196Y-140551000D01*
X99401177Y-140538687D01*
X99240758Y-140490024D01*
X99092924Y-140411005D01*
X99092922Y-140411004D01*
X98963341Y-140304659D01*
X98856996Y-140175078D01*
X98848886Y-140159906D01*
X98777976Y-140027242D01*
X98729313Y-139866823D01*
X98712883Y-139700000D01*
X98729313Y-139533177D01*
X98777976Y-139372758D01*
X98856995Y-139224924D01*
X98856996Y-139224922D01*
X98963341Y-139095341D01*
X99092922Y-138988996D01*
X99205167Y-138929000D01*
X99240758Y-138909976D01*
X99401177Y-138861313D01*
X99526196Y-138849000D01*
X99609804Y-138849000D01*
X99734823Y-138861313D01*
X99734823Y-138861313D01*
G37*
G36*
X92114823Y-138861313D02*
G01*
X92275242Y-138909976D01*
X92310833Y-138929000D01*
X92423078Y-138988996D01*
X92552659Y-139095341D01*
X92659004Y-139224922D01*
X92659005Y-139224924D01*
X92738024Y-139372758D01*
X92786687Y-139533177D01*
X92803117Y-139700000D01*
X92786687Y-139866823D01*
X92738024Y-140027242D01*
X92667114Y-140159906D01*
X92659004Y-140175078D01*
X92552659Y-140304659D01*
X92423078Y-140411004D01*
X92423076Y-140411005D01*
X92275242Y-140490024D01*
X92114823Y-140538687D01*
X91989804Y-140551000D01*
X91906196Y-140551000D01*
X91781177Y-140538687D01*
X91620758Y-140490024D01*
X91472924Y-140411005D01*
X91472922Y-140411004D01*
X91343341Y-140304659D01*
X91236996Y-140175078D01*
X91228886Y-140159906D01*
X91157976Y-140027242D01*
X91109313Y-139866823D01*
X91092883Y-139700000D01*
X91109313Y-139533177D01*
X91157976Y-139372758D01*
X91236995Y-139224924D01*
X91236996Y-139224922D01*
X91343341Y-139095341D01*
X91472922Y-138988996D01*
X91585167Y-138929000D01*
X91620758Y-138909976D01*
X91781177Y-138861313D01*
X91906196Y-138849000D01*
X91989804Y-138849000D01*
X92114823Y-138861313D01*
X92114823Y-138861313D01*
G37*
G36*
X106043589Y-138938876D02*
G01*
X106142893Y-138958629D01*
X106283206Y-139016748D01*
X106409484Y-139101125D01*
X106516875Y-139208516D01*
X106601252Y-139334794D01*
X106659371Y-139475107D01*
X106689000Y-139624063D01*
X106689000Y-139775937D01*
X106659371Y-139924893D01*
X106601252Y-140065206D01*
X106516875Y-140191484D01*
X106409484Y-140298875D01*
X106283206Y-140383252D01*
X106142893Y-140441371D01*
X106043589Y-140461124D01*
X105993938Y-140471000D01*
X105842062Y-140471000D01*
X105792411Y-140461124D01*
X105693107Y-140441371D01*
X105552794Y-140383252D01*
X105426516Y-140298875D01*
X105319125Y-140191484D01*
X105234748Y-140065206D01*
X105176629Y-139924893D01*
X105147000Y-139775937D01*
X105147000Y-139624063D01*
X105176629Y-139475107D01*
X105234748Y-139334794D01*
X105319125Y-139208516D01*
X105426516Y-139101125D01*
X105552794Y-139016748D01*
X105693107Y-138958629D01*
X105792411Y-138938876D01*
X105842062Y-138929000D01*
X105993938Y-138929000D01*
X106043589Y-138938876D01*
X106043589Y-138938876D01*
G37*
G36*
X71230443Y-137789519D02*
G01*
X71296627Y-137796037D01*
X71466466Y-137847557D01*
X71622991Y-137931222D01*
X71645901Y-137950024D01*
X71760186Y-138043814D01*
X71843448Y-138145271D01*
X71872778Y-138181009D01*
X71956443Y-138337534D01*
X72007963Y-138507373D01*
X72025359Y-138684000D01*
X72007963Y-138860627D01*
X71956443Y-139030466D01*
X71872778Y-139186991D01*
X71855113Y-139208516D01*
X71760186Y-139324186D01*
X71658729Y-139407448D01*
X71622991Y-139436778D01*
X71466466Y-139520443D01*
X71296627Y-139571963D01*
X71230443Y-139578481D01*
X71164260Y-139585000D01*
X71075740Y-139585000D01*
X71009557Y-139578481D01*
X70943373Y-139571963D01*
X70773534Y-139520443D01*
X70617009Y-139436778D01*
X70581271Y-139407448D01*
X70479814Y-139324186D01*
X70384887Y-139208516D01*
X70367222Y-139186991D01*
X70283557Y-139030466D01*
X70232037Y-138860627D01*
X70214641Y-138684000D01*
X70232037Y-138507373D01*
X70283557Y-138337534D01*
X70367222Y-138181009D01*
X70396552Y-138145271D01*
X70479814Y-138043814D01*
X70594099Y-137950024D01*
X70617009Y-137931222D01*
X70773534Y-137847557D01*
X70943373Y-137796037D01*
X71009557Y-137789519D01*
X71075740Y-137783000D01*
X71164260Y-137783000D01*
X71230443Y-137789519D01*
X71230443Y-137789519D01*
G37*
G36*
X99734823Y-136321313D02*
G01*
X99895242Y-136369976D01*
X99930833Y-136389000D01*
X100043078Y-136448996D01*
X100172659Y-136555341D01*
X100279004Y-136684922D01*
X100279005Y-136684924D01*
X100358024Y-136832758D01*
X100406687Y-136993177D01*
X100423117Y-137160000D01*
X100406687Y-137326823D01*
X100358024Y-137487242D01*
X100287114Y-137619906D01*
X100279004Y-137635078D01*
X100172659Y-137764659D01*
X100043078Y-137871004D01*
X100043076Y-137871005D01*
X99895242Y-137950024D01*
X99734823Y-137998687D01*
X99609804Y-138011000D01*
X99526196Y-138011000D01*
X99401177Y-137998687D01*
X99240758Y-137950024D01*
X99092924Y-137871005D01*
X99092922Y-137871004D01*
X98963341Y-137764659D01*
X98856996Y-137635078D01*
X98848886Y-137619906D01*
X98777976Y-137487242D01*
X98729313Y-137326823D01*
X98712883Y-137160000D01*
X98729313Y-136993177D01*
X98777976Y-136832758D01*
X98856995Y-136684924D01*
X98856996Y-136684922D01*
X98963341Y-136555341D01*
X99092922Y-136448996D01*
X99205167Y-136389000D01*
X99240758Y-136369976D01*
X99401177Y-136321313D01*
X99526196Y-136309000D01*
X99609804Y-136309000D01*
X99734823Y-136321313D01*
X99734823Y-136321313D01*
G37*
G36*
X92114823Y-136321313D02*
G01*
X92275242Y-136369976D01*
X92310833Y-136389000D01*
X92423078Y-136448996D01*
X92552659Y-136555341D01*
X92659004Y-136684922D01*
X92659005Y-136684924D01*
X92738024Y-136832758D01*
X92786687Y-136993177D01*
X92803117Y-137160000D01*
X92786687Y-137326823D01*
X92738024Y-137487242D01*
X92667114Y-137619906D01*
X92659004Y-137635078D01*
X92552659Y-137764659D01*
X92423078Y-137871004D01*
X92423076Y-137871005D01*
X92275242Y-137950024D01*
X92114823Y-137998687D01*
X91989804Y-138011000D01*
X91906196Y-138011000D01*
X91781177Y-137998687D01*
X91620758Y-137950024D01*
X91472924Y-137871005D01*
X91472922Y-137871004D01*
X91343341Y-137764659D01*
X91236996Y-137635078D01*
X91228886Y-137619906D01*
X91157976Y-137487242D01*
X91109313Y-137326823D01*
X91092883Y-137160000D01*
X91109313Y-136993177D01*
X91157976Y-136832758D01*
X91236995Y-136684924D01*
X91236996Y-136684922D01*
X91343341Y-136555341D01*
X91472922Y-136448996D01*
X91585167Y-136389000D01*
X91620758Y-136369976D01*
X91781177Y-136321313D01*
X91906196Y-136309000D01*
X91989804Y-136309000D01*
X92114823Y-136321313D01*
X92114823Y-136321313D01*
G37*
G36*
X106043589Y-136398876D02*
G01*
X106142893Y-136418629D01*
X106283206Y-136476748D01*
X106409484Y-136561125D01*
X106516875Y-136668516D01*
X106601252Y-136794794D01*
X106659371Y-136935107D01*
X106689000Y-137084063D01*
X106689000Y-137235937D01*
X106659371Y-137384893D01*
X106601252Y-137525206D01*
X106516875Y-137651484D01*
X106409484Y-137758875D01*
X106283206Y-137843252D01*
X106142893Y-137901371D01*
X106043589Y-137921124D01*
X105993938Y-137931000D01*
X105842062Y-137931000D01*
X105792411Y-137921124D01*
X105693107Y-137901371D01*
X105552794Y-137843252D01*
X105426516Y-137758875D01*
X105319125Y-137651484D01*
X105234748Y-137525206D01*
X105176629Y-137384893D01*
X105147000Y-137235937D01*
X105147000Y-137084063D01*
X105176629Y-136935107D01*
X105234748Y-136794794D01*
X105319125Y-136668516D01*
X105426516Y-136561125D01*
X105552794Y-136476748D01*
X105693107Y-136418629D01*
X105792411Y-136398876D01*
X105842062Y-136389000D01*
X105993938Y-136389000D01*
X106043589Y-136398876D01*
X106043589Y-136398876D01*
G37*
G36*
X71230443Y-135249519D02*
G01*
X71296627Y-135256037D01*
X71466466Y-135307557D01*
X71622991Y-135391222D01*
X71645901Y-135410024D01*
X71760186Y-135503814D01*
X71843448Y-135605271D01*
X71872778Y-135641009D01*
X71956443Y-135797534D01*
X72007963Y-135967373D01*
X72025359Y-136144000D01*
X72007963Y-136320627D01*
X71956443Y-136490466D01*
X71872778Y-136646991D01*
X71855113Y-136668516D01*
X71760186Y-136784186D01*
X71658729Y-136867448D01*
X71622991Y-136896778D01*
X71466466Y-136980443D01*
X71296627Y-137031963D01*
X71230443Y-137038481D01*
X71164260Y-137045000D01*
X71075740Y-137045000D01*
X71009557Y-137038481D01*
X70943373Y-137031963D01*
X70773534Y-136980443D01*
X70617009Y-136896778D01*
X70581271Y-136867448D01*
X70479814Y-136784186D01*
X70384887Y-136668516D01*
X70367222Y-136646991D01*
X70283557Y-136490466D01*
X70232037Y-136320627D01*
X70214641Y-136144000D01*
X70232037Y-135967373D01*
X70283557Y-135797534D01*
X70367222Y-135641009D01*
X70396552Y-135605271D01*
X70479814Y-135503814D01*
X70594099Y-135410024D01*
X70617009Y-135391222D01*
X70773534Y-135307557D01*
X70943373Y-135256037D01*
X71009557Y-135249519D01*
X71075740Y-135243000D01*
X71164260Y-135243000D01*
X71230443Y-135249519D01*
X71230443Y-135249519D01*
G37*
G36*
X100419000Y-135471000D02*
G01*
X98717000Y-135471000D01*
X98717000Y-133769000D01*
X100419000Y-133769000D01*
X100419000Y-135471000D01*
X100419000Y-135471000D01*
G37*
G36*
X92114823Y-133781313D02*
G01*
X92275242Y-133829976D01*
X92310833Y-133849000D01*
X92423078Y-133908996D01*
X92552659Y-134015341D01*
X92659004Y-134144922D01*
X92659005Y-134144924D01*
X92738024Y-134292758D01*
X92786687Y-134453177D01*
X92803117Y-134620000D01*
X92786687Y-134786823D01*
X92738024Y-134947242D01*
X92667114Y-135079906D01*
X92659004Y-135095078D01*
X92552659Y-135224659D01*
X92423078Y-135331004D01*
X92423076Y-135331005D01*
X92275242Y-135410024D01*
X92114823Y-135458687D01*
X91989804Y-135471000D01*
X91906196Y-135471000D01*
X91781177Y-135458687D01*
X91620758Y-135410024D01*
X91472924Y-135331005D01*
X91472922Y-135331004D01*
X91343341Y-135224659D01*
X91236996Y-135095078D01*
X91228886Y-135079906D01*
X91157976Y-134947242D01*
X91109313Y-134786823D01*
X91092883Y-134620000D01*
X91109313Y-134453177D01*
X91157976Y-134292758D01*
X91236995Y-134144924D01*
X91236996Y-134144922D01*
X91343341Y-134015341D01*
X91472922Y-133908996D01*
X91585167Y-133849000D01*
X91620758Y-133829976D01*
X91781177Y-133781313D01*
X91906196Y-133769000D01*
X91989804Y-133769000D01*
X92114823Y-133781313D01*
X92114823Y-133781313D01*
G37*
G36*
X106043589Y-133858876D02*
G01*
X106142893Y-133878629D01*
X106283206Y-133936748D01*
X106409484Y-134021125D01*
X106516875Y-134128516D01*
X106601252Y-134254794D01*
X106659371Y-134395107D01*
X106689000Y-134544063D01*
X106689000Y-134695937D01*
X106659371Y-134844893D01*
X106601252Y-134985206D01*
X106516875Y-135111484D01*
X106409484Y-135218875D01*
X106283206Y-135303252D01*
X106142893Y-135361371D01*
X106043589Y-135381124D01*
X105993938Y-135391000D01*
X105842062Y-135391000D01*
X105792411Y-135381124D01*
X105693107Y-135361371D01*
X105552794Y-135303252D01*
X105426516Y-135218875D01*
X105319125Y-135111484D01*
X105234748Y-134985206D01*
X105176629Y-134844893D01*
X105147000Y-134695937D01*
X105147000Y-134544063D01*
X105176629Y-134395107D01*
X105234748Y-134254794D01*
X105319125Y-134128516D01*
X105426516Y-134021125D01*
X105552794Y-133936748D01*
X105693107Y-133878629D01*
X105792411Y-133858876D01*
X105842062Y-133849000D01*
X105993938Y-133849000D01*
X106043589Y-133858876D01*
X106043589Y-133858876D01*
G37*
G36*
X71230442Y-132709518D02*
G01*
X71296627Y-132716037D01*
X71466466Y-132767557D01*
X71622991Y-132851222D01*
X71658729Y-132880552D01*
X71760186Y-132963814D01*
X71843448Y-133065271D01*
X71872778Y-133101009D01*
X71956443Y-133257534D01*
X72007963Y-133427373D01*
X72025359Y-133604000D01*
X72007963Y-133780627D01*
X71956443Y-133950466D01*
X71872778Y-134106991D01*
X71855113Y-134128516D01*
X71760186Y-134244186D01*
X71658729Y-134327448D01*
X71622991Y-134356778D01*
X71466466Y-134440443D01*
X71296627Y-134491963D01*
X71230442Y-134498482D01*
X71164260Y-134505000D01*
X71075740Y-134505000D01*
X71009558Y-134498482D01*
X70943373Y-134491963D01*
X70773534Y-134440443D01*
X70617009Y-134356778D01*
X70581271Y-134327448D01*
X70479814Y-134244186D01*
X70384887Y-134128516D01*
X70367222Y-134106991D01*
X70283557Y-133950466D01*
X70232037Y-133780627D01*
X70214641Y-133604000D01*
X70232037Y-133427373D01*
X70283557Y-133257534D01*
X70367222Y-133101009D01*
X70396552Y-133065271D01*
X70479814Y-132963814D01*
X70581271Y-132880552D01*
X70617009Y-132851222D01*
X70773534Y-132767557D01*
X70943373Y-132716037D01*
X71009558Y-132709518D01*
X71075740Y-132703000D01*
X71164260Y-132703000D01*
X71230442Y-132709518D01*
X71230442Y-132709518D01*
G37*
G36*
X71230442Y-130169518D02*
G01*
X71296627Y-130176037D01*
X71466466Y-130227557D01*
X71622991Y-130311222D01*
X71658729Y-130340552D01*
X71760186Y-130423814D01*
X71843448Y-130525271D01*
X71872778Y-130561009D01*
X71956443Y-130717534D01*
X72007963Y-130887373D01*
X72025359Y-131064000D01*
X72007963Y-131240627D01*
X71956443Y-131410466D01*
X71872778Y-131566991D01*
X71843448Y-131602729D01*
X71760186Y-131704186D01*
X71658729Y-131787448D01*
X71622991Y-131816778D01*
X71466466Y-131900443D01*
X71296627Y-131951963D01*
X71230443Y-131958481D01*
X71164260Y-131965000D01*
X71075740Y-131965000D01*
X71009557Y-131958481D01*
X70943373Y-131951963D01*
X70773534Y-131900443D01*
X70617009Y-131816778D01*
X70581271Y-131787448D01*
X70479814Y-131704186D01*
X70396552Y-131602729D01*
X70367222Y-131566991D01*
X70283557Y-131410466D01*
X70232037Y-131240627D01*
X70214641Y-131064000D01*
X70232037Y-130887373D01*
X70283557Y-130717534D01*
X70367222Y-130561009D01*
X70396552Y-130525271D01*
X70479814Y-130423814D01*
X70581271Y-130340552D01*
X70617009Y-130311222D01*
X70773534Y-130227557D01*
X70943373Y-130176037D01*
X71009558Y-130169518D01*
X71075740Y-130163000D01*
X71164260Y-130163000D01*
X71230442Y-130169518D01*
X71230442Y-130169518D01*
G37*
G36*
X99734823Y-128193313D02*
G01*
X99895242Y-128241976D01*
X100027906Y-128312886D01*
X100043078Y-128320996D01*
X100172659Y-128427341D01*
X100279004Y-128556922D01*
X100279005Y-128556924D01*
X100358024Y-128704758D01*
X100406687Y-128865177D01*
X100423117Y-129032000D01*
X100406687Y-129198823D01*
X100358024Y-129359242D01*
X100287114Y-129491906D01*
X100279004Y-129507078D01*
X100172659Y-129636659D01*
X100043078Y-129743004D01*
X100043076Y-129743005D01*
X99895242Y-129822024D01*
X99734823Y-129870687D01*
X99609804Y-129883000D01*
X99526196Y-129883000D01*
X99401177Y-129870687D01*
X99240758Y-129822024D01*
X99092924Y-129743005D01*
X99092922Y-129743004D01*
X98963341Y-129636659D01*
X98856996Y-129507078D01*
X98848886Y-129491906D01*
X98777976Y-129359242D01*
X98729313Y-129198823D01*
X98712883Y-129032000D01*
X98729313Y-128865177D01*
X98777976Y-128704758D01*
X98856995Y-128556924D01*
X98856996Y-128556922D01*
X98963341Y-128427341D01*
X99092922Y-128320996D01*
X99108094Y-128312886D01*
X99240758Y-128241976D01*
X99401177Y-128193313D01*
X99526196Y-128181000D01*
X99609804Y-128181000D01*
X99734823Y-128193313D01*
X99734823Y-128193313D01*
G37*
G36*
X92114823Y-128193313D02*
G01*
X92275242Y-128241976D01*
X92407906Y-128312886D01*
X92423078Y-128320996D01*
X92552659Y-128427341D01*
X92659004Y-128556922D01*
X92659005Y-128556924D01*
X92738024Y-128704758D01*
X92786687Y-128865177D01*
X92803117Y-129032000D01*
X92786687Y-129198823D01*
X92738024Y-129359242D01*
X92667114Y-129491906D01*
X92659004Y-129507078D01*
X92552659Y-129636659D01*
X92423078Y-129743004D01*
X92423076Y-129743005D01*
X92275242Y-129822024D01*
X92114823Y-129870687D01*
X91989804Y-129883000D01*
X91906196Y-129883000D01*
X91781177Y-129870687D01*
X91620758Y-129822024D01*
X91472924Y-129743005D01*
X91472922Y-129743004D01*
X91343341Y-129636659D01*
X91236996Y-129507078D01*
X91228886Y-129491906D01*
X91157976Y-129359242D01*
X91109313Y-129198823D01*
X91092883Y-129032000D01*
X91109313Y-128865177D01*
X91157976Y-128704758D01*
X91236995Y-128556924D01*
X91236996Y-128556922D01*
X91343341Y-128427341D01*
X91472922Y-128320996D01*
X91488094Y-128312886D01*
X91620758Y-128241976D01*
X91781177Y-128193313D01*
X91906196Y-128181000D01*
X91989804Y-128181000D01*
X92114823Y-128193313D01*
X92114823Y-128193313D01*
G37*
G36*
X71230442Y-127629518D02*
G01*
X71296627Y-127636037D01*
X71466466Y-127687557D01*
X71622991Y-127771222D01*
X71658729Y-127800552D01*
X71760186Y-127883814D01*
X71843448Y-127985271D01*
X71872778Y-128021009D01*
X71956443Y-128177534D01*
X72007963Y-128347373D01*
X72025359Y-128524000D01*
X72007963Y-128700627D01*
X71956443Y-128870466D01*
X71872778Y-129026991D01*
X71868667Y-129032000D01*
X71760186Y-129164186D01*
X71658729Y-129247448D01*
X71622991Y-129276778D01*
X71466466Y-129360443D01*
X71296627Y-129411963D01*
X71230443Y-129418481D01*
X71164260Y-129425000D01*
X71075740Y-129425000D01*
X71009557Y-129418481D01*
X70943373Y-129411963D01*
X70773534Y-129360443D01*
X70617009Y-129276778D01*
X70581271Y-129247448D01*
X70479814Y-129164186D01*
X70371333Y-129032000D01*
X70367222Y-129026991D01*
X70283557Y-128870466D01*
X70232037Y-128700627D01*
X70214641Y-128524000D01*
X70232037Y-128347373D01*
X70283557Y-128177534D01*
X70367222Y-128021009D01*
X70396552Y-127985271D01*
X70479814Y-127883814D01*
X70581271Y-127800552D01*
X70617009Y-127771222D01*
X70773534Y-127687557D01*
X70943373Y-127636037D01*
X71009558Y-127629518D01*
X71075740Y-127623000D01*
X71164260Y-127623000D01*
X71230442Y-127629518D01*
X71230442Y-127629518D01*
G37*
G36*
X106039183Y-126492000D02*
G01*
X106142893Y-126512629D01*
X106283206Y-126570748D01*
X106409484Y-126655125D01*
X106516875Y-126762516D01*
X106601252Y-126888794D01*
X106659371Y-127029107D01*
X106689000Y-127178063D01*
X106689000Y-127329937D01*
X106659371Y-127478893D01*
X106601252Y-127619206D01*
X106516875Y-127745484D01*
X106409484Y-127852875D01*
X106283206Y-127937252D01*
X106142893Y-127995371D01*
X106043589Y-128015124D01*
X105993938Y-128025000D01*
X105842062Y-128025000D01*
X105792411Y-128015124D01*
X105693107Y-127995371D01*
X105552794Y-127937252D01*
X105426516Y-127852875D01*
X105319125Y-127745484D01*
X105234748Y-127619206D01*
X105176629Y-127478893D01*
X105147000Y-127329937D01*
X105147000Y-127178063D01*
X105176629Y-127029107D01*
X105234748Y-126888794D01*
X105319125Y-126762516D01*
X105426516Y-126655125D01*
X105552794Y-126570748D01*
X105693107Y-126512629D01*
X105796817Y-126492000D01*
X105842062Y-126483000D01*
X105993938Y-126483000D01*
X106039183Y-126492000D01*
X106039183Y-126492000D01*
G37*
G36*
X92114823Y-125653313D02*
G01*
X92275242Y-125701976D01*
X92407906Y-125772886D01*
X92423078Y-125780996D01*
X92552659Y-125887341D01*
X92659004Y-126016922D01*
X92659005Y-126016924D01*
X92738024Y-126164758D01*
X92786687Y-126325177D01*
X92803117Y-126492000D01*
X92786687Y-126658823D01*
X92738024Y-126819242D01*
X92667114Y-126951906D01*
X92659004Y-126967078D01*
X92552659Y-127096659D01*
X92423078Y-127203004D01*
X92423076Y-127203005D01*
X92275242Y-127282024D01*
X92114823Y-127330687D01*
X91989804Y-127343000D01*
X91906196Y-127343000D01*
X91781177Y-127330687D01*
X91620758Y-127282024D01*
X91472924Y-127203005D01*
X91472922Y-127203004D01*
X91343341Y-127096659D01*
X91236996Y-126967078D01*
X91228886Y-126951906D01*
X91157976Y-126819242D01*
X91109313Y-126658823D01*
X91092883Y-126492000D01*
X91109313Y-126325177D01*
X91157976Y-126164758D01*
X91236995Y-126016924D01*
X91236996Y-126016922D01*
X91343341Y-125887341D01*
X91472922Y-125780996D01*
X91488094Y-125772886D01*
X91620758Y-125701976D01*
X91781177Y-125653313D01*
X91906196Y-125641000D01*
X91989804Y-125641000D01*
X92114823Y-125653313D01*
X92114823Y-125653313D01*
G37*
G36*
X99734823Y-125653313D02*
G01*
X99895242Y-125701976D01*
X100027906Y-125772886D01*
X100043078Y-125780996D01*
X100172659Y-125887341D01*
X100279004Y-126016922D01*
X100279005Y-126016924D01*
X100358024Y-126164758D01*
X100406687Y-126325177D01*
X100423117Y-126492000D01*
X100406687Y-126658823D01*
X100358024Y-126819242D01*
X100287114Y-126951906D01*
X100279004Y-126967078D01*
X100172659Y-127096659D01*
X100043078Y-127203004D01*
X100043076Y-127203005D01*
X99895242Y-127282024D01*
X99734823Y-127330687D01*
X99609804Y-127343000D01*
X99526196Y-127343000D01*
X99401177Y-127330687D01*
X99240758Y-127282024D01*
X99092924Y-127203005D01*
X99092922Y-127203004D01*
X98963341Y-127096659D01*
X98856996Y-126967078D01*
X98848886Y-126951906D01*
X98777976Y-126819242D01*
X98729313Y-126658823D01*
X98712883Y-126492000D01*
X98729313Y-126325177D01*
X98777976Y-126164758D01*
X98856995Y-126016924D01*
X98856996Y-126016922D01*
X98963341Y-125887341D01*
X99092922Y-125780996D01*
X99108094Y-125772886D01*
X99240758Y-125701976D01*
X99401177Y-125653313D01*
X99526196Y-125641000D01*
X99609804Y-125641000D01*
X99734823Y-125653313D01*
X99734823Y-125653313D01*
G37*
G36*
X71230442Y-125089518D02*
G01*
X71296627Y-125096037D01*
X71466466Y-125147557D01*
X71622991Y-125231222D01*
X71658729Y-125260552D01*
X71760186Y-125343814D01*
X71843448Y-125445271D01*
X71872778Y-125481009D01*
X71956443Y-125637534D01*
X72007963Y-125807373D01*
X72025359Y-125984000D01*
X72007963Y-126160627D01*
X71956443Y-126330466D01*
X71872778Y-126486991D01*
X71868667Y-126492000D01*
X71760186Y-126624186D01*
X71658729Y-126707448D01*
X71622991Y-126736778D01*
X71466466Y-126820443D01*
X71296627Y-126871963D01*
X71230442Y-126878482D01*
X71164260Y-126885000D01*
X71075740Y-126885000D01*
X71009558Y-126878482D01*
X70943373Y-126871963D01*
X70773534Y-126820443D01*
X70617009Y-126736778D01*
X70581271Y-126707448D01*
X70479814Y-126624186D01*
X70371333Y-126492000D01*
X70367222Y-126486991D01*
X70283557Y-126330466D01*
X70232037Y-126160627D01*
X70214641Y-125984000D01*
X70232037Y-125807373D01*
X70283557Y-125637534D01*
X70367222Y-125481009D01*
X70396552Y-125445271D01*
X70479814Y-125343814D01*
X70581271Y-125260552D01*
X70617009Y-125231222D01*
X70773534Y-125147557D01*
X70943373Y-125096037D01*
X71009558Y-125089518D01*
X71075740Y-125083000D01*
X71164260Y-125083000D01*
X71230442Y-125089518D01*
X71230442Y-125089518D01*
G37*
G36*
X106039183Y-123952000D02*
G01*
X106142893Y-123972629D01*
X106283206Y-124030748D01*
X106409484Y-124115125D01*
X106516875Y-124222516D01*
X106601252Y-124348794D01*
X106659371Y-124489107D01*
X106689000Y-124638063D01*
X106689000Y-124789937D01*
X106659371Y-124938893D01*
X106601252Y-125079206D01*
X106516875Y-125205484D01*
X106409484Y-125312875D01*
X106283206Y-125397252D01*
X106142893Y-125455371D01*
X106043589Y-125475124D01*
X105993938Y-125485000D01*
X105842062Y-125485000D01*
X105792411Y-125475124D01*
X105693107Y-125455371D01*
X105552794Y-125397252D01*
X105426516Y-125312875D01*
X105319125Y-125205484D01*
X105234748Y-125079206D01*
X105176629Y-124938893D01*
X105147000Y-124789937D01*
X105147000Y-124638063D01*
X105176629Y-124489107D01*
X105234748Y-124348794D01*
X105319125Y-124222516D01*
X105426516Y-124115125D01*
X105552794Y-124030748D01*
X105693107Y-123972629D01*
X105796817Y-123952000D01*
X105842062Y-123943000D01*
X105993938Y-123943000D01*
X106039183Y-123952000D01*
X106039183Y-123952000D01*
G37*
G36*
X79119589Y-123698876D02*
G01*
X79218893Y-123718629D01*
X79359206Y-123776748D01*
X79485484Y-123861125D01*
X79592875Y-123968516D01*
X79677252Y-124094794D01*
X79735371Y-124235107D01*
X79765000Y-124384063D01*
X79765000Y-124535937D01*
X79735371Y-124684893D01*
X79677252Y-124825206D01*
X79592875Y-124951484D01*
X79485484Y-125058875D01*
X79359206Y-125143252D01*
X79218893Y-125201371D01*
X79119589Y-125221124D01*
X79069938Y-125231000D01*
X78918062Y-125231000D01*
X78868411Y-125221124D01*
X78769107Y-125201371D01*
X78628794Y-125143252D01*
X78502516Y-125058875D01*
X78395125Y-124951484D01*
X78310748Y-124825206D01*
X78252629Y-124684893D01*
X78223000Y-124535937D01*
X78223000Y-124384063D01*
X78252629Y-124235107D01*
X78310748Y-124094794D01*
X78395125Y-123968516D01*
X78502516Y-123861125D01*
X78628794Y-123776748D01*
X78769107Y-123718629D01*
X78868411Y-123698876D01*
X78918062Y-123689000D01*
X79069938Y-123689000D01*
X79119589Y-123698876D01*
X79119589Y-123698876D01*
G37*
G36*
X99734823Y-123113313D02*
G01*
X99895242Y-123161976D01*
X100027906Y-123232886D01*
X100043078Y-123240996D01*
X100172659Y-123347341D01*
X100279004Y-123476922D01*
X100279005Y-123476924D01*
X100358024Y-123624758D01*
X100406687Y-123785177D01*
X100423117Y-123952000D01*
X100406687Y-124118823D01*
X100358024Y-124279242D01*
X100301996Y-124384062D01*
X100279004Y-124427078D01*
X100172659Y-124556659D01*
X100043078Y-124663004D01*
X100043076Y-124663005D01*
X99895242Y-124742024D01*
X99734823Y-124790687D01*
X99609804Y-124803000D01*
X99526196Y-124803000D01*
X99401177Y-124790687D01*
X99240758Y-124742024D01*
X99092924Y-124663005D01*
X99092922Y-124663004D01*
X98963341Y-124556659D01*
X98856996Y-124427078D01*
X98834004Y-124384062D01*
X98777976Y-124279242D01*
X98729313Y-124118823D01*
X98712883Y-123952000D01*
X98729313Y-123785177D01*
X98777976Y-123624758D01*
X98856995Y-123476924D01*
X98856996Y-123476922D01*
X98963341Y-123347341D01*
X99092922Y-123240996D01*
X99108094Y-123232886D01*
X99240758Y-123161976D01*
X99401177Y-123113313D01*
X99526196Y-123101000D01*
X99609804Y-123101000D01*
X99734823Y-123113313D01*
X99734823Y-123113313D01*
G37*
G36*
X92114823Y-123113313D02*
G01*
X92275242Y-123161976D01*
X92407906Y-123232886D01*
X92423078Y-123240996D01*
X92552659Y-123347341D01*
X92659004Y-123476922D01*
X92659005Y-123476924D01*
X92738024Y-123624758D01*
X92786687Y-123785177D01*
X92803117Y-123952000D01*
X92786687Y-124118823D01*
X92738024Y-124279242D01*
X92681996Y-124384062D01*
X92659004Y-124427078D01*
X92552659Y-124556659D01*
X92423078Y-124663004D01*
X92423076Y-124663005D01*
X92275242Y-124742024D01*
X92114823Y-124790687D01*
X91989804Y-124803000D01*
X91906196Y-124803000D01*
X91781177Y-124790687D01*
X91620758Y-124742024D01*
X91472924Y-124663005D01*
X91472922Y-124663004D01*
X91343341Y-124556659D01*
X91236996Y-124427078D01*
X91214004Y-124384062D01*
X91157976Y-124279242D01*
X91109313Y-124118823D01*
X91092883Y-123952000D01*
X91109313Y-123785177D01*
X91157976Y-123624758D01*
X91236995Y-123476924D01*
X91236996Y-123476922D01*
X91343341Y-123347341D01*
X91472922Y-123240996D01*
X91488094Y-123232886D01*
X91620758Y-123161976D01*
X91781177Y-123113313D01*
X91906196Y-123101000D01*
X91989804Y-123101000D01*
X92114823Y-123113313D01*
X92114823Y-123113313D01*
G37*
G36*
X71230443Y-122549519D02*
G01*
X71296627Y-122556037D01*
X71466466Y-122607557D01*
X71622991Y-122691222D01*
X71658729Y-122720552D01*
X71760186Y-122803814D01*
X71843448Y-122905271D01*
X71872778Y-122941009D01*
X71956443Y-123097534D01*
X72007963Y-123267373D01*
X72025359Y-123444000D01*
X72007963Y-123620627D01*
X71956443Y-123790466D01*
X71872778Y-123946991D01*
X71868667Y-123952000D01*
X71760186Y-124084186D01*
X71658729Y-124167448D01*
X71622991Y-124196778D01*
X71466466Y-124280443D01*
X71296627Y-124331963D01*
X71230442Y-124338482D01*
X71164260Y-124345000D01*
X71075740Y-124345000D01*
X71009558Y-124338482D01*
X70943373Y-124331963D01*
X70773534Y-124280443D01*
X70617009Y-124196778D01*
X70581271Y-124167448D01*
X70479814Y-124084186D01*
X70371333Y-123952000D01*
X70367222Y-123946991D01*
X70283557Y-123790466D01*
X70232037Y-123620627D01*
X70214641Y-123444000D01*
X70232037Y-123267373D01*
X70283557Y-123097534D01*
X70367222Y-122941009D01*
X70396552Y-122905271D01*
X70479814Y-122803814D01*
X70581271Y-122720552D01*
X70617009Y-122691222D01*
X70773534Y-122607557D01*
X70943373Y-122556037D01*
X71009557Y-122549519D01*
X71075740Y-122543000D01*
X71164260Y-122543000D01*
X71230443Y-122549519D01*
X71230443Y-122549519D01*
G37*
G36*
X106039183Y-121412000D02*
G01*
X106142893Y-121432629D01*
X106283206Y-121490748D01*
X106409484Y-121575125D01*
X106516875Y-121682516D01*
X106601252Y-121808794D01*
X106659371Y-121949107D01*
X106689000Y-122098063D01*
X106689000Y-122249937D01*
X106659371Y-122398893D01*
X106601252Y-122539206D01*
X106516875Y-122665484D01*
X106409484Y-122772875D01*
X106283206Y-122857252D01*
X106142893Y-122915371D01*
X106043589Y-122935124D01*
X105993938Y-122945000D01*
X105842062Y-122945000D01*
X105792411Y-122935124D01*
X105693107Y-122915371D01*
X105552794Y-122857252D01*
X105426516Y-122772875D01*
X105319125Y-122665484D01*
X105234748Y-122539206D01*
X105176629Y-122398893D01*
X105147000Y-122249937D01*
X105147000Y-122098063D01*
X105176629Y-121949107D01*
X105234748Y-121808794D01*
X105319125Y-121682516D01*
X105426516Y-121575125D01*
X105552794Y-121490748D01*
X105693107Y-121432629D01*
X105796817Y-121412000D01*
X105842062Y-121403000D01*
X105993938Y-121403000D01*
X106039183Y-121412000D01*
X106039183Y-121412000D01*
G37*
G36*
X79119589Y-121158876D02*
G01*
X79218893Y-121178629D01*
X79359206Y-121236748D01*
X79485484Y-121321125D01*
X79592875Y-121428516D01*
X79677252Y-121554794D01*
X79735371Y-121695107D01*
X79765000Y-121844063D01*
X79765000Y-121995937D01*
X79735371Y-122144893D01*
X79677252Y-122285206D01*
X79592875Y-122411484D01*
X79485484Y-122518875D01*
X79359206Y-122603252D01*
X79218893Y-122661371D01*
X79119589Y-122681124D01*
X79069938Y-122691000D01*
X78918062Y-122691000D01*
X78868411Y-122681124D01*
X78769107Y-122661371D01*
X78628794Y-122603252D01*
X78502516Y-122518875D01*
X78395125Y-122411484D01*
X78310748Y-122285206D01*
X78252629Y-122144893D01*
X78223000Y-121995937D01*
X78223000Y-121844063D01*
X78252629Y-121695107D01*
X78310748Y-121554794D01*
X78395125Y-121428516D01*
X78502516Y-121321125D01*
X78628794Y-121236748D01*
X78769107Y-121178629D01*
X78868411Y-121158876D01*
X78918062Y-121149000D01*
X79069938Y-121149000D01*
X79119589Y-121158876D01*
X79119589Y-121158876D01*
G37*
G36*
X99734823Y-120573313D02*
G01*
X99895242Y-120621976D01*
X100027906Y-120692886D01*
X100043078Y-120700996D01*
X100172659Y-120807341D01*
X100279004Y-120936922D01*
X100279005Y-120936924D01*
X100358024Y-121084758D01*
X100406687Y-121245177D01*
X100423117Y-121412000D01*
X100406687Y-121578823D01*
X100358024Y-121739242D01*
X100301996Y-121844062D01*
X100279004Y-121887078D01*
X100172659Y-122016659D01*
X100043078Y-122123004D01*
X100043076Y-122123005D01*
X99895242Y-122202024D01*
X99734823Y-122250687D01*
X99609804Y-122263000D01*
X99526196Y-122263000D01*
X99401177Y-122250687D01*
X99240758Y-122202024D01*
X99092924Y-122123005D01*
X99092922Y-122123004D01*
X98963341Y-122016659D01*
X98856996Y-121887078D01*
X98834004Y-121844062D01*
X98777976Y-121739242D01*
X98729313Y-121578823D01*
X98712883Y-121412000D01*
X98729313Y-121245177D01*
X98777976Y-121084758D01*
X98856995Y-120936924D01*
X98856996Y-120936922D01*
X98963341Y-120807341D01*
X99092922Y-120700996D01*
X99108094Y-120692886D01*
X99240758Y-120621976D01*
X99401177Y-120573313D01*
X99526196Y-120561000D01*
X99609804Y-120561000D01*
X99734823Y-120573313D01*
X99734823Y-120573313D01*
G37*
G36*
X92114823Y-120573313D02*
G01*
X92275242Y-120621976D01*
X92407906Y-120692886D01*
X92423078Y-120700996D01*
X92552659Y-120807341D01*
X92659004Y-120936922D01*
X92659005Y-120936924D01*
X92738024Y-121084758D01*
X92786687Y-121245177D01*
X92803117Y-121412000D01*
X92786687Y-121578823D01*
X92738024Y-121739242D01*
X92681996Y-121844062D01*
X92659004Y-121887078D01*
X92552659Y-122016659D01*
X92423078Y-122123004D01*
X92423076Y-122123005D01*
X92275242Y-122202024D01*
X92114823Y-122250687D01*
X91989804Y-122263000D01*
X91906196Y-122263000D01*
X91781177Y-122250687D01*
X91620758Y-122202024D01*
X91472924Y-122123005D01*
X91472922Y-122123004D01*
X91343341Y-122016659D01*
X91236996Y-121887078D01*
X91214004Y-121844062D01*
X91157976Y-121739242D01*
X91109313Y-121578823D01*
X91092883Y-121412000D01*
X91109313Y-121245177D01*
X91157976Y-121084758D01*
X91236995Y-120936924D01*
X91236996Y-120936922D01*
X91343341Y-120807341D01*
X91472922Y-120700996D01*
X91488094Y-120692886D01*
X91620758Y-120621976D01*
X91781177Y-120573313D01*
X91906196Y-120561000D01*
X91989804Y-120561000D01*
X92114823Y-120573313D01*
X92114823Y-120573313D01*
G37*
G36*
X71230443Y-120009519D02*
G01*
X71296627Y-120016037D01*
X71466466Y-120067557D01*
X71622991Y-120151222D01*
X71658729Y-120180552D01*
X71760186Y-120263814D01*
X71843448Y-120365271D01*
X71872778Y-120401009D01*
X71956443Y-120557534D01*
X72007963Y-120727373D01*
X72025359Y-120904000D01*
X72007963Y-121080627D01*
X71956443Y-121250466D01*
X71872778Y-121406991D01*
X71868667Y-121412000D01*
X71760186Y-121544186D01*
X71658729Y-121627448D01*
X71622991Y-121656778D01*
X71466466Y-121740443D01*
X71296627Y-121791963D01*
X71230442Y-121798482D01*
X71164260Y-121805000D01*
X71075740Y-121805000D01*
X71009558Y-121798482D01*
X70943373Y-121791963D01*
X70773534Y-121740443D01*
X70617009Y-121656778D01*
X70581271Y-121627448D01*
X70479814Y-121544186D01*
X70371333Y-121412000D01*
X70367222Y-121406991D01*
X70283557Y-121250466D01*
X70232037Y-121080627D01*
X70214641Y-120904000D01*
X70232037Y-120727373D01*
X70283557Y-120557534D01*
X70367222Y-120401009D01*
X70396552Y-120365271D01*
X70479814Y-120263814D01*
X70581271Y-120180552D01*
X70617009Y-120151222D01*
X70773534Y-120067557D01*
X70943373Y-120016037D01*
X71009557Y-120009519D01*
X71075740Y-120003000D01*
X71164260Y-120003000D01*
X71230443Y-120009519D01*
X71230443Y-120009519D01*
G37*
G36*
X79119589Y-118618876D02*
G01*
X79218893Y-118638629D01*
X79359206Y-118696748D01*
X79485484Y-118781125D01*
X79592875Y-118888516D01*
X79677252Y-119014794D01*
X79735371Y-119155107D01*
X79765000Y-119304063D01*
X79765000Y-119455937D01*
X79735371Y-119604893D01*
X79677252Y-119745206D01*
X79592875Y-119871484D01*
X79485484Y-119978875D01*
X79359206Y-120063252D01*
X79218893Y-120121371D01*
X79119589Y-120141124D01*
X79069938Y-120151000D01*
X78918062Y-120151000D01*
X78868411Y-120141124D01*
X78769107Y-120121371D01*
X78628794Y-120063252D01*
X78502516Y-119978875D01*
X78395125Y-119871484D01*
X78310748Y-119745206D01*
X78252629Y-119604893D01*
X78223000Y-119455937D01*
X78223000Y-119304063D01*
X78252629Y-119155107D01*
X78310748Y-119014794D01*
X78395125Y-118888516D01*
X78502516Y-118781125D01*
X78628794Y-118696748D01*
X78769107Y-118638629D01*
X78868411Y-118618876D01*
X78918062Y-118609000D01*
X79069938Y-118609000D01*
X79119589Y-118618876D01*
X79119589Y-118618876D01*
G37*
G36*
X92114823Y-118033313D02*
G01*
X92275242Y-118081976D01*
X92407906Y-118152886D01*
X92423078Y-118160996D01*
X92552659Y-118267341D01*
X92659004Y-118396922D01*
X92659005Y-118396924D01*
X92738024Y-118544758D01*
X92786687Y-118705177D01*
X92803117Y-118872000D01*
X92786687Y-119038823D01*
X92738024Y-119199242D01*
X92681996Y-119304062D01*
X92659004Y-119347078D01*
X92552659Y-119476659D01*
X92423078Y-119583004D01*
X92423076Y-119583005D01*
X92275242Y-119662024D01*
X92114823Y-119710687D01*
X91989804Y-119723000D01*
X91906196Y-119723000D01*
X91781177Y-119710687D01*
X91620758Y-119662024D01*
X91472924Y-119583005D01*
X91472922Y-119583004D01*
X91343341Y-119476659D01*
X91236996Y-119347078D01*
X91214004Y-119304062D01*
X91157976Y-119199242D01*
X91109313Y-119038823D01*
X91092883Y-118872000D01*
X91109313Y-118705177D01*
X91157976Y-118544758D01*
X91236995Y-118396924D01*
X91236996Y-118396922D01*
X91343341Y-118267341D01*
X91472922Y-118160996D01*
X91488094Y-118152886D01*
X91620758Y-118081976D01*
X91781177Y-118033313D01*
X91906196Y-118021000D01*
X91989804Y-118021000D01*
X92114823Y-118033313D01*
X92114823Y-118033313D01*
G37*
G36*
X99734823Y-118033313D02*
G01*
X99895242Y-118081976D01*
X100027906Y-118152886D01*
X100043078Y-118160996D01*
X100172659Y-118267341D01*
X100279004Y-118396922D01*
X100279005Y-118396924D01*
X100358024Y-118544758D01*
X100406687Y-118705177D01*
X100423117Y-118872000D01*
X100406687Y-119038823D01*
X100358024Y-119199242D01*
X100301996Y-119304062D01*
X100279004Y-119347078D01*
X100172659Y-119476659D01*
X100043078Y-119583004D01*
X100043076Y-119583005D01*
X99895242Y-119662024D01*
X99734823Y-119710687D01*
X99609804Y-119723000D01*
X99526196Y-119723000D01*
X99401177Y-119710687D01*
X99240758Y-119662024D01*
X99092924Y-119583005D01*
X99092922Y-119583004D01*
X98963341Y-119476659D01*
X98856996Y-119347078D01*
X98834004Y-119304062D01*
X98777976Y-119199242D01*
X98729313Y-119038823D01*
X98712883Y-118872000D01*
X98729313Y-118705177D01*
X98777976Y-118544758D01*
X98856995Y-118396924D01*
X98856996Y-118396922D01*
X98963341Y-118267341D01*
X99092922Y-118160996D01*
X99108094Y-118152886D01*
X99240758Y-118081976D01*
X99401177Y-118033313D01*
X99526196Y-118021000D01*
X99609804Y-118021000D01*
X99734823Y-118033313D01*
X99734823Y-118033313D01*
G37*
G36*
X72021000Y-119265000D02*
G01*
X70219000Y-119265000D01*
X70219000Y-117463000D01*
X72021000Y-117463000D01*
X72021000Y-119265000D01*
X72021000Y-119265000D01*
G37*
G36*
X86739589Y-116078876D02*
G01*
X86838893Y-116098629D01*
X86979206Y-116156748D01*
X87105484Y-116241125D01*
X87212875Y-116348516D01*
X87297252Y-116474794D01*
X87355371Y-116615107D01*
X87385000Y-116764063D01*
X87385000Y-116915937D01*
X87355371Y-117064893D01*
X87297252Y-117205206D01*
X87212875Y-117331484D01*
X87105484Y-117438875D01*
X86979206Y-117523252D01*
X86838893Y-117581371D01*
X86739589Y-117601124D01*
X86689938Y-117611000D01*
X86538062Y-117611000D01*
X86488411Y-117601124D01*
X86389107Y-117581371D01*
X86248794Y-117523252D01*
X86122516Y-117438875D01*
X86015125Y-117331484D01*
X85930748Y-117205206D01*
X85872629Y-117064893D01*
X85843000Y-116915937D01*
X85843000Y-116764063D01*
X85872629Y-116615107D01*
X85930748Y-116474794D01*
X86015125Y-116348516D01*
X86122516Y-116241125D01*
X86248794Y-116156748D01*
X86389107Y-116098629D01*
X86488411Y-116078876D01*
X86538062Y-116069000D01*
X86689938Y-116069000D01*
X86739589Y-116078876D01*
X86739589Y-116078876D01*
G37*
G36*
X106043589Y-116078876D02*
G01*
X106142893Y-116098629D01*
X106283206Y-116156748D01*
X106409484Y-116241125D01*
X106516875Y-116348516D01*
X106601252Y-116474794D01*
X106659371Y-116615107D01*
X106689000Y-116764063D01*
X106689000Y-116915937D01*
X106659371Y-117064893D01*
X106601252Y-117205206D01*
X106516875Y-117331484D01*
X106409484Y-117438875D01*
X106283206Y-117523252D01*
X106142893Y-117581371D01*
X106043589Y-117601124D01*
X105993938Y-117611000D01*
X105842062Y-117611000D01*
X105792411Y-117601124D01*
X105693107Y-117581371D01*
X105552794Y-117523252D01*
X105426516Y-117438875D01*
X105319125Y-117331484D01*
X105234748Y-117205206D01*
X105176629Y-117064893D01*
X105147000Y-116915937D01*
X105147000Y-116764063D01*
X105176629Y-116615107D01*
X105234748Y-116474794D01*
X105319125Y-116348516D01*
X105426516Y-116241125D01*
X105552794Y-116156748D01*
X105693107Y-116098629D01*
X105792411Y-116078876D01*
X105842062Y-116069000D01*
X105993938Y-116069000D01*
X106043589Y-116078876D01*
X106043589Y-116078876D01*
G37*
G36*
X92114823Y-115493313D02*
G01*
X92275242Y-115541976D01*
X92407906Y-115612886D01*
X92423078Y-115620996D01*
X92552659Y-115727341D01*
X92659004Y-115856922D01*
X92659005Y-115856924D01*
X92738024Y-116004758D01*
X92786687Y-116165177D01*
X92803117Y-116332000D01*
X92786687Y-116498823D01*
X92738024Y-116659242D01*
X92681996Y-116764062D01*
X92659004Y-116807078D01*
X92552659Y-116936659D01*
X92423078Y-117043004D01*
X92423076Y-117043005D01*
X92275242Y-117122024D01*
X92114823Y-117170687D01*
X91989804Y-117183000D01*
X91906196Y-117183000D01*
X91781177Y-117170687D01*
X91620758Y-117122024D01*
X91472924Y-117043005D01*
X91472922Y-117043004D01*
X91343341Y-116936659D01*
X91236996Y-116807078D01*
X91214004Y-116764062D01*
X91157976Y-116659242D01*
X91109313Y-116498823D01*
X91092883Y-116332000D01*
X91109313Y-116165177D01*
X91157976Y-116004758D01*
X91236995Y-115856924D01*
X91236996Y-115856922D01*
X91343341Y-115727341D01*
X91472922Y-115620996D01*
X91488094Y-115612886D01*
X91620758Y-115541976D01*
X91781177Y-115493313D01*
X91906196Y-115481000D01*
X91989804Y-115481000D01*
X92114823Y-115493313D01*
X92114823Y-115493313D01*
G37*
G36*
X99734823Y-115493313D02*
G01*
X99895242Y-115541976D01*
X100027906Y-115612886D01*
X100043078Y-115620996D01*
X100172659Y-115727341D01*
X100279004Y-115856922D01*
X100279005Y-115856924D01*
X100358024Y-116004758D01*
X100406687Y-116165177D01*
X100423117Y-116332000D01*
X100406687Y-116498823D01*
X100358024Y-116659242D01*
X100301996Y-116764062D01*
X100279004Y-116807078D01*
X100172659Y-116936659D01*
X100043078Y-117043004D01*
X100043076Y-117043005D01*
X99895242Y-117122024D01*
X99734823Y-117170687D01*
X99609804Y-117183000D01*
X99526196Y-117183000D01*
X99401177Y-117170687D01*
X99240758Y-117122024D01*
X99092924Y-117043005D01*
X99092922Y-117043004D01*
X98963341Y-116936659D01*
X98856996Y-116807078D01*
X98834004Y-116764062D01*
X98777976Y-116659242D01*
X98729313Y-116498823D01*
X98712883Y-116332000D01*
X98729313Y-116165177D01*
X98777976Y-116004758D01*
X98856995Y-115856924D01*
X98856996Y-115856922D01*
X98963341Y-115727341D01*
X99092922Y-115620996D01*
X99108094Y-115612886D01*
X99240758Y-115541976D01*
X99401177Y-115493313D01*
X99526196Y-115481000D01*
X99609804Y-115481000D01*
X99734823Y-115493313D01*
X99734823Y-115493313D01*
G37*
G36*
X86739589Y-113538876D02*
G01*
X86838893Y-113558629D01*
X86979206Y-113616748D01*
X87105484Y-113701125D01*
X87212875Y-113808516D01*
X87297252Y-113934794D01*
X87355371Y-114075107D01*
X87385000Y-114224063D01*
X87385000Y-114375937D01*
X87355371Y-114524893D01*
X87297252Y-114665206D01*
X87212875Y-114791484D01*
X87105484Y-114898875D01*
X86979206Y-114983252D01*
X86838893Y-115041371D01*
X86739589Y-115061124D01*
X86689938Y-115071000D01*
X86538062Y-115071000D01*
X86488411Y-115061124D01*
X86389107Y-115041371D01*
X86248794Y-114983252D01*
X86122516Y-114898875D01*
X86015125Y-114791484D01*
X85930748Y-114665206D01*
X85872629Y-114524893D01*
X85843000Y-114375937D01*
X85843000Y-114224063D01*
X85872629Y-114075107D01*
X85930748Y-113934794D01*
X86015125Y-113808516D01*
X86122516Y-113701125D01*
X86248794Y-113616748D01*
X86389107Y-113558629D01*
X86488411Y-113538876D01*
X86538062Y-113529000D01*
X86689938Y-113529000D01*
X86739589Y-113538876D01*
X86739589Y-113538876D01*
G37*
G36*
X106043589Y-113538876D02*
G01*
X106142893Y-113558629D01*
X106283206Y-113616748D01*
X106409484Y-113701125D01*
X106516875Y-113808516D01*
X106601252Y-113934794D01*
X106659371Y-114075107D01*
X106689000Y-114224063D01*
X106689000Y-114375937D01*
X106659371Y-114524893D01*
X106601252Y-114665206D01*
X106516875Y-114791484D01*
X106409484Y-114898875D01*
X106283206Y-114983252D01*
X106142893Y-115041371D01*
X106043589Y-115061124D01*
X105993938Y-115071000D01*
X105842062Y-115071000D01*
X105792411Y-115061124D01*
X105693107Y-115041371D01*
X105552794Y-114983252D01*
X105426516Y-114898875D01*
X105319125Y-114791484D01*
X105234748Y-114665206D01*
X105176629Y-114524893D01*
X105147000Y-114375937D01*
X105147000Y-114224063D01*
X105176629Y-114075107D01*
X105234748Y-113934794D01*
X105319125Y-113808516D01*
X105426516Y-113701125D01*
X105552794Y-113616748D01*
X105693107Y-113558629D01*
X105792411Y-113538876D01*
X105842062Y-113529000D01*
X105993938Y-113529000D01*
X106043589Y-113538876D01*
X106043589Y-113538876D01*
G37*
G36*
X92114823Y-112953313D02*
G01*
X92275242Y-113001976D01*
X92407906Y-113072886D01*
X92423078Y-113080996D01*
X92552659Y-113187341D01*
X92659004Y-113316922D01*
X92659005Y-113316924D01*
X92738024Y-113464758D01*
X92786687Y-113625177D01*
X92803117Y-113792000D01*
X92786687Y-113958823D01*
X92738024Y-114119242D01*
X92681996Y-114224062D01*
X92659004Y-114267078D01*
X92552659Y-114396659D01*
X92423078Y-114503004D01*
X92423076Y-114503005D01*
X92275242Y-114582024D01*
X92114823Y-114630687D01*
X91989804Y-114643000D01*
X91906196Y-114643000D01*
X91781177Y-114630687D01*
X91620758Y-114582024D01*
X91472924Y-114503005D01*
X91472922Y-114503004D01*
X91343341Y-114396659D01*
X91236996Y-114267078D01*
X91214004Y-114224062D01*
X91157976Y-114119242D01*
X91109313Y-113958823D01*
X91092883Y-113792000D01*
X91109313Y-113625177D01*
X91157976Y-113464758D01*
X91236995Y-113316924D01*
X91236996Y-113316922D01*
X91343341Y-113187341D01*
X91472922Y-113080996D01*
X91488094Y-113072886D01*
X91620758Y-113001976D01*
X91781177Y-112953313D01*
X91906196Y-112941000D01*
X91989804Y-112941000D01*
X92114823Y-112953313D01*
X92114823Y-112953313D01*
G37*
G36*
X99734823Y-112953313D02*
G01*
X99895242Y-113001976D01*
X100027906Y-113072886D01*
X100043078Y-113080996D01*
X100172659Y-113187341D01*
X100279004Y-113316922D01*
X100279005Y-113316924D01*
X100358024Y-113464758D01*
X100406687Y-113625177D01*
X100423117Y-113792000D01*
X100406687Y-113958823D01*
X100358024Y-114119242D01*
X100301996Y-114224062D01*
X100279004Y-114267078D01*
X100172659Y-114396659D01*
X100043078Y-114503004D01*
X100043076Y-114503005D01*
X99895242Y-114582024D01*
X99734823Y-114630687D01*
X99609804Y-114643000D01*
X99526196Y-114643000D01*
X99401177Y-114630687D01*
X99240758Y-114582024D01*
X99092924Y-114503005D01*
X99092922Y-114503004D01*
X98963341Y-114396659D01*
X98856996Y-114267078D01*
X98834004Y-114224062D01*
X98777976Y-114119242D01*
X98729313Y-113958823D01*
X98712883Y-113792000D01*
X98729313Y-113625177D01*
X98777976Y-113464758D01*
X98856995Y-113316924D01*
X98856996Y-113316922D01*
X98963341Y-113187341D01*
X99092922Y-113080996D01*
X99108094Y-113072886D01*
X99240758Y-113001976D01*
X99401177Y-112953313D01*
X99526196Y-112941000D01*
X99609804Y-112941000D01*
X99734823Y-112953313D01*
X99734823Y-112953313D01*
G37*
G36*
X106043589Y-110998876D02*
G01*
X106142893Y-111018629D01*
X106283206Y-111076748D01*
X106409484Y-111161125D01*
X106516875Y-111268516D01*
X106601252Y-111394794D01*
X106659371Y-111535107D01*
X106689000Y-111684063D01*
X106689000Y-111835937D01*
X106659371Y-111984893D01*
X106601252Y-112125206D01*
X106516875Y-112251484D01*
X106409484Y-112358875D01*
X106283206Y-112443252D01*
X106142893Y-112501371D01*
X106043589Y-112521124D01*
X105993938Y-112531000D01*
X105842062Y-112531000D01*
X105792411Y-112521124D01*
X105693107Y-112501371D01*
X105552794Y-112443252D01*
X105426516Y-112358875D01*
X105319125Y-112251484D01*
X105234748Y-112125206D01*
X105176629Y-111984893D01*
X105147000Y-111835937D01*
X105147000Y-111684063D01*
X105176629Y-111535107D01*
X105234748Y-111394794D01*
X105319125Y-111268516D01*
X105426516Y-111161125D01*
X105552794Y-111076748D01*
X105693107Y-111018629D01*
X105792411Y-110998876D01*
X105842062Y-110989000D01*
X105993938Y-110989000D01*
X106043589Y-110998876D01*
X106043589Y-110998876D01*
G37*
G36*
X86739589Y-110998876D02*
G01*
X86838893Y-111018629D01*
X86979206Y-111076748D01*
X87105484Y-111161125D01*
X87212875Y-111268516D01*
X87297252Y-111394794D01*
X87355371Y-111535107D01*
X87385000Y-111684063D01*
X87385000Y-111835937D01*
X87355371Y-111984893D01*
X87297252Y-112125206D01*
X87212875Y-112251484D01*
X87105484Y-112358875D01*
X86979206Y-112443252D01*
X86838893Y-112501371D01*
X86739589Y-112521124D01*
X86689938Y-112531000D01*
X86538062Y-112531000D01*
X86488411Y-112521124D01*
X86389107Y-112501371D01*
X86248794Y-112443252D01*
X86122516Y-112358875D01*
X86015125Y-112251484D01*
X85930748Y-112125206D01*
X85872629Y-111984893D01*
X85843000Y-111835937D01*
X85843000Y-111684063D01*
X85872629Y-111535107D01*
X85930748Y-111394794D01*
X86015125Y-111268516D01*
X86122516Y-111161125D01*
X86248794Y-111076748D01*
X86389107Y-111018629D01*
X86488411Y-110998876D01*
X86538062Y-110989000D01*
X86689938Y-110989000D01*
X86739589Y-110998876D01*
X86739589Y-110998876D01*
G37*
G36*
X73531589Y-110998876D02*
G01*
X73630893Y-111018629D01*
X73771206Y-111076748D01*
X73897484Y-111161125D01*
X74004875Y-111268516D01*
X74089252Y-111394794D01*
X74147371Y-111535107D01*
X74177000Y-111684063D01*
X74177000Y-111835937D01*
X74147371Y-111984893D01*
X74089252Y-112125206D01*
X74004875Y-112251484D01*
X73897484Y-112358875D01*
X73771206Y-112443252D01*
X73630893Y-112501371D01*
X73531589Y-112521124D01*
X73481938Y-112531000D01*
X73330062Y-112531000D01*
X73280411Y-112521124D01*
X73181107Y-112501371D01*
X73040794Y-112443252D01*
X72914516Y-112358875D01*
X72807125Y-112251484D01*
X72722748Y-112125206D01*
X72664629Y-111984893D01*
X72635000Y-111835937D01*
X72635000Y-111684063D01*
X72664629Y-111535107D01*
X72722748Y-111394794D01*
X72807125Y-111268516D01*
X72914516Y-111161125D01*
X73040794Y-111076748D01*
X73181107Y-111018629D01*
X73280411Y-110998876D01*
X73330062Y-110989000D01*
X73481938Y-110989000D01*
X73531589Y-110998876D01*
X73531589Y-110998876D01*
G37*
G36*
X92114823Y-110413313D02*
G01*
X92275242Y-110461976D01*
X92407906Y-110532886D01*
X92423078Y-110540996D01*
X92552659Y-110647341D01*
X92659004Y-110776922D01*
X92659005Y-110776924D01*
X92738024Y-110924758D01*
X92786687Y-111085177D01*
X92803117Y-111252000D01*
X92786687Y-111418823D01*
X92738024Y-111579242D01*
X92681996Y-111684062D01*
X92659004Y-111727078D01*
X92552659Y-111856659D01*
X92423078Y-111963004D01*
X92423076Y-111963005D01*
X92275242Y-112042024D01*
X92114823Y-112090687D01*
X91989804Y-112103000D01*
X91906196Y-112103000D01*
X91781177Y-112090687D01*
X91620758Y-112042024D01*
X91472924Y-111963005D01*
X91472922Y-111963004D01*
X91343341Y-111856659D01*
X91236996Y-111727078D01*
X91214004Y-111684062D01*
X91157976Y-111579242D01*
X91109313Y-111418823D01*
X91092883Y-111252000D01*
X91109313Y-111085177D01*
X91157976Y-110924758D01*
X91236995Y-110776924D01*
X91236996Y-110776922D01*
X91343341Y-110647341D01*
X91472922Y-110540996D01*
X91488094Y-110532886D01*
X91620758Y-110461976D01*
X91781177Y-110413313D01*
X91906196Y-110401000D01*
X91989804Y-110401000D01*
X92114823Y-110413313D01*
X92114823Y-110413313D01*
G37*
G36*
X100419000Y-112103000D02*
G01*
X98717000Y-112103000D01*
X98717000Y-110401000D01*
X100419000Y-110401000D01*
X100419000Y-112103000D01*
X100419000Y-112103000D01*
G37*
G36*
X73531589Y-108458876D02*
G01*
X73630893Y-108478629D01*
X73771206Y-108536748D01*
X73897484Y-108621125D01*
X74004875Y-108728516D01*
X74089252Y-108854794D01*
X74147371Y-108995107D01*
X74177000Y-109144063D01*
X74177000Y-109295937D01*
X74147371Y-109444893D01*
X74089252Y-109585206D01*
X74004875Y-109711484D01*
X73897484Y-109818875D01*
X73771206Y-109903252D01*
X73630893Y-109961371D01*
X73531589Y-109981124D01*
X73481938Y-109991000D01*
X73330062Y-109991000D01*
X73280411Y-109981124D01*
X73181107Y-109961371D01*
X73040794Y-109903252D01*
X72914516Y-109818875D01*
X72807125Y-109711484D01*
X72722748Y-109585206D01*
X72664629Y-109444893D01*
X72635000Y-109295937D01*
X72635000Y-109144063D01*
X72664629Y-108995107D01*
X72722748Y-108854794D01*
X72807125Y-108728516D01*
X72914516Y-108621125D01*
X73040794Y-108536748D01*
X73181107Y-108478629D01*
X73280411Y-108458876D01*
X73330062Y-108449000D01*
X73481938Y-108449000D01*
X73531589Y-108458876D01*
X73531589Y-108458876D01*
G37*
G36*
X73531589Y-105918876D02*
G01*
X73630893Y-105938629D01*
X73771206Y-105996748D01*
X73897484Y-106081125D01*
X74004875Y-106188516D01*
X74089252Y-106314794D01*
X74147371Y-106455107D01*
X74177000Y-106604063D01*
X74177000Y-106755937D01*
X74147371Y-106904893D01*
X74089252Y-107045206D01*
X74004875Y-107171484D01*
X73897484Y-107278875D01*
X73771206Y-107363252D01*
X73630893Y-107421371D01*
X73531589Y-107441124D01*
X73481938Y-107451000D01*
X73330062Y-107451000D01*
X73280411Y-107441124D01*
X73181107Y-107421371D01*
X73040794Y-107363252D01*
X72914516Y-107278875D01*
X72807125Y-107171484D01*
X72722748Y-107045206D01*
X72664629Y-106904893D01*
X72635000Y-106755937D01*
X72635000Y-106604063D01*
X72664629Y-106455107D01*
X72722748Y-106314794D01*
X72807125Y-106188516D01*
X72914516Y-106081125D01*
X73040794Y-105996748D01*
X73181107Y-105938629D01*
X73280411Y-105918876D01*
X73330062Y-105909000D01*
X73481938Y-105909000D01*
X73531589Y-105918876D01*
X73531589Y-105918876D01*
G37*
G36*
X99734823Y-105333313D02*
G01*
X99895242Y-105381976D01*
X100027906Y-105452886D01*
X100043078Y-105460996D01*
X100172659Y-105567341D01*
X100279004Y-105696922D01*
X100279005Y-105696924D01*
X100358024Y-105844758D01*
X100406687Y-106005177D01*
X100423117Y-106172000D01*
X100406687Y-106338823D01*
X100358024Y-106499242D01*
X100301996Y-106604062D01*
X100279004Y-106647078D01*
X100172659Y-106776659D01*
X100043078Y-106883004D01*
X100043076Y-106883005D01*
X99895242Y-106962024D01*
X99734823Y-107010687D01*
X99609804Y-107023000D01*
X99526196Y-107023000D01*
X99401177Y-107010687D01*
X99240758Y-106962024D01*
X99092924Y-106883005D01*
X99092922Y-106883004D01*
X98963341Y-106776659D01*
X98856996Y-106647078D01*
X98834004Y-106604062D01*
X98777976Y-106499242D01*
X98729313Y-106338823D01*
X98712883Y-106172000D01*
X98729313Y-106005177D01*
X98777976Y-105844758D01*
X98856995Y-105696924D01*
X98856996Y-105696922D01*
X98963341Y-105567341D01*
X99092922Y-105460996D01*
X99108094Y-105452886D01*
X99240758Y-105381976D01*
X99401177Y-105333313D01*
X99526196Y-105321000D01*
X99609804Y-105321000D01*
X99734823Y-105333313D01*
X99734823Y-105333313D01*
G37*
G36*
X92114823Y-105333313D02*
G01*
X92275242Y-105381976D01*
X92407906Y-105452886D01*
X92423078Y-105460996D01*
X92552659Y-105567341D01*
X92659004Y-105696922D01*
X92659005Y-105696924D01*
X92738024Y-105844758D01*
X92786687Y-106005177D01*
X92803117Y-106172000D01*
X92786687Y-106338823D01*
X92738024Y-106499242D01*
X92681996Y-106604062D01*
X92659004Y-106647078D01*
X92552659Y-106776659D01*
X92423078Y-106883004D01*
X92423076Y-106883005D01*
X92275242Y-106962024D01*
X92114823Y-107010687D01*
X91989804Y-107023000D01*
X91906196Y-107023000D01*
X91781177Y-107010687D01*
X91620758Y-106962024D01*
X91472924Y-106883005D01*
X91472922Y-106883004D01*
X91343341Y-106776659D01*
X91236996Y-106647078D01*
X91214004Y-106604062D01*
X91157976Y-106499242D01*
X91109313Y-106338823D01*
X91092883Y-106172000D01*
X91109313Y-106005177D01*
X91157976Y-105844758D01*
X91236995Y-105696924D01*
X91236996Y-105696922D01*
X91343341Y-105567341D01*
X91472922Y-105460996D01*
X91488094Y-105452886D01*
X91620758Y-105381976D01*
X91781177Y-105333313D01*
X91906196Y-105321000D01*
X91989804Y-105321000D01*
X92114823Y-105333313D01*
X92114823Y-105333313D01*
G37*
G36*
X99734823Y-102793313D02*
G01*
X99895242Y-102841976D01*
X100002126Y-102899107D01*
X100043078Y-102920996D01*
X100172659Y-103027341D01*
X100279004Y-103156922D01*
X100279005Y-103156924D01*
X100358024Y-103304758D01*
X100406687Y-103465177D01*
X100423117Y-103632000D01*
X100406687Y-103798823D01*
X100358024Y-103959242D01*
X100287114Y-104091906D01*
X100279004Y-104107078D01*
X100172659Y-104236659D01*
X100043078Y-104343004D01*
X100043076Y-104343005D01*
X99895242Y-104422024D01*
X99734823Y-104470687D01*
X99609804Y-104483000D01*
X99526196Y-104483000D01*
X99401177Y-104470687D01*
X99240758Y-104422024D01*
X99092924Y-104343005D01*
X99092922Y-104343004D01*
X98963341Y-104236659D01*
X98856996Y-104107078D01*
X98848886Y-104091906D01*
X98777976Y-103959242D01*
X98729313Y-103798823D01*
X98712883Y-103632000D01*
X98729313Y-103465177D01*
X98777976Y-103304758D01*
X98856995Y-103156924D01*
X98856996Y-103156922D01*
X98963341Y-103027341D01*
X99092922Y-102920996D01*
X99133874Y-102899107D01*
X99240758Y-102841976D01*
X99401177Y-102793313D01*
X99526196Y-102781000D01*
X99609804Y-102781000D01*
X99734823Y-102793313D01*
X99734823Y-102793313D01*
G37*
G36*
X92114823Y-102793313D02*
G01*
X92275242Y-102841976D01*
X92382126Y-102899107D01*
X92423078Y-102920996D01*
X92552659Y-103027341D01*
X92659004Y-103156922D01*
X92659005Y-103156924D01*
X92738024Y-103304758D01*
X92786687Y-103465177D01*
X92803117Y-103632000D01*
X92786687Y-103798823D01*
X92738024Y-103959242D01*
X92667114Y-104091906D01*
X92659004Y-104107078D01*
X92552659Y-104236659D01*
X92423078Y-104343004D01*
X92423076Y-104343005D01*
X92275242Y-104422024D01*
X92114823Y-104470687D01*
X91989804Y-104483000D01*
X91906196Y-104483000D01*
X91781177Y-104470687D01*
X91620758Y-104422024D01*
X91472924Y-104343005D01*
X91472922Y-104343004D01*
X91343341Y-104236659D01*
X91236996Y-104107078D01*
X91228886Y-104091906D01*
X91157976Y-103959242D01*
X91109313Y-103798823D01*
X91092883Y-103632000D01*
X91109313Y-103465177D01*
X91157976Y-103304758D01*
X91236995Y-103156924D01*
X91236996Y-103156922D01*
X91343341Y-103027341D01*
X91472922Y-102920996D01*
X91513874Y-102899107D01*
X91620758Y-102841976D01*
X91781177Y-102793313D01*
X91906196Y-102781000D01*
X91989804Y-102781000D01*
X92114823Y-102793313D01*
X92114823Y-102793313D01*
G37*
G36*
X106043589Y-102362876D02*
G01*
X106142893Y-102382629D01*
X106283206Y-102440748D01*
X106409484Y-102525125D01*
X106516875Y-102632516D01*
X106601252Y-102758794D01*
X106659371Y-102899107D01*
X106689000Y-103048063D01*
X106689000Y-103199937D01*
X106659371Y-103348893D01*
X106601252Y-103489206D01*
X106516875Y-103615484D01*
X106409484Y-103722875D01*
X106283206Y-103807252D01*
X106142893Y-103865371D01*
X106043589Y-103885124D01*
X105993938Y-103895000D01*
X105842062Y-103895000D01*
X105792411Y-103885124D01*
X105693107Y-103865371D01*
X105552794Y-103807252D01*
X105426516Y-103722875D01*
X105319125Y-103615484D01*
X105234748Y-103489206D01*
X105176629Y-103348893D01*
X105147000Y-103199937D01*
X105147000Y-103048063D01*
X105176629Y-102899107D01*
X105234748Y-102758794D01*
X105319125Y-102632516D01*
X105426516Y-102525125D01*
X105552794Y-102440748D01*
X105693107Y-102382629D01*
X105792411Y-102362876D01*
X105842062Y-102353000D01*
X105993938Y-102353000D01*
X106043589Y-102362876D01*
X106043589Y-102362876D01*
G37*
G36*
X85977589Y-102108876D02*
G01*
X86076893Y-102128629D01*
X86217206Y-102186748D01*
X86343484Y-102271125D01*
X86450875Y-102378516D01*
X86535252Y-102504794D01*
X86593371Y-102645107D01*
X86623000Y-102794063D01*
X86623000Y-102945937D01*
X86593371Y-103094893D01*
X86535252Y-103235206D01*
X86450875Y-103361484D01*
X86343484Y-103468875D01*
X86217206Y-103553252D01*
X86076893Y-103611371D01*
X85977589Y-103631124D01*
X85927938Y-103641000D01*
X85776062Y-103641000D01*
X85726411Y-103631124D01*
X85627107Y-103611371D01*
X85486794Y-103553252D01*
X85360516Y-103468875D01*
X85253125Y-103361484D01*
X85168748Y-103235206D01*
X85110629Y-103094893D01*
X85081000Y-102945937D01*
X85081000Y-102794063D01*
X85110629Y-102645107D01*
X85168748Y-102504794D01*
X85253125Y-102378516D01*
X85360516Y-102271125D01*
X85486794Y-102186748D01*
X85627107Y-102128629D01*
X85726411Y-102108876D01*
X85776062Y-102099000D01*
X85927938Y-102099000D01*
X85977589Y-102108876D01*
X85977589Y-102108876D01*
G37*
G36*
X99734823Y-100253313D02*
G01*
X99895242Y-100301976D01*
X100002126Y-100359107D01*
X100043078Y-100380996D01*
X100172659Y-100487341D01*
X100279004Y-100616922D01*
X100279005Y-100616924D01*
X100358024Y-100764758D01*
X100406687Y-100925177D01*
X100423117Y-101092000D01*
X100406687Y-101258823D01*
X100358024Y-101419242D01*
X100287114Y-101551906D01*
X100279004Y-101567078D01*
X100172659Y-101696659D01*
X100043078Y-101803004D01*
X100043076Y-101803005D01*
X99895242Y-101882024D01*
X99734823Y-101930687D01*
X99609804Y-101943000D01*
X99526196Y-101943000D01*
X99401177Y-101930687D01*
X99240758Y-101882024D01*
X99092924Y-101803005D01*
X99092922Y-101803004D01*
X98963341Y-101696659D01*
X98856996Y-101567078D01*
X98848886Y-101551906D01*
X98777976Y-101419242D01*
X98729313Y-101258823D01*
X98712883Y-101092000D01*
X98729313Y-100925177D01*
X98777976Y-100764758D01*
X98856995Y-100616924D01*
X98856996Y-100616922D01*
X98963341Y-100487341D01*
X99092922Y-100380996D01*
X99133874Y-100359107D01*
X99240758Y-100301976D01*
X99401177Y-100253313D01*
X99526196Y-100241000D01*
X99609804Y-100241000D01*
X99734823Y-100253313D01*
X99734823Y-100253313D01*
G37*
G36*
X92114823Y-100253313D02*
G01*
X92275242Y-100301976D01*
X92382126Y-100359107D01*
X92423078Y-100380996D01*
X92552659Y-100487341D01*
X92659004Y-100616922D01*
X92659005Y-100616924D01*
X92738024Y-100764758D01*
X92786687Y-100925177D01*
X92803117Y-101092000D01*
X92786687Y-101258823D01*
X92738024Y-101419242D01*
X92667114Y-101551906D01*
X92659004Y-101567078D01*
X92552659Y-101696659D01*
X92423078Y-101803004D01*
X92423076Y-101803005D01*
X92275242Y-101882024D01*
X92114823Y-101930687D01*
X91989804Y-101943000D01*
X91906196Y-101943000D01*
X91781177Y-101930687D01*
X91620758Y-101882024D01*
X91472924Y-101803005D01*
X91472922Y-101803004D01*
X91343341Y-101696659D01*
X91236996Y-101567078D01*
X91228886Y-101551906D01*
X91157976Y-101419242D01*
X91109313Y-101258823D01*
X91092883Y-101092000D01*
X91109313Y-100925177D01*
X91157976Y-100764758D01*
X91236995Y-100616924D01*
X91236996Y-100616922D01*
X91343341Y-100487341D01*
X91472922Y-100380996D01*
X91513874Y-100359107D01*
X91620758Y-100301976D01*
X91781177Y-100253313D01*
X91906196Y-100241000D01*
X91989804Y-100241000D01*
X92114823Y-100253313D01*
X92114823Y-100253313D01*
G37*
G36*
X106043589Y-99822876D02*
G01*
X106142893Y-99842629D01*
X106283206Y-99900748D01*
X106409484Y-99985125D01*
X106516875Y-100092516D01*
X106601252Y-100218794D01*
X106659371Y-100359107D01*
X106689000Y-100508063D01*
X106689000Y-100659937D01*
X106659371Y-100808893D01*
X106601252Y-100949206D01*
X106516875Y-101075484D01*
X106409484Y-101182875D01*
X106283206Y-101267252D01*
X106142893Y-101325371D01*
X106043589Y-101345124D01*
X105993938Y-101355000D01*
X105842062Y-101355000D01*
X105792411Y-101345124D01*
X105693107Y-101325371D01*
X105552794Y-101267252D01*
X105426516Y-101182875D01*
X105319125Y-101075484D01*
X105234748Y-100949206D01*
X105176629Y-100808893D01*
X105147000Y-100659937D01*
X105147000Y-100508063D01*
X105176629Y-100359107D01*
X105234748Y-100218794D01*
X105319125Y-100092516D01*
X105426516Y-99985125D01*
X105552794Y-99900748D01*
X105693107Y-99842629D01*
X105792411Y-99822876D01*
X105842062Y-99813000D01*
X105993938Y-99813000D01*
X106043589Y-99822876D01*
X106043589Y-99822876D01*
G37*
G36*
X85977589Y-99568876D02*
G01*
X86076893Y-99588629D01*
X86217206Y-99646748D01*
X86343484Y-99731125D01*
X86450875Y-99838516D01*
X86535252Y-99964794D01*
X86593371Y-100105107D01*
X86623000Y-100254063D01*
X86623000Y-100405937D01*
X86593371Y-100554893D01*
X86535252Y-100695206D01*
X86450875Y-100821484D01*
X86343484Y-100928875D01*
X86217206Y-101013252D01*
X86076893Y-101071371D01*
X85977589Y-101091124D01*
X85927938Y-101101000D01*
X85776062Y-101101000D01*
X85726411Y-101091124D01*
X85627107Y-101071371D01*
X85486794Y-101013252D01*
X85360516Y-100928875D01*
X85253125Y-100821484D01*
X85168748Y-100695206D01*
X85110629Y-100554893D01*
X85081000Y-100405937D01*
X85081000Y-100254063D01*
X85110629Y-100105107D01*
X85168748Y-99964794D01*
X85253125Y-99838516D01*
X85360516Y-99731125D01*
X85486794Y-99646748D01*
X85627107Y-99588629D01*
X85726411Y-99568876D01*
X85776062Y-99559000D01*
X85927938Y-99559000D01*
X85977589Y-99568876D01*
X85977589Y-99568876D01*
G37*
G36*
X100419000Y-99403000D02*
G01*
X98717000Y-99403000D01*
X98717000Y-97701000D01*
X100419000Y-97701000D01*
X100419000Y-99403000D01*
X100419000Y-99403000D01*
G37*
G36*
X92114823Y-97713313D02*
G01*
X92275242Y-97761976D01*
X92382126Y-97819107D01*
X92423078Y-97840996D01*
X92552659Y-97947341D01*
X92659004Y-98076922D01*
X92659005Y-98076924D01*
X92738024Y-98224758D01*
X92786687Y-98385177D01*
X92803117Y-98552000D01*
X92786687Y-98718823D01*
X92738024Y-98879242D01*
X92667114Y-99011906D01*
X92659004Y-99027078D01*
X92552659Y-99156659D01*
X92423078Y-99263004D01*
X92423076Y-99263005D01*
X92275242Y-99342024D01*
X92114823Y-99390687D01*
X91989804Y-99403000D01*
X91906196Y-99403000D01*
X91781177Y-99390687D01*
X91620758Y-99342024D01*
X91472924Y-99263005D01*
X91472922Y-99263004D01*
X91343341Y-99156659D01*
X91236996Y-99027078D01*
X91228886Y-99011906D01*
X91157976Y-98879242D01*
X91109313Y-98718823D01*
X91092883Y-98552000D01*
X91109313Y-98385177D01*
X91157976Y-98224758D01*
X91236995Y-98076924D01*
X91236996Y-98076922D01*
X91343341Y-97947341D01*
X91472922Y-97840996D01*
X91513874Y-97819107D01*
X91620758Y-97761976D01*
X91781177Y-97713313D01*
X91906196Y-97701000D01*
X91989804Y-97701000D01*
X92114823Y-97713313D01*
X92114823Y-97713313D01*
G37*
G36*
X106026198Y-97279417D02*
G01*
X106142893Y-97302629D01*
X106283206Y-97360748D01*
X106409484Y-97445125D01*
X106516875Y-97552516D01*
X106601252Y-97678794D01*
X106659371Y-97819107D01*
X106689000Y-97968063D01*
X106689000Y-98119937D01*
X106659371Y-98268893D01*
X106601252Y-98409206D01*
X106516875Y-98535484D01*
X106409484Y-98642875D01*
X106283206Y-98727252D01*
X106142893Y-98785371D01*
X106043589Y-98805124D01*
X105993938Y-98815000D01*
X105842062Y-98815000D01*
X105792411Y-98805124D01*
X105693107Y-98785371D01*
X105552794Y-98727252D01*
X105426516Y-98642875D01*
X105319125Y-98535484D01*
X105234748Y-98409206D01*
X105176629Y-98268893D01*
X105147000Y-98119937D01*
X105147000Y-97968063D01*
X105176629Y-97819107D01*
X105234748Y-97678794D01*
X105319125Y-97552516D01*
X105426516Y-97445125D01*
X105552794Y-97360748D01*
X105693107Y-97302629D01*
X105809802Y-97279417D01*
X105842062Y-97273000D01*
X105993938Y-97273000D01*
X106026198Y-97279417D01*
X106026198Y-97279417D01*
G37*
G36*
X73839294Y-96888633D02*
G01*
X74011695Y-96940931D01*
X74170583Y-97025858D01*
X74309849Y-97140151D01*
X74424142Y-97279417D01*
X74509069Y-97438305D01*
X74561367Y-97610706D01*
X74579025Y-97790000D01*
X74561367Y-97969294D01*
X74509069Y-98141695D01*
X74424142Y-98300583D01*
X74309849Y-98439849D01*
X74170583Y-98554142D01*
X74011695Y-98639069D01*
X73839294Y-98691367D01*
X73704931Y-98704600D01*
X73615069Y-98704600D01*
X73480706Y-98691367D01*
X73308305Y-98639069D01*
X73149417Y-98554142D01*
X73010151Y-98439849D01*
X72895858Y-98300583D01*
X72810931Y-98141695D01*
X72758633Y-97969294D01*
X72740975Y-97790000D01*
X72758633Y-97610706D01*
X72810931Y-97438305D01*
X72895858Y-97279417D01*
X73010151Y-97140151D01*
X73149417Y-97025858D01*
X73308305Y-96940931D01*
X73480706Y-96888633D01*
X73615069Y-96875400D01*
X73704931Y-96875400D01*
X73839294Y-96888633D01*
X73839294Y-96888633D01*
G37*
G36*
X72034600Y-98704600D02*
G01*
X70205400Y-98704600D01*
X70205400Y-96875400D01*
X72034600Y-96875400D01*
X72034600Y-98704600D01*
X72034600Y-98704600D01*
G37*
G36*
X85962415Y-97025858D02*
G01*
X86076893Y-97048629D01*
X86217206Y-97106748D01*
X86343484Y-97191125D01*
X86450875Y-97298516D01*
X86535252Y-97424794D01*
X86593371Y-97565107D01*
X86623000Y-97714063D01*
X86623000Y-97865937D01*
X86593371Y-98014893D01*
X86535252Y-98155206D01*
X86450875Y-98281484D01*
X86343484Y-98388875D01*
X86217206Y-98473252D01*
X86076893Y-98531371D01*
X85977589Y-98551124D01*
X85927938Y-98561000D01*
X85776062Y-98561000D01*
X85726411Y-98551124D01*
X85627107Y-98531371D01*
X85486794Y-98473252D01*
X85360516Y-98388875D01*
X85253125Y-98281484D01*
X85168748Y-98155206D01*
X85110629Y-98014893D01*
X85081000Y-97865937D01*
X85081000Y-97714063D01*
X85110629Y-97565107D01*
X85168748Y-97424794D01*
X85253125Y-97298516D01*
X85360516Y-97191125D01*
X85486794Y-97106748D01*
X85627107Y-97048629D01*
X85741585Y-97025858D01*
X85776062Y-97019000D01*
X85927938Y-97019000D01*
X85962415Y-97025858D01*
X85962415Y-97025858D01*
G37*
G36*
X73839294Y-94348633D02*
G01*
X74011695Y-94400931D01*
X74170583Y-94485858D01*
X74309849Y-94600151D01*
X74424142Y-94739417D01*
X74509069Y-94898305D01*
X74561367Y-95070706D01*
X74579025Y-95250000D01*
X74561367Y-95429294D01*
X74509069Y-95601695D01*
X74424142Y-95760583D01*
X74309849Y-95899849D01*
X74170583Y-96014142D01*
X74011695Y-96099069D01*
X73839294Y-96151367D01*
X73704931Y-96164600D01*
X73615069Y-96164600D01*
X73480706Y-96151367D01*
X73308305Y-96099069D01*
X73149417Y-96014142D01*
X73010151Y-95899849D01*
X72895858Y-95760583D01*
X72810931Y-95601695D01*
X72758633Y-95429294D01*
X72740975Y-95250000D01*
X72758633Y-95070706D01*
X72810931Y-94898305D01*
X72895858Y-94739417D01*
X73010151Y-94600151D01*
X73149417Y-94485858D01*
X73308305Y-94400931D01*
X73480706Y-94348633D01*
X73615069Y-94335400D01*
X73704931Y-94335400D01*
X73839294Y-94348633D01*
X73839294Y-94348633D01*
G37*
G36*
X71299294Y-94348633D02*
G01*
X71471695Y-94400931D01*
X71630583Y-94485858D01*
X71769849Y-94600151D01*
X71884142Y-94739417D01*
X71969069Y-94898305D01*
X72021367Y-95070706D01*
X72039025Y-95250000D01*
X72021367Y-95429294D01*
X71969069Y-95601695D01*
X71884142Y-95760583D01*
X71769849Y-95899849D01*
X71630583Y-96014142D01*
X71471695Y-96099069D01*
X71299294Y-96151367D01*
X71164931Y-96164600D01*
X71075069Y-96164600D01*
X70940706Y-96151367D01*
X70768305Y-96099069D01*
X70609417Y-96014142D01*
X70470151Y-95899849D01*
X70355858Y-95760583D01*
X70270931Y-95601695D01*
X70218633Y-95429294D01*
X70200975Y-95250000D01*
X70218633Y-95070706D01*
X70270931Y-94898305D01*
X70355858Y-94739417D01*
X70470151Y-94600151D01*
X70609417Y-94485858D01*
X70768305Y-94400931D01*
X70940706Y-94348633D01*
X71075069Y-94335400D01*
X71164931Y-94335400D01*
X71299294Y-94348633D01*
X71299294Y-94348633D01*
G37*
G36*
X99734823Y-92887313D02*
G01*
X99895242Y-92935976D01*
X100027906Y-93006886D01*
X100043078Y-93014996D01*
X100172659Y-93121341D01*
X100279004Y-93250922D01*
X100279005Y-93250924D01*
X100358024Y-93398758D01*
X100406687Y-93559177D01*
X100423117Y-93726000D01*
X100406687Y-93892823D01*
X100358024Y-94053242D01*
X100287114Y-94185906D01*
X100279004Y-94201078D01*
X100172659Y-94330659D01*
X100043078Y-94437004D01*
X100043076Y-94437005D01*
X99895242Y-94516024D01*
X99734823Y-94564687D01*
X99609804Y-94577000D01*
X99526196Y-94577000D01*
X99401177Y-94564687D01*
X99240758Y-94516024D01*
X99092924Y-94437005D01*
X99092922Y-94437004D01*
X98963341Y-94330659D01*
X98856996Y-94201078D01*
X98848886Y-94185906D01*
X98777976Y-94053242D01*
X98729313Y-93892823D01*
X98712883Y-93726000D01*
X98729313Y-93559177D01*
X98777976Y-93398758D01*
X98856995Y-93250924D01*
X98856996Y-93250922D01*
X98963341Y-93121341D01*
X99092922Y-93014996D01*
X99108094Y-93006886D01*
X99240758Y-92935976D01*
X99401177Y-92887313D01*
X99526196Y-92875000D01*
X99609804Y-92875000D01*
X99734823Y-92887313D01*
X99734823Y-92887313D01*
G37*
G36*
X92114823Y-92887313D02*
G01*
X92275242Y-92935976D01*
X92407906Y-93006886D01*
X92423078Y-93014996D01*
X92552659Y-93121341D01*
X92659004Y-93250922D01*
X92659005Y-93250924D01*
X92738024Y-93398758D01*
X92786687Y-93559177D01*
X92803117Y-93726000D01*
X92786687Y-93892823D01*
X92738024Y-94053242D01*
X92667114Y-94185906D01*
X92659004Y-94201078D01*
X92552659Y-94330659D01*
X92423078Y-94437004D01*
X92423076Y-94437005D01*
X92275242Y-94516024D01*
X92114823Y-94564687D01*
X91989804Y-94577000D01*
X91906196Y-94577000D01*
X91781177Y-94564687D01*
X91620758Y-94516024D01*
X91472924Y-94437005D01*
X91472922Y-94437004D01*
X91343341Y-94330659D01*
X91236996Y-94201078D01*
X91228886Y-94185906D01*
X91157976Y-94053242D01*
X91109313Y-93892823D01*
X91092883Y-93726000D01*
X91109313Y-93559177D01*
X91157976Y-93398758D01*
X91236995Y-93250924D01*
X91236996Y-93250922D01*
X91343341Y-93121341D01*
X91472922Y-93014996D01*
X91488094Y-93006886D01*
X91620758Y-92935976D01*
X91781177Y-92887313D01*
X91906196Y-92875000D01*
X91989804Y-92875000D01*
X92114823Y-92887313D01*
X92114823Y-92887313D01*
G37*
G36*
X73839294Y-91808633D02*
G01*
X74011695Y-91860931D01*
X74170583Y-91945858D01*
X74309849Y-92060151D01*
X74424142Y-92199417D01*
X74509069Y-92358305D01*
X74561367Y-92530706D01*
X74579025Y-92710000D01*
X74561367Y-92889294D01*
X74509069Y-93061695D01*
X74424142Y-93220583D01*
X74309849Y-93359849D01*
X74170583Y-93474142D01*
X74011695Y-93559069D01*
X73839294Y-93611367D01*
X73704931Y-93624600D01*
X73615069Y-93624600D01*
X73480706Y-93611367D01*
X73308305Y-93559069D01*
X73149417Y-93474142D01*
X73010151Y-93359849D01*
X72895858Y-93220583D01*
X72810931Y-93061695D01*
X72758633Y-92889294D01*
X72740975Y-92710000D01*
X72758633Y-92530706D01*
X72810931Y-92358305D01*
X72895858Y-92199417D01*
X73010151Y-92060151D01*
X73149417Y-91945858D01*
X73308305Y-91860931D01*
X73480706Y-91808633D01*
X73615069Y-91795400D01*
X73704931Y-91795400D01*
X73839294Y-91808633D01*
X73839294Y-91808633D01*
G37*
G36*
X71299294Y-91808633D02*
G01*
X71471695Y-91860931D01*
X71630583Y-91945858D01*
X71769849Y-92060151D01*
X71884142Y-92199417D01*
X71969069Y-92358305D01*
X72021367Y-92530706D01*
X72039025Y-92710000D01*
X72021367Y-92889294D01*
X71969069Y-93061695D01*
X71884142Y-93220583D01*
X71769849Y-93359849D01*
X71630583Y-93474142D01*
X71471695Y-93559069D01*
X71299294Y-93611367D01*
X71164931Y-93624600D01*
X71075069Y-93624600D01*
X70940706Y-93611367D01*
X70768305Y-93559069D01*
X70609417Y-93474142D01*
X70470151Y-93359849D01*
X70355858Y-93220583D01*
X70270931Y-93061695D01*
X70218633Y-92889294D01*
X70200975Y-92710000D01*
X70218633Y-92530706D01*
X70270931Y-92358305D01*
X70355858Y-92199417D01*
X70470151Y-92060151D01*
X70609417Y-91945858D01*
X70768305Y-91860931D01*
X70940706Y-91808633D01*
X71075069Y-91795400D01*
X71164931Y-91795400D01*
X71299294Y-91808633D01*
X71299294Y-91808633D01*
G37*
G36*
X99734823Y-90347313D02*
G01*
X99895242Y-90395976D01*
X100027906Y-90466886D01*
X100043078Y-90474996D01*
X100172659Y-90581341D01*
X100279004Y-90710922D01*
X100279005Y-90710924D01*
X100358024Y-90858758D01*
X100406687Y-91019177D01*
X100423117Y-91186000D01*
X100406687Y-91352823D01*
X100358024Y-91513242D01*
X100287114Y-91645906D01*
X100279004Y-91661078D01*
X100172659Y-91790659D01*
X100043078Y-91897004D01*
X100043076Y-91897005D01*
X99895242Y-91976024D01*
X99734823Y-92024687D01*
X99609804Y-92037000D01*
X99526196Y-92037000D01*
X99401177Y-92024687D01*
X99240758Y-91976024D01*
X99092924Y-91897005D01*
X99092922Y-91897004D01*
X98963341Y-91790659D01*
X98856996Y-91661078D01*
X98848886Y-91645906D01*
X98777976Y-91513242D01*
X98729313Y-91352823D01*
X98712883Y-91186000D01*
X98729313Y-91019177D01*
X98777976Y-90858758D01*
X98856995Y-90710924D01*
X98856996Y-90710922D01*
X98963341Y-90581341D01*
X99092922Y-90474996D01*
X99108094Y-90466886D01*
X99240758Y-90395976D01*
X99401177Y-90347313D01*
X99526196Y-90335000D01*
X99609804Y-90335000D01*
X99734823Y-90347313D01*
X99734823Y-90347313D01*
G37*
G36*
X92114823Y-90347313D02*
G01*
X92275242Y-90395976D01*
X92407906Y-90466886D01*
X92423078Y-90474996D01*
X92552659Y-90581341D01*
X92659004Y-90710922D01*
X92659005Y-90710924D01*
X92738024Y-90858758D01*
X92786687Y-91019177D01*
X92803117Y-91186000D01*
X92786687Y-91352823D01*
X92738024Y-91513242D01*
X92667114Y-91645906D01*
X92659004Y-91661078D01*
X92552659Y-91790659D01*
X92423078Y-91897004D01*
X92423076Y-91897005D01*
X92275242Y-91976024D01*
X92114823Y-92024687D01*
X91989804Y-92037000D01*
X91906196Y-92037000D01*
X91781177Y-92024687D01*
X91620758Y-91976024D01*
X91472924Y-91897005D01*
X91472922Y-91897004D01*
X91343341Y-91790659D01*
X91236996Y-91661078D01*
X91228886Y-91645906D01*
X91157976Y-91513242D01*
X91109313Y-91352823D01*
X91092883Y-91186000D01*
X91109313Y-91019177D01*
X91157976Y-90858758D01*
X91236995Y-90710924D01*
X91236996Y-90710922D01*
X91343341Y-90581341D01*
X91472922Y-90474996D01*
X91488094Y-90466886D01*
X91620758Y-90395976D01*
X91781177Y-90347313D01*
X91906196Y-90335000D01*
X91989804Y-90335000D01*
X92114823Y-90347313D01*
X92114823Y-90347313D01*
G37*
G36*
X106478564Y-89159389D02*
G01*
X106669833Y-89238615D01*
X106669835Y-89238616D01*
X106809594Y-89332000D01*
X106841973Y-89353635D01*
X106988365Y-89500027D01*
X107103385Y-89672167D01*
X107182611Y-89863436D01*
X107223000Y-90066484D01*
X107223000Y-90273516D01*
X107182611Y-90476564D01*
X107139211Y-90581341D01*
X107103384Y-90667835D01*
X106988365Y-90839973D01*
X106841973Y-90986365D01*
X106669835Y-91101384D01*
X106669834Y-91101385D01*
X106669833Y-91101385D01*
X106478564Y-91180611D01*
X106275516Y-91221000D01*
X106068484Y-91221000D01*
X105865436Y-91180611D01*
X105674167Y-91101385D01*
X105674166Y-91101385D01*
X105674165Y-91101384D01*
X105502027Y-90986365D01*
X105355635Y-90839973D01*
X105240616Y-90667835D01*
X105204789Y-90581341D01*
X105161389Y-90476564D01*
X105121000Y-90273516D01*
X105121000Y-90066484D01*
X105161389Y-89863436D01*
X105240615Y-89672167D01*
X105355635Y-89500027D01*
X105502027Y-89353635D01*
X105534406Y-89332000D01*
X105674165Y-89238616D01*
X105674167Y-89238615D01*
X105865436Y-89159389D01*
X106068484Y-89119000D01*
X106275516Y-89119000D01*
X106478564Y-89159389D01*
X106478564Y-89159389D01*
G37*
G36*
X73839294Y-89268633D02*
G01*
X74011695Y-89320931D01*
X74170583Y-89405858D01*
X74309849Y-89520151D01*
X74424142Y-89659417D01*
X74509069Y-89818305D01*
X74561367Y-89990706D01*
X74579025Y-90170000D01*
X74561367Y-90349294D01*
X74509069Y-90521695D01*
X74424142Y-90680583D01*
X74309849Y-90819849D01*
X74170583Y-90934142D01*
X74011695Y-91019069D01*
X73839294Y-91071367D01*
X73704931Y-91084600D01*
X73615069Y-91084600D01*
X73480706Y-91071367D01*
X73308305Y-91019069D01*
X73149417Y-90934142D01*
X73010151Y-90819849D01*
X72895858Y-90680583D01*
X72810931Y-90521695D01*
X72758633Y-90349294D01*
X72740975Y-90170000D01*
X72758633Y-89990706D01*
X72810931Y-89818305D01*
X72895858Y-89659417D01*
X73010151Y-89520151D01*
X73149417Y-89405858D01*
X73308305Y-89320931D01*
X73480706Y-89268633D01*
X73615069Y-89255400D01*
X73704931Y-89255400D01*
X73839294Y-89268633D01*
X73839294Y-89268633D01*
G37*
G36*
X71299294Y-89268633D02*
G01*
X71471695Y-89320931D01*
X71630583Y-89405858D01*
X71769849Y-89520151D01*
X71884142Y-89659417D01*
X71969069Y-89818305D01*
X72021367Y-89990706D01*
X72039025Y-90170000D01*
X72021367Y-90349294D01*
X71969069Y-90521695D01*
X71884142Y-90680583D01*
X71769849Y-90819849D01*
X71630583Y-90934142D01*
X71471695Y-91019069D01*
X71299294Y-91071367D01*
X71164931Y-91084600D01*
X71075069Y-91084600D01*
X70940706Y-91071367D01*
X70768305Y-91019069D01*
X70609417Y-90934142D01*
X70470151Y-90819849D01*
X70355858Y-90680583D01*
X70270931Y-90521695D01*
X70218633Y-90349294D01*
X70200975Y-90170000D01*
X70218633Y-89990706D01*
X70270931Y-89818305D01*
X70355858Y-89659417D01*
X70470151Y-89520151D01*
X70609417Y-89405858D01*
X70768305Y-89320931D01*
X70940706Y-89268633D01*
X71075069Y-89255400D01*
X71164931Y-89255400D01*
X71299294Y-89268633D01*
X71299294Y-89268633D01*
G37*
G36*
X92114823Y-87807313D02*
G01*
X92275242Y-87855976D01*
X92407906Y-87926886D01*
X92423078Y-87934996D01*
X92552659Y-88041341D01*
X92659004Y-88170922D01*
X92659005Y-88170924D01*
X92738024Y-88318758D01*
X92786687Y-88479177D01*
X92803117Y-88646000D01*
X92786687Y-88812823D01*
X92738024Y-88973242D01*
X92703808Y-89037255D01*
X92659004Y-89121078D01*
X92552659Y-89250659D01*
X92423078Y-89357004D01*
X92423076Y-89357005D01*
X92275242Y-89436024D01*
X92114823Y-89484687D01*
X91989804Y-89497000D01*
X91906196Y-89497000D01*
X91781177Y-89484687D01*
X91620758Y-89436024D01*
X91472924Y-89357005D01*
X91472922Y-89357004D01*
X91343341Y-89250659D01*
X91236996Y-89121078D01*
X91192192Y-89037255D01*
X91157976Y-88973242D01*
X91109313Y-88812823D01*
X91092883Y-88646000D01*
X91109313Y-88479177D01*
X91157976Y-88318758D01*
X91236995Y-88170924D01*
X91236996Y-88170922D01*
X91343341Y-88041341D01*
X91472922Y-87934996D01*
X91488094Y-87926886D01*
X91620758Y-87855976D01*
X91781177Y-87807313D01*
X91906196Y-87795000D01*
X91989804Y-87795000D01*
X92114823Y-87807313D01*
X92114823Y-87807313D01*
G37*
G36*
X99734823Y-87807313D02*
G01*
X99895242Y-87855976D01*
X100027906Y-87926886D01*
X100043078Y-87934996D01*
X100172659Y-88041341D01*
X100279004Y-88170922D01*
X100279005Y-88170924D01*
X100358024Y-88318758D01*
X100406687Y-88479177D01*
X100423117Y-88646000D01*
X100406687Y-88812823D01*
X100358024Y-88973242D01*
X100323808Y-89037255D01*
X100279004Y-89121078D01*
X100172659Y-89250659D01*
X100043078Y-89357004D01*
X100043076Y-89357005D01*
X99895242Y-89436024D01*
X99734823Y-89484687D01*
X99609804Y-89497000D01*
X99526196Y-89497000D01*
X99401177Y-89484687D01*
X99240758Y-89436024D01*
X99092924Y-89357005D01*
X99092922Y-89357004D01*
X98963341Y-89250659D01*
X98856996Y-89121078D01*
X98812192Y-89037255D01*
X98777976Y-88973242D01*
X98729313Y-88812823D01*
X98712883Y-88646000D01*
X98729313Y-88479177D01*
X98777976Y-88318758D01*
X98856995Y-88170924D01*
X98856996Y-88170922D01*
X98963341Y-88041341D01*
X99092922Y-87934996D01*
X99108094Y-87926886D01*
X99240758Y-87855976D01*
X99401177Y-87807313D01*
X99526196Y-87795000D01*
X99609804Y-87795000D01*
X99734823Y-87807313D01*
X99734823Y-87807313D01*
G37*
G36*
X87359142Y-87737242D02*
G01*
X87507101Y-87798529D01*
X87640255Y-87887499D01*
X87753501Y-88000745D01*
X87842471Y-88133899D01*
X87903758Y-88281858D01*
X87935000Y-88438925D01*
X87935000Y-88599075D01*
X87903758Y-88756142D01*
X87842471Y-88904101D01*
X87753501Y-89037255D01*
X87640255Y-89150501D01*
X87507101Y-89239471D01*
X87359142Y-89300758D01*
X87202075Y-89332000D01*
X87041925Y-89332000D01*
X86884858Y-89300758D01*
X86736899Y-89239471D01*
X86603745Y-89150501D01*
X86490499Y-89037255D01*
X86401529Y-88904101D01*
X86340242Y-88756142D01*
X86309000Y-88599075D01*
X86309000Y-88438925D01*
X86340242Y-88281858D01*
X86401529Y-88133899D01*
X86490499Y-88000745D01*
X86603745Y-87887499D01*
X86736899Y-87798529D01*
X86884858Y-87737242D01*
X87041925Y-87706000D01*
X87202075Y-87706000D01*
X87359142Y-87737242D01*
X87359142Y-87737242D01*
G37*
G36*
X71299294Y-86728633D02*
G01*
X71471695Y-86780931D01*
X71630583Y-86865858D01*
X71769849Y-86980151D01*
X71884142Y-87119417D01*
X71969069Y-87278305D01*
X72021367Y-87450706D01*
X72039025Y-87630000D01*
X72021367Y-87809294D01*
X71969069Y-87981695D01*
X71884142Y-88140583D01*
X71769849Y-88279849D01*
X71630583Y-88394142D01*
X71471695Y-88479069D01*
X71299294Y-88531367D01*
X71164931Y-88544600D01*
X71075069Y-88544600D01*
X70940706Y-88531367D01*
X70768305Y-88479069D01*
X70609417Y-88394142D01*
X70470151Y-88279849D01*
X70355858Y-88140583D01*
X70270931Y-87981695D01*
X70218633Y-87809294D01*
X70200975Y-87630000D01*
X70218633Y-87450706D01*
X70270931Y-87278305D01*
X70355858Y-87119417D01*
X70470151Y-86980151D01*
X70609417Y-86865858D01*
X70768305Y-86780931D01*
X70940706Y-86728633D01*
X71075069Y-86715400D01*
X71164931Y-86715400D01*
X71299294Y-86728633D01*
X71299294Y-86728633D01*
G37*
G36*
X73839294Y-86728633D02*
G01*
X74011695Y-86780931D01*
X74170583Y-86865858D01*
X74309849Y-86980151D01*
X74424142Y-87119417D01*
X74509069Y-87278305D01*
X74561367Y-87450706D01*
X74579025Y-87630000D01*
X74561367Y-87809294D01*
X74509069Y-87981695D01*
X74424142Y-88140583D01*
X74309849Y-88279849D01*
X74170583Y-88394142D01*
X74011695Y-88479069D01*
X73839294Y-88531367D01*
X73704931Y-88544600D01*
X73615069Y-88544600D01*
X73480706Y-88531367D01*
X73308305Y-88479069D01*
X73149417Y-88394142D01*
X73010151Y-88279849D01*
X72895858Y-88140583D01*
X72810931Y-87981695D01*
X72758633Y-87809294D01*
X72740975Y-87630000D01*
X72758633Y-87450706D01*
X72810931Y-87278305D01*
X72895858Y-87119417D01*
X73010151Y-86980151D01*
X73149417Y-86865858D01*
X73308305Y-86780931D01*
X73480706Y-86728633D01*
X73615069Y-86715400D01*
X73704931Y-86715400D01*
X73839294Y-86728633D01*
X73839294Y-86728633D01*
G37*
G36*
X106478564Y-85603389D02*
G01*
X106669833Y-85682615D01*
X106669835Y-85682616D01*
X106841973Y-85797635D01*
X106988365Y-85944027D01*
X107028839Y-86004600D01*
X107103385Y-86116167D01*
X107182611Y-86307436D01*
X107223000Y-86510484D01*
X107223000Y-86717516D01*
X107182611Y-86920564D01*
X107157929Y-86980151D01*
X107103384Y-87111835D01*
X106988365Y-87283973D01*
X106841973Y-87430365D01*
X106669835Y-87545384D01*
X106669834Y-87545385D01*
X106669833Y-87545385D01*
X106478564Y-87624611D01*
X106275516Y-87665000D01*
X106068484Y-87665000D01*
X105865436Y-87624611D01*
X105674167Y-87545385D01*
X105674166Y-87545385D01*
X105674165Y-87545384D01*
X105502027Y-87430365D01*
X105355635Y-87283973D01*
X105240616Y-87111835D01*
X105186071Y-86980151D01*
X105161389Y-86920564D01*
X105121000Y-86717516D01*
X105121000Y-86510484D01*
X105161389Y-86307436D01*
X105240615Y-86116167D01*
X105315162Y-86004600D01*
X105355635Y-85944027D01*
X105502027Y-85797635D01*
X105674165Y-85682616D01*
X105674167Y-85682615D01*
X105865436Y-85603389D01*
X106068484Y-85563000D01*
X106275516Y-85563000D01*
X106478564Y-85603389D01*
X106478564Y-85603389D01*
G37*
G36*
X99734823Y-85267313D02*
G01*
X99895242Y-85315976D01*
X100027906Y-85386886D01*
X100043078Y-85394996D01*
X100172659Y-85501341D01*
X100279004Y-85630922D01*
X100279005Y-85630924D01*
X100358024Y-85778758D01*
X100406687Y-85939177D01*
X100423117Y-86106000D01*
X100406687Y-86272823D01*
X100358024Y-86433242D01*
X100316737Y-86510484D01*
X100279004Y-86581078D01*
X100172659Y-86710659D01*
X100043078Y-86817004D01*
X100043076Y-86817005D01*
X99895242Y-86896024D01*
X99734823Y-86944687D01*
X99609804Y-86957000D01*
X99526196Y-86957000D01*
X99401177Y-86944687D01*
X99240758Y-86896024D01*
X99092924Y-86817005D01*
X99092922Y-86817004D01*
X98963341Y-86710659D01*
X98856996Y-86581078D01*
X98819263Y-86510484D01*
X98777976Y-86433242D01*
X98729313Y-86272823D01*
X98712883Y-86106000D01*
X98729313Y-85939177D01*
X98777976Y-85778758D01*
X98856995Y-85630924D01*
X98856996Y-85630922D01*
X98963341Y-85501341D01*
X99092922Y-85394996D01*
X99108094Y-85386886D01*
X99240758Y-85315976D01*
X99401177Y-85267313D01*
X99526196Y-85255000D01*
X99609804Y-85255000D01*
X99734823Y-85267313D01*
X99734823Y-85267313D01*
G37*
G36*
X92114823Y-85267313D02*
G01*
X92275242Y-85315976D01*
X92407906Y-85386886D01*
X92423078Y-85394996D01*
X92552659Y-85501341D01*
X92659004Y-85630922D01*
X92659005Y-85630924D01*
X92738024Y-85778758D01*
X92786687Y-85939177D01*
X92803117Y-86106000D01*
X92786687Y-86272823D01*
X92738024Y-86433242D01*
X92696737Y-86510484D01*
X92659004Y-86581078D01*
X92552659Y-86710659D01*
X92423078Y-86817004D01*
X92423076Y-86817005D01*
X92275242Y-86896024D01*
X92114823Y-86944687D01*
X91989804Y-86957000D01*
X91906196Y-86957000D01*
X91781177Y-86944687D01*
X91620758Y-86896024D01*
X91472924Y-86817005D01*
X91472922Y-86817004D01*
X91343341Y-86710659D01*
X91236996Y-86581078D01*
X91199263Y-86510484D01*
X91157976Y-86433242D01*
X91109313Y-86272823D01*
X91092883Y-86106000D01*
X91109313Y-85939177D01*
X91157976Y-85778758D01*
X91236995Y-85630924D01*
X91236996Y-85630922D01*
X91343341Y-85501341D01*
X91472922Y-85394996D01*
X91488094Y-85386886D01*
X91620758Y-85315976D01*
X91781177Y-85267313D01*
X91906196Y-85255000D01*
X91989804Y-85255000D01*
X92114823Y-85267313D01*
X92114823Y-85267313D01*
G37*
G36*
X71299294Y-84188633D02*
G01*
X71471695Y-84240931D01*
X71630583Y-84325858D01*
X71769849Y-84440151D01*
X71884142Y-84579417D01*
X71969069Y-84738305D01*
X72021367Y-84910706D01*
X72039025Y-85090000D01*
X72021367Y-85269294D01*
X71969069Y-85441695D01*
X71884142Y-85600583D01*
X71769849Y-85739849D01*
X71630583Y-85854142D01*
X71471695Y-85939069D01*
X71299294Y-85991367D01*
X71164931Y-86004600D01*
X71075069Y-86004600D01*
X70940706Y-85991367D01*
X70768305Y-85939069D01*
X70609417Y-85854142D01*
X70470151Y-85739849D01*
X70355858Y-85600583D01*
X70270931Y-85441695D01*
X70218633Y-85269294D01*
X70200975Y-85090000D01*
X70218633Y-84910706D01*
X70270931Y-84738305D01*
X70355858Y-84579417D01*
X70470151Y-84440151D01*
X70609417Y-84325858D01*
X70768305Y-84240931D01*
X70940706Y-84188633D01*
X71075069Y-84175400D01*
X71164931Y-84175400D01*
X71299294Y-84188633D01*
X71299294Y-84188633D01*
G37*
G36*
X73839294Y-84188633D02*
G01*
X74011695Y-84240931D01*
X74170583Y-84325858D01*
X74309849Y-84440151D01*
X74424142Y-84579417D01*
X74509069Y-84738305D01*
X74561367Y-84910706D01*
X74579025Y-85090000D01*
X74561367Y-85269294D01*
X74509069Y-85441695D01*
X74424142Y-85600583D01*
X74309849Y-85739849D01*
X74170583Y-85854142D01*
X74011695Y-85939069D01*
X73839294Y-85991367D01*
X73704931Y-86004600D01*
X73615069Y-86004600D01*
X73480706Y-85991367D01*
X73308305Y-85939069D01*
X73149417Y-85854142D01*
X73010151Y-85739849D01*
X72895858Y-85600583D01*
X72810931Y-85441695D01*
X72758633Y-85269294D01*
X72740975Y-85090000D01*
X72758633Y-84910706D01*
X72810931Y-84738305D01*
X72895858Y-84579417D01*
X73010151Y-84440151D01*
X73149417Y-84325858D01*
X73308305Y-84240931D01*
X73480706Y-84188633D01*
X73615069Y-84175400D01*
X73704931Y-84175400D01*
X73839294Y-84188633D01*
X73839294Y-84188633D01*
G37*
G36*
X92114823Y-82727313D02*
G01*
X92275242Y-82775976D01*
X92407906Y-82846886D01*
X92423078Y-82854996D01*
X92552659Y-82961341D01*
X92659004Y-83090922D01*
X92659005Y-83090924D01*
X92738024Y-83238758D01*
X92786687Y-83399177D01*
X92803117Y-83566000D01*
X92786687Y-83732823D01*
X92738024Y-83893242D01*
X92667114Y-84025906D01*
X92659004Y-84041078D01*
X92552659Y-84170659D01*
X92423078Y-84277004D01*
X92423076Y-84277005D01*
X92275242Y-84356024D01*
X92114823Y-84404687D01*
X91989804Y-84417000D01*
X91906196Y-84417000D01*
X91781177Y-84404687D01*
X91620758Y-84356024D01*
X91472924Y-84277005D01*
X91472922Y-84277004D01*
X91343341Y-84170659D01*
X91236996Y-84041078D01*
X91228886Y-84025906D01*
X91157976Y-83893242D01*
X91109313Y-83732823D01*
X91092883Y-83566000D01*
X91109313Y-83399177D01*
X91157976Y-83238758D01*
X91236995Y-83090924D01*
X91236996Y-83090922D01*
X91343341Y-82961341D01*
X91472922Y-82854996D01*
X91488094Y-82846886D01*
X91620758Y-82775976D01*
X91781177Y-82727313D01*
X91906196Y-82715000D01*
X91989804Y-82715000D01*
X92114823Y-82727313D01*
X92114823Y-82727313D01*
G37*
G36*
X99734823Y-82727313D02*
G01*
X99895242Y-82775976D01*
X100027906Y-82846886D01*
X100043078Y-82854996D01*
X100172659Y-82961341D01*
X100279004Y-83090922D01*
X100279005Y-83090924D01*
X100358024Y-83238758D01*
X100406687Y-83399177D01*
X100423117Y-83566000D01*
X100406687Y-83732823D01*
X100358024Y-83893242D01*
X100287114Y-84025906D01*
X100279004Y-84041078D01*
X100172659Y-84170659D01*
X100043078Y-84277004D01*
X100043076Y-84277005D01*
X99895242Y-84356024D01*
X99734823Y-84404687D01*
X99609804Y-84417000D01*
X99526196Y-84417000D01*
X99401177Y-84404687D01*
X99240758Y-84356024D01*
X99092924Y-84277005D01*
X99092922Y-84277004D01*
X98963341Y-84170659D01*
X98856996Y-84041078D01*
X98848886Y-84025906D01*
X98777976Y-83893242D01*
X98729313Y-83732823D01*
X98712883Y-83566000D01*
X98729313Y-83399177D01*
X98777976Y-83238758D01*
X98856995Y-83090924D01*
X98856996Y-83090922D01*
X98963341Y-82961341D01*
X99092922Y-82854996D01*
X99108094Y-82846886D01*
X99240758Y-82775976D01*
X99401177Y-82727313D01*
X99526196Y-82715000D01*
X99609804Y-82715000D01*
X99734823Y-82727313D01*
X99734823Y-82727313D01*
G37*
G36*
X73839294Y-81648633D02*
G01*
X74011695Y-81700931D01*
X74170583Y-81785858D01*
X74309849Y-81900151D01*
X74424142Y-82039417D01*
X74509069Y-82198305D01*
X74561367Y-82370706D01*
X74579025Y-82550000D01*
X74561367Y-82729294D01*
X74509069Y-82901695D01*
X74424142Y-83060583D01*
X74309849Y-83199849D01*
X74170583Y-83314142D01*
X74011695Y-83399069D01*
X73839294Y-83451367D01*
X73704931Y-83464600D01*
X73615069Y-83464600D01*
X73480706Y-83451367D01*
X73308305Y-83399069D01*
X73149417Y-83314142D01*
X73010151Y-83199849D01*
X72895858Y-83060583D01*
X72810931Y-82901695D01*
X72758633Y-82729294D01*
X72740975Y-82550000D01*
X72758633Y-82370706D01*
X72810931Y-82198305D01*
X72895858Y-82039417D01*
X73010151Y-81900151D01*
X73149417Y-81785858D01*
X73308305Y-81700931D01*
X73480706Y-81648633D01*
X73615069Y-81635400D01*
X73704931Y-81635400D01*
X73839294Y-81648633D01*
X73839294Y-81648633D01*
G37*
G36*
X71299294Y-81648633D02*
G01*
X71471695Y-81700931D01*
X71630583Y-81785858D01*
X71769849Y-81900151D01*
X71884142Y-82039417D01*
X71969069Y-82198305D01*
X72021367Y-82370706D01*
X72039025Y-82550000D01*
X72021367Y-82729294D01*
X71969069Y-82901695D01*
X71884142Y-83060583D01*
X71769849Y-83199849D01*
X71630583Y-83314142D01*
X71471695Y-83399069D01*
X71299294Y-83451367D01*
X71164931Y-83464600D01*
X71075069Y-83464600D01*
X70940706Y-83451367D01*
X70768305Y-83399069D01*
X70609417Y-83314142D01*
X70470151Y-83199849D01*
X70355858Y-83060583D01*
X70270931Y-82901695D01*
X70218633Y-82729294D01*
X70200975Y-82550000D01*
X70218633Y-82370706D01*
X70270931Y-82198305D01*
X70355858Y-82039417D01*
X70470151Y-81900151D01*
X70609417Y-81785858D01*
X70768305Y-81700931D01*
X70940706Y-81648633D01*
X71075069Y-81635400D01*
X71164931Y-81635400D01*
X71299294Y-81648633D01*
X71299294Y-81648633D01*
G37*
G36*
X87359142Y-81387242D02*
G01*
X87507101Y-81448529D01*
X87640255Y-81537499D01*
X87753501Y-81650745D01*
X87842471Y-81783899D01*
X87903758Y-81931858D01*
X87935000Y-82088925D01*
X87935000Y-82249075D01*
X87903758Y-82406142D01*
X87842471Y-82554101D01*
X87753501Y-82687255D01*
X87640255Y-82800501D01*
X87507101Y-82889471D01*
X87359142Y-82950758D01*
X87202075Y-82982000D01*
X87041925Y-82982000D01*
X86884858Y-82950758D01*
X86736899Y-82889471D01*
X86603745Y-82800501D01*
X86490499Y-82687255D01*
X86401529Y-82554101D01*
X86340242Y-82406142D01*
X86309000Y-82249075D01*
X86309000Y-82088925D01*
X86340242Y-81931858D01*
X86401529Y-81783899D01*
X86490499Y-81650745D01*
X86603745Y-81537499D01*
X86736899Y-81448529D01*
X86884858Y-81387242D01*
X87041925Y-81356000D01*
X87202075Y-81356000D01*
X87359142Y-81387242D01*
X87359142Y-81387242D01*
G37*
G36*
X106297589Y-81280876D02*
G01*
X106396893Y-81300629D01*
X106537206Y-81358748D01*
X106663484Y-81443125D01*
X106770875Y-81550516D01*
X106855252Y-81676794D01*
X106913371Y-81817107D01*
X106943000Y-81966063D01*
X106943000Y-82117937D01*
X106913371Y-82266893D01*
X106855252Y-82407206D01*
X106770875Y-82533484D01*
X106663484Y-82640875D01*
X106537206Y-82725252D01*
X106396893Y-82783371D01*
X106310784Y-82800499D01*
X106247938Y-82813000D01*
X106096062Y-82813000D01*
X106033216Y-82800499D01*
X105947107Y-82783371D01*
X105806794Y-82725252D01*
X105680516Y-82640875D01*
X105573125Y-82533484D01*
X105488748Y-82407206D01*
X105430629Y-82266893D01*
X105401000Y-82117937D01*
X105401000Y-81966063D01*
X105430629Y-81817107D01*
X105488748Y-81676794D01*
X105573125Y-81550516D01*
X105680516Y-81443125D01*
X105806794Y-81358748D01*
X105947107Y-81300629D01*
X106046411Y-81280876D01*
X106096062Y-81271000D01*
X106247938Y-81271000D01*
X106297589Y-81280876D01*
X106297589Y-81280876D01*
G37*
G36*
X92114823Y-80187313D02*
G01*
X92275242Y-80235976D01*
X92407906Y-80306886D01*
X92423078Y-80314996D01*
X92552659Y-80421341D01*
X92659004Y-80550922D01*
X92659005Y-80550924D01*
X92738024Y-80698758D01*
X92786687Y-80859177D01*
X92803117Y-81026000D01*
X92786687Y-81192823D01*
X92738024Y-81353242D01*
X92719850Y-81387243D01*
X92659004Y-81501078D01*
X92552659Y-81630659D01*
X92423078Y-81737004D01*
X92423076Y-81737005D01*
X92275242Y-81816024D01*
X92275239Y-81816025D01*
X92245380Y-81825083D01*
X92114823Y-81864687D01*
X91989804Y-81877000D01*
X91906196Y-81877000D01*
X91781177Y-81864687D01*
X91650620Y-81825083D01*
X91620761Y-81816025D01*
X91620758Y-81816024D01*
X91472924Y-81737005D01*
X91472922Y-81737004D01*
X91343341Y-81630659D01*
X91236996Y-81501078D01*
X91176150Y-81387243D01*
X91157976Y-81353242D01*
X91109313Y-81192823D01*
X91092883Y-81026000D01*
X91109313Y-80859177D01*
X91157976Y-80698758D01*
X91236995Y-80550924D01*
X91236996Y-80550922D01*
X91343341Y-80421341D01*
X91472922Y-80314996D01*
X91488094Y-80306886D01*
X91620758Y-80235976D01*
X91781177Y-80187313D01*
X91906196Y-80175000D01*
X91989804Y-80175000D01*
X92114823Y-80187313D01*
X92114823Y-80187313D01*
G37*
G36*
X99734823Y-80187313D02*
G01*
X99895242Y-80235976D01*
X100027906Y-80306886D01*
X100043078Y-80314996D01*
X100172659Y-80421341D01*
X100279004Y-80550922D01*
X100279005Y-80550924D01*
X100358024Y-80698758D01*
X100406687Y-80859177D01*
X100423117Y-81026000D01*
X100406687Y-81192823D01*
X100358024Y-81353242D01*
X100339850Y-81387243D01*
X100279004Y-81501078D01*
X100172659Y-81630659D01*
X100043078Y-81737004D01*
X100043076Y-81737005D01*
X99895242Y-81816024D01*
X99895239Y-81816025D01*
X99865380Y-81825083D01*
X99734823Y-81864687D01*
X99609804Y-81877000D01*
X99526196Y-81877000D01*
X99401177Y-81864687D01*
X99270620Y-81825083D01*
X99240761Y-81816025D01*
X99240758Y-81816024D01*
X99092924Y-81737005D01*
X99092922Y-81737004D01*
X98963341Y-81630659D01*
X98856996Y-81501078D01*
X98796150Y-81387243D01*
X98777976Y-81353242D01*
X98729313Y-81192823D01*
X98712883Y-81026000D01*
X98729313Y-80859177D01*
X98777976Y-80698758D01*
X98856995Y-80550924D01*
X98856996Y-80550922D01*
X98963341Y-80421341D01*
X99092922Y-80314996D01*
X99108094Y-80306886D01*
X99240758Y-80235976D01*
X99401177Y-80187313D01*
X99526196Y-80175000D01*
X99609804Y-80175000D01*
X99734823Y-80187313D01*
X99734823Y-80187313D01*
G37*
G36*
X73839294Y-79108633D02*
G01*
X74011695Y-79160931D01*
X74170583Y-79245858D01*
X74309849Y-79360151D01*
X74424142Y-79499417D01*
X74509069Y-79658305D01*
X74561367Y-79830706D01*
X74579025Y-80010000D01*
X74561367Y-80189294D01*
X74509069Y-80361695D01*
X74424142Y-80520583D01*
X74309849Y-80659849D01*
X74170583Y-80774142D01*
X74011695Y-80859069D01*
X73839294Y-80911367D01*
X73704931Y-80924600D01*
X73615069Y-80924600D01*
X73480706Y-80911367D01*
X73308305Y-80859069D01*
X73149417Y-80774142D01*
X73010151Y-80659849D01*
X72895858Y-80520583D01*
X72810931Y-80361695D01*
X72758633Y-80189294D01*
X72740975Y-80010000D01*
X72758633Y-79830706D01*
X72810931Y-79658305D01*
X72895858Y-79499417D01*
X73010151Y-79360151D01*
X73149417Y-79245858D01*
X73308305Y-79160931D01*
X73480706Y-79108633D01*
X73615069Y-79095400D01*
X73704931Y-79095400D01*
X73839294Y-79108633D01*
X73839294Y-79108633D01*
G37*
G36*
X71299294Y-79108633D02*
G01*
X71471695Y-79160931D01*
X71630583Y-79245858D01*
X71769849Y-79360151D01*
X71884142Y-79499417D01*
X71969069Y-79658305D01*
X72021367Y-79830706D01*
X72039025Y-80010000D01*
X72021367Y-80189294D01*
X71969069Y-80361695D01*
X71884142Y-80520583D01*
X71769849Y-80659849D01*
X71630583Y-80774142D01*
X71471695Y-80859069D01*
X71299294Y-80911367D01*
X71164931Y-80924600D01*
X71075069Y-80924600D01*
X70940706Y-80911367D01*
X70768305Y-80859069D01*
X70609417Y-80774142D01*
X70470151Y-80659849D01*
X70355858Y-80520583D01*
X70270931Y-80361695D01*
X70218633Y-80189294D01*
X70200975Y-80010000D01*
X70218633Y-79830706D01*
X70270931Y-79658305D01*
X70355858Y-79499417D01*
X70470151Y-79360151D01*
X70609417Y-79245858D01*
X70768305Y-79160931D01*
X70940706Y-79108633D01*
X71075069Y-79095400D01*
X71164931Y-79095400D01*
X71299294Y-79108633D01*
X71299294Y-79108633D01*
G37*
G36*
X106297589Y-78740876D02*
G01*
X106396893Y-78760629D01*
X106537206Y-78818748D01*
X106663484Y-78903125D01*
X106770875Y-79010516D01*
X106855252Y-79136794D01*
X106913371Y-79277107D01*
X106943000Y-79426063D01*
X106943000Y-79577937D01*
X106913371Y-79726893D01*
X106855252Y-79867206D01*
X106770875Y-79993484D01*
X106663484Y-80100875D01*
X106537206Y-80185252D01*
X106396893Y-80243371D01*
X106297589Y-80263124D01*
X106247938Y-80273000D01*
X106096062Y-80273000D01*
X106046411Y-80263124D01*
X105947107Y-80243371D01*
X105806794Y-80185252D01*
X105680516Y-80100875D01*
X105573125Y-79993484D01*
X105488748Y-79867206D01*
X105430629Y-79726893D01*
X105401000Y-79577937D01*
X105401000Y-79426063D01*
X105430629Y-79277107D01*
X105488748Y-79136794D01*
X105573125Y-79010516D01*
X105680516Y-78903125D01*
X105806794Y-78818748D01*
X105947107Y-78760629D01*
X106046411Y-78740876D01*
X106096062Y-78731000D01*
X106247938Y-78731000D01*
X106297589Y-78740876D01*
X106297589Y-78740876D01*
G37*
G36*
X92114823Y-77647313D02*
G01*
X92275242Y-77695976D01*
X92407906Y-77766886D01*
X92423078Y-77774996D01*
X92552659Y-77881341D01*
X92659004Y-78010922D01*
X92659005Y-78010924D01*
X92738024Y-78158758D01*
X92786687Y-78319177D01*
X92803117Y-78486000D01*
X92786687Y-78652823D01*
X92738024Y-78813242D01*
X92689980Y-78903125D01*
X92659004Y-78961078D01*
X92552659Y-79090659D01*
X92423078Y-79197004D01*
X92423076Y-79197005D01*
X92275242Y-79276024D01*
X92275239Y-79276025D01*
X92245380Y-79285083D01*
X92114823Y-79324687D01*
X91989804Y-79337000D01*
X91906196Y-79337000D01*
X91781177Y-79324687D01*
X91650620Y-79285083D01*
X91620761Y-79276025D01*
X91620758Y-79276024D01*
X91472924Y-79197005D01*
X91472922Y-79197004D01*
X91343341Y-79090659D01*
X91236996Y-78961078D01*
X91206020Y-78903125D01*
X91157976Y-78813242D01*
X91109313Y-78652823D01*
X91092883Y-78486000D01*
X91109313Y-78319177D01*
X91157976Y-78158758D01*
X91236995Y-78010924D01*
X91236996Y-78010922D01*
X91343341Y-77881341D01*
X91472922Y-77774996D01*
X91488094Y-77766886D01*
X91620758Y-77695976D01*
X91781177Y-77647313D01*
X91906196Y-77635000D01*
X91989804Y-77635000D01*
X92114823Y-77647313D01*
X92114823Y-77647313D01*
G37*
G36*
X99734823Y-77647313D02*
G01*
X99895242Y-77695976D01*
X100027906Y-77766886D01*
X100043078Y-77774996D01*
X100172659Y-77881341D01*
X100279004Y-78010922D01*
X100279005Y-78010924D01*
X100358024Y-78158758D01*
X100406687Y-78319177D01*
X100423117Y-78486000D01*
X100406687Y-78652823D01*
X100358024Y-78813242D01*
X100309980Y-78903125D01*
X100279004Y-78961078D01*
X100172659Y-79090659D01*
X100043078Y-79197004D01*
X100043076Y-79197005D01*
X99895242Y-79276024D01*
X99895239Y-79276025D01*
X99865380Y-79285083D01*
X99734823Y-79324687D01*
X99609804Y-79337000D01*
X99526196Y-79337000D01*
X99401177Y-79324687D01*
X99270620Y-79285083D01*
X99240761Y-79276025D01*
X99240758Y-79276024D01*
X99092924Y-79197005D01*
X99092922Y-79197004D01*
X98963341Y-79090659D01*
X98856996Y-78961078D01*
X98826020Y-78903125D01*
X98777976Y-78813242D01*
X98729313Y-78652823D01*
X98712883Y-78486000D01*
X98729313Y-78319177D01*
X98777976Y-78158758D01*
X98856995Y-78010924D01*
X98856996Y-78010922D01*
X98963341Y-77881341D01*
X99092922Y-77774996D01*
X99108094Y-77766886D01*
X99240758Y-77695976D01*
X99401177Y-77647313D01*
X99526196Y-77635000D01*
X99609804Y-77635000D01*
X99734823Y-77647313D01*
X99734823Y-77647313D01*
G37*
G36*
X84184442Y-77083518D02*
G01*
X84250627Y-77090037D01*
X84420466Y-77141557D01*
X84576991Y-77225222D01*
X84612729Y-77254552D01*
X84714186Y-77337814D01*
X84797448Y-77439271D01*
X84826778Y-77475009D01*
X84910443Y-77631534D01*
X84961963Y-77801373D01*
X84979359Y-77978000D01*
X84961963Y-78154627D01*
X84910443Y-78324466D01*
X84826778Y-78480991D01*
X84822667Y-78486000D01*
X84714186Y-78618186D01*
X84612729Y-78701448D01*
X84576991Y-78730778D01*
X84420466Y-78814443D01*
X84250627Y-78865963D01*
X84184443Y-78872481D01*
X84118260Y-78879000D01*
X84029740Y-78879000D01*
X83963557Y-78872481D01*
X83897373Y-78865963D01*
X83727534Y-78814443D01*
X83571009Y-78730778D01*
X83535271Y-78701448D01*
X83433814Y-78618186D01*
X83325333Y-78486000D01*
X83321222Y-78480991D01*
X83237557Y-78324466D01*
X83186037Y-78154627D01*
X83168641Y-77978000D01*
X83186037Y-77801373D01*
X83237557Y-77631534D01*
X83321222Y-77475009D01*
X83350552Y-77439271D01*
X83433814Y-77337814D01*
X83535271Y-77254552D01*
X83571009Y-77225222D01*
X83727534Y-77141557D01*
X83897373Y-77090037D01*
X83963558Y-77083518D01*
X84029740Y-77077000D01*
X84118260Y-77077000D01*
X84184442Y-77083518D01*
X84184442Y-77083518D01*
G37*
G36*
X87515000Y-78879000D02*
G01*
X85713000Y-78879000D01*
X85713000Y-77077000D01*
X87515000Y-77077000D01*
X87515000Y-78879000D01*
X87515000Y-78879000D01*
G37*
G36*
X106297589Y-76200876D02*
G01*
X106396893Y-76220629D01*
X106537206Y-76278748D01*
X106663484Y-76363125D01*
X106770875Y-76470516D01*
X106855252Y-76596794D01*
X106913371Y-76737107D01*
X106943000Y-76886063D01*
X106943000Y-77037937D01*
X106913371Y-77186893D01*
X106855252Y-77327206D01*
X106770875Y-77453484D01*
X106663484Y-77560875D01*
X106537206Y-77645252D01*
X106396893Y-77703371D01*
X106297589Y-77723124D01*
X106247938Y-77733000D01*
X106096062Y-77733000D01*
X106046411Y-77723124D01*
X105947107Y-77703371D01*
X105806794Y-77645252D01*
X105680516Y-77560875D01*
X105573125Y-77453484D01*
X105488748Y-77327206D01*
X105430629Y-77186893D01*
X105401000Y-77037937D01*
X105401000Y-76886063D01*
X105430629Y-76737107D01*
X105488748Y-76596794D01*
X105573125Y-76470516D01*
X105680516Y-76363125D01*
X105806794Y-76278748D01*
X105947107Y-76220629D01*
X106046411Y-76200876D01*
X106096062Y-76191000D01*
X106247938Y-76191000D01*
X106297589Y-76200876D01*
X106297589Y-76200876D01*
G37*
G36*
X100419000Y-76797000D02*
G01*
X98717000Y-76797000D01*
X98717000Y-75095000D01*
X100419000Y-75095000D01*
X100419000Y-76797000D01*
X100419000Y-76797000D01*
G37*
G36*
X92114823Y-75107313D02*
G01*
X92275242Y-75155976D01*
X92407906Y-75226886D01*
X92423078Y-75234996D01*
X92552659Y-75341341D01*
X92659004Y-75470922D01*
X92659005Y-75470924D01*
X92738024Y-75618758D01*
X92786687Y-75779177D01*
X92803117Y-75946000D01*
X92786687Y-76112823D01*
X92738024Y-76273242D01*
X92689980Y-76363125D01*
X92659004Y-76421078D01*
X92552659Y-76550659D01*
X92423078Y-76657004D01*
X92423076Y-76657005D01*
X92275242Y-76736024D01*
X92275239Y-76736025D01*
X92245380Y-76745083D01*
X92114823Y-76784687D01*
X91989804Y-76797000D01*
X91906196Y-76797000D01*
X91781177Y-76784687D01*
X91650620Y-76745083D01*
X91620761Y-76736025D01*
X91620758Y-76736024D01*
X91472924Y-76657005D01*
X91472922Y-76657004D01*
X91343341Y-76550659D01*
X91236996Y-76421078D01*
X91206020Y-76363125D01*
X91157976Y-76273242D01*
X91109313Y-76112823D01*
X91092883Y-75946000D01*
X91109313Y-75779177D01*
X91157976Y-75618758D01*
X91236995Y-75470924D01*
X91236996Y-75470922D01*
X91343341Y-75341341D01*
X91472922Y-75234996D01*
X91488094Y-75226886D01*
X91620758Y-75155976D01*
X91781177Y-75107313D01*
X91906196Y-75095000D01*
X91989804Y-75095000D01*
X92114823Y-75107313D01*
X92114823Y-75107313D01*
G37*
G36*
X107932098Y-68159033D02*
G01*
X108396350Y-68351332D01*
X108396352Y-68351333D01*
X108814168Y-68630509D01*
X109169491Y-68985832D01*
X109448667Y-69403648D01*
X109448668Y-69403650D01*
X109640967Y-69867902D01*
X109739000Y-70360747D01*
X109739000Y-70863253D01*
X109640967Y-71356098D01*
X109521500Y-71644517D01*
X109448667Y-71820352D01*
X109169491Y-72238168D01*
X108814168Y-72593491D01*
X108396352Y-72872667D01*
X108396351Y-72872668D01*
X108396350Y-72872668D01*
X107932098Y-73064967D01*
X107439253Y-73163000D01*
X106936747Y-73163000D01*
X106443902Y-73064967D01*
X105979650Y-72872668D01*
X105979649Y-72872668D01*
X105979648Y-72872667D01*
X105561832Y-72593491D01*
X105206509Y-72238168D01*
X104927333Y-71820352D01*
X104854500Y-71644517D01*
X104735033Y-71356098D01*
X104637000Y-70863253D01*
X104637000Y-70360747D01*
X104735033Y-69867902D01*
X104927332Y-69403650D01*
X104927333Y-69403648D01*
X105206509Y-68985832D01*
X105561832Y-68630509D01*
X105979648Y-68351333D01*
X105979650Y-68351332D01*
X106443902Y-68159033D01*
X106936747Y-68061000D01*
X107439253Y-68061000D01*
X107932098Y-68159033D01*
X107932098Y-68159033D01*
G37*
G36*
X71356098Y-68159033D02*
G01*
X71820350Y-68351332D01*
X71820352Y-68351333D01*
X72238168Y-68630509D01*
X72593491Y-68985832D01*
X72872667Y-69403648D01*
X72872668Y-69403650D01*
X73064967Y-69867902D01*
X73163000Y-70360747D01*
X73163000Y-70863253D01*
X73064967Y-71356098D01*
X72945500Y-71644517D01*
X72872667Y-71820352D01*
X72593491Y-72238168D01*
X72238168Y-72593491D01*
X71820352Y-72872667D01*
X71820351Y-72872668D01*
X71820350Y-72872668D01*
X71356098Y-73064967D01*
X70863253Y-73163000D01*
X70360747Y-73163000D01*
X69867902Y-73064967D01*
X69403650Y-72872668D01*
X69403649Y-72872668D01*
X69403648Y-72872667D01*
X68985832Y-72593491D01*
X68630509Y-72238168D01*
X68351333Y-71820352D01*
X68278500Y-71644517D01*
X68159033Y-71356098D01*
X68061000Y-70863253D01*
X68061000Y-70360747D01*
X68159033Y-69867902D01*
X68351332Y-69403650D01*
X68351333Y-69403648D01*
X68630509Y-68985832D01*
X68985832Y-68630509D01*
X69403648Y-68351333D01*
X69403650Y-68351332D01*
X69867902Y-68159033D01*
X70360747Y-68061000D01*
X70863253Y-68061000D01*
X71356098Y-68159033D01*
X71356098Y-68159033D01*
G37*
G36*
X85977589Y-71374876D02*
G01*
X86076893Y-71394629D01*
X86217206Y-71452748D01*
X86343484Y-71537125D01*
X86450875Y-71644516D01*
X86535252Y-71770794D01*
X86593371Y-71911107D01*
X86623000Y-72060063D01*
X86623000Y-72211937D01*
X86593371Y-72360893D01*
X86535252Y-72501206D01*
X86450875Y-72627484D01*
X86343484Y-72734875D01*
X86217206Y-72819252D01*
X86076893Y-72877371D01*
X85977589Y-72897124D01*
X85927938Y-72907000D01*
X85776062Y-72907000D01*
X85726411Y-72897124D01*
X85627107Y-72877371D01*
X85486794Y-72819252D01*
X85360516Y-72734875D01*
X85253125Y-72627484D01*
X85168748Y-72501206D01*
X85110629Y-72360893D01*
X85081000Y-72211937D01*
X85081000Y-72060063D01*
X85110629Y-71911107D01*
X85168748Y-71770794D01*
X85253125Y-71644516D01*
X85360516Y-71537125D01*
X85486794Y-71452748D01*
X85627107Y-71394629D01*
X85726411Y-71374876D01*
X85776062Y-71365000D01*
X85927938Y-71365000D01*
X85977589Y-71374876D01*
X85977589Y-71374876D01*
G37*
G36*
X83437589Y-71374876D02*
G01*
X83536893Y-71394629D01*
X83677206Y-71452748D01*
X83803484Y-71537125D01*
X83910875Y-71644516D01*
X83995252Y-71770794D01*
X84053371Y-71911107D01*
X84083000Y-72060063D01*
X84083000Y-72211937D01*
X84053371Y-72360893D01*
X83995252Y-72501206D01*
X83910875Y-72627484D01*
X83803484Y-72734875D01*
X83677206Y-72819252D01*
X83536893Y-72877371D01*
X83437589Y-72897124D01*
X83387938Y-72907000D01*
X83236062Y-72907000D01*
X83186411Y-72897124D01*
X83087107Y-72877371D01*
X82946794Y-72819252D01*
X82820516Y-72734875D01*
X82713125Y-72627484D01*
X82628748Y-72501206D01*
X82570629Y-72360893D01*
X82541000Y-72211937D01*
X82541000Y-72060063D01*
X82570629Y-71911107D01*
X82628748Y-71770794D01*
X82713125Y-71644516D01*
X82820516Y-71537125D01*
X82946794Y-71452748D01*
X83087107Y-71394629D01*
X83186411Y-71374876D01*
X83236062Y-71365000D01*
X83387938Y-71365000D01*
X83437589Y-71374876D01*
X83437589Y-71374876D01*
G37*
G36*
X80897589Y-71374876D02*
G01*
X80996893Y-71394629D01*
X81137206Y-71452748D01*
X81263484Y-71537125D01*
X81370875Y-71644516D01*
X81455252Y-71770794D01*
X81513371Y-71911107D01*
X81543000Y-72060063D01*
X81543000Y-72211937D01*
X81513371Y-72360893D01*
X81455252Y-72501206D01*
X81370875Y-72627484D01*
X81263484Y-72734875D01*
X81137206Y-72819252D01*
X80996893Y-72877371D01*
X80897589Y-72897124D01*
X80847938Y-72907000D01*
X80696062Y-72907000D01*
X80646411Y-72897124D01*
X80547107Y-72877371D01*
X80406794Y-72819252D01*
X80280516Y-72734875D01*
X80173125Y-72627484D01*
X80088748Y-72501206D01*
X80030629Y-72360893D01*
X80001000Y-72211937D01*
X80001000Y-72060063D01*
X80030629Y-71911107D01*
X80088748Y-71770794D01*
X80173125Y-71644516D01*
X80280516Y-71537125D01*
X80406794Y-71452748D01*
X80547107Y-71394629D01*
X80646411Y-71374876D01*
X80696062Y-71365000D01*
X80847938Y-71365000D01*
X80897589Y-71374876D01*
X80897589Y-71374876D01*
G37*
M02*
