G04 #@! TF.GenerationSoftware,KiCad,Pcbnew,(5.1.4-0-10_14)*
G04 #@! TF.CreationDate,2019-10-08T21:24:40-07:00*
G04 #@! TF.ProjectId,VCO_Main,56434f5f-4d61-4696-9e2e-6b696361645f,rev?*
G04 #@! TF.SameCoordinates,Original*
G04 #@! TF.FileFunction,Legend,Bot*
G04 #@! TF.FilePolarity,Positive*
%FSLAX46Y46*%
G04 Gerber Fmt 4.6, Leading zero omitted, Abs format (unit mm)*
G04 Created by KiCad (PCBNEW (5.1.4-0-10_14)) date 2019-10-08 21:24:40*
%MOMM*%
%LPD*%
G04 APERTURE LIST*
%ADD10C,0.150000*%
%ADD11C,0.010000*%
%ADD12C,0.120000*%
G04 APERTURE END LIST*
D10*
X109410380Y-157948380D02*
X109172285Y-158948380D01*
X108981809Y-158234095D01*
X108791333Y-158948380D01*
X108553238Y-157948380D01*
X108172285Y-158948380D02*
X108172285Y-157948380D01*
X108172285Y-158424571D02*
X107600857Y-158424571D01*
X107600857Y-158948380D02*
X107600857Y-157948380D01*
X104813619Y-68032380D02*
X104480285Y-69032380D01*
X104146952Y-68032380D01*
X103242190Y-68937142D02*
X103289809Y-68984761D01*
X103432666Y-69032380D01*
X103527904Y-69032380D01*
X103670761Y-68984761D01*
X103766000Y-68889523D01*
X103813619Y-68794285D01*
X103861238Y-68603809D01*
X103861238Y-68460952D01*
X103813619Y-68270476D01*
X103766000Y-68175238D01*
X103670761Y-68080000D01*
X103527904Y-68032380D01*
X103432666Y-68032380D01*
X103289809Y-68080000D01*
X103242190Y-68127619D01*
X102623142Y-68032380D02*
X102432666Y-68032380D01*
X102337428Y-68080000D01*
X102242190Y-68175238D01*
X102194571Y-68365714D01*
X102194571Y-68699047D01*
X102242190Y-68889523D01*
X102337428Y-68984761D01*
X102432666Y-69032380D01*
X102623142Y-69032380D01*
X102718380Y-68984761D01*
X102813619Y-68889523D01*
X102861238Y-68699047D01*
X102861238Y-68365714D01*
X102813619Y-68175238D01*
X102718380Y-68080000D01*
X102623142Y-68032380D01*
X101004095Y-69032380D02*
X101004095Y-68032380D01*
X100670761Y-68746666D01*
X100337428Y-68032380D01*
X100337428Y-69032380D01*
X99432666Y-69032380D02*
X99432666Y-68508571D01*
X99480285Y-68413333D01*
X99575523Y-68365714D01*
X99766000Y-68365714D01*
X99861238Y-68413333D01*
X99432666Y-68984761D02*
X99527904Y-69032380D01*
X99766000Y-69032380D01*
X99861238Y-68984761D01*
X99908857Y-68889523D01*
X99908857Y-68794285D01*
X99861238Y-68699047D01*
X99766000Y-68651428D01*
X99527904Y-68651428D01*
X99432666Y-68603809D01*
X98956476Y-69032380D02*
X98956476Y-68365714D01*
X98956476Y-68032380D02*
X99004095Y-68080000D01*
X98956476Y-68127619D01*
X98908857Y-68080000D01*
X98956476Y-68032380D01*
X98956476Y-68127619D01*
X98480285Y-68365714D02*
X98480285Y-69032380D01*
X98480285Y-68460952D02*
X98432666Y-68413333D01*
X98337428Y-68365714D01*
X98194571Y-68365714D01*
X98099333Y-68413333D01*
X98051714Y-68508571D01*
X98051714Y-69032380D01*
X96480285Y-68508571D02*
X96337428Y-68556190D01*
X96289809Y-68603809D01*
X96242190Y-68699047D01*
X96242190Y-68841904D01*
X96289809Y-68937142D01*
X96337428Y-68984761D01*
X96432666Y-69032380D01*
X96813619Y-69032380D01*
X96813619Y-68032380D01*
X96480285Y-68032380D01*
X96385047Y-68080000D01*
X96337428Y-68127619D01*
X96289809Y-68222857D01*
X96289809Y-68318095D01*
X96337428Y-68413333D01*
X96385047Y-68460952D01*
X96480285Y-68508571D01*
X96813619Y-68508571D01*
X95670761Y-69032380D02*
X95766000Y-68984761D01*
X95813619Y-68937142D01*
X95861238Y-68841904D01*
X95861238Y-68556190D01*
X95813619Y-68460952D01*
X95766000Y-68413333D01*
X95670761Y-68365714D01*
X95527904Y-68365714D01*
X95432666Y-68413333D01*
X95385047Y-68460952D01*
X95337428Y-68556190D01*
X95337428Y-68841904D01*
X95385047Y-68937142D01*
X95432666Y-68984761D01*
X95527904Y-69032380D01*
X95670761Y-69032380D01*
X94480285Y-69032380D02*
X94480285Y-68508571D01*
X94527904Y-68413333D01*
X94623142Y-68365714D01*
X94813619Y-68365714D01*
X94908857Y-68413333D01*
X94480285Y-68984761D02*
X94575523Y-69032380D01*
X94813619Y-69032380D01*
X94908857Y-68984761D01*
X94956476Y-68889523D01*
X94956476Y-68794285D01*
X94908857Y-68699047D01*
X94813619Y-68651428D01*
X94575523Y-68651428D01*
X94480285Y-68603809D01*
X94004095Y-69032380D02*
X94004095Y-68365714D01*
X94004095Y-68556190D02*
X93956476Y-68460952D01*
X93908857Y-68413333D01*
X93813619Y-68365714D01*
X93718380Y-68365714D01*
X92956476Y-69032380D02*
X92956476Y-68032380D01*
X92956476Y-68984761D02*
X93051714Y-69032380D01*
X93242190Y-69032380D01*
X93337428Y-68984761D01*
X93385047Y-68937142D01*
X93432666Y-68841904D01*
X93432666Y-68556190D01*
X93385047Y-68460952D01*
X93337428Y-68413333D01*
X93242190Y-68365714D01*
X93051714Y-68365714D01*
X92956476Y-68413333D01*
X91146952Y-69032380D02*
X91480285Y-68556190D01*
X91718380Y-69032380D02*
X91718380Y-68032380D01*
X91337428Y-68032380D01*
X91242190Y-68080000D01*
X91194571Y-68127619D01*
X91146952Y-68222857D01*
X91146952Y-68365714D01*
X91194571Y-68460952D01*
X91242190Y-68508571D01*
X91337428Y-68556190D01*
X91718380Y-68556190D01*
X90337428Y-68984761D02*
X90432666Y-69032380D01*
X90623142Y-69032380D01*
X90718380Y-68984761D01*
X90766000Y-68889523D01*
X90766000Y-68508571D01*
X90718380Y-68413333D01*
X90623142Y-68365714D01*
X90432666Y-68365714D01*
X90337428Y-68413333D01*
X90289809Y-68508571D01*
X90289809Y-68603809D01*
X90766000Y-68699047D01*
X89956476Y-68365714D02*
X89718380Y-69032380D01*
X89480285Y-68365714D01*
X88432666Y-68032380D02*
X87813619Y-68032380D01*
X88146952Y-68413333D01*
X88004095Y-68413333D01*
X87908857Y-68460952D01*
X87861238Y-68508571D01*
X87813619Y-68603809D01*
X87813619Y-68841904D01*
X87861238Y-68937142D01*
X87908857Y-68984761D01*
X88004095Y-69032380D01*
X88289809Y-69032380D01*
X88385047Y-68984761D01*
X88432666Y-68937142D01*
X101814380Y-74779714D02*
X101814380Y-75351142D01*
X102814380Y-75065428D02*
X101814380Y-75065428D01*
X102766761Y-76065428D02*
X102814380Y-75970190D01*
X102814380Y-75779714D01*
X102766761Y-75684476D01*
X102671523Y-75636857D01*
X102290571Y-75636857D01*
X102195333Y-75684476D01*
X102147714Y-75779714D01*
X102147714Y-75970190D01*
X102195333Y-76065428D01*
X102290571Y-76113047D01*
X102385809Y-76113047D01*
X102481047Y-75636857D01*
X102814380Y-76541619D02*
X102147714Y-76541619D01*
X102242952Y-76541619D02*
X102195333Y-76589238D01*
X102147714Y-76684476D01*
X102147714Y-76827333D01*
X102195333Y-76922571D01*
X102290571Y-76970190D01*
X102814380Y-76970190D01*
X102290571Y-76970190D02*
X102195333Y-77017809D01*
X102147714Y-77113047D01*
X102147714Y-77255904D01*
X102195333Y-77351142D01*
X102290571Y-77398761D01*
X102814380Y-77398761D01*
X102147714Y-77874952D02*
X103147714Y-77874952D01*
X102195333Y-77874952D02*
X102147714Y-77970190D01*
X102147714Y-78160666D01*
X102195333Y-78255904D01*
X102242952Y-78303523D01*
X102338190Y-78351142D01*
X102623904Y-78351142D01*
X102719142Y-78303523D01*
X102766761Y-78255904D01*
X102814380Y-78160666D01*
X102814380Y-77970190D01*
X102766761Y-77874952D01*
X102766761Y-79208285D02*
X102814380Y-79113047D01*
X102814380Y-78922571D01*
X102766761Y-78827333D01*
X102719142Y-78779714D01*
X102623904Y-78732095D01*
X102338190Y-78732095D01*
X102242952Y-78779714D01*
X102195333Y-78827333D01*
X102147714Y-78922571D01*
X102147714Y-79113047D01*
X102195333Y-79208285D01*
X102814380Y-79779714D02*
X102766761Y-79684476D01*
X102719142Y-79636857D01*
X102623904Y-79589238D01*
X102338190Y-79589238D01*
X102242952Y-79636857D01*
X102195333Y-79684476D01*
X102147714Y-79779714D01*
X102147714Y-79922571D01*
X102195333Y-80017809D01*
X102242952Y-80065428D01*
X102338190Y-80113047D01*
X102623904Y-80113047D01*
X102719142Y-80065428D01*
X102766761Y-80017809D01*
X102814380Y-79922571D01*
X102814380Y-79779714D01*
X102528666Y-81255904D02*
X102528666Y-81732095D01*
X102814380Y-81160666D02*
X101814380Y-81494000D01*
X102814380Y-81827333D01*
X102814380Y-82589238D02*
X101814380Y-82589238D01*
X102766761Y-82589238D02*
X102814380Y-82494000D01*
X102814380Y-82303523D01*
X102766761Y-82208285D01*
X102719142Y-82160666D01*
X102623904Y-82113047D01*
X102338190Y-82113047D01*
X102242952Y-82160666D01*
X102195333Y-82208285D01*
X102147714Y-82303523D01*
X102147714Y-82494000D01*
X102195333Y-82589238D01*
X102147714Y-83065428D02*
X103004857Y-83065428D01*
X103100095Y-83017809D01*
X103147714Y-82922571D01*
X103147714Y-82874952D01*
X101814380Y-83065428D02*
X101862000Y-83017809D01*
X101909619Y-83065428D01*
X101862000Y-83113047D01*
X101814380Y-83065428D01*
X101909619Y-83065428D01*
X76144380Y-118213523D02*
X75668190Y-117880190D01*
X76144380Y-117642095D02*
X75144380Y-117642095D01*
X75144380Y-118023047D01*
X75192000Y-118118285D01*
X75239619Y-118165904D01*
X75334857Y-118213523D01*
X75477714Y-118213523D01*
X75572952Y-118165904D01*
X75620571Y-118118285D01*
X75668190Y-118023047D01*
X75668190Y-117642095D01*
X76096761Y-119023047D02*
X76144380Y-118927809D01*
X76144380Y-118737333D01*
X76096761Y-118642095D01*
X76001523Y-118594476D01*
X75620571Y-118594476D01*
X75525333Y-118642095D01*
X75477714Y-118737333D01*
X75477714Y-118927809D01*
X75525333Y-119023047D01*
X75620571Y-119070666D01*
X75715809Y-119070666D01*
X75811047Y-118594476D01*
X75477714Y-119356380D02*
X75477714Y-119737333D01*
X76144380Y-119499238D02*
X75287238Y-119499238D01*
X75192000Y-119546857D01*
X75144380Y-119642095D01*
X75144380Y-119737333D01*
X76144380Y-120832571D02*
X75144380Y-120832571D01*
X75144380Y-121213523D01*
X75192000Y-121308761D01*
X75239619Y-121356380D01*
X75334857Y-121404000D01*
X75477714Y-121404000D01*
X75572952Y-121356380D01*
X75620571Y-121308761D01*
X75668190Y-121213523D01*
X75668190Y-120832571D01*
X76144380Y-121832571D02*
X75477714Y-121832571D01*
X75144380Y-121832571D02*
X75192000Y-121784952D01*
X75239619Y-121832571D01*
X75192000Y-121880190D01*
X75144380Y-121832571D01*
X75239619Y-121832571D01*
X75477714Y-122165904D02*
X75477714Y-122546857D01*
X75144380Y-122308761D02*
X76001523Y-122308761D01*
X76096761Y-122356380D01*
X76144380Y-122451619D01*
X76144380Y-122546857D01*
X76096761Y-123308761D02*
X76144380Y-123213523D01*
X76144380Y-123023047D01*
X76096761Y-122927809D01*
X76049142Y-122880190D01*
X75953904Y-122832571D01*
X75668190Y-122832571D01*
X75572952Y-122880190D01*
X75525333Y-122927809D01*
X75477714Y-123023047D01*
X75477714Y-123213523D01*
X75525333Y-123308761D01*
X76144380Y-123737333D02*
X75144380Y-123737333D01*
X76144380Y-124165904D02*
X75620571Y-124165904D01*
X75525333Y-124118285D01*
X75477714Y-124023047D01*
X75477714Y-123880190D01*
X75525333Y-123784952D01*
X75572952Y-123737333D01*
X70556380Y-105132380D02*
X70080190Y-104799047D01*
X70556380Y-104560952D02*
X69556380Y-104560952D01*
X69556380Y-104941904D01*
X69604000Y-105037142D01*
X69651619Y-105084761D01*
X69746857Y-105132380D01*
X69889714Y-105132380D01*
X69984952Y-105084761D01*
X70032571Y-105037142D01*
X70080190Y-104941904D01*
X70080190Y-104560952D01*
X70508761Y-105941904D02*
X70556380Y-105846666D01*
X70556380Y-105656190D01*
X70508761Y-105560952D01*
X70413523Y-105513333D01*
X70032571Y-105513333D01*
X69937333Y-105560952D01*
X69889714Y-105656190D01*
X69889714Y-105846666D01*
X69937333Y-105941904D01*
X70032571Y-105989523D01*
X70127809Y-105989523D01*
X70223047Y-105513333D01*
X69889714Y-106275238D02*
X69889714Y-106656190D01*
X70556380Y-106418095D02*
X69699238Y-106418095D01*
X69604000Y-106465714D01*
X69556380Y-106560952D01*
X69556380Y-106656190D01*
X70556380Y-106989523D02*
X69889714Y-106989523D01*
X69556380Y-106989523D02*
X69604000Y-106941904D01*
X69651619Y-106989523D01*
X69604000Y-107037142D01*
X69556380Y-106989523D01*
X69651619Y-106989523D01*
X69889714Y-107465714D02*
X70556380Y-107465714D01*
X69984952Y-107465714D02*
X69937333Y-107513333D01*
X69889714Y-107608571D01*
X69889714Y-107751428D01*
X69937333Y-107846666D01*
X70032571Y-107894285D01*
X70556380Y-107894285D01*
X70556380Y-108799047D02*
X69556380Y-108799047D01*
X70508761Y-108799047D02*
X70556380Y-108703809D01*
X70556380Y-108513333D01*
X70508761Y-108418095D01*
X70461142Y-108370476D01*
X70365904Y-108322857D01*
X70080190Y-108322857D01*
X69984952Y-108370476D01*
X69937333Y-108418095D01*
X69889714Y-108513333D01*
X69889714Y-108703809D01*
X69937333Y-108799047D01*
X81748380Y-95377428D02*
X81748380Y-95948857D01*
X82748380Y-95663142D02*
X81748380Y-95663142D01*
X82748380Y-96282190D02*
X82081714Y-96282190D01*
X82272190Y-96282190D02*
X82176952Y-96329809D01*
X82129333Y-96377428D01*
X82081714Y-96472666D01*
X82081714Y-96567904D01*
X82748380Y-96901238D02*
X82081714Y-96901238D01*
X81748380Y-96901238D02*
X81796000Y-96853619D01*
X81843619Y-96901238D01*
X81796000Y-96948857D01*
X81748380Y-96901238D01*
X81843619Y-96901238D01*
X81748380Y-98329809D02*
X81748380Y-98520285D01*
X81796000Y-98615523D01*
X81891238Y-98710761D01*
X82081714Y-98758380D01*
X82415047Y-98758380D01*
X82605523Y-98710761D01*
X82700761Y-98615523D01*
X82748380Y-98520285D01*
X82748380Y-98329809D01*
X82700761Y-98234571D01*
X82605523Y-98139333D01*
X82415047Y-98091714D01*
X82081714Y-98091714D01*
X81891238Y-98139333D01*
X81796000Y-98234571D01*
X81748380Y-98329809D01*
X82081714Y-99044095D02*
X82081714Y-99425047D01*
X82748380Y-99186952D02*
X81891238Y-99186952D01*
X81796000Y-99234571D01*
X81748380Y-99329809D01*
X81748380Y-99425047D01*
X82081714Y-99615523D02*
X82081714Y-99996476D01*
X82748380Y-99758380D02*
X81891238Y-99758380D01*
X81796000Y-99806000D01*
X81748380Y-99901238D01*
X81748380Y-99996476D01*
X82700761Y-100282190D02*
X82748380Y-100377428D01*
X82748380Y-100567904D01*
X82700761Y-100663142D01*
X82605523Y-100710761D01*
X82557904Y-100710761D01*
X82462666Y-100663142D01*
X82415047Y-100567904D01*
X82415047Y-100425047D01*
X82367428Y-100329809D01*
X82272190Y-100282190D01*
X82224571Y-100282190D01*
X82129333Y-100329809D01*
X82081714Y-100425047D01*
X82081714Y-100567904D01*
X82129333Y-100663142D01*
X82700761Y-101520285D02*
X82748380Y-101425047D01*
X82748380Y-101234571D01*
X82700761Y-101139333D01*
X82605523Y-101091714D01*
X82224571Y-101091714D01*
X82129333Y-101139333D01*
X82081714Y-101234571D01*
X82081714Y-101425047D01*
X82129333Y-101520285D01*
X82224571Y-101567904D01*
X82319809Y-101567904D01*
X82415047Y-101091714D01*
X82081714Y-101853619D02*
X82081714Y-102234571D01*
X81748380Y-101996476D02*
X82605523Y-101996476D01*
X82700761Y-102044095D01*
X82748380Y-102139333D01*
X82748380Y-102234571D01*
X102814380Y-95925238D02*
X101814380Y-95925238D01*
X101814380Y-96306190D01*
X101862000Y-96401428D01*
X101909619Y-96449047D01*
X102004857Y-96496666D01*
X102147714Y-96496666D01*
X102242952Y-96449047D01*
X102290571Y-96401428D01*
X102338190Y-96306190D01*
X102338190Y-95925238D01*
X102147714Y-97353809D02*
X102814380Y-97353809D01*
X102147714Y-96925238D02*
X102671523Y-96925238D01*
X102766761Y-96972857D01*
X102814380Y-97068095D01*
X102814380Y-97210952D01*
X102766761Y-97306190D01*
X102719142Y-97353809D01*
X102814380Y-97972857D02*
X102766761Y-97877619D01*
X102671523Y-97830000D01*
X101814380Y-97830000D01*
X102766761Y-98306190D02*
X102814380Y-98401428D01*
X102814380Y-98591904D01*
X102766761Y-98687142D01*
X102671523Y-98734761D01*
X102623904Y-98734761D01*
X102528666Y-98687142D01*
X102481047Y-98591904D01*
X102481047Y-98449047D01*
X102433428Y-98353809D01*
X102338190Y-98306190D01*
X102290571Y-98306190D01*
X102195333Y-98353809D01*
X102147714Y-98449047D01*
X102147714Y-98591904D01*
X102195333Y-98687142D01*
X102766761Y-99544285D02*
X102814380Y-99449047D01*
X102814380Y-99258571D01*
X102766761Y-99163333D01*
X102671523Y-99115714D01*
X102290571Y-99115714D01*
X102195333Y-99163333D01*
X102147714Y-99258571D01*
X102147714Y-99449047D01*
X102195333Y-99544285D01*
X102290571Y-99591904D01*
X102385809Y-99591904D01*
X102481047Y-99115714D01*
X101814380Y-100972857D02*
X101814380Y-101163333D01*
X101862000Y-101258571D01*
X101957238Y-101353809D01*
X102147714Y-101401428D01*
X102481047Y-101401428D01*
X102671523Y-101353809D01*
X102766761Y-101258571D01*
X102814380Y-101163333D01*
X102814380Y-100972857D01*
X102766761Y-100877619D01*
X102671523Y-100782380D01*
X102481047Y-100734761D01*
X102147714Y-100734761D01*
X101957238Y-100782380D01*
X101862000Y-100877619D01*
X101814380Y-100972857D01*
X102147714Y-101687142D02*
X102147714Y-102068095D01*
X102814380Y-101830000D02*
X101957238Y-101830000D01*
X101862000Y-101877619D01*
X101814380Y-101972857D01*
X101814380Y-102068095D01*
X102147714Y-102258571D02*
X102147714Y-102639523D01*
X102814380Y-102401428D02*
X101957238Y-102401428D01*
X101862000Y-102449047D01*
X101814380Y-102544285D01*
X101814380Y-102639523D01*
X102766761Y-102925238D02*
X102814380Y-103020476D01*
X102814380Y-103210952D01*
X102766761Y-103306190D01*
X102671523Y-103353809D01*
X102623904Y-103353809D01*
X102528666Y-103306190D01*
X102481047Y-103210952D01*
X102481047Y-103068095D01*
X102433428Y-102972857D01*
X102338190Y-102925238D01*
X102290571Y-102925238D01*
X102195333Y-102972857D01*
X102147714Y-103068095D01*
X102147714Y-103210952D01*
X102195333Y-103306190D01*
X102766761Y-104163333D02*
X102814380Y-104068095D01*
X102814380Y-103877619D01*
X102766761Y-103782380D01*
X102671523Y-103734761D01*
X102290571Y-103734761D01*
X102195333Y-103782380D01*
X102147714Y-103877619D01*
X102147714Y-104068095D01*
X102195333Y-104163333D01*
X102290571Y-104210952D01*
X102385809Y-104210952D01*
X102481047Y-103734761D01*
X102147714Y-104496666D02*
X102147714Y-104877619D01*
X101814380Y-104639523D02*
X102671523Y-104639523D01*
X102766761Y-104687142D01*
X102814380Y-104782380D01*
X102814380Y-104877619D01*
X102766761Y-132540857D02*
X102814380Y-132683714D01*
X102814380Y-132921809D01*
X102766761Y-133017047D01*
X102719142Y-133064666D01*
X102623904Y-133112285D01*
X102528666Y-133112285D01*
X102433428Y-133064666D01*
X102385809Y-133017047D01*
X102338190Y-132921809D01*
X102290571Y-132731333D01*
X102242952Y-132636095D01*
X102195333Y-132588476D01*
X102100095Y-132540857D01*
X102004857Y-132540857D01*
X101909619Y-132588476D01*
X101862000Y-132636095D01*
X101814380Y-132731333D01*
X101814380Y-132969428D01*
X101862000Y-133112285D01*
X102814380Y-133969428D02*
X102290571Y-133969428D01*
X102195333Y-133921809D01*
X102147714Y-133826571D01*
X102147714Y-133636095D01*
X102195333Y-133540857D01*
X102766761Y-133969428D02*
X102814380Y-133874190D01*
X102814380Y-133636095D01*
X102766761Y-133540857D01*
X102671523Y-133493238D01*
X102576285Y-133493238D01*
X102481047Y-133540857D01*
X102433428Y-133636095D01*
X102433428Y-133874190D01*
X102385809Y-133969428D01*
X102147714Y-134350380D02*
X102814380Y-134540857D01*
X102338190Y-134731333D01*
X102814380Y-134921809D01*
X102147714Y-135112285D01*
X101814380Y-136445619D02*
X101814380Y-136636095D01*
X101862000Y-136731333D01*
X101957238Y-136826571D01*
X102147714Y-136874190D01*
X102481047Y-136874190D01*
X102671523Y-136826571D01*
X102766761Y-136731333D01*
X102814380Y-136636095D01*
X102814380Y-136445619D01*
X102766761Y-136350380D01*
X102671523Y-136255142D01*
X102481047Y-136207523D01*
X102147714Y-136207523D01*
X101957238Y-136255142D01*
X101862000Y-136350380D01*
X101814380Y-136445619D01*
X102147714Y-137159904D02*
X102147714Y-137540857D01*
X102814380Y-137302761D02*
X101957238Y-137302761D01*
X101862000Y-137350380D01*
X101814380Y-137445619D01*
X101814380Y-137540857D01*
X102147714Y-137731333D02*
X102147714Y-138112285D01*
X102814380Y-137874190D02*
X101957238Y-137874190D01*
X101862000Y-137921809D01*
X101814380Y-138017047D01*
X101814380Y-138112285D01*
X102766761Y-138398000D02*
X102814380Y-138493238D01*
X102814380Y-138683714D01*
X102766761Y-138778952D01*
X102671523Y-138826571D01*
X102623904Y-138826571D01*
X102528666Y-138778952D01*
X102481047Y-138683714D01*
X102481047Y-138540857D01*
X102433428Y-138445619D01*
X102338190Y-138398000D01*
X102290571Y-138398000D01*
X102195333Y-138445619D01*
X102147714Y-138540857D01*
X102147714Y-138683714D01*
X102195333Y-138778952D01*
X102766761Y-139636095D02*
X102814380Y-139540857D01*
X102814380Y-139350380D01*
X102766761Y-139255142D01*
X102671523Y-139207523D01*
X102290571Y-139207523D01*
X102195333Y-139255142D01*
X102147714Y-139350380D01*
X102147714Y-139540857D01*
X102195333Y-139636095D01*
X102290571Y-139683714D01*
X102385809Y-139683714D01*
X102481047Y-139207523D01*
X102147714Y-139969428D02*
X102147714Y-140350380D01*
X101814380Y-140112285D02*
X102671523Y-140112285D01*
X102766761Y-140159904D01*
X102814380Y-140255142D01*
X102814380Y-140350380D01*
X85423142Y-68984761D02*
X85280285Y-69032380D01*
X85042190Y-69032380D01*
X84946952Y-68984761D01*
X84899333Y-68937142D01*
X84851714Y-68841904D01*
X84851714Y-68746666D01*
X84899333Y-68651428D01*
X84946952Y-68603809D01*
X85042190Y-68556190D01*
X85232666Y-68508571D01*
X85327904Y-68460952D01*
X85375523Y-68413333D01*
X85423142Y-68318095D01*
X85423142Y-68222857D01*
X85375523Y-68127619D01*
X85327904Y-68080000D01*
X85232666Y-68032380D01*
X84994571Y-68032380D01*
X84851714Y-68080000D01*
X83994571Y-68984761D02*
X84089809Y-69032380D01*
X84280285Y-69032380D01*
X84375523Y-68984761D01*
X84423142Y-68937142D01*
X84470761Y-68841904D01*
X84470761Y-68556190D01*
X84423142Y-68460952D01*
X84375523Y-68413333D01*
X84280285Y-68365714D01*
X84089809Y-68365714D01*
X83994571Y-68413333D01*
X83137428Y-69032380D02*
X83137428Y-68508571D01*
X83185047Y-68413333D01*
X83280285Y-68365714D01*
X83470761Y-68365714D01*
X83566000Y-68413333D01*
X83137428Y-68984761D02*
X83232666Y-69032380D01*
X83470761Y-69032380D01*
X83566000Y-68984761D01*
X83613619Y-68889523D01*
X83613619Y-68794285D01*
X83566000Y-68699047D01*
X83470761Y-68651428D01*
X83232666Y-68651428D01*
X83137428Y-68603809D01*
X82518380Y-69032380D02*
X82613619Y-68984761D01*
X82661238Y-68889523D01*
X82661238Y-68032380D01*
X81756476Y-68984761D02*
X81851714Y-69032380D01*
X82042190Y-69032380D01*
X82137428Y-68984761D01*
X82185047Y-68889523D01*
X82185047Y-68508571D01*
X82137428Y-68413333D01*
X82042190Y-68365714D01*
X81851714Y-68365714D01*
X81756476Y-68413333D01*
X81708857Y-68508571D01*
X81708857Y-68603809D01*
X82185047Y-68699047D01*
X83462761Y-109744380D02*
X83510380Y-109887238D01*
X83510380Y-110125333D01*
X83462761Y-110220571D01*
X83415142Y-110268190D01*
X83319904Y-110315809D01*
X83224666Y-110315809D01*
X83129428Y-110268190D01*
X83081809Y-110220571D01*
X83034190Y-110125333D01*
X82986571Y-109934857D01*
X82938952Y-109839619D01*
X82891333Y-109792000D01*
X82796095Y-109744380D01*
X82700857Y-109744380D01*
X82605619Y-109792000D01*
X82558000Y-109839619D01*
X82510380Y-109934857D01*
X82510380Y-110172952D01*
X82558000Y-110315809D01*
X83510380Y-110744380D02*
X82843714Y-110744380D01*
X82510380Y-110744380D02*
X82558000Y-110696761D01*
X82605619Y-110744380D01*
X82558000Y-110792000D01*
X82510380Y-110744380D01*
X82605619Y-110744380D01*
X82843714Y-111220571D02*
X83510380Y-111220571D01*
X82938952Y-111220571D02*
X82891333Y-111268190D01*
X82843714Y-111363428D01*
X82843714Y-111506285D01*
X82891333Y-111601523D01*
X82986571Y-111649142D01*
X83510380Y-111649142D01*
X83462761Y-112506285D02*
X83510380Y-112411047D01*
X83510380Y-112220571D01*
X83462761Y-112125333D01*
X83367523Y-112077714D01*
X82986571Y-112077714D01*
X82891333Y-112125333D01*
X82843714Y-112220571D01*
X82843714Y-112411047D01*
X82891333Y-112506285D01*
X82986571Y-112553904D01*
X83081809Y-112553904D01*
X83177047Y-112077714D01*
X83462761Y-113696761D02*
X83510380Y-113839619D01*
X83510380Y-114077714D01*
X83462761Y-114172952D01*
X83415142Y-114220571D01*
X83319904Y-114268190D01*
X83224666Y-114268190D01*
X83129428Y-114220571D01*
X83081809Y-114172952D01*
X83034190Y-114077714D01*
X82986571Y-113887238D01*
X82938952Y-113792000D01*
X82891333Y-113744380D01*
X82796095Y-113696761D01*
X82700857Y-113696761D01*
X82605619Y-113744380D01*
X82558000Y-113792000D01*
X82510380Y-113887238D01*
X82510380Y-114125333D01*
X82558000Y-114268190D01*
X83510380Y-114696761D02*
X82510380Y-114696761D01*
X83510380Y-115125333D02*
X82986571Y-115125333D01*
X82891333Y-115077714D01*
X82843714Y-114982476D01*
X82843714Y-114839619D01*
X82891333Y-114744380D01*
X82938952Y-114696761D01*
X83510380Y-116030095D02*
X82986571Y-116030095D01*
X82891333Y-115982476D01*
X82843714Y-115887238D01*
X82843714Y-115696761D01*
X82891333Y-115601523D01*
X83462761Y-116030095D02*
X83510380Y-115934857D01*
X83510380Y-115696761D01*
X83462761Y-115601523D01*
X83367523Y-115553904D01*
X83272285Y-115553904D01*
X83177047Y-115601523D01*
X83129428Y-115696761D01*
X83129428Y-115934857D01*
X83081809Y-116030095D01*
X82843714Y-116506285D02*
X83843714Y-116506285D01*
X82891333Y-116506285D02*
X82843714Y-116601523D01*
X82843714Y-116792000D01*
X82891333Y-116887238D01*
X82938952Y-116934857D01*
X83034190Y-116982476D01*
X83319904Y-116982476D01*
X83415142Y-116934857D01*
X83462761Y-116887238D01*
X83510380Y-116792000D01*
X83510380Y-116601523D01*
X83462761Y-116506285D01*
X83462761Y-117792000D02*
X83510380Y-117696761D01*
X83510380Y-117506285D01*
X83462761Y-117411047D01*
X83367523Y-117363428D01*
X82986571Y-117363428D01*
X82891333Y-117411047D01*
X82843714Y-117506285D01*
X82843714Y-117696761D01*
X82891333Y-117792000D01*
X82986571Y-117839619D01*
X83081809Y-117839619D01*
X83177047Y-117363428D01*
X102766761Y-120063047D02*
X102814380Y-120205904D01*
X102814380Y-120444000D01*
X102766761Y-120539238D01*
X102719142Y-120586857D01*
X102623904Y-120634476D01*
X102528666Y-120634476D01*
X102433428Y-120586857D01*
X102385809Y-120539238D01*
X102338190Y-120444000D01*
X102290571Y-120253523D01*
X102242952Y-120158285D01*
X102195333Y-120110666D01*
X102100095Y-120063047D01*
X102004857Y-120063047D01*
X101909619Y-120110666D01*
X101862000Y-120158285D01*
X101814380Y-120253523D01*
X101814380Y-120491619D01*
X101862000Y-120634476D01*
X102814380Y-121063047D02*
X102147714Y-121063047D01*
X101814380Y-121063047D02*
X101862000Y-121015428D01*
X101909619Y-121063047D01*
X101862000Y-121110666D01*
X101814380Y-121063047D01*
X101909619Y-121063047D01*
X102147714Y-121539238D02*
X102814380Y-121539238D01*
X102242952Y-121539238D02*
X102195333Y-121586857D01*
X102147714Y-121682095D01*
X102147714Y-121824952D01*
X102195333Y-121920190D01*
X102290571Y-121967809D01*
X102814380Y-121967809D01*
X102766761Y-122824952D02*
X102814380Y-122729714D01*
X102814380Y-122539238D01*
X102766761Y-122444000D01*
X102671523Y-122396380D01*
X102290571Y-122396380D01*
X102195333Y-122444000D01*
X102147714Y-122539238D01*
X102147714Y-122729714D01*
X102195333Y-122824952D01*
X102290571Y-122872571D01*
X102385809Y-122872571D01*
X102481047Y-122396380D01*
X102290571Y-124396380D02*
X102338190Y-124539238D01*
X102385809Y-124586857D01*
X102481047Y-124634476D01*
X102623904Y-124634476D01*
X102719142Y-124586857D01*
X102766761Y-124539238D01*
X102814380Y-124444000D01*
X102814380Y-124063047D01*
X101814380Y-124063047D01*
X101814380Y-124396380D01*
X101862000Y-124491619D01*
X101909619Y-124539238D01*
X102004857Y-124586857D01*
X102100095Y-124586857D01*
X102195333Y-124539238D01*
X102242952Y-124491619D01*
X102290571Y-124396380D01*
X102290571Y-124063047D01*
X102814380Y-125063047D02*
X102147714Y-125063047D01*
X101814380Y-125063047D02*
X101862000Y-125015428D01*
X101909619Y-125063047D01*
X101862000Y-125110666D01*
X101814380Y-125063047D01*
X101909619Y-125063047D01*
X102814380Y-125967809D02*
X102290571Y-125967809D01*
X102195333Y-125920190D01*
X102147714Y-125824952D01*
X102147714Y-125634476D01*
X102195333Y-125539238D01*
X102766761Y-125967809D02*
X102814380Y-125872571D01*
X102814380Y-125634476D01*
X102766761Y-125539238D01*
X102671523Y-125491619D01*
X102576285Y-125491619D01*
X102481047Y-125539238D01*
X102433428Y-125634476D01*
X102433428Y-125872571D01*
X102385809Y-125967809D01*
X102766761Y-126396380D02*
X102814380Y-126491619D01*
X102814380Y-126682095D01*
X102766761Y-126777333D01*
X102671523Y-126824952D01*
X102623904Y-126824952D01*
X102528666Y-126777333D01*
X102481047Y-126682095D01*
X102481047Y-126539238D01*
X102433428Y-126444000D01*
X102338190Y-126396380D01*
X102290571Y-126396380D01*
X102195333Y-126444000D01*
X102147714Y-126539238D01*
X102147714Y-126682095D01*
X102195333Y-126777333D01*
X102766761Y-109593523D02*
X102814380Y-109736380D01*
X102814380Y-109974476D01*
X102766761Y-110069714D01*
X102719142Y-110117333D01*
X102623904Y-110164952D01*
X102528666Y-110164952D01*
X102433428Y-110117333D01*
X102385809Y-110069714D01*
X102338190Y-109974476D01*
X102290571Y-109784000D01*
X102242952Y-109688761D01*
X102195333Y-109641142D01*
X102100095Y-109593523D01*
X102004857Y-109593523D01*
X101909619Y-109641142D01*
X101862000Y-109688761D01*
X101814380Y-109784000D01*
X101814380Y-110022095D01*
X101862000Y-110164952D01*
X102814380Y-110593523D02*
X102147714Y-110593523D01*
X101814380Y-110593523D02*
X101862000Y-110545904D01*
X101909619Y-110593523D01*
X101862000Y-110641142D01*
X101814380Y-110593523D01*
X101909619Y-110593523D01*
X102147714Y-111069714D02*
X102814380Y-111069714D01*
X102242952Y-111069714D02*
X102195333Y-111117333D01*
X102147714Y-111212571D01*
X102147714Y-111355428D01*
X102195333Y-111450666D01*
X102290571Y-111498285D01*
X102814380Y-111498285D01*
X102766761Y-112355428D02*
X102814380Y-112260190D01*
X102814380Y-112069714D01*
X102766761Y-111974476D01*
X102671523Y-111926857D01*
X102290571Y-111926857D01*
X102195333Y-111974476D01*
X102147714Y-112069714D01*
X102147714Y-112260190D01*
X102195333Y-112355428D01*
X102290571Y-112403047D01*
X102385809Y-112403047D01*
X102481047Y-111926857D01*
X102814380Y-114069714D02*
X102814380Y-113593523D01*
X101814380Y-113593523D01*
X102766761Y-114784000D02*
X102814380Y-114688761D01*
X102814380Y-114498285D01*
X102766761Y-114403047D01*
X102671523Y-114355428D01*
X102290571Y-114355428D01*
X102195333Y-114403047D01*
X102147714Y-114498285D01*
X102147714Y-114688761D01*
X102195333Y-114784000D01*
X102290571Y-114831619D01*
X102385809Y-114831619D01*
X102481047Y-114355428D01*
X102147714Y-115164952D02*
X102814380Y-115403047D01*
X102147714Y-115641142D01*
X102766761Y-116403047D02*
X102814380Y-116307809D01*
X102814380Y-116117333D01*
X102766761Y-116022095D01*
X102671523Y-115974476D01*
X102290571Y-115974476D01*
X102195333Y-116022095D01*
X102147714Y-116117333D01*
X102147714Y-116307809D01*
X102195333Y-116403047D01*
X102290571Y-116450666D01*
X102385809Y-116450666D01*
X102481047Y-115974476D01*
X102814380Y-117022095D02*
X102766761Y-116926857D01*
X102671523Y-116879238D01*
X101814380Y-116879238D01*
D11*
G36*
X78890090Y-153706348D02*
G01*
X78811546Y-153706778D01*
X78754702Y-153707942D01*
X78715895Y-153710207D01*
X78691462Y-153713940D01*
X78677738Y-153719506D01*
X78671060Y-153727273D01*
X78667764Y-153737605D01*
X78667444Y-153738943D01*
X78662438Y-153763079D01*
X78653171Y-153810701D01*
X78640608Y-153876741D01*
X78625713Y-153956128D01*
X78609449Y-154043796D01*
X78608881Y-154046875D01*
X78592590Y-154132789D01*
X78577348Y-154208696D01*
X78564139Y-154270045D01*
X78553946Y-154312282D01*
X78547752Y-154330855D01*
X78547457Y-154331184D01*
X78529212Y-154340253D01*
X78491595Y-154355367D01*
X78442729Y-154373262D01*
X78442457Y-154373358D01*
X78380907Y-154396493D01*
X78308343Y-154425965D01*
X78239943Y-154455597D01*
X78236706Y-154457062D01*
X78125298Y-154507626D01*
X77878601Y-154339160D01*
X77802923Y-154287803D01*
X77734369Y-154241889D01*
X77676912Y-154204030D01*
X77634524Y-154176837D01*
X77611175Y-154162921D01*
X77608958Y-154161889D01*
X77591990Y-154166484D01*
X77560299Y-154188655D01*
X77512648Y-154229447D01*
X77447802Y-154289905D01*
X77381603Y-154354227D01*
X77317786Y-154417612D01*
X77260671Y-154475451D01*
X77213695Y-154524175D01*
X77180297Y-154560210D01*
X77163915Y-154579984D01*
X77163306Y-154581002D01*
X77161495Y-154594572D01*
X77168317Y-154616733D01*
X77185460Y-154650478D01*
X77214607Y-154698800D01*
X77257445Y-154764692D01*
X77314552Y-154849517D01*
X77365234Y-154924177D01*
X77410539Y-154991140D01*
X77447850Y-155046516D01*
X77474548Y-155086420D01*
X77488015Y-155106962D01*
X77488863Y-155108356D01*
X77487219Y-155128038D01*
X77474755Y-155166293D01*
X77453952Y-155215889D01*
X77446538Y-155231728D01*
X77414186Y-155302290D01*
X77379672Y-155382353D01*
X77351635Y-155451629D01*
X77331432Y-155503045D01*
X77315385Y-155542119D01*
X77306112Y-155562541D01*
X77304959Y-155564114D01*
X77287904Y-155566721D01*
X77247702Y-155573863D01*
X77189698Y-155584523D01*
X77119237Y-155597685D01*
X77041665Y-155612333D01*
X76962328Y-155627449D01*
X76886569Y-155642018D01*
X76819736Y-155655022D01*
X76767172Y-155665445D01*
X76734224Y-155672270D01*
X76726143Y-155674199D01*
X76717795Y-155678962D01*
X76711494Y-155689718D01*
X76706955Y-155710098D01*
X76703896Y-155743734D01*
X76702033Y-155794255D01*
X76701082Y-155865292D01*
X76700760Y-155960476D01*
X76700743Y-155999492D01*
X76700743Y-156316799D01*
X76776943Y-156331839D01*
X76819337Y-156339995D01*
X76882600Y-156351899D01*
X76959038Y-156366116D01*
X77040957Y-156381210D01*
X77063600Y-156385355D01*
X77139194Y-156400053D01*
X77205047Y-156414505D01*
X77255634Y-156427375D01*
X77285426Y-156437322D01*
X77290388Y-156440287D01*
X77302574Y-156461283D01*
X77320047Y-156501967D01*
X77339423Y-156554322D01*
X77343266Y-156565600D01*
X77368661Y-156635523D01*
X77400183Y-156714418D01*
X77431031Y-156785266D01*
X77431183Y-156785595D01*
X77482553Y-156896733D01*
X77313601Y-157145253D01*
X77144648Y-157393772D01*
X77361571Y-157611058D01*
X77427181Y-157675726D01*
X77487021Y-157732733D01*
X77537733Y-157779033D01*
X77575954Y-157811584D01*
X77598325Y-157827343D01*
X77601534Y-157828343D01*
X77620374Y-157820469D01*
X77658820Y-157798578D01*
X77712670Y-157765267D01*
X77777724Y-157723131D01*
X77848060Y-157675943D01*
X77919445Y-157627810D01*
X77983092Y-157585928D01*
X78034959Y-157552871D01*
X78071005Y-157531218D01*
X78087133Y-157523543D01*
X78106811Y-157530037D01*
X78144125Y-157547150D01*
X78191379Y-157571326D01*
X78196388Y-157574013D01*
X78260023Y-157605927D01*
X78303659Y-157621579D01*
X78330798Y-157621745D01*
X78344943Y-157607204D01*
X78345025Y-157607000D01*
X78352095Y-157589779D01*
X78368958Y-157548899D01*
X78394305Y-157487525D01*
X78426829Y-157408819D01*
X78465222Y-157315947D01*
X78508178Y-157212072D01*
X78549778Y-157111502D01*
X78595496Y-157000516D01*
X78637474Y-156897703D01*
X78674452Y-156806215D01*
X78705173Y-156729201D01*
X78728378Y-156669815D01*
X78742810Y-156631209D01*
X78747257Y-156616800D01*
X78736104Y-156600272D01*
X78706931Y-156573930D01*
X78668029Y-156544887D01*
X78557243Y-156453039D01*
X78470649Y-156347759D01*
X78409284Y-156231266D01*
X78374185Y-156105776D01*
X78366392Y-155973507D01*
X78372057Y-155912457D01*
X78402922Y-155785795D01*
X78456080Y-155673941D01*
X78528233Y-155578001D01*
X78616083Y-155499076D01*
X78716335Y-155438270D01*
X78825690Y-155396687D01*
X78940853Y-155375428D01*
X79058525Y-155375599D01*
X79175410Y-155398301D01*
X79288211Y-155444638D01*
X79393631Y-155515713D01*
X79437632Y-155555911D01*
X79522021Y-155659129D01*
X79580778Y-155771925D01*
X79614296Y-155891010D01*
X79622965Y-156013095D01*
X79607177Y-156134893D01*
X79567322Y-156253116D01*
X79503793Y-156364475D01*
X79416979Y-156465684D01*
X79319971Y-156544887D01*
X79279563Y-156575162D01*
X79251018Y-156601219D01*
X79240743Y-156616825D01*
X79246123Y-156633843D01*
X79261425Y-156674500D01*
X79285388Y-156735642D01*
X79316756Y-156814119D01*
X79354268Y-156906780D01*
X79396667Y-157010472D01*
X79438337Y-157111526D01*
X79484310Y-157222607D01*
X79526893Y-157325541D01*
X79564779Y-157417165D01*
X79596660Y-157494316D01*
X79621229Y-157553831D01*
X79637180Y-157592544D01*
X79643090Y-157607000D01*
X79657052Y-157621685D01*
X79684060Y-157621642D01*
X79727587Y-157606099D01*
X79791110Y-157574284D01*
X79791612Y-157574013D01*
X79839440Y-157549323D01*
X79878103Y-157531338D01*
X79899905Y-157523614D01*
X79900867Y-157523543D01*
X79917279Y-157531378D01*
X79953513Y-157553165D01*
X80005526Y-157586328D01*
X80069275Y-157628291D01*
X80139940Y-157675943D01*
X80211884Y-157724191D01*
X80276726Y-157766151D01*
X80330265Y-157799227D01*
X80368303Y-157820821D01*
X80386467Y-157828343D01*
X80403192Y-157818457D01*
X80436820Y-157790826D01*
X80483990Y-157748495D01*
X80541342Y-157694505D01*
X80605516Y-157631899D01*
X80626503Y-157610983D01*
X80843501Y-157393623D01*
X80678332Y-157151220D01*
X80628136Y-157076781D01*
X80584081Y-157009972D01*
X80548638Y-156954665D01*
X80524281Y-156914729D01*
X80513478Y-156894036D01*
X80513162Y-156892563D01*
X80518857Y-156873058D01*
X80534174Y-156833822D01*
X80556463Y-156781430D01*
X80572107Y-156746355D01*
X80601359Y-156679201D01*
X80628906Y-156611358D01*
X80650263Y-156554034D01*
X80656065Y-156536572D01*
X80672548Y-156489938D01*
X80688660Y-156453905D01*
X80697510Y-156440287D01*
X80717040Y-156431952D01*
X80759666Y-156420137D01*
X80819855Y-156406181D01*
X80892078Y-156391422D01*
X80924400Y-156385355D01*
X81006478Y-156370273D01*
X81085205Y-156355669D01*
X81152891Y-156342980D01*
X81201840Y-156333642D01*
X81211057Y-156331839D01*
X81287257Y-156316799D01*
X81287257Y-155999492D01*
X81287086Y-155895154D01*
X81286384Y-155816213D01*
X81284866Y-155759038D01*
X81282251Y-155719999D01*
X81278254Y-155695465D01*
X81272591Y-155681805D01*
X81264980Y-155675389D01*
X81261857Y-155674199D01*
X81243022Y-155669980D01*
X81201412Y-155661562D01*
X81142370Y-155649961D01*
X81071243Y-155636195D01*
X80993375Y-155621280D01*
X80914113Y-155606232D01*
X80838802Y-155592069D01*
X80772787Y-155579806D01*
X80721413Y-155570461D01*
X80690025Y-155565050D01*
X80683041Y-155564114D01*
X80676715Y-155551596D01*
X80662710Y-155518246D01*
X80643645Y-155470377D01*
X80636366Y-155451629D01*
X80607004Y-155379195D01*
X80572429Y-155299170D01*
X80541463Y-155231728D01*
X80518677Y-155180159D01*
X80503518Y-155137785D01*
X80498458Y-155111834D01*
X80499264Y-155108356D01*
X80509959Y-155091936D01*
X80534380Y-155055417D01*
X80569905Y-155002687D01*
X80613913Y-154937635D01*
X80663783Y-154864151D01*
X80673644Y-154849645D01*
X80731508Y-154763704D01*
X80774044Y-154698261D01*
X80802946Y-154650304D01*
X80819910Y-154616820D01*
X80826633Y-154594795D01*
X80824810Y-154581217D01*
X80824764Y-154581131D01*
X80810414Y-154563297D01*
X80778677Y-154528817D01*
X80732990Y-154481268D01*
X80676796Y-154424222D01*
X80613532Y-154361255D01*
X80606398Y-154354227D01*
X80526670Y-154277020D01*
X80465143Y-154220330D01*
X80420579Y-154183110D01*
X80391743Y-154164315D01*
X80379042Y-154161889D01*
X80360506Y-154172471D01*
X80322039Y-154196916D01*
X80267614Y-154232612D01*
X80201202Y-154276947D01*
X80126775Y-154327311D01*
X80109399Y-154339160D01*
X79862703Y-154507626D01*
X79751294Y-154457062D01*
X79683543Y-154427595D01*
X79610817Y-154397959D01*
X79548297Y-154374330D01*
X79545543Y-154373358D01*
X79496640Y-154355457D01*
X79458943Y-154340320D01*
X79440575Y-154331210D01*
X79440544Y-154331184D01*
X79434715Y-154314717D01*
X79424808Y-154274219D01*
X79411805Y-154214242D01*
X79396691Y-154139340D01*
X79380448Y-154054064D01*
X79379119Y-154046875D01*
X79362825Y-153959014D01*
X79347867Y-153879260D01*
X79335209Y-153812681D01*
X79325814Y-153764347D01*
X79320646Y-153739325D01*
X79320556Y-153738943D01*
X79317411Y-153728299D01*
X79311296Y-153720262D01*
X79298547Y-153714467D01*
X79275500Y-153710547D01*
X79238491Y-153708135D01*
X79183856Y-153706865D01*
X79107933Y-153706371D01*
X79007056Y-153706286D01*
X78994000Y-153706286D01*
X78890090Y-153706348D01*
X78890090Y-153706348D01*
G37*
X78890090Y-153706348D02*
X78811546Y-153706778D01*
X78754702Y-153707942D01*
X78715895Y-153710207D01*
X78691462Y-153713940D01*
X78677738Y-153719506D01*
X78671060Y-153727273D01*
X78667764Y-153737605D01*
X78667444Y-153738943D01*
X78662438Y-153763079D01*
X78653171Y-153810701D01*
X78640608Y-153876741D01*
X78625713Y-153956128D01*
X78609449Y-154043796D01*
X78608881Y-154046875D01*
X78592590Y-154132789D01*
X78577348Y-154208696D01*
X78564139Y-154270045D01*
X78553946Y-154312282D01*
X78547752Y-154330855D01*
X78547457Y-154331184D01*
X78529212Y-154340253D01*
X78491595Y-154355367D01*
X78442729Y-154373262D01*
X78442457Y-154373358D01*
X78380907Y-154396493D01*
X78308343Y-154425965D01*
X78239943Y-154455597D01*
X78236706Y-154457062D01*
X78125298Y-154507626D01*
X77878601Y-154339160D01*
X77802923Y-154287803D01*
X77734369Y-154241889D01*
X77676912Y-154204030D01*
X77634524Y-154176837D01*
X77611175Y-154162921D01*
X77608958Y-154161889D01*
X77591990Y-154166484D01*
X77560299Y-154188655D01*
X77512648Y-154229447D01*
X77447802Y-154289905D01*
X77381603Y-154354227D01*
X77317786Y-154417612D01*
X77260671Y-154475451D01*
X77213695Y-154524175D01*
X77180297Y-154560210D01*
X77163915Y-154579984D01*
X77163306Y-154581002D01*
X77161495Y-154594572D01*
X77168317Y-154616733D01*
X77185460Y-154650478D01*
X77214607Y-154698800D01*
X77257445Y-154764692D01*
X77314552Y-154849517D01*
X77365234Y-154924177D01*
X77410539Y-154991140D01*
X77447850Y-155046516D01*
X77474548Y-155086420D01*
X77488015Y-155106962D01*
X77488863Y-155108356D01*
X77487219Y-155128038D01*
X77474755Y-155166293D01*
X77453952Y-155215889D01*
X77446538Y-155231728D01*
X77414186Y-155302290D01*
X77379672Y-155382353D01*
X77351635Y-155451629D01*
X77331432Y-155503045D01*
X77315385Y-155542119D01*
X77306112Y-155562541D01*
X77304959Y-155564114D01*
X77287904Y-155566721D01*
X77247702Y-155573863D01*
X77189698Y-155584523D01*
X77119237Y-155597685D01*
X77041665Y-155612333D01*
X76962328Y-155627449D01*
X76886569Y-155642018D01*
X76819736Y-155655022D01*
X76767172Y-155665445D01*
X76734224Y-155672270D01*
X76726143Y-155674199D01*
X76717795Y-155678962D01*
X76711494Y-155689718D01*
X76706955Y-155710098D01*
X76703896Y-155743734D01*
X76702033Y-155794255D01*
X76701082Y-155865292D01*
X76700760Y-155960476D01*
X76700743Y-155999492D01*
X76700743Y-156316799D01*
X76776943Y-156331839D01*
X76819337Y-156339995D01*
X76882600Y-156351899D01*
X76959038Y-156366116D01*
X77040957Y-156381210D01*
X77063600Y-156385355D01*
X77139194Y-156400053D01*
X77205047Y-156414505D01*
X77255634Y-156427375D01*
X77285426Y-156437322D01*
X77290388Y-156440287D01*
X77302574Y-156461283D01*
X77320047Y-156501967D01*
X77339423Y-156554322D01*
X77343266Y-156565600D01*
X77368661Y-156635523D01*
X77400183Y-156714418D01*
X77431031Y-156785266D01*
X77431183Y-156785595D01*
X77482553Y-156896733D01*
X77313601Y-157145253D01*
X77144648Y-157393772D01*
X77361571Y-157611058D01*
X77427181Y-157675726D01*
X77487021Y-157732733D01*
X77537733Y-157779033D01*
X77575954Y-157811584D01*
X77598325Y-157827343D01*
X77601534Y-157828343D01*
X77620374Y-157820469D01*
X77658820Y-157798578D01*
X77712670Y-157765267D01*
X77777724Y-157723131D01*
X77848060Y-157675943D01*
X77919445Y-157627810D01*
X77983092Y-157585928D01*
X78034959Y-157552871D01*
X78071005Y-157531218D01*
X78087133Y-157523543D01*
X78106811Y-157530037D01*
X78144125Y-157547150D01*
X78191379Y-157571326D01*
X78196388Y-157574013D01*
X78260023Y-157605927D01*
X78303659Y-157621579D01*
X78330798Y-157621745D01*
X78344943Y-157607204D01*
X78345025Y-157607000D01*
X78352095Y-157589779D01*
X78368958Y-157548899D01*
X78394305Y-157487525D01*
X78426829Y-157408819D01*
X78465222Y-157315947D01*
X78508178Y-157212072D01*
X78549778Y-157111502D01*
X78595496Y-157000516D01*
X78637474Y-156897703D01*
X78674452Y-156806215D01*
X78705173Y-156729201D01*
X78728378Y-156669815D01*
X78742810Y-156631209D01*
X78747257Y-156616800D01*
X78736104Y-156600272D01*
X78706931Y-156573930D01*
X78668029Y-156544887D01*
X78557243Y-156453039D01*
X78470649Y-156347759D01*
X78409284Y-156231266D01*
X78374185Y-156105776D01*
X78366392Y-155973507D01*
X78372057Y-155912457D01*
X78402922Y-155785795D01*
X78456080Y-155673941D01*
X78528233Y-155578001D01*
X78616083Y-155499076D01*
X78716335Y-155438270D01*
X78825690Y-155396687D01*
X78940853Y-155375428D01*
X79058525Y-155375599D01*
X79175410Y-155398301D01*
X79288211Y-155444638D01*
X79393631Y-155515713D01*
X79437632Y-155555911D01*
X79522021Y-155659129D01*
X79580778Y-155771925D01*
X79614296Y-155891010D01*
X79622965Y-156013095D01*
X79607177Y-156134893D01*
X79567322Y-156253116D01*
X79503793Y-156364475D01*
X79416979Y-156465684D01*
X79319971Y-156544887D01*
X79279563Y-156575162D01*
X79251018Y-156601219D01*
X79240743Y-156616825D01*
X79246123Y-156633843D01*
X79261425Y-156674500D01*
X79285388Y-156735642D01*
X79316756Y-156814119D01*
X79354268Y-156906780D01*
X79396667Y-157010472D01*
X79438337Y-157111526D01*
X79484310Y-157222607D01*
X79526893Y-157325541D01*
X79564779Y-157417165D01*
X79596660Y-157494316D01*
X79621229Y-157553831D01*
X79637180Y-157592544D01*
X79643090Y-157607000D01*
X79657052Y-157621685D01*
X79684060Y-157621642D01*
X79727587Y-157606099D01*
X79791110Y-157574284D01*
X79791612Y-157574013D01*
X79839440Y-157549323D01*
X79878103Y-157531338D01*
X79899905Y-157523614D01*
X79900867Y-157523543D01*
X79917279Y-157531378D01*
X79953513Y-157553165D01*
X80005526Y-157586328D01*
X80069275Y-157628291D01*
X80139940Y-157675943D01*
X80211884Y-157724191D01*
X80276726Y-157766151D01*
X80330265Y-157799227D01*
X80368303Y-157820821D01*
X80386467Y-157828343D01*
X80403192Y-157818457D01*
X80436820Y-157790826D01*
X80483990Y-157748495D01*
X80541342Y-157694505D01*
X80605516Y-157631899D01*
X80626503Y-157610983D01*
X80843501Y-157393623D01*
X80678332Y-157151220D01*
X80628136Y-157076781D01*
X80584081Y-157009972D01*
X80548638Y-156954665D01*
X80524281Y-156914729D01*
X80513478Y-156894036D01*
X80513162Y-156892563D01*
X80518857Y-156873058D01*
X80534174Y-156833822D01*
X80556463Y-156781430D01*
X80572107Y-156746355D01*
X80601359Y-156679201D01*
X80628906Y-156611358D01*
X80650263Y-156554034D01*
X80656065Y-156536572D01*
X80672548Y-156489938D01*
X80688660Y-156453905D01*
X80697510Y-156440287D01*
X80717040Y-156431952D01*
X80759666Y-156420137D01*
X80819855Y-156406181D01*
X80892078Y-156391422D01*
X80924400Y-156385355D01*
X81006478Y-156370273D01*
X81085205Y-156355669D01*
X81152891Y-156342980D01*
X81201840Y-156333642D01*
X81211057Y-156331839D01*
X81287257Y-156316799D01*
X81287257Y-155999492D01*
X81287086Y-155895154D01*
X81286384Y-155816213D01*
X81284866Y-155759038D01*
X81282251Y-155719999D01*
X81278254Y-155695465D01*
X81272591Y-155681805D01*
X81264980Y-155675389D01*
X81261857Y-155674199D01*
X81243022Y-155669980D01*
X81201412Y-155661562D01*
X81142370Y-155649961D01*
X81071243Y-155636195D01*
X80993375Y-155621280D01*
X80914113Y-155606232D01*
X80838802Y-155592069D01*
X80772787Y-155579806D01*
X80721413Y-155570461D01*
X80690025Y-155565050D01*
X80683041Y-155564114D01*
X80676715Y-155551596D01*
X80662710Y-155518246D01*
X80643645Y-155470377D01*
X80636366Y-155451629D01*
X80607004Y-155379195D01*
X80572429Y-155299170D01*
X80541463Y-155231728D01*
X80518677Y-155180159D01*
X80503518Y-155137785D01*
X80498458Y-155111834D01*
X80499264Y-155108356D01*
X80509959Y-155091936D01*
X80534380Y-155055417D01*
X80569905Y-155002687D01*
X80613913Y-154937635D01*
X80663783Y-154864151D01*
X80673644Y-154849645D01*
X80731508Y-154763704D01*
X80774044Y-154698261D01*
X80802946Y-154650304D01*
X80819910Y-154616820D01*
X80826633Y-154594795D01*
X80824810Y-154581217D01*
X80824764Y-154581131D01*
X80810414Y-154563297D01*
X80778677Y-154528817D01*
X80732990Y-154481268D01*
X80676796Y-154424222D01*
X80613532Y-154361255D01*
X80606398Y-154354227D01*
X80526670Y-154277020D01*
X80465143Y-154220330D01*
X80420579Y-154183110D01*
X80391743Y-154164315D01*
X80379042Y-154161889D01*
X80360506Y-154172471D01*
X80322039Y-154196916D01*
X80267614Y-154232612D01*
X80201202Y-154276947D01*
X80126775Y-154327311D01*
X80109399Y-154339160D01*
X79862703Y-154507626D01*
X79751294Y-154457062D01*
X79683543Y-154427595D01*
X79610817Y-154397959D01*
X79548297Y-154374330D01*
X79545543Y-154373358D01*
X79496640Y-154355457D01*
X79458943Y-154340320D01*
X79440575Y-154331210D01*
X79440544Y-154331184D01*
X79434715Y-154314717D01*
X79424808Y-154274219D01*
X79411805Y-154214242D01*
X79396691Y-154139340D01*
X79380448Y-154054064D01*
X79379119Y-154046875D01*
X79362825Y-153959014D01*
X79347867Y-153879260D01*
X79335209Y-153812681D01*
X79325814Y-153764347D01*
X79320646Y-153739325D01*
X79320556Y-153738943D01*
X79317411Y-153728299D01*
X79311296Y-153720262D01*
X79298547Y-153714467D01*
X79275500Y-153710547D01*
X79238491Y-153708135D01*
X79183856Y-153706865D01*
X79107933Y-153706371D01*
X79007056Y-153706286D01*
X78994000Y-153706286D01*
X78890090Y-153706348D01*
G36*
X75840405Y-158430966D02*
G01*
X75782979Y-158468497D01*
X75755281Y-158502096D01*
X75733338Y-158563064D01*
X75731595Y-158611308D01*
X75735543Y-158675816D01*
X75884314Y-158740934D01*
X75956651Y-158774202D01*
X76003916Y-158800964D01*
X76028493Y-158824144D01*
X76032763Y-158846667D01*
X76019111Y-158871455D01*
X76004057Y-158887886D01*
X75960254Y-158914235D01*
X75912611Y-158916081D01*
X75868855Y-158895546D01*
X75836711Y-158854752D01*
X75830962Y-158840347D01*
X75803424Y-158795356D01*
X75771742Y-158776182D01*
X75728286Y-158759779D01*
X75728286Y-158821966D01*
X75732128Y-158864283D01*
X75747177Y-158899969D01*
X75778720Y-158940943D01*
X75783408Y-158946267D01*
X75818494Y-158982720D01*
X75848653Y-159002283D01*
X75886385Y-159011283D01*
X75917665Y-159014230D01*
X75973615Y-159014965D01*
X76013445Y-159005660D01*
X76038292Y-158991846D01*
X76077344Y-158961467D01*
X76104375Y-158928613D01*
X76121483Y-158887294D01*
X76130762Y-158831521D01*
X76134307Y-158755305D01*
X76134590Y-158716622D01*
X76133628Y-158670247D01*
X76045993Y-158670247D01*
X76044977Y-158695126D01*
X76042444Y-158699200D01*
X76025726Y-158693665D01*
X75989751Y-158679017D01*
X75941669Y-158658190D01*
X75931614Y-158653714D01*
X75870848Y-158622814D01*
X75837368Y-158595657D01*
X75830010Y-158570220D01*
X75847609Y-158544481D01*
X75862144Y-158533109D01*
X75914590Y-158510364D01*
X75963678Y-158514122D01*
X76004773Y-158541884D01*
X76033242Y-158591152D01*
X76042369Y-158630257D01*
X76045993Y-158670247D01*
X76133628Y-158670247D01*
X76132715Y-158626249D01*
X76125804Y-158559384D01*
X76112116Y-158510695D01*
X76089904Y-158474849D01*
X76057426Y-158446513D01*
X76043267Y-158437355D01*
X75978947Y-158413507D01*
X75908527Y-158412006D01*
X75840405Y-158430966D01*
X75840405Y-158430966D01*
G37*
X75840405Y-158430966D02*
X75782979Y-158468497D01*
X75755281Y-158502096D01*
X75733338Y-158563064D01*
X75731595Y-158611308D01*
X75735543Y-158675816D01*
X75884314Y-158740934D01*
X75956651Y-158774202D01*
X76003916Y-158800964D01*
X76028493Y-158824144D01*
X76032763Y-158846667D01*
X76019111Y-158871455D01*
X76004057Y-158887886D01*
X75960254Y-158914235D01*
X75912611Y-158916081D01*
X75868855Y-158895546D01*
X75836711Y-158854752D01*
X75830962Y-158840347D01*
X75803424Y-158795356D01*
X75771742Y-158776182D01*
X75728286Y-158759779D01*
X75728286Y-158821966D01*
X75732128Y-158864283D01*
X75747177Y-158899969D01*
X75778720Y-158940943D01*
X75783408Y-158946267D01*
X75818494Y-158982720D01*
X75848653Y-159002283D01*
X75886385Y-159011283D01*
X75917665Y-159014230D01*
X75973615Y-159014965D01*
X76013445Y-159005660D01*
X76038292Y-158991846D01*
X76077344Y-158961467D01*
X76104375Y-158928613D01*
X76121483Y-158887294D01*
X76130762Y-158831521D01*
X76134307Y-158755305D01*
X76134590Y-158716622D01*
X76133628Y-158670247D01*
X76045993Y-158670247D01*
X76044977Y-158695126D01*
X76042444Y-158699200D01*
X76025726Y-158693665D01*
X75989751Y-158679017D01*
X75941669Y-158658190D01*
X75931614Y-158653714D01*
X75870848Y-158622814D01*
X75837368Y-158595657D01*
X75830010Y-158570220D01*
X75847609Y-158544481D01*
X75862144Y-158533109D01*
X75914590Y-158510364D01*
X75963678Y-158514122D01*
X76004773Y-158541884D01*
X76033242Y-158591152D01*
X76042369Y-158630257D01*
X76045993Y-158670247D01*
X76133628Y-158670247D01*
X76132715Y-158626249D01*
X76125804Y-158559384D01*
X76112116Y-158510695D01*
X76089904Y-158474849D01*
X76057426Y-158446513D01*
X76043267Y-158437355D01*
X75978947Y-158413507D01*
X75908527Y-158412006D01*
X75840405Y-158430966D01*
G36*
X76341400Y-158422752D02*
G01*
X76324052Y-158430334D01*
X76282644Y-158463128D01*
X76247235Y-158510547D01*
X76225336Y-158561151D01*
X76221771Y-158586098D01*
X76233721Y-158620927D01*
X76259933Y-158639357D01*
X76288036Y-158650516D01*
X76300905Y-158652572D01*
X76307171Y-158637649D01*
X76319544Y-158605175D01*
X76324972Y-158590502D01*
X76355410Y-158539744D01*
X76399480Y-158514427D01*
X76455990Y-158515206D01*
X76460175Y-158516203D01*
X76490345Y-158530507D01*
X76512524Y-158558393D01*
X76527673Y-158603287D01*
X76536750Y-158668615D01*
X76540714Y-158757804D01*
X76541086Y-158805261D01*
X76541270Y-158880071D01*
X76542478Y-158931069D01*
X76545691Y-158963471D01*
X76551891Y-158982495D01*
X76562060Y-158993356D01*
X76577181Y-159001272D01*
X76578054Y-159001670D01*
X76607172Y-159013981D01*
X76621597Y-159018514D01*
X76623814Y-159004809D01*
X76625711Y-158966925D01*
X76627153Y-158909715D01*
X76628002Y-158838027D01*
X76628171Y-158785565D01*
X76627308Y-158684047D01*
X76623930Y-158607032D01*
X76616858Y-158550023D01*
X76604912Y-158508526D01*
X76586910Y-158478043D01*
X76561673Y-158454080D01*
X76536753Y-158437355D01*
X76476829Y-158415097D01*
X76407089Y-158410076D01*
X76341400Y-158422752D01*
X76341400Y-158422752D01*
G37*
X76341400Y-158422752D02*
X76324052Y-158430334D01*
X76282644Y-158463128D01*
X76247235Y-158510547D01*
X76225336Y-158561151D01*
X76221771Y-158586098D01*
X76233721Y-158620927D01*
X76259933Y-158639357D01*
X76288036Y-158650516D01*
X76300905Y-158652572D01*
X76307171Y-158637649D01*
X76319544Y-158605175D01*
X76324972Y-158590502D01*
X76355410Y-158539744D01*
X76399480Y-158514427D01*
X76455990Y-158515206D01*
X76460175Y-158516203D01*
X76490345Y-158530507D01*
X76512524Y-158558393D01*
X76527673Y-158603287D01*
X76536750Y-158668615D01*
X76540714Y-158757804D01*
X76541086Y-158805261D01*
X76541270Y-158880071D01*
X76542478Y-158931069D01*
X76545691Y-158963471D01*
X76551891Y-158982495D01*
X76562060Y-158993356D01*
X76577181Y-159001272D01*
X76578054Y-159001670D01*
X76607172Y-159013981D01*
X76621597Y-159018514D01*
X76623814Y-159004809D01*
X76625711Y-158966925D01*
X76627153Y-158909715D01*
X76628002Y-158838027D01*
X76628171Y-158785565D01*
X76627308Y-158684047D01*
X76623930Y-158607032D01*
X76616858Y-158550023D01*
X76604912Y-158508526D01*
X76586910Y-158478043D01*
X76561673Y-158454080D01*
X76536753Y-158437355D01*
X76476829Y-158415097D01*
X76407089Y-158410076D01*
X76341400Y-158422752D01*
G36*
X76849124Y-158420335D02*
G01*
X76807333Y-158439344D01*
X76774531Y-158462378D01*
X76750497Y-158488133D01*
X76733903Y-158521358D01*
X76723423Y-158566800D01*
X76717729Y-158629207D01*
X76715493Y-158713327D01*
X76715257Y-158768721D01*
X76715257Y-158984826D01*
X76752226Y-159001670D01*
X76781344Y-159013981D01*
X76795769Y-159018514D01*
X76798528Y-159005025D01*
X76800718Y-158968653D01*
X76802058Y-158915542D01*
X76802343Y-158873372D01*
X76803566Y-158812447D01*
X76806864Y-158764115D01*
X76811679Y-158734518D01*
X76815504Y-158728229D01*
X76841217Y-158734652D01*
X76881582Y-158751125D01*
X76928321Y-158773458D01*
X76973155Y-158797457D01*
X77007807Y-158818930D01*
X77023998Y-158833685D01*
X77024062Y-158833845D01*
X77022670Y-158861152D01*
X77010182Y-158887219D01*
X76988257Y-158908392D01*
X76956257Y-158915474D01*
X76928908Y-158914649D01*
X76890174Y-158914042D01*
X76869842Y-158923116D01*
X76857631Y-158947092D01*
X76856091Y-158951613D01*
X76850797Y-158985806D01*
X76864953Y-159006568D01*
X76901852Y-159016462D01*
X76941711Y-159018292D01*
X77013438Y-159004727D01*
X77050568Y-158985355D01*
X77096424Y-158939845D01*
X77120744Y-158883983D01*
X77122927Y-158824957D01*
X77102371Y-158769953D01*
X77071451Y-158735486D01*
X77040580Y-158716189D01*
X76992058Y-158691759D01*
X76935515Y-158666985D01*
X76926090Y-158663199D01*
X76863981Y-158635791D01*
X76828178Y-158611634D01*
X76816663Y-158587619D01*
X76827420Y-158560635D01*
X76845886Y-158539543D01*
X76889531Y-158513572D01*
X76937554Y-158511624D01*
X76981594Y-158531637D01*
X77013291Y-158571551D01*
X77017451Y-158581848D01*
X77041673Y-158619724D01*
X77077035Y-158647842D01*
X77121657Y-158670917D01*
X77121657Y-158605485D01*
X77119031Y-158565506D01*
X77107770Y-158533997D01*
X77082801Y-158500378D01*
X77058831Y-158474484D01*
X77021559Y-158437817D01*
X76992599Y-158418121D01*
X76961495Y-158410220D01*
X76926287Y-158408914D01*
X76849124Y-158420335D01*
X76849124Y-158420335D01*
G37*
X76849124Y-158420335D02*
X76807333Y-158439344D01*
X76774531Y-158462378D01*
X76750497Y-158488133D01*
X76733903Y-158521358D01*
X76723423Y-158566800D01*
X76717729Y-158629207D01*
X76715493Y-158713327D01*
X76715257Y-158768721D01*
X76715257Y-158984826D01*
X76752226Y-159001670D01*
X76781344Y-159013981D01*
X76795769Y-159018514D01*
X76798528Y-159005025D01*
X76800718Y-158968653D01*
X76802058Y-158915542D01*
X76802343Y-158873372D01*
X76803566Y-158812447D01*
X76806864Y-158764115D01*
X76811679Y-158734518D01*
X76815504Y-158728229D01*
X76841217Y-158734652D01*
X76881582Y-158751125D01*
X76928321Y-158773458D01*
X76973155Y-158797457D01*
X77007807Y-158818930D01*
X77023998Y-158833685D01*
X77024062Y-158833845D01*
X77022670Y-158861152D01*
X77010182Y-158887219D01*
X76988257Y-158908392D01*
X76956257Y-158915474D01*
X76928908Y-158914649D01*
X76890174Y-158914042D01*
X76869842Y-158923116D01*
X76857631Y-158947092D01*
X76856091Y-158951613D01*
X76850797Y-158985806D01*
X76864953Y-159006568D01*
X76901852Y-159016462D01*
X76941711Y-159018292D01*
X77013438Y-159004727D01*
X77050568Y-158985355D01*
X77096424Y-158939845D01*
X77120744Y-158883983D01*
X77122927Y-158824957D01*
X77102371Y-158769953D01*
X77071451Y-158735486D01*
X77040580Y-158716189D01*
X76992058Y-158691759D01*
X76935515Y-158666985D01*
X76926090Y-158663199D01*
X76863981Y-158635791D01*
X76828178Y-158611634D01*
X76816663Y-158587619D01*
X76827420Y-158560635D01*
X76845886Y-158539543D01*
X76889531Y-158513572D01*
X76937554Y-158511624D01*
X76981594Y-158531637D01*
X77013291Y-158571551D01*
X77017451Y-158581848D01*
X77041673Y-158619724D01*
X77077035Y-158647842D01*
X77121657Y-158670917D01*
X77121657Y-158605485D01*
X77119031Y-158565506D01*
X77107770Y-158533997D01*
X77082801Y-158500378D01*
X77058831Y-158474484D01*
X77021559Y-158437817D01*
X76992599Y-158418121D01*
X76961495Y-158410220D01*
X76926287Y-158408914D01*
X76849124Y-158420335D01*
G36*
X77214167Y-158422663D02*
G01*
X77211952Y-158460850D01*
X77210216Y-158518886D01*
X77209101Y-158592180D01*
X77208743Y-158669055D01*
X77208743Y-158929196D01*
X77254674Y-158975127D01*
X77286325Y-159003429D01*
X77314110Y-159014893D01*
X77352085Y-159014168D01*
X77367160Y-159012321D01*
X77414274Y-159006948D01*
X77453244Y-159003869D01*
X77462743Y-159003585D01*
X77494767Y-159005445D01*
X77540568Y-159010114D01*
X77558326Y-159012321D01*
X77601943Y-159015735D01*
X77631255Y-159008320D01*
X77660320Y-158985427D01*
X77670812Y-158975127D01*
X77716743Y-158929196D01*
X77716743Y-158442602D01*
X77679774Y-158425758D01*
X77647941Y-158413282D01*
X77629317Y-158408914D01*
X77624542Y-158422718D01*
X77620079Y-158461286D01*
X77616225Y-158520356D01*
X77613278Y-158595663D01*
X77611857Y-158659286D01*
X77607886Y-158909657D01*
X77573241Y-158914556D01*
X77541732Y-158911131D01*
X77526292Y-158900041D01*
X77521977Y-158879308D01*
X77518292Y-158835145D01*
X77515531Y-158773146D01*
X77513988Y-158698909D01*
X77513765Y-158660706D01*
X77513543Y-158440783D01*
X77467834Y-158424849D01*
X77435482Y-158414015D01*
X77417885Y-158408962D01*
X77417377Y-158408914D01*
X77415612Y-158422648D01*
X77413671Y-158460730D01*
X77411718Y-158518482D01*
X77409916Y-158591227D01*
X77408657Y-158659286D01*
X77404686Y-158909657D01*
X77317600Y-158909657D01*
X77313604Y-158681240D01*
X77309608Y-158452822D01*
X77267153Y-158430868D01*
X77235808Y-158415793D01*
X77217256Y-158408951D01*
X77216721Y-158408914D01*
X77214167Y-158422663D01*
X77214167Y-158422663D01*
G37*
X77214167Y-158422663D02*
X77211952Y-158460850D01*
X77210216Y-158518886D01*
X77209101Y-158592180D01*
X77208743Y-158669055D01*
X77208743Y-158929196D01*
X77254674Y-158975127D01*
X77286325Y-159003429D01*
X77314110Y-159014893D01*
X77352085Y-159014168D01*
X77367160Y-159012321D01*
X77414274Y-159006948D01*
X77453244Y-159003869D01*
X77462743Y-159003585D01*
X77494767Y-159005445D01*
X77540568Y-159010114D01*
X77558326Y-159012321D01*
X77601943Y-159015735D01*
X77631255Y-159008320D01*
X77660320Y-158985427D01*
X77670812Y-158975127D01*
X77716743Y-158929196D01*
X77716743Y-158442602D01*
X77679774Y-158425758D01*
X77647941Y-158413282D01*
X77629317Y-158408914D01*
X77624542Y-158422718D01*
X77620079Y-158461286D01*
X77616225Y-158520356D01*
X77613278Y-158595663D01*
X77611857Y-158659286D01*
X77607886Y-158909657D01*
X77573241Y-158914556D01*
X77541732Y-158911131D01*
X77526292Y-158900041D01*
X77521977Y-158879308D01*
X77518292Y-158835145D01*
X77515531Y-158773146D01*
X77513988Y-158698909D01*
X77513765Y-158660706D01*
X77513543Y-158440783D01*
X77467834Y-158424849D01*
X77435482Y-158414015D01*
X77417885Y-158408962D01*
X77417377Y-158408914D01*
X77415612Y-158422648D01*
X77413671Y-158460730D01*
X77411718Y-158518482D01*
X77409916Y-158591227D01*
X77408657Y-158659286D01*
X77404686Y-158909657D01*
X77317600Y-158909657D01*
X77313604Y-158681240D01*
X77309608Y-158452822D01*
X77267153Y-158430868D01*
X77235808Y-158415793D01*
X77217256Y-158408951D01*
X77216721Y-158408914D01*
X77214167Y-158422663D01*
G36*
X77803883Y-158529358D02*
G01*
X77804067Y-158637837D01*
X77804781Y-158721287D01*
X77806325Y-158783704D01*
X77808999Y-158829085D01*
X77813106Y-158861429D01*
X77818945Y-158884733D01*
X77826818Y-158902995D01*
X77832779Y-158913418D01*
X77882145Y-158969945D01*
X77944736Y-159005377D01*
X78013987Y-159018090D01*
X78083332Y-159006463D01*
X78124625Y-158985568D01*
X78167975Y-158949422D01*
X78197519Y-158905276D01*
X78215345Y-158847462D01*
X78223537Y-158770313D01*
X78224698Y-158713714D01*
X78224542Y-158709647D01*
X78123143Y-158709647D01*
X78122524Y-158774550D01*
X78119686Y-158817514D01*
X78113160Y-158845622D01*
X78101477Y-158865953D01*
X78087517Y-158881288D01*
X78040635Y-158910890D01*
X77990299Y-158913419D01*
X77942724Y-158888705D01*
X77939021Y-158885356D01*
X77923217Y-158867935D01*
X77913307Y-158847209D01*
X77907942Y-158816362D01*
X77905772Y-158768577D01*
X77905429Y-158715748D01*
X77906173Y-158649381D01*
X77909252Y-158605106D01*
X77915939Y-158576009D01*
X77927504Y-158555173D01*
X77936987Y-158544107D01*
X77981040Y-158516198D01*
X78031776Y-158512843D01*
X78080204Y-158534159D01*
X78089550Y-158542073D01*
X78105460Y-158559647D01*
X78115390Y-158580587D01*
X78120722Y-158611782D01*
X78122837Y-158660122D01*
X78123143Y-158709647D01*
X78224542Y-158709647D01*
X78221190Y-158622568D01*
X78209274Y-158554086D01*
X78186865Y-158502600D01*
X78151876Y-158462443D01*
X78124625Y-158441861D01*
X78075093Y-158419625D01*
X78017684Y-158409304D01*
X77964318Y-158412067D01*
X77934457Y-158423212D01*
X77922739Y-158426383D01*
X77914963Y-158414557D01*
X77909535Y-158382866D01*
X77905429Y-158334593D01*
X77900933Y-158280829D01*
X77894687Y-158248482D01*
X77883324Y-158229985D01*
X77863472Y-158217770D01*
X77851000Y-158212362D01*
X77803829Y-158192601D01*
X77803883Y-158529358D01*
X77803883Y-158529358D01*
G37*
X77803883Y-158529358D02*
X77804067Y-158637837D01*
X77804781Y-158721287D01*
X77806325Y-158783704D01*
X77808999Y-158829085D01*
X77813106Y-158861429D01*
X77818945Y-158884733D01*
X77826818Y-158902995D01*
X77832779Y-158913418D01*
X77882145Y-158969945D01*
X77944736Y-159005377D01*
X78013987Y-159018090D01*
X78083332Y-159006463D01*
X78124625Y-158985568D01*
X78167975Y-158949422D01*
X78197519Y-158905276D01*
X78215345Y-158847462D01*
X78223537Y-158770313D01*
X78224698Y-158713714D01*
X78224542Y-158709647D01*
X78123143Y-158709647D01*
X78122524Y-158774550D01*
X78119686Y-158817514D01*
X78113160Y-158845622D01*
X78101477Y-158865953D01*
X78087517Y-158881288D01*
X78040635Y-158910890D01*
X77990299Y-158913419D01*
X77942724Y-158888705D01*
X77939021Y-158885356D01*
X77923217Y-158867935D01*
X77913307Y-158847209D01*
X77907942Y-158816362D01*
X77905772Y-158768577D01*
X77905429Y-158715748D01*
X77906173Y-158649381D01*
X77909252Y-158605106D01*
X77915939Y-158576009D01*
X77927504Y-158555173D01*
X77936987Y-158544107D01*
X77981040Y-158516198D01*
X78031776Y-158512843D01*
X78080204Y-158534159D01*
X78089550Y-158542073D01*
X78105460Y-158559647D01*
X78115390Y-158580587D01*
X78120722Y-158611782D01*
X78122837Y-158660122D01*
X78123143Y-158709647D01*
X78224542Y-158709647D01*
X78221190Y-158622568D01*
X78209274Y-158554086D01*
X78186865Y-158502600D01*
X78151876Y-158462443D01*
X78124625Y-158441861D01*
X78075093Y-158419625D01*
X78017684Y-158409304D01*
X77964318Y-158412067D01*
X77934457Y-158423212D01*
X77922739Y-158426383D01*
X77914963Y-158414557D01*
X77909535Y-158382866D01*
X77905429Y-158334593D01*
X77900933Y-158280829D01*
X77894687Y-158248482D01*
X77883324Y-158229985D01*
X77863472Y-158217770D01*
X77851000Y-158212362D01*
X77803829Y-158192601D01*
X77803883Y-158529358D01*
G36*
X78464074Y-158413755D02*
G01*
X78398142Y-158438084D01*
X78344727Y-158481117D01*
X78323836Y-158511409D01*
X78301061Y-158566994D01*
X78301534Y-158607186D01*
X78325438Y-158634217D01*
X78334283Y-158638813D01*
X78372470Y-158653144D01*
X78391972Y-158649472D01*
X78398578Y-158625407D01*
X78398914Y-158612114D01*
X78411008Y-158563210D01*
X78442529Y-158528999D01*
X78486341Y-158512476D01*
X78535305Y-158516634D01*
X78575106Y-158538227D01*
X78588550Y-158550544D01*
X78598079Y-158565487D01*
X78604515Y-158588075D01*
X78608683Y-158623328D01*
X78611403Y-158676266D01*
X78613498Y-158751907D01*
X78614040Y-158775857D01*
X78616019Y-158857790D01*
X78618269Y-158915455D01*
X78621643Y-158953608D01*
X78626994Y-158977004D01*
X78635176Y-158990398D01*
X78647041Y-158998545D01*
X78654638Y-159002144D01*
X78686898Y-159014452D01*
X78705889Y-159018514D01*
X78712164Y-159004948D01*
X78715994Y-158963934D01*
X78717400Y-158894999D01*
X78716402Y-158797669D01*
X78716092Y-158782657D01*
X78713899Y-158693859D01*
X78711307Y-158629019D01*
X78707618Y-158583067D01*
X78702136Y-158550935D01*
X78694165Y-158527553D01*
X78683007Y-158507852D01*
X78677170Y-158499410D01*
X78643704Y-158462057D01*
X78606273Y-158433003D01*
X78601691Y-158430467D01*
X78534574Y-158410443D01*
X78464074Y-158413755D01*
X78464074Y-158413755D01*
G37*
X78464074Y-158413755D02*
X78398142Y-158438084D01*
X78344727Y-158481117D01*
X78323836Y-158511409D01*
X78301061Y-158566994D01*
X78301534Y-158607186D01*
X78325438Y-158634217D01*
X78334283Y-158638813D01*
X78372470Y-158653144D01*
X78391972Y-158649472D01*
X78398578Y-158625407D01*
X78398914Y-158612114D01*
X78411008Y-158563210D01*
X78442529Y-158528999D01*
X78486341Y-158512476D01*
X78535305Y-158516634D01*
X78575106Y-158538227D01*
X78588550Y-158550544D01*
X78598079Y-158565487D01*
X78604515Y-158588075D01*
X78608683Y-158623328D01*
X78611403Y-158676266D01*
X78613498Y-158751907D01*
X78614040Y-158775857D01*
X78616019Y-158857790D01*
X78618269Y-158915455D01*
X78621643Y-158953608D01*
X78626994Y-158977004D01*
X78635176Y-158990398D01*
X78647041Y-158998545D01*
X78654638Y-159002144D01*
X78686898Y-159014452D01*
X78705889Y-159018514D01*
X78712164Y-159004948D01*
X78715994Y-158963934D01*
X78717400Y-158894999D01*
X78716402Y-158797669D01*
X78716092Y-158782657D01*
X78713899Y-158693859D01*
X78711307Y-158629019D01*
X78707618Y-158583067D01*
X78702136Y-158550935D01*
X78694165Y-158527553D01*
X78683007Y-158507852D01*
X78677170Y-158499410D01*
X78643704Y-158462057D01*
X78606273Y-158433003D01*
X78601691Y-158430467D01*
X78534574Y-158410443D01*
X78464074Y-158413755D01*
G36*
X78954256Y-158414968D02*
G01*
X78897384Y-158436087D01*
X78896733Y-158436493D01*
X78861560Y-158462380D01*
X78835593Y-158492633D01*
X78817330Y-158532058D01*
X78805268Y-158585462D01*
X78797904Y-158657651D01*
X78793736Y-158753432D01*
X78793371Y-158767078D01*
X78788124Y-158972842D01*
X78832284Y-158995678D01*
X78864237Y-159011110D01*
X78883530Y-159018423D01*
X78884422Y-159018514D01*
X78887761Y-159005022D01*
X78890413Y-158968626D01*
X78892044Y-158915452D01*
X78892400Y-158872393D01*
X78892408Y-158802641D01*
X78895597Y-158758837D01*
X78906712Y-158737944D01*
X78930499Y-158736925D01*
X78971704Y-158752741D01*
X79033914Y-158781815D01*
X79079659Y-158805963D01*
X79103187Y-158826913D01*
X79110104Y-158849747D01*
X79110114Y-158850877D01*
X79098701Y-158890212D01*
X79064908Y-158911462D01*
X79013191Y-158914539D01*
X78975939Y-158914006D01*
X78956297Y-158924735D01*
X78944048Y-158950505D01*
X78936998Y-158983337D01*
X78947158Y-159001966D01*
X78950983Y-159004632D01*
X78986999Y-159015340D01*
X79037434Y-159016856D01*
X79089374Y-159009759D01*
X79126178Y-158996788D01*
X79177062Y-158953585D01*
X79205986Y-158893446D01*
X79211714Y-158846462D01*
X79207343Y-158804082D01*
X79191525Y-158769488D01*
X79160203Y-158738763D01*
X79109322Y-158707990D01*
X79034824Y-158673252D01*
X79030286Y-158671288D01*
X78963179Y-158640287D01*
X78921768Y-158614862D01*
X78904019Y-158592014D01*
X78907893Y-158568745D01*
X78931357Y-158542056D01*
X78938373Y-158535914D01*
X78985370Y-158512100D01*
X79034067Y-158513103D01*
X79076478Y-158536451D01*
X79104616Y-158579675D01*
X79107231Y-158588160D01*
X79132692Y-158629308D01*
X79164999Y-158649128D01*
X79211714Y-158668770D01*
X79211714Y-158617950D01*
X79197504Y-158544082D01*
X79155325Y-158476327D01*
X79133376Y-158453661D01*
X79083483Y-158424569D01*
X79020033Y-158411400D01*
X78954256Y-158414968D01*
X78954256Y-158414968D01*
G37*
X78954256Y-158414968D02*
X78897384Y-158436087D01*
X78896733Y-158436493D01*
X78861560Y-158462380D01*
X78835593Y-158492633D01*
X78817330Y-158532058D01*
X78805268Y-158585462D01*
X78797904Y-158657651D01*
X78793736Y-158753432D01*
X78793371Y-158767078D01*
X78788124Y-158972842D01*
X78832284Y-158995678D01*
X78864237Y-159011110D01*
X78883530Y-159018423D01*
X78884422Y-159018514D01*
X78887761Y-159005022D01*
X78890413Y-158968626D01*
X78892044Y-158915452D01*
X78892400Y-158872393D01*
X78892408Y-158802641D01*
X78895597Y-158758837D01*
X78906712Y-158737944D01*
X78930499Y-158736925D01*
X78971704Y-158752741D01*
X79033914Y-158781815D01*
X79079659Y-158805963D01*
X79103187Y-158826913D01*
X79110104Y-158849747D01*
X79110114Y-158850877D01*
X79098701Y-158890212D01*
X79064908Y-158911462D01*
X79013191Y-158914539D01*
X78975939Y-158914006D01*
X78956297Y-158924735D01*
X78944048Y-158950505D01*
X78936998Y-158983337D01*
X78947158Y-159001966D01*
X78950983Y-159004632D01*
X78986999Y-159015340D01*
X79037434Y-159016856D01*
X79089374Y-159009759D01*
X79126178Y-158996788D01*
X79177062Y-158953585D01*
X79205986Y-158893446D01*
X79211714Y-158846462D01*
X79207343Y-158804082D01*
X79191525Y-158769488D01*
X79160203Y-158738763D01*
X79109322Y-158707990D01*
X79034824Y-158673252D01*
X79030286Y-158671288D01*
X78963179Y-158640287D01*
X78921768Y-158614862D01*
X78904019Y-158592014D01*
X78907893Y-158568745D01*
X78931357Y-158542056D01*
X78938373Y-158535914D01*
X78985370Y-158512100D01*
X79034067Y-158513103D01*
X79076478Y-158536451D01*
X79104616Y-158579675D01*
X79107231Y-158588160D01*
X79132692Y-158629308D01*
X79164999Y-158649128D01*
X79211714Y-158668770D01*
X79211714Y-158617950D01*
X79197504Y-158544082D01*
X79155325Y-158476327D01*
X79133376Y-158453661D01*
X79083483Y-158424569D01*
X79020033Y-158411400D01*
X78954256Y-158414968D01*
G36*
X79618114Y-158315289D02*
G01*
X79613861Y-158374613D01*
X79608975Y-158409572D01*
X79602205Y-158424820D01*
X79592298Y-158425015D01*
X79589086Y-158423195D01*
X79546356Y-158410015D01*
X79490773Y-158410785D01*
X79434263Y-158424333D01*
X79398918Y-158441861D01*
X79362679Y-158469861D01*
X79336187Y-158501549D01*
X79318001Y-158541813D01*
X79306678Y-158595543D01*
X79300778Y-158667626D01*
X79298857Y-158762951D01*
X79298823Y-158781237D01*
X79298800Y-158986646D01*
X79344509Y-159002580D01*
X79376973Y-159013420D01*
X79394785Y-159018468D01*
X79395309Y-159018514D01*
X79397063Y-159004828D01*
X79398556Y-158967076D01*
X79399674Y-158910224D01*
X79400303Y-158839234D01*
X79400400Y-158796073D01*
X79400602Y-158710973D01*
X79401642Y-158649981D01*
X79404169Y-158608177D01*
X79408836Y-158580642D01*
X79416293Y-158562456D01*
X79427189Y-158548698D01*
X79433993Y-158542073D01*
X79480728Y-158515375D01*
X79531728Y-158513375D01*
X79577999Y-158535955D01*
X79586556Y-158544107D01*
X79599107Y-158559436D01*
X79607812Y-158577618D01*
X79613369Y-158603909D01*
X79616474Y-158643562D01*
X79617824Y-158701832D01*
X79618114Y-158782173D01*
X79618114Y-158986646D01*
X79663823Y-159002580D01*
X79696287Y-159013420D01*
X79714099Y-159018468D01*
X79714623Y-159018514D01*
X79715963Y-159004623D01*
X79717172Y-158965439D01*
X79718199Y-158904700D01*
X79718998Y-158826141D01*
X79719519Y-158733498D01*
X79719714Y-158630509D01*
X79719714Y-158233342D01*
X79672543Y-158213444D01*
X79625371Y-158193547D01*
X79618114Y-158315289D01*
X79618114Y-158315289D01*
G37*
X79618114Y-158315289D02*
X79613861Y-158374613D01*
X79608975Y-158409572D01*
X79602205Y-158424820D01*
X79592298Y-158425015D01*
X79589086Y-158423195D01*
X79546356Y-158410015D01*
X79490773Y-158410785D01*
X79434263Y-158424333D01*
X79398918Y-158441861D01*
X79362679Y-158469861D01*
X79336187Y-158501549D01*
X79318001Y-158541813D01*
X79306678Y-158595543D01*
X79300778Y-158667626D01*
X79298857Y-158762951D01*
X79298823Y-158781237D01*
X79298800Y-158986646D01*
X79344509Y-159002580D01*
X79376973Y-159013420D01*
X79394785Y-159018468D01*
X79395309Y-159018514D01*
X79397063Y-159004828D01*
X79398556Y-158967076D01*
X79399674Y-158910224D01*
X79400303Y-158839234D01*
X79400400Y-158796073D01*
X79400602Y-158710973D01*
X79401642Y-158649981D01*
X79404169Y-158608177D01*
X79408836Y-158580642D01*
X79416293Y-158562456D01*
X79427189Y-158548698D01*
X79433993Y-158542073D01*
X79480728Y-158515375D01*
X79531728Y-158513375D01*
X79577999Y-158535955D01*
X79586556Y-158544107D01*
X79599107Y-158559436D01*
X79607812Y-158577618D01*
X79613369Y-158603909D01*
X79616474Y-158643562D01*
X79617824Y-158701832D01*
X79618114Y-158782173D01*
X79618114Y-158986646D01*
X79663823Y-159002580D01*
X79696287Y-159013420D01*
X79714099Y-159018468D01*
X79714623Y-159018514D01*
X79715963Y-159004623D01*
X79717172Y-158965439D01*
X79718199Y-158904700D01*
X79718998Y-158826141D01*
X79719519Y-158733498D01*
X79719714Y-158630509D01*
X79719714Y-158233342D01*
X79672543Y-158213444D01*
X79625371Y-158193547D01*
X79618114Y-158315289D01*
G36*
X80825697Y-158395239D02*
G01*
X80768473Y-158433735D01*
X80724251Y-158489335D01*
X80697833Y-158560086D01*
X80692490Y-158612162D01*
X80693097Y-158633893D01*
X80698178Y-158650531D01*
X80712145Y-158665437D01*
X80739411Y-158681973D01*
X80784388Y-158703498D01*
X80851489Y-158733374D01*
X80851829Y-158733524D01*
X80913593Y-158761813D01*
X80964241Y-158786933D01*
X80998596Y-158806179D01*
X81011482Y-158816848D01*
X81011486Y-158816934D01*
X81000128Y-158840166D01*
X80973569Y-158865774D01*
X80943077Y-158884221D01*
X80927630Y-158887886D01*
X80885485Y-158875212D01*
X80849192Y-158843471D01*
X80831483Y-158808572D01*
X80814448Y-158782845D01*
X80781078Y-158753546D01*
X80741851Y-158728235D01*
X80707244Y-158714471D01*
X80700007Y-158713714D01*
X80691861Y-158726160D01*
X80691370Y-158757972D01*
X80697357Y-158800866D01*
X80708643Y-158846558D01*
X80724050Y-158886761D01*
X80724829Y-158888322D01*
X80771196Y-158953062D01*
X80831289Y-158997097D01*
X80899535Y-159018711D01*
X80970362Y-159016185D01*
X81038196Y-158987804D01*
X81041212Y-158985808D01*
X81094573Y-158937448D01*
X81129660Y-158874352D01*
X81149078Y-158791387D01*
X81151684Y-158768078D01*
X81156299Y-158658055D01*
X81150767Y-158606748D01*
X81011486Y-158606748D01*
X81009676Y-158638753D01*
X80999778Y-158648093D01*
X80975102Y-158641105D01*
X80936205Y-158624587D01*
X80892725Y-158603881D01*
X80891644Y-158603333D01*
X80854791Y-158583949D01*
X80840000Y-158571013D01*
X80843647Y-158557451D01*
X80859005Y-158539632D01*
X80898077Y-158513845D01*
X80940154Y-158511950D01*
X80977897Y-158530717D01*
X81003966Y-158566915D01*
X81011486Y-158606748D01*
X81150767Y-158606748D01*
X81146806Y-158570027D01*
X81122450Y-158500212D01*
X81088544Y-158451302D01*
X81027347Y-158401878D01*
X80959937Y-158377359D01*
X80891120Y-158375797D01*
X80825697Y-158395239D01*
X80825697Y-158395239D01*
G37*
X80825697Y-158395239D02*
X80768473Y-158433735D01*
X80724251Y-158489335D01*
X80697833Y-158560086D01*
X80692490Y-158612162D01*
X80693097Y-158633893D01*
X80698178Y-158650531D01*
X80712145Y-158665437D01*
X80739411Y-158681973D01*
X80784388Y-158703498D01*
X80851489Y-158733374D01*
X80851829Y-158733524D01*
X80913593Y-158761813D01*
X80964241Y-158786933D01*
X80998596Y-158806179D01*
X81011482Y-158816848D01*
X81011486Y-158816934D01*
X81000128Y-158840166D01*
X80973569Y-158865774D01*
X80943077Y-158884221D01*
X80927630Y-158887886D01*
X80885485Y-158875212D01*
X80849192Y-158843471D01*
X80831483Y-158808572D01*
X80814448Y-158782845D01*
X80781078Y-158753546D01*
X80741851Y-158728235D01*
X80707244Y-158714471D01*
X80700007Y-158713714D01*
X80691861Y-158726160D01*
X80691370Y-158757972D01*
X80697357Y-158800866D01*
X80708643Y-158846558D01*
X80724050Y-158886761D01*
X80724829Y-158888322D01*
X80771196Y-158953062D01*
X80831289Y-158997097D01*
X80899535Y-159018711D01*
X80970362Y-159016185D01*
X81038196Y-158987804D01*
X81041212Y-158985808D01*
X81094573Y-158937448D01*
X81129660Y-158874352D01*
X81149078Y-158791387D01*
X81151684Y-158768078D01*
X81156299Y-158658055D01*
X81150767Y-158606748D01*
X81011486Y-158606748D01*
X81009676Y-158638753D01*
X80999778Y-158648093D01*
X80975102Y-158641105D01*
X80936205Y-158624587D01*
X80892725Y-158603881D01*
X80891644Y-158603333D01*
X80854791Y-158583949D01*
X80840000Y-158571013D01*
X80843647Y-158557451D01*
X80859005Y-158539632D01*
X80898077Y-158513845D01*
X80940154Y-158511950D01*
X80977897Y-158530717D01*
X81003966Y-158566915D01*
X81011486Y-158606748D01*
X81150767Y-158606748D01*
X81146806Y-158570027D01*
X81122450Y-158500212D01*
X81088544Y-158451302D01*
X81027347Y-158401878D01*
X80959937Y-158377359D01*
X80891120Y-158375797D01*
X80825697Y-158395239D01*
G36*
X81952885Y-158385962D02*
G01*
X81884855Y-158421733D01*
X81834649Y-158479301D01*
X81816815Y-158516312D01*
X81802937Y-158571882D01*
X81795833Y-158642096D01*
X81795160Y-158718727D01*
X81800573Y-158793552D01*
X81811730Y-158858342D01*
X81828286Y-158904873D01*
X81833374Y-158912887D01*
X81893645Y-158972707D01*
X81965231Y-159008535D01*
X82042908Y-159019020D01*
X82121452Y-159002810D01*
X82143311Y-158993092D01*
X82185878Y-158963143D01*
X82223237Y-158923433D01*
X82226768Y-158918397D01*
X82241119Y-158894124D01*
X82250606Y-158868178D01*
X82256210Y-158834022D01*
X82258914Y-158785119D01*
X82259701Y-158714935D01*
X82259714Y-158699200D01*
X82259678Y-158694192D01*
X82114571Y-158694192D01*
X82113727Y-158760430D01*
X82110404Y-158804386D01*
X82103417Y-158832779D01*
X82091584Y-158852325D01*
X82085543Y-158858857D01*
X82050814Y-158883680D01*
X82017097Y-158882548D01*
X81983005Y-158861016D01*
X81962671Y-158838029D01*
X81950629Y-158804478D01*
X81943866Y-158751569D01*
X81943402Y-158745399D01*
X81942248Y-158649513D01*
X81954312Y-158578299D01*
X81979430Y-158532194D01*
X82017440Y-158511635D01*
X82031008Y-158510514D01*
X82066636Y-158516152D01*
X82091006Y-158535686D01*
X82105907Y-158573042D01*
X82113125Y-158632150D01*
X82114571Y-158694192D01*
X82259678Y-158694192D01*
X82259174Y-158624413D01*
X82256904Y-158572159D01*
X82251932Y-158535949D01*
X82243287Y-158509299D01*
X82229995Y-158485722D01*
X82227057Y-158481338D01*
X82177687Y-158422249D01*
X82123891Y-158387947D01*
X82058398Y-158374331D01*
X82036158Y-158373665D01*
X81952885Y-158385962D01*
X81952885Y-158385962D01*
G37*
X81952885Y-158385962D02*
X81884855Y-158421733D01*
X81834649Y-158479301D01*
X81816815Y-158516312D01*
X81802937Y-158571882D01*
X81795833Y-158642096D01*
X81795160Y-158718727D01*
X81800573Y-158793552D01*
X81811730Y-158858342D01*
X81828286Y-158904873D01*
X81833374Y-158912887D01*
X81893645Y-158972707D01*
X81965231Y-159008535D01*
X82042908Y-159019020D01*
X82121452Y-159002810D01*
X82143311Y-158993092D01*
X82185878Y-158963143D01*
X82223237Y-158923433D01*
X82226768Y-158918397D01*
X82241119Y-158894124D01*
X82250606Y-158868178D01*
X82256210Y-158834022D01*
X82258914Y-158785119D01*
X82259701Y-158714935D01*
X82259714Y-158699200D01*
X82259678Y-158694192D01*
X82114571Y-158694192D01*
X82113727Y-158760430D01*
X82110404Y-158804386D01*
X82103417Y-158832779D01*
X82091584Y-158852325D01*
X82085543Y-158858857D01*
X82050814Y-158883680D01*
X82017097Y-158882548D01*
X81983005Y-158861016D01*
X81962671Y-158838029D01*
X81950629Y-158804478D01*
X81943866Y-158751569D01*
X81943402Y-158745399D01*
X81942248Y-158649513D01*
X81954312Y-158578299D01*
X81979430Y-158532194D01*
X82017440Y-158511635D01*
X82031008Y-158510514D01*
X82066636Y-158516152D01*
X82091006Y-158535686D01*
X82105907Y-158573042D01*
X82113125Y-158632150D01*
X82114571Y-158694192D01*
X82259678Y-158694192D01*
X82259174Y-158624413D01*
X82256904Y-158572159D01*
X82251932Y-158535949D01*
X82243287Y-158509299D01*
X82229995Y-158485722D01*
X82227057Y-158481338D01*
X82177687Y-158422249D01*
X82123891Y-158387947D01*
X82058398Y-158374331D01*
X82036158Y-158373665D01*
X81952885Y-158385962D01*
G36*
X80277907Y-158391780D02*
G01*
X80231328Y-158418723D01*
X80198943Y-158445466D01*
X80175258Y-158473484D01*
X80158941Y-158507748D01*
X80148661Y-158553227D01*
X80143086Y-158614892D01*
X80140884Y-158697711D01*
X80140629Y-158757246D01*
X80140629Y-158976391D01*
X80202314Y-159004044D01*
X80264000Y-159031697D01*
X80271257Y-158791670D01*
X80274256Y-158702028D01*
X80277402Y-158636962D01*
X80281299Y-158592026D01*
X80286553Y-158562770D01*
X80293769Y-158544748D01*
X80303550Y-158533511D01*
X80306688Y-158531079D01*
X80354239Y-158512083D01*
X80402303Y-158519600D01*
X80430914Y-158539543D01*
X80442553Y-158553675D01*
X80450609Y-158572220D01*
X80455729Y-158600334D01*
X80458559Y-158643173D01*
X80459744Y-158705895D01*
X80459943Y-158771261D01*
X80459982Y-158853268D01*
X80461386Y-158911316D01*
X80466086Y-158950465D01*
X80476013Y-158975780D01*
X80493097Y-158992323D01*
X80519268Y-159005156D01*
X80554225Y-159018491D01*
X80592404Y-159033007D01*
X80587859Y-158775389D01*
X80586029Y-158682519D01*
X80583888Y-158613889D01*
X80580819Y-158564711D01*
X80576206Y-158530198D01*
X80569432Y-158505562D01*
X80559881Y-158486016D01*
X80548366Y-158468770D01*
X80492810Y-158413680D01*
X80425020Y-158381822D01*
X80351287Y-158374191D01*
X80277907Y-158391780D01*
X80277907Y-158391780D01*
G37*
X80277907Y-158391780D02*
X80231328Y-158418723D01*
X80198943Y-158445466D01*
X80175258Y-158473484D01*
X80158941Y-158507748D01*
X80148661Y-158553227D01*
X80143086Y-158614892D01*
X80140884Y-158697711D01*
X80140629Y-158757246D01*
X80140629Y-158976391D01*
X80202314Y-159004044D01*
X80264000Y-159031697D01*
X80271257Y-158791670D01*
X80274256Y-158702028D01*
X80277402Y-158636962D01*
X80281299Y-158592026D01*
X80286553Y-158562770D01*
X80293769Y-158544748D01*
X80303550Y-158533511D01*
X80306688Y-158531079D01*
X80354239Y-158512083D01*
X80402303Y-158519600D01*
X80430914Y-158539543D01*
X80442553Y-158553675D01*
X80450609Y-158572220D01*
X80455729Y-158600334D01*
X80458559Y-158643173D01*
X80459744Y-158705895D01*
X80459943Y-158771261D01*
X80459982Y-158853268D01*
X80461386Y-158911316D01*
X80466086Y-158950465D01*
X80476013Y-158975780D01*
X80493097Y-158992323D01*
X80519268Y-159005156D01*
X80554225Y-159018491D01*
X80592404Y-159033007D01*
X80587859Y-158775389D01*
X80586029Y-158682519D01*
X80583888Y-158613889D01*
X80580819Y-158564711D01*
X80576206Y-158530198D01*
X80569432Y-158505562D01*
X80559881Y-158486016D01*
X80548366Y-158468770D01*
X80492810Y-158413680D01*
X80425020Y-158381822D01*
X80351287Y-158374191D01*
X80277907Y-158391780D01*
G36*
X81394256Y-158383918D02*
G01*
X81338799Y-158411568D01*
X81289852Y-158462480D01*
X81276371Y-158481338D01*
X81261686Y-158506015D01*
X81252158Y-158532816D01*
X81246707Y-158568587D01*
X81244253Y-158620169D01*
X81243714Y-158688267D01*
X81246148Y-158781588D01*
X81254606Y-158851657D01*
X81270826Y-158903931D01*
X81296546Y-158943869D01*
X81333503Y-158976929D01*
X81336218Y-158978886D01*
X81372640Y-158998908D01*
X81416498Y-159008815D01*
X81472276Y-159011257D01*
X81562952Y-159011257D01*
X81562990Y-159099283D01*
X81563834Y-159148308D01*
X81568976Y-159177065D01*
X81582413Y-159194311D01*
X81608142Y-159208808D01*
X81614321Y-159211769D01*
X81643236Y-159225648D01*
X81665624Y-159234414D01*
X81682271Y-159235171D01*
X81693964Y-159225023D01*
X81701490Y-159201073D01*
X81705634Y-159160426D01*
X81707185Y-159100186D01*
X81706929Y-159017455D01*
X81705651Y-158909339D01*
X81705252Y-158877000D01*
X81703815Y-158765524D01*
X81702528Y-158692603D01*
X81563029Y-158692603D01*
X81562245Y-158754499D01*
X81558760Y-158794997D01*
X81550876Y-158821708D01*
X81536895Y-158842244D01*
X81527403Y-158852260D01*
X81488596Y-158881567D01*
X81454237Y-158883952D01*
X81418784Y-158859750D01*
X81417886Y-158858857D01*
X81403461Y-158840153D01*
X81394687Y-158814732D01*
X81390261Y-158775584D01*
X81388882Y-158715697D01*
X81388857Y-158702430D01*
X81392188Y-158619901D01*
X81403031Y-158562691D01*
X81422660Y-158527766D01*
X81452350Y-158512094D01*
X81469509Y-158510514D01*
X81510234Y-158517926D01*
X81538168Y-158542330D01*
X81554983Y-158586980D01*
X81562350Y-158655130D01*
X81563029Y-158692603D01*
X81702528Y-158692603D01*
X81702292Y-158679245D01*
X81700323Y-158614333D01*
X81697550Y-158566958D01*
X81693612Y-158533290D01*
X81688151Y-158509498D01*
X81680808Y-158491753D01*
X81671223Y-158476224D01*
X81667113Y-158470381D01*
X81612595Y-158415185D01*
X81543664Y-158383890D01*
X81463928Y-158375165D01*
X81394256Y-158383918D01*
X81394256Y-158383918D01*
G37*
X81394256Y-158383918D02*
X81338799Y-158411568D01*
X81289852Y-158462480D01*
X81276371Y-158481338D01*
X81261686Y-158506015D01*
X81252158Y-158532816D01*
X81246707Y-158568587D01*
X81244253Y-158620169D01*
X81243714Y-158688267D01*
X81246148Y-158781588D01*
X81254606Y-158851657D01*
X81270826Y-158903931D01*
X81296546Y-158943869D01*
X81333503Y-158976929D01*
X81336218Y-158978886D01*
X81372640Y-158998908D01*
X81416498Y-159008815D01*
X81472276Y-159011257D01*
X81562952Y-159011257D01*
X81562990Y-159099283D01*
X81563834Y-159148308D01*
X81568976Y-159177065D01*
X81582413Y-159194311D01*
X81608142Y-159208808D01*
X81614321Y-159211769D01*
X81643236Y-159225648D01*
X81665624Y-159234414D01*
X81682271Y-159235171D01*
X81693964Y-159225023D01*
X81701490Y-159201073D01*
X81705634Y-159160426D01*
X81707185Y-159100186D01*
X81706929Y-159017455D01*
X81705651Y-158909339D01*
X81705252Y-158877000D01*
X81703815Y-158765524D01*
X81702528Y-158692603D01*
X81563029Y-158692603D01*
X81562245Y-158754499D01*
X81558760Y-158794997D01*
X81550876Y-158821708D01*
X81536895Y-158842244D01*
X81527403Y-158852260D01*
X81488596Y-158881567D01*
X81454237Y-158883952D01*
X81418784Y-158859750D01*
X81417886Y-158858857D01*
X81403461Y-158840153D01*
X81394687Y-158814732D01*
X81390261Y-158775584D01*
X81388882Y-158715697D01*
X81388857Y-158702430D01*
X81392188Y-158619901D01*
X81403031Y-158562691D01*
X81422660Y-158527766D01*
X81452350Y-158512094D01*
X81469509Y-158510514D01*
X81510234Y-158517926D01*
X81538168Y-158542330D01*
X81554983Y-158586980D01*
X81562350Y-158655130D01*
X81563029Y-158692603D01*
X81702528Y-158692603D01*
X81702292Y-158679245D01*
X81700323Y-158614333D01*
X81697550Y-158566958D01*
X81693612Y-158533290D01*
X81688151Y-158509498D01*
X81680808Y-158491753D01*
X81671223Y-158476224D01*
X81667113Y-158470381D01*
X81612595Y-158415185D01*
X81543664Y-158383890D01*
X81463928Y-158375165D01*
X81394256Y-158383918D01*
D12*
X108702000Y-74617000D02*
X103632000Y-74617000D01*
X108702000Y-84387000D02*
X103632000Y-84387000D01*
X103632000Y-84387000D02*
X103632000Y-74617000D01*
X108702000Y-84387000D02*
X108702000Y-74617000D01*
X88382000Y-95445000D02*
X83312000Y-95445000D01*
X88382000Y-105215000D02*
X83312000Y-105215000D01*
X83312000Y-105215000D02*
X83312000Y-95445000D01*
X88382000Y-105215000D02*
X88382000Y-95445000D01*
X84084000Y-109415000D02*
X84084000Y-119185000D01*
X89154000Y-109415000D02*
X89154000Y-119185000D01*
X84084000Y-109415000D02*
X89154000Y-109415000D01*
X84084000Y-119185000D02*
X89154000Y-119185000D01*
X108448000Y-129599000D02*
X108448000Y-119829000D01*
X103378000Y-129599000D02*
X103378000Y-119829000D01*
X108448000Y-129599000D02*
X103378000Y-129599000D01*
X108448000Y-119829000D02*
X103378000Y-119829000D01*
X108448000Y-109415000D02*
X103378000Y-109415000D01*
X108448000Y-119185000D02*
X103378000Y-119185000D01*
X103378000Y-119185000D02*
X103378000Y-109415000D01*
X108448000Y-119185000D02*
X108448000Y-109415000D01*
X103388000Y-142045000D02*
X108458000Y-142045000D01*
X103388000Y-132275000D02*
X108458000Y-132275000D01*
X108458000Y-132275000D02*
X108458000Y-142045000D01*
X103388000Y-132275000D02*
X103388000Y-142045000D01*
X103388000Y-95699000D02*
X103388000Y-105469000D01*
X108458000Y-95699000D02*
X108458000Y-105469000D01*
X103388000Y-95699000D02*
X108458000Y-95699000D01*
X103388000Y-105469000D02*
X108458000Y-105469000D01*
X82744000Y-79308000D02*
X82744000Y-76648000D01*
X85344000Y-79308000D02*
X82744000Y-79308000D01*
X85344000Y-76648000D02*
X82744000Y-76648000D01*
X85344000Y-79308000D02*
X85344000Y-76648000D01*
X86614000Y-79308000D02*
X87944000Y-79308000D01*
X87944000Y-79308000D02*
X87944000Y-77978000D01*
X78427000Y-74666000D02*
X88197000Y-74666000D01*
X78427000Y-69596000D02*
X88197000Y-69596000D01*
X78427000Y-74666000D02*
X78427000Y-69596000D01*
X88197000Y-74666000D02*
X88197000Y-69596000D01*
X107372000Y-90170000D02*
G75*
G03X107372000Y-90170000I-1200000J0D01*
G01*
X107372000Y-86614000D02*
G75*
G03X107372000Y-86614000I-1200000J0D01*
G01*
X77065000Y-103140000D02*
X77065000Y-74660000D01*
X77065000Y-74660000D02*
X67715000Y-74660000D01*
X67715000Y-74660000D02*
X67715000Y-103140000D01*
X67715000Y-103140000D02*
X77065000Y-103140000D01*
X67465000Y-103390000D02*
X67465000Y-100850000D01*
X67465000Y-103390000D02*
X70005000Y-103390000D01*
X94758000Y-74616000D02*
G75*
G03X96758000Y-74616000I1000000J0D01*
G01*
X96758000Y-74616000D02*
X98408000Y-74616000D01*
X98408000Y-74616000D02*
X98408000Y-95056000D01*
X98408000Y-95056000D02*
X93108000Y-95056000D01*
X93108000Y-95056000D02*
X93108000Y-74616000D01*
X93108000Y-74616000D02*
X94758000Y-74616000D01*
X93108000Y-133290000D02*
X94758000Y-133290000D01*
X93108000Y-143570000D02*
X93108000Y-133290000D01*
X98408000Y-143570000D02*
X93108000Y-143570000D01*
X98408000Y-133290000D02*
X98408000Y-143570000D01*
X96758000Y-133290000D02*
X98408000Y-133290000D01*
X94758000Y-133290000D02*
G75*
G03X96758000Y-133290000I1000000J0D01*
G01*
X94758000Y-109922000D02*
G75*
G03X96758000Y-109922000I1000000J0D01*
G01*
X96758000Y-109922000D02*
X98408000Y-109922000D01*
X98408000Y-109922000D02*
X98408000Y-130362000D01*
X98408000Y-130362000D02*
X93108000Y-130362000D01*
X93108000Y-130362000D02*
X93108000Y-109922000D01*
X93108000Y-109922000D02*
X94758000Y-109922000D01*
X76464000Y-126805000D02*
X81534000Y-126805000D01*
X76464000Y-117035000D02*
X81534000Y-117035000D01*
X81534000Y-117035000D02*
X81534000Y-126805000D01*
X76464000Y-117035000D02*
X76464000Y-126805000D01*
X70876000Y-104335000D02*
X70876000Y-114105000D01*
X75946000Y-104335000D02*
X75946000Y-114105000D01*
X70876000Y-104335000D02*
X75946000Y-104335000D01*
X70876000Y-114105000D02*
X75946000Y-114105000D01*
X94758000Y-97222000D02*
G75*
G03X96758000Y-97222000I1000000J0D01*
G01*
X96758000Y-97222000D02*
X98408000Y-97222000D01*
X98408000Y-97222000D02*
X98408000Y-107502000D01*
X98408000Y-107502000D02*
X93108000Y-107502000D01*
X93108000Y-107502000D02*
X93108000Y-97222000D01*
X93108000Y-97222000D02*
X94758000Y-97222000D01*
X87122000Y-80264000D02*
X83947000Y-80264000D01*
X83947000Y-80264000D02*
X83947000Y-90424000D01*
X83947000Y-90424000D02*
X90297000Y-90424000D01*
X90297000Y-90424000D02*
X90297000Y-80264000D01*
X90297000Y-80264000D02*
X87122000Y-80264000D01*
D10*
X110180380Y-78906761D02*
X109704190Y-78573428D01*
X110180380Y-78335333D02*
X109180380Y-78335333D01*
X109180380Y-78716285D01*
X109228000Y-78811523D01*
X109275619Y-78859142D01*
X109370857Y-78906761D01*
X109513714Y-78906761D01*
X109608952Y-78859142D01*
X109656571Y-78811523D01*
X109704190Y-78716285D01*
X109704190Y-78335333D01*
X109180380Y-79192476D02*
X110180380Y-79525809D01*
X109180380Y-79859142D01*
X110180380Y-80716285D02*
X110180380Y-80144857D01*
X110180380Y-80430571D02*
X109180380Y-80430571D01*
X109323238Y-80335333D01*
X109418476Y-80240095D01*
X109466095Y-80144857D01*
X89860380Y-99480761D02*
X89384190Y-99147428D01*
X89860380Y-98909333D02*
X88860380Y-98909333D01*
X88860380Y-99290285D01*
X88908000Y-99385523D01*
X88955619Y-99433142D01*
X89050857Y-99480761D01*
X89193714Y-99480761D01*
X89288952Y-99433142D01*
X89336571Y-99385523D01*
X89384190Y-99290285D01*
X89384190Y-98909333D01*
X88860380Y-99766476D02*
X89860380Y-100099809D01*
X88860380Y-100433142D01*
X88860380Y-101195047D02*
X88860380Y-101004571D01*
X88908000Y-100909333D01*
X88955619Y-100861714D01*
X89098476Y-100766476D01*
X89288952Y-100718857D01*
X89669904Y-100718857D01*
X89765142Y-100766476D01*
X89812761Y-100814095D01*
X89860380Y-100909333D01*
X89860380Y-101099809D01*
X89812761Y-101195047D01*
X89765142Y-101242666D01*
X89669904Y-101290285D01*
X89431809Y-101290285D01*
X89336571Y-101242666D01*
X89288952Y-101195047D01*
X89241333Y-101099809D01*
X89241333Y-100909333D01*
X89288952Y-100814095D01*
X89336571Y-100766476D01*
X89431809Y-100718857D01*
X90622380Y-113450761D02*
X90146190Y-113117428D01*
X90622380Y-112879333D02*
X89622380Y-112879333D01*
X89622380Y-113260285D01*
X89670000Y-113355523D01*
X89717619Y-113403142D01*
X89812857Y-113450761D01*
X89955714Y-113450761D01*
X90050952Y-113403142D01*
X90098571Y-113355523D01*
X90146190Y-113260285D01*
X90146190Y-112879333D01*
X89622380Y-113736476D02*
X90622380Y-114069809D01*
X89622380Y-114403142D01*
X89622380Y-114641238D02*
X89622380Y-115307904D01*
X90622380Y-114879333D01*
X109926380Y-123864761D02*
X109450190Y-123531428D01*
X109926380Y-123293333D02*
X108926380Y-123293333D01*
X108926380Y-123674285D01*
X108974000Y-123769523D01*
X109021619Y-123817142D01*
X109116857Y-123864761D01*
X109259714Y-123864761D01*
X109354952Y-123817142D01*
X109402571Y-123769523D01*
X109450190Y-123674285D01*
X109450190Y-123293333D01*
X108926380Y-124150476D02*
X109926380Y-124483809D01*
X108926380Y-124817142D01*
X109354952Y-125293333D02*
X109307333Y-125198095D01*
X109259714Y-125150476D01*
X109164476Y-125102857D01*
X109116857Y-125102857D01*
X109021619Y-125150476D01*
X108974000Y-125198095D01*
X108926380Y-125293333D01*
X108926380Y-125483809D01*
X108974000Y-125579047D01*
X109021619Y-125626666D01*
X109116857Y-125674285D01*
X109164476Y-125674285D01*
X109259714Y-125626666D01*
X109307333Y-125579047D01*
X109354952Y-125483809D01*
X109354952Y-125293333D01*
X109402571Y-125198095D01*
X109450190Y-125150476D01*
X109545428Y-125102857D01*
X109735904Y-125102857D01*
X109831142Y-125150476D01*
X109878761Y-125198095D01*
X109926380Y-125293333D01*
X109926380Y-125483809D01*
X109878761Y-125579047D01*
X109831142Y-125626666D01*
X109735904Y-125674285D01*
X109545428Y-125674285D01*
X109450190Y-125626666D01*
X109402571Y-125579047D01*
X109354952Y-125483809D01*
X109926380Y-113704761D02*
X109450190Y-113371428D01*
X109926380Y-113133333D02*
X108926380Y-113133333D01*
X108926380Y-113514285D01*
X108974000Y-113609523D01*
X109021619Y-113657142D01*
X109116857Y-113704761D01*
X109259714Y-113704761D01*
X109354952Y-113657142D01*
X109402571Y-113609523D01*
X109450190Y-113514285D01*
X109450190Y-113133333D01*
X108926380Y-113990476D02*
X109926380Y-114323809D01*
X108926380Y-114657142D01*
X109926380Y-115038095D02*
X109926380Y-115228571D01*
X109878761Y-115323809D01*
X109831142Y-115371428D01*
X109688285Y-115466666D01*
X109497809Y-115514285D01*
X109116857Y-115514285D01*
X109021619Y-115466666D01*
X108974000Y-115419047D01*
X108926380Y-115323809D01*
X108926380Y-115133333D01*
X108974000Y-115038095D01*
X109021619Y-114990476D01*
X109116857Y-114942857D01*
X109354952Y-114942857D01*
X109450190Y-114990476D01*
X109497809Y-115038095D01*
X109545428Y-115133333D01*
X109545428Y-115323809D01*
X109497809Y-115419047D01*
X109450190Y-115466666D01*
X109354952Y-115514285D01*
X109926380Y-136088571D02*
X109450190Y-135755238D01*
X109926380Y-135517142D02*
X108926380Y-135517142D01*
X108926380Y-135898095D01*
X108974000Y-135993333D01*
X109021619Y-136040952D01*
X109116857Y-136088571D01*
X109259714Y-136088571D01*
X109354952Y-136040952D01*
X109402571Y-135993333D01*
X109450190Y-135898095D01*
X109450190Y-135517142D01*
X108926380Y-136374285D02*
X109926380Y-136707619D01*
X108926380Y-137040952D01*
X109926380Y-137898095D02*
X109926380Y-137326666D01*
X109926380Y-137612380D02*
X108926380Y-137612380D01*
X109069238Y-137517142D01*
X109164476Y-137421904D01*
X109212095Y-137326666D01*
X108926380Y-138517142D02*
X108926380Y-138612380D01*
X108974000Y-138707619D01*
X109021619Y-138755238D01*
X109116857Y-138802857D01*
X109307333Y-138850476D01*
X109545428Y-138850476D01*
X109735904Y-138802857D01*
X109831142Y-138755238D01*
X109878761Y-138707619D01*
X109926380Y-138612380D01*
X109926380Y-138517142D01*
X109878761Y-138421904D01*
X109831142Y-138374285D01*
X109735904Y-138326666D01*
X109545428Y-138279047D01*
X109307333Y-138279047D01*
X109116857Y-138326666D01*
X109021619Y-138374285D01*
X108974000Y-138421904D01*
X108926380Y-138517142D01*
X110180380Y-98877571D02*
X109704190Y-98544238D01*
X110180380Y-98306142D02*
X109180380Y-98306142D01*
X109180380Y-98687095D01*
X109228000Y-98782333D01*
X109275619Y-98829952D01*
X109370857Y-98877571D01*
X109513714Y-98877571D01*
X109608952Y-98829952D01*
X109656571Y-98782333D01*
X109704190Y-98687095D01*
X109704190Y-98306142D01*
X109180380Y-99163285D02*
X110180380Y-99496619D01*
X109180380Y-99829952D01*
X110180380Y-100687095D02*
X110180380Y-100115666D01*
X110180380Y-100401380D02*
X109180380Y-100401380D01*
X109323238Y-100306142D01*
X109418476Y-100210904D01*
X109466095Y-100115666D01*
X110180380Y-101639476D02*
X110180380Y-101068047D01*
X110180380Y-101353761D02*
X109180380Y-101353761D01*
X109323238Y-101258523D01*
X109418476Y-101163285D01*
X109466095Y-101068047D01*
X88396380Y-77144666D02*
X89110666Y-77144666D01*
X89253523Y-77097047D01*
X89348761Y-77001809D01*
X89396380Y-76858952D01*
X89396380Y-76763714D01*
X89396380Y-77620857D02*
X88396380Y-77620857D01*
X88396380Y-78001809D01*
X88444000Y-78097047D01*
X88491619Y-78144666D01*
X88586857Y-78192285D01*
X88729714Y-78192285D01*
X88824952Y-78144666D01*
X88872571Y-78097047D01*
X88920190Y-78001809D01*
X88920190Y-77620857D01*
X88396380Y-79097047D02*
X88396380Y-78620857D01*
X88872571Y-78573238D01*
X88824952Y-78620857D01*
X88777333Y-78716095D01*
X88777333Y-78954190D01*
X88824952Y-79049428D01*
X88872571Y-79097047D01*
X88967809Y-79144666D01*
X89205904Y-79144666D01*
X89301142Y-79097047D01*
X89348761Y-79049428D01*
X89396380Y-78954190D01*
X89396380Y-78716095D01*
X89348761Y-78620857D01*
X89301142Y-78573238D01*
X83907238Y-76144380D02*
X84240571Y-75668190D01*
X84478666Y-76144380D02*
X84478666Y-75144380D01*
X84097714Y-75144380D01*
X84002476Y-75192000D01*
X83954857Y-75239619D01*
X83907238Y-75334857D01*
X83907238Y-75477714D01*
X83954857Y-75572952D01*
X84002476Y-75620571D01*
X84097714Y-75668190D01*
X84478666Y-75668190D01*
X83621523Y-75144380D02*
X83288190Y-76144380D01*
X82954857Y-75144380D01*
X82716761Y-75144380D02*
X82097714Y-75144380D01*
X82431047Y-75525333D01*
X82288190Y-75525333D01*
X82192952Y-75572952D01*
X82145333Y-75620571D01*
X82097714Y-75715809D01*
X82097714Y-75953904D01*
X82145333Y-76049142D01*
X82192952Y-76096761D01*
X82288190Y-76144380D01*
X82573904Y-76144380D01*
X82669142Y-76096761D01*
X82716761Y-76049142D01*
X103626380Y-88908095D02*
X103626380Y-89479523D01*
X104626380Y-89193809D02*
X103626380Y-89193809D01*
X104626380Y-89812857D02*
X103626380Y-89812857D01*
X103626380Y-90193809D01*
X103674000Y-90289047D01*
X103721619Y-90336666D01*
X103816857Y-90384285D01*
X103959714Y-90384285D01*
X104054952Y-90336666D01*
X104102571Y-90289047D01*
X104150190Y-90193809D01*
X104150190Y-89812857D01*
X104626380Y-91336666D02*
X104626380Y-90765238D01*
X104626380Y-91050952D02*
X103626380Y-91050952D01*
X103769238Y-90955714D01*
X103864476Y-90860476D01*
X103912095Y-90765238D01*
X103626380Y-85352095D02*
X103626380Y-85923523D01*
X104626380Y-85637809D02*
X103626380Y-85637809D01*
X104626380Y-86256857D02*
X103626380Y-86256857D01*
X103626380Y-86637809D01*
X103674000Y-86733047D01*
X103721619Y-86780666D01*
X103816857Y-86828285D01*
X103959714Y-86828285D01*
X104054952Y-86780666D01*
X104102571Y-86733047D01*
X104150190Y-86637809D01*
X104150190Y-86256857D01*
X103721619Y-87209238D02*
X103674000Y-87256857D01*
X103626380Y-87352095D01*
X103626380Y-87590190D01*
X103674000Y-87685428D01*
X103721619Y-87733047D01*
X103816857Y-87780666D01*
X103912095Y-87780666D01*
X104054952Y-87733047D01*
X104626380Y-87161619D01*
X104626380Y-87780666D01*
X76025333Y-73366380D02*
X76025333Y-74080666D01*
X76072952Y-74223523D01*
X76168190Y-74318761D01*
X76311047Y-74366380D01*
X76406285Y-74366380D01*
X75644380Y-73366380D02*
X75025333Y-73366380D01*
X75358666Y-73747333D01*
X75215809Y-73747333D01*
X75120571Y-73794952D01*
X75072952Y-73842571D01*
X75025333Y-73937809D01*
X75025333Y-74175904D01*
X75072952Y-74271142D01*
X75120571Y-74318761D01*
X75215809Y-74366380D01*
X75501523Y-74366380D01*
X75596761Y-74318761D01*
X75644380Y-74271142D01*
X96519904Y-73068380D02*
X96519904Y-73877904D01*
X96472285Y-73973142D01*
X96424666Y-74020761D01*
X96329428Y-74068380D01*
X96138952Y-74068380D01*
X96043714Y-74020761D01*
X95996095Y-73973142D01*
X95948476Y-73877904D01*
X95948476Y-73068380D01*
X94948476Y-74068380D02*
X95519904Y-74068380D01*
X95234190Y-74068380D02*
X95234190Y-73068380D01*
X95329428Y-73211238D01*
X95424666Y-73306476D01*
X95519904Y-73354095D01*
X96519904Y-131532380D02*
X96519904Y-132341904D01*
X96472285Y-132437142D01*
X96424666Y-132484761D01*
X96329428Y-132532380D01*
X96138952Y-132532380D01*
X96043714Y-132484761D01*
X95996095Y-132437142D01*
X95948476Y-132341904D01*
X95948476Y-131532380D01*
X95043714Y-131532380D02*
X95234190Y-131532380D01*
X95329428Y-131580000D01*
X95377047Y-131627619D01*
X95472285Y-131770476D01*
X95519904Y-131960952D01*
X95519904Y-132341904D01*
X95472285Y-132437142D01*
X95424666Y-132484761D01*
X95329428Y-132532380D01*
X95138952Y-132532380D01*
X95043714Y-132484761D01*
X94996095Y-132437142D01*
X94948476Y-132341904D01*
X94948476Y-132103809D01*
X94996095Y-132008571D01*
X95043714Y-131960952D01*
X95138952Y-131913333D01*
X95329428Y-131913333D01*
X95424666Y-131960952D01*
X95472285Y-132008571D01*
X95519904Y-132103809D01*
X96519904Y-108374380D02*
X96519904Y-109183904D01*
X96472285Y-109279142D01*
X96424666Y-109326761D01*
X96329428Y-109374380D01*
X96138952Y-109374380D01*
X96043714Y-109326761D01*
X95996095Y-109279142D01*
X95948476Y-109183904D01*
X95948476Y-108374380D01*
X94996095Y-108374380D02*
X95472285Y-108374380D01*
X95519904Y-108850571D01*
X95472285Y-108802952D01*
X95377047Y-108755333D01*
X95138952Y-108755333D01*
X95043714Y-108802952D01*
X94996095Y-108850571D01*
X94948476Y-108945809D01*
X94948476Y-109183904D01*
X94996095Y-109279142D01*
X95043714Y-109326761D01*
X95138952Y-109374380D01*
X95377047Y-109374380D01*
X95472285Y-109326761D01*
X95519904Y-109279142D01*
X82748380Y-121324761D02*
X82272190Y-120991428D01*
X82748380Y-120753333D02*
X81748380Y-120753333D01*
X81748380Y-121134285D01*
X81796000Y-121229523D01*
X81843619Y-121277142D01*
X81938857Y-121324761D01*
X82081714Y-121324761D01*
X82176952Y-121277142D01*
X82224571Y-121229523D01*
X82272190Y-121134285D01*
X82272190Y-120753333D01*
X81748380Y-121610476D02*
X82748380Y-121943809D01*
X81748380Y-122277142D01*
X81843619Y-122562857D02*
X81796000Y-122610476D01*
X81748380Y-122705714D01*
X81748380Y-122943809D01*
X81796000Y-123039047D01*
X81843619Y-123086666D01*
X81938857Y-123134285D01*
X82034095Y-123134285D01*
X82176952Y-123086666D01*
X82748380Y-122515238D01*
X82748380Y-123134285D01*
X77414380Y-108624761D02*
X76938190Y-108291428D01*
X77414380Y-108053333D02*
X76414380Y-108053333D01*
X76414380Y-108434285D01*
X76462000Y-108529523D01*
X76509619Y-108577142D01*
X76604857Y-108624761D01*
X76747714Y-108624761D01*
X76842952Y-108577142D01*
X76890571Y-108529523D01*
X76938190Y-108434285D01*
X76938190Y-108053333D01*
X76414380Y-108910476D02*
X77414380Y-109243809D01*
X76414380Y-109577142D01*
X76747714Y-110339047D02*
X77414380Y-110339047D01*
X76366761Y-110100952D02*
X77081047Y-109862857D01*
X77081047Y-110481904D01*
X96519904Y-95674380D02*
X96519904Y-96483904D01*
X96472285Y-96579142D01*
X96424666Y-96626761D01*
X96329428Y-96674380D01*
X96138952Y-96674380D01*
X96043714Y-96626761D01*
X95996095Y-96579142D01*
X95948476Y-96483904D01*
X95948476Y-95674380D01*
X95567523Y-95674380D02*
X94900857Y-95674380D01*
X95329428Y-96674380D01*
X87979142Y-85177333D02*
X88026761Y-85129714D01*
X88074380Y-84986857D01*
X88074380Y-84891619D01*
X88026761Y-84748761D01*
X87931523Y-84653523D01*
X87836285Y-84605904D01*
X87645809Y-84558285D01*
X87502952Y-84558285D01*
X87312476Y-84605904D01*
X87217238Y-84653523D01*
X87122000Y-84748761D01*
X87074380Y-84891619D01*
X87074380Y-84986857D01*
X87122000Y-85129714D01*
X87169619Y-85177333D01*
X88074380Y-86129714D02*
X88074380Y-85558285D01*
X88074380Y-85844000D02*
X87074380Y-85844000D01*
X87217238Y-85748761D01*
X87312476Y-85653523D01*
X87360095Y-85558285D01*
M02*
