G04 #@! TF.GenerationSoftware,KiCad,Pcbnew,(5.1.2-1)-1*
G04 #@! TF.CreationDate,2019-08-21T11:01:54-07:00*
G04 #@! TF.ProjectId,AS3320_VCF,41533333-3230-45f5-9643-462e6b696361,rev?*
G04 #@! TF.SameCoordinates,Original*
G04 #@! TF.FileFunction,Paste,Bot*
G04 #@! TF.FilePolarity,Positive*
%FSLAX46Y46*%
G04 Gerber Fmt 4.6, Leading zero omitted, Abs format (unit mm)*
G04 Created by KiCad (PCBNEW (5.1.2-1)-1) date 2019-08-21 11:01:54*
%MOMM*%
%LPD*%
G04 APERTURE LIST*
%ADD10C,0.100000*%
%ADD11C,1.600000*%
G04 APERTURE END LIST*
D10*
G36*
X59248504Y-108197204D02*
G01*
X59272773Y-108200804D01*
X59296571Y-108206765D01*
X59319671Y-108215030D01*
X59341849Y-108225520D01*
X59362893Y-108238133D01*
X59382598Y-108252747D01*
X59400777Y-108269223D01*
X59417253Y-108287402D01*
X59431867Y-108307107D01*
X59444480Y-108328151D01*
X59454970Y-108350329D01*
X59463235Y-108373429D01*
X59469196Y-108397227D01*
X59472796Y-108421496D01*
X59474000Y-108446000D01*
X59474000Y-110546000D01*
X59472796Y-110570504D01*
X59469196Y-110594773D01*
X59463235Y-110618571D01*
X59454970Y-110641671D01*
X59444480Y-110663849D01*
X59431867Y-110684893D01*
X59417253Y-110704598D01*
X59400777Y-110722777D01*
X59382598Y-110739253D01*
X59362893Y-110753867D01*
X59341849Y-110766480D01*
X59319671Y-110776970D01*
X59296571Y-110785235D01*
X59272773Y-110791196D01*
X59248504Y-110794796D01*
X59224000Y-110796000D01*
X58124000Y-110796000D01*
X58099496Y-110794796D01*
X58075227Y-110791196D01*
X58051429Y-110785235D01*
X58028329Y-110776970D01*
X58006151Y-110766480D01*
X57985107Y-110753867D01*
X57965402Y-110739253D01*
X57947223Y-110722777D01*
X57930747Y-110704598D01*
X57916133Y-110684893D01*
X57903520Y-110663849D01*
X57893030Y-110641671D01*
X57884765Y-110618571D01*
X57878804Y-110594773D01*
X57875204Y-110570504D01*
X57874000Y-110546000D01*
X57874000Y-108446000D01*
X57875204Y-108421496D01*
X57878804Y-108397227D01*
X57884765Y-108373429D01*
X57893030Y-108350329D01*
X57903520Y-108328151D01*
X57916133Y-108307107D01*
X57930747Y-108287402D01*
X57947223Y-108269223D01*
X57965402Y-108252747D01*
X57985107Y-108238133D01*
X58006151Y-108225520D01*
X58028329Y-108215030D01*
X58051429Y-108206765D01*
X58075227Y-108200804D01*
X58099496Y-108197204D01*
X58124000Y-108196000D01*
X59224000Y-108196000D01*
X59248504Y-108197204D01*
X59248504Y-108197204D01*
G37*
D11*
X58674000Y-109496000D03*
D10*
G36*
X59248504Y-104597204D02*
G01*
X59272773Y-104600804D01*
X59296571Y-104606765D01*
X59319671Y-104615030D01*
X59341849Y-104625520D01*
X59362893Y-104638133D01*
X59382598Y-104652747D01*
X59400777Y-104669223D01*
X59417253Y-104687402D01*
X59431867Y-104707107D01*
X59444480Y-104728151D01*
X59454970Y-104750329D01*
X59463235Y-104773429D01*
X59469196Y-104797227D01*
X59472796Y-104821496D01*
X59474000Y-104846000D01*
X59474000Y-106946000D01*
X59472796Y-106970504D01*
X59469196Y-106994773D01*
X59463235Y-107018571D01*
X59454970Y-107041671D01*
X59444480Y-107063849D01*
X59431867Y-107084893D01*
X59417253Y-107104598D01*
X59400777Y-107122777D01*
X59382598Y-107139253D01*
X59362893Y-107153867D01*
X59341849Y-107166480D01*
X59319671Y-107176970D01*
X59296571Y-107185235D01*
X59272773Y-107191196D01*
X59248504Y-107194796D01*
X59224000Y-107196000D01*
X58124000Y-107196000D01*
X58099496Y-107194796D01*
X58075227Y-107191196D01*
X58051429Y-107185235D01*
X58028329Y-107176970D01*
X58006151Y-107166480D01*
X57985107Y-107153867D01*
X57965402Y-107139253D01*
X57947223Y-107122777D01*
X57930747Y-107104598D01*
X57916133Y-107084893D01*
X57903520Y-107063849D01*
X57893030Y-107041671D01*
X57884765Y-107018571D01*
X57878804Y-106994773D01*
X57875204Y-106970504D01*
X57874000Y-106946000D01*
X57874000Y-104846000D01*
X57875204Y-104821496D01*
X57878804Y-104797227D01*
X57884765Y-104773429D01*
X57893030Y-104750329D01*
X57903520Y-104728151D01*
X57916133Y-104707107D01*
X57930747Y-104687402D01*
X57947223Y-104669223D01*
X57965402Y-104652747D01*
X57985107Y-104638133D01*
X58006151Y-104625520D01*
X58028329Y-104615030D01*
X58051429Y-104606765D01*
X58075227Y-104600804D01*
X58099496Y-104597204D01*
X58124000Y-104596000D01*
X59224000Y-104596000D01*
X59248504Y-104597204D01*
X59248504Y-104597204D01*
G37*
D11*
X58674000Y-105896000D03*
D10*
G36*
X59248504Y-115563204D02*
G01*
X59272773Y-115566804D01*
X59296571Y-115572765D01*
X59319671Y-115581030D01*
X59341849Y-115591520D01*
X59362893Y-115604133D01*
X59382598Y-115618747D01*
X59400777Y-115635223D01*
X59417253Y-115653402D01*
X59431867Y-115673107D01*
X59444480Y-115694151D01*
X59454970Y-115716329D01*
X59463235Y-115739429D01*
X59469196Y-115763227D01*
X59472796Y-115787496D01*
X59474000Y-115812000D01*
X59474000Y-117912000D01*
X59472796Y-117936504D01*
X59469196Y-117960773D01*
X59463235Y-117984571D01*
X59454970Y-118007671D01*
X59444480Y-118029849D01*
X59431867Y-118050893D01*
X59417253Y-118070598D01*
X59400777Y-118088777D01*
X59382598Y-118105253D01*
X59362893Y-118119867D01*
X59341849Y-118132480D01*
X59319671Y-118142970D01*
X59296571Y-118151235D01*
X59272773Y-118157196D01*
X59248504Y-118160796D01*
X59224000Y-118162000D01*
X58124000Y-118162000D01*
X58099496Y-118160796D01*
X58075227Y-118157196D01*
X58051429Y-118151235D01*
X58028329Y-118142970D01*
X58006151Y-118132480D01*
X57985107Y-118119867D01*
X57965402Y-118105253D01*
X57947223Y-118088777D01*
X57930747Y-118070598D01*
X57916133Y-118050893D01*
X57903520Y-118029849D01*
X57893030Y-118007671D01*
X57884765Y-117984571D01*
X57878804Y-117960773D01*
X57875204Y-117936504D01*
X57874000Y-117912000D01*
X57874000Y-115812000D01*
X57875204Y-115787496D01*
X57878804Y-115763227D01*
X57884765Y-115739429D01*
X57893030Y-115716329D01*
X57903520Y-115694151D01*
X57916133Y-115673107D01*
X57930747Y-115653402D01*
X57947223Y-115635223D01*
X57965402Y-115618747D01*
X57985107Y-115604133D01*
X58006151Y-115591520D01*
X58028329Y-115581030D01*
X58051429Y-115572765D01*
X58075227Y-115566804D01*
X58099496Y-115563204D01*
X58124000Y-115562000D01*
X59224000Y-115562000D01*
X59248504Y-115563204D01*
X59248504Y-115563204D01*
G37*
D11*
X58674000Y-116862000D03*
D10*
G36*
X59248504Y-111963204D02*
G01*
X59272773Y-111966804D01*
X59296571Y-111972765D01*
X59319671Y-111981030D01*
X59341849Y-111991520D01*
X59362893Y-112004133D01*
X59382598Y-112018747D01*
X59400777Y-112035223D01*
X59417253Y-112053402D01*
X59431867Y-112073107D01*
X59444480Y-112094151D01*
X59454970Y-112116329D01*
X59463235Y-112139429D01*
X59469196Y-112163227D01*
X59472796Y-112187496D01*
X59474000Y-112212000D01*
X59474000Y-114312000D01*
X59472796Y-114336504D01*
X59469196Y-114360773D01*
X59463235Y-114384571D01*
X59454970Y-114407671D01*
X59444480Y-114429849D01*
X59431867Y-114450893D01*
X59417253Y-114470598D01*
X59400777Y-114488777D01*
X59382598Y-114505253D01*
X59362893Y-114519867D01*
X59341849Y-114532480D01*
X59319671Y-114542970D01*
X59296571Y-114551235D01*
X59272773Y-114557196D01*
X59248504Y-114560796D01*
X59224000Y-114562000D01*
X58124000Y-114562000D01*
X58099496Y-114560796D01*
X58075227Y-114557196D01*
X58051429Y-114551235D01*
X58028329Y-114542970D01*
X58006151Y-114532480D01*
X57985107Y-114519867D01*
X57965402Y-114505253D01*
X57947223Y-114488777D01*
X57930747Y-114470598D01*
X57916133Y-114450893D01*
X57903520Y-114429849D01*
X57893030Y-114407671D01*
X57884765Y-114384571D01*
X57878804Y-114360773D01*
X57875204Y-114336504D01*
X57874000Y-114312000D01*
X57874000Y-112212000D01*
X57875204Y-112187496D01*
X57878804Y-112163227D01*
X57884765Y-112139429D01*
X57893030Y-112116329D01*
X57903520Y-112094151D01*
X57916133Y-112073107D01*
X57930747Y-112053402D01*
X57947223Y-112035223D01*
X57965402Y-112018747D01*
X57985107Y-112004133D01*
X58006151Y-111991520D01*
X58028329Y-111981030D01*
X58051429Y-111972765D01*
X58075227Y-111966804D01*
X58099496Y-111963204D01*
X58124000Y-111962000D01*
X59224000Y-111962000D01*
X59248504Y-111963204D01*
X59248504Y-111963204D01*
G37*
D11*
X58674000Y-113262000D03*
M02*
