G04 #@! TF.GenerationSoftware,KiCad,Pcbnew,(5.1.2-1)-1*
G04 #@! TF.CreationDate,2019-08-21T11:01:54-07:00*
G04 #@! TF.ProjectId,AS3320_VCF,41533333-3230-45f5-9643-462e6b696361,rev?*
G04 #@! TF.SameCoordinates,Original*
G04 #@! TF.FileFunction,Paste,Top*
G04 #@! TF.FilePolarity,Positive*
%FSLAX46Y46*%
G04 Gerber Fmt 4.6, Leading zero omitted, Abs format (unit mm)*
G04 Created by KiCad (PCBNEW (5.1.2-1)-1) date 2019-08-21 11:01:54*
%MOMM*%
%LPD*%
G04 APERTURE LIST*
%ADD10C,0.100000*%
%ADD11C,0.975000*%
G04 APERTURE END LIST*
D10*
G36*
X58265142Y-37710674D02*
G01*
X58288803Y-37714184D01*
X58312007Y-37719996D01*
X58334529Y-37728054D01*
X58356153Y-37738282D01*
X58376670Y-37750579D01*
X58395883Y-37764829D01*
X58413607Y-37780893D01*
X58429671Y-37798617D01*
X58443921Y-37817830D01*
X58456218Y-37838347D01*
X58466446Y-37859971D01*
X58474504Y-37882493D01*
X58480316Y-37905697D01*
X58483826Y-37929358D01*
X58485000Y-37953250D01*
X58485000Y-38440750D01*
X58483826Y-38464642D01*
X58480316Y-38488303D01*
X58474504Y-38511507D01*
X58466446Y-38534029D01*
X58456218Y-38555653D01*
X58443921Y-38576170D01*
X58429671Y-38595383D01*
X58413607Y-38613107D01*
X58395883Y-38629171D01*
X58376670Y-38643421D01*
X58356153Y-38655718D01*
X58334529Y-38665946D01*
X58312007Y-38674004D01*
X58288803Y-38679816D01*
X58265142Y-38683326D01*
X58241250Y-38684500D01*
X57328750Y-38684500D01*
X57304858Y-38683326D01*
X57281197Y-38679816D01*
X57257993Y-38674004D01*
X57235471Y-38665946D01*
X57213847Y-38655718D01*
X57193330Y-38643421D01*
X57174117Y-38629171D01*
X57156393Y-38613107D01*
X57140329Y-38595383D01*
X57126079Y-38576170D01*
X57113782Y-38555653D01*
X57103554Y-38534029D01*
X57095496Y-38511507D01*
X57089684Y-38488303D01*
X57086174Y-38464642D01*
X57085000Y-38440750D01*
X57085000Y-37953250D01*
X57086174Y-37929358D01*
X57089684Y-37905697D01*
X57095496Y-37882493D01*
X57103554Y-37859971D01*
X57113782Y-37838347D01*
X57126079Y-37817830D01*
X57140329Y-37798617D01*
X57156393Y-37780893D01*
X57174117Y-37764829D01*
X57193330Y-37750579D01*
X57213847Y-37738282D01*
X57235471Y-37728054D01*
X57257993Y-37719996D01*
X57281197Y-37714184D01*
X57304858Y-37710674D01*
X57328750Y-37709500D01*
X58241250Y-37709500D01*
X58265142Y-37710674D01*
X58265142Y-37710674D01*
G37*
D11*
X57785000Y-38197000D03*
D10*
G36*
X58265142Y-35835674D02*
G01*
X58288803Y-35839184D01*
X58312007Y-35844996D01*
X58334529Y-35853054D01*
X58356153Y-35863282D01*
X58376670Y-35875579D01*
X58395883Y-35889829D01*
X58413607Y-35905893D01*
X58429671Y-35923617D01*
X58443921Y-35942830D01*
X58456218Y-35963347D01*
X58466446Y-35984971D01*
X58474504Y-36007493D01*
X58480316Y-36030697D01*
X58483826Y-36054358D01*
X58485000Y-36078250D01*
X58485000Y-36565750D01*
X58483826Y-36589642D01*
X58480316Y-36613303D01*
X58474504Y-36636507D01*
X58466446Y-36659029D01*
X58456218Y-36680653D01*
X58443921Y-36701170D01*
X58429671Y-36720383D01*
X58413607Y-36738107D01*
X58395883Y-36754171D01*
X58376670Y-36768421D01*
X58356153Y-36780718D01*
X58334529Y-36790946D01*
X58312007Y-36799004D01*
X58288803Y-36804816D01*
X58265142Y-36808326D01*
X58241250Y-36809500D01*
X57328750Y-36809500D01*
X57304858Y-36808326D01*
X57281197Y-36804816D01*
X57257993Y-36799004D01*
X57235471Y-36790946D01*
X57213847Y-36780718D01*
X57193330Y-36768421D01*
X57174117Y-36754171D01*
X57156393Y-36738107D01*
X57140329Y-36720383D01*
X57126079Y-36701170D01*
X57113782Y-36680653D01*
X57103554Y-36659029D01*
X57095496Y-36636507D01*
X57089684Y-36613303D01*
X57086174Y-36589642D01*
X57085000Y-36565750D01*
X57085000Y-36078250D01*
X57086174Y-36054358D01*
X57089684Y-36030697D01*
X57095496Y-36007493D01*
X57103554Y-35984971D01*
X57113782Y-35963347D01*
X57126079Y-35942830D01*
X57140329Y-35923617D01*
X57156393Y-35905893D01*
X57174117Y-35889829D01*
X57193330Y-35875579D01*
X57213847Y-35863282D01*
X57235471Y-35853054D01*
X57257993Y-35844996D01*
X57281197Y-35839184D01*
X57304858Y-35835674D01*
X57328750Y-35834500D01*
X58241250Y-35834500D01*
X58265142Y-35835674D01*
X58265142Y-35835674D01*
G37*
D11*
X57785000Y-36322000D03*
D10*
G36*
X67801642Y-74485174D02*
G01*
X67825303Y-74488684D01*
X67848507Y-74494496D01*
X67871029Y-74502554D01*
X67892653Y-74512782D01*
X67913170Y-74525079D01*
X67932383Y-74539329D01*
X67950107Y-74555393D01*
X67966171Y-74573117D01*
X67980421Y-74592330D01*
X67992718Y-74612847D01*
X68002946Y-74634471D01*
X68011004Y-74656993D01*
X68016816Y-74680197D01*
X68020326Y-74703858D01*
X68021500Y-74727750D01*
X68021500Y-75640250D01*
X68020326Y-75664142D01*
X68016816Y-75687803D01*
X68011004Y-75711007D01*
X68002946Y-75733529D01*
X67992718Y-75755153D01*
X67980421Y-75775670D01*
X67966171Y-75794883D01*
X67950107Y-75812607D01*
X67932383Y-75828671D01*
X67913170Y-75842921D01*
X67892653Y-75855218D01*
X67871029Y-75865446D01*
X67848507Y-75873504D01*
X67825303Y-75879316D01*
X67801642Y-75882826D01*
X67777750Y-75884000D01*
X67290250Y-75884000D01*
X67266358Y-75882826D01*
X67242697Y-75879316D01*
X67219493Y-75873504D01*
X67196971Y-75865446D01*
X67175347Y-75855218D01*
X67154830Y-75842921D01*
X67135617Y-75828671D01*
X67117893Y-75812607D01*
X67101829Y-75794883D01*
X67087579Y-75775670D01*
X67075282Y-75755153D01*
X67065054Y-75733529D01*
X67056996Y-75711007D01*
X67051184Y-75687803D01*
X67047674Y-75664142D01*
X67046500Y-75640250D01*
X67046500Y-74727750D01*
X67047674Y-74703858D01*
X67051184Y-74680197D01*
X67056996Y-74656993D01*
X67065054Y-74634471D01*
X67075282Y-74612847D01*
X67087579Y-74592330D01*
X67101829Y-74573117D01*
X67117893Y-74555393D01*
X67135617Y-74539329D01*
X67154830Y-74525079D01*
X67175347Y-74512782D01*
X67196971Y-74502554D01*
X67219493Y-74494496D01*
X67242697Y-74488684D01*
X67266358Y-74485174D01*
X67290250Y-74484000D01*
X67777750Y-74484000D01*
X67801642Y-74485174D01*
X67801642Y-74485174D01*
G37*
D11*
X67534000Y-75184000D03*
D10*
G36*
X65926642Y-74485174D02*
G01*
X65950303Y-74488684D01*
X65973507Y-74494496D01*
X65996029Y-74502554D01*
X66017653Y-74512782D01*
X66038170Y-74525079D01*
X66057383Y-74539329D01*
X66075107Y-74555393D01*
X66091171Y-74573117D01*
X66105421Y-74592330D01*
X66117718Y-74612847D01*
X66127946Y-74634471D01*
X66136004Y-74656993D01*
X66141816Y-74680197D01*
X66145326Y-74703858D01*
X66146500Y-74727750D01*
X66146500Y-75640250D01*
X66145326Y-75664142D01*
X66141816Y-75687803D01*
X66136004Y-75711007D01*
X66127946Y-75733529D01*
X66117718Y-75755153D01*
X66105421Y-75775670D01*
X66091171Y-75794883D01*
X66075107Y-75812607D01*
X66057383Y-75828671D01*
X66038170Y-75842921D01*
X66017653Y-75855218D01*
X65996029Y-75865446D01*
X65973507Y-75873504D01*
X65950303Y-75879316D01*
X65926642Y-75882826D01*
X65902750Y-75884000D01*
X65415250Y-75884000D01*
X65391358Y-75882826D01*
X65367697Y-75879316D01*
X65344493Y-75873504D01*
X65321971Y-75865446D01*
X65300347Y-75855218D01*
X65279830Y-75842921D01*
X65260617Y-75828671D01*
X65242893Y-75812607D01*
X65226829Y-75794883D01*
X65212579Y-75775670D01*
X65200282Y-75755153D01*
X65190054Y-75733529D01*
X65181996Y-75711007D01*
X65176184Y-75687803D01*
X65172674Y-75664142D01*
X65171500Y-75640250D01*
X65171500Y-74727750D01*
X65172674Y-74703858D01*
X65176184Y-74680197D01*
X65181996Y-74656993D01*
X65190054Y-74634471D01*
X65200282Y-74612847D01*
X65212579Y-74592330D01*
X65226829Y-74573117D01*
X65242893Y-74555393D01*
X65260617Y-74539329D01*
X65279830Y-74525079D01*
X65300347Y-74512782D01*
X65321971Y-74502554D01*
X65344493Y-74494496D01*
X65367697Y-74488684D01*
X65391358Y-74485174D01*
X65415250Y-74484000D01*
X65902750Y-74484000D01*
X65926642Y-74485174D01*
X65926642Y-74485174D01*
G37*
D11*
X65659000Y-75184000D03*
D10*
G36*
X66266142Y-44012174D02*
G01*
X66289803Y-44015684D01*
X66313007Y-44021496D01*
X66335529Y-44029554D01*
X66357153Y-44039782D01*
X66377670Y-44052079D01*
X66396883Y-44066329D01*
X66414607Y-44082393D01*
X66430671Y-44100117D01*
X66444921Y-44119330D01*
X66457218Y-44139847D01*
X66467446Y-44161471D01*
X66475504Y-44183993D01*
X66481316Y-44207197D01*
X66484826Y-44230858D01*
X66486000Y-44254750D01*
X66486000Y-44742250D01*
X66484826Y-44766142D01*
X66481316Y-44789803D01*
X66475504Y-44813007D01*
X66467446Y-44835529D01*
X66457218Y-44857153D01*
X66444921Y-44877670D01*
X66430671Y-44896883D01*
X66414607Y-44914607D01*
X66396883Y-44930671D01*
X66377670Y-44944921D01*
X66357153Y-44957218D01*
X66335529Y-44967446D01*
X66313007Y-44975504D01*
X66289803Y-44981316D01*
X66266142Y-44984826D01*
X66242250Y-44986000D01*
X65329750Y-44986000D01*
X65305858Y-44984826D01*
X65282197Y-44981316D01*
X65258993Y-44975504D01*
X65236471Y-44967446D01*
X65214847Y-44957218D01*
X65194330Y-44944921D01*
X65175117Y-44930671D01*
X65157393Y-44914607D01*
X65141329Y-44896883D01*
X65127079Y-44877670D01*
X65114782Y-44857153D01*
X65104554Y-44835529D01*
X65096496Y-44813007D01*
X65090684Y-44789803D01*
X65087174Y-44766142D01*
X65086000Y-44742250D01*
X65086000Y-44254750D01*
X65087174Y-44230858D01*
X65090684Y-44207197D01*
X65096496Y-44183993D01*
X65104554Y-44161471D01*
X65114782Y-44139847D01*
X65127079Y-44119330D01*
X65141329Y-44100117D01*
X65157393Y-44082393D01*
X65175117Y-44066329D01*
X65194330Y-44052079D01*
X65214847Y-44039782D01*
X65236471Y-44029554D01*
X65258993Y-44021496D01*
X65282197Y-44015684D01*
X65305858Y-44012174D01*
X65329750Y-44011000D01*
X66242250Y-44011000D01*
X66266142Y-44012174D01*
X66266142Y-44012174D01*
G37*
D11*
X65786000Y-44498500D03*
D10*
G36*
X66266142Y-42137174D02*
G01*
X66289803Y-42140684D01*
X66313007Y-42146496D01*
X66335529Y-42154554D01*
X66357153Y-42164782D01*
X66377670Y-42177079D01*
X66396883Y-42191329D01*
X66414607Y-42207393D01*
X66430671Y-42225117D01*
X66444921Y-42244330D01*
X66457218Y-42264847D01*
X66467446Y-42286471D01*
X66475504Y-42308993D01*
X66481316Y-42332197D01*
X66484826Y-42355858D01*
X66486000Y-42379750D01*
X66486000Y-42867250D01*
X66484826Y-42891142D01*
X66481316Y-42914803D01*
X66475504Y-42938007D01*
X66467446Y-42960529D01*
X66457218Y-42982153D01*
X66444921Y-43002670D01*
X66430671Y-43021883D01*
X66414607Y-43039607D01*
X66396883Y-43055671D01*
X66377670Y-43069921D01*
X66357153Y-43082218D01*
X66335529Y-43092446D01*
X66313007Y-43100504D01*
X66289803Y-43106316D01*
X66266142Y-43109826D01*
X66242250Y-43111000D01*
X65329750Y-43111000D01*
X65305858Y-43109826D01*
X65282197Y-43106316D01*
X65258993Y-43100504D01*
X65236471Y-43092446D01*
X65214847Y-43082218D01*
X65194330Y-43069921D01*
X65175117Y-43055671D01*
X65157393Y-43039607D01*
X65141329Y-43021883D01*
X65127079Y-43002670D01*
X65114782Y-42982153D01*
X65104554Y-42960529D01*
X65096496Y-42938007D01*
X65090684Y-42914803D01*
X65087174Y-42891142D01*
X65086000Y-42867250D01*
X65086000Y-42379750D01*
X65087174Y-42355858D01*
X65090684Y-42332197D01*
X65096496Y-42308993D01*
X65104554Y-42286471D01*
X65114782Y-42264847D01*
X65127079Y-42244330D01*
X65141329Y-42225117D01*
X65157393Y-42207393D01*
X65175117Y-42191329D01*
X65194330Y-42177079D01*
X65214847Y-42164782D01*
X65236471Y-42154554D01*
X65258993Y-42146496D01*
X65282197Y-42140684D01*
X65305858Y-42137174D01*
X65329750Y-42136000D01*
X66242250Y-42136000D01*
X66266142Y-42137174D01*
X66266142Y-42137174D01*
G37*
D11*
X65786000Y-42623500D03*
D10*
G36*
X55090142Y-32104174D02*
G01*
X55113803Y-32107684D01*
X55137007Y-32113496D01*
X55159529Y-32121554D01*
X55181153Y-32131782D01*
X55201670Y-32144079D01*
X55220883Y-32158329D01*
X55238607Y-32174393D01*
X55254671Y-32192117D01*
X55268921Y-32211330D01*
X55281218Y-32231847D01*
X55291446Y-32253471D01*
X55299504Y-32275993D01*
X55305316Y-32299197D01*
X55308826Y-32322858D01*
X55310000Y-32346750D01*
X55310000Y-32834250D01*
X55308826Y-32858142D01*
X55305316Y-32881803D01*
X55299504Y-32905007D01*
X55291446Y-32927529D01*
X55281218Y-32949153D01*
X55268921Y-32969670D01*
X55254671Y-32988883D01*
X55238607Y-33006607D01*
X55220883Y-33022671D01*
X55201670Y-33036921D01*
X55181153Y-33049218D01*
X55159529Y-33059446D01*
X55137007Y-33067504D01*
X55113803Y-33073316D01*
X55090142Y-33076826D01*
X55066250Y-33078000D01*
X54153750Y-33078000D01*
X54129858Y-33076826D01*
X54106197Y-33073316D01*
X54082993Y-33067504D01*
X54060471Y-33059446D01*
X54038847Y-33049218D01*
X54018330Y-33036921D01*
X53999117Y-33022671D01*
X53981393Y-33006607D01*
X53965329Y-32988883D01*
X53951079Y-32969670D01*
X53938782Y-32949153D01*
X53928554Y-32927529D01*
X53920496Y-32905007D01*
X53914684Y-32881803D01*
X53911174Y-32858142D01*
X53910000Y-32834250D01*
X53910000Y-32346750D01*
X53911174Y-32322858D01*
X53914684Y-32299197D01*
X53920496Y-32275993D01*
X53928554Y-32253471D01*
X53938782Y-32231847D01*
X53951079Y-32211330D01*
X53965329Y-32192117D01*
X53981393Y-32174393D01*
X53999117Y-32158329D01*
X54018330Y-32144079D01*
X54038847Y-32131782D01*
X54060471Y-32121554D01*
X54082993Y-32113496D01*
X54106197Y-32107684D01*
X54129858Y-32104174D01*
X54153750Y-32103000D01*
X55066250Y-32103000D01*
X55090142Y-32104174D01*
X55090142Y-32104174D01*
G37*
D11*
X54610000Y-32590500D03*
D10*
G36*
X55090142Y-33979174D02*
G01*
X55113803Y-33982684D01*
X55137007Y-33988496D01*
X55159529Y-33996554D01*
X55181153Y-34006782D01*
X55201670Y-34019079D01*
X55220883Y-34033329D01*
X55238607Y-34049393D01*
X55254671Y-34067117D01*
X55268921Y-34086330D01*
X55281218Y-34106847D01*
X55291446Y-34128471D01*
X55299504Y-34150993D01*
X55305316Y-34174197D01*
X55308826Y-34197858D01*
X55310000Y-34221750D01*
X55310000Y-34709250D01*
X55308826Y-34733142D01*
X55305316Y-34756803D01*
X55299504Y-34780007D01*
X55291446Y-34802529D01*
X55281218Y-34824153D01*
X55268921Y-34844670D01*
X55254671Y-34863883D01*
X55238607Y-34881607D01*
X55220883Y-34897671D01*
X55201670Y-34911921D01*
X55181153Y-34924218D01*
X55159529Y-34934446D01*
X55137007Y-34942504D01*
X55113803Y-34948316D01*
X55090142Y-34951826D01*
X55066250Y-34953000D01*
X54153750Y-34953000D01*
X54129858Y-34951826D01*
X54106197Y-34948316D01*
X54082993Y-34942504D01*
X54060471Y-34934446D01*
X54038847Y-34924218D01*
X54018330Y-34911921D01*
X53999117Y-34897671D01*
X53981393Y-34881607D01*
X53965329Y-34863883D01*
X53951079Y-34844670D01*
X53938782Y-34824153D01*
X53928554Y-34802529D01*
X53920496Y-34780007D01*
X53914684Y-34756803D01*
X53911174Y-34733142D01*
X53910000Y-34709250D01*
X53910000Y-34221750D01*
X53911174Y-34197858D01*
X53914684Y-34174197D01*
X53920496Y-34150993D01*
X53928554Y-34128471D01*
X53938782Y-34106847D01*
X53951079Y-34086330D01*
X53965329Y-34067117D01*
X53981393Y-34049393D01*
X53999117Y-34033329D01*
X54018330Y-34019079D01*
X54038847Y-34006782D01*
X54060471Y-33996554D01*
X54082993Y-33988496D01*
X54106197Y-33982684D01*
X54129858Y-33979174D01*
X54153750Y-33978000D01*
X55066250Y-33978000D01*
X55090142Y-33979174D01*
X55090142Y-33979174D01*
G37*
D11*
X54610000Y-34465500D03*
D10*
G36*
X57122142Y-32104174D02*
G01*
X57145803Y-32107684D01*
X57169007Y-32113496D01*
X57191529Y-32121554D01*
X57213153Y-32131782D01*
X57233670Y-32144079D01*
X57252883Y-32158329D01*
X57270607Y-32174393D01*
X57286671Y-32192117D01*
X57300921Y-32211330D01*
X57313218Y-32231847D01*
X57323446Y-32253471D01*
X57331504Y-32275993D01*
X57337316Y-32299197D01*
X57340826Y-32322858D01*
X57342000Y-32346750D01*
X57342000Y-32834250D01*
X57340826Y-32858142D01*
X57337316Y-32881803D01*
X57331504Y-32905007D01*
X57323446Y-32927529D01*
X57313218Y-32949153D01*
X57300921Y-32969670D01*
X57286671Y-32988883D01*
X57270607Y-33006607D01*
X57252883Y-33022671D01*
X57233670Y-33036921D01*
X57213153Y-33049218D01*
X57191529Y-33059446D01*
X57169007Y-33067504D01*
X57145803Y-33073316D01*
X57122142Y-33076826D01*
X57098250Y-33078000D01*
X56185750Y-33078000D01*
X56161858Y-33076826D01*
X56138197Y-33073316D01*
X56114993Y-33067504D01*
X56092471Y-33059446D01*
X56070847Y-33049218D01*
X56050330Y-33036921D01*
X56031117Y-33022671D01*
X56013393Y-33006607D01*
X55997329Y-32988883D01*
X55983079Y-32969670D01*
X55970782Y-32949153D01*
X55960554Y-32927529D01*
X55952496Y-32905007D01*
X55946684Y-32881803D01*
X55943174Y-32858142D01*
X55942000Y-32834250D01*
X55942000Y-32346750D01*
X55943174Y-32322858D01*
X55946684Y-32299197D01*
X55952496Y-32275993D01*
X55960554Y-32253471D01*
X55970782Y-32231847D01*
X55983079Y-32211330D01*
X55997329Y-32192117D01*
X56013393Y-32174393D01*
X56031117Y-32158329D01*
X56050330Y-32144079D01*
X56070847Y-32131782D01*
X56092471Y-32121554D01*
X56114993Y-32113496D01*
X56138197Y-32107684D01*
X56161858Y-32104174D01*
X56185750Y-32103000D01*
X57098250Y-32103000D01*
X57122142Y-32104174D01*
X57122142Y-32104174D01*
G37*
D11*
X56642000Y-32590500D03*
D10*
G36*
X57122142Y-33979174D02*
G01*
X57145803Y-33982684D01*
X57169007Y-33988496D01*
X57191529Y-33996554D01*
X57213153Y-34006782D01*
X57233670Y-34019079D01*
X57252883Y-34033329D01*
X57270607Y-34049393D01*
X57286671Y-34067117D01*
X57300921Y-34086330D01*
X57313218Y-34106847D01*
X57323446Y-34128471D01*
X57331504Y-34150993D01*
X57337316Y-34174197D01*
X57340826Y-34197858D01*
X57342000Y-34221750D01*
X57342000Y-34709250D01*
X57340826Y-34733142D01*
X57337316Y-34756803D01*
X57331504Y-34780007D01*
X57323446Y-34802529D01*
X57313218Y-34824153D01*
X57300921Y-34844670D01*
X57286671Y-34863883D01*
X57270607Y-34881607D01*
X57252883Y-34897671D01*
X57233670Y-34911921D01*
X57213153Y-34924218D01*
X57191529Y-34934446D01*
X57169007Y-34942504D01*
X57145803Y-34948316D01*
X57122142Y-34951826D01*
X57098250Y-34953000D01*
X56185750Y-34953000D01*
X56161858Y-34951826D01*
X56138197Y-34948316D01*
X56114993Y-34942504D01*
X56092471Y-34934446D01*
X56070847Y-34924218D01*
X56050330Y-34911921D01*
X56031117Y-34897671D01*
X56013393Y-34881607D01*
X55997329Y-34863883D01*
X55983079Y-34844670D01*
X55970782Y-34824153D01*
X55960554Y-34802529D01*
X55952496Y-34780007D01*
X55946684Y-34756803D01*
X55943174Y-34733142D01*
X55942000Y-34709250D01*
X55942000Y-34221750D01*
X55943174Y-34197858D01*
X55946684Y-34174197D01*
X55952496Y-34150993D01*
X55960554Y-34128471D01*
X55970782Y-34106847D01*
X55983079Y-34086330D01*
X55997329Y-34067117D01*
X56013393Y-34049393D01*
X56031117Y-34033329D01*
X56050330Y-34019079D01*
X56070847Y-34006782D01*
X56092471Y-33996554D01*
X56114993Y-33988496D01*
X56138197Y-33982684D01*
X56161858Y-33979174D01*
X56185750Y-33978000D01*
X57098250Y-33978000D01*
X57122142Y-33979174D01*
X57122142Y-33979174D01*
G37*
D11*
X56642000Y-34465500D03*
D10*
G36*
X59154142Y-32104174D02*
G01*
X59177803Y-32107684D01*
X59201007Y-32113496D01*
X59223529Y-32121554D01*
X59245153Y-32131782D01*
X59265670Y-32144079D01*
X59284883Y-32158329D01*
X59302607Y-32174393D01*
X59318671Y-32192117D01*
X59332921Y-32211330D01*
X59345218Y-32231847D01*
X59355446Y-32253471D01*
X59363504Y-32275993D01*
X59369316Y-32299197D01*
X59372826Y-32322858D01*
X59374000Y-32346750D01*
X59374000Y-32834250D01*
X59372826Y-32858142D01*
X59369316Y-32881803D01*
X59363504Y-32905007D01*
X59355446Y-32927529D01*
X59345218Y-32949153D01*
X59332921Y-32969670D01*
X59318671Y-32988883D01*
X59302607Y-33006607D01*
X59284883Y-33022671D01*
X59265670Y-33036921D01*
X59245153Y-33049218D01*
X59223529Y-33059446D01*
X59201007Y-33067504D01*
X59177803Y-33073316D01*
X59154142Y-33076826D01*
X59130250Y-33078000D01*
X58217750Y-33078000D01*
X58193858Y-33076826D01*
X58170197Y-33073316D01*
X58146993Y-33067504D01*
X58124471Y-33059446D01*
X58102847Y-33049218D01*
X58082330Y-33036921D01*
X58063117Y-33022671D01*
X58045393Y-33006607D01*
X58029329Y-32988883D01*
X58015079Y-32969670D01*
X58002782Y-32949153D01*
X57992554Y-32927529D01*
X57984496Y-32905007D01*
X57978684Y-32881803D01*
X57975174Y-32858142D01*
X57974000Y-32834250D01*
X57974000Y-32346750D01*
X57975174Y-32322858D01*
X57978684Y-32299197D01*
X57984496Y-32275993D01*
X57992554Y-32253471D01*
X58002782Y-32231847D01*
X58015079Y-32211330D01*
X58029329Y-32192117D01*
X58045393Y-32174393D01*
X58063117Y-32158329D01*
X58082330Y-32144079D01*
X58102847Y-32131782D01*
X58124471Y-32121554D01*
X58146993Y-32113496D01*
X58170197Y-32107684D01*
X58193858Y-32104174D01*
X58217750Y-32103000D01*
X59130250Y-32103000D01*
X59154142Y-32104174D01*
X59154142Y-32104174D01*
G37*
D11*
X58674000Y-32590500D03*
D10*
G36*
X59154142Y-33979174D02*
G01*
X59177803Y-33982684D01*
X59201007Y-33988496D01*
X59223529Y-33996554D01*
X59245153Y-34006782D01*
X59265670Y-34019079D01*
X59284883Y-34033329D01*
X59302607Y-34049393D01*
X59318671Y-34067117D01*
X59332921Y-34086330D01*
X59345218Y-34106847D01*
X59355446Y-34128471D01*
X59363504Y-34150993D01*
X59369316Y-34174197D01*
X59372826Y-34197858D01*
X59374000Y-34221750D01*
X59374000Y-34709250D01*
X59372826Y-34733142D01*
X59369316Y-34756803D01*
X59363504Y-34780007D01*
X59355446Y-34802529D01*
X59345218Y-34824153D01*
X59332921Y-34844670D01*
X59318671Y-34863883D01*
X59302607Y-34881607D01*
X59284883Y-34897671D01*
X59265670Y-34911921D01*
X59245153Y-34924218D01*
X59223529Y-34934446D01*
X59201007Y-34942504D01*
X59177803Y-34948316D01*
X59154142Y-34951826D01*
X59130250Y-34953000D01*
X58217750Y-34953000D01*
X58193858Y-34951826D01*
X58170197Y-34948316D01*
X58146993Y-34942504D01*
X58124471Y-34934446D01*
X58102847Y-34924218D01*
X58082330Y-34911921D01*
X58063117Y-34897671D01*
X58045393Y-34881607D01*
X58029329Y-34863883D01*
X58015079Y-34844670D01*
X58002782Y-34824153D01*
X57992554Y-34802529D01*
X57984496Y-34780007D01*
X57978684Y-34756803D01*
X57975174Y-34733142D01*
X57974000Y-34709250D01*
X57974000Y-34221750D01*
X57975174Y-34197858D01*
X57978684Y-34174197D01*
X57984496Y-34150993D01*
X57992554Y-34128471D01*
X58002782Y-34106847D01*
X58015079Y-34086330D01*
X58029329Y-34067117D01*
X58045393Y-34049393D01*
X58063117Y-34033329D01*
X58082330Y-34019079D01*
X58102847Y-34006782D01*
X58124471Y-33996554D01*
X58146993Y-33988496D01*
X58170197Y-33982684D01*
X58193858Y-33979174D01*
X58217750Y-33978000D01*
X59130250Y-33978000D01*
X59154142Y-33979174D01*
X59154142Y-33979174D01*
G37*
D11*
X58674000Y-34465500D03*
D10*
G36*
X56233142Y-35835674D02*
G01*
X56256803Y-35839184D01*
X56280007Y-35844996D01*
X56302529Y-35853054D01*
X56324153Y-35863282D01*
X56344670Y-35875579D01*
X56363883Y-35889829D01*
X56381607Y-35905893D01*
X56397671Y-35923617D01*
X56411921Y-35942830D01*
X56424218Y-35963347D01*
X56434446Y-35984971D01*
X56442504Y-36007493D01*
X56448316Y-36030697D01*
X56451826Y-36054358D01*
X56453000Y-36078250D01*
X56453000Y-36565750D01*
X56451826Y-36589642D01*
X56448316Y-36613303D01*
X56442504Y-36636507D01*
X56434446Y-36659029D01*
X56424218Y-36680653D01*
X56411921Y-36701170D01*
X56397671Y-36720383D01*
X56381607Y-36738107D01*
X56363883Y-36754171D01*
X56344670Y-36768421D01*
X56324153Y-36780718D01*
X56302529Y-36790946D01*
X56280007Y-36799004D01*
X56256803Y-36804816D01*
X56233142Y-36808326D01*
X56209250Y-36809500D01*
X55296750Y-36809500D01*
X55272858Y-36808326D01*
X55249197Y-36804816D01*
X55225993Y-36799004D01*
X55203471Y-36790946D01*
X55181847Y-36780718D01*
X55161330Y-36768421D01*
X55142117Y-36754171D01*
X55124393Y-36738107D01*
X55108329Y-36720383D01*
X55094079Y-36701170D01*
X55081782Y-36680653D01*
X55071554Y-36659029D01*
X55063496Y-36636507D01*
X55057684Y-36613303D01*
X55054174Y-36589642D01*
X55053000Y-36565750D01*
X55053000Y-36078250D01*
X55054174Y-36054358D01*
X55057684Y-36030697D01*
X55063496Y-36007493D01*
X55071554Y-35984971D01*
X55081782Y-35963347D01*
X55094079Y-35942830D01*
X55108329Y-35923617D01*
X55124393Y-35905893D01*
X55142117Y-35889829D01*
X55161330Y-35875579D01*
X55181847Y-35863282D01*
X55203471Y-35853054D01*
X55225993Y-35844996D01*
X55249197Y-35839184D01*
X55272858Y-35835674D01*
X55296750Y-35834500D01*
X56209250Y-35834500D01*
X56233142Y-35835674D01*
X56233142Y-35835674D01*
G37*
D11*
X55753000Y-36322000D03*
D10*
G36*
X56233142Y-37710674D02*
G01*
X56256803Y-37714184D01*
X56280007Y-37719996D01*
X56302529Y-37728054D01*
X56324153Y-37738282D01*
X56344670Y-37750579D01*
X56363883Y-37764829D01*
X56381607Y-37780893D01*
X56397671Y-37798617D01*
X56411921Y-37817830D01*
X56424218Y-37838347D01*
X56434446Y-37859971D01*
X56442504Y-37882493D01*
X56448316Y-37905697D01*
X56451826Y-37929358D01*
X56453000Y-37953250D01*
X56453000Y-38440750D01*
X56451826Y-38464642D01*
X56448316Y-38488303D01*
X56442504Y-38511507D01*
X56434446Y-38534029D01*
X56424218Y-38555653D01*
X56411921Y-38576170D01*
X56397671Y-38595383D01*
X56381607Y-38613107D01*
X56363883Y-38629171D01*
X56344670Y-38643421D01*
X56324153Y-38655718D01*
X56302529Y-38665946D01*
X56280007Y-38674004D01*
X56256803Y-38679816D01*
X56233142Y-38683326D01*
X56209250Y-38684500D01*
X55296750Y-38684500D01*
X55272858Y-38683326D01*
X55249197Y-38679816D01*
X55225993Y-38674004D01*
X55203471Y-38665946D01*
X55181847Y-38655718D01*
X55161330Y-38643421D01*
X55142117Y-38629171D01*
X55124393Y-38613107D01*
X55108329Y-38595383D01*
X55094079Y-38576170D01*
X55081782Y-38555653D01*
X55071554Y-38534029D01*
X55063496Y-38511507D01*
X55057684Y-38488303D01*
X55054174Y-38464642D01*
X55053000Y-38440750D01*
X55053000Y-37953250D01*
X55054174Y-37929358D01*
X55057684Y-37905697D01*
X55063496Y-37882493D01*
X55071554Y-37859971D01*
X55081782Y-37838347D01*
X55094079Y-37817830D01*
X55108329Y-37798617D01*
X55124393Y-37780893D01*
X55142117Y-37764829D01*
X55161330Y-37750579D01*
X55181847Y-37738282D01*
X55203471Y-37728054D01*
X55225993Y-37719996D01*
X55249197Y-37714184D01*
X55272858Y-37710674D01*
X55296750Y-37709500D01*
X56209250Y-37709500D01*
X56233142Y-37710674D01*
X56233142Y-37710674D01*
G37*
D11*
X55753000Y-38197000D03*
D10*
G36*
X56360142Y-40026674D02*
G01*
X56383803Y-40030184D01*
X56407007Y-40035996D01*
X56429529Y-40044054D01*
X56451153Y-40054282D01*
X56471670Y-40066579D01*
X56490883Y-40080829D01*
X56508607Y-40096893D01*
X56524671Y-40114617D01*
X56538921Y-40133830D01*
X56551218Y-40154347D01*
X56561446Y-40175971D01*
X56569504Y-40198493D01*
X56575316Y-40221697D01*
X56578826Y-40245358D01*
X56580000Y-40269250D01*
X56580000Y-40756750D01*
X56578826Y-40780642D01*
X56575316Y-40804303D01*
X56569504Y-40827507D01*
X56561446Y-40850029D01*
X56551218Y-40871653D01*
X56538921Y-40892170D01*
X56524671Y-40911383D01*
X56508607Y-40929107D01*
X56490883Y-40945171D01*
X56471670Y-40959421D01*
X56451153Y-40971718D01*
X56429529Y-40981946D01*
X56407007Y-40990004D01*
X56383803Y-40995816D01*
X56360142Y-40999326D01*
X56336250Y-41000500D01*
X55423750Y-41000500D01*
X55399858Y-40999326D01*
X55376197Y-40995816D01*
X55352993Y-40990004D01*
X55330471Y-40981946D01*
X55308847Y-40971718D01*
X55288330Y-40959421D01*
X55269117Y-40945171D01*
X55251393Y-40929107D01*
X55235329Y-40911383D01*
X55221079Y-40892170D01*
X55208782Y-40871653D01*
X55198554Y-40850029D01*
X55190496Y-40827507D01*
X55184684Y-40804303D01*
X55181174Y-40780642D01*
X55180000Y-40756750D01*
X55180000Y-40269250D01*
X55181174Y-40245358D01*
X55184684Y-40221697D01*
X55190496Y-40198493D01*
X55198554Y-40175971D01*
X55208782Y-40154347D01*
X55221079Y-40133830D01*
X55235329Y-40114617D01*
X55251393Y-40096893D01*
X55269117Y-40080829D01*
X55288330Y-40066579D01*
X55308847Y-40054282D01*
X55330471Y-40044054D01*
X55352993Y-40035996D01*
X55376197Y-40030184D01*
X55399858Y-40026674D01*
X55423750Y-40025500D01*
X56336250Y-40025500D01*
X56360142Y-40026674D01*
X56360142Y-40026674D01*
G37*
D11*
X55880000Y-40513000D03*
D10*
G36*
X56360142Y-41901674D02*
G01*
X56383803Y-41905184D01*
X56407007Y-41910996D01*
X56429529Y-41919054D01*
X56451153Y-41929282D01*
X56471670Y-41941579D01*
X56490883Y-41955829D01*
X56508607Y-41971893D01*
X56524671Y-41989617D01*
X56538921Y-42008830D01*
X56551218Y-42029347D01*
X56561446Y-42050971D01*
X56569504Y-42073493D01*
X56575316Y-42096697D01*
X56578826Y-42120358D01*
X56580000Y-42144250D01*
X56580000Y-42631750D01*
X56578826Y-42655642D01*
X56575316Y-42679303D01*
X56569504Y-42702507D01*
X56561446Y-42725029D01*
X56551218Y-42746653D01*
X56538921Y-42767170D01*
X56524671Y-42786383D01*
X56508607Y-42804107D01*
X56490883Y-42820171D01*
X56471670Y-42834421D01*
X56451153Y-42846718D01*
X56429529Y-42856946D01*
X56407007Y-42865004D01*
X56383803Y-42870816D01*
X56360142Y-42874326D01*
X56336250Y-42875500D01*
X55423750Y-42875500D01*
X55399858Y-42874326D01*
X55376197Y-42870816D01*
X55352993Y-42865004D01*
X55330471Y-42856946D01*
X55308847Y-42846718D01*
X55288330Y-42834421D01*
X55269117Y-42820171D01*
X55251393Y-42804107D01*
X55235329Y-42786383D01*
X55221079Y-42767170D01*
X55208782Y-42746653D01*
X55198554Y-42725029D01*
X55190496Y-42702507D01*
X55184684Y-42679303D01*
X55181174Y-42655642D01*
X55180000Y-42631750D01*
X55180000Y-42144250D01*
X55181174Y-42120358D01*
X55184684Y-42096697D01*
X55190496Y-42073493D01*
X55198554Y-42050971D01*
X55208782Y-42029347D01*
X55221079Y-42008830D01*
X55235329Y-41989617D01*
X55251393Y-41971893D01*
X55269117Y-41955829D01*
X55288330Y-41941579D01*
X55308847Y-41929282D01*
X55330471Y-41919054D01*
X55352993Y-41910996D01*
X55376197Y-41905184D01*
X55399858Y-41901674D01*
X55423750Y-41900500D01*
X56336250Y-41900500D01*
X56360142Y-41901674D01*
X56360142Y-41901674D01*
G37*
D11*
X55880000Y-42388000D03*
D10*
G36*
X55852142Y-59663174D02*
G01*
X55875803Y-59666684D01*
X55899007Y-59672496D01*
X55921529Y-59680554D01*
X55943153Y-59690782D01*
X55963670Y-59703079D01*
X55982883Y-59717329D01*
X56000607Y-59733393D01*
X56016671Y-59751117D01*
X56030921Y-59770330D01*
X56043218Y-59790847D01*
X56053446Y-59812471D01*
X56061504Y-59834993D01*
X56067316Y-59858197D01*
X56070826Y-59881858D01*
X56072000Y-59905750D01*
X56072000Y-60393250D01*
X56070826Y-60417142D01*
X56067316Y-60440803D01*
X56061504Y-60464007D01*
X56053446Y-60486529D01*
X56043218Y-60508153D01*
X56030921Y-60528670D01*
X56016671Y-60547883D01*
X56000607Y-60565607D01*
X55982883Y-60581671D01*
X55963670Y-60595921D01*
X55943153Y-60608218D01*
X55921529Y-60618446D01*
X55899007Y-60626504D01*
X55875803Y-60632316D01*
X55852142Y-60635826D01*
X55828250Y-60637000D01*
X54915750Y-60637000D01*
X54891858Y-60635826D01*
X54868197Y-60632316D01*
X54844993Y-60626504D01*
X54822471Y-60618446D01*
X54800847Y-60608218D01*
X54780330Y-60595921D01*
X54761117Y-60581671D01*
X54743393Y-60565607D01*
X54727329Y-60547883D01*
X54713079Y-60528670D01*
X54700782Y-60508153D01*
X54690554Y-60486529D01*
X54682496Y-60464007D01*
X54676684Y-60440803D01*
X54673174Y-60417142D01*
X54672000Y-60393250D01*
X54672000Y-59905750D01*
X54673174Y-59881858D01*
X54676684Y-59858197D01*
X54682496Y-59834993D01*
X54690554Y-59812471D01*
X54700782Y-59790847D01*
X54713079Y-59770330D01*
X54727329Y-59751117D01*
X54743393Y-59733393D01*
X54761117Y-59717329D01*
X54780330Y-59703079D01*
X54800847Y-59690782D01*
X54822471Y-59680554D01*
X54844993Y-59672496D01*
X54868197Y-59666684D01*
X54891858Y-59663174D01*
X54915750Y-59662000D01*
X55828250Y-59662000D01*
X55852142Y-59663174D01*
X55852142Y-59663174D01*
G37*
D11*
X55372000Y-60149500D03*
D10*
G36*
X55852142Y-61538174D02*
G01*
X55875803Y-61541684D01*
X55899007Y-61547496D01*
X55921529Y-61555554D01*
X55943153Y-61565782D01*
X55963670Y-61578079D01*
X55982883Y-61592329D01*
X56000607Y-61608393D01*
X56016671Y-61626117D01*
X56030921Y-61645330D01*
X56043218Y-61665847D01*
X56053446Y-61687471D01*
X56061504Y-61709993D01*
X56067316Y-61733197D01*
X56070826Y-61756858D01*
X56072000Y-61780750D01*
X56072000Y-62268250D01*
X56070826Y-62292142D01*
X56067316Y-62315803D01*
X56061504Y-62339007D01*
X56053446Y-62361529D01*
X56043218Y-62383153D01*
X56030921Y-62403670D01*
X56016671Y-62422883D01*
X56000607Y-62440607D01*
X55982883Y-62456671D01*
X55963670Y-62470921D01*
X55943153Y-62483218D01*
X55921529Y-62493446D01*
X55899007Y-62501504D01*
X55875803Y-62507316D01*
X55852142Y-62510826D01*
X55828250Y-62512000D01*
X54915750Y-62512000D01*
X54891858Y-62510826D01*
X54868197Y-62507316D01*
X54844993Y-62501504D01*
X54822471Y-62493446D01*
X54800847Y-62483218D01*
X54780330Y-62470921D01*
X54761117Y-62456671D01*
X54743393Y-62440607D01*
X54727329Y-62422883D01*
X54713079Y-62403670D01*
X54700782Y-62383153D01*
X54690554Y-62361529D01*
X54682496Y-62339007D01*
X54676684Y-62315803D01*
X54673174Y-62292142D01*
X54672000Y-62268250D01*
X54672000Y-61780750D01*
X54673174Y-61756858D01*
X54676684Y-61733197D01*
X54682496Y-61709993D01*
X54690554Y-61687471D01*
X54700782Y-61665847D01*
X54713079Y-61645330D01*
X54727329Y-61626117D01*
X54743393Y-61608393D01*
X54761117Y-61592329D01*
X54780330Y-61578079D01*
X54800847Y-61565782D01*
X54822471Y-61555554D01*
X54844993Y-61547496D01*
X54868197Y-61541684D01*
X54891858Y-61538174D01*
X54915750Y-61537000D01*
X55828250Y-61537000D01*
X55852142Y-61538174D01*
X55852142Y-61538174D01*
G37*
D11*
X55372000Y-62024500D03*
D10*
G36*
X57290642Y-66992174D02*
G01*
X57314303Y-66995684D01*
X57337507Y-67001496D01*
X57360029Y-67009554D01*
X57381653Y-67019782D01*
X57402170Y-67032079D01*
X57421383Y-67046329D01*
X57439107Y-67062393D01*
X57455171Y-67080117D01*
X57469421Y-67099330D01*
X57481718Y-67119847D01*
X57491946Y-67141471D01*
X57500004Y-67163993D01*
X57505816Y-67187197D01*
X57509326Y-67210858D01*
X57510500Y-67234750D01*
X57510500Y-68147250D01*
X57509326Y-68171142D01*
X57505816Y-68194803D01*
X57500004Y-68218007D01*
X57491946Y-68240529D01*
X57481718Y-68262153D01*
X57469421Y-68282670D01*
X57455171Y-68301883D01*
X57439107Y-68319607D01*
X57421383Y-68335671D01*
X57402170Y-68349921D01*
X57381653Y-68362218D01*
X57360029Y-68372446D01*
X57337507Y-68380504D01*
X57314303Y-68386316D01*
X57290642Y-68389826D01*
X57266750Y-68391000D01*
X56779250Y-68391000D01*
X56755358Y-68389826D01*
X56731697Y-68386316D01*
X56708493Y-68380504D01*
X56685971Y-68372446D01*
X56664347Y-68362218D01*
X56643830Y-68349921D01*
X56624617Y-68335671D01*
X56606893Y-68319607D01*
X56590829Y-68301883D01*
X56576579Y-68282670D01*
X56564282Y-68262153D01*
X56554054Y-68240529D01*
X56545996Y-68218007D01*
X56540184Y-68194803D01*
X56536674Y-68171142D01*
X56535500Y-68147250D01*
X56535500Y-67234750D01*
X56536674Y-67210858D01*
X56540184Y-67187197D01*
X56545996Y-67163993D01*
X56554054Y-67141471D01*
X56564282Y-67119847D01*
X56576579Y-67099330D01*
X56590829Y-67080117D01*
X56606893Y-67062393D01*
X56624617Y-67046329D01*
X56643830Y-67032079D01*
X56664347Y-67019782D01*
X56685971Y-67009554D01*
X56708493Y-67001496D01*
X56731697Y-66995684D01*
X56755358Y-66992174D01*
X56779250Y-66991000D01*
X57266750Y-66991000D01*
X57290642Y-66992174D01*
X57290642Y-66992174D01*
G37*
D11*
X57023000Y-67691000D03*
D10*
G36*
X55415642Y-66992174D02*
G01*
X55439303Y-66995684D01*
X55462507Y-67001496D01*
X55485029Y-67009554D01*
X55506653Y-67019782D01*
X55527170Y-67032079D01*
X55546383Y-67046329D01*
X55564107Y-67062393D01*
X55580171Y-67080117D01*
X55594421Y-67099330D01*
X55606718Y-67119847D01*
X55616946Y-67141471D01*
X55625004Y-67163993D01*
X55630816Y-67187197D01*
X55634326Y-67210858D01*
X55635500Y-67234750D01*
X55635500Y-68147250D01*
X55634326Y-68171142D01*
X55630816Y-68194803D01*
X55625004Y-68218007D01*
X55616946Y-68240529D01*
X55606718Y-68262153D01*
X55594421Y-68282670D01*
X55580171Y-68301883D01*
X55564107Y-68319607D01*
X55546383Y-68335671D01*
X55527170Y-68349921D01*
X55506653Y-68362218D01*
X55485029Y-68372446D01*
X55462507Y-68380504D01*
X55439303Y-68386316D01*
X55415642Y-68389826D01*
X55391750Y-68391000D01*
X54904250Y-68391000D01*
X54880358Y-68389826D01*
X54856697Y-68386316D01*
X54833493Y-68380504D01*
X54810971Y-68372446D01*
X54789347Y-68362218D01*
X54768830Y-68349921D01*
X54749617Y-68335671D01*
X54731893Y-68319607D01*
X54715829Y-68301883D01*
X54701579Y-68282670D01*
X54689282Y-68262153D01*
X54679054Y-68240529D01*
X54670996Y-68218007D01*
X54665184Y-68194803D01*
X54661674Y-68171142D01*
X54660500Y-68147250D01*
X54660500Y-67234750D01*
X54661674Y-67210858D01*
X54665184Y-67187197D01*
X54670996Y-67163993D01*
X54679054Y-67141471D01*
X54689282Y-67119847D01*
X54701579Y-67099330D01*
X54715829Y-67080117D01*
X54731893Y-67062393D01*
X54749617Y-67046329D01*
X54768830Y-67032079D01*
X54789347Y-67019782D01*
X54810971Y-67009554D01*
X54833493Y-67001496D01*
X54856697Y-66995684D01*
X54880358Y-66992174D01*
X54904250Y-66991000D01*
X55391750Y-66991000D01*
X55415642Y-66992174D01*
X55415642Y-66992174D01*
G37*
D11*
X55148000Y-67691000D03*
D10*
G36*
X57249142Y-49043674D02*
G01*
X57272803Y-49047184D01*
X57296007Y-49052996D01*
X57318529Y-49061054D01*
X57340153Y-49071282D01*
X57360670Y-49083579D01*
X57379883Y-49097829D01*
X57397607Y-49113893D01*
X57413671Y-49131617D01*
X57427921Y-49150830D01*
X57440218Y-49171347D01*
X57450446Y-49192971D01*
X57458504Y-49215493D01*
X57464316Y-49238697D01*
X57467826Y-49262358D01*
X57469000Y-49286250D01*
X57469000Y-49773750D01*
X57467826Y-49797642D01*
X57464316Y-49821303D01*
X57458504Y-49844507D01*
X57450446Y-49867029D01*
X57440218Y-49888653D01*
X57427921Y-49909170D01*
X57413671Y-49928383D01*
X57397607Y-49946107D01*
X57379883Y-49962171D01*
X57360670Y-49976421D01*
X57340153Y-49988718D01*
X57318529Y-49998946D01*
X57296007Y-50007004D01*
X57272803Y-50012816D01*
X57249142Y-50016326D01*
X57225250Y-50017500D01*
X56312750Y-50017500D01*
X56288858Y-50016326D01*
X56265197Y-50012816D01*
X56241993Y-50007004D01*
X56219471Y-49998946D01*
X56197847Y-49988718D01*
X56177330Y-49976421D01*
X56158117Y-49962171D01*
X56140393Y-49946107D01*
X56124329Y-49928383D01*
X56110079Y-49909170D01*
X56097782Y-49888653D01*
X56087554Y-49867029D01*
X56079496Y-49844507D01*
X56073684Y-49821303D01*
X56070174Y-49797642D01*
X56069000Y-49773750D01*
X56069000Y-49286250D01*
X56070174Y-49262358D01*
X56073684Y-49238697D01*
X56079496Y-49215493D01*
X56087554Y-49192971D01*
X56097782Y-49171347D01*
X56110079Y-49150830D01*
X56124329Y-49131617D01*
X56140393Y-49113893D01*
X56158117Y-49097829D01*
X56177330Y-49083579D01*
X56197847Y-49071282D01*
X56219471Y-49061054D01*
X56241993Y-49052996D01*
X56265197Y-49047184D01*
X56288858Y-49043674D01*
X56312750Y-49042500D01*
X57225250Y-49042500D01*
X57249142Y-49043674D01*
X57249142Y-49043674D01*
G37*
D11*
X56769000Y-49530000D03*
D10*
G36*
X57249142Y-47168674D02*
G01*
X57272803Y-47172184D01*
X57296007Y-47177996D01*
X57318529Y-47186054D01*
X57340153Y-47196282D01*
X57360670Y-47208579D01*
X57379883Y-47222829D01*
X57397607Y-47238893D01*
X57413671Y-47256617D01*
X57427921Y-47275830D01*
X57440218Y-47296347D01*
X57450446Y-47317971D01*
X57458504Y-47340493D01*
X57464316Y-47363697D01*
X57467826Y-47387358D01*
X57469000Y-47411250D01*
X57469000Y-47898750D01*
X57467826Y-47922642D01*
X57464316Y-47946303D01*
X57458504Y-47969507D01*
X57450446Y-47992029D01*
X57440218Y-48013653D01*
X57427921Y-48034170D01*
X57413671Y-48053383D01*
X57397607Y-48071107D01*
X57379883Y-48087171D01*
X57360670Y-48101421D01*
X57340153Y-48113718D01*
X57318529Y-48123946D01*
X57296007Y-48132004D01*
X57272803Y-48137816D01*
X57249142Y-48141326D01*
X57225250Y-48142500D01*
X56312750Y-48142500D01*
X56288858Y-48141326D01*
X56265197Y-48137816D01*
X56241993Y-48132004D01*
X56219471Y-48123946D01*
X56197847Y-48113718D01*
X56177330Y-48101421D01*
X56158117Y-48087171D01*
X56140393Y-48071107D01*
X56124329Y-48053383D01*
X56110079Y-48034170D01*
X56097782Y-48013653D01*
X56087554Y-47992029D01*
X56079496Y-47969507D01*
X56073684Y-47946303D01*
X56070174Y-47922642D01*
X56069000Y-47898750D01*
X56069000Y-47411250D01*
X56070174Y-47387358D01*
X56073684Y-47363697D01*
X56079496Y-47340493D01*
X56087554Y-47317971D01*
X56097782Y-47296347D01*
X56110079Y-47275830D01*
X56124329Y-47256617D01*
X56140393Y-47238893D01*
X56158117Y-47222829D01*
X56177330Y-47208579D01*
X56197847Y-47196282D01*
X56219471Y-47186054D01*
X56241993Y-47177996D01*
X56265197Y-47172184D01*
X56288858Y-47168674D01*
X56312750Y-47167500D01*
X57225250Y-47167500D01*
X57249142Y-47168674D01*
X57249142Y-47168674D01*
G37*
D11*
X56769000Y-47655000D03*
D10*
G36*
X57884142Y-59663174D02*
G01*
X57907803Y-59666684D01*
X57931007Y-59672496D01*
X57953529Y-59680554D01*
X57975153Y-59690782D01*
X57995670Y-59703079D01*
X58014883Y-59717329D01*
X58032607Y-59733393D01*
X58048671Y-59751117D01*
X58062921Y-59770330D01*
X58075218Y-59790847D01*
X58085446Y-59812471D01*
X58093504Y-59834993D01*
X58099316Y-59858197D01*
X58102826Y-59881858D01*
X58104000Y-59905750D01*
X58104000Y-60393250D01*
X58102826Y-60417142D01*
X58099316Y-60440803D01*
X58093504Y-60464007D01*
X58085446Y-60486529D01*
X58075218Y-60508153D01*
X58062921Y-60528670D01*
X58048671Y-60547883D01*
X58032607Y-60565607D01*
X58014883Y-60581671D01*
X57995670Y-60595921D01*
X57975153Y-60608218D01*
X57953529Y-60618446D01*
X57931007Y-60626504D01*
X57907803Y-60632316D01*
X57884142Y-60635826D01*
X57860250Y-60637000D01*
X56947750Y-60637000D01*
X56923858Y-60635826D01*
X56900197Y-60632316D01*
X56876993Y-60626504D01*
X56854471Y-60618446D01*
X56832847Y-60608218D01*
X56812330Y-60595921D01*
X56793117Y-60581671D01*
X56775393Y-60565607D01*
X56759329Y-60547883D01*
X56745079Y-60528670D01*
X56732782Y-60508153D01*
X56722554Y-60486529D01*
X56714496Y-60464007D01*
X56708684Y-60440803D01*
X56705174Y-60417142D01*
X56704000Y-60393250D01*
X56704000Y-59905750D01*
X56705174Y-59881858D01*
X56708684Y-59858197D01*
X56714496Y-59834993D01*
X56722554Y-59812471D01*
X56732782Y-59790847D01*
X56745079Y-59770330D01*
X56759329Y-59751117D01*
X56775393Y-59733393D01*
X56793117Y-59717329D01*
X56812330Y-59703079D01*
X56832847Y-59690782D01*
X56854471Y-59680554D01*
X56876993Y-59672496D01*
X56900197Y-59666684D01*
X56923858Y-59663174D01*
X56947750Y-59662000D01*
X57860250Y-59662000D01*
X57884142Y-59663174D01*
X57884142Y-59663174D01*
G37*
D11*
X57404000Y-60149500D03*
D10*
G36*
X57884142Y-61538174D02*
G01*
X57907803Y-61541684D01*
X57931007Y-61547496D01*
X57953529Y-61555554D01*
X57975153Y-61565782D01*
X57995670Y-61578079D01*
X58014883Y-61592329D01*
X58032607Y-61608393D01*
X58048671Y-61626117D01*
X58062921Y-61645330D01*
X58075218Y-61665847D01*
X58085446Y-61687471D01*
X58093504Y-61709993D01*
X58099316Y-61733197D01*
X58102826Y-61756858D01*
X58104000Y-61780750D01*
X58104000Y-62268250D01*
X58102826Y-62292142D01*
X58099316Y-62315803D01*
X58093504Y-62339007D01*
X58085446Y-62361529D01*
X58075218Y-62383153D01*
X58062921Y-62403670D01*
X58048671Y-62422883D01*
X58032607Y-62440607D01*
X58014883Y-62456671D01*
X57995670Y-62470921D01*
X57975153Y-62483218D01*
X57953529Y-62493446D01*
X57931007Y-62501504D01*
X57907803Y-62507316D01*
X57884142Y-62510826D01*
X57860250Y-62512000D01*
X56947750Y-62512000D01*
X56923858Y-62510826D01*
X56900197Y-62507316D01*
X56876993Y-62501504D01*
X56854471Y-62493446D01*
X56832847Y-62483218D01*
X56812330Y-62470921D01*
X56793117Y-62456671D01*
X56775393Y-62440607D01*
X56759329Y-62422883D01*
X56745079Y-62403670D01*
X56732782Y-62383153D01*
X56722554Y-62361529D01*
X56714496Y-62339007D01*
X56708684Y-62315803D01*
X56705174Y-62292142D01*
X56704000Y-62268250D01*
X56704000Y-61780750D01*
X56705174Y-61756858D01*
X56708684Y-61733197D01*
X56714496Y-61709993D01*
X56722554Y-61687471D01*
X56732782Y-61665847D01*
X56745079Y-61645330D01*
X56759329Y-61626117D01*
X56775393Y-61608393D01*
X56793117Y-61592329D01*
X56812330Y-61578079D01*
X56832847Y-61565782D01*
X56854471Y-61555554D01*
X56876993Y-61547496D01*
X56900197Y-61541684D01*
X56923858Y-61538174D01*
X56947750Y-61537000D01*
X57860250Y-61537000D01*
X57884142Y-61538174D01*
X57884142Y-61538174D01*
G37*
D11*
X57404000Y-62024500D03*
D10*
G36*
X55979142Y-55061174D02*
G01*
X56002803Y-55064684D01*
X56026007Y-55070496D01*
X56048529Y-55078554D01*
X56070153Y-55088782D01*
X56090670Y-55101079D01*
X56109883Y-55115329D01*
X56127607Y-55131393D01*
X56143671Y-55149117D01*
X56157921Y-55168330D01*
X56170218Y-55188847D01*
X56180446Y-55210471D01*
X56188504Y-55232993D01*
X56194316Y-55256197D01*
X56197826Y-55279858D01*
X56199000Y-55303750D01*
X56199000Y-55791250D01*
X56197826Y-55815142D01*
X56194316Y-55838803D01*
X56188504Y-55862007D01*
X56180446Y-55884529D01*
X56170218Y-55906153D01*
X56157921Y-55926670D01*
X56143671Y-55945883D01*
X56127607Y-55963607D01*
X56109883Y-55979671D01*
X56090670Y-55993921D01*
X56070153Y-56006218D01*
X56048529Y-56016446D01*
X56026007Y-56024504D01*
X56002803Y-56030316D01*
X55979142Y-56033826D01*
X55955250Y-56035000D01*
X55042750Y-56035000D01*
X55018858Y-56033826D01*
X54995197Y-56030316D01*
X54971993Y-56024504D01*
X54949471Y-56016446D01*
X54927847Y-56006218D01*
X54907330Y-55993921D01*
X54888117Y-55979671D01*
X54870393Y-55963607D01*
X54854329Y-55945883D01*
X54840079Y-55926670D01*
X54827782Y-55906153D01*
X54817554Y-55884529D01*
X54809496Y-55862007D01*
X54803684Y-55838803D01*
X54800174Y-55815142D01*
X54799000Y-55791250D01*
X54799000Y-55303750D01*
X54800174Y-55279858D01*
X54803684Y-55256197D01*
X54809496Y-55232993D01*
X54817554Y-55210471D01*
X54827782Y-55188847D01*
X54840079Y-55168330D01*
X54854329Y-55149117D01*
X54870393Y-55131393D01*
X54888117Y-55115329D01*
X54907330Y-55101079D01*
X54927847Y-55088782D01*
X54949471Y-55078554D01*
X54971993Y-55070496D01*
X54995197Y-55064684D01*
X55018858Y-55061174D01*
X55042750Y-55060000D01*
X55955250Y-55060000D01*
X55979142Y-55061174D01*
X55979142Y-55061174D01*
G37*
D11*
X55499000Y-55547500D03*
D10*
G36*
X55979142Y-53186174D02*
G01*
X56002803Y-53189684D01*
X56026007Y-53195496D01*
X56048529Y-53203554D01*
X56070153Y-53213782D01*
X56090670Y-53226079D01*
X56109883Y-53240329D01*
X56127607Y-53256393D01*
X56143671Y-53274117D01*
X56157921Y-53293330D01*
X56170218Y-53313847D01*
X56180446Y-53335471D01*
X56188504Y-53357993D01*
X56194316Y-53381197D01*
X56197826Y-53404858D01*
X56199000Y-53428750D01*
X56199000Y-53916250D01*
X56197826Y-53940142D01*
X56194316Y-53963803D01*
X56188504Y-53987007D01*
X56180446Y-54009529D01*
X56170218Y-54031153D01*
X56157921Y-54051670D01*
X56143671Y-54070883D01*
X56127607Y-54088607D01*
X56109883Y-54104671D01*
X56090670Y-54118921D01*
X56070153Y-54131218D01*
X56048529Y-54141446D01*
X56026007Y-54149504D01*
X56002803Y-54155316D01*
X55979142Y-54158826D01*
X55955250Y-54160000D01*
X55042750Y-54160000D01*
X55018858Y-54158826D01*
X54995197Y-54155316D01*
X54971993Y-54149504D01*
X54949471Y-54141446D01*
X54927847Y-54131218D01*
X54907330Y-54118921D01*
X54888117Y-54104671D01*
X54870393Y-54088607D01*
X54854329Y-54070883D01*
X54840079Y-54051670D01*
X54827782Y-54031153D01*
X54817554Y-54009529D01*
X54809496Y-53987007D01*
X54803684Y-53963803D01*
X54800174Y-53940142D01*
X54799000Y-53916250D01*
X54799000Y-53428750D01*
X54800174Y-53404858D01*
X54803684Y-53381197D01*
X54809496Y-53357993D01*
X54817554Y-53335471D01*
X54827782Y-53313847D01*
X54840079Y-53293330D01*
X54854329Y-53274117D01*
X54870393Y-53256393D01*
X54888117Y-53240329D01*
X54907330Y-53226079D01*
X54927847Y-53213782D01*
X54949471Y-53203554D01*
X54971993Y-53195496D01*
X54995197Y-53189684D01*
X55018858Y-53186174D01*
X55042750Y-53185000D01*
X55955250Y-53185000D01*
X55979142Y-53186174D01*
X55979142Y-53186174D01*
G37*
D11*
X55499000Y-53672500D03*
D10*
G36*
X58336642Y-80327174D02*
G01*
X58360303Y-80330684D01*
X58383507Y-80336496D01*
X58406029Y-80344554D01*
X58427653Y-80354782D01*
X58448170Y-80367079D01*
X58467383Y-80381329D01*
X58485107Y-80397393D01*
X58501171Y-80415117D01*
X58515421Y-80434330D01*
X58527718Y-80454847D01*
X58537946Y-80476471D01*
X58546004Y-80498993D01*
X58551816Y-80522197D01*
X58555326Y-80545858D01*
X58556500Y-80569750D01*
X58556500Y-81482250D01*
X58555326Y-81506142D01*
X58551816Y-81529803D01*
X58546004Y-81553007D01*
X58537946Y-81575529D01*
X58527718Y-81597153D01*
X58515421Y-81617670D01*
X58501171Y-81636883D01*
X58485107Y-81654607D01*
X58467383Y-81670671D01*
X58448170Y-81684921D01*
X58427653Y-81697218D01*
X58406029Y-81707446D01*
X58383507Y-81715504D01*
X58360303Y-81721316D01*
X58336642Y-81724826D01*
X58312750Y-81726000D01*
X57825250Y-81726000D01*
X57801358Y-81724826D01*
X57777697Y-81721316D01*
X57754493Y-81715504D01*
X57731971Y-81707446D01*
X57710347Y-81697218D01*
X57689830Y-81684921D01*
X57670617Y-81670671D01*
X57652893Y-81654607D01*
X57636829Y-81636883D01*
X57622579Y-81617670D01*
X57610282Y-81597153D01*
X57600054Y-81575529D01*
X57591996Y-81553007D01*
X57586184Y-81529803D01*
X57582674Y-81506142D01*
X57581500Y-81482250D01*
X57581500Y-80569750D01*
X57582674Y-80545858D01*
X57586184Y-80522197D01*
X57591996Y-80498993D01*
X57600054Y-80476471D01*
X57610282Y-80454847D01*
X57622579Y-80434330D01*
X57636829Y-80415117D01*
X57652893Y-80397393D01*
X57670617Y-80381329D01*
X57689830Y-80367079D01*
X57710347Y-80354782D01*
X57731971Y-80344554D01*
X57754493Y-80336496D01*
X57777697Y-80330684D01*
X57801358Y-80327174D01*
X57825250Y-80326000D01*
X58312750Y-80326000D01*
X58336642Y-80327174D01*
X58336642Y-80327174D01*
G37*
D11*
X58069000Y-81026000D03*
D10*
G36*
X60211642Y-80327174D02*
G01*
X60235303Y-80330684D01*
X60258507Y-80336496D01*
X60281029Y-80344554D01*
X60302653Y-80354782D01*
X60323170Y-80367079D01*
X60342383Y-80381329D01*
X60360107Y-80397393D01*
X60376171Y-80415117D01*
X60390421Y-80434330D01*
X60402718Y-80454847D01*
X60412946Y-80476471D01*
X60421004Y-80498993D01*
X60426816Y-80522197D01*
X60430326Y-80545858D01*
X60431500Y-80569750D01*
X60431500Y-81482250D01*
X60430326Y-81506142D01*
X60426816Y-81529803D01*
X60421004Y-81553007D01*
X60412946Y-81575529D01*
X60402718Y-81597153D01*
X60390421Y-81617670D01*
X60376171Y-81636883D01*
X60360107Y-81654607D01*
X60342383Y-81670671D01*
X60323170Y-81684921D01*
X60302653Y-81697218D01*
X60281029Y-81707446D01*
X60258507Y-81715504D01*
X60235303Y-81721316D01*
X60211642Y-81724826D01*
X60187750Y-81726000D01*
X59700250Y-81726000D01*
X59676358Y-81724826D01*
X59652697Y-81721316D01*
X59629493Y-81715504D01*
X59606971Y-81707446D01*
X59585347Y-81697218D01*
X59564830Y-81684921D01*
X59545617Y-81670671D01*
X59527893Y-81654607D01*
X59511829Y-81636883D01*
X59497579Y-81617670D01*
X59485282Y-81597153D01*
X59475054Y-81575529D01*
X59466996Y-81553007D01*
X59461184Y-81529803D01*
X59457674Y-81506142D01*
X59456500Y-81482250D01*
X59456500Y-80569750D01*
X59457674Y-80545858D01*
X59461184Y-80522197D01*
X59466996Y-80498993D01*
X59475054Y-80476471D01*
X59485282Y-80454847D01*
X59497579Y-80434330D01*
X59511829Y-80415117D01*
X59527893Y-80397393D01*
X59545617Y-80381329D01*
X59564830Y-80367079D01*
X59585347Y-80354782D01*
X59606971Y-80344554D01*
X59629493Y-80336496D01*
X59652697Y-80330684D01*
X59676358Y-80327174D01*
X59700250Y-80326000D01*
X60187750Y-80326000D01*
X60211642Y-80327174D01*
X60211642Y-80327174D01*
G37*
D11*
X59944000Y-81026000D03*
D10*
G36*
X60211642Y-78041174D02*
G01*
X60235303Y-78044684D01*
X60258507Y-78050496D01*
X60281029Y-78058554D01*
X60302653Y-78068782D01*
X60323170Y-78081079D01*
X60342383Y-78095329D01*
X60360107Y-78111393D01*
X60376171Y-78129117D01*
X60390421Y-78148330D01*
X60402718Y-78168847D01*
X60412946Y-78190471D01*
X60421004Y-78212993D01*
X60426816Y-78236197D01*
X60430326Y-78259858D01*
X60431500Y-78283750D01*
X60431500Y-79196250D01*
X60430326Y-79220142D01*
X60426816Y-79243803D01*
X60421004Y-79267007D01*
X60412946Y-79289529D01*
X60402718Y-79311153D01*
X60390421Y-79331670D01*
X60376171Y-79350883D01*
X60360107Y-79368607D01*
X60342383Y-79384671D01*
X60323170Y-79398921D01*
X60302653Y-79411218D01*
X60281029Y-79421446D01*
X60258507Y-79429504D01*
X60235303Y-79435316D01*
X60211642Y-79438826D01*
X60187750Y-79440000D01*
X59700250Y-79440000D01*
X59676358Y-79438826D01*
X59652697Y-79435316D01*
X59629493Y-79429504D01*
X59606971Y-79421446D01*
X59585347Y-79411218D01*
X59564830Y-79398921D01*
X59545617Y-79384671D01*
X59527893Y-79368607D01*
X59511829Y-79350883D01*
X59497579Y-79331670D01*
X59485282Y-79311153D01*
X59475054Y-79289529D01*
X59466996Y-79267007D01*
X59461184Y-79243803D01*
X59457674Y-79220142D01*
X59456500Y-79196250D01*
X59456500Y-78283750D01*
X59457674Y-78259858D01*
X59461184Y-78236197D01*
X59466996Y-78212993D01*
X59475054Y-78190471D01*
X59485282Y-78168847D01*
X59497579Y-78148330D01*
X59511829Y-78129117D01*
X59527893Y-78111393D01*
X59545617Y-78095329D01*
X59564830Y-78081079D01*
X59585347Y-78068782D01*
X59606971Y-78058554D01*
X59629493Y-78050496D01*
X59652697Y-78044684D01*
X59676358Y-78041174D01*
X59700250Y-78040000D01*
X60187750Y-78040000D01*
X60211642Y-78041174D01*
X60211642Y-78041174D01*
G37*
D11*
X59944000Y-78740000D03*
D10*
G36*
X58336642Y-78041174D02*
G01*
X58360303Y-78044684D01*
X58383507Y-78050496D01*
X58406029Y-78058554D01*
X58427653Y-78068782D01*
X58448170Y-78081079D01*
X58467383Y-78095329D01*
X58485107Y-78111393D01*
X58501171Y-78129117D01*
X58515421Y-78148330D01*
X58527718Y-78168847D01*
X58537946Y-78190471D01*
X58546004Y-78212993D01*
X58551816Y-78236197D01*
X58555326Y-78259858D01*
X58556500Y-78283750D01*
X58556500Y-79196250D01*
X58555326Y-79220142D01*
X58551816Y-79243803D01*
X58546004Y-79267007D01*
X58537946Y-79289529D01*
X58527718Y-79311153D01*
X58515421Y-79331670D01*
X58501171Y-79350883D01*
X58485107Y-79368607D01*
X58467383Y-79384671D01*
X58448170Y-79398921D01*
X58427653Y-79411218D01*
X58406029Y-79421446D01*
X58383507Y-79429504D01*
X58360303Y-79435316D01*
X58336642Y-79438826D01*
X58312750Y-79440000D01*
X57825250Y-79440000D01*
X57801358Y-79438826D01*
X57777697Y-79435316D01*
X57754493Y-79429504D01*
X57731971Y-79421446D01*
X57710347Y-79411218D01*
X57689830Y-79398921D01*
X57670617Y-79384671D01*
X57652893Y-79368607D01*
X57636829Y-79350883D01*
X57622579Y-79331670D01*
X57610282Y-79311153D01*
X57600054Y-79289529D01*
X57591996Y-79267007D01*
X57586184Y-79243803D01*
X57582674Y-79220142D01*
X57581500Y-79196250D01*
X57581500Y-78283750D01*
X57582674Y-78259858D01*
X57586184Y-78236197D01*
X57591996Y-78212993D01*
X57600054Y-78190471D01*
X57610282Y-78168847D01*
X57622579Y-78148330D01*
X57636829Y-78129117D01*
X57652893Y-78111393D01*
X57670617Y-78095329D01*
X57689830Y-78081079D01*
X57710347Y-78068782D01*
X57731971Y-78058554D01*
X57754493Y-78050496D01*
X57777697Y-78044684D01*
X57801358Y-78041174D01*
X57825250Y-78040000D01*
X58312750Y-78040000D01*
X58336642Y-78041174D01*
X58336642Y-78041174D01*
G37*
D11*
X58069000Y-78740000D03*
D10*
G36*
X66266142Y-47900674D02*
G01*
X66289803Y-47904184D01*
X66313007Y-47909996D01*
X66335529Y-47918054D01*
X66357153Y-47928282D01*
X66377670Y-47940579D01*
X66396883Y-47954829D01*
X66414607Y-47970893D01*
X66430671Y-47988617D01*
X66444921Y-48007830D01*
X66457218Y-48028347D01*
X66467446Y-48049971D01*
X66475504Y-48072493D01*
X66481316Y-48095697D01*
X66484826Y-48119358D01*
X66486000Y-48143250D01*
X66486000Y-48630750D01*
X66484826Y-48654642D01*
X66481316Y-48678303D01*
X66475504Y-48701507D01*
X66467446Y-48724029D01*
X66457218Y-48745653D01*
X66444921Y-48766170D01*
X66430671Y-48785383D01*
X66414607Y-48803107D01*
X66396883Y-48819171D01*
X66377670Y-48833421D01*
X66357153Y-48845718D01*
X66335529Y-48855946D01*
X66313007Y-48864004D01*
X66289803Y-48869816D01*
X66266142Y-48873326D01*
X66242250Y-48874500D01*
X65329750Y-48874500D01*
X65305858Y-48873326D01*
X65282197Y-48869816D01*
X65258993Y-48864004D01*
X65236471Y-48855946D01*
X65214847Y-48845718D01*
X65194330Y-48833421D01*
X65175117Y-48819171D01*
X65157393Y-48803107D01*
X65141329Y-48785383D01*
X65127079Y-48766170D01*
X65114782Y-48745653D01*
X65104554Y-48724029D01*
X65096496Y-48701507D01*
X65090684Y-48678303D01*
X65087174Y-48654642D01*
X65086000Y-48630750D01*
X65086000Y-48143250D01*
X65087174Y-48119358D01*
X65090684Y-48095697D01*
X65096496Y-48072493D01*
X65104554Y-48049971D01*
X65114782Y-48028347D01*
X65127079Y-48007830D01*
X65141329Y-47988617D01*
X65157393Y-47970893D01*
X65175117Y-47954829D01*
X65194330Y-47940579D01*
X65214847Y-47928282D01*
X65236471Y-47918054D01*
X65258993Y-47909996D01*
X65282197Y-47904184D01*
X65305858Y-47900674D01*
X65329750Y-47899500D01*
X66242250Y-47899500D01*
X66266142Y-47900674D01*
X66266142Y-47900674D01*
G37*
D11*
X65786000Y-48387000D03*
D10*
G36*
X66266142Y-46025674D02*
G01*
X66289803Y-46029184D01*
X66313007Y-46034996D01*
X66335529Y-46043054D01*
X66357153Y-46053282D01*
X66377670Y-46065579D01*
X66396883Y-46079829D01*
X66414607Y-46095893D01*
X66430671Y-46113617D01*
X66444921Y-46132830D01*
X66457218Y-46153347D01*
X66467446Y-46174971D01*
X66475504Y-46197493D01*
X66481316Y-46220697D01*
X66484826Y-46244358D01*
X66486000Y-46268250D01*
X66486000Y-46755750D01*
X66484826Y-46779642D01*
X66481316Y-46803303D01*
X66475504Y-46826507D01*
X66467446Y-46849029D01*
X66457218Y-46870653D01*
X66444921Y-46891170D01*
X66430671Y-46910383D01*
X66414607Y-46928107D01*
X66396883Y-46944171D01*
X66377670Y-46958421D01*
X66357153Y-46970718D01*
X66335529Y-46980946D01*
X66313007Y-46989004D01*
X66289803Y-46994816D01*
X66266142Y-46998326D01*
X66242250Y-46999500D01*
X65329750Y-46999500D01*
X65305858Y-46998326D01*
X65282197Y-46994816D01*
X65258993Y-46989004D01*
X65236471Y-46980946D01*
X65214847Y-46970718D01*
X65194330Y-46958421D01*
X65175117Y-46944171D01*
X65157393Y-46928107D01*
X65141329Y-46910383D01*
X65127079Y-46891170D01*
X65114782Y-46870653D01*
X65104554Y-46849029D01*
X65096496Y-46826507D01*
X65090684Y-46803303D01*
X65087174Y-46779642D01*
X65086000Y-46755750D01*
X65086000Y-46268250D01*
X65087174Y-46244358D01*
X65090684Y-46220697D01*
X65096496Y-46197493D01*
X65104554Y-46174971D01*
X65114782Y-46153347D01*
X65127079Y-46132830D01*
X65141329Y-46113617D01*
X65157393Y-46095893D01*
X65175117Y-46079829D01*
X65194330Y-46065579D01*
X65214847Y-46053282D01*
X65236471Y-46043054D01*
X65258993Y-46034996D01*
X65282197Y-46029184D01*
X65305858Y-46025674D01*
X65329750Y-46024500D01*
X66242250Y-46024500D01*
X66266142Y-46025674D01*
X66266142Y-46025674D01*
G37*
D11*
X65786000Y-46512000D03*
D10*
G36*
X70203142Y-53615674D02*
G01*
X70226803Y-53619184D01*
X70250007Y-53624996D01*
X70272529Y-53633054D01*
X70294153Y-53643282D01*
X70314670Y-53655579D01*
X70333883Y-53669829D01*
X70351607Y-53685893D01*
X70367671Y-53703617D01*
X70381921Y-53722830D01*
X70394218Y-53743347D01*
X70404446Y-53764971D01*
X70412504Y-53787493D01*
X70418316Y-53810697D01*
X70421826Y-53834358D01*
X70423000Y-53858250D01*
X70423000Y-54345750D01*
X70421826Y-54369642D01*
X70418316Y-54393303D01*
X70412504Y-54416507D01*
X70404446Y-54439029D01*
X70394218Y-54460653D01*
X70381921Y-54481170D01*
X70367671Y-54500383D01*
X70351607Y-54518107D01*
X70333883Y-54534171D01*
X70314670Y-54548421D01*
X70294153Y-54560718D01*
X70272529Y-54570946D01*
X70250007Y-54579004D01*
X70226803Y-54584816D01*
X70203142Y-54588326D01*
X70179250Y-54589500D01*
X69266750Y-54589500D01*
X69242858Y-54588326D01*
X69219197Y-54584816D01*
X69195993Y-54579004D01*
X69173471Y-54570946D01*
X69151847Y-54560718D01*
X69131330Y-54548421D01*
X69112117Y-54534171D01*
X69094393Y-54518107D01*
X69078329Y-54500383D01*
X69064079Y-54481170D01*
X69051782Y-54460653D01*
X69041554Y-54439029D01*
X69033496Y-54416507D01*
X69027684Y-54393303D01*
X69024174Y-54369642D01*
X69023000Y-54345750D01*
X69023000Y-53858250D01*
X69024174Y-53834358D01*
X69027684Y-53810697D01*
X69033496Y-53787493D01*
X69041554Y-53764971D01*
X69051782Y-53743347D01*
X69064079Y-53722830D01*
X69078329Y-53703617D01*
X69094393Y-53685893D01*
X69112117Y-53669829D01*
X69131330Y-53655579D01*
X69151847Y-53643282D01*
X69173471Y-53633054D01*
X69195993Y-53624996D01*
X69219197Y-53619184D01*
X69242858Y-53615674D01*
X69266750Y-53614500D01*
X70179250Y-53614500D01*
X70203142Y-53615674D01*
X70203142Y-53615674D01*
G37*
D11*
X69723000Y-54102000D03*
D10*
G36*
X70203142Y-55490674D02*
G01*
X70226803Y-55494184D01*
X70250007Y-55499996D01*
X70272529Y-55508054D01*
X70294153Y-55518282D01*
X70314670Y-55530579D01*
X70333883Y-55544829D01*
X70351607Y-55560893D01*
X70367671Y-55578617D01*
X70381921Y-55597830D01*
X70394218Y-55618347D01*
X70404446Y-55639971D01*
X70412504Y-55662493D01*
X70418316Y-55685697D01*
X70421826Y-55709358D01*
X70423000Y-55733250D01*
X70423000Y-56220750D01*
X70421826Y-56244642D01*
X70418316Y-56268303D01*
X70412504Y-56291507D01*
X70404446Y-56314029D01*
X70394218Y-56335653D01*
X70381921Y-56356170D01*
X70367671Y-56375383D01*
X70351607Y-56393107D01*
X70333883Y-56409171D01*
X70314670Y-56423421D01*
X70294153Y-56435718D01*
X70272529Y-56445946D01*
X70250007Y-56454004D01*
X70226803Y-56459816D01*
X70203142Y-56463326D01*
X70179250Y-56464500D01*
X69266750Y-56464500D01*
X69242858Y-56463326D01*
X69219197Y-56459816D01*
X69195993Y-56454004D01*
X69173471Y-56445946D01*
X69151847Y-56435718D01*
X69131330Y-56423421D01*
X69112117Y-56409171D01*
X69094393Y-56393107D01*
X69078329Y-56375383D01*
X69064079Y-56356170D01*
X69051782Y-56335653D01*
X69041554Y-56314029D01*
X69033496Y-56291507D01*
X69027684Y-56268303D01*
X69024174Y-56244642D01*
X69023000Y-56220750D01*
X69023000Y-55733250D01*
X69024174Y-55709358D01*
X69027684Y-55685697D01*
X69033496Y-55662493D01*
X69041554Y-55639971D01*
X69051782Y-55618347D01*
X69064079Y-55597830D01*
X69078329Y-55578617D01*
X69094393Y-55560893D01*
X69112117Y-55544829D01*
X69131330Y-55530579D01*
X69151847Y-55518282D01*
X69173471Y-55508054D01*
X69195993Y-55499996D01*
X69219197Y-55494184D01*
X69242858Y-55490674D01*
X69266750Y-55489500D01*
X70179250Y-55489500D01*
X70203142Y-55490674D01*
X70203142Y-55490674D01*
G37*
D11*
X69723000Y-55977000D03*
D10*
G36*
X63943142Y-98107174D02*
G01*
X63966803Y-98110684D01*
X63990007Y-98116496D01*
X64012529Y-98124554D01*
X64034153Y-98134782D01*
X64054670Y-98147079D01*
X64073883Y-98161329D01*
X64091607Y-98177393D01*
X64107671Y-98195117D01*
X64121921Y-98214330D01*
X64134218Y-98234847D01*
X64144446Y-98256471D01*
X64152504Y-98278993D01*
X64158316Y-98302197D01*
X64161826Y-98325858D01*
X64163000Y-98349750D01*
X64163000Y-99262250D01*
X64161826Y-99286142D01*
X64158316Y-99309803D01*
X64152504Y-99333007D01*
X64144446Y-99355529D01*
X64134218Y-99377153D01*
X64121921Y-99397670D01*
X64107671Y-99416883D01*
X64091607Y-99434607D01*
X64073883Y-99450671D01*
X64054670Y-99464921D01*
X64034153Y-99477218D01*
X64012529Y-99487446D01*
X63990007Y-99495504D01*
X63966803Y-99501316D01*
X63943142Y-99504826D01*
X63919250Y-99506000D01*
X63431750Y-99506000D01*
X63407858Y-99504826D01*
X63384197Y-99501316D01*
X63360993Y-99495504D01*
X63338471Y-99487446D01*
X63316847Y-99477218D01*
X63296330Y-99464921D01*
X63277117Y-99450671D01*
X63259393Y-99434607D01*
X63243329Y-99416883D01*
X63229079Y-99397670D01*
X63216782Y-99377153D01*
X63206554Y-99355529D01*
X63198496Y-99333007D01*
X63192684Y-99309803D01*
X63189174Y-99286142D01*
X63188000Y-99262250D01*
X63188000Y-98349750D01*
X63189174Y-98325858D01*
X63192684Y-98302197D01*
X63198496Y-98278993D01*
X63206554Y-98256471D01*
X63216782Y-98234847D01*
X63229079Y-98214330D01*
X63243329Y-98195117D01*
X63259393Y-98177393D01*
X63277117Y-98161329D01*
X63296330Y-98147079D01*
X63316847Y-98134782D01*
X63338471Y-98124554D01*
X63360993Y-98116496D01*
X63384197Y-98110684D01*
X63407858Y-98107174D01*
X63431750Y-98106000D01*
X63919250Y-98106000D01*
X63943142Y-98107174D01*
X63943142Y-98107174D01*
G37*
D11*
X63675500Y-98806000D03*
D10*
G36*
X62068142Y-98107174D02*
G01*
X62091803Y-98110684D01*
X62115007Y-98116496D01*
X62137529Y-98124554D01*
X62159153Y-98134782D01*
X62179670Y-98147079D01*
X62198883Y-98161329D01*
X62216607Y-98177393D01*
X62232671Y-98195117D01*
X62246921Y-98214330D01*
X62259218Y-98234847D01*
X62269446Y-98256471D01*
X62277504Y-98278993D01*
X62283316Y-98302197D01*
X62286826Y-98325858D01*
X62288000Y-98349750D01*
X62288000Y-99262250D01*
X62286826Y-99286142D01*
X62283316Y-99309803D01*
X62277504Y-99333007D01*
X62269446Y-99355529D01*
X62259218Y-99377153D01*
X62246921Y-99397670D01*
X62232671Y-99416883D01*
X62216607Y-99434607D01*
X62198883Y-99450671D01*
X62179670Y-99464921D01*
X62159153Y-99477218D01*
X62137529Y-99487446D01*
X62115007Y-99495504D01*
X62091803Y-99501316D01*
X62068142Y-99504826D01*
X62044250Y-99506000D01*
X61556750Y-99506000D01*
X61532858Y-99504826D01*
X61509197Y-99501316D01*
X61485993Y-99495504D01*
X61463471Y-99487446D01*
X61441847Y-99477218D01*
X61421330Y-99464921D01*
X61402117Y-99450671D01*
X61384393Y-99434607D01*
X61368329Y-99416883D01*
X61354079Y-99397670D01*
X61341782Y-99377153D01*
X61331554Y-99355529D01*
X61323496Y-99333007D01*
X61317684Y-99309803D01*
X61314174Y-99286142D01*
X61313000Y-99262250D01*
X61313000Y-98349750D01*
X61314174Y-98325858D01*
X61317684Y-98302197D01*
X61323496Y-98278993D01*
X61331554Y-98256471D01*
X61341782Y-98234847D01*
X61354079Y-98214330D01*
X61368329Y-98195117D01*
X61384393Y-98177393D01*
X61402117Y-98161329D01*
X61421330Y-98147079D01*
X61441847Y-98134782D01*
X61463471Y-98124554D01*
X61485993Y-98116496D01*
X61509197Y-98110684D01*
X61532858Y-98107174D01*
X61556750Y-98106000D01*
X62044250Y-98106000D01*
X62068142Y-98107174D01*
X62068142Y-98107174D01*
G37*
D11*
X61800500Y-98806000D03*
D10*
G36*
X63943142Y-101536174D02*
G01*
X63966803Y-101539684D01*
X63990007Y-101545496D01*
X64012529Y-101553554D01*
X64034153Y-101563782D01*
X64054670Y-101576079D01*
X64073883Y-101590329D01*
X64091607Y-101606393D01*
X64107671Y-101624117D01*
X64121921Y-101643330D01*
X64134218Y-101663847D01*
X64144446Y-101685471D01*
X64152504Y-101707993D01*
X64158316Y-101731197D01*
X64161826Y-101754858D01*
X64163000Y-101778750D01*
X64163000Y-102691250D01*
X64161826Y-102715142D01*
X64158316Y-102738803D01*
X64152504Y-102762007D01*
X64144446Y-102784529D01*
X64134218Y-102806153D01*
X64121921Y-102826670D01*
X64107671Y-102845883D01*
X64091607Y-102863607D01*
X64073883Y-102879671D01*
X64054670Y-102893921D01*
X64034153Y-102906218D01*
X64012529Y-102916446D01*
X63990007Y-102924504D01*
X63966803Y-102930316D01*
X63943142Y-102933826D01*
X63919250Y-102935000D01*
X63431750Y-102935000D01*
X63407858Y-102933826D01*
X63384197Y-102930316D01*
X63360993Y-102924504D01*
X63338471Y-102916446D01*
X63316847Y-102906218D01*
X63296330Y-102893921D01*
X63277117Y-102879671D01*
X63259393Y-102863607D01*
X63243329Y-102845883D01*
X63229079Y-102826670D01*
X63216782Y-102806153D01*
X63206554Y-102784529D01*
X63198496Y-102762007D01*
X63192684Y-102738803D01*
X63189174Y-102715142D01*
X63188000Y-102691250D01*
X63188000Y-101778750D01*
X63189174Y-101754858D01*
X63192684Y-101731197D01*
X63198496Y-101707993D01*
X63206554Y-101685471D01*
X63216782Y-101663847D01*
X63229079Y-101643330D01*
X63243329Y-101624117D01*
X63259393Y-101606393D01*
X63277117Y-101590329D01*
X63296330Y-101576079D01*
X63316847Y-101563782D01*
X63338471Y-101553554D01*
X63360993Y-101545496D01*
X63384197Y-101539684D01*
X63407858Y-101536174D01*
X63431750Y-101535000D01*
X63919250Y-101535000D01*
X63943142Y-101536174D01*
X63943142Y-101536174D01*
G37*
D11*
X63675500Y-102235000D03*
D10*
G36*
X62068142Y-101536174D02*
G01*
X62091803Y-101539684D01*
X62115007Y-101545496D01*
X62137529Y-101553554D01*
X62159153Y-101563782D01*
X62179670Y-101576079D01*
X62198883Y-101590329D01*
X62216607Y-101606393D01*
X62232671Y-101624117D01*
X62246921Y-101643330D01*
X62259218Y-101663847D01*
X62269446Y-101685471D01*
X62277504Y-101707993D01*
X62283316Y-101731197D01*
X62286826Y-101754858D01*
X62288000Y-101778750D01*
X62288000Y-102691250D01*
X62286826Y-102715142D01*
X62283316Y-102738803D01*
X62277504Y-102762007D01*
X62269446Y-102784529D01*
X62259218Y-102806153D01*
X62246921Y-102826670D01*
X62232671Y-102845883D01*
X62216607Y-102863607D01*
X62198883Y-102879671D01*
X62179670Y-102893921D01*
X62159153Y-102906218D01*
X62137529Y-102916446D01*
X62115007Y-102924504D01*
X62091803Y-102930316D01*
X62068142Y-102933826D01*
X62044250Y-102935000D01*
X61556750Y-102935000D01*
X61532858Y-102933826D01*
X61509197Y-102930316D01*
X61485993Y-102924504D01*
X61463471Y-102916446D01*
X61441847Y-102906218D01*
X61421330Y-102893921D01*
X61402117Y-102879671D01*
X61384393Y-102863607D01*
X61368329Y-102845883D01*
X61354079Y-102826670D01*
X61341782Y-102806153D01*
X61331554Y-102784529D01*
X61323496Y-102762007D01*
X61317684Y-102738803D01*
X61314174Y-102715142D01*
X61313000Y-102691250D01*
X61313000Y-101778750D01*
X61314174Y-101754858D01*
X61317684Y-101731197D01*
X61323496Y-101707993D01*
X61331554Y-101685471D01*
X61341782Y-101663847D01*
X61354079Y-101643330D01*
X61368329Y-101624117D01*
X61384393Y-101606393D01*
X61402117Y-101590329D01*
X61421330Y-101576079D01*
X61441847Y-101563782D01*
X61463471Y-101553554D01*
X61485993Y-101545496D01*
X61509197Y-101539684D01*
X61532858Y-101536174D01*
X61556750Y-101535000D01*
X62044250Y-101535000D01*
X62068142Y-101536174D01*
X62068142Y-101536174D01*
G37*
D11*
X61800500Y-102235000D03*
D10*
G36*
X60181642Y-100139174D02*
G01*
X60205303Y-100142684D01*
X60228507Y-100148496D01*
X60251029Y-100156554D01*
X60272653Y-100166782D01*
X60293170Y-100179079D01*
X60312383Y-100193329D01*
X60330107Y-100209393D01*
X60346171Y-100227117D01*
X60360421Y-100246330D01*
X60372718Y-100266847D01*
X60382946Y-100288471D01*
X60391004Y-100310993D01*
X60396816Y-100334197D01*
X60400326Y-100357858D01*
X60401500Y-100381750D01*
X60401500Y-101294250D01*
X60400326Y-101318142D01*
X60396816Y-101341803D01*
X60391004Y-101365007D01*
X60382946Y-101387529D01*
X60372718Y-101409153D01*
X60360421Y-101429670D01*
X60346171Y-101448883D01*
X60330107Y-101466607D01*
X60312383Y-101482671D01*
X60293170Y-101496921D01*
X60272653Y-101509218D01*
X60251029Y-101519446D01*
X60228507Y-101527504D01*
X60205303Y-101533316D01*
X60181642Y-101536826D01*
X60157750Y-101538000D01*
X59670250Y-101538000D01*
X59646358Y-101536826D01*
X59622697Y-101533316D01*
X59599493Y-101527504D01*
X59576971Y-101519446D01*
X59555347Y-101509218D01*
X59534830Y-101496921D01*
X59515617Y-101482671D01*
X59497893Y-101466607D01*
X59481829Y-101448883D01*
X59467579Y-101429670D01*
X59455282Y-101409153D01*
X59445054Y-101387529D01*
X59436996Y-101365007D01*
X59431184Y-101341803D01*
X59427674Y-101318142D01*
X59426500Y-101294250D01*
X59426500Y-100381750D01*
X59427674Y-100357858D01*
X59431184Y-100334197D01*
X59436996Y-100310993D01*
X59445054Y-100288471D01*
X59455282Y-100266847D01*
X59467579Y-100246330D01*
X59481829Y-100227117D01*
X59497893Y-100209393D01*
X59515617Y-100193329D01*
X59534830Y-100179079D01*
X59555347Y-100166782D01*
X59576971Y-100156554D01*
X59599493Y-100148496D01*
X59622697Y-100142684D01*
X59646358Y-100139174D01*
X59670250Y-100138000D01*
X60157750Y-100138000D01*
X60181642Y-100139174D01*
X60181642Y-100139174D01*
G37*
D11*
X59914000Y-100838000D03*
D10*
G36*
X58306642Y-100139174D02*
G01*
X58330303Y-100142684D01*
X58353507Y-100148496D01*
X58376029Y-100156554D01*
X58397653Y-100166782D01*
X58418170Y-100179079D01*
X58437383Y-100193329D01*
X58455107Y-100209393D01*
X58471171Y-100227117D01*
X58485421Y-100246330D01*
X58497718Y-100266847D01*
X58507946Y-100288471D01*
X58516004Y-100310993D01*
X58521816Y-100334197D01*
X58525326Y-100357858D01*
X58526500Y-100381750D01*
X58526500Y-101294250D01*
X58525326Y-101318142D01*
X58521816Y-101341803D01*
X58516004Y-101365007D01*
X58507946Y-101387529D01*
X58497718Y-101409153D01*
X58485421Y-101429670D01*
X58471171Y-101448883D01*
X58455107Y-101466607D01*
X58437383Y-101482671D01*
X58418170Y-101496921D01*
X58397653Y-101509218D01*
X58376029Y-101519446D01*
X58353507Y-101527504D01*
X58330303Y-101533316D01*
X58306642Y-101536826D01*
X58282750Y-101538000D01*
X57795250Y-101538000D01*
X57771358Y-101536826D01*
X57747697Y-101533316D01*
X57724493Y-101527504D01*
X57701971Y-101519446D01*
X57680347Y-101509218D01*
X57659830Y-101496921D01*
X57640617Y-101482671D01*
X57622893Y-101466607D01*
X57606829Y-101448883D01*
X57592579Y-101429670D01*
X57580282Y-101409153D01*
X57570054Y-101387529D01*
X57561996Y-101365007D01*
X57556184Y-101341803D01*
X57552674Y-101318142D01*
X57551500Y-101294250D01*
X57551500Y-100381750D01*
X57552674Y-100357858D01*
X57556184Y-100334197D01*
X57561996Y-100310993D01*
X57570054Y-100288471D01*
X57580282Y-100266847D01*
X57592579Y-100246330D01*
X57606829Y-100227117D01*
X57622893Y-100209393D01*
X57640617Y-100193329D01*
X57659830Y-100179079D01*
X57680347Y-100166782D01*
X57701971Y-100156554D01*
X57724493Y-100148496D01*
X57747697Y-100142684D01*
X57771358Y-100139174D01*
X57795250Y-100138000D01*
X58282750Y-100138000D01*
X58306642Y-100139174D01*
X58306642Y-100139174D01*
G37*
D11*
X58039000Y-100838000D03*
D10*
G36*
X58336642Y-83629174D02*
G01*
X58360303Y-83632684D01*
X58383507Y-83638496D01*
X58406029Y-83646554D01*
X58427653Y-83656782D01*
X58448170Y-83669079D01*
X58467383Y-83683329D01*
X58485107Y-83699393D01*
X58501171Y-83717117D01*
X58515421Y-83736330D01*
X58527718Y-83756847D01*
X58537946Y-83778471D01*
X58546004Y-83800993D01*
X58551816Y-83824197D01*
X58555326Y-83847858D01*
X58556500Y-83871750D01*
X58556500Y-84784250D01*
X58555326Y-84808142D01*
X58551816Y-84831803D01*
X58546004Y-84855007D01*
X58537946Y-84877529D01*
X58527718Y-84899153D01*
X58515421Y-84919670D01*
X58501171Y-84938883D01*
X58485107Y-84956607D01*
X58467383Y-84972671D01*
X58448170Y-84986921D01*
X58427653Y-84999218D01*
X58406029Y-85009446D01*
X58383507Y-85017504D01*
X58360303Y-85023316D01*
X58336642Y-85026826D01*
X58312750Y-85028000D01*
X57825250Y-85028000D01*
X57801358Y-85026826D01*
X57777697Y-85023316D01*
X57754493Y-85017504D01*
X57731971Y-85009446D01*
X57710347Y-84999218D01*
X57689830Y-84986921D01*
X57670617Y-84972671D01*
X57652893Y-84956607D01*
X57636829Y-84938883D01*
X57622579Y-84919670D01*
X57610282Y-84899153D01*
X57600054Y-84877529D01*
X57591996Y-84855007D01*
X57586184Y-84831803D01*
X57582674Y-84808142D01*
X57581500Y-84784250D01*
X57581500Y-83871750D01*
X57582674Y-83847858D01*
X57586184Y-83824197D01*
X57591996Y-83800993D01*
X57600054Y-83778471D01*
X57610282Y-83756847D01*
X57622579Y-83736330D01*
X57636829Y-83717117D01*
X57652893Y-83699393D01*
X57670617Y-83683329D01*
X57689830Y-83669079D01*
X57710347Y-83656782D01*
X57731971Y-83646554D01*
X57754493Y-83638496D01*
X57777697Y-83632684D01*
X57801358Y-83629174D01*
X57825250Y-83628000D01*
X58312750Y-83628000D01*
X58336642Y-83629174D01*
X58336642Y-83629174D01*
G37*
D11*
X58069000Y-84328000D03*
D10*
G36*
X60211642Y-83629174D02*
G01*
X60235303Y-83632684D01*
X60258507Y-83638496D01*
X60281029Y-83646554D01*
X60302653Y-83656782D01*
X60323170Y-83669079D01*
X60342383Y-83683329D01*
X60360107Y-83699393D01*
X60376171Y-83717117D01*
X60390421Y-83736330D01*
X60402718Y-83756847D01*
X60412946Y-83778471D01*
X60421004Y-83800993D01*
X60426816Y-83824197D01*
X60430326Y-83847858D01*
X60431500Y-83871750D01*
X60431500Y-84784250D01*
X60430326Y-84808142D01*
X60426816Y-84831803D01*
X60421004Y-84855007D01*
X60412946Y-84877529D01*
X60402718Y-84899153D01*
X60390421Y-84919670D01*
X60376171Y-84938883D01*
X60360107Y-84956607D01*
X60342383Y-84972671D01*
X60323170Y-84986921D01*
X60302653Y-84999218D01*
X60281029Y-85009446D01*
X60258507Y-85017504D01*
X60235303Y-85023316D01*
X60211642Y-85026826D01*
X60187750Y-85028000D01*
X59700250Y-85028000D01*
X59676358Y-85026826D01*
X59652697Y-85023316D01*
X59629493Y-85017504D01*
X59606971Y-85009446D01*
X59585347Y-84999218D01*
X59564830Y-84986921D01*
X59545617Y-84972671D01*
X59527893Y-84956607D01*
X59511829Y-84938883D01*
X59497579Y-84919670D01*
X59485282Y-84899153D01*
X59475054Y-84877529D01*
X59466996Y-84855007D01*
X59461184Y-84831803D01*
X59457674Y-84808142D01*
X59456500Y-84784250D01*
X59456500Y-83871750D01*
X59457674Y-83847858D01*
X59461184Y-83824197D01*
X59466996Y-83800993D01*
X59475054Y-83778471D01*
X59485282Y-83756847D01*
X59497579Y-83736330D01*
X59511829Y-83717117D01*
X59527893Y-83699393D01*
X59545617Y-83683329D01*
X59564830Y-83669079D01*
X59585347Y-83656782D01*
X59606971Y-83646554D01*
X59629493Y-83638496D01*
X59652697Y-83632684D01*
X59676358Y-83629174D01*
X59700250Y-83628000D01*
X60187750Y-83628000D01*
X60211642Y-83629174D01*
X60211642Y-83629174D01*
G37*
D11*
X59944000Y-84328000D03*
D10*
G36*
X72325142Y-48704174D02*
G01*
X72348803Y-48707684D01*
X72372007Y-48713496D01*
X72394529Y-48721554D01*
X72416153Y-48731782D01*
X72436670Y-48744079D01*
X72455883Y-48758329D01*
X72473607Y-48774393D01*
X72489671Y-48792117D01*
X72503921Y-48811330D01*
X72516218Y-48831847D01*
X72526446Y-48853471D01*
X72534504Y-48875993D01*
X72540316Y-48899197D01*
X72543826Y-48922858D01*
X72545000Y-48946750D01*
X72545000Y-49859250D01*
X72543826Y-49883142D01*
X72540316Y-49906803D01*
X72534504Y-49930007D01*
X72526446Y-49952529D01*
X72516218Y-49974153D01*
X72503921Y-49994670D01*
X72489671Y-50013883D01*
X72473607Y-50031607D01*
X72455883Y-50047671D01*
X72436670Y-50061921D01*
X72416153Y-50074218D01*
X72394529Y-50084446D01*
X72372007Y-50092504D01*
X72348803Y-50098316D01*
X72325142Y-50101826D01*
X72301250Y-50103000D01*
X71813750Y-50103000D01*
X71789858Y-50101826D01*
X71766197Y-50098316D01*
X71742993Y-50092504D01*
X71720471Y-50084446D01*
X71698847Y-50074218D01*
X71678330Y-50061921D01*
X71659117Y-50047671D01*
X71641393Y-50031607D01*
X71625329Y-50013883D01*
X71611079Y-49994670D01*
X71598782Y-49974153D01*
X71588554Y-49952529D01*
X71580496Y-49930007D01*
X71574684Y-49906803D01*
X71571174Y-49883142D01*
X71570000Y-49859250D01*
X71570000Y-48946750D01*
X71571174Y-48922858D01*
X71574684Y-48899197D01*
X71580496Y-48875993D01*
X71588554Y-48853471D01*
X71598782Y-48831847D01*
X71611079Y-48811330D01*
X71625329Y-48792117D01*
X71641393Y-48774393D01*
X71659117Y-48758329D01*
X71678330Y-48744079D01*
X71698847Y-48731782D01*
X71720471Y-48721554D01*
X71742993Y-48713496D01*
X71766197Y-48707684D01*
X71789858Y-48704174D01*
X71813750Y-48703000D01*
X72301250Y-48703000D01*
X72325142Y-48704174D01*
X72325142Y-48704174D01*
G37*
D11*
X72057500Y-49403000D03*
D10*
G36*
X70450142Y-48704174D02*
G01*
X70473803Y-48707684D01*
X70497007Y-48713496D01*
X70519529Y-48721554D01*
X70541153Y-48731782D01*
X70561670Y-48744079D01*
X70580883Y-48758329D01*
X70598607Y-48774393D01*
X70614671Y-48792117D01*
X70628921Y-48811330D01*
X70641218Y-48831847D01*
X70651446Y-48853471D01*
X70659504Y-48875993D01*
X70665316Y-48899197D01*
X70668826Y-48922858D01*
X70670000Y-48946750D01*
X70670000Y-49859250D01*
X70668826Y-49883142D01*
X70665316Y-49906803D01*
X70659504Y-49930007D01*
X70651446Y-49952529D01*
X70641218Y-49974153D01*
X70628921Y-49994670D01*
X70614671Y-50013883D01*
X70598607Y-50031607D01*
X70580883Y-50047671D01*
X70561670Y-50061921D01*
X70541153Y-50074218D01*
X70519529Y-50084446D01*
X70497007Y-50092504D01*
X70473803Y-50098316D01*
X70450142Y-50101826D01*
X70426250Y-50103000D01*
X69938750Y-50103000D01*
X69914858Y-50101826D01*
X69891197Y-50098316D01*
X69867993Y-50092504D01*
X69845471Y-50084446D01*
X69823847Y-50074218D01*
X69803330Y-50061921D01*
X69784117Y-50047671D01*
X69766393Y-50031607D01*
X69750329Y-50013883D01*
X69736079Y-49994670D01*
X69723782Y-49974153D01*
X69713554Y-49952529D01*
X69705496Y-49930007D01*
X69699684Y-49906803D01*
X69696174Y-49883142D01*
X69695000Y-49859250D01*
X69695000Y-48946750D01*
X69696174Y-48922858D01*
X69699684Y-48899197D01*
X69705496Y-48875993D01*
X69713554Y-48853471D01*
X69723782Y-48831847D01*
X69736079Y-48811330D01*
X69750329Y-48792117D01*
X69766393Y-48774393D01*
X69784117Y-48758329D01*
X69803330Y-48744079D01*
X69823847Y-48731782D01*
X69845471Y-48721554D01*
X69867993Y-48713496D01*
X69891197Y-48707684D01*
X69914858Y-48704174D01*
X69938750Y-48703000D01*
X70426250Y-48703000D01*
X70450142Y-48704174D01*
X70450142Y-48704174D01*
G37*
D11*
X70182500Y-49403000D03*
D10*
G36*
X69568142Y-45741674D02*
G01*
X69591803Y-45745184D01*
X69615007Y-45750996D01*
X69637529Y-45759054D01*
X69659153Y-45769282D01*
X69679670Y-45781579D01*
X69698883Y-45795829D01*
X69716607Y-45811893D01*
X69732671Y-45829617D01*
X69746921Y-45848830D01*
X69759218Y-45869347D01*
X69769446Y-45890971D01*
X69777504Y-45913493D01*
X69783316Y-45936697D01*
X69786826Y-45960358D01*
X69788000Y-45984250D01*
X69788000Y-46471750D01*
X69786826Y-46495642D01*
X69783316Y-46519303D01*
X69777504Y-46542507D01*
X69769446Y-46565029D01*
X69759218Y-46586653D01*
X69746921Y-46607170D01*
X69732671Y-46626383D01*
X69716607Y-46644107D01*
X69698883Y-46660171D01*
X69679670Y-46674421D01*
X69659153Y-46686718D01*
X69637529Y-46696946D01*
X69615007Y-46705004D01*
X69591803Y-46710816D01*
X69568142Y-46714326D01*
X69544250Y-46715500D01*
X68631750Y-46715500D01*
X68607858Y-46714326D01*
X68584197Y-46710816D01*
X68560993Y-46705004D01*
X68538471Y-46696946D01*
X68516847Y-46686718D01*
X68496330Y-46674421D01*
X68477117Y-46660171D01*
X68459393Y-46644107D01*
X68443329Y-46626383D01*
X68429079Y-46607170D01*
X68416782Y-46586653D01*
X68406554Y-46565029D01*
X68398496Y-46542507D01*
X68392684Y-46519303D01*
X68389174Y-46495642D01*
X68388000Y-46471750D01*
X68388000Y-45984250D01*
X68389174Y-45960358D01*
X68392684Y-45936697D01*
X68398496Y-45913493D01*
X68406554Y-45890971D01*
X68416782Y-45869347D01*
X68429079Y-45848830D01*
X68443329Y-45829617D01*
X68459393Y-45811893D01*
X68477117Y-45795829D01*
X68496330Y-45781579D01*
X68516847Y-45769282D01*
X68538471Y-45759054D01*
X68560993Y-45750996D01*
X68584197Y-45745184D01*
X68607858Y-45741674D01*
X68631750Y-45740500D01*
X69544250Y-45740500D01*
X69568142Y-45741674D01*
X69568142Y-45741674D01*
G37*
D11*
X69088000Y-46228000D03*
D10*
G36*
X69568142Y-43866674D02*
G01*
X69591803Y-43870184D01*
X69615007Y-43875996D01*
X69637529Y-43884054D01*
X69659153Y-43894282D01*
X69679670Y-43906579D01*
X69698883Y-43920829D01*
X69716607Y-43936893D01*
X69732671Y-43954617D01*
X69746921Y-43973830D01*
X69759218Y-43994347D01*
X69769446Y-44015971D01*
X69777504Y-44038493D01*
X69783316Y-44061697D01*
X69786826Y-44085358D01*
X69788000Y-44109250D01*
X69788000Y-44596750D01*
X69786826Y-44620642D01*
X69783316Y-44644303D01*
X69777504Y-44667507D01*
X69769446Y-44690029D01*
X69759218Y-44711653D01*
X69746921Y-44732170D01*
X69732671Y-44751383D01*
X69716607Y-44769107D01*
X69698883Y-44785171D01*
X69679670Y-44799421D01*
X69659153Y-44811718D01*
X69637529Y-44821946D01*
X69615007Y-44830004D01*
X69591803Y-44835816D01*
X69568142Y-44839326D01*
X69544250Y-44840500D01*
X68631750Y-44840500D01*
X68607858Y-44839326D01*
X68584197Y-44835816D01*
X68560993Y-44830004D01*
X68538471Y-44821946D01*
X68516847Y-44811718D01*
X68496330Y-44799421D01*
X68477117Y-44785171D01*
X68459393Y-44769107D01*
X68443329Y-44751383D01*
X68429079Y-44732170D01*
X68416782Y-44711653D01*
X68406554Y-44690029D01*
X68398496Y-44667507D01*
X68392684Y-44644303D01*
X68389174Y-44620642D01*
X68388000Y-44596750D01*
X68388000Y-44109250D01*
X68389174Y-44085358D01*
X68392684Y-44061697D01*
X68398496Y-44038493D01*
X68406554Y-44015971D01*
X68416782Y-43994347D01*
X68429079Y-43973830D01*
X68443329Y-43954617D01*
X68459393Y-43936893D01*
X68477117Y-43920829D01*
X68496330Y-43906579D01*
X68516847Y-43894282D01*
X68538471Y-43884054D01*
X68560993Y-43875996D01*
X68584197Y-43870184D01*
X68607858Y-43866674D01*
X68631750Y-43865500D01*
X69544250Y-43865500D01*
X69568142Y-43866674D01*
X69568142Y-43866674D01*
G37*
D11*
X69088000Y-44353000D03*
D10*
G36*
X58336642Y-96837174D02*
G01*
X58360303Y-96840684D01*
X58383507Y-96846496D01*
X58406029Y-96854554D01*
X58427653Y-96864782D01*
X58448170Y-96877079D01*
X58467383Y-96891329D01*
X58485107Y-96907393D01*
X58501171Y-96925117D01*
X58515421Y-96944330D01*
X58527718Y-96964847D01*
X58537946Y-96986471D01*
X58546004Y-97008993D01*
X58551816Y-97032197D01*
X58555326Y-97055858D01*
X58556500Y-97079750D01*
X58556500Y-97992250D01*
X58555326Y-98016142D01*
X58551816Y-98039803D01*
X58546004Y-98063007D01*
X58537946Y-98085529D01*
X58527718Y-98107153D01*
X58515421Y-98127670D01*
X58501171Y-98146883D01*
X58485107Y-98164607D01*
X58467383Y-98180671D01*
X58448170Y-98194921D01*
X58427653Y-98207218D01*
X58406029Y-98217446D01*
X58383507Y-98225504D01*
X58360303Y-98231316D01*
X58336642Y-98234826D01*
X58312750Y-98236000D01*
X57825250Y-98236000D01*
X57801358Y-98234826D01*
X57777697Y-98231316D01*
X57754493Y-98225504D01*
X57731971Y-98217446D01*
X57710347Y-98207218D01*
X57689830Y-98194921D01*
X57670617Y-98180671D01*
X57652893Y-98164607D01*
X57636829Y-98146883D01*
X57622579Y-98127670D01*
X57610282Y-98107153D01*
X57600054Y-98085529D01*
X57591996Y-98063007D01*
X57586184Y-98039803D01*
X57582674Y-98016142D01*
X57581500Y-97992250D01*
X57581500Y-97079750D01*
X57582674Y-97055858D01*
X57586184Y-97032197D01*
X57591996Y-97008993D01*
X57600054Y-96986471D01*
X57610282Y-96964847D01*
X57622579Y-96944330D01*
X57636829Y-96925117D01*
X57652893Y-96907393D01*
X57670617Y-96891329D01*
X57689830Y-96877079D01*
X57710347Y-96864782D01*
X57731971Y-96854554D01*
X57754493Y-96846496D01*
X57777697Y-96840684D01*
X57801358Y-96837174D01*
X57825250Y-96836000D01*
X58312750Y-96836000D01*
X58336642Y-96837174D01*
X58336642Y-96837174D01*
G37*
D11*
X58069000Y-97536000D03*
D10*
G36*
X60211642Y-96837174D02*
G01*
X60235303Y-96840684D01*
X60258507Y-96846496D01*
X60281029Y-96854554D01*
X60302653Y-96864782D01*
X60323170Y-96877079D01*
X60342383Y-96891329D01*
X60360107Y-96907393D01*
X60376171Y-96925117D01*
X60390421Y-96944330D01*
X60402718Y-96964847D01*
X60412946Y-96986471D01*
X60421004Y-97008993D01*
X60426816Y-97032197D01*
X60430326Y-97055858D01*
X60431500Y-97079750D01*
X60431500Y-97992250D01*
X60430326Y-98016142D01*
X60426816Y-98039803D01*
X60421004Y-98063007D01*
X60412946Y-98085529D01*
X60402718Y-98107153D01*
X60390421Y-98127670D01*
X60376171Y-98146883D01*
X60360107Y-98164607D01*
X60342383Y-98180671D01*
X60323170Y-98194921D01*
X60302653Y-98207218D01*
X60281029Y-98217446D01*
X60258507Y-98225504D01*
X60235303Y-98231316D01*
X60211642Y-98234826D01*
X60187750Y-98236000D01*
X59700250Y-98236000D01*
X59676358Y-98234826D01*
X59652697Y-98231316D01*
X59629493Y-98225504D01*
X59606971Y-98217446D01*
X59585347Y-98207218D01*
X59564830Y-98194921D01*
X59545617Y-98180671D01*
X59527893Y-98164607D01*
X59511829Y-98146883D01*
X59497579Y-98127670D01*
X59485282Y-98107153D01*
X59475054Y-98085529D01*
X59466996Y-98063007D01*
X59461184Y-98039803D01*
X59457674Y-98016142D01*
X59456500Y-97992250D01*
X59456500Y-97079750D01*
X59457674Y-97055858D01*
X59461184Y-97032197D01*
X59466996Y-97008993D01*
X59475054Y-96986471D01*
X59485282Y-96964847D01*
X59497579Y-96944330D01*
X59511829Y-96925117D01*
X59527893Y-96907393D01*
X59545617Y-96891329D01*
X59564830Y-96877079D01*
X59585347Y-96864782D01*
X59606971Y-96854554D01*
X59629493Y-96846496D01*
X59652697Y-96840684D01*
X59676358Y-96837174D01*
X59700250Y-96836000D01*
X60187750Y-96836000D01*
X60211642Y-96837174D01*
X60211642Y-96837174D01*
G37*
D11*
X59944000Y-97536000D03*
D10*
G36*
X72489142Y-53615674D02*
G01*
X72512803Y-53619184D01*
X72536007Y-53624996D01*
X72558529Y-53633054D01*
X72580153Y-53643282D01*
X72600670Y-53655579D01*
X72619883Y-53669829D01*
X72637607Y-53685893D01*
X72653671Y-53703617D01*
X72667921Y-53722830D01*
X72680218Y-53743347D01*
X72690446Y-53764971D01*
X72698504Y-53787493D01*
X72704316Y-53810697D01*
X72707826Y-53834358D01*
X72709000Y-53858250D01*
X72709000Y-54345750D01*
X72707826Y-54369642D01*
X72704316Y-54393303D01*
X72698504Y-54416507D01*
X72690446Y-54439029D01*
X72680218Y-54460653D01*
X72667921Y-54481170D01*
X72653671Y-54500383D01*
X72637607Y-54518107D01*
X72619883Y-54534171D01*
X72600670Y-54548421D01*
X72580153Y-54560718D01*
X72558529Y-54570946D01*
X72536007Y-54579004D01*
X72512803Y-54584816D01*
X72489142Y-54588326D01*
X72465250Y-54589500D01*
X71552750Y-54589500D01*
X71528858Y-54588326D01*
X71505197Y-54584816D01*
X71481993Y-54579004D01*
X71459471Y-54570946D01*
X71437847Y-54560718D01*
X71417330Y-54548421D01*
X71398117Y-54534171D01*
X71380393Y-54518107D01*
X71364329Y-54500383D01*
X71350079Y-54481170D01*
X71337782Y-54460653D01*
X71327554Y-54439029D01*
X71319496Y-54416507D01*
X71313684Y-54393303D01*
X71310174Y-54369642D01*
X71309000Y-54345750D01*
X71309000Y-53858250D01*
X71310174Y-53834358D01*
X71313684Y-53810697D01*
X71319496Y-53787493D01*
X71327554Y-53764971D01*
X71337782Y-53743347D01*
X71350079Y-53722830D01*
X71364329Y-53703617D01*
X71380393Y-53685893D01*
X71398117Y-53669829D01*
X71417330Y-53655579D01*
X71437847Y-53643282D01*
X71459471Y-53633054D01*
X71481993Y-53624996D01*
X71505197Y-53619184D01*
X71528858Y-53615674D01*
X71552750Y-53614500D01*
X72465250Y-53614500D01*
X72489142Y-53615674D01*
X72489142Y-53615674D01*
G37*
D11*
X72009000Y-54102000D03*
D10*
G36*
X72489142Y-55490674D02*
G01*
X72512803Y-55494184D01*
X72536007Y-55499996D01*
X72558529Y-55508054D01*
X72580153Y-55518282D01*
X72600670Y-55530579D01*
X72619883Y-55544829D01*
X72637607Y-55560893D01*
X72653671Y-55578617D01*
X72667921Y-55597830D01*
X72680218Y-55618347D01*
X72690446Y-55639971D01*
X72698504Y-55662493D01*
X72704316Y-55685697D01*
X72707826Y-55709358D01*
X72709000Y-55733250D01*
X72709000Y-56220750D01*
X72707826Y-56244642D01*
X72704316Y-56268303D01*
X72698504Y-56291507D01*
X72690446Y-56314029D01*
X72680218Y-56335653D01*
X72667921Y-56356170D01*
X72653671Y-56375383D01*
X72637607Y-56393107D01*
X72619883Y-56409171D01*
X72600670Y-56423421D01*
X72580153Y-56435718D01*
X72558529Y-56445946D01*
X72536007Y-56454004D01*
X72512803Y-56459816D01*
X72489142Y-56463326D01*
X72465250Y-56464500D01*
X71552750Y-56464500D01*
X71528858Y-56463326D01*
X71505197Y-56459816D01*
X71481993Y-56454004D01*
X71459471Y-56445946D01*
X71437847Y-56435718D01*
X71417330Y-56423421D01*
X71398117Y-56409171D01*
X71380393Y-56393107D01*
X71364329Y-56375383D01*
X71350079Y-56356170D01*
X71337782Y-56335653D01*
X71327554Y-56314029D01*
X71319496Y-56291507D01*
X71313684Y-56268303D01*
X71310174Y-56244642D01*
X71309000Y-56220750D01*
X71309000Y-55733250D01*
X71310174Y-55709358D01*
X71313684Y-55685697D01*
X71319496Y-55662493D01*
X71327554Y-55639971D01*
X71337782Y-55618347D01*
X71350079Y-55597830D01*
X71364329Y-55578617D01*
X71380393Y-55560893D01*
X71398117Y-55544829D01*
X71417330Y-55530579D01*
X71437847Y-55518282D01*
X71459471Y-55508054D01*
X71481993Y-55499996D01*
X71505197Y-55494184D01*
X71528858Y-55490674D01*
X71552750Y-55489500D01*
X72465250Y-55489500D01*
X72489142Y-55490674D01*
X72489142Y-55490674D01*
G37*
D11*
X72009000Y-55977000D03*
D10*
G36*
X66845642Y-89090174D02*
G01*
X66869303Y-89093684D01*
X66892507Y-89099496D01*
X66915029Y-89107554D01*
X66936653Y-89117782D01*
X66957170Y-89130079D01*
X66976383Y-89144329D01*
X66994107Y-89160393D01*
X67010171Y-89178117D01*
X67024421Y-89197330D01*
X67036718Y-89217847D01*
X67046946Y-89239471D01*
X67055004Y-89261993D01*
X67060816Y-89285197D01*
X67064326Y-89308858D01*
X67065500Y-89332750D01*
X67065500Y-90245250D01*
X67064326Y-90269142D01*
X67060816Y-90292803D01*
X67055004Y-90316007D01*
X67046946Y-90338529D01*
X67036718Y-90360153D01*
X67024421Y-90380670D01*
X67010171Y-90399883D01*
X66994107Y-90417607D01*
X66976383Y-90433671D01*
X66957170Y-90447921D01*
X66936653Y-90460218D01*
X66915029Y-90470446D01*
X66892507Y-90478504D01*
X66869303Y-90484316D01*
X66845642Y-90487826D01*
X66821750Y-90489000D01*
X66334250Y-90489000D01*
X66310358Y-90487826D01*
X66286697Y-90484316D01*
X66263493Y-90478504D01*
X66240971Y-90470446D01*
X66219347Y-90460218D01*
X66198830Y-90447921D01*
X66179617Y-90433671D01*
X66161893Y-90417607D01*
X66145829Y-90399883D01*
X66131579Y-90380670D01*
X66119282Y-90360153D01*
X66109054Y-90338529D01*
X66100996Y-90316007D01*
X66095184Y-90292803D01*
X66091674Y-90269142D01*
X66090500Y-90245250D01*
X66090500Y-89332750D01*
X66091674Y-89308858D01*
X66095184Y-89285197D01*
X66100996Y-89261993D01*
X66109054Y-89239471D01*
X66119282Y-89217847D01*
X66131579Y-89197330D01*
X66145829Y-89178117D01*
X66161893Y-89160393D01*
X66179617Y-89144329D01*
X66198830Y-89130079D01*
X66219347Y-89117782D01*
X66240971Y-89107554D01*
X66263493Y-89099496D01*
X66286697Y-89093684D01*
X66310358Y-89090174D01*
X66334250Y-89089000D01*
X66821750Y-89089000D01*
X66845642Y-89090174D01*
X66845642Y-89090174D01*
G37*
D11*
X66578000Y-89789000D03*
D10*
G36*
X68720642Y-89090174D02*
G01*
X68744303Y-89093684D01*
X68767507Y-89099496D01*
X68790029Y-89107554D01*
X68811653Y-89117782D01*
X68832170Y-89130079D01*
X68851383Y-89144329D01*
X68869107Y-89160393D01*
X68885171Y-89178117D01*
X68899421Y-89197330D01*
X68911718Y-89217847D01*
X68921946Y-89239471D01*
X68930004Y-89261993D01*
X68935816Y-89285197D01*
X68939326Y-89308858D01*
X68940500Y-89332750D01*
X68940500Y-90245250D01*
X68939326Y-90269142D01*
X68935816Y-90292803D01*
X68930004Y-90316007D01*
X68921946Y-90338529D01*
X68911718Y-90360153D01*
X68899421Y-90380670D01*
X68885171Y-90399883D01*
X68869107Y-90417607D01*
X68851383Y-90433671D01*
X68832170Y-90447921D01*
X68811653Y-90460218D01*
X68790029Y-90470446D01*
X68767507Y-90478504D01*
X68744303Y-90484316D01*
X68720642Y-90487826D01*
X68696750Y-90489000D01*
X68209250Y-90489000D01*
X68185358Y-90487826D01*
X68161697Y-90484316D01*
X68138493Y-90478504D01*
X68115971Y-90470446D01*
X68094347Y-90460218D01*
X68073830Y-90447921D01*
X68054617Y-90433671D01*
X68036893Y-90417607D01*
X68020829Y-90399883D01*
X68006579Y-90380670D01*
X67994282Y-90360153D01*
X67984054Y-90338529D01*
X67975996Y-90316007D01*
X67970184Y-90292803D01*
X67966674Y-90269142D01*
X67965500Y-90245250D01*
X67965500Y-89332750D01*
X67966674Y-89308858D01*
X67970184Y-89285197D01*
X67975996Y-89261993D01*
X67984054Y-89239471D01*
X67994282Y-89217847D01*
X68006579Y-89197330D01*
X68020829Y-89178117D01*
X68036893Y-89160393D01*
X68054617Y-89144329D01*
X68073830Y-89130079D01*
X68094347Y-89117782D01*
X68115971Y-89107554D01*
X68138493Y-89099496D01*
X68161697Y-89093684D01*
X68185358Y-89090174D01*
X68209250Y-89089000D01*
X68696750Y-89089000D01*
X68720642Y-89090174D01*
X68720642Y-89090174D01*
G37*
D11*
X68453000Y-89789000D03*
D10*
G36*
X62583142Y-84827674D02*
G01*
X62606803Y-84831184D01*
X62630007Y-84836996D01*
X62652529Y-84845054D01*
X62674153Y-84855282D01*
X62694670Y-84867579D01*
X62713883Y-84881829D01*
X62731607Y-84897893D01*
X62747671Y-84915617D01*
X62761921Y-84934830D01*
X62774218Y-84955347D01*
X62784446Y-84976971D01*
X62792504Y-84999493D01*
X62798316Y-85022697D01*
X62801826Y-85046358D01*
X62803000Y-85070250D01*
X62803000Y-85557750D01*
X62801826Y-85581642D01*
X62798316Y-85605303D01*
X62792504Y-85628507D01*
X62784446Y-85651029D01*
X62774218Y-85672653D01*
X62761921Y-85693170D01*
X62747671Y-85712383D01*
X62731607Y-85730107D01*
X62713883Y-85746171D01*
X62694670Y-85760421D01*
X62674153Y-85772718D01*
X62652529Y-85782946D01*
X62630007Y-85791004D01*
X62606803Y-85796816D01*
X62583142Y-85800326D01*
X62559250Y-85801500D01*
X61646750Y-85801500D01*
X61622858Y-85800326D01*
X61599197Y-85796816D01*
X61575993Y-85791004D01*
X61553471Y-85782946D01*
X61531847Y-85772718D01*
X61511330Y-85760421D01*
X61492117Y-85746171D01*
X61474393Y-85730107D01*
X61458329Y-85712383D01*
X61444079Y-85693170D01*
X61431782Y-85672653D01*
X61421554Y-85651029D01*
X61413496Y-85628507D01*
X61407684Y-85605303D01*
X61404174Y-85581642D01*
X61403000Y-85557750D01*
X61403000Y-85070250D01*
X61404174Y-85046358D01*
X61407684Y-85022697D01*
X61413496Y-84999493D01*
X61421554Y-84976971D01*
X61431782Y-84955347D01*
X61444079Y-84934830D01*
X61458329Y-84915617D01*
X61474393Y-84897893D01*
X61492117Y-84881829D01*
X61511330Y-84867579D01*
X61531847Y-84855282D01*
X61553471Y-84845054D01*
X61575993Y-84836996D01*
X61599197Y-84831184D01*
X61622858Y-84827674D01*
X61646750Y-84826500D01*
X62559250Y-84826500D01*
X62583142Y-84827674D01*
X62583142Y-84827674D01*
G37*
D11*
X62103000Y-85314000D03*
D10*
G36*
X62583142Y-82952674D02*
G01*
X62606803Y-82956184D01*
X62630007Y-82961996D01*
X62652529Y-82970054D01*
X62674153Y-82980282D01*
X62694670Y-82992579D01*
X62713883Y-83006829D01*
X62731607Y-83022893D01*
X62747671Y-83040617D01*
X62761921Y-83059830D01*
X62774218Y-83080347D01*
X62784446Y-83101971D01*
X62792504Y-83124493D01*
X62798316Y-83147697D01*
X62801826Y-83171358D01*
X62803000Y-83195250D01*
X62803000Y-83682750D01*
X62801826Y-83706642D01*
X62798316Y-83730303D01*
X62792504Y-83753507D01*
X62784446Y-83776029D01*
X62774218Y-83797653D01*
X62761921Y-83818170D01*
X62747671Y-83837383D01*
X62731607Y-83855107D01*
X62713883Y-83871171D01*
X62694670Y-83885421D01*
X62674153Y-83897718D01*
X62652529Y-83907946D01*
X62630007Y-83916004D01*
X62606803Y-83921816D01*
X62583142Y-83925326D01*
X62559250Y-83926500D01*
X61646750Y-83926500D01*
X61622858Y-83925326D01*
X61599197Y-83921816D01*
X61575993Y-83916004D01*
X61553471Y-83907946D01*
X61531847Y-83897718D01*
X61511330Y-83885421D01*
X61492117Y-83871171D01*
X61474393Y-83855107D01*
X61458329Y-83837383D01*
X61444079Y-83818170D01*
X61431782Y-83797653D01*
X61421554Y-83776029D01*
X61413496Y-83753507D01*
X61407684Y-83730303D01*
X61404174Y-83706642D01*
X61403000Y-83682750D01*
X61403000Y-83195250D01*
X61404174Y-83171358D01*
X61407684Y-83147697D01*
X61413496Y-83124493D01*
X61421554Y-83101971D01*
X61431782Y-83080347D01*
X61444079Y-83059830D01*
X61458329Y-83040617D01*
X61474393Y-83022893D01*
X61492117Y-83006829D01*
X61511330Y-82992579D01*
X61531847Y-82980282D01*
X61553471Y-82970054D01*
X61575993Y-82961996D01*
X61599197Y-82956184D01*
X61622858Y-82952674D01*
X61646750Y-82951500D01*
X62559250Y-82951500D01*
X62583142Y-82952674D01*
X62583142Y-82952674D01*
G37*
D11*
X62103000Y-83439000D03*
D10*
G36*
X61608642Y-74485174D02*
G01*
X61632303Y-74488684D01*
X61655507Y-74494496D01*
X61678029Y-74502554D01*
X61699653Y-74512782D01*
X61720170Y-74525079D01*
X61739383Y-74539329D01*
X61757107Y-74555393D01*
X61773171Y-74573117D01*
X61787421Y-74592330D01*
X61799718Y-74612847D01*
X61809946Y-74634471D01*
X61818004Y-74656993D01*
X61823816Y-74680197D01*
X61827326Y-74703858D01*
X61828500Y-74727750D01*
X61828500Y-75640250D01*
X61827326Y-75664142D01*
X61823816Y-75687803D01*
X61818004Y-75711007D01*
X61809946Y-75733529D01*
X61799718Y-75755153D01*
X61787421Y-75775670D01*
X61773171Y-75794883D01*
X61757107Y-75812607D01*
X61739383Y-75828671D01*
X61720170Y-75842921D01*
X61699653Y-75855218D01*
X61678029Y-75865446D01*
X61655507Y-75873504D01*
X61632303Y-75879316D01*
X61608642Y-75882826D01*
X61584750Y-75884000D01*
X61097250Y-75884000D01*
X61073358Y-75882826D01*
X61049697Y-75879316D01*
X61026493Y-75873504D01*
X61003971Y-75865446D01*
X60982347Y-75855218D01*
X60961830Y-75842921D01*
X60942617Y-75828671D01*
X60924893Y-75812607D01*
X60908829Y-75794883D01*
X60894579Y-75775670D01*
X60882282Y-75755153D01*
X60872054Y-75733529D01*
X60863996Y-75711007D01*
X60858184Y-75687803D01*
X60854674Y-75664142D01*
X60853500Y-75640250D01*
X60853500Y-74727750D01*
X60854674Y-74703858D01*
X60858184Y-74680197D01*
X60863996Y-74656993D01*
X60872054Y-74634471D01*
X60882282Y-74612847D01*
X60894579Y-74592330D01*
X60908829Y-74573117D01*
X60924893Y-74555393D01*
X60942617Y-74539329D01*
X60961830Y-74525079D01*
X60982347Y-74512782D01*
X61003971Y-74502554D01*
X61026493Y-74494496D01*
X61049697Y-74488684D01*
X61073358Y-74485174D01*
X61097250Y-74484000D01*
X61584750Y-74484000D01*
X61608642Y-74485174D01*
X61608642Y-74485174D01*
G37*
D11*
X61341000Y-75184000D03*
D10*
G36*
X59733642Y-74485174D02*
G01*
X59757303Y-74488684D01*
X59780507Y-74494496D01*
X59803029Y-74502554D01*
X59824653Y-74512782D01*
X59845170Y-74525079D01*
X59864383Y-74539329D01*
X59882107Y-74555393D01*
X59898171Y-74573117D01*
X59912421Y-74592330D01*
X59924718Y-74612847D01*
X59934946Y-74634471D01*
X59943004Y-74656993D01*
X59948816Y-74680197D01*
X59952326Y-74703858D01*
X59953500Y-74727750D01*
X59953500Y-75640250D01*
X59952326Y-75664142D01*
X59948816Y-75687803D01*
X59943004Y-75711007D01*
X59934946Y-75733529D01*
X59924718Y-75755153D01*
X59912421Y-75775670D01*
X59898171Y-75794883D01*
X59882107Y-75812607D01*
X59864383Y-75828671D01*
X59845170Y-75842921D01*
X59824653Y-75855218D01*
X59803029Y-75865446D01*
X59780507Y-75873504D01*
X59757303Y-75879316D01*
X59733642Y-75882826D01*
X59709750Y-75884000D01*
X59222250Y-75884000D01*
X59198358Y-75882826D01*
X59174697Y-75879316D01*
X59151493Y-75873504D01*
X59128971Y-75865446D01*
X59107347Y-75855218D01*
X59086830Y-75842921D01*
X59067617Y-75828671D01*
X59049893Y-75812607D01*
X59033829Y-75794883D01*
X59019579Y-75775670D01*
X59007282Y-75755153D01*
X58997054Y-75733529D01*
X58988996Y-75711007D01*
X58983184Y-75687803D01*
X58979674Y-75664142D01*
X58978500Y-75640250D01*
X58978500Y-74727750D01*
X58979674Y-74703858D01*
X58983184Y-74680197D01*
X58988996Y-74656993D01*
X58997054Y-74634471D01*
X59007282Y-74612847D01*
X59019579Y-74592330D01*
X59033829Y-74573117D01*
X59049893Y-74555393D01*
X59067617Y-74539329D01*
X59086830Y-74525079D01*
X59107347Y-74512782D01*
X59128971Y-74502554D01*
X59151493Y-74494496D01*
X59174697Y-74488684D01*
X59198358Y-74485174D01*
X59222250Y-74484000D01*
X59709750Y-74484000D01*
X59733642Y-74485174D01*
X59733642Y-74485174D01*
G37*
D11*
X59466000Y-75184000D03*
D10*
G36*
X60551142Y-47616674D02*
G01*
X60574803Y-47620184D01*
X60598007Y-47625996D01*
X60620529Y-47634054D01*
X60642153Y-47644282D01*
X60662670Y-47656579D01*
X60681883Y-47670829D01*
X60699607Y-47686893D01*
X60715671Y-47704617D01*
X60729921Y-47723830D01*
X60742218Y-47744347D01*
X60752446Y-47765971D01*
X60760504Y-47788493D01*
X60766316Y-47811697D01*
X60769826Y-47835358D01*
X60771000Y-47859250D01*
X60771000Y-48346750D01*
X60769826Y-48370642D01*
X60766316Y-48394303D01*
X60760504Y-48417507D01*
X60752446Y-48440029D01*
X60742218Y-48461653D01*
X60729921Y-48482170D01*
X60715671Y-48501383D01*
X60699607Y-48519107D01*
X60681883Y-48535171D01*
X60662670Y-48549421D01*
X60642153Y-48561718D01*
X60620529Y-48571946D01*
X60598007Y-48580004D01*
X60574803Y-48585816D01*
X60551142Y-48589326D01*
X60527250Y-48590500D01*
X59614750Y-48590500D01*
X59590858Y-48589326D01*
X59567197Y-48585816D01*
X59543993Y-48580004D01*
X59521471Y-48571946D01*
X59499847Y-48561718D01*
X59479330Y-48549421D01*
X59460117Y-48535171D01*
X59442393Y-48519107D01*
X59426329Y-48501383D01*
X59412079Y-48482170D01*
X59399782Y-48461653D01*
X59389554Y-48440029D01*
X59381496Y-48417507D01*
X59375684Y-48394303D01*
X59372174Y-48370642D01*
X59371000Y-48346750D01*
X59371000Y-47859250D01*
X59372174Y-47835358D01*
X59375684Y-47811697D01*
X59381496Y-47788493D01*
X59389554Y-47765971D01*
X59399782Y-47744347D01*
X59412079Y-47723830D01*
X59426329Y-47704617D01*
X59442393Y-47686893D01*
X59460117Y-47670829D01*
X59479330Y-47656579D01*
X59499847Y-47644282D01*
X59521471Y-47634054D01*
X59543993Y-47625996D01*
X59567197Y-47620184D01*
X59590858Y-47616674D01*
X59614750Y-47615500D01*
X60527250Y-47615500D01*
X60551142Y-47616674D01*
X60551142Y-47616674D01*
G37*
D11*
X60071000Y-48103000D03*
D10*
G36*
X60551142Y-45741674D02*
G01*
X60574803Y-45745184D01*
X60598007Y-45750996D01*
X60620529Y-45759054D01*
X60642153Y-45769282D01*
X60662670Y-45781579D01*
X60681883Y-45795829D01*
X60699607Y-45811893D01*
X60715671Y-45829617D01*
X60729921Y-45848830D01*
X60742218Y-45869347D01*
X60752446Y-45890971D01*
X60760504Y-45913493D01*
X60766316Y-45936697D01*
X60769826Y-45960358D01*
X60771000Y-45984250D01*
X60771000Y-46471750D01*
X60769826Y-46495642D01*
X60766316Y-46519303D01*
X60760504Y-46542507D01*
X60752446Y-46565029D01*
X60742218Y-46586653D01*
X60729921Y-46607170D01*
X60715671Y-46626383D01*
X60699607Y-46644107D01*
X60681883Y-46660171D01*
X60662670Y-46674421D01*
X60642153Y-46686718D01*
X60620529Y-46696946D01*
X60598007Y-46705004D01*
X60574803Y-46710816D01*
X60551142Y-46714326D01*
X60527250Y-46715500D01*
X59614750Y-46715500D01*
X59590858Y-46714326D01*
X59567197Y-46710816D01*
X59543993Y-46705004D01*
X59521471Y-46696946D01*
X59499847Y-46686718D01*
X59479330Y-46674421D01*
X59460117Y-46660171D01*
X59442393Y-46644107D01*
X59426329Y-46626383D01*
X59412079Y-46607170D01*
X59399782Y-46586653D01*
X59389554Y-46565029D01*
X59381496Y-46542507D01*
X59375684Y-46519303D01*
X59372174Y-46495642D01*
X59371000Y-46471750D01*
X59371000Y-45984250D01*
X59372174Y-45960358D01*
X59375684Y-45936697D01*
X59381496Y-45913493D01*
X59389554Y-45890971D01*
X59399782Y-45869347D01*
X59412079Y-45848830D01*
X59426329Y-45829617D01*
X59442393Y-45811893D01*
X59460117Y-45795829D01*
X59479330Y-45781579D01*
X59499847Y-45769282D01*
X59521471Y-45759054D01*
X59543993Y-45750996D01*
X59567197Y-45745184D01*
X59590858Y-45741674D01*
X59614750Y-45740500D01*
X60527250Y-45740500D01*
X60551142Y-45741674D01*
X60551142Y-45741674D01*
G37*
D11*
X60071000Y-46228000D03*
D10*
G36*
X71092142Y-74824674D02*
G01*
X71115803Y-74828184D01*
X71139007Y-74833996D01*
X71161529Y-74842054D01*
X71183153Y-74852282D01*
X71203670Y-74864579D01*
X71222883Y-74878829D01*
X71240607Y-74894893D01*
X71256671Y-74912617D01*
X71270921Y-74931830D01*
X71283218Y-74952347D01*
X71293446Y-74973971D01*
X71301504Y-74996493D01*
X71307316Y-75019697D01*
X71310826Y-75043358D01*
X71312000Y-75067250D01*
X71312000Y-75554750D01*
X71310826Y-75578642D01*
X71307316Y-75602303D01*
X71301504Y-75625507D01*
X71293446Y-75648029D01*
X71283218Y-75669653D01*
X71270921Y-75690170D01*
X71256671Y-75709383D01*
X71240607Y-75727107D01*
X71222883Y-75743171D01*
X71203670Y-75757421D01*
X71183153Y-75769718D01*
X71161529Y-75779946D01*
X71139007Y-75788004D01*
X71115803Y-75793816D01*
X71092142Y-75797326D01*
X71068250Y-75798500D01*
X70155750Y-75798500D01*
X70131858Y-75797326D01*
X70108197Y-75793816D01*
X70084993Y-75788004D01*
X70062471Y-75779946D01*
X70040847Y-75769718D01*
X70020330Y-75757421D01*
X70001117Y-75743171D01*
X69983393Y-75727107D01*
X69967329Y-75709383D01*
X69953079Y-75690170D01*
X69940782Y-75669653D01*
X69930554Y-75648029D01*
X69922496Y-75625507D01*
X69916684Y-75602303D01*
X69913174Y-75578642D01*
X69912000Y-75554750D01*
X69912000Y-75067250D01*
X69913174Y-75043358D01*
X69916684Y-75019697D01*
X69922496Y-74996493D01*
X69930554Y-74973971D01*
X69940782Y-74952347D01*
X69953079Y-74931830D01*
X69967329Y-74912617D01*
X69983393Y-74894893D01*
X70001117Y-74878829D01*
X70020330Y-74864579D01*
X70040847Y-74852282D01*
X70062471Y-74842054D01*
X70084993Y-74833996D01*
X70108197Y-74828184D01*
X70131858Y-74824674D01*
X70155750Y-74823500D01*
X71068250Y-74823500D01*
X71092142Y-74824674D01*
X71092142Y-74824674D01*
G37*
D11*
X70612000Y-75311000D03*
D10*
G36*
X71092142Y-72949674D02*
G01*
X71115803Y-72953184D01*
X71139007Y-72958996D01*
X71161529Y-72967054D01*
X71183153Y-72977282D01*
X71203670Y-72989579D01*
X71222883Y-73003829D01*
X71240607Y-73019893D01*
X71256671Y-73037617D01*
X71270921Y-73056830D01*
X71283218Y-73077347D01*
X71293446Y-73098971D01*
X71301504Y-73121493D01*
X71307316Y-73144697D01*
X71310826Y-73168358D01*
X71312000Y-73192250D01*
X71312000Y-73679750D01*
X71310826Y-73703642D01*
X71307316Y-73727303D01*
X71301504Y-73750507D01*
X71293446Y-73773029D01*
X71283218Y-73794653D01*
X71270921Y-73815170D01*
X71256671Y-73834383D01*
X71240607Y-73852107D01*
X71222883Y-73868171D01*
X71203670Y-73882421D01*
X71183153Y-73894718D01*
X71161529Y-73904946D01*
X71139007Y-73913004D01*
X71115803Y-73918816D01*
X71092142Y-73922326D01*
X71068250Y-73923500D01*
X70155750Y-73923500D01*
X70131858Y-73922326D01*
X70108197Y-73918816D01*
X70084993Y-73913004D01*
X70062471Y-73904946D01*
X70040847Y-73894718D01*
X70020330Y-73882421D01*
X70001117Y-73868171D01*
X69983393Y-73852107D01*
X69967329Y-73834383D01*
X69953079Y-73815170D01*
X69940782Y-73794653D01*
X69930554Y-73773029D01*
X69922496Y-73750507D01*
X69916684Y-73727303D01*
X69913174Y-73703642D01*
X69912000Y-73679750D01*
X69912000Y-73192250D01*
X69913174Y-73168358D01*
X69916684Y-73144697D01*
X69922496Y-73121493D01*
X69930554Y-73098971D01*
X69940782Y-73077347D01*
X69953079Y-73056830D01*
X69967329Y-73037617D01*
X69983393Y-73019893D01*
X70001117Y-73003829D01*
X70020330Y-72989579D01*
X70040847Y-72977282D01*
X70062471Y-72967054D01*
X70084993Y-72958996D01*
X70108197Y-72953184D01*
X70131858Y-72949674D01*
X70155750Y-72948500D01*
X71068250Y-72948500D01*
X71092142Y-72949674D01*
X71092142Y-72949674D01*
G37*
D11*
X70612000Y-73436000D03*
D10*
G36*
X64234142Y-42137174D02*
G01*
X64257803Y-42140684D01*
X64281007Y-42146496D01*
X64303529Y-42154554D01*
X64325153Y-42164782D01*
X64345670Y-42177079D01*
X64364883Y-42191329D01*
X64382607Y-42207393D01*
X64398671Y-42225117D01*
X64412921Y-42244330D01*
X64425218Y-42264847D01*
X64435446Y-42286471D01*
X64443504Y-42308993D01*
X64449316Y-42332197D01*
X64452826Y-42355858D01*
X64454000Y-42379750D01*
X64454000Y-42867250D01*
X64452826Y-42891142D01*
X64449316Y-42914803D01*
X64443504Y-42938007D01*
X64435446Y-42960529D01*
X64425218Y-42982153D01*
X64412921Y-43002670D01*
X64398671Y-43021883D01*
X64382607Y-43039607D01*
X64364883Y-43055671D01*
X64345670Y-43069921D01*
X64325153Y-43082218D01*
X64303529Y-43092446D01*
X64281007Y-43100504D01*
X64257803Y-43106316D01*
X64234142Y-43109826D01*
X64210250Y-43111000D01*
X63297750Y-43111000D01*
X63273858Y-43109826D01*
X63250197Y-43106316D01*
X63226993Y-43100504D01*
X63204471Y-43092446D01*
X63182847Y-43082218D01*
X63162330Y-43069921D01*
X63143117Y-43055671D01*
X63125393Y-43039607D01*
X63109329Y-43021883D01*
X63095079Y-43002670D01*
X63082782Y-42982153D01*
X63072554Y-42960529D01*
X63064496Y-42938007D01*
X63058684Y-42914803D01*
X63055174Y-42891142D01*
X63054000Y-42867250D01*
X63054000Y-42379750D01*
X63055174Y-42355858D01*
X63058684Y-42332197D01*
X63064496Y-42308993D01*
X63072554Y-42286471D01*
X63082782Y-42264847D01*
X63095079Y-42244330D01*
X63109329Y-42225117D01*
X63125393Y-42207393D01*
X63143117Y-42191329D01*
X63162330Y-42177079D01*
X63182847Y-42164782D01*
X63204471Y-42154554D01*
X63226993Y-42146496D01*
X63250197Y-42140684D01*
X63273858Y-42137174D01*
X63297750Y-42136000D01*
X64210250Y-42136000D01*
X64234142Y-42137174D01*
X64234142Y-42137174D01*
G37*
D11*
X63754000Y-42623500D03*
D10*
G36*
X64234142Y-44012174D02*
G01*
X64257803Y-44015684D01*
X64281007Y-44021496D01*
X64303529Y-44029554D01*
X64325153Y-44039782D01*
X64345670Y-44052079D01*
X64364883Y-44066329D01*
X64382607Y-44082393D01*
X64398671Y-44100117D01*
X64412921Y-44119330D01*
X64425218Y-44139847D01*
X64435446Y-44161471D01*
X64443504Y-44183993D01*
X64449316Y-44207197D01*
X64452826Y-44230858D01*
X64454000Y-44254750D01*
X64454000Y-44742250D01*
X64452826Y-44766142D01*
X64449316Y-44789803D01*
X64443504Y-44813007D01*
X64435446Y-44835529D01*
X64425218Y-44857153D01*
X64412921Y-44877670D01*
X64398671Y-44896883D01*
X64382607Y-44914607D01*
X64364883Y-44930671D01*
X64345670Y-44944921D01*
X64325153Y-44957218D01*
X64303529Y-44967446D01*
X64281007Y-44975504D01*
X64257803Y-44981316D01*
X64234142Y-44984826D01*
X64210250Y-44986000D01*
X63297750Y-44986000D01*
X63273858Y-44984826D01*
X63250197Y-44981316D01*
X63226993Y-44975504D01*
X63204471Y-44967446D01*
X63182847Y-44957218D01*
X63162330Y-44944921D01*
X63143117Y-44930671D01*
X63125393Y-44914607D01*
X63109329Y-44896883D01*
X63095079Y-44877670D01*
X63082782Y-44857153D01*
X63072554Y-44835529D01*
X63064496Y-44813007D01*
X63058684Y-44789803D01*
X63055174Y-44766142D01*
X63054000Y-44742250D01*
X63054000Y-44254750D01*
X63055174Y-44230858D01*
X63058684Y-44207197D01*
X63064496Y-44183993D01*
X63072554Y-44161471D01*
X63082782Y-44139847D01*
X63095079Y-44119330D01*
X63109329Y-44100117D01*
X63125393Y-44082393D01*
X63143117Y-44066329D01*
X63162330Y-44052079D01*
X63182847Y-44039782D01*
X63204471Y-44029554D01*
X63226993Y-44021496D01*
X63250197Y-44015684D01*
X63273858Y-44012174D01*
X63297750Y-44011000D01*
X64210250Y-44011000D01*
X64234142Y-44012174D01*
X64234142Y-44012174D01*
G37*
D11*
X63754000Y-44498500D03*
D10*
G36*
X71473142Y-41423674D02*
G01*
X71496803Y-41427184D01*
X71520007Y-41432996D01*
X71542529Y-41441054D01*
X71564153Y-41451282D01*
X71584670Y-41463579D01*
X71603883Y-41477829D01*
X71621607Y-41493893D01*
X71637671Y-41511617D01*
X71651921Y-41530830D01*
X71664218Y-41551347D01*
X71674446Y-41572971D01*
X71682504Y-41595493D01*
X71688316Y-41618697D01*
X71691826Y-41642358D01*
X71693000Y-41666250D01*
X71693000Y-42153750D01*
X71691826Y-42177642D01*
X71688316Y-42201303D01*
X71682504Y-42224507D01*
X71674446Y-42247029D01*
X71664218Y-42268653D01*
X71651921Y-42289170D01*
X71637671Y-42308383D01*
X71621607Y-42326107D01*
X71603883Y-42342171D01*
X71584670Y-42356421D01*
X71564153Y-42368718D01*
X71542529Y-42378946D01*
X71520007Y-42387004D01*
X71496803Y-42392816D01*
X71473142Y-42396326D01*
X71449250Y-42397500D01*
X70536750Y-42397500D01*
X70512858Y-42396326D01*
X70489197Y-42392816D01*
X70465993Y-42387004D01*
X70443471Y-42378946D01*
X70421847Y-42368718D01*
X70401330Y-42356421D01*
X70382117Y-42342171D01*
X70364393Y-42326107D01*
X70348329Y-42308383D01*
X70334079Y-42289170D01*
X70321782Y-42268653D01*
X70311554Y-42247029D01*
X70303496Y-42224507D01*
X70297684Y-42201303D01*
X70294174Y-42177642D01*
X70293000Y-42153750D01*
X70293000Y-41666250D01*
X70294174Y-41642358D01*
X70297684Y-41618697D01*
X70303496Y-41595493D01*
X70311554Y-41572971D01*
X70321782Y-41551347D01*
X70334079Y-41530830D01*
X70348329Y-41511617D01*
X70364393Y-41493893D01*
X70382117Y-41477829D01*
X70401330Y-41463579D01*
X70421847Y-41451282D01*
X70443471Y-41441054D01*
X70465993Y-41432996D01*
X70489197Y-41427184D01*
X70512858Y-41423674D01*
X70536750Y-41422500D01*
X71449250Y-41422500D01*
X71473142Y-41423674D01*
X71473142Y-41423674D01*
G37*
D11*
X70993000Y-41910000D03*
D10*
G36*
X71473142Y-39548674D02*
G01*
X71496803Y-39552184D01*
X71520007Y-39557996D01*
X71542529Y-39566054D01*
X71564153Y-39576282D01*
X71584670Y-39588579D01*
X71603883Y-39602829D01*
X71621607Y-39618893D01*
X71637671Y-39636617D01*
X71651921Y-39655830D01*
X71664218Y-39676347D01*
X71674446Y-39697971D01*
X71682504Y-39720493D01*
X71688316Y-39743697D01*
X71691826Y-39767358D01*
X71693000Y-39791250D01*
X71693000Y-40278750D01*
X71691826Y-40302642D01*
X71688316Y-40326303D01*
X71682504Y-40349507D01*
X71674446Y-40372029D01*
X71664218Y-40393653D01*
X71651921Y-40414170D01*
X71637671Y-40433383D01*
X71621607Y-40451107D01*
X71603883Y-40467171D01*
X71584670Y-40481421D01*
X71564153Y-40493718D01*
X71542529Y-40503946D01*
X71520007Y-40512004D01*
X71496803Y-40517816D01*
X71473142Y-40521326D01*
X71449250Y-40522500D01*
X70536750Y-40522500D01*
X70512858Y-40521326D01*
X70489197Y-40517816D01*
X70465993Y-40512004D01*
X70443471Y-40503946D01*
X70421847Y-40493718D01*
X70401330Y-40481421D01*
X70382117Y-40467171D01*
X70364393Y-40451107D01*
X70348329Y-40433383D01*
X70334079Y-40414170D01*
X70321782Y-40393653D01*
X70311554Y-40372029D01*
X70303496Y-40349507D01*
X70297684Y-40326303D01*
X70294174Y-40302642D01*
X70293000Y-40278750D01*
X70293000Y-39791250D01*
X70294174Y-39767358D01*
X70297684Y-39743697D01*
X70303496Y-39720493D01*
X70311554Y-39697971D01*
X70321782Y-39676347D01*
X70334079Y-39655830D01*
X70348329Y-39636617D01*
X70364393Y-39618893D01*
X70382117Y-39602829D01*
X70401330Y-39588579D01*
X70421847Y-39576282D01*
X70443471Y-39566054D01*
X70465993Y-39557996D01*
X70489197Y-39552184D01*
X70512858Y-39548674D01*
X70536750Y-39547500D01*
X71449250Y-39547500D01*
X71473142Y-39548674D01*
X71473142Y-39548674D01*
G37*
D11*
X70993000Y-40035000D03*
M02*
