G04 #@! TF.GenerationSoftware,KiCad,Pcbnew,(5.1.2-1)-1*
G04 #@! TF.CreationDate,2019-08-21T11:01:54-07:00*
G04 #@! TF.ProjectId,AS3320_VCF,41533333-3230-45f5-9643-462e6b696361,rev?*
G04 #@! TF.SameCoordinates,Original*
G04 #@! TF.FileFunction,Soldermask,Bot*
G04 #@! TF.FilePolarity,Negative*
%FSLAX46Y46*%
G04 Gerber Fmt 4.6, Leading zero omitted, Abs format (unit mm)*
G04 Created by KiCad (PCBNEW (5.1.2-1)-1) date 2019-08-21 11:01:54*
%MOMM*%
%LPD*%
G04 APERTURE LIST*
%ADD10C,0.100000*%
G04 APERTURE END LIST*
D10*
G36*
X69521294Y-116446633D02*
G01*
X69693695Y-116498931D01*
X69852583Y-116583858D01*
X69991849Y-116698151D01*
X70106142Y-116837417D01*
X70191069Y-116996305D01*
X70243367Y-117168706D01*
X70261025Y-117348000D01*
X70243367Y-117527294D01*
X70191069Y-117699695D01*
X70106142Y-117858583D01*
X69991849Y-117997849D01*
X69852583Y-118112142D01*
X69693695Y-118197069D01*
X69521294Y-118249367D01*
X69386931Y-118262600D01*
X69297069Y-118262600D01*
X69162706Y-118249367D01*
X68990305Y-118197069D01*
X68831417Y-118112142D01*
X68692151Y-117997849D01*
X68577858Y-117858583D01*
X68492931Y-117699695D01*
X68440633Y-117527294D01*
X68422975Y-117348000D01*
X68440633Y-117168706D01*
X68492931Y-116996305D01*
X68577858Y-116837417D01*
X68692151Y-116698151D01*
X68831417Y-116583858D01*
X68990305Y-116498931D01*
X69162706Y-116446633D01*
X69297069Y-116433400D01*
X69386931Y-116433400D01*
X69521294Y-116446633D01*
X69521294Y-116446633D01*
G37*
G36*
X67716600Y-118262600D02*
G01*
X65887400Y-118262600D01*
X65887400Y-116433400D01*
X67716600Y-116433400D01*
X67716600Y-118262600D01*
X67716600Y-118262600D01*
G37*
G36*
X59379997Y-115515051D02*
G01*
X59413652Y-115525261D01*
X59444665Y-115541838D01*
X59471851Y-115564149D01*
X59494162Y-115591335D01*
X59510739Y-115622348D01*
X59520949Y-115656003D01*
X59525000Y-115697138D01*
X59525000Y-118026862D01*
X59520949Y-118067997D01*
X59510739Y-118101652D01*
X59494162Y-118132665D01*
X59471851Y-118159851D01*
X59444665Y-118182162D01*
X59413652Y-118198739D01*
X59379997Y-118208949D01*
X59338862Y-118213000D01*
X58009138Y-118213000D01*
X57968003Y-118208949D01*
X57934348Y-118198739D01*
X57903335Y-118182162D01*
X57876149Y-118159851D01*
X57853838Y-118132665D01*
X57837261Y-118101652D01*
X57827051Y-118067997D01*
X57823000Y-118026862D01*
X57823000Y-115697138D01*
X57827051Y-115656003D01*
X57837261Y-115622348D01*
X57853838Y-115591335D01*
X57876149Y-115564149D01*
X57903335Y-115541838D01*
X57934348Y-115525261D01*
X57968003Y-115515051D01*
X58009138Y-115511000D01*
X59338862Y-115511000D01*
X59379997Y-115515051D01*
X59379997Y-115515051D01*
G37*
G36*
X66981294Y-113906633D02*
G01*
X67153695Y-113958931D01*
X67312583Y-114043858D01*
X67451849Y-114158151D01*
X67566142Y-114297417D01*
X67651069Y-114456305D01*
X67703367Y-114628706D01*
X67721025Y-114808000D01*
X67703367Y-114987294D01*
X67651069Y-115159695D01*
X67566142Y-115318583D01*
X67451849Y-115457849D01*
X67312583Y-115572142D01*
X67153695Y-115657069D01*
X66981294Y-115709367D01*
X66846931Y-115722600D01*
X66757069Y-115722600D01*
X66622706Y-115709367D01*
X66450305Y-115657069D01*
X66291417Y-115572142D01*
X66152151Y-115457849D01*
X66037858Y-115318583D01*
X65952931Y-115159695D01*
X65900633Y-114987294D01*
X65882975Y-114808000D01*
X65900633Y-114628706D01*
X65952931Y-114456305D01*
X66037858Y-114297417D01*
X66152151Y-114158151D01*
X66291417Y-114043858D01*
X66450305Y-113958931D01*
X66622706Y-113906633D01*
X66757069Y-113893400D01*
X66846931Y-113893400D01*
X66981294Y-113906633D01*
X66981294Y-113906633D01*
G37*
G36*
X69521294Y-113906633D02*
G01*
X69693695Y-113958931D01*
X69852583Y-114043858D01*
X69991849Y-114158151D01*
X70106142Y-114297417D01*
X70191069Y-114456305D01*
X70243367Y-114628706D01*
X70261025Y-114808000D01*
X70243367Y-114987294D01*
X70191069Y-115159695D01*
X70106142Y-115318583D01*
X69991849Y-115457849D01*
X69852583Y-115572142D01*
X69693695Y-115657069D01*
X69521294Y-115709367D01*
X69386931Y-115722600D01*
X69297069Y-115722600D01*
X69162706Y-115709367D01*
X68990305Y-115657069D01*
X68831417Y-115572142D01*
X68692151Y-115457849D01*
X68577858Y-115318583D01*
X68492931Y-115159695D01*
X68440633Y-114987294D01*
X68422975Y-114808000D01*
X68440633Y-114628706D01*
X68492931Y-114456305D01*
X68577858Y-114297417D01*
X68692151Y-114158151D01*
X68831417Y-114043858D01*
X68990305Y-113958931D01*
X69162706Y-113906633D01*
X69297069Y-113893400D01*
X69386931Y-113893400D01*
X69521294Y-113906633D01*
X69521294Y-113906633D01*
G37*
G36*
X59379997Y-111915051D02*
G01*
X59413652Y-111925261D01*
X59444665Y-111941838D01*
X59471851Y-111964149D01*
X59494162Y-111991335D01*
X59510739Y-112022348D01*
X59520949Y-112056003D01*
X59525000Y-112097138D01*
X59525000Y-114426862D01*
X59520949Y-114467997D01*
X59510739Y-114501652D01*
X59494162Y-114532665D01*
X59471851Y-114559851D01*
X59444665Y-114582162D01*
X59413652Y-114598739D01*
X59379997Y-114608949D01*
X59338862Y-114613000D01*
X58009138Y-114613000D01*
X57968003Y-114608949D01*
X57934348Y-114598739D01*
X57903335Y-114582162D01*
X57876149Y-114559851D01*
X57853838Y-114532665D01*
X57837261Y-114501652D01*
X57827051Y-114467997D01*
X57823000Y-114426862D01*
X57823000Y-112097138D01*
X57827051Y-112056003D01*
X57837261Y-112022348D01*
X57853838Y-111991335D01*
X57876149Y-111964149D01*
X57903335Y-111941838D01*
X57934348Y-111925261D01*
X57968003Y-111915051D01*
X58009138Y-111911000D01*
X59338862Y-111911000D01*
X59379997Y-111915051D01*
X59379997Y-111915051D01*
G37*
G36*
X66981294Y-111366633D02*
G01*
X67153695Y-111418931D01*
X67312583Y-111503858D01*
X67451849Y-111618151D01*
X67566142Y-111757417D01*
X67651069Y-111916305D01*
X67703367Y-112088706D01*
X67721025Y-112268000D01*
X67703367Y-112447294D01*
X67651069Y-112619695D01*
X67566142Y-112778583D01*
X67451849Y-112917849D01*
X67312583Y-113032142D01*
X67153695Y-113117069D01*
X66981294Y-113169367D01*
X66846931Y-113182600D01*
X66757069Y-113182600D01*
X66622706Y-113169367D01*
X66450305Y-113117069D01*
X66291417Y-113032142D01*
X66152151Y-112917849D01*
X66037858Y-112778583D01*
X65952931Y-112619695D01*
X65900633Y-112447294D01*
X65882975Y-112268000D01*
X65900633Y-112088706D01*
X65952931Y-111916305D01*
X66037858Y-111757417D01*
X66152151Y-111618151D01*
X66291417Y-111503858D01*
X66450305Y-111418931D01*
X66622706Y-111366633D01*
X66757069Y-111353400D01*
X66846931Y-111353400D01*
X66981294Y-111366633D01*
X66981294Y-111366633D01*
G37*
G36*
X69521294Y-111366633D02*
G01*
X69693695Y-111418931D01*
X69852583Y-111503858D01*
X69991849Y-111618151D01*
X70106142Y-111757417D01*
X70191069Y-111916305D01*
X70243367Y-112088706D01*
X70261025Y-112268000D01*
X70243367Y-112447294D01*
X70191069Y-112619695D01*
X70106142Y-112778583D01*
X69991849Y-112917849D01*
X69852583Y-113032142D01*
X69693695Y-113117069D01*
X69521294Y-113169367D01*
X69386931Y-113182600D01*
X69297069Y-113182600D01*
X69162706Y-113169367D01*
X68990305Y-113117069D01*
X68831417Y-113032142D01*
X68692151Y-112917849D01*
X68577858Y-112778583D01*
X68492931Y-112619695D01*
X68440633Y-112447294D01*
X68422975Y-112268000D01*
X68440633Y-112088706D01*
X68492931Y-111916305D01*
X68577858Y-111757417D01*
X68692151Y-111618151D01*
X68831417Y-111503858D01*
X68990305Y-111418931D01*
X69162706Y-111366633D01*
X69297069Y-111353400D01*
X69386931Y-111353400D01*
X69521294Y-111366633D01*
X69521294Y-111366633D01*
G37*
G36*
X59379997Y-108149051D02*
G01*
X59413652Y-108159261D01*
X59444665Y-108175838D01*
X59471851Y-108198149D01*
X59494162Y-108225335D01*
X59510739Y-108256348D01*
X59520949Y-108290003D01*
X59525000Y-108331138D01*
X59525000Y-110660862D01*
X59520949Y-110701997D01*
X59510739Y-110735652D01*
X59494162Y-110766665D01*
X59471851Y-110793851D01*
X59444665Y-110816162D01*
X59413652Y-110832739D01*
X59379997Y-110842949D01*
X59338862Y-110847000D01*
X58009138Y-110847000D01*
X57968003Y-110842949D01*
X57934348Y-110832739D01*
X57903335Y-110816162D01*
X57876149Y-110793851D01*
X57853838Y-110766665D01*
X57837261Y-110735652D01*
X57827051Y-110701997D01*
X57823000Y-110660862D01*
X57823000Y-108331138D01*
X57827051Y-108290003D01*
X57837261Y-108256348D01*
X57853838Y-108225335D01*
X57876149Y-108198149D01*
X57903335Y-108175838D01*
X57934348Y-108159261D01*
X57968003Y-108149051D01*
X58009138Y-108145000D01*
X59338862Y-108145000D01*
X59379997Y-108149051D01*
X59379997Y-108149051D01*
G37*
G36*
X66981294Y-108826633D02*
G01*
X67153695Y-108878931D01*
X67312583Y-108963858D01*
X67451849Y-109078151D01*
X67566142Y-109217417D01*
X67651069Y-109376305D01*
X67703367Y-109548706D01*
X67721025Y-109728000D01*
X67703367Y-109907294D01*
X67651069Y-110079695D01*
X67566142Y-110238583D01*
X67451849Y-110377849D01*
X67312583Y-110492142D01*
X67153695Y-110577069D01*
X66981294Y-110629367D01*
X66846931Y-110642600D01*
X66757069Y-110642600D01*
X66622706Y-110629367D01*
X66450305Y-110577069D01*
X66291417Y-110492142D01*
X66152151Y-110377849D01*
X66037858Y-110238583D01*
X65952931Y-110079695D01*
X65900633Y-109907294D01*
X65882975Y-109728000D01*
X65900633Y-109548706D01*
X65952931Y-109376305D01*
X66037858Y-109217417D01*
X66152151Y-109078151D01*
X66291417Y-108963858D01*
X66450305Y-108878931D01*
X66622706Y-108826633D01*
X66757069Y-108813400D01*
X66846931Y-108813400D01*
X66981294Y-108826633D01*
X66981294Y-108826633D01*
G37*
G36*
X69521294Y-108826633D02*
G01*
X69693695Y-108878931D01*
X69852583Y-108963858D01*
X69991849Y-109078151D01*
X70106142Y-109217417D01*
X70191069Y-109376305D01*
X70243367Y-109548706D01*
X70261025Y-109728000D01*
X70243367Y-109907294D01*
X70191069Y-110079695D01*
X70106142Y-110238583D01*
X69991849Y-110377849D01*
X69852583Y-110492142D01*
X69693695Y-110577069D01*
X69521294Y-110629367D01*
X69386931Y-110642600D01*
X69297069Y-110642600D01*
X69162706Y-110629367D01*
X68990305Y-110577069D01*
X68831417Y-110492142D01*
X68692151Y-110377849D01*
X68577858Y-110238583D01*
X68492931Y-110079695D01*
X68440633Y-109907294D01*
X68422975Y-109728000D01*
X68440633Y-109548706D01*
X68492931Y-109376305D01*
X68577858Y-109217417D01*
X68692151Y-109078151D01*
X68831417Y-108963858D01*
X68990305Y-108878931D01*
X69162706Y-108826633D01*
X69297069Y-108813400D01*
X69386931Y-108813400D01*
X69521294Y-108826633D01*
X69521294Y-108826633D01*
G37*
G36*
X69521294Y-106286633D02*
G01*
X69693695Y-106338931D01*
X69852583Y-106423858D01*
X69991849Y-106538151D01*
X70106142Y-106677417D01*
X70191069Y-106836305D01*
X70243367Y-107008706D01*
X70261025Y-107188000D01*
X70243367Y-107367294D01*
X70191069Y-107539695D01*
X70106142Y-107698583D01*
X69991849Y-107837849D01*
X69852583Y-107952142D01*
X69693695Y-108037069D01*
X69521294Y-108089367D01*
X69386931Y-108102600D01*
X69297069Y-108102600D01*
X69162706Y-108089367D01*
X68990305Y-108037069D01*
X68831417Y-107952142D01*
X68692151Y-107837849D01*
X68577858Y-107698583D01*
X68492931Y-107539695D01*
X68440633Y-107367294D01*
X68422975Y-107188000D01*
X68440633Y-107008706D01*
X68492931Y-106836305D01*
X68577858Y-106677417D01*
X68692151Y-106538151D01*
X68831417Y-106423858D01*
X68990305Y-106338931D01*
X69162706Y-106286633D01*
X69297069Y-106273400D01*
X69386931Y-106273400D01*
X69521294Y-106286633D01*
X69521294Y-106286633D01*
G37*
G36*
X66981294Y-106286633D02*
G01*
X67153695Y-106338931D01*
X67312583Y-106423858D01*
X67451849Y-106538151D01*
X67566142Y-106677417D01*
X67651069Y-106836305D01*
X67703367Y-107008706D01*
X67721025Y-107188000D01*
X67703367Y-107367294D01*
X67651069Y-107539695D01*
X67566142Y-107698583D01*
X67451849Y-107837849D01*
X67312583Y-107952142D01*
X67153695Y-108037069D01*
X66981294Y-108089367D01*
X66846931Y-108102600D01*
X66757069Y-108102600D01*
X66622706Y-108089367D01*
X66450305Y-108037069D01*
X66291417Y-107952142D01*
X66152151Y-107837849D01*
X66037858Y-107698583D01*
X65952931Y-107539695D01*
X65900633Y-107367294D01*
X65882975Y-107188000D01*
X65900633Y-107008706D01*
X65952931Y-106836305D01*
X66037858Y-106677417D01*
X66152151Y-106538151D01*
X66291417Y-106423858D01*
X66450305Y-106338931D01*
X66622706Y-106286633D01*
X66757069Y-106273400D01*
X66846931Y-106273400D01*
X66981294Y-106286633D01*
X66981294Y-106286633D01*
G37*
G36*
X59379997Y-104549051D02*
G01*
X59413652Y-104559261D01*
X59444665Y-104575838D01*
X59471851Y-104598149D01*
X59494162Y-104625335D01*
X59510739Y-104656348D01*
X59520949Y-104690003D01*
X59525000Y-104731138D01*
X59525000Y-107060862D01*
X59520949Y-107101997D01*
X59510739Y-107135652D01*
X59494162Y-107166665D01*
X59471851Y-107193851D01*
X59444665Y-107216162D01*
X59413652Y-107232739D01*
X59379997Y-107242949D01*
X59338862Y-107247000D01*
X58009138Y-107247000D01*
X57968003Y-107242949D01*
X57934348Y-107232739D01*
X57903335Y-107216162D01*
X57876149Y-107193851D01*
X57853838Y-107166665D01*
X57837261Y-107135652D01*
X57827051Y-107101997D01*
X57823000Y-107060862D01*
X57823000Y-104731138D01*
X57827051Y-104690003D01*
X57837261Y-104656348D01*
X57853838Y-104625335D01*
X57876149Y-104598149D01*
X57903335Y-104575838D01*
X57934348Y-104559261D01*
X57968003Y-104549051D01*
X58009138Y-104545000D01*
X59338862Y-104545000D01*
X59379997Y-104549051D01*
X59379997Y-104549051D01*
G37*
G36*
X56146000Y-101993000D02*
G01*
X54344000Y-101993000D01*
X54344000Y-100191000D01*
X56146000Y-100191000D01*
X56146000Y-101993000D01*
X56146000Y-101993000D01*
G37*
G36*
X66531443Y-99562519D02*
G01*
X66597627Y-99569037D01*
X66767466Y-99620557D01*
X66923991Y-99704222D01*
X66959729Y-99733552D01*
X67061186Y-99816814D01*
X67144448Y-99918271D01*
X67173778Y-99954009D01*
X67257443Y-100110534D01*
X67308963Y-100280373D01*
X67326359Y-100457000D01*
X67308963Y-100633627D01*
X67257443Y-100803466D01*
X67173778Y-100959991D01*
X67144448Y-100995729D01*
X67061186Y-101097186D01*
X66959729Y-101180448D01*
X66923991Y-101209778D01*
X66767466Y-101293443D01*
X66597627Y-101344963D01*
X66531442Y-101351482D01*
X66465260Y-101358000D01*
X66376740Y-101358000D01*
X66310558Y-101351482D01*
X66244373Y-101344963D01*
X66074534Y-101293443D01*
X65918009Y-101209778D01*
X65882271Y-101180448D01*
X65780814Y-101097186D01*
X65697552Y-100995729D01*
X65668222Y-100959991D01*
X65584557Y-100803466D01*
X65533037Y-100633627D01*
X65515641Y-100457000D01*
X65533037Y-100280373D01*
X65584557Y-100110534D01*
X65668222Y-99954009D01*
X65697552Y-99918271D01*
X65780814Y-99816814D01*
X65882271Y-99733552D01*
X65918009Y-99704222D01*
X66074534Y-99620557D01*
X66244373Y-99569037D01*
X66310557Y-99562519D01*
X66376740Y-99556000D01*
X66465260Y-99556000D01*
X66531443Y-99562519D01*
X66531443Y-99562519D01*
G37*
G36*
X55355443Y-97657519D02*
G01*
X55421627Y-97664037D01*
X55591466Y-97715557D01*
X55747991Y-97799222D01*
X55783729Y-97828552D01*
X55885186Y-97911814D01*
X55968448Y-98013271D01*
X55997778Y-98049009D01*
X56081443Y-98205534D01*
X56132963Y-98375373D01*
X56150359Y-98552000D01*
X56132963Y-98728627D01*
X56081443Y-98898466D01*
X55997778Y-99054991D01*
X55968448Y-99090729D01*
X55885186Y-99192186D01*
X55783729Y-99275448D01*
X55747991Y-99304778D01*
X55591466Y-99388443D01*
X55421627Y-99439963D01*
X55355443Y-99446481D01*
X55289260Y-99453000D01*
X55200740Y-99453000D01*
X55134557Y-99446481D01*
X55068373Y-99439963D01*
X54898534Y-99388443D01*
X54742009Y-99304778D01*
X54706271Y-99275448D01*
X54604814Y-99192186D01*
X54521552Y-99090729D01*
X54492222Y-99054991D01*
X54408557Y-98898466D01*
X54357037Y-98728627D01*
X54339641Y-98552000D01*
X54357037Y-98375373D01*
X54408557Y-98205534D01*
X54492222Y-98049009D01*
X54521552Y-98013271D01*
X54604814Y-97911814D01*
X54706271Y-97828552D01*
X54742009Y-97799222D01*
X54898534Y-97715557D01*
X55068373Y-97664037D01*
X55134557Y-97657519D01*
X55200740Y-97651000D01*
X55289260Y-97651000D01*
X55355443Y-97657519D01*
X55355443Y-97657519D01*
G37*
G36*
X66531443Y-97022519D02*
G01*
X66597627Y-97029037D01*
X66767466Y-97080557D01*
X66923991Y-97164222D01*
X66956772Y-97191125D01*
X67061186Y-97276814D01*
X67144448Y-97378271D01*
X67173778Y-97414009D01*
X67257443Y-97570534D01*
X67308963Y-97740373D01*
X67326359Y-97917000D01*
X67308963Y-98093627D01*
X67257443Y-98263466D01*
X67173778Y-98419991D01*
X67144448Y-98455729D01*
X67061186Y-98557186D01*
X66959729Y-98640448D01*
X66923991Y-98669778D01*
X66767466Y-98753443D01*
X66597627Y-98804963D01*
X66531443Y-98811481D01*
X66465260Y-98818000D01*
X66376740Y-98818000D01*
X66310557Y-98811481D01*
X66244373Y-98804963D01*
X66074534Y-98753443D01*
X65918009Y-98669778D01*
X65882271Y-98640448D01*
X65780814Y-98557186D01*
X65697552Y-98455729D01*
X65668222Y-98419991D01*
X65584557Y-98263466D01*
X65533037Y-98093627D01*
X65515641Y-97917000D01*
X65533037Y-97740373D01*
X65584557Y-97570534D01*
X65668222Y-97414009D01*
X65697552Y-97378271D01*
X65780814Y-97276814D01*
X65885228Y-97191125D01*
X65918009Y-97164222D01*
X66074534Y-97080557D01*
X66244373Y-97029037D01*
X66310557Y-97022519D01*
X66376740Y-97016000D01*
X66465260Y-97016000D01*
X66531443Y-97022519D01*
X66531443Y-97022519D01*
G37*
G36*
X70864589Y-97028876D02*
G01*
X70963893Y-97048629D01*
X71104206Y-97106748D01*
X71230484Y-97191125D01*
X71337875Y-97298516D01*
X71422252Y-97424794D01*
X71480371Y-97565107D01*
X71510000Y-97714063D01*
X71510000Y-97865937D01*
X71480371Y-98014893D01*
X71422252Y-98155206D01*
X71337875Y-98281484D01*
X71230484Y-98388875D01*
X71104206Y-98473252D01*
X70963893Y-98531371D01*
X70864589Y-98551124D01*
X70814938Y-98561000D01*
X70663062Y-98561000D01*
X70613411Y-98551124D01*
X70514107Y-98531371D01*
X70373794Y-98473252D01*
X70247516Y-98388875D01*
X70140125Y-98281484D01*
X70055748Y-98155206D01*
X69997629Y-98014893D01*
X69968000Y-97865937D01*
X69968000Y-97714063D01*
X69997629Y-97565107D01*
X70055748Y-97424794D01*
X70140125Y-97298516D01*
X70247516Y-97191125D01*
X70373794Y-97106748D01*
X70514107Y-97048629D01*
X70613411Y-97028876D01*
X70663062Y-97019000D01*
X70814938Y-97019000D01*
X70864589Y-97028876D01*
X70864589Y-97028876D01*
G37*
G36*
X67322000Y-96278000D02*
G01*
X65520000Y-96278000D01*
X65520000Y-94476000D01*
X67322000Y-94476000D01*
X67322000Y-96278000D01*
X67322000Y-96278000D01*
G37*
G36*
X55284823Y-94538313D02*
G01*
X55445242Y-94586976D01*
X55565256Y-94651125D01*
X55593078Y-94665996D01*
X55722659Y-94772341D01*
X55829004Y-94901922D01*
X55829005Y-94901924D01*
X55908024Y-95049758D01*
X55956687Y-95210177D01*
X55973117Y-95377000D01*
X55956687Y-95543823D01*
X55908024Y-95704242D01*
X55837114Y-95836906D01*
X55829004Y-95852078D01*
X55722659Y-95981659D01*
X55593078Y-96088004D01*
X55593076Y-96088005D01*
X55445242Y-96167024D01*
X55284823Y-96215687D01*
X55159804Y-96228000D01*
X55076196Y-96228000D01*
X54951177Y-96215687D01*
X54790758Y-96167024D01*
X54642924Y-96088005D01*
X54642922Y-96088004D01*
X54513341Y-95981659D01*
X54406996Y-95852078D01*
X54398886Y-95836906D01*
X54327976Y-95704242D01*
X54279313Y-95543823D01*
X54262883Y-95377000D01*
X54279313Y-95210177D01*
X54327976Y-95049758D01*
X54406995Y-94901924D01*
X54406996Y-94901922D01*
X54513341Y-94772341D01*
X54642922Y-94665996D01*
X54670744Y-94651125D01*
X54790758Y-94586976D01*
X54951177Y-94538313D01*
X55076196Y-94526000D01*
X55159804Y-94526000D01*
X55284823Y-94538313D01*
X55284823Y-94538313D01*
G37*
G36*
X57824823Y-94538313D02*
G01*
X57985242Y-94586976D01*
X58105256Y-94651125D01*
X58133078Y-94665996D01*
X58262659Y-94772341D01*
X58369004Y-94901922D01*
X58369005Y-94901924D01*
X58448024Y-95049758D01*
X58496687Y-95210177D01*
X58513117Y-95377000D01*
X58496687Y-95543823D01*
X58448024Y-95704242D01*
X58377114Y-95836906D01*
X58369004Y-95852078D01*
X58262659Y-95981659D01*
X58133078Y-96088004D01*
X58133076Y-96088005D01*
X57985242Y-96167024D01*
X57824823Y-96215687D01*
X57699804Y-96228000D01*
X57616196Y-96228000D01*
X57491177Y-96215687D01*
X57330758Y-96167024D01*
X57182924Y-96088005D01*
X57182922Y-96088004D01*
X57053341Y-95981659D01*
X56946996Y-95852078D01*
X56938886Y-95836906D01*
X56867976Y-95704242D01*
X56819313Y-95543823D01*
X56802883Y-95377000D01*
X56819313Y-95210177D01*
X56867976Y-95049758D01*
X56946995Y-94901924D01*
X56946996Y-94901922D01*
X57053341Y-94772341D01*
X57182922Y-94665996D01*
X57210744Y-94651125D01*
X57330758Y-94586976D01*
X57491177Y-94538313D01*
X57616196Y-94526000D01*
X57699804Y-94526000D01*
X57824823Y-94538313D01*
X57824823Y-94538313D01*
G37*
G36*
X60364823Y-94538313D02*
G01*
X60525242Y-94586976D01*
X60645256Y-94651125D01*
X60673078Y-94665996D01*
X60802659Y-94772341D01*
X60909004Y-94901922D01*
X60909005Y-94901924D01*
X60988024Y-95049758D01*
X61036687Y-95210177D01*
X61053117Y-95377000D01*
X61036687Y-95543823D01*
X60988024Y-95704242D01*
X60917114Y-95836906D01*
X60909004Y-95852078D01*
X60802659Y-95981659D01*
X60673078Y-96088004D01*
X60673076Y-96088005D01*
X60525242Y-96167024D01*
X60364823Y-96215687D01*
X60239804Y-96228000D01*
X60156196Y-96228000D01*
X60031177Y-96215687D01*
X59870758Y-96167024D01*
X59722924Y-96088005D01*
X59722922Y-96088004D01*
X59593341Y-95981659D01*
X59486996Y-95852078D01*
X59478886Y-95836906D01*
X59407976Y-95704242D01*
X59359313Y-95543823D01*
X59342883Y-95377000D01*
X59359313Y-95210177D01*
X59407976Y-95049758D01*
X59486995Y-94901924D01*
X59486996Y-94901922D01*
X59593341Y-94772341D01*
X59722922Y-94665996D01*
X59750744Y-94651125D01*
X59870758Y-94586976D01*
X60031177Y-94538313D01*
X60156196Y-94526000D01*
X60239804Y-94526000D01*
X60364823Y-94538313D01*
X60364823Y-94538313D01*
G37*
G36*
X62904823Y-94538313D02*
G01*
X63065242Y-94586976D01*
X63185256Y-94651125D01*
X63213078Y-94665996D01*
X63342659Y-94772341D01*
X63449004Y-94901922D01*
X63449005Y-94901924D01*
X63528024Y-95049758D01*
X63576687Y-95210177D01*
X63593117Y-95377000D01*
X63576687Y-95543823D01*
X63528024Y-95704242D01*
X63457114Y-95836906D01*
X63449004Y-95852078D01*
X63342659Y-95981659D01*
X63213078Y-96088004D01*
X63213076Y-96088005D01*
X63065242Y-96167024D01*
X62904823Y-96215687D01*
X62779804Y-96228000D01*
X62696196Y-96228000D01*
X62571177Y-96215687D01*
X62410758Y-96167024D01*
X62262924Y-96088005D01*
X62262922Y-96088004D01*
X62133341Y-95981659D01*
X62026996Y-95852078D01*
X62018886Y-95836906D01*
X61947976Y-95704242D01*
X61899313Y-95543823D01*
X61882883Y-95377000D01*
X61899313Y-95210177D01*
X61947976Y-95049758D01*
X62026995Y-94901924D01*
X62026996Y-94901922D01*
X62133341Y-94772341D01*
X62262922Y-94665996D01*
X62290744Y-94651125D01*
X62410758Y-94586976D01*
X62571177Y-94538313D01*
X62696196Y-94526000D01*
X62779804Y-94526000D01*
X62904823Y-94538313D01*
X62904823Y-94538313D01*
G37*
G36*
X70864589Y-94488876D02*
G01*
X70963893Y-94508629D01*
X71104206Y-94566748D01*
X71230484Y-94651125D01*
X71337875Y-94758516D01*
X71422252Y-94884794D01*
X71480371Y-95025107D01*
X71510000Y-95174063D01*
X71510000Y-95325937D01*
X71480371Y-95474893D01*
X71422252Y-95615206D01*
X71337875Y-95741484D01*
X71230484Y-95848875D01*
X71104206Y-95933252D01*
X70963893Y-95991371D01*
X70864589Y-96011124D01*
X70814938Y-96021000D01*
X70663062Y-96021000D01*
X70613411Y-96011124D01*
X70514107Y-95991371D01*
X70373794Y-95933252D01*
X70247516Y-95848875D01*
X70140125Y-95741484D01*
X70055748Y-95615206D01*
X69997629Y-95474893D01*
X69968000Y-95325937D01*
X69968000Y-95174063D01*
X69997629Y-95025107D01*
X70055748Y-94884794D01*
X70140125Y-94758516D01*
X70247516Y-94651125D01*
X70373794Y-94566748D01*
X70514107Y-94508629D01*
X70613411Y-94488876D01*
X70663062Y-94479000D01*
X70814938Y-94479000D01*
X70864589Y-94488876D01*
X70864589Y-94488876D01*
G37*
G36*
X70864589Y-91948876D02*
G01*
X70963893Y-91968629D01*
X71104206Y-92026748D01*
X71230484Y-92111125D01*
X71337875Y-92218516D01*
X71422252Y-92344794D01*
X71480371Y-92485107D01*
X71510000Y-92634063D01*
X71510000Y-92785937D01*
X71480371Y-92934893D01*
X71422252Y-93075206D01*
X71337875Y-93201484D01*
X71230484Y-93308875D01*
X71104206Y-93393252D01*
X70963893Y-93451371D01*
X70864589Y-93471124D01*
X70814938Y-93481000D01*
X70663062Y-93481000D01*
X70613411Y-93471124D01*
X70514107Y-93451371D01*
X70373794Y-93393252D01*
X70247516Y-93308875D01*
X70140125Y-93201484D01*
X70055748Y-93075206D01*
X69997629Y-92934893D01*
X69968000Y-92785937D01*
X69968000Y-92634063D01*
X69997629Y-92485107D01*
X70055748Y-92344794D01*
X70140125Y-92218516D01*
X70247516Y-92111125D01*
X70373794Y-92026748D01*
X70514107Y-91968629D01*
X70613411Y-91948876D01*
X70663062Y-91939000D01*
X70814938Y-91939000D01*
X70864589Y-91948876D01*
X70864589Y-91948876D01*
G37*
G36*
X63589000Y-88608000D02*
G01*
X61887000Y-88608000D01*
X61887000Y-86906000D01*
X63589000Y-86906000D01*
X63589000Y-88608000D01*
X63589000Y-88608000D01*
G37*
G36*
X60364823Y-86918313D02*
G01*
X60525242Y-86966976D01*
X60657906Y-87037886D01*
X60673078Y-87045996D01*
X60802659Y-87152341D01*
X60909004Y-87281922D01*
X60909005Y-87281924D01*
X60988024Y-87429758D01*
X61036687Y-87590177D01*
X61053117Y-87757000D01*
X61036687Y-87923823D01*
X60988024Y-88084242D01*
X60917114Y-88216906D01*
X60909004Y-88232078D01*
X60802659Y-88361659D01*
X60673078Y-88468004D01*
X60673076Y-88468005D01*
X60525242Y-88547024D01*
X60364823Y-88595687D01*
X60239804Y-88608000D01*
X60156196Y-88608000D01*
X60031177Y-88595687D01*
X59870758Y-88547024D01*
X59722924Y-88468005D01*
X59722922Y-88468004D01*
X59593341Y-88361659D01*
X59486996Y-88232078D01*
X59478886Y-88216906D01*
X59407976Y-88084242D01*
X59359313Y-87923823D01*
X59342883Y-87757000D01*
X59359313Y-87590177D01*
X59407976Y-87429758D01*
X59486995Y-87281924D01*
X59486996Y-87281922D01*
X59593341Y-87152341D01*
X59722922Y-87045996D01*
X59738094Y-87037886D01*
X59870758Y-86966976D01*
X60031177Y-86918313D01*
X60156196Y-86906000D01*
X60239804Y-86906000D01*
X60364823Y-86918313D01*
X60364823Y-86918313D01*
G37*
G36*
X57824823Y-86918313D02*
G01*
X57985242Y-86966976D01*
X58117906Y-87037886D01*
X58133078Y-87045996D01*
X58262659Y-87152341D01*
X58369004Y-87281922D01*
X58369005Y-87281924D01*
X58448024Y-87429758D01*
X58496687Y-87590177D01*
X58513117Y-87757000D01*
X58496687Y-87923823D01*
X58448024Y-88084242D01*
X58377114Y-88216906D01*
X58369004Y-88232078D01*
X58262659Y-88361659D01*
X58133078Y-88468004D01*
X58133076Y-88468005D01*
X57985242Y-88547024D01*
X57824823Y-88595687D01*
X57699804Y-88608000D01*
X57616196Y-88608000D01*
X57491177Y-88595687D01*
X57330758Y-88547024D01*
X57182924Y-88468005D01*
X57182922Y-88468004D01*
X57053341Y-88361659D01*
X56946996Y-88232078D01*
X56938886Y-88216906D01*
X56867976Y-88084242D01*
X56819313Y-87923823D01*
X56802883Y-87757000D01*
X56819313Y-87590177D01*
X56867976Y-87429758D01*
X56946995Y-87281924D01*
X56946996Y-87281922D01*
X57053341Y-87152341D01*
X57182922Y-87045996D01*
X57198094Y-87037886D01*
X57330758Y-86966976D01*
X57491177Y-86918313D01*
X57616196Y-86906000D01*
X57699804Y-86906000D01*
X57824823Y-86918313D01*
X57824823Y-86918313D01*
G37*
G36*
X55284823Y-86918313D02*
G01*
X55445242Y-86966976D01*
X55577906Y-87037886D01*
X55593078Y-87045996D01*
X55722659Y-87152341D01*
X55829004Y-87281922D01*
X55829005Y-87281924D01*
X55908024Y-87429758D01*
X55956687Y-87590177D01*
X55973117Y-87757000D01*
X55956687Y-87923823D01*
X55908024Y-88084242D01*
X55837114Y-88216906D01*
X55829004Y-88232078D01*
X55722659Y-88361659D01*
X55593078Y-88468004D01*
X55593076Y-88468005D01*
X55445242Y-88547024D01*
X55284823Y-88595687D01*
X55159804Y-88608000D01*
X55076196Y-88608000D01*
X54951177Y-88595687D01*
X54790758Y-88547024D01*
X54642924Y-88468005D01*
X54642922Y-88468004D01*
X54513341Y-88361659D01*
X54406996Y-88232078D01*
X54398886Y-88216906D01*
X54327976Y-88084242D01*
X54279313Y-87923823D01*
X54262883Y-87757000D01*
X54279313Y-87590177D01*
X54327976Y-87429758D01*
X54406995Y-87281924D01*
X54406996Y-87281922D01*
X54513341Y-87152341D01*
X54642922Y-87045996D01*
X54658094Y-87037886D01*
X54790758Y-86966976D01*
X54951177Y-86918313D01*
X55076196Y-86906000D01*
X55159804Y-86906000D01*
X55284823Y-86918313D01*
X55284823Y-86918313D01*
G37*
G36*
X56273000Y-84467000D02*
G01*
X54471000Y-84467000D01*
X54471000Y-82665000D01*
X56273000Y-82665000D01*
X56273000Y-84467000D01*
X56273000Y-84467000D01*
G37*
G36*
X70727970Y-81659963D02*
G01*
X70836893Y-81681629D01*
X70977206Y-81739748D01*
X71103484Y-81824125D01*
X71210875Y-81931516D01*
X71295252Y-82057794D01*
X71353371Y-82198107D01*
X71383000Y-82347063D01*
X71383000Y-82498937D01*
X71353371Y-82647893D01*
X71295252Y-82788206D01*
X71210875Y-82914484D01*
X71103484Y-83021875D01*
X70977206Y-83106252D01*
X70836893Y-83164371D01*
X70737589Y-83184124D01*
X70687938Y-83194000D01*
X70536062Y-83194000D01*
X70486411Y-83184124D01*
X70387107Y-83164371D01*
X70246794Y-83106252D01*
X70120516Y-83021875D01*
X70013125Y-82914484D01*
X69928748Y-82788206D01*
X69870629Y-82647893D01*
X69841000Y-82498937D01*
X69841000Y-82347063D01*
X69870629Y-82198107D01*
X69928748Y-82057794D01*
X70013125Y-81931516D01*
X70120516Y-81824125D01*
X70246794Y-81739748D01*
X70387107Y-81681629D01*
X70496030Y-81659963D01*
X70536062Y-81652000D01*
X70687938Y-81652000D01*
X70727970Y-81659963D01*
X70727970Y-81659963D01*
G37*
G36*
X55482443Y-80131519D02*
G01*
X55548627Y-80138037D01*
X55718466Y-80189557D01*
X55874991Y-80273222D01*
X55910729Y-80302552D01*
X56012186Y-80385814D01*
X56091020Y-80481875D01*
X56124778Y-80523009D01*
X56208443Y-80679534D01*
X56259963Y-80849373D01*
X56277359Y-81026000D01*
X56259963Y-81202627D01*
X56208443Y-81372466D01*
X56124778Y-81528991D01*
X56095448Y-81564729D01*
X56012186Y-81666186D01*
X55922549Y-81739748D01*
X55874991Y-81778778D01*
X55718466Y-81862443D01*
X55548627Y-81913963D01*
X55482442Y-81920482D01*
X55416260Y-81927000D01*
X55327740Y-81927000D01*
X55261558Y-81920482D01*
X55195373Y-81913963D01*
X55025534Y-81862443D01*
X54869009Y-81778778D01*
X54821451Y-81739748D01*
X54731814Y-81666186D01*
X54648552Y-81564729D01*
X54619222Y-81528991D01*
X54535557Y-81372466D01*
X54484037Y-81202627D01*
X54466641Y-81026000D01*
X54484037Y-80849373D01*
X54535557Y-80679534D01*
X54619222Y-80523009D01*
X54652980Y-80481875D01*
X54731814Y-80385814D01*
X54833271Y-80302552D01*
X54869009Y-80273222D01*
X55025534Y-80189557D01*
X55195373Y-80138037D01*
X55261557Y-80131519D01*
X55327740Y-80125000D01*
X55416260Y-80125000D01*
X55482443Y-80131519D01*
X55482443Y-80131519D01*
G37*
G36*
X63610442Y-79877518D02*
G01*
X63676627Y-79884037D01*
X63846466Y-79935557D01*
X64002991Y-80019222D01*
X64038729Y-80048552D01*
X64140186Y-80131814D01*
X64223448Y-80233271D01*
X64252778Y-80269009D01*
X64336443Y-80425534D01*
X64387963Y-80595373D01*
X64405359Y-80772000D01*
X64387963Y-80948627D01*
X64336443Y-81118466D01*
X64252778Y-81274991D01*
X64223448Y-81310729D01*
X64140186Y-81412186D01*
X64038729Y-81495448D01*
X64002991Y-81524778D01*
X63846466Y-81608443D01*
X63676627Y-81659963D01*
X63613453Y-81666185D01*
X63544260Y-81673000D01*
X63455740Y-81673000D01*
X63386547Y-81666185D01*
X63323373Y-81659963D01*
X63153534Y-81608443D01*
X62997009Y-81524778D01*
X62961271Y-81495448D01*
X62859814Y-81412186D01*
X62776552Y-81310729D01*
X62747222Y-81274991D01*
X62663557Y-81118466D01*
X62612037Y-80948627D01*
X62594641Y-80772000D01*
X62612037Y-80595373D01*
X62663557Y-80425534D01*
X62747222Y-80269009D01*
X62776552Y-80233271D01*
X62859814Y-80131814D01*
X62961271Y-80048552D01*
X62997009Y-80019222D01*
X63153534Y-79935557D01*
X63323373Y-79884037D01*
X63389558Y-79877518D01*
X63455740Y-79871000D01*
X63544260Y-79871000D01*
X63610442Y-79877518D01*
X63610442Y-79877518D01*
G37*
G36*
X70737589Y-79121876D02*
G01*
X70836893Y-79141629D01*
X70977206Y-79199748D01*
X71103484Y-79284125D01*
X71210875Y-79391516D01*
X71295252Y-79517794D01*
X71353371Y-79658107D01*
X71383000Y-79807063D01*
X71383000Y-79958937D01*
X71353371Y-80107893D01*
X71295252Y-80248206D01*
X71210875Y-80374484D01*
X71103484Y-80481875D01*
X70977206Y-80566252D01*
X70836893Y-80624371D01*
X70737589Y-80644124D01*
X70687938Y-80654000D01*
X70536062Y-80654000D01*
X70486411Y-80644124D01*
X70387107Y-80624371D01*
X70246794Y-80566252D01*
X70120516Y-80481875D01*
X70013125Y-80374484D01*
X69928748Y-80248206D01*
X69870629Y-80107893D01*
X69841000Y-79958937D01*
X69841000Y-79807063D01*
X69870629Y-79658107D01*
X69928748Y-79517794D01*
X70013125Y-79391516D01*
X70120516Y-79284125D01*
X70246794Y-79199748D01*
X70387107Y-79141629D01*
X70486411Y-79121876D01*
X70536062Y-79112000D01*
X70687938Y-79112000D01*
X70737589Y-79121876D01*
X70737589Y-79121876D01*
G37*
G36*
X55482442Y-77591518D02*
G01*
X55548627Y-77598037D01*
X55718466Y-77649557D01*
X55874991Y-77733222D01*
X55910729Y-77762552D01*
X56012186Y-77845814D01*
X56091020Y-77941875D01*
X56124778Y-77983009D01*
X56208443Y-78139534D01*
X56259963Y-78309373D01*
X56277359Y-78486000D01*
X56259963Y-78662627D01*
X56208443Y-78832466D01*
X56124778Y-78988991D01*
X56095448Y-79024729D01*
X56012186Y-79126186D01*
X55922549Y-79199748D01*
X55874991Y-79238778D01*
X55718466Y-79322443D01*
X55548627Y-79373963D01*
X55482442Y-79380482D01*
X55416260Y-79387000D01*
X55327740Y-79387000D01*
X55261558Y-79380482D01*
X55195373Y-79373963D01*
X55025534Y-79322443D01*
X54869009Y-79238778D01*
X54821451Y-79199748D01*
X54731814Y-79126186D01*
X54648552Y-79024729D01*
X54619222Y-78988991D01*
X54535557Y-78832466D01*
X54484037Y-78662627D01*
X54466641Y-78486000D01*
X54484037Y-78309373D01*
X54535557Y-78139534D01*
X54619222Y-77983009D01*
X54652980Y-77941875D01*
X54731814Y-77845814D01*
X54833271Y-77762552D01*
X54869009Y-77733222D01*
X55025534Y-77649557D01*
X55195373Y-77598037D01*
X55261558Y-77591518D01*
X55327740Y-77585000D01*
X55416260Y-77585000D01*
X55482442Y-77591518D01*
X55482442Y-77591518D01*
G37*
G36*
X64401000Y-79133000D02*
G01*
X62599000Y-79133000D01*
X62599000Y-77331000D01*
X64401000Y-77331000D01*
X64401000Y-79133000D01*
X64401000Y-79133000D01*
G37*
G36*
X70737589Y-76581876D02*
G01*
X70836893Y-76601629D01*
X70977206Y-76659748D01*
X71103484Y-76744125D01*
X71210875Y-76851516D01*
X71295252Y-76977794D01*
X71353371Y-77118107D01*
X71383000Y-77267063D01*
X71383000Y-77418937D01*
X71353371Y-77567893D01*
X71295252Y-77708206D01*
X71210875Y-77834484D01*
X71103484Y-77941875D01*
X70977206Y-78026252D01*
X70836893Y-78084371D01*
X70737589Y-78104124D01*
X70687938Y-78114000D01*
X70536062Y-78114000D01*
X70486411Y-78104124D01*
X70387107Y-78084371D01*
X70246794Y-78026252D01*
X70120516Y-77941875D01*
X70013125Y-77834484D01*
X69928748Y-77708206D01*
X69870629Y-77567893D01*
X69841000Y-77418937D01*
X69841000Y-77267063D01*
X69870629Y-77118107D01*
X69928748Y-76977794D01*
X70013125Y-76851516D01*
X70120516Y-76744125D01*
X70246794Y-76659748D01*
X70387107Y-76601629D01*
X70486411Y-76581876D01*
X70536062Y-76572000D01*
X70687938Y-76572000D01*
X70737589Y-76581876D01*
X70737589Y-76581876D01*
G37*
G36*
X63737142Y-73005242D02*
G01*
X63885101Y-73066529D01*
X64018255Y-73155499D01*
X64131501Y-73268745D01*
X64220471Y-73401899D01*
X64281758Y-73549858D01*
X64313000Y-73706925D01*
X64313000Y-73867075D01*
X64281758Y-74024142D01*
X64220471Y-74172101D01*
X64131501Y-74305255D01*
X64018255Y-74418501D01*
X63885101Y-74507471D01*
X63737142Y-74568758D01*
X63580075Y-74600000D01*
X63419925Y-74600000D01*
X63262858Y-74568758D01*
X63114899Y-74507471D01*
X62981745Y-74418501D01*
X62868499Y-74305255D01*
X62779529Y-74172101D01*
X62718242Y-74024142D01*
X62687000Y-73867075D01*
X62687000Y-73706925D01*
X62718242Y-73549858D01*
X62779529Y-73401899D01*
X62868499Y-73268745D01*
X62981745Y-73155499D01*
X63114899Y-73066529D01*
X63262858Y-73005242D01*
X63419925Y-72974000D01*
X63580075Y-72974000D01*
X63737142Y-73005242D01*
X63737142Y-73005242D01*
G37*
G36*
X67476823Y-70408313D02*
G01*
X67637242Y-70456976D01*
X67769906Y-70527886D01*
X67785078Y-70535996D01*
X67914659Y-70642341D01*
X68021004Y-70771922D01*
X68021005Y-70771924D01*
X68100024Y-70919758D01*
X68148687Y-71080177D01*
X68165117Y-71247000D01*
X68148687Y-71413823D01*
X68100024Y-71574242D01*
X68029114Y-71706906D01*
X68021004Y-71722078D01*
X67914659Y-71851659D01*
X67785078Y-71958004D01*
X67785076Y-71958005D01*
X67637242Y-72037024D01*
X67476823Y-72085687D01*
X67351804Y-72098000D01*
X67268196Y-72098000D01*
X67143177Y-72085687D01*
X66982758Y-72037024D01*
X66834924Y-71958005D01*
X66834922Y-71958004D01*
X66705341Y-71851659D01*
X66598996Y-71722078D01*
X66590886Y-71706906D01*
X66519976Y-71574242D01*
X66471313Y-71413823D01*
X66454883Y-71247000D01*
X66471313Y-71080177D01*
X66519976Y-70919758D01*
X66598995Y-70771924D01*
X66598996Y-70771922D01*
X66705341Y-70642341D01*
X66834922Y-70535996D01*
X66850094Y-70527886D01*
X66982758Y-70456976D01*
X67143177Y-70408313D01*
X67268196Y-70396000D01*
X67351804Y-70396000D01*
X67476823Y-70408313D01*
X67476823Y-70408313D01*
G37*
G36*
X59856823Y-70408313D02*
G01*
X60017242Y-70456976D01*
X60149906Y-70527886D01*
X60165078Y-70535996D01*
X60294659Y-70642341D01*
X60401004Y-70771922D01*
X60401005Y-70771924D01*
X60480024Y-70919758D01*
X60528687Y-71080177D01*
X60545117Y-71247000D01*
X60528687Y-71413823D01*
X60480024Y-71574242D01*
X60409114Y-71706906D01*
X60401004Y-71722078D01*
X60294659Y-71851659D01*
X60165078Y-71958004D01*
X60165076Y-71958005D01*
X60017242Y-72037024D01*
X59856823Y-72085687D01*
X59731804Y-72098000D01*
X59648196Y-72098000D01*
X59523177Y-72085687D01*
X59362758Y-72037024D01*
X59214924Y-71958005D01*
X59214922Y-71958004D01*
X59085341Y-71851659D01*
X58978996Y-71722078D01*
X58970886Y-71706906D01*
X58899976Y-71574242D01*
X58851313Y-71413823D01*
X58834883Y-71247000D01*
X58851313Y-71080177D01*
X58899976Y-70919758D01*
X58978995Y-70771924D01*
X58978996Y-70771922D01*
X59085341Y-70642341D01*
X59214922Y-70535996D01*
X59230094Y-70527886D01*
X59362758Y-70456976D01*
X59523177Y-70408313D01*
X59648196Y-70396000D01*
X59731804Y-70396000D01*
X59856823Y-70408313D01*
X59856823Y-70408313D01*
G37*
G36*
X70468142Y-69830242D02*
G01*
X70616101Y-69891529D01*
X70749255Y-69980499D01*
X70862501Y-70093745D01*
X70951471Y-70226899D01*
X71012758Y-70374858D01*
X71044000Y-70531925D01*
X71044000Y-70692075D01*
X71012758Y-70849142D01*
X70951471Y-70997101D01*
X70862501Y-71130255D01*
X70749255Y-71243501D01*
X70616101Y-71332471D01*
X70468142Y-71393758D01*
X70311075Y-71425000D01*
X70150925Y-71425000D01*
X69993858Y-71393758D01*
X69845899Y-71332471D01*
X69712745Y-71243501D01*
X69599499Y-71130255D01*
X69510529Y-70997101D01*
X69449242Y-70849142D01*
X69418000Y-70692075D01*
X69418000Y-70531925D01*
X69449242Y-70374858D01*
X69510529Y-70226899D01*
X69599499Y-70093745D01*
X69712745Y-69980499D01*
X69845899Y-69891529D01*
X69993858Y-69830242D01*
X70150925Y-69799000D01*
X70311075Y-69799000D01*
X70468142Y-69830242D01*
X70468142Y-69830242D01*
G37*
G36*
X57006142Y-69830242D02*
G01*
X57154101Y-69891529D01*
X57287255Y-69980499D01*
X57400501Y-70093745D01*
X57489471Y-70226899D01*
X57550758Y-70374858D01*
X57582000Y-70531925D01*
X57582000Y-70692075D01*
X57550758Y-70849142D01*
X57489471Y-70997101D01*
X57400501Y-71130255D01*
X57287255Y-71243501D01*
X57154101Y-71332471D01*
X57006142Y-71393758D01*
X56849075Y-71425000D01*
X56688925Y-71425000D01*
X56531858Y-71393758D01*
X56383899Y-71332471D01*
X56250745Y-71243501D01*
X56137499Y-71130255D01*
X56048529Y-70997101D01*
X55987242Y-70849142D01*
X55956000Y-70692075D01*
X55956000Y-70531925D01*
X55987242Y-70374858D01*
X56048529Y-70226899D01*
X56137499Y-70093745D01*
X56250745Y-69980499D01*
X56383899Y-69891529D01*
X56531858Y-69830242D01*
X56688925Y-69799000D01*
X56849075Y-69799000D01*
X57006142Y-69830242D01*
X57006142Y-69830242D01*
G37*
G36*
X67476823Y-67868313D02*
G01*
X67637242Y-67916976D01*
X67769906Y-67987886D01*
X67785078Y-67995996D01*
X67914659Y-68102341D01*
X68021004Y-68231922D01*
X68021005Y-68231924D01*
X68100024Y-68379758D01*
X68148687Y-68540177D01*
X68165117Y-68707000D01*
X68148687Y-68873823D01*
X68100024Y-69034242D01*
X68029114Y-69166906D01*
X68021004Y-69182078D01*
X67914659Y-69311659D01*
X67785078Y-69418004D01*
X67785076Y-69418005D01*
X67637242Y-69497024D01*
X67476823Y-69545687D01*
X67351804Y-69558000D01*
X67268196Y-69558000D01*
X67143177Y-69545687D01*
X66982758Y-69497024D01*
X66834924Y-69418005D01*
X66834922Y-69418004D01*
X66705341Y-69311659D01*
X66598996Y-69182078D01*
X66590886Y-69166906D01*
X66519976Y-69034242D01*
X66471313Y-68873823D01*
X66454883Y-68707000D01*
X66471313Y-68540177D01*
X66519976Y-68379758D01*
X66598995Y-68231924D01*
X66598996Y-68231922D01*
X66705341Y-68102341D01*
X66834922Y-67995996D01*
X66850094Y-67987886D01*
X66982758Y-67916976D01*
X67143177Y-67868313D01*
X67268196Y-67856000D01*
X67351804Y-67856000D01*
X67476823Y-67868313D01*
X67476823Y-67868313D01*
G37*
G36*
X59856823Y-67868313D02*
G01*
X60017242Y-67916976D01*
X60149906Y-67987886D01*
X60165078Y-67995996D01*
X60294659Y-68102341D01*
X60401004Y-68231922D01*
X60401005Y-68231924D01*
X60480024Y-68379758D01*
X60528687Y-68540177D01*
X60545117Y-68707000D01*
X60528687Y-68873823D01*
X60480024Y-69034242D01*
X60409114Y-69166906D01*
X60401004Y-69182078D01*
X60294659Y-69311659D01*
X60165078Y-69418004D01*
X60165076Y-69418005D01*
X60017242Y-69497024D01*
X59856823Y-69545687D01*
X59731804Y-69558000D01*
X59648196Y-69558000D01*
X59523177Y-69545687D01*
X59362758Y-69497024D01*
X59214924Y-69418005D01*
X59214922Y-69418004D01*
X59085341Y-69311659D01*
X58978996Y-69182078D01*
X58970886Y-69166906D01*
X58899976Y-69034242D01*
X58851313Y-68873823D01*
X58834883Y-68707000D01*
X58851313Y-68540177D01*
X58899976Y-68379758D01*
X58978995Y-68231924D01*
X58978996Y-68231922D01*
X59085341Y-68102341D01*
X59214922Y-67995996D01*
X59230094Y-67987886D01*
X59362758Y-67916976D01*
X59523177Y-67868313D01*
X59648196Y-67856000D01*
X59731804Y-67856000D01*
X59856823Y-67868313D01*
X59856823Y-67868313D01*
G37*
G36*
X59856823Y-65328313D02*
G01*
X60017242Y-65376976D01*
X60149906Y-65447886D01*
X60165078Y-65455996D01*
X60294659Y-65562341D01*
X60401004Y-65691922D01*
X60401005Y-65691924D01*
X60480024Y-65839758D01*
X60528687Y-66000177D01*
X60545117Y-66167000D01*
X60528687Y-66333823D01*
X60480024Y-66494242D01*
X60409114Y-66626906D01*
X60401004Y-66642078D01*
X60294659Y-66771659D01*
X60165078Y-66878004D01*
X60165076Y-66878005D01*
X60017242Y-66957024D01*
X59856823Y-67005687D01*
X59731804Y-67018000D01*
X59648196Y-67018000D01*
X59523177Y-67005687D01*
X59362758Y-66957024D01*
X59214924Y-66878005D01*
X59214922Y-66878004D01*
X59085341Y-66771659D01*
X58978996Y-66642078D01*
X58970886Y-66626906D01*
X58899976Y-66494242D01*
X58851313Y-66333823D01*
X58834883Y-66167000D01*
X58851313Y-66000177D01*
X58899976Y-65839758D01*
X58978995Y-65691924D01*
X58978996Y-65691922D01*
X59085341Y-65562341D01*
X59214922Y-65455996D01*
X59230094Y-65447886D01*
X59362758Y-65376976D01*
X59523177Y-65328313D01*
X59648196Y-65316000D01*
X59731804Y-65316000D01*
X59856823Y-65328313D01*
X59856823Y-65328313D01*
G37*
G36*
X67476823Y-65328313D02*
G01*
X67637242Y-65376976D01*
X67769906Y-65447886D01*
X67785078Y-65455996D01*
X67914659Y-65562341D01*
X68021004Y-65691922D01*
X68021005Y-65691924D01*
X68100024Y-65839758D01*
X68148687Y-66000177D01*
X68165117Y-66167000D01*
X68148687Y-66333823D01*
X68100024Y-66494242D01*
X68029114Y-66626906D01*
X68021004Y-66642078D01*
X67914659Y-66771659D01*
X67785078Y-66878004D01*
X67785076Y-66878005D01*
X67637242Y-66957024D01*
X67476823Y-67005687D01*
X67351804Y-67018000D01*
X67268196Y-67018000D01*
X67143177Y-67005687D01*
X66982758Y-66957024D01*
X66834924Y-66878005D01*
X66834922Y-66878004D01*
X66705341Y-66771659D01*
X66598996Y-66642078D01*
X66590886Y-66626906D01*
X66519976Y-66494242D01*
X66471313Y-66333823D01*
X66454883Y-66167000D01*
X66471313Y-66000177D01*
X66519976Y-65839758D01*
X66598995Y-65691924D01*
X66598996Y-65691922D01*
X66705341Y-65562341D01*
X66834922Y-65455996D01*
X66850094Y-65447886D01*
X66982758Y-65376976D01*
X67143177Y-65328313D01*
X67268196Y-65316000D01*
X67351804Y-65316000D01*
X67476823Y-65328313D01*
X67476823Y-65328313D01*
G37*
G36*
X70468142Y-63480242D02*
G01*
X70616101Y-63541529D01*
X70749255Y-63630499D01*
X70862501Y-63743745D01*
X70951471Y-63876899D01*
X71012758Y-64024858D01*
X71044000Y-64181925D01*
X71044000Y-64342075D01*
X71012758Y-64499142D01*
X70951471Y-64647101D01*
X70862501Y-64780255D01*
X70749255Y-64893501D01*
X70616101Y-64982471D01*
X70468142Y-65043758D01*
X70311075Y-65075000D01*
X70150925Y-65075000D01*
X69993858Y-65043758D01*
X69845899Y-64982471D01*
X69712745Y-64893501D01*
X69599499Y-64780255D01*
X69510529Y-64647101D01*
X69449242Y-64499142D01*
X69418000Y-64342075D01*
X69418000Y-64181925D01*
X69449242Y-64024858D01*
X69510529Y-63876899D01*
X69599499Y-63743745D01*
X69712745Y-63630499D01*
X69845899Y-63541529D01*
X69993858Y-63480242D01*
X70150925Y-63449000D01*
X70311075Y-63449000D01*
X70468142Y-63480242D01*
X70468142Y-63480242D01*
G37*
G36*
X57006142Y-63480242D02*
G01*
X57154101Y-63541529D01*
X57287255Y-63630499D01*
X57400501Y-63743745D01*
X57489471Y-63876899D01*
X57550758Y-64024858D01*
X57582000Y-64181925D01*
X57582000Y-64342075D01*
X57550758Y-64499142D01*
X57489471Y-64647101D01*
X57400501Y-64780255D01*
X57287255Y-64893501D01*
X57154101Y-64982471D01*
X57006142Y-65043758D01*
X56849075Y-65075000D01*
X56688925Y-65075000D01*
X56531858Y-65043758D01*
X56383899Y-64982471D01*
X56250745Y-64893501D01*
X56137499Y-64780255D01*
X56048529Y-64647101D01*
X55987242Y-64499142D01*
X55956000Y-64342075D01*
X55956000Y-64181925D01*
X55987242Y-64024858D01*
X56048529Y-63876899D01*
X56137499Y-63743745D01*
X56250745Y-63630499D01*
X56383899Y-63541529D01*
X56531858Y-63480242D01*
X56688925Y-63449000D01*
X56849075Y-63449000D01*
X57006142Y-63480242D01*
X57006142Y-63480242D01*
G37*
G36*
X59856823Y-62788313D02*
G01*
X60017242Y-62836976D01*
X60149906Y-62907886D01*
X60165078Y-62915996D01*
X60294659Y-63022341D01*
X60401004Y-63151922D01*
X60401005Y-63151924D01*
X60480024Y-63299758D01*
X60528687Y-63460177D01*
X60545117Y-63627000D01*
X60528687Y-63793823D01*
X60480024Y-63954242D01*
X60442279Y-64024857D01*
X60401004Y-64102078D01*
X60294659Y-64231659D01*
X60165078Y-64338004D01*
X60157462Y-64342075D01*
X60017242Y-64417024D01*
X59856823Y-64465687D01*
X59731804Y-64478000D01*
X59648196Y-64478000D01*
X59523177Y-64465687D01*
X59362758Y-64417024D01*
X59222538Y-64342075D01*
X59214922Y-64338004D01*
X59085341Y-64231659D01*
X58978996Y-64102078D01*
X58937721Y-64024857D01*
X58899976Y-63954242D01*
X58851313Y-63793823D01*
X58834883Y-63627000D01*
X58851313Y-63460177D01*
X58899976Y-63299758D01*
X58978995Y-63151924D01*
X58978996Y-63151922D01*
X59085341Y-63022341D01*
X59214922Y-62915996D01*
X59230094Y-62907886D01*
X59362758Y-62836976D01*
X59523177Y-62788313D01*
X59648196Y-62776000D01*
X59731804Y-62776000D01*
X59856823Y-62788313D01*
X59856823Y-62788313D01*
G37*
G36*
X67476823Y-62788313D02*
G01*
X67637242Y-62836976D01*
X67769906Y-62907886D01*
X67785078Y-62915996D01*
X67914659Y-63022341D01*
X68021004Y-63151922D01*
X68021005Y-63151924D01*
X68100024Y-63299758D01*
X68148687Y-63460177D01*
X68165117Y-63627000D01*
X68148687Y-63793823D01*
X68100024Y-63954242D01*
X68062279Y-64024857D01*
X68021004Y-64102078D01*
X67914659Y-64231659D01*
X67785078Y-64338004D01*
X67777462Y-64342075D01*
X67637242Y-64417024D01*
X67476823Y-64465687D01*
X67351804Y-64478000D01*
X67268196Y-64478000D01*
X67143177Y-64465687D01*
X66982758Y-64417024D01*
X66842538Y-64342075D01*
X66834922Y-64338004D01*
X66705341Y-64231659D01*
X66598996Y-64102078D01*
X66557721Y-64024857D01*
X66519976Y-63954242D01*
X66471313Y-63793823D01*
X66454883Y-63627000D01*
X66471313Y-63460177D01*
X66519976Y-63299758D01*
X66598995Y-63151924D01*
X66598996Y-63151922D01*
X66705341Y-63022341D01*
X66834922Y-62915996D01*
X66850094Y-62907886D01*
X66982758Y-62836976D01*
X67143177Y-62788313D01*
X67268196Y-62776000D01*
X67351804Y-62776000D01*
X67476823Y-62788313D01*
X67476823Y-62788313D01*
G37*
G36*
X59856823Y-60248313D02*
G01*
X60017242Y-60296976D01*
X60149906Y-60367886D01*
X60165078Y-60375996D01*
X60294659Y-60482341D01*
X60401004Y-60611922D01*
X60401005Y-60611924D01*
X60480024Y-60759758D01*
X60528687Y-60920177D01*
X60545117Y-61087000D01*
X60528687Y-61253823D01*
X60480024Y-61414242D01*
X60409114Y-61546906D01*
X60401004Y-61562078D01*
X60294659Y-61691659D01*
X60165078Y-61798004D01*
X60165076Y-61798005D01*
X60017242Y-61877024D01*
X59856823Y-61925687D01*
X59731804Y-61938000D01*
X59648196Y-61938000D01*
X59523177Y-61925687D01*
X59362758Y-61877024D01*
X59214924Y-61798005D01*
X59214922Y-61798004D01*
X59085341Y-61691659D01*
X58978996Y-61562078D01*
X58970886Y-61546906D01*
X58899976Y-61414242D01*
X58851313Y-61253823D01*
X58834883Y-61087000D01*
X58851313Y-60920177D01*
X58899976Y-60759758D01*
X58978995Y-60611924D01*
X58978996Y-60611922D01*
X59085341Y-60482341D01*
X59214922Y-60375996D01*
X59230094Y-60367886D01*
X59362758Y-60296976D01*
X59523177Y-60248313D01*
X59648196Y-60236000D01*
X59731804Y-60236000D01*
X59856823Y-60248313D01*
X59856823Y-60248313D01*
G37*
G36*
X67476823Y-60248313D02*
G01*
X67637242Y-60296976D01*
X67769906Y-60367886D01*
X67785078Y-60375996D01*
X67914659Y-60482341D01*
X68021004Y-60611922D01*
X68021005Y-60611924D01*
X68100024Y-60759758D01*
X68148687Y-60920177D01*
X68165117Y-61087000D01*
X68148687Y-61253823D01*
X68100024Y-61414242D01*
X68029114Y-61546906D01*
X68021004Y-61562078D01*
X67914659Y-61691659D01*
X67785078Y-61798004D01*
X67785076Y-61798005D01*
X67637242Y-61877024D01*
X67476823Y-61925687D01*
X67351804Y-61938000D01*
X67268196Y-61938000D01*
X67143177Y-61925687D01*
X66982758Y-61877024D01*
X66834924Y-61798005D01*
X66834922Y-61798004D01*
X66705341Y-61691659D01*
X66598996Y-61562078D01*
X66590886Y-61546906D01*
X66519976Y-61414242D01*
X66471313Y-61253823D01*
X66454883Y-61087000D01*
X66471313Y-60920177D01*
X66519976Y-60759758D01*
X66598995Y-60611924D01*
X66598996Y-60611922D01*
X66705341Y-60482341D01*
X66834922Y-60375996D01*
X66850094Y-60367886D01*
X66982758Y-60296976D01*
X67143177Y-60248313D01*
X67268196Y-60236000D01*
X67351804Y-60236000D01*
X67476823Y-60248313D01*
X67476823Y-60248313D01*
G37*
G36*
X59856823Y-57708313D02*
G01*
X60017242Y-57756976D01*
X60101208Y-57801857D01*
X60165078Y-57835996D01*
X60294659Y-57942341D01*
X60401004Y-58071922D01*
X60401005Y-58071924D01*
X60480024Y-58219758D01*
X60528687Y-58380177D01*
X60545117Y-58547000D01*
X60528687Y-58713823D01*
X60480024Y-58874242D01*
X60409114Y-59006906D01*
X60401004Y-59022078D01*
X60294659Y-59151659D01*
X60165078Y-59258004D01*
X60165076Y-59258005D01*
X60017242Y-59337024D01*
X59856823Y-59385687D01*
X59731804Y-59398000D01*
X59648196Y-59398000D01*
X59523177Y-59385687D01*
X59362758Y-59337024D01*
X59214924Y-59258005D01*
X59214922Y-59258004D01*
X59085341Y-59151659D01*
X58978996Y-59022078D01*
X58970886Y-59006906D01*
X58899976Y-58874242D01*
X58851313Y-58713823D01*
X58834883Y-58547000D01*
X58851313Y-58380177D01*
X58899976Y-58219758D01*
X58978995Y-58071924D01*
X58978996Y-58071922D01*
X59085341Y-57942341D01*
X59214922Y-57835996D01*
X59278792Y-57801857D01*
X59362758Y-57756976D01*
X59523177Y-57708313D01*
X59648196Y-57696000D01*
X59731804Y-57696000D01*
X59856823Y-57708313D01*
X59856823Y-57708313D01*
G37*
G36*
X67476823Y-57708313D02*
G01*
X67637242Y-57756976D01*
X67721208Y-57801857D01*
X67785078Y-57835996D01*
X67914659Y-57942341D01*
X68021004Y-58071922D01*
X68021005Y-58071924D01*
X68100024Y-58219758D01*
X68148687Y-58380177D01*
X68165117Y-58547000D01*
X68148687Y-58713823D01*
X68100024Y-58874242D01*
X68029114Y-59006906D01*
X68021004Y-59022078D01*
X67914659Y-59151659D01*
X67785078Y-59258004D01*
X67785076Y-59258005D01*
X67637242Y-59337024D01*
X67476823Y-59385687D01*
X67351804Y-59398000D01*
X67268196Y-59398000D01*
X67143177Y-59385687D01*
X66982758Y-59337024D01*
X66834924Y-59258005D01*
X66834922Y-59258004D01*
X66705341Y-59151659D01*
X66598996Y-59022078D01*
X66590886Y-59006906D01*
X66519976Y-58874242D01*
X66471313Y-58713823D01*
X66454883Y-58547000D01*
X66471313Y-58380177D01*
X66519976Y-58219758D01*
X66598995Y-58071924D01*
X66598996Y-58071922D01*
X66705341Y-57942341D01*
X66834922Y-57835996D01*
X66898792Y-57801857D01*
X66982758Y-57756976D01*
X67143177Y-57708313D01*
X67268196Y-57696000D01*
X67351804Y-57696000D01*
X67476823Y-57708313D01*
X67476823Y-57708313D01*
G37*
G36*
X57006142Y-57257242D02*
G01*
X57154101Y-57318529D01*
X57287255Y-57407499D01*
X57400501Y-57520745D01*
X57489471Y-57653899D01*
X57550758Y-57801858D01*
X57582000Y-57958925D01*
X57582000Y-58119075D01*
X57550758Y-58276142D01*
X57489471Y-58424101D01*
X57400501Y-58557255D01*
X57287255Y-58670501D01*
X57154101Y-58759471D01*
X57006142Y-58820758D01*
X56849075Y-58852000D01*
X56688925Y-58852000D01*
X56531858Y-58820758D01*
X56383899Y-58759471D01*
X56250745Y-58670501D01*
X56137499Y-58557255D01*
X56048529Y-58424101D01*
X55987242Y-58276142D01*
X55956000Y-58119075D01*
X55956000Y-57958925D01*
X55987242Y-57801858D01*
X56048529Y-57653899D01*
X56137499Y-57520745D01*
X56250745Y-57407499D01*
X56383899Y-57318529D01*
X56531858Y-57257242D01*
X56688925Y-57226000D01*
X56849075Y-57226000D01*
X57006142Y-57257242D01*
X57006142Y-57257242D01*
G37*
G36*
X70468142Y-57257242D02*
G01*
X70616101Y-57318529D01*
X70749255Y-57407499D01*
X70862501Y-57520745D01*
X70951471Y-57653899D01*
X71012758Y-57801858D01*
X71044000Y-57958925D01*
X71044000Y-58119075D01*
X71012758Y-58276142D01*
X70951471Y-58424101D01*
X70862501Y-58557255D01*
X70749255Y-58670501D01*
X70616101Y-58759471D01*
X70468142Y-58820758D01*
X70311075Y-58852000D01*
X70150925Y-58852000D01*
X69993858Y-58820758D01*
X69845899Y-58759471D01*
X69712745Y-58670501D01*
X69599499Y-58557255D01*
X69510529Y-58424101D01*
X69449242Y-58276142D01*
X69418000Y-58119075D01*
X69418000Y-57958925D01*
X69449242Y-57801858D01*
X69510529Y-57653899D01*
X69599499Y-57520745D01*
X69712745Y-57407499D01*
X69845899Y-57318529D01*
X69993858Y-57257242D01*
X70150925Y-57226000D01*
X70311075Y-57226000D01*
X70468142Y-57257242D01*
X70468142Y-57257242D01*
G37*
G36*
X59856823Y-55168313D02*
G01*
X60017242Y-55216976D01*
X60149906Y-55287886D01*
X60165078Y-55295996D01*
X60294659Y-55402341D01*
X60401004Y-55531922D01*
X60401005Y-55531924D01*
X60480024Y-55679758D01*
X60528687Y-55840177D01*
X60545117Y-56007000D01*
X60528687Y-56173823D01*
X60480024Y-56334242D01*
X60409114Y-56466906D01*
X60401004Y-56482078D01*
X60294659Y-56611659D01*
X60165078Y-56718004D01*
X60165076Y-56718005D01*
X60017242Y-56797024D01*
X59856823Y-56845687D01*
X59731804Y-56858000D01*
X59648196Y-56858000D01*
X59523177Y-56845687D01*
X59362758Y-56797024D01*
X59214924Y-56718005D01*
X59214922Y-56718004D01*
X59085341Y-56611659D01*
X58978996Y-56482078D01*
X58970886Y-56466906D01*
X58899976Y-56334242D01*
X58851313Y-56173823D01*
X58834883Y-56007000D01*
X58851313Y-55840177D01*
X58899976Y-55679758D01*
X58978995Y-55531924D01*
X58978996Y-55531922D01*
X59085341Y-55402341D01*
X59214922Y-55295996D01*
X59230094Y-55287886D01*
X59362758Y-55216976D01*
X59523177Y-55168313D01*
X59648196Y-55156000D01*
X59731804Y-55156000D01*
X59856823Y-55168313D01*
X59856823Y-55168313D01*
G37*
G36*
X67476823Y-55168313D02*
G01*
X67637242Y-55216976D01*
X67769906Y-55287886D01*
X67785078Y-55295996D01*
X67914659Y-55402341D01*
X68021004Y-55531922D01*
X68021005Y-55531924D01*
X68100024Y-55679758D01*
X68148687Y-55840177D01*
X68165117Y-56007000D01*
X68148687Y-56173823D01*
X68100024Y-56334242D01*
X68029114Y-56466906D01*
X68021004Y-56482078D01*
X67914659Y-56611659D01*
X67785078Y-56718004D01*
X67785076Y-56718005D01*
X67637242Y-56797024D01*
X67476823Y-56845687D01*
X67351804Y-56858000D01*
X67268196Y-56858000D01*
X67143177Y-56845687D01*
X66982758Y-56797024D01*
X66834924Y-56718005D01*
X66834922Y-56718004D01*
X66705341Y-56611659D01*
X66598996Y-56482078D01*
X66590886Y-56466906D01*
X66519976Y-56334242D01*
X66471313Y-56173823D01*
X66454883Y-56007000D01*
X66471313Y-55840177D01*
X66519976Y-55679758D01*
X66598995Y-55531924D01*
X66598996Y-55531922D01*
X66705341Y-55402341D01*
X66834922Y-55295996D01*
X66850094Y-55287886D01*
X66982758Y-55216976D01*
X67143177Y-55168313D01*
X67268196Y-55156000D01*
X67351804Y-55156000D01*
X67476823Y-55168313D01*
X67476823Y-55168313D01*
G37*
G36*
X67476823Y-52628313D02*
G01*
X67637242Y-52676976D01*
X67769906Y-52747886D01*
X67785078Y-52755996D01*
X67914659Y-52862341D01*
X68021004Y-52991922D01*
X68021005Y-52991924D01*
X68100024Y-53139758D01*
X68148687Y-53300177D01*
X68165117Y-53467000D01*
X68148687Y-53633823D01*
X68100024Y-53794242D01*
X68029114Y-53926906D01*
X68021004Y-53942078D01*
X67914659Y-54071659D01*
X67785078Y-54178004D01*
X67785076Y-54178005D01*
X67637242Y-54257024D01*
X67476823Y-54305687D01*
X67351804Y-54318000D01*
X67268196Y-54318000D01*
X67143177Y-54305687D01*
X66982758Y-54257024D01*
X66834924Y-54178005D01*
X66834922Y-54178004D01*
X66705341Y-54071659D01*
X66598996Y-53942078D01*
X66590886Y-53926906D01*
X66519976Y-53794242D01*
X66471313Y-53633823D01*
X66454883Y-53467000D01*
X66471313Y-53300177D01*
X66519976Y-53139758D01*
X66598995Y-52991924D01*
X66598996Y-52991922D01*
X66705341Y-52862341D01*
X66834922Y-52755996D01*
X66850094Y-52747886D01*
X66982758Y-52676976D01*
X67143177Y-52628313D01*
X67268196Y-52616000D01*
X67351804Y-52616000D01*
X67476823Y-52628313D01*
X67476823Y-52628313D01*
G37*
G36*
X59856823Y-52628313D02*
G01*
X60017242Y-52676976D01*
X60149906Y-52747886D01*
X60165078Y-52755996D01*
X60294659Y-52862341D01*
X60401004Y-52991922D01*
X60401005Y-52991924D01*
X60480024Y-53139758D01*
X60528687Y-53300177D01*
X60545117Y-53467000D01*
X60528687Y-53633823D01*
X60480024Y-53794242D01*
X60409114Y-53926906D01*
X60401004Y-53942078D01*
X60294659Y-54071659D01*
X60165078Y-54178004D01*
X60165076Y-54178005D01*
X60017242Y-54257024D01*
X59856823Y-54305687D01*
X59731804Y-54318000D01*
X59648196Y-54318000D01*
X59523177Y-54305687D01*
X59362758Y-54257024D01*
X59214924Y-54178005D01*
X59214922Y-54178004D01*
X59085341Y-54071659D01*
X58978996Y-53942078D01*
X58970886Y-53926906D01*
X58899976Y-53794242D01*
X58851313Y-53633823D01*
X58834883Y-53467000D01*
X58851313Y-53300177D01*
X58899976Y-53139758D01*
X58978995Y-52991924D01*
X58978996Y-52991922D01*
X59085341Y-52862341D01*
X59214922Y-52755996D01*
X59230094Y-52747886D01*
X59362758Y-52676976D01*
X59523177Y-52628313D01*
X59648196Y-52616000D01*
X59731804Y-52616000D01*
X59856823Y-52628313D01*
X59856823Y-52628313D01*
G37*
G36*
X57006142Y-50907242D02*
G01*
X57154101Y-50968529D01*
X57287255Y-51057499D01*
X57400501Y-51170745D01*
X57489471Y-51303899D01*
X57550758Y-51451858D01*
X57582000Y-51608925D01*
X57582000Y-51769075D01*
X57550758Y-51926142D01*
X57489471Y-52074101D01*
X57400501Y-52207255D01*
X57287255Y-52320501D01*
X57154101Y-52409471D01*
X57006142Y-52470758D01*
X56849075Y-52502000D01*
X56688925Y-52502000D01*
X56531858Y-52470758D01*
X56383899Y-52409471D01*
X56250745Y-52320501D01*
X56137499Y-52207255D01*
X56048529Y-52074101D01*
X55987242Y-51926142D01*
X55956000Y-51769075D01*
X55956000Y-51608925D01*
X55987242Y-51451858D01*
X56048529Y-51303899D01*
X56137499Y-51170745D01*
X56250745Y-51057499D01*
X56383899Y-50968529D01*
X56531858Y-50907242D01*
X56688925Y-50876000D01*
X56849075Y-50876000D01*
X57006142Y-50907242D01*
X57006142Y-50907242D01*
G37*
G36*
X70468142Y-50907242D02*
G01*
X70616101Y-50968529D01*
X70749255Y-51057499D01*
X70862501Y-51170745D01*
X70951471Y-51303899D01*
X71012758Y-51451858D01*
X71044000Y-51608925D01*
X71044000Y-51769075D01*
X71012758Y-51926142D01*
X70951471Y-52074101D01*
X70862501Y-52207255D01*
X70749255Y-52320501D01*
X70616101Y-52409471D01*
X70468142Y-52470758D01*
X70311075Y-52502000D01*
X70150925Y-52502000D01*
X69993858Y-52470758D01*
X69845899Y-52409471D01*
X69712745Y-52320501D01*
X69599499Y-52207255D01*
X69510529Y-52074101D01*
X69449242Y-51926142D01*
X69418000Y-51769075D01*
X69418000Y-51608925D01*
X69449242Y-51451858D01*
X69510529Y-51303899D01*
X69599499Y-51170745D01*
X69712745Y-51057499D01*
X69845899Y-50968529D01*
X69993858Y-50907242D01*
X70150925Y-50876000D01*
X70311075Y-50876000D01*
X70468142Y-50907242D01*
X70468142Y-50907242D01*
G37*
G36*
X60541000Y-51778000D02*
G01*
X58839000Y-51778000D01*
X58839000Y-50076000D01*
X60541000Y-50076000D01*
X60541000Y-51778000D01*
X60541000Y-51778000D01*
G37*
G36*
X67476823Y-50088313D02*
G01*
X67637242Y-50136976D01*
X67769906Y-50207886D01*
X67785078Y-50215996D01*
X67914659Y-50322341D01*
X68021004Y-50451922D01*
X68021005Y-50451924D01*
X68100024Y-50599758D01*
X68148687Y-50760177D01*
X68165117Y-50927000D01*
X68148687Y-51093823D01*
X68100024Y-51254242D01*
X68073481Y-51303900D01*
X68021004Y-51402078D01*
X67914659Y-51531659D01*
X67785078Y-51638004D01*
X67785076Y-51638005D01*
X67637242Y-51717024D01*
X67476823Y-51765687D01*
X67351804Y-51778000D01*
X67268196Y-51778000D01*
X67143177Y-51765687D01*
X66982758Y-51717024D01*
X66834924Y-51638005D01*
X66834922Y-51638004D01*
X66705341Y-51531659D01*
X66598996Y-51402078D01*
X66546519Y-51303900D01*
X66519976Y-51254242D01*
X66471313Y-51093823D01*
X66454883Y-50927000D01*
X66471313Y-50760177D01*
X66519976Y-50599758D01*
X66598995Y-50451924D01*
X66598996Y-50451922D01*
X66705341Y-50322341D01*
X66834922Y-50215996D01*
X66850094Y-50207886D01*
X66982758Y-50136976D01*
X67143177Y-50088313D01*
X67268196Y-50076000D01*
X67351804Y-50076000D01*
X67476823Y-50088313D01*
X67476823Y-50088313D01*
G37*
G36*
X63737142Y-47605242D02*
G01*
X63885101Y-47666529D01*
X64018255Y-47755499D01*
X64131501Y-47868745D01*
X64220471Y-48001899D01*
X64281758Y-48149858D01*
X64313000Y-48306925D01*
X64313000Y-48467075D01*
X64281758Y-48624142D01*
X64220471Y-48772101D01*
X64131501Y-48905255D01*
X64018255Y-49018501D01*
X63885101Y-49107471D01*
X63737142Y-49168758D01*
X63580075Y-49200000D01*
X63419925Y-49200000D01*
X63262858Y-49168758D01*
X63114899Y-49107471D01*
X62981745Y-49018501D01*
X62868499Y-48905255D01*
X62779529Y-48772101D01*
X62718242Y-48624142D01*
X62687000Y-48467075D01*
X62687000Y-48306925D01*
X62718242Y-48149858D01*
X62779529Y-48001899D01*
X62868499Y-47868745D01*
X62981745Y-47755499D01*
X63114899Y-47666529D01*
X63262858Y-47605242D01*
X63419925Y-47574000D01*
X63580075Y-47574000D01*
X63737142Y-47605242D01*
X63737142Y-47605242D01*
G37*
G36*
X61126823Y-39293313D02*
G01*
X61287242Y-39341976D01*
X61419906Y-39412886D01*
X61435078Y-39420996D01*
X61564659Y-39527341D01*
X61671004Y-39656922D01*
X61671005Y-39656924D01*
X61750024Y-39804758D01*
X61798687Y-39965177D01*
X61815117Y-40132000D01*
X61798687Y-40298823D01*
X61750024Y-40459242D01*
X61679114Y-40591906D01*
X61671004Y-40607078D01*
X61564659Y-40736659D01*
X61435078Y-40843004D01*
X61435076Y-40843005D01*
X61287242Y-40922024D01*
X61126823Y-40970687D01*
X61001804Y-40983000D01*
X60918196Y-40983000D01*
X60793177Y-40970687D01*
X60632758Y-40922024D01*
X60484924Y-40843005D01*
X60484922Y-40843004D01*
X60355341Y-40736659D01*
X60248996Y-40607078D01*
X60240886Y-40591906D01*
X60169976Y-40459242D01*
X60121313Y-40298823D01*
X60104883Y-40132000D01*
X60121313Y-39965177D01*
X60169976Y-39804758D01*
X60248995Y-39656924D01*
X60248996Y-39656922D01*
X60355341Y-39527341D01*
X60484922Y-39420996D01*
X60500094Y-39412886D01*
X60632758Y-39341976D01*
X60793177Y-39293313D01*
X60918196Y-39281000D01*
X61001804Y-39281000D01*
X61126823Y-39293313D01*
X61126823Y-39293313D01*
G37*
G36*
X69431000Y-40983000D02*
G01*
X67729000Y-40983000D01*
X67729000Y-39281000D01*
X69431000Y-39281000D01*
X69431000Y-40983000D01*
X69431000Y-40983000D01*
G37*
G36*
X61126823Y-36753313D02*
G01*
X61287242Y-36801976D01*
X61419906Y-36872886D01*
X61435078Y-36880996D01*
X61564659Y-36987341D01*
X61671004Y-37116922D01*
X61671005Y-37116924D01*
X61750024Y-37264758D01*
X61798687Y-37425177D01*
X61815117Y-37592000D01*
X61798687Y-37758823D01*
X61750024Y-37919242D01*
X61679114Y-38051906D01*
X61671004Y-38067078D01*
X61564659Y-38196659D01*
X61435078Y-38303004D01*
X61435076Y-38303005D01*
X61287242Y-38382024D01*
X61126823Y-38430687D01*
X61001804Y-38443000D01*
X60918196Y-38443000D01*
X60793177Y-38430687D01*
X60632758Y-38382024D01*
X60484924Y-38303005D01*
X60484922Y-38303004D01*
X60355341Y-38196659D01*
X60248996Y-38067078D01*
X60240886Y-38051906D01*
X60169976Y-37919242D01*
X60121313Y-37758823D01*
X60104883Y-37592000D01*
X60121313Y-37425177D01*
X60169976Y-37264758D01*
X60248995Y-37116924D01*
X60248996Y-37116922D01*
X60355341Y-36987341D01*
X60484922Y-36880996D01*
X60500094Y-36872886D01*
X60632758Y-36801976D01*
X60793177Y-36753313D01*
X60918196Y-36741000D01*
X61001804Y-36741000D01*
X61126823Y-36753313D01*
X61126823Y-36753313D01*
G37*
G36*
X68746823Y-36753313D02*
G01*
X68907242Y-36801976D01*
X69039906Y-36872886D01*
X69055078Y-36880996D01*
X69184659Y-36987341D01*
X69291004Y-37116922D01*
X69291005Y-37116924D01*
X69370024Y-37264758D01*
X69418687Y-37425177D01*
X69435117Y-37592000D01*
X69418687Y-37758823D01*
X69370024Y-37919242D01*
X69299114Y-38051906D01*
X69291004Y-38067078D01*
X69184659Y-38196659D01*
X69055078Y-38303004D01*
X69055076Y-38303005D01*
X68907242Y-38382024D01*
X68746823Y-38430687D01*
X68621804Y-38443000D01*
X68538196Y-38443000D01*
X68413177Y-38430687D01*
X68252758Y-38382024D01*
X68104924Y-38303005D01*
X68104922Y-38303004D01*
X67975341Y-38196659D01*
X67868996Y-38067078D01*
X67860886Y-38051906D01*
X67789976Y-37919242D01*
X67741313Y-37758823D01*
X67724883Y-37592000D01*
X67741313Y-37425177D01*
X67789976Y-37264758D01*
X67868995Y-37116924D01*
X67868996Y-37116922D01*
X67975341Y-36987341D01*
X68104922Y-36880996D01*
X68120094Y-36872886D01*
X68252758Y-36801976D01*
X68413177Y-36753313D01*
X68538196Y-36741000D01*
X68621804Y-36741000D01*
X68746823Y-36753313D01*
X68746823Y-36753313D01*
G37*
G36*
X72529000Y-36969000D02*
G01*
X70727000Y-36969000D01*
X70727000Y-35167000D01*
X72529000Y-35167000D01*
X72529000Y-36969000D01*
X72529000Y-36969000D01*
G37*
G36*
X61126823Y-34213313D02*
G01*
X61287242Y-34261976D01*
X61419906Y-34332886D01*
X61435078Y-34340996D01*
X61564659Y-34447341D01*
X61671004Y-34576922D01*
X61671005Y-34576924D01*
X61750024Y-34724758D01*
X61798687Y-34885177D01*
X61815117Y-35052000D01*
X61798687Y-35218823D01*
X61750024Y-35379242D01*
X61679114Y-35511906D01*
X61671004Y-35527078D01*
X61564659Y-35656659D01*
X61435078Y-35763004D01*
X61435076Y-35763005D01*
X61287242Y-35842024D01*
X61126823Y-35890687D01*
X61001804Y-35903000D01*
X60918196Y-35903000D01*
X60793177Y-35890687D01*
X60632758Y-35842024D01*
X60484924Y-35763005D01*
X60484922Y-35763004D01*
X60355341Y-35656659D01*
X60248996Y-35527078D01*
X60240886Y-35511906D01*
X60169976Y-35379242D01*
X60121313Y-35218823D01*
X60104883Y-35052000D01*
X60121313Y-34885177D01*
X60169976Y-34724758D01*
X60248995Y-34576924D01*
X60248996Y-34576922D01*
X60355341Y-34447341D01*
X60484922Y-34340996D01*
X60500094Y-34332886D01*
X60632758Y-34261976D01*
X60793177Y-34213313D01*
X60918196Y-34201000D01*
X61001804Y-34201000D01*
X61126823Y-34213313D01*
X61126823Y-34213313D01*
G37*
G36*
X68746823Y-34213313D02*
G01*
X68907242Y-34261976D01*
X69039906Y-34332886D01*
X69055078Y-34340996D01*
X69184659Y-34447341D01*
X69291004Y-34576922D01*
X69291005Y-34576924D01*
X69370024Y-34724758D01*
X69418687Y-34885177D01*
X69435117Y-35052000D01*
X69418687Y-35218823D01*
X69370024Y-35379242D01*
X69299114Y-35511906D01*
X69291004Y-35527078D01*
X69184659Y-35656659D01*
X69055078Y-35763004D01*
X69055076Y-35763005D01*
X68907242Y-35842024D01*
X68746823Y-35890687D01*
X68621804Y-35903000D01*
X68538196Y-35903000D01*
X68413177Y-35890687D01*
X68252758Y-35842024D01*
X68104924Y-35763005D01*
X68104922Y-35763004D01*
X67975341Y-35656659D01*
X67868996Y-35527078D01*
X67860886Y-35511906D01*
X67789976Y-35379242D01*
X67741313Y-35218823D01*
X67724883Y-35052000D01*
X67741313Y-34885177D01*
X67789976Y-34724758D01*
X67868995Y-34576924D01*
X67868996Y-34576922D01*
X67975341Y-34447341D01*
X68104922Y-34340996D01*
X68120094Y-34332886D01*
X68252758Y-34261976D01*
X68413177Y-34213313D01*
X68538196Y-34201000D01*
X68621804Y-34201000D01*
X68746823Y-34213313D01*
X68746823Y-34213313D01*
G37*
G36*
X71738442Y-32633518D02*
G01*
X71804627Y-32640037D01*
X71974466Y-32691557D01*
X72130991Y-32775222D01*
X72166729Y-32804552D01*
X72268186Y-32887814D01*
X72349647Y-32987076D01*
X72380778Y-33025009D01*
X72464443Y-33181534D01*
X72515963Y-33351373D01*
X72533359Y-33528000D01*
X72515963Y-33704627D01*
X72464443Y-33874466D01*
X72380778Y-34030991D01*
X72351448Y-34066729D01*
X72268186Y-34168186D01*
X72166729Y-34251448D01*
X72130991Y-34280778D01*
X71974466Y-34364443D01*
X71804627Y-34415963D01*
X71738443Y-34422481D01*
X71672260Y-34429000D01*
X71583740Y-34429000D01*
X71517557Y-34422481D01*
X71451373Y-34415963D01*
X71281534Y-34364443D01*
X71125009Y-34280778D01*
X71089271Y-34251448D01*
X70987814Y-34168186D01*
X70904552Y-34066729D01*
X70875222Y-34030991D01*
X70791557Y-33874466D01*
X70740037Y-33704627D01*
X70722641Y-33528000D01*
X70740037Y-33351373D01*
X70791557Y-33181534D01*
X70875222Y-33025009D01*
X70906353Y-32987076D01*
X70987814Y-32887814D01*
X71089271Y-32804552D01*
X71125009Y-32775222D01*
X71281534Y-32691557D01*
X71451373Y-32640037D01*
X71517558Y-32633518D01*
X71583740Y-32627000D01*
X71672260Y-32627000D01*
X71738442Y-32633518D01*
X71738442Y-32633518D01*
G37*
G36*
X61126823Y-31673313D02*
G01*
X61287242Y-31721976D01*
X61419906Y-31792886D01*
X61435078Y-31800996D01*
X61564659Y-31907341D01*
X61671004Y-32036922D01*
X61671005Y-32036924D01*
X61750024Y-32184758D01*
X61798687Y-32345177D01*
X61815117Y-32512000D01*
X61798687Y-32678823D01*
X61750024Y-32839242D01*
X61724061Y-32887815D01*
X61671004Y-32987078D01*
X61564659Y-33116659D01*
X61435078Y-33223004D01*
X61435076Y-33223005D01*
X61287242Y-33302024D01*
X61126823Y-33350687D01*
X61001804Y-33363000D01*
X60918196Y-33363000D01*
X60793177Y-33350687D01*
X60632758Y-33302024D01*
X60484924Y-33223005D01*
X60484922Y-33223004D01*
X60355341Y-33116659D01*
X60248996Y-32987078D01*
X60195939Y-32887815D01*
X60169976Y-32839242D01*
X60121313Y-32678823D01*
X60104883Y-32512000D01*
X60121313Y-32345177D01*
X60169976Y-32184758D01*
X60248995Y-32036924D01*
X60248996Y-32036922D01*
X60355341Y-31907341D01*
X60484922Y-31800996D01*
X60500094Y-31792886D01*
X60632758Y-31721976D01*
X60793177Y-31673313D01*
X60918196Y-31661000D01*
X61001804Y-31661000D01*
X61126823Y-31673313D01*
X61126823Y-31673313D01*
G37*
G36*
X68746823Y-31673313D02*
G01*
X68907242Y-31721976D01*
X69039906Y-31792886D01*
X69055078Y-31800996D01*
X69184659Y-31907341D01*
X69291004Y-32036922D01*
X69291005Y-32036924D01*
X69370024Y-32184758D01*
X69418687Y-32345177D01*
X69435117Y-32512000D01*
X69418687Y-32678823D01*
X69370024Y-32839242D01*
X69344061Y-32887815D01*
X69291004Y-32987078D01*
X69184659Y-33116659D01*
X69055078Y-33223004D01*
X69055076Y-33223005D01*
X68907242Y-33302024D01*
X68746823Y-33350687D01*
X68621804Y-33363000D01*
X68538196Y-33363000D01*
X68413177Y-33350687D01*
X68252758Y-33302024D01*
X68104924Y-33223005D01*
X68104922Y-33223004D01*
X67975341Y-33116659D01*
X67868996Y-32987078D01*
X67815939Y-32887815D01*
X67789976Y-32839242D01*
X67741313Y-32678823D01*
X67724883Y-32512000D01*
X67741313Y-32345177D01*
X67789976Y-32184758D01*
X67868995Y-32036924D01*
X67868996Y-32036922D01*
X67975341Y-31907341D01*
X68104922Y-31800996D01*
X68120094Y-31792886D01*
X68252758Y-31721976D01*
X68413177Y-31673313D01*
X68538196Y-31661000D01*
X68621804Y-31661000D01*
X68746823Y-31673313D01*
X68746823Y-31673313D01*
G37*
G36*
X62340443Y-27680519D02*
G01*
X62406627Y-27687037D01*
X62576466Y-27738557D01*
X62732991Y-27822222D01*
X62768729Y-27851552D01*
X62870186Y-27934814D01*
X62953448Y-28036271D01*
X62982778Y-28072009D01*
X63066443Y-28228534D01*
X63117963Y-28398373D01*
X63135359Y-28575000D01*
X63117963Y-28751627D01*
X63066443Y-28921466D01*
X62982778Y-29077991D01*
X62953448Y-29113729D01*
X62870186Y-29215186D01*
X62768729Y-29298448D01*
X62732991Y-29327778D01*
X62576466Y-29411443D01*
X62406627Y-29462963D01*
X62340443Y-29469481D01*
X62274260Y-29476000D01*
X62185740Y-29476000D01*
X62119557Y-29469481D01*
X62053373Y-29462963D01*
X61883534Y-29411443D01*
X61727009Y-29327778D01*
X61691271Y-29298448D01*
X61589814Y-29215186D01*
X61506552Y-29113729D01*
X61477222Y-29077991D01*
X61393557Y-28921466D01*
X61342037Y-28751627D01*
X61324641Y-28575000D01*
X61342037Y-28398373D01*
X61393557Y-28228534D01*
X61477222Y-28072009D01*
X61506552Y-28036271D01*
X61589814Y-27934814D01*
X61691271Y-27851552D01*
X61727009Y-27822222D01*
X61883534Y-27738557D01*
X62053373Y-27687037D01*
X62119557Y-27680519D01*
X62185740Y-27674000D01*
X62274260Y-27674000D01*
X62340443Y-27680519D01*
X62340443Y-27680519D01*
G37*
G36*
X64880443Y-27680519D02*
G01*
X64946627Y-27687037D01*
X65116466Y-27738557D01*
X65272991Y-27822222D01*
X65308729Y-27851552D01*
X65410186Y-27934814D01*
X65493448Y-28036271D01*
X65522778Y-28072009D01*
X65606443Y-28228534D01*
X65657963Y-28398373D01*
X65675359Y-28575000D01*
X65657963Y-28751627D01*
X65606443Y-28921466D01*
X65522778Y-29077991D01*
X65493448Y-29113729D01*
X65410186Y-29215186D01*
X65308729Y-29298448D01*
X65272991Y-29327778D01*
X65116466Y-29411443D01*
X64946627Y-29462963D01*
X64880443Y-29469481D01*
X64814260Y-29476000D01*
X64725740Y-29476000D01*
X64659557Y-29469481D01*
X64593373Y-29462963D01*
X64423534Y-29411443D01*
X64267009Y-29327778D01*
X64231271Y-29298448D01*
X64129814Y-29215186D01*
X64046552Y-29113729D01*
X64017222Y-29077991D01*
X63933557Y-28921466D01*
X63882037Y-28751627D01*
X63864641Y-28575000D01*
X63882037Y-28398373D01*
X63933557Y-28228534D01*
X64017222Y-28072009D01*
X64046552Y-28036271D01*
X64129814Y-27934814D01*
X64231271Y-27851552D01*
X64267009Y-27822222D01*
X64423534Y-27738557D01*
X64593373Y-27687037D01*
X64659557Y-27680519D01*
X64725740Y-27674000D01*
X64814260Y-27674000D01*
X64880443Y-27680519D01*
X64880443Y-27680519D01*
G37*
G36*
X60591000Y-29476000D02*
G01*
X58789000Y-29476000D01*
X58789000Y-27674000D01*
X60591000Y-27674000D01*
X60591000Y-29476000D01*
X60591000Y-29476000D01*
G37*
G36*
X67420443Y-27680519D02*
G01*
X67486627Y-27687037D01*
X67656466Y-27738557D01*
X67812991Y-27822222D01*
X67848729Y-27851552D01*
X67950186Y-27934814D01*
X68033448Y-28036271D01*
X68062778Y-28072009D01*
X68146443Y-28228534D01*
X68197963Y-28398373D01*
X68215359Y-28575000D01*
X68197963Y-28751627D01*
X68146443Y-28921466D01*
X68062778Y-29077991D01*
X68033448Y-29113729D01*
X67950186Y-29215186D01*
X67848729Y-29298448D01*
X67812991Y-29327778D01*
X67656466Y-29411443D01*
X67486627Y-29462963D01*
X67420443Y-29469481D01*
X67354260Y-29476000D01*
X67265740Y-29476000D01*
X67199557Y-29469481D01*
X67133373Y-29462963D01*
X66963534Y-29411443D01*
X66807009Y-29327778D01*
X66771271Y-29298448D01*
X66669814Y-29215186D01*
X66586552Y-29113729D01*
X66557222Y-29077991D01*
X66473557Y-28921466D01*
X66422037Y-28751627D01*
X66404641Y-28575000D01*
X66422037Y-28398373D01*
X66473557Y-28228534D01*
X66557222Y-28072009D01*
X66586552Y-28036271D01*
X66669814Y-27934814D01*
X66771271Y-27851552D01*
X66807009Y-27822222D01*
X66963534Y-27738557D01*
X67133373Y-27687037D01*
X67199557Y-27680519D01*
X67265740Y-27674000D01*
X67354260Y-27674000D01*
X67420443Y-27680519D01*
X67420443Y-27680519D01*
G37*
M02*
