M48
; DRILL file {KiCad (5.1.2-1)-1} date Wednesday, August 21, 2019 at 11:01:55 AM
; FORMAT={-:-/ absolute / inch / decimal}
; #@! TF.CreationDate,2019-08-21T11:01:55-07:00
; #@! TF.GenerationSoftware,Kicad,Pcbnew,(5.1.2-1)-1
; #@! TF.FileFunction,Plated,1,2,PTH
FMAT,2
INCH
T1C0.0300
T2C0.0315
T3C0.0394
T4C0.0400
T5C0.1181
%
G90
G05
T1
X2.5Y-1.905
X2.5Y-2.905
X2.765Y-2.53
X2.765Y-2.78
X2.765Y-2.035
X2.765Y-2.285
X2.235Y-2.035
X2.235Y-2.285
X2.235Y-2.53
X2.235Y-2.78
T2
X2.785Y-3.65
X2.785Y-3.75
X2.785Y-3.85
X2.35Y-2.005
X2.35Y-2.105
X2.35Y-2.205
X2.35Y-2.305
X2.35Y-2.405
X2.35Y-2.505
X2.35Y-2.605
X2.35Y-2.705
X2.35Y-2.805
X2.65Y-2.005
X2.65Y-2.105
X2.65Y-2.205
X2.65Y-2.305
X2.65Y-2.405
X2.65Y-2.505
X2.65Y-2.605
X2.65Y-2.705
X2.65Y-2.805
X2.4Y-1.28
X2.4Y-1.38
X2.4Y-1.48
X2.4Y-1.58
X2.7Y-1.28
X2.7Y-1.38
X2.7Y-1.48
X2.7Y-1.58
X2.17Y-3.455
X2.17Y-3.755
X2.27Y-3.455
X2.27Y-3.755
X2.37Y-3.455
X2.37Y-3.755
X2.47Y-3.455
X2.47Y-3.755
X2.78Y-3.045
X2.78Y-3.145
X2.78Y-3.245
T3
X2.18Y-3.09
X2.18Y-3.19
X2.18Y-3.29
X2.615Y-3.755
X2.615Y-3.855
X2.615Y-3.955
X2.35Y-1.125
X2.45Y-1.125
X2.55Y-1.125
X2.65Y-1.125
X2.5Y-3.08
X2.5Y-3.18
X2.82Y-1.32
X2.82Y-1.42
X2.175Y-3.88
X2.175Y-3.98
T4
X2.63Y-4.22
X2.63Y-4.32
X2.63Y-4.42
X2.63Y-4.52
X2.63Y-4.62
X2.73Y-4.22
X2.73Y-4.32
X2.73Y-4.42
X2.73Y-4.52
X2.73Y-4.62
T5
X2.2Y-1.1
X2.2Y-4.9
X2.8Y-1.1
X2.8Y-4.9
T0
M30
