G04 #@! TF.GenerationSoftware,KiCad,Pcbnew,(5.1.2-1)-1*
G04 #@! TF.CreationDate,2019-08-21T11:01:54-07:00*
G04 #@! TF.ProjectId,AS3320_VCF,41533333-3230-45f5-9643-462e6b696361,rev?*
G04 #@! TF.SameCoordinates,Original*
G04 #@! TF.FileFunction,Copper,L2,Bot*
G04 #@! TF.FilePolarity,Positive*
%FSLAX46Y46*%
G04 Gerber Fmt 4.6, Leading zero omitted, Abs format (unit mm)*
G04 Created by KiCad (PCBNEW (5.1.2-1)-1) date 2019-08-21 11:01:54*
%MOMM*%
%LPD*%
G04 APERTURE LIST*
%ADD10O,1.700000X1.700000*%
%ADD11R,1.700000X1.700000*%
%ADD12O,1.600000X1.600000*%
%ADD13R,1.600000X1.600000*%
%ADD14C,1.440000*%
%ADD15C,1.524000*%
%ADD16C,0.100000*%
%ADD17C,1.600000*%
%ADD18O,1.727200X1.727200*%
%ADD19R,1.727200X1.727200*%
%ADD20C,3.200000*%
%ADD21C,0.250000*%
%ADD22C,0.254000*%
G04 APERTURE END LIST*
D10*
X63500000Y-80772000D03*
D11*
X63500000Y-78232000D03*
D10*
X55245000Y-98552000D03*
D11*
X55245000Y-101092000D03*
D10*
X71628000Y-33528000D03*
D11*
X71628000Y-36068000D03*
D10*
X55372000Y-78486000D03*
X55372000Y-81026000D03*
D11*
X55372000Y-83566000D03*
D10*
X66421000Y-100457000D03*
X66421000Y-97917000D03*
D11*
X66421000Y-95377000D03*
D12*
X60960000Y-40132000D03*
X68580000Y-32512000D03*
X60960000Y-37592000D03*
X68580000Y-35052000D03*
X60960000Y-35052000D03*
X68580000Y-37592000D03*
X60960000Y-32512000D03*
D13*
X68580000Y-40132000D03*
D12*
X62738000Y-95377000D03*
X55118000Y-87757000D03*
X60198000Y-95377000D03*
X57658000Y-87757000D03*
X57658000Y-95377000D03*
X60198000Y-87757000D03*
X55118000Y-95377000D03*
D13*
X62738000Y-87757000D03*
D12*
X67310000Y-50927000D03*
X59690000Y-71247000D03*
X67310000Y-53467000D03*
X59690000Y-68707000D03*
X67310000Y-56007000D03*
X59690000Y-66167000D03*
X67310000Y-58547000D03*
X59690000Y-63627000D03*
X67310000Y-61087000D03*
X59690000Y-61087000D03*
X67310000Y-63627000D03*
X59690000Y-58547000D03*
X67310000Y-66167000D03*
X59690000Y-56007000D03*
X67310000Y-68707000D03*
X59690000Y-53467000D03*
X67310000Y-71247000D03*
D13*
X59690000Y-50927000D03*
D14*
X70739000Y-97790000D03*
X70739000Y-95250000D03*
X70739000Y-92710000D03*
X70612000Y-82423000D03*
X70612000Y-79883000D03*
X70612000Y-77343000D03*
D10*
X67310000Y-28575000D03*
X64770000Y-28575000D03*
X62230000Y-28575000D03*
D11*
X59690000Y-28575000D03*
D15*
X56769000Y-70612000D03*
X56769000Y-64262000D03*
X56769000Y-51689000D03*
X56769000Y-58039000D03*
X70231000Y-51689000D03*
X70231000Y-58039000D03*
X70231000Y-70612000D03*
X70231000Y-64262000D03*
D16*
G36*
X59248504Y-108197204D02*
G01*
X59272773Y-108200804D01*
X59296571Y-108206765D01*
X59319671Y-108215030D01*
X59341849Y-108225520D01*
X59362893Y-108238133D01*
X59382598Y-108252747D01*
X59400777Y-108269223D01*
X59417253Y-108287402D01*
X59431867Y-108307107D01*
X59444480Y-108328151D01*
X59454970Y-108350329D01*
X59463235Y-108373429D01*
X59469196Y-108397227D01*
X59472796Y-108421496D01*
X59474000Y-108446000D01*
X59474000Y-110546000D01*
X59472796Y-110570504D01*
X59469196Y-110594773D01*
X59463235Y-110618571D01*
X59454970Y-110641671D01*
X59444480Y-110663849D01*
X59431867Y-110684893D01*
X59417253Y-110704598D01*
X59400777Y-110722777D01*
X59382598Y-110739253D01*
X59362893Y-110753867D01*
X59341849Y-110766480D01*
X59319671Y-110776970D01*
X59296571Y-110785235D01*
X59272773Y-110791196D01*
X59248504Y-110794796D01*
X59224000Y-110796000D01*
X58124000Y-110796000D01*
X58099496Y-110794796D01*
X58075227Y-110791196D01*
X58051429Y-110785235D01*
X58028329Y-110776970D01*
X58006151Y-110766480D01*
X57985107Y-110753867D01*
X57965402Y-110739253D01*
X57947223Y-110722777D01*
X57930747Y-110704598D01*
X57916133Y-110684893D01*
X57903520Y-110663849D01*
X57893030Y-110641671D01*
X57884765Y-110618571D01*
X57878804Y-110594773D01*
X57875204Y-110570504D01*
X57874000Y-110546000D01*
X57874000Y-108446000D01*
X57875204Y-108421496D01*
X57878804Y-108397227D01*
X57884765Y-108373429D01*
X57893030Y-108350329D01*
X57903520Y-108328151D01*
X57916133Y-108307107D01*
X57930747Y-108287402D01*
X57947223Y-108269223D01*
X57965402Y-108252747D01*
X57985107Y-108238133D01*
X58006151Y-108225520D01*
X58028329Y-108215030D01*
X58051429Y-108206765D01*
X58075227Y-108200804D01*
X58099496Y-108197204D01*
X58124000Y-108196000D01*
X59224000Y-108196000D01*
X59248504Y-108197204D01*
X59248504Y-108197204D01*
G37*
D17*
X58674000Y-109496000D03*
D16*
G36*
X59248504Y-104597204D02*
G01*
X59272773Y-104600804D01*
X59296571Y-104606765D01*
X59319671Y-104615030D01*
X59341849Y-104625520D01*
X59362893Y-104638133D01*
X59382598Y-104652747D01*
X59400777Y-104669223D01*
X59417253Y-104687402D01*
X59431867Y-104707107D01*
X59444480Y-104728151D01*
X59454970Y-104750329D01*
X59463235Y-104773429D01*
X59469196Y-104797227D01*
X59472796Y-104821496D01*
X59474000Y-104846000D01*
X59474000Y-106946000D01*
X59472796Y-106970504D01*
X59469196Y-106994773D01*
X59463235Y-107018571D01*
X59454970Y-107041671D01*
X59444480Y-107063849D01*
X59431867Y-107084893D01*
X59417253Y-107104598D01*
X59400777Y-107122777D01*
X59382598Y-107139253D01*
X59362893Y-107153867D01*
X59341849Y-107166480D01*
X59319671Y-107176970D01*
X59296571Y-107185235D01*
X59272773Y-107191196D01*
X59248504Y-107194796D01*
X59224000Y-107196000D01*
X58124000Y-107196000D01*
X58099496Y-107194796D01*
X58075227Y-107191196D01*
X58051429Y-107185235D01*
X58028329Y-107176970D01*
X58006151Y-107166480D01*
X57985107Y-107153867D01*
X57965402Y-107139253D01*
X57947223Y-107122777D01*
X57930747Y-107104598D01*
X57916133Y-107084893D01*
X57903520Y-107063849D01*
X57893030Y-107041671D01*
X57884765Y-107018571D01*
X57878804Y-106994773D01*
X57875204Y-106970504D01*
X57874000Y-106946000D01*
X57874000Y-104846000D01*
X57875204Y-104821496D01*
X57878804Y-104797227D01*
X57884765Y-104773429D01*
X57893030Y-104750329D01*
X57903520Y-104728151D01*
X57916133Y-104707107D01*
X57930747Y-104687402D01*
X57947223Y-104669223D01*
X57965402Y-104652747D01*
X57985107Y-104638133D01*
X58006151Y-104625520D01*
X58028329Y-104615030D01*
X58051429Y-104606765D01*
X58075227Y-104600804D01*
X58099496Y-104597204D01*
X58124000Y-104596000D01*
X59224000Y-104596000D01*
X59248504Y-104597204D01*
X59248504Y-104597204D01*
G37*
D17*
X58674000Y-105896000D03*
D16*
G36*
X59248504Y-115563204D02*
G01*
X59272773Y-115566804D01*
X59296571Y-115572765D01*
X59319671Y-115581030D01*
X59341849Y-115591520D01*
X59362893Y-115604133D01*
X59382598Y-115618747D01*
X59400777Y-115635223D01*
X59417253Y-115653402D01*
X59431867Y-115673107D01*
X59444480Y-115694151D01*
X59454970Y-115716329D01*
X59463235Y-115739429D01*
X59469196Y-115763227D01*
X59472796Y-115787496D01*
X59474000Y-115812000D01*
X59474000Y-117912000D01*
X59472796Y-117936504D01*
X59469196Y-117960773D01*
X59463235Y-117984571D01*
X59454970Y-118007671D01*
X59444480Y-118029849D01*
X59431867Y-118050893D01*
X59417253Y-118070598D01*
X59400777Y-118088777D01*
X59382598Y-118105253D01*
X59362893Y-118119867D01*
X59341849Y-118132480D01*
X59319671Y-118142970D01*
X59296571Y-118151235D01*
X59272773Y-118157196D01*
X59248504Y-118160796D01*
X59224000Y-118162000D01*
X58124000Y-118162000D01*
X58099496Y-118160796D01*
X58075227Y-118157196D01*
X58051429Y-118151235D01*
X58028329Y-118142970D01*
X58006151Y-118132480D01*
X57985107Y-118119867D01*
X57965402Y-118105253D01*
X57947223Y-118088777D01*
X57930747Y-118070598D01*
X57916133Y-118050893D01*
X57903520Y-118029849D01*
X57893030Y-118007671D01*
X57884765Y-117984571D01*
X57878804Y-117960773D01*
X57875204Y-117936504D01*
X57874000Y-117912000D01*
X57874000Y-115812000D01*
X57875204Y-115787496D01*
X57878804Y-115763227D01*
X57884765Y-115739429D01*
X57893030Y-115716329D01*
X57903520Y-115694151D01*
X57916133Y-115673107D01*
X57930747Y-115653402D01*
X57947223Y-115635223D01*
X57965402Y-115618747D01*
X57985107Y-115604133D01*
X58006151Y-115591520D01*
X58028329Y-115581030D01*
X58051429Y-115572765D01*
X58075227Y-115566804D01*
X58099496Y-115563204D01*
X58124000Y-115562000D01*
X59224000Y-115562000D01*
X59248504Y-115563204D01*
X59248504Y-115563204D01*
G37*
D17*
X58674000Y-116862000D03*
D16*
G36*
X59248504Y-111963204D02*
G01*
X59272773Y-111966804D01*
X59296571Y-111972765D01*
X59319671Y-111981030D01*
X59341849Y-111991520D01*
X59362893Y-112004133D01*
X59382598Y-112018747D01*
X59400777Y-112035223D01*
X59417253Y-112053402D01*
X59431867Y-112073107D01*
X59444480Y-112094151D01*
X59454970Y-112116329D01*
X59463235Y-112139429D01*
X59469196Y-112163227D01*
X59472796Y-112187496D01*
X59474000Y-112212000D01*
X59474000Y-114312000D01*
X59472796Y-114336504D01*
X59469196Y-114360773D01*
X59463235Y-114384571D01*
X59454970Y-114407671D01*
X59444480Y-114429849D01*
X59431867Y-114450893D01*
X59417253Y-114470598D01*
X59400777Y-114488777D01*
X59382598Y-114505253D01*
X59362893Y-114519867D01*
X59341849Y-114532480D01*
X59319671Y-114542970D01*
X59296571Y-114551235D01*
X59272773Y-114557196D01*
X59248504Y-114560796D01*
X59224000Y-114562000D01*
X58124000Y-114562000D01*
X58099496Y-114560796D01*
X58075227Y-114557196D01*
X58051429Y-114551235D01*
X58028329Y-114542970D01*
X58006151Y-114532480D01*
X57985107Y-114519867D01*
X57965402Y-114505253D01*
X57947223Y-114488777D01*
X57930747Y-114470598D01*
X57916133Y-114450893D01*
X57903520Y-114429849D01*
X57893030Y-114407671D01*
X57884765Y-114384571D01*
X57878804Y-114360773D01*
X57875204Y-114336504D01*
X57874000Y-114312000D01*
X57874000Y-112212000D01*
X57875204Y-112187496D01*
X57878804Y-112163227D01*
X57884765Y-112139429D01*
X57893030Y-112116329D01*
X57903520Y-112094151D01*
X57916133Y-112073107D01*
X57930747Y-112053402D01*
X57947223Y-112035223D01*
X57965402Y-112018747D01*
X57985107Y-112004133D01*
X58006151Y-111991520D01*
X58028329Y-111981030D01*
X58051429Y-111972765D01*
X58075227Y-111966804D01*
X58099496Y-111963204D01*
X58124000Y-111962000D01*
X59224000Y-111962000D01*
X59248504Y-111963204D01*
X59248504Y-111963204D01*
G37*
D17*
X58674000Y-113262000D03*
D18*
X69342000Y-107188000D03*
X66802000Y-107188000D03*
X69342000Y-109728000D03*
X66802000Y-109728000D03*
X69342000Y-112268000D03*
X66802000Y-112268000D03*
X69342000Y-114808000D03*
X66802000Y-114808000D03*
X69342000Y-117348000D03*
D19*
X66802000Y-117348000D03*
D15*
X63500000Y-48387000D03*
X63500000Y-73787000D03*
D20*
X55880000Y-27940000D03*
X71120000Y-27940000D03*
X55880000Y-124460000D03*
X71120000Y-124460000D03*
D21*
X59690000Y-61341000D02*
X59690000Y-61087000D01*
X56769000Y-64262000D02*
X59690000Y-61341000D01*
X69342000Y-58039000D02*
X70231000Y-58039000D01*
X67310000Y-56007000D02*
X69342000Y-58039000D01*
X70231000Y-65786000D02*
X70231000Y-64262000D01*
X67310000Y-68707000D02*
X70231000Y-65786000D01*
X66510001Y-60287001D02*
X67310000Y-61087000D01*
X66184999Y-59961999D02*
X66510001Y-60287001D01*
X66184999Y-45356999D02*
X66184999Y-59961999D01*
X60960000Y-40132000D02*
X66184999Y-45356999D01*
X69879001Y-98835001D02*
X66421000Y-95377000D01*
X71240601Y-98835001D02*
X69879001Y-98835001D01*
X71784001Y-98291601D02*
X71240601Y-98835001D01*
X71784001Y-64164001D02*
X71784001Y-98291601D01*
X68707000Y-61087000D02*
X71784001Y-64164001D01*
X67310000Y-61087000D02*
X68707000Y-61087000D01*
X58674000Y-99441000D02*
X62738000Y-95377000D01*
X58674000Y-105896000D02*
X58674000Y-99441000D01*
X58674000Y-105896000D02*
X65510000Y-105896000D01*
X65510000Y-105896000D02*
X66802000Y-107188000D01*
X66802000Y-107188000D02*
X69342000Y-107188000D01*
X67780001Y-33311999D02*
X68580000Y-32512000D01*
X67165001Y-33926999D02*
X67780001Y-33311999D01*
X60419999Y-33926999D02*
X67165001Y-33926999D01*
X53690010Y-40656988D02*
X60419999Y-33926999D01*
X53690010Y-82984010D02*
X53690010Y-40656988D01*
X54272000Y-83566000D02*
X53690010Y-82984010D01*
X55372000Y-83566000D02*
X54272000Y-83566000D01*
X57803290Y-115991290D02*
X58674000Y-116862000D01*
X53992999Y-112180999D02*
X57803290Y-115991290D01*
X53992999Y-86045001D02*
X53992999Y-112180999D01*
X55372000Y-84666000D02*
X53992999Y-86045001D01*
X55372000Y-83566000D02*
X55372000Y-84666000D01*
X69342000Y-117348000D02*
X66802000Y-117348000D01*
X66802000Y-117348000D02*
X59182000Y-117348000D01*
X59182000Y-117348000D02*
X58674000Y-116840000D01*
X63500000Y-69977000D02*
X63500000Y-73787000D01*
X67310000Y-66167000D02*
X63500000Y-69977000D01*
X70019001Y-91990001D02*
X70739000Y-92710000D01*
X67310000Y-89281000D02*
X70019001Y-91990001D01*
X67310000Y-77597000D02*
X67310000Y-89281000D01*
X63500000Y-73787000D02*
X67310000Y-77597000D01*
D22*
G36*
X69695271Y-26203962D02*
G01*
X69383962Y-26515271D01*
X69139369Y-26881331D01*
X68970890Y-27288075D01*
X68885000Y-27719872D01*
X68885000Y-28160128D01*
X68970890Y-28591925D01*
X69139369Y-28998669D01*
X69383962Y-29364729D01*
X69695271Y-29676038D01*
X70061331Y-29920631D01*
X70468075Y-30089110D01*
X70899872Y-30175000D01*
X71340128Y-30175000D01*
X71771925Y-30089110D01*
X72178669Y-29920631D01*
X72544729Y-29676038D01*
X72856038Y-29364729D01*
X73000001Y-29149273D01*
X73000001Y-32971783D01*
X72899641Y-32761080D01*
X72725588Y-32527731D01*
X72509355Y-32332822D01*
X72259252Y-32183843D01*
X71984891Y-32086519D01*
X71755000Y-32207186D01*
X71755000Y-33401000D01*
X71775000Y-33401000D01*
X71775000Y-33655000D01*
X71755000Y-33655000D01*
X71755000Y-33675000D01*
X71501000Y-33675000D01*
X71501000Y-33655000D01*
X70307845Y-33655000D01*
X70186524Y-33884890D01*
X70231175Y-34032099D01*
X70356359Y-34294920D01*
X70530412Y-34528269D01*
X70614466Y-34604034D01*
X70533820Y-34628498D01*
X70423506Y-34687463D01*
X70326815Y-34766815D01*
X70247463Y-34863506D01*
X70188498Y-34973820D01*
X70152188Y-35093518D01*
X70139928Y-35218000D01*
X70139928Y-36918000D01*
X70152188Y-37042482D01*
X70188498Y-37162180D01*
X70247463Y-37272494D01*
X70326815Y-37369185D01*
X70423506Y-37448537D01*
X70533820Y-37507502D01*
X70653518Y-37543812D01*
X70778000Y-37556072D01*
X72478000Y-37556072D01*
X72602482Y-37543812D01*
X72722180Y-37507502D01*
X72832494Y-37448537D01*
X72929185Y-37369185D01*
X73000001Y-37282895D01*
X73000000Y-123250726D01*
X72856038Y-123035271D01*
X72544729Y-122723962D01*
X72178669Y-122479369D01*
X71771925Y-122310890D01*
X71340128Y-122225000D01*
X70899872Y-122225000D01*
X70468075Y-122310890D01*
X70061331Y-122479369D01*
X69695271Y-122723962D01*
X69383962Y-123035271D01*
X69139369Y-123401331D01*
X68970890Y-123808075D01*
X68885000Y-124239872D01*
X68885000Y-124680128D01*
X68970890Y-125111925D01*
X69139369Y-125518669D01*
X69383962Y-125884729D01*
X69695271Y-126196038D01*
X69910726Y-126340000D01*
X57089274Y-126340000D01*
X57304729Y-126196038D01*
X57616038Y-125884729D01*
X57860631Y-125518669D01*
X58029110Y-125111925D01*
X58115000Y-124680128D01*
X58115000Y-124239872D01*
X58029110Y-123808075D01*
X57860631Y-123401331D01*
X57616038Y-123035271D01*
X57304729Y-122723962D01*
X56938669Y-122479369D01*
X56531925Y-122310890D01*
X56100128Y-122225000D01*
X55659872Y-122225000D01*
X55228075Y-122310890D01*
X54821331Y-122479369D01*
X54455271Y-122723962D01*
X54143962Y-123035271D01*
X54000000Y-123250726D01*
X54000000Y-113262801D01*
X57235928Y-116498730D01*
X57235928Y-117912000D01*
X57252992Y-118085254D01*
X57303528Y-118251850D01*
X57385595Y-118405386D01*
X57496038Y-118539962D01*
X57630614Y-118650405D01*
X57784150Y-118732472D01*
X57950746Y-118783008D01*
X58124000Y-118800072D01*
X59224000Y-118800072D01*
X59397254Y-118783008D01*
X59563850Y-118732472D01*
X59717386Y-118650405D01*
X59851962Y-118539962D01*
X59962405Y-118405386D01*
X60044472Y-118251850D01*
X60088108Y-118108000D01*
X65300328Y-118108000D01*
X65300328Y-118211600D01*
X65312588Y-118336082D01*
X65348898Y-118455780D01*
X65407863Y-118566094D01*
X65487215Y-118662785D01*
X65583906Y-118742137D01*
X65694220Y-118801102D01*
X65813918Y-118837412D01*
X65938400Y-118849672D01*
X67665600Y-118849672D01*
X67790082Y-118837412D01*
X67909780Y-118801102D01*
X68020094Y-118742137D01*
X68116785Y-118662785D01*
X68196137Y-118566094D01*
X68255102Y-118455780D01*
X68270586Y-118404735D01*
X68277203Y-118412797D01*
X68505394Y-118600069D01*
X68765736Y-118739225D01*
X69048223Y-118824916D01*
X69268381Y-118846600D01*
X69415619Y-118846600D01*
X69635777Y-118824916D01*
X69918264Y-118739225D01*
X70178606Y-118600069D01*
X70406797Y-118412797D01*
X70594069Y-118184606D01*
X70733225Y-117924264D01*
X70818916Y-117641777D01*
X70847851Y-117348000D01*
X70818916Y-117054223D01*
X70733225Y-116771736D01*
X70594069Y-116511394D01*
X70406797Y-116283203D01*
X70178606Y-116095931D01*
X70134090Y-116072137D01*
X70230488Y-116014817D01*
X70448854Y-115818293D01*
X70624684Y-115582944D01*
X70751222Y-115317814D01*
X70796958Y-115167026D01*
X70675817Y-114935000D01*
X69469000Y-114935000D01*
X69469000Y-114955000D01*
X69215000Y-114955000D01*
X69215000Y-114935000D01*
X66929000Y-114935000D01*
X66929000Y-114955000D01*
X66675000Y-114955000D01*
X66675000Y-114935000D01*
X65468183Y-114935000D01*
X65347042Y-115167026D01*
X65392778Y-115317814D01*
X65519316Y-115582944D01*
X65695146Y-115818293D01*
X65758574Y-115875376D01*
X65694220Y-115894898D01*
X65583906Y-115953863D01*
X65487215Y-116033215D01*
X65407863Y-116129906D01*
X65348898Y-116240220D01*
X65312588Y-116359918D01*
X65300328Y-116484400D01*
X65300328Y-116588000D01*
X60112072Y-116588000D01*
X60112072Y-115812000D01*
X60095008Y-115638746D01*
X60044472Y-115472150D01*
X59962405Y-115318614D01*
X59851962Y-115184038D01*
X59775187Y-115121031D01*
X59828494Y-115092537D01*
X59925185Y-115013185D01*
X60004537Y-114916494D01*
X60063502Y-114806180D01*
X60099812Y-114686482D01*
X60112072Y-114562000D01*
X60109000Y-113547750D01*
X59950250Y-113389000D01*
X58801000Y-113389000D01*
X58801000Y-113409000D01*
X58547000Y-113409000D01*
X58547000Y-113389000D01*
X57397750Y-113389000D01*
X57239000Y-113547750D01*
X57236571Y-114349769D01*
X54752999Y-111866198D01*
X54752999Y-110796000D01*
X57235928Y-110796000D01*
X57248188Y-110920482D01*
X57284498Y-111040180D01*
X57343463Y-111150494D01*
X57422815Y-111247185D01*
X57519506Y-111326537D01*
X57617656Y-111379000D01*
X57519506Y-111431463D01*
X57422815Y-111510815D01*
X57343463Y-111607506D01*
X57284498Y-111717820D01*
X57248188Y-111837518D01*
X57235928Y-111962000D01*
X57239000Y-112976250D01*
X57397750Y-113135000D01*
X58547000Y-113135000D01*
X58547000Y-111485750D01*
X58440250Y-111379000D01*
X58547000Y-111272250D01*
X58547000Y-109623000D01*
X58801000Y-109623000D01*
X58801000Y-111272250D01*
X58907750Y-111379000D01*
X58801000Y-111485750D01*
X58801000Y-113135000D01*
X59950250Y-113135000D01*
X60109000Y-112976250D01*
X60110057Y-112627026D01*
X65347042Y-112627026D01*
X65392778Y-112777814D01*
X65519316Y-113042944D01*
X65695146Y-113278293D01*
X65913512Y-113474817D01*
X66019770Y-113538000D01*
X65913512Y-113601183D01*
X65695146Y-113797707D01*
X65519316Y-114033056D01*
X65392778Y-114298186D01*
X65347042Y-114448974D01*
X65468183Y-114681000D01*
X66675000Y-114681000D01*
X66675000Y-112395000D01*
X66929000Y-112395000D01*
X66929000Y-114681000D01*
X69215000Y-114681000D01*
X69215000Y-112395000D01*
X69469000Y-112395000D01*
X69469000Y-114681000D01*
X70675817Y-114681000D01*
X70796958Y-114448974D01*
X70751222Y-114298186D01*
X70624684Y-114033056D01*
X70448854Y-113797707D01*
X70230488Y-113601183D01*
X70124230Y-113538000D01*
X70230488Y-113474817D01*
X70448854Y-113278293D01*
X70624684Y-113042944D01*
X70751222Y-112777814D01*
X70796958Y-112627026D01*
X70675817Y-112395000D01*
X69469000Y-112395000D01*
X69215000Y-112395000D01*
X66929000Y-112395000D01*
X66675000Y-112395000D01*
X65468183Y-112395000D01*
X65347042Y-112627026D01*
X60110057Y-112627026D01*
X60112072Y-111962000D01*
X60099812Y-111837518D01*
X60063502Y-111717820D01*
X60004537Y-111607506D01*
X59925185Y-111510815D01*
X59828494Y-111431463D01*
X59730344Y-111379000D01*
X59828494Y-111326537D01*
X59925185Y-111247185D01*
X60004537Y-111150494D01*
X60063502Y-111040180D01*
X60099812Y-110920482D01*
X60112072Y-110796000D01*
X60109925Y-110087026D01*
X65347042Y-110087026D01*
X65392778Y-110237814D01*
X65519316Y-110502944D01*
X65695146Y-110738293D01*
X65913512Y-110934817D01*
X66019770Y-110998000D01*
X65913512Y-111061183D01*
X65695146Y-111257707D01*
X65519316Y-111493056D01*
X65392778Y-111758186D01*
X65347042Y-111908974D01*
X65468183Y-112141000D01*
X66675000Y-112141000D01*
X66675000Y-109855000D01*
X66929000Y-109855000D01*
X66929000Y-112141000D01*
X69215000Y-112141000D01*
X69215000Y-109855000D01*
X69469000Y-109855000D01*
X69469000Y-112141000D01*
X70675817Y-112141000D01*
X70796958Y-111908974D01*
X70751222Y-111758186D01*
X70624684Y-111493056D01*
X70448854Y-111257707D01*
X70230488Y-111061183D01*
X70124230Y-110998000D01*
X70230488Y-110934817D01*
X70448854Y-110738293D01*
X70624684Y-110502944D01*
X70751222Y-110237814D01*
X70796958Y-110087026D01*
X70675817Y-109855000D01*
X69469000Y-109855000D01*
X69215000Y-109855000D01*
X66929000Y-109855000D01*
X66675000Y-109855000D01*
X65468183Y-109855000D01*
X65347042Y-110087026D01*
X60109925Y-110087026D01*
X60109000Y-109781750D01*
X59950250Y-109623000D01*
X58801000Y-109623000D01*
X58547000Y-109623000D01*
X57397750Y-109623000D01*
X57239000Y-109781750D01*
X57235928Y-110796000D01*
X54752999Y-110796000D01*
X54752999Y-102580072D01*
X56095000Y-102580072D01*
X56219482Y-102567812D01*
X56339180Y-102531502D01*
X56449494Y-102472537D01*
X56546185Y-102393185D01*
X56625537Y-102296494D01*
X56684502Y-102186180D01*
X56720812Y-102066482D01*
X56733072Y-101942000D01*
X56733072Y-100242000D01*
X56720812Y-100117518D01*
X56684502Y-99997820D01*
X56625537Y-99887506D01*
X56546185Y-99790815D01*
X56449494Y-99711463D01*
X56339180Y-99652498D01*
X56258534Y-99628034D01*
X56342588Y-99552269D01*
X56516641Y-99318920D01*
X56641825Y-99056099D01*
X56686476Y-98908890D01*
X56565155Y-98679000D01*
X55372000Y-98679000D01*
X55372000Y-98699000D01*
X55118000Y-98699000D01*
X55118000Y-98679000D01*
X55098000Y-98679000D01*
X55098000Y-98425000D01*
X55118000Y-98425000D01*
X55118000Y-97231186D01*
X55372000Y-97231186D01*
X55372000Y-98425000D01*
X56565155Y-98425000D01*
X56686476Y-98195110D01*
X56641825Y-98047901D01*
X56516641Y-97785080D01*
X56342588Y-97551731D01*
X56126355Y-97356822D01*
X55876252Y-97207843D01*
X55601891Y-97110519D01*
X55372000Y-97231186D01*
X55118000Y-97231186D01*
X54888109Y-97110519D01*
X54752999Y-97158447D01*
X54752999Y-96764063D01*
X54768961Y-96768904D01*
X54991000Y-96646915D01*
X54991000Y-95504000D01*
X54971000Y-95504000D01*
X54971000Y-95250000D01*
X54991000Y-95250000D01*
X54991000Y-94107085D01*
X55245000Y-94107085D01*
X55245000Y-95250000D01*
X55265000Y-95250000D01*
X55265000Y-95504000D01*
X55245000Y-95504000D01*
X55245000Y-96646915D01*
X55467039Y-96768904D01*
X55601087Y-96728246D01*
X55855420Y-96608037D01*
X56081414Y-96440519D01*
X56270385Y-96232131D01*
X56385421Y-96040318D01*
X56459068Y-96178101D01*
X56638392Y-96396608D01*
X56856899Y-96575932D01*
X57106192Y-96709182D01*
X57376691Y-96791236D01*
X57587508Y-96812000D01*
X57728492Y-96812000D01*
X57939309Y-96791236D01*
X58209808Y-96709182D01*
X58459101Y-96575932D01*
X58677608Y-96396608D01*
X58856932Y-96178101D01*
X58928000Y-96045142D01*
X58999068Y-96178101D01*
X59178392Y-96396608D01*
X59396899Y-96575932D01*
X59646192Y-96709182D01*
X59916691Y-96791236D01*
X60127508Y-96812000D01*
X60228198Y-96812000D01*
X58162998Y-98877201D01*
X58134000Y-98900999D01*
X58110202Y-98929997D01*
X58110201Y-98929998D01*
X58039026Y-99016724D01*
X57968454Y-99148754D01*
X57965739Y-99157706D01*
X57924998Y-99292014D01*
X57914480Y-99398800D01*
X57910324Y-99441000D01*
X57914001Y-99478332D01*
X57914000Y-103986139D01*
X57784150Y-104025528D01*
X57630614Y-104107595D01*
X57496038Y-104218038D01*
X57385595Y-104352614D01*
X57303528Y-104506150D01*
X57252992Y-104672746D01*
X57235928Y-104846000D01*
X57235928Y-106946000D01*
X57252992Y-107119254D01*
X57303528Y-107285850D01*
X57385595Y-107439386D01*
X57496038Y-107573962D01*
X57572813Y-107636969D01*
X57519506Y-107665463D01*
X57422815Y-107744815D01*
X57343463Y-107841506D01*
X57284498Y-107951820D01*
X57248188Y-108071518D01*
X57235928Y-108196000D01*
X57239000Y-109210250D01*
X57397750Y-109369000D01*
X58547000Y-109369000D01*
X58547000Y-109349000D01*
X58801000Y-109349000D01*
X58801000Y-109369000D01*
X59950250Y-109369000D01*
X60109000Y-109210250D01*
X60112072Y-108196000D01*
X60099812Y-108071518D01*
X60063502Y-107951820D01*
X60004537Y-107841506D01*
X59925185Y-107744815D01*
X59828494Y-107665463D01*
X59775187Y-107636969D01*
X59851962Y-107573962D01*
X59962405Y-107439386D01*
X60044472Y-107285850D01*
X60095008Y-107119254D01*
X60112072Y-106946000D01*
X60112072Y-106656000D01*
X65195199Y-106656000D01*
X65350299Y-106811100D01*
X65325084Y-106894223D01*
X65296149Y-107188000D01*
X65325084Y-107481777D01*
X65410775Y-107764264D01*
X65549931Y-108024606D01*
X65737203Y-108252797D01*
X65965394Y-108440069D01*
X66009910Y-108463863D01*
X65913512Y-108521183D01*
X65695146Y-108717707D01*
X65519316Y-108953056D01*
X65392778Y-109218186D01*
X65347042Y-109368974D01*
X65468183Y-109601000D01*
X66675000Y-109601000D01*
X66675000Y-109581000D01*
X66929000Y-109581000D01*
X66929000Y-109601000D01*
X69215000Y-109601000D01*
X69215000Y-109581000D01*
X69469000Y-109581000D01*
X69469000Y-109601000D01*
X70675817Y-109601000D01*
X70796958Y-109368974D01*
X70751222Y-109218186D01*
X70624684Y-108953056D01*
X70448854Y-108717707D01*
X70230488Y-108521183D01*
X70134090Y-108463863D01*
X70178606Y-108440069D01*
X70406797Y-108252797D01*
X70594069Y-108024606D01*
X70733225Y-107764264D01*
X70818916Y-107481777D01*
X70847851Y-107188000D01*
X70818916Y-106894223D01*
X70733225Y-106611736D01*
X70594069Y-106351394D01*
X70406797Y-106123203D01*
X70178606Y-105935931D01*
X69918264Y-105796775D01*
X69635777Y-105711084D01*
X69415619Y-105689400D01*
X69268381Y-105689400D01*
X69048223Y-105711084D01*
X68765736Y-105796775D01*
X68505394Y-105935931D01*
X68277203Y-106123203D01*
X68089931Y-106351394D01*
X68072000Y-106384940D01*
X68054069Y-106351394D01*
X67866797Y-106123203D01*
X67638606Y-105935931D01*
X67378264Y-105796775D01*
X67095777Y-105711084D01*
X66875619Y-105689400D01*
X66728381Y-105689400D01*
X66508223Y-105711084D01*
X66425100Y-105736299D01*
X66073804Y-105385003D01*
X66050001Y-105355999D01*
X65934276Y-105261026D01*
X65802247Y-105190454D01*
X65658986Y-105146997D01*
X65547333Y-105136000D01*
X65547322Y-105136000D01*
X65510000Y-105132324D01*
X65472678Y-105136000D01*
X60112072Y-105136000D01*
X60112072Y-104846000D01*
X60095008Y-104672746D01*
X60044472Y-104506150D01*
X59962405Y-104352614D01*
X59851962Y-104218038D01*
X59717386Y-104107595D01*
X59563850Y-104025528D01*
X59434000Y-103986139D01*
X59434000Y-100813890D01*
X64979524Y-100813890D01*
X65024175Y-100961099D01*
X65149359Y-101223920D01*
X65323412Y-101457269D01*
X65539645Y-101652178D01*
X65789748Y-101801157D01*
X66064109Y-101898481D01*
X66294000Y-101777814D01*
X66294000Y-100584000D01*
X66548000Y-100584000D01*
X66548000Y-101777814D01*
X66777891Y-101898481D01*
X67052252Y-101801157D01*
X67302355Y-101652178D01*
X67518588Y-101457269D01*
X67692641Y-101223920D01*
X67817825Y-100961099D01*
X67862476Y-100813890D01*
X67741155Y-100584000D01*
X66548000Y-100584000D01*
X66294000Y-100584000D01*
X65100845Y-100584000D01*
X64979524Y-100813890D01*
X59434000Y-100813890D01*
X59434000Y-99755801D01*
X62412094Y-96777708D01*
X62456691Y-96791236D01*
X62667508Y-96812000D01*
X62808492Y-96812000D01*
X63019309Y-96791236D01*
X63289808Y-96709182D01*
X63539101Y-96575932D01*
X63757608Y-96396608D01*
X63936932Y-96178101D01*
X64070182Y-95928808D01*
X64152236Y-95658309D01*
X64179943Y-95377000D01*
X64152236Y-95095691D01*
X64070182Y-94825192D01*
X63936932Y-94575899D01*
X63757608Y-94357392D01*
X63539101Y-94178068D01*
X63289808Y-94044818D01*
X63019309Y-93962764D01*
X62808492Y-93942000D01*
X62667508Y-93942000D01*
X62456691Y-93962764D01*
X62186192Y-94044818D01*
X61936899Y-94178068D01*
X61718392Y-94357392D01*
X61539068Y-94575899D01*
X61468000Y-94708858D01*
X61396932Y-94575899D01*
X61217608Y-94357392D01*
X60999101Y-94178068D01*
X60749808Y-94044818D01*
X60479309Y-93962764D01*
X60268492Y-93942000D01*
X60127508Y-93942000D01*
X59916691Y-93962764D01*
X59646192Y-94044818D01*
X59396899Y-94178068D01*
X59178392Y-94357392D01*
X58999068Y-94575899D01*
X58928000Y-94708858D01*
X58856932Y-94575899D01*
X58677608Y-94357392D01*
X58459101Y-94178068D01*
X58209808Y-94044818D01*
X57939309Y-93962764D01*
X57728492Y-93942000D01*
X57587508Y-93942000D01*
X57376691Y-93962764D01*
X57106192Y-94044818D01*
X56856899Y-94178068D01*
X56638392Y-94357392D01*
X56459068Y-94575899D01*
X56385421Y-94713682D01*
X56270385Y-94521869D01*
X56081414Y-94313481D01*
X55855420Y-94145963D01*
X55601087Y-94025754D01*
X55467039Y-93985096D01*
X55245000Y-94107085D01*
X54991000Y-94107085D01*
X54768961Y-93985096D01*
X54752999Y-93989937D01*
X54752999Y-89145849D01*
X54836691Y-89171236D01*
X55047508Y-89192000D01*
X55188492Y-89192000D01*
X55399309Y-89171236D01*
X55669808Y-89089182D01*
X55919101Y-88955932D01*
X56137608Y-88776608D01*
X56316932Y-88558101D01*
X56390579Y-88420318D01*
X56505615Y-88612131D01*
X56694586Y-88820519D01*
X56920580Y-88988037D01*
X57174913Y-89108246D01*
X57308961Y-89148904D01*
X57531000Y-89026915D01*
X57531000Y-87884000D01*
X57511000Y-87884000D01*
X57511000Y-87630000D01*
X57531000Y-87630000D01*
X57531000Y-86487085D01*
X57785000Y-86487085D01*
X57785000Y-87630000D01*
X57805000Y-87630000D01*
X57805000Y-87884000D01*
X57785000Y-87884000D01*
X57785000Y-89026915D01*
X58007039Y-89148904D01*
X58141087Y-89108246D01*
X58395420Y-88988037D01*
X58621414Y-88820519D01*
X58810385Y-88612131D01*
X58925421Y-88420318D01*
X58999068Y-88558101D01*
X59178392Y-88776608D01*
X59396899Y-88955932D01*
X59646192Y-89089182D01*
X59916691Y-89171236D01*
X60127508Y-89192000D01*
X60268492Y-89192000D01*
X60479309Y-89171236D01*
X60749808Y-89089182D01*
X60999101Y-88955932D01*
X61217608Y-88776608D01*
X61310419Y-88663518D01*
X61312188Y-88681482D01*
X61348498Y-88801180D01*
X61407463Y-88911494D01*
X61486815Y-89008185D01*
X61583506Y-89087537D01*
X61693820Y-89146502D01*
X61813518Y-89182812D01*
X61938000Y-89195072D01*
X63538000Y-89195072D01*
X63662482Y-89182812D01*
X63782180Y-89146502D01*
X63892494Y-89087537D01*
X63989185Y-89008185D01*
X64068537Y-88911494D01*
X64127502Y-88801180D01*
X64163812Y-88681482D01*
X64176072Y-88557000D01*
X64176072Y-86957000D01*
X64163812Y-86832518D01*
X64127502Y-86712820D01*
X64068537Y-86602506D01*
X63989185Y-86505815D01*
X63892494Y-86426463D01*
X63782180Y-86367498D01*
X63662482Y-86331188D01*
X63538000Y-86318928D01*
X61938000Y-86318928D01*
X61813518Y-86331188D01*
X61693820Y-86367498D01*
X61583506Y-86426463D01*
X61486815Y-86505815D01*
X61407463Y-86602506D01*
X61348498Y-86712820D01*
X61312188Y-86832518D01*
X61310419Y-86850482D01*
X61217608Y-86737392D01*
X60999101Y-86558068D01*
X60749808Y-86424818D01*
X60479309Y-86342764D01*
X60268492Y-86322000D01*
X60127508Y-86322000D01*
X59916691Y-86342764D01*
X59646192Y-86424818D01*
X59396899Y-86558068D01*
X59178392Y-86737392D01*
X58999068Y-86955899D01*
X58925421Y-87093682D01*
X58810385Y-86901869D01*
X58621414Y-86693481D01*
X58395420Y-86525963D01*
X58141087Y-86405754D01*
X58007039Y-86365096D01*
X57785000Y-86487085D01*
X57531000Y-86487085D01*
X57308961Y-86365096D01*
X57174913Y-86405754D01*
X56920580Y-86525963D01*
X56694586Y-86693481D01*
X56505615Y-86901869D01*
X56390579Y-87093682D01*
X56316932Y-86955899D01*
X56137608Y-86737392D01*
X55919101Y-86558068D01*
X55669808Y-86424818D01*
X55399309Y-86342764D01*
X55188492Y-86322000D01*
X55047508Y-86322000D01*
X54836691Y-86342764D01*
X54752999Y-86368151D01*
X54752999Y-86359802D01*
X55883003Y-85229799D01*
X55912001Y-85206001D01*
X55938332Y-85173917D01*
X56006974Y-85090277D01*
X56026326Y-85054072D01*
X56222000Y-85054072D01*
X56346482Y-85041812D01*
X56466180Y-85005502D01*
X56576494Y-84946537D01*
X56673185Y-84867185D01*
X56752537Y-84770494D01*
X56811502Y-84660180D01*
X56847812Y-84540482D01*
X56860072Y-84416000D01*
X56860072Y-82716000D01*
X56847812Y-82591518D01*
X56811502Y-82471820D01*
X56752537Y-82361506D01*
X56673185Y-82264815D01*
X56576494Y-82185463D01*
X56466180Y-82126498D01*
X56397313Y-82105607D01*
X56427134Y-82081134D01*
X56612706Y-81855014D01*
X56750599Y-81597034D01*
X56835513Y-81317111D01*
X56854051Y-81128890D01*
X62058524Y-81128890D01*
X62103175Y-81276099D01*
X62228359Y-81538920D01*
X62402412Y-81772269D01*
X62618645Y-81967178D01*
X62868748Y-82116157D01*
X63143109Y-82213481D01*
X63373000Y-82092814D01*
X63373000Y-80899000D01*
X63627000Y-80899000D01*
X63627000Y-82092814D01*
X63856891Y-82213481D01*
X64131252Y-82116157D01*
X64381355Y-81967178D01*
X64597588Y-81772269D01*
X64771641Y-81538920D01*
X64896825Y-81276099D01*
X64941476Y-81128890D01*
X64820155Y-80899000D01*
X63627000Y-80899000D01*
X63373000Y-80899000D01*
X62179845Y-80899000D01*
X62058524Y-81128890D01*
X56854051Y-81128890D01*
X56864185Y-81026000D01*
X56835513Y-80734889D01*
X56750599Y-80454966D01*
X56612706Y-80196986D01*
X56427134Y-79970866D01*
X56201014Y-79785294D01*
X56136477Y-79750799D01*
X56253355Y-79681178D01*
X56469588Y-79486269D01*
X56643641Y-79252920D01*
X56768825Y-78990099D01*
X56813476Y-78842890D01*
X56692155Y-78613000D01*
X55499000Y-78613000D01*
X55499000Y-78633000D01*
X55245000Y-78633000D01*
X55245000Y-78613000D01*
X55225000Y-78613000D01*
X55225000Y-78359000D01*
X55245000Y-78359000D01*
X55245000Y-77165186D01*
X55499000Y-77165186D01*
X55499000Y-78359000D01*
X56692155Y-78359000D01*
X56813476Y-78129110D01*
X56768825Y-77981901D01*
X56643641Y-77719080D01*
X56469588Y-77485731D01*
X56354509Y-77382000D01*
X62011928Y-77382000D01*
X62011928Y-79082000D01*
X62024188Y-79206482D01*
X62060498Y-79326180D01*
X62119463Y-79436494D01*
X62198815Y-79533185D01*
X62295506Y-79612537D01*
X62405820Y-79671502D01*
X62486466Y-79695966D01*
X62402412Y-79771731D01*
X62228359Y-80005080D01*
X62103175Y-80267901D01*
X62058524Y-80415110D01*
X62179845Y-80645000D01*
X63373000Y-80645000D01*
X63373000Y-80625000D01*
X63627000Y-80625000D01*
X63627000Y-80645000D01*
X64820155Y-80645000D01*
X64941476Y-80415110D01*
X64896825Y-80267901D01*
X64771641Y-80005080D01*
X64597588Y-79771731D01*
X64513534Y-79695966D01*
X64594180Y-79671502D01*
X64704494Y-79612537D01*
X64801185Y-79533185D01*
X64880537Y-79436494D01*
X64939502Y-79326180D01*
X64975812Y-79206482D01*
X64988072Y-79082000D01*
X64988072Y-77382000D01*
X64975812Y-77257518D01*
X64939502Y-77137820D01*
X64880537Y-77027506D01*
X64801185Y-76930815D01*
X64704494Y-76851463D01*
X64594180Y-76792498D01*
X64474482Y-76756188D01*
X64350000Y-76743928D01*
X62650000Y-76743928D01*
X62525518Y-76756188D01*
X62405820Y-76792498D01*
X62295506Y-76851463D01*
X62198815Y-76930815D01*
X62119463Y-77027506D01*
X62060498Y-77137820D01*
X62024188Y-77257518D01*
X62011928Y-77382000D01*
X56354509Y-77382000D01*
X56253355Y-77290822D01*
X56003252Y-77141843D01*
X55728891Y-77044519D01*
X55499000Y-77165186D01*
X55245000Y-77165186D01*
X55015109Y-77044519D01*
X54740748Y-77141843D01*
X54490645Y-77290822D01*
X54450010Y-77327450D01*
X54450010Y-71577565D01*
X55983040Y-71577565D01*
X56050020Y-71817656D01*
X56299048Y-71934756D01*
X56566135Y-72001023D01*
X56841017Y-72013910D01*
X57113133Y-71972922D01*
X57372023Y-71879636D01*
X57487980Y-71817656D01*
X57554960Y-71577565D01*
X56769000Y-70791605D01*
X55983040Y-71577565D01*
X54450010Y-71577565D01*
X54450010Y-70684017D01*
X55367090Y-70684017D01*
X55408078Y-70956133D01*
X55501364Y-71215023D01*
X55563344Y-71330980D01*
X55803435Y-71397960D01*
X56589395Y-70612000D01*
X56948605Y-70612000D01*
X57734565Y-71397960D01*
X57974656Y-71330980D01*
X58091756Y-71081952D01*
X58158023Y-70814865D01*
X58170910Y-70539983D01*
X58129922Y-70267867D01*
X58036636Y-70008977D01*
X57974656Y-69893020D01*
X57734565Y-69826040D01*
X56948605Y-70612000D01*
X56589395Y-70612000D01*
X55803435Y-69826040D01*
X55563344Y-69893020D01*
X55446244Y-70142048D01*
X55379977Y-70409135D01*
X55367090Y-70684017D01*
X54450010Y-70684017D01*
X54450010Y-69646435D01*
X55983040Y-69646435D01*
X56769000Y-70432395D01*
X57554960Y-69646435D01*
X57487980Y-69406344D01*
X57238952Y-69289244D01*
X56971865Y-69222977D01*
X56696983Y-69210090D01*
X56424867Y-69251078D01*
X56165977Y-69344364D01*
X56050020Y-69406344D01*
X55983040Y-69646435D01*
X54450010Y-69646435D01*
X54450010Y-64124408D01*
X55372000Y-64124408D01*
X55372000Y-64399592D01*
X55425686Y-64669490D01*
X55530995Y-64923727D01*
X55683880Y-65152535D01*
X55878465Y-65347120D01*
X56107273Y-65500005D01*
X56361510Y-65605314D01*
X56631408Y-65659000D01*
X56906592Y-65659000D01*
X57176490Y-65605314D01*
X57430727Y-65500005D01*
X57659535Y-65347120D01*
X57854120Y-65152535D01*
X58007005Y-64923727D01*
X58112314Y-64669490D01*
X58166000Y-64399592D01*
X58166000Y-64124408D01*
X58135372Y-63970429D01*
X58268746Y-63837055D01*
X58275764Y-63908309D01*
X58357818Y-64178808D01*
X58491068Y-64428101D01*
X58670392Y-64646608D01*
X58888899Y-64825932D01*
X59021858Y-64897000D01*
X58888899Y-64968068D01*
X58670392Y-65147392D01*
X58491068Y-65365899D01*
X58357818Y-65615192D01*
X58275764Y-65885691D01*
X58248057Y-66167000D01*
X58275764Y-66448309D01*
X58357818Y-66718808D01*
X58491068Y-66968101D01*
X58670392Y-67186608D01*
X58888899Y-67365932D01*
X59021858Y-67437000D01*
X58888899Y-67508068D01*
X58670392Y-67687392D01*
X58491068Y-67905899D01*
X58357818Y-68155192D01*
X58275764Y-68425691D01*
X58248057Y-68707000D01*
X58275764Y-68988309D01*
X58357818Y-69258808D01*
X58491068Y-69508101D01*
X58670392Y-69726608D01*
X58888899Y-69905932D01*
X59021858Y-69977000D01*
X58888899Y-70048068D01*
X58670392Y-70227392D01*
X58491068Y-70445899D01*
X58357818Y-70695192D01*
X58275764Y-70965691D01*
X58248057Y-71247000D01*
X58275764Y-71528309D01*
X58357818Y-71798808D01*
X58491068Y-72048101D01*
X58670392Y-72266608D01*
X58888899Y-72445932D01*
X59138192Y-72579182D01*
X59408691Y-72661236D01*
X59619508Y-72682000D01*
X59760492Y-72682000D01*
X59971309Y-72661236D01*
X60241808Y-72579182D01*
X60491101Y-72445932D01*
X60709608Y-72266608D01*
X60888932Y-72048101D01*
X61022182Y-71798808D01*
X61104236Y-71528309D01*
X61131943Y-71247000D01*
X61104236Y-70965691D01*
X61022182Y-70695192D01*
X60888932Y-70445899D01*
X60709608Y-70227392D01*
X60491101Y-70048068D01*
X60358142Y-69977000D01*
X60491101Y-69905932D01*
X60709608Y-69726608D01*
X60888932Y-69508101D01*
X61022182Y-69258808D01*
X61104236Y-68988309D01*
X61131943Y-68707000D01*
X61104236Y-68425691D01*
X61022182Y-68155192D01*
X60888932Y-67905899D01*
X60709608Y-67687392D01*
X60491101Y-67508068D01*
X60358142Y-67437000D01*
X60491101Y-67365932D01*
X60709608Y-67186608D01*
X60888932Y-66968101D01*
X61022182Y-66718808D01*
X61104236Y-66448309D01*
X61131943Y-66167000D01*
X61104236Y-65885691D01*
X61022182Y-65615192D01*
X60888932Y-65365899D01*
X60709608Y-65147392D01*
X60491101Y-64968068D01*
X60358142Y-64897000D01*
X60491101Y-64825932D01*
X60709608Y-64646608D01*
X60888932Y-64428101D01*
X61022182Y-64178808D01*
X61104236Y-63908309D01*
X61131943Y-63627000D01*
X61104236Y-63345691D01*
X61022182Y-63075192D01*
X60888932Y-62825899D01*
X60709608Y-62607392D01*
X60491101Y-62428068D01*
X60358142Y-62357000D01*
X60491101Y-62285932D01*
X60709608Y-62106608D01*
X60888932Y-61888101D01*
X61022182Y-61638808D01*
X61104236Y-61368309D01*
X61131943Y-61087000D01*
X61104236Y-60805691D01*
X61022182Y-60535192D01*
X60888932Y-60285899D01*
X60709608Y-60067392D01*
X60491101Y-59888068D01*
X60358142Y-59817000D01*
X60491101Y-59745932D01*
X60709608Y-59566608D01*
X60888932Y-59348101D01*
X61022182Y-59098808D01*
X61104236Y-58828309D01*
X61131943Y-58547000D01*
X61104236Y-58265691D01*
X61022182Y-57995192D01*
X60888932Y-57745899D01*
X60709608Y-57527392D01*
X60491101Y-57348068D01*
X60353318Y-57274421D01*
X60545131Y-57159385D01*
X60753519Y-56970414D01*
X60921037Y-56744420D01*
X61041246Y-56490087D01*
X61081904Y-56356039D01*
X60959915Y-56134000D01*
X59817000Y-56134000D01*
X59817000Y-56154000D01*
X59563000Y-56154000D01*
X59563000Y-56134000D01*
X58420085Y-56134000D01*
X58298096Y-56356039D01*
X58338754Y-56490087D01*
X58458963Y-56744420D01*
X58626481Y-56970414D01*
X58834869Y-57159385D01*
X59026682Y-57274421D01*
X58888899Y-57348068D01*
X58670392Y-57527392D01*
X58491068Y-57745899D01*
X58357818Y-57995192D01*
X58275764Y-58265691D01*
X58248057Y-58547000D01*
X58275764Y-58828309D01*
X58357818Y-59098808D01*
X58491068Y-59348101D01*
X58670392Y-59566608D01*
X58888899Y-59745932D01*
X59021858Y-59817000D01*
X58888899Y-59888068D01*
X58670392Y-60067392D01*
X58491068Y-60285899D01*
X58357818Y-60535192D01*
X58275764Y-60805691D01*
X58248057Y-61087000D01*
X58275764Y-61368309D01*
X58348409Y-61607790D01*
X57060571Y-62895628D01*
X56906592Y-62865000D01*
X56631408Y-62865000D01*
X56361510Y-62918686D01*
X56107273Y-63023995D01*
X55878465Y-63176880D01*
X55683880Y-63371465D01*
X55530995Y-63600273D01*
X55425686Y-63854510D01*
X55372000Y-64124408D01*
X54450010Y-64124408D01*
X54450010Y-57901408D01*
X55372000Y-57901408D01*
X55372000Y-58176592D01*
X55425686Y-58446490D01*
X55530995Y-58700727D01*
X55683880Y-58929535D01*
X55878465Y-59124120D01*
X56107273Y-59277005D01*
X56361510Y-59382314D01*
X56631408Y-59436000D01*
X56906592Y-59436000D01*
X57176490Y-59382314D01*
X57430727Y-59277005D01*
X57659535Y-59124120D01*
X57854120Y-58929535D01*
X58007005Y-58700727D01*
X58112314Y-58446490D01*
X58166000Y-58176592D01*
X58166000Y-57901408D01*
X58112314Y-57631510D01*
X58007005Y-57377273D01*
X57854120Y-57148465D01*
X57659535Y-56953880D01*
X57430727Y-56800995D01*
X57176490Y-56695686D01*
X56906592Y-56642000D01*
X56631408Y-56642000D01*
X56361510Y-56695686D01*
X56107273Y-56800995D01*
X55878465Y-56953880D01*
X55683880Y-57148465D01*
X55530995Y-57377273D01*
X55425686Y-57631510D01*
X55372000Y-57901408D01*
X54450010Y-57901408D01*
X54450010Y-53467000D01*
X58248057Y-53467000D01*
X58275764Y-53748309D01*
X58357818Y-54018808D01*
X58491068Y-54268101D01*
X58670392Y-54486608D01*
X58888899Y-54665932D01*
X59026682Y-54739579D01*
X58834869Y-54854615D01*
X58626481Y-55043586D01*
X58458963Y-55269580D01*
X58338754Y-55523913D01*
X58298096Y-55657961D01*
X58420085Y-55880000D01*
X59563000Y-55880000D01*
X59563000Y-55860000D01*
X59817000Y-55860000D01*
X59817000Y-55880000D01*
X60959915Y-55880000D01*
X61081904Y-55657961D01*
X61041246Y-55523913D01*
X60921037Y-55269580D01*
X60753519Y-55043586D01*
X60545131Y-54854615D01*
X60353318Y-54739579D01*
X60491101Y-54665932D01*
X60709608Y-54486608D01*
X60888932Y-54268101D01*
X61022182Y-54018808D01*
X61104236Y-53748309D01*
X61131943Y-53467000D01*
X61104236Y-53185691D01*
X61022182Y-52915192D01*
X60888932Y-52665899D01*
X60709608Y-52447392D01*
X60596518Y-52354581D01*
X60614482Y-52352812D01*
X60734180Y-52316502D01*
X60844494Y-52257537D01*
X60941185Y-52178185D01*
X61020537Y-52081494D01*
X61079502Y-51971180D01*
X61115812Y-51851482D01*
X61128072Y-51727000D01*
X61128072Y-50127000D01*
X61115812Y-50002518D01*
X61079502Y-49882820D01*
X61020537Y-49772506D01*
X60941185Y-49675815D01*
X60844494Y-49596463D01*
X60734180Y-49537498D01*
X60614482Y-49501188D01*
X60490000Y-49488928D01*
X58890000Y-49488928D01*
X58765518Y-49501188D01*
X58645820Y-49537498D01*
X58535506Y-49596463D01*
X58438815Y-49675815D01*
X58359463Y-49772506D01*
X58300498Y-49882820D01*
X58264188Y-50002518D01*
X58251928Y-50127000D01*
X58251928Y-51727000D01*
X58264188Y-51851482D01*
X58300498Y-51971180D01*
X58359463Y-52081494D01*
X58438815Y-52178185D01*
X58535506Y-52257537D01*
X58645820Y-52316502D01*
X58765518Y-52352812D01*
X58783482Y-52354581D01*
X58670392Y-52447392D01*
X58491068Y-52665899D01*
X58357818Y-52915192D01*
X58275764Y-53185691D01*
X58248057Y-53467000D01*
X54450010Y-53467000D01*
X54450010Y-52654565D01*
X55983040Y-52654565D01*
X56050020Y-52894656D01*
X56299048Y-53011756D01*
X56566135Y-53078023D01*
X56841017Y-53090910D01*
X57113133Y-53049922D01*
X57372023Y-52956636D01*
X57487980Y-52894656D01*
X57554960Y-52654565D01*
X56769000Y-51868605D01*
X55983040Y-52654565D01*
X54450010Y-52654565D01*
X54450010Y-51761017D01*
X55367090Y-51761017D01*
X55408078Y-52033133D01*
X55501364Y-52292023D01*
X55563344Y-52407980D01*
X55803435Y-52474960D01*
X56589395Y-51689000D01*
X56948605Y-51689000D01*
X57734565Y-52474960D01*
X57974656Y-52407980D01*
X58091756Y-52158952D01*
X58158023Y-51891865D01*
X58170910Y-51616983D01*
X58129922Y-51344867D01*
X58036636Y-51085977D01*
X57974656Y-50970020D01*
X57734565Y-50903040D01*
X56948605Y-51689000D01*
X56589395Y-51689000D01*
X55803435Y-50903040D01*
X55563344Y-50970020D01*
X55446244Y-51219048D01*
X55379977Y-51486135D01*
X55367090Y-51761017D01*
X54450010Y-51761017D01*
X54450010Y-50723435D01*
X55983040Y-50723435D01*
X56769000Y-51509395D01*
X57554960Y-50723435D01*
X57487980Y-50483344D01*
X57238952Y-50366244D01*
X56971865Y-50299977D01*
X56696983Y-50287090D01*
X56424867Y-50328078D01*
X56165977Y-50421364D01*
X56050020Y-50483344D01*
X55983040Y-50723435D01*
X54450010Y-50723435D01*
X54450010Y-49352565D01*
X62714040Y-49352565D01*
X62781020Y-49592656D01*
X63030048Y-49709756D01*
X63297135Y-49776023D01*
X63572017Y-49788910D01*
X63844133Y-49747922D01*
X64103023Y-49654636D01*
X64218980Y-49592656D01*
X64285960Y-49352565D01*
X63500000Y-48566605D01*
X62714040Y-49352565D01*
X54450010Y-49352565D01*
X54450010Y-48459017D01*
X62098090Y-48459017D01*
X62139078Y-48731133D01*
X62232364Y-48990023D01*
X62294344Y-49105980D01*
X62534435Y-49172960D01*
X63320395Y-48387000D01*
X63679605Y-48387000D01*
X64465565Y-49172960D01*
X64705656Y-49105980D01*
X64822756Y-48856952D01*
X64889023Y-48589865D01*
X64901910Y-48314983D01*
X64860922Y-48042867D01*
X64767636Y-47783977D01*
X64705656Y-47668020D01*
X64465565Y-47601040D01*
X63679605Y-48387000D01*
X63320395Y-48387000D01*
X62534435Y-47601040D01*
X62294344Y-47668020D01*
X62177244Y-47917048D01*
X62110977Y-48184135D01*
X62098090Y-48459017D01*
X54450010Y-48459017D01*
X54450010Y-47421435D01*
X62714040Y-47421435D01*
X63500000Y-48207395D01*
X64285960Y-47421435D01*
X64218980Y-47181344D01*
X63969952Y-47064244D01*
X63702865Y-46997977D01*
X63427983Y-46985090D01*
X63155867Y-47026078D01*
X62896977Y-47119364D01*
X62781020Y-47181344D01*
X62714040Y-47421435D01*
X54450010Y-47421435D01*
X54450010Y-40971789D01*
X59694061Y-35727739D01*
X59761068Y-35853101D01*
X59940392Y-36071608D01*
X60158899Y-36250932D01*
X60291858Y-36322000D01*
X60158899Y-36393068D01*
X59940392Y-36572392D01*
X59761068Y-36790899D01*
X59627818Y-37040192D01*
X59545764Y-37310691D01*
X59518057Y-37592000D01*
X59545764Y-37873309D01*
X59627818Y-38143808D01*
X59761068Y-38393101D01*
X59940392Y-38611608D01*
X60158899Y-38790932D01*
X60291858Y-38862000D01*
X60158899Y-38933068D01*
X59940392Y-39112392D01*
X59761068Y-39330899D01*
X59627818Y-39580192D01*
X59545764Y-39850691D01*
X59518057Y-40132000D01*
X59545764Y-40413309D01*
X59627818Y-40683808D01*
X59761068Y-40933101D01*
X59940392Y-41151608D01*
X60158899Y-41330932D01*
X60408192Y-41464182D01*
X60678691Y-41546236D01*
X60889508Y-41567000D01*
X61030492Y-41567000D01*
X61241309Y-41546236D01*
X61285906Y-41532708D01*
X65424999Y-45671802D01*
X65425000Y-59924667D01*
X65421323Y-59961999D01*
X65435997Y-60110984D01*
X65479453Y-60254245D01*
X65550025Y-60386275D01*
X65603986Y-60452026D01*
X65644999Y-60502000D01*
X65673997Y-60525798D01*
X65909292Y-60761093D01*
X65895764Y-60805691D01*
X65868057Y-61087000D01*
X65895764Y-61368309D01*
X65977818Y-61638808D01*
X66111068Y-61888101D01*
X66290392Y-62106608D01*
X66508899Y-62285932D01*
X66641858Y-62357000D01*
X66508899Y-62428068D01*
X66290392Y-62607392D01*
X66111068Y-62825899D01*
X65977818Y-63075192D01*
X65895764Y-63345691D01*
X65868057Y-63627000D01*
X65895764Y-63908309D01*
X65977818Y-64178808D01*
X66111068Y-64428101D01*
X66290392Y-64646608D01*
X66508899Y-64825932D01*
X66641858Y-64897000D01*
X66508899Y-64968068D01*
X66290392Y-65147392D01*
X66111068Y-65365899D01*
X65977818Y-65615192D01*
X65895764Y-65885691D01*
X65868057Y-66167000D01*
X65895764Y-66448309D01*
X65909292Y-66492906D01*
X62989003Y-69413196D01*
X62959999Y-69436999D01*
X62904871Y-69504174D01*
X62865026Y-69552724D01*
X62814936Y-69646435D01*
X62794454Y-69684754D01*
X62750997Y-69828015D01*
X62740000Y-69939668D01*
X62740000Y-69939678D01*
X62736324Y-69977000D01*
X62740000Y-70014323D01*
X62740001Y-72614659D01*
X62609465Y-72701880D01*
X62414880Y-72896465D01*
X62261995Y-73125273D01*
X62156686Y-73379510D01*
X62103000Y-73649408D01*
X62103000Y-73924592D01*
X62156686Y-74194490D01*
X62261995Y-74448727D01*
X62414880Y-74677535D01*
X62609465Y-74872120D01*
X62838273Y-75025005D01*
X63092510Y-75130314D01*
X63362408Y-75184000D01*
X63637592Y-75184000D01*
X63791571Y-75153372D01*
X66550000Y-77911802D01*
X66550001Y-89243668D01*
X66546324Y-89281000D01*
X66560998Y-89429985D01*
X66604454Y-89573246D01*
X66675026Y-89705276D01*
X66746201Y-89792002D01*
X66770000Y-89821001D01*
X66798998Y-89844799D01*
X69408346Y-92454148D01*
X69384000Y-92576544D01*
X69384000Y-92843456D01*
X69436072Y-93105239D01*
X69538215Y-93351833D01*
X69686503Y-93573762D01*
X69875238Y-93762497D01*
X70097167Y-93910785D01*
X70264266Y-93980000D01*
X70097167Y-94049215D01*
X69875238Y-94197503D01*
X69686503Y-94386238D01*
X69538215Y-94608167D01*
X69436072Y-94854761D01*
X69384000Y-95116544D01*
X69384000Y-95383456D01*
X69436072Y-95645239D01*
X69538215Y-95891833D01*
X69686503Y-96113762D01*
X69875238Y-96302497D01*
X70097167Y-96450785D01*
X70264266Y-96520000D01*
X70097167Y-96589215D01*
X69875238Y-96737503D01*
X69686503Y-96926238D01*
X69538215Y-97148167D01*
X69458769Y-97339967D01*
X67909072Y-95790271D01*
X67909072Y-94527000D01*
X67896812Y-94402518D01*
X67860502Y-94282820D01*
X67801537Y-94172506D01*
X67722185Y-94075815D01*
X67625494Y-93996463D01*
X67515180Y-93937498D01*
X67395482Y-93901188D01*
X67271000Y-93888928D01*
X65571000Y-93888928D01*
X65446518Y-93901188D01*
X65326820Y-93937498D01*
X65216506Y-93996463D01*
X65119815Y-94075815D01*
X65040463Y-94172506D01*
X64981498Y-94282820D01*
X64945188Y-94402518D01*
X64932928Y-94527000D01*
X64932928Y-96227000D01*
X64945188Y-96351482D01*
X64981498Y-96471180D01*
X65040463Y-96581494D01*
X65119815Y-96678185D01*
X65216506Y-96757537D01*
X65326820Y-96816502D01*
X65395687Y-96837393D01*
X65365866Y-96861866D01*
X65180294Y-97087986D01*
X65042401Y-97345966D01*
X64957487Y-97625889D01*
X64928815Y-97917000D01*
X64957487Y-98208111D01*
X65042401Y-98488034D01*
X65180294Y-98746014D01*
X65365866Y-98972134D01*
X65591986Y-99157706D01*
X65656523Y-99192201D01*
X65539645Y-99261822D01*
X65323412Y-99456731D01*
X65149359Y-99690080D01*
X65024175Y-99952901D01*
X64979524Y-100100110D01*
X65100845Y-100330000D01*
X66294000Y-100330000D01*
X66294000Y-100310000D01*
X66548000Y-100310000D01*
X66548000Y-100330000D01*
X67741155Y-100330000D01*
X67862476Y-100100110D01*
X67817825Y-99952901D01*
X67692641Y-99690080D01*
X67518588Y-99456731D01*
X67302355Y-99261822D01*
X67185477Y-99192201D01*
X67250014Y-99157706D01*
X67476134Y-98972134D01*
X67661706Y-98746014D01*
X67799599Y-98488034D01*
X67884513Y-98208111D01*
X67910765Y-97941567D01*
X69315202Y-99346004D01*
X69339000Y-99375002D01*
X69367998Y-99398800D01*
X69454724Y-99469975D01*
X69586754Y-99540547D01*
X69730015Y-99584004D01*
X69841668Y-99595001D01*
X69841678Y-99595001D01*
X69879001Y-99598677D01*
X69916324Y-99595001D01*
X71203279Y-99595001D01*
X71240601Y-99598677D01*
X71277923Y-99595001D01*
X71277934Y-99595001D01*
X71389587Y-99584004D01*
X71532848Y-99540547D01*
X71664877Y-99469975D01*
X71780602Y-99375002D01*
X71804404Y-99345999D01*
X72295003Y-98855401D01*
X72324002Y-98831602D01*
X72418975Y-98715877D01*
X72489547Y-98583848D01*
X72533004Y-98440587D01*
X72544001Y-98328934D01*
X72544001Y-98328926D01*
X72547677Y-98291601D01*
X72544001Y-98254276D01*
X72544001Y-64201334D01*
X72547678Y-64164001D01*
X72533004Y-64015015D01*
X72489547Y-63871754D01*
X72418975Y-63739725D01*
X72347800Y-63652998D01*
X72324002Y-63624000D01*
X72295005Y-63600203D01*
X69270804Y-60576003D01*
X69247001Y-60546999D01*
X69131276Y-60452026D01*
X68999247Y-60381454D01*
X68855986Y-60337997D01*
X68744333Y-60327000D01*
X68744322Y-60327000D01*
X68707000Y-60323324D01*
X68669678Y-60327000D01*
X68530901Y-60327000D01*
X68508932Y-60285899D01*
X68329608Y-60067392D01*
X68111101Y-59888068D01*
X67978142Y-59817000D01*
X68111101Y-59745932D01*
X68329608Y-59566608D01*
X68508932Y-59348101D01*
X68642182Y-59098808D01*
X68724236Y-58828309D01*
X68751943Y-58547000D01*
X68749402Y-58521204D01*
X68778201Y-58550003D01*
X68801999Y-58579001D01*
X68830997Y-58602799D01*
X68917723Y-58673974D01*
X69007007Y-58721698D01*
X69145880Y-58929535D01*
X69340465Y-59124120D01*
X69569273Y-59277005D01*
X69823510Y-59382314D01*
X70093408Y-59436000D01*
X70368592Y-59436000D01*
X70638490Y-59382314D01*
X70892727Y-59277005D01*
X71121535Y-59124120D01*
X71316120Y-58929535D01*
X71469005Y-58700727D01*
X71574314Y-58446490D01*
X71628000Y-58176592D01*
X71628000Y-57901408D01*
X71574314Y-57631510D01*
X71469005Y-57377273D01*
X71316120Y-57148465D01*
X71121535Y-56953880D01*
X70892727Y-56800995D01*
X70638490Y-56695686D01*
X70368592Y-56642000D01*
X70093408Y-56642000D01*
X69823510Y-56695686D01*
X69569273Y-56800995D01*
X69340465Y-56953880D01*
X69336073Y-56958272D01*
X68710708Y-56332906D01*
X68724236Y-56288309D01*
X68751943Y-56007000D01*
X68724236Y-55725691D01*
X68642182Y-55455192D01*
X68508932Y-55205899D01*
X68329608Y-54987392D01*
X68111101Y-54808068D01*
X67978142Y-54737000D01*
X68111101Y-54665932D01*
X68329608Y-54486608D01*
X68508932Y-54268101D01*
X68642182Y-54018808D01*
X68724236Y-53748309D01*
X68751943Y-53467000D01*
X68724236Y-53185691D01*
X68642182Y-52915192D01*
X68508932Y-52665899D01*
X68499631Y-52654565D01*
X69445040Y-52654565D01*
X69512020Y-52894656D01*
X69761048Y-53011756D01*
X70028135Y-53078023D01*
X70303017Y-53090910D01*
X70575133Y-53049922D01*
X70834023Y-52956636D01*
X70949980Y-52894656D01*
X71016960Y-52654565D01*
X70231000Y-51868605D01*
X69445040Y-52654565D01*
X68499631Y-52654565D01*
X68329608Y-52447392D01*
X68111101Y-52268068D01*
X67978142Y-52197000D01*
X68111101Y-52125932D01*
X68329608Y-51946608D01*
X68481918Y-51761017D01*
X68829090Y-51761017D01*
X68870078Y-52033133D01*
X68963364Y-52292023D01*
X69025344Y-52407980D01*
X69265435Y-52474960D01*
X70051395Y-51689000D01*
X70410605Y-51689000D01*
X71196565Y-52474960D01*
X71436656Y-52407980D01*
X71553756Y-52158952D01*
X71620023Y-51891865D01*
X71632910Y-51616983D01*
X71591922Y-51344867D01*
X71498636Y-51085977D01*
X71436656Y-50970020D01*
X71196565Y-50903040D01*
X70410605Y-51689000D01*
X70051395Y-51689000D01*
X69265435Y-50903040D01*
X69025344Y-50970020D01*
X68908244Y-51219048D01*
X68841977Y-51486135D01*
X68829090Y-51761017D01*
X68481918Y-51761017D01*
X68508932Y-51728101D01*
X68642182Y-51478808D01*
X68724236Y-51208309D01*
X68751943Y-50927000D01*
X68731894Y-50723435D01*
X69445040Y-50723435D01*
X70231000Y-51509395D01*
X71016960Y-50723435D01*
X70949980Y-50483344D01*
X70700952Y-50366244D01*
X70433865Y-50299977D01*
X70158983Y-50287090D01*
X69886867Y-50328078D01*
X69627977Y-50421364D01*
X69512020Y-50483344D01*
X69445040Y-50723435D01*
X68731894Y-50723435D01*
X68724236Y-50645691D01*
X68642182Y-50375192D01*
X68508932Y-50125899D01*
X68329608Y-49907392D01*
X68111101Y-49728068D01*
X67861808Y-49594818D01*
X67591309Y-49512764D01*
X67380492Y-49492000D01*
X67239508Y-49492000D01*
X67028691Y-49512764D01*
X66944999Y-49538151D01*
X66944999Y-45394321D01*
X66948675Y-45356998D01*
X66944999Y-45319675D01*
X66944999Y-45319666D01*
X66934002Y-45208013D01*
X66890545Y-45064752D01*
X66819973Y-44932723D01*
X66806810Y-44916684D01*
X66748798Y-44845995D01*
X66748794Y-44845991D01*
X66725000Y-44816998D01*
X66696008Y-44793205D01*
X62360708Y-40457906D01*
X62374236Y-40413309D01*
X62401943Y-40132000D01*
X62374236Y-39850691D01*
X62292182Y-39580192D01*
X62158932Y-39330899D01*
X61979608Y-39112392D01*
X61761101Y-38933068D01*
X61628142Y-38862000D01*
X61761101Y-38790932D01*
X61979608Y-38611608D01*
X62158932Y-38393101D01*
X62292182Y-38143808D01*
X62374236Y-37873309D01*
X62401943Y-37592000D01*
X67138057Y-37592000D01*
X67165764Y-37873309D01*
X67247818Y-38143808D01*
X67381068Y-38393101D01*
X67560392Y-38611608D01*
X67673482Y-38704419D01*
X67655518Y-38706188D01*
X67535820Y-38742498D01*
X67425506Y-38801463D01*
X67328815Y-38880815D01*
X67249463Y-38977506D01*
X67190498Y-39087820D01*
X67154188Y-39207518D01*
X67141928Y-39332000D01*
X67141928Y-40932000D01*
X67154188Y-41056482D01*
X67190498Y-41176180D01*
X67249463Y-41286494D01*
X67328815Y-41383185D01*
X67425506Y-41462537D01*
X67535820Y-41521502D01*
X67655518Y-41557812D01*
X67780000Y-41570072D01*
X69380000Y-41570072D01*
X69504482Y-41557812D01*
X69624180Y-41521502D01*
X69734494Y-41462537D01*
X69831185Y-41383185D01*
X69910537Y-41286494D01*
X69969502Y-41176180D01*
X70005812Y-41056482D01*
X70018072Y-40932000D01*
X70018072Y-39332000D01*
X70005812Y-39207518D01*
X69969502Y-39087820D01*
X69910537Y-38977506D01*
X69831185Y-38880815D01*
X69734494Y-38801463D01*
X69624180Y-38742498D01*
X69504482Y-38706188D01*
X69486518Y-38704419D01*
X69599608Y-38611608D01*
X69778932Y-38393101D01*
X69912182Y-38143808D01*
X69994236Y-37873309D01*
X70021943Y-37592000D01*
X69994236Y-37310691D01*
X69912182Y-37040192D01*
X69778932Y-36790899D01*
X69599608Y-36572392D01*
X69381101Y-36393068D01*
X69243318Y-36319421D01*
X69435131Y-36204385D01*
X69643519Y-36015414D01*
X69811037Y-35789420D01*
X69931246Y-35535087D01*
X69971904Y-35401039D01*
X69849915Y-35179000D01*
X68707000Y-35179000D01*
X68707000Y-35199000D01*
X68453000Y-35199000D01*
X68453000Y-35179000D01*
X67310085Y-35179000D01*
X67188096Y-35401039D01*
X67228754Y-35535087D01*
X67348963Y-35789420D01*
X67516481Y-36015414D01*
X67724869Y-36204385D01*
X67916682Y-36319421D01*
X67778899Y-36393068D01*
X67560392Y-36572392D01*
X67381068Y-36790899D01*
X67247818Y-37040192D01*
X67165764Y-37310691D01*
X67138057Y-37592000D01*
X62401943Y-37592000D01*
X62374236Y-37310691D01*
X62292182Y-37040192D01*
X62158932Y-36790899D01*
X61979608Y-36572392D01*
X61761101Y-36393068D01*
X61628142Y-36322000D01*
X61761101Y-36250932D01*
X61979608Y-36071608D01*
X62158932Y-35853101D01*
X62292182Y-35603808D01*
X62374236Y-35333309D01*
X62401943Y-35052000D01*
X62374236Y-34770691D01*
X62348849Y-34686999D01*
X67127679Y-34686999D01*
X67165001Y-34690675D01*
X67192648Y-34687952D01*
X67188096Y-34702961D01*
X67310085Y-34925000D01*
X68453000Y-34925000D01*
X68453000Y-34905000D01*
X68707000Y-34905000D01*
X68707000Y-34925000D01*
X69849915Y-34925000D01*
X69971904Y-34702961D01*
X69931246Y-34568913D01*
X69811037Y-34314580D01*
X69643519Y-34088586D01*
X69435131Y-33899615D01*
X69243318Y-33784579D01*
X69381101Y-33710932D01*
X69599608Y-33531608D01*
X69778932Y-33313101D01*
X69854827Y-33171110D01*
X70186524Y-33171110D01*
X70307845Y-33401000D01*
X71501000Y-33401000D01*
X71501000Y-32207186D01*
X71271109Y-32086519D01*
X70996748Y-32183843D01*
X70746645Y-32332822D01*
X70530412Y-32527731D01*
X70356359Y-32761080D01*
X70231175Y-33023901D01*
X70186524Y-33171110D01*
X69854827Y-33171110D01*
X69912182Y-33063808D01*
X69994236Y-32793309D01*
X70021943Y-32512000D01*
X69994236Y-32230691D01*
X69912182Y-31960192D01*
X69778932Y-31710899D01*
X69599608Y-31492392D01*
X69381101Y-31313068D01*
X69131808Y-31179818D01*
X68861309Y-31097764D01*
X68650492Y-31077000D01*
X68509508Y-31077000D01*
X68298691Y-31097764D01*
X68028192Y-31179818D01*
X67778899Y-31313068D01*
X67560392Y-31492392D01*
X67381068Y-31710899D01*
X67247818Y-31960192D01*
X67165764Y-32230691D01*
X67138057Y-32512000D01*
X67165764Y-32793309D01*
X67179292Y-32837906D01*
X66850200Y-33166999D01*
X62229993Y-33166999D01*
X62311246Y-32995087D01*
X62351904Y-32861039D01*
X62229915Y-32639000D01*
X61087000Y-32639000D01*
X61087000Y-32659000D01*
X60833000Y-32659000D01*
X60833000Y-32639000D01*
X59690085Y-32639000D01*
X59568096Y-32861039D01*
X59608754Y-32995087D01*
X59728963Y-33249420D01*
X59854039Y-33418157D01*
X54000000Y-39272197D01*
X54000000Y-32162961D01*
X59568096Y-32162961D01*
X59690085Y-32385000D01*
X60833000Y-32385000D01*
X60833000Y-31241376D01*
X61087000Y-31241376D01*
X61087000Y-32385000D01*
X62229915Y-32385000D01*
X62351904Y-32162961D01*
X62311246Y-32028913D01*
X62191037Y-31774580D01*
X62023519Y-31548586D01*
X61815131Y-31359615D01*
X61573881Y-31214930D01*
X61309040Y-31120091D01*
X61087000Y-31241376D01*
X60833000Y-31241376D01*
X60610960Y-31120091D01*
X60346119Y-31214930D01*
X60104869Y-31359615D01*
X59896481Y-31548586D01*
X59728963Y-31774580D01*
X59608754Y-32028913D01*
X59568096Y-32162961D01*
X54000000Y-32162961D01*
X54000000Y-29149274D01*
X54143962Y-29364729D01*
X54455271Y-29676038D01*
X54821331Y-29920631D01*
X55228075Y-30089110D01*
X55659872Y-30175000D01*
X56100128Y-30175000D01*
X56531925Y-30089110D01*
X56938669Y-29920631D01*
X57304729Y-29676038D01*
X57616038Y-29364729D01*
X57860631Y-28998669D01*
X58029110Y-28591925D01*
X58115000Y-28160128D01*
X58115000Y-27725000D01*
X58201928Y-27725000D01*
X58201928Y-29425000D01*
X58214188Y-29549482D01*
X58250498Y-29669180D01*
X58309463Y-29779494D01*
X58388815Y-29876185D01*
X58485506Y-29955537D01*
X58595820Y-30014502D01*
X58715518Y-30050812D01*
X58840000Y-30063072D01*
X60540000Y-30063072D01*
X60664482Y-30050812D01*
X60784180Y-30014502D01*
X60894494Y-29955537D01*
X60991185Y-29876185D01*
X61070537Y-29779494D01*
X61129502Y-29669180D01*
X61150393Y-29600313D01*
X61174866Y-29630134D01*
X61400986Y-29815706D01*
X61658966Y-29953599D01*
X61938889Y-30038513D01*
X62157050Y-30060000D01*
X62302950Y-30060000D01*
X62521111Y-30038513D01*
X62801034Y-29953599D01*
X63059014Y-29815706D01*
X63285134Y-29630134D01*
X63470706Y-29404014D01*
X63500000Y-29349209D01*
X63529294Y-29404014D01*
X63714866Y-29630134D01*
X63940986Y-29815706D01*
X64198966Y-29953599D01*
X64478889Y-30038513D01*
X64697050Y-30060000D01*
X64842950Y-30060000D01*
X65061111Y-30038513D01*
X65341034Y-29953599D01*
X65599014Y-29815706D01*
X65825134Y-29630134D01*
X66010706Y-29404014D01*
X66045201Y-29339477D01*
X66114822Y-29456355D01*
X66309731Y-29672588D01*
X66543080Y-29846641D01*
X66805901Y-29971825D01*
X66953110Y-30016476D01*
X67183000Y-29895155D01*
X67183000Y-28702000D01*
X67437000Y-28702000D01*
X67437000Y-29895155D01*
X67666890Y-30016476D01*
X67814099Y-29971825D01*
X68076920Y-29846641D01*
X68310269Y-29672588D01*
X68505178Y-29456355D01*
X68654157Y-29206252D01*
X68751481Y-28931891D01*
X68630814Y-28702000D01*
X67437000Y-28702000D01*
X67183000Y-28702000D01*
X67163000Y-28702000D01*
X67163000Y-28448000D01*
X67183000Y-28448000D01*
X67183000Y-27254845D01*
X67437000Y-27254845D01*
X67437000Y-28448000D01*
X68630814Y-28448000D01*
X68751481Y-28218109D01*
X68654157Y-27943748D01*
X68505178Y-27693645D01*
X68310269Y-27477412D01*
X68076920Y-27303359D01*
X67814099Y-27178175D01*
X67666890Y-27133524D01*
X67437000Y-27254845D01*
X67183000Y-27254845D01*
X66953110Y-27133524D01*
X66805901Y-27178175D01*
X66543080Y-27303359D01*
X66309731Y-27477412D01*
X66114822Y-27693645D01*
X66045201Y-27810523D01*
X66010706Y-27745986D01*
X65825134Y-27519866D01*
X65599014Y-27334294D01*
X65341034Y-27196401D01*
X65061111Y-27111487D01*
X64842950Y-27090000D01*
X64697050Y-27090000D01*
X64478889Y-27111487D01*
X64198966Y-27196401D01*
X63940986Y-27334294D01*
X63714866Y-27519866D01*
X63529294Y-27745986D01*
X63500000Y-27800791D01*
X63470706Y-27745986D01*
X63285134Y-27519866D01*
X63059014Y-27334294D01*
X62801034Y-27196401D01*
X62521111Y-27111487D01*
X62302950Y-27090000D01*
X62157050Y-27090000D01*
X61938889Y-27111487D01*
X61658966Y-27196401D01*
X61400986Y-27334294D01*
X61174866Y-27519866D01*
X61150393Y-27549687D01*
X61129502Y-27480820D01*
X61070537Y-27370506D01*
X60991185Y-27273815D01*
X60894494Y-27194463D01*
X60784180Y-27135498D01*
X60664482Y-27099188D01*
X60540000Y-27086928D01*
X58840000Y-27086928D01*
X58715518Y-27099188D01*
X58595820Y-27135498D01*
X58485506Y-27194463D01*
X58388815Y-27273815D01*
X58309463Y-27370506D01*
X58250498Y-27480820D01*
X58214188Y-27600518D01*
X58201928Y-27725000D01*
X58115000Y-27725000D01*
X58115000Y-27719872D01*
X58029110Y-27288075D01*
X57860631Y-26881331D01*
X57616038Y-26515271D01*
X57304729Y-26203962D01*
X57089274Y-26060000D01*
X69910726Y-26060000D01*
X69695271Y-26203962D01*
X69695271Y-26203962D01*
G37*
X69695271Y-26203962D02*
X69383962Y-26515271D01*
X69139369Y-26881331D01*
X68970890Y-27288075D01*
X68885000Y-27719872D01*
X68885000Y-28160128D01*
X68970890Y-28591925D01*
X69139369Y-28998669D01*
X69383962Y-29364729D01*
X69695271Y-29676038D01*
X70061331Y-29920631D01*
X70468075Y-30089110D01*
X70899872Y-30175000D01*
X71340128Y-30175000D01*
X71771925Y-30089110D01*
X72178669Y-29920631D01*
X72544729Y-29676038D01*
X72856038Y-29364729D01*
X73000001Y-29149273D01*
X73000001Y-32971783D01*
X72899641Y-32761080D01*
X72725588Y-32527731D01*
X72509355Y-32332822D01*
X72259252Y-32183843D01*
X71984891Y-32086519D01*
X71755000Y-32207186D01*
X71755000Y-33401000D01*
X71775000Y-33401000D01*
X71775000Y-33655000D01*
X71755000Y-33655000D01*
X71755000Y-33675000D01*
X71501000Y-33675000D01*
X71501000Y-33655000D01*
X70307845Y-33655000D01*
X70186524Y-33884890D01*
X70231175Y-34032099D01*
X70356359Y-34294920D01*
X70530412Y-34528269D01*
X70614466Y-34604034D01*
X70533820Y-34628498D01*
X70423506Y-34687463D01*
X70326815Y-34766815D01*
X70247463Y-34863506D01*
X70188498Y-34973820D01*
X70152188Y-35093518D01*
X70139928Y-35218000D01*
X70139928Y-36918000D01*
X70152188Y-37042482D01*
X70188498Y-37162180D01*
X70247463Y-37272494D01*
X70326815Y-37369185D01*
X70423506Y-37448537D01*
X70533820Y-37507502D01*
X70653518Y-37543812D01*
X70778000Y-37556072D01*
X72478000Y-37556072D01*
X72602482Y-37543812D01*
X72722180Y-37507502D01*
X72832494Y-37448537D01*
X72929185Y-37369185D01*
X73000001Y-37282895D01*
X73000000Y-123250726D01*
X72856038Y-123035271D01*
X72544729Y-122723962D01*
X72178669Y-122479369D01*
X71771925Y-122310890D01*
X71340128Y-122225000D01*
X70899872Y-122225000D01*
X70468075Y-122310890D01*
X70061331Y-122479369D01*
X69695271Y-122723962D01*
X69383962Y-123035271D01*
X69139369Y-123401331D01*
X68970890Y-123808075D01*
X68885000Y-124239872D01*
X68885000Y-124680128D01*
X68970890Y-125111925D01*
X69139369Y-125518669D01*
X69383962Y-125884729D01*
X69695271Y-126196038D01*
X69910726Y-126340000D01*
X57089274Y-126340000D01*
X57304729Y-126196038D01*
X57616038Y-125884729D01*
X57860631Y-125518669D01*
X58029110Y-125111925D01*
X58115000Y-124680128D01*
X58115000Y-124239872D01*
X58029110Y-123808075D01*
X57860631Y-123401331D01*
X57616038Y-123035271D01*
X57304729Y-122723962D01*
X56938669Y-122479369D01*
X56531925Y-122310890D01*
X56100128Y-122225000D01*
X55659872Y-122225000D01*
X55228075Y-122310890D01*
X54821331Y-122479369D01*
X54455271Y-122723962D01*
X54143962Y-123035271D01*
X54000000Y-123250726D01*
X54000000Y-113262801D01*
X57235928Y-116498730D01*
X57235928Y-117912000D01*
X57252992Y-118085254D01*
X57303528Y-118251850D01*
X57385595Y-118405386D01*
X57496038Y-118539962D01*
X57630614Y-118650405D01*
X57784150Y-118732472D01*
X57950746Y-118783008D01*
X58124000Y-118800072D01*
X59224000Y-118800072D01*
X59397254Y-118783008D01*
X59563850Y-118732472D01*
X59717386Y-118650405D01*
X59851962Y-118539962D01*
X59962405Y-118405386D01*
X60044472Y-118251850D01*
X60088108Y-118108000D01*
X65300328Y-118108000D01*
X65300328Y-118211600D01*
X65312588Y-118336082D01*
X65348898Y-118455780D01*
X65407863Y-118566094D01*
X65487215Y-118662785D01*
X65583906Y-118742137D01*
X65694220Y-118801102D01*
X65813918Y-118837412D01*
X65938400Y-118849672D01*
X67665600Y-118849672D01*
X67790082Y-118837412D01*
X67909780Y-118801102D01*
X68020094Y-118742137D01*
X68116785Y-118662785D01*
X68196137Y-118566094D01*
X68255102Y-118455780D01*
X68270586Y-118404735D01*
X68277203Y-118412797D01*
X68505394Y-118600069D01*
X68765736Y-118739225D01*
X69048223Y-118824916D01*
X69268381Y-118846600D01*
X69415619Y-118846600D01*
X69635777Y-118824916D01*
X69918264Y-118739225D01*
X70178606Y-118600069D01*
X70406797Y-118412797D01*
X70594069Y-118184606D01*
X70733225Y-117924264D01*
X70818916Y-117641777D01*
X70847851Y-117348000D01*
X70818916Y-117054223D01*
X70733225Y-116771736D01*
X70594069Y-116511394D01*
X70406797Y-116283203D01*
X70178606Y-116095931D01*
X70134090Y-116072137D01*
X70230488Y-116014817D01*
X70448854Y-115818293D01*
X70624684Y-115582944D01*
X70751222Y-115317814D01*
X70796958Y-115167026D01*
X70675817Y-114935000D01*
X69469000Y-114935000D01*
X69469000Y-114955000D01*
X69215000Y-114955000D01*
X69215000Y-114935000D01*
X66929000Y-114935000D01*
X66929000Y-114955000D01*
X66675000Y-114955000D01*
X66675000Y-114935000D01*
X65468183Y-114935000D01*
X65347042Y-115167026D01*
X65392778Y-115317814D01*
X65519316Y-115582944D01*
X65695146Y-115818293D01*
X65758574Y-115875376D01*
X65694220Y-115894898D01*
X65583906Y-115953863D01*
X65487215Y-116033215D01*
X65407863Y-116129906D01*
X65348898Y-116240220D01*
X65312588Y-116359918D01*
X65300328Y-116484400D01*
X65300328Y-116588000D01*
X60112072Y-116588000D01*
X60112072Y-115812000D01*
X60095008Y-115638746D01*
X60044472Y-115472150D01*
X59962405Y-115318614D01*
X59851962Y-115184038D01*
X59775187Y-115121031D01*
X59828494Y-115092537D01*
X59925185Y-115013185D01*
X60004537Y-114916494D01*
X60063502Y-114806180D01*
X60099812Y-114686482D01*
X60112072Y-114562000D01*
X60109000Y-113547750D01*
X59950250Y-113389000D01*
X58801000Y-113389000D01*
X58801000Y-113409000D01*
X58547000Y-113409000D01*
X58547000Y-113389000D01*
X57397750Y-113389000D01*
X57239000Y-113547750D01*
X57236571Y-114349769D01*
X54752999Y-111866198D01*
X54752999Y-110796000D01*
X57235928Y-110796000D01*
X57248188Y-110920482D01*
X57284498Y-111040180D01*
X57343463Y-111150494D01*
X57422815Y-111247185D01*
X57519506Y-111326537D01*
X57617656Y-111379000D01*
X57519506Y-111431463D01*
X57422815Y-111510815D01*
X57343463Y-111607506D01*
X57284498Y-111717820D01*
X57248188Y-111837518D01*
X57235928Y-111962000D01*
X57239000Y-112976250D01*
X57397750Y-113135000D01*
X58547000Y-113135000D01*
X58547000Y-111485750D01*
X58440250Y-111379000D01*
X58547000Y-111272250D01*
X58547000Y-109623000D01*
X58801000Y-109623000D01*
X58801000Y-111272250D01*
X58907750Y-111379000D01*
X58801000Y-111485750D01*
X58801000Y-113135000D01*
X59950250Y-113135000D01*
X60109000Y-112976250D01*
X60110057Y-112627026D01*
X65347042Y-112627026D01*
X65392778Y-112777814D01*
X65519316Y-113042944D01*
X65695146Y-113278293D01*
X65913512Y-113474817D01*
X66019770Y-113538000D01*
X65913512Y-113601183D01*
X65695146Y-113797707D01*
X65519316Y-114033056D01*
X65392778Y-114298186D01*
X65347042Y-114448974D01*
X65468183Y-114681000D01*
X66675000Y-114681000D01*
X66675000Y-112395000D01*
X66929000Y-112395000D01*
X66929000Y-114681000D01*
X69215000Y-114681000D01*
X69215000Y-112395000D01*
X69469000Y-112395000D01*
X69469000Y-114681000D01*
X70675817Y-114681000D01*
X70796958Y-114448974D01*
X70751222Y-114298186D01*
X70624684Y-114033056D01*
X70448854Y-113797707D01*
X70230488Y-113601183D01*
X70124230Y-113538000D01*
X70230488Y-113474817D01*
X70448854Y-113278293D01*
X70624684Y-113042944D01*
X70751222Y-112777814D01*
X70796958Y-112627026D01*
X70675817Y-112395000D01*
X69469000Y-112395000D01*
X69215000Y-112395000D01*
X66929000Y-112395000D01*
X66675000Y-112395000D01*
X65468183Y-112395000D01*
X65347042Y-112627026D01*
X60110057Y-112627026D01*
X60112072Y-111962000D01*
X60099812Y-111837518D01*
X60063502Y-111717820D01*
X60004537Y-111607506D01*
X59925185Y-111510815D01*
X59828494Y-111431463D01*
X59730344Y-111379000D01*
X59828494Y-111326537D01*
X59925185Y-111247185D01*
X60004537Y-111150494D01*
X60063502Y-111040180D01*
X60099812Y-110920482D01*
X60112072Y-110796000D01*
X60109925Y-110087026D01*
X65347042Y-110087026D01*
X65392778Y-110237814D01*
X65519316Y-110502944D01*
X65695146Y-110738293D01*
X65913512Y-110934817D01*
X66019770Y-110998000D01*
X65913512Y-111061183D01*
X65695146Y-111257707D01*
X65519316Y-111493056D01*
X65392778Y-111758186D01*
X65347042Y-111908974D01*
X65468183Y-112141000D01*
X66675000Y-112141000D01*
X66675000Y-109855000D01*
X66929000Y-109855000D01*
X66929000Y-112141000D01*
X69215000Y-112141000D01*
X69215000Y-109855000D01*
X69469000Y-109855000D01*
X69469000Y-112141000D01*
X70675817Y-112141000D01*
X70796958Y-111908974D01*
X70751222Y-111758186D01*
X70624684Y-111493056D01*
X70448854Y-111257707D01*
X70230488Y-111061183D01*
X70124230Y-110998000D01*
X70230488Y-110934817D01*
X70448854Y-110738293D01*
X70624684Y-110502944D01*
X70751222Y-110237814D01*
X70796958Y-110087026D01*
X70675817Y-109855000D01*
X69469000Y-109855000D01*
X69215000Y-109855000D01*
X66929000Y-109855000D01*
X66675000Y-109855000D01*
X65468183Y-109855000D01*
X65347042Y-110087026D01*
X60109925Y-110087026D01*
X60109000Y-109781750D01*
X59950250Y-109623000D01*
X58801000Y-109623000D01*
X58547000Y-109623000D01*
X57397750Y-109623000D01*
X57239000Y-109781750D01*
X57235928Y-110796000D01*
X54752999Y-110796000D01*
X54752999Y-102580072D01*
X56095000Y-102580072D01*
X56219482Y-102567812D01*
X56339180Y-102531502D01*
X56449494Y-102472537D01*
X56546185Y-102393185D01*
X56625537Y-102296494D01*
X56684502Y-102186180D01*
X56720812Y-102066482D01*
X56733072Y-101942000D01*
X56733072Y-100242000D01*
X56720812Y-100117518D01*
X56684502Y-99997820D01*
X56625537Y-99887506D01*
X56546185Y-99790815D01*
X56449494Y-99711463D01*
X56339180Y-99652498D01*
X56258534Y-99628034D01*
X56342588Y-99552269D01*
X56516641Y-99318920D01*
X56641825Y-99056099D01*
X56686476Y-98908890D01*
X56565155Y-98679000D01*
X55372000Y-98679000D01*
X55372000Y-98699000D01*
X55118000Y-98699000D01*
X55118000Y-98679000D01*
X55098000Y-98679000D01*
X55098000Y-98425000D01*
X55118000Y-98425000D01*
X55118000Y-97231186D01*
X55372000Y-97231186D01*
X55372000Y-98425000D01*
X56565155Y-98425000D01*
X56686476Y-98195110D01*
X56641825Y-98047901D01*
X56516641Y-97785080D01*
X56342588Y-97551731D01*
X56126355Y-97356822D01*
X55876252Y-97207843D01*
X55601891Y-97110519D01*
X55372000Y-97231186D01*
X55118000Y-97231186D01*
X54888109Y-97110519D01*
X54752999Y-97158447D01*
X54752999Y-96764063D01*
X54768961Y-96768904D01*
X54991000Y-96646915D01*
X54991000Y-95504000D01*
X54971000Y-95504000D01*
X54971000Y-95250000D01*
X54991000Y-95250000D01*
X54991000Y-94107085D01*
X55245000Y-94107085D01*
X55245000Y-95250000D01*
X55265000Y-95250000D01*
X55265000Y-95504000D01*
X55245000Y-95504000D01*
X55245000Y-96646915D01*
X55467039Y-96768904D01*
X55601087Y-96728246D01*
X55855420Y-96608037D01*
X56081414Y-96440519D01*
X56270385Y-96232131D01*
X56385421Y-96040318D01*
X56459068Y-96178101D01*
X56638392Y-96396608D01*
X56856899Y-96575932D01*
X57106192Y-96709182D01*
X57376691Y-96791236D01*
X57587508Y-96812000D01*
X57728492Y-96812000D01*
X57939309Y-96791236D01*
X58209808Y-96709182D01*
X58459101Y-96575932D01*
X58677608Y-96396608D01*
X58856932Y-96178101D01*
X58928000Y-96045142D01*
X58999068Y-96178101D01*
X59178392Y-96396608D01*
X59396899Y-96575932D01*
X59646192Y-96709182D01*
X59916691Y-96791236D01*
X60127508Y-96812000D01*
X60228198Y-96812000D01*
X58162998Y-98877201D01*
X58134000Y-98900999D01*
X58110202Y-98929997D01*
X58110201Y-98929998D01*
X58039026Y-99016724D01*
X57968454Y-99148754D01*
X57965739Y-99157706D01*
X57924998Y-99292014D01*
X57914480Y-99398800D01*
X57910324Y-99441000D01*
X57914001Y-99478332D01*
X57914000Y-103986139D01*
X57784150Y-104025528D01*
X57630614Y-104107595D01*
X57496038Y-104218038D01*
X57385595Y-104352614D01*
X57303528Y-104506150D01*
X57252992Y-104672746D01*
X57235928Y-104846000D01*
X57235928Y-106946000D01*
X57252992Y-107119254D01*
X57303528Y-107285850D01*
X57385595Y-107439386D01*
X57496038Y-107573962D01*
X57572813Y-107636969D01*
X57519506Y-107665463D01*
X57422815Y-107744815D01*
X57343463Y-107841506D01*
X57284498Y-107951820D01*
X57248188Y-108071518D01*
X57235928Y-108196000D01*
X57239000Y-109210250D01*
X57397750Y-109369000D01*
X58547000Y-109369000D01*
X58547000Y-109349000D01*
X58801000Y-109349000D01*
X58801000Y-109369000D01*
X59950250Y-109369000D01*
X60109000Y-109210250D01*
X60112072Y-108196000D01*
X60099812Y-108071518D01*
X60063502Y-107951820D01*
X60004537Y-107841506D01*
X59925185Y-107744815D01*
X59828494Y-107665463D01*
X59775187Y-107636969D01*
X59851962Y-107573962D01*
X59962405Y-107439386D01*
X60044472Y-107285850D01*
X60095008Y-107119254D01*
X60112072Y-106946000D01*
X60112072Y-106656000D01*
X65195199Y-106656000D01*
X65350299Y-106811100D01*
X65325084Y-106894223D01*
X65296149Y-107188000D01*
X65325084Y-107481777D01*
X65410775Y-107764264D01*
X65549931Y-108024606D01*
X65737203Y-108252797D01*
X65965394Y-108440069D01*
X66009910Y-108463863D01*
X65913512Y-108521183D01*
X65695146Y-108717707D01*
X65519316Y-108953056D01*
X65392778Y-109218186D01*
X65347042Y-109368974D01*
X65468183Y-109601000D01*
X66675000Y-109601000D01*
X66675000Y-109581000D01*
X66929000Y-109581000D01*
X66929000Y-109601000D01*
X69215000Y-109601000D01*
X69215000Y-109581000D01*
X69469000Y-109581000D01*
X69469000Y-109601000D01*
X70675817Y-109601000D01*
X70796958Y-109368974D01*
X70751222Y-109218186D01*
X70624684Y-108953056D01*
X70448854Y-108717707D01*
X70230488Y-108521183D01*
X70134090Y-108463863D01*
X70178606Y-108440069D01*
X70406797Y-108252797D01*
X70594069Y-108024606D01*
X70733225Y-107764264D01*
X70818916Y-107481777D01*
X70847851Y-107188000D01*
X70818916Y-106894223D01*
X70733225Y-106611736D01*
X70594069Y-106351394D01*
X70406797Y-106123203D01*
X70178606Y-105935931D01*
X69918264Y-105796775D01*
X69635777Y-105711084D01*
X69415619Y-105689400D01*
X69268381Y-105689400D01*
X69048223Y-105711084D01*
X68765736Y-105796775D01*
X68505394Y-105935931D01*
X68277203Y-106123203D01*
X68089931Y-106351394D01*
X68072000Y-106384940D01*
X68054069Y-106351394D01*
X67866797Y-106123203D01*
X67638606Y-105935931D01*
X67378264Y-105796775D01*
X67095777Y-105711084D01*
X66875619Y-105689400D01*
X66728381Y-105689400D01*
X66508223Y-105711084D01*
X66425100Y-105736299D01*
X66073804Y-105385003D01*
X66050001Y-105355999D01*
X65934276Y-105261026D01*
X65802247Y-105190454D01*
X65658986Y-105146997D01*
X65547333Y-105136000D01*
X65547322Y-105136000D01*
X65510000Y-105132324D01*
X65472678Y-105136000D01*
X60112072Y-105136000D01*
X60112072Y-104846000D01*
X60095008Y-104672746D01*
X60044472Y-104506150D01*
X59962405Y-104352614D01*
X59851962Y-104218038D01*
X59717386Y-104107595D01*
X59563850Y-104025528D01*
X59434000Y-103986139D01*
X59434000Y-100813890D01*
X64979524Y-100813890D01*
X65024175Y-100961099D01*
X65149359Y-101223920D01*
X65323412Y-101457269D01*
X65539645Y-101652178D01*
X65789748Y-101801157D01*
X66064109Y-101898481D01*
X66294000Y-101777814D01*
X66294000Y-100584000D01*
X66548000Y-100584000D01*
X66548000Y-101777814D01*
X66777891Y-101898481D01*
X67052252Y-101801157D01*
X67302355Y-101652178D01*
X67518588Y-101457269D01*
X67692641Y-101223920D01*
X67817825Y-100961099D01*
X67862476Y-100813890D01*
X67741155Y-100584000D01*
X66548000Y-100584000D01*
X66294000Y-100584000D01*
X65100845Y-100584000D01*
X64979524Y-100813890D01*
X59434000Y-100813890D01*
X59434000Y-99755801D01*
X62412094Y-96777708D01*
X62456691Y-96791236D01*
X62667508Y-96812000D01*
X62808492Y-96812000D01*
X63019309Y-96791236D01*
X63289808Y-96709182D01*
X63539101Y-96575932D01*
X63757608Y-96396608D01*
X63936932Y-96178101D01*
X64070182Y-95928808D01*
X64152236Y-95658309D01*
X64179943Y-95377000D01*
X64152236Y-95095691D01*
X64070182Y-94825192D01*
X63936932Y-94575899D01*
X63757608Y-94357392D01*
X63539101Y-94178068D01*
X63289808Y-94044818D01*
X63019309Y-93962764D01*
X62808492Y-93942000D01*
X62667508Y-93942000D01*
X62456691Y-93962764D01*
X62186192Y-94044818D01*
X61936899Y-94178068D01*
X61718392Y-94357392D01*
X61539068Y-94575899D01*
X61468000Y-94708858D01*
X61396932Y-94575899D01*
X61217608Y-94357392D01*
X60999101Y-94178068D01*
X60749808Y-94044818D01*
X60479309Y-93962764D01*
X60268492Y-93942000D01*
X60127508Y-93942000D01*
X59916691Y-93962764D01*
X59646192Y-94044818D01*
X59396899Y-94178068D01*
X59178392Y-94357392D01*
X58999068Y-94575899D01*
X58928000Y-94708858D01*
X58856932Y-94575899D01*
X58677608Y-94357392D01*
X58459101Y-94178068D01*
X58209808Y-94044818D01*
X57939309Y-93962764D01*
X57728492Y-93942000D01*
X57587508Y-93942000D01*
X57376691Y-93962764D01*
X57106192Y-94044818D01*
X56856899Y-94178068D01*
X56638392Y-94357392D01*
X56459068Y-94575899D01*
X56385421Y-94713682D01*
X56270385Y-94521869D01*
X56081414Y-94313481D01*
X55855420Y-94145963D01*
X55601087Y-94025754D01*
X55467039Y-93985096D01*
X55245000Y-94107085D01*
X54991000Y-94107085D01*
X54768961Y-93985096D01*
X54752999Y-93989937D01*
X54752999Y-89145849D01*
X54836691Y-89171236D01*
X55047508Y-89192000D01*
X55188492Y-89192000D01*
X55399309Y-89171236D01*
X55669808Y-89089182D01*
X55919101Y-88955932D01*
X56137608Y-88776608D01*
X56316932Y-88558101D01*
X56390579Y-88420318D01*
X56505615Y-88612131D01*
X56694586Y-88820519D01*
X56920580Y-88988037D01*
X57174913Y-89108246D01*
X57308961Y-89148904D01*
X57531000Y-89026915D01*
X57531000Y-87884000D01*
X57511000Y-87884000D01*
X57511000Y-87630000D01*
X57531000Y-87630000D01*
X57531000Y-86487085D01*
X57785000Y-86487085D01*
X57785000Y-87630000D01*
X57805000Y-87630000D01*
X57805000Y-87884000D01*
X57785000Y-87884000D01*
X57785000Y-89026915D01*
X58007039Y-89148904D01*
X58141087Y-89108246D01*
X58395420Y-88988037D01*
X58621414Y-88820519D01*
X58810385Y-88612131D01*
X58925421Y-88420318D01*
X58999068Y-88558101D01*
X59178392Y-88776608D01*
X59396899Y-88955932D01*
X59646192Y-89089182D01*
X59916691Y-89171236D01*
X60127508Y-89192000D01*
X60268492Y-89192000D01*
X60479309Y-89171236D01*
X60749808Y-89089182D01*
X60999101Y-88955932D01*
X61217608Y-88776608D01*
X61310419Y-88663518D01*
X61312188Y-88681482D01*
X61348498Y-88801180D01*
X61407463Y-88911494D01*
X61486815Y-89008185D01*
X61583506Y-89087537D01*
X61693820Y-89146502D01*
X61813518Y-89182812D01*
X61938000Y-89195072D01*
X63538000Y-89195072D01*
X63662482Y-89182812D01*
X63782180Y-89146502D01*
X63892494Y-89087537D01*
X63989185Y-89008185D01*
X64068537Y-88911494D01*
X64127502Y-88801180D01*
X64163812Y-88681482D01*
X64176072Y-88557000D01*
X64176072Y-86957000D01*
X64163812Y-86832518D01*
X64127502Y-86712820D01*
X64068537Y-86602506D01*
X63989185Y-86505815D01*
X63892494Y-86426463D01*
X63782180Y-86367498D01*
X63662482Y-86331188D01*
X63538000Y-86318928D01*
X61938000Y-86318928D01*
X61813518Y-86331188D01*
X61693820Y-86367498D01*
X61583506Y-86426463D01*
X61486815Y-86505815D01*
X61407463Y-86602506D01*
X61348498Y-86712820D01*
X61312188Y-86832518D01*
X61310419Y-86850482D01*
X61217608Y-86737392D01*
X60999101Y-86558068D01*
X60749808Y-86424818D01*
X60479309Y-86342764D01*
X60268492Y-86322000D01*
X60127508Y-86322000D01*
X59916691Y-86342764D01*
X59646192Y-86424818D01*
X59396899Y-86558068D01*
X59178392Y-86737392D01*
X58999068Y-86955899D01*
X58925421Y-87093682D01*
X58810385Y-86901869D01*
X58621414Y-86693481D01*
X58395420Y-86525963D01*
X58141087Y-86405754D01*
X58007039Y-86365096D01*
X57785000Y-86487085D01*
X57531000Y-86487085D01*
X57308961Y-86365096D01*
X57174913Y-86405754D01*
X56920580Y-86525963D01*
X56694586Y-86693481D01*
X56505615Y-86901869D01*
X56390579Y-87093682D01*
X56316932Y-86955899D01*
X56137608Y-86737392D01*
X55919101Y-86558068D01*
X55669808Y-86424818D01*
X55399309Y-86342764D01*
X55188492Y-86322000D01*
X55047508Y-86322000D01*
X54836691Y-86342764D01*
X54752999Y-86368151D01*
X54752999Y-86359802D01*
X55883003Y-85229799D01*
X55912001Y-85206001D01*
X55938332Y-85173917D01*
X56006974Y-85090277D01*
X56026326Y-85054072D01*
X56222000Y-85054072D01*
X56346482Y-85041812D01*
X56466180Y-85005502D01*
X56576494Y-84946537D01*
X56673185Y-84867185D01*
X56752537Y-84770494D01*
X56811502Y-84660180D01*
X56847812Y-84540482D01*
X56860072Y-84416000D01*
X56860072Y-82716000D01*
X56847812Y-82591518D01*
X56811502Y-82471820D01*
X56752537Y-82361506D01*
X56673185Y-82264815D01*
X56576494Y-82185463D01*
X56466180Y-82126498D01*
X56397313Y-82105607D01*
X56427134Y-82081134D01*
X56612706Y-81855014D01*
X56750599Y-81597034D01*
X56835513Y-81317111D01*
X56854051Y-81128890D01*
X62058524Y-81128890D01*
X62103175Y-81276099D01*
X62228359Y-81538920D01*
X62402412Y-81772269D01*
X62618645Y-81967178D01*
X62868748Y-82116157D01*
X63143109Y-82213481D01*
X63373000Y-82092814D01*
X63373000Y-80899000D01*
X63627000Y-80899000D01*
X63627000Y-82092814D01*
X63856891Y-82213481D01*
X64131252Y-82116157D01*
X64381355Y-81967178D01*
X64597588Y-81772269D01*
X64771641Y-81538920D01*
X64896825Y-81276099D01*
X64941476Y-81128890D01*
X64820155Y-80899000D01*
X63627000Y-80899000D01*
X63373000Y-80899000D01*
X62179845Y-80899000D01*
X62058524Y-81128890D01*
X56854051Y-81128890D01*
X56864185Y-81026000D01*
X56835513Y-80734889D01*
X56750599Y-80454966D01*
X56612706Y-80196986D01*
X56427134Y-79970866D01*
X56201014Y-79785294D01*
X56136477Y-79750799D01*
X56253355Y-79681178D01*
X56469588Y-79486269D01*
X56643641Y-79252920D01*
X56768825Y-78990099D01*
X56813476Y-78842890D01*
X56692155Y-78613000D01*
X55499000Y-78613000D01*
X55499000Y-78633000D01*
X55245000Y-78633000D01*
X55245000Y-78613000D01*
X55225000Y-78613000D01*
X55225000Y-78359000D01*
X55245000Y-78359000D01*
X55245000Y-77165186D01*
X55499000Y-77165186D01*
X55499000Y-78359000D01*
X56692155Y-78359000D01*
X56813476Y-78129110D01*
X56768825Y-77981901D01*
X56643641Y-77719080D01*
X56469588Y-77485731D01*
X56354509Y-77382000D01*
X62011928Y-77382000D01*
X62011928Y-79082000D01*
X62024188Y-79206482D01*
X62060498Y-79326180D01*
X62119463Y-79436494D01*
X62198815Y-79533185D01*
X62295506Y-79612537D01*
X62405820Y-79671502D01*
X62486466Y-79695966D01*
X62402412Y-79771731D01*
X62228359Y-80005080D01*
X62103175Y-80267901D01*
X62058524Y-80415110D01*
X62179845Y-80645000D01*
X63373000Y-80645000D01*
X63373000Y-80625000D01*
X63627000Y-80625000D01*
X63627000Y-80645000D01*
X64820155Y-80645000D01*
X64941476Y-80415110D01*
X64896825Y-80267901D01*
X64771641Y-80005080D01*
X64597588Y-79771731D01*
X64513534Y-79695966D01*
X64594180Y-79671502D01*
X64704494Y-79612537D01*
X64801185Y-79533185D01*
X64880537Y-79436494D01*
X64939502Y-79326180D01*
X64975812Y-79206482D01*
X64988072Y-79082000D01*
X64988072Y-77382000D01*
X64975812Y-77257518D01*
X64939502Y-77137820D01*
X64880537Y-77027506D01*
X64801185Y-76930815D01*
X64704494Y-76851463D01*
X64594180Y-76792498D01*
X64474482Y-76756188D01*
X64350000Y-76743928D01*
X62650000Y-76743928D01*
X62525518Y-76756188D01*
X62405820Y-76792498D01*
X62295506Y-76851463D01*
X62198815Y-76930815D01*
X62119463Y-77027506D01*
X62060498Y-77137820D01*
X62024188Y-77257518D01*
X62011928Y-77382000D01*
X56354509Y-77382000D01*
X56253355Y-77290822D01*
X56003252Y-77141843D01*
X55728891Y-77044519D01*
X55499000Y-77165186D01*
X55245000Y-77165186D01*
X55015109Y-77044519D01*
X54740748Y-77141843D01*
X54490645Y-77290822D01*
X54450010Y-77327450D01*
X54450010Y-71577565D01*
X55983040Y-71577565D01*
X56050020Y-71817656D01*
X56299048Y-71934756D01*
X56566135Y-72001023D01*
X56841017Y-72013910D01*
X57113133Y-71972922D01*
X57372023Y-71879636D01*
X57487980Y-71817656D01*
X57554960Y-71577565D01*
X56769000Y-70791605D01*
X55983040Y-71577565D01*
X54450010Y-71577565D01*
X54450010Y-70684017D01*
X55367090Y-70684017D01*
X55408078Y-70956133D01*
X55501364Y-71215023D01*
X55563344Y-71330980D01*
X55803435Y-71397960D01*
X56589395Y-70612000D01*
X56948605Y-70612000D01*
X57734565Y-71397960D01*
X57974656Y-71330980D01*
X58091756Y-71081952D01*
X58158023Y-70814865D01*
X58170910Y-70539983D01*
X58129922Y-70267867D01*
X58036636Y-70008977D01*
X57974656Y-69893020D01*
X57734565Y-69826040D01*
X56948605Y-70612000D01*
X56589395Y-70612000D01*
X55803435Y-69826040D01*
X55563344Y-69893020D01*
X55446244Y-70142048D01*
X55379977Y-70409135D01*
X55367090Y-70684017D01*
X54450010Y-70684017D01*
X54450010Y-69646435D01*
X55983040Y-69646435D01*
X56769000Y-70432395D01*
X57554960Y-69646435D01*
X57487980Y-69406344D01*
X57238952Y-69289244D01*
X56971865Y-69222977D01*
X56696983Y-69210090D01*
X56424867Y-69251078D01*
X56165977Y-69344364D01*
X56050020Y-69406344D01*
X55983040Y-69646435D01*
X54450010Y-69646435D01*
X54450010Y-64124408D01*
X55372000Y-64124408D01*
X55372000Y-64399592D01*
X55425686Y-64669490D01*
X55530995Y-64923727D01*
X55683880Y-65152535D01*
X55878465Y-65347120D01*
X56107273Y-65500005D01*
X56361510Y-65605314D01*
X56631408Y-65659000D01*
X56906592Y-65659000D01*
X57176490Y-65605314D01*
X57430727Y-65500005D01*
X57659535Y-65347120D01*
X57854120Y-65152535D01*
X58007005Y-64923727D01*
X58112314Y-64669490D01*
X58166000Y-64399592D01*
X58166000Y-64124408D01*
X58135372Y-63970429D01*
X58268746Y-63837055D01*
X58275764Y-63908309D01*
X58357818Y-64178808D01*
X58491068Y-64428101D01*
X58670392Y-64646608D01*
X58888899Y-64825932D01*
X59021858Y-64897000D01*
X58888899Y-64968068D01*
X58670392Y-65147392D01*
X58491068Y-65365899D01*
X58357818Y-65615192D01*
X58275764Y-65885691D01*
X58248057Y-66167000D01*
X58275764Y-66448309D01*
X58357818Y-66718808D01*
X58491068Y-66968101D01*
X58670392Y-67186608D01*
X58888899Y-67365932D01*
X59021858Y-67437000D01*
X58888899Y-67508068D01*
X58670392Y-67687392D01*
X58491068Y-67905899D01*
X58357818Y-68155192D01*
X58275764Y-68425691D01*
X58248057Y-68707000D01*
X58275764Y-68988309D01*
X58357818Y-69258808D01*
X58491068Y-69508101D01*
X58670392Y-69726608D01*
X58888899Y-69905932D01*
X59021858Y-69977000D01*
X58888899Y-70048068D01*
X58670392Y-70227392D01*
X58491068Y-70445899D01*
X58357818Y-70695192D01*
X58275764Y-70965691D01*
X58248057Y-71247000D01*
X58275764Y-71528309D01*
X58357818Y-71798808D01*
X58491068Y-72048101D01*
X58670392Y-72266608D01*
X58888899Y-72445932D01*
X59138192Y-72579182D01*
X59408691Y-72661236D01*
X59619508Y-72682000D01*
X59760492Y-72682000D01*
X59971309Y-72661236D01*
X60241808Y-72579182D01*
X60491101Y-72445932D01*
X60709608Y-72266608D01*
X60888932Y-72048101D01*
X61022182Y-71798808D01*
X61104236Y-71528309D01*
X61131943Y-71247000D01*
X61104236Y-70965691D01*
X61022182Y-70695192D01*
X60888932Y-70445899D01*
X60709608Y-70227392D01*
X60491101Y-70048068D01*
X60358142Y-69977000D01*
X60491101Y-69905932D01*
X60709608Y-69726608D01*
X60888932Y-69508101D01*
X61022182Y-69258808D01*
X61104236Y-68988309D01*
X61131943Y-68707000D01*
X61104236Y-68425691D01*
X61022182Y-68155192D01*
X60888932Y-67905899D01*
X60709608Y-67687392D01*
X60491101Y-67508068D01*
X60358142Y-67437000D01*
X60491101Y-67365932D01*
X60709608Y-67186608D01*
X60888932Y-66968101D01*
X61022182Y-66718808D01*
X61104236Y-66448309D01*
X61131943Y-66167000D01*
X61104236Y-65885691D01*
X61022182Y-65615192D01*
X60888932Y-65365899D01*
X60709608Y-65147392D01*
X60491101Y-64968068D01*
X60358142Y-64897000D01*
X60491101Y-64825932D01*
X60709608Y-64646608D01*
X60888932Y-64428101D01*
X61022182Y-64178808D01*
X61104236Y-63908309D01*
X61131943Y-63627000D01*
X61104236Y-63345691D01*
X61022182Y-63075192D01*
X60888932Y-62825899D01*
X60709608Y-62607392D01*
X60491101Y-62428068D01*
X60358142Y-62357000D01*
X60491101Y-62285932D01*
X60709608Y-62106608D01*
X60888932Y-61888101D01*
X61022182Y-61638808D01*
X61104236Y-61368309D01*
X61131943Y-61087000D01*
X61104236Y-60805691D01*
X61022182Y-60535192D01*
X60888932Y-60285899D01*
X60709608Y-60067392D01*
X60491101Y-59888068D01*
X60358142Y-59817000D01*
X60491101Y-59745932D01*
X60709608Y-59566608D01*
X60888932Y-59348101D01*
X61022182Y-59098808D01*
X61104236Y-58828309D01*
X61131943Y-58547000D01*
X61104236Y-58265691D01*
X61022182Y-57995192D01*
X60888932Y-57745899D01*
X60709608Y-57527392D01*
X60491101Y-57348068D01*
X60353318Y-57274421D01*
X60545131Y-57159385D01*
X60753519Y-56970414D01*
X60921037Y-56744420D01*
X61041246Y-56490087D01*
X61081904Y-56356039D01*
X60959915Y-56134000D01*
X59817000Y-56134000D01*
X59817000Y-56154000D01*
X59563000Y-56154000D01*
X59563000Y-56134000D01*
X58420085Y-56134000D01*
X58298096Y-56356039D01*
X58338754Y-56490087D01*
X58458963Y-56744420D01*
X58626481Y-56970414D01*
X58834869Y-57159385D01*
X59026682Y-57274421D01*
X58888899Y-57348068D01*
X58670392Y-57527392D01*
X58491068Y-57745899D01*
X58357818Y-57995192D01*
X58275764Y-58265691D01*
X58248057Y-58547000D01*
X58275764Y-58828309D01*
X58357818Y-59098808D01*
X58491068Y-59348101D01*
X58670392Y-59566608D01*
X58888899Y-59745932D01*
X59021858Y-59817000D01*
X58888899Y-59888068D01*
X58670392Y-60067392D01*
X58491068Y-60285899D01*
X58357818Y-60535192D01*
X58275764Y-60805691D01*
X58248057Y-61087000D01*
X58275764Y-61368309D01*
X58348409Y-61607790D01*
X57060571Y-62895628D01*
X56906592Y-62865000D01*
X56631408Y-62865000D01*
X56361510Y-62918686D01*
X56107273Y-63023995D01*
X55878465Y-63176880D01*
X55683880Y-63371465D01*
X55530995Y-63600273D01*
X55425686Y-63854510D01*
X55372000Y-64124408D01*
X54450010Y-64124408D01*
X54450010Y-57901408D01*
X55372000Y-57901408D01*
X55372000Y-58176592D01*
X55425686Y-58446490D01*
X55530995Y-58700727D01*
X55683880Y-58929535D01*
X55878465Y-59124120D01*
X56107273Y-59277005D01*
X56361510Y-59382314D01*
X56631408Y-59436000D01*
X56906592Y-59436000D01*
X57176490Y-59382314D01*
X57430727Y-59277005D01*
X57659535Y-59124120D01*
X57854120Y-58929535D01*
X58007005Y-58700727D01*
X58112314Y-58446490D01*
X58166000Y-58176592D01*
X58166000Y-57901408D01*
X58112314Y-57631510D01*
X58007005Y-57377273D01*
X57854120Y-57148465D01*
X57659535Y-56953880D01*
X57430727Y-56800995D01*
X57176490Y-56695686D01*
X56906592Y-56642000D01*
X56631408Y-56642000D01*
X56361510Y-56695686D01*
X56107273Y-56800995D01*
X55878465Y-56953880D01*
X55683880Y-57148465D01*
X55530995Y-57377273D01*
X55425686Y-57631510D01*
X55372000Y-57901408D01*
X54450010Y-57901408D01*
X54450010Y-53467000D01*
X58248057Y-53467000D01*
X58275764Y-53748309D01*
X58357818Y-54018808D01*
X58491068Y-54268101D01*
X58670392Y-54486608D01*
X58888899Y-54665932D01*
X59026682Y-54739579D01*
X58834869Y-54854615D01*
X58626481Y-55043586D01*
X58458963Y-55269580D01*
X58338754Y-55523913D01*
X58298096Y-55657961D01*
X58420085Y-55880000D01*
X59563000Y-55880000D01*
X59563000Y-55860000D01*
X59817000Y-55860000D01*
X59817000Y-55880000D01*
X60959915Y-55880000D01*
X61081904Y-55657961D01*
X61041246Y-55523913D01*
X60921037Y-55269580D01*
X60753519Y-55043586D01*
X60545131Y-54854615D01*
X60353318Y-54739579D01*
X60491101Y-54665932D01*
X60709608Y-54486608D01*
X60888932Y-54268101D01*
X61022182Y-54018808D01*
X61104236Y-53748309D01*
X61131943Y-53467000D01*
X61104236Y-53185691D01*
X61022182Y-52915192D01*
X60888932Y-52665899D01*
X60709608Y-52447392D01*
X60596518Y-52354581D01*
X60614482Y-52352812D01*
X60734180Y-52316502D01*
X60844494Y-52257537D01*
X60941185Y-52178185D01*
X61020537Y-52081494D01*
X61079502Y-51971180D01*
X61115812Y-51851482D01*
X61128072Y-51727000D01*
X61128072Y-50127000D01*
X61115812Y-50002518D01*
X61079502Y-49882820D01*
X61020537Y-49772506D01*
X60941185Y-49675815D01*
X60844494Y-49596463D01*
X60734180Y-49537498D01*
X60614482Y-49501188D01*
X60490000Y-49488928D01*
X58890000Y-49488928D01*
X58765518Y-49501188D01*
X58645820Y-49537498D01*
X58535506Y-49596463D01*
X58438815Y-49675815D01*
X58359463Y-49772506D01*
X58300498Y-49882820D01*
X58264188Y-50002518D01*
X58251928Y-50127000D01*
X58251928Y-51727000D01*
X58264188Y-51851482D01*
X58300498Y-51971180D01*
X58359463Y-52081494D01*
X58438815Y-52178185D01*
X58535506Y-52257537D01*
X58645820Y-52316502D01*
X58765518Y-52352812D01*
X58783482Y-52354581D01*
X58670392Y-52447392D01*
X58491068Y-52665899D01*
X58357818Y-52915192D01*
X58275764Y-53185691D01*
X58248057Y-53467000D01*
X54450010Y-53467000D01*
X54450010Y-52654565D01*
X55983040Y-52654565D01*
X56050020Y-52894656D01*
X56299048Y-53011756D01*
X56566135Y-53078023D01*
X56841017Y-53090910D01*
X57113133Y-53049922D01*
X57372023Y-52956636D01*
X57487980Y-52894656D01*
X57554960Y-52654565D01*
X56769000Y-51868605D01*
X55983040Y-52654565D01*
X54450010Y-52654565D01*
X54450010Y-51761017D01*
X55367090Y-51761017D01*
X55408078Y-52033133D01*
X55501364Y-52292023D01*
X55563344Y-52407980D01*
X55803435Y-52474960D01*
X56589395Y-51689000D01*
X56948605Y-51689000D01*
X57734565Y-52474960D01*
X57974656Y-52407980D01*
X58091756Y-52158952D01*
X58158023Y-51891865D01*
X58170910Y-51616983D01*
X58129922Y-51344867D01*
X58036636Y-51085977D01*
X57974656Y-50970020D01*
X57734565Y-50903040D01*
X56948605Y-51689000D01*
X56589395Y-51689000D01*
X55803435Y-50903040D01*
X55563344Y-50970020D01*
X55446244Y-51219048D01*
X55379977Y-51486135D01*
X55367090Y-51761017D01*
X54450010Y-51761017D01*
X54450010Y-50723435D01*
X55983040Y-50723435D01*
X56769000Y-51509395D01*
X57554960Y-50723435D01*
X57487980Y-50483344D01*
X57238952Y-50366244D01*
X56971865Y-50299977D01*
X56696983Y-50287090D01*
X56424867Y-50328078D01*
X56165977Y-50421364D01*
X56050020Y-50483344D01*
X55983040Y-50723435D01*
X54450010Y-50723435D01*
X54450010Y-49352565D01*
X62714040Y-49352565D01*
X62781020Y-49592656D01*
X63030048Y-49709756D01*
X63297135Y-49776023D01*
X63572017Y-49788910D01*
X63844133Y-49747922D01*
X64103023Y-49654636D01*
X64218980Y-49592656D01*
X64285960Y-49352565D01*
X63500000Y-48566605D01*
X62714040Y-49352565D01*
X54450010Y-49352565D01*
X54450010Y-48459017D01*
X62098090Y-48459017D01*
X62139078Y-48731133D01*
X62232364Y-48990023D01*
X62294344Y-49105980D01*
X62534435Y-49172960D01*
X63320395Y-48387000D01*
X63679605Y-48387000D01*
X64465565Y-49172960D01*
X64705656Y-49105980D01*
X64822756Y-48856952D01*
X64889023Y-48589865D01*
X64901910Y-48314983D01*
X64860922Y-48042867D01*
X64767636Y-47783977D01*
X64705656Y-47668020D01*
X64465565Y-47601040D01*
X63679605Y-48387000D01*
X63320395Y-48387000D01*
X62534435Y-47601040D01*
X62294344Y-47668020D01*
X62177244Y-47917048D01*
X62110977Y-48184135D01*
X62098090Y-48459017D01*
X54450010Y-48459017D01*
X54450010Y-47421435D01*
X62714040Y-47421435D01*
X63500000Y-48207395D01*
X64285960Y-47421435D01*
X64218980Y-47181344D01*
X63969952Y-47064244D01*
X63702865Y-46997977D01*
X63427983Y-46985090D01*
X63155867Y-47026078D01*
X62896977Y-47119364D01*
X62781020Y-47181344D01*
X62714040Y-47421435D01*
X54450010Y-47421435D01*
X54450010Y-40971789D01*
X59694061Y-35727739D01*
X59761068Y-35853101D01*
X59940392Y-36071608D01*
X60158899Y-36250932D01*
X60291858Y-36322000D01*
X60158899Y-36393068D01*
X59940392Y-36572392D01*
X59761068Y-36790899D01*
X59627818Y-37040192D01*
X59545764Y-37310691D01*
X59518057Y-37592000D01*
X59545764Y-37873309D01*
X59627818Y-38143808D01*
X59761068Y-38393101D01*
X59940392Y-38611608D01*
X60158899Y-38790932D01*
X60291858Y-38862000D01*
X60158899Y-38933068D01*
X59940392Y-39112392D01*
X59761068Y-39330899D01*
X59627818Y-39580192D01*
X59545764Y-39850691D01*
X59518057Y-40132000D01*
X59545764Y-40413309D01*
X59627818Y-40683808D01*
X59761068Y-40933101D01*
X59940392Y-41151608D01*
X60158899Y-41330932D01*
X60408192Y-41464182D01*
X60678691Y-41546236D01*
X60889508Y-41567000D01*
X61030492Y-41567000D01*
X61241309Y-41546236D01*
X61285906Y-41532708D01*
X65424999Y-45671802D01*
X65425000Y-59924667D01*
X65421323Y-59961999D01*
X65435997Y-60110984D01*
X65479453Y-60254245D01*
X65550025Y-60386275D01*
X65603986Y-60452026D01*
X65644999Y-60502000D01*
X65673997Y-60525798D01*
X65909292Y-60761093D01*
X65895764Y-60805691D01*
X65868057Y-61087000D01*
X65895764Y-61368309D01*
X65977818Y-61638808D01*
X66111068Y-61888101D01*
X66290392Y-62106608D01*
X66508899Y-62285932D01*
X66641858Y-62357000D01*
X66508899Y-62428068D01*
X66290392Y-62607392D01*
X66111068Y-62825899D01*
X65977818Y-63075192D01*
X65895764Y-63345691D01*
X65868057Y-63627000D01*
X65895764Y-63908309D01*
X65977818Y-64178808D01*
X66111068Y-64428101D01*
X66290392Y-64646608D01*
X66508899Y-64825932D01*
X66641858Y-64897000D01*
X66508899Y-64968068D01*
X66290392Y-65147392D01*
X66111068Y-65365899D01*
X65977818Y-65615192D01*
X65895764Y-65885691D01*
X65868057Y-66167000D01*
X65895764Y-66448309D01*
X65909292Y-66492906D01*
X62989003Y-69413196D01*
X62959999Y-69436999D01*
X62904871Y-69504174D01*
X62865026Y-69552724D01*
X62814936Y-69646435D01*
X62794454Y-69684754D01*
X62750997Y-69828015D01*
X62740000Y-69939668D01*
X62740000Y-69939678D01*
X62736324Y-69977000D01*
X62740000Y-70014323D01*
X62740001Y-72614659D01*
X62609465Y-72701880D01*
X62414880Y-72896465D01*
X62261995Y-73125273D01*
X62156686Y-73379510D01*
X62103000Y-73649408D01*
X62103000Y-73924592D01*
X62156686Y-74194490D01*
X62261995Y-74448727D01*
X62414880Y-74677535D01*
X62609465Y-74872120D01*
X62838273Y-75025005D01*
X63092510Y-75130314D01*
X63362408Y-75184000D01*
X63637592Y-75184000D01*
X63791571Y-75153372D01*
X66550000Y-77911802D01*
X66550001Y-89243668D01*
X66546324Y-89281000D01*
X66560998Y-89429985D01*
X66604454Y-89573246D01*
X66675026Y-89705276D01*
X66746201Y-89792002D01*
X66770000Y-89821001D01*
X66798998Y-89844799D01*
X69408346Y-92454148D01*
X69384000Y-92576544D01*
X69384000Y-92843456D01*
X69436072Y-93105239D01*
X69538215Y-93351833D01*
X69686503Y-93573762D01*
X69875238Y-93762497D01*
X70097167Y-93910785D01*
X70264266Y-93980000D01*
X70097167Y-94049215D01*
X69875238Y-94197503D01*
X69686503Y-94386238D01*
X69538215Y-94608167D01*
X69436072Y-94854761D01*
X69384000Y-95116544D01*
X69384000Y-95383456D01*
X69436072Y-95645239D01*
X69538215Y-95891833D01*
X69686503Y-96113762D01*
X69875238Y-96302497D01*
X70097167Y-96450785D01*
X70264266Y-96520000D01*
X70097167Y-96589215D01*
X69875238Y-96737503D01*
X69686503Y-96926238D01*
X69538215Y-97148167D01*
X69458769Y-97339967D01*
X67909072Y-95790271D01*
X67909072Y-94527000D01*
X67896812Y-94402518D01*
X67860502Y-94282820D01*
X67801537Y-94172506D01*
X67722185Y-94075815D01*
X67625494Y-93996463D01*
X67515180Y-93937498D01*
X67395482Y-93901188D01*
X67271000Y-93888928D01*
X65571000Y-93888928D01*
X65446518Y-93901188D01*
X65326820Y-93937498D01*
X65216506Y-93996463D01*
X65119815Y-94075815D01*
X65040463Y-94172506D01*
X64981498Y-94282820D01*
X64945188Y-94402518D01*
X64932928Y-94527000D01*
X64932928Y-96227000D01*
X64945188Y-96351482D01*
X64981498Y-96471180D01*
X65040463Y-96581494D01*
X65119815Y-96678185D01*
X65216506Y-96757537D01*
X65326820Y-96816502D01*
X65395687Y-96837393D01*
X65365866Y-96861866D01*
X65180294Y-97087986D01*
X65042401Y-97345966D01*
X64957487Y-97625889D01*
X64928815Y-97917000D01*
X64957487Y-98208111D01*
X65042401Y-98488034D01*
X65180294Y-98746014D01*
X65365866Y-98972134D01*
X65591986Y-99157706D01*
X65656523Y-99192201D01*
X65539645Y-99261822D01*
X65323412Y-99456731D01*
X65149359Y-99690080D01*
X65024175Y-99952901D01*
X64979524Y-100100110D01*
X65100845Y-100330000D01*
X66294000Y-100330000D01*
X66294000Y-100310000D01*
X66548000Y-100310000D01*
X66548000Y-100330000D01*
X67741155Y-100330000D01*
X67862476Y-100100110D01*
X67817825Y-99952901D01*
X67692641Y-99690080D01*
X67518588Y-99456731D01*
X67302355Y-99261822D01*
X67185477Y-99192201D01*
X67250014Y-99157706D01*
X67476134Y-98972134D01*
X67661706Y-98746014D01*
X67799599Y-98488034D01*
X67884513Y-98208111D01*
X67910765Y-97941567D01*
X69315202Y-99346004D01*
X69339000Y-99375002D01*
X69367998Y-99398800D01*
X69454724Y-99469975D01*
X69586754Y-99540547D01*
X69730015Y-99584004D01*
X69841668Y-99595001D01*
X69841678Y-99595001D01*
X69879001Y-99598677D01*
X69916324Y-99595001D01*
X71203279Y-99595001D01*
X71240601Y-99598677D01*
X71277923Y-99595001D01*
X71277934Y-99595001D01*
X71389587Y-99584004D01*
X71532848Y-99540547D01*
X71664877Y-99469975D01*
X71780602Y-99375002D01*
X71804404Y-99345999D01*
X72295003Y-98855401D01*
X72324002Y-98831602D01*
X72418975Y-98715877D01*
X72489547Y-98583848D01*
X72533004Y-98440587D01*
X72544001Y-98328934D01*
X72544001Y-98328926D01*
X72547677Y-98291601D01*
X72544001Y-98254276D01*
X72544001Y-64201334D01*
X72547678Y-64164001D01*
X72533004Y-64015015D01*
X72489547Y-63871754D01*
X72418975Y-63739725D01*
X72347800Y-63652998D01*
X72324002Y-63624000D01*
X72295005Y-63600203D01*
X69270804Y-60576003D01*
X69247001Y-60546999D01*
X69131276Y-60452026D01*
X68999247Y-60381454D01*
X68855986Y-60337997D01*
X68744333Y-60327000D01*
X68744322Y-60327000D01*
X68707000Y-60323324D01*
X68669678Y-60327000D01*
X68530901Y-60327000D01*
X68508932Y-60285899D01*
X68329608Y-60067392D01*
X68111101Y-59888068D01*
X67978142Y-59817000D01*
X68111101Y-59745932D01*
X68329608Y-59566608D01*
X68508932Y-59348101D01*
X68642182Y-59098808D01*
X68724236Y-58828309D01*
X68751943Y-58547000D01*
X68749402Y-58521204D01*
X68778201Y-58550003D01*
X68801999Y-58579001D01*
X68830997Y-58602799D01*
X68917723Y-58673974D01*
X69007007Y-58721698D01*
X69145880Y-58929535D01*
X69340465Y-59124120D01*
X69569273Y-59277005D01*
X69823510Y-59382314D01*
X70093408Y-59436000D01*
X70368592Y-59436000D01*
X70638490Y-59382314D01*
X70892727Y-59277005D01*
X71121535Y-59124120D01*
X71316120Y-58929535D01*
X71469005Y-58700727D01*
X71574314Y-58446490D01*
X71628000Y-58176592D01*
X71628000Y-57901408D01*
X71574314Y-57631510D01*
X71469005Y-57377273D01*
X71316120Y-57148465D01*
X71121535Y-56953880D01*
X70892727Y-56800995D01*
X70638490Y-56695686D01*
X70368592Y-56642000D01*
X70093408Y-56642000D01*
X69823510Y-56695686D01*
X69569273Y-56800995D01*
X69340465Y-56953880D01*
X69336073Y-56958272D01*
X68710708Y-56332906D01*
X68724236Y-56288309D01*
X68751943Y-56007000D01*
X68724236Y-55725691D01*
X68642182Y-55455192D01*
X68508932Y-55205899D01*
X68329608Y-54987392D01*
X68111101Y-54808068D01*
X67978142Y-54737000D01*
X68111101Y-54665932D01*
X68329608Y-54486608D01*
X68508932Y-54268101D01*
X68642182Y-54018808D01*
X68724236Y-53748309D01*
X68751943Y-53467000D01*
X68724236Y-53185691D01*
X68642182Y-52915192D01*
X68508932Y-52665899D01*
X68499631Y-52654565D01*
X69445040Y-52654565D01*
X69512020Y-52894656D01*
X69761048Y-53011756D01*
X70028135Y-53078023D01*
X70303017Y-53090910D01*
X70575133Y-53049922D01*
X70834023Y-52956636D01*
X70949980Y-52894656D01*
X71016960Y-52654565D01*
X70231000Y-51868605D01*
X69445040Y-52654565D01*
X68499631Y-52654565D01*
X68329608Y-52447392D01*
X68111101Y-52268068D01*
X67978142Y-52197000D01*
X68111101Y-52125932D01*
X68329608Y-51946608D01*
X68481918Y-51761017D01*
X68829090Y-51761017D01*
X68870078Y-52033133D01*
X68963364Y-52292023D01*
X69025344Y-52407980D01*
X69265435Y-52474960D01*
X70051395Y-51689000D01*
X70410605Y-51689000D01*
X71196565Y-52474960D01*
X71436656Y-52407980D01*
X71553756Y-52158952D01*
X71620023Y-51891865D01*
X71632910Y-51616983D01*
X71591922Y-51344867D01*
X71498636Y-51085977D01*
X71436656Y-50970020D01*
X71196565Y-50903040D01*
X70410605Y-51689000D01*
X70051395Y-51689000D01*
X69265435Y-50903040D01*
X69025344Y-50970020D01*
X68908244Y-51219048D01*
X68841977Y-51486135D01*
X68829090Y-51761017D01*
X68481918Y-51761017D01*
X68508932Y-51728101D01*
X68642182Y-51478808D01*
X68724236Y-51208309D01*
X68751943Y-50927000D01*
X68731894Y-50723435D01*
X69445040Y-50723435D01*
X70231000Y-51509395D01*
X71016960Y-50723435D01*
X70949980Y-50483344D01*
X70700952Y-50366244D01*
X70433865Y-50299977D01*
X70158983Y-50287090D01*
X69886867Y-50328078D01*
X69627977Y-50421364D01*
X69512020Y-50483344D01*
X69445040Y-50723435D01*
X68731894Y-50723435D01*
X68724236Y-50645691D01*
X68642182Y-50375192D01*
X68508932Y-50125899D01*
X68329608Y-49907392D01*
X68111101Y-49728068D01*
X67861808Y-49594818D01*
X67591309Y-49512764D01*
X67380492Y-49492000D01*
X67239508Y-49492000D01*
X67028691Y-49512764D01*
X66944999Y-49538151D01*
X66944999Y-45394321D01*
X66948675Y-45356998D01*
X66944999Y-45319675D01*
X66944999Y-45319666D01*
X66934002Y-45208013D01*
X66890545Y-45064752D01*
X66819973Y-44932723D01*
X66806810Y-44916684D01*
X66748798Y-44845995D01*
X66748794Y-44845991D01*
X66725000Y-44816998D01*
X66696008Y-44793205D01*
X62360708Y-40457906D01*
X62374236Y-40413309D01*
X62401943Y-40132000D01*
X62374236Y-39850691D01*
X62292182Y-39580192D01*
X62158932Y-39330899D01*
X61979608Y-39112392D01*
X61761101Y-38933068D01*
X61628142Y-38862000D01*
X61761101Y-38790932D01*
X61979608Y-38611608D01*
X62158932Y-38393101D01*
X62292182Y-38143808D01*
X62374236Y-37873309D01*
X62401943Y-37592000D01*
X67138057Y-37592000D01*
X67165764Y-37873309D01*
X67247818Y-38143808D01*
X67381068Y-38393101D01*
X67560392Y-38611608D01*
X67673482Y-38704419D01*
X67655518Y-38706188D01*
X67535820Y-38742498D01*
X67425506Y-38801463D01*
X67328815Y-38880815D01*
X67249463Y-38977506D01*
X67190498Y-39087820D01*
X67154188Y-39207518D01*
X67141928Y-39332000D01*
X67141928Y-40932000D01*
X67154188Y-41056482D01*
X67190498Y-41176180D01*
X67249463Y-41286494D01*
X67328815Y-41383185D01*
X67425506Y-41462537D01*
X67535820Y-41521502D01*
X67655518Y-41557812D01*
X67780000Y-41570072D01*
X69380000Y-41570072D01*
X69504482Y-41557812D01*
X69624180Y-41521502D01*
X69734494Y-41462537D01*
X69831185Y-41383185D01*
X69910537Y-41286494D01*
X69969502Y-41176180D01*
X70005812Y-41056482D01*
X70018072Y-40932000D01*
X70018072Y-39332000D01*
X70005812Y-39207518D01*
X69969502Y-39087820D01*
X69910537Y-38977506D01*
X69831185Y-38880815D01*
X69734494Y-38801463D01*
X69624180Y-38742498D01*
X69504482Y-38706188D01*
X69486518Y-38704419D01*
X69599608Y-38611608D01*
X69778932Y-38393101D01*
X69912182Y-38143808D01*
X69994236Y-37873309D01*
X70021943Y-37592000D01*
X69994236Y-37310691D01*
X69912182Y-37040192D01*
X69778932Y-36790899D01*
X69599608Y-36572392D01*
X69381101Y-36393068D01*
X69243318Y-36319421D01*
X69435131Y-36204385D01*
X69643519Y-36015414D01*
X69811037Y-35789420D01*
X69931246Y-35535087D01*
X69971904Y-35401039D01*
X69849915Y-35179000D01*
X68707000Y-35179000D01*
X68707000Y-35199000D01*
X68453000Y-35199000D01*
X68453000Y-35179000D01*
X67310085Y-35179000D01*
X67188096Y-35401039D01*
X67228754Y-35535087D01*
X67348963Y-35789420D01*
X67516481Y-36015414D01*
X67724869Y-36204385D01*
X67916682Y-36319421D01*
X67778899Y-36393068D01*
X67560392Y-36572392D01*
X67381068Y-36790899D01*
X67247818Y-37040192D01*
X67165764Y-37310691D01*
X67138057Y-37592000D01*
X62401943Y-37592000D01*
X62374236Y-37310691D01*
X62292182Y-37040192D01*
X62158932Y-36790899D01*
X61979608Y-36572392D01*
X61761101Y-36393068D01*
X61628142Y-36322000D01*
X61761101Y-36250932D01*
X61979608Y-36071608D01*
X62158932Y-35853101D01*
X62292182Y-35603808D01*
X62374236Y-35333309D01*
X62401943Y-35052000D01*
X62374236Y-34770691D01*
X62348849Y-34686999D01*
X67127679Y-34686999D01*
X67165001Y-34690675D01*
X67192648Y-34687952D01*
X67188096Y-34702961D01*
X67310085Y-34925000D01*
X68453000Y-34925000D01*
X68453000Y-34905000D01*
X68707000Y-34905000D01*
X68707000Y-34925000D01*
X69849915Y-34925000D01*
X69971904Y-34702961D01*
X69931246Y-34568913D01*
X69811037Y-34314580D01*
X69643519Y-34088586D01*
X69435131Y-33899615D01*
X69243318Y-33784579D01*
X69381101Y-33710932D01*
X69599608Y-33531608D01*
X69778932Y-33313101D01*
X69854827Y-33171110D01*
X70186524Y-33171110D01*
X70307845Y-33401000D01*
X71501000Y-33401000D01*
X71501000Y-32207186D01*
X71271109Y-32086519D01*
X70996748Y-32183843D01*
X70746645Y-32332822D01*
X70530412Y-32527731D01*
X70356359Y-32761080D01*
X70231175Y-33023901D01*
X70186524Y-33171110D01*
X69854827Y-33171110D01*
X69912182Y-33063808D01*
X69994236Y-32793309D01*
X70021943Y-32512000D01*
X69994236Y-32230691D01*
X69912182Y-31960192D01*
X69778932Y-31710899D01*
X69599608Y-31492392D01*
X69381101Y-31313068D01*
X69131808Y-31179818D01*
X68861309Y-31097764D01*
X68650492Y-31077000D01*
X68509508Y-31077000D01*
X68298691Y-31097764D01*
X68028192Y-31179818D01*
X67778899Y-31313068D01*
X67560392Y-31492392D01*
X67381068Y-31710899D01*
X67247818Y-31960192D01*
X67165764Y-32230691D01*
X67138057Y-32512000D01*
X67165764Y-32793309D01*
X67179292Y-32837906D01*
X66850200Y-33166999D01*
X62229993Y-33166999D01*
X62311246Y-32995087D01*
X62351904Y-32861039D01*
X62229915Y-32639000D01*
X61087000Y-32639000D01*
X61087000Y-32659000D01*
X60833000Y-32659000D01*
X60833000Y-32639000D01*
X59690085Y-32639000D01*
X59568096Y-32861039D01*
X59608754Y-32995087D01*
X59728963Y-33249420D01*
X59854039Y-33418157D01*
X54000000Y-39272197D01*
X54000000Y-32162961D01*
X59568096Y-32162961D01*
X59690085Y-32385000D01*
X60833000Y-32385000D01*
X60833000Y-31241376D01*
X61087000Y-31241376D01*
X61087000Y-32385000D01*
X62229915Y-32385000D01*
X62351904Y-32162961D01*
X62311246Y-32028913D01*
X62191037Y-31774580D01*
X62023519Y-31548586D01*
X61815131Y-31359615D01*
X61573881Y-31214930D01*
X61309040Y-31120091D01*
X61087000Y-31241376D01*
X60833000Y-31241376D01*
X60610960Y-31120091D01*
X60346119Y-31214930D01*
X60104869Y-31359615D01*
X59896481Y-31548586D01*
X59728963Y-31774580D01*
X59608754Y-32028913D01*
X59568096Y-32162961D01*
X54000000Y-32162961D01*
X54000000Y-29149274D01*
X54143962Y-29364729D01*
X54455271Y-29676038D01*
X54821331Y-29920631D01*
X55228075Y-30089110D01*
X55659872Y-30175000D01*
X56100128Y-30175000D01*
X56531925Y-30089110D01*
X56938669Y-29920631D01*
X57304729Y-29676038D01*
X57616038Y-29364729D01*
X57860631Y-28998669D01*
X58029110Y-28591925D01*
X58115000Y-28160128D01*
X58115000Y-27725000D01*
X58201928Y-27725000D01*
X58201928Y-29425000D01*
X58214188Y-29549482D01*
X58250498Y-29669180D01*
X58309463Y-29779494D01*
X58388815Y-29876185D01*
X58485506Y-29955537D01*
X58595820Y-30014502D01*
X58715518Y-30050812D01*
X58840000Y-30063072D01*
X60540000Y-30063072D01*
X60664482Y-30050812D01*
X60784180Y-30014502D01*
X60894494Y-29955537D01*
X60991185Y-29876185D01*
X61070537Y-29779494D01*
X61129502Y-29669180D01*
X61150393Y-29600313D01*
X61174866Y-29630134D01*
X61400986Y-29815706D01*
X61658966Y-29953599D01*
X61938889Y-30038513D01*
X62157050Y-30060000D01*
X62302950Y-30060000D01*
X62521111Y-30038513D01*
X62801034Y-29953599D01*
X63059014Y-29815706D01*
X63285134Y-29630134D01*
X63470706Y-29404014D01*
X63500000Y-29349209D01*
X63529294Y-29404014D01*
X63714866Y-29630134D01*
X63940986Y-29815706D01*
X64198966Y-29953599D01*
X64478889Y-30038513D01*
X64697050Y-30060000D01*
X64842950Y-30060000D01*
X65061111Y-30038513D01*
X65341034Y-29953599D01*
X65599014Y-29815706D01*
X65825134Y-29630134D01*
X66010706Y-29404014D01*
X66045201Y-29339477D01*
X66114822Y-29456355D01*
X66309731Y-29672588D01*
X66543080Y-29846641D01*
X66805901Y-29971825D01*
X66953110Y-30016476D01*
X67183000Y-29895155D01*
X67183000Y-28702000D01*
X67437000Y-28702000D01*
X67437000Y-29895155D01*
X67666890Y-30016476D01*
X67814099Y-29971825D01*
X68076920Y-29846641D01*
X68310269Y-29672588D01*
X68505178Y-29456355D01*
X68654157Y-29206252D01*
X68751481Y-28931891D01*
X68630814Y-28702000D01*
X67437000Y-28702000D01*
X67183000Y-28702000D01*
X67163000Y-28702000D01*
X67163000Y-28448000D01*
X67183000Y-28448000D01*
X67183000Y-27254845D01*
X67437000Y-27254845D01*
X67437000Y-28448000D01*
X68630814Y-28448000D01*
X68751481Y-28218109D01*
X68654157Y-27943748D01*
X68505178Y-27693645D01*
X68310269Y-27477412D01*
X68076920Y-27303359D01*
X67814099Y-27178175D01*
X67666890Y-27133524D01*
X67437000Y-27254845D01*
X67183000Y-27254845D01*
X66953110Y-27133524D01*
X66805901Y-27178175D01*
X66543080Y-27303359D01*
X66309731Y-27477412D01*
X66114822Y-27693645D01*
X66045201Y-27810523D01*
X66010706Y-27745986D01*
X65825134Y-27519866D01*
X65599014Y-27334294D01*
X65341034Y-27196401D01*
X65061111Y-27111487D01*
X64842950Y-27090000D01*
X64697050Y-27090000D01*
X64478889Y-27111487D01*
X64198966Y-27196401D01*
X63940986Y-27334294D01*
X63714866Y-27519866D01*
X63529294Y-27745986D01*
X63500000Y-27800791D01*
X63470706Y-27745986D01*
X63285134Y-27519866D01*
X63059014Y-27334294D01*
X62801034Y-27196401D01*
X62521111Y-27111487D01*
X62302950Y-27090000D01*
X62157050Y-27090000D01*
X61938889Y-27111487D01*
X61658966Y-27196401D01*
X61400986Y-27334294D01*
X61174866Y-27519866D01*
X61150393Y-27549687D01*
X61129502Y-27480820D01*
X61070537Y-27370506D01*
X60991185Y-27273815D01*
X60894494Y-27194463D01*
X60784180Y-27135498D01*
X60664482Y-27099188D01*
X60540000Y-27086928D01*
X58840000Y-27086928D01*
X58715518Y-27099188D01*
X58595820Y-27135498D01*
X58485506Y-27194463D01*
X58388815Y-27273815D01*
X58309463Y-27370506D01*
X58250498Y-27480820D01*
X58214188Y-27600518D01*
X58201928Y-27725000D01*
X58115000Y-27725000D01*
X58115000Y-27719872D01*
X58029110Y-27288075D01*
X57860631Y-26881331D01*
X57616038Y-26515271D01*
X57304729Y-26203962D01*
X57089274Y-26060000D01*
X69910726Y-26060000D01*
X69695271Y-26203962D01*
G36*
X71024001Y-69639391D02*
G01*
X71016959Y-69646433D01*
X70949980Y-69406344D01*
X70700952Y-69289244D01*
X70433865Y-69222977D01*
X70158983Y-69210090D01*
X69886867Y-69251078D01*
X69627977Y-69344364D01*
X69512020Y-69406344D01*
X69445040Y-69646435D01*
X70231000Y-70432395D01*
X70245143Y-70418253D01*
X70424748Y-70597858D01*
X70410605Y-70612000D01*
X70424748Y-70626143D01*
X70245143Y-70805748D01*
X70231000Y-70791605D01*
X69445040Y-71577565D01*
X69512020Y-71817656D01*
X69761048Y-71934756D01*
X70028135Y-72001023D01*
X70303017Y-72013910D01*
X70575133Y-71972922D01*
X70834023Y-71879636D01*
X70949980Y-71817656D01*
X71016959Y-71577567D01*
X71024001Y-71584609D01*
X71024001Y-76047015D01*
X71007239Y-76040072D01*
X70745456Y-75988000D01*
X70478544Y-75988000D01*
X70216761Y-76040072D01*
X69970167Y-76142215D01*
X69748238Y-76290503D01*
X69559503Y-76479238D01*
X69411215Y-76701167D01*
X69309072Y-76947761D01*
X69257000Y-77209544D01*
X69257000Y-77476456D01*
X69309072Y-77738239D01*
X69411215Y-77984833D01*
X69559503Y-78206762D01*
X69748238Y-78395497D01*
X69970167Y-78543785D01*
X70137266Y-78613000D01*
X69970167Y-78682215D01*
X69748238Y-78830503D01*
X69559503Y-79019238D01*
X69411215Y-79241167D01*
X69309072Y-79487761D01*
X69257000Y-79749544D01*
X69257000Y-80016456D01*
X69309072Y-80278239D01*
X69411215Y-80524833D01*
X69559503Y-80746762D01*
X69748238Y-80935497D01*
X69970167Y-81083785D01*
X70137266Y-81153000D01*
X69970167Y-81222215D01*
X69748238Y-81370503D01*
X69559503Y-81559238D01*
X69411215Y-81781167D01*
X69309072Y-82027761D01*
X69257000Y-82289544D01*
X69257000Y-82556456D01*
X69309072Y-82818239D01*
X69411215Y-83064833D01*
X69559503Y-83286762D01*
X69748238Y-83475497D01*
X69970167Y-83623785D01*
X70216761Y-83725928D01*
X70478544Y-83778000D01*
X70745456Y-83778000D01*
X71007239Y-83725928D01*
X71024002Y-83718985D01*
X71024002Y-91385144D01*
X70872456Y-91355000D01*
X70605544Y-91355000D01*
X70483148Y-91379346D01*
X68070000Y-88966199D01*
X68070000Y-77634325D01*
X68073676Y-77597000D01*
X68070000Y-77559675D01*
X68070000Y-77559667D01*
X68059003Y-77448014D01*
X68015546Y-77304753D01*
X67944974Y-77172724D01*
X67850001Y-77056999D01*
X67821004Y-77033202D01*
X64866372Y-74078571D01*
X64897000Y-73924592D01*
X64897000Y-73649408D01*
X64843314Y-73379510D01*
X64738005Y-73125273D01*
X64585120Y-72896465D01*
X64390535Y-72701880D01*
X64260000Y-72614659D01*
X64260000Y-70291801D01*
X65870598Y-68681204D01*
X65868057Y-68707000D01*
X65895764Y-68988309D01*
X65977818Y-69258808D01*
X66111068Y-69508101D01*
X66290392Y-69726608D01*
X66508899Y-69905932D01*
X66641858Y-69977000D01*
X66508899Y-70048068D01*
X66290392Y-70227392D01*
X66111068Y-70445899D01*
X65977818Y-70695192D01*
X65895764Y-70965691D01*
X65868057Y-71247000D01*
X65895764Y-71528309D01*
X65977818Y-71798808D01*
X66111068Y-72048101D01*
X66290392Y-72266608D01*
X66508899Y-72445932D01*
X66758192Y-72579182D01*
X67028691Y-72661236D01*
X67239508Y-72682000D01*
X67380492Y-72682000D01*
X67591309Y-72661236D01*
X67861808Y-72579182D01*
X68111101Y-72445932D01*
X68329608Y-72266608D01*
X68508932Y-72048101D01*
X68642182Y-71798808D01*
X68724236Y-71528309D01*
X68751943Y-71247000D01*
X68724236Y-70965691D01*
X68642182Y-70695192D01*
X68636209Y-70684017D01*
X68829090Y-70684017D01*
X68870078Y-70956133D01*
X68963364Y-71215023D01*
X69025344Y-71330980D01*
X69265435Y-71397960D01*
X70051395Y-70612000D01*
X69265435Y-69826040D01*
X69025344Y-69893020D01*
X68908244Y-70142048D01*
X68841977Y-70409135D01*
X68829090Y-70684017D01*
X68636209Y-70684017D01*
X68508932Y-70445899D01*
X68329608Y-70227392D01*
X68111101Y-70048068D01*
X67978142Y-69977000D01*
X68111101Y-69905932D01*
X68329608Y-69726608D01*
X68508932Y-69508101D01*
X68642182Y-69258808D01*
X68724236Y-68988309D01*
X68751943Y-68707000D01*
X68724236Y-68425691D01*
X68710708Y-68381094D01*
X70742004Y-66349798D01*
X70771001Y-66326001D01*
X70865974Y-66210276D01*
X70936546Y-66078247D01*
X70980003Y-65934986D01*
X70991000Y-65823333D01*
X70991000Y-65823323D01*
X70994676Y-65786000D01*
X70991000Y-65748677D01*
X70991000Y-65434341D01*
X71024001Y-65412290D01*
X71024001Y-69639391D01*
X71024001Y-69639391D01*
G37*
X71024001Y-69639391D02*
X71016959Y-69646433D01*
X70949980Y-69406344D01*
X70700952Y-69289244D01*
X70433865Y-69222977D01*
X70158983Y-69210090D01*
X69886867Y-69251078D01*
X69627977Y-69344364D01*
X69512020Y-69406344D01*
X69445040Y-69646435D01*
X70231000Y-70432395D01*
X70245143Y-70418253D01*
X70424748Y-70597858D01*
X70410605Y-70612000D01*
X70424748Y-70626143D01*
X70245143Y-70805748D01*
X70231000Y-70791605D01*
X69445040Y-71577565D01*
X69512020Y-71817656D01*
X69761048Y-71934756D01*
X70028135Y-72001023D01*
X70303017Y-72013910D01*
X70575133Y-71972922D01*
X70834023Y-71879636D01*
X70949980Y-71817656D01*
X71016959Y-71577567D01*
X71024001Y-71584609D01*
X71024001Y-76047015D01*
X71007239Y-76040072D01*
X70745456Y-75988000D01*
X70478544Y-75988000D01*
X70216761Y-76040072D01*
X69970167Y-76142215D01*
X69748238Y-76290503D01*
X69559503Y-76479238D01*
X69411215Y-76701167D01*
X69309072Y-76947761D01*
X69257000Y-77209544D01*
X69257000Y-77476456D01*
X69309072Y-77738239D01*
X69411215Y-77984833D01*
X69559503Y-78206762D01*
X69748238Y-78395497D01*
X69970167Y-78543785D01*
X70137266Y-78613000D01*
X69970167Y-78682215D01*
X69748238Y-78830503D01*
X69559503Y-79019238D01*
X69411215Y-79241167D01*
X69309072Y-79487761D01*
X69257000Y-79749544D01*
X69257000Y-80016456D01*
X69309072Y-80278239D01*
X69411215Y-80524833D01*
X69559503Y-80746762D01*
X69748238Y-80935497D01*
X69970167Y-81083785D01*
X70137266Y-81153000D01*
X69970167Y-81222215D01*
X69748238Y-81370503D01*
X69559503Y-81559238D01*
X69411215Y-81781167D01*
X69309072Y-82027761D01*
X69257000Y-82289544D01*
X69257000Y-82556456D01*
X69309072Y-82818239D01*
X69411215Y-83064833D01*
X69559503Y-83286762D01*
X69748238Y-83475497D01*
X69970167Y-83623785D01*
X70216761Y-83725928D01*
X70478544Y-83778000D01*
X70745456Y-83778000D01*
X71007239Y-83725928D01*
X71024002Y-83718985D01*
X71024002Y-91385144D01*
X70872456Y-91355000D01*
X70605544Y-91355000D01*
X70483148Y-91379346D01*
X68070000Y-88966199D01*
X68070000Y-77634325D01*
X68073676Y-77597000D01*
X68070000Y-77559675D01*
X68070000Y-77559667D01*
X68059003Y-77448014D01*
X68015546Y-77304753D01*
X67944974Y-77172724D01*
X67850001Y-77056999D01*
X67821004Y-77033202D01*
X64866372Y-74078571D01*
X64897000Y-73924592D01*
X64897000Y-73649408D01*
X64843314Y-73379510D01*
X64738005Y-73125273D01*
X64585120Y-72896465D01*
X64390535Y-72701880D01*
X64260000Y-72614659D01*
X64260000Y-70291801D01*
X65870598Y-68681204D01*
X65868057Y-68707000D01*
X65895764Y-68988309D01*
X65977818Y-69258808D01*
X66111068Y-69508101D01*
X66290392Y-69726608D01*
X66508899Y-69905932D01*
X66641858Y-69977000D01*
X66508899Y-70048068D01*
X66290392Y-70227392D01*
X66111068Y-70445899D01*
X65977818Y-70695192D01*
X65895764Y-70965691D01*
X65868057Y-71247000D01*
X65895764Y-71528309D01*
X65977818Y-71798808D01*
X66111068Y-72048101D01*
X66290392Y-72266608D01*
X66508899Y-72445932D01*
X66758192Y-72579182D01*
X67028691Y-72661236D01*
X67239508Y-72682000D01*
X67380492Y-72682000D01*
X67591309Y-72661236D01*
X67861808Y-72579182D01*
X68111101Y-72445932D01*
X68329608Y-72266608D01*
X68508932Y-72048101D01*
X68642182Y-71798808D01*
X68724236Y-71528309D01*
X68751943Y-71247000D01*
X68724236Y-70965691D01*
X68642182Y-70695192D01*
X68636209Y-70684017D01*
X68829090Y-70684017D01*
X68870078Y-70956133D01*
X68963364Y-71215023D01*
X69025344Y-71330980D01*
X69265435Y-71397960D01*
X70051395Y-70612000D01*
X69265435Y-69826040D01*
X69025344Y-69893020D01*
X68908244Y-70142048D01*
X68841977Y-70409135D01*
X68829090Y-70684017D01*
X68636209Y-70684017D01*
X68508932Y-70445899D01*
X68329608Y-70227392D01*
X68111101Y-70048068D01*
X67978142Y-69977000D01*
X68111101Y-69905932D01*
X68329608Y-69726608D01*
X68508932Y-69508101D01*
X68642182Y-69258808D01*
X68724236Y-68988309D01*
X68751943Y-68707000D01*
X68724236Y-68425691D01*
X68710708Y-68381094D01*
X70742004Y-66349798D01*
X70771001Y-66326001D01*
X70865974Y-66210276D01*
X70936546Y-66078247D01*
X70980003Y-65934986D01*
X70991000Y-65823333D01*
X70991000Y-65823323D01*
X70994676Y-65786000D01*
X70991000Y-65748677D01*
X70991000Y-65434341D01*
X71024001Y-65412290D01*
X71024001Y-69639391D01*
M02*
