G04 #@! TF.GenerationSoftware,KiCad,Pcbnew,(5.1.2-1)-1*
G04 #@! TF.CreationDate,2019-08-21T11:01:54-07:00*
G04 #@! TF.ProjectId,AS3320_VCF,41533333-3230-45f5-9643-462e6b696361,rev?*
G04 #@! TF.SameCoordinates,Original*
G04 #@! TF.FileFunction,Legend,Top*
G04 #@! TF.FilePolarity,Positive*
%FSLAX46Y46*%
G04 Gerber Fmt 4.6, Leading zero omitted, Abs format (unit mm)*
G04 Created by KiCad (PCBNEW (5.1.2-1)-1) date 2019-08-21 11:01:54*
%MOMM*%
%LPD*%
G04 APERTURE LIST*
%ADD10C,0.150000*%
%ADD11C,0.120000*%
G04 APERTURE END LIST*
D10*
X72937619Y-107942857D02*
X71937619Y-108276190D01*
X72937619Y-108609523D01*
X72032857Y-109514285D02*
X71985238Y-109466666D01*
X71937619Y-109323809D01*
X71937619Y-109228571D01*
X71985238Y-109085714D01*
X72080476Y-108990476D01*
X72175714Y-108942857D01*
X72366190Y-108895238D01*
X72509047Y-108895238D01*
X72699523Y-108942857D01*
X72794761Y-108990476D01*
X72890000Y-109085714D01*
X72937619Y-109228571D01*
X72937619Y-109323809D01*
X72890000Y-109466666D01*
X72842380Y-109514285D01*
X72461428Y-110276190D02*
X72461428Y-109942857D01*
X71937619Y-109942857D02*
X72937619Y-109942857D01*
X72937619Y-110419047D01*
X72461428Y-111895238D02*
X72413809Y-112038095D01*
X72366190Y-112085714D01*
X72270952Y-112133333D01*
X72128095Y-112133333D01*
X72032857Y-112085714D01*
X71985238Y-112038095D01*
X71937619Y-111942857D01*
X71937619Y-111561904D01*
X72937619Y-111561904D01*
X72937619Y-111895238D01*
X72890000Y-111990476D01*
X72842380Y-112038095D01*
X72747142Y-112085714D01*
X72651904Y-112085714D01*
X72556666Y-112038095D01*
X72509047Y-111990476D01*
X72461428Y-111895238D01*
X72461428Y-111561904D01*
X71937619Y-112704761D02*
X71985238Y-112609523D01*
X72032857Y-112561904D01*
X72128095Y-112514285D01*
X72413809Y-112514285D01*
X72509047Y-112561904D01*
X72556666Y-112609523D01*
X72604285Y-112704761D01*
X72604285Y-112847619D01*
X72556666Y-112942857D01*
X72509047Y-112990476D01*
X72413809Y-113038095D01*
X72128095Y-113038095D01*
X72032857Y-112990476D01*
X71985238Y-112942857D01*
X71937619Y-112847619D01*
X71937619Y-112704761D01*
X71937619Y-113895238D02*
X72461428Y-113895238D01*
X72556666Y-113847619D01*
X72604285Y-113752380D01*
X72604285Y-113561904D01*
X72556666Y-113466666D01*
X71985238Y-113895238D02*
X71937619Y-113800000D01*
X71937619Y-113561904D01*
X71985238Y-113466666D01*
X72080476Y-113419047D01*
X72175714Y-113419047D01*
X72270952Y-113466666D01*
X72318571Y-113561904D01*
X72318571Y-113800000D01*
X72366190Y-113895238D01*
X71937619Y-114371428D02*
X72604285Y-114371428D01*
X72413809Y-114371428D02*
X72509047Y-114419047D01*
X72556666Y-114466666D01*
X72604285Y-114561904D01*
X72604285Y-114657142D01*
X71937619Y-115419047D02*
X72937619Y-115419047D01*
X71985238Y-115419047D02*
X71937619Y-115323809D01*
X71937619Y-115133333D01*
X71985238Y-115038095D01*
X72032857Y-114990476D01*
X72128095Y-114942857D01*
X72413809Y-114942857D01*
X72509047Y-114990476D01*
X72556666Y-115038095D01*
X72604285Y-115133333D01*
X72604285Y-115323809D01*
X72556666Y-115419047D01*
X71937619Y-117228571D02*
X72413809Y-116895238D01*
X71937619Y-116657142D02*
X72937619Y-116657142D01*
X72937619Y-117038095D01*
X72890000Y-117133333D01*
X72842380Y-117180952D01*
X72747142Y-117228571D01*
X72604285Y-117228571D01*
X72509047Y-117180952D01*
X72461428Y-117133333D01*
X72413809Y-117038095D01*
X72413809Y-116657142D01*
X71985238Y-118038095D02*
X71937619Y-117942857D01*
X71937619Y-117752380D01*
X71985238Y-117657142D01*
X72080476Y-117609523D01*
X72461428Y-117609523D01*
X72556666Y-117657142D01*
X72604285Y-117752380D01*
X72604285Y-117942857D01*
X72556666Y-118038095D01*
X72461428Y-118085714D01*
X72366190Y-118085714D01*
X72270952Y-117609523D01*
X72604285Y-118419047D02*
X71937619Y-118657142D01*
X72604285Y-118895238D01*
X71937619Y-120561904D02*
X71937619Y-119990476D01*
X71937619Y-120276190D02*
X72937619Y-120276190D01*
X72794761Y-120180952D01*
X72699523Y-120085714D01*
X72651904Y-119990476D01*
X72937619Y-99870000D02*
X71937619Y-100108095D01*
X72651904Y-100298571D01*
X71937619Y-100489047D01*
X72937619Y-100727142D01*
X71937619Y-101108095D02*
X72937619Y-101108095D01*
X72461428Y-101108095D02*
X72461428Y-101679523D01*
X71937619Y-101679523D02*
X72937619Y-101679523D01*
X71985238Y-102108095D02*
X71937619Y-102250952D01*
X71937619Y-102489047D01*
X71985238Y-102584285D01*
X72032857Y-102631904D01*
X72128095Y-102679523D01*
X72223333Y-102679523D01*
X72318571Y-102631904D01*
X72366190Y-102584285D01*
X72413809Y-102489047D01*
X72461428Y-102298571D01*
X72509047Y-102203333D01*
X72556666Y-102155714D01*
X72651904Y-102108095D01*
X72747142Y-102108095D01*
X72842380Y-102155714D01*
X72890000Y-102203333D01*
X72937619Y-102298571D01*
X72937619Y-102536666D01*
X72890000Y-102679523D01*
X72604285Y-103012857D02*
X71937619Y-103250952D01*
X72604285Y-103489047D02*
X71937619Y-103250952D01*
X71699523Y-103155714D01*
X71651904Y-103108095D01*
X71604285Y-103012857D01*
X72604285Y-103870000D02*
X71937619Y-103870000D01*
X72509047Y-103870000D02*
X72556666Y-103917619D01*
X72604285Y-104012857D01*
X72604285Y-104155714D01*
X72556666Y-104250952D01*
X72461428Y-104298571D01*
X71937619Y-104298571D01*
X72604285Y-104631904D02*
X72604285Y-105012857D01*
X72937619Y-104774761D02*
X72080476Y-104774761D01*
X71985238Y-104822380D01*
X71937619Y-104917619D01*
X71937619Y-105012857D01*
X71937619Y-105346190D02*
X72937619Y-105346190D01*
X71937619Y-105774761D02*
X72461428Y-105774761D01*
X72556666Y-105727142D01*
X72604285Y-105631904D01*
X72604285Y-105489047D01*
X72556666Y-105393809D01*
X72509047Y-105346190D01*
D11*
X62170000Y-76902000D02*
X63500000Y-76902000D01*
X62170000Y-78232000D02*
X62170000Y-76902000D01*
X62170000Y-79502000D02*
X64830000Y-79502000D01*
X64830000Y-79502000D02*
X64830000Y-82102000D01*
X62170000Y-79502000D02*
X62170000Y-82102000D01*
X62170000Y-82102000D02*
X64830000Y-82102000D01*
X56575000Y-102422000D02*
X55245000Y-102422000D01*
X56575000Y-101092000D02*
X56575000Y-102422000D01*
X56575000Y-99822000D02*
X53915000Y-99822000D01*
X53915000Y-99822000D02*
X53915000Y-97222000D01*
X56575000Y-99822000D02*
X56575000Y-97222000D01*
X56575000Y-97222000D02*
X53915000Y-97222000D01*
X72958000Y-37398000D02*
X71628000Y-37398000D01*
X72958000Y-36068000D02*
X72958000Y-37398000D01*
X72958000Y-34798000D02*
X70298000Y-34798000D01*
X70298000Y-34798000D02*
X70298000Y-32198000D01*
X72958000Y-34798000D02*
X72958000Y-32198000D01*
X72958000Y-32198000D02*
X70298000Y-32198000D01*
X56702000Y-84896000D02*
X55372000Y-84896000D01*
X56702000Y-83566000D02*
X56702000Y-84896000D01*
X56702000Y-82296000D02*
X54042000Y-82296000D01*
X54042000Y-82296000D02*
X54042000Y-77156000D01*
X56702000Y-82296000D02*
X56702000Y-77156000D01*
X56702000Y-77156000D02*
X54042000Y-77156000D01*
X65091000Y-94047000D02*
X66421000Y-94047000D01*
X65091000Y-95377000D02*
X65091000Y-94047000D01*
X65091000Y-96647000D02*
X67751000Y-96647000D01*
X67751000Y-96647000D02*
X67751000Y-101787000D01*
X65091000Y-96647000D02*
X65091000Y-101787000D01*
X65091000Y-101787000D02*
X67751000Y-101787000D01*
X62120000Y-41462000D02*
X63770000Y-41462000D01*
X62120000Y-31182000D02*
X62120000Y-41462000D01*
X67420000Y-31182000D02*
X62120000Y-31182000D01*
X67420000Y-41462000D02*
X67420000Y-31182000D01*
X65770000Y-41462000D02*
X67420000Y-41462000D01*
X63770000Y-41462000D02*
G75*
G02X65770000Y-41462000I1000000J0D01*
G01*
X64068000Y-94217000D02*
X64068000Y-92567000D01*
X53788000Y-94217000D02*
X64068000Y-94217000D01*
X53788000Y-88917000D02*
X53788000Y-94217000D01*
X64068000Y-88917000D02*
X53788000Y-88917000D01*
X64068000Y-90567000D02*
X64068000Y-88917000D01*
X64068000Y-92567000D02*
G75*
G02X64068000Y-90567000I0J1000000D01*
G01*
X66150000Y-49597000D02*
X64500000Y-49597000D01*
X66150000Y-72577000D02*
X66150000Y-49597000D01*
X60850000Y-72577000D02*
X66150000Y-72577000D01*
X60850000Y-49597000D02*
X60850000Y-72577000D01*
X62500000Y-49597000D02*
X60850000Y-49597000D01*
X64500000Y-49597000D02*
G75*
G02X62500000Y-49597000I-1000000J0D01*
G01*
X58360000Y-29905000D02*
X58360000Y-28575000D01*
X59690000Y-29905000D02*
X58360000Y-29905000D01*
X60960000Y-29905000D02*
X60960000Y-27245000D01*
X60960000Y-27245000D02*
X68640000Y-27245000D01*
X60960000Y-29905000D02*
X68640000Y-29905000D01*
X68640000Y-29905000D02*
X68640000Y-27245000D01*
X57075000Y-37000922D02*
X57075000Y-37518078D01*
X58495000Y-37000922D02*
X58495000Y-37518078D01*
X66337922Y-75894000D02*
X66855078Y-75894000D01*
X66337922Y-74474000D02*
X66855078Y-74474000D01*
X65076000Y-43302422D02*
X65076000Y-43819578D01*
X66496000Y-43302422D02*
X66496000Y-43819578D01*
X55320000Y-33786578D02*
X55320000Y-33269422D01*
X53900000Y-33786578D02*
X53900000Y-33269422D01*
X57352000Y-33786578D02*
X57352000Y-33269422D01*
X55932000Y-33786578D02*
X55932000Y-33269422D01*
X59384000Y-33786578D02*
X59384000Y-33269422D01*
X57964000Y-33786578D02*
X57964000Y-33269422D01*
X56463000Y-37518078D02*
X56463000Y-37000922D01*
X55043000Y-37518078D02*
X55043000Y-37000922D01*
X56590000Y-41709078D02*
X56590000Y-41191922D01*
X55170000Y-41709078D02*
X55170000Y-41191922D01*
X56082000Y-61345578D02*
X56082000Y-60828422D01*
X54662000Y-61345578D02*
X54662000Y-60828422D01*
X55826922Y-68401000D02*
X56344078Y-68401000D01*
X55826922Y-66981000D02*
X56344078Y-66981000D01*
X56059000Y-48333922D02*
X56059000Y-48851078D01*
X57479000Y-48333922D02*
X57479000Y-48851078D01*
X58114000Y-61345578D02*
X58114000Y-60828422D01*
X56694000Y-61345578D02*
X56694000Y-60828422D01*
X54789000Y-54351422D02*
X54789000Y-54868578D01*
X56209000Y-54351422D02*
X56209000Y-54868578D01*
X59265078Y-80316000D02*
X58747922Y-80316000D01*
X59265078Y-81736000D02*
X58747922Y-81736000D01*
X58747922Y-79450000D02*
X59265078Y-79450000D01*
X58747922Y-78030000D02*
X59265078Y-78030000D01*
X65076000Y-47190922D02*
X65076000Y-47708078D01*
X66496000Y-47190922D02*
X66496000Y-47708078D01*
X70433000Y-55298078D02*
X70433000Y-54780922D01*
X69013000Y-55298078D02*
X69013000Y-54780922D01*
X62479422Y-99516000D02*
X62996578Y-99516000D01*
X62479422Y-98096000D02*
X62996578Y-98096000D01*
X62479422Y-102945000D02*
X62996578Y-102945000D01*
X62479422Y-101525000D02*
X62996578Y-101525000D01*
X58717922Y-101548000D02*
X59235078Y-101548000D01*
X58717922Y-100128000D02*
X59235078Y-100128000D01*
X59265078Y-83618000D02*
X58747922Y-83618000D01*
X59265078Y-85038000D02*
X58747922Y-85038000D01*
X70861422Y-50113000D02*
X71378578Y-50113000D01*
X70861422Y-48693000D02*
X71378578Y-48693000D01*
X68378000Y-45031922D02*
X68378000Y-45549078D01*
X69798000Y-45031922D02*
X69798000Y-45549078D01*
X59265078Y-96826000D02*
X58747922Y-96826000D01*
X59265078Y-98246000D02*
X58747922Y-98246000D01*
X72719000Y-55298078D02*
X72719000Y-54780922D01*
X71299000Y-55298078D02*
X71299000Y-54780922D01*
X67774078Y-89079000D02*
X67256922Y-89079000D01*
X67774078Y-90499000D02*
X67256922Y-90499000D01*
X61393000Y-84117922D02*
X61393000Y-84635078D01*
X62813000Y-84117922D02*
X62813000Y-84635078D01*
X60144922Y-75894000D02*
X60662078Y-75894000D01*
X60144922Y-74474000D02*
X60662078Y-74474000D01*
X59361000Y-46906922D02*
X59361000Y-47424078D01*
X60781000Y-46906922D02*
X60781000Y-47424078D01*
X69902000Y-74114922D02*
X69902000Y-74632078D01*
X71322000Y-74114922D02*
X71322000Y-74632078D01*
X64464000Y-43819578D02*
X64464000Y-43302422D01*
X63044000Y-43819578D02*
X63044000Y-43302422D01*
X70283000Y-40713922D02*
X70283000Y-41231078D01*
X71703000Y-40713922D02*
X71703000Y-41231078D01*
D10*
X63166666Y-75354380D02*
X63166666Y-76068666D01*
X63119047Y-76211523D01*
X63023809Y-76306761D01*
X62880952Y-76354380D01*
X62785714Y-76354380D01*
X64071428Y-75687714D02*
X64071428Y-76354380D01*
X63833333Y-75306761D02*
X63595238Y-76021047D01*
X64214285Y-76021047D01*
X54911666Y-102874380D02*
X54911666Y-103588666D01*
X54864047Y-103731523D01*
X54768809Y-103826761D01*
X54625952Y-103874380D01*
X54530714Y-103874380D01*
X55864047Y-102874380D02*
X55387857Y-102874380D01*
X55340238Y-103350571D01*
X55387857Y-103302952D01*
X55483095Y-103255333D01*
X55721190Y-103255333D01*
X55816428Y-103302952D01*
X55864047Y-103350571D01*
X55911666Y-103445809D01*
X55911666Y-103683904D01*
X55864047Y-103779142D01*
X55816428Y-103826761D01*
X55721190Y-103874380D01*
X55483095Y-103874380D01*
X55387857Y-103826761D01*
X55340238Y-103779142D01*
X71294666Y-37850380D02*
X71294666Y-38564666D01*
X71247047Y-38707523D01*
X71151809Y-38802761D01*
X71008952Y-38850380D01*
X70913714Y-38850380D01*
X72199428Y-37850380D02*
X72008952Y-37850380D01*
X71913714Y-37898000D01*
X71866095Y-37945619D01*
X71770857Y-38088476D01*
X71723238Y-38278952D01*
X71723238Y-38659904D01*
X71770857Y-38755142D01*
X71818476Y-38802761D01*
X71913714Y-38850380D01*
X72104190Y-38850380D01*
X72199428Y-38802761D01*
X72247047Y-38755142D01*
X72294666Y-38659904D01*
X72294666Y-38421809D01*
X72247047Y-38326571D01*
X72199428Y-38278952D01*
X72104190Y-38231333D01*
X71913714Y-38231333D01*
X71818476Y-38278952D01*
X71770857Y-38326571D01*
X71723238Y-38421809D01*
X54776761Y-86348380D02*
X54443428Y-85872190D01*
X54205333Y-86348380D02*
X54205333Y-85348380D01*
X54586285Y-85348380D01*
X54681523Y-85396000D01*
X54729142Y-85443619D01*
X54776761Y-85538857D01*
X54776761Y-85681714D01*
X54729142Y-85776952D01*
X54681523Y-85824571D01*
X54586285Y-85872190D01*
X54205333Y-85872190D01*
X55062476Y-85348380D02*
X55395809Y-86348380D01*
X55729142Y-85348380D01*
X56491047Y-85681714D02*
X56491047Y-86348380D01*
X56252952Y-85300761D02*
X56014857Y-86015047D01*
X56633904Y-86015047D01*
X65825761Y-93499380D02*
X65492428Y-93023190D01*
X65254333Y-93499380D02*
X65254333Y-92499380D01*
X65635285Y-92499380D01*
X65730523Y-92547000D01*
X65778142Y-92594619D01*
X65825761Y-92689857D01*
X65825761Y-92832714D01*
X65778142Y-92927952D01*
X65730523Y-92975571D01*
X65635285Y-93023190D01*
X65254333Y-93023190D01*
X66111476Y-92499380D02*
X66444809Y-93499380D01*
X66778142Y-92499380D01*
X67587666Y-92499380D02*
X67111476Y-92499380D01*
X67063857Y-92975571D01*
X67111476Y-92927952D01*
X67206714Y-92880333D01*
X67444809Y-92880333D01*
X67540047Y-92927952D01*
X67587666Y-92975571D01*
X67635285Y-93070809D01*
X67635285Y-93308904D01*
X67587666Y-93404142D01*
X67540047Y-93451761D01*
X67444809Y-93499380D01*
X67206714Y-93499380D01*
X67111476Y-93451761D01*
X67063857Y-93404142D01*
X69850095Y-30567380D02*
X69850095Y-31376904D01*
X69897714Y-31472142D01*
X69945333Y-31519761D01*
X70040571Y-31567380D01*
X70231047Y-31567380D01*
X70326285Y-31519761D01*
X70373904Y-31472142D01*
X70421523Y-31376904D01*
X70421523Y-30567380D01*
X71421523Y-31567380D02*
X70850095Y-31567380D01*
X71135809Y-31567380D02*
X71135809Y-30567380D01*
X71040571Y-30710238D01*
X70945333Y-30805476D01*
X70850095Y-30853095D01*
X64520380Y-92328904D02*
X65329904Y-92328904D01*
X65425142Y-92281285D01*
X65472761Y-92233666D01*
X65520380Y-92138428D01*
X65520380Y-91947952D01*
X65472761Y-91852714D01*
X65425142Y-91805095D01*
X65329904Y-91757476D01*
X64520380Y-91757476D01*
X64615619Y-91328904D02*
X64568000Y-91281285D01*
X64520380Y-91186047D01*
X64520380Y-90947952D01*
X64568000Y-90852714D01*
X64615619Y-90805095D01*
X64710857Y-90757476D01*
X64806095Y-90757476D01*
X64948952Y-90805095D01*
X65520380Y-91376523D01*
X65520380Y-90757476D01*
X62738095Y-50887380D02*
X62738095Y-51696904D01*
X62785714Y-51792142D01*
X62833333Y-51839761D01*
X62928571Y-51887380D01*
X63119047Y-51887380D01*
X63214285Y-51839761D01*
X63261904Y-51792142D01*
X63309523Y-51696904D01*
X63309523Y-50887380D01*
X63690476Y-50887380D02*
X64309523Y-50887380D01*
X63976190Y-51268333D01*
X64119047Y-51268333D01*
X64214285Y-51315952D01*
X64261904Y-51363571D01*
X64309523Y-51458809D01*
X64309523Y-51696904D01*
X64261904Y-51792142D01*
X64214285Y-51839761D01*
X64119047Y-51887380D01*
X63833333Y-51887380D01*
X63738095Y-51839761D01*
X63690476Y-51792142D01*
X59102666Y-25614380D02*
X59102666Y-26328666D01*
X59055047Y-26471523D01*
X58959809Y-26566761D01*
X58816952Y-26614380D01*
X58721714Y-26614380D01*
X60102666Y-26614380D02*
X59531238Y-26614380D01*
X59816952Y-26614380D02*
X59816952Y-25614380D01*
X59721714Y-25757238D01*
X59626476Y-25852476D01*
X59531238Y-25900095D01*
X59792142Y-37426166D02*
X59839761Y-37473785D01*
X59887380Y-37616642D01*
X59887380Y-37711880D01*
X59839761Y-37854738D01*
X59744523Y-37949976D01*
X59649285Y-37997595D01*
X59458809Y-38045214D01*
X59315952Y-38045214D01*
X59125476Y-37997595D01*
X59030238Y-37949976D01*
X58935000Y-37854738D01*
X58887380Y-37711880D01*
X58887380Y-37616642D01*
X58935000Y-37473785D01*
X58982619Y-37426166D01*
X59887380Y-36473785D02*
X59887380Y-37045214D01*
X59887380Y-36759500D02*
X58887380Y-36759500D01*
X59030238Y-36854738D01*
X59125476Y-36949976D01*
X59173095Y-37045214D01*
X66429833Y-73891142D02*
X66382214Y-73938761D01*
X66239357Y-73986380D01*
X66144119Y-73986380D01*
X66001261Y-73938761D01*
X65906023Y-73843523D01*
X65858404Y-73748285D01*
X65810785Y-73557809D01*
X65810785Y-73414952D01*
X65858404Y-73224476D01*
X65906023Y-73129238D01*
X66001261Y-73034000D01*
X66144119Y-72986380D01*
X66239357Y-72986380D01*
X66382214Y-73034000D01*
X66429833Y-73081619D01*
X67286976Y-72986380D02*
X67096500Y-72986380D01*
X67001261Y-73034000D01*
X66953642Y-73081619D01*
X66858404Y-73224476D01*
X66810785Y-73414952D01*
X66810785Y-73795904D01*
X66858404Y-73891142D01*
X66906023Y-73938761D01*
X67001261Y-73986380D01*
X67191738Y-73986380D01*
X67286976Y-73938761D01*
X67334595Y-73891142D01*
X67382214Y-73795904D01*
X67382214Y-73557809D01*
X67334595Y-73462571D01*
X67286976Y-73414952D01*
X67191738Y-73367333D01*
X67001261Y-73367333D01*
X66906023Y-73414952D01*
X66858404Y-73462571D01*
X66810785Y-73557809D01*
X67793142Y-43727666D02*
X67840761Y-43775285D01*
X67888380Y-43918142D01*
X67888380Y-44013380D01*
X67840761Y-44156238D01*
X67745523Y-44251476D01*
X67650285Y-44299095D01*
X67459809Y-44346714D01*
X67316952Y-44346714D01*
X67126476Y-44299095D01*
X67031238Y-44251476D01*
X66936000Y-44156238D01*
X66888380Y-44013380D01*
X66888380Y-43918142D01*
X66936000Y-43775285D01*
X66983619Y-43727666D01*
X66888380Y-43394333D02*
X66888380Y-42727666D01*
X67888380Y-43156238D01*
X54443333Y-31567380D02*
X54110000Y-31091190D01*
X53871904Y-31567380D02*
X53871904Y-30567380D01*
X54252857Y-30567380D01*
X54348095Y-30615000D01*
X54395714Y-30662619D01*
X54443333Y-30757857D01*
X54443333Y-30900714D01*
X54395714Y-30995952D01*
X54348095Y-31043571D01*
X54252857Y-31091190D01*
X53871904Y-31091190D01*
X55395714Y-31567380D02*
X54824285Y-31567380D01*
X55110000Y-31567380D02*
X55110000Y-30567380D01*
X55014761Y-30710238D01*
X54919523Y-30805476D01*
X54824285Y-30853095D01*
X56475333Y-31567380D02*
X56142000Y-31091190D01*
X55903904Y-31567380D02*
X55903904Y-30567380D01*
X56284857Y-30567380D01*
X56380095Y-30615000D01*
X56427714Y-30662619D01*
X56475333Y-30757857D01*
X56475333Y-30900714D01*
X56427714Y-30995952D01*
X56380095Y-31043571D01*
X56284857Y-31091190D01*
X55903904Y-31091190D01*
X56856285Y-30662619D02*
X56903904Y-30615000D01*
X56999142Y-30567380D01*
X57237238Y-30567380D01*
X57332476Y-30615000D01*
X57380095Y-30662619D01*
X57427714Y-30757857D01*
X57427714Y-30853095D01*
X57380095Y-30995952D01*
X56808666Y-31567380D01*
X57427714Y-31567380D01*
X58507333Y-31567380D02*
X58174000Y-31091190D01*
X57935904Y-31567380D02*
X57935904Y-30567380D01*
X58316857Y-30567380D01*
X58412095Y-30615000D01*
X58459714Y-30662619D01*
X58507333Y-30757857D01*
X58507333Y-30900714D01*
X58459714Y-30995952D01*
X58412095Y-31043571D01*
X58316857Y-31091190D01*
X57935904Y-31091190D01*
X58840666Y-30567380D02*
X59459714Y-30567380D01*
X59126380Y-30948333D01*
X59269238Y-30948333D01*
X59364476Y-30995952D01*
X59412095Y-31043571D01*
X59459714Y-31138809D01*
X59459714Y-31376904D01*
X59412095Y-31472142D01*
X59364476Y-31519761D01*
X59269238Y-31567380D01*
X58983523Y-31567380D01*
X58888285Y-31519761D01*
X58840666Y-31472142D01*
X54555380Y-37426166D02*
X54079190Y-37759500D01*
X54555380Y-37997595D02*
X53555380Y-37997595D01*
X53555380Y-37616642D01*
X53603000Y-37521404D01*
X53650619Y-37473785D01*
X53745857Y-37426166D01*
X53888714Y-37426166D01*
X53983952Y-37473785D01*
X54031571Y-37521404D01*
X54079190Y-37616642D01*
X54079190Y-37997595D01*
X53888714Y-36569023D02*
X54555380Y-36569023D01*
X53507761Y-36807119D02*
X54222047Y-37045214D01*
X54222047Y-36426166D01*
X54682380Y-41617166D02*
X54206190Y-41950500D01*
X54682380Y-42188595D02*
X53682380Y-42188595D01*
X53682380Y-41807642D01*
X53730000Y-41712404D01*
X53777619Y-41664785D01*
X53872857Y-41617166D01*
X54015714Y-41617166D01*
X54110952Y-41664785D01*
X54158571Y-41712404D01*
X54206190Y-41807642D01*
X54206190Y-42188595D01*
X53682380Y-40712404D02*
X53682380Y-41188595D01*
X54158571Y-41236214D01*
X54110952Y-41188595D01*
X54063333Y-41093357D01*
X54063333Y-40855261D01*
X54110952Y-40760023D01*
X54158571Y-40712404D01*
X54253809Y-40664785D01*
X54491904Y-40664785D01*
X54587142Y-40712404D01*
X54634761Y-40760023D01*
X54682380Y-40855261D01*
X54682380Y-41093357D01*
X54634761Y-41188595D01*
X54587142Y-41236214D01*
X55570380Y-63920666D02*
X55094190Y-64254000D01*
X55570380Y-64492095D02*
X54570380Y-64492095D01*
X54570380Y-64111142D01*
X54618000Y-64015904D01*
X54665619Y-63968285D01*
X54760857Y-63920666D01*
X54903714Y-63920666D01*
X54998952Y-63968285D01*
X55046571Y-64015904D01*
X55094190Y-64111142D01*
X55094190Y-64492095D01*
X54570380Y-63063523D02*
X54570380Y-63254000D01*
X54618000Y-63349238D01*
X54665619Y-63396857D01*
X54808476Y-63492095D01*
X54998952Y-63539714D01*
X55379904Y-63539714D01*
X55475142Y-63492095D01*
X55522761Y-63444476D01*
X55570380Y-63349238D01*
X55570380Y-63158761D01*
X55522761Y-63063523D01*
X55475142Y-63015904D01*
X55379904Y-62968285D01*
X55141809Y-62968285D01*
X55046571Y-63015904D01*
X54998952Y-63063523D01*
X54951333Y-63158761D01*
X54951333Y-63349238D01*
X54998952Y-63444476D01*
X55046571Y-63492095D01*
X55141809Y-63539714D01*
X55918833Y-66493380D02*
X55585500Y-66017190D01*
X55347404Y-66493380D02*
X55347404Y-65493380D01*
X55728357Y-65493380D01*
X55823595Y-65541000D01*
X55871214Y-65588619D01*
X55918833Y-65683857D01*
X55918833Y-65826714D01*
X55871214Y-65921952D01*
X55823595Y-65969571D01*
X55728357Y-66017190D01*
X55347404Y-66017190D01*
X56252166Y-65493380D02*
X56918833Y-65493380D01*
X56490261Y-66493380D01*
X55570380Y-48426666D02*
X55094190Y-48760000D01*
X55570380Y-48998095D02*
X54570380Y-48998095D01*
X54570380Y-48617142D01*
X54618000Y-48521904D01*
X54665619Y-48474285D01*
X54760857Y-48426666D01*
X54903714Y-48426666D01*
X54998952Y-48474285D01*
X55046571Y-48521904D01*
X55094190Y-48617142D01*
X55094190Y-48998095D01*
X54998952Y-47855238D02*
X54951333Y-47950476D01*
X54903714Y-47998095D01*
X54808476Y-48045714D01*
X54760857Y-48045714D01*
X54665619Y-47998095D01*
X54618000Y-47950476D01*
X54570380Y-47855238D01*
X54570380Y-47664761D01*
X54618000Y-47569523D01*
X54665619Y-47521904D01*
X54760857Y-47474285D01*
X54808476Y-47474285D01*
X54903714Y-47521904D01*
X54951333Y-47569523D01*
X54998952Y-47664761D01*
X54998952Y-47855238D01*
X55046571Y-47950476D01*
X55094190Y-47998095D01*
X55189428Y-48045714D01*
X55379904Y-48045714D01*
X55475142Y-47998095D01*
X55522761Y-47950476D01*
X55570380Y-47855238D01*
X55570380Y-47664761D01*
X55522761Y-47569523D01*
X55475142Y-47521904D01*
X55379904Y-47474285D01*
X55189428Y-47474285D01*
X55094190Y-47521904D01*
X55046571Y-47569523D01*
X54998952Y-47664761D01*
X58618380Y-63793666D02*
X58142190Y-64127000D01*
X58618380Y-64365095D02*
X57618380Y-64365095D01*
X57618380Y-63984142D01*
X57666000Y-63888904D01*
X57713619Y-63841285D01*
X57808857Y-63793666D01*
X57951714Y-63793666D01*
X58046952Y-63841285D01*
X58094571Y-63888904D01*
X58142190Y-63984142D01*
X58142190Y-64365095D01*
X58618380Y-63317476D02*
X58618380Y-63127000D01*
X58570761Y-63031761D01*
X58523142Y-62984142D01*
X58380285Y-62888904D01*
X58189809Y-62841285D01*
X57808857Y-62841285D01*
X57713619Y-62888904D01*
X57666000Y-62936523D01*
X57618380Y-63031761D01*
X57618380Y-63222238D01*
X57666000Y-63317476D01*
X57713619Y-63365095D01*
X57808857Y-63412714D01*
X58046952Y-63412714D01*
X58142190Y-63365095D01*
X58189809Y-63317476D01*
X58237428Y-63222238D01*
X58237428Y-63031761D01*
X58189809Y-62936523D01*
X58142190Y-62888904D01*
X58046952Y-62841285D01*
X57601380Y-55252857D02*
X57125190Y-55586190D01*
X57601380Y-55824285D02*
X56601380Y-55824285D01*
X56601380Y-55443333D01*
X56649000Y-55348095D01*
X56696619Y-55300476D01*
X56791857Y-55252857D01*
X56934714Y-55252857D01*
X57029952Y-55300476D01*
X57077571Y-55348095D01*
X57125190Y-55443333D01*
X57125190Y-55824285D01*
X57601380Y-54300476D02*
X57601380Y-54871904D01*
X57601380Y-54586190D02*
X56601380Y-54586190D01*
X56744238Y-54681428D01*
X56839476Y-54776666D01*
X56887095Y-54871904D01*
X56601380Y-53681428D02*
X56601380Y-53586190D01*
X56649000Y-53490952D01*
X56696619Y-53443333D01*
X56791857Y-53395714D01*
X56982333Y-53348095D01*
X57220428Y-53348095D01*
X57410904Y-53395714D01*
X57506142Y-53443333D01*
X57553761Y-53490952D01*
X57601380Y-53586190D01*
X57601380Y-53681428D01*
X57553761Y-53776666D01*
X57506142Y-53824285D01*
X57410904Y-53871904D01*
X57220428Y-53919523D01*
X56982333Y-53919523D01*
X56791857Y-53871904D01*
X56696619Y-53824285D01*
X56649000Y-53776666D01*
X56601380Y-53681428D01*
X58363642Y-83128380D02*
X58030309Y-82652190D01*
X57792214Y-83128380D02*
X57792214Y-82128380D01*
X58173166Y-82128380D01*
X58268404Y-82176000D01*
X58316023Y-82223619D01*
X58363642Y-82318857D01*
X58363642Y-82461714D01*
X58316023Y-82556952D01*
X58268404Y-82604571D01*
X58173166Y-82652190D01*
X57792214Y-82652190D01*
X59316023Y-83128380D02*
X58744595Y-83128380D01*
X59030309Y-83128380D02*
X59030309Y-82128380D01*
X58935071Y-82271238D01*
X58839833Y-82366476D01*
X58744595Y-82414095D01*
X60268404Y-83128380D02*
X59696976Y-83128380D01*
X59982690Y-83128380D02*
X59982690Y-82128380D01*
X59887452Y-82271238D01*
X59792214Y-82366476D01*
X59696976Y-82414095D01*
X58363642Y-77542380D02*
X58030309Y-77066190D01*
X57792214Y-77542380D02*
X57792214Y-76542380D01*
X58173166Y-76542380D01*
X58268404Y-76590000D01*
X58316023Y-76637619D01*
X58363642Y-76732857D01*
X58363642Y-76875714D01*
X58316023Y-76970952D01*
X58268404Y-77018571D01*
X58173166Y-77066190D01*
X57792214Y-77066190D01*
X59316023Y-77542380D02*
X58744595Y-77542380D01*
X59030309Y-77542380D02*
X59030309Y-76542380D01*
X58935071Y-76685238D01*
X58839833Y-76780476D01*
X58744595Y-76828095D01*
X59696976Y-76637619D02*
X59744595Y-76590000D01*
X59839833Y-76542380D01*
X60077928Y-76542380D01*
X60173166Y-76590000D01*
X60220785Y-76637619D01*
X60268404Y-76732857D01*
X60268404Y-76828095D01*
X60220785Y-76970952D01*
X59649357Y-77542380D01*
X60268404Y-77542380D01*
X67888380Y-48092357D02*
X67412190Y-48425690D01*
X67888380Y-48663785D02*
X66888380Y-48663785D01*
X66888380Y-48282833D01*
X66936000Y-48187595D01*
X66983619Y-48139976D01*
X67078857Y-48092357D01*
X67221714Y-48092357D01*
X67316952Y-48139976D01*
X67364571Y-48187595D01*
X67412190Y-48282833D01*
X67412190Y-48663785D01*
X67888380Y-47139976D02*
X67888380Y-47711404D01*
X67888380Y-47425690D02*
X66888380Y-47425690D01*
X67031238Y-47520928D01*
X67126476Y-47616166D01*
X67174095Y-47711404D01*
X66888380Y-46806642D02*
X66888380Y-46187595D01*
X67269333Y-46520928D01*
X67269333Y-46378071D01*
X67316952Y-46282833D01*
X67364571Y-46235214D01*
X67459809Y-46187595D01*
X67697904Y-46187595D01*
X67793142Y-46235214D01*
X67840761Y-46282833D01*
X67888380Y-46378071D01*
X67888380Y-46663785D01*
X67840761Y-46759023D01*
X67793142Y-46806642D01*
X69286380Y-58935857D02*
X68810190Y-59269190D01*
X69286380Y-59507285D02*
X68286380Y-59507285D01*
X68286380Y-59126333D01*
X68334000Y-59031095D01*
X68381619Y-58983476D01*
X68476857Y-58935857D01*
X68619714Y-58935857D01*
X68714952Y-58983476D01*
X68762571Y-59031095D01*
X68810190Y-59126333D01*
X68810190Y-59507285D01*
X69286380Y-57983476D02*
X69286380Y-58554904D01*
X69286380Y-58269190D02*
X68286380Y-58269190D01*
X68429238Y-58364428D01*
X68524476Y-58459666D01*
X68572095Y-58554904D01*
X68619714Y-57126333D02*
X69286380Y-57126333D01*
X68238761Y-57364428D02*
X68953047Y-57602523D01*
X68953047Y-56983476D01*
X62095142Y-97608380D02*
X61761809Y-97132190D01*
X61523714Y-97608380D02*
X61523714Y-96608380D01*
X61904666Y-96608380D01*
X61999904Y-96656000D01*
X62047523Y-96703619D01*
X62095142Y-96798857D01*
X62095142Y-96941714D01*
X62047523Y-97036952D01*
X61999904Y-97084571D01*
X61904666Y-97132190D01*
X61523714Y-97132190D01*
X63047523Y-97608380D02*
X62476095Y-97608380D01*
X62761809Y-97608380D02*
X62761809Y-96608380D01*
X62666571Y-96751238D01*
X62571333Y-96846476D01*
X62476095Y-96894095D01*
X63952285Y-96608380D02*
X63476095Y-96608380D01*
X63428476Y-97084571D01*
X63476095Y-97036952D01*
X63571333Y-96989333D01*
X63809428Y-96989333D01*
X63904666Y-97036952D01*
X63952285Y-97084571D01*
X63999904Y-97179809D01*
X63999904Y-97417904D01*
X63952285Y-97513142D01*
X63904666Y-97560761D01*
X63809428Y-97608380D01*
X63571333Y-97608380D01*
X63476095Y-97560761D01*
X63428476Y-97513142D01*
X62095142Y-101037380D02*
X61761809Y-100561190D01*
X61523714Y-101037380D02*
X61523714Y-100037380D01*
X61904666Y-100037380D01*
X61999904Y-100085000D01*
X62047523Y-100132619D01*
X62095142Y-100227857D01*
X62095142Y-100370714D01*
X62047523Y-100465952D01*
X61999904Y-100513571D01*
X61904666Y-100561190D01*
X61523714Y-100561190D01*
X63047523Y-101037380D02*
X62476095Y-101037380D01*
X62761809Y-101037380D02*
X62761809Y-100037380D01*
X62666571Y-100180238D01*
X62571333Y-100275476D01*
X62476095Y-100323095D01*
X63904666Y-100037380D02*
X63714190Y-100037380D01*
X63618952Y-100085000D01*
X63571333Y-100132619D01*
X63476095Y-100275476D01*
X63428476Y-100465952D01*
X63428476Y-100846904D01*
X63476095Y-100942142D01*
X63523714Y-100989761D01*
X63618952Y-101037380D01*
X63809428Y-101037380D01*
X63904666Y-100989761D01*
X63952285Y-100942142D01*
X63999904Y-100846904D01*
X63999904Y-100608809D01*
X63952285Y-100513571D01*
X63904666Y-100465952D01*
X63809428Y-100418333D01*
X63618952Y-100418333D01*
X63523714Y-100465952D01*
X63476095Y-100513571D01*
X63428476Y-100608809D01*
X58206642Y-103068380D02*
X57873309Y-102592190D01*
X57635214Y-103068380D02*
X57635214Y-102068380D01*
X58016166Y-102068380D01*
X58111404Y-102116000D01*
X58159023Y-102163619D01*
X58206642Y-102258857D01*
X58206642Y-102401714D01*
X58159023Y-102496952D01*
X58111404Y-102544571D01*
X58016166Y-102592190D01*
X57635214Y-102592190D01*
X59159023Y-103068380D02*
X58587595Y-103068380D01*
X58873309Y-103068380D02*
X58873309Y-102068380D01*
X58778071Y-102211238D01*
X58682833Y-102306476D01*
X58587595Y-102354095D01*
X59492357Y-102068380D02*
X60159023Y-102068380D01*
X59730452Y-103068380D01*
X58363642Y-86430380D02*
X58030309Y-85954190D01*
X57792214Y-86430380D02*
X57792214Y-85430380D01*
X58173166Y-85430380D01*
X58268404Y-85478000D01*
X58316023Y-85525619D01*
X58363642Y-85620857D01*
X58363642Y-85763714D01*
X58316023Y-85858952D01*
X58268404Y-85906571D01*
X58173166Y-85954190D01*
X57792214Y-85954190D01*
X59316023Y-86430380D02*
X58744595Y-86430380D01*
X59030309Y-86430380D02*
X59030309Y-85430380D01*
X58935071Y-85573238D01*
X58839833Y-85668476D01*
X58744595Y-85716095D01*
X59887452Y-85858952D02*
X59792214Y-85811333D01*
X59744595Y-85763714D01*
X59696976Y-85668476D01*
X59696976Y-85620857D01*
X59744595Y-85525619D01*
X59792214Y-85478000D01*
X59887452Y-85430380D01*
X60077928Y-85430380D01*
X60173166Y-85478000D01*
X60220785Y-85525619D01*
X60268404Y-85620857D01*
X60268404Y-85668476D01*
X60220785Y-85763714D01*
X60173166Y-85811333D01*
X60077928Y-85858952D01*
X59887452Y-85858952D01*
X59792214Y-85906571D01*
X59744595Y-85954190D01*
X59696976Y-86049428D01*
X59696976Y-86239904D01*
X59744595Y-86335142D01*
X59792214Y-86382761D01*
X59887452Y-86430380D01*
X60077928Y-86430380D01*
X60173166Y-86382761D01*
X60220785Y-86335142D01*
X60268404Y-86239904D01*
X60268404Y-86049428D01*
X60220785Y-85954190D01*
X60173166Y-85906571D01*
X60077928Y-85858952D01*
X70477142Y-48205380D02*
X70143809Y-47729190D01*
X69905714Y-48205380D02*
X69905714Y-47205380D01*
X70286666Y-47205380D01*
X70381904Y-47253000D01*
X70429523Y-47300619D01*
X70477142Y-47395857D01*
X70477142Y-47538714D01*
X70429523Y-47633952D01*
X70381904Y-47681571D01*
X70286666Y-47729190D01*
X69905714Y-47729190D01*
X71429523Y-48205380D02*
X70858095Y-48205380D01*
X71143809Y-48205380D02*
X71143809Y-47205380D01*
X71048571Y-47348238D01*
X70953333Y-47443476D01*
X70858095Y-47491095D01*
X71905714Y-48205380D02*
X72096190Y-48205380D01*
X72191428Y-48157761D01*
X72239047Y-48110142D01*
X72334285Y-47967285D01*
X72381904Y-47776809D01*
X72381904Y-47395857D01*
X72334285Y-47300619D01*
X72286666Y-47253000D01*
X72191428Y-47205380D01*
X72000952Y-47205380D01*
X71905714Y-47253000D01*
X71858095Y-47300619D01*
X71810476Y-47395857D01*
X71810476Y-47633952D01*
X71858095Y-47729190D01*
X71905714Y-47776809D01*
X72000952Y-47824428D01*
X72191428Y-47824428D01*
X72286666Y-47776809D01*
X72334285Y-47729190D01*
X72381904Y-47633952D01*
X71190380Y-45933357D02*
X70714190Y-46266690D01*
X71190380Y-46504785D02*
X70190380Y-46504785D01*
X70190380Y-46123833D01*
X70238000Y-46028595D01*
X70285619Y-45980976D01*
X70380857Y-45933357D01*
X70523714Y-45933357D01*
X70618952Y-45980976D01*
X70666571Y-46028595D01*
X70714190Y-46123833D01*
X70714190Y-46504785D01*
X70285619Y-45552404D02*
X70238000Y-45504785D01*
X70190380Y-45409547D01*
X70190380Y-45171452D01*
X70238000Y-45076214D01*
X70285619Y-45028595D01*
X70380857Y-44980976D01*
X70476095Y-44980976D01*
X70618952Y-45028595D01*
X71190380Y-45600023D01*
X71190380Y-44980976D01*
X70190380Y-44361928D02*
X70190380Y-44266690D01*
X70238000Y-44171452D01*
X70285619Y-44123833D01*
X70380857Y-44076214D01*
X70571333Y-44028595D01*
X70809428Y-44028595D01*
X70999904Y-44076214D01*
X71095142Y-44123833D01*
X71142761Y-44171452D01*
X71190380Y-44266690D01*
X71190380Y-44361928D01*
X71142761Y-44457166D01*
X71095142Y-44504785D01*
X70999904Y-44552404D01*
X70809428Y-44600023D01*
X70571333Y-44600023D01*
X70380857Y-44552404D01*
X70285619Y-44504785D01*
X70238000Y-44457166D01*
X70190380Y-44361928D01*
X58363642Y-99638380D02*
X58030309Y-99162190D01*
X57792214Y-99638380D02*
X57792214Y-98638380D01*
X58173166Y-98638380D01*
X58268404Y-98686000D01*
X58316023Y-98733619D01*
X58363642Y-98828857D01*
X58363642Y-98971714D01*
X58316023Y-99066952D01*
X58268404Y-99114571D01*
X58173166Y-99162190D01*
X57792214Y-99162190D01*
X58744595Y-98733619D02*
X58792214Y-98686000D01*
X58887452Y-98638380D01*
X59125547Y-98638380D01*
X59220785Y-98686000D01*
X59268404Y-98733619D01*
X59316023Y-98828857D01*
X59316023Y-98924095D01*
X59268404Y-99066952D01*
X58696976Y-99638380D01*
X59316023Y-99638380D01*
X60268404Y-99638380D02*
X59696976Y-99638380D01*
X59982690Y-99638380D02*
X59982690Y-98638380D01*
X59887452Y-98781238D01*
X59792214Y-98876476D01*
X59696976Y-98924095D01*
X72588380Y-58808857D02*
X72112190Y-59142190D01*
X72588380Y-59380285D02*
X71588380Y-59380285D01*
X71588380Y-58999333D01*
X71636000Y-58904095D01*
X71683619Y-58856476D01*
X71778857Y-58808857D01*
X71921714Y-58808857D01*
X72016952Y-58856476D01*
X72064571Y-58904095D01*
X72112190Y-58999333D01*
X72112190Y-59380285D01*
X71683619Y-58427904D02*
X71636000Y-58380285D01*
X71588380Y-58285047D01*
X71588380Y-58046952D01*
X71636000Y-57951714D01*
X71683619Y-57904095D01*
X71778857Y-57856476D01*
X71874095Y-57856476D01*
X72016952Y-57904095D01*
X72588380Y-58475523D01*
X72588380Y-57856476D01*
X71683619Y-57475523D02*
X71636000Y-57427904D01*
X71588380Y-57332666D01*
X71588380Y-57094571D01*
X71636000Y-56999333D01*
X71683619Y-56951714D01*
X71778857Y-56904095D01*
X71874095Y-56904095D01*
X72016952Y-56951714D01*
X72588380Y-57523142D01*
X72588380Y-56904095D01*
X66872642Y-91891380D02*
X66539309Y-91415190D01*
X66301214Y-91891380D02*
X66301214Y-90891380D01*
X66682166Y-90891380D01*
X66777404Y-90939000D01*
X66825023Y-90986619D01*
X66872642Y-91081857D01*
X66872642Y-91224714D01*
X66825023Y-91319952D01*
X66777404Y-91367571D01*
X66682166Y-91415190D01*
X66301214Y-91415190D01*
X67253595Y-90986619D02*
X67301214Y-90939000D01*
X67396452Y-90891380D01*
X67634547Y-90891380D01*
X67729785Y-90939000D01*
X67777404Y-90986619D01*
X67825023Y-91081857D01*
X67825023Y-91177095D01*
X67777404Y-91319952D01*
X67205976Y-91891380D01*
X67825023Y-91891380D01*
X68158357Y-90891380D02*
X68777404Y-90891380D01*
X68444071Y-91272333D01*
X68586928Y-91272333D01*
X68682166Y-91319952D01*
X68729785Y-91367571D01*
X68777404Y-91462809D01*
X68777404Y-91700904D01*
X68729785Y-91796142D01*
X68682166Y-91843761D01*
X68586928Y-91891380D01*
X68301214Y-91891380D01*
X68205976Y-91843761D01*
X68158357Y-91796142D01*
X64205380Y-85019357D02*
X63729190Y-85352690D01*
X64205380Y-85590785D02*
X63205380Y-85590785D01*
X63205380Y-85209833D01*
X63253000Y-85114595D01*
X63300619Y-85066976D01*
X63395857Y-85019357D01*
X63538714Y-85019357D01*
X63633952Y-85066976D01*
X63681571Y-85114595D01*
X63729190Y-85209833D01*
X63729190Y-85590785D01*
X63300619Y-84638404D02*
X63253000Y-84590785D01*
X63205380Y-84495547D01*
X63205380Y-84257452D01*
X63253000Y-84162214D01*
X63300619Y-84114595D01*
X63395857Y-84066976D01*
X63491095Y-84066976D01*
X63633952Y-84114595D01*
X64205380Y-84686023D01*
X64205380Y-84066976D01*
X63538714Y-83209833D02*
X64205380Y-83209833D01*
X63157761Y-83447928D02*
X63872047Y-83686023D01*
X63872047Y-83066976D01*
X59760642Y-73986380D02*
X59427309Y-73510190D01*
X59189214Y-73986380D02*
X59189214Y-72986380D01*
X59570166Y-72986380D01*
X59665404Y-73034000D01*
X59713023Y-73081619D01*
X59760642Y-73176857D01*
X59760642Y-73319714D01*
X59713023Y-73414952D01*
X59665404Y-73462571D01*
X59570166Y-73510190D01*
X59189214Y-73510190D01*
X60141595Y-73081619D02*
X60189214Y-73034000D01*
X60284452Y-72986380D01*
X60522547Y-72986380D01*
X60617785Y-73034000D01*
X60665404Y-73081619D01*
X60713023Y-73176857D01*
X60713023Y-73272095D01*
X60665404Y-73414952D01*
X60093976Y-73986380D01*
X60713023Y-73986380D01*
X61617785Y-72986380D02*
X61141595Y-72986380D01*
X61093976Y-73462571D01*
X61141595Y-73414952D01*
X61236833Y-73367333D01*
X61474928Y-73367333D01*
X61570166Y-73414952D01*
X61617785Y-73462571D01*
X61665404Y-73557809D01*
X61665404Y-73795904D01*
X61617785Y-73891142D01*
X61570166Y-73938761D01*
X61474928Y-73986380D01*
X61236833Y-73986380D01*
X61141595Y-73938761D01*
X61093976Y-73891142D01*
X62173380Y-47808357D02*
X61697190Y-48141690D01*
X62173380Y-48379785D02*
X61173380Y-48379785D01*
X61173380Y-47998833D01*
X61221000Y-47903595D01*
X61268619Y-47855976D01*
X61363857Y-47808357D01*
X61506714Y-47808357D01*
X61601952Y-47855976D01*
X61649571Y-47903595D01*
X61697190Y-47998833D01*
X61697190Y-48379785D01*
X61268619Y-47427404D02*
X61221000Y-47379785D01*
X61173380Y-47284547D01*
X61173380Y-47046452D01*
X61221000Y-46951214D01*
X61268619Y-46903595D01*
X61363857Y-46855976D01*
X61459095Y-46855976D01*
X61601952Y-46903595D01*
X62173380Y-47475023D01*
X62173380Y-46855976D01*
X61173380Y-46522642D02*
X61173380Y-45855976D01*
X62173380Y-46284547D01*
X72714380Y-75016357D02*
X72238190Y-75349690D01*
X72714380Y-75587785D02*
X71714380Y-75587785D01*
X71714380Y-75206833D01*
X71762000Y-75111595D01*
X71809619Y-75063976D01*
X71904857Y-75016357D01*
X72047714Y-75016357D01*
X72142952Y-75063976D01*
X72190571Y-75111595D01*
X72238190Y-75206833D01*
X72238190Y-75587785D01*
X71809619Y-74635404D02*
X71762000Y-74587785D01*
X71714380Y-74492547D01*
X71714380Y-74254452D01*
X71762000Y-74159214D01*
X71809619Y-74111595D01*
X71904857Y-74063976D01*
X72000095Y-74063976D01*
X72142952Y-74111595D01*
X72714380Y-74683023D01*
X72714380Y-74063976D01*
X72142952Y-73492547D02*
X72095333Y-73587785D01*
X72047714Y-73635404D01*
X71952476Y-73683023D01*
X71904857Y-73683023D01*
X71809619Y-73635404D01*
X71762000Y-73587785D01*
X71714380Y-73492547D01*
X71714380Y-73302071D01*
X71762000Y-73206833D01*
X71809619Y-73159214D01*
X71904857Y-73111595D01*
X71952476Y-73111595D01*
X72047714Y-73159214D01*
X72095333Y-73206833D01*
X72142952Y-73302071D01*
X72142952Y-73492547D01*
X72190571Y-73587785D01*
X72238190Y-73635404D01*
X72333428Y-73683023D01*
X72523904Y-73683023D01*
X72619142Y-73635404D01*
X72666761Y-73587785D01*
X72714380Y-73492547D01*
X72714380Y-73302071D01*
X72666761Y-73206833D01*
X72619142Y-73159214D01*
X72523904Y-73111595D01*
X72333428Y-73111595D01*
X72238190Y-73159214D01*
X72190571Y-73206833D01*
X72142952Y-73302071D01*
X62556380Y-44203857D02*
X62080190Y-44537190D01*
X62556380Y-44775285D02*
X61556380Y-44775285D01*
X61556380Y-44394333D01*
X61604000Y-44299095D01*
X61651619Y-44251476D01*
X61746857Y-44203857D01*
X61889714Y-44203857D01*
X61984952Y-44251476D01*
X62032571Y-44299095D01*
X62080190Y-44394333D01*
X62080190Y-44775285D01*
X61651619Y-43822904D02*
X61604000Y-43775285D01*
X61556380Y-43680047D01*
X61556380Y-43441952D01*
X61604000Y-43346714D01*
X61651619Y-43299095D01*
X61746857Y-43251476D01*
X61842095Y-43251476D01*
X61984952Y-43299095D01*
X62556380Y-43870523D01*
X62556380Y-43251476D01*
X62556380Y-42775285D02*
X62556380Y-42584809D01*
X62508761Y-42489571D01*
X62461142Y-42441952D01*
X62318285Y-42346714D01*
X62127809Y-42299095D01*
X61746857Y-42299095D01*
X61651619Y-42346714D01*
X61604000Y-42394333D01*
X61556380Y-42489571D01*
X61556380Y-42680047D01*
X61604000Y-42775285D01*
X61651619Y-42822904D01*
X61746857Y-42870523D01*
X61984952Y-42870523D01*
X62080190Y-42822904D01*
X62127809Y-42775285D01*
X62175428Y-42680047D01*
X62175428Y-42489571D01*
X62127809Y-42394333D01*
X62080190Y-42346714D01*
X61984952Y-42299095D01*
X73095380Y-41615357D02*
X72619190Y-41948690D01*
X73095380Y-42186785D02*
X72095380Y-42186785D01*
X72095380Y-41805833D01*
X72143000Y-41710595D01*
X72190619Y-41662976D01*
X72285857Y-41615357D01*
X72428714Y-41615357D01*
X72523952Y-41662976D01*
X72571571Y-41710595D01*
X72619190Y-41805833D01*
X72619190Y-42186785D01*
X72095380Y-41282023D02*
X72095380Y-40662976D01*
X72476333Y-40996309D01*
X72476333Y-40853452D01*
X72523952Y-40758214D01*
X72571571Y-40710595D01*
X72666809Y-40662976D01*
X72904904Y-40662976D01*
X73000142Y-40710595D01*
X73047761Y-40758214D01*
X73095380Y-40853452D01*
X73095380Y-41139166D01*
X73047761Y-41234404D01*
X73000142Y-41282023D01*
X72095380Y-40043928D02*
X72095380Y-39948690D01*
X72143000Y-39853452D01*
X72190619Y-39805833D01*
X72285857Y-39758214D01*
X72476333Y-39710595D01*
X72714428Y-39710595D01*
X72904904Y-39758214D01*
X73000142Y-39805833D01*
X73047761Y-39853452D01*
X73095380Y-39948690D01*
X73095380Y-40043928D01*
X73047761Y-40139166D01*
X73000142Y-40186785D01*
X72904904Y-40234404D01*
X72714428Y-40282023D01*
X72476333Y-40282023D01*
X72285857Y-40234404D01*
X72190619Y-40186785D01*
X72143000Y-40139166D01*
X72095380Y-40043928D01*
X62857142Y-62309380D02*
X62523809Y-61833190D01*
X62285714Y-62309380D02*
X62285714Y-61309380D01*
X62666666Y-61309380D01*
X62761904Y-61357000D01*
X62809523Y-61404619D01*
X62857142Y-61499857D01*
X62857142Y-61642714D01*
X62809523Y-61737952D01*
X62761904Y-61785571D01*
X62666666Y-61833190D01*
X62285714Y-61833190D01*
X63238095Y-61404619D02*
X63285714Y-61357000D01*
X63380952Y-61309380D01*
X63619047Y-61309380D01*
X63714285Y-61357000D01*
X63761904Y-61404619D01*
X63809523Y-61499857D01*
X63809523Y-61595095D01*
X63761904Y-61737952D01*
X63190476Y-62309380D01*
X63809523Y-62309380D01*
X64666666Y-61309380D02*
X64476190Y-61309380D01*
X64380952Y-61357000D01*
X64333333Y-61404619D01*
X64238095Y-61547476D01*
X64190476Y-61737952D01*
X64190476Y-62118904D01*
X64238095Y-62214142D01*
X64285714Y-62261761D01*
X64380952Y-62309380D01*
X64571428Y-62309380D01*
X64666666Y-62261761D01*
X64714285Y-62214142D01*
X64761904Y-62118904D01*
X64761904Y-61880809D01*
X64714285Y-61785571D01*
X64666666Y-61737952D01*
X64571428Y-61690333D01*
X64380952Y-61690333D01*
X64285714Y-61737952D01*
X64238095Y-61785571D01*
X64190476Y-61880809D01*
M02*
