G04 #@! TF.GenerationSoftware,KiCad,Pcbnew,(5.1.2-1)-1*
G04 #@! TF.CreationDate,2019-08-21T11:01:54-07:00*
G04 #@! TF.ProjectId,AS3320_VCF,41533333-3230-45f5-9643-462e6b696361,rev?*
G04 #@! TF.SameCoordinates,Original*
G04 #@! TF.FileFunction,Legend,Bot*
G04 #@! TF.FilePolarity,Positive*
%FSLAX46Y46*%
G04 Gerber Fmt 4.6, Leading zero omitted, Abs format (unit mm)*
G04 Created by KiCad (PCBNEW (5.1.2-1)-1) date 2019-08-21 11:01:54*
%MOMM*%
%LPD*%
G04 APERTURE LIST*
%ADD10C,0.120000*%
%ADD11C,0.150000*%
G04 APERTURE END LIST*
D10*
X73269000Y-90365000D02*
X68199000Y-90365000D01*
X73269000Y-100135000D02*
X68199000Y-100135000D01*
X68199000Y-100135000D02*
X68199000Y-90365000D01*
X73269000Y-100135000D02*
X73269000Y-90365000D01*
X73142000Y-74998000D02*
X68072000Y-74998000D01*
X73142000Y-84768000D02*
X68072000Y-84768000D01*
X68072000Y-84768000D02*
X68072000Y-74998000D01*
X73142000Y-84768000D02*
X73142000Y-74998000D01*
X59944000Y-62357000D02*
X56769000Y-62357000D01*
X59944000Y-72517000D02*
X59944000Y-62357000D01*
X53594000Y-72517000D02*
X59944000Y-72517000D01*
X53594000Y-62357000D02*
X53594000Y-72517000D01*
X56769000Y-62357000D02*
X53594000Y-62357000D01*
X53594000Y-59944000D02*
X56769000Y-59944000D01*
X53594000Y-49784000D02*
X53594000Y-59944000D01*
X59944000Y-49784000D02*
X53594000Y-49784000D01*
X59944000Y-59944000D02*
X59944000Y-49784000D01*
X56769000Y-59944000D02*
X59944000Y-59944000D01*
X67056000Y-59944000D02*
X70231000Y-59944000D01*
X67056000Y-49784000D02*
X67056000Y-59944000D01*
X73406000Y-49784000D02*
X67056000Y-49784000D01*
X73406000Y-59944000D02*
X73406000Y-49784000D01*
X70231000Y-59944000D02*
X73406000Y-59944000D01*
X73406000Y-62357000D02*
X70231000Y-62357000D01*
X73406000Y-72517000D02*
X73406000Y-62357000D01*
X67056000Y-72517000D02*
X73406000Y-72517000D01*
X67056000Y-62357000D02*
X67056000Y-72517000D01*
X70231000Y-62357000D02*
X67056000Y-62357000D01*
X56864000Y-104946000D02*
X57364000Y-104946000D01*
X57114000Y-104696000D02*
X57114000Y-105196000D01*
X59869563Y-105436000D02*
X60934000Y-106500437D01*
X57478437Y-105436000D02*
X56414000Y-106500437D01*
X57478437Y-105436000D02*
X57614000Y-105436000D01*
X59869563Y-105436000D02*
X59734000Y-105436000D01*
X60934000Y-106500437D02*
X60934000Y-109956000D01*
X56414000Y-106500437D02*
X56414000Y-109956000D01*
X56414000Y-109956000D02*
X57614000Y-109956000D01*
X60934000Y-109956000D02*
X59734000Y-109956000D01*
X56864000Y-112312000D02*
X57364000Y-112312000D01*
X57114000Y-112062000D02*
X57114000Y-112562000D01*
X59869563Y-112802000D02*
X60934000Y-113866437D01*
X57478437Y-112802000D02*
X56414000Y-113866437D01*
X57478437Y-112802000D02*
X57614000Y-112802000D01*
X59869563Y-112802000D02*
X59734000Y-112802000D01*
X60934000Y-113866437D02*
X60934000Y-117322000D01*
X56414000Y-113866437D02*
X56414000Y-117322000D01*
X56414000Y-117322000D02*
X57614000Y-117322000D01*
X60934000Y-117322000D02*
X59734000Y-117322000D01*
X63147000Y-122948000D02*
X65687000Y-122948000D01*
X63147000Y-122948000D02*
X63147000Y-120408000D01*
X63397000Y-122698000D02*
X72747000Y-122698000D01*
X63397000Y-101838000D02*
X63397000Y-122698000D01*
X72747000Y-101838000D02*
X63397000Y-101838000D01*
X72747000Y-122698000D02*
X72747000Y-101838000D01*
D11*
X67635380Y-94527761D02*
X67159190Y-94194428D01*
X67635380Y-93956333D02*
X66635380Y-93956333D01*
X66635380Y-94337285D01*
X66683000Y-94432523D01*
X66730619Y-94480142D01*
X66825857Y-94527761D01*
X66968714Y-94527761D01*
X67063952Y-94480142D01*
X67111571Y-94432523D01*
X67159190Y-94337285D01*
X67159190Y-93956333D01*
X66635380Y-94813476D02*
X67635380Y-95146809D01*
X66635380Y-95480142D01*
X66635380Y-96242047D02*
X66635380Y-96051571D01*
X66683000Y-95956333D01*
X66730619Y-95908714D01*
X66873476Y-95813476D01*
X67063952Y-95765857D01*
X67444904Y-95765857D01*
X67540142Y-95813476D01*
X67587761Y-95861095D01*
X67635380Y-95956333D01*
X67635380Y-96146809D01*
X67587761Y-96242047D01*
X67540142Y-96289666D01*
X67444904Y-96337285D01*
X67206809Y-96337285D01*
X67111571Y-96289666D01*
X67063952Y-96242047D01*
X67016333Y-96146809D01*
X67016333Y-95956333D01*
X67063952Y-95861095D01*
X67111571Y-95813476D01*
X67206809Y-95765857D01*
X67508380Y-79160761D02*
X67032190Y-78827428D01*
X67508380Y-78589333D02*
X66508380Y-78589333D01*
X66508380Y-78970285D01*
X66556000Y-79065523D01*
X66603619Y-79113142D01*
X66698857Y-79160761D01*
X66841714Y-79160761D01*
X66936952Y-79113142D01*
X66984571Y-79065523D01*
X67032190Y-78970285D01*
X67032190Y-78589333D01*
X66508380Y-79446476D02*
X67508380Y-79779809D01*
X66508380Y-80113142D01*
X66508380Y-80351238D02*
X66508380Y-81017904D01*
X67508380Y-80589333D01*
X57626142Y-67270333D02*
X57673761Y-67222714D01*
X57721380Y-67079857D01*
X57721380Y-66984619D01*
X57673761Y-66841761D01*
X57578523Y-66746523D01*
X57483285Y-66698904D01*
X57292809Y-66651285D01*
X57149952Y-66651285D01*
X56959476Y-66698904D01*
X56864238Y-66746523D01*
X56769000Y-66841761D01*
X56721380Y-66984619D01*
X56721380Y-67079857D01*
X56769000Y-67222714D01*
X56816619Y-67270333D01*
X56816619Y-67651285D02*
X56769000Y-67698904D01*
X56721380Y-67794142D01*
X56721380Y-68032238D01*
X56769000Y-68127476D01*
X56816619Y-68175095D01*
X56911857Y-68222714D01*
X57007095Y-68222714D01*
X57149952Y-68175095D01*
X57721380Y-67603666D01*
X57721380Y-68222714D01*
X56626142Y-54697333D02*
X56673761Y-54649714D01*
X56721380Y-54506857D01*
X56721380Y-54411619D01*
X56673761Y-54268761D01*
X56578523Y-54173523D01*
X56483285Y-54125904D01*
X56292809Y-54078285D01*
X56149952Y-54078285D01*
X55959476Y-54125904D01*
X55864238Y-54173523D01*
X55769000Y-54268761D01*
X55721380Y-54411619D01*
X55721380Y-54506857D01*
X55769000Y-54649714D01*
X55816619Y-54697333D01*
X55721380Y-55030666D02*
X55721380Y-55649714D01*
X56102333Y-55316380D01*
X56102333Y-55459238D01*
X56149952Y-55554476D01*
X56197571Y-55602095D01*
X56292809Y-55649714D01*
X56530904Y-55649714D01*
X56626142Y-55602095D01*
X56673761Y-55554476D01*
X56721380Y-55459238D01*
X56721380Y-55173523D01*
X56673761Y-55078285D01*
X56626142Y-55030666D01*
X70088142Y-54697333D02*
X70135761Y-54649714D01*
X70183380Y-54506857D01*
X70183380Y-54411619D01*
X70135761Y-54268761D01*
X70040523Y-54173523D01*
X69945285Y-54125904D01*
X69754809Y-54078285D01*
X69611952Y-54078285D01*
X69421476Y-54125904D01*
X69326238Y-54173523D01*
X69231000Y-54268761D01*
X69183380Y-54411619D01*
X69183380Y-54506857D01*
X69231000Y-54649714D01*
X69278619Y-54697333D01*
X69516714Y-55554476D02*
X70183380Y-55554476D01*
X69135761Y-55316380D02*
X69850047Y-55078285D01*
X69850047Y-55697333D01*
X71088142Y-67270333D02*
X71135761Y-67222714D01*
X71183380Y-67079857D01*
X71183380Y-66984619D01*
X71135761Y-66841761D01*
X71040523Y-66746523D01*
X70945285Y-66698904D01*
X70754809Y-66651285D01*
X70611952Y-66651285D01*
X70421476Y-66698904D01*
X70326238Y-66746523D01*
X70231000Y-66841761D01*
X70183380Y-66984619D01*
X70183380Y-67079857D01*
X70231000Y-67222714D01*
X70278619Y-67270333D01*
X70183380Y-68175095D02*
X70183380Y-67698904D01*
X70659571Y-67651285D01*
X70611952Y-67698904D01*
X70564333Y-67794142D01*
X70564333Y-68032238D01*
X70611952Y-68127476D01*
X70659571Y-68175095D01*
X70754809Y-68222714D01*
X70992904Y-68222714D01*
X71088142Y-68175095D01*
X71135761Y-68127476D01*
X71183380Y-68032238D01*
X71183380Y-67794142D01*
X71135761Y-67698904D01*
X71088142Y-67651285D01*
X55831142Y-107529333D02*
X55878761Y-107481714D01*
X55926380Y-107338857D01*
X55926380Y-107243619D01*
X55878761Y-107100761D01*
X55783523Y-107005523D01*
X55688285Y-106957904D01*
X55497809Y-106910285D01*
X55354952Y-106910285D01*
X55164476Y-106957904D01*
X55069238Y-107005523D01*
X54974000Y-107100761D01*
X54926380Y-107243619D01*
X54926380Y-107338857D01*
X54974000Y-107481714D01*
X55021619Y-107529333D01*
X55354952Y-108100761D02*
X55307333Y-108005523D01*
X55259714Y-107957904D01*
X55164476Y-107910285D01*
X55116857Y-107910285D01*
X55021619Y-107957904D01*
X54974000Y-108005523D01*
X54926380Y-108100761D01*
X54926380Y-108291238D01*
X54974000Y-108386476D01*
X55021619Y-108434095D01*
X55116857Y-108481714D01*
X55164476Y-108481714D01*
X55259714Y-108434095D01*
X55307333Y-108386476D01*
X55354952Y-108291238D01*
X55354952Y-108100761D01*
X55402571Y-108005523D01*
X55450190Y-107957904D01*
X55545428Y-107910285D01*
X55735904Y-107910285D01*
X55831142Y-107957904D01*
X55878761Y-108005523D01*
X55926380Y-108100761D01*
X55926380Y-108291238D01*
X55878761Y-108386476D01*
X55831142Y-108434095D01*
X55735904Y-108481714D01*
X55545428Y-108481714D01*
X55450190Y-108434095D01*
X55402571Y-108386476D01*
X55354952Y-108291238D01*
X55831142Y-114895333D02*
X55878761Y-114847714D01*
X55926380Y-114704857D01*
X55926380Y-114609619D01*
X55878761Y-114466761D01*
X55783523Y-114371523D01*
X55688285Y-114323904D01*
X55497809Y-114276285D01*
X55354952Y-114276285D01*
X55164476Y-114323904D01*
X55069238Y-114371523D01*
X54974000Y-114466761D01*
X54926380Y-114609619D01*
X54926380Y-114704857D01*
X54974000Y-114847714D01*
X55021619Y-114895333D01*
X55926380Y-115371523D02*
X55926380Y-115562000D01*
X55878761Y-115657238D01*
X55831142Y-115704857D01*
X55688285Y-115800095D01*
X55497809Y-115847714D01*
X55116857Y-115847714D01*
X55021619Y-115800095D01*
X54974000Y-115752476D01*
X54926380Y-115657238D01*
X54926380Y-115466761D01*
X54974000Y-115371523D01*
X55021619Y-115323904D01*
X55116857Y-115276285D01*
X55354952Y-115276285D01*
X55450190Y-115323904D01*
X55497809Y-115371523D01*
X55545428Y-115466761D01*
X55545428Y-115657238D01*
X55497809Y-115752476D01*
X55450190Y-115800095D01*
X55354952Y-115847714D01*
X68405333Y-123404380D02*
X68405333Y-124118666D01*
X68452952Y-124261523D01*
X68548190Y-124356761D01*
X68691047Y-124404380D01*
X68786285Y-124404380D01*
X67976761Y-123499619D02*
X67929142Y-123452000D01*
X67833904Y-123404380D01*
X67595809Y-123404380D01*
X67500571Y-123452000D01*
X67452952Y-123499619D01*
X67405333Y-123594857D01*
X67405333Y-123690095D01*
X67452952Y-123832952D01*
X68024380Y-124404380D01*
X67405333Y-124404380D01*
M02*
