G04 #@! TF.GenerationSoftware,KiCad,Pcbnew,(5.1.4-0-10_14)*
G04 #@! TF.CreationDate,2019-10-08T20:57:53-07:00*
G04 #@! TF.ProjectId,VCF_Main,5643465f-4d61-4696-9e2e-6b696361645f,rev?*
G04 #@! TF.SameCoordinates,Original*
G04 #@! TF.FileFunction,Copper,L2,Bot*
G04 #@! TF.FilePolarity,Positive*
%FSLAX46Y46*%
G04 Gerber Fmt 4.6, Leading zero omitted, Abs format (unit mm)*
G04 Created by KiCad (PCBNEW (5.1.4-0-10_14)) date 2019-10-08 20:57:53*
%MOMM*%
%LPD*%
G04 APERTURE LIST*
%ADD10O,1.600000X1.600000*%
%ADD11R,1.600000X1.600000*%
%ADD12C,1.440000*%
%ADD13C,0.100000*%
%ADD14C,1.600000*%
%ADD15O,1.727200X1.727200*%
%ADD16R,1.727200X1.727200*%
%ADD17O,1.700000X1.700000*%
%ADD18R,1.700000X1.700000*%
%ADD19C,1.524000*%
%ADD20C,5.000000*%
%ADD21C,0.800000*%
%ADD22C,0.250000*%
%ADD23C,0.254000*%
G04 APERTURE END LIST*
D10*
X85344000Y-145796000D03*
X92964000Y-153416000D03*
X85344000Y-148336000D03*
X92964000Y-150876000D03*
X85344000Y-150876000D03*
X92964000Y-148336000D03*
X85344000Y-153416000D03*
D11*
X92964000Y-145796000D03*
D10*
X85344000Y-121412000D03*
X92964000Y-129032000D03*
X85344000Y-123952000D03*
X92964000Y-126492000D03*
X85344000Y-126492000D03*
X92964000Y-123952000D03*
X85344000Y-129032000D03*
D11*
X92964000Y-121412000D03*
D10*
X80518000Y-95123000D03*
X88138000Y-115443000D03*
X80518000Y-97663000D03*
X88138000Y-112903000D03*
X80518000Y-100203000D03*
X88138000Y-110363000D03*
X80518000Y-102743000D03*
X88138000Y-107823000D03*
X80518000Y-105283000D03*
X88138000Y-105283000D03*
X80518000Y-107823000D03*
X88138000Y-102743000D03*
X80518000Y-110363000D03*
X88138000Y-100203000D03*
X80518000Y-112903000D03*
X88138000Y-97663000D03*
X80518000Y-115443000D03*
D11*
X88138000Y-95123000D03*
D12*
X76073000Y-125095000D03*
X73533000Y-125095000D03*
X70993000Y-125095000D03*
X91948000Y-87757000D03*
X89408000Y-87757000D03*
X86868000Y-87757000D03*
D13*
G36*
X79822504Y-138931204D02*
G01*
X79846773Y-138934804D01*
X79870571Y-138940765D01*
X79893671Y-138949030D01*
X79915849Y-138959520D01*
X79936893Y-138972133D01*
X79956598Y-138986747D01*
X79974777Y-139003223D01*
X79991253Y-139021402D01*
X80005867Y-139041107D01*
X80018480Y-139062151D01*
X80028970Y-139084329D01*
X80037235Y-139107429D01*
X80043196Y-139131227D01*
X80046796Y-139155496D01*
X80048000Y-139180000D01*
X80048000Y-141280000D01*
X80046796Y-141304504D01*
X80043196Y-141328773D01*
X80037235Y-141352571D01*
X80028970Y-141375671D01*
X80018480Y-141397849D01*
X80005867Y-141418893D01*
X79991253Y-141438598D01*
X79974777Y-141456777D01*
X79956598Y-141473253D01*
X79936893Y-141487867D01*
X79915849Y-141500480D01*
X79893671Y-141510970D01*
X79870571Y-141519235D01*
X79846773Y-141525196D01*
X79822504Y-141528796D01*
X79798000Y-141530000D01*
X78698000Y-141530000D01*
X78673496Y-141528796D01*
X78649227Y-141525196D01*
X78625429Y-141519235D01*
X78602329Y-141510970D01*
X78580151Y-141500480D01*
X78559107Y-141487867D01*
X78539402Y-141473253D01*
X78521223Y-141456777D01*
X78504747Y-141438598D01*
X78490133Y-141418893D01*
X78477520Y-141397849D01*
X78467030Y-141375671D01*
X78458765Y-141352571D01*
X78452804Y-141328773D01*
X78449204Y-141304504D01*
X78448000Y-141280000D01*
X78448000Y-139180000D01*
X78449204Y-139155496D01*
X78452804Y-139131227D01*
X78458765Y-139107429D01*
X78467030Y-139084329D01*
X78477520Y-139062151D01*
X78490133Y-139041107D01*
X78504747Y-139021402D01*
X78521223Y-139003223D01*
X78539402Y-138986747D01*
X78559107Y-138972133D01*
X78580151Y-138959520D01*
X78602329Y-138949030D01*
X78625429Y-138940765D01*
X78649227Y-138934804D01*
X78673496Y-138931204D01*
X78698000Y-138930000D01*
X79798000Y-138930000D01*
X79822504Y-138931204D01*
X79822504Y-138931204D01*
G37*
D14*
X79248000Y-140230000D03*
D13*
G36*
X79822504Y-135331204D02*
G01*
X79846773Y-135334804D01*
X79870571Y-135340765D01*
X79893671Y-135349030D01*
X79915849Y-135359520D01*
X79936893Y-135372133D01*
X79956598Y-135386747D01*
X79974777Y-135403223D01*
X79991253Y-135421402D01*
X80005867Y-135441107D01*
X80018480Y-135462151D01*
X80028970Y-135484329D01*
X80037235Y-135507429D01*
X80043196Y-135531227D01*
X80046796Y-135555496D01*
X80048000Y-135580000D01*
X80048000Y-137680000D01*
X80046796Y-137704504D01*
X80043196Y-137728773D01*
X80037235Y-137752571D01*
X80028970Y-137775671D01*
X80018480Y-137797849D01*
X80005867Y-137818893D01*
X79991253Y-137838598D01*
X79974777Y-137856777D01*
X79956598Y-137873253D01*
X79936893Y-137887867D01*
X79915849Y-137900480D01*
X79893671Y-137910970D01*
X79870571Y-137919235D01*
X79846773Y-137925196D01*
X79822504Y-137928796D01*
X79798000Y-137930000D01*
X78698000Y-137930000D01*
X78673496Y-137928796D01*
X78649227Y-137925196D01*
X78625429Y-137919235D01*
X78602329Y-137910970D01*
X78580151Y-137900480D01*
X78559107Y-137887867D01*
X78539402Y-137873253D01*
X78521223Y-137856777D01*
X78504747Y-137838598D01*
X78490133Y-137818893D01*
X78477520Y-137797849D01*
X78467030Y-137775671D01*
X78458765Y-137752571D01*
X78452804Y-137728773D01*
X78449204Y-137704504D01*
X78448000Y-137680000D01*
X78448000Y-135580000D01*
X78449204Y-135555496D01*
X78452804Y-135531227D01*
X78458765Y-135507429D01*
X78467030Y-135484329D01*
X78477520Y-135462151D01*
X78490133Y-135441107D01*
X78504747Y-135421402D01*
X78521223Y-135403223D01*
X78539402Y-135386747D01*
X78559107Y-135372133D01*
X78580151Y-135359520D01*
X78602329Y-135349030D01*
X78625429Y-135340765D01*
X78649227Y-135334804D01*
X78673496Y-135331204D01*
X78698000Y-135330000D01*
X79798000Y-135330000D01*
X79822504Y-135331204D01*
X79822504Y-135331204D01*
G37*
D14*
X79248000Y-136630000D03*
D13*
G36*
X79822504Y-146297204D02*
G01*
X79846773Y-146300804D01*
X79870571Y-146306765D01*
X79893671Y-146315030D01*
X79915849Y-146325520D01*
X79936893Y-146338133D01*
X79956598Y-146352747D01*
X79974777Y-146369223D01*
X79991253Y-146387402D01*
X80005867Y-146407107D01*
X80018480Y-146428151D01*
X80028970Y-146450329D01*
X80037235Y-146473429D01*
X80043196Y-146497227D01*
X80046796Y-146521496D01*
X80048000Y-146546000D01*
X80048000Y-148646000D01*
X80046796Y-148670504D01*
X80043196Y-148694773D01*
X80037235Y-148718571D01*
X80028970Y-148741671D01*
X80018480Y-148763849D01*
X80005867Y-148784893D01*
X79991253Y-148804598D01*
X79974777Y-148822777D01*
X79956598Y-148839253D01*
X79936893Y-148853867D01*
X79915849Y-148866480D01*
X79893671Y-148876970D01*
X79870571Y-148885235D01*
X79846773Y-148891196D01*
X79822504Y-148894796D01*
X79798000Y-148896000D01*
X78698000Y-148896000D01*
X78673496Y-148894796D01*
X78649227Y-148891196D01*
X78625429Y-148885235D01*
X78602329Y-148876970D01*
X78580151Y-148866480D01*
X78559107Y-148853867D01*
X78539402Y-148839253D01*
X78521223Y-148822777D01*
X78504747Y-148804598D01*
X78490133Y-148784893D01*
X78477520Y-148763849D01*
X78467030Y-148741671D01*
X78458765Y-148718571D01*
X78452804Y-148694773D01*
X78449204Y-148670504D01*
X78448000Y-148646000D01*
X78448000Y-146546000D01*
X78449204Y-146521496D01*
X78452804Y-146497227D01*
X78458765Y-146473429D01*
X78467030Y-146450329D01*
X78477520Y-146428151D01*
X78490133Y-146407107D01*
X78504747Y-146387402D01*
X78521223Y-146369223D01*
X78539402Y-146352747D01*
X78559107Y-146338133D01*
X78580151Y-146325520D01*
X78602329Y-146315030D01*
X78625429Y-146306765D01*
X78649227Y-146300804D01*
X78673496Y-146297204D01*
X78698000Y-146296000D01*
X79798000Y-146296000D01*
X79822504Y-146297204D01*
X79822504Y-146297204D01*
G37*
D14*
X79248000Y-147596000D03*
D13*
G36*
X79822504Y-142697204D02*
G01*
X79846773Y-142700804D01*
X79870571Y-142706765D01*
X79893671Y-142715030D01*
X79915849Y-142725520D01*
X79936893Y-142738133D01*
X79956598Y-142752747D01*
X79974777Y-142769223D01*
X79991253Y-142787402D01*
X80005867Y-142807107D01*
X80018480Y-142828151D01*
X80028970Y-142850329D01*
X80037235Y-142873429D01*
X80043196Y-142897227D01*
X80046796Y-142921496D01*
X80048000Y-142946000D01*
X80048000Y-145046000D01*
X80046796Y-145070504D01*
X80043196Y-145094773D01*
X80037235Y-145118571D01*
X80028970Y-145141671D01*
X80018480Y-145163849D01*
X80005867Y-145184893D01*
X79991253Y-145204598D01*
X79974777Y-145222777D01*
X79956598Y-145239253D01*
X79936893Y-145253867D01*
X79915849Y-145266480D01*
X79893671Y-145276970D01*
X79870571Y-145285235D01*
X79846773Y-145291196D01*
X79822504Y-145294796D01*
X79798000Y-145296000D01*
X78698000Y-145296000D01*
X78673496Y-145294796D01*
X78649227Y-145291196D01*
X78625429Y-145285235D01*
X78602329Y-145276970D01*
X78580151Y-145266480D01*
X78559107Y-145253867D01*
X78539402Y-145239253D01*
X78521223Y-145222777D01*
X78504747Y-145204598D01*
X78490133Y-145184893D01*
X78477520Y-145163849D01*
X78467030Y-145141671D01*
X78458765Y-145118571D01*
X78452804Y-145094773D01*
X78449204Y-145070504D01*
X78448000Y-145046000D01*
X78448000Y-142946000D01*
X78449204Y-142921496D01*
X78452804Y-142897227D01*
X78458765Y-142873429D01*
X78467030Y-142850329D01*
X78477520Y-142828151D01*
X78490133Y-142807107D01*
X78504747Y-142787402D01*
X78521223Y-142769223D01*
X78539402Y-142752747D01*
X78559107Y-142738133D01*
X78580151Y-142725520D01*
X78602329Y-142715030D01*
X78625429Y-142706765D01*
X78649227Y-142700804D01*
X78673496Y-142697204D01*
X78698000Y-142696000D01*
X79798000Y-142696000D01*
X79822504Y-142697204D01*
X79822504Y-142697204D01*
G37*
D14*
X79248000Y-143996000D03*
D15*
X72898000Y-134874000D03*
X70358000Y-134874000D03*
X72898000Y-137414000D03*
X70358000Y-137414000D03*
X72898000Y-139954000D03*
X70358000Y-139954000D03*
X72898000Y-142494000D03*
X70358000Y-142494000D03*
X72898000Y-145034000D03*
D16*
X70358000Y-145034000D03*
D17*
X103124000Y-135890000D03*
X103124000Y-133350000D03*
X103124000Y-130810000D03*
X103124000Y-128270000D03*
X103124000Y-125730000D03*
X103124000Y-123190000D03*
X103124000Y-120650000D03*
X103124000Y-118110000D03*
X103124000Y-115570000D03*
X103124000Y-113030000D03*
X103124000Y-110490000D03*
D18*
X103124000Y-107950000D03*
D19*
X92837000Y-114681000D03*
X92837000Y-108331000D03*
X92837000Y-96774000D03*
X92837000Y-103124000D03*
X75946000Y-96774000D03*
X75946000Y-103124000D03*
X75946000Y-108331000D03*
X75946000Y-114681000D03*
X84328000Y-117983000D03*
X84328000Y-92583000D03*
D11*
X92964000Y-133604000D03*
D10*
X85344000Y-141224000D03*
X92964000Y-136144000D03*
X85344000Y-138684000D03*
X92964000Y-138684000D03*
X85344000Y-136144000D03*
X92964000Y-141224000D03*
X85344000Y-133604000D03*
D20*
X80518000Y-86360000D03*
X72390000Y-154940000D03*
X102870000Y-86360000D03*
X102870000Y-154940000D03*
D21*
X98933000Y-137414000D03*
D22*
X89789000Y-105283000D02*
X92837000Y-108331000D01*
X88138000Y-105283000D02*
X89789000Y-105283000D01*
X92456000Y-102743000D02*
X92837000Y-103124000D01*
X88138000Y-102743000D02*
X92456000Y-102743000D01*
X78867000Y-100203000D02*
X80518000Y-100203000D01*
X75946000Y-103124000D02*
X78867000Y-100203000D01*
X77724000Y-112903000D02*
X80518000Y-112903000D01*
X75946000Y-114681000D02*
X77724000Y-112903000D01*
X70358000Y-134874000D02*
X72898000Y-134874000D01*
X77492000Y-134874000D02*
X79248000Y-136630000D01*
X72898000Y-134874000D02*
X77492000Y-134874000D01*
X84544001Y-144996001D02*
X85344000Y-145796000D01*
X80373010Y-140825010D02*
X84544001Y-144996001D01*
X80373010Y-137755010D02*
X80373010Y-140825010D01*
X79248000Y-136630000D02*
X80373010Y-137755010D01*
X86469001Y-134729001D02*
X86143999Y-134403999D01*
X86469001Y-144670999D02*
X86469001Y-134729001D01*
X86143999Y-134403999D02*
X85344000Y-133604000D01*
X85344000Y-145796000D02*
X86469001Y-144670999D01*
X86143999Y-122211999D02*
X85344000Y-121412000D01*
X86469001Y-122537001D02*
X86143999Y-122211999D01*
X85344000Y-132472630D02*
X86469001Y-131347629D01*
X86469001Y-131347629D02*
X86469001Y-122537001D01*
X85344000Y-133604000D02*
X85344000Y-132472630D01*
X81643001Y-106408001D02*
X81317999Y-106082999D01*
X81643001Y-116906763D02*
X81643001Y-106408001D01*
X85344000Y-120607762D02*
X81643001Y-116906763D01*
X81317999Y-106082999D02*
X80518000Y-105283000D01*
X85344000Y-121412000D02*
X85344000Y-120607762D01*
X85344000Y-121412000D02*
X88773000Y-121412000D01*
X99695000Y-110490000D02*
X103124000Y-110490000D01*
X88773000Y-121412000D02*
X99695000Y-110490000D01*
X71471600Y-145034000D02*
X72898000Y-145034000D01*
X70358000Y-145034000D02*
X71471600Y-145034000D01*
X76686000Y-145034000D02*
X79248000Y-147596000D01*
X72898000Y-145034000D02*
X76686000Y-145034000D01*
X79248000Y-147596000D02*
X79248000Y-151003000D01*
X79248000Y-151003000D02*
X83820000Y-155575000D01*
X90805000Y-155575000D02*
X92964000Y-153416000D01*
X83820000Y-155575000D02*
X90805000Y-155575000D01*
X91838999Y-142349001D02*
X92164001Y-142023999D01*
X92164001Y-142023999D02*
X92964000Y-141224000D01*
X91838999Y-152290999D02*
X91838999Y-142349001D01*
X92964000Y-153416000D02*
X91838999Y-152290999D01*
X92164001Y-129831999D02*
X92964000Y-129032000D01*
X91838999Y-130157001D02*
X92164001Y-129831999D01*
X91838999Y-140098999D02*
X91838999Y-130157001D01*
X92964000Y-141224000D02*
X91838999Y-140098999D01*
X99160998Y-113030000D02*
X101921919Y-113030000D01*
X91838999Y-120351999D02*
X99160998Y-113030000D01*
X91838999Y-127906999D02*
X91838999Y-120351999D01*
X101921919Y-113030000D02*
X103124000Y-113030000D01*
X92964000Y-129032000D02*
X91838999Y-127906999D01*
X102997000Y-133350000D02*
X103124000Y-133350000D01*
X98933000Y-137414000D02*
X102997000Y-133350000D01*
D23*
G36*
X78770627Y-83738882D02*
G01*
X78494457Y-84156852D01*
X80518000Y-86180395D01*
X82541543Y-84156852D01*
X82265373Y-83738882D01*
X82226206Y-83718000D01*
X101161694Y-83718000D01*
X101122627Y-83738882D01*
X100846457Y-84156852D01*
X102870000Y-86180395D01*
X104893543Y-84156852D01*
X104617373Y-83738882D01*
X104578206Y-83718000D01*
X105512001Y-83718000D01*
X105512001Y-84651696D01*
X105491118Y-84612627D01*
X105073148Y-84336457D01*
X103049605Y-86360000D01*
X105073148Y-88383543D01*
X105491118Y-88107373D01*
X105512001Y-88068204D01*
X105512000Y-153231695D01*
X105491118Y-153192627D01*
X105073148Y-152916457D01*
X103049605Y-154940000D01*
X105073148Y-156963543D01*
X105491118Y-156687373D01*
X105512000Y-156648206D01*
X105512000Y-157582000D01*
X104578306Y-157582000D01*
X104617373Y-157561118D01*
X104893543Y-157143148D01*
X102870000Y-155119605D01*
X100846457Y-157143148D01*
X101122627Y-157561118D01*
X101161794Y-157582000D01*
X74098306Y-157582000D01*
X74137373Y-157561118D01*
X74413543Y-157143148D01*
X72390000Y-155119605D01*
X70366457Y-157143148D01*
X70642627Y-157561118D01*
X70681794Y-157582000D01*
X67208000Y-157582000D01*
X67208000Y-154943328D01*
X69239832Y-154943328D01*
X69301010Y-155557831D01*
X69480897Y-156148592D01*
X69768882Y-156687373D01*
X70186852Y-156963543D01*
X72210395Y-154940000D01*
X72569605Y-154940000D01*
X74593148Y-156963543D01*
X75011118Y-156687373D01*
X75301649Y-156142443D01*
X75480287Y-155551304D01*
X75540168Y-154936672D01*
X75478990Y-154322169D01*
X75299103Y-153731408D01*
X75011118Y-153192627D01*
X74593148Y-152916457D01*
X72569605Y-154940000D01*
X72210395Y-154940000D01*
X70186852Y-152916457D01*
X69768882Y-153192627D01*
X69478351Y-153737557D01*
X69299713Y-154328696D01*
X69239832Y-154943328D01*
X67208000Y-154943328D01*
X67208000Y-152736852D01*
X70366457Y-152736852D01*
X72390000Y-154760395D01*
X74413543Y-152736852D01*
X74137373Y-152318882D01*
X73592443Y-152028351D01*
X73001304Y-151849713D01*
X72386672Y-151789832D01*
X71772169Y-151851010D01*
X71181408Y-152030897D01*
X70642627Y-152318882D01*
X70366457Y-152736852D01*
X67208000Y-152736852D01*
X67208000Y-140313026D01*
X68903042Y-140313026D01*
X68948778Y-140463814D01*
X69075316Y-140728944D01*
X69251146Y-140964293D01*
X69469512Y-141160817D01*
X69575770Y-141224000D01*
X69469512Y-141287183D01*
X69251146Y-141483707D01*
X69075316Y-141719056D01*
X68948778Y-141984186D01*
X68903042Y-142134974D01*
X69024183Y-142367000D01*
X70231000Y-142367000D01*
X70231000Y-140081000D01*
X70485000Y-140081000D01*
X70485000Y-142367000D01*
X72771000Y-142367000D01*
X72771000Y-140081000D01*
X73025000Y-140081000D01*
X73025000Y-142367000D01*
X74231817Y-142367000D01*
X74352958Y-142134974D01*
X74307222Y-141984186D01*
X74180684Y-141719056D01*
X74039440Y-141530000D01*
X77809928Y-141530000D01*
X77822188Y-141654482D01*
X77858498Y-141774180D01*
X77917463Y-141884494D01*
X77996815Y-141981185D01*
X78093506Y-142060537D01*
X78191656Y-142113000D01*
X78093506Y-142165463D01*
X77996815Y-142244815D01*
X77917463Y-142341506D01*
X77858498Y-142451820D01*
X77822188Y-142571518D01*
X77809928Y-142696000D01*
X77813000Y-143710250D01*
X77971750Y-143869000D01*
X79121000Y-143869000D01*
X79121000Y-142219750D01*
X79014250Y-142113000D01*
X79121000Y-142006250D01*
X79121000Y-140357000D01*
X77971750Y-140357000D01*
X77813000Y-140515750D01*
X77809928Y-141530000D01*
X74039440Y-141530000D01*
X74004854Y-141483707D01*
X73786488Y-141287183D01*
X73680230Y-141224000D01*
X73786488Y-141160817D01*
X74004854Y-140964293D01*
X74180684Y-140728944D01*
X74307222Y-140463814D01*
X74352958Y-140313026D01*
X74231817Y-140081000D01*
X73025000Y-140081000D01*
X72771000Y-140081000D01*
X70485000Y-140081000D01*
X70231000Y-140081000D01*
X69024183Y-140081000D01*
X68903042Y-140313026D01*
X67208000Y-140313026D01*
X67208000Y-137773026D01*
X68903042Y-137773026D01*
X68948778Y-137923814D01*
X69075316Y-138188944D01*
X69251146Y-138424293D01*
X69469512Y-138620817D01*
X69575770Y-138684000D01*
X69469512Y-138747183D01*
X69251146Y-138943707D01*
X69075316Y-139179056D01*
X68948778Y-139444186D01*
X68903042Y-139594974D01*
X69024183Y-139827000D01*
X70231000Y-139827000D01*
X70231000Y-137541000D01*
X70485000Y-137541000D01*
X70485000Y-139827000D01*
X72771000Y-139827000D01*
X72771000Y-137541000D01*
X73025000Y-137541000D01*
X73025000Y-139827000D01*
X74231817Y-139827000D01*
X74352958Y-139594974D01*
X74307222Y-139444186D01*
X74180684Y-139179056D01*
X74004854Y-138943707D01*
X73786488Y-138747183D01*
X73680230Y-138684000D01*
X73786488Y-138620817D01*
X74004854Y-138424293D01*
X74180684Y-138188944D01*
X74307222Y-137923814D01*
X74352958Y-137773026D01*
X74231817Y-137541000D01*
X73025000Y-137541000D01*
X72771000Y-137541000D01*
X70485000Y-137541000D01*
X70231000Y-137541000D01*
X69024183Y-137541000D01*
X68903042Y-137773026D01*
X67208000Y-137773026D01*
X67208000Y-134874000D01*
X68852149Y-134874000D01*
X68881084Y-135167777D01*
X68966775Y-135450264D01*
X69105931Y-135710606D01*
X69293203Y-135938797D01*
X69521394Y-136126069D01*
X69565910Y-136149863D01*
X69469512Y-136207183D01*
X69251146Y-136403707D01*
X69075316Y-136639056D01*
X68948778Y-136904186D01*
X68903042Y-137054974D01*
X69024183Y-137287000D01*
X70231000Y-137287000D01*
X70231000Y-137267000D01*
X70485000Y-137267000D01*
X70485000Y-137287000D01*
X72771000Y-137287000D01*
X72771000Y-137267000D01*
X73025000Y-137267000D01*
X73025000Y-137287000D01*
X74231817Y-137287000D01*
X74352958Y-137054974D01*
X74307222Y-136904186D01*
X74180684Y-136639056D01*
X74004854Y-136403707D01*
X73786488Y-136207183D01*
X73690090Y-136149863D01*
X73734606Y-136126069D01*
X73962797Y-135938797D01*
X74150069Y-135710606D01*
X74191016Y-135634000D01*
X77177199Y-135634000D01*
X77809928Y-136266729D01*
X77809928Y-137680000D01*
X77826992Y-137853254D01*
X77877528Y-138019850D01*
X77959595Y-138173386D01*
X78070038Y-138307962D01*
X78146813Y-138370969D01*
X78093506Y-138399463D01*
X77996815Y-138478815D01*
X77917463Y-138575506D01*
X77858498Y-138685820D01*
X77822188Y-138805518D01*
X77809928Y-138930000D01*
X77813000Y-139944250D01*
X77971750Y-140103000D01*
X79121000Y-140103000D01*
X79121000Y-140083000D01*
X79375000Y-140083000D01*
X79375000Y-140103000D01*
X79395000Y-140103000D01*
X79395000Y-140357000D01*
X79375000Y-140357000D01*
X79375000Y-142006250D01*
X79481750Y-142113000D01*
X79375000Y-142219750D01*
X79375000Y-143869000D01*
X80524250Y-143869000D01*
X80683000Y-143710250D01*
X80686072Y-142696000D01*
X80673812Y-142571518D01*
X80637502Y-142451820D01*
X80578537Y-142341506D01*
X80499185Y-142244815D01*
X80402494Y-142165463D01*
X80304344Y-142113000D01*
X80402494Y-142060537D01*
X80474578Y-142001379D01*
X83943292Y-145470094D01*
X83929764Y-145514691D01*
X83902057Y-145796000D01*
X83929764Y-146077309D01*
X84011818Y-146347808D01*
X84145068Y-146597101D01*
X84324392Y-146815608D01*
X84542899Y-146994932D01*
X84675858Y-147066000D01*
X84542899Y-147137068D01*
X84324392Y-147316392D01*
X84145068Y-147534899D01*
X84011818Y-147784192D01*
X83929764Y-148054691D01*
X83902057Y-148336000D01*
X83929764Y-148617309D01*
X84011818Y-148887808D01*
X84145068Y-149137101D01*
X84324392Y-149355608D01*
X84542899Y-149534932D01*
X84675858Y-149606000D01*
X84542899Y-149677068D01*
X84324392Y-149856392D01*
X84145068Y-150074899D01*
X84011818Y-150324192D01*
X83929764Y-150594691D01*
X83902057Y-150876000D01*
X83929764Y-151157309D01*
X84011818Y-151427808D01*
X84145068Y-151677101D01*
X84324392Y-151895608D01*
X84542899Y-152074932D01*
X84680682Y-152148579D01*
X84488869Y-152263615D01*
X84280481Y-152452586D01*
X84112963Y-152678580D01*
X83992754Y-152932913D01*
X83952096Y-153066961D01*
X84074085Y-153289000D01*
X85217000Y-153289000D01*
X85217000Y-153269000D01*
X85471000Y-153269000D01*
X85471000Y-153289000D01*
X86613915Y-153289000D01*
X86735904Y-153066961D01*
X86695246Y-152932913D01*
X86575037Y-152678580D01*
X86407519Y-152452586D01*
X86199131Y-152263615D01*
X86007318Y-152148579D01*
X86145101Y-152074932D01*
X86363608Y-151895608D01*
X86542932Y-151677101D01*
X86676182Y-151427808D01*
X86758236Y-151157309D01*
X86785943Y-150876000D01*
X86758236Y-150594691D01*
X86676182Y-150324192D01*
X86542932Y-150074899D01*
X86363608Y-149856392D01*
X86145101Y-149677068D01*
X86012142Y-149606000D01*
X86145101Y-149534932D01*
X86363608Y-149355608D01*
X86542932Y-149137101D01*
X86676182Y-148887808D01*
X86758236Y-148617309D01*
X86785943Y-148336000D01*
X86758236Y-148054691D01*
X86676182Y-147784192D01*
X86542932Y-147534899D01*
X86363608Y-147316392D01*
X86145101Y-147137068D01*
X86012142Y-147066000D01*
X86145101Y-146994932D01*
X86363608Y-146815608D01*
X86542932Y-146597101D01*
X86676182Y-146347808D01*
X86758236Y-146077309D01*
X86785943Y-145796000D01*
X86758236Y-145514691D01*
X86744708Y-145470094D01*
X86980005Y-145234797D01*
X87009002Y-145211000D01*
X87103975Y-145095275D01*
X87174547Y-144963246D01*
X87218004Y-144819985D01*
X87229001Y-144708332D01*
X87229001Y-144708324D01*
X87232677Y-144670999D01*
X87229001Y-144633674D01*
X87229001Y-134766323D01*
X87232677Y-134729000D01*
X87229001Y-134691677D01*
X87229001Y-134691668D01*
X87218004Y-134580015D01*
X87174547Y-134436754D01*
X87103975Y-134304725D01*
X87009002Y-134189000D01*
X86979998Y-134165197D01*
X86744708Y-133929907D01*
X86758236Y-133885309D01*
X86785943Y-133604000D01*
X86758236Y-133322691D01*
X86676182Y-133052192D01*
X86542932Y-132802899D01*
X86363608Y-132584392D01*
X86332538Y-132558893D01*
X86980005Y-131911427D01*
X87009002Y-131887630D01*
X87103975Y-131771905D01*
X87174547Y-131639876D01*
X87218004Y-131496615D01*
X87229001Y-131384962D01*
X87229001Y-131384954D01*
X87232677Y-131347629D01*
X87229001Y-131310304D01*
X87229001Y-122574323D01*
X87232677Y-122537000D01*
X87229001Y-122499677D01*
X87229001Y-122499668D01*
X87218004Y-122388015D01*
X87174547Y-122244754D01*
X87135659Y-122172000D01*
X88735678Y-122172000D01*
X88773000Y-122175676D01*
X88810322Y-122172000D01*
X88810333Y-122172000D01*
X88921986Y-122161003D01*
X89065247Y-122117546D01*
X89197276Y-122046974D01*
X89313001Y-121952001D01*
X89336804Y-121922997D01*
X91104457Y-120155344D01*
X91095921Y-120183486D01*
X91089997Y-120203014D01*
X91075323Y-120351999D01*
X91079000Y-120389331D01*
X91078999Y-127869677D01*
X91075323Y-127906999D01*
X91078999Y-127944321D01*
X91078999Y-127944331D01*
X91089996Y-128055984D01*
X91133453Y-128199245D01*
X91204025Y-128331275D01*
X91243870Y-128379825D01*
X91298998Y-128447000D01*
X91328001Y-128470803D01*
X91563292Y-128706094D01*
X91549764Y-128750691D01*
X91522057Y-129032000D01*
X91549764Y-129313309D01*
X91563292Y-129357907D01*
X91327997Y-129593202D01*
X91298999Y-129617000D01*
X91275201Y-129645998D01*
X91275200Y-129645999D01*
X91204025Y-129732725D01*
X91133453Y-129864755D01*
X91103179Y-129964559D01*
X91093820Y-129995414D01*
X91089997Y-130008016D01*
X91075323Y-130157001D01*
X91079000Y-130194333D01*
X91078999Y-140061677D01*
X91075323Y-140098999D01*
X91078999Y-140136321D01*
X91078999Y-140136331D01*
X91089996Y-140247984D01*
X91109726Y-140313026D01*
X91133453Y-140391245D01*
X91204025Y-140523275D01*
X91211813Y-140532764D01*
X91298998Y-140639000D01*
X91328001Y-140662803D01*
X91563292Y-140898094D01*
X91549764Y-140942691D01*
X91522057Y-141224000D01*
X91549764Y-141505309D01*
X91563292Y-141549907D01*
X91327997Y-141785202D01*
X91298999Y-141809000D01*
X91275201Y-141837998D01*
X91275200Y-141837999D01*
X91204025Y-141924725D01*
X91133453Y-142056755D01*
X91103406Y-142155812D01*
X91093820Y-142187414D01*
X91089997Y-142200016D01*
X91075323Y-142349001D01*
X91079000Y-142386333D01*
X91078999Y-152253677D01*
X91075323Y-152290999D01*
X91078999Y-152328321D01*
X91078999Y-152328331D01*
X91089996Y-152439984D01*
X91133453Y-152583245D01*
X91204025Y-152715275D01*
X91221733Y-152736852D01*
X91298998Y-152831000D01*
X91328001Y-152854803D01*
X91563292Y-153090094D01*
X91549764Y-153134691D01*
X91522057Y-153416000D01*
X91549764Y-153697309D01*
X91563292Y-153741906D01*
X90490199Y-154815000D01*
X85471002Y-154815000D01*
X85471002Y-154686625D01*
X85693040Y-154807909D01*
X85957881Y-154713070D01*
X86199131Y-154568385D01*
X86407519Y-154379414D01*
X86575037Y-154153420D01*
X86695246Y-153899087D01*
X86735904Y-153765039D01*
X86613915Y-153543000D01*
X85471000Y-153543000D01*
X85471000Y-153563000D01*
X85217000Y-153563000D01*
X85217000Y-153543000D01*
X84074085Y-153543000D01*
X83952096Y-153765039D01*
X83992754Y-153899087D01*
X84112963Y-154153420D01*
X84280481Y-154379414D01*
X84488869Y-154568385D01*
X84730119Y-154713070D01*
X84994960Y-154807909D01*
X85216998Y-154686625D01*
X85216998Y-154815000D01*
X84134803Y-154815000D01*
X80008000Y-150688199D01*
X80008000Y-149505861D01*
X80137850Y-149466472D01*
X80291386Y-149384405D01*
X80425962Y-149273962D01*
X80536405Y-149139386D01*
X80618472Y-148985850D01*
X80669008Y-148819254D01*
X80686072Y-148646000D01*
X80686072Y-146546000D01*
X80669008Y-146372746D01*
X80618472Y-146206150D01*
X80536405Y-146052614D01*
X80425962Y-145918038D01*
X80349187Y-145855031D01*
X80402494Y-145826537D01*
X80499185Y-145747185D01*
X80578537Y-145650494D01*
X80637502Y-145540180D01*
X80673812Y-145420482D01*
X80686072Y-145296000D01*
X80683000Y-144281750D01*
X80524250Y-144123000D01*
X79375000Y-144123000D01*
X79375000Y-144143000D01*
X79121000Y-144143000D01*
X79121000Y-144123000D01*
X77971750Y-144123000D01*
X77813000Y-144281750D01*
X77810571Y-145083770D01*
X77249804Y-144523003D01*
X77226001Y-144493999D01*
X77110276Y-144399026D01*
X76978247Y-144328454D01*
X76834986Y-144284997D01*
X76723333Y-144274000D01*
X76723322Y-144274000D01*
X76686000Y-144270324D01*
X76648678Y-144274000D01*
X74191016Y-144274000D01*
X74150069Y-144197394D01*
X73962797Y-143969203D01*
X73734606Y-143781931D01*
X73690090Y-143758137D01*
X73786488Y-143700817D01*
X74004854Y-143504293D01*
X74180684Y-143268944D01*
X74307222Y-143003814D01*
X74352958Y-142853026D01*
X74231817Y-142621000D01*
X73025000Y-142621000D01*
X73025000Y-142641000D01*
X72771000Y-142641000D01*
X72771000Y-142621000D01*
X70485000Y-142621000D01*
X70485000Y-142641000D01*
X70231000Y-142641000D01*
X70231000Y-142621000D01*
X69024183Y-142621000D01*
X68903042Y-142853026D01*
X68948778Y-143003814D01*
X69075316Y-143268944D01*
X69251146Y-143504293D01*
X69314574Y-143561376D01*
X69250220Y-143580898D01*
X69139906Y-143639863D01*
X69043215Y-143719215D01*
X68963863Y-143815906D01*
X68904898Y-143926220D01*
X68868588Y-144045918D01*
X68856328Y-144170400D01*
X68856328Y-145897600D01*
X68868588Y-146022082D01*
X68904898Y-146141780D01*
X68963863Y-146252094D01*
X69043215Y-146348785D01*
X69139906Y-146428137D01*
X69250220Y-146487102D01*
X69369918Y-146523412D01*
X69494400Y-146535672D01*
X71221600Y-146535672D01*
X71346082Y-146523412D01*
X71465780Y-146487102D01*
X71576094Y-146428137D01*
X71672785Y-146348785D01*
X71752137Y-146252094D01*
X71811102Y-146141780D01*
X71826586Y-146090735D01*
X71833203Y-146098797D01*
X72061394Y-146286069D01*
X72321736Y-146425225D01*
X72604223Y-146510916D01*
X72824381Y-146532600D01*
X72971619Y-146532600D01*
X73191777Y-146510916D01*
X73474264Y-146425225D01*
X73734606Y-146286069D01*
X73962797Y-146098797D01*
X74150069Y-145870606D01*
X74191016Y-145794000D01*
X76371199Y-145794000D01*
X77809928Y-147232730D01*
X77809928Y-148646000D01*
X77826992Y-148819254D01*
X77877528Y-148985850D01*
X77959595Y-149139386D01*
X78070038Y-149273962D01*
X78204614Y-149384405D01*
X78358150Y-149466472D01*
X78488001Y-149505861D01*
X78488001Y-150965668D01*
X78484324Y-151003000D01*
X78498998Y-151151985D01*
X78542454Y-151295246D01*
X78613026Y-151427276D01*
X78684201Y-151514002D01*
X78708000Y-151543001D01*
X78736998Y-151566799D01*
X83256205Y-156086008D01*
X83279999Y-156115001D01*
X83308992Y-156138795D01*
X83308996Y-156138799D01*
X83379685Y-156196811D01*
X83395724Y-156209974D01*
X83527753Y-156280546D01*
X83671014Y-156324003D01*
X83782667Y-156335000D01*
X83782676Y-156335000D01*
X83819999Y-156338676D01*
X83857322Y-156335000D01*
X90767678Y-156335000D01*
X90805000Y-156338676D01*
X90842322Y-156335000D01*
X90842333Y-156335000D01*
X90953986Y-156324003D01*
X91097247Y-156280546D01*
X91229276Y-156209974D01*
X91345001Y-156115001D01*
X91368804Y-156085997D01*
X92511473Y-154943328D01*
X99719832Y-154943328D01*
X99781010Y-155557831D01*
X99960897Y-156148592D01*
X100248882Y-156687373D01*
X100666852Y-156963543D01*
X102690395Y-154940000D01*
X100666852Y-152916457D01*
X100248882Y-153192627D01*
X99958351Y-153737557D01*
X99779713Y-154328696D01*
X99719832Y-154943328D01*
X92511473Y-154943328D01*
X92638094Y-154816708D01*
X92682691Y-154830236D01*
X92893508Y-154851000D01*
X93034492Y-154851000D01*
X93245309Y-154830236D01*
X93515808Y-154748182D01*
X93765101Y-154614932D01*
X93983608Y-154435608D01*
X94162932Y-154217101D01*
X94296182Y-153967808D01*
X94378236Y-153697309D01*
X94405943Y-153416000D01*
X94378236Y-153134691D01*
X94296182Y-152864192D01*
X94228118Y-152736852D01*
X100846457Y-152736852D01*
X102870000Y-154760395D01*
X104893543Y-152736852D01*
X104617373Y-152318882D01*
X104072443Y-152028351D01*
X103481304Y-151849713D01*
X102866672Y-151789832D01*
X102252169Y-151851010D01*
X101661408Y-152030897D01*
X101122627Y-152318882D01*
X100846457Y-152736852D01*
X94228118Y-152736852D01*
X94162932Y-152614899D01*
X93983608Y-152396392D01*
X93765101Y-152217068D01*
X93627318Y-152143421D01*
X93819131Y-152028385D01*
X94027519Y-151839414D01*
X94195037Y-151613420D01*
X94315246Y-151359087D01*
X94355904Y-151225039D01*
X94233915Y-151003000D01*
X93091000Y-151003000D01*
X93091000Y-151023000D01*
X92837000Y-151023000D01*
X92837000Y-151003000D01*
X92817000Y-151003000D01*
X92817000Y-150749000D01*
X92837000Y-150749000D01*
X92837000Y-150729000D01*
X93091000Y-150729000D01*
X93091000Y-150749000D01*
X94233915Y-150749000D01*
X94355904Y-150526961D01*
X94315246Y-150392913D01*
X94195037Y-150138580D01*
X94027519Y-149912586D01*
X93819131Y-149723615D01*
X93627318Y-149608579D01*
X93765101Y-149534932D01*
X93983608Y-149355608D01*
X94162932Y-149137101D01*
X94296182Y-148887808D01*
X94378236Y-148617309D01*
X94405943Y-148336000D01*
X94378236Y-148054691D01*
X94296182Y-147784192D01*
X94162932Y-147534899D01*
X93983608Y-147316392D01*
X93870518Y-147223581D01*
X93888482Y-147221812D01*
X94008180Y-147185502D01*
X94118494Y-147126537D01*
X94215185Y-147047185D01*
X94294537Y-146950494D01*
X94353502Y-146840180D01*
X94389812Y-146720482D01*
X94402072Y-146596000D01*
X94402072Y-144996000D01*
X94389812Y-144871518D01*
X94353502Y-144751820D01*
X94294537Y-144641506D01*
X94215185Y-144544815D01*
X94118494Y-144465463D01*
X94008180Y-144406498D01*
X93888482Y-144370188D01*
X93764000Y-144357928D01*
X92598999Y-144357928D01*
X92598999Y-142663802D01*
X92638093Y-142624708D01*
X92682691Y-142638236D01*
X92893508Y-142659000D01*
X93034492Y-142659000D01*
X93245309Y-142638236D01*
X93515808Y-142556182D01*
X93765101Y-142422932D01*
X93983608Y-142243608D01*
X94162932Y-142025101D01*
X94296182Y-141775808D01*
X94378236Y-141505309D01*
X94405943Y-141224000D01*
X94378236Y-140942691D01*
X94296182Y-140672192D01*
X94162932Y-140422899D01*
X93983608Y-140204392D01*
X93765101Y-140025068D01*
X93627318Y-139951421D01*
X93819131Y-139836385D01*
X94027519Y-139647414D01*
X94195037Y-139421420D01*
X94315246Y-139167087D01*
X94355904Y-139033039D01*
X94233915Y-138811000D01*
X93091000Y-138811000D01*
X93091000Y-138831000D01*
X92837000Y-138831000D01*
X92837000Y-138811000D01*
X92817000Y-138811000D01*
X92817000Y-138557000D01*
X92837000Y-138557000D01*
X92837000Y-138537000D01*
X93091000Y-138537000D01*
X93091000Y-138557000D01*
X94233915Y-138557000D01*
X94355904Y-138334961D01*
X94315246Y-138200913D01*
X94195037Y-137946580D01*
X94027519Y-137720586D01*
X93819131Y-137531615D01*
X93627318Y-137416579D01*
X93765101Y-137342932D01*
X93983608Y-137163608D01*
X94162932Y-136945101D01*
X94296182Y-136695808D01*
X94378236Y-136425309D01*
X94405943Y-136144000D01*
X94378236Y-135862691D01*
X94296182Y-135592192D01*
X94162932Y-135342899D01*
X93983608Y-135124392D01*
X93870518Y-135031581D01*
X93888482Y-135029812D01*
X94008180Y-134993502D01*
X94118494Y-134934537D01*
X94215185Y-134855185D01*
X94294537Y-134758494D01*
X94353502Y-134648180D01*
X94389812Y-134528482D01*
X94402072Y-134404000D01*
X94402072Y-132804000D01*
X94389812Y-132679518D01*
X94353502Y-132559820D01*
X94294537Y-132449506D01*
X94215185Y-132352815D01*
X94118494Y-132273463D01*
X94008180Y-132214498D01*
X93888482Y-132178188D01*
X93764000Y-132165928D01*
X92598999Y-132165928D01*
X92598999Y-130471802D01*
X92638093Y-130432708D01*
X92682691Y-130446236D01*
X92893508Y-130467000D01*
X93034492Y-130467000D01*
X93245309Y-130446236D01*
X93515808Y-130364182D01*
X93765101Y-130230932D01*
X93983608Y-130051608D01*
X94162932Y-129833101D01*
X94296182Y-129583808D01*
X94378236Y-129313309D01*
X94405943Y-129032000D01*
X94378236Y-128750691D01*
X94296182Y-128480192D01*
X94162932Y-128230899D01*
X93983608Y-128012392D01*
X93765101Y-127833068D01*
X93627318Y-127759421D01*
X93819131Y-127644385D01*
X94027519Y-127455414D01*
X94195037Y-127229420D01*
X94315246Y-126975087D01*
X94355904Y-126841039D01*
X94233915Y-126619000D01*
X93091000Y-126619000D01*
X93091000Y-126639000D01*
X92837000Y-126639000D01*
X92837000Y-126619000D01*
X92817000Y-126619000D01*
X92817000Y-126365000D01*
X92837000Y-126365000D01*
X92837000Y-126345000D01*
X93091000Y-126345000D01*
X93091000Y-126365000D01*
X94233915Y-126365000D01*
X94355904Y-126142961D01*
X94315246Y-126008913D01*
X94195037Y-125754580D01*
X94027519Y-125528586D01*
X93819131Y-125339615D01*
X93627318Y-125224579D01*
X93765101Y-125150932D01*
X93983608Y-124971608D01*
X94162932Y-124753101D01*
X94296182Y-124503808D01*
X94378236Y-124233309D01*
X94405943Y-123952000D01*
X94378236Y-123670691D01*
X94296182Y-123400192D01*
X94162932Y-123150899D01*
X93983608Y-122932392D01*
X93870518Y-122839581D01*
X93888482Y-122837812D01*
X94008180Y-122801502D01*
X94118494Y-122742537D01*
X94215185Y-122663185D01*
X94294537Y-122566494D01*
X94353502Y-122456180D01*
X94389812Y-122336482D01*
X94402072Y-122212000D01*
X94402072Y-120612000D01*
X94389812Y-120487518D01*
X94353502Y-120367820D01*
X94294537Y-120257506D01*
X94215185Y-120160815D01*
X94118494Y-120081463D01*
X94008180Y-120022498D01*
X93888482Y-119986188D01*
X93764000Y-119973928D01*
X93291871Y-119973928D01*
X99475800Y-113790000D01*
X101846405Y-113790000D01*
X101883294Y-113859014D01*
X102068866Y-114085134D01*
X102294986Y-114270706D01*
X102349791Y-114300000D01*
X102294986Y-114329294D01*
X102068866Y-114514866D01*
X101883294Y-114740986D01*
X101745401Y-114998966D01*
X101660487Y-115278889D01*
X101631815Y-115570000D01*
X101660487Y-115861111D01*
X101745401Y-116141034D01*
X101883294Y-116399014D01*
X102068866Y-116625134D01*
X102294986Y-116810706D01*
X102349791Y-116840000D01*
X102294986Y-116869294D01*
X102068866Y-117054866D01*
X101883294Y-117280986D01*
X101745401Y-117538966D01*
X101660487Y-117818889D01*
X101631815Y-118110000D01*
X101660487Y-118401111D01*
X101745401Y-118681034D01*
X101883294Y-118939014D01*
X102068866Y-119165134D01*
X102294986Y-119350706D01*
X102349791Y-119380000D01*
X102294986Y-119409294D01*
X102068866Y-119594866D01*
X101883294Y-119820986D01*
X101745401Y-120078966D01*
X101660487Y-120358889D01*
X101631815Y-120650000D01*
X101660487Y-120941111D01*
X101745401Y-121221034D01*
X101883294Y-121479014D01*
X102068866Y-121705134D01*
X102294986Y-121890706D01*
X102349791Y-121920000D01*
X102294986Y-121949294D01*
X102068866Y-122134866D01*
X101883294Y-122360986D01*
X101745401Y-122618966D01*
X101660487Y-122898889D01*
X101631815Y-123190000D01*
X101660487Y-123481111D01*
X101745401Y-123761034D01*
X101883294Y-124019014D01*
X102068866Y-124245134D01*
X102294986Y-124430706D01*
X102349791Y-124460000D01*
X102294986Y-124489294D01*
X102068866Y-124674866D01*
X101883294Y-124900986D01*
X101745401Y-125158966D01*
X101660487Y-125438889D01*
X101631815Y-125730000D01*
X101660487Y-126021111D01*
X101745401Y-126301034D01*
X101883294Y-126559014D01*
X102068866Y-126785134D01*
X102294986Y-126970706D01*
X102349791Y-127000000D01*
X102294986Y-127029294D01*
X102068866Y-127214866D01*
X101883294Y-127440986D01*
X101745401Y-127698966D01*
X101660487Y-127978889D01*
X101631815Y-128270000D01*
X101660487Y-128561111D01*
X101745401Y-128841034D01*
X101883294Y-129099014D01*
X102068866Y-129325134D01*
X102294986Y-129510706D01*
X102349791Y-129540000D01*
X102294986Y-129569294D01*
X102068866Y-129754866D01*
X101883294Y-129980986D01*
X101745401Y-130238966D01*
X101660487Y-130518889D01*
X101631815Y-130810000D01*
X101660487Y-131101111D01*
X101745401Y-131381034D01*
X101883294Y-131639014D01*
X102068866Y-131865134D01*
X102294986Y-132050706D01*
X102349791Y-132080000D01*
X102294986Y-132109294D01*
X102068866Y-132294866D01*
X101883294Y-132520986D01*
X101745401Y-132778966D01*
X101660487Y-133058889D01*
X101631815Y-133350000D01*
X101657851Y-133614347D01*
X98893199Y-136379000D01*
X98831061Y-136379000D01*
X98631102Y-136418774D01*
X98442744Y-136496795D01*
X98273226Y-136610063D01*
X98129063Y-136754226D01*
X98015795Y-136923744D01*
X97937774Y-137112102D01*
X97898000Y-137312061D01*
X97898000Y-137515939D01*
X97937774Y-137715898D01*
X98015795Y-137904256D01*
X98129063Y-138073774D01*
X98273226Y-138217937D01*
X98442744Y-138331205D01*
X98631102Y-138409226D01*
X98831061Y-138449000D01*
X99034939Y-138449000D01*
X99234898Y-138409226D01*
X99423256Y-138331205D01*
X99592774Y-138217937D01*
X99736937Y-138073774D01*
X99850205Y-137904256D01*
X99928226Y-137715898D01*
X99968000Y-137515939D01*
X99968000Y-137453801D01*
X101174911Y-136246890D01*
X101682524Y-136246890D01*
X101727175Y-136394099D01*
X101852359Y-136656920D01*
X102026412Y-136890269D01*
X102242645Y-137085178D01*
X102492748Y-137234157D01*
X102767109Y-137331481D01*
X102997000Y-137210814D01*
X102997000Y-136017000D01*
X103251000Y-136017000D01*
X103251000Y-137210814D01*
X103480891Y-137331481D01*
X103755252Y-137234157D01*
X104005355Y-137085178D01*
X104221588Y-136890269D01*
X104395641Y-136656920D01*
X104520825Y-136394099D01*
X104565476Y-136246890D01*
X104444155Y-136017000D01*
X103251000Y-136017000D01*
X102997000Y-136017000D01*
X101803845Y-136017000D01*
X101682524Y-136246890D01*
X101174911Y-136246890D01*
X101753742Y-135668060D01*
X101803845Y-135763000D01*
X102997000Y-135763000D01*
X102997000Y-135743000D01*
X103251000Y-135743000D01*
X103251000Y-135763000D01*
X104444155Y-135763000D01*
X104565476Y-135533110D01*
X104520825Y-135385901D01*
X104395641Y-135123080D01*
X104221588Y-134889731D01*
X104005355Y-134694822D01*
X103888477Y-134625201D01*
X103953014Y-134590706D01*
X104179134Y-134405134D01*
X104364706Y-134179014D01*
X104502599Y-133921034D01*
X104587513Y-133641111D01*
X104616185Y-133350000D01*
X104587513Y-133058889D01*
X104502599Y-132778966D01*
X104364706Y-132520986D01*
X104179134Y-132294866D01*
X103953014Y-132109294D01*
X103898209Y-132080000D01*
X103953014Y-132050706D01*
X104179134Y-131865134D01*
X104364706Y-131639014D01*
X104502599Y-131381034D01*
X104587513Y-131101111D01*
X104616185Y-130810000D01*
X104587513Y-130518889D01*
X104502599Y-130238966D01*
X104364706Y-129980986D01*
X104179134Y-129754866D01*
X103953014Y-129569294D01*
X103898209Y-129540000D01*
X103953014Y-129510706D01*
X104179134Y-129325134D01*
X104364706Y-129099014D01*
X104502599Y-128841034D01*
X104587513Y-128561111D01*
X104616185Y-128270000D01*
X104587513Y-127978889D01*
X104502599Y-127698966D01*
X104364706Y-127440986D01*
X104179134Y-127214866D01*
X103953014Y-127029294D01*
X103898209Y-127000000D01*
X103953014Y-126970706D01*
X104179134Y-126785134D01*
X104364706Y-126559014D01*
X104502599Y-126301034D01*
X104587513Y-126021111D01*
X104616185Y-125730000D01*
X104587513Y-125438889D01*
X104502599Y-125158966D01*
X104364706Y-124900986D01*
X104179134Y-124674866D01*
X103953014Y-124489294D01*
X103898209Y-124460000D01*
X103953014Y-124430706D01*
X104179134Y-124245134D01*
X104364706Y-124019014D01*
X104502599Y-123761034D01*
X104587513Y-123481111D01*
X104616185Y-123190000D01*
X104587513Y-122898889D01*
X104502599Y-122618966D01*
X104364706Y-122360986D01*
X104179134Y-122134866D01*
X103953014Y-121949294D01*
X103898209Y-121920000D01*
X103953014Y-121890706D01*
X104179134Y-121705134D01*
X104364706Y-121479014D01*
X104502599Y-121221034D01*
X104587513Y-120941111D01*
X104616185Y-120650000D01*
X104587513Y-120358889D01*
X104502599Y-120078966D01*
X104364706Y-119820986D01*
X104179134Y-119594866D01*
X103953014Y-119409294D01*
X103898209Y-119380000D01*
X103953014Y-119350706D01*
X104179134Y-119165134D01*
X104364706Y-118939014D01*
X104502599Y-118681034D01*
X104587513Y-118401111D01*
X104616185Y-118110000D01*
X104587513Y-117818889D01*
X104502599Y-117538966D01*
X104364706Y-117280986D01*
X104179134Y-117054866D01*
X103953014Y-116869294D01*
X103898209Y-116840000D01*
X103953014Y-116810706D01*
X104179134Y-116625134D01*
X104364706Y-116399014D01*
X104502599Y-116141034D01*
X104587513Y-115861111D01*
X104616185Y-115570000D01*
X104587513Y-115278889D01*
X104502599Y-114998966D01*
X104364706Y-114740986D01*
X104179134Y-114514866D01*
X103953014Y-114329294D01*
X103898209Y-114300000D01*
X103953014Y-114270706D01*
X104179134Y-114085134D01*
X104364706Y-113859014D01*
X104502599Y-113601034D01*
X104587513Y-113321111D01*
X104616185Y-113030000D01*
X104587513Y-112738889D01*
X104502599Y-112458966D01*
X104364706Y-112200986D01*
X104179134Y-111974866D01*
X103953014Y-111789294D01*
X103898209Y-111760000D01*
X103953014Y-111730706D01*
X104179134Y-111545134D01*
X104364706Y-111319014D01*
X104502599Y-111061034D01*
X104587513Y-110781111D01*
X104616185Y-110490000D01*
X104587513Y-110198889D01*
X104502599Y-109918966D01*
X104364706Y-109660986D01*
X104179134Y-109434866D01*
X104149313Y-109410393D01*
X104218180Y-109389502D01*
X104328494Y-109330537D01*
X104425185Y-109251185D01*
X104504537Y-109154494D01*
X104563502Y-109044180D01*
X104599812Y-108924482D01*
X104612072Y-108800000D01*
X104609000Y-108235750D01*
X104450250Y-108077000D01*
X103251000Y-108077000D01*
X103251000Y-108097000D01*
X102997000Y-108097000D01*
X102997000Y-108077000D01*
X101797750Y-108077000D01*
X101639000Y-108235750D01*
X101635928Y-108800000D01*
X101648188Y-108924482D01*
X101684498Y-109044180D01*
X101743463Y-109154494D01*
X101822815Y-109251185D01*
X101919506Y-109330537D01*
X102029820Y-109389502D01*
X102098687Y-109410393D01*
X102068866Y-109434866D01*
X101883294Y-109660986D01*
X101846405Y-109730000D01*
X99732333Y-109730000D01*
X99695000Y-109726323D01*
X99657667Y-109730000D01*
X99546014Y-109740997D01*
X99402753Y-109784454D01*
X99270724Y-109855026D01*
X99154999Y-109949999D01*
X99131201Y-109978997D01*
X94225921Y-114884278D01*
X94226023Y-114883865D01*
X94238910Y-114608983D01*
X94197922Y-114336867D01*
X94104636Y-114077977D01*
X94042656Y-113962020D01*
X93802565Y-113895040D01*
X93016605Y-114681000D01*
X93030748Y-114695143D01*
X92851143Y-114874748D01*
X92837000Y-114860605D01*
X92051040Y-115646565D01*
X92118020Y-115886656D01*
X92367048Y-116003756D01*
X92634135Y-116070023D01*
X92909017Y-116082910D01*
X93048263Y-116061936D01*
X88458199Y-120652000D01*
X86564901Y-120652000D01*
X86542932Y-120610899D01*
X86363608Y-120392392D01*
X86145101Y-120213068D01*
X85895808Y-120079818D01*
X85893262Y-120079046D01*
X85884001Y-120067761D01*
X85855003Y-120043963D01*
X85016166Y-119205126D01*
X85046980Y-119188656D01*
X85113960Y-118948565D01*
X84328000Y-118162605D01*
X84313858Y-118176748D01*
X84134253Y-117997143D01*
X84148395Y-117983000D01*
X84507605Y-117983000D01*
X85293565Y-118768960D01*
X85533656Y-118701980D01*
X85650756Y-118452952D01*
X85717023Y-118185865D01*
X85729910Y-117910983D01*
X85688922Y-117638867D01*
X85595636Y-117379977D01*
X85533656Y-117264020D01*
X85293565Y-117197040D01*
X84507605Y-117983000D01*
X84148395Y-117983000D01*
X83362435Y-117197040D01*
X83122344Y-117264020D01*
X83107221Y-117296182D01*
X82828474Y-117017435D01*
X83542040Y-117017435D01*
X84328000Y-117803395D01*
X85113960Y-117017435D01*
X85046980Y-116777344D01*
X84797952Y-116660244D01*
X84530865Y-116593977D01*
X84255983Y-116581090D01*
X83983867Y-116622078D01*
X83724977Y-116715364D01*
X83609020Y-116777344D01*
X83542040Y-117017435D01*
X82828474Y-117017435D01*
X82403001Y-116591962D01*
X82403001Y-106445323D01*
X82406677Y-106408000D01*
X82403001Y-106370677D01*
X82403001Y-106370668D01*
X82392004Y-106259015D01*
X82348547Y-106115754D01*
X82277975Y-105983725D01*
X82183002Y-105868000D01*
X82153998Y-105844197D01*
X81918708Y-105608907D01*
X81932236Y-105564309D01*
X81959943Y-105283000D01*
X81932236Y-105001691D01*
X81850182Y-104731192D01*
X81716932Y-104481899D01*
X81537608Y-104263392D01*
X81319101Y-104084068D01*
X81186142Y-104013000D01*
X81319101Y-103941932D01*
X81537608Y-103762608D01*
X81716932Y-103544101D01*
X81850182Y-103294808D01*
X81932236Y-103024309D01*
X81959943Y-102743000D01*
X86696057Y-102743000D01*
X86723764Y-103024309D01*
X86805818Y-103294808D01*
X86939068Y-103544101D01*
X87118392Y-103762608D01*
X87336899Y-103941932D01*
X87469858Y-104013000D01*
X87336899Y-104084068D01*
X87118392Y-104263392D01*
X86939068Y-104481899D01*
X86805818Y-104731192D01*
X86723764Y-105001691D01*
X86696057Y-105283000D01*
X86723764Y-105564309D01*
X86805818Y-105834808D01*
X86939068Y-106084101D01*
X87118392Y-106302608D01*
X87336899Y-106481932D01*
X87469858Y-106553000D01*
X87336899Y-106624068D01*
X87118392Y-106803392D01*
X86939068Y-107021899D01*
X86805818Y-107271192D01*
X86723764Y-107541691D01*
X86696057Y-107823000D01*
X86723764Y-108104309D01*
X86805818Y-108374808D01*
X86939068Y-108624101D01*
X87118392Y-108842608D01*
X87336899Y-109021932D01*
X87469858Y-109093000D01*
X87336899Y-109164068D01*
X87118392Y-109343392D01*
X86939068Y-109561899D01*
X86805818Y-109811192D01*
X86723764Y-110081691D01*
X86696057Y-110363000D01*
X86723764Y-110644309D01*
X86805818Y-110914808D01*
X86939068Y-111164101D01*
X87118392Y-111382608D01*
X87336899Y-111561932D01*
X87469858Y-111633000D01*
X87336899Y-111704068D01*
X87118392Y-111883392D01*
X86939068Y-112101899D01*
X86805818Y-112351192D01*
X86723764Y-112621691D01*
X86696057Y-112903000D01*
X86723764Y-113184309D01*
X86805818Y-113454808D01*
X86939068Y-113704101D01*
X87118392Y-113922608D01*
X87336899Y-114101932D01*
X87469858Y-114173000D01*
X87336899Y-114244068D01*
X87118392Y-114423392D01*
X86939068Y-114641899D01*
X86805818Y-114891192D01*
X86723764Y-115161691D01*
X86696057Y-115443000D01*
X86723764Y-115724309D01*
X86805818Y-115994808D01*
X86939068Y-116244101D01*
X87118392Y-116462608D01*
X87336899Y-116641932D01*
X87586192Y-116775182D01*
X87856691Y-116857236D01*
X88067508Y-116878000D01*
X88208492Y-116878000D01*
X88419309Y-116857236D01*
X88689808Y-116775182D01*
X88939101Y-116641932D01*
X89157608Y-116462608D01*
X89336932Y-116244101D01*
X89470182Y-115994808D01*
X89552236Y-115724309D01*
X89579943Y-115443000D01*
X89552236Y-115161691D01*
X89470182Y-114891192D01*
X89396326Y-114753017D01*
X91435090Y-114753017D01*
X91476078Y-115025133D01*
X91569364Y-115284023D01*
X91631344Y-115399980D01*
X91871435Y-115466960D01*
X92657395Y-114681000D01*
X91871435Y-113895040D01*
X91631344Y-113962020D01*
X91514244Y-114211048D01*
X91447977Y-114478135D01*
X91435090Y-114753017D01*
X89396326Y-114753017D01*
X89336932Y-114641899D01*
X89157608Y-114423392D01*
X88939101Y-114244068D01*
X88806142Y-114173000D01*
X88939101Y-114101932D01*
X89157608Y-113922608D01*
X89327630Y-113715435D01*
X92051040Y-113715435D01*
X92837000Y-114501395D01*
X93622960Y-113715435D01*
X93555980Y-113475344D01*
X93306952Y-113358244D01*
X93039865Y-113291977D01*
X92764983Y-113279090D01*
X92492867Y-113320078D01*
X92233977Y-113413364D01*
X92118020Y-113475344D01*
X92051040Y-113715435D01*
X89327630Y-113715435D01*
X89336932Y-113704101D01*
X89470182Y-113454808D01*
X89552236Y-113184309D01*
X89579943Y-112903000D01*
X89552236Y-112621691D01*
X89470182Y-112351192D01*
X89336932Y-112101899D01*
X89157608Y-111883392D01*
X88939101Y-111704068D01*
X88806142Y-111633000D01*
X88939101Y-111561932D01*
X89157608Y-111382608D01*
X89336932Y-111164101D01*
X89470182Y-110914808D01*
X89552236Y-110644309D01*
X89579943Y-110363000D01*
X89552236Y-110081691D01*
X89470182Y-109811192D01*
X89336932Y-109561899D01*
X89157608Y-109343392D01*
X88939101Y-109164068D01*
X88806142Y-109093000D01*
X88939101Y-109021932D01*
X89157608Y-108842608D01*
X89336932Y-108624101D01*
X89470182Y-108374808D01*
X89552236Y-108104309D01*
X89579943Y-107823000D01*
X89552236Y-107541691D01*
X89470182Y-107271192D01*
X89336932Y-107021899D01*
X89157608Y-106803392D01*
X88939101Y-106624068D01*
X88806142Y-106553000D01*
X88939101Y-106481932D01*
X89157608Y-106302608D01*
X89336932Y-106084101D01*
X89358901Y-106043000D01*
X89474199Y-106043000D01*
X91470628Y-108039430D01*
X91440000Y-108193408D01*
X91440000Y-108468592D01*
X91493686Y-108738490D01*
X91598995Y-108992727D01*
X91751880Y-109221535D01*
X91946465Y-109416120D01*
X92175273Y-109569005D01*
X92429510Y-109674314D01*
X92699408Y-109728000D01*
X92974592Y-109728000D01*
X93244490Y-109674314D01*
X93498727Y-109569005D01*
X93727535Y-109416120D01*
X93922120Y-109221535D01*
X94075005Y-108992727D01*
X94180314Y-108738490D01*
X94234000Y-108468592D01*
X94234000Y-108193408D01*
X94180314Y-107923510D01*
X94075005Y-107669273D01*
X93922120Y-107440465D01*
X93727535Y-107245880D01*
X93509211Y-107100000D01*
X101635928Y-107100000D01*
X101639000Y-107664250D01*
X101797750Y-107823000D01*
X102997000Y-107823000D01*
X102997000Y-106623750D01*
X103251000Y-106623750D01*
X103251000Y-107823000D01*
X104450250Y-107823000D01*
X104609000Y-107664250D01*
X104612072Y-107100000D01*
X104599812Y-106975518D01*
X104563502Y-106855820D01*
X104504537Y-106745506D01*
X104425185Y-106648815D01*
X104328494Y-106569463D01*
X104218180Y-106510498D01*
X104098482Y-106474188D01*
X103974000Y-106461928D01*
X103409750Y-106465000D01*
X103251000Y-106623750D01*
X102997000Y-106623750D01*
X102838250Y-106465000D01*
X102274000Y-106461928D01*
X102149518Y-106474188D01*
X102029820Y-106510498D01*
X101919506Y-106569463D01*
X101822815Y-106648815D01*
X101743463Y-106745506D01*
X101684498Y-106855820D01*
X101648188Y-106975518D01*
X101635928Y-107100000D01*
X93509211Y-107100000D01*
X93498727Y-107092995D01*
X93244490Y-106987686D01*
X92974592Y-106934000D01*
X92699408Y-106934000D01*
X92545430Y-106964628D01*
X90352804Y-104772003D01*
X90329001Y-104742999D01*
X90213276Y-104648026D01*
X90081247Y-104577454D01*
X89937986Y-104533997D01*
X89826333Y-104523000D01*
X89826322Y-104523000D01*
X89789000Y-104519324D01*
X89751678Y-104523000D01*
X89358901Y-104523000D01*
X89336932Y-104481899D01*
X89157608Y-104263392D01*
X88939101Y-104084068D01*
X88806142Y-104013000D01*
X88939101Y-103941932D01*
X89157608Y-103762608D01*
X89336932Y-103544101D01*
X89358901Y-103503000D01*
X91488019Y-103503000D01*
X91493686Y-103531490D01*
X91598995Y-103785727D01*
X91751880Y-104014535D01*
X91946465Y-104209120D01*
X92175273Y-104362005D01*
X92429510Y-104467314D01*
X92699408Y-104521000D01*
X92974592Y-104521000D01*
X93244490Y-104467314D01*
X93498727Y-104362005D01*
X93727535Y-104209120D01*
X93922120Y-104014535D01*
X94075005Y-103785727D01*
X94180314Y-103531490D01*
X94234000Y-103261592D01*
X94234000Y-102986408D01*
X94180314Y-102716510D01*
X94075005Y-102462273D01*
X93922120Y-102233465D01*
X93727535Y-102038880D01*
X93498727Y-101885995D01*
X93244490Y-101780686D01*
X92974592Y-101727000D01*
X92699408Y-101727000D01*
X92429510Y-101780686D01*
X92175273Y-101885995D01*
X92030095Y-101983000D01*
X89358901Y-101983000D01*
X89336932Y-101941899D01*
X89157608Y-101723392D01*
X88939101Y-101544068D01*
X88801318Y-101470421D01*
X88993131Y-101355385D01*
X89201519Y-101166414D01*
X89369037Y-100940420D01*
X89489246Y-100686087D01*
X89529904Y-100552039D01*
X89407915Y-100330000D01*
X88265000Y-100330000D01*
X88265000Y-100350000D01*
X88011000Y-100350000D01*
X88011000Y-100330000D01*
X86868085Y-100330000D01*
X86746096Y-100552039D01*
X86786754Y-100686087D01*
X86906963Y-100940420D01*
X87074481Y-101166414D01*
X87282869Y-101355385D01*
X87474682Y-101470421D01*
X87336899Y-101544068D01*
X87118392Y-101723392D01*
X86939068Y-101941899D01*
X86805818Y-102191192D01*
X86723764Y-102461691D01*
X86696057Y-102743000D01*
X81959943Y-102743000D01*
X81932236Y-102461691D01*
X81850182Y-102191192D01*
X81716932Y-101941899D01*
X81537608Y-101723392D01*
X81319101Y-101544068D01*
X81186142Y-101473000D01*
X81319101Y-101401932D01*
X81537608Y-101222608D01*
X81716932Y-101004101D01*
X81850182Y-100754808D01*
X81932236Y-100484309D01*
X81959943Y-100203000D01*
X81932236Y-99921691D01*
X81850182Y-99651192D01*
X81716932Y-99401899D01*
X81537608Y-99183392D01*
X81319101Y-99004068D01*
X81186142Y-98933000D01*
X81319101Y-98861932D01*
X81537608Y-98682608D01*
X81716932Y-98464101D01*
X81850182Y-98214808D01*
X81932236Y-97944309D01*
X81959943Y-97663000D01*
X86696057Y-97663000D01*
X86723764Y-97944309D01*
X86805818Y-98214808D01*
X86939068Y-98464101D01*
X87118392Y-98682608D01*
X87336899Y-98861932D01*
X87474682Y-98935579D01*
X87282869Y-99050615D01*
X87074481Y-99239586D01*
X86906963Y-99465580D01*
X86786754Y-99719913D01*
X86746096Y-99853961D01*
X86868085Y-100076000D01*
X88011000Y-100076000D01*
X88011000Y-100056000D01*
X88265000Y-100056000D01*
X88265000Y-100076000D01*
X89407915Y-100076000D01*
X89529904Y-99853961D01*
X89489246Y-99719913D01*
X89369037Y-99465580D01*
X89201519Y-99239586D01*
X88993131Y-99050615D01*
X88801318Y-98935579D01*
X88939101Y-98861932D01*
X89157608Y-98682608D01*
X89336932Y-98464101D01*
X89470182Y-98214808D01*
X89552236Y-97944309D01*
X89572401Y-97739565D01*
X92051040Y-97739565D01*
X92118020Y-97979656D01*
X92367048Y-98096756D01*
X92634135Y-98163023D01*
X92909017Y-98175910D01*
X93181133Y-98134922D01*
X93440023Y-98041636D01*
X93555980Y-97979656D01*
X93622960Y-97739565D01*
X92837000Y-96953605D01*
X92051040Y-97739565D01*
X89572401Y-97739565D01*
X89579943Y-97663000D01*
X89552236Y-97381691D01*
X89470182Y-97111192D01*
X89336932Y-96861899D01*
X89323898Y-96846017D01*
X91435090Y-96846017D01*
X91476078Y-97118133D01*
X91569364Y-97377023D01*
X91631344Y-97492980D01*
X91871435Y-97559960D01*
X92657395Y-96774000D01*
X93016605Y-96774000D01*
X93802565Y-97559960D01*
X94042656Y-97492980D01*
X94159756Y-97243952D01*
X94226023Y-96976865D01*
X94238910Y-96701983D01*
X94197922Y-96429867D01*
X94104636Y-96170977D01*
X94042656Y-96055020D01*
X93802565Y-95988040D01*
X93016605Y-96774000D01*
X92657395Y-96774000D01*
X91871435Y-95988040D01*
X91631344Y-96055020D01*
X91514244Y-96304048D01*
X91447977Y-96571135D01*
X91435090Y-96846017D01*
X89323898Y-96846017D01*
X89157608Y-96643392D01*
X89044518Y-96550581D01*
X89062482Y-96548812D01*
X89182180Y-96512502D01*
X89292494Y-96453537D01*
X89389185Y-96374185D01*
X89468537Y-96277494D01*
X89527502Y-96167180D01*
X89563812Y-96047482D01*
X89576072Y-95923000D01*
X89576072Y-95808435D01*
X92051040Y-95808435D01*
X92837000Y-96594395D01*
X93622960Y-95808435D01*
X93555980Y-95568344D01*
X93306952Y-95451244D01*
X93039865Y-95384977D01*
X92764983Y-95372090D01*
X92492867Y-95413078D01*
X92233977Y-95506364D01*
X92118020Y-95568344D01*
X92051040Y-95808435D01*
X89576072Y-95808435D01*
X89576072Y-94323000D01*
X89563812Y-94198518D01*
X89527502Y-94078820D01*
X89468537Y-93968506D01*
X89389185Y-93871815D01*
X89292494Y-93792463D01*
X89182180Y-93733498D01*
X89062482Y-93697188D01*
X88938000Y-93684928D01*
X87338000Y-93684928D01*
X87213518Y-93697188D01*
X87093820Y-93733498D01*
X86983506Y-93792463D01*
X86886815Y-93871815D01*
X86807463Y-93968506D01*
X86748498Y-94078820D01*
X86712188Y-94198518D01*
X86699928Y-94323000D01*
X86699928Y-95923000D01*
X86712188Y-96047482D01*
X86748498Y-96167180D01*
X86807463Y-96277494D01*
X86886815Y-96374185D01*
X86983506Y-96453537D01*
X87093820Y-96512502D01*
X87213518Y-96548812D01*
X87231482Y-96550581D01*
X87118392Y-96643392D01*
X86939068Y-96861899D01*
X86805818Y-97111192D01*
X86723764Y-97381691D01*
X86696057Y-97663000D01*
X81959943Y-97663000D01*
X81932236Y-97381691D01*
X81850182Y-97111192D01*
X81716932Y-96861899D01*
X81537608Y-96643392D01*
X81319101Y-96464068D01*
X81186142Y-96393000D01*
X81319101Y-96321932D01*
X81537608Y-96142608D01*
X81716932Y-95924101D01*
X81850182Y-95674808D01*
X81932236Y-95404309D01*
X81959943Y-95123000D01*
X81932236Y-94841691D01*
X81850182Y-94571192D01*
X81716932Y-94321899D01*
X81537608Y-94103392D01*
X81319101Y-93924068D01*
X81069808Y-93790818D01*
X80799309Y-93708764D01*
X80588492Y-93688000D01*
X80447508Y-93688000D01*
X80236691Y-93708764D01*
X79966192Y-93790818D01*
X79716899Y-93924068D01*
X79498392Y-94103392D01*
X79319068Y-94321899D01*
X79185818Y-94571192D01*
X79103764Y-94841691D01*
X79076057Y-95123000D01*
X79103764Y-95404309D01*
X79185818Y-95674808D01*
X79319068Y-95924101D01*
X79498392Y-96142608D01*
X79716899Y-96321932D01*
X79849858Y-96393000D01*
X79716899Y-96464068D01*
X79498392Y-96643392D01*
X79319068Y-96861899D01*
X79185818Y-97111192D01*
X79103764Y-97381691D01*
X79076057Y-97663000D01*
X79103764Y-97944309D01*
X79185818Y-98214808D01*
X79319068Y-98464101D01*
X79498392Y-98682608D01*
X79716899Y-98861932D01*
X79849858Y-98933000D01*
X79716899Y-99004068D01*
X79498392Y-99183392D01*
X79319068Y-99401899D01*
X79297099Y-99443000D01*
X78904323Y-99443000D01*
X78867000Y-99439324D01*
X78829677Y-99443000D01*
X78829667Y-99443000D01*
X78718014Y-99453997D01*
X78574753Y-99497454D01*
X78442724Y-99568026D01*
X78326999Y-99662999D01*
X78303201Y-99691997D01*
X76237571Y-101757628D01*
X76083592Y-101727000D01*
X75808408Y-101727000D01*
X75538510Y-101780686D01*
X75284273Y-101885995D01*
X75055465Y-102038880D01*
X74860880Y-102233465D01*
X74707995Y-102462273D01*
X74602686Y-102716510D01*
X74549000Y-102986408D01*
X74549000Y-103261592D01*
X74602686Y-103531490D01*
X74707995Y-103785727D01*
X74860880Y-104014535D01*
X75055465Y-104209120D01*
X75284273Y-104362005D01*
X75538510Y-104467314D01*
X75808408Y-104521000D01*
X76083592Y-104521000D01*
X76353490Y-104467314D01*
X76607727Y-104362005D01*
X76836535Y-104209120D01*
X77031120Y-104014535D01*
X77184005Y-103785727D01*
X77289314Y-103531490D01*
X77343000Y-103261592D01*
X77343000Y-102986408D01*
X77312372Y-102832429D01*
X79181802Y-100963000D01*
X79297099Y-100963000D01*
X79319068Y-101004101D01*
X79498392Y-101222608D01*
X79716899Y-101401932D01*
X79849858Y-101473000D01*
X79716899Y-101544068D01*
X79498392Y-101723392D01*
X79319068Y-101941899D01*
X79185818Y-102191192D01*
X79103764Y-102461691D01*
X79076057Y-102743000D01*
X79103764Y-103024309D01*
X79185818Y-103294808D01*
X79319068Y-103544101D01*
X79498392Y-103762608D01*
X79716899Y-103941932D01*
X79849858Y-104013000D01*
X79716899Y-104084068D01*
X79498392Y-104263392D01*
X79319068Y-104481899D01*
X79185818Y-104731192D01*
X79103764Y-105001691D01*
X79076057Y-105283000D01*
X79103764Y-105564309D01*
X79185818Y-105834808D01*
X79319068Y-106084101D01*
X79498392Y-106302608D01*
X79716899Y-106481932D01*
X79849858Y-106553000D01*
X79716899Y-106624068D01*
X79498392Y-106803392D01*
X79319068Y-107021899D01*
X79185818Y-107271192D01*
X79103764Y-107541691D01*
X79076057Y-107823000D01*
X79103764Y-108104309D01*
X79185818Y-108374808D01*
X79319068Y-108624101D01*
X79498392Y-108842608D01*
X79716899Y-109021932D01*
X79849858Y-109093000D01*
X79716899Y-109164068D01*
X79498392Y-109343392D01*
X79319068Y-109561899D01*
X79185818Y-109811192D01*
X79103764Y-110081691D01*
X79076057Y-110363000D01*
X79103764Y-110644309D01*
X79185818Y-110914808D01*
X79319068Y-111164101D01*
X79498392Y-111382608D01*
X79716899Y-111561932D01*
X79849858Y-111633000D01*
X79716899Y-111704068D01*
X79498392Y-111883392D01*
X79319068Y-112101899D01*
X79297099Y-112143000D01*
X77761325Y-112143000D01*
X77724000Y-112139324D01*
X77686675Y-112143000D01*
X77686667Y-112143000D01*
X77575014Y-112153997D01*
X77431753Y-112197454D01*
X77299724Y-112268026D01*
X77183999Y-112362999D01*
X77160201Y-112391997D01*
X76237570Y-113314628D01*
X76083592Y-113284000D01*
X75808408Y-113284000D01*
X75538510Y-113337686D01*
X75284273Y-113442995D01*
X75055465Y-113595880D01*
X74860880Y-113790465D01*
X74707995Y-114019273D01*
X74602686Y-114273510D01*
X74549000Y-114543408D01*
X74549000Y-114818592D01*
X74602686Y-115088490D01*
X74707995Y-115342727D01*
X74860880Y-115571535D01*
X75055465Y-115766120D01*
X75284273Y-115919005D01*
X75538510Y-116024314D01*
X75808408Y-116078000D01*
X76083592Y-116078000D01*
X76353490Y-116024314D01*
X76607727Y-115919005D01*
X76836535Y-115766120D01*
X77031120Y-115571535D01*
X77184005Y-115342727D01*
X77289314Y-115088490D01*
X77343000Y-114818592D01*
X77343000Y-114543408D01*
X77312372Y-114389430D01*
X78038802Y-113663000D01*
X79297099Y-113663000D01*
X79319068Y-113704101D01*
X79498392Y-113922608D01*
X79716899Y-114101932D01*
X79849858Y-114173000D01*
X79716899Y-114244068D01*
X79498392Y-114423392D01*
X79319068Y-114641899D01*
X79185818Y-114891192D01*
X79103764Y-115161691D01*
X79076057Y-115443000D01*
X79103764Y-115724309D01*
X79185818Y-115994808D01*
X79319068Y-116244101D01*
X79498392Y-116462608D01*
X79716899Y-116641932D01*
X79966192Y-116775182D01*
X80236691Y-116857236D01*
X80447508Y-116878000D01*
X80588492Y-116878000D01*
X80799309Y-116857236D01*
X80883001Y-116831849D01*
X80883001Y-116869441D01*
X80879325Y-116906763D01*
X80883001Y-116944085D01*
X80883001Y-116944095D01*
X80893998Y-117055748D01*
X80936858Y-117197040D01*
X80937455Y-117199009D01*
X81008027Y-117331039D01*
X81047872Y-117379589D01*
X81103000Y-117446764D01*
X81132004Y-117470567D01*
X84202434Y-120540998D01*
X84145068Y-120610899D01*
X84011818Y-120860192D01*
X83929764Y-121130691D01*
X83902057Y-121412000D01*
X83929764Y-121693309D01*
X84011818Y-121963808D01*
X84145068Y-122213101D01*
X84324392Y-122431608D01*
X84542899Y-122610932D01*
X84675858Y-122682000D01*
X84542899Y-122753068D01*
X84324392Y-122932392D01*
X84145068Y-123150899D01*
X84011818Y-123400192D01*
X83929764Y-123670691D01*
X83902057Y-123952000D01*
X83929764Y-124233309D01*
X84011818Y-124503808D01*
X84145068Y-124753101D01*
X84324392Y-124971608D01*
X84542899Y-125150932D01*
X84675858Y-125222000D01*
X84542899Y-125293068D01*
X84324392Y-125472392D01*
X84145068Y-125690899D01*
X84011818Y-125940192D01*
X83929764Y-126210691D01*
X83902057Y-126492000D01*
X83929764Y-126773309D01*
X84011818Y-127043808D01*
X84145068Y-127293101D01*
X84324392Y-127511608D01*
X84542899Y-127690932D01*
X84680682Y-127764579D01*
X84488869Y-127879615D01*
X84280481Y-128068586D01*
X84112963Y-128294580D01*
X83992754Y-128548913D01*
X83952096Y-128682961D01*
X84074085Y-128905000D01*
X85217000Y-128905000D01*
X85217000Y-128885000D01*
X85471000Y-128885000D01*
X85471000Y-128905000D01*
X85491000Y-128905000D01*
X85491000Y-129159000D01*
X85471000Y-129159000D01*
X85471000Y-130302624D01*
X85693040Y-130423909D01*
X85709001Y-130418193D01*
X85709001Y-131032827D01*
X84832998Y-131908831D01*
X84804000Y-131932629D01*
X84780202Y-131961627D01*
X84780201Y-131961628D01*
X84709026Y-132048354D01*
X84638454Y-132180384D01*
X84594998Y-132323645D01*
X84589428Y-132380198D01*
X84542899Y-132405068D01*
X84324392Y-132584392D01*
X84145068Y-132802899D01*
X84011818Y-133052192D01*
X83929764Y-133322691D01*
X83902057Y-133604000D01*
X83929764Y-133885309D01*
X84011818Y-134155808D01*
X84145068Y-134405101D01*
X84324392Y-134623608D01*
X84542899Y-134802932D01*
X84675858Y-134874000D01*
X84542899Y-134945068D01*
X84324392Y-135124392D01*
X84145068Y-135342899D01*
X84011818Y-135592192D01*
X83929764Y-135862691D01*
X83902057Y-136144000D01*
X83929764Y-136425309D01*
X84011818Y-136695808D01*
X84145068Y-136945101D01*
X84324392Y-137163608D01*
X84542899Y-137342932D01*
X84675858Y-137414000D01*
X84542899Y-137485068D01*
X84324392Y-137664392D01*
X84145068Y-137882899D01*
X84011818Y-138132192D01*
X83929764Y-138402691D01*
X83902057Y-138684000D01*
X83929764Y-138965309D01*
X84011818Y-139235808D01*
X84145068Y-139485101D01*
X84324392Y-139703608D01*
X84542899Y-139882932D01*
X84680682Y-139956579D01*
X84488869Y-140071615D01*
X84280481Y-140260586D01*
X84112963Y-140486580D01*
X83992754Y-140740913D01*
X83952096Y-140874961D01*
X84074085Y-141097000D01*
X85217000Y-141097000D01*
X85217000Y-141077000D01*
X85471000Y-141077000D01*
X85471000Y-141097000D01*
X85491000Y-141097000D01*
X85491000Y-141351000D01*
X85471000Y-141351000D01*
X85471000Y-142494624D01*
X85693040Y-142615909D01*
X85709001Y-142610193D01*
X85709001Y-144356197D01*
X85669906Y-144395292D01*
X85625309Y-144381764D01*
X85414492Y-144361000D01*
X85273508Y-144361000D01*
X85062691Y-144381764D01*
X85018094Y-144395292D01*
X82195841Y-141573039D01*
X83952096Y-141573039D01*
X83992754Y-141707087D01*
X84112963Y-141961420D01*
X84280481Y-142187414D01*
X84488869Y-142376385D01*
X84730119Y-142521070D01*
X84994960Y-142615909D01*
X85217000Y-142494624D01*
X85217000Y-141351000D01*
X84074085Y-141351000D01*
X83952096Y-141573039D01*
X82195841Y-141573039D01*
X81133010Y-140510209D01*
X81133010Y-137792332D01*
X81136686Y-137755009D01*
X81133010Y-137717686D01*
X81133010Y-137717677D01*
X81122013Y-137606024D01*
X81078556Y-137462763D01*
X81007984Y-137330734D01*
X80994821Y-137314695D01*
X80936809Y-137244006D01*
X80936805Y-137244002D01*
X80913011Y-137215009D01*
X80884019Y-137191216D01*
X80686072Y-136993269D01*
X80686072Y-135580000D01*
X80669008Y-135406746D01*
X80618472Y-135240150D01*
X80536405Y-135086614D01*
X80425962Y-134952038D01*
X80291386Y-134841595D01*
X80137850Y-134759528D01*
X79971254Y-134708992D01*
X79798000Y-134691928D01*
X78698000Y-134691928D01*
X78524746Y-134708992D01*
X78430410Y-134737608D01*
X78055804Y-134363003D01*
X78032001Y-134333999D01*
X77916276Y-134239026D01*
X77784247Y-134168454D01*
X77640986Y-134124997D01*
X77529333Y-134114000D01*
X77529322Y-134114000D01*
X77492000Y-134110324D01*
X77454678Y-134114000D01*
X74191016Y-134114000D01*
X74150069Y-134037394D01*
X73962797Y-133809203D01*
X73734606Y-133621931D01*
X73474264Y-133482775D01*
X73191777Y-133397084D01*
X72971619Y-133375400D01*
X72824381Y-133375400D01*
X72604223Y-133397084D01*
X72321736Y-133482775D01*
X72061394Y-133621931D01*
X71833203Y-133809203D01*
X71645931Y-134037394D01*
X71628000Y-134070940D01*
X71610069Y-134037394D01*
X71422797Y-133809203D01*
X71194606Y-133621931D01*
X70934264Y-133482775D01*
X70651777Y-133397084D01*
X70431619Y-133375400D01*
X70284381Y-133375400D01*
X70064223Y-133397084D01*
X69781736Y-133482775D01*
X69521394Y-133621931D01*
X69293203Y-133809203D01*
X69105931Y-134037394D01*
X68966775Y-134297736D01*
X68881084Y-134580223D01*
X68852149Y-134874000D01*
X67208000Y-134874000D01*
X67208000Y-129381039D01*
X83952096Y-129381039D01*
X83992754Y-129515087D01*
X84112963Y-129769420D01*
X84280481Y-129995414D01*
X84488869Y-130184385D01*
X84730119Y-130329070D01*
X84994960Y-130423909D01*
X85217000Y-130302624D01*
X85217000Y-129159000D01*
X84074085Y-129159000D01*
X83952096Y-129381039D01*
X67208000Y-129381039D01*
X67208000Y-124961544D01*
X69638000Y-124961544D01*
X69638000Y-125228456D01*
X69690072Y-125490239D01*
X69792215Y-125736833D01*
X69940503Y-125958762D01*
X70129238Y-126147497D01*
X70351167Y-126295785D01*
X70597761Y-126397928D01*
X70859544Y-126450000D01*
X71126456Y-126450000D01*
X71388239Y-126397928D01*
X71634833Y-126295785D01*
X71856762Y-126147497D01*
X72045497Y-125958762D01*
X72193785Y-125736833D01*
X72263000Y-125569734D01*
X72332215Y-125736833D01*
X72480503Y-125958762D01*
X72669238Y-126147497D01*
X72891167Y-126295785D01*
X73137761Y-126397928D01*
X73399544Y-126450000D01*
X73666456Y-126450000D01*
X73928239Y-126397928D01*
X74174833Y-126295785D01*
X74396762Y-126147497D01*
X74585497Y-125958762D01*
X74733785Y-125736833D01*
X74803000Y-125569734D01*
X74872215Y-125736833D01*
X75020503Y-125958762D01*
X75209238Y-126147497D01*
X75431167Y-126295785D01*
X75677761Y-126397928D01*
X75939544Y-126450000D01*
X76206456Y-126450000D01*
X76468239Y-126397928D01*
X76714833Y-126295785D01*
X76936762Y-126147497D01*
X77125497Y-125958762D01*
X77273785Y-125736833D01*
X77375928Y-125490239D01*
X77428000Y-125228456D01*
X77428000Y-124961544D01*
X77375928Y-124699761D01*
X77273785Y-124453167D01*
X77125497Y-124231238D01*
X76936762Y-124042503D01*
X76714833Y-123894215D01*
X76468239Y-123792072D01*
X76206456Y-123740000D01*
X75939544Y-123740000D01*
X75677761Y-123792072D01*
X75431167Y-123894215D01*
X75209238Y-124042503D01*
X75020503Y-124231238D01*
X74872215Y-124453167D01*
X74803000Y-124620266D01*
X74733785Y-124453167D01*
X74585497Y-124231238D01*
X74396762Y-124042503D01*
X74174833Y-123894215D01*
X73928239Y-123792072D01*
X73666456Y-123740000D01*
X73399544Y-123740000D01*
X73137761Y-123792072D01*
X72891167Y-123894215D01*
X72669238Y-124042503D01*
X72480503Y-124231238D01*
X72332215Y-124453167D01*
X72263000Y-124620266D01*
X72193785Y-124453167D01*
X72045497Y-124231238D01*
X71856762Y-124042503D01*
X71634833Y-123894215D01*
X71388239Y-123792072D01*
X71126456Y-123740000D01*
X70859544Y-123740000D01*
X70597761Y-123792072D01*
X70351167Y-123894215D01*
X70129238Y-124042503D01*
X69940503Y-124231238D01*
X69792215Y-124453167D01*
X69690072Y-124699761D01*
X69638000Y-124961544D01*
X67208000Y-124961544D01*
X67208000Y-109296565D01*
X75160040Y-109296565D01*
X75227020Y-109536656D01*
X75476048Y-109653756D01*
X75743135Y-109720023D01*
X76018017Y-109732910D01*
X76290133Y-109691922D01*
X76549023Y-109598636D01*
X76664980Y-109536656D01*
X76731960Y-109296565D01*
X75946000Y-108510605D01*
X75160040Y-109296565D01*
X67208000Y-109296565D01*
X67208000Y-108403017D01*
X74544090Y-108403017D01*
X74585078Y-108675133D01*
X74678364Y-108934023D01*
X74740344Y-109049980D01*
X74980435Y-109116960D01*
X75766395Y-108331000D01*
X76125605Y-108331000D01*
X76911565Y-109116960D01*
X77151656Y-109049980D01*
X77268756Y-108800952D01*
X77335023Y-108533865D01*
X77347910Y-108258983D01*
X77306922Y-107986867D01*
X77213636Y-107727977D01*
X77151656Y-107612020D01*
X76911565Y-107545040D01*
X76125605Y-108331000D01*
X75766395Y-108331000D01*
X74980435Y-107545040D01*
X74740344Y-107612020D01*
X74623244Y-107861048D01*
X74556977Y-108128135D01*
X74544090Y-108403017D01*
X67208000Y-108403017D01*
X67208000Y-107365435D01*
X75160040Y-107365435D01*
X75946000Y-108151395D01*
X76731960Y-107365435D01*
X76664980Y-107125344D01*
X76415952Y-107008244D01*
X76148865Y-106941977D01*
X75873983Y-106929090D01*
X75601867Y-106970078D01*
X75342977Y-107063364D01*
X75227020Y-107125344D01*
X75160040Y-107365435D01*
X67208000Y-107365435D01*
X67208000Y-97739565D01*
X75160040Y-97739565D01*
X75227020Y-97979656D01*
X75476048Y-98096756D01*
X75743135Y-98163023D01*
X76018017Y-98175910D01*
X76290133Y-98134922D01*
X76549023Y-98041636D01*
X76664980Y-97979656D01*
X76731960Y-97739565D01*
X75946000Y-96953605D01*
X75160040Y-97739565D01*
X67208000Y-97739565D01*
X67208000Y-96846017D01*
X74544090Y-96846017D01*
X74585078Y-97118133D01*
X74678364Y-97377023D01*
X74740344Y-97492980D01*
X74980435Y-97559960D01*
X75766395Y-96774000D01*
X76125605Y-96774000D01*
X76911565Y-97559960D01*
X77151656Y-97492980D01*
X77268756Y-97243952D01*
X77335023Y-96976865D01*
X77347910Y-96701983D01*
X77306922Y-96429867D01*
X77213636Y-96170977D01*
X77151656Y-96055020D01*
X76911565Y-95988040D01*
X76125605Y-96774000D01*
X75766395Y-96774000D01*
X74980435Y-95988040D01*
X74740344Y-96055020D01*
X74623244Y-96304048D01*
X74556977Y-96571135D01*
X74544090Y-96846017D01*
X67208000Y-96846017D01*
X67208000Y-95808435D01*
X75160040Y-95808435D01*
X75946000Y-96594395D01*
X76731960Y-95808435D01*
X76664980Y-95568344D01*
X76415952Y-95451244D01*
X76148865Y-95384977D01*
X75873983Y-95372090D01*
X75601867Y-95413078D01*
X75342977Y-95506364D01*
X75227020Y-95568344D01*
X75160040Y-95808435D01*
X67208000Y-95808435D01*
X67208000Y-92445408D01*
X82931000Y-92445408D01*
X82931000Y-92720592D01*
X82984686Y-92990490D01*
X83089995Y-93244727D01*
X83242880Y-93473535D01*
X83437465Y-93668120D01*
X83666273Y-93821005D01*
X83920510Y-93926314D01*
X84190408Y-93980000D01*
X84465592Y-93980000D01*
X84735490Y-93926314D01*
X84989727Y-93821005D01*
X85218535Y-93668120D01*
X85413120Y-93473535D01*
X85566005Y-93244727D01*
X85671314Y-92990490D01*
X85725000Y-92720592D01*
X85725000Y-92445408D01*
X85671314Y-92175510D01*
X85566005Y-91921273D01*
X85413120Y-91692465D01*
X85218535Y-91497880D01*
X84989727Y-91344995D01*
X84735490Y-91239686D01*
X84465592Y-91186000D01*
X84190408Y-91186000D01*
X83920510Y-91239686D01*
X83666273Y-91344995D01*
X83437465Y-91497880D01*
X83242880Y-91692465D01*
X83089995Y-91921273D01*
X82984686Y-92175510D01*
X82931000Y-92445408D01*
X67208000Y-92445408D01*
X67208000Y-88563148D01*
X78494457Y-88563148D01*
X78770627Y-88981118D01*
X79315557Y-89271649D01*
X79906696Y-89450287D01*
X80521328Y-89510168D01*
X81135831Y-89448990D01*
X81726592Y-89269103D01*
X82265373Y-88981118D01*
X82541543Y-88563148D01*
X80518000Y-86539605D01*
X78494457Y-88563148D01*
X67208000Y-88563148D01*
X67208000Y-86363328D01*
X77367832Y-86363328D01*
X77429010Y-86977831D01*
X77608897Y-87568592D01*
X77896882Y-88107373D01*
X78314852Y-88383543D01*
X80338395Y-86360000D01*
X80697605Y-86360000D01*
X82721148Y-88383543D01*
X83139118Y-88107373D01*
X83397072Y-87623544D01*
X85513000Y-87623544D01*
X85513000Y-87890456D01*
X85565072Y-88152239D01*
X85667215Y-88398833D01*
X85815503Y-88620762D01*
X86004238Y-88809497D01*
X86226167Y-88957785D01*
X86472761Y-89059928D01*
X86734544Y-89112000D01*
X87001456Y-89112000D01*
X87263239Y-89059928D01*
X87509833Y-88957785D01*
X87731762Y-88809497D01*
X87920497Y-88620762D01*
X88068785Y-88398833D01*
X88138000Y-88231734D01*
X88207215Y-88398833D01*
X88355503Y-88620762D01*
X88544238Y-88809497D01*
X88766167Y-88957785D01*
X89012761Y-89059928D01*
X89274544Y-89112000D01*
X89541456Y-89112000D01*
X89803239Y-89059928D01*
X90049833Y-88957785D01*
X90271762Y-88809497D01*
X90460497Y-88620762D01*
X90608785Y-88398833D01*
X90678000Y-88231734D01*
X90747215Y-88398833D01*
X90895503Y-88620762D01*
X91084238Y-88809497D01*
X91306167Y-88957785D01*
X91552761Y-89059928D01*
X91814544Y-89112000D01*
X92081456Y-89112000D01*
X92343239Y-89059928D01*
X92589833Y-88957785D01*
X92811762Y-88809497D01*
X93000497Y-88620762D01*
X93038993Y-88563148D01*
X100846457Y-88563148D01*
X101122627Y-88981118D01*
X101667557Y-89271649D01*
X102258696Y-89450287D01*
X102873328Y-89510168D01*
X103487831Y-89448990D01*
X104078592Y-89269103D01*
X104617373Y-88981118D01*
X104893543Y-88563148D01*
X102870000Y-86539605D01*
X100846457Y-88563148D01*
X93038993Y-88563148D01*
X93148785Y-88398833D01*
X93250928Y-88152239D01*
X93303000Y-87890456D01*
X93303000Y-87623544D01*
X93250928Y-87361761D01*
X93148785Y-87115167D01*
X93000497Y-86893238D01*
X92811762Y-86704503D01*
X92589833Y-86556215D01*
X92343239Y-86454072D01*
X92081456Y-86402000D01*
X91814544Y-86402000D01*
X91552761Y-86454072D01*
X91306167Y-86556215D01*
X91084238Y-86704503D01*
X90895503Y-86893238D01*
X90747215Y-87115167D01*
X90678000Y-87282266D01*
X90608785Y-87115167D01*
X90460497Y-86893238D01*
X90271762Y-86704503D01*
X90049833Y-86556215D01*
X89803239Y-86454072D01*
X89541456Y-86402000D01*
X89274544Y-86402000D01*
X89012761Y-86454072D01*
X88766167Y-86556215D01*
X88544238Y-86704503D01*
X88355503Y-86893238D01*
X88207215Y-87115167D01*
X88138000Y-87282266D01*
X88068785Y-87115167D01*
X87920497Y-86893238D01*
X87731762Y-86704503D01*
X87509833Y-86556215D01*
X87263239Y-86454072D01*
X87001456Y-86402000D01*
X86734544Y-86402000D01*
X86472761Y-86454072D01*
X86226167Y-86556215D01*
X86004238Y-86704503D01*
X85815503Y-86893238D01*
X85667215Y-87115167D01*
X85565072Y-87361761D01*
X85513000Y-87623544D01*
X83397072Y-87623544D01*
X83429649Y-87562443D01*
X83608287Y-86971304D01*
X83667519Y-86363328D01*
X99719832Y-86363328D01*
X99781010Y-86977831D01*
X99960897Y-87568592D01*
X100248882Y-88107373D01*
X100666852Y-88383543D01*
X102690395Y-86360000D01*
X100666852Y-84336457D01*
X100248882Y-84612627D01*
X99958351Y-85157557D01*
X99779713Y-85748696D01*
X99719832Y-86363328D01*
X83667519Y-86363328D01*
X83668168Y-86356672D01*
X83606990Y-85742169D01*
X83427103Y-85151408D01*
X83139118Y-84612627D01*
X82721148Y-84336457D01*
X80697605Y-86360000D01*
X80338395Y-86360000D01*
X78314852Y-84336457D01*
X77896882Y-84612627D01*
X77606351Y-85157557D01*
X77427713Y-85748696D01*
X77367832Y-86363328D01*
X67208000Y-86363328D01*
X67208000Y-83718000D01*
X78809694Y-83718000D01*
X78770627Y-83738882D01*
X78770627Y-83738882D01*
G37*
X78770627Y-83738882D02*
X78494457Y-84156852D01*
X80518000Y-86180395D01*
X82541543Y-84156852D01*
X82265373Y-83738882D01*
X82226206Y-83718000D01*
X101161694Y-83718000D01*
X101122627Y-83738882D01*
X100846457Y-84156852D01*
X102870000Y-86180395D01*
X104893543Y-84156852D01*
X104617373Y-83738882D01*
X104578206Y-83718000D01*
X105512001Y-83718000D01*
X105512001Y-84651696D01*
X105491118Y-84612627D01*
X105073148Y-84336457D01*
X103049605Y-86360000D01*
X105073148Y-88383543D01*
X105491118Y-88107373D01*
X105512001Y-88068204D01*
X105512000Y-153231695D01*
X105491118Y-153192627D01*
X105073148Y-152916457D01*
X103049605Y-154940000D01*
X105073148Y-156963543D01*
X105491118Y-156687373D01*
X105512000Y-156648206D01*
X105512000Y-157582000D01*
X104578306Y-157582000D01*
X104617373Y-157561118D01*
X104893543Y-157143148D01*
X102870000Y-155119605D01*
X100846457Y-157143148D01*
X101122627Y-157561118D01*
X101161794Y-157582000D01*
X74098306Y-157582000D01*
X74137373Y-157561118D01*
X74413543Y-157143148D01*
X72390000Y-155119605D01*
X70366457Y-157143148D01*
X70642627Y-157561118D01*
X70681794Y-157582000D01*
X67208000Y-157582000D01*
X67208000Y-154943328D01*
X69239832Y-154943328D01*
X69301010Y-155557831D01*
X69480897Y-156148592D01*
X69768882Y-156687373D01*
X70186852Y-156963543D01*
X72210395Y-154940000D01*
X72569605Y-154940000D01*
X74593148Y-156963543D01*
X75011118Y-156687373D01*
X75301649Y-156142443D01*
X75480287Y-155551304D01*
X75540168Y-154936672D01*
X75478990Y-154322169D01*
X75299103Y-153731408D01*
X75011118Y-153192627D01*
X74593148Y-152916457D01*
X72569605Y-154940000D01*
X72210395Y-154940000D01*
X70186852Y-152916457D01*
X69768882Y-153192627D01*
X69478351Y-153737557D01*
X69299713Y-154328696D01*
X69239832Y-154943328D01*
X67208000Y-154943328D01*
X67208000Y-152736852D01*
X70366457Y-152736852D01*
X72390000Y-154760395D01*
X74413543Y-152736852D01*
X74137373Y-152318882D01*
X73592443Y-152028351D01*
X73001304Y-151849713D01*
X72386672Y-151789832D01*
X71772169Y-151851010D01*
X71181408Y-152030897D01*
X70642627Y-152318882D01*
X70366457Y-152736852D01*
X67208000Y-152736852D01*
X67208000Y-140313026D01*
X68903042Y-140313026D01*
X68948778Y-140463814D01*
X69075316Y-140728944D01*
X69251146Y-140964293D01*
X69469512Y-141160817D01*
X69575770Y-141224000D01*
X69469512Y-141287183D01*
X69251146Y-141483707D01*
X69075316Y-141719056D01*
X68948778Y-141984186D01*
X68903042Y-142134974D01*
X69024183Y-142367000D01*
X70231000Y-142367000D01*
X70231000Y-140081000D01*
X70485000Y-140081000D01*
X70485000Y-142367000D01*
X72771000Y-142367000D01*
X72771000Y-140081000D01*
X73025000Y-140081000D01*
X73025000Y-142367000D01*
X74231817Y-142367000D01*
X74352958Y-142134974D01*
X74307222Y-141984186D01*
X74180684Y-141719056D01*
X74039440Y-141530000D01*
X77809928Y-141530000D01*
X77822188Y-141654482D01*
X77858498Y-141774180D01*
X77917463Y-141884494D01*
X77996815Y-141981185D01*
X78093506Y-142060537D01*
X78191656Y-142113000D01*
X78093506Y-142165463D01*
X77996815Y-142244815D01*
X77917463Y-142341506D01*
X77858498Y-142451820D01*
X77822188Y-142571518D01*
X77809928Y-142696000D01*
X77813000Y-143710250D01*
X77971750Y-143869000D01*
X79121000Y-143869000D01*
X79121000Y-142219750D01*
X79014250Y-142113000D01*
X79121000Y-142006250D01*
X79121000Y-140357000D01*
X77971750Y-140357000D01*
X77813000Y-140515750D01*
X77809928Y-141530000D01*
X74039440Y-141530000D01*
X74004854Y-141483707D01*
X73786488Y-141287183D01*
X73680230Y-141224000D01*
X73786488Y-141160817D01*
X74004854Y-140964293D01*
X74180684Y-140728944D01*
X74307222Y-140463814D01*
X74352958Y-140313026D01*
X74231817Y-140081000D01*
X73025000Y-140081000D01*
X72771000Y-140081000D01*
X70485000Y-140081000D01*
X70231000Y-140081000D01*
X69024183Y-140081000D01*
X68903042Y-140313026D01*
X67208000Y-140313026D01*
X67208000Y-137773026D01*
X68903042Y-137773026D01*
X68948778Y-137923814D01*
X69075316Y-138188944D01*
X69251146Y-138424293D01*
X69469512Y-138620817D01*
X69575770Y-138684000D01*
X69469512Y-138747183D01*
X69251146Y-138943707D01*
X69075316Y-139179056D01*
X68948778Y-139444186D01*
X68903042Y-139594974D01*
X69024183Y-139827000D01*
X70231000Y-139827000D01*
X70231000Y-137541000D01*
X70485000Y-137541000D01*
X70485000Y-139827000D01*
X72771000Y-139827000D01*
X72771000Y-137541000D01*
X73025000Y-137541000D01*
X73025000Y-139827000D01*
X74231817Y-139827000D01*
X74352958Y-139594974D01*
X74307222Y-139444186D01*
X74180684Y-139179056D01*
X74004854Y-138943707D01*
X73786488Y-138747183D01*
X73680230Y-138684000D01*
X73786488Y-138620817D01*
X74004854Y-138424293D01*
X74180684Y-138188944D01*
X74307222Y-137923814D01*
X74352958Y-137773026D01*
X74231817Y-137541000D01*
X73025000Y-137541000D01*
X72771000Y-137541000D01*
X70485000Y-137541000D01*
X70231000Y-137541000D01*
X69024183Y-137541000D01*
X68903042Y-137773026D01*
X67208000Y-137773026D01*
X67208000Y-134874000D01*
X68852149Y-134874000D01*
X68881084Y-135167777D01*
X68966775Y-135450264D01*
X69105931Y-135710606D01*
X69293203Y-135938797D01*
X69521394Y-136126069D01*
X69565910Y-136149863D01*
X69469512Y-136207183D01*
X69251146Y-136403707D01*
X69075316Y-136639056D01*
X68948778Y-136904186D01*
X68903042Y-137054974D01*
X69024183Y-137287000D01*
X70231000Y-137287000D01*
X70231000Y-137267000D01*
X70485000Y-137267000D01*
X70485000Y-137287000D01*
X72771000Y-137287000D01*
X72771000Y-137267000D01*
X73025000Y-137267000D01*
X73025000Y-137287000D01*
X74231817Y-137287000D01*
X74352958Y-137054974D01*
X74307222Y-136904186D01*
X74180684Y-136639056D01*
X74004854Y-136403707D01*
X73786488Y-136207183D01*
X73690090Y-136149863D01*
X73734606Y-136126069D01*
X73962797Y-135938797D01*
X74150069Y-135710606D01*
X74191016Y-135634000D01*
X77177199Y-135634000D01*
X77809928Y-136266729D01*
X77809928Y-137680000D01*
X77826992Y-137853254D01*
X77877528Y-138019850D01*
X77959595Y-138173386D01*
X78070038Y-138307962D01*
X78146813Y-138370969D01*
X78093506Y-138399463D01*
X77996815Y-138478815D01*
X77917463Y-138575506D01*
X77858498Y-138685820D01*
X77822188Y-138805518D01*
X77809928Y-138930000D01*
X77813000Y-139944250D01*
X77971750Y-140103000D01*
X79121000Y-140103000D01*
X79121000Y-140083000D01*
X79375000Y-140083000D01*
X79375000Y-140103000D01*
X79395000Y-140103000D01*
X79395000Y-140357000D01*
X79375000Y-140357000D01*
X79375000Y-142006250D01*
X79481750Y-142113000D01*
X79375000Y-142219750D01*
X79375000Y-143869000D01*
X80524250Y-143869000D01*
X80683000Y-143710250D01*
X80686072Y-142696000D01*
X80673812Y-142571518D01*
X80637502Y-142451820D01*
X80578537Y-142341506D01*
X80499185Y-142244815D01*
X80402494Y-142165463D01*
X80304344Y-142113000D01*
X80402494Y-142060537D01*
X80474578Y-142001379D01*
X83943292Y-145470094D01*
X83929764Y-145514691D01*
X83902057Y-145796000D01*
X83929764Y-146077309D01*
X84011818Y-146347808D01*
X84145068Y-146597101D01*
X84324392Y-146815608D01*
X84542899Y-146994932D01*
X84675858Y-147066000D01*
X84542899Y-147137068D01*
X84324392Y-147316392D01*
X84145068Y-147534899D01*
X84011818Y-147784192D01*
X83929764Y-148054691D01*
X83902057Y-148336000D01*
X83929764Y-148617309D01*
X84011818Y-148887808D01*
X84145068Y-149137101D01*
X84324392Y-149355608D01*
X84542899Y-149534932D01*
X84675858Y-149606000D01*
X84542899Y-149677068D01*
X84324392Y-149856392D01*
X84145068Y-150074899D01*
X84011818Y-150324192D01*
X83929764Y-150594691D01*
X83902057Y-150876000D01*
X83929764Y-151157309D01*
X84011818Y-151427808D01*
X84145068Y-151677101D01*
X84324392Y-151895608D01*
X84542899Y-152074932D01*
X84680682Y-152148579D01*
X84488869Y-152263615D01*
X84280481Y-152452586D01*
X84112963Y-152678580D01*
X83992754Y-152932913D01*
X83952096Y-153066961D01*
X84074085Y-153289000D01*
X85217000Y-153289000D01*
X85217000Y-153269000D01*
X85471000Y-153269000D01*
X85471000Y-153289000D01*
X86613915Y-153289000D01*
X86735904Y-153066961D01*
X86695246Y-152932913D01*
X86575037Y-152678580D01*
X86407519Y-152452586D01*
X86199131Y-152263615D01*
X86007318Y-152148579D01*
X86145101Y-152074932D01*
X86363608Y-151895608D01*
X86542932Y-151677101D01*
X86676182Y-151427808D01*
X86758236Y-151157309D01*
X86785943Y-150876000D01*
X86758236Y-150594691D01*
X86676182Y-150324192D01*
X86542932Y-150074899D01*
X86363608Y-149856392D01*
X86145101Y-149677068D01*
X86012142Y-149606000D01*
X86145101Y-149534932D01*
X86363608Y-149355608D01*
X86542932Y-149137101D01*
X86676182Y-148887808D01*
X86758236Y-148617309D01*
X86785943Y-148336000D01*
X86758236Y-148054691D01*
X86676182Y-147784192D01*
X86542932Y-147534899D01*
X86363608Y-147316392D01*
X86145101Y-147137068D01*
X86012142Y-147066000D01*
X86145101Y-146994932D01*
X86363608Y-146815608D01*
X86542932Y-146597101D01*
X86676182Y-146347808D01*
X86758236Y-146077309D01*
X86785943Y-145796000D01*
X86758236Y-145514691D01*
X86744708Y-145470094D01*
X86980005Y-145234797D01*
X87009002Y-145211000D01*
X87103975Y-145095275D01*
X87174547Y-144963246D01*
X87218004Y-144819985D01*
X87229001Y-144708332D01*
X87229001Y-144708324D01*
X87232677Y-144670999D01*
X87229001Y-144633674D01*
X87229001Y-134766323D01*
X87232677Y-134729000D01*
X87229001Y-134691677D01*
X87229001Y-134691668D01*
X87218004Y-134580015D01*
X87174547Y-134436754D01*
X87103975Y-134304725D01*
X87009002Y-134189000D01*
X86979998Y-134165197D01*
X86744708Y-133929907D01*
X86758236Y-133885309D01*
X86785943Y-133604000D01*
X86758236Y-133322691D01*
X86676182Y-133052192D01*
X86542932Y-132802899D01*
X86363608Y-132584392D01*
X86332538Y-132558893D01*
X86980005Y-131911427D01*
X87009002Y-131887630D01*
X87103975Y-131771905D01*
X87174547Y-131639876D01*
X87218004Y-131496615D01*
X87229001Y-131384962D01*
X87229001Y-131384954D01*
X87232677Y-131347629D01*
X87229001Y-131310304D01*
X87229001Y-122574323D01*
X87232677Y-122537000D01*
X87229001Y-122499677D01*
X87229001Y-122499668D01*
X87218004Y-122388015D01*
X87174547Y-122244754D01*
X87135659Y-122172000D01*
X88735678Y-122172000D01*
X88773000Y-122175676D01*
X88810322Y-122172000D01*
X88810333Y-122172000D01*
X88921986Y-122161003D01*
X89065247Y-122117546D01*
X89197276Y-122046974D01*
X89313001Y-121952001D01*
X89336804Y-121922997D01*
X91104457Y-120155344D01*
X91095921Y-120183486D01*
X91089997Y-120203014D01*
X91075323Y-120351999D01*
X91079000Y-120389331D01*
X91078999Y-127869677D01*
X91075323Y-127906999D01*
X91078999Y-127944321D01*
X91078999Y-127944331D01*
X91089996Y-128055984D01*
X91133453Y-128199245D01*
X91204025Y-128331275D01*
X91243870Y-128379825D01*
X91298998Y-128447000D01*
X91328001Y-128470803D01*
X91563292Y-128706094D01*
X91549764Y-128750691D01*
X91522057Y-129032000D01*
X91549764Y-129313309D01*
X91563292Y-129357907D01*
X91327997Y-129593202D01*
X91298999Y-129617000D01*
X91275201Y-129645998D01*
X91275200Y-129645999D01*
X91204025Y-129732725D01*
X91133453Y-129864755D01*
X91103179Y-129964559D01*
X91093820Y-129995414D01*
X91089997Y-130008016D01*
X91075323Y-130157001D01*
X91079000Y-130194333D01*
X91078999Y-140061677D01*
X91075323Y-140098999D01*
X91078999Y-140136321D01*
X91078999Y-140136331D01*
X91089996Y-140247984D01*
X91109726Y-140313026D01*
X91133453Y-140391245D01*
X91204025Y-140523275D01*
X91211813Y-140532764D01*
X91298998Y-140639000D01*
X91328001Y-140662803D01*
X91563292Y-140898094D01*
X91549764Y-140942691D01*
X91522057Y-141224000D01*
X91549764Y-141505309D01*
X91563292Y-141549907D01*
X91327997Y-141785202D01*
X91298999Y-141809000D01*
X91275201Y-141837998D01*
X91275200Y-141837999D01*
X91204025Y-141924725D01*
X91133453Y-142056755D01*
X91103406Y-142155812D01*
X91093820Y-142187414D01*
X91089997Y-142200016D01*
X91075323Y-142349001D01*
X91079000Y-142386333D01*
X91078999Y-152253677D01*
X91075323Y-152290999D01*
X91078999Y-152328321D01*
X91078999Y-152328331D01*
X91089996Y-152439984D01*
X91133453Y-152583245D01*
X91204025Y-152715275D01*
X91221733Y-152736852D01*
X91298998Y-152831000D01*
X91328001Y-152854803D01*
X91563292Y-153090094D01*
X91549764Y-153134691D01*
X91522057Y-153416000D01*
X91549764Y-153697309D01*
X91563292Y-153741906D01*
X90490199Y-154815000D01*
X85471002Y-154815000D01*
X85471002Y-154686625D01*
X85693040Y-154807909D01*
X85957881Y-154713070D01*
X86199131Y-154568385D01*
X86407519Y-154379414D01*
X86575037Y-154153420D01*
X86695246Y-153899087D01*
X86735904Y-153765039D01*
X86613915Y-153543000D01*
X85471000Y-153543000D01*
X85471000Y-153563000D01*
X85217000Y-153563000D01*
X85217000Y-153543000D01*
X84074085Y-153543000D01*
X83952096Y-153765039D01*
X83992754Y-153899087D01*
X84112963Y-154153420D01*
X84280481Y-154379414D01*
X84488869Y-154568385D01*
X84730119Y-154713070D01*
X84994960Y-154807909D01*
X85216998Y-154686625D01*
X85216998Y-154815000D01*
X84134803Y-154815000D01*
X80008000Y-150688199D01*
X80008000Y-149505861D01*
X80137850Y-149466472D01*
X80291386Y-149384405D01*
X80425962Y-149273962D01*
X80536405Y-149139386D01*
X80618472Y-148985850D01*
X80669008Y-148819254D01*
X80686072Y-148646000D01*
X80686072Y-146546000D01*
X80669008Y-146372746D01*
X80618472Y-146206150D01*
X80536405Y-146052614D01*
X80425962Y-145918038D01*
X80349187Y-145855031D01*
X80402494Y-145826537D01*
X80499185Y-145747185D01*
X80578537Y-145650494D01*
X80637502Y-145540180D01*
X80673812Y-145420482D01*
X80686072Y-145296000D01*
X80683000Y-144281750D01*
X80524250Y-144123000D01*
X79375000Y-144123000D01*
X79375000Y-144143000D01*
X79121000Y-144143000D01*
X79121000Y-144123000D01*
X77971750Y-144123000D01*
X77813000Y-144281750D01*
X77810571Y-145083770D01*
X77249804Y-144523003D01*
X77226001Y-144493999D01*
X77110276Y-144399026D01*
X76978247Y-144328454D01*
X76834986Y-144284997D01*
X76723333Y-144274000D01*
X76723322Y-144274000D01*
X76686000Y-144270324D01*
X76648678Y-144274000D01*
X74191016Y-144274000D01*
X74150069Y-144197394D01*
X73962797Y-143969203D01*
X73734606Y-143781931D01*
X73690090Y-143758137D01*
X73786488Y-143700817D01*
X74004854Y-143504293D01*
X74180684Y-143268944D01*
X74307222Y-143003814D01*
X74352958Y-142853026D01*
X74231817Y-142621000D01*
X73025000Y-142621000D01*
X73025000Y-142641000D01*
X72771000Y-142641000D01*
X72771000Y-142621000D01*
X70485000Y-142621000D01*
X70485000Y-142641000D01*
X70231000Y-142641000D01*
X70231000Y-142621000D01*
X69024183Y-142621000D01*
X68903042Y-142853026D01*
X68948778Y-143003814D01*
X69075316Y-143268944D01*
X69251146Y-143504293D01*
X69314574Y-143561376D01*
X69250220Y-143580898D01*
X69139906Y-143639863D01*
X69043215Y-143719215D01*
X68963863Y-143815906D01*
X68904898Y-143926220D01*
X68868588Y-144045918D01*
X68856328Y-144170400D01*
X68856328Y-145897600D01*
X68868588Y-146022082D01*
X68904898Y-146141780D01*
X68963863Y-146252094D01*
X69043215Y-146348785D01*
X69139906Y-146428137D01*
X69250220Y-146487102D01*
X69369918Y-146523412D01*
X69494400Y-146535672D01*
X71221600Y-146535672D01*
X71346082Y-146523412D01*
X71465780Y-146487102D01*
X71576094Y-146428137D01*
X71672785Y-146348785D01*
X71752137Y-146252094D01*
X71811102Y-146141780D01*
X71826586Y-146090735D01*
X71833203Y-146098797D01*
X72061394Y-146286069D01*
X72321736Y-146425225D01*
X72604223Y-146510916D01*
X72824381Y-146532600D01*
X72971619Y-146532600D01*
X73191777Y-146510916D01*
X73474264Y-146425225D01*
X73734606Y-146286069D01*
X73962797Y-146098797D01*
X74150069Y-145870606D01*
X74191016Y-145794000D01*
X76371199Y-145794000D01*
X77809928Y-147232730D01*
X77809928Y-148646000D01*
X77826992Y-148819254D01*
X77877528Y-148985850D01*
X77959595Y-149139386D01*
X78070038Y-149273962D01*
X78204614Y-149384405D01*
X78358150Y-149466472D01*
X78488001Y-149505861D01*
X78488001Y-150965668D01*
X78484324Y-151003000D01*
X78498998Y-151151985D01*
X78542454Y-151295246D01*
X78613026Y-151427276D01*
X78684201Y-151514002D01*
X78708000Y-151543001D01*
X78736998Y-151566799D01*
X83256205Y-156086008D01*
X83279999Y-156115001D01*
X83308992Y-156138795D01*
X83308996Y-156138799D01*
X83379685Y-156196811D01*
X83395724Y-156209974D01*
X83527753Y-156280546D01*
X83671014Y-156324003D01*
X83782667Y-156335000D01*
X83782676Y-156335000D01*
X83819999Y-156338676D01*
X83857322Y-156335000D01*
X90767678Y-156335000D01*
X90805000Y-156338676D01*
X90842322Y-156335000D01*
X90842333Y-156335000D01*
X90953986Y-156324003D01*
X91097247Y-156280546D01*
X91229276Y-156209974D01*
X91345001Y-156115001D01*
X91368804Y-156085997D01*
X92511473Y-154943328D01*
X99719832Y-154943328D01*
X99781010Y-155557831D01*
X99960897Y-156148592D01*
X100248882Y-156687373D01*
X100666852Y-156963543D01*
X102690395Y-154940000D01*
X100666852Y-152916457D01*
X100248882Y-153192627D01*
X99958351Y-153737557D01*
X99779713Y-154328696D01*
X99719832Y-154943328D01*
X92511473Y-154943328D01*
X92638094Y-154816708D01*
X92682691Y-154830236D01*
X92893508Y-154851000D01*
X93034492Y-154851000D01*
X93245309Y-154830236D01*
X93515808Y-154748182D01*
X93765101Y-154614932D01*
X93983608Y-154435608D01*
X94162932Y-154217101D01*
X94296182Y-153967808D01*
X94378236Y-153697309D01*
X94405943Y-153416000D01*
X94378236Y-153134691D01*
X94296182Y-152864192D01*
X94228118Y-152736852D01*
X100846457Y-152736852D01*
X102870000Y-154760395D01*
X104893543Y-152736852D01*
X104617373Y-152318882D01*
X104072443Y-152028351D01*
X103481304Y-151849713D01*
X102866672Y-151789832D01*
X102252169Y-151851010D01*
X101661408Y-152030897D01*
X101122627Y-152318882D01*
X100846457Y-152736852D01*
X94228118Y-152736852D01*
X94162932Y-152614899D01*
X93983608Y-152396392D01*
X93765101Y-152217068D01*
X93627318Y-152143421D01*
X93819131Y-152028385D01*
X94027519Y-151839414D01*
X94195037Y-151613420D01*
X94315246Y-151359087D01*
X94355904Y-151225039D01*
X94233915Y-151003000D01*
X93091000Y-151003000D01*
X93091000Y-151023000D01*
X92837000Y-151023000D01*
X92837000Y-151003000D01*
X92817000Y-151003000D01*
X92817000Y-150749000D01*
X92837000Y-150749000D01*
X92837000Y-150729000D01*
X93091000Y-150729000D01*
X93091000Y-150749000D01*
X94233915Y-150749000D01*
X94355904Y-150526961D01*
X94315246Y-150392913D01*
X94195037Y-150138580D01*
X94027519Y-149912586D01*
X93819131Y-149723615D01*
X93627318Y-149608579D01*
X93765101Y-149534932D01*
X93983608Y-149355608D01*
X94162932Y-149137101D01*
X94296182Y-148887808D01*
X94378236Y-148617309D01*
X94405943Y-148336000D01*
X94378236Y-148054691D01*
X94296182Y-147784192D01*
X94162932Y-147534899D01*
X93983608Y-147316392D01*
X93870518Y-147223581D01*
X93888482Y-147221812D01*
X94008180Y-147185502D01*
X94118494Y-147126537D01*
X94215185Y-147047185D01*
X94294537Y-146950494D01*
X94353502Y-146840180D01*
X94389812Y-146720482D01*
X94402072Y-146596000D01*
X94402072Y-144996000D01*
X94389812Y-144871518D01*
X94353502Y-144751820D01*
X94294537Y-144641506D01*
X94215185Y-144544815D01*
X94118494Y-144465463D01*
X94008180Y-144406498D01*
X93888482Y-144370188D01*
X93764000Y-144357928D01*
X92598999Y-144357928D01*
X92598999Y-142663802D01*
X92638093Y-142624708D01*
X92682691Y-142638236D01*
X92893508Y-142659000D01*
X93034492Y-142659000D01*
X93245309Y-142638236D01*
X93515808Y-142556182D01*
X93765101Y-142422932D01*
X93983608Y-142243608D01*
X94162932Y-142025101D01*
X94296182Y-141775808D01*
X94378236Y-141505309D01*
X94405943Y-141224000D01*
X94378236Y-140942691D01*
X94296182Y-140672192D01*
X94162932Y-140422899D01*
X93983608Y-140204392D01*
X93765101Y-140025068D01*
X93627318Y-139951421D01*
X93819131Y-139836385D01*
X94027519Y-139647414D01*
X94195037Y-139421420D01*
X94315246Y-139167087D01*
X94355904Y-139033039D01*
X94233915Y-138811000D01*
X93091000Y-138811000D01*
X93091000Y-138831000D01*
X92837000Y-138831000D01*
X92837000Y-138811000D01*
X92817000Y-138811000D01*
X92817000Y-138557000D01*
X92837000Y-138557000D01*
X92837000Y-138537000D01*
X93091000Y-138537000D01*
X93091000Y-138557000D01*
X94233915Y-138557000D01*
X94355904Y-138334961D01*
X94315246Y-138200913D01*
X94195037Y-137946580D01*
X94027519Y-137720586D01*
X93819131Y-137531615D01*
X93627318Y-137416579D01*
X93765101Y-137342932D01*
X93983608Y-137163608D01*
X94162932Y-136945101D01*
X94296182Y-136695808D01*
X94378236Y-136425309D01*
X94405943Y-136144000D01*
X94378236Y-135862691D01*
X94296182Y-135592192D01*
X94162932Y-135342899D01*
X93983608Y-135124392D01*
X93870518Y-135031581D01*
X93888482Y-135029812D01*
X94008180Y-134993502D01*
X94118494Y-134934537D01*
X94215185Y-134855185D01*
X94294537Y-134758494D01*
X94353502Y-134648180D01*
X94389812Y-134528482D01*
X94402072Y-134404000D01*
X94402072Y-132804000D01*
X94389812Y-132679518D01*
X94353502Y-132559820D01*
X94294537Y-132449506D01*
X94215185Y-132352815D01*
X94118494Y-132273463D01*
X94008180Y-132214498D01*
X93888482Y-132178188D01*
X93764000Y-132165928D01*
X92598999Y-132165928D01*
X92598999Y-130471802D01*
X92638093Y-130432708D01*
X92682691Y-130446236D01*
X92893508Y-130467000D01*
X93034492Y-130467000D01*
X93245309Y-130446236D01*
X93515808Y-130364182D01*
X93765101Y-130230932D01*
X93983608Y-130051608D01*
X94162932Y-129833101D01*
X94296182Y-129583808D01*
X94378236Y-129313309D01*
X94405943Y-129032000D01*
X94378236Y-128750691D01*
X94296182Y-128480192D01*
X94162932Y-128230899D01*
X93983608Y-128012392D01*
X93765101Y-127833068D01*
X93627318Y-127759421D01*
X93819131Y-127644385D01*
X94027519Y-127455414D01*
X94195037Y-127229420D01*
X94315246Y-126975087D01*
X94355904Y-126841039D01*
X94233915Y-126619000D01*
X93091000Y-126619000D01*
X93091000Y-126639000D01*
X92837000Y-126639000D01*
X92837000Y-126619000D01*
X92817000Y-126619000D01*
X92817000Y-126365000D01*
X92837000Y-126365000D01*
X92837000Y-126345000D01*
X93091000Y-126345000D01*
X93091000Y-126365000D01*
X94233915Y-126365000D01*
X94355904Y-126142961D01*
X94315246Y-126008913D01*
X94195037Y-125754580D01*
X94027519Y-125528586D01*
X93819131Y-125339615D01*
X93627318Y-125224579D01*
X93765101Y-125150932D01*
X93983608Y-124971608D01*
X94162932Y-124753101D01*
X94296182Y-124503808D01*
X94378236Y-124233309D01*
X94405943Y-123952000D01*
X94378236Y-123670691D01*
X94296182Y-123400192D01*
X94162932Y-123150899D01*
X93983608Y-122932392D01*
X93870518Y-122839581D01*
X93888482Y-122837812D01*
X94008180Y-122801502D01*
X94118494Y-122742537D01*
X94215185Y-122663185D01*
X94294537Y-122566494D01*
X94353502Y-122456180D01*
X94389812Y-122336482D01*
X94402072Y-122212000D01*
X94402072Y-120612000D01*
X94389812Y-120487518D01*
X94353502Y-120367820D01*
X94294537Y-120257506D01*
X94215185Y-120160815D01*
X94118494Y-120081463D01*
X94008180Y-120022498D01*
X93888482Y-119986188D01*
X93764000Y-119973928D01*
X93291871Y-119973928D01*
X99475800Y-113790000D01*
X101846405Y-113790000D01*
X101883294Y-113859014D01*
X102068866Y-114085134D01*
X102294986Y-114270706D01*
X102349791Y-114300000D01*
X102294986Y-114329294D01*
X102068866Y-114514866D01*
X101883294Y-114740986D01*
X101745401Y-114998966D01*
X101660487Y-115278889D01*
X101631815Y-115570000D01*
X101660487Y-115861111D01*
X101745401Y-116141034D01*
X101883294Y-116399014D01*
X102068866Y-116625134D01*
X102294986Y-116810706D01*
X102349791Y-116840000D01*
X102294986Y-116869294D01*
X102068866Y-117054866D01*
X101883294Y-117280986D01*
X101745401Y-117538966D01*
X101660487Y-117818889D01*
X101631815Y-118110000D01*
X101660487Y-118401111D01*
X101745401Y-118681034D01*
X101883294Y-118939014D01*
X102068866Y-119165134D01*
X102294986Y-119350706D01*
X102349791Y-119380000D01*
X102294986Y-119409294D01*
X102068866Y-119594866D01*
X101883294Y-119820986D01*
X101745401Y-120078966D01*
X101660487Y-120358889D01*
X101631815Y-120650000D01*
X101660487Y-120941111D01*
X101745401Y-121221034D01*
X101883294Y-121479014D01*
X102068866Y-121705134D01*
X102294986Y-121890706D01*
X102349791Y-121920000D01*
X102294986Y-121949294D01*
X102068866Y-122134866D01*
X101883294Y-122360986D01*
X101745401Y-122618966D01*
X101660487Y-122898889D01*
X101631815Y-123190000D01*
X101660487Y-123481111D01*
X101745401Y-123761034D01*
X101883294Y-124019014D01*
X102068866Y-124245134D01*
X102294986Y-124430706D01*
X102349791Y-124460000D01*
X102294986Y-124489294D01*
X102068866Y-124674866D01*
X101883294Y-124900986D01*
X101745401Y-125158966D01*
X101660487Y-125438889D01*
X101631815Y-125730000D01*
X101660487Y-126021111D01*
X101745401Y-126301034D01*
X101883294Y-126559014D01*
X102068866Y-126785134D01*
X102294986Y-126970706D01*
X102349791Y-127000000D01*
X102294986Y-127029294D01*
X102068866Y-127214866D01*
X101883294Y-127440986D01*
X101745401Y-127698966D01*
X101660487Y-127978889D01*
X101631815Y-128270000D01*
X101660487Y-128561111D01*
X101745401Y-128841034D01*
X101883294Y-129099014D01*
X102068866Y-129325134D01*
X102294986Y-129510706D01*
X102349791Y-129540000D01*
X102294986Y-129569294D01*
X102068866Y-129754866D01*
X101883294Y-129980986D01*
X101745401Y-130238966D01*
X101660487Y-130518889D01*
X101631815Y-130810000D01*
X101660487Y-131101111D01*
X101745401Y-131381034D01*
X101883294Y-131639014D01*
X102068866Y-131865134D01*
X102294986Y-132050706D01*
X102349791Y-132080000D01*
X102294986Y-132109294D01*
X102068866Y-132294866D01*
X101883294Y-132520986D01*
X101745401Y-132778966D01*
X101660487Y-133058889D01*
X101631815Y-133350000D01*
X101657851Y-133614347D01*
X98893199Y-136379000D01*
X98831061Y-136379000D01*
X98631102Y-136418774D01*
X98442744Y-136496795D01*
X98273226Y-136610063D01*
X98129063Y-136754226D01*
X98015795Y-136923744D01*
X97937774Y-137112102D01*
X97898000Y-137312061D01*
X97898000Y-137515939D01*
X97937774Y-137715898D01*
X98015795Y-137904256D01*
X98129063Y-138073774D01*
X98273226Y-138217937D01*
X98442744Y-138331205D01*
X98631102Y-138409226D01*
X98831061Y-138449000D01*
X99034939Y-138449000D01*
X99234898Y-138409226D01*
X99423256Y-138331205D01*
X99592774Y-138217937D01*
X99736937Y-138073774D01*
X99850205Y-137904256D01*
X99928226Y-137715898D01*
X99968000Y-137515939D01*
X99968000Y-137453801D01*
X101174911Y-136246890D01*
X101682524Y-136246890D01*
X101727175Y-136394099D01*
X101852359Y-136656920D01*
X102026412Y-136890269D01*
X102242645Y-137085178D01*
X102492748Y-137234157D01*
X102767109Y-137331481D01*
X102997000Y-137210814D01*
X102997000Y-136017000D01*
X103251000Y-136017000D01*
X103251000Y-137210814D01*
X103480891Y-137331481D01*
X103755252Y-137234157D01*
X104005355Y-137085178D01*
X104221588Y-136890269D01*
X104395641Y-136656920D01*
X104520825Y-136394099D01*
X104565476Y-136246890D01*
X104444155Y-136017000D01*
X103251000Y-136017000D01*
X102997000Y-136017000D01*
X101803845Y-136017000D01*
X101682524Y-136246890D01*
X101174911Y-136246890D01*
X101753742Y-135668060D01*
X101803845Y-135763000D01*
X102997000Y-135763000D01*
X102997000Y-135743000D01*
X103251000Y-135743000D01*
X103251000Y-135763000D01*
X104444155Y-135763000D01*
X104565476Y-135533110D01*
X104520825Y-135385901D01*
X104395641Y-135123080D01*
X104221588Y-134889731D01*
X104005355Y-134694822D01*
X103888477Y-134625201D01*
X103953014Y-134590706D01*
X104179134Y-134405134D01*
X104364706Y-134179014D01*
X104502599Y-133921034D01*
X104587513Y-133641111D01*
X104616185Y-133350000D01*
X104587513Y-133058889D01*
X104502599Y-132778966D01*
X104364706Y-132520986D01*
X104179134Y-132294866D01*
X103953014Y-132109294D01*
X103898209Y-132080000D01*
X103953014Y-132050706D01*
X104179134Y-131865134D01*
X104364706Y-131639014D01*
X104502599Y-131381034D01*
X104587513Y-131101111D01*
X104616185Y-130810000D01*
X104587513Y-130518889D01*
X104502599Y-130238966D01*
X104364706Y-129980986D01*
X104179134Y-129754866D01*
X103953014Y-129569294D01*
X103898209Y-129540000D01*
X103953014Y-129510706D01*
X104179134Y-129325134D01*
X104364706Y-129099014D01*
X104502599Y-128841034D01*
X104587513Y-128561111D01*
X104616185Y-128270000D01*
X104587513Y-127978889D01*
X104502599Y-127698966D01*
X104364706Y-127440986D01*
X104179134Y-127214866D01*
X103953014Y-127029294D01*
X103898209Y-127000000D01*
X103953014Y-126970706D01*
X104179134Y-126785134D01*
X104364706Y-126559014D01*
X104502599Y-126301034D01*
X104587513Y-126021111D01*
X104616185Y-125730000D01*
X104587513Y-125438889D01*
X104502599Y-125158966D01*
X104364706Y-124900986D01*
X104179134Y-124674866D01*
X103953014Y-124489294D01*
X103898209Y-124460000D01*
X103953014Y-124430706D01*
X104179134Y-124245134D01*
X104364706Y-124019014D01*
X104502599Y-123761034D01*
X104587513Y-123481111D01*
X104616185Y-123190000D01*
X104587513Y-122898889D01*
X104502599Y-122618966D01*
X104364706Y-122360986D01*
X104179134Y-122134866D01*
X103953014Y-121949294D01*
X103898209Y-121920000D01*
X103953014Y-121890706D01*
X104179134Y-121705134D01*
X104364706Y-121479014D01*
X104502599Y-121221034D01*
X104587513Y-120941111D01*
X104616185Y-120650000D01*
X104587513Y-120358889D01*
X104502599Y-120078966D01*
X104364706Y-119820986D01*
X104179134Y-119594866D01*
X103953014Y-119409294D01*
X103898209Y-119380000D01*
X103953014Y-119350706D01*
X104179134Y-119165134D01*
X104364706Y-118939014D01*
X104502599Y-118681034D01*
X104587513Y-118401111D01*
X104616185Y-118110000D01*
X104587513Y-117818889D01*
X104502599Y-117538966D01*
X104364706Y-117280986D01*
X104179134Y-117054866D01*
X103953014Y-116869294D01*
X103898209Y-116840000D01*
X103953014Y-116810706D01*
X104179134Y-116625134D01*
X104364706Y-116399014D01*
X104502599Y-116141034D01*
X104587513Y-115861111D01*
X104616185Y-115570000D01*
X104587513Y-115278889D01*
X104502599Y-114998966D01*
X104364706Y-114740986D01*
X104179134Y-114514866D01*
X103953014Y-114329294D01*
X103898209Y-114300000D01*
X103953014Y-114270706D01*
X104179134Y-114085134D01*
X104364706Y-113859014D01*
X104502599Y-113601034D01*
X104587513Y-113321111D01*
X104616185Y-113030000D01*
X104587513Y-112738889D01*
X104502599Y-112458966D01*
X104364706Y-112200986D01*
X104179134Y-111974866D01*
X103953014Y-111789294D01*
X103898209Y-111760000D01*
X103953014Y-111730706D01*
X104179134Y-111545134D01*
X104364706Y-111319014D01*
X104502599Y-111061034D01*
X104587513Y-110781111D01*
X104616185Y-110490000D01*
X104587513Y-110198889D01*
X104502599Y-109918966D01*
X104364706Y-109660986D01*
X104179134Y-109434866D01*
X104149313Y-109410393D01*
X104218180Y-109389502D01*
X104328494Y-109330537D01*
X104425185Y-109251185D01*
X104504537Y-109154494D01*
X104563502Y-109044180D01*
X104599812Y-108924482D01*
X104612072Y-108800000D01*
X104609000Y-108235750D01*
X104450250Y-108077000D01*
X103251000Y-108077000D01*
X103251000Y-108097000D01*
X102997000Y-108097000D01*
X102997000Y-108077000D01*
X101797750Y-108077000D01*
X101639000Y-108235750D01*
X101635928Y-108800000D01*
X101648188Y-108924482D01*
X101684498Y-109044180D01*
X101743463Y-109154494D01*
X101822815Y-109251185D01*
X101919506Y-109330537D01*
X102029820Y-109389502D01*
X102098687Y-109410393D01*
X102068866Y-109434866D01*
X101883294Y-109660986D01*
X101846405Y-109730000D01*
X99732333Y-109730000D01*
X99695000Y-109726323D01*
X99657667Y-109730000D01*
X99546014Y-109740997D01*
X99402753Y-109784454D01*
X99270724Y-109855026D01*
X99154999Y-109949999D01*
X99131201Y-109978997D01*
X94225921Y-114884278D01*
X94226023Y-114883865D01*
X94238910Y-114608983D01*
X94197922Y-114336867D01*
X94104636Y-114077977D01*
X94042656Y-113962020D01*
X93802565Y-113895040D01*
X93016605Y-114681000D01*
X93030748Y-114695143D01*
X92851143Y-114874748D01*
X92837000Y-114860605D01*
X92051040Y-115646565D01*
X92118020Y-115886656D01*
X92367048Y-116003756D01*
X92634135Y-116070023D01*
X92909017Y-116082910D01*
X93048263Y-116061936D01*
X88458199Y-120652000D01*
X86564901Y-120652000D01*
X86542932Y-120610899D01*
X86363608Y-120392392D01*
X86145101Y-120213068D01*
X85895808Y-120079818D01*
X85893262Y-120079046D01*
X85884001Y-120067761D01*
X85855003Y-120043963D01*
X85016166Y-119205126D01*
X85046980Y-119188656D01*
X85113960Y-118948565D01*
X84328000Y-118162605D01*
X84313858Y-118176748D01*
X84134253Y-117997143D01*
X84148395Y-117983000D01*
X84507605Y-117983000D01*
X85293565Y-118768960D01*
X85533656Y-118701980D01*
X85650756Y-118452952D01*
X85717023Y-118185865D01*
X85729910Y-117910983D01*
X85688922Y-117638867D01*
X85595636Y-117379977D01*
X85533656Y-117264020D01*
X85293565Y-117197040D01*
X84507605Y-117983000D01*
X84148395Y-117983000D01*
X83362435Y-117197040D01*
X83122344Y-117264020D01*
X83107221Y-117296182D01*
X82828474Y-117017435D01*
X83542040Y-117017435D01*
X84328000Y-117803395D01*
X85113960Y-117017435D01*
X85046980Y-116777344D01*
X84797952Y-116660244D01*
X84530865Y-116593977D01*
X84255983Y-116581090D01*
X83983867Y-116622078D01*
X83724977Y-116715364D01*
X83609020Y-116777344D01*
X83542040Y-117017435D01*
X82828474Y-117017435D01*
X82403001Y-116591962D01*
X82403001Y-106445323D01*
X82406677Y-106408000D01*
X82403001Y-106370677D01*
X82403001Y-106370668D01*
X82392004Y-106259015D01*
X82348547Y-106115754D01*
X82277975Y-105983725D01*
X82183002Y-105868000D01*
X82153998Y-105844197D01*
X81918708Y-105608907D01*
X81932236Y-105564309D01*
X81959943Y-105283000D01*
X81932236Y-105001691D01*
X81850182Y-104731192D01*
X81716932Y-104481899D01*
X81537608Y-104263392D01*
X81319101Y-104084068D01*
X81186142Y-104013000D01*
X81319101Y-103941932D01*
X81537608Y-103762608D01*
X81716932Y-103544101D01*
X81850182Y-103294808D01*
X81932236Y-103024309D01*
X81959943Y-102743000D01*
X86696057Y-102743000D01*
X86723764Y-103024309D01*
X86805818Y-103294808D01*
X86939068Y-103544101D01*
X87118392Y-103762608D01*
X87336899Y-103941932D01*
X87469858Y-104013000D01*
X87336899Y-104084068D01*
X87118392Y-104263392D01*
X86939068Y-104481899D01*
X86805818Y-104731192D01*
X86723764Y-105001691D01*
X86696057Y-105283000D01*
X86723764Y-105564309D01*
X86805818Y-105834808D01*
X86939068Y-106084101D01*
X87118392Y-106302608D01*
X87336899Y-106481932D01*
X87469858Y-106553000D01*
X87336899Y-106624068D01*
X87118392Y-106803392D01*
X86939068Y-107021899D01*
X86805818Y-107271192D01*
X86723764Y-107541691D01*
X86696057Y-107823000D01*
X86723764Y-108104309D01*
X86805818Y-108374808D01*
X86939068Y-108624101D01*
X87118392Y-108842608D01*
X87336899Y-109021932D01*
X87469858Y-109093000D01*
X87336899Y-109164068D01*
X87118392Y-109343392D01*
X86939068Y-109561899D01*
X86805818Y-109811192D01*
X86723764Y-110081691D01*
X86696057Y-110363000D01*
X86723764Y-110644309D01*
X86805818Y-110914808D01*
X86939068Y-111164101D01*
X87118392Y-111382608D01*
X87336899Y-111561932D01*
X87469858Y-111633000D01*
X87336899Y-111704068D01*
X87118392Y-111883392D01*
X86939068Y-112101899D01*
X86805818Y-112351192D01*
X86723764Y-112621691D01*
X86696057Y-112903000D01*
X86723764Y-113184309D01*
X86805818Y-113454808D01*
X86939068Y-113704101D01*
X87118392Y-113922608D01*
X87336899Y-114101932D01*
X87469858Y-114173000D01*
X87336899Y-114244068D01*
X87118392Y-114423392D01*
X86939068Y-114641899D01*
X86805818Y-114891192D01*
X86723764Y-115161691D01*
X86696057Y-115443000D01*
X86723764Y-115724309D01*
X86805818Y-115994808D01*
X86939068Y-116244101D01*
X87118392Y-116462608D01*
X87336899Y-116641932D01*
X87586192Y-116775182D01*
X87856691Y-116857236D01*
X88067508Y-116878000D01*
X88208492Y-116878000D01*
X88419309Y-116857236D01*
X88689808Y-116775182D01*
X88939101Y-116641932D01*
X89157608Y-116462608D01*
X89336932Y-116244101D01*
X89470182Y-115994808D01*
X89552236Y-115724309D01*
X89579943Y-115443000D01*
X89552236Y-115161691D01*
X89470182Y-114891192D01*
X89396326Y-114753017D01*
X91435090Y-114753017D01*
X91476078Y-115025133D01*
X91569364Y-115284023D01*
X91631344Y-115399980D01*
X91871435Y-115466960D01*
X92657395Y-114681000D01*
X91871435Y-113895040D01*
X91631344Y-113962020D01*
X91514244Y-114211048D01*
X91447977Y-114478135D01*
X91435090Y-114753017D01*
X89396326Y-114753017D01*
X89336932Y-114641899D01*
X89157608Y-114423392D01*
X88939101Y-114244068D01*
X88806142Y-114173000D01*
X88939101Y-114101932D01*
X89157608Y-113922608D01*
X89327630Y-113715435D01*
X92051040Y-113715435D01*
X92837000Y-114501395D01*
X93622960Y-113715435D01*
X93555980Y-113475344D01*
X93306952Y-113358244D01*
X93039865Y-113291977D01*
X92764983Y-113279090D01*
X92492867Y-113320078D01*
X92233977Y-113413364D01*
X92118020Y-113475344D01*
X92051040Y-113715435D01*
X89327630Y-113715435D01*
X89336932Y-113704101D01*
X89470182Y-113454808D01*
X89552236Y-113184309D01*
X89579943Y-112903000D01*
X89552236Y-112621691D01*
X89470182Y-112351192D01*
X89336932Y-112101899D01*
X89157608Y-111883392D01*
X88939101Y-111704068D01*
X88806142Y-111633000D01*
X88939101Y-111561932D01*
X89157608Y-111382608D01*
X89336932Y-111164101D01*
X89470182Y-110914808D01*
X89552236Y-110644309D01*
X89579943Y-110363000D01*
X89552236Y-110081691D01*
X89470182Y-109811192D01*
X89336932Y-109561899D01*
X89157608Y-109343392D01*
X88939101Y-109164068D01*
X88806142Y-109093000D01*
X88939101Y-109021932D01*
X89157608Y-108842608D01*
X89336932Y-108624101D01*
X89470182Y-108374808D01*
X89552236Y-108104309D01*
X89579943Y-107823000D01*
X89552236Y-107541691D01*
X89470182Y-107271192D01*
X89336932Y-107021899D01*
X89157608Y-106803392D01*
X88939101Y-106624068D01*
X88806142Y-106553000D01*
X88939101Y-106481932D01*
X89157608Y-106302608D01*
X89336932Y-106084101D01*
X89358901Y-106043000D01*
X89474199Y-106043000D01*
X91470628Y-108039430D01*
X91440000Y-108193408D01*
X91440000Y-108468592D01*
X91493686Y-108738490D01*
X91598995Y-108992727D01*
X91751880Y-109221535D01*
X91946465Y-109416120D01*
X92175273Y-109569005D01*
X92429510Y-109674314D01*
X92699408Y-109728000D01*
X92974592Y-109728000D01*
X93244490Y-109674314D01*
X93498727Y-109569005D01*
X93727535Y-109416120D01*
X93922120Y-109221535D01*
X94075005Y-108992727D01*
X94180314Y-108738490D01*
X94234000Y-108468592D01*
X94234000Y-108193408D01*
X94180314Y-107923510D01*
X94075005Y-107669273D01*
X93922120Y-107440465D01*
X93727535Y-107245880D01*
X93509211Y-107100000D01*
X101635928Y-107100000D01*
X101639000Y-107664250D01*
X101797750Y-107823000D01*
X102997000Y-107823000D01*
X102997000Y-106623750D01*
X103251000Y-106623750D01*
X103251000Y-107823000D01*
X104450250Y-107823000D01*
X104609000Y-107664250D01*
X104612072Y-107100000D01*
X104599812Y-106975518D01*
X104563502Y-106855820D01*
X104504537Y-106745506D01*
X104425185Y-106648815D01*
X104328494Y-106569463D01*
X104218180Y-106510498D01*
X104098482Y-106474188D01*
X103974000Y-106461928D01*
X103409750Y-106465000D01*
X103251000Y-106623750D01*
X102997000Y-106623750D01*
X102838250Y-106465000D01*
X102274000Y-106461928D01*
X102149518Y-106474188D01*
X102029820Y-106510498D01*
X101919506Y-106569463D01*
X101822815Y-106648815D01*
X101743463Y-106745506D01*
X101684498Y-106855820D01*
X101648188Y-106975518D01*
X101635928Y-107100000D01*
X93509211Y-107100000D01*
X93498727Y-107092995D01*
X93244490Y-106987686D01*
X92974592Y-106934000D01*
X92699408Y-106934000D01*
X92545430Y-106964628D01*
X90352804Y-104772003D01*
X90329001Y-104742999D01*
X90213276Y-104648026D01*
X90081247Y-104577454D01*
X89937986Y-104533997D01*
X89826333Y-104523000D01*
X89826322Y-104523000D01*
X89789000Y-104519324D01*
X89751678Y-104523000D01*
X89358901Y-104523000D01*
X89336932Y-104481899D01*
X89157608Y-104263392D01*
X88939101Y-104084068D01*
X88806142Y-104013000D01*
X88939101Y-103941932D01*
X89157608Y-103762608D01*
X89336932Y-103544101D01*
X89358901Y-103503000D01*
X91488019Y-103503000D01*
X91493686Y-103531490D01*
X91598995Y-103785727D01*
X91751880Y-104014535D01*
X91946465Y-104209120D01*
X92175273Y-104362005D01*
X92429510Y-104467314D01*
X92699408Y-104521000D01*
X92974592Y-104521000D01*
X93244490Y-104467314D01*
X93498727Y-104362005D01*
X93727535Y-104209120D01*
X93922120Y-104014535D01*
X94075005Y-103785727D01*
X94180314Y-103531490D01*
X94234000Y-103261592D01*
X94234000Y-102986408D01*
X94180314Y-102716510D01*
X94075005Y-102462273D01*
X93922120Y-102233465D01*
X93727535Y-102038880D01*
X93498727Y-101885995D01*
X93244490Y-101780686D01*
X92974592Y-101727000D01*
X92699408Y-101727000D01*
X92429510Y-101780686D01*
X92175273Y-101885995D01*
X92030095Y-101983000D01*
X89358901Y-101983000D01*
X89336932Y-101941899D01*
X89157608Y-101723392D01*
X88939101Y-101544068D01*
X88801318Y-101470421D01*
X88993131Y-101355385D01*
X89201519Y-101166414D01*
X89369037Y-100940420D01*
X89489246Y-100686087D01*
X89529904Y-100552039D01*
X89407915Y-100330000D01*
X88265000Y-100330000D01*
X88265000Y-100350000D01*
X88011000Y-100350000D01*
X88011000Y-100330000D01*
X86868085Y-100330000D01*
X86746096Y-100552039D01*
X86786754Y-100686087D01*
X86906963Y-100940420D01*
X87074481Y-101166414D01*
X87282869Y-101355385D01*
X87474682Y-101470421D01*
X87336899Y-101544068D01*
X87118392Y-101723392D01*
X86939068Y-101941899D01*
X86805818Y-102191192D01*
X86723764Y-102461691D01*
X86696057Y-102743000D01*
X81959943Y-102743000D01*
X81932236Y-102461691D01*
X81850182Y-102191192D01*
X81716932Y-101941899D01*
X81537608Y-101723392D01*
X81319101Y-101544068D01*
X81186142Y-101473000D01*
X81319101Y-101401932D01*
X81537608Y-101222608D01*
X81716932Y-101004101D01*
X81850182Y-100754808D01*
X81932236Y-100484309D01*
X81959943Y-100203000D01*
X81932236Y-99921691D01*
X81850182Y-99651192D01*
X81716932Y-99401899D01*
X81537608Y-99183392D01*
X81319101Y-99004068D01*
X81186142Y-98933000D01*
X81319101Y-98861932D01*
X81537608Y-98682608D01*
X81716932Y-98464101D01*
X81850182Y-98214808D01*
X81932236Y-97944309D01*
X81959943Y-97663000D01*
X86696057Y-97663000D01*
X86723764Y-97944309D01*
X86805818Y-98214808D01*
X86939068Y-98464101D01*
X87118392Y-98682608D01*
X87336899Y-98861932D01*
X87474682Y-98935579D01*
X87282869Y-99050615D01*
X87074481Y-99239586D01*
X86906963Y-99465580D01*
X86786754Y-99719913D01*
X86746096Y-99853961D01*
X86868085Y-100076000D01*
X88011000Y-100076000D01*
X88011000Y-100056000D01*
X88265000Y-100056000D01*
X88265000Y-100076000D01*
X89407915Y-100076000D01*
X89529904Y-99853961D01*
X89489246Y-99719913D01*
X89369037Y-99465580D01*
X89201519Y-99239586D01*
X88993131Y-99050615D01*
X88801318Y-98935579D01*
X88939101Y-98861932D01*
X89157608Y-98682608D01*
X89336932Y-98464101D01*
X89470182Y-98214808D01*
X89552236Y-97944309D01*
X89572401Y-97739565D01*
X92051040Y-97739565D01*
X92118020Y-97979656D01*
X92367048Y-98096756D01*
X92634135Y-98163023D01*
X92909017Y-98175910D01*
X93181133Y-98134922D01*
X93440023Y-98041636D01*
X93555980Y-97979656D01*
X93622960Y-97739565D01*
X92837000Y-96953605D01*
X92051040Y-97739565D01*
X89572401Y-97739565D01*
X89579943Y-97663000D01*
X89552236Y-97381691D01*
X89470182Y-97111192D01*
X89336932Y-96861899D01*
X89323898Y-96846017D01*
X91435090Y-96846017D01*
X91476078Y-97118133D01*
X91569364Y-97377023D01*
X91631344Y-97492980D01*
X91871435Y-97559960D01*
X92657395Y-96774000D01*
X93016605Y-96774000D01*
X93802565Y-97559960D01*
X94042656Y-97492980D01*
X94159756Y-97243952D01*
X94226023Y-96976865D01*
X94238910Y-96701983D01*
X94197922Y-96429867D01*
X94104636Y-96170977D01*
X94042656Y-96055020D01*
X93802565Y-95988040D01*
X93016605Y-96774000D01*
X92657395Y-96774000D01*
X91871435Y-95988040D01*
X91631344Y-96055020D01*
X91514244Y-96304048D01*
X91447977Y-96571135D01*
X91435090Y-96846017D01*
X89323898Y-96846017D01*
X89157608Y-96643392D01*
X89044518Y-96550581D01*
X89062482Y-96548812D01*
X89182180Y-96512502D01*
X89292494Y-96453537D01*
X89389185Y-96374185D01*
X89468537Y-96277494D01*
X89527502Y-96167180D01*
X89563812Y-96047482D01*
X89576072Y-95923000D01*
X89576072Y-95808435D01*
X92051040Y-95808435D01*
X92837000Y-96594395D01*
X93622960Y-95808435D01*
X93555980Y-95568344D01*
X93306952Y-95451244D01*
X93039865Y-95384977D01*
X92764983Y-95372090D01*
X92492867Y-95413078D01*
X92233977Y-95506364D01*
X92118020Y-95568344D01*
X92051040Y-95808435D01*
X89576072Y-95808435D01*
X89576072Y-94323000D01*
X89563812Y-94198518D01*
X89527502Y-94078820D01*
X89468537Y-93968506D01*
X89389185Y-93871815D01*
X89292494Y-93792463D01*
X89182180Y-93733498D01*
X89062482Y-93697188D01*
X88938000Y-93684928D01*
X87338000Y-93684928D01*
X87213518Y-93697188D01*
X87093820Y-93733498D01*
X86983506Y-93792463D01*
X86886815Y-93871815D01*
X86807463Y-93968506D01*
X86748498Y-94078820D01*
X86712188Y-94198518D01*
X86699928Y-94323000D01*
X86699928Y-95923000D01*
X86712188Y-96047482D01*
X86748498Y-96167180D01*
X86807463Y-96277494D01*
X86886815Y-96374185D01*
X86983506Y-96453537D01*
X87093820Y-96512502D01*
X87213518Y-96548812D01*
X87231482Y-96550581D01*
X87118392Y-96643392D01*
X86939068Y-96861899D01*
X86805818Y-97111192D01*
X86723764Y-97381691D01*
X86696057Y-97663000D01*
X81959943Y-97663000D01*
X81932236Y-97381691D01*
X81850182Y-97111192D01*
X81716932Y-96861899D01*
X81537608Y-96643392D01*
X81319101Y-96464068D01*
X81186142Y-96393000D01*
X81319101Y-96321932D01*
X81537608Y-96142608D01*
X81716932Y-95924101D01*
X81850182Y-95674808D01*
X81932236Y-95404309D01*
X81959943Y-95123000D01*
X81932236Y-94841691D01*
X81850182Y-94571192D01*
X81716932Y-94321899D01*
X81537608Y-94103392D01*
X81319101Y-93924068D01*
X81069808Y-93790818D01*
X80799309Y-93708764D01*
X80588492Y-93688000D01*
X80447508Y-93688000D01*
X80236691Y-93708764D01*
X79966192Y-93790818D01*
X79716899Y-93924068D01*
X79498392Y-94103392D01*
X79319068Y-94321899D01*
X79185818Y-94571192D01*
X79103764Y-94841691D01*
X79076057Y-95123000D01*
X79103764Y-95404309D01*
X79185818Y-95674808D01*
X79319068Y-95924101D01*
X79498392Y-96142608D01*
X79716899Y-96321932D01*
X79849858Y-96393000D01*
X79716899Y-96464068D01*
X79498392Y-96643392D01*
X79319068Y-96861899D01*
X79185818Y-97111192D01*
X79103764Y-97381691D01*
X79076057Y-97663000D01*
X79103764Y-97944309D01*
X79185818Y-98214808D01*
X79319068Y-98464101D01*
X79498392Y-98682608D01*
X79716899Y-98861932D01*
X79849858Y-98933000D01*
X79716899Y-99004068D01*
X79498392Y-99183392D01*
X79319068Y-99401899D01*
X79297099Y-99443000D01*
X78904323Y-99443000D01*
X78867000Y-99439324D01*
X78829677Y-99443000D01*
X78829667Y-99443000D01*
X78718014Y-99453997D01*
X78574753Y-99497454D01*
X78442724Y-99568026D01*
X78326999Y-99662999D01*
X78303201Y-99691997D01*
X76237571Y-101757628D01*
X76083592Y-101727000D01*
X75808408Y-101727000D01*
X75538510Y-101780686D01*
X75284273Y-101885995D01*
X75055465Y-102038880D01*
X74860880Y-102233465D01*
X74707995Y-102462273D01*
X74602686Y-102716510D01*
X74549000Y-102986408D01*
X74549000Y-103261592D01*
X74602686Y-103531490D01*
X74707995Y-103785727D01*
X74860880Y-104014535D01*
X75055465Y-104209120D01*
X75284273Y-104362005D01*
X75538510Y-104467314D01*
X75808408Y-104521000D01*
X76083592Y-104521000D01*
X76353490Y-104467314D01*
X76607727Y-104362005D01*
X76836535Y-104209120D01*
X77031120Y-104014535D01*
X77184005Y-103785727D01*
X77289314Y-103531490D01*
X77343000Y-103261592D01*
X77343000Y-102986408D01*
X77312372Y-102832429D01*
X79181802Y-100963000D01*
X79297099Y-100963000D01*
X79319068Y-101004101D01*
X79498392Y-101222608D01*
X79716899Y-101401932D01*
X79849858Y-101473000D01*
X79716899Y-101544068D01*
X79498392Y-101723392D01*
X79319068Y-101941899D01*
X79185818Y-102191192D01*
X79103764Y-102461691D01*
X79076057Y-102743000D01*
X79103764Y-103024309D01*
X79185818Y-103294808D01*
X79319068Y-103544101D01*
X79498392Y-103762608D01*
X79716899Y-103941932D01*
X79849858Y-104013000D01*
X79716899Y-104084068D01*
X79498392Y-104263392D01*
X79319068Y-104481899D01*
X79185818Y-104731192D01*
X79103764Y-105001691D01*
X79076057Y-105283000D01*
X79103764Y-105564309D01*
X79185818Y-105834808D01*
X79319068Y-106084101D01*
X79498392Y-106302608D01*
X79716899Y-106481932D01*
X79849858Y-106553000D01*
X79716899Y-106624068D01*
X79498392Y-106803392D01*
X79319068Y-107021899D01*
X79185818Y-107271192D01*
X79103764Y-107541691D01*
X79076057Y-107823000D01*
X79103764Y-108104309D01*
X79185818Y-108374808D01*
X79319068Y-108624101D01*
X79498392Y-108842608D01*
X79716899Y-109021932D01*
X79849858Y-109093000D01*
X79716899Y-109164068D01*
X79498392Y-109343392D01*
X79319068Y-109561899D01*
X79185818Y-109811192D01*
X79103764Y-110081691D01*
X79076057Y-110363000D01*
X79103764Y-110644309D01*
X79185818Y-110914808D01*
X79319068Y-111164101D01*
X79498392Y-111382608D01*
X79716899Y-111561932D01*
X79849858Y-111633000D01*
X79716899Y-111704068D01*
X79498392Y-111883392D01*
X79319068Y-112101899D01*
X79297099Y-112143000D01*
X77761325Y-112143000D01*
X77724000Y-112139324D01*
X77686675Y-112143000D01*
X77686667Y-112143000D01*
X77575014Y-112153997D01*
X77431753Y-112197454D01*
X77299724Y-112268026D01*
X77183999Y-112362999D01*
X77160201Y-112391997D01*
X76237570Y-113314628D01*
X76083592Y-113284000D01*
X75808408Y-113284000D01*
X75538510Y-113337686D01*
X75284273Y-113442995D01*
X75055465Y-113595880D01*
X74860880Y-113790465D01*
X74707995Y-114019273D01*
X74602686Y-114273510D01*
X74549000Y-114543408D01*
X74549000Y-114818592D01*
X74602686Y-115088490D01*
X74707995Y-115342727D01*
X74860880Y-115571535D01*
X75055465Y-115766120D01*
X75284273Y-115919005D01*
X75538510Y-116024314D01*
X75808408Y-116078000D01*
X76083592Y-116078000D01*
X76353490Y-116024314D01*
X76607727Y-115919005D01*
X76836535Y-115766120D01*
X77031120Y-115571535D01*
X77184005Y-115342727D01*
X77289314Y-115088490D01*
X77343000Y-114818592D01*
X77343000Y-114543408D01*
X77312372Y-114389430D01*
X78038802Y-113663000D01*
X79297099Y-113663000D01*
X79319068Y-113704101D01*
X79498392Y-113922608D01*
X79716899Y-114101932D01*
X79849858Y-114173000D01*
X79716899Y-114244068D01*
X79498392Y-114423392D01*
X79319068Y-114641899D01*
X79185818Y-114891192D01*
X79103764Y-115161691D01*
X79076057Y-115443000D01*
X79103764Y-115724309D01*
X79185818Y-115994808D01*
X79319068Y-116244101D01*
X79498392Y-116462608D01*
X79716899Y-116641932D01*
X79966192Y-116775182D01*
X80236691Y-116857236D01*
X80447508Y-116878000D01*
X80588492Y-116878000D01*
X80799309Y-116857236D01*
X80883001Y-116831849D01*
X80883001Y-116869441D01*
X80879325Y-116906763D01*
X80883001Y-116944085D01*
X80883001Y-116944095D01*
X80893998Y-117055748D01*
X80936858Y-117197040D01*
X80937455Y-117199009D01*
X81008027Y-117331039D01*
X81047872Y-117379589D01*
X81103000Y-117446764D01*
X81132004Y-117470567D01*
X84202434Y-120540998D01*
X84145068Y-120610899D01*
X84011818Y-120860192D01*
X83929764Y-121130691D01*
X83902057Y-121412000D01*
X83929764Y-121693309D01*
X84011818Y-121963808D01*
X84145068Y-122213101D01*
X84324392Y-122431608D01*
X84542899Y-122610932D01*
X84675858Y-122682000D01*
X84542899Y-122753068D01*
X84324392Y-122932392D01*
X84145068Y-123150899D01*
X84011818Y-123400192D01*
X83929764Y-123670691D01*
X83902057Y-123952000D01*
X83929764Y-124233309D01*
X84011818Y-124503808D01*
X84145068Y-124753101D01*
X84324392Y-124971608D01*
X84542899Y-125150932D01*
X84675858Y-125222000D01*
X84542899Y-125293068D01*
X84324392Y-125472392D01*
X84145068Y-125690899D01*
X84011818Y-125940192D01*
X83929764Y-126210691D01*
X83902057Y-126492000D01*
X83929764Y-126773309D01*
X84011818Y-127043808D01*
X84145068Y-127293101D01*
X84324392Y-127511608D01*
X84542899Y-127690932D01*
X84680682Y-127764579D01*
X84488869Y-127879615D01*
X84280481Y-128068586D01*
X84112963Y-128294580D01*
X83992754Y-128548913D01*
X83952096Y-128682961D01*
X84074085Y-128905000D01*
X85217000Y-128905000D01*
X85217000Y-128885000D01*
X85471000Y-128885000D01*
X85471000Y-128905000D01*
X85491000Y-128905000D01*
X85491000Y-129159000D01*
X85471000Y-129159000D01*
X85471000Y-130302624D01*
X85693040Y-130423909D01*
X85709001Y-130418193D01*
X85709001Y-131032827D01*
X84832998Y-131908831D01*
X84804000Y-131932629D01*
X84780202Y-131961627D01*
X84780201Y-131961628D01*
X84709026Y-132048354D01*
X84638454Y-132180384D01*
X84594998Y-132323645D01*
X84589428Y-132380198D01*
X84542899Y-132405068D01*
X84324392Y-132584392D01*
X84145068Y-132802899D01*
X84011818Y-133052192D01*
X83929764Y-133322691D01*
X83902057Y-133604000D01*
X83929764Y-133885309D01*
X84011818Y-134155808D01*
X84145068Y-134405101D01*
X84324392Y-134623608D01*
X84542899Y-134802932D01*
X84675858Y-134874000D01*
X84542899Y-134945068D01*
X84324392Y-135124392D01*
X84145068Y-135342899D01*
X84011818Y-135592192D01*
X83929764Y-135862691D01*
X83902057Y-136144000D01*
X83929764Y-136425309D01*
X84011818Y-136695808D01*
X84145068Y-136945101D01*
X84324392Y-137163608D01*
X84542899Y-137342932D01*
X84675858Y-137414000D01*
X84542899Y-137485068D01*
X84324392Y-137664392D01*
X84145068Y-137882899D01*
X84011818Y-138132192D01*
X83929764Y-138402691D01*
X83902057Y-138684000D01*
X83929764Y-138965309D01*
X84011818Y-139235808D01*
X84145068Y-139485101D01*
X84324392Y-139703608D01*
X84542899Y-139882932D01*
X84680682Y-139956579D01*
X84488869Y-140071615D01*
X84280481Y-140260586D01*
X84112963Y-140486580D01*
X83992754Y-140740913D01*
X83952096Y-140874961D01*
X84074085Y-141097000D01*
X85217000Y-141097000D01*
X85217000Y-141077000D01*
X85471000Y-141077000D01*
X85471000Y-141097000D01*
X85491000Y-141097000D01*
X85491000Y-141351000D01*
X85471000Y-141351000D01*
X85471000Y-142494624D01*
X85693040Y-142615909D01*
X85709001Y-142610193D01*
X85709001Y-144356197D01*
X85669906Y-144395292D01*
X85625309Y-144381764D01*
X85414492Y-144361000D01*
X85273508Y-144361000D01*
X85062691Y-144381764D01*
X85018094Y-144395292D01*
X82195841Y-141573039D01*
X83952096Y-141573039D01*
X83992754Y-141707087D01*
X84112963Y-141961420D01*
X84280481Y-142187414D01*
X84488869Y-142376385D01*
X84730119Y-142521070D01*
X84994960Y-142615909D01*
X85217000Y-142494624D01*
X85217000Y-141351000D01*
X84074085Y-141351000D01*
X83952096Y-141573039D01*
X82195841Y-141573039D01*
X81133010Y-140510209D01*
X81133010Y-137792332D01*
X81136686Y-137755009D01*
X81133010Y-137717686D01*
X81133010Y-137717677D01*
X81122013Y-137606024D01*
X81078556Y-137462763D01*
X81007984Y-137330734D01*
X80994821Y-137314695D01*
X80936809Y-137244006D01*
X80936805Y-137244002D01*
X80913011Y-137215009D01*
X80884019Y-137191216D01*
X80686072Y-136993269D01*
X80686072Y-135580000D01*
X80669008Y-135406746D01*
X80618472Y-135240150D01*
X80536405Y-135086614D01*
X80425962Y-134952038D01*
X80291386Y-134841595D01*
X80137850Y-134759528D01*
X79971254Y-134708992D01*
X79798000Y-134691928D01*
X78698000Y-134691928D01*
X78524746Y-134708992D01*
X78430410Y-134737608D01*
X78055804Y-134363003D01*
X78032001Y-134333999D01*
X77916276Y-134239026D01*
X77784247Y-134168454D01*
X77640986Y-134124997D01*
X77529333Y-134114000D01*
X77529322Y-134114000D01*
X77492000Y-134110324D01*
X77454678Y-134114000D01*
X74191016Y-134114000D01*
X74150069Y-134037394D01*
X73962797Y-133809203D01*
X73734606Y-133621931D01*
X73474264Y-133482775D01*
X73191777Y-133397084D01*
X72971619Y-133375400D01*
X72824381Y-133375400D01*
X72604223Y-133397084D01*
X72321736Y-133482775D01*
X72061394Y-133621931D01*
X71833203Y-133809203D01*
X71645931Y-134037394D01*
X71628000Y-134070940D01*
X71610069Y-134037394D01*
X71422797Y-133809203D01*
X71194606Y-133621931D01*
X70934264Y-133482775D01*
X70651777Y-133397084D01*
X70431619Y-133375400D01*
X70284381Y-133375400D01*
X70064223Y-133397084D01*
X69781736Y-133482775D01*
X69521394Y-133621931D01*
X69293203Y-133809203D01*
X69105931Y-134037394D01*
X68966775Y-134297736D01*
X68881084Y-134580223D01*
X68852149Y-134874000D01*
X67208000Y-134874000D01*
X67208000Y-129381039D01*
X83952096Y-129381039D01*
X83992754Y-129515087D01*
X84112963Y-129769420D01*
X84280481Y-129995414D01*
X84488869Y-130184385D01*
X84730119Y-130329070D01*
X84994960Y-130423909D01*
X85217000Y-130302624D01*
X85217000Y-129159000D01*
X84074085Y-129159000D01*
X83952096Y-129381039D01*
X67208000Y-129381039D01*
X67208000Y-124961544D01*
X69638000Y-124961544D01*
X69638000Y-125228456D01*
X69690072Y-125490239D01*
X69792215Y-125736833D01*
X69940503Y-125958762D01*
X70129238Y-126147497D01*
X70351167Y-126295785D01*
X70597761Y-126397928D01*
X70859544Y-126450000D01*
X71126456Y-126450000D01*
X71388239Y-126397928D01*
X71634833Y-126295785D01*
X71856762Y-126147497D01*
X72045497Y-125958762D01*
X72193785Y-125736833D01*
X72263000Y-125569734D01*
X72332215Y-125736833D01*
X72480503Y-125958762D01*
X72669238Y-126147497D01*
X72891167Y-126295785D01*
X73137761Y-126397928D01*
X73399544Y-126450000D01*
X73666456Y-126450000D01*
X73928239Y-126397928D01*
X74174833Y-126295785D01*
X74396762Y-126147497D01*
X74585497Y-125958762D01*
X74733785Y-125736833D01*
X74803000Y-125569734D01*
X74872215Y-125736833D01*
X75020503Y-125958762D01*
X75209238Y-126147497D01*
X75431167Y-126295785D01*
X75677761Y-126397928D01*
X75939544Y-126450000D01*
X76206456Y-126450000D01*
X76468239Y-126397928D01*
X76714833Y-126295785D01*
X76936762Y-126147497D01*
X77125497Y-125958762D01*
X77273785Y-125736833D01*
X77375928Y-125490239D01*
X77428000Y-125228456D01*
X77428000Y-124961544D01*
X77375928Y-124699761D01*
X77273785Y-124453167D01*
X77125497Y-124231238D01*
X76936762Y-124042503D01*
X76714833Y-123894215D01*
X76468239Y-123792072D01*
X76206456Y-123740000D01*
X75939544Y-123740000D01*
X75677761Y-123792072D01*
X75431167Y-123894215D01*
X75209238Y-124042503D01*
X75020503Y-124231238D01*
X74872215Y-124453167D01*
X74803000Y-124620266D01*
X74733785Y-124453167D01*
X74585497Y-124231238D01*
X74396762Y-124042503D01*
X74174833Y-123894215D01*
X73928239Y-123792072D01*
X73666456Y-123740000D01*
X73399544Y-123740000D01*
X73137761Y-123792072D01*
X72891167Y-123894215D01*
X72669238Y-124042503D01*
X72480503Y-124231238D01*
X72332215Y-124453167D01*
X72263000Y-124620266D01*
X72193785Y-124453167D01*
X72045497Y-124231238D01*
X71856762Y-124042503D01*
X71634833Y-123894215D01*
X71388239Y-123792072D01*
X71126456Y-123740000D01*
X70859544Y-123740000D01*
X70597761Y-123792072D01*
X70351167Y-123894215D01*
X70129238Y-124042503D01*
X69940503Y-124231238D01*
X69792215Y-124453167D01*
X69690072Y-124699761D01*
X69638000Y-124961544D01*
X67208000Y-124961544D01*
X67208000Y-109296565D01*
X75160040Y-109296565D01*
X75227020Y-109536656D01*
X75476048Y-109653756D01*
X75743135Y-109720023D01*
X76018017Y-109732910D01*
X76290133Y-109691922D01*
X76549023Y-109598636D01*
X76664980Y-109536656D01*
X76731960Y-109296565D01*
X75946000Y-108510605D01*
X75160040Y-109296565D01*
X67208000Y-109296565D01*
X67208000Y-108403017D01*
X74544090Y-108403017D01*
X74585078Y-108675133D01*
X74678364Y-108934023D01*
X74740344Y-109049980D01*
X74980435Y-109116960D01*
X75766395Y-108331000D01*
X76125605Y-108331000D01*
X76911565Y-109116960D01*
X77151656Y-109049980D01*
X77268756Y-108800952D01*
X77335023Y-108533865D01*
X77347910Y-108258983D01*
X77306922Y-107986867D01*
X77213636Y-107727977D01*
X77151656Y-107612020D01*
X76911565Y-107545040D01*
X76125605Y-108331000D01*
X75766395Y-108331000D01*
X74980435Y-107545040D01*
X74740344Y-107612020D01*
X74623244Y-107861048D01*
X74556977Y-108128135D01*
X74544090Y-108403017D01*
X67208000Y-108403017D01*
X67208000Y-107365435D01*
X75160040Y-107365435D01*
X75946000Y-108151395D01*
X76731960Y-107365435D01*
X76664980Y-107125344D01*
X76415952Y-107008244D01*
X76148865Y-106941977D01*
X75873983Y-106929090D01*
X75601867Y-106970078D01*
X75342977Y-107063364D01*
X75227020Y-107125344D01*
X75160040Y-107365435D01*
X67208000Y-107365435D01*
X67208000Y-97739565D01*
X75160040Y-97739565D01*
X75227020Y-97979656D01*
X75476048Y-98096756D01*
X75743135Y-98163023D01*
X76018017Y-98175910D01*
X76290133Y-98134922D01*
X76549023Y-98041636D01*
X76664980Y-97979656D01*
X76731960Y-97739565D01*
X75946000Y-96953605D01*
X75160040Y-97739565D01*
X67208000Y-97739565D01*
X67208000Y-96846017D01*
X74544090Y-96846017D01*
X74585078Y-97118133D01*
X74678364Y-97377023D01*
X74740344Y-97492980D01*
X74980435Y-97559960D01*
X75766395Y-96774000D01*
X76125605Y-96774000D01*
X76911565Y-97559960D01*
X77151656Y-97492980D01*
X77268756Y-97243952D01*
X77335023Y-96976865D01*
X77347910Y-96701983D01*
X77306922Y-96429867D01*
X77213636Y-96170977D01*
X77151656Y-96055020D01*
X76911565Y-95988040D01*
X76125605Y-96774000D01*
X75766395Y-96774000D01*
X74980435Y-95988040D01*
X74740344Y-96055020D01*
X74623244Y-96304048D01*
X74556977Y-96571135D01*
X74544090Y-96846017D01*
X67208000Y-96846017D01*
X67208000Y-95808435D01*
X75160040Y-95808435D01*
X75946000Y-96594395D01*
X76731960Y-95808435D01*
X76664980Y-95568344D01*
X76415952Y-95451244D01*
X76148865Y-95384977D01*
X75873983Y-95372090D01*
X75601867Y-95413078D01*
X75342977Y-95506364D01*
X75227020Y-95568344D01*
X75160040Y-95808435D01*
X67208000Y-95808435D01*
X67208000Y-92445408D01*
X82931000Y-92445408D01*
X82931000Y-92720592D01*
X82984686Y-92990490D01*
X83089995Y-93244727D01*
X83242880Y-93473535D01*
X83437465Y-93668120D01*
X83666273Y-93821005D01*
X83920510Y-93926314D01*
X84190408Y-93980000D01*
X84465592Y-93980000D01*
X84735490Y-93926314D01*
X84989727Y-93821005D01*
X85218535Y-93668120D01*
X85413120Y-93473535D01*
X85566005Y-93244727D01*
X85671314Y-92990490D01*
X85725000Y-92720592D01*
X85725000Y-92445408D01*
X85671314Y-92175510D01*
X85566005Y-91921273D01*
X85413120Y-91692465D01*
X85218535Y-91497880D01*
X84989727Y-91344995D01*
X84735490Y-91239686D01*
X84465592Y-91186000D01*
X84190408Y-91186000D01*
X83920510Y-91239686D01*
X83666273Y-91344995D01*
X83437465Y-91497880D01*
X83242880Y-91692465D01*
X83089995Y-91921273D01*
X82984686Y-92175510D01*
X82931000Y-92445408D01*
X67208000Y-92445408D01*
X67208000Y-88563148D01*
X78494457Y-88563148D01*
X78770627Y-88981118D01*
X79315557Y-89271649D01*
X79906696Y-89450287D01*
X80521328Y-89510168D01*
X81135831Y-89448990D01*
X81726592Y-89269103D01*
X82265373Y-88981118D01*
X82541543Y-88563148D01*
X80518000Y-86539605D01*
X78494457Y-88563148D01*
X67208000Y-88563148D01*
X67208000Y-86363328D01*
X77367832Y-86363328D01*
X77429010Y-86977831D01*
X77608897Y-87568592D01*
X77896882Y-88107373D01*
X78314852Y-88383543D01*
X80338395Y-86360000D01*
X80697605Y-86360000D01*
X82721148Y-88383543D01*
X83139118Y-88107373D01*
X83397072Y-87623544D01*
X85513000Y-87623544D01*
X85513000Y-87890456D01*
X85565072Y-88152239D01*
X85667215Y-88398833D01*
X85815503Y-88620762D01*
X86004238Y-88809497D01*
X86226167Y-88957785D01*
X86472761Y-89059928D01*
X86734544Y-89112000D01*
X87001456Y-89112000D01*
X87263239Y-89059928D01*
X87509833Y-88957785D01*
X87731762Y-88809497D01*
X87920497Y-88620762D01*
X88068785Y-88398833D01*
X88138000Y-88231734D01*
X88207215Y-88398833D01*
X88355503Y-88620762D01*
X88544238Y-88809497D01*
X88766167Y-88957785D01*
X89012761Y-89059928D01*
X89274544Y-89112000D01*
X89541456Y-89112000D01*
X89803239Y-89059928D01*
X90049833Y-88957785D01*
X90271762Y-88809497D01*
X90460497Y-88620762D01*
X90608785Y-88398833D01*
X90678000Y-88231734D01*
X90747215Y-88398833D01*
X90895503Y-88620762D01*
X91084238Y-88809497D01*
X91306167Y-88957785D01*
X91552761Y-89059928D01*
X91814544Y-89112000D01*
X92081456Y-89112000D01*
X92343239Y-89059928D01*
X92589833Y-88957785D01*
X92811762Y-88809497D01*
X93000497Y-88620762D01*
X93038993Y-88563148D01*
X100846457Y-88563148D01*
X101122627Y-88981118D01*
X101667557Y-89271649D01*
X102258696Y-89450287D01*
X102873328Y-89510168D01*
X103487831Y-89448990D01*
X104078592Y-89269103D01*
X104617373Y-88981118D01*
X104893543Y-88563148D01*
X102870000Y-86539605D01*
X100846457Y-88563148D01*
X93038993Y-88563148D01*
X93148785Y-88398833D01*
X93250928Y-88152239D01*
X93303000Y-87890456D01*
X93303000Y-87623544D01*
X93250928Y-87361761D01*
X93148785Y-87115167D01*
X93000497Y-86893238D01*
X92811762Y-86704503D01*
X92589833Y-86556215D01*
X92343239Y-86454072D01*
X92081456Y-86402000D01*
X91814544Y-86402000D01*
X91552761Y-86454072D01*
X91306167Y-86556215D01*
X91084238Y-86704503D01*
X90895503Y-86893238D01*
X90747215Y-87115167D01*
X90678000Y-87282266D01*
X90608785Y-87115167D01*
X90460497Y-86893238D01*
X90271762Y-86704503D01*
X90049833Y-86556215D01*
X89803239Y-86454072D01*
X89541456Y-86402000D01*
X89274544Y-86402000D01*
X89012761Y-86454072D01*
X88766167Y-86556215D01*
X88544238Y-86704503D01*
X88355503Y-86893238D01*
X88207215Y-87115167D01*
X88138000Y-87282266D01*
X88068785Y-87115167D01*
X87920497Y-86893238D01*
X87731762Y-86704503D01*
X87509833Y-86556215D01*
X87263239Y-86454072D01*
X87001456Y-86402000D01*
X86734544Y-86402000D01*
X86472761Y-86454072D01*
X86226167Y-86556215D01*
X86004238Y-86704503D01*
X85815503Y-86893238D01*
X85667215Y-87115167D01*
X85565072Y-87361761D01*
X85513000Y-87623544D01*
X83397072Y-87623544D01*
X83429649Y-87562443D01*
X83608287Y-86971304D01*
X83667519Y-86363328D01*
X99719832Y-86363328D01*
X99781010Y-86977831D01*
X99960897Y-87568592D01*
X100248882Y-88107373D01*
X100666852Y-88383543D01*
X102690395Y-86360000D01*
X100666852Y-84336457D01*
X100248882Y-84612627D01*
X99958351Y-85157557D01*
X99779713Y-85748696D01*
X99719832Y-86363328D01*
X83667519Y-86363328D01*
X83668168Y-86356672D01*
X83606990Y-85742169D01*
X83427103Y-85151408D01*
X83139118Y-84612627D01*
X82721148Y-84336457D01*
X80697605Y-86360000D01*
X80338395Y-86360000D01*
X78314852Y-84336457D01*
X77896882Y-84612627D01*
X77606351Y-85157557D01*
X77427713Y-85748696D01*
X77367832Y-86363328D01*
X67208000Y-86363328D01*
X67208000Y-83718000D01*
X78809694Y-83718000D01*
X78770627Y-83738882D01*
M02*
