G04 #@! TF.GenerationSoftware,KiCad,Pcbnew,(5.1.4-0-10_14)*
G04 #@! TF.CreationDate,2019-10-08T20:57:53-07:00*
G04 #@! TF.ProjectId,VCF_Main,5643465f-4d61-4696-9e2e-6b696361645f,rev?*
G04 #@! TF.SameCoordinates,Original*
G04 #@! TF.FileFunction,Legend,Top*
G04 #@! TF.FilePolarity,Positive*
%FSLAX46Y46*%
G04 Gerber Fmt 4.6, Leading zero omitted, Abs format (unit mm)*
G04 Created by KiCad (PCBNEW (5.1.4-0-10_14)) date 2019-10-08 20:57:53*
%MOMM*%
%LPD*%
G04 APERTURE LIST*
%ADD10C,0.120000*%
%ADD11C,0.150000*%
G04 APERTURE END LIST*
D10*
X91515000Y-147197578D02*
X91515000Y-146680422D01*
X90095000Y-147197578D02*
X90095000Y-146680422D01*
X97785422Y-147776000D02*
X98302578Y-147776000D01*
X97785422Y-146356000D02*
X98302578Y-146356000D01*
X97785422Y-149808000D02*
X98302578Y-149808000D01*
X97785422Y-148388000D02*
X98302578Y-148388000D01*
X97785422Y-151967000D02*
X98302578Y-151967000D01*
X97785422Y-150547000D02*
X98302578Y-150547000D01*
X88063000Y-150236422D02*
X88063000Y-150753578D01*
X89483000Y-150236422D02*
X89483000Y-150753578D01*
X90800422Y-95452000D02*
X91317578Y-95452000D01*
X90800422Y-94032000D02*
X91317578Y-94032000D01*
X84530000Y-109605578D02*
X84530000Y-109088422D01*
X83110000Y-109605578D02*
X83110000Y-109088422D01*
X89841000Y-108707422D02*
X89841000Y-109224578D01*
X91261000Y-108707422D02*
X91261000Y-109224578D01*
X91317578Y-98223000D02*
X90800422Y-98223000D01*
X91317578Y-99643000D02*
X90800422Y-99643000D01*
X86562000Y-109605578D02*
X86562000Y-109088422D01*
X85142000Y-109605578D02*
X85142000Y-109088422D01*
X83745000Y-103754422D02*
X83745000Y-104271578D01*
X85165000Y-103754422D02*
X85165000Y-104271578D01*
X99182422Y-115772000D02*
X99699578Y-115772000D01*
X99182422Y-114352000D02*
X99699578Y-114352000D01*
X99182422Y-118820000D02*
X99699578Y-118820000D01*
X99182422Y-117400000D02*
X99699578Y-117400000D01*
X77338422Y-99643000D02*
X77855578Y-99643000D01*
X77338422Y-98223000D02*
X77855578Y-98223000D01*
X83514000Y-100334578D02*
X83514000Y-99817422D01*
X82094000Y-100334578D02*
X82094000Y-99817422D01*
X95626422Y-136600000D02*
X96143578Y-136600000D01*
X95626422Y-135180000D02*
X96143578Y-135180000D01*
X95626422Y-134568000D02*
X96143578Y-134568000D01*
X95626422Y-133148000D02*
X96143578Y-133148000D01*
X95626422Y-138632000D02*
X96143578Y-138632000D01*
X95626422Y-137212000D02*
X96143578Y-137212000D01*
X89968000Y-122296422D02*
X89968000Y-122813578D01*
X91388000Y-122296422D02*
X91388000Y-122813578D01*
X77338422Y-101929000D02*
X77855578Y-101929000D01*
X77338422Y-100509000D02*
X77855578Y-100509000D01*
X77338422Y-95452000D02*
X77855578Y-95452000D01*
X77338422Y-94032000D02*
X77855578Y-94032000D01*
X87301000Y-140330422D02*
X87301000Y-140847578D01*
X88721000Y-140330422D02*
X88721000Y-140847578D01*
X85546000Y-100334578D02*
X85546000Y-99817422D01*
X84126000Y-100334578D02*
X84126000Y-99817422D01*
X89333000Y-133853422D02*
X89333000Y-134370578D01*
X90753000Y-133853422D02*
X90753000Y-134370578D01*
X82348000Y-124201422D02*
X82348000Y-124718578D01*
X83768000Y-124201422D02*
X83768000Y-124718578D01*
X76839578Y-119051000D02*
X76322422Y-119051000D01*
X76839578Y-120471000D02*
X76322422Y-120471000D01*
X95960000Y-147324578D02*
X95960000Y-146807422D01*
X94540000Y-147324578D02*
X94540000Y-146807422D01*
X77855578Y-109780000D02*
X77338422Y-109780000D01*
X77855578Y-111200000D02*
X77338422Y-111200000D01*
X88063000Y-146680422D02*
X88063000Y-147197578D01*
X89483000Y-146680422D02*
X89483000Y-147197578D01*
X98302578Y-144197000D02*
X97785422Y-144197000D01*
X98302578Y-145617000D02*
X97785422Y-145617000D01*
X101794000Y-106620000D02*
X103124000Y-106620000D01*
X101794000Y-107950000D02*
X101794000Y-106620000D01*
X101794000Y-109220000D02*
X104454000Y-109220000D01*
X104454000Y-109220000D02*
X104454000Y-137220000D01*
X101794000Y-109220000D02*
X101794000Y-137220000D01*
X101794000Y-137220000D02*
X104454000Y-137220000D01*
X95040000Y-92932000D02*
X95040000Y-93432000D01*
X94790000Y-93182000D02*
X95290000Y-93182000D01*
X95530000Y-95937563D02*
X96594437Y-97002000D01*
X95530000Y-93546437D02*
X96594437Y-92482000D01*
X95530000Y-93546437D02*
X95530000Y-93682000D01*
X95530000Y-95937563D02*
X95530000Y-95802000D01*
X96594437Y-97002000D02*
X100050000Y-97002000D01*
X96594437Y-92482000D02*
X100050000Y-92482000D01*
X100050000Y-92482000D02*
X100050000Y-93682000D01*
X100050000Y-97002000D02*
X100050000Y-95802000D01*
X73692000Y-115360000D02*
X73192000Y-115360000D01*
X73442000Y-115110000D02*
X73442000Y-115610000D01*
X70686437Y-115850000D02*
X69622000Y-116914437D01*
X73077563Y-115850000D02*
X74142000Y-116914437D01*
X73077563Y-115850000D02*
X72942000Y-115850000D01*
X70686437Y-115850000D02*
X70822000Y-115850000D01*
X69622000Y-116914437D02*
X69622000Y-120370000D01*
X74142000Y-116914437D02*
X74142000Y-120370000D01*
X74142000Y-120370000D02*
X72942000Y-120370000D01*
X69622000Y-120370000D02*
X70822000Y-120370000D01*
X89356000Y-125852422D02*
X89356000Y-126369578D01*
X87936000Y-125852422D02*
X87936000Y-126369578D01*
X90095000Y-150753578D02*
X90095000Y-150236422D01*
X91515000Y-150753578D02*
X91515000Y-150236422D01*
X89356000Y-122813578D02*
X89356000Y-122296422D01*
X87936000Y-122813578D02*
X87936000Y-122296422D01*
X90753000Y-140847578D02*
X90753000Y-140330422D01*
X89333000Y-140847578D02*
X89333000Y-140330422D01*
X89968000Y-126369578D02*
X89968000Y-125852422D01*
X91388000Y-126369578D02*
X91388000Y-125852422D01*
X94413000Y-124083578D02*
X94413000Y-123566422D01*
X95833000Y-124083578D02*
X95833000Y-123566422D01*
X77338422Y-107009000D02*
X77855578Y-107009000D01*
X77338422Y-105589000D02*
X77855578Y-105589000D01*
X73782422Y-105589000D02*
X74299578Y-105589000D01*
X73782422Y-107009000D02*
X74299578Y-107009000D01*
X82242922Y-145086000D02*
X82760078Y-145086000D01*
X82242922Y-146506000D02*
X82760078Y-146506000D01*
X96143578Y-152706000D02*
X95626422Y-152706000D01*
X96143578Y-154126000D02*
X95626422Y-154126000D01*
X82164422Y-122122000D02*
X82681578Y-122122000D01*
X82164422Y-120702000D02*
X82681578Y-120702000D01*
X96143578Y-129742000D02*
X95626422Y-129742000D01*
X96143578Y-128322000D02*
X95626422Y-128322000D01*
X82164422Y-132894000D02*
X82681578Y-132894000D01*
X82164422Y-134314000D02*
X82681578Y-134314000D01*
X96143578Y-140514000D02*
X95626422Y-140514000D01*
X96143578Y-141934000D02*
X95626422Y-141934000D01*
D11*
X91162142Y-144438666D02*
X91209761Y-144486285D01*
X91257380Y-144629142D01*
X91257380Y-144724380D01*
X91209761Y-144867238D01*
X91114523Y-144962476D01*
X91019285Y-145010095D01*
X90828809Y-145057714D01*
X90685952Y-145057714D01*
X90495476Y-145010095D01*
X90400238Y-144962476D01*
X90305000Y-144867238D01*
X90257380Y-144724380D01*
X90257380Y-144629142D01*
X90305000Y-144486285D01*
X90352619Y-144438666D01*
X90257380Y-144105333D02*
X90257380Y-143438666D01*
X91257380Y-143867238D01*
X100544333Y-147645380D02*
X100211000Y-147169190D01*
X99972904Y-147645380D02*
X99972904Y-146645380D01*
X100353857Y-146645380D01*
X100449095Y-146693000D01*
X100496714Y-146740619D01*
X100544333Y-146835857D01*
X100544333Y-146978714D01*
X100496714Y-147073952D01*
X100449095Y-147121571D01*
X100353857Y-147169190D01*
X99972904Y-147169190D01*
X101496714Y-147645380D02*
X100925285Y-147645380D01*
X101211000Y-147645380D02*
X101211000Y-146645380D01*
X101115761Y-146788238D01*
X101020523Y-146883476D01*
X100925285Y-146931095D01*
X100544333Y-149550380D02*
X100211000Y-149074190D01*
X99972904Y-149550380D02*
X99972904Y-148550380D01*
X100353857Y-148550380D01*
X100449095Y-148598000D01*
X100496714Y-148645619D01*
X100544333Y-148740857D01*
X100544333Y-148883714D01*
X100496714Y-148978952D01*
X100449095Y-149026571D01*
X100353857Y-149074190D01*
X99972904Y-149074190D01*
X100925285Y-148645619D02*
X100972904Y-148598000D01*
X101068142Y-148550380D01*
X101306238Y-148550380D01*
X101401476Y-148598000D01*
X101449095Y-148645619D01*
X101496714Y-148740857D01*
X101496714Y-148836095D01*
X101449095Y-148978952D01*
X100877666Y-149550380D01*
X101496714Y-149550380D01*
X100544333Y-151709380D02*
X100211000Y-151233190D01*
X99972904Y-151709380D02*
X99972904Y-150709380D01*
X100353857Y-150709380D01*
X100449095Y-150757000D01*
X100496714Y-150804619D01*
X100544333Y-150899857D01*
X100544333Y-151042714D01*
X100496714Y-151137952D01*
X100449095Y-151185571D01*
X100353857Y-151233190D01*
X99972904Y-151233190D01*
X100877666Y-150709380D02*
X101496714Y-150709380D01*
X101163380Y-151090333D01*
X101306238Y-151090333D01*
X101401476Y-151137952D01*
X101449095Y-151185571D01*
X101496714Y-151280809D01*
X101496714Y-151518904D01*
X101449095Y-151614142D01*
X101401476Y-151661761D01*
X101306238Y-151709380D01*
X101020523Y-151709380D01*
X100925285Y-151661761D01*
X100877666Y-151614142D01*
X89225380Y-153582666D02*
X88749190Y-153916000D01*
X89225380Y-154154095D02*
X88225380Y-154154095D01*
X88225380Y-153773142D01*
X88273000Y-153677904D01*
X88320619Y-153630285D01*
X88415857Y-153582666D01*
X88558714Y-153582666D01*
X88653952Y-153630285D01*
X88701571Y-153677904D01*
X88749190Y-153773142D01*
X88749190Y-154154095D01*
X88558714Y-152725523D02*
X89225380Y-152725523D01*
X88177761Y-152963619D02*
X88892047Y-153201714D01*
X88892047Y-152582666D01*
X90257333Y-93670380D02*
X89924000Y-93194190D01*
X89685904Y-93670380D02*
X89685904Y-92670380D01*
X90066857Y-92670380D01*
X90162095Y-92718000D01*
X90209714Y-92765619D01*
X90257333Y-92860857D01*
X90257333Y-93003714D01*
X90209714Y-93098952D01*
X90162095Y-93146571D01*
X90066857Y-93194190D01*
X89685904Y-93194190D01*
X91162095Y-92670380D02*
X90685904Y-92670380D01*
X90638285Y-93146571D01*
X90685904Y-93098952D01*
X90781142Y-93051333D01*
X91019238Y-93051333D01*
X91114476Y-93098952D01*
X91162095Y-93146571D01*
X91209714Y-93241809D01*
X91209714Y-93479904D01*
X91162095Y-93575142D01*
X91114476Y-93622761D01*
X91019238Y-93670380D01*
X90781142Y-93670380D01*
X90685904Y-93622761D01*
X90638285Y-93575142D01*
X84272380Y-106846666D02*
X83796190Y-107180000D01*
X84272380Y-107418095D02*
X83272380Y-107418095D01*
X83272380Y-107037142D01*
X83320000Y-106941904D01*
X83367619Y-106894285D01*
X83462857Y-106846666D01*
X83605714Y-106846666D01*
X83700952Y-106894285D01*
X83748571Y-106941904D01*
X83796190Y-107037142D01*
X83796190Y-107418095D01*
X83272380Y-105989523D02*
X83272380Y-106180000D01*
X83320000Y-106275238D01*
X83367619Y-106322857D01*
X83510476Y-106418095D01*
X83700952Y-106465714D01*
X84081904Y-106465714D01*
X84177142Y-106418095D01*
X84224761Y-106370476D01*
X84272380Y-106275238D01*
X84272380Y-106084761D01*
X84224761Y-105989523D01*
X84177142Y-105941904D01*
X84081904Y-105894285D01*
X83843809Y-105894285D01*
X83748571Y-105941904D01*
X83700952Y-105989523D01*
X83653333Y-106084761D01*
X83653333Y-106275238D01*
X83700952Y-106370476D01*
X83748571Y-106418095D01*
X83843809Y-106465714D01*
X90876380Y-111672666D02*
X90400190Y-112006000D01*
X90876380Y-112244095D02*
X89876380Y-112244095D01*
X89876380Y-111863142D01*
X89924000Y-111767904D01*
X89971619Y-111720285D01*
X90066857Y-111672666D01*
X90209714Y-111672666D01*
X90304952Y-111720285D01*
X90352571Y-111767904D01*
X90400190Y-111863142D01*
X90400190Y-112244095D01*
X89876380Y-111339333D02*
X89876380Y-110672666D01*
X90876380Y-111101238D01*
X90257333Y-97734380D02*
X89924000Y-97258190D01*
X89685904Y-97734380D02*
X89685904Y-96734380D01*
X90066857Y-96734380D01*
X90162095Y-96782000D01*
X90209714Y-96829619D01*
X90257333Y-96924857D01*
X90257333Y-97067714D01*
X90209714Y-97162952D01*
X90162095Y-97210571D01*
X90066857Y-97258190D01*
X89685904Y-97258190D01*
X90828761Y-97162952D02*
X90733523Y-97115333D01*
X90685904Y-97067714D01*
X90638285Y-96972476D01*
X90638285Y-96924857D01*
X90685904Y-96829619D01*
X90733523Y-96782000D01*
X90828761Y-96734380D01*
X91019238Y-96734380D01*
X91114476Y-96782000D01*
X91162095Y-96829619D01*
X91209714Y-96924857D01*
X91209714Y-96972476D01*
X91162095Y-97067714D01*
X91114476Y-97115333D01*
X91019238Y-97162952D01*
X90828761Y-97162952D01*
X90733523Y-97210571D01*
X90685904Y-97258190D01*
X90638285Y-97353428D01*
X90638285Y-97543904D01*
X90685904Y-97639142D01*
X90733523Y-97686761D01*
X90828761Y-97734380D01*
X91019238Y-97734380D01*
X91114476Y-97686761D01*
X91162095Y-97639142D01*
X91209714Y-97543904D01*
X91209714Y-97353428D01*
X91162095Y-97258190D01*
X91114476Y-97210571D01*
X91019238Y-97162952D01*
X86304380Y-106846666D02*
X85828190Y-107180000D01*
X86304380Y-107418095D02*
X85304380Y-107418095D01*
X85304380Y-107037142D01*
X85352000Y-106941904D01*
X85399619Y-106894285D01*
X85494857Y-106846666D01*
X85637714Y-106846666D01*
X85732952Y-106894285D01*
X85780571Y-106941904D01*
X85828190Y-107037142D01*
X85828190Y-107418095D01*
X86304380Y-106370476D02*
X86304380Y-106180000D01*
X86256761Y-106084761D01*
X86209142Y-106037142D01*
X86066285Y-105941904D01*
X85875809Y-105894285D01*
X85494857Y-105894285D01*
X85399619Y-105941904D01*
X85352000Y-105989523D01*
X85304380Y-106084761D01*
X85304380Y-106275238D01*
X85352000Y-106370476D01*
X85399619Y-106418095D01*
X85494857Y-106465714D01*
X85732952Y-106465714D01*
X85828190Y-106418095D01*
X85875809Y-106370476D01*
X85923428Y-106275238D01*
X85923428Y-106084761D01*
X85875809Y-105989523D01*
X85828190Y-105941904D01*
X85732952Y-105894285D01*
X83129380Y-104655857D02*
X82653190Y-104989190D01*
X83129380Y-105227285D02*
X82129380Y-105227285D01*
X82129380Y-104846333D01*
X82177000Y-104751095D01*
X82224619Y-104703476D01*
X82319857Y-104655857D01*
X82462714Y-104655857D01*
X82557952Y-104703476D01*
X82605571Y-104751095D01*
X82653190Y-104846333D01*
X82653190Y-105227285D01*
X83129380Y-103703476D02*
X83129380Y-104274904D01*
X83129380Y-103989190D02*
X82129380Y-103989190D01*
X82272238Y-104084428D01*
X82367476Y-104179666D01*
X82415095Y-104274904D01*
X82129380Y-103084428D02*
X82129380Y-102989190D01*
X82177000Y-102893952D01*
X82224619Y-102846333D01*
X82319857Y-102798714D01*
X82510333Y-102751095D01*
X82748428Y-102751095D01*
X82938904Y-102798714D01*
X83034142Y-102846333D01*
X83081761Y-102893952D01*
X83129380Y-102989190D01*
X83129380Y-103084428D01*
X83081761Y-103179666D01*
X83034142Y-103227285D01*
X82938904Y-103274904D01*
X82748428Y-103322523D01*
X82510333Y-103322523D01*
X82319857Y-103274904D01*
X82224619Y-103227285D01*
X82177000Y-103179666D01*
X82129380Y-103084428D01*
X98798142Y-117038380D02*
X98464809Y-116562190D01*
X98226714Y-117038380D02*
X98226714Y-116038380D01*
X98607666Y-116038380D01*
X98702904Y-116086000D01*
X98750523Y-116133619D01*
X98798142Y-116228857D01*
X98798142Y-116371714D01*
X98750523Y-116466952D01*
X98702904Y-116514571D01*
X98607666Y-116562190D01*
X98226714Y-116562190D01*
X99750523Y-117038380D02*
X99179095Y-117038380D01*
X99464809Y-117038380D02*
X99464809Y-116038380D01*
X99369571Y-116181238D01*
X99274333Y-116276476D01*
X99179095Y-116324095D01*
X100702904Y-117038380D02*
X100131476Y-117038380D01*
X100417190Y-117038380D02*
X100417190Y-116038380D01*
X100321952Y-116181238D01*
X100226714Y-116276476D01*
X100131476Y-116324095D01*
X98798142Y-120086380D02*
X98464809Y-119610190D01*
X98226714Y-120086380D02*
X98226714Y-119086380D01*
X98607666Y-119086380D01*
X98702904Y-119134000D01*
X98750523Y-119181619D01*
X98798142Y-119276857D01*
X98798142Y-119419714D01*
X98750523Y-119514952D01*
X98702904Y-119562571D01*
X98607666Y-119610190D01*
X98226714Y-119610190D01*
X99750523Y-120086380D02*
X99179095Y-120086380D01*
X99464809Y-120086380D02*
X99464809Y-119086380D01*
X99369571Y-119229238D01*
X99274333Y-119324476D01*
X99179095Y-119372095D01*
X100131476Y-119181619D02*
X100179095Y-119134000D01*
X100274333Y-119086380D01*
X100512428Y-119086380D01*
X100607666Y-119134000D01*
X100655285Y-119181619D01*
X100702904Y-119276857D01*
X100702904Y-119372095D01*
X100655285Y-119514952D01*
X100083857Y-120086380D01*
X100702904Y-120086380D01*
X73779142Y-99512380D02*
X73445809Y-99036190D01*
X73207714Y-99512380D02*
X73207714Y-98512380D01*
X73588666Y-98512380D01*
X73683904Y-98560000D01*
X73731523Y-98607619D01*
X73779142Y-98702857D01*
X73779142Y-98845714D01*
X73731523Y-98940952D01*
X73683904Y-98988571D01*
X73588666Y-99036190D01*
X73207714Y-99036190D01*
X74731523Y-99512380D02*
X74160095Y-99512380D01*
X74445809Y-99512380D02*
X74445809Y-98512380D01*
X74350571Y-98655238D01*
X74255333Y-98750476D01*
X74160095Y-98798095D01*
X75064857Y-98512380D02*
X75683904Y-98512380D01*
X75350571Y-98893333D01*
X75493428Y-98893333D01*
X75588666Y-98940952D01*
X75636285Y-98988571D01*
X75683904Y-99083809D01*
X75683904Y-99321904D01*
X75636285Y-99417142D01*
X75588666Y-99464761D01*
X75493428Y-99512380D01*
X75207714Y-99512380D01*
X75112476Y-99464761D01*
X75064857Y-99417142D01*
X83256380Y-97670857D02*
X82780190Y-98004190D01*
X83256380Y-98242285D02*
X82256380Y-98242285D01*
X82256380Y-97861333D01*
X82304000Y-97766095D01*
X82351619Y-97718476D01*
X82446857Y-97670857D01*
X82589714Y-97670857D01*
X82684952Y-97718476D01*
X82732571Y-97766095D01*
X82780190Y-97861333D01*
X82780190Y-98242285D01*
X83256380Y-96718476D02*
X83256380Y-97289904D01*
X83256380Y-97004190D02*
X82256380Y-97004190D01*
X82399238Y-97099428D01*
X82494476Y-97194666D01*
X82542095Y-97289904D01*
X82589714Y-95861333D02*
X83256380Y-95861333D01*
X82208761Y-96099428D02*
X82923047Y-96337523D01*
X82923047Y-95718476D01*
X98417142Y-136342380D02*
X98083809Y-135866190D01*
X97845714Y-136342380D02*
X97845714Y-135342380D01*
X98226666Y-135342380D01*
X98321904Y-135390000D01*
X98369523Y-135437619D01*
X98417142Y-135532857D01*
X98417142Y-135675714D01*
X98369523Y-135770952D01*
X98321904Y-135818571D01*
X98226666Y-135866190D01*
X97845714Y-135866190D01*
X99369523Y-136342380D02*
X98798095Y-136342380D01*
X99083809Y-136342380D02*
X99083809Y-135342380D01*
X98988571Y-135485238D01*
X98893333Y-135580476D01*
X98798095Y-135628095D01*
X100274285Y-135342380D02*
X99798095Y-135342380D01*
X99750476Y-135818571D01*
X99798095Y-135770952D01*
X99893333Y-135723333D01*
X100131428Y-135723333D01*
X100226666Y-135770952D01*
X100274285Y-135818571D01*
X100321904Y-135913809D01*
X100321904Y-136151904D01*
X100274285Y-136247142D01*
X100226666Y-136294761D01*
X100131428Y-136342380D01*
X99893333Y-136342380D01*
X99798095Y-136294761D01*
X99750476Y-136247142D01*
X98417142Y-134310380D02*
X98083809Y-133834190D01*
X97845714Y-134310380D02*
X97845714Y-133310380D01*
X98226666Y-133310380D01*
X98321904Y-133358000D01*
X98369523Y-133405619D01*
X98417142Y-133500857D01*
X98417142Y-133643714D01*
X98369523Y-133738952D01*
X98321904Y-133786571D01*
X98226666Y-133834190D01*
X97845714Y-133834190D01*
X99369523Y-134310380D02*
X98798095Y-134310380D01*
X99083809Y-134310380D02*
X99083809Y-133310380D01*
X98988571Y-133453238D01*
X98893333Y-133548476D01*
X98798095Y-133596095D01*
X100226666Y-133310380D02*
X100036190Y-133310380D01*
X99940952Y-133358000D01*
X99893333Y-133405619D01*
X99798095Y-133548476D01*
X99750476Y-133738952D01*
X99750476Y-134119904D01*
X99798095Y-134215142D01*
X99845714Y-134262761D01*
X99940952Y-134310380D01*
X100131428Y-134310380D01*
X100226666Y-134262761D01*
X100274285Y-134215142D01*
X100321904Y-134119904D01*
X100321904Y-133881809D01*
X100274285Y-133786571D01*
X100226666Y-133738952D01*
X100131428Y-133691333D01*
X99940952Y-133691333D01*
X99845714Y-133738952D01*
X99798095Y-133786571D01*
X99750476Y-133881809D01*
X98290142Y-138882380D02*
X97956809Y-138406190D01*
X97718714Y-138882380D02*
X97718714Y-137882380D01*
X98099666Y-137882380D01*
X98194904Y-137930000D01*
X98242523Y-137977619D01*
X98290142Y-138072857D01*
X98290142Y-138215714D01*
X98242523Y-138310952D01*
X98194904Y-138358571D01*
X98099666Y-138406190D01*
X97718714Y-138406190D01*
X99242523Y-138882380D02*
X98671095Y-138882380D01*
X98956809Y-138882380D02*
X98956809Y-137882380D01*
X98861571Y-138025238D01*
X98766333Y-138120476D01*
X98671095Y-138168095D01*
X99575857Y-137882380D02*
X100242523Y-137882380D01*
X99813952Y-138882380D01*
X91130380Y-120022857D02*
X90654190Y-120356190D01*
X91130380Y-120594285D02*
X90130380Y-120594285D01*
X90130380Y-120213333D01*
X90178000Y-120118095D01*
X90225619Y-120070476D01*
X90320857Y-120022857D01*
X90463714Y-120022857D01*
X90558952Y-120070476D01*
X90606571Y-120118095D01*
X90654190Y-120213333D01*
X90654190Y-120594285D01*
X91130380Y-119070476D02*
X91130380Y-119641904D01*
X91130380Y-119356190D02*
X90130380Y-119356190D01*
X90273238Y-119451428D01*
X90368476Y-119546666D01*
X90416095Y-119641904D01*
X90558952Y-118499047D02*
X90511333Y-118594285D01*
X90463714Y-118641904D01*
X90368476Y-118689523D01*
X90320857Y-118689523D01*
X90225619Y-118641904D01*
X90178000Y-118594285D01*
X90130380Y-118499047D01*
X90130380Y-118308571D01*
X90178000Y-118213333D01*
X90225619Y-118165714D01*
X90320857Y-118118095D01*
X90368476Y-118118095D01*
X90463714Y-118165714D01*
X90511333Y-118213333D01*
X90558952Y-118308571D01*
X90558952Y-118499047D01*
X90606571Y-118594285D01*
X90654190Y-118641904D01*
X90749428Y-118689523D01*
X90939904Y-118689523D01*
X91035142Y-118641904D01*
X91082761Y-118594285D01*
X91130380Y-118499047D01*
X91130380Y-118308571D01*
X91082761Y-118213333D01*
X91035142Y-118165714D01*
X90939904Y-118118095D01*
X90749428Y-118118095D01*
X90654190Y-118165714D01*
X90606571Y-118213333D01*
X90558952Y-118308571D01*
X73652142Y-101798380D02*
X73318809Y-101322190D01*
X73080714Y-101798380D02*
X73080714Y-100798380D01*
X73461666Y-100798380D01*
X73556904Y-100846000D01*
X73604523Y-100893619D01*
X73652142Y-100988857D01*
X73652142Y-101131714D01*
X73604523Y-101226952D01*
X73556904Y-101274571D01*
X73461666Y-101322190D01*
X73080714Y-101322190D01*
X74604523Y-101798380D02*
X74033095Y-101798380D01*
X74318809Y-101798380D02*
X74318809Y-100798380D01*
X74223571Y-100941238D01*
X74128333Y-101036476D01*
X74033095Y-101084095D01*
X75080714Y-101798380D02*
X75271190Y-101798380D01*
X75366428Y-101750761D01*
X75414047Y-101703142D01*
X75509285Y-101560285D01*
X75556904Y-101369809D01*
X75556904Y-100988857D01*
X75509285Y-100893619D01*
X75461666Y-100846000D01*
X75366428Y-100798380D01*
X75175952Y-100798380D01*
X75080714Y-100846000D01*
X75033095Y-100893619D01*
X74985476Y-100988857D01*
X74985476Y-101226952D01*
X75033095Y-101322190D01*
X75080714Y-101369809D01*
X75175952Y-101417428D01*
X75366428Y-101417428D01*
X75461666Y-101369809D01*
X75509285Y-101322190D01*
X75556904Y-101226952D01*
X77081142Y-93670380D02*
X76747809Y-93194190D01*
X76509714Y-93670380D02*
X76509714Y-92670380D01*
X76890666Y-92670380D01*
X76985904Y-92718000D01*
X77033523Y-92765619D01*
X77081142Y-92860857D01*
X77081142Y-93003714D01*
X77033523Y-93098952D01*
X76985904Y-93146571D01*
X76890666Y-93194190D01*
X76509714Y-93194190D01*
X77462095Y-92765619D02*
X77509714Y-92718000D01*
X77604952Y-92670380D01*
X77843047Y-92670380D01*
X77938285Y-92718000D01*
X77985904Y-92765619D01*
X78033523Y-92860857D01*
X78033523Y-92956095D01*
X77985904Y-93098952D01*
X77414476Y-93670380D01*
X78033523Y-93670380D01*
X78652571Y-92670380D02*
X78747809Y-92670380D01*
X78843047Y-92718000D01*
X78890666Y-92765619D01*
X78938285Y-92860857D01*
X78985904Y-93051333D01*
X78985904Y-93289428D01*
X78938285Y-93479904D01*
X78890666Y-93575142D01*
X78843047Y-93622761D01*
X78747809Y-93670380D01*
X78652571Y-93670380D01*
X78557333Y-93622761D01*
X78509714Y-93575142D01*
X78462095Y-93479904D01*
X78414476Y-93289428D01*
X78414476Y-93051333D01*
X78462095Y-92860857D01*
X78509714Y-92765619D01*
X78557333Y-92718000D01*
X78652571Y-92670380D01*
X88463380Y-138056857D02*
X87987190Y-138390190D01*
X88463380Y-138628285D02*
X87463380Y-138628285D01*
X87463380Y-138247333D01*
X87511000Y-138152095D01*
X87558619Y-138104476D01*
X87653857Y-138056857D01*
X87796714Y-138056857D01*
X87891952Y-138104476D01*
X87939571Y-138152095D01*
X87987190Y-138247333D01*
X87987190Y-138628285D01*
X87558619Y-137675904D02*
X87511000Y-137628285D01*
X87463380Y-137533047D01*
X87463380Y-137294952D01*
X87511000Y-137199714D01*
X87558619Y-137152095D01*
X87653857Y-137104476D01*
X87749095Y-137104476D01*
X87891952Y-137152095D01*
X88463380Y-137723523D01*
X88463380Y-137104476D01*
X88463380Y-136152095D02*
X88463380Y-136723523D01*
X88463380Y-136437809D02*
X87463380Y-136437809D01*
X87606238Y-136533047D01*
X87701476Y-136628285D01*
X87749095Y-136723523D01*
X85288380Y-97670857D02*
X84812190Y-98004190D01*
X85288380Y-98242285D02*
X84288380Y-98242285D01*
X84288380Y-97861333D01*
X84336000Y-97766095D01*
X84383619Y-97718476D01*
X84478857Y-97670857D01*
X84621714Y-97670857D01*
X84716952Y-97718476D01*
X84764571Y-97766095D01*
X84812190Y-97861333D01*
X84812190Y-98242285D01*
X84383619Y-97289904D02*
X84336000Y-97242285D01*
X84288380Y-97147047D01*
X84288380Y-96908952D01*
X84336000Y-96813714D01*
X84383619Y-96766095D01*
X84478857Y-96718476D01*
X84574095Y-96718476D01*
X84716952Y-96766095D01*
X85288380Y-97337523D01*
X85288380Y-96718476D01*
X84383619Y-96337523D02*
X84336000Y-96289904D01*
X84288380Y-96194666D01*
X84288380Y-95956571D01*
X84336000Y-95861333D01*
X84383619Y-95813714D01*
X84478857Y-95766095D01*
X84574095Y-95766095D01*
X84716952Y-95813714D01*
X85288380Y-96385142D01*
X85288380Y-95766095D01*
X88971380Y-134754857D02*
X88495190Y-135088190D01*
X88971380Y-135326285D02*
X87971380Y-135326285D01*
X87971380Y-134945333D01*
X88019000Y-134850095D01*
X88066619Y-134802476D01*
X88161857Y-134754857D01*
X88304714Y-134754857D01*
X88399952Y-134802476D01*
X88447571Y-134850095D01*
X88495190Y-134945333D01*
X88495190Y-135326285D01*
X88066619Y-134373904D02*
X88019000Y-134326285D01*
X87971380Y-134231047D01*
X87971380Y-133992952D01*
X88019000Y-133897714D01*
X88066619Y-133850095D01*
X88161857Y-133802476D01*
X88257095Y-133802476D01*
X88399952Y-133850095D01*
X88971380Y-134421523D01*
X88971380Y-133802476D01*
X87971380Y-133469142D02*
X87971380Y-132850095D01*
X88352333Y-133183428D01*
X88352333Y-133040571D01*
X88399952Y-132945333D01*
X88447571Y-132897714D01*
X88542809Y-132850095D01*
X88780904Y-132850095D01*
X88876142Y-132897714D01*
X88923761Y-132945333D01*
X88971380Y-133040571D01*
X88971380Y-133326285D01*
X88923761Y-133421523D01*
X88876142Y-133469142D01*
X83764380Y-128404857D02*
X83288190Y-128738190D01*
X83764380Y-128976285D02*
X82764380Y-128976285D01*
X82764380Y-128595333D01*
X82812000Y-128500095D01*
X82859619Y-128452476D01*
X82954857Y-128404857D01*
X83097714Y-128404857D01*
X83192952Y-128452476D01*
X83240571Y-128500095D01*
X83288190Y-128595333D01*
X83288190Y-128976285D01*
X82859619Y-128023904D02*
X82812000Y-127976285D01*
X82764380Y-127881047D01*
X82764380Y-127642952D01*
X82812000Y-127547714D01*
X82859619Y-127500095D01*
X82954857Y-127452476D01*
X83050095Y-127452476D01*
X83192952Y-127500095D01*
X83764380Y-128071523D01*
X83764380Y-127452476D01*
X83097714Y-126595333D02*
X83764380Y-126595333D01*
X82716761Y-126833428D02*
X83431047Y-127071523D01*
X83431047Y-126452476D01*
X75938142Y-121863380D02*
X75604809Y-121387190D01*
X75366714Y-121863380D02*
X75366714Y-120863380D01*
X75747666Y-120863380D01*
X75842904Y-120911000D01*
X75890523Y-120958619D01*
X75938142Y-121053857D01*
X75938142Y-121196714D01*
X75890523Y-121291952D01*
X75842904Y-121339571D01*
X75747666Y-121387190D01*
X75366714Y-121387190D01*
X76319095Y-120958619D02*
X76366714Y-120911000D01*
X76461952Y-120863380D01*
X76700047Y-120863380D01*
X76795285Y-120911000D01*
X76842904Y-120958619D01*
X76890523Y-121053857D01*
X76890523Y-121149095D01*
X76842904Y-121291952D01*
X76271476Y-121863380D01*
X76890523Y-121863380D01*
X77795285Y-120863380D02*
X77319095Y-120863380D01*
X77271476Y-121339571D01*
X77319095Y-121291952D01*
X77414333Y-121244333D01*
X77652428Y-121244333D01*
X77747666Y-121291952D01*
X77795285Y-121339571D01*
X77842904Y-121434809D01*
X77842904Y-121672904D01*
X77795285Y-121768142D01*
X77747666Y-121815761D01*
X77652428Y-121863380D01*
X77414333Y-121863380D01*
X77319095Y-121815761D01*
X77271476Y-121768142D01*
X95702380Y-144660857D02*
X95226190Y-144994190D01*
X95702380Y-145232285D02*
X94702380Y-145232285D01*
X94702380Y-144851333D01*
X94750000Y-144756095D01*
X94797619Y-144708476D01*
X94892857Y-144660857D01*
X95035714Y-144660857D01*
X95130952Y-144708476D01*
X95178571Y-144756095D01*
X95226190Y-144851333D01*
X95226190Y-145232285D01*
X94797619Y-144279904D02*
X94750000Y-144232285D01*
X94702380Y-144137047D01*
X94702380Y-143898952D01*
X94750000Y-143803714D01*
X94797619Y-143756095D01*
X94892857Y-143708476D01*
X94988095Y-143708476D01*
X95130952Y-143756095D01*
X95702380Y-144327523D01*
X95702380Y-143708476D01*
X94702380Y-143375142D02*
X94702380Y-142708476D01*
X95702380Y-143137047D01*
X76954142Y-112592380D02*
X76620809Y-112116190D01*
X76382714Y-112592380D02*
X76382714Y-111592380D01*
X76763666Y-111592380D01*
X76858904Y-111640000D01*
X76906523Y-111687619D01*
X76954142Y-111782857D01*
X76954142Y-111925714D01*
X76906523Y-112020952D01*
X76858904Y-112068571D01*
X76763666Y-112116190D01*
X76382714Y-112116190D01*
X77335095Y-111687619D02*
X77382714Y-111640000D01*
X77477952Y-111592380D01*
X77716047Y-111592380D01*
X77811285Y-111640000D01*
X77858904Y-111687619D01*
X77906523Y-111782857D01*
X77906523Y-111878095D01*
X77858904Y-112020952D01*
X77287476Y-112592380D01*
X77906523Y-112592380D01*
X78477952Y-112020952D02*
X78382714Y-111973333D01*
X78335095Y-111925714D01*
X78287476Y-111830476D01*
X78287476Y-111782857D01*
X78335095Y-111687619D01*
X78382714Y-111640000D01*
X78477952Y-111592380D01*
X78668428Y-111592380D01*
X78763666Y-111640000D01*
X78811285Y-111687619D01*
X78858904Y-111782857D01*
X78858904Y-111830476D01*
X78811285Y-111925714D01*
X78763666Y-111973333D01*
X78668428Y-112020952D01*
X78477952Y-112020952D01*
X78382714Y-112068571D01*
X78335095Y-112116190D01*
X78287476Y-112211428D01*
X78287476Y-112401904D01*
X78335095Y-112497142D01*
X78382714Y-112544761D01*
X78477952Y-112592380D01*
X78668428Y-112592380D01*
X78763666Y-112544761D01*
X78811285Y-112497142D01*
X78858904Y-112401904D01*
X78858904Y-112211428D01*
X78811285Y-112116190D01*
X78763666Y-112068571D01*
X78668428Y-112020952D01*
X89225380Y-144406857D02*
X88749190Y-144740190D01*
X89225380Y-144978285D02*
X88225380Y-144978285D01*
X88225380Y-144597333D01*
X88273000Y-144502095D01*
X88320619Y-144454476D01*
X88415857Y-144406857D01*
X88558714Y-144406857D01*
X88653952Y-144454476D01*
X88701571Y-144502095D01*
X88749190Y-144597333D01*
X88749190Y-144978285D01*
X88320619Y-144025904D02*
X88273000Y-143978285D01*
X88225380Y-143883047D01*
X88225380Y-143644952D01*
X88273000Y-143549714D01*
X88320619Y-143502095D01*
X88415857Y-143454476D01*
X88511095Y-143454476D01*
X88653952Y-143502095D01*
X89225380Y-144073523D01*
X89225380Y-143454476D01*
X89225380Y-142978285D02*
X89225380Y-142787809D01*
X89177761Y-142692571D01*
X89130142Y-142644952D01*
X88987285Y-142549714D01*
X88796809Y-142502095D01*
X88415857Y-142502095D01*
X88320619Y-142549714D01*
X88273000Y-142597333D01*
X88225380Y-142692571D01*
X88225380Y-142883047D01*
X88273000Y-142978285D01*
X88320619Y-143025904D01*
X88415857Y-143073523D01*
X88653952Y-143073523D01*
X88749190Y-143025904D01*
X88796809Y-142978285D01*
X88844428Y-142883047D01*
X88844428Y-142692571D01*
X88796809Y-142597333D01*
X88749190Y-142549714D01*
X88653952Y-142502095D01*
X97401142Y-143708380D02*
X97067809Y-143232190D01*
X96829714Y-143708380D02*
X96829714Y-142708380D01*
X97210666Y-142708380D01*
X97305904Y-142756000D01*
X97353523Y-142803619D01*
X97401142Y-142898857D01*
X97401142Y-143041714D01*
X97353523Y-143136952D01*
X97305904Y-143184571D01*
X97210666Y-143232190D01*
X96829714Y-143232190D01*
X97734476Y-142708380D02*
X98353523Y-142708380D01*
X98020190Y-143089333D01*
X98163047Y-143089333D01*
X98258285Y-143136952D01*
X98305904Y-143184571D01*
X98353523Y-143279809D01*
X98353523Y-143517904D01*
X98305904Y-143613142D01*
X98258285Y-143660761D01*
X98163047Y-143708380D01*
X97877333Y-143708380D01*
X97782095Y-143660761D01*
X97734476Y-143613142D01*
X98972571Y-142708380D02*
X99067809Y-142708380D01*
X99163047Y-142756000D01*
X99210666Y-142803619D01*
X99258285Y-142898857D01*
X99305904Y-143089333D01*
X99305904Y-143327428D01*
X99258285Y-143517904D01*
X99210666Y-143613142D01*
X99163047Y-143660761D01*
X99067809Y-143708380D01*
X98972571Y-143708380D01*
X98877333Y-143660761D01*
X98829714Y-143613142D01*
X98782095Y-143517904D01*
X98734476Y-143327428D01*
X98734476Y-143089333D01*
X98782095Y-142898857D01*
X98829714Y-142803619D01*
X98877333Y-142756000D01*
X98972571Y-142708380D01*
X102790666Y-105072380D02*
X102790666Y-105786666D01*
X102743047Y-105929523D01*
X102647809Y-106024761D01*
X102504952Y-106072380D01*
X102409714Y-106072380D01*
X103790666Y-106072380D02*
X103219238Y-106072380D01*
X103504952Y-106072380D02*
X103504952Y-105072380D01*
X103409714Y-105215238D01*
X103314476Y-105310476D01*
X103219238Y-105358095D01*
X94829333Y-97131142D02*
X94781714Y-97178761D01*
X94638857Y-97226380D01*
X94543619Y-97226380D01*
X94400761Y-97178761D01*
X94305523Y-97083523D01*
X94257904Y-96988285D01*
X94210285Y-96797809D01*
X94210285Y-96654952D01*
X94257904Y-96464476D01*
X94305523Y-96369238D01*
X94400761Y-96274000D01*
X94543619Y-96226380D01*
X94638857Y-96226380D01*
X94781714Y-96274000D01*
X94829333Y-96321619D01*
X95781714Y-97226380D02*
X95210285Y-97226380D01*
X95496000Y-97226380D02*
X95496000Y-96226380D01*
X95400761Y-96369238D01*
X95305523Y-96464476D01*
X95210285Y-96512095D01*
X70207142Y-114720666D02*
X70254761Y-114768285D01*
X70302380Y-114911142D01*
X70302380Y-115006380D01*
X70254761Y-115149238D01*
X70159523Y-115244476D01*
X70064285Y-115292095D01*
X69873809Y-115339714D01*
X69730952Y-115339714D01*
X69540476Y-115292095D01*
X69445238Y-115244476D01*
X69350000Y-115149238D01*
X69302380Y-115006380D01*
X69302380Y-114911142D01*
X69350000Y-114768285D01*
X69397619Y-114720666D01*
X69302380Y-113863523D02*
X69302380Y-114054000D01*
X69350000Y-114149238D01*
X69397619Y-114196857D01*
X69540476Y-114292095D01*
X69730952Y-114339714D01*
X70111904Y-114339714D01*
X70207142Y-114292095D01*
X70254761Y-114244476D01*
X70302380Y-114149238D01*
X70302380Y-113958761D01*
X70254761Y-113863523D01*
X70207142Y-113815904D01*
X70111904Y-113768285D01*
X69873809Y-113768285D01*
X69778571Y-113815904D01*
X69730952Y-113863523D01*
X69683333Y-113958761D01*
X69683333Y-114149238D01*
X69730952Y-114244476D01*
X69778571Y-114292095D01*
X69873809Y-114339714D01*
X89098380Y-129928857D02*
X88622190Y-130262190D01*
X89098380Y-130500285D02*
X88098380Y-130500285D01*
X88098380Y-130119333D01*
X88146000Y-130024095D01*
X88193619Y-129976476D01*
X88288857Y-129928857D01*
X88431714Y-129928857D01*
X88526952Y-129976476D01*
X88574571Y-130024095D01*
X88622190Y-130119333D01*
X88622190Y-130500285D01*
X88098380Y-129595523D02*
X88098380Y-128976476D01*
X88479333Y-129309809D01*
X88479333Y-129166952D01*
X88526952Y-129071714D01*
X88574571Y-129024095D01*
X88669809Y-128976476D01*
X88907904Y-128976476D01*
X89003142Y-129024095D01*
X89050761Y-129071714D01*
X89098380Y-129166952D01*
X89098380Y-129452666D01*
X89050761Y-129547904D01*
X89003142Y-129595523D01*
X89098380Y-128024095D02*
X89098380Y-128595523D01*
X89098380Y-128309809D02*
X88098380Y-128309809D01*
X88241238Y-128405047D01*
X88336476Y-128500285D01*
X88384095Y-128595523D01*
X91162142Y-154312857D02*
X91209761Y-154360476D01*
X91257380Y-154503333D01*
X91257380Y-154598571D01*
X91209761Y-154741428D01*
X91114523Y-154836666D01*
X91019285Y-154884285D01*
X90828809Y-154931904D01*
X90685952Y-154931904D01*
X90495476Y-154884285D01*
X90400238Y-154836666D01*
X90305000Y-154741428D01*
X90257380Y-154598571D01*
X90257380Y-154503333D01*
X90305000Y-154360476D01*
X90352619Y-154312857D01*
X91257380Y-153360476D02*
X91257380Y-153931904D01*
X91257380Y-153646190D02*
X90257380Y-153646190D01*
X90400238Y-153741428D01*
X90495476Y-153836666D01*
X90543095Y-153931904D01*
X90257380Y-152741428D02*
X90257380Y-152646190D01*
X90305000Y-152550952D01*
X90352619Y-152503333D01*
X90447857Y-152455714D01*
X90638333Y-152408095D01*
X90876428Y-152408095D01*
X91066904Y-152455714D01*
X91162142Y-152503333D01*
X91209761Y-152550952D01*
X91257380Y-152646190D01*
X91257380Y-152741428D01*
X91209761Y-152836666D01*
X91162142Y-152884285D01*
X91066904Y-152931904D01*
X90876428Y-152979523D01*
X90638333Y-152979523D01*
X90447857Y-152931904D01*
X90352619Y-152884285D01*
X90305000Y-152836666D01*
X90257380Y-152741428D01*
X89003142Y-120022857D02*
X89050761Y-120070476D01*
X89098380Y-120213333D01*
X89098380Y-120308571D01*
X89050761Y-120451428D01*
X88955523Y-120546666D01*
X88860285Y-120594285D01*
X88669809Y-120641904D01*
X88526952Y-120641904D01*
X88336476Y-120594285D01*
X88241238Y-120546666D01*
X88146000Y-120451428D01*
X88098380Y-120308571D01*
X88098380Y-120213333D01*
X88146000Y-120070476D01*
X88193619Y-120022857D01*
X89098380Y-119070476D02*
X89098380Y-119641904D01*
X89098380Y-119356190D02*
X88098380Y-119356190D01*
X88241238Y-119451428D01*
X88336476Y-119546666D01*
X88384095Y-119641904D01*
X89098380Y-118118095D02*
X89098380Y-118689523D01*
X89098380Y-118403809D02*
X88098380Y-118403809D01*
X88241238Y-118499047D01*
X88336476Y-118594285D01*
X88384095Y-118689523D01*
X90400142Y-138056857D02*
X90447761Y-138104476D01*
X90495380Y-138247333D01*
X90495380Y-138342571D01*
X90447761Y-138485428D01*
X90352523Y-138580666D01*
X90257285Y-138628285D01*
X90066809Y-138675904D01*
X89923952Y-138675904D01*
X89733476Y-138628285D01*
X89638238Y-138580666D01*
X89543000Y-138485428D01*
X89495380Y-138342571D01*
X89495380Y-138247333D01*
X89543000Y-138104476D01*
X89590619Y-138056857D01*
X90495380Y-137104476D02*
X90495380Y-137675904D01*
X90495380Y-137390190D02*
X89495380Y-137390190D01*
X89638238Y-137485428D01*
X89733476Y-137580666D01*
X89781095Y-137675904D01*
X89590619Y-136723523D02*
X89543000Y-136675904D01*
X89495380Y-136580666D01*
X89495380Y-136342571D01*
X89543000Y-136247333D01*
X89590619Y-136199714D01*
X89685857Y-136152095D01*
X89781095Y-136152095D01*
X89923952Y-136199714D01*
X90495380Y-136771142D01*
X90495380Y-136152095D01*
X91035142Y-129928857D02*
X91082761Y-129976476D01*
X91130380Y-130119333D01*
X91130380Y-130214571D01*
X91082761Y-130357428D01*
X90987523Y-130452666D01*
X90892285Y-130500285D01*
X90701809Y-130547904D01*
X90558952Y-130547904D01*
X90368476Y-130500285D01*
X90273238Y-130452666D01*
X90178000Y-130357428D01*
X90130380Y-130214571D01*
X90130380Y-130119333D01*
X90178000Y-129976476D01*
X90225619Y-129928857D01*
X91130380Y-128976476D02*
X91130380Y-129547904D01*
X91130380Y-129262190D02*
X90130380Y-129262190D01*
X90273238Y-129357428D01*
X90368476Y-129452666D01*
X90416095Y-129547904D01*
X90130380Y-128643142D02*
X90130380Y-128024095D01*
X90511333Y-128357428D01*
X90511333Y-128214571D01*
X90558952Y-128119333D01*
X90606571Y-128071714D01*
X90701809Y-128024095D01*
X90939904Y-128024095D01*
X91035142Y-128071714D01*
X91082761Y-128119333D01*
X91130380Y-128214571D01*
X91130380Y-128500285D01*
X91082761Y-128595523D01*
X91035142Y-128643142D01*
X95702380Y-121419857D02*
X95226190Y-121753190D01*
X95702380Y-121991285D02*
X94702380Y-121991285D01*
X94702380Y-121610333D01*
X94750000Y-121515095D01*
X94797619Y-121467476D01*
X94892857Y-121419857D01*
X95035714Y-121419857D01*
X95130952Y-121467476D01*
X95178571Y-121515095D01*
X95226190Y-121610333D01*
X95226190Y-121991285D01*
X94702380Y-121086523D02*
X94702380Y-120467476D01*
X95083333Y-120800809D01*
X95083333Y-120657952D01*
X95130952Y-120562714D01*
X95178571Y-120515095D01*
X95273809Y-120467476D01*
X95511904Y-120467476D01*
X95607142Y-120515095D01*
X95654761Y-120562714D01*
X95702380Y-120657952D01*
X95702380Y-120943666D01*
X95654761Y-121038904D01*
X95607142Y-121086523D01*
X94797619Y-120086523D02*
X94750000Y-120038904D01*
X94702380Y-119943666D01*
X94702380Y-119705571D01*
X94750000Y-119610333D01*
X94797619Y-119562714D01*
X94892857Y-119515095D01*
X94988095Y-119515095D01*
X95130952Y-119562714D01*
X95702380Y-120134142D01*
X95702380Y-119515095D01*
X76954142Y-105006142D02*
X76906523Y-105053761D01*
X76763666Y-105101380D01*
X76668428Y-105101380D01*
X76525571Y-105053761D01*
X76430333Y-104958523D01*
X76382714Y-104863285D01*
X76335095Y-104672809D01*
X76335095Y-104529952D01*
X76382714Y-104339476D01*
X76430333Y-104244238D01*
X76525571Y-104149000D01*
X76668428Y-104101380D01*
X76763666Y-104101380D01*
X76906523Y-104149000D01*
X76954142Y-104196619D01*
X77906523Y-105101380D02*
X77335095Y-105101380D01*
X77620809Y-105101380D02*
X77620809Y-104101380D01*
X77525571Y-104244238D01*
X77430333Y-104339476D01*
X77335095Y-104387095D01*
X78763666Y-104434714D02*
X78763666Y-105101380D01*
X78525571Y-104053761D02*
X78287476Y-104768047D01*
X78906523Y-104768047D01*
X73398142Y-105006142D02*
X73350523Y-105053761D01*
X73207666Y-105101380D01*
X73112428Y-105101380D01*
X72969571Y-105053761D01*
X72874333Y-104958523D01*
X72826714Y-104863285D01*
X72779095Y-104672809D01*
X72779095Y-104529952D01*
X72826714Y-104339476D01*
X72874333Y-104244238D01*
X72969571Y-104149000D01*
X73112428Y-104101380D01*
X73207666Y-104101380D01*
X73350523Y-104149000D01*
X73398142Y-104196619D01*
X74350523Y-105101380D02*
X73779095Y-105101380D01*
X74064809Y-105101380D02*
X74064809Y-104101380D01*
X73969571Y-104244238D01*
X73874333Y-104339476D01*
X73779095Y-104387095D01*
X75255285Y-104101380D02*
X74779095Y-104101380D01*
X74731476Y-104577571D01*
X74779095Y-104529952D01*
X74874333Y-104482333D01*
X75112428Y-104482333D01*
X75207666Y-104529952D01*
X75255285Y-104577571D01*
X75302904Y-104672809D01*
X75302904Y-104910904D01*
X75255285Y-105006142D01*
X75207666Y-105053761D01*
X75112428Y-105101380D01*
X74874333Y-105101380D01*
X74779095Y-105053761D01*
X74731476Y-105006142D01*
X82161142Y-144375142D02*
X82113523Y-144422761D01*
X81970666Y-144470380D01*
X81875428Y-144470380D01*
X81732571Y-144422761D01*
X81637333Y-144327523D01*
X81589714Y-144232285D01*
X81542095Y-144041809D01*
X81542095Y-143898952D01*
X81589714Y-143708476D01*
X81637333Y-143613238D01*
X81732571Y-143518000D01*
X81875428Y-143470380D01*
X81970666Y-143470380D01*
X82113523Y-143518000D01*
X82161142Y-143565619D01*
X83113523Y-144470380D02*
X82542095Y-144470380D01*
X82827809Y-144470380D02*
X82827809Y-143470380D01*
X82732571Y-143613238D01*
X82637333Y-143708476D01*
X82542095Y-143756095D01*
X83970666Y-143470380D02*
X83780190Y-143470380D01*
X83684952Y-143518000D01*
X83637333Y-143565619D01*
X83542095Y-143708476D01*
X83494476Y-143898952D01*
X83494476Y-144279904D01*
X83542095Y-144375142D01*
X83589714Y-144422761D01*
X83684952Y-144470380D01*
X83875428Y-144470380D01*
X83970666Y-144422761D01*
X84018285Y-144375142D01*
X84065904Y-144279904D01*
X84065904Y-144041809D01*
X84018285Y-143946571D01*
X83970666Y-143898952D01*
X83875428Y-143851333D01*
X83684952Y-143851333D01*
X83589714Y-143898952D01*
X83542095Y-143946571D01*
X83494476Y-144041809D01*
X95242142Y-155423142D02*
X95194523Y-155470761D01*
X95051666Y-155518380D01*
X94956428Y-155518380D01*
X94813571Y-155470761D01*
X94718333Y-155375523D01*
X94670714Y-155280285D01*
X94623095Y-155089809D01*
X94623095Y-154946952D01*
X94670714Y-154756476D01*
X94718333Y-154661238D01*
X94813571Y-154566000D01*
X94956428Y-154518380D01*
X95051666Y-154518380D01*
X95194523Y-154566000D01*
X95242142Y-154613619D01*
X96194523Y-155518380D02*
X95623095Y-155518380D01*
X95908809Y-155518380D02*
X95908809Y-154518380D01*
X95813571Y-154661238D01*
X95718333Y-154756476D01*
X95623095Y-154804095D01*
X96527857Y-154518380D02*
X97194523Y-154518380D01*
X96765952Y-155518380D01*
X81780142Y-120119142D02*
X81732523Y-120166761D01*
X81589666Y-120214380D01*
X81494428Y-120214380D01*
X81351571Y-120166761D01*
X81256333Y-120071523D01*
X81208714Y-119976285D01*
X81161095Y-119785809D01*
X81161095Y-119642952D01*
X81208714Y-119452476D01*
X81256333Y-119357238D01*
X81351571Y-119262000D01*
X81494428Y-119214380D01*
X81589666Y-119214380D01*
X81732523Y-119262000D01*
X81780142Y-119309619D01*
X82732523Y-120214380D02*
X82161095Y-120214380D01*
X82446809Y-120214380D02*
X82446809Y-119214380D01*
X82351571Y-119357238D01*
X82256333Y-119452476D01*
X82161095Y-119500095D01*
X83303952Y-119642952D02*
X83208714Y-119595333D01*
X83161095Y-119547714D01*
X83113476Y-119452476D01*
X83113476Y-119404857D01*
X83161095Y-119309619D01*
X83208714Y-119262000D01*
X83303952Y-119214380D01*
X83494428Y-119214380D01*
X83589666Y-119262000D01*
X83637285Y-119309619D01*
X83684904Y-119404857D01*
X83684904Y-119452476D01*
X83637285Y-119547714D01*
X83589666Y-119595333D01*
X83494428Y-119642952D01*
X83303952Y-119642952D01*
X83208714Y-119690571D01*
X83161095Y-119738190D01*
X83113476Y-119833428D01*
X83113476Y-120023904D01*
X83161095Y-120119142D01*
X83208714Y-120166761D01*
X83303952Y-120214380D01*
X83494428Y-120214380D01*
X83589666Y-120166761D01*
X83637285Y-120119142D01*
X83684904Y-120023904D01*
X83684904Y-119833428D01*
X83637285Y-119738190D01*
X83589666Y-119690571D01*
X83494428Y-119642952D01*
X95242142Y-131039142D02*
X95194523Y-131086761D01*
X95051666Y-131134380D01*
X94956428Y-131134380D01*
X94813571Y-131086761D01*
X94718333Y-130991523D01*
X94670714Y-130896285D01*
X94623095Y-130705809D01*
X94623095Y-130562952D01*
X94670714Y-130372476D01*
X94718333Y-130277238D01*
X94813571Y-130182000D01*
X94956428Y-130134380D01*
X95051666Y-130134380D01*
X95194523Y-130182000D01*
X95242142Y-130229619D01*
X96194523Y-131134380D02*
X95623095Y-131134380D01*
X95908809Y-131134380D02*
X95908809Y-130134380D01*
X95813571Y-130277238D01*
X95718333Y-130372476D01*
X95623095Y-130420095D01*
X96670714Y-131134380D02*
X96861190Y-131134380D01*
X96956428Y-131086761D01*
X97004047Y-131039142D01*
X97099285Y-130896285D01*
X97146904Y-130705809D01*
X97146904Y-130324857D01*
X97099285Y-130229619D01*
X97051666Y-130182000D01*
X96956428Y-130134380D01*
X96765952Y-130134380D01*
X96670714Y-130182000D01*
X96623095Y-130229619D01*
X96575476Y-130324857D01*
X96575476Y-130562952D01*
X96623095Y-130658190D01*
X96670714Y-130705809D01*
X96765952Y-130753428D01*
X96956428Y-130753428D01*
X97051666Y-130705809D01*
X97099285Y-130658190D01*
X97146904Y-130562952D01*
X81780142Y-132311142D02*
X81732523Y-132358761D01*
X81589666Y-132406380D01*
X81494428Y-132406380D01*
X81351571Y-132358761D01*
X81256333Y-132263523D01*
X81208714Y-132168285D01*
X81161095Y-131977809D01*
X81161095Y-131834952D01*
X81208714Y-131644476D01*
X81256333Y-131549238D01*
X81351571Y-131454000D01*
X81494428Y-131406380D01*
X81589666Y-131406380D01*
X81732523Y-131454000D01*
X81780142Y-131501619D01*
X82161095Y-131501619D02*
X82208714Y-131454000D01*
X82303952Y-131406380D01*
X82542047Y-131406380D01*
X82637285Y-131454000D01*
X82684904Y-131501619D01*
X82732523Y-131596857D01*
X82732523Y-131692095D01*
X82684904Y-131834952D01*
X82113476Y-132406380D01*
X82732523Y-132406380D01*
X83351571Y-131406380D02*
X83446809Y-131406380D01*
X83542047Y-131454000D01*
X83589666Y-131501619D01*
X83637285Y-131596857D01*
X83684904Y-131787333D01*
X83684904Y-132025428D01*
X83637285Y-132215904D01*
X83589666Y-132311142D01*
X83542047Y-132358761D01*
X83446809Y-132406380D01*
X83351571Y-132406380D01*
X83256333Y-132358761D01*
X83208714Y-132311142D01*
X83161095Y-132215904D01*
X83113476Y-132025428D01*
X83113476Y-131787333D01*
X83161095Y-131596857D01*
X83208714Y-131501619D01*
X83256333Y-131454000D01*
X83351571Y-131406380D01*
X95242142Y-140057142D02*
X95194523Y-140104761D01*
X95051666Y-140152380D01*
X94956428Y-140152380D01*
X94813571Y-140104761D01*
X94718333Y-140009523D01*
X94670714Y-139914285D01*
X94623095Y-139723809D01*
X94623095Y-139580952D01*
X94670714Y-139390476D01*
X94718333Y-139295238D01*
X94813571Y-139200000D01*
X94956428Y-139152380D01*
X95051666Y-139152380D01*
X95194523Y-139200000D01*
X95242142Y-139247619D01*
X95623095Y-139247619D02*
X95670714Y-139200000D01*
X95765952Y-139152380D01*
X96004047Y-139152380D01*
X96099285Y-139200000D01*
X96146904Y-139247619D01*
X96194523Y-139342857D01*
X96194523Y-139438095D01*
X96146904Y-139580952D01*
X95575476Y-140152380D01*
X96194523Y-140152380D01*
X97146904Y-140152380D02*
X96575476Y-140152380D01*
X96861190Y-140152380D02*
X96861190Y-139152380D01*
X96765952Y-139295238D01*
X96670714Y-139390476D01*
X96575476Y-139438095D01*
M02*
