G04 #@! TF.GenerationSoftware,KiCad,Pcbnew,(5.1.4-0-10_14)*
G04 #@! TF.CreationDate,2019-10-08T20:54:05-07:00*
G04 #@! TF.ProjectId,ADSR_Main_IO,41445352-5f4d-4616-996e-5f494f2e6b69,rev?*
G04 #@! TF.SameCoordinates,Original*
G04 #@! TF.FileFunction,Copper,L2,Bot*
G04 #@! TF.FilePolarity,Positive*
%FSLAX46Y46*%
G04 Gerber Fmt 4.6, Leading zero omitted, Abs format (unit mm)*
G04 Created by KiCad (PCBNEW (5.1.4-0-10_14)) date 2019-10-08 20:54:05*
%MOMM*%
%LPD*%
G04 APERTURE LIST*
%ADD10C,3.100000*%
%ADD11C,2.130000*%
%ADD12R,1.830000X1.930000*%
%ADD13O,4.000000X4.000000*%
%ADD14C,1.800000*%
%ADD15R,1.800000X1.800000*%
%ADD16O,1.600000X1.600000*%
%ADD17R,1.600000X1.600000*%
%ADD18O,1.727200X1.727200*%
%ADD19R,1.727200X1.727200*%
%ADD20C,0.100000*%
%ADD21C,0.975000*%
%ADD22C,1.600000*%
%ADD23C,0.800000*%
%ADD24C,0.250000*%
%ADD25C,0.254000*%
G04 APERTURE END LIST*
D10*
X71628000Y-142240000D03*
D11*
X76578000Y-142240000D03*
D12*
X65178000Y-142240000D03*
D11*
X68278000Y-142240000D03*
D10*
X71628000Y-154686000D03*
D11*
X76578000Y-154686000D03*
D12*
X65178000Y-154686000D03*
D11*
X68278000Y-154686000D03*
D10*
X86614000Y-154686000D03*
D11*
X91564000Y-154686000D03*
D12*
X80164000Y-154686000D03*
D11*
X83264000Y-154686000D03*
D13*
X86244000Y-60218000D03*
X76744000Y-60218000D03*
D14*
X83994000Y-67718000D03*
X81494000Y-67718000D03*
D15*
X78994000Y-67718000D03*
D13*
X86244000Y-81046000D03*
X76744000Y-81046000D03*
D14*
X83994000Y-88546000D03*
X81494000Y-88546000D03*
D15*
X78994000Y-88546000D03*
D13*
X86244000Y-102636000D03*
X76744000Y-102636000D03*
D14*
X83994000Y-110136000D03*
X81494000Y-110136000D03*
D15*
X78994000Y-110136000D03*
D13*
X86244000Y-124226000D03*
X76744000Y-124226000D03*
D14*
X83994000Y-131726000D03*
X81494000Y-131726000D03*
D15*
X78994000Y-131726000D03*
D16*
X65532000Y-89916000D03*
X73152000Y-107696000D03*
X65532000Y-92456000D03*
X73152000Y-105156000D03*
X65532000Y-94996000D03*
X73152000Y-102616000D03*
X65532000Y-97536000D03*
X73152000Y-100076000D03*
X65532000Y-100076000D03*
X73152000Y-97536000D03*
X65532000Y-102616000D03*
X73152000Y-94996000D03*
X65532000Y-105156000D03*
X73152000Y-92456000D03*
X65532000Y-107696000D03*
D17*
X73152000Y-89916000D03*
D18*
X70612000Y-60198000D03*
X68072000Y-60198000D03*
X70612000Y-62738000D03*
X68072000Y-62738000D03*
X70612000Y-65278000D03*
X68072000Y-65278000D03*
X70612000Y-67818000D03*
X68072000Y-67818000D03*
X70612000Y-70358000D03*
X68072000Y-70358000D03*
X70612000Y-72898000D03*
X68072000Y-72898000D03*
X70612000Y-75438000D03*
X68072000Y-75438000D03*
X70612000Y-77978000D03*
D19*
X68072000Y-77978000D03*
D20*
G36*
X82014142Y-71063174D02*
G01*
X82037803Y-71066684D01*
X82061007Y-71072496D01*
X82083529Y-71080554D01*
X82105153Y-71090782D01*
X82125670Y-71103079D01*
X82144883Y-71117329D01*
X82162607Y-71133393D01*
X82178671Y-71151117D01*
X82192921Y-71170330D01*
X82205218Y-71190847D01*
X82215446Y-71212471D01*
X82223504Y-71234993D01*
X82229316Y-71258197D01*
X82232826Y-71281858D01*
X82234000Y-71305750D01*
X82234000Y-71793250D01*
X82232826Y-71817142D01*
X82229316Y-71840803D01*
X82223504Y-71864007D01*
X82215446Y-71886529D01*
X82205218Y-71908153D01*
X82192921Y-71928670D01*
X82178671Y-71947883D01*
X82162607Y-71965607D01*
X82144883Y-71981671D01*
X82125670Y-71995921D01*
X82105153Y-72008218D01*
X82083529Y-72018446D01*
X82061007Y-72026504D01*
X82037803Y-72032316D01*
X82014142Y-72035826D01*
X81990250Y-72037000D01*
X81077750Y-72037000D01*
X81053858Y-72035826D01*
X81030197Y-72032316D01*
X81006993Y-72026504D01*
X80984471Y-72018446D01*
X80962847Y-72008218D01*
X80942330Y-71995921D01*
X80923117Y-71981671D01*
X80905393Y-71965607D01*
X80889329Y-71947883D01*
X80875079Y-71928670D01*
X80862782Y-71908153D01*
X80852554Y-71886529D01*
X80844496Y-71864007D01*
X80838684Y-71840803D01*
X80835174Y-71817142D01*
X80834000Y-71793250D01*
X80834000Y-71305750D01*
X80835174Y-71281858D01*
X80838684Y-71258197D01*
X80844496Y-71234993D01*
X80852554Y-71212471D01*
X80862782Y-71190847D01*
X80875079Y-71170330D01*
X80889329Y-71151117D01*
X80905393Y-71133393D01*
X80923117Y-71117329D01*
X80942330Y-71103079D01*
X80962847Y-71090782D01*
X80984471Y-71080554D01*
X81006993Y-71072496D01*
X81030197Y-71066684D01*
X81053858Y-71063174D01*
X81077750Y-71062000D01*
X81990250Y-71062000D01*
X82014142Y-71063174D01*
X82014142Y-71063174D01*
G37*
D21*
X81534000Y-71549500D03*
D20*
G36*
X82014142Y-69188174D02*
G01*
X82037803Y-69191684D01*
X82061007Y-69197496D01*
X82083529Y-69205554D01*
X82105153Y-69215782D01*
X82125670Y-69228079D01*
X82144883Y-69242329D01*
X82162607Y-69258393D01*
X82178671Y-69276117D01*
X82192921Y-69295330D01*
X82205218Y-69315847D01*
X82215446Y-69337471D01*
X82223504Y-69359993D01*
X82229316Y-69383197D01*
X82232826Y-69406858D01*
X82234000Y-69430750D01*
X82234000Y-69918250D01*
X82232826Y-69942142D01*
X82229316Y-69965803D01*
X82223504Y-69989007D01*
X82215446Y-70011529D01*
X82205218Y-70033153D01*
X82192921Y-70053670D01*
X82178671Y-70072883D01*
X82162607Y-70090607D01*
X82144883Y-70106671D01*
X82125670Y-70120921D01*
X82105153Y-70133218D01*
X82083529Y-70143446D01*
X82061007Y-70151504D01*
X82037803Y-70157316D01*
X82014142Y-70160826D01*
X81990250Y-70162000D01*
X81077750Y-70162000D01*
X81053858Y-70160826D01*
X81030197Y-70157316D01*
X81006993Y-70151504D01*
X80984471Y-70143446D01*
X80962847Y-70133218D01*
X80942330Y-70120921D01*
X80923117Y-70106671D01*
X80905393Y-70090607D01*
X80889329Y-70072883D01*
X80875079Y-70053670D01*
X80862782Y-70033153D01*
X80852554Y-70011529D01*
X80844496Y-69989007D01*
X80838684Y-69965803D01*
X80835174Y-69942142D01*
X80834000Y-69918250D01*
X80834000Y-69430750D01*
X80835174Y-69406858D01*
X80838684Y-69383197D01*
X80844496Y-69359993D01*
X80852554Y-69337471D01*
X80862782Y-69315847D01*
X80875079Y-69295330D01*
X80889329Y-69276117D01*
X80905393Y-69258393D01*
X80923117Y-69242329D01*
X80942330Y-69228079D01*
X80962847Y-69215782D01*
X80984471Y-69205554D01*
X81006993Y-69197496D01*
X81030197Y-69191684D01*
X81053858Y-69188174D01*
X81077750Y-69187000D01*
X81990250Y-69187000D01*
X82014142Y-69188174D01*
X82014142Y-69188174D01*
G37*
D21*
X81534000Y-69674500D03*
D20*
G36*
X84046142Y-69188174D02*
G01*
X84069803Y-69191684D01*
X84093007Y-69197496D01*
X84115529Y-69205554D01*
X84137153Y-69215782D01*
X84157670Y-69228079D01*
X84176883Y-69242329D01*
X84194607Y-69258393D01*
X84210671Y-69276117D01*
X84224921Y-69295330D01*
X84237218Y-69315847D01*
X84247446Y-69337471D01*
X84255504Y-69359993D01*
X84261316Y-69383197D01*
X84264826Y-69406858D01*
X84266000Y-69430750D01*
X84266000Y-69918250D01*
X84264826Y-69942142D01*
X84261316Y-69965803D01*
X84255504Y-69989007D01*
X84247446Y-70011529D01*
X84237218Y-70033153D01*
X84224921Y-70053670D01*
X84210671Y-70072883D01*
X84194607Y-70090607D01*
X84176883Y-70106671D01*
X84157670Y-70120921D01*
X84137153Y-70133218D01*
X84115529Y-70143446D01*
X84093007Y-70151504D01*
X84069803Y-70157316D01*
X84046142Y-70160826D01*
X84022250Y-70162000D01*
X83109750Y-70162000D01*
X83085858Y-70160826D01*
X83062197Y-70157316D01*
X83038993Y-70151504D01*
X83016471Y-70143446D01*
X82994847Y-70133218D01*
X82974330Y-70120921D01*
X82955117Y-70106671D01*
X82937393Y-70090607D01*
X82921329Y-70072883D01*
X82907079Y-70053670D01*
X82894782Y-70033153D01*
X82884554Y-70011529D01*
X82876496Y-69989007D01*
X82870684Y-69965803D01*
X82867174Y-69942142D01*
X82866000Y-69918250D01*
X82866000Y-69430750D01*
X82867174Y-69406858D01*
X82870684Y-69383197D01*
X82876496Y-69359993D01*
X82884554Y-69337471D01*
X82894782Y-69315847D01*
X82907079Y-69295330D01*
X82921329Y-69276117D01*
X82937393Y-69258393D01*
X82955117Y-69242329D01*
X82974330Y-69228079D01*
X82994847Y-69215782D01*
X83016471Y-69205554D01*
X83038993Y-69197496D01*
X83062197Y-69191684D01*
X83085858Y-69188174D01*
X83109750Y-69187000D01*
X84022250Y-69187000D01*
X84046142Y-69188174D01*
X84046142Y-69188174D01*
G37*
D21*
X83566000Y-69674500D03*
D20*
G36*
X84046142Y-71063174D02*
G01*
X84069803Y-71066684D01*
X84093007Y-71072496D01*
X84115529Y-71080554D01*
X84137153Y-71090782D01*
X84157670Y-71103079D01*
X84176883Y-71117329D01*
X84194607Y-71133393D01*
X84210671Y-71151117D01*
X84224921Y-71170330D01*
X84237218Y-71190847D01*
X84247446Y-71212471D01*
X84255504Y-71234993D01*
X84261316Y-71258197D01*
X84264826Y-71281858D01*
X84266000Y-71305750D01*
X84266000Y-71793250D01*
X84264826Y-71817142D01*
X84261316Y-71840803D01*
X84255504Y-71864007D01*
X84247446Y-71886529D01*
X84237218Y-71908153D01*
X84224921Y-71928670D01*
X84210671Y-71947883D01*
X84194607Y-71965607D01*
X84176883Y-71981671D01*
X84157670Y-71995921D01*
X84137153Y-72008218D01*
X84115529Y-72018446D01*
X84093007Y-72026504D01*
X84069803Y-72032316D01*
X84046142Y-72035826D01*
X84022250Y-72037000D01*
X83109750Y-72037000D01*
X83085858Y-72035826D01*
X83062197Y-72032316D01*
X83038993Y-72026504D01*
X83016471Y-72018446D01*
X82994847Y-72008218D01*
X82974330Y-71995921D01*
X82955117Y-71981671D01*
X82937393Y-71965607D01*
X82921329Y-71947883D01*
X82907079Y-71928670D01*
X82894782Y-71908153D01*
X82884554Y-71886529D01*
X82876496Y-71864007D01*
X82870684Y-71840803D01*
X82867174Y-71817142D01*
X82866000Y-71793250D01*
X82866000Y-71305750D01*
X82867174Y-71281858D01*
X82870684Y-71258197D01*
X82876496Y-71234993D01*
X82884554Y-71212471D01*
X82894782Y-71190847D01*
X82907079Y-71170330D01*
X82921329Y-71151117D01*
X82937393Y-71133393D01*
X82955117Y-71117329D01*
X82974330Y-71103079D01*
X82994847Y-71090782D01*
X83016471Y-71080554D01*
X83038993Y-71072496D01*
X83062197Y-71066684D01*
X83085858Y-71063174D01*
X83109750Y-71062000D01*
X84022250Y-71062000D01*
X84046142Y-71063174D01*
X84046142Y-71063174D01*
G37*
D21*
X83566000Y-71549500D03*
D20*
G36*
X82014142Y-91891174D02*
G01*
X82037803Y-91894684D01*
X82061007Y-91900496D01*
X82083529Y-91908554D01*
X82105153Y-91918782D01*
X82125670Y-91931079D01*
X82144883Y-91945329D01*
X82162607Y-91961393D01*
X82178671Y-91979117D01*
X82192921Y-91998330D01*
X82205218Y-92018847D01*
X82215446Y-92040471D01*
X82223504Y-92062993D01*
X82229316Y-92086197D01*
X82232826Y-92109858D01*
X82234000Y-92133750D01*
X82234000Y-92621250D01*
X82232826Y-92645142D01*
X82229316Y-92668803D01*
X82223504Y-92692007D01*
X82215446Y-92714529D01*
X82205218Y-92736153D01*
X82192921Y-92756670D01*
X82178671Y-92775883D01*
X82162607Y-92793607D01*
X82144883Y-92809671D01*
X82125670Y-92823921D01*
X82105153Y-92836218D01*
X82083529Y-92846446D01*
X82061007Y-92854504D01*
X82037803Y-92860316D01*
X82014142Y-92863826D01*
X81990250Y-92865000D01*
X81077750Y-92865000D01*
X81053858Y-92863826D01*
X81030197Y-92860316D01*
X81006993Y-92854504D01*
X80984471Y-92846446D01*
X80962847Y-92836218D01*
X80942330Y-92823921D01*
X80923117Y-92809671D01*
X80905393Y-92793607D01*
X80889329Y-92775883D01*
X80875079Y-92756670D01*
X80862782Y-92736153D01*
X80852554Y-92714529D01*
X80844496Y-92692007D01*
X80838684Y-92668803D01*
X80835174Y-92645142D01*
X80834000Y-92621250D01*
X80834000Y-92133750D01*
X80835174Y-92109858D01*
X80838684Y-92086197D01*
X80844496Y-92062993D01*
X80852554Y-92040471D01*
X80862782Y-92018847D01*
X80875079Y-91998330D01*
X80889329Y-91979117D01*
X80905393Y-91961393D01*
X80923117Y-91945329D01*
X80942330Y-91931079D01*
X80962847Y-91918782D01*
X80984471Y-91908554D01*
X81006993Y-91900496D01*
X81030197Y-91894684D01*
X81053858Y-91891174D01*
X81077750Y-91890000D01*
X81990250Y-91890000D01*
X82014142Y-91891174D01*
X82014142Y-91891174D01*
G37*
D21*
X81534000Y-92377500D03*
D20*
G36*
X82014142Y-90016174D02*
G01*
X82037803Y-90019684D01*
X82061007Y-90025496D01*
X82083529Y-90033554D01*
X82105153Y-90043782D01*
X82125670Y-90056079D01*
X82144883Y-90070329D01*
X82162607Y-90086393D01*
X82178671Y-90104117D01*
X82192921Y-90123330D01*
X82205218Y-90143847D01*
X82215446Y-90165471D01*
X82223504Y-90187993D01*
X82229316Y-90211197D01*
X82232826Y-90234858D01*
X82234000Y-90258750D01*
X82234000Y-90746250D01*
X82232826Y-90770142D01*
X82229316Y-90793803D01*
X82223504Y-90817007D01*
X82215446Y-90839529D01*
X82205218Y-90861153D01*
X82192921Y-90881670D01*
X82178671Y-90900883D01*
X82162607Y-90918607D01*
X82144883Y-90934671D01*
X82125670Y-90948921D01*
X82105153Y-90961218D01*
X82083529Y-90971446D01*
X82061007Y-90979504D01*
X82037803Y-90985316D01*
X82014142Y-90988826D01*
X81990250Y-90990000D01*
X81077750Y-90990000D01*
X81053858Y-90988826D01*
X81030197Y-90985316D01*
X81006993Y-90979504D01*
X80984471Y-90971446D01*
X80962847Y-90961218D01*
X80942330Y-90948921D01*
X80923117Y-90934671D01*
X80905393Y-90918607D01*
X80889329Y-90900883D01*
X80875079Y-90881670D01*
X80862782Y-90861153D01*
X80852554Y-90839529D01*
X80844496Y-90817007D01*
X80838684Y-90793803D01*
X80835174Y-90770142D01*
X80834000Y-90746250D01*
X80834000Y-90258750D01*
X80835174Y-90234858D01*
X80838684Y-90211197D01*
X80844496Y-90187993D01*
X80852554Y-90165471D01*
X80862782Y-90143847D01*
X80875079Y-90123330D01*
X80889329Y-90104117D01*
X80905393Y-90086393D01*
X80923117Y-90070329D01*
X80942330Y-90056079D01*
X80962847Y-90043782D01*
X80984471Y-90033554D01*
X81006993Y-90025496D01*
X81030197Y-90019684D01*
X81053858Y-90016174D01*
X81077750Y-90015000D01*
X81990250Y-90015000D01*
X82014142Y-90016174D01*
X82014142Y-90016174D01*
G37*
D21*
X81534000Y-90502500D03*
D20*
G36*
X84046142Y-90016174D02*
G01*
X84069803Y-90019684D01*
X84093007Y-90025496D01*
X84115529Y-90033554D01*
X84137153Y-90043782D01*
X84157670Y-90056079D01*
X84176883Y-90070329D01*
X84194607Y-90086393D01*
X84210671Y-90104117D01*
X84224921Y-90123330D01*
X84237218Y-90143847D01*
X84247446Y-90165471D01*
X84255504Y-90187993D01*
X84261316Y-90211197D01*
X84264826Y-90234858D01*
X84266000Y-90258750D01*
X84266000Y-90746250D01*
X84264826Y-90770142D01*
X84261316Y-90793803D01*
X84255504Y-90817007D01*
X84247446Y-90839529D01*
X84237218Y-90861153D01*
X84224921Y-90881670D01*
X84210671Y-90900883D01*
X84194607Y-90918607D01*
X84176883Y-90934671D01*
X84157670Y-90948921D01*
X84137153Y-90961218D01*
X84115529Y-90971446D01*
X84093007Y-90979504D01*
X84069803Y-90985316D01*
X84046142Y-90988826D01*
X84022250Y-90990000D01*
X83109750Y-90990000D01*
X83085858Y-90988826D01*
X83062197Y-90985316D01*
X83038993Y-90979504D01*
X83016471Y-90971446D01*
X82994847Y-90961218D01*
X82974330Y-90948921D01*
X82955117Y-90934671D01*
X82937393Y-90918607D01*
X82921329Y-90900883D01*
X82907079Y-90881670D01*
X82894782Y-90861153D01*
X82884554Y-90839529D01*
X82876496Y-90817007D01*
X82870684Y-90793803D01*
X82867174Y-90770142D01*
X82866000Y-90746250D01*
X82866000Y-90258750D01*
X82867174Y-90234858D01*
X82870684Y-90211197D01*
X82876496Y-90187993D01*
X82884554Y-90165471D01*
X82894782Y-90143847D01*
X82907079Y-90123330D01*
X82921329Y-90104117D01*
X82937393Y-90086393D01*
X82955117Y-90070329D01*
X82974330Y-90056079D01*
X82994847Y-90043782D01*
X83016471Y-90033554D01*
X83038993Y-90025496D01*
X83062197Y-90019684D01*
X83085858Y-90016174D01*
X83109750Y-90015000D01*
X84022250Y-90015000D01*
X84046142Y-90016174D01*
X84046142Y-90016174D01*
G37*
D21*
X83566000Y-90502500D03*
D20*
G36*
X84046142Y-91891174D02*
G01*
X84069803Y-91894684D01*
X84093007Y-91900496D01*
X84115529Y-91908554D01*
X84137153Y-91918782D01*
X84157670Y-91931079D01*
X84176883Y-91945329D01*
X84194607Y-91961393D01*
X84210671Y-91979117D01*
X84224921Y-91998330D01*
X84237218Y-92018847D01*
X84247446Y-92040471D01*
X84255504Y-92062993D01*
X84261316Y-92086197D01*
X84264826Y-92109858D01*
X84266000Y-92133750D01*
X84266000Y-92621250D01*
X84264826Y-92645142D01*
X84261316Y-92668803D01*
X84255504Y-92692007D01*
X84247446Y-92714529D01*
X84237218Y-92736153D01*
X84224921Y-92756670D01*
X84210671Y-92775883D01*
X84194607Y-92793607D01*
X84176883Y-92809671D01*
X84157670Y-92823921D01*
X84137153Y-92836218D01*
X84115529Y-92846446D01*
X84093007Y-92854504D01*
X84069803Y-92860316D01*
X84046142Y-92863826D01*
X84022250Y-92865000D01*
X83109750Y-92865000D01*
X83085858Y-92863826D01*
X83062197Y-92860316D01*
X83038993Y-92854504D01*
X83016471Y-92846446D01*
X82994847Y-92836218D01*
X82974330Y-92823921D01*
X82955117Y-92809671D01*
X82937393Y-92793607D01*
X82921329Y-92775883D01*
X82907079Y-92756670D01*
X82894782Y-92736153D01*
X82884554Y-92714529D01*
X82876496Y-92692007D01*
X82870684Y-92668803D01*
X82867174Y-92645142D01*
X82866000Y-92621250D01*
X82866000Y-92133750D01*
X82867174Y-92109858D01*
X82870684Y-92086197D01*
X82876496Y-92062993D01*
X82884554Y-92040471D01*
X82894782Y-92018847D01*
X82907079Y-91998330D01*
X82921329Y-91979117D01*
X82937393Y-91961393D01*
X82955117Y-91945329D01*
X82974330Y-91931079D01*
X82994847Y-91918782D01*
X83016471Y-91908554D01*
X83038993Y-91900496D01*
X83062197Y-91894684D01*
X83085858Y-91891174D01*
X83109750Y-91890000D01*
X84022250Y-91890000D01*
X84046142Y-91891174D01*
X84046142Y-91891174D01*
G37*
D21*
X83566000Y-92377500D03*
D20*
G36*
X82014142Y-113481174D02*
G01*
X82037803Y-113484684D01*
X82061007Y-113490496D01*
X82083529Y-113498554D01*
X82105153Y-113508782D01*
X82125670Y-113521079D01*
X82144883Y-113535329D01*
X82162607Y-113551393D01*
X82178671Y-113569117D01*
X82192921Y-113588330D01*
X82205218Y-113608847D01*
X82215446Y-113630471D01*
X82223504Y-113652993D01*
X82229316Y-113676197D01*
X82232826Y-113699858D01*
X82234000Y-113723750D01*
X82234000Y-114211250D01*
X82232826Y-114235142D01*
X82229316Y-114258803D01*
X82223504Y-114282007D01*
X82215446Y-114304529D01*
X82205218Y-114326153D01*
X82192921Y-114346670D01*
X82178671Y-114365883D01*
X82162607Y-114383607D01*
X82144883Y-114399671D01*
X82125670Y-114413921D01*
X82105153Y-114426218D01*
X82083529Y-114436446D01*
X82061007Y-114444504D01*
X82037803Y-114450316D01*
X82014142Y-114453826D01*
X81990250Y-114455000D01*
X81077750Y-114455000D01*
X81053858Y-114453826D01*
X81030197Y-114450316D01*
X81006993Y-114444504D01*
X80984471Y-114436446D01*
X80962847Y-114426218D01*
X80942330Y-114413921D01*
X80923117Y-114399671D01*
X80905393Y-114383607D01*
X80889329Y-114365883D01*
X80875079Y-114346670D01*
X80862782Y-114326153D01*
X80852554Y-114304529D01*
X80844496Y-114282007D01*
X80838684Y-114258803D01*
X80835174Y-114235142D01*
X80834000Y-114211250D01*
X80834000Y-113723750D01*
X80835174Y-113699858D01*
X80838684Y-113676197D01*
X80844496Y-113652993D01*
X80852554Y-113630471D01*
X80862782Y-113608847D01*
X80875079Y-113588330D01*
X80889329Y-113569117D01*
X80905393Y-113551393D01*
X80923117Y-113535329D01*
X80942330Y-113521079D01*
X80962847Y-113508782D01*
X80984471Y-113498554D01*
X81006993Y-113490496D01*
X81030197Y-113484684D01*
X81053858Y-113481174D01*
X81077750Y-113480000D01*
X81990250Y-113480000D01*
X82014142Y-113481174D01*
X82014142Y-113481174D01*
G37*
D21*
X81534000Y-113967500D03*
D20*
G36*
X82014142Y-111606174D02*
G01*
X82037803Y-111609684D01*
X82061007Y-111615496D01*
X82083529Y-111623554D01*
X82105153Y-111633782D01*
X82125670Y-111646079D01*
X82144883Y-111660329D01*
X82162607Y-111676393D01*
X82178671Y-111694117D01*
X82192921Y-111713330D01*
X82205218Y-111733847D01*
X82215446Y-111755471D01*
X82223504Y-111777993D01*
X82229316Y-111801197D01*
X82232826Y-111824858D01*
X82234000Y-111848750D01*
X82234000Y-112336250D01*
X82232826Y-112360142D01*
X82229316Y-112383803D01*
X82223504Y-112407007D01*
X82215446Y-112429529D01*
X82205218Y-112451153D01*
X82192921Y-112471670D01*
X82178671Y-112490883D01*
X82162607Y-112508607D01*
X82144883Y-112524671D01*
X82125670Y-112538921D01*
X82105153Y-112551218D01*
X82083529Y-112561446D01*
X82061007Y-112569504D01*
X82037803Y-112575316D01*
X82014142Y-112578826D01*
X81990250Y-112580000D01*
X81077750Y-112580000D01*
X81053858Y-112578826D01*
X81030197Y-112575316D01*
X81006993Y-112569504D01*
X80984471Y-112561446D01*
X80962847Y-112551218D01*
X80942330Y-112538921D01*
X80923117Y-112524671D01*
X80905393Y-112508607D01*
X80889329Y-112490883D01*
X80875079Y-112471670D01*
X80862782Y-112451153D01*
X80852554Y-112429529D01*
X80844496Y-112407007D01*
X80838684Y-112383803D01*
X80835174Y-112360142D01*
X80834000Y-112336250D01*
X80834000Y-111848750D01*
X80835174Y-111824858D01*
X80838684Y-111801197D01*
X80844496Y-111777993D01*
X80852554Y-111755471D01*
X80862782Y-111733847D01*
X80875079Y-111713330D01*
X80889329Y-111694117D01*
X80905393Y-111676393D01*
X80923117Y-111660329D01*
X80942330Y-111646079D01*
X80962847Y-111633782D01*
X80984471Y-111623554D01*
X81006993Y-111615496D01*
X81030197Y-111609684D01*
X81053858Y-111606174D01*
X81077750Y-111605000D01*
X81990250Y-111605000D01*
X82014142Y-111606174D01*
X82014142Y-111606174D01*
G37*
D21*
X81534000Y-112092500D03*
D20*
G36*
X84046142Y-111606174D02*
G01*
X84069803Y-111609684D01*
X84093007Y-111615496D01*
X84115529Y-111623554D01*
X84137153Y-111633782D01*
X84157670Y-111646079D01*
X84176883Y-111660329D01*
X84194607Y-111676393D01*
X84210671Y-111694117D01*
X84224921Y-111713330D01*
X84237218Y-111733847D01*
X84247446Y-111755471D01*
X84255504Y-111777993D01*
X84261316Y-111801197D01*
X84264826Y-111824858D01*
X84266000Y-111848750D01*
X84266000Y-112336250D01*
X84264826Y-112360142D01*
X84261316Y-112383803D01*
X84255504Y-112407007D01*
X84247446Y-112429529D01*
X84237218Y-112451153D01*
X84224921Y-112471670D01*
X84210671Y-112490883D01*
X84194607Y-112508607D01*
X84176883Y-112524671D01*
X84157670Y-112538921D01*
X84137153Y-112551218D01*
X84115529Y-112561446D01*
X84093007Y-112569504D01*
X84069803Y-112575316D01*
X84046142Y-112578826D01*
X84022250Y-112580000D01*
X83109750Y-112580000D01*
X83085858Y-112578826D01*
X83062197Y-112575316D01*
X83038993Y-112569504D01*
X83016471Y-112561446D01*
X82994847Y-112551218D01*
X82974330Y-112538921D01*
X82955117Y-112524671D01*
X82937393Y-112508607D01*
X82921329Y-112490883D01*
X82907079Y-112471670D01*
X82894782Y-112451153D01*
X82884554Y-112429529D01*
X82876496Y-112407007D01*
X82870684Y-112383803D01*
X82867174Y-112360142D01*
X82866000Y-112336250D01*
X82866000Y-111848750D01*
X82867174Y-111824858D01*
X82870684Y-111801197D01*
X82876496Y-111777993D01*
X82884554Y-111755471D01*
X82894782Y-111733847D01*
X82907079Y-111713330D01*
X82921329Y-111694117D01*
X82937393Y-111676393D01*
X82955117Y-111660329D01*
X82974330Y-111646079D01*
X82994847Y-111633782D01*
X83016471Y-111623554D01*
X83038993Y-111615496D01*
X83062197Y-111609684D01*
X83085858Y-111606174D01*
X83109750Y-111605000D01*
X84022250Y-111605000D01*
X84046142Y-111606174D01*
X84046142Y-111606174D01*
G37*
D21*
X83566000Y-112092500D03*
D20*
G36*
X84046142Y-113481174D02*
G01*
X84069803Y-113484684D01*
X84093007Y-113490496D01*
X84115529Y-113498554D01*
X84137153Y-113508782D01*
X84157670Y-113521079D01*
X84176883Y-113535329D01*
X84194607Y-113551393D01*
X84210671Y-113569117D01*
X84224921Y-113588330D01*
X84237218Y-113608847D01*
X84247446Y-113630471D01*
X84255504Y-113652993D01*
X84261316Y-113676197D01*
X84264826Y-113699858D01*
X84266000Y-113723750D01*
X84266000Y-114211250D01*
X84264826Y-114235142D01*
X84261316Y-114258803D01*
X84255504Y-114282007D01*
X84247446Y-114304529D01*
X84237218Y-114326153D01*
X84224921Y-114346670D01*
X84210671Y-114365883D01*
X84194607Y-114383607D01*
X84176883Y-114399671D01*
X84157670Y-114413921D01*
X84137153Y-114426218D01*
X84115529Y-114436446D01*
X84093007Y-114444504D01*
X84069803Y-114450316D01*
X84046142Y-114453826D01*
X84022250Y-114455000D01*
X83109750Y-114455000D01*
X83085858Y-114453826D01*
X83062197Y-114450316D01*
X83038993Y-114444504D01*
X83016471Y-114436446D01*
X82994847Y-114426218D01*
X82974330Y-114413921D01*
X82955117Y-114399671D01*
X82937393Y-114383607D01*
X82921329Y-114365883D01*
X82907079Y-114346670D01*
X82894782Y-114326153D01*
X82884554Y-114304529D01*
X82876496Y-114282007D01*
X82870684Y-114258803D01*
X82867174Y-114235142D01*
X82866000Y-114211250D01*
X82866000Y-113723750D01*
X82867174Y-113699858D01*
X82870684Y-113676197D01*
X82876496Y-113652993D01*
X82884554Y-113630471D01*
X82894782Y-113608847D01*
X82907079Y-113588330D01*
X82921329Y-113569117D01*
X82937393Y-113551393D01*
X82955117Y-113535329D01*
X82974330Y-113521079D01*
X82994847Y-113508782D01*
X83016471Y-113498554D01*
X83038993Y-113490496D01*
X83062197Y-113484684D01*
X83085858Y-113481174D01*
X83109750Y-113480000D01*
X84022250Y-113480000D01*
X84046142Y-113481174D01*
X84046142Y-113481174D01*
G37*
D21*
X83566000Y-113967500D03*
D20*
G36*
X82014142Y-135071174D02*
G01*
X82037803Y-135074684D01*
X82061007Y-135080496D01*
X82083529Y-135088554D01*
X82105153Y-135098782D01*
X82125670Y-135111079D01*
X82144883Y-135125329D01*
X82162607Y-135141393D01*
X82178671Y-135159117D01*
X82192921Y-135178330D01*
X82205218Y-135198847D01*
X82215446Y-135220471D01*
X82223504Y-135242993D01*
X82229316Y-135266197D01*
X82232826Y-135289858D01*
X82234000Y-135313750D01*
X82234000Y-135801250D01*
X82232826Y-135825142D01*
X82229316Y-135848803D01*
X82223504Y-135872007D01*
X82215446Y-135894529D01*
X82205218Y-135916153D01*
X82192921Y-135936670D01*
X82178671Y-135955883D01*
X82162607Y-135973607D01*
X82144883Y-135989671D01*
X82125670Y-136003921D01*
X82105153Y-136016218D01*
X82083529Y-136026446D01*
X82061007Y-136034504D01*
X82037803Y-136040316D01*
X82014142Y-136043826D01*
X81990250Y-136045000D01*
X81077750Y-136045000D01*
X81053858Y-136043826D01*
X81030197Y-136040316D01*
X81006993Y-136034504D01*
X80984471Y-136026446D01*
X80962847Y-136016218D01*
X80942330Y-136003921D01*
X80923117Y-135989671D01*
X80905393Y-135973607D01*
X80889329Y-135955883D01*
X80875079Y-135936670D01*
X80862782Y-135916153D01*
X80852554Y-135894529D01*
X80844496Y-135872007D01*
X80838684Y-135848803D01*
X80835174Y-135825142D01*
X80834000Y-135801250D01*
X80834000Y-135313750D01*
X80835174Y-135289858D01*
X80838684Y-135266197D01*
X80844496Y-135242993D01*
X80852554Y-135220471D01*
X80862782Y-135198847D01*
X80875079Y-135178330D01*
X80889329Y-135159117D01*
X80905393Y-135141393D01*
X80923117Y-135125329D01*
X80942330Y-135111079D01*
X80962847Y-135098782D01*
X80984471Y-135088554D01*
X81006993Y-135080496D01*
X81030197Y-135074684D01*
X81053858Y-135071174D01*
X81077750Y-135070000D01*
X81990250Y-135070000D01*
X82014142Y-135071174D01*
X82014142Y-135071174D01*
G37*
D21*
X81534000Y-135557500D03*
D20*
G36*
X82014142Y-133196174D02*
G01*
X82037803Y-133199684D01*
X82061007Y-133205496D01*
X82083529Y-133213554D01*
X82105153Y-133223782D01*
X82125670Y-133236079D01*
X82144883Y-133250329D01*
X82162607Y-133266393D01*
X82178671Y-133284117D01*
X82192921Y-133303330D01*
X82205218Y-133323847D01*
X82215446Y-133345471D01*
X82223504Y-133367993D01*
X82229316Y-133391197D01*
X82232826Y-133414858D01*
X82234000Y-133438750D01*
X82234000Y-133926250D01*
X82232826Y-133950142D01*
X82229316Y-133973803D01*
X82223504Y-133997007D01*
X82215446Y-134019529D01*
X82205218Y-134041153D01*
X82192921Y-134061670D01*
X82178671Y-134080883D01*
X82162607Y-134098607D01*
X82144883Y-134114671D01*
X82125670Y-134128921D01*
X82105153Y-134141218D01*
X82083529Y-134151446D01*
X82061007Y-134159504D01*
X82037803Y-134165316D01*
X82014142Y-134168826D01*
X81990250Y-134170000D01*
X81077750Y-134170000D01*
X81053858Y-134168826D01*
X81030197Y-134165316D01*
X81006993Y-134159504D01*
X80984471Y-134151446D01*
X80962847Y-134141218D01*
X80942330Y-134128921D01*
X80923117Y-134114671D01*
X80905393Y-134098607D01*
X80889329Y-134080883D01*
X80875079Y-134061670D01*
X80862782Y-134041153D01*
X80852554Y-134019529D01*
X80844496Y-133997007D01*
X80838684Y-133973803D01*
X80835174Y-133950142D01*
X80834000Y-133926250D01*
X80834000Y-133438750D01*
X80835174Y-133414858D01*
X80838684Y-133391197D01*
X80844496Y-133367993D01*
X80852554Y-133345471D01*
X80862782Y-133323847D01*
X80875079Y-133303330D01*
X80889329Y-133284117D01*
X80905393Y-133266393D01*
X80923117Y-133250329D01*
X80942330Y-133236079D01*
X80962847Y-133223782D01*
X80984471Y-133213554D01*
X81006993Y-133205496D01*
X81030197Y-133199684D01*
X81053858Y-133196174D01*
X81077750Y-133195000D01*
X81990250Y-133195000D01*
X82014142Y-133196174D01*
X82014142Y-133196174D01*
G37*
D21*
X81534000Y-133682500D03*
D20*
G36*
X84046142Y-133196174D02*
G01*
X84069803Y-133199684D01*
X84093007Y-133205496D01*
X84115529Y-133213554D01*
X84137153Y-133223782D01*
X84157670Y-133236079D01*
X84176883Y-133250329D01*
X84194607Y-133266393D01*
X84210671Y-133284117D01*
X84224921Y-133303330D01*
X84237218Y-133323847D01*
X84247446Y-133345471D01*
X84255504Y-133367993D01*
X84261316Y-133391197D01*
X84264826Y-133414858D01*
X84266000Y-133438750D01*
X84266000Y-133926250D01*
X84264826Y-133950142D01*
X84261316Y-133973803D01*
X84255504Y-133997007D01*
X84247446Y-134019529D01*
X84237218Y-134041153D01*
X84224921Y-134061670D01*
X84210671Y-134080883D01*
X84194607Y-134098607D01*
X84176883Y-134114671D01*
X84157670Y-134128921D01*
X84137153Y-134141218D01*
X84115529Y-134151446D01*
X84093007Y-134159504D01*
X84069803Y-134165316D01*
X84046142Y-134168826D01*
X84022250Y-134170000D01*
X83109750Y-134170000D01*
X83085858Y-134168826D01*
X83062197Y-134165316D01*
X83038993Y-134159504D01*
X83016471Y-134151446D01*
X82994847Y-134141218D01*
X82974330Y-134128921D01*
X82955117Y-134114671D01*
X82937393Y-134098607D01*
X82921329Y-134080883D01*
X82907079Y-134061670D01*
X82894782Y-134041153D01*
X82884554Y-134019529D01*
X82876496Y-133997007D01*
X82870684Y-133973803D01*
X82867174Y-133950142D01*
X82866000Y-133926250D01*
X82866000Y-133438750D01*
X82867174Y-133414858D01*
X82870684Y-133391197D01*
X82876496Y-133367993D01*
X82884554Y-133345471D01*
X82894782Y-133323847D01*
X82907079Y-133303330D01*
X82921329Y-133284117D01*
X82937393Y-133266393D01*
X82955117Y-133250329D01*
X82974330Y-133236079D01*
X82994847Y-133223782D01*
X83016471Y-133213554D01*
X83038993Y-133205496D01*
X83062197Y-133199684D01*
X83085858Y-133196174D01*
X83109750Y-133195000D01*
X84022250Y-133195000D01*
X84046142Y-133196174D01*
X84046142Y-133196174D01*
G37*
D21*
X83566000Y-133682500D03*
D20*
G36*
X84046142Y-135071174D02*
G01*
X84069803Y-135074684D01*
X84093007Y-135080496D01*
X84115529Y-135088554D01*
X84137153Y-135098782D01*
X84157670Y-135111079D01*
X84176883Y-135125329D01*
X84194607Y-135141393D01*
X84210671Y-135159117D01*
X84224921Y-135178330D01*
X84237218Y-135198847D01*
X84247446Y-135220471D01*
X84255504Y-135242993D01*
X84261316Y-135266197D01*
X84264826Y-135289858D01*
X84266000Y-135313750D01*
X84266000Y-135801250D01*
X84264826Y-135825142D01*
X84261316Y-135848803D01*
X84255504Y-135872007D01*
X84247446Y-135894529D01*
X84237218Y-135916153D01*
X84224921Y-135936670D01*
X84210671Y-135955883D01*
X84194607Y-135973607D01*
X84176883Y-135989671D01*
X84157670Y-136003921D01*
X84137153Y-136016218D01*
X84115529Y-136026446D01*
X84093007Y-136034504D01*
X84069803Y-136040316D01*
X84046142Y-136043826D01*
X84022250Y-136045000D01*
X83109750Y-136045000D01*
X83085858Y-136043826D01*
X83062197Y-136040316D01*
X83038993Y-136034504D01*
X83016471Y-136026446D01*
X82994847Y-136016218D01*
X82974330Y-136003921D01*
X82955117Y-135989671D01*
X82937393Y-135973607D01*
X82921329Y-135955883D01*
X82907079Y-135936670D01*
X82894782Y-135916153D01*
X82884554Y-135894529D01*
X82876496Y-135872007D01*
X82870684Y-135848803D01*
X82867174Y-135825142D01*
X82866000Y-135801250D01*
X82866000Y-135313750D01*
X82867174Y-135289858D01*
X82870684Y-135266197D01*
X82876496Y-135242993D01*
X82884554Y-135220471D01*
X82894782Y-135198847D01*
X82907079Y-135178330D01*
X82921329Y-135159117D01*
X82937393Y-135141393D01*
X82955117Y-135125329D01*
X82974330Y-135111079D01*
X82994847Y-135098782D01*
X83016471Y-135088554D01*
X83038993Y-135080496D01*
X83062197Y-135074684D01*
X83085858Y-135071174D01*
X83109750Y-135070000D01*
X84022250Y-135070000D01*
X84046142Y-135071174D01*
X84046142Y-135071174D01*
G37*
D21*
X83566000Y-135557500D03*
D20*
G36*
X77659142Y-97345174D02*
G01*
X77682803Y-97348684D01*
X77706007Y-97354496D01*
X77728529Y-97362554D01*
X77750153Y-97372782D01*
X77770670Y-97385079D01*
X77789883Y-97399329D01*
X77807607Y-97415393D01*
X77823671Y-97433117D01*
X77837921Y-97452330D01*
X77850218Y-97472847D01*
X77860446Y-97494471D01*
X77868504Y-97516993D01*
X77874316Y-97540197D01*
X77877826Y-97563858D01*
X77879000Y-97587750D01*
X77879000Y-98500250D01*
X77877826Y-98524142D01*
X77874316Y-98547803D01*
X77868504Y-98571007D01*
X77860446Y-98593529D01*
X77850218Y-98615153D01*
X77837921Y-98635670D01*
X77823671Y-98654883D01*
X77807607Y-98672607D01*
X77789883Y-98688671D01*
X77770670Y-98702921D01*
X77750153Y-98715218D01*
X77728529Y-98725446D01*
X77706007Y-98733504D01*
X77682803Y-98739316D01*
X77659142Y-98742826D01*
X77635250Y-98744000D01*
X77147750Y-98744000D01*
X77123858Y-98742826D01*
X77100197Y-98739316D01*
X77076993Y-98733504D01*
X77054471Y-98725446D01*
X77032847Y-98715218D01*
X77012330Y-98702921D01*
X76993117Y-98688671D01*
X76975393Y-98672607D01*
X76959329Y-98654883D01*
X76945079Y-98635670D01*
X76932782Y-98615153D01*
X76922554Y-98593529D01*
X76914496Y-98571007D01*
X76908684Y-98547803D01*
X76905174Y-98524142D01*
X76904000Y-98500250D01*
X76904000Y-97587750D01*
X76905174Y-97563858D01*
X76908684Y-97540197D01*
X76914496Y-97516993D01*
X76922554Y-97494471D01*
X76932782Y-97472847D01*
X76945079Y-97452330D01*
X76959329Y-97433117D01*
X76975393Y-97415393D01*
X76993117Y-97399329D01*
X77012330Y-97385079D01*
X77032847Y-97372782D01*
X77054471Y-97362554D01*
X77076993Y-97354496D01*
X77100197Y-97348684D01*
X77123858Y-97345174D01*
X77147750Y-97344000D01*
X77635250Y-97344000D01*
X77659142Y-97345174D01*
X77659142Y-97345174D01*
G37*
D21*
X77391500Y-98044000D03*
D20*
G36*
X75784142Y-97345174D02*
G01*
X75807803Y-97348684D01*
X75831007Y-97354496D01*
X75853529Y-97362554D01*
X75875153Y-97372782D01*
X75895670Y-97385079D01*
X75914883Y-97399329D01*
X75932607Y-97415393D01*
X75948671Y-97433117D01*
X75962921Y-97452330D01*
X75975218Y-97472847D01*
X75985446Y-97494471D01*
X75993504Y-97516993D01*
X75999316Y-97540197D01*
X76002826Y-97563858D01*
X76004000Y-97587750D01*
X76004000Y-98500250D01*
X76002826Y-98524142D01*
X75999316Y-98547803D01*
X75993504Y-98571007D01*
X75985446Y-98593529D01*
X75975218Y-98615153D01*
X75962921Y-98635670D01*
X75948671Y-98654883D01*
X75932607Y-98672607D01*
X75914883Y-98688671D01*
X75895670Y-98702921D01*
X75875153Y-98715218D01*
X75853529Y-98725446D01*
X75831007Y-98733504D01*
X75807803Y-98739316D01*
X75784142Y-98742826D01*
X75760250Y-98744000D01*
X75272750Y-98744000D01*
X75248858Y-98742826D01*
X75225197Y-98739316D01*
X75201993Y-98733504D01*
X75179471Y-98725446D01*
X75157847Y-98715218D01*
X75137330Y-98702921D01*
X75118117Y-98688671D01*
X75100393Y-98672607D01*
X75084329Y-98654883D01*
X75070079Y-98635670D01*
X75057782Y-98615153D01*
X75047554Y-98593529D01*
X75039496Y-98571007D01*
X75033684Y-98547803D01*
X75030174Y-98524142D01*
X75029000Y-98500250D01*
X75029000Y-97587750D01*
X75030174Y-97563858D01*
X75033684Y-97540197D01*
X75039496Y-97516993D01*
X75047554Y-97494471D01*
X75057782Y-97472847D01*
X75070079Y-97452330D01*
X75084329Y-97433117D01*
X75100393Y-97415393D01*
X75118117Y-97399329D01*
X75137330Y-97385079D01*
X75157847Y-97372782D01*
X75179471Y-97362554D01*
X75201993Y-97354496D01*
X75225197Y-97348684D01*
X75248858Y-97345174D01*
X75272750Y-97344000D01*
X75760250Y-97344000D01*
X75784142Y-97345174D01*
X75784142Y-97345174D01*
G37*
D21*
X75516500Y-98044000D03*
D20*
G36*
X77405142Y-106997174D02*
G01*
X77428803Y-107000684D01*
X77452007Y-107006496D01*
X77474529Y-107014554D01*
X77496153Y-107024782D01*
X77516670Y-107037079D01*
X77535883Y-107051329D01*
X77553607Y-107067393D01*
X77569671Y-107085117D01*
X77583921Y-107104330D01*
X77596218Y-107124847D01*
X77606446Y-107146471D01*
X77614504Y-107168993D01*
X77620316Y-107192197D01*
X77623826Y-107215858D01*
X77625000Y-107239750D01*
X77625000Y-108152250D01*
X77623826Y-108176142D01*
X77620316Y-108199803D01*
X77614504Y-108223007D01*
X77606446Y-108245529D01*
X77596218Y-108267153D01*
X77583921Y-108287670D01*
X77569671Y-108306883D01*
X77553607Y-108324607D01*
X77535883Y-108340671D01*
X77516670Y-108354921D01*
X77496153Y-108367218D01*
X77474529Y-108377446D01*
X77452007Y-108385504D01*
X77428803Y-108391316D01*
X77405142Y-108394826D01*
X77381250Y-108396000D01*
X76893750Y-108396000D01*
X76869858Y-108394826D01*
X76846197Y-108391316D01*
X76822993Y-108385504D01*
X76800471Y-108377446D01*
X76778847Y-108367218D01*
X76758330Y-108354921D01*
X76739117Y-108340671D01*
X76721393Y-108324607D01*
X76705329Y-108306883D01*
X76691079Y-108287670D01*
X76678782Y-108267153D01*
X76668554Y-108245529D01*
X76660496Y-108223007D01*
X76654684Y-108199803D01*
X76651174Y-108176142D01*
X76650000Y-108152250D01*
X76650000Y-107239750D01*
X76651174Y-107215858D01*
X76654684Y-107192197D01*
X76660496Y-107168993D01*
X76668554Y-107146471D01*
X76678782Y-107124847D01*
X76691079Y-107104330D01*
X76705329Y-107085117D01*
X76721393Y-107067393D01*
X76739117Y-107051329D01*
X76758330Y-107037079D01*
X76778847Y-107024782D01*
X76800471Y-107014554D01*
X76822993Y-107006496D01*
X76846197Y-107000684D01*
X76869858Y-106997174D01*
X76893750Y-106996000D01*
X77381250Y-106996000D01*
X77405142Y-106997174D01*
X77405142Y-106997174D01*
G37*
D21*
X77137500Y-107696000D03*
D20*
G36*
X75530142Y-106997174D02*
G01*
X75553803Y-107000684D01*
X75577007Y-107006496D01*
X75599529Y-107014554D01*
X75621153Y-107024782D01*
X75641670Y-107037079D01*
X75660883Y-107051329D01*
X75678607Y-107067393D01*
X75694671Y-107085117D01*
X75708921Y-107104330D01*
X75721218Y-107124847D01*
X75731446Y-107146471D01*
X75739504Y-107168993D01*
X75745316Y-107192197D01*
X75748826Y-107215858D01*
X75750000Y-107239750D01*
X75750000Y-108152250D01*
X75748826Y-108176142D01*
X75745316Y-108199803D01*
X75739504Y-108223007D01*
X75731446Y-108245529D01*
X75721218Y-108267153D01*
X75708921Y-108287670D01*
X75694671Y-108306883D01*
X75678607Y-108324607D01*
X75660883Y-108340671D01*
X75641670Y-108354921D01*
X75621153Y-108367218D01*
X75599529Y-108377446D01*
X75577007Y-108385504D01*
X75553803Y-108391316D01*
X75530142Y-108394826D01*
X75506250Y-108396000D01*
X75018750Y-108396000D01*
X74994858Y-108394826D01*
X74971197Y-108391316D01*
X74947993Y-108385504D01*
X74925471Y-108377446D01*
X74903847Y-108367218D01*
X74883330Y-108354921D01*
X74864117Y-108340671D01*
X74846393Y-108324607D01*
X74830329Y-108306883D01*
X74816079Y-108287670D01*
X74803782Y-108267153D01*
X74793554Y-108245529D01*
X74785496Y-108223007D01*
X74779684Y-108199803D01*
X74776174Y-108176142D01*
X74775000Y-108152250D01*
X74775000Y-107239750D01*
X74776174Y-107215858D01*
X74779684Y-107192197D01*
X74785496Y-107168993D01*
X74793554Y-107146471D01*
X74803782Y-107124847D01*
X74816079Y-107104330D01*
X74830329Y-107085117D01*
X74846393Y-107067393D01*
X74864117Y-107051329D01*
X74883330Y-107037079D01*
X74903847Y-107024782D01*
X74925471Y-107014554D01*
X74947993Y-107006496D01*
X74971197Y-107000684D01*
X74994858Y-106997174D01*
X75018750Y-106996000D01*
X75506250Y-106996000D01*
X75530142Y-106997174D01*
X75530142Y-106997174D01*
G37*
D21*
X75262500Y-107696000D03*
D20*
G36*
X73632142Y-84936174D02*
G01*
X73655803Y-84939684D01*
X73679007Y-84945496D01*
X73701529Y-84953554D01*
X73723153Y-84963782D01*
X73743670Y-84976079D01*
X73762883Y-84990329D01*
X73780607Y-85006393D01*
X73796671Y-85024117D01*
X73810921Y-85043330D01*
X73823218Y-85063847D01*
X73833446Y-85085471D01*
X73841504Y-85107993D01*
X73847316Y-85131197D01*
X73850826Y-85154858D01*
X73852000Y-85178750D01*
X73852000Y-85666250D01*
X73850826Y-85690142D01*
X73847316Y-85713803D01*
X73841504Y-85737007D01*
X73833446Y-85759529D01*
X73823218Y-85781153D01*
X73810921Y-85801670D01*
X73796671Y-85820883D01*
X73780607Y-85838607D01*
X73762883Y-85854671D01*
X73743670Y-85868921D01*
X73723153Y-85881218D01*
X73701529Y-85891446D01*
X73679007Y-85899504D01*
X73655803Y-85905316D01*
X73632142Y-85908826D01*
X73608250Y-85910000D01*
X72695750Y-85910000D01*
X72671858Y-85908826D01*
X72648197Y-85905316D01*
X72624993Y-85899504D01*
X72602471Y-85891446D01*
X72580847Y-85881218D01*
X72560330Y-85868921D01*
X72541117Y-85854671D01*
X72523393Y-85838607D01*
X72507329Y-85820883D01*
X72493079Y-85801670D01*
X72480782Y-85781153D01*
X72470554Y-85759529D01*
X72462496Y-85737007D01*
X72456684Y-85713803D01*
X72453174Y-85690142D01*
X72452000Y-85666250D01*
X72452000Y-85178750D01*
X72453174Y-85154858D01*
X72456684Y-85131197D01*
X72462496Y-85107993D01*
X72470554Y-85085471D01*
X72480782Y-85063847D01*
X72493079Y-85043330D01*
X72507329Y-85024117D01*
X72523393Y-85006393D01*
X72541117Y-84990329D01*
X72560330Y-84976079D01*
X72580847Y-84963782D01*
X72602471Y-84953554D01*
X72624993Y-84945496D01*
X72648197Y-84939684D01*
X72671858Y-84936174D01*
X72695750Y-84935000D01*
X73608250Y-84935000D01*
X73632142Y-84936174D01*
X73632142Y-84936174D01*
G37*
D21*
X73152000Y-85422500D03*
D20*
G36*
X73632142Y-86811174D02*
G01*
X73655803Y-86814684D01*
X73679007Y-86820496D01*
X73701529Y-86828554D01*
X73723153Y-86838782D01*
X73743670Y-86851079D01*
X73762883Y-86865329D01*
X73780607Y-86881393D01*
X73796671Y-86899117D01*
X73810921Y-86918330D01*
X73823218Y-86938847D01*
X73833446Y-86960471D01*
X73841504Y-86982993D01*
X73847316Y-87006197D01*
X73850826Y-87029858D01*
X73852000Y-87053750D01*
X73852000Y-87541250D01*
X73850826Y-87565142D01*
X73847316Y-87588803D01*
X73841504Y-87612007D01*
X73833446Y-87634529D01*
X73823218Y-87656153D01*
X73810921Y-87676670D01*
X73796671Y-87695883D01*
X73780607Y-87713607D01*
X73762883Y-87729671D01*
X73743670Y-87743921D01*
X73723153Y-87756218D01*
X73701529Y-87766446D01*
X73679007Y-87774504D01*
X73655803Y-87780316D01*
X73632142Y-87783826D01*
X73608250Y-87785000D01*
X72695750Y-87785000D01*
X72671858Y-87783826D01*
X72648197Y-87780316D01*
X72624993Y-87774504D01*
X72602471Y-87766446D01*
X72580847Y-87756218D01*
X72560330Y-87743921D01*
X72541117Y-87729671D01*
X72523393Y-87713607D01*
X72507329Y-87695883D01*
X72493079Y-87676670D01*
X72480782Y-87656153D01*
X72470554Y-87634529D01*
X72462496Y-87612007D01*
X72456684Y-87588803D01*
X72453174Y-87565142D01*
X72452000Y-87541250D01*
X72452000Y-87053750D01*
X72453174Y-87029858D01*
X72456684Y-87006197D01*
X72462496Y-86982993D01*
X72470554Y-86960471D01*
X72480782Y-86938847D01*
X72493079Y-86918330D01*
X72507329Y-86899117D01*
X72523393Y-86881393D01*
X72541117Y-86865329D01*
X72560330Y-86851079D01*
X72580847Y-86838782D01*
X72602471Y-86828554D01*
X72624993Y-86820496D01*
X72648197Y-86814684D01*
X72671858Y-86811174D01*
X72695750Y-86810000D01*
X73608250Y-86810000D01*
X73632142Y-86811174D01*
X73632142Y-86811174D01*
G37*
D21*
X73152000Y-87297500D03*
D20*
G36*
X91506504Y-69313204D02*
G01*
X91530773Y-69316804D01*
X91554571Y-69322765D01*
X91577671Y-69331030D01*
X91599849Y-69341520D01*
X91620893Y-69354133D01*
X91640598Y-69368747D01*
X91658777Y-69385223D01*
X91675253Y-69403402D01*
X91689867Y-69423107D01*
X91702480Y-69444151D01*
X91712970Y-69466329D01*
X91721235Y-69489429D01*
X91727196Y-69513227D01*
X91730796Y-69537496D01*
X91732000Y-69562000D01*
X91732000Y-71662000D01*
X91730796Y-71686504D01*
X91727196Y-71710773D01*
X91721235Y-71734571D01*
X91712970Y-71757671D01*
X91702480Y-71779849D01*
X91689867Y-71800893D01*
X91675253Y-71820598D01*
X91658777Y-71838777D01*
X91640598Y-71855253D01*
X91620893Y-71869867D01*
X91599849Y-71882480D01*
X91577671Y-71892970D01*
X91554571Y-71901235D01*
X91530773Y-71907196D01*
X91506504Y-71910796D01*
X91482000Y-71912000D01*
X90382000Y-71912000D01*
X90357496Y-71910796D01*
X90333227Y-71907196D01*
X90309429Y-71901235D01*
X90286329Y-71892970D01*
X90264151Y-71882480D01*
X90243107Y-71869867D01*
X90223402Y-71855253D01*
X90205223Y-71838777D01*
X90188747Y-71820598D01*
X90174133Y-71800893D01*
X90161520Y-71779849D01*
X90151030Y-71757671D01*
X90142765Y-71734571D01*
X90136804Y-71710773D01*
X90133204Y-71686504D01*
X90132000Y-71662000D01*
X90132000Y-69562000D01*
X90133204Y-69537496D01*
X90136804Y-69513227D01*
X90142765Y-69489429D01*
X90151030Y-69466329D01*
X90161520Y-69444151D01*
X90174133Y-69423107D01*
X90188747Y-69403402D01*
X90205223Y-69385223D01*
X90223402Y-69368747D01*
X90243107Y-69354133D01*
X90264151Y-69341520D01*
X90286329Y-69331030D01*
X90309429Y-69322765D01*
X90333227Y-69316804D01*
X90357496Y-69313204D01*
X90382000Y-69312000D01*
X91482000Y-69312000D01*
X91506504Y-69313204D01*
X91506504Y-69313204D01*
G37*
D22*
X90932000Y-70612000D03*
D20*
G36*
X91506504Y-65713204D02*
G01*
X91530773Y-65716804D01*
X91554571Y-65722765D01*
X91577671Y-65731030D01*
X91599849Y-65741520D01*
X91620893Y-65754133D01*
X91640598Y-65768747D01*
X91658777Y-65785223D01*
X91675253Y-65803402D01*
X91689867Y-65823107D01*
X91702480Y-65844151D01*
X91712970Y-65866329D01*
X91721235Y-65889429D01*
X91727196Y-65913227D01*
X91730796Y-65937496D01*
X91732000Y-65962000D01*
X91732000Y-68062000D01*
X91730796Y-68086504D01*
X91727196Y-68110773D01*
X91721235Y-68134571D01*
X91712970Y-68157671D01*
X91702480Y-68179849D01*
X91689867Y-68200893D01*
X91675253Y-68220598D01*
X91658777Y-68238777D01*
X91640598Y-68255253D01*
X91620893Y-68269867D01*
X91599849Y-68282480D01*
X91577671Y-68292970D01*
X91554571Y-68301235D01*
X91530773Y-68307196D01*
X91506504Y-68310796D01*
X91482000Y-68312000D01*
X90382000Y-68312000D01*
X90357496Y-68310796D01*
X90333227Y-68307196D01*
X90309429Y-68301235D01*
X90286329Y-68292970D01*
X90264151Y-68282480D01*
X90243107Y-68269867D01*
X90223402Y-68255253D01*
X90205223Y-68238777D01*
X90188747Y-68220598D01*
X90174133Y-68200893D01*
X90161520Y-68179849D01*
X90151030Y-68157671D01*
X90142765Y-68134571D01*
X90136804Y-68110773D01*
X90133204Y-68086504D01*
X90132000Y-68062000D01*
X90132000Y-65962000D01*
X90133204Y-65937496D01*
X90136804Y-65913227D01*
X90142765Y-65889429D01*
X90151030Y-65866329D01*
X90161520Y-65844151D01*
X90174133Y-65823107D01*
X90188747Y-65803402D01*
X90205223Y-65785223D01*
X90223402Y-65768747D01*
X90243107Y-65754133D01*
X90264151Y-65741520D01*
X90286329Y-65731030D01*
X90309429Y-65722765D01*
X90333227Y-65716804D01*
X90357496Y-65713204D01*
X90382000Y-65712000D01*
X91482000Y-65712000D01*
X91506504Y-65713204D01*
X91506504Y-65713204D01*
G37*
D22*
X90932000Y-67012000D03*
D20*
G36*
X91506504Y-76171204D02*
G01*
X91530773Y-76174804D01*
X91554571Y-76180765D01*
X91577671Y-76189030D01*
X91599849Y-76199520D01*
X91620893Y-76212133D01*
X91640598Y-76226747D01*
X91658777Y-76243223D01*
X91675253Y-76261402D01*
X91689867Y-76281107D01*
X91702480Y-76302151D01*
X91712970Y-76324329D01*
X91721235Y-76347429D01*
X91727196Y-76371227D01*
X91730796Y-76395496D01*
X91732000Y-76420000D01*
X91732000Y-78520000D01*
X91730796Y-78544504D01*
X91727196Y-78568773D01*
X91721235Y-78592571D01*
X91712970Y-78615671D01*
X91702480Y-78637849D01*
X91689867Y-78658893D01*
X91675253Y-78678598D01*
X91658777Y-78696777D01*
X91640598Y-78713253D01*
X91620893Y-78727867D01*
X91599849Y-78740480D01*
X91577671Y-78750970D01*
X91554571Y-78759235D01*
X91530773Y-78765196D01*
X91506504Y-78768796D01*
X91482000Y-78770000D01*
X90382000Y-78770000D01*
X90357496Y-78768796D01*
X90333227Y-78765196D01*
X90309429Y-78759235D01*
X90286329Y-78750970D01*
X90264151Y-78740480D01*
X90243107Y-78727867D01*
X90223402Y-78713253D01*
X90205223Y-78696777D01*
X90188747Y-78678598D01*
X90174133Y-78658893D01*
X90161520Y-78637849D01*
X90151030Y-78615671D01*
X90142765Y-78592571D01*
X90136804Y-78568773D01*
X90133204Y-78544504D01*
X90132000Y-78520000D01*
X90132000Y-76420000D01*
X90133204Y-76395496D01*
X90136804Y-76371227D01*
X90142765Y-76347429D01*
X90151030Y-76324329D01*
X90161520Y-76302151D01*
X90174133Y-76281107D01*
X90188747Y-76261402D01*
X90205223Y-76243223D01*
X90223402Y-76226747D01*
X90243107Y-76212133D01*
X90264151Y-76199520D01*
X90286329Y-76189030D01*
X90309429Y-76180765D01*
X90333227Y-76174804D01*
X90357496Y-76171204D01*
X90382000Y-76170000D01*
X91482000Y-76170000D01*
X91506504Y-76171204D01*
X91506504Y-76171204D01*
G37*
D22*
X90932000Y-77470000D03*
D20*
G36*
X91506504Y-72571204D02*
G01*
X91530773Y-72574804D01*
X91554571Y-72580765D01*
X91577671Y-72589030D01*
X91599849Y-72599520D01*
X91620893Y-72612133D01*
X91640598Y-72626747D01*
X91658777Y-72643223D01*
X91675253Y-72661402D01*
X91689867Y-72681107D01*
X91702480Y-72702151D01*
X91712970Y-72724329D01*
X91721235Y-72747429D01*
X91727196Y-72771227D01*
X91730796Y-72795496D01*
X91732000Y-72820000D01*
X91732000Y-74920000D01*
X91730796Y-74944504D01*
X91727196Y-74968773D01*
X91721235Y-74992571D01*
X91712970Y-75015671D01*
X91702480Y-75037849D01*
X91689867Y-75058893D01*
X91675253Y-75078598D01*
X91658777Y-75096777D01*
X91640598Y-75113253D01*
X91620893Y-75127867D01*
X91599849Y-75140480D01*
X91577671Y-75150970D01*
X91554571Y-75159235D01*
X91530773Y-75165196D01*
X91506504Y-75168796D01*
X91482000Y-75170000D01*
X90382000Y-75170000D01*
X90357496Y-75168796D01*
X90333227Y-75165196D01*
X90309429Y-75159235D01*
X90286329Y-75150970D01*
X90264151Y-75140480D01*
X90243107Y-75127867D01*
X90223402Y-75113253D01*
X90205223Y-75096777D01*
X90188747Y-75078598D01*
X90174133Y-75058893D01*
X90161520Y-75037849D01*
X90151030Y-75015671D01*
X90142765Y-74992571D01*
X90136804Y-74968773D01*
X90133204Y-74944504D01*
X90132000Y-74920000D01*
X90132000Y-72820000D01*
X90133204Y-72795496D01*
X90136804Y-72771227D01*
X90142765Y-72747429D01*
X90151030Y-72724329D01*
X90161520Y-72702151D01*
X90174133Y-72681107D01*
X90188747Y-72661402D01*
X90205223Y-72643223D01*
X90223402Y-72626747D01*
X90243107Y-72612133D01*
X90264151Y-72599520D01*
X90286329Y-72589030D01*
X90309429Y-72580765D01*
X90333227Y-72574804D01*
X90357496Y-72571204D01*
X90382000Y-72570000D01*
X91482000Y-72570000D01*
X91506504Y-72571204D01*
X91506504Y-72571204D01*
G37*
D22*
X90932000Y-73870000D03*
D20*
G36*
X71133642Y-91757174D02*
G01*
X71157303Y-91760684D01*
X71180507Y-91766496D01*
X71203029Y-91774554D01*
X71224653Y-91784782D01*
X71245170Y-91797079D01*
X71264383Y-91811329D01*
X71282107Y-91827393D01*
X71298171Y-91845117D01*
X71312421Y-91864330D01*
X71324718Y-91884847D01*
X71334946Y-91906471D01*
X71343004Y-91928993D01*
X71348816Y-91952197D01*
X71352326Y-91975858D01*
X71353500Y-91999750D01*
X71353500Y-92912250D01*
X71352326Y-92936142D01*
X71348816Y-92959803D01*
X71343004Y-92983007D01*
X71334946Y-93005529D01*
X71324718Y-93027153D01*
X71312421Y-93047670D01*
X71298171Y-93066883D01*
X71282107Y-93084607D01*
X71264383Y-93100671D01*
X71245170Y-93114921D01*
X71224653Y-93127218D01*
X71203029Y-93137446D01*
X71180507Y-93145504D01*
X71157303Y-93151316D01*
X71133642Y-93154826D01*
X71109750Y-93156000D01*
X70622250Y-93156000D01*
X70598358Y-93154826D01*
X70574697Y-93151316D01*
X70551493Y-93145504D01*
X70528971Y-93137446D01*
X70507347Y-93127218D01*
X70486830Y-93114921D01*
X70467617Y-93100671D01*
X70449893Y-93084607D01*
X70433829Y-93066883D01*
X70419579Y-93047670D01*
X70407282Y-93027153D01*
X70397054Y-93005529D01*
X70388996Y-92983007D01*
X70383184Y-92959803D01*
X70379674Y-92936142D01*
X70378500Y-92912250D01*
X70378500Y-91999750D01*
X70379674Y-91975858D01*
X70383184Y-91952197D01*
X70388996Y-91928993D01*
X70397054Y-91906471D01*
X70407282Y-91884847D01*
X70419579Y-91864330D01*
X70433829Y-91845117D01*
X70449893Y-91827393D01*
X70467617Y-91811329D01*
X70486830Y-91797079D01*
X70507347Y-91784782D01*
X70528971Y-91774554D01*
X70551493Y-91766496D01*
X70574697Y-91760684D01*
X70598358Y-91757174D01*
X70622250Y-91756000D01*
X71109750Y-91756000D01*
X71133642Y-91757174D01*
X71133642Y-91757174D01*
G37*
D21*
X70866000Y-92456000D03*
D20*
G36*
X69258642Y-91757174D02*
G01*
X69282303Y-91760684D01*
X69305507Y-91766496D01*
X69328029Y-91774554D01*
X69349653Y-91784782D01*
X69370170Y-91797079D01*
X69389383Y-91811329D01*
X69407107Y-91827393D01*
X69423171Y-91845117D01*
X69437421Y-91864330D01*
X69449718Y-91884847D01*
X69459946Y-91906471D01*
X69468004Y-91928993D01*
X69473816Y-91952197D01*
X69477326Y-91975858D01*
X69478500Y-91999750D01*
X69478500Y-92912250D01*
X69477326Y-92936142D01*
X69473816Y-92959803D01*
X69468004Y-92983007D01*
X69459946Y-93005529D01*
X69449718Y-93027153D01*
X69437421Y-93047670D01*
X69423171Y-93066883D01*
X69407107Y-93084607D01*
X69389383Y-93100671D01*
X69370170Y-93114921D01*
X69349653Y-93127218D01*
X69328029Y-93137446D01*
X69305507Y-93145504D01*
X69282303Y-93151316D01*
X69258642Y-93154826D01*
X69234750Y-93156000D01*
X68747250Y-93156000D01*
X68723358Y-93154826D01*
X68699697Y-93151316D01*
X68676493Y-93145504D01*
X68653971Y-93137446D01*
X68632347Y-93127218D01*
X68611830Y-93114921D01*
X68592617Y-93100671D01*
X68574893Y-93084607D01*
X68558829Y-93066883D01*
X68544579Y-93047670D01*
X68532282Y-93027153D01*
X68522054Y-93005529D01*
X68513996Y-92983007D01*
X68508184Y-92959803D01*
X68504674Y-92936142D01*
X68503500Y-92912250D01*
X68503500Y-91999750D01*
X68504674Y-91975858D01*
X68508184Y-91952197D01*
X68513996Y-91928993D01*
X68522054Y-91906471D01*
X68532282Y-91884847D01*
X68544579Y-91864330D01*
X68558829Y-91845117D01*
X68574893Y-91827393D01*
X68592617Y-91811329D01*
X68611830Y-91797079D01*
X68632347Y-91784782D01*
X68653971Y-91774554D01*
X68676493Y-91766496D01*
X68699697Y-91760684D01*
X68723358Y-91757174D01*
X68747250Y-91756000D01*
X69234750Y-91756000D01*
X69258642Y-91757174D01*
X69258642Y-91757174D01*
G37*
D21*
X68991000Y-92456000D03*
D20*
G36*
X81469142Y-98869174D02*
G01*
X81492803Y-98872684D01*
X81516007Y-98878496D01*
X81538529Y-98886554D01*
X81560153Y-98896782D01*
X81580670Y-98909079D01*
X81599883Y-98923329D01*
X81617607Y-98939393D01*
X81633671Y-98957117D01*
X81647921Y-98976330D01*
X81660218Y-98996847D01*
X81670446Y-99018471D01*
X81678504Y-99040993D01*
X81684316Y-99064197D01*
X81687826Y-99087858D01*
X81689000Y-99111750D01*
X81689000Y-100024250D01*
X81687826Y-100048142D01*
X81684316Y-100071803D01*
X81678504Y-100095007D01*
X81670446Y-100117529D01*
X81660218Y-100139153D01*
X81647921Y-100159670D01*
X81633671Y-100178883D01*
X81617607Y-100196607D01*
X81599883Y-100212671D01*
X81580670Y-100226921D01*
X81560153Y-100239218D01*
X81538529Y-100249446D01*
X81516007Y-100257504D01*
X81492803Y-100263316D01*
X81469142Y-100266826D01*
X81445250Y-100268000D01*
X80957750Y-100268000D01*
X80933858Y-100266826D01*
X80910197Y-100263316D01*
X80886993Y-100257504D01*
X80864471Y-100249446D01*
X80842847Y-100239218D01*
X80822330Y-100226921D01*
X80803117Y-100212671D01*
X80785393Y-100196607D01*
X80769329Y-100178883D01*
X80755079Y-100159670D01*
X80742782Y-100139153D01*
X80732554Y-100117529D01*
X80724496Y-100095007D01*
X80718684Y-100071803D01*
X80715174Y-100048142D01*
X80714000Y-100024250D01*
X80714000Y-99111750D01*
X80715174Y-99087858D01*
X80718684Y-99064197D01*
X80724496Y-99040993D01*
X80732554Y-99018471D01*
X80742782Y-98996847D01*
X80755079Y-98976330D01*
X80769329Y-98957117D01*
X80785393Y-98939393D01*
X80803117Y-98923329D01*
X80822330Y-98909079D01*
X80842847Y-98896782D01*
X80864471Y-98886554D01*
X80886993Y-98878496D01*
X80910197Y-98872684D01*
X80933858Y-98869174D01*
X80957750Y-98868000D01*
X81445250Y-98868000D01*
X81469142Y-98869174D01*
X81469142Y-98869174D01*
G37*
D21*
X81201500Y-99568000D03*
D20*
G36*
X79594142Y-98869174D02*
G01*
X79617803Y-98872684D01*
X79641007Y-98878496D01*
X79663529Y-98886554D01*
X79685153Y-98896782D01*
X79705670Y-98909079D01*
X79724883Y-98923329D01*
X79742607Y-98939393D01*
X79758671Y-98957117D01*
X79772921Y-98976330D01*
X79785218Y-98996847D01*
X79795446Y-99018471D01*
X79803504Y-99040993D01*
X79809316Y-99064197D01*
X79812826Y-99087858D01*
X79814000Y-99111750D01*
X79814000Y-100024250D01*
X79812826Y-100048142D01*
X79809316Y-100071803D01*
X79803504Y-100095007D01*
X79795446Y-100117529D01*
X79785218Y-100139153D01*
X79772921Y-100159670D01*
X79758671Y-100178883D01*
X79742607Y-100196607D01*
X79724883Y-100212671D01*
X79705670Y-100226921D01*
X79685153Y-100239218D01*
X79663529Y-100249446D01*
X79641007Y-100257504D01*
X79617803Y-100263316D01*
X79594142Y-100266826D01*
X79570250Y-100268000D01*
X79082750Y-100268000D01*
X79058858Y-100266826D01*
X79035197Y-100263316D01*
X79011993Y-100257504D01*
X78989471Y-100249446D01*
X78967847Y-100239218D01*
X78947330Y-100226921D01*
X78928117Y-100212671D01*
X78910393Y-100196607D01*
X78894329Y-100178883D01*
X78880079Y-100159670D01*
X78867782Y-100139153D01*
X78857554Y-100117529D01*
X78849496Y-100095007D01*
X78843684Y-100071803D01*
X78840174Y-100048142D01*
X78839000Y-100024250D01*
X78839000Y-99111750D01*
X78840174Y-99087858D01*
X78843684Y-99064197D01*
X78849496Y-99040993D01*
X78857554Y-99018471D01*
X78867782Y-98996847D01*
X78880079Y-98976330D01*
X78894329Y-98957117D01*
X78910393Y-98939393D01*
X78928117Y-98923329D01*
X78947330Y-98909079D01*
X78967847Y-98896782D01*
X78989471Y-98886554D01*
X79011993Y-98878496D01*
X79035197Y-98872684D01*
X79058858Y-98869174D01*
X79082750Y-98868000D01*
X79570250Y-98868000D01*
X79594142Y-98869174D01*
X79594142Y-98869174D01*
G37*
D21*
X79326500Y-99568000D03*
D16*
X65278000Y-121158000D03*
X72898000Y-128778000D03*
X65278000Y-123698000D03*
X72898000Y-126238000D03*
X65278000Y-126238000D03*
X72898000Y-123698000D03*
X65278000Y-128778000D03*
D17*
X72898000Y-121158000D03*
D20*
G36*
X87856142Y-135706174D02*
G01*
X87879803Y-135709684D01*
X87903007Y-135715496D01*
X87925529Y-135723554D01*
X87947153Y-135733782D01*
X87967670Y-135746079D01*
X87986883Y-135760329D01*
X88004607Y-135776393D01*
X88020671Y-135794117D01*
X88034921Y-135813330D01*
X88047218Y-135833847D01*
X88057446Y-135855471D01*
X88065504Y-135877993D01*
X88071316Y-135901197D01*
X88074826Y-135924858D01*
X88076000Y-135948750D01*
X88076000Y-136436250D01*
X88074826Y-136460142D01*
X88071316Y-136483803D01*
X88065504Y-136507007D01*
X88057446Y-136529529D01*
X88047218Y-136551153D01*
X88034921Y-136571670D01*
X88020671Y-136590883D01*
X88004607Y-136608607D01*
X87986883Y-136624671D01*
X87967670Y-136638921D01*
X87947153Y-136651218D01*
X87925529Y-136661446D01*
X87903007Y-136669504D01*
X87879803Y-136675316D01*
X87856142Y-136678826D01*
X87832250Y-136680000D01*
X86919750Y-136680000D01*
X86895858Y-136678826D01*
X86872197Y-136675316D01*
X86848993Y-136669504D01*
X86826471Y-136661446D01*
X86804847Y-136651218D01*
X86784330Y-136638921D01*
X86765117Y-136624671D01*
X86747393Y-136608607D01*
X86731329Y-136590883D01*
X86717079Y-136571670D01*
X86704782Y-136551153D01*
X86694554Y-136529529D01*
X86686496Y-136507007D01*
X86680684Y-136483803D01*
X86677174Y-136460142D01*
X86676000Y-136436250D01*
X86676000Y-135948750D01*
X86677174Y-135924858D01*
X86680684Y-135901197D01*
X86686496Y-135877993D01*
X86694554Y-135855471D01*
X86704782Y-135833847D01*
X86717079Y-135813330D01*
X86731329Y-135794117D01*
X86747393Y-135776393D01*
X86765117Y-135760329D01*
X86784330Y-135746079D01*
X86804847Y-135733782D01*
X86826471Y-135723554D01*
X86848993Y-135715496D01*
X86872197Y-135709684D01*
X86895858Y-135706174D01*
X86919750Y-135705000D01*
X87832250Y-135705000D01*
X87856142Y-135706174D01*
X87856142Y-135706174D01*
G37*
D21*
X87376000Y-136192500D03*
D20*
G36*
X87856142Y-133831174D02*
G01*
X87879803Y-133834684D01*
X87903007Y-133840496D01*
X87925529Y-133848554D01*
X87947153Y-133858782D01*
X87967670Y-133871079D01*
X87986883Y-133885329D01*
X88004607Y-133901393D01*
X88020671Y-133919117D01*
X88034921Y-133938330D01*
X88047218Y-133958847D01*
X88057446Y-133980471D01*
X88065504Y-134002993D01*
X88071316Y-134026197D01*
X88074826Y-134049858D01*
X88076000Y-134073750D01*
X88076000Y-134561250D01*
X88074826Y-134585142D01*
X88071316Y-134608803D01*
X88065504Y-134632007D01*
X88057446Y-134654529D01*
X88047218Y-134676153D01*
X88034921Y-134696670D01*
X88020671Y-134715883D01*
X88004607Y-134733607D01*
X87986883Y-134749671D01*
X87967670Y-134763921D01*
X87947153Y-134776218D01*
X87925529Y-134786446D01*
X87903007Y-134794504D01*
X87879803Y-134800316D01*
X87856142Y-134803826D01*
X87832250Y-134805000D01*
X86919750Y-134805000D01*
X86895858Y-134803826D01*
X86872197Y-134800316D01*
X86848993Y-134794504D01*
X86826471Y-134786446D01*
X86804847Y-134776218D01*
X86784330Y-134763921D01*
X86765117Y-134749671D01*
X86747393Y-134733607D01*
X86731329Y-134715883D01*
X86717079Y-134696670D01*
X86704782Y-134676153D01*
X86694554Y-134654529D01*
X86686496Y-134632007D01*
X86680684Y-134608803D01*
X86677174Y-134585142D01*
X86676000Y-134561250D01*
X86676000Y-134073750D01*
X86677174Y-134049858D01*
X86680684Y-134026197D01*
X86686496Y-134002993D01*
X86694554Y-133980471D01*
X86704782Y-133958847D01*
X86717079Y-133938330D01*
X86731329Y-133919117D01*
X86747393Y-133901393D01*
X86765117Y-133885329D01*
X86784330Y-133871079D01*
X86804847Y-133858782D01*
X86826471Y-133848554D01*
X86848993Y-133840496D01*
X86872197Y-133834684D01*
X86895858Y-133831174D01*
X86919750Y-133830000D01*
X87832250Y-133830000D01*
X87856142Y-133831174D01*
X87856142Y-133831174D01*
G37*
D21*
X87376000Y-134317500D03*
D14*
X87630000Y-142240000D03*
D15*
X85090000Y-142240000D03*
D20*
G36*
X71473142Y-104337174D02*
G01*
X71496803Y-104340684D01*
X71520007Y-104346496D01*
X71542529Y-104354554D01*
X71564153Y-104364782D01*
X71584670Y-104377079D01*
X71603883Y-104391329D01*
X71621607Y-104407393D01*
X71637671Y-104425117D01*
X71651921Y-104444330D01*
X71664218Y-104464847D01*
X71674446Y-104486471D01*
X71682504Y-104508993D01*
X71688316Y-104532197D01*
X71691826Y-104555858D01*
X71693000Y-104579750D01*
X71693000Y-105067250D01*
X71691826Y-105091142D01*
X71688316Y-105114803D01*
X71682504Y-105138007D01*
X71674446Y-105160529D01*
X71664218Y-105182153D01*
X71651921Y-105202670D01*
X71637671Y-105221883D01*
X71621607Y-105239607D01*
X71603883Y-105255671D01*
X71584670Y-105269921D01*
X71564153Y-105282218D01*
X71542529Y-105292446D01*
X71520007Y-105300504D01*
X71496803Y-105306316D01*
X71473142Y-105309826D01*
X71449250Y-105311000D01*
X70536750Y-105311000D01*
X70512858Y-105309826D01*
X70489197Y-105306316D01*
X70465993Y-105300504D01*
X70443471Y-105292446D01*
X70421847Y-105282218D01*
X70401330Y-105269921D01*
X70382117Y-105255671D01*
X70364393Y-105239607D01*
X70348329Y-105221883D01*
X70334079Y-105202670D01*
X70321782Y-105182153D01*
X70311554Y-105160529D01*
X70303496Y-105138007D01*
X70297684Y-105114803D01*
X70294174Y-105091142D01*
X70293000Y-105067250D01*
X70293000Y-104579750D01*
X70294174Y-104555858D01*
X70297684Y-104532197D01*
X70303496Y-104508993D01*
X70311554Y-104486471D01*
X70321782Y-104464847D01*
X70334079Y-104444330D01*
X70348329Y-104425117D01*
X70364393Y-104407393D01*
X70382117Y-104391329D01*
X70401330Y-104377079D01*
X70421847Y-104364782D01*
X70443471Y-104354554D01*
X70465993Y-104346496D01*
X70489197Y-104340684D01*
X70512858Y-104337174D01*
X70536750Y-104336000D01*
X71449250Y-104336000D01*
X71473142Y-104337174D01*
X71473142Y-104337174D01*
G37*
D21*
X70993000Y-104823500D03*
D20*
G36*
X71473142Y-102462174D02*
G01*
X71496803Y-102465684D01*
X71520007Y-102471496D01*
X71542529Y-102479554D01*
X71564153Y-102489782D01*
X71584670Y-102502079D01*
X71603883Y-102516329D01*
X71621607Y-102532393D01*
X71637671Y-102550117D01*
X71651921Y-102569330D01*
X71664218Y-102589847D01*
X71674446Y-102611471D01*
X71682504Y-102633993D01*
X71688316Y-102657197D01*
X71691826Y-102680858D01*
X71693000Y-102704750D01*
X71693000Y-103192250D01*
X71691826Y-103216142D01*
X71688316Y-103239803D01*
X71682504Y-103263007D01*
X71674446Y-103285529D01*
X71664218Y-103307153D01*
X71651921Y-103327670D01*
X71637671Y-103346883D01*
X71621607Y-103364607D01*
X71603883Y-103380671D01*
X71584670Y-103394921D01*
X71564153Y-103407218D01*
X71542529Y-103417446D01*
X71520007Y-103425504D01*
X71496803Y-103431316D01*
X71473142Y-103434826D01*
X71449250Y-103436000D01*
X70536750Y-103436000D01*
X70512858Y-103434826D01*
X70489197Y-103431316D01*
X70465993Y-103425504D01*
X70443471Y-103417446D01*
X70421847Y-103407218D01*
X70401330Y-103394921D01*
X70382117Y-103380671D01*
X70364393Y-103364607D01*
X70348329Y-103346883D01*
X70334079Y-103327670D01*
X70321782Y-103307153D01*
X70311554Y-103285529D01*
X70303496Y-103263007D01*
X70297684Y-103239803D01*
X70294174Y-103216142D01*
X70293000Y-103192250D01*
X70293000Y-102704750D01*
X70294174Y-102680858D01*
X70297684Y-102657197D01*
X70303496Y-102633993D01*
X70311554Y-102611471D01*
X70321782Y-102589847D01*
X70334079Y-102569330D01*
X70348329Y-102550117D01*
X70364393Y-102532393D01*
X70382117Y-102516329D01*
X70401330Y-102502079D01*
X70421847Y-102489782D01*
X70443471Y-102479554D01*
X70465993Y-102471496D01*
X70489197Y-102465684D01*
X70512858Y-102462174D01*
X70536750Y-102461000D01*
X71449250Y-102461000D01*
X71473142Y-102462174D01*
X71473142Y-102462174D01*
G37*
D21*
X70993000Y-102948500D03*
D20*
G36*
X68171142Y-102462174D02*
G01*
X68194803Y-102465684D01*
X68218007Y-102471496D01*
X68240529Y-102479554D01*
X68262153Y-102489782D01*
X68282670Y-102502079D01*
X68301883Y-102516329D01*
X68319607Y-102532393D01*
X68335671Y-102550117D01*
X68349921Y-102569330D01*
X68362218Y-102589847D01*
X68372446Y-102611471D01*
X68380504Y-102633993D01*
X68386316Y-102657197D01*
X68389826Y-102680858D01*
X68391000Y-102704750D01*
X68391000Y-103192250D01*
X68389826Y-103216142D01*
X68386316Y-103239803D01*
X68380504Y-103263007D01*
X68372446Y-103285529D01*
X68362218Y-103307153D01*
X68349921Y-103327670D01*
X68335671Y-103346883D01*
X68319607Y-103364607D01*
X68301883Y-103380671D01*
X68282670Y-103394921D01*
X68262153Y-103407218D01*
X68240529Y-103417446D01*
X68218007Y-103425504D01*
X68194803Y-103431316D01*
X68171142Y-103434826D01*
X68147250Y-103436000D01*
X67234750Y-103436000D01*
X67210858Y-103434826D01*
X67187197Y-103431316D01*
X67163993Y-103425504D01*
X67141471Y-103417446D01*
X67119847Y-103407218D01*
X67099330Y-103394921D01*
X67080117Y-103380671D01*
X67062393Y-103364607D01*
X67046329Y-103346883D01*
X67032079Y-103327670D01*
X67019782Y-103307153D01*
X67009554Y-103285529D01*
X67001496Y-103263007D01*
X66995684Y-103239803D01*
X66992174Y-103216142D01*
X66991000Y-103192250D01*
X66991000Y-102704750D01*
X66992174Y-102680858D01*
X66995684Y-102657197D01*
X67001496Y-102633993D01*
X67009554Y-102611471D01*
X67019782Y-102589847D01*
X67032079Y-102569330D01*
X67046329Y-102550117D01*
X67062393Y-102532393D01*
X67080117Y-102516329D01*
X67099330Y-102502079D01*
X67119847Y-102489782D01*
X67141471Y-102479554D01*
X67163993Y-102471496D01*
X67187197Y-102465684D01*
X67210858Y-102462174D01*
X67234750Y-102461000D01*
X68147250Y-102461000D01*
X68171142Y-102462174D01*
X68171142Y-102462174D01*
G37*
D21*
X67691000Y-102948500D03*
D20*
G36*
X68171142Y-104337174D02*
G01*
X68194803Y-104340684D01*
X68218007Y-104346496D01*
X68240529Y-104354554D01*
X68262153Y-104364782D01*
X68282670Y-104377079D01*
X68301883Y-104391329D01*
X68319607Y-104407393D01*
X68335671Y-104425117D01*
X68349921Y-104444330D01*
X68362218Y-104464847D01*
X68372446Y-104486471D01*
X68380504Y-104508993D01*
X68386316Y-104532197D01*
X68389826Y-104555858D01*
X68391000Y-104579750D01*
X68391000Y-105067250D01*
X68389826Y-105091142D01*
X68386316Y-105114803D01*
X68380504Y-105138007D01*
X68372446Y-105160529D01*
X68362218Y-105182153D01*
X68349921Y-105202670D01*
X68335671Y-105221883D01*
X68319607Y-105239607D01*
X68301883Y-105255671D01*
X68282670Y-105269921D01*
X68262153Y-105282218D01*
X68240529Y-105292446D01*
X68218007Y-105300504D01*
X68194803Y-105306316D01*
X68171142Y-105309826D01*
X68147250Y-105311000D01*
X67234750Y-105311000D01*
X67210858Y-105309826D01*
X67187197Y-105306316D01*
X67163993Y-105300504D01*
X67141471Y-105292446D01*
X67119847Y-105282218D01*
X67099330Y-105269921D01*
X67080117Y-105255671D01*
X67062393Y-105239607D01*
X67046329Y-105221883D01*
X67032079Y-105202670D01*
X67019782Y-105182153D01*
X67009554Y-105160529D01*
X67001496Y-105138007D01*
X66995684Y-105114803D01*
X66992174Y-105091142D01*
X66991000Y-105067250D01*
X66991000Y-104579750D01*
X66992174Y-104555858D01*
X66995684Y-104532197D01*
X67001496Y-104508993D01*
X67009554Y-104486471D01*
X67019782Y-104464847D01*
X67032079Y-104444330D01*
X67046329Y-104425117D01*
X67062393Y-104407393D01*
X67080117Y-104391329D01*
X67099330Y-104377079D01*
X67119847Y-104364782D01*
X67141471Y-104354554D01*
X67163993Y-104346496D01*
X67187197Y-104340684D01*
X67210858Y-104337174D01*
X67234750Y-104336000D01*
X68147250Y-104336000D01*
X68171142Y-104337174D01*
X68171142Y-104337174D01*
G37*
D21*
X67691000Y-104823500D03*
D23*
X81026000Y-115824000D03*
X73147347Y-115828653D03*
X90424000Y-97282000D03*
X81026000Y-72898000D03*
X80264000Y-93980000D03*
X71628000Y-114554000D03*
X75946000Y-132451000D03*
D24*
X81280000Y-60960000D02*
X81280000Y-58293000D01*
X83566000Y-132154000D02*
X83994000Y-131726000D01*
X83566000Y-133682500D02*
X83566000Y-132154000D01*
X83994000Y-69246500D02*
X83566000Y-69674500D01*
X83994000Y-67718000D02*
X83994000Y-69246500D01*
X83566000Y-110564000D02*
X83994000Y-110136000D01*
X83566000Y-112092500D02*
X83566000Y-110564000D01*
X69293314Y-67818000D02*
X70612000Y-67818000D01*
X68072000Y-67818000D02*
X69293314Y-67818000D01*
X88182000Y-64008000D02*
X91186000Y-67012000D01*
X81026000Y-115824000D02*
X73152000Y-115824000D01*
X73152000Y-115824000D02*
X73147347Y-115828653D01*
X91832000Y-67012000D02*
X92710000Y-67890000D01*
X90932000Y-67012000D02*
X91832000Y-67012000D01*
X92710000Y-94996000D02*
X90424000Y-97282000D01*
X92710000Y-67890000D02*
X92710000Y-94996000D01*
X67739500Y-102616000D02*
X68072000Y-102948500D01*
X67358500Y-102616000D02*
X67691000Y-102948500D01*
X65532000Y-102616000D02*
X67358500Y-102616000D01*
X75643314Y-64008000D02*
X88182000Y-64008000D01*
X71833314Y-67818000D02*
X75643314Y-64008000D01*
X70612000Y-67818000D02*
X71833314Y-67818000D01*
X90678000Y-77978000D02*
X91186000Y-77470000D01*
X78994000Y-77978000D02*
X90678000Y-77978000D01*
X80264000Y-86126000D02*
X78994000Y-87396000D01*
X78994000Y-87396000D02*
X78994000Y-88546000D01*
X80219001Y-129350999D02*
X78994000Y-130576000D01*
X80219001Y-126809997D02*
X86360000Y-120668998D01*
X80219001Y-129350999D02*
X80219001Y-126809997D01*
X81201500Y-100368000D02*
X81201500Y-99568000D01*
X81201500Y-101034502D02*
X81201500Y-100368000D01*
X86360000Y-106193002D02*
X81201500Y-101034502D01*
X86360000Y-120668998D02*
X86360000Y-106193002D01*
X70612000Y-77978000D02*
X68072000Y-77978000D01*
X75846000Y-131726000D02*
X78994000Y-131726000D01*
X72898000Y-128778000D02*
X75846000Y-131726000D01*
X81201500Y-99568000D02*
X81201500Y-96695500D01*
X78994000Y-94488000D02*
X78994000Y-88546000D01*
X81201500Y-96695500D02*
X78994000Y-94488000D01*
X80264000Y-86126000D02*
X87356000Y-86126000D01*
X91186000Y-82296000D02*
X91186000Y-77470000D01*
X87356000Y-86126000D02*
X91186000Y-82296000D01*
X88392000Y-74676000D02*
X91186000Y-77470000D01*
X81730998Y-74676000D02*
X88392000Y-74676000D01*
X78994000Y-67718000D02*
X78994000Y-71939002D01*
X78994000Y-71939002D02*
X81730998Y-74676000D01*
X70612000Y-77978000D02*
X78994000Y-77978000D01*
X84582001Y-130500999D02*
X79069001Y-130500999D01*
X78994000Y-130576000D02*
X78994000Y-131726000D01*
X87376000Y-133294998D02*
X84582001Y-130500999D01*
X79069001Y-130500999D02*
X78994000Y-130576000D01*
X87376000Y-134317500D02*
X87376000Y-133294998D01*
X81534000Y-71549500D02*
X83566000Y-71549500D01*
X81534000Y-72390000D02*
X81026000Y-72898000D01*
X81534000Y-71549500D02*
X81534000Y-72390000D01*
X81534000Y-92710000D02*
X80264000Y-93980000D01*
X81534000Y-92377500D02*
X81534000Y-92710000D01*
X83566000Y-92377500D02*
X81534000Y-92377500D01*
X81534000Y-113967500D02*
X83566000Y-113967500D01*
X80947500Y-114554000D02*
X81534000Y-113967500D01*
X71628000Y-114554000D02*
X80947500Y-114554000D01*
X81280000Y-135557500D02*
X80185500Y-135557500D01*
X83312000Y-135557500D02*
X81280000Y-135557500D01*
X78798500Y-135557500D02*
X80185500Y-135557500D01*
X75692000Y-132451000D02*
X78798500Y-135557500D01*
X69293314Y-65278000D02*
X70612000Y-65278000D01*
X68072000Y-65278000D02*
X69293314Y-65278000D01*
X81494000Y-69634500D02*
X81534000Y-69674500D01*
X81494000Y-67718000D02*
X81494000Y-69634500D01*
X81534000Y-88586000D02*
X81494000Y-88546000D01*
X81534000Y-90502500D02*
X81534000Y-88586000D01*
X81534000Y-110176000D02*
X81494000Y-110136000D01*
X81534000Y-112092500D02*
X81534000Y-110176000D01*
X81534000Y-131766000D02*
X81494000Y-131726000D01*
X81534000Y-133682500D02*
X81534000Y-131766000D01*
X73484500Y-100076000D02*
X73152000Y-100076000D01*
X75516500Y-98044000D02*
X73484500Y-100076000D01*
X78068001Y-153295999D02*
X76678000Y-154686000D01*
X85219001Y-106964851D02*
X85219001Y-119192001D01*
X80388990Y-102134840D02*
X85219001Y-106964851D01*
X72647997Y-127363001D02*
X71772999Y-128237999D01*
X71772999Y-129556589D02*
X78068001Y-135851591D01*
X80388990Y-99126140D02*
X80388990Y-102134840D01*
X77391500Y-98044000D02*
X79306850Y-98044000D01*
X79306850Y-98044000D02*
X80388990Y-99126140D01*
X85219001Y-119192001D02*
X77048001Y-127363001D01*
X77048001Y-127363001D02*
X72647997Y-127363001D01*
X78068001Y-135851591D02*
X78068001Y-153295999D01*
X71772999Y-128237999D02*
X71772999Y-129556589D01*
X73152000Y-107696000D02*
X75262500Y-107696000D01*
X73152000Y-89916000D02*
X73152000Y-87297500D01*
X74023001Y-125112999D02*
X73697999Y-125438001D01*
X73697999Y-125438001D02*
X72898000Y-126238000D01*
X74023001Y-120097999D02*
X74023001Y-125112999D01*
X69967990Y-116042988D02*
X74023001Y-120097999D01*
X69967990Y-96515008D02*
X69967990Y-116042988D01*
X74277001Y-93285999D02*
X73692001Y-93870999D01*
X73692001Y-93870999D02*
X72611999Y-93870999D01*
X74277001Y-89991001D02*
X74277001Y-93285999D01*
X72611999Y-93870999D02*
X69967990Y-96515008D01*
X74202000Y-89916000D02*
X74277001Y-89991001D01*
X73152000Y-89916000D02*
X74202000Y-89916000D01*
X68072000Y-60198000D02*
X70612000Y-60198000D01*
X68378000Y-133516998D02*
X68378000Y-142240000D01*
X64130014Y-129269012D02*
X68378000Y-133516998D01*
X64104010Y-129269012D02*
X64130014Y-129269012D01*
X68072000Y-60198000D02*
X64104010Y-64165990D01*
X64104010Y-64165990D02*
X64104010Y-129269012D01*
X69293314Y-62738000D02*
X70612000Y-62738000D01*
X68072000Y-62738000D02*
X69293314Y-62738000D01*
X68991000Y-93256000D02*
X68991000Y-92456000D01*
X65532000Y-105156000D02*
X66331999Y-105955999D01*
X68716010Y-105302840D02*
X68716010Y-98307010D01*
X68062851Y-105955999D02*
X68716010Y-105302840D01*
X66331999Y-105955999D02*
X68062851Y-105955999D01*
X68991000Y-98032020D02*
X68991000Y-92456000D01*
X68716010Y-98307010D02*
X68991000Y-98032020D01*
X85090000Y-138478500D02*
X87376000Y-136192500D01*
X85090000Y-142240000D02*
X85090000Y-138478500D01*
X70358000Y-126238000D02*
X72898000Y-123698000D01*
X65278000Y-126238000D02*
X70358000Y-126238000D01*
X70358000Y-128539412D02*
X70358000Y-126238000D01*
X77060798Y-157226000D02*
X73503001Y-153668203D01*
X91664000Y-154686000D02*
X89124000Y-157226000D01*
X89124000Y-157226000D02*
X77060798Y-157226000D01*
X73503001Y-153668203D02*
X73503001Y-131923001D01*
X70358000Y-128778000D02*
X70358000Y-128539412D01*
X73503001Y-131923001D02*
X70358000Y-128778000D01*
X70866000Y-92456000D02*
X73152000Y-92456000D01*
X69596000Y-120396000D02*
X72898000Y-123698000D01*
X69166020Y-119966020D02*
X69596000Y-120396000D01*
X69441010Y-98452990D02*
X69166020Y-98727980D01*
X69166020Y-98727980D02*
X69166020Y-119966020D01*
X69441010Y-93880990D02*
X69441010Y-98452990D01*
X70866000Y-92456000D02*
X69441010Y-93880990D01*
X75457001Y-100310999D02*
X73951999Y-101816001D01*
X73951999Y-101816001D02*
X73152000Y-102616000D01*
X77996001Y-100310999D02*
X75457001Y-100310999D01*
X78739000Y-99568000D02*
X77996001Y-100310999D01*
X79326500Y-99568000D02*
X78739000Y-99568000D01*
X72819500Y-102948500D02*
X73152000Y-102616000D01*
D25*
G36*
X67618000Y-133831801D02*
G01*
X67618001Y-140673313D01*
X67472748Y-140733479D01*
X67194313Y-140919523D01*
X66957523Y-141156313D01*
X66771479Y-141434748D01*
X66729895Y-141535140D01*
X66731072Y-141275000D01*
X66718812Y-141150518D01*
X66682502Y-141030820D01*
X66623537Y-140920506D01*
X66544185Y-140823815D01*
X66447494Y-140744463D01*
X66337180Y-140685498D01*
X66217482Y-140649188D01*
X66093000Y-140636928D01*
X65463750Y-140640000D01*
X65305000Y-140798750D01*
X65305000Y-142113000D01*
X65325000Y-142113000D01*
X65325000Y-142367000D01*
X65305000Y-142367000D01*
X65305000Y-143681250D01*
X65463750Y-143840000D01*
X66093000Y-143843072D01*
X66217482Y-143830812D01*
X66337180Y-143794502D01*
X66447494Y-143735537D01*
X66544185Y-143656185D01*
X66623537Y-143559494D01*
X66682502Y-143449180D01*
X66718812Y-143329482D01*
X66731072Y-143205000D01*
X66729895Y-142944860D01*
X66771479Y-143045252D01*
X66957523Y-143323687D01*
X67194313Y-143560477D01*
X67472748Y-143746521D01*
X67782128Y-143874670D01*
X68110565Y-143940000D01*
X68445435Y-143940000D01*
X68773872Y-143874670D01*
X69083252Y-143746521D01*
X69361687Y-143560477D01*
X69598477Y-143323687D01*
X69668465Y-143218943D01*
X69691678Y-143274985D01*
X69930800Y-143632856D01*
X70235144Y-143937200D01*
X70593015Y-144176322D01*
X70990659Y-144341031D01*
X71412796Y-144425000D01*
X71843204Y-144425000D01*
X72265341Y-144341031D01*
X72662985Y-144176322D01*
X72743001Y-144122857D01*
X72743001Y-152803143D01*
X72662985Y-152749678D01*
X72265341Y-152584969D01*
X71843204Y-152501000D01*
X71412796Y-152501000D01*
X70990659Y-152584969D01*
X70593015Y-152749678D01*
X70235144Y-152988800D01*
X69930800Y-153293144D01*
X69691678Y-153651015D01*
X69668465Y-153707057D01*
X69598477Y-153602313D01*
X69361687Y-153365523D01*
X69083252Y-153179479D01*
X68773872Y-153051330D01*
X68445435Y-152986000D01*
X68110565Y-152986000D01*
X67782128Y-153051330D01*
X67472748Y-153179479D01*
X67194313Y-153365523D01*
X66957523Y-153602313D01*
X66771479Y-153880748D01*
X66729895Y-153981140D01*
X66731072Y-153721000D01*
X66718812Y-153596518D01*
X66682502Y-153476820D01*
X66623537Y-153366506D01*
X66544185Y-153269815D01*
X66447494Y-153190463D01*
X66337180Y-153131498D01*
X66217482Y-153095188D01*
X66093000Y-153082928D01*
X65463750Y-153086000D01*
X65305000Y-153244750D01*
X65305000Y-154559000D01*
X65325000Y-154559000D01*
X65325000Y-154813000D01*
X65305000Y-154813000D01*
X65305000Y-156127250D01*
X65463750Y-156286000D01*
X66093000Y-156289072D01*
X66217482Y-156276812D01*
X66337180Y-156240502D01*
X66447494Y-156181537D01*
X66544185Y-156102185D01*
X66623537Y-156005494D01*
X66682502Y-155895180D01*
X66718812Y-155775482D01*
X66731072Y-155651000D01*
X66729895Y-155390860D01*
X66771479Y-155491252D01*
X66957523Y-155769687D01*
X67194313Y-156006477D01*
X67472748Y-156192521D01*
X67782128Y-156320670D01*
X68110565Y-156386000D01*
X68445435Y-156386000D01*
X68773872Y-156320670D01*
X69083252Y-156192521D01*
X69361687Y-156006477D01*
X69598477Y-155769687D01*
X69668465Y-155664943D01*
X69691678Y-155720985D01*
X69930800Y-156078856D01*
X70235144Y-156383200D01*
X70593015Y-156622322D01*
X70990659Y-156787031D01*
X71412796Y-156871000D01*
X71843204Y-156871000D01*
X72265341Y-156787031D01*
X72662985Y-156622322D01*
X73020856Y-156383200D01*
X73325200Y-156078856D01*
X73564322Y-155720985D01*
X73729031Y-155323341D01*
X73787815Y-155027818D01*
X76496999Y-157737003D01*
X76520797Y-157766001D01*
X76636522Y-157860974D01*
X76768551Y-157931546D01*
X76911812Y-157975003D01*
X77023465Y-157986000D01*
X77023473Y-157986000D01*
X77060798Y-157989676D01*
X77098123Y-157986000D01*
X89086678Y-157986000D01*
X89124000Y-157989676D01*
X89161322Y-157986000D01*
X89161333Y-157986000D01*
X89272986Y-157975003D01*
X89416247Y-157931546D01*
X89548276Y-157860974D01*
X89664001Y-157766001D01*
X89687804Y-157736997D01*
X91098159Y-156326643D01*
X91396565Y-156386000D01*
X91731435Y-156386000D01*
X92059872Y-156320670D01*
X92369252Y-156192521D01*
X92647687Y-156006477D01*
X92884477Y-155769687D01*
X93066001Y-155498017D01*
X93066001Y-159360000D01*
X64414000Y-159360000D01*
X64414000Y-156288335D01*
X64892250Y-156286000D01*
X65051000Y-156127250D01*
X65051000Y-154813000D01*
X65031000Y-154813000D01*
X65031000Y-154559000D01*
X65051000Y-154559000D01*
X65051000Y-153244750D01*
X64892250Y-153086000D01*
X64414000Y-153083665D01*
X64414000Y-143842335D01*
X64892250Y-143840000D01*
X65051000Y-143681250D01*
X65051000Y-142367000D01*
X65031000Y-142367000D01*
X65031000Y-142113000D01*
X65051000Y-142113000D01*
X65051000Y-140798750D01*
X64892250Y-140640000D01*
X64414000Y-140637665D01*
X64414000Y-130627799D01*
X67618000Y-133831801D01*
X67618000Y-133831801D01*
G37*
X67618000Y-133831801D02*
X67618001Y-140673313D01*
X67472748Y-140733479D01*
X67194313Y-140919523D01*
X66957523Y-141156313D01*
X66771479Y-141434748D01*
X66729895Y-141535140D01*
X66731072Y-141275000D01*
X66718812Y-141150518D01*
X66682502Y-141030820D01*
X66623537Y-140920506D01*
X66544185Y-140823815D01*
X66447494Y-140744463D01*
X66337180Y-140685498D01*
X66217482Y-140649188D01*
X66093000Y-140636928D01*
X65463750Y-140640000D01*
X65305000Y-140798750D01*
X65305000Y-142113000D01*
X65325000Y-142113000D01*
X65325000Y-142367000D01*
X65305000Y-142367000D01*
X65305000Y-143681250D01*
X65463750Y-143840000D01*
X66093000Y-143843072D01*
X66217482Y-143830812D01*
X66337180Y-143794502D01*
X66447494Y-143735537D01*
X66544185Y-143656185D01*
X66623537Y-143559494D01*
X66682502Y-143449180D01*
X66718812Y-143329482D01*
X66731072Y-143205000D01*
X66729895Y-142944860D01*
X66771479Y-143045252D01*
X66957523Y-143323687D01*
X67194313Y-143560477D01*
X67472748Y-143746521D01*
X67782128Y-143874670D01*
X68110565Y-143940000D01*
X68445435Y-143940000D01*
X68773872Y-143874670D01*
X69083252Y-143746521D01*
X69361687Y-143560477D01*
X69598477Y-143323687D01*
X69668465Y-143218943D01*
X69691678Y-143274985D01*
X69930800Y-143632856D01*
X70235144Y-143937200D01*
X70593015Y-144176322D01*
X70990659Y-144341031D01*
X71412796Y-144425000D01*
X71843204Y-144425000D01*
X72265341Y-144341031D01*
X72662985Y-144176322D01*
X72743001Y-144122857D01*
X72743001Y-152803143D01*
X72662985Y-152749678D01*
X72265341Y-152584969D01*
X71843204Y-152501000D01*
X71412796Y-152501000D01*
X70990659Y-152584969D01*
X70593015Y-152749678D01*
X70235144Y-152988800D01*
X69930800Y-153293144D01*
X69691678Y-153651015D01*
X69668465Y-153707057D01*
X69598477Y-153602313D01*
X69361687Y-153365523D01*
X69083252Y-153179479D01*
X68773872Y-153051330D01*
X68445435Y-152986000D01*
X68110565Y-152986000D01*
X67782128Y-153051330D01*
X67472748Y-153179479D01*
X67194313Y-153365523D01*
X66957523Y-153602313D01*
X66771479Y-153880748D01*
X66729895Y-153981140D01*
X66731072Y-153721000D01*
X66718812Y-153596518D01*
X66682502Y-153476820D01*
X66623537Y-153366506D01*
X66544185Y-153269815D01*
X66447494Y-153190463D01*
X66337180Y-153131498D01*
X66217482Y-153095188D01*
X66093000Y-153082928D01*
X65463750Y-153086000D01*
X65305000Y-153244750D01*
X65305000Y-154559000D01*
X65325000Y-154559000D01*
X65325000Y-154813000D01*
X65305000Y-154813000D01*
X65305000Y-156127250D01*
X65463750Y-156286000D01*
X66093000Y-156289072D01*
X66217482Y-156276812D01*
X66337180Y-156240502D01*
X66447494Y-156181537D01*
X66544185Y-156102185D01*
X66623537Y-156005494D01*
X66682502Y-155895180D01*
X66718812Y-155775482D01*
X66731072Y-155651000D01*
X66729895Y-155390860D01*
X66771479Y-155491252D01*
X66957523Y-155769687D01*
X67194313Y-156006477D01*
X67472748Y-156192521D01*
X67782128Y-156320670D01*
X68110565Y-156386000D01*
X68445435Y-156386000D01*
X68773872Y-156320670D01*
X69083252Y-156192521D01*
X69361687Y-156006477D01*
X69598477Y-155769687D01*
X69668465Y-155664943D01*
X69691678Y-155720985D01*
X69930800Y-156078856D01*
X70235144Y-156383200D01*
X70593015Y-156622322D01*
X70990659Y-156787031D01*
X71412796Y-156871000D01*
X71843204Y-156871000D01*
X72265341Y-156787031D01*
X72662985Y-156622322D01*
X73020856Y-156383200D01*
X73325200Y-156078856D01*
X73564322Y-155720985D01*
X73729031Y-155323341D01*
X73787815Y-155027818D01*
X76496999Y-157737003D01*
X76520797Y-157766001D01*
X76636522Y-157860974D01*
X76768551Y-157931546D01*
X76911812Y-157975003D01*
X77023465Y-157986000D01*
X77023473Y-157986000D01*
X77060798Y-157989676D01*
X77098123Y-157986000D01*
X89086678Y-157986000D01*
X89124000Y-157989676D01*
X89161322Y-157986000D01*
X89161333Y-157986000D01*
X89272986Y-157975003D01*
X89416247Y-157931546D01*
X89548276Y-157860974D01*
X89664001Y-157766001D01*
X89687804Y-157736997D01*
X91098159Y-156326643D01*
X91396565Y-156386000D01*
X91731435Y-156386000D01*
X92059872Y-156320670D01*
X92369252Y-156192521D01*
X92647687Y-156006477D01*
X92884477Y-155769687D01*
X93066001Y-155498017D01*
X93066001Y-159360000D01*
X64414000Y-159360000D01*
X64414000Y-156288335D01*
X64892250Y-156286000D01*
X65051000Y-156127250D01*
X65051000Y-154813000D01*
X65031000Y-154813000D01*
X65031000Y-154559000D01*
X65051000Y-154559000D01*
X65051000Y-153244750D01*
X64892250Y-153086000D01*
X64414000Y-153083665D01*
X64414000Y-143842335D01*
X64892250Y-143840000D01*
X65051000Y-143681250D01*
X65051000Y-142367000D01*
X65031000Y-142367000D01*
X65031000Y-142113000D01*
X65051000Y-142113000D01*
X65051000Y-140798750D01*
X64892250Y-140640000D01*
X64414000Y-140637665D01*
X64414000Y-130627799D01*
X67618000Y-133831801D01*
G36*
X91950001Y-94681197D02*
G01*
X90384199Y-96247000D01*
X90322061Y-96247000D01*
X90122102Y-96286774D01*
X89933744Y-96364795D01*
X89764226Y-96478063D01*
X89620063Y-96622226D01*
X89506795Y-96791744D01*
X89428774Y-96980102D01*
X89389000Y-97180061D01*
X89389000Y-97383939D01*
X89428774Y-97583898D01*
X89506795Y-97772256D01*
X89620063Y-97941774D01*
X89764226Y-98085937D01*
X89933744Y-98199205D01*
X90122102Y-98277226D01*
X90322061Y-98317000D01*
X90525939Y-98317000D01*
X90725898Y-98277226D01*
X90914256Y-98199205D01*
X91083774Y-98085937D01*
X91227937Y-97941774D01*
X91341205Y-97772256D01*
X91419226Y-97583898D01*
X91459000Y-97383939D01*
X91459000Y-97321801D01*
X93066000Y-95714801D01*
X93066001Y-153873983D01*
X92884477Y-153602313D01*
X92647687Y-153365523D01*
X92369252Y-153179479D01*
X92059872Y-153051330D01*
X91731435Y-152986000D01*
X91396565Y-152986000D01*
X91068128Y-153051330D01*
X90758748Y-153179479D01*
X90480313Y-153365523D01*
X90243523Y-153602313D01*
X90057479Y-153880748D01*
X89929330Y-154190128D01*
X89864000Y-154518565D01*
X89864000Y-154853435D01*
X89929330Y-155181872D01*
X89977363Y-155297835D01*
X88809199Y-156466000D01*
X87882937Y-156466000D01*
X88006856Y-156383200D01*
X88311200Y-156078856D01*
X88550322Y-155720985D01*
X88715031Y-155323341D01*
X88799000Y-154901204D01*
X88799000Y-154470796D01*
X88715031Y-154048659D01*
X88550322Y-153651015D01*
X88311200Y-153293144D01*
X88006856Y-152988800D01*
X87648985Y-152749678D01*
X87251341Y-152584969D01*
X86829204Y-152501000D01*
X86398796Y-152501000D01*
X85976659Y-152584969D01*
X85579015Y-152749678D01*
X85221144Y-152988800D01*
X84916800Y-153293144D01*
X84677678Y-153651015D01*
X84654465Y-153707057D01*
X84584477Y-153602313D01*
X84347687Y-153365523D01*
X84069252Y-153179479D01*
X83759872Y-153051330D01*
X83431435Y-152986000D01*
X83096565Y-152986000D01*
X82768128Y-153051330D01*
X82458748Y-153179479D01*
X82180313Y-153365523D01*
X81943523Y-153602313D01*
X81757479Y-153880748D01*
X81715895Y-153981140D01*
X81717072Y-153721000D01*
X81704812Y-153596518D01*
X81668502Y-153476820D01*
X81609537Y-153366506D01*
X81530185Y-153269815D01*
X81433494Y-153190463D01*
X81323180Y-153131498D01*
X81203482Y-153095188D01*
X81079000Y-153082928D01*
X80449750Y-153086000D01*
X80291000Y-153244750D01*
X80291000Y-154559000D01*
X80311000Y-154559000D01*
X80311000Y-154813000D01*
X80291000Y-154813000D01*
X80291000Y-156127250D01*
X80449750Y-156286000D01*
X81079000Y-156289072D01*
X81203482Y-156276812D01*
X81323180Y-156240502D01*
X81433494Y-156181537D01*
X81530185Y-156102185D01*
X81609537Y-156005494D01*
X81668502Y-155895180D01*
X81704812Y-155775482D01*
X81717072Y-155651000D01*
X81715895Y-155390860D01*
X81757479Y-155491252D01*
X81943523Y-155769687D01*
X82180313Y-156006477D01*
X82458748Y-156192521D01*
X82768128Y-156320670D01*
X83096565Y-156386000D01*
X83431435Y-156386000D01*
X83759872Y-156320670D01*
X84069252Y-156192521D01*
X84347687Y-156006477D01*
X84584477Y-155769687D01*
X84654465Y-155664943D01*
X84677678Y-155720985D01*
X84916800Y-156078856D01*
X85221144Y-156383200D01*
X85345063Y-156466000D01*
X77375600Y-156466000D01*
X77184462Y-156274862D01*
X77383252Y-156192521D01*
X77661687Y-156006477D01*
X77898477Y-155769687D01*
X77977780Y-155651000D01*
X78610928Y-155651000D01*
X78623188Y-155775482D01*
X78659498Y-155895180D01*
X78718463Y-156005494D01*
X78797815Y-156102185D01*
X78894506Y-156181537D01*
X79004820Y-156240502D01*
X79124518Y-156276812D01*
X79249000Y-156289072D01*
X79878250Y-156286000D01*
X80037000Y-156127250D01*
X80037000Y-154813000D01*
X78772750Y-154813000D01*
X78614000Y-154971750D01*
X78610928Y-155651000D01*
X77977780Y-155651000D01*
X78084521Y-155491252D01*
X78212670Y-155181872D01*
X78278000Y-154853435D01*
X78278000Y-154518565D01*
X78218643Y-154220158D01*
X78579004Y-153859798D01*
X78608002Y-153836000D01*
X78611429Y-153831824D01*
X78614000Y-154400250D01*
X78772750Y-154559000D01*
X80037000Y-154559000D01*
X80037000Y-153244750D01*
X79878250Y-153086000D01*
X79249000Y-153082928D01*
X79124518Y-153095188D01*
X79004820Y-153131498D01*
X78894506Y-153190463D01*
X78828001Y-153245042D01*
X78828001Y-136318270D01*
X78835822Y-136317500D01*
X80366155Y-136317500D01*
X80454208Y-136424792D01*
X80587836Y-136534458D01*
X80740291Y-136615947D01*
X80905715Y-136666128D01*
X81077750Y-136683072D01*
X81990250Y-136683072D01*
X82162285Y-136666128D01*
X82327709Y-136615947D01*
X82480164Y-136534458D01*
X82550000Y-136477145D01*
X82619836Y-136534458D01*
X82772291Y-136615947D01*
X82937715Y-136666128D01*
X83109750Y-136683072D01*
X84022250Y-136683072D01*
X84194285Y-136666128D01*
X84359709Y-136615947D01*
X84512164Y-136534458D01*
X84645792Y-136424792D01*
X84755458Y-136291164D01*
X84836947Y-136138709D01*
X84887128Y-135973285D01*
X84904072Y-135801250D01*
X84904072Y-135313750D01*
X84887128Y-135141715D01*
X84836947Y-134976291D01*
X84755458Y-134823836D01*
X84645792Y-134690208D01*
X84639436Y-134684992D01*
X84717185Y-134621185D01*
X84796537Y-134524494D01*
X84855502Y-134414180D01*
X84891812Y-134294482D01*
X84904072Y-134170000D01*
X84901000Y-133968250D01*
X84742250Y-133809500D01*
X83693000Y-133809500D01*
X83693000Y-133829500D01*
X83439000Y-133829500D01*
X83439000Y-133809500D01*
X83419000Y-133809500D01*
X83419000Y-133555500D01*
X83439000Y-133555500D01*
X83439000Y-133535500D01*
X83693000Y-133535500D01*
X83693000Y-133555500D01*
X84742250Y-133555500D01*
X84901000Y-133396750D01*
X84904072Y-133195000D01*
X84891812Y-133070518D01*
X84855502Y-132950820D01*
X84836970Y-132916149D01*
X84878475Y-132790080D01*
X83994000Y-131905605D01*
X83979858Y-131919748D01*
X83800253Y-131740143D01*
X83814395Y-131726000D01*
X83800253Y-131711858D01*
X83979858Y-131532253D01*
X83994000Y-131546395D01*
X84008143Y-131532253D01*
X84187748Y-131711858D01*
X84173605Y-131726000D01*
X85058080Y-132610475D01*
X85312261Y-132526792D01*
X85383874Y-132377673D01*
X86384197Y-133377997D01*
X86296208Y-133450208D01*
X86186542Y-133583836D01*
X86105053Y-133736291D01*
X86054872Y-133901715D01*
X86037928Y-134073750D01*
X86037928Y-134561250D01*
X86054872Y-134733285D01*
X86105053Y-134898709D01*
X86186542Y-135051164D01*
X86296208Y-135184792D01*
X86381756Y-135255000D01*
X86296208Y-135325208D01*
X86186542Y-135458836D01*
X86105053Y-135611291D01*
X86054872Y-135776715D01*
X86037928Y-135948750D01*
X86037928Y-136436250D01*
X86039678Y-136454020D01*
X84578998Y-137914701D01*
X84550000Y-137938499D01*
X84526202Y-137967497D01*
X84526201Y-137967498D01*
X84455026Y-138054224D01*
X84384454Y-138186254D01*
X84340998Y-138329515D01*
X84326324Y-138478500D01*
X84330001Y-138515832D01*
X84330000Y-140701928D01*
X84190000Y-140701928D01*
X84065518Y-140714188D01*
X83945820Y-140750498D01*
X83835506Y-140809463D01*
X83738815Y-140888815D01*
X83659463Y-140985506D01*
X83600498Y-141095820D01*
X83564188Y-141215518D01*
X83551928Y-141340000D01*
X83551928Y-143140000D01*
X83564188Y-143264482D01*
X83600498Y-143384180D01*
X83659463Y-143494494D01*
X83738815Y-143591185D01*
X83835506Y-143670537D01*
X83945820Y-143729502D01*
X84065518Y-143765812D01*
X84190000Y-143778072D01*
X85990000Y-143778072D01*
X86114482Y-143765812D01*
X86234180Y-143729502D01*
X86344494Y-143670537D01*
X86441185Y-143591185D01*
X86520537Y-143494494D01*
X86579502Y-143384180D01*
X86585056Y-143365873D01*
X86651495Y-143432312D01*
X86902905Y-143600299D01*
X87182257Y-143716011D01*
X87478816Y-143775000D01*
X87781184Y-143775000D01*
X88077743Y-143716011D01*
X88357095Y-143600299D01*
X88608505Y-143432312D01*
X88822312Y-143218505D01*
X88990299Y-142967095D01*
X89106011Y-142687743D01*
X89165000Y-142391184D01*
X89165000Y-142088816D01*
X89106011Y-141792257D01*
X88990299Y-141512905D01*
X88822312Y-141261495D01*
X88608505Y-141047688D01*
X88357095Y-140879701D01*
X88077743Y-140763989D01*
X87781184Y-140705000D01*
X87478816Y-140705000D01*
X87182257Y-140763989D01*
X86902905Y-140879701D01*
X86651495Y-141047688D01*
X86585056Y-141114127D01*
X86579502Y-141095820D01*
X86520537Y-140985506D01*
X86441185Y-140888815D01*
X86344494Y-140809463D01*
X86234180Y-140750498D01*
X86114482Y-140714188D01*
X85990000Y-140701928D01*
X85850000Y-140701928D01*
X85850000Y-138793301D01*
X87325230Y-137318072D01*
X87832250Y-137318072D01*
X88004285Y-137301128D01*
X88169709Y-137250947D01*
X88322164Y-137169458D01*
X88455792Y-137059792D01*
X88565458Y-136926164D01*
X88646947Y-136773709D01*
X88697128Y-136608285D01*
X88714072Y-136436250D01*
X88714072Y-135948750D01*
X88697128Y-135776715D01*
X88646947Y-135611291D01*
X88565458Y-135458836D01*
X88455792Y-135325208D01*
X88370244Y-135255000D01*
X88455792Y-135184792D01*
X88565458Y-135051164D01*
X88646947Y-134898709D01*
X88697128Y-134733285D01*
X88714072Y-134561250D01*
X88714072Y-134073750D01*
X88697128Y-133901715D01*
X88646947Y-133736291D01*
X88565458Y-133583836D01*
X88455792Y-133450208D01*
X88322164Y-133340542D01*
X88169709Y-133259053D01*
X88135103Y-133248555D01*
X88125003Y-133146012D01*
X88081546Y-133002751D01*
X88010974Y-132870722D01*
X87916001Y-132754997D01*
X87887003Y-132731199D01*
X85145805Y-129990002D01*
X85122002Y-129960998D01*
X85006277Y-129866025D01*
X84874248Y-129795453D01*
X84730987Y-129751996D01*
X84619334Y-129740999D01*
X84619323Y-129740999D01*
X84582001Y-129737323D01*
X84544679Y-129740999D01*
X80872297Y-129740999D01*
X80924547Y-129643246D01*
X80949417Y-129561258D01*
X80968004Y-129499985D01*
X80979001Y-129388332D01*
X80979001Y-129388323D01*
X80982677Y-129351000D01*
X80979001Y-129313677D01*
X80979001Y-127124798D01*
X83750798Y-124353002D01*
X83771008Y-124353002D01*
X83664333Y-124763162D01*
X83800652Y-125212553D01*
X84040067Y-125670270D01*
X84364178Y-126072485D01*
X84760530Y-126403740D01*
X85213890Y-126651306D01*
X85706837Y-126805669D01*
X86117000Y-126699190D01*
X86117000Y-124353000D01*
X86371000Y-124353000D01*
X86371000Y-126699190D01*
X86781163Y-126805669D01*
X87274110Y-126651306D01*
X87727470Y-126403740D01*
X88123822Y-126072485D01*
X88447933Y-125670270D01*
X88687348Y-125212553D01*
X88823667Y-124763162D01*
X88716991Y-124353000D01*
X86371000Y-124353000D01*
X86117000Y-124353000D01*
X86097000Y-124353000D01*
X86097000Y-124099000D01*
X86117000Y-124099000D01*
X86117000Y-124079000D01*
X86371000Y-124079000D01*
X86371000Y-124099000D01*
X88716991Y-124099000D01*
X88823667Y-123688838D01*
X88687348Y-123239447D01*
X88447933Y-122781730D01*
X88123822Y-122379515D01*
X87727470Y-122048260D01*
X87274110Y-121800694D01*
X86781163Y-121646331D01*
X86371002Y-121752809D01*
X86371002Y-121732798D01*
X86871004Y-121232796D01*
X86900001Y-121208999D01*
X86926332Y-121176915D01*
X86994974Y-121093275D01*
X87065546Y-120961245D01*
X87065985Y-120959799D01*
X87109003Y-120817984D01*
X87120000Y-120706331D01*
X87120000Y-120706322D01*
X87123676Y-120668999D01*
X87120000Y-120631676D01*
X87120000Y-106230327D01*
X87123676Y-106193002D01*
X87120000Y-106155677D01*
X87120000Y-106155669D01*
X87109003Y-106044016D01*
X87065546Y-105900755D01*
X86994974Y-105768726D01*
X86900001Y-105653001D01*
X86871003Y-105629203D01*
X86371002Y-105129202D01*
X86371002Y-105109191D01*
X86781163Y-105215669D01*
X87274110Y-105061306D01*
X87727470Y-104813740D01*
X88123822Y-104482485D01*
X88447933Y-104080270D01*
X88687348Y-103622553D01*
X88823667Y-103173162D01*
X88716991Y-102763000D01*
X86371000Y-102763000D01*
X86371000Y-102783000D01*
X86117000Y-102783000D01*
X86117000Y-102763000D01*
X86097000Y-102763000D01*
X86097000Y-102509000D01*
X86117000Y-102509000D01*
X86117000Y-100162810D01*
X86371000Y-100162810D01*
X86371000Y-102509000D01*
X88716991Y-102509000D01*
X88823667Y-102098838D01*
X88687348Y-101649447D01*
X88447933Y-101191730D01*
X88123822Y-100789515D01*
X87727470Y-100458260D01*
X87274110Y-100210694D01*
X86781163Y-100056331D01*
X86371000Y-100162810D01*
X86117000Y-100162810D01*
X85706837Y-100056331D01*
X85213890Y-100210694D01*
X84760530Y-100458260D01*
X84364178Y-100789515D01*
X84040067Y-101191730D01*
X83800652Y-101649447D01*
X83664333Y-102098838D01*
X83771008Y-102508998D01*
X83750797Y-102508998D01*
X81970367Y-100728568D01*
X82068792Y-100647792D01*
X82178458Y-100514164D01*
X82259947Y-100361709D01*
X82310128Y-100196285D01*
X82327072Y-100024250D01*
X82327072Y-99111750D01*
X82310128Y-98939715D01*
X82259947Y-98774291D01*
X82178458Y-98621836D01*
X82068792Y-98488208D01*
X81961500Y-98400155D01*
X81961500Y-96732822D01*
X81965176Y-96695499D01*
X81961500Y-96658176D01*
X81961500Y-96658167D01*
X81950503Y-96546514D01*
X81907046Y-96403253D01*
X81836474Y-96271224D01*
X81816594Y-96247000D01*
X81765299Y-96184496D01*
X81765295Y-96184492D01*
X81741501Y-96155499D01*
X81712508Y-96131705D01*
X80557665Y-94976864D01*
X80565898Y-94975226D01*
X80754256Y-94897205D01*
X80923774Y-94783937D01*
X81067937Y-94639774D01*
X81181205Y-94470256D01*
X81259226Y-94281898D01*
X81299000Y-94081939D01*
X81299000Y-94019801D01*
X81815730Y-93503072D01*
X81990250Y-93503072D01*
X82162285Y-93486128D01*
X82327709Y-93435947D01*
X82480164Y-93354458D01*
X82550000Y-93297145D01*
X82619836Y-93354458D01*
X82772291Y-93435947D01*
X82937715Y-93486128D01*
X83109750Y-93503072D01*
X84022250Y-93503072D01*
X84194285Y-93486128D01*
X84359709Y-93435947D01*
X84512164Y-93354458D01*
X84645792Y-93244792D01*
X84755458Y-93111164D01*
X84836947Y-92958709D01*
X84887128Y-92793285D01*
X84904072Y-92621250D01*
X84904072Y-92133750D01*
X84887128Y-91961715D01*
X84836947Y-91796291D01*
X84755458Y-91643836D01*
X84645792Y-91510208D01*
X84639436Y-91504992D01*
X84717185Y-91441185D01*
X84796537Y-91344494D01*
X84855502Y-91234180D01*
X84891812Y-91114482D01*
X84904072Y-90990000D01*
X84901000Y-90788250D01*
X84742250Y-90629500D01*
X83693000Y-90629500D01*
X83693000Y-90649500D01*
X83439000Y-90649500D01*
X83439000Y-90629500D01*
X83419000Y-90629500D01*
X83419000Y-90375500D01*
X83439000Y-90375500D01*
X83439000Y-90355500D01*
X83693000Y-90355500D01*
X83693000Y-90375500D01*
X84742250Y-90375500D01*
X84901000Y-90216750D01*
X84904072Y-90015000D01*
X84891812Y-89890518D01*
X84855502Y-89770820D01*
X84836970Y-89736149D01*
X84878475Y-89610080D01*
X83994000Y-88725605D01*
X83979858Y-88739748D01*
X83800253Y-88560143D01*
X83814395Y-88546000D01*
X84173605Y-88546000D01*
X85058080Y-89430475D01*
X85312261Y-89346792D01*
X85443158Y-89074225D01*
X85518365Y-88781358D01*
X85534991Y-88479447D01*
X85492397Y-88180093D01*
X85392222Y-87894801D01*
X85312261Y-87745208D01*
X85058080Y-87661525D01*
X84173605Y-88546000D01*
X83814395Y-88546000D01*
X82929920Y-87661525D01*
X82781738Y-87710310D01*
X82686312Y-87567495D01*
X82600737Y-87481920D01*
X83109525Y-87481920D01*
X83994000Y-88366395D01*
X84878475Y-87481920D01*
X84794792Y-87227739D01*
X84522225Y-87096842D01*
X84229358Y-87021635D01*
X83927447Y-87005009D01*
X83628093Y-87047603D01*
X83342801Y-87147778D01*
X83193208Y-87227739D01*
X83109525Y-87481920D01*
X82600737Y-87481920D01*
X82472505Y-87353688D01*
X82221095Y-87185701D01*
X81941743Y-87069989D01*
X81645184Y-87011000D01*
X81342816Y-87011000D01*
X81046257Y-87069989D01*
X80766905Y-87185701D01*
X80515495Y-87353688D01*
X80477880Y-87391303D01*
X80424537Y-87291506D01*
X80345185Y-87194815D01*
X80303883Y-87160919D01*
X80578802Y-86886000D01*
X87318678Y-86886000D01*
X87356000Y-86889676D01*
X87393322Y-86886000D01*
X87393333Y-86886000D01*
X87504986Y-86875003D01*
X87648247Y-86831546D01*
X87780276Y-86760974D01*
X87896001Y-86666001D01*
X87919804Y-86636997D01*
X91697004Y-82859798D01*
X91726001Y-82836001D01*
X91752332Y-82803917D01*
X91820974Y-82720277D01*
X91891546Y-82588247D01*
X91921266Y-82490270D01*
X91935003Y-82444986D01*
X91946000Y-82333333D01*
X91946000Y-82333323D01*
X91949676Y-82296000D01*
X91946000Y-82258677D01*
X91946000Y-79274112D01*
X91950000Y-79271974D01*
X91950001Y-94681197D01*
X91950001Y-94681197D01*
G37*
X91950001Y-94681197D02*
X90384199Y-96247000D01*
X90322061Y-96247000D01*
X90122102Y-96286774D01*
X89933744Y-96364795D01*
X89764226Y-96478063D01*
X89620063Y-96622226D01*
X89506795Y-96791744D01*
X89428774Y-96980102D01*
X89389000Y-97180061D01*
X89389000Y-97383939D01*
X89428774Y-97583898D01*
X89506795Y-97772256D01*
X89620063Y-97941774D01*
X89764226Y-98085937D01*
X89933744Y-98199205D01*
X90122102Y-98277226D01*
X90322061Y-98317000D01*
X90525939Y-98317000D01*
X90725898Y-98277226D01*
X90914256Y-98199205D01*
X91083774Y-98085937D01*
X91227937Y-97941774D01*
X91341205Y-97772256D01*
X91419226Y-97583898D01*
X91459000Y-97383939D01*
X91459000Y-97321801D01*
X93066000Y-95714801D01*
X93066001Y-153873983D01*
X92884477Y-153602313D01*
X92647687Y-153365523D01*
X92369252Y-153179479D01*
X92059872Y-153051330D01*
X91731435Y-152986000D01*
X91396565Y-152986000D01*
X91068128Y-153051330D01*
X90758748Y-153179479D01*
X90480313Y-153365523D01*
X90243523Y-153602313D01*
X90057479Y-153880748D01*
X89929330Y-154190128D01*
X89864000Y-154518565D01*
X89864000Y-154853435D01*
X89929330Y-155181872D01*
X89977363Y-155297835D01*
X88809199Y-156466000D01*
X87882937Y-156466000D01*
X88006856Y-156383200D01*
X88311200Y-156078856D01*
X88550322Y-155720985D01*
X88715031Y-155323341D01*
X88799000Y-154901204D01*
X88799000Y-154470796D01*
X88715031Y-154048659D01*
X88550322Y-153651015D01*
X88311200Y-153293144D01*
X88006856Y-152988800D01*
X87648985Y-152749678D01*
X87251341Y-152584969D01*
X86829204Y-152501000D01*
X86398796Y-152501000D01*
X85976659Y-152584969D01*
X85579015Y-152749678D01*
X85221144Y-152988800D01*
X84916800Y-153293144D01*
X84677678Y-153651015D01*
X84654465Y-153707057D01*
X84584477Y-153602313D01*
X84347687Y-153365523D01*
X84069252Y-153179479D01*
X83759872Y-153051330D01*
X83431435Y-152986000D01*
X83096565Y-152986000D01*
X82768128Y-153051330D01*
X82458748Y-153179479D01*
X82180313Y-153365523D01*
X81943523Y-153602313D01*
X81757479Y-153880748D01*
X81715895Y-153981140D01*
X81717072Y-153721000D01*
X81704812Y-153596518D01*
X81668502Y-153476820D01*
X81609537Y-153366506D01*
X81530185Y-153269815D01*
X81433494Y-153190463D01*
X81323180Y-153131498D01*
X81203482Y-153095188D01*
X81079000Y-153082928D01*
X80449750Y-153086000D01*
X80291000Y-153244750D01*
X80291000Y-154559000D01*
X80311000Y-154559000D01*
X80311000Y-154813000D01*
X80291000Y-154813000D01*
X80291000Y-156127250D01*
X80449750Y-156286000D01*
X81079000Y-156289072D01*
X81203482Y-156276812D01*
X81323180Y-156240502D01*
X81433494Y-156181537D01*
X81530185Y-156102185D01*
X81609537Y-156005494D01*
X81668502Y-155895180D01*
X81704812Y-155775482D01*
X81717072Y-155651000D01*
X81715895Y-155390860D01*
X81757479Y-155491252D01*
X81943523Y-155769687D01*
X82180313Y-156006477D01*
X82458748Y-156192521D01*
X82768128Y-156320670D01*
X83096565Y-156386000D01*
X83431435Y-156386000D01*
X83759872Y-156320670D01*
X84069252Y-156192521D01*
X84347687Y-156006477D01*
X84584477Y-155769687D01*
X84654465Y-155664943D01*
X84677678Y-155720985D01*
X84916800Y-156078856D01*
X85221144Y-156383200D01*
X85345063Y-156466000D01*
X77375600Y-156466000D01*
X77184462Y-156274862D01*
X77383252Y-156192521D01*
X77661687Y-156006477D01*
X77898477Y-155769687D01*
X77977780Y-155651000D01*
X78610928Y-155651000D01*
X78623188Y-155775482D01*
X78659498Y-155895180D01*
X78718463Y-156005494D01*
X78797815Y-156102185D01*
X78894506Y-156181537D01*
X79004820Y-156240502D01*
X79124518Y-156276812D01*
X79249000Y-156289072D01*
X79878250Y-156286000D01*
X80037000Y-156127250D01*
X80037000Y-154813000D01*
X78772750Y-154813000D01*
X78614000Y-154971750D01*
X78610928Y-155651000D01*
X77977780Y-155651000D01*
X78084521Y-155491252D01*
X78212670Y-155181872D01*
X78278000Y-154853435D01*
X78278000Y-154518565D01*
X78218643Y-154220158D01*
X78579004Y-153859798D01*
X78608002Y-153836000D01*
X78611429Y-153831824D01*
X78614000Y-154400250D01*
X78772750Y-154559000D01*
X80037000Y-154559000D01*
X80037000Y-153244750D01*
X79878250Y-153086000D01*
X79249000Y-153082928D01*
X79124518Y-153095188D01*
X79004820Y-153131498D01*
X78894506Y-153190463D01*
X78828001Y-153245042D01*
X78828001Y-136318270D01*
X78835822Y-136317500D01*
X80366155Y-136317500D01*
X80454208Y-136424792D01*
X80587836Y-136534458D01*
X80740291Y-136615947D01*
X80905715Y-136666128D01*
X81077750Y-136683072D01*
X81990250Y-136683072D01*
X82162285Y-136666128D01*
X82327709Y-136615947D01*
X82480164Y-136534458D01*
X82550000Y-136477145D01*
X82619836Y-136534458D01*
X82772291Y-136615947D01*
X82937715Y-136666128D01*
X83109750Y-136683072D01*
X84022250Y-136683072D01*
X84194285Y-136666128D01*
X84359709Y-136615947D01*
X84512164Y-136534458D01*
X84645792Y-136424792D01*
X84755458Y-136291164D01*
X84836947Y-136138709D01*
X84887128Y-135973285D01*
X84904072Y-135801250D01*
X84904072Y-135313750D01*
X84887128Y-135141715D01*
X84836947Y-134976291D01*
X84755458Y-134823836D01*
X84645792Y-134690208D01*
X84639436Y-134684992D01*
X84717185Y-134621185D01*
X84796537Y-134524494D01*
X84855502Y-134414180D01*
X84891812Y-134294482D01*
X84904072Y-134170000D01*
X84901000Y-133968250D01*
X84742250Y-133809500D01*
X83693000Y-133809500D01*
X83693000Y-133829500D01*
X83439000Y-133829500D01*
X83439000Y-133809500D01*
X83419000Y-133809500D01*
X83419000Y-133555500D01*
X83439000Y-133555500D01*
X83439000Y-133535500D01*
X83693000Y-133535500D01*
X83693000Y-133555500D01*
X84742250Y-133555500D01*
X84901000Y-133396750D01*
X84904072Y-133195000D01*
X84891812Y-133070518D01*
X84855502Y-132950820D01*
X84836970Y-132916149D01*
X84878475Y-132790080D01*
X83994000Y-131905605D01*
X83979858Y-131919748D01*
X83800253Y-131740143D01*
X83814395Y-131726000D01*
X83800253Y-131711858D01*
X83979858Y-131532253D01*
X83994000Y-131546395D01*
X84008143Y-131532253D01*
X84187748Y-131711858D01*
X84173605Y-131726000D01*
X85058080Y-132610475D01*
X85312261Y-132526792D01*
X85383874Y-132377673D01*
X86384197Y-133377997D01*
X86296208Y-133450208D01*
X86186542Y-133583836D01*
X86105053Y-133736291D01*
X86054872Y-133901715D01*
X86037928Y-134073750D01*
X86037928Y-134561250D01*
X86054872Y-134733285D01*
X86105053Y-134898709D01*
X86186542Y-135051164D01*
X86296208Y-135184792D01*
X86381756Y-135255000D01*
X86296208Y-135325208D01*
X86186542Y-135458836D01*
X86105053Y-135611291D01*
X86054872Y-135776715D01*
X86037928Y-135948750D01*
X86037928Y-136436250D01*
X86039678Y-136454020D01*
X84578998Y-137914701D01*
X84550000Y-137938499D01*
X84526202Y-137967497D01*
X84526201Y-137967498D01*
X84455026Y-138054224D01*
X84384454Y-138186254D01*
X84340998Y-138329515D01*
X84326324Y-138478500D01*
X84330001Y-138515832D01*
X84330000Y-140701928D01*
X84190000Y-140701928D01*
X84065518Y-140714188D01*
X83945820Y-140750498D01*
X83835506Y-140809463D01*
X83738815Y-140888815D01*
X83659463Y-140985506D01*
X83600498Y-141095820D01*
X83564188Y-141215518D01*
X83551928Y-141340000D01*
X83551928Y-143140000D01*
X83564188Y-143264482D01*
X83600498Y-143384180D01*
X83659463Y-143494494D01*
X83738815Y-143591185D01*
X83835506Y-143670537D01*
X83945820Y-143729502D01*
X84065518Y-143765812D01*
X84190000Y-143778072D01*
X85990000Y-143778072D01*
X86114482Y-143765812D01*
X86234180Y-143729502D01*
X86344494Y-143670537D01*
X86441185Y-143591185D01*
X86520537Y-143494494D01*
X86579502Y-143384180D01*
X86585056Y-143365873D01*
X86651495Y-143432312D01*
X86902905Y-143600299D01*
X87182257Y-143716011D01*
X87478816Y-143775000D01*
X87781184Y-143775000D01*
X88077743Y-143716011D01*
X88357095Y-143600299D01*
X88608505Y-143432312D01*
X88822312Y-143218505D01*
X88990299Y-142967095D01*
X89106011Y-142687743D01*
X89165000Y-142391184D01*
X89165000Y-142088816D01*
X89106011Y-141792257D01*
X88990299Y-141512905D01*
X88822312Y-141261495D01*
X88608505Y-141047688D01*
X88357095Y-140879701D01*
X88077743Y-140763989D01*
X87781184Y-140705000D01*
X87478816Y-140705000D01*
X87182257Y-140763989D01*
X86902905Y-140879701D01*
X86651495Y-141047688D01*
X86585056Y-141114127D01*
X86579502Y-141095820D01*
X86520537Y-140985506D01*
X86441185Y-140888815D01*
X86344494Y-140809463D01*
X86234180Y-140750498D01*
X86114482Y-140714188D01*
X85990000Y-140701928D01*
X85850000Y-140701928D01*
X85850000Y-138793301D01*
X87325230Y-137318072D01*
X87832250Y-137318072D01*
X88004285Y-137301128D01*
X88169709Y-137250947D01*
X88322164Y-137169458D01*
X88455792Y-137059792D01*
X88565458Y-136926164D01*
X88646947Y-136773709D01*
X88697128Y-136608285D01*
X88714072Y-136436250D01*
X88714072Y-135948750D01*
X88697128Y-135776715D01*
X88646947Y-135611291D01*
X88565458Y-135458836D01*
X88455792Y-135325208D01*
X88370244Y-135255000D01*
X88455792Y-135184792D01*
X88565458Y-135051164D01*
X88646947Y-134898709D01*
X88697128Y-134733285D01*
X88714072Y-134561250D01*
X88714072Y-134073750D01*
X88697128Y-133901715D01*
X88646947Y-133736291D01*
X88565458Y-133583836D01*
X88455792Y-133450208D01*
X88322164Y-133340542D01*
X88169709Y-133259053D01*
X88135103Y-133248555D01*
X88125003Y-133146012D01*
X88081546Y-133002751D01*
X88010974Y-132870722D01*
X87916001Y-132754997D01*
X87887003Y-132731199D01*
X85145805Y-129990002D01*
X85122002Y-129960998D01*
X85006277Y-129866025D01*
X84874248Y-129795453D01*
X84730987Y-129751996D01*
X84619334Y-129740999D01*
X84619323Y-129740999D01*
X84582001Y-129737323D01*
X84544679Y-129740999D01*
X80872297Y-129740999D01*
X80924547Y-129643246D01*
X80949417Y-129561258D01*
X80968004Y-129499985D01*
X80979001Y-129388332D01*
X80979001Y-129388323D01*
X80982677Y-129351000D01*
X80979001Y-129313677D01*
X80979001Y-127124798D01*
X83750798Y-124353002D01*
X83771008Y-124353002D01*
X83664333Y-124763162D01*
X83800652Y-125212553D01*
X84040067Y-125670270D01*
X84364178Y-126072485D01*
X84760530Y-126403740D01*
X85213890Y-126651306D01*
X85706837Y-126805669D01*
X86117000Y-126699190D01*
X86117000Y-124353000D01*
X86371000Y-124353000D01*
X86371000Y-126699190D01*
X86781163Y-126805669D01*
X87274110Y-126651306D01*
X87727470Y-126403740D01*
X88123822Y-126072485D01*
X88447933Y-125670270D01*
X88687348Y-125212553D01*
X88823667Y-124763162D01*
X88716991Y-124353000D01*
X86371000Y-124353000D01*
X86117000Y-124353000D01*
X86097000Y-124353000D01*
X86097000Y-124099000D01*
X86117000Y-124099000D01*
X86117000Y-124079000D01*
X86371000Y-124079000D01*
X86371000Y-124099000D01*
X88716991Y-124099000D01*
X88823667Y-123688838D01*
X88687348Y-123239447D01*
X88447933Y-122781730D01*
X88123822Y-122379515D01*
X87727470Y-122048260D01*
X87274110Y-121800694D01*
X86781163Y-121646331D01*
X86371002Y-121752809D01*
X86371002Y-121732798D01*
X86871004Y-121232796D01*
X86900001Y-121208999D01*
X86926332Y-121176915D01*
X86994974Y-121093275D01*
X87065546Y-120961245D01*
X87065985Y-120959799D01*
X87109003Y-120817984D01*
X87120000Y-120706331D01*
X87120000Y-120706322D01*
X87123676Y-120668999D01*
X87120000Y-120631676D01*
X87120000Y-106230327D01*
X87123676Y-106193002D01*
X87120000Y-106155677D01*
X87120000Y-106155669D01*
X87109003Y-106044016D01*
X87065546Y-105900755D01*
X86994974Y-105768726D01*
X86900001Y-105653001D01*
X86871003Y-105629203D01*
X86371002Y-105129202D01*
X86371002Y-105109191D01*
X86781163Y-105215669D01*
X87274110Y-105061306D01*
X87727470Y-104813740D01*
X88123822Y-104482485D01*
X88447933Y-104080270D01*
X88687348Y-103622553D01*
X88823667Y-103173162D01*
X88716991Y-102763000D01*
X86371000Y-102763000D01*
X86371000Y-102783000D01*
X86117000Y-102783000D01*
X86117000Y-102763000D01*
X86097000Y-102763000D01*
X86097000Y-102509000D01*
X86117000Y-102509000D01*
X86117000Y-100162810D01*
X86371000Y-100162810D01*
X86371000Y-102509000D01*
X88716991Y-102509000D01*
X88823667Y-102098838D01*
X88687348Y-101649447D01*
X88447933Y-101191730D01*
X88123822Y-100789515D01*
X87727470Y-100458260D01*
X87274110Y-100210694D01*
X86781163Y-100056331D01*
X86371000Y-100162810D01*
X86117000Y-100162810D01*
X85706837Y-100056331D01*
X85213890Y-100210694D01*
X84760530Y-100458260D01*
X84364178Y-100789515D01*
X84040067Y-101191730D01*
X83800652Y-101649447D01*
X83664333Y-102098838D01*
X83771008Y-102508998D01*
X83750797Y-102508998D01*
X81970367Y-100728568D01*
X82068792Y-100647792D01*
X82178458Y-100514164D01*
X82259947Y-100361709D01*
X82310128Y-100196285D01*
X82327072Y-100024250D01*
X82327072Y-99111750D01*
X82310128Y-98939715D01*
X82259947Y-98774291D01*
X82178458Y-98621836D01*
X82068792Y-98488208D01*
X81961500Y-98400155D01*
X81961500Y-96732822D01*
X81965176Y-96695499D01*
X81961500Y-96658176D01*
X81961500Y-96658167D01*
X81950503Y-96546514D01*
X81907046Y-96403253D01*
X81836474Y-96271224D01*
X81816594Y-96247000D01*
X81765299Y-96184496D01*
X81765295Y-96184492D01*
X81741501Y-96155499D01*
X81712508Y-96131705D01*
X80557665Y-94976864D01*
X80565898Y-94975226D01*
X80754256Y-94897205D01*
X80923774Y-94783937D01*
X81067937Y-94639774D01*
X81181205Y-94470256D01*
X81259226Y-94281898D01*
X81299000Y-94081939D01*
X81299000Y-94019801D01*
X81815730Y-93503072D01*
X81990250Y-93503072D01*
X82162285Y-93486128D01*
X82327709Y-93435947D01*
X82480164Y-93354458D01*
X82550000Y-93297145D01*
X82619836Y-93354458D01*
X82772291Y-93435947D01*
X82937715Y-93486128D01*
X83109750Y-93503072D01*
X84022250Y-93503072D01*
X84194285Y-93486128D01*
X84359709Y-93435947D01*
X84512164Y-93354458D01*
X84645792Y-93244792D01*
X84755458Y-93111164D01*
X84836947Y-92958709D01*
X84887128Y-92793285D01*
X84904072Y-92621250D01*
X84904072Y-92133750D01*
X84887128Y-91961715D01*
X84836947Y-91796291D01*
X84755458Y-91643836D01*
X84645792Y-91510208D01*
X84639436Y-91504992D01*
X84717185Y-91441185D01*
X84796537Y-91344494D01*
X84855502Y-91234180D01*
X84891812Y-91114482D01*
X84904072Y-90990000D01*
X84901000Y-90788250D01*
X84742250Y-90629500D01*
X83693000Y-90629500D01*
X83693000Y-90649500D01*
X83439000Y-90649500D01*
X83439000Y-90629500D01*
X83419000Y-90629500D01*
X83419000Y-90375500D01*
X83439000Y-90375500D01*
X83439000Y-90355500D01*
X83693000Y-90355500D01*
X83693000Y-90375500D01*
X84742250Y-90375500D01*
X84901000Y-90216750D01*
X84904072Y-90015000D01*
X84891812Y-89890518D01*
X84855502Y-89770820D01*
X84836970Y-89736149D01*
X84878475Y-89610080D01*
X83994000Y-88725605D01*
X83979858Y-88739748D01*
X83800253Y-88560143D01*
X83814395Y-88546000D01*
X84173605Y-88546000D01*
X85058080Y-89430475D01*
X85312261Y-89346792D01*
X85443158Y-89074225D01*
X85518365Y-88781358D01*
X85534991Y-88479447D01*
X85492397Y-88180093D01*
X85392222Y-87894801D01*
X85312261Y-87745208D01*
X85058080Y-87661525D01*
X84173605Y-88546000D01*
X83814395Y-88546000D01*
X82929920Y-87661525D01*
X82781738Y-87710310D01*
X82686312Y-87567495D01*
X82600737Y-87481920D01*
X83109525Y-87481920D01*
X83994000Y-88366395D01*
X84878475Y-87481920D01*
X84794792Y-87227739D01*
X84522225Y-87096842D01*
X84229358Y-87021635D01*
X83927447Y-87005009D01*
X83628093Y-87047603D01*
X83342801Y-87147778D01*
X83193208Y-87227739D01*
X83109525Y-87481920D01*
X82600737Y-87481920D01*
X82472505Y-87353688D01*
X82221095Y-87185701D01*
X81941743Y-87069989D01*
X81645184Y-87011000D01*
X81342816Y-87011000D01*
X81046257Y-87069989D01*
X80766905Y-87185701D01*
X80515495Y-87353688D01*
X80477880Y-87391303D01*
X80424537Y-87291506D01*
X80345185Y-87194815D01*
X80303883Y-87160919D01*
X80578802Y-86886000D01*
X87318678Y-86886000D01*
X87356000Y-86889676D01*
X87393322Y-86886000D01*
X87393333Y-86886000D01*
X87504986Y-86875003D01*
X87648247Y-86831546D01*
X87780276Y-86760974D01*
X87896001Y-86666001D01*
X87919804Y-86636997D01*
X91697004Y-82859798D01*
X91726001Y-82836001D01*
X91752332Y-82803917D01*
X91820974Y-82720277D01*
X91891546Y-82588247D01*
X91921266Y-82490270D01*
X91935003Y-82444986D01*
X91946000Y-82333333D01*
X91946000Y-82333323D01*
X91949676Y-82296000D01*
X91946000Y-82258677D01*
X91946000Y-79274112D01*
X91950000Y-79271974D01*
X91950001Y-94681197D01*
G36*
X82619836Y-114944458D02*
G01*
X82772291Y-115025947D01*
X82937715Y-115076128D01*
X83109750Y-115093072D01*
X84022250Y-115093072D01*
X84194285Y-115076128D01*
X84359709Y-115025947D01*
X84459002Y-114972874D01*
X84459002Y-118877198D01*
X79237203Y-124098998D01*
X79216992Y-124098998D01*
X79323667Y-123688838D01*
X79187348Y-123239447D01*
X78947933Y-122781730D01*
X78623822Y-122379515D01*
X78227470Y-122048260D01*
X77774110Y-121800694D01*
X77281163Y-121646331D01*
X76871000Y-121752810D01*
X76871000Y-124099000D01*
X76891000Y-124099000D01*
X76891000Y-124353000D01*
X76871000Y-124353000D01*
X76871000Y-124373000D01*
X76617000Y-124373000D01*
X76617000Y-124353000D01*
X76597000Y-124353000D01*
X76597000Y-124099000D01*
X76617000Y-124099000D01*
X76617000Y-121752810D01*
X76206837Y-121646331D01*
X75713890Y-121800694D01*
X75260530Y-122048260D01*
X74864178Y-122379515D01*
X74783001Y-122480254D01*
X74783001Y-120135332D01*
X74786678Y-120097999D01*
X74772004Y-119949013D01*
X74728547Y-119805752D01*
X74657975Y-119673723D01*
X74586800Y-119586996D01*
X74563002Y-119557998D01*
X74534005Y-119534201D01*
X70727990Y-115728187D01*
X70727990Y-115069990D01*
X70824063Y-115213774D01*
X70968226Y-115357937D01*
X71137744Y-115471205D01*
X71326102Y-115549226D01*
X71526061Y-115589000D01*
X71729939Y-115589000D01*
X71929898Y-115549226D01*
X72118256Y-115471205D01*
X72196896Y-115418660D01*
X72152121Y-115526755D01*
X72112347Y-115726714D01*
X72112347Y-115930592D01*
X72152121Y-116130551D01*
X72230142Y-116318909D01*
X72343410Y-116488427D01*
X72487573Y-116632590D01*
X72657091Y-116745858D01*
X72845449Y-116823879D01*
X73045408Y-116863653D01*
X73249286Y-116863653D01*
X73449245Y-116823879D01*
X73637603Y-116745858D01*
X73807121Y-116632590D01*
X73855711Y-116584000D01*
X80322289Y-116584000D01*
X80366226Y-116627937D01*
X80535744Y-116741205D01*
X80724102Y-116819226D01*
X80924061Y-116859000D01*
X81127939Y-116859000D01*
X81327898Y-116819226D01*
X81516256Y-116741205D01*
X81685774Y-116627937D01*
X81829937Y-116483774D01*
X81943205Y-116314256D01*
X82021226Y-116125898D01*
X82061000Y-115925939D01*
X82061000Y-115722061D01*
X82021226Y-115522102D01*
X81943205Y-115333744D01*
X81829937Y-115164226D01*
X81758783Y-115093072D01*
X81990250Y-115093072D01*
X82162285Y-115076128D01*
X82327709Y-115025947D01*
X82480164Y-114944458D01*
X82550000Y-114887145D01*
X82619836Y-114944458D01*
X82619836Y-114944458D01*
G37*
X82619836Y-114944458D02*
X82772291Y-115025947D01*
X82937715Y-115076128D01*
X83109750Y-115093072D01*
X84022250Y-115093072D01*
X84194285Y-115076128D01*
X84359709Y-115025947D01*
X84459002Y-114972874D01*
X84459002Y-118877198D01*
X79237203Y-124098998D01*
X79216992Y-124098998D01*
X79323667Y-123688838D01*
X79187348Y-123239447D01*
X78947933Y-122781730D01*
X78623822Y-122379515D01*
X78227470Y-122048260D01*
X77774110Y-121800694D01*
X77281163Y-121646331D01*
X76871000Y-121752810D01*
X76871000Y-124099000D01*
X76891000Y-124099000D01*
X76891000Y-124353000D01*
X76871000Y-124353000D01*
X76871000Y-124373000D01*
X76617000Y-124373000D01*
X76617000Y-124353000D01*
X76597000Y-124353000D01*
X76597000Y-124099000D01*
X76617000Y-124099000D01*
X76617000Y-121752810D01*
X76206837Y-121646331D01*
X75713890Y-121800694D01*
X75260530Y-122048260D01*
X74864178Y-122379515D01*
X74783001Y-122480254D01*
X74783001Y-120135332D01*
X74786678Y-120097999D01*
X74772004Y-119949013D01*
X74728547Y-119805752D01*
X74657975Y-119673723D01*
X74586800Y-119586996D01*
X74563002Y-119557998D01*
X74534005Y-119534201D01*
X70727990Y-115728187D01*
X70727990Y-115069990D01*
X70824063Y-115213774D01*
X70968226Y-115357937D01*
X71137744Y-115471205D01*
X71326102Y-115549226D01*
X71526061Y-115589000D01*
X71729939Y-115589000D01*
X71929898Y-115549226D01*
X72118256Y-115471205D01*
X72196896Y-115418660D01*
X72152121Y-115526755D01*
X72112347Y-115726714D01*
X72112347Y-115930592D01*
X72152121Y-116130551D01*
X72230142Y-116318909D01*
X72343410Y-116488427D01*
X72487573Y-116632590D01*
X72657091Y-116745858D01*
X72845449Y-116823879D01*
X73045408Y-116863653D01*
X73249286Y-116863653D01*
X73449245Y-116823879D01*
X73637603Y-116745858D01*
X73807121Y-116632590D01*
X73855711Y-116584000D01*
X80322289Y-116584000D01*
X80366226Y-116627937D01*
X80535744Y-116741205D01*
X80724102Y-116819226D01*
X80924061Y-116859000D01*
X81127939Y-116859000D01*
X81327898Y-116819226D01*
X81516256Y-116741205D01*
X81685774Y-116627937D01*
X81829937Y-116483774D01*
X81943205Y-116314256D01*
X82021226Y-116125898D01*
X82061000Y-115925939D01*
X82061000Y-115722061D01*
X82021226Y-115522102D01*
X81943205Y-115333744D01*
X81829937Y-115164226D01*
X81758783Y-115093072D01*
X81990250Y-115093072D01*
X82162285Y-115076128D01*
X82327709Y-115025947D01*
X82480164Y-114944458D01*
X82550000Y-114887145D01*
X82619836Y-114944458D01*
G36*
X78745291Y-100838947D02*
G01*
X78910715Y-100889128D01*
X79082750Y-100906072D01*
X79570250Y-100906072D01*
X79628991Y-100900287D01*
X79628991Y-102097508D01*
X79625314Y-102134840D01*
X79639988Y-102283825D01*
X79683444Y-102427086D01*
X79754016Y-102559116D01*
X79800700Y-102616000D01*
X79848990Y-102674841D01*
X79877988Y-102698639D01*
X84459001Y-107279653D01*
X84459001Y-108670606D01*
X84229358Y-108611635D01*
X83927447Y-108595009D01*
X83628093Y-108637603D01*
X83342801Y-108737778D01*
X83193208Y-108817739D01*
X83109525Y-109071920D01*
X83994000Y-109956395D01*
X84008143Y-109942253D01*
X84187748Y-110121858D01*
X84173605Y-110136000D01*
X84187748Y-110150143D01*
X84008143Y-110329748D01*
X83994000Y-110315605D01*
X83979858Y-110329748D01*
X83800253Y-110150143D01*
X83814395Y-110136000D01*
X82929920Y-109251525D01*
X82781738Y-109300310D01*
X82686312Y-109157495D01*
X82472505Y-108943688D01*
X82221095Y-108775701D01*
X81941743Y-108659989D01*
X81645184Y-108601000D01*
X81342816Y-108601000D01*
X81046257Y-108659989D01*
X80766905Y-108775701D01*
X80515495Y-108943688D01*
X80477880Y-108981303D01*
X80424537Y-108881506D01*
X80345185Y-108784815D01*
X80248494Y-108705463D01*
X80138180Y-108646498D01*
X80018482Y-108610188D01*
X79894000Y-108597928D01*
X78227319Y-108597928D01*
X78250812Y-108520482D01*
X78263072Y-108396000D01*
X78260000Y-107981750D01*
X78101250Y-107823000D01*
X77264500Y-107823000D01*
X77264500Y-108872250D01*
X77423250Y-109031000D01*
X77492294Y-109032051D01*
X77468188Y-109111518D01*
X77455928Y-109236000D01*
X77455928Y-111036000D01*
X77468188Y-111160482D01*
X77504498Y-111280180D01*
X77563463Y-111390494D01*
X77642815Y-111487185D01*
X77739506Y-111566537D01*
X77849820Y-111625502D01*
X77969518Y-111661812D01*
X78094000Y-111674072D01*
X79894000Y-111674072D01*
X80018482Y-111661812D01*
X80138180Y-111625502D01*
X80245869Y-111567940D01*
X80212872Y-111676715D01*
X80195928Y-111848750D01*
X80195928Y-112336250D01*
X80212872Y-112508285D01*
X80263053Y-112673709D01*
X80344542Y-112826164D01*
X80454208Y-112959792D01*
X80539756Y-113030000D01*
X80454208Y-113100208D01*
X80344542Y-113233836D01*
X80263053Y-113386291D01*
X80212872Y-113551715D01*
X80195928Y-113723750D01*
X80195928Y-113794000D01*
X72331711Y-113794000D01*
X72287774Y-113750063D01*
X72118256Y-113636795D01*
X71929898Y-113558774D01*
X71729939Y-113519000D01*
X71526061Y-113519000D01*
X71326102Y-113558774D01*
X71137744Y-113636795D01*
X70968226Y-113750063D01*
X70824063Y-113894226D01*
X70727990Y-114038010D01*
X70727990Y-105925260D01*
X70866000Y-105787250D01*
X70866000Y-104950500D01*
X70846000Y-104950500D01*
X70846000Y-104696500D01*
X70866000Y-104696500D01*
X70866000Y-104676500D01*
X71120000Y-104676500D01*
X71120000Y-104696500D01*
X71140000Y-104696500D01*
X71140000Y-104950500D01*
X71120000Y-104950500D01*
X71120000Y-105787250D01*
X71278750Y-105946000D01*
X71693000Y-105949072D01*
X71817482Y-105936812D01*
X71928226Y-105903218D01*
X72088481Y-106119414D01*
X72296869Y-106308385D01*
X72488682Y-106423421D01*
X72350899Y-106497068D01*
X72132392Y-106676392D01*
X71953068Y-106894899D01*
X71819818Y-107144192D01*
X71737764Y-107414691D01*
X71710057Y-107696000D01*
X71737764Y-107977309D01*
X71819818Y-108247808D01*
X71953068Y-108497101D01*
X72132392Y-108715608D01*
X72350899Y-108894932D01*
X72600192Y-109028182D01*
X72870691Y-109110236D01*
X73081508Y-109131000D01*
X73222492Y-109131000D01*
X73433309Y-109110236D01*
X73703808Y-109028182D01*
X73953101Y-108894932D01*
X74171608Y-108715608D01*
X74264377Y-108602568D01*
X74285542Y-108642164D01*
X74395208Y-108775792D01*
X74528836Y-108885458D01*
X74681291Y-108966947D01*
X74846715Y-109017128D01*
X75018750Y-109034072D01*
X75506250Y-109034072D01*
X75678285Y-109017128D01*
X75843709Y-108966947D01*
X75996164Y-108885458D01*
X76129792Y-108775792D01*
X76135008Y-108769436D01*
X76198815Y-108847185D01*
X76295506Y-108926537D01*
X76405820Y-108985502D01*
X76525518Y-109021812D01*
X76650000Y-109034072D01*
X76851750Y-109031000D01*
X77010500Y-108872250D01*
X77010500Y-107823000D01*
X76990500Y-107823000D01*
X76990500Y-107569000D01*
X77010500Y-107569000D01*
X77010500Y-106519750D01*
X77264500Y-106519750D01*
X77264500Y-107569000D01*
X78101250Y-107569000D01*
X78260000Y-107410250D01*
X78263072Y-106996000D01*
X78250812Y-106871518D01*
X78214502Y-106751820D01*
X78155537Y-106641506D01*
X78076185Y-106544815D01*
X77979494Y-106465463D01*
X77869180Y-106406498D01*
X77749482Y-106370188D01*
X77625000Y-106357928D01*
X77423250Y-106361000D01*
X77264500Y-106519750D01*
X77010500Y-106519750D01*
X76851750Y-106361000D01*
X76650000Y-106357928D01*
X76525518Y-106370188D01*
X76405820Y-106406498D01*
X76295506Y-106465463D01*
X76198815Y-106544815D01*
X76135008Y-106622564D01*
X76129792Y-106616208D01*
X75996164Y-106506542D01*
X75843709Y-106425053D01*
X75678285Y-106374872D01*
X75506250Y-106357928D01*
X75018750Y-106357928D01*
X74846715Y-106374872D01*
X74681291Y-106425053D01*
X74528836Y-106506542D01*
X74395208Y-106616208D01*
X74285542Y-106749836D01*
X74264377Y-106789432D01*
X74171608Y-106676392D01*
X73953101Y-106497068D01*
X73815318Y-106423421D01*
X74007131Y-106308385D01*
X74215519Y-106119414D01*
X74383037Y-105893420D01*
X74503246Y-105639087D01*
X74543904Y-105505039D01*
X74421915Y-105283000D01*
X73279000Y-105283000D01*
X73279000Y-105303000D01*
X73025000Y-105303000D01*
X73025000Y-105283000D01*
X73005000Y-105283000D01*
X73005000Y-105029000D01*
X73025000Y-105029000D01*
X73025000Y-105009000D01*
X73279000Y-105009000D01*
X73279000Y-105029000D01*
X74421915Y-105029000D01*
X74543904Y-104806961D01*
X74503246Y-104672913D01*
X74383037Y-104418580D01*
X74215519Y-104192586D01*
X74007131Y-104003615D01*
X73815318Y-103888579D01*
X73953101Y-103814932D01*
X74171608Y-103635608D01*
X74268718Y-103517279D01*
X74300652Y-103622553D01*
X74540067Y-104080270D01*
X74864178Y-104482485D01*
X75260530Y-104813740D01*
X75713890Y-105061306D01*
X76206837Y-105215669D01*
X76617000Y-105109190D01*
X76617000Y-102763000D01*
X76871000Y-102763000D01*
X76871000Y-105109190D01*
X77281163Y-105215669D01*
X77774110Y-105061306D01*
X78227470Y-104813740D01*
X78623822Y-104482485D01*
X78947933Y-104080270D01*
X79187348Y-103622553D01*
X79323667Y-103173162D01*
X79216991Y-102763000D01*
X76871000Y-102763000D01*
X76617000Y-102763000D01*
X76597000Y-102763000D01*
X76597000Y-102509000D01*
X76617000Y-102509000D01*
X76617000Y-102489000D01*
X76871000Y-102489000D01*
X76871000Y-102509000D01*
X79216991Y-102509000D01*
X79323667Y-102098838D01*
X79187348Y-101649447D01*
X78947933Y-101191730D01*
X78623822Y-100789515D01*
X78606643Y-100775158D01*
X78613368Y-100768433D01*
X78745291Y-100838947D01*
X78745291Y-100838947D01*
G37*
X78745291Y-100838947D02*
X78910715Y-100889128D01*
X79082750Y-100906072D01*
X79570250Y-100906072D01*
X79628991Y-100900287D01*
X79628991Y-102097508D01*
X79625314Y-102134840D01*
X79639988Y-102283825D01*
X79683444Y-102427086D01*
X79754016Y-102559116D01*
X79800700Y-102616000D01*
X79848990Y-102674841D01*
X79877988Y-102698639D01*
X84459001Y-107279653D01*
X84459001Y-108670606D01*
X84229358Y-108611635D01*
X83927447Y-108595009D01*
X83628093Y-108637603D01*
X83342801Y-108737778D01*
X83193208Y-108817739D01*
X83109525Y-109071920D01*
X83994000Y-109956395D01*
X84008143Y-109942253D01*
X84187748Y-110121858D01*
X84173605Y-110136000D01*
X84187748Y-110150143D01*
X84008143Y-110329748D01*
X83994000Y-110315605D01*
X83979858Y-110329748D01*
X83800253Y-110150143D01*
X83814395Y-110136000D01*
X82929920Y-109251525D01*
X82781738Y-109300310D01*
X82686312Y-109157495D01*
X82472505Y-108943688D01*
X82221095Y-108775701D01*
X81941743Y-108659989D01*
X81645184Y-108601000D01*
X81342816Y-108601000D01*
X81046257Y-108659989D01*
X80766905Y-108775701D01*
X80515495Y-108943688D01*
X80477880Y-108981303D01*
X80424537Y-108881506D01*
X80345185Y-108784815D01*
X80248494Y-108705463D01*
X80138180Y-108646498D01*
X80018482Y-108610188D01*
X79894000Y-108597928D01*
X78227319Y-108597928D01*
X78250812Y-108520482D01*
X78263072Y-108396000D01*
X78260000Y-107981750D01*
X78101250Y-107823000D01*
X77264500Y-107823000D01*
X77264500Y-108872250D01*
X77423250Y-109031000D01*
X77492294Y-109032051D01*
X77468188Y-109111518D01*
X77455928Y-109236000D01*
X77455928Y-111036000D01*
X77468188Y-111160482D01*
X77504498Y-111280180D01*
X77563463Y-111390494D01*
X77642815Y-111487185D01*
X77739506Y-111566537D01*
X77849820Y-111625502D01*
X77969518Y-111661812D01*
X78094000Y-111674072D01*
X79894000Y-111674072D01*
X80018482Y-111661812D01*
X80138180Y-111625502D01*
X80245869Y-111567940D01*
X80212872Y-111676715D01*
X80195928Y-111848750D01*
X80195928Y-112336250D01*
X80212872Y-112508285D01*
X80263053Y-112673709D01*
X80344542Y-112826164D01*
X80454208Y-112959792D01*
X80539756Y-113030000D01*
X80454208Y-113100208D01*
X80344542Y-113233836D01*
X80263053Y-113386291D01*
X80212872Y-113551715D01*
X80195928Y-113723750D01*
X80195928Y-113794000D01*
X72331711Y-113794000D01*
X72287774Y-113750063D01*
X72118256Y-113636795D01*
X71929898Y-113558774D01*
X71729939Y-113519000D01*
X71526061Y-113519000D01*
X71326102Y-113558774D01*
X71137744Y-113636795D01*
X70968226Y-113750063D01*
X70824063Y-113894226D01*
X70727990Y-114038010D01*
X70727990Y-105925260D01*
X70866000Y-105787250D01*
X70866000Y-104950500D01*
X70846000Y-104950500D01*
X70846000Y-104696500D01*
X70866000Y-104696500D01*
X70866000Y-104676500D01*
X71120000Y-104676500D01*
X71120000Y-104696500D01*
X71140000Y-104696500D01*
X71140000Y-104950500D01*
X71120000Y-104950500D01*
X71120000Y-105787250D01*
X71278750Y-105946000D01*
X71693000Y-105949072D01*
X71817482Y-105936812D01*
X71928226Y-105903218D01*
X72088481Y-106119414D01*
X72296869Y-106308385D01*
X72488682Y-106423421D01*
X72350899Y-106497068D01*
X72132392Y-106676392D01*
X71953068Y-106894899D01*
X71819818Y-107144192D01*
X71737764Y-107414691D01*
X71710057Y-107696000D01*
X71737764Y-107977309D01*
X71819818Y-108247808D01*
X71953068Y-108497101D01*
X72132392Y-108715608D01*
X72350899Y-108894932D01*
X72600192Y-109028182D01*
X72870691Y-109110236D01*
X73081508Y-109131000D01*
X73222492Y-109131000D01*
X73433309Y-109110236D01*
X73703808Y-109028182D01*
X73953101Y-108894932D01*
X74171608Y-108715608D01*
X74264377Y-108602568D01*
X74285542Y-108642164D01*
X74395208Y-108775792D01*
X74528836Y-108885458D01*
X74681291Y-108966947D01*
X74846715Y-109017128D01*
X75018750Y-109034072D01*
X75506250Y-109034072D01*
X75678285Y-109017128D01*
X75843709Y-108966947D01*
X75996164Y-108885458D01*
X76129792Y-108775792D01*
X76135008Y-108769436D01*
X76198815Y-108847185D01*
X76295506Y-108926537D01*
X76405820Y-108985502D01*
X76525518Y-109021812D01*
X76650000Y-109034072D01*
X76851750Y-109031000D01*
X77010500Y-108872250D01*
X77010500Y-107823000D01*
X76990500Y-107823000D01*
X76990500Y-107569000D01*
X77010500Y-107569000D01*
X77010500Y-106519750D01*
X77264500Y-106519750D01*
X77264500Y-107569000D01*
X78101250Y-107569000D01*
X78260000Y-107410250D01*
X78263072Y-106996000D01*
X78250812Y-106871518D01*
X78214502Y-106751820D01*
X78155537Y-106641506D01*
X78076185Y-106544815D01*
X77979494Y-106465463D01*
X77869180Y-106406498D01*
X77749482Y-106370188D01*
X77625000Y-106357928D01*
X77423250Y-106361000D01*
X77264500Y-106519750D01*
X77010500Y-106519750D01*
X76851750Y-106361000D01*
X76650000Y-106357928D01*
X76525518Y-106370188D01*
X76405820Y-106406498D01*
X76295506Y-106465463D01*
X76198815Y-106544815D01*
X76135008Y-106622564D01*
X76129792Y-106616208D01*
X75996164Y-106506542D01*
X75843709Y-106425053D01*
X75678285Y-106374872D01*
X75506250Y-106357928D01*
X75018750Y-106357928D01*
X74846715Y-106374872D01*
X74681291Y-106425053D01*
X74528836Y-106506542D01*
X74395208Y-106616208D01*
X74285542Y-106749836D01*
X74264377Y-106789432D01*
X74171608Y-106676392D01*
X73953101Y-106497068D01*
X73815318Y-106423421D01*
X74007131Y-106308385D01*
X74215519Y-106119414D01*
X74383037Y-105893420D01*
X74503246Y-105639087D01*
X74543904Y-105505039D01*
X74421915Y-105283000D01*
X73279000Y-105283000D01*
X73279000Y-105303000D01*
X73025000Y-105303000D01*
X73025000Y-105283000D01*
X73005000Y-105283000D01*
X73005000Y-105029000D01*
X73025000Y-105029000D01*
X73025000Y-105009000D01*
X73279000Y-105009000D01*
X73279000Y-105029000D01*
X74421915Y-105029000D01*
X74543904Y-104806961D01*
X74503246Y-104672913D01*
X74383037Y-104418580D01*
X74215519Y-104192586D01*
X74007131Y-104003615D01*
X73815318Y-103888579D01*
X73953101Y-103814932D01*
X74171608Y-103635608D01*
X74268718Y-103517279D01*
X74300652Y-103622553D01*
X74540067Y-104080270D01*
X74864178Y-104482485D01*
X75260530Y-104813740D01*
X75713890Y-105061306D01*
X76206837Y-105215669D01*
X76617000Y-105109190D01*
X76617000Y-102763000D01*
X76871000Y-102763000D01*
X76871000Y-105109190D01*
X77281163Y-105215669D01*
X77774110Y-105061306D01*
X78227470Y-104813740D01*
X78623822Y-104482485D01*
X78947933Y-104080270D01*
X79187348Y-103622553D01*
X79323667Y-103173162D01*
X79216991Y-102763000D01*
X76871000Y-102763000D01*
X76617000Y-102763000D01*
X76597000Y-102763000D01*
X76597000Y-102509000D01*
X76617000Y-102509000D01*
X76617000Y-102489000D01*
X76871000Y-102489000D01*
X76871000Y-102509000D01*
X79216991Y-102509000D01*
X79323667Y-102098838D01*
X79187348Y-101649447D01*
X78947933Y-101191730D01*
X78623822Y-100789515D01*
X78606643Y-100775158D01*
X78613368Y-100768433D01*
X78745291Y-100838947D01*
G36*
X83693000Y-111965500D02*
G01*
X83713000Y-111965500D01*
X83713000Y-112219500D01*
X83693000Y-112219500D01*
X83693000Y-112239500D01*
X83439000Y-112239500D01*
X83439000Y-112219500D01*
X83419000Y-112219500D01*
X83419000Y-111965500D01*
X83439000Y-111965500D01*
X83439000Y-111945500D01*
X83693000Y-111945500D01*
X83693000Y-111965500D01*
X83693000Y-111965500D01*
G37*
X83693000Y-111965500D02*
X83713000Y-111965500D01*
X83713000Y-112219500D01*
X83693000Y-112219500D01*
X83693000Y-112239500D01*
X83439000Y-112239500D01*
X83439000Y-112219500D01*
X83419000Y-112219500D01*
X83419000Y-111965500D01*
X83439000Y-111965500D01*
X83439000Y-111945500D01*
X83693000Y-111945500D01*
X83693000Y-111965500D01*
G36*
X67818000Y-104696500D02*
G01*
X67838000Y-104696500D01*
X67838000Y-104950500D01*
X67818000Y-104950500D01*
X67818000Y-104970500D01*
X67564000Y-104970500D01*
X67564000Y-104950500D01*
X67544000Y-104950500D01*
X67544000Y-104696500D01*
X67564000Y-104696500D01*
X67564000Y-104676500D01*
X67818000Y-104676500D01*
X67818000Y-104696500D01*
X67818000Y-104696500D01*
G37*
X67818000Y-104696500D02*
X67838000Y-104696500D01*
X67838000Y-104950500D01*
X67818000Y-104950500D01*
X67818000Y-104970500D01*
X67564000Y-104970500D01*
X67564000Y-104950500D01*
X67544000Y-104950500D01*
X67544000Y-104696500D01*
X67564000Y-104696500D01*
X67564000Y-104676500D01*
X67818000Y-104676500D01*
X67818000Y-104696500D01*
G36*
X66595084Y-63031777D02*
G01*
X66680775Y-63314264D01*
X66819931Y-63574606D01*
X67007203Y-63802797D01*
X67235394Y-63990069D01*
X67268940Y-64008000D01*
X67235394Y-64025931D01*
X67007203Y-64213203D01*
X66819931Y-64441394D01*
X66680775Y-64701736D01*
X66595084Y-64984223D01*
X66566149Y-65278000D01*
X66595084Y-65571777D01*
X66680775Y-65854264D01*
X66819931Y-66114606D01*
X67007203Y-66342797D01*
X67235394Y-66530069D01*
X67268940Y-66548000D01*
X67235394Y-66565931D01*
X67007203Y-66753203D01*
X66819931Y-66981394D01*
X66680775Y-67241736D01*
X66595084Y-67524223D01*
X66566149Y-67818000D01*
X66595084Y-68111777D01*
X66680775Y-68394264D01*
X66819931Y-68654606D01*
X67007203Y-68882797D01*
X67235394Y-69070069D01*
X67279910Y-69093863D01*
X67183512Y-69151183D01*
X66965146Y-69347707D01*
X66789316Y-69583056D01*
X66662778Y-69848186D01*
X66617042Y-69998974D01*
X66738183Y-70231000D01*
X67945000Y-70231000D01*
X67945000Y-70211000D01*
X68199000Y-70211000D01*
X68199000Y-70231000D01*
X70485000Y-70231000D01*
X70485000Y-70211000D01*
X70739000Y-70211000D01*
X70739000Y-70231000D01*
X71945817Y-70231000D01*
X72066958Y-69998974D01*
X72021222Y-69848186D01*
X71894684Y-69583056D01*
X71718854Y-69347707D01*
X71500488Y-69151183D01*
X71404090Y-69093863D01*
X71448606Y-69070069D01*
X71676797Y-68882797D01*
X71864069Y-68654606D01*
X71906926Y-68574427D01*
X71982300Y-68567003D01*
X72125561Y-68523546D01*
X72257590Y-68452974D01*
X72373315Y-68358001D01*
X72397118Y-68328997D01*
X75958116Y-64768000D01*
X87867199Y-64768000D01*
X89493928Y-66394730D01*
X89493928Y-68062000D01*
X89510992Y-68235254D01*
X89561528Y-68401850D01*
X89643595Y-68555386D01*
X89754038Y-68689962D01*
X89830813Y-68752969D01*
X89777506Y-68781463D01*
X89680815Y-68860815D01*
X89601463Y-68957506D01*
X89542498Y-69067820D01*
X89506188Y-69187518D01*
X89493928Y-69312000D01*
X89497000Y-70326250D01*
X89655750Y-70485000D01*
X90805000Y-70485000D01*
X90805000Y-70465000D01*
X91059000Y-70465000D01*
X91059000Y-70485000D01*
X91079000Y-70485000D01*
X91079000Y-70739000D01*
X91059000Y-70739000D01*
X91059000Y-73743000D01*
X91079000Y-73743000D01*
X91079000Y-73997000D01*
X91059000Y-73997000D01*
X91059000Y-74017000D01*
X90805000Y-74017000D01*
X90805000Y-73997000D01*
X89655750Y-73997000D01*
X89497000Y-74155750D01*
X89495338Y-74704537D01*
X88955804Y-74165003D01*
X88932001Y-74135999D01*
X88816276Y-74041026D01*
X88684247Y-73970454D01*
X88540986Y-73926997D01*
X88429333Y-73916000D01*
X88429322Y-73916000D01*
X88392000Y-73912324D01*
X88354678Y-73916000D01*
X82045800Y-73916000D01*
X81758755Y-73628956D01*
X81829937Y-73557774D01*
X81943205Y-73388256D01*
X82021226Y-73199898D01*
X82061000Y-72999939D01*
X82061000Y-72940671D01*
X82074001Y-72930001D01*
X82168974Y-72814276D01*
X82239546Y-72682247D01*
X82255434Y-72629872D01*
X82327709Y-72607947D01*
X82480164Y-72526458D01*
X82550000Y-72469145D01*
X82619836Y-72526458D01*
X82772291Y-72607947D01*
X82937715Y-72658128D01*
X83109750Y-72675072D01*
X84022250Y-72675072D01*
X84194285Y-72658128D01*
X84359709Y-72607947D01*
X84512164Y-72526458D01*
X84645792Y-72416792D01*
X84755458Y-72283164D01*
X84836947Y-72130709D01*
X84887128Y-71965285D01*
X84892376Y-71912000D01*
X89493928Y-71912000D01*
X89506188Y-72036482D01*
X89542498Y-72156180D01*
X89587836Y-72241000D01*
X89542498Y-72325820D01*
X89506188Y-72445518D01*
X89493928Y-72570000D01*
X89497000Y-73584250D01*
X89655750Y-73743000D01*
X90805000Y-73743000D01*
X90805000Y-70739000D01*
X89655750Y-70739000D01*
X89497000Y-70897750D01*
X89493928Y-71912000D01*
X84892376Y-71912000D01*
X84904072Y-71793250D01*
X84904072Y-71305750D01*
X84887128Y-71133715D01*
X84836947Y-70968291D01*
X84755458Y-70815836D01*
X84645792Y-70682208D01*
X84639436Y-70676992D01*
X84717185Y-70613185D01*
X84796537Y-70516494D01*
X84855502Y-70406180D01*
X84891812Y-70286482D01*
X84904072Y-70162000D01*
X84901000Y-69960250D01*
X84742250Y-69801500D01*
X83693000Y-69801500D01*
X83693000Y-69821500D01*
X83439000Y-69821500D01*
X83439000Y-69801500D01*
X83419000Y-69801500D01*
X83419000Y-69547500D01*
X83439000Y-69547500D01*
X83439000Y-69527500D01*
X83693000Y-69527500D01*
X83693000Y-69547500D01*
X84742250Y-69547500D01*
X84901000Y-69388750D01*
X84904072Y-69187000D01*
X84891812Y-69062518D01*
X84855502Y-68942820D01*
X84836970Y-68908149D01*
X84878475Y-68782080D01*
X83994000Y-67897605D01*
X83979858Y-67911748D01*
X83800253Y-67732143D01*
X83814395Y-67718000D01*
X84173605Y-67718000D01*
X85058080Y-68602475D01*
X85312261Y-68518792D01*
X85443158Y-68246225D01*
X85518365Y-67953358D01*
X85534991Y-67651447D01*
X85492397Y-67352093D01*
X85392222Y-67066801D01*
X85312261Y-66917208D01*
X85058080Y-66833525D01*
X84173605Y-67718000D01*
X83814395Y-67718000D01*
X82929920Y-66833525D01*
X82781738Y-66882310D01*
X82686312Y-66739495D01*
X82600737Y-66653920D01*
X83109525Y-66653920D01*
X83994000Y-67538395D01*
X84878475Y-66653920D01*
X84794792Y-66399739D01*
X84522225Y-66268842D01*
X84229358Y-66193635D01*
X83927447Y-66177009D01*
X83628093Y-66219603D01*
X83342801Y-66319778D01*
X83193208Y-66399739D01*
X83109525Y-66653920D01*
X82600737Y-66653920D01*
X82472505Y-66525688D01*
X82221095Y-66357701D01*
X81941743Y-66241989D01*
X81645184Y-66183000D01*
X81342816Y-66183000D01*
X81046257Y-66241989D01*
X80766905Y-66357701D01*
X80515495Y-66525688D01*
X80477880Y-66563303D01*
X80424537Y-66463506D01*
X80345185Y-66366815D01*
X80248494Y-66287463D01*
X80138180Y-66228498D01*
X80018482Y-66192188D01*
X79894000Y-66179928D01*
X78094000Y-66179928D01*
X77969518Y-66192188D01*
X77849820Y-66228498D01*
X77739506Y-66287463D01*
X77642815Y-66366815D01*
X77563463Y-66463506D01*
X77504498Y-66573820D01*
X77468188Y-66693518D01*
X77455928Y-66818000D01*
X77455928Y-68618000D01*
X77468188Y-68742482D01*
X77504498Y-68862180D01*
X77563463Y-68972494D01*
X77642815Y-69069185D01*
X77739506Y-69148537D01*
X77849820Y-69207502D01*
X77969518Y-69243812D01*
X78094000Y-69256072D01*
X78234000Y-69256072D01*
X78234001Y-71901670D01*
X78230324Y-71939002D01*
X78234001Y-71976335D01*
X78244998Y-72087988D01*
X78254349Y-72118815D01*
X78288454Y-72231248D01*
X78359026Y-72363278D01*
X78430201Y-72450004D01*
X78454000Y-72479003D01*
X78482998Y-72502801D01*
X81167198Y-75187002D01*
X81190997Y-75216001D01*
X81306722Y-75310974D01*
X81438751Y-75381546D01*
X81582012Y-75425003D01*
X81693665Y-75436000D01*
X81693673Y-75436000D01*
X81730998Y-75439676D01*
X81768323Y-75436000D01*
X88077199Y-75436000D01*
X89493928Y-76852730D01*
X89493928Y-77218000D01*
X71905016Y-77218000D01*
X71864069Y-77141394D01*
X71676797Y-76913203D01*
X71448606Y-76725931D01*
X71404090Y-76702137D01*
X71500488Y-76644817D01*
X71718854Y-76448293D01*
X71894684Y-76212944D01*
X72021222Y-75947814D01*
X72066958Y-75797026D01*
X71945817Y-75565000D01*
X70739000Y-75565000D01*
X70739000Y-75585000D01*
X70485000Y-75585000D01*
X70485000Y-75565000D01*
X68199000Y-75565000D01*
X68199000Y-75585000D01*
X67945000Y-75585000D01*
X67945000Y-75565000D01*
X66738183Y-75565000D01*
X66617042Y-75797026D01*
X66662778Y-75947814D01*
X66789316Y-76212944D01*
X66965146Y-76448293D01*
X67028574Y-76505376D01*
X66964220Y-76524898D01*
X66853906Y-76583863D01*
X66757215Y-76663215D01*
X66677863Y-76759906D01*
X66618898Y-76870220D01*
X66582588Y-76989918D01*
X66570328Y-77114400D01*
X66570328Y-78841600D01*
X66582588Y-78966082D01*
X66618898Y-79085780D01*
X66677863Y-79196094D01*
X66757215Y-79292785D01*
X66853906Y-79372137D01*
X66964220Y-79431102D01*
X67083918Y-79467412D01*
X67208400Y-79479672D01*
X68935600Y-79479672D01*
X69060082Y-79467412D01*
X69179780Y-79431102D01*
X69290094Y-79372137D01*
X69386785Y-79292785D01*
X69466137Y-79196094D01*
X69525102Y-79085780D01*
X69540586Y-79034735D01*
X69547203Y-79042797D01*
X69775394Y-79230069D01*
X70035736Y-79369225D01*
X70318223Y-79454916D01*
X70538381Y-79476600D01*
X70685619Y-79476600D01*
X70905777Y-79454916D01*
X71188264Y-79369225D01*
X71448606Y-79230069D01*
X71676797Y-79042797D01*
X71864069Y-78814606D01*
X71905016Y-78738000D01*
X75499071Y-78738000D01*
X75260530Y-78868260D01*
X74864178Y-79199515D01*
X74540067Y-79601730D01*
X74300652Y-80059447D01*
X74164333Y-80508838D01*
X74271009Y-80919000D01*
X76617000Y-80919000D01*
X76617000Y-80899000D01*
X76871000Y-80899000D01*
X76871000Y-80919000D01*
X79216991Y-80919000D01*
X79323667Y-80508838D01*
X79187348Y-80059447D01*
X78947933Y-79601730D01*
X78623822Y-79199515D01*
X78227470Y-78868260D01*
X77988929Y-78738000D01*
X84999071Y-78738000D01*
X84760530Y-78868260D01*
X84364178Y-79199515D01*
X84040067Y-79601730D01*
X83800652Y-80059447D01*
X83664333Y-80508838D01*
X83771009Y-80919000D01*
X86117000Y-80919000D01*
X86117000Y-80899000D01*
X86371000Y-80899000D01*
X86371000Y-80919000D01*
X88716991Y-80919000D01*
X88823667Y-80508838D01*
X88687348Y-80059447D01*
X88447933Y-79601730D01*
X88123822Y-79199515D01*
X87727470Y-78868260D01*
X87488929Y-78738000D01*
X89524565Y-78738000D01*
X89561528Y-78859850D01*
X89643595Y-79013386D01*
X89754038Y-79147962D01*
X89888614Y-79258405D01*
X90042150Y-79340472D01*
X90208746Y-79391008D01*
X90382000Y-79408072D01*
X90426001Y-79408072D01*
X90426000Y-81981198D01*
X87041199Y-85366000D01*
X80301322Y-85366000D01*
X80263999Y-85362324D01*
X80226676Y-85366000D01*
X80226667Y-85366000D01*
X80115014Y-85376997D01*
X79971753Y-85420454D01*
X79839724Y-85491026D01*
X79723999Y-85585999D01*
X79700201Y-85614997D01*
X78483003Y-86832196D01*
X78453999Y-86855999D01*
X78398871Y-86923174D01*
X78359026Y-86971724D01*
X78339674Y-87007928D01*
X78094000Y-87007928D01*
X77969518Y-87020188D01*
X77849820Y-87056498D01*
X77739506Y-87115463D01*
X77642815Y-87194815D01*
X77563463Y-87291506D01*
X77504498Y-87401820D01*
X77468188Y-87521518D01*
X77455928Y-87646000D01*
X77455928Y-89446000D01*
X77468188Y-89570482D01*
X77504498Y-89690180D01*
X77563463Y-89800494D01*
X77642815Y-89897185D01*
X77739506Y-89976537D01*
X77849820Y-90035502D01*
X77969518Y-90071812D01*
X78094000Y-90084072D01*
X78234001Y-90084072D01*
X78234000Y-94450677D01*
X78230324Y-94488000D01*
X78234000Y-94525322D01*
X78234000Y-94525332D01*
X78244997Y-94636985D01*
X78272910Y-94729002D01*
X78288454Y-94780246D01*
X78359026Y-94912276D01*
X78398871Y-94960826D01*
X78453999Y-95028001D01*
X78483002Y-95051804D01*
X80441501Y-97010304D01*
X80441501Y-98103849D01*
X79870654Y-97533002D01*
X79846851Y-97503999D01*
X79731126Y-97409026D01*
X79599097Y-97338454D01*
X79455836Y-97294997D01*
X79344183Y-97284000D01*
X79344172Y-97284000D01*
X79306850Y-97280324D01*
X79269528Y-97284000D01*
X78460173Y-97284000D01*
X78449947Y-97250291D01*
X78368458Y-97097836D01*
X78258792Y-96964208D01*
X78125164Y-96854542D01*
X77972709Y-96773053D01*
X77807285Y-96722872D01*
X77635250Y-96705928D01*
X77147750Y-96705928D01*
X76975715Y-96722872D01*
X76810291Y-96773053D01*
X76657836Y-96854542D01*
X76524208Y-96964208D01*
X76454000Y-97049756D01*
X76383792Y-96964208D01*
X76250164Y-96854542D01*
X76097709Y-96773053D01*
X75932285Y-96722872D01*
X75760250Y-96705928D01*
X75272750Y-96705928D01*
X75100715Y-96722872D01*
X74935291Y-96773053D01*
X74782836Y-96854542D01*
X74649208Y-96964208D01*
X74539542Y-97097836D01*
X74526217Y-97122765D01*
X74484182Y-96984192D01*
X74350932Y-96734899D01*
X74171608Y-96516392D01*
X73953101Y-96337068D01*
X73820142Y-96266000D01*
X73953101Y-96194932D01*
X74171608Y-96015608D01*
X74350932Y-95797101D01*
X74484182Y-95547808D01*
X74566236Y-95277309D01*
X74593943Y-94996000D01*
X74566236Y-94714691D01*
X74484182Y-94444192D01*
X74382968Y-94254834D01*
X74788003Y-93849799D01*
X74817002Y-93826000D01*
X74894142Y-93732005D01*
X74911975Y-93710276D01*
X74982547Y-93578246D01*
X75013681Y-93475608D01*
X75026004Y-93434985D01*
X75037001Y-93323332D01*
X75037001Y-93323322D01*
X75040677Y-93285999D01*
X75037001Y-93248676D01*
X75037001Y-90028323D01*
X75040677Y-89991000D01*
X75037001Y-89953678D01*
X75037001Y-89953668D01*
X75026004Y-89842015D01*
X74982547Y-89698754D01*
X74911975Y-89566725D01*
X74817002Y-89451000D01*
X74788003Y-89427201D01*
X74765802Y-89405000D01*
X74742001Y-89375999D01*
X74626276Y-89281026D01*
X74590072Y-89261674D01*
X74590072Y-89116000D01*
X74577812Y-88991518D01*
X74541502Y-88871820D01*
X74482537Y-88761506D01*
X74403185Y-88664815D01*
X74306494Y-88585463D01*
X74196180Y-88526498D01*
X74076482Y-88490188D01*
X73952000Y-88477928D01*
X73912000Y-88477928D01*
X73912000Y-88366173D01*
X73945709Y-88355947D01*
X74098164Y-88274458D01*
X74231792Y-88164792D01*
X74341458Y-88031164D01*
X74422947Y-87878709D01*
X74473128Y-87713285D01*
X74490072Y-87541250D01*
X74490072Y-87053750D01*
X74473128Y-86881715D01*
X74422947Y-86716291D01*
X74341458Y-86563836D01*
X74231792Y-86430208D01*
X74225436Y-86424992D01*
X74303185Y-86361185D01*
X74382537Y-86264494D01*
X74441502Y-86154180D01*
X74477812Y-86034482D01*
X74490072Y-85910000D01*
X74487000Y-85708250D01*
X74328250Y-85549500D01*
X73279000Y-85549500D01*
X73279000Y-85569500D01*
X73025000Y-85569500D01*
X73025000Y-85549500D01*
X71975750Y-85549500D01*
X71817000Y-85708250D01*
X71813928Y-85910000D01*
X71826188Y-86034482D01*
X71862498Y-86154180D01*
X71921463Y-86264494D01*
X72000815Y-86361185D01*
X72078564Y-86424992D01*
X72072208Y-86430208D01*
X71962542Y-86563836D01*
X71881053Y-86716291D01*
X71830872Y-86881715D01*
X71813928Y-87053750D01*
X71813928Y-87541250D01*
X71830872Y-87713285D01*
X71881053Y-87878709D01*
X71962542Y-88031164D01*
X72072208Y-88164792D01*
X72205836Y-88274458D01*
X72358291Y-88355947D01*
X72392001Y-88366173D01*
X72392001Y-88477928D01*
X72352000Y-88477928D01*
X72227518Y-88490188D01*
X72107820Y-88526498D01*
X71997506Y-88585463D01*
X71900815Y-88664815D01*
X71821463Y-88761506D01*
X71762498Y-88871820D01*
X71726188Y-88991518D01*
X71713928Y-89116000D01*
X71713928Y-90716000D01*
X71726188Y-90840482D01*
X71762498Y-90960180D01*
X71821463Y-91070494D01*
X71900815Y-91167185D01*
X71997506Y-91246537D01*
X72107820Y-91305502D01*
X72227518Y-91341812D01*
X72245482Y-91343581D01*
X72132392Y-91436392D01*
X71953068Y-91654899D01*
X71933379Y-91691735D01*
X71924447Y-91662291D01*
X71842958Y-91509836D01*
X71733292Y-91376208D01*
X71599664Y-91266542D01*
X71447209Y-91185053D01*
X71281785Y-91134872D01*
X71109750Y-91117928D01*
X70622250Y-91117928D01*
X70450215Y-91134872D01*
X70284791Y-91185053D01*
X70132336Y-91266542D01*
X69998708Y-91376208D01*
X69928500Y-91461756D01*
X69858292Y-91376208D01*
X69724664Y-91266542D01*
X69572209Y-91185053D01*
X69406785Y-91134872D01*
X69234750Y-91117928D01*
X68747250Y-91117928D01*
X68575215Y-91134872D01*
X68409791Y-91185053D01*
X68257336Y-91266542D01*
X68123708Y-91376208D01*
X68014042Y-91509836D01*
X67932553Y-91662291D01*
X67882372Y-91827715D01*
X67865428Y-91999750D01*
X67865428Y-92912250D01*
X67882372Y-93084285D01*
X67932553Y-93249709D01*
X68014042Y-93402164D01*
X68123708Y-93535792D01*
X68231001Y-93623845D01*
X68231000Y-97717219D01*
X68205008Y-97743211D01*
X68176010Y-97767009D01*
X68152212Y-97796007D01*
X68152211Y-97796008D01*
X68081036Y-97882734D01*
X68010464Y-98014764D01*
X67988875Y-98085937D01*
X67967008Y-98158024D01*
X67959926Y-98229928D01*
X67952334Y-98307010D01*
X67956011Y-98344342D01*
X67956010Y-101822928D01*
X67234750Y-101822928D01*
X67062715Y-101839872D01*
X67009548Y-101856000D01*
X66752901Y-101856000D01*
X66730932Y-101814899D01*
X66551608Y-101596392D01*
X66333101Y-101417068D01*
X66200142Y-101346000D01*
X66333101Y-101274932D01*
X66551608Y-101095608D01*
X66730932Y-100877101D01*
X66864182Y-100627808D01*
X66946236Y-100357309D01*
X66973943Y-100076000D01*
X66946236Y-99794691D01*
X66864182Y-99524192D01*
X66730932Y-99274899D01*
X66551608Y-99056392D01*
X66333101Y-98877068D01*
X66200142Y-98806000D01*
X66333101Y-98734932D01*
X66551608Y-98555608D01*
X66730932Y-98337101D01*
X66864182Y-98087808D01*
X66946236Y-97817309D01*
X66973943Y-97536000D01*
X66946236Y-97254691D01*
X66864182Y-96984192D01*
X66730932Y-96734899D01*
X66551608Y-96516392D01*
X66333101Y-96337068D01*
X66195318Y-96263421D01*
X66387131Y-96148385D01*
X66595519Y-95959414D01*
X66763037Y-95733420D01*
X66883246Y-95479087D01*
X66923904Y-95345039D01*
X66801915Y-95123000D01*
X65659000Y-95123000D01*
X65659000Y-95143000D01*
X65405000Y-95143000D01*
X65405000Y-95123000D01*
X65385000Y-95123000D01*
X65385000Y-94869000D01*
X65405000Y-94869000D01*
X65405000Y-94849000D01*
X65659000Y-94849000D01*
X65659000Y-94869000D01*
X66801915Y-94869000D01*
X66923904Y-94646961D01*
X66883246Y-94512913D01*
X66763037Y-94258580D01*
X66595519Y-94032586D01*
X66387131Y-93843615D01*
X66195318Y-93728579D01*
X66333101Y-93654932D01*
X66551608Y-93475608D01*
X66730932Y-93257101D01*
X66864182Y-93007808D01*
X66946236Y-92737309D01*
X66973943Y-92456000D01*
X66946236Y-92174691D01*
X66864182Y-91904192D01*
X66730932Y-91654899D01*
X66551608Y-91436392D01*
X66333101Y-91257068D01*
X66200142Y-91186000D01*
X66333101Y-91114932D01*
X66551608Y-90935608D01*
X66730932Y-90717101D01*
X66864182Y-90467808D01*
X66946236Y-90197309D01*
X66973943Y-89916000D01*
X66946236Y-89634691D01*
X66864182Y-89364192D01*
X66730932Y-89114899D01*
X66551608Y-88896392D01*
X66333101Y-88717068D01*
X66083808Y-88583818D01*
X65813309Y-88501764D01*
X65602492Y-88481000D01*
X65461508Y-88481000D01*
X65250691Y-88501764D01*
X64980192Y-88583818D01*
X64864010Y-88645919D01*
X64864010Y-84935000D01*
X71813928Y-84935000D01*
X71817000Y-85136750D01*
X71975750Y-85295500D01*
X73025000Y-85295500D01*
X73025000Y-84458750D01*
X73279000Y-84458750D01*
X73279000Y-85295500D01*
X74328250Y-85295500D01*
X74487000Y-85136750D01*
X74490072Y-84935000D01*
X74477812Y-84810518D01*
X74441502Y-84690820D01*
X74382537Y-84580506D01*
X74303185Y-84483815D01*
X74206494Y-84404463D01*
X74096180Y-84345498D01*
X73976482Y-84309188D01*
X73852000Y-84296928D01*
X73437750Y-84300000D01*
X73279000Y-84458750D01*
X73025000Y-84458750D01*
X72866250Y-84300000D01*
X72452000Y-84296928D01*
X72327518Y-84309188D01*
X72207820Y-84345498D01*
X72097506Y-84404463D01*
X72000815Y-84483815D01*
X71921463Y-84580506D01*
X71862498Y-84690820D01*
X71826188Y-84810518D01*
X71813928Y-84935000D01*
X64864010Y-84935000D01*
X64864010Y-81583162D01*
X74164333Y-81583162D01*
X74300652Y-82032553D01*
X74540067Y-82490270D01*
X74864178Y-82892485D01*
X75260530Y-83223740D01*
X75713890Y-83471306D01*
X76206837Y-83625669D01*
X76617000Y-83519190D01*
X76617000Y-81173000D01*
X76871000Y-81173000D01*
X76871000Y-83519190D01*
X77281163Y-83625669D01*
X77774110Y-83471306D01*
X78227470Y-83223740D01*
X78623822Y-82892485D01*
X78947933Y-82490270D01*
X79187348Y-82032553D01*
X79323667Y-81583162D01*
X83664333Y-81583162D01*
X83800652Y-82032553D01*
X84040067Y-82490270D01*
X84364178Y-82892485D01*
X84760530Y-83223740D01*
X85213890Y-83471306D01*
X85706837Y-83625669D01*
X86117000Y-83519190D01*
X86117000Y-81173000D01*
X86371000Y-81173000D01*
X86371000Y-83519190D01*
X86781163Y-83625669D01*
X87274110Y-83471306D01*
X87727470Y-83223740D01*
X88123822Y-82892485D01*
X88447933Y-82490270D01*
X88687348Y-82032553D01*
X88823667Y-81583162D01*
X88716991Y-81173000D01*
X86371000Y-81173000D01*
X86117000Y-81173000D01*
X83771009Y-81173000D01*
X83664333Y-81583162D01*
X79323667Y-81583162D01*
X79216991Y-81173000D01*
X76871000Y-81173000D01*
X76617000Y-81173000D01*
X74271009Y-81173000D01*
X74164333Y-81583162D01*
X64864010Y-81583162D01*
X64864010Y-73257026D01*
X66617042Y-73257026D01*
X66662778Y-73407814D01*
X66789316Y-73672944D01*
X66965146Y-73908293D01*
X67183512Y-74104817D01*
X67289770Y-74168000D01*
X67183512Y-74231183D01*
X66965146Y-74427707D01*
X66789316Y-74663056D01*
X66662778Y-74928186D01*
X66617042Y-75078974D01*
X66738183Y-75311000D01*
X67945000Y-75311000D01*
X67945000Y-73025000D01*
X68199000Y-73025000D01*
X68199000Y-75311000D01*
X70485000Y-75311000D01*
X70485000Y-73025000D01*
X70739000Y-73025000D01*
X70739000Y-75311000D01*
X71945817Y-75311000D01*
X72066958Y-75078974D01*
X72021222Y-74928186D01*
X71894684Y-74663056D01*
X71718854Y-74427707D01*
X71500488Y-74231183D01*
X71394230Y-74168000D01*
X71500488Y-74104817D01*
X71718854Y-73908293D01*
X71894684Y-73672944D01*
X72021222Y-73407814D01*
X72066958Y-73257026D01*
X71945817Y-73025000D01*
X70739000Y-73025000D01*
X70485000Y-73025000D01*
X68199000Y-73025000D01*
X67945000Y-73025000D01*
X66738183Y-73025000D01*
X66617042Y-73257026D01*
X64864010Y-73257026D01*
X64864010Y-70717026D01*
X66617042Y-70717026D01*
X66662778Y-70867814D01*
X66789316Y-71132944D01*
X66965146Y-71368293D01*
X67183512Y-71564817D01*
X67289770Y-71628000D01*
X67183512Y-71691183D01*
X66965146Y-71887707D01*
X66789316Y-72123056D01*
X66662778Y-72388186D01*
X66617042Y-72538974D01*
X66738183Y-72771000D01*
X67945000Y-72771000D01*
X67945000Y-70485000D01*
X68199000Y-70485000D01*
X68199000Y-72771000D01*
X70485000Y-72771000D01*
X70485000Y-70485000D01*
X70739000Y-70485000D01*
X70739000Y-72771000D01*
X71945817Y-72771000D01*
X72066958Y-72538974D01*
X72021222Y-72388186D01*
X71894684Y-72123056D01*
X71718854Y-71887707D01*
X71500488Y-71691183D01*
X71394230Y-71628000D01*
X71500488Y-71564817D01*
X71718854Y-71368293D01*
X71894684Y-71132944D01*
X72021222Y-70867814D01*
X72066958Y-70717026D01*
X71945817Y-70485000D01*
X70739000Y-70485000D01*
X70485000Y-70485000D01*
X68199000Y-70485000D01*
X67945000Y-70485000D01*
X66738183Y-70485000D01*
X66617042Y-70717026D01*
X64864010Y-70717026D01*
X64864010Y-64480791D01*
X66569794Y-62775008D01*
X66595084Y-63031777D01*
X66595084Y-63031777D01*
G37*
X66595084Y-63031777D02*
X66680775Y-63314264D01*
X66819931Y-63574606D01*
X67007203Y-63802797D01*
X67235394Y-63990069D01*
X67268940Y-64008000D01*
X67235394Y-64025931D01*
X67007203Y-64213203D01*
X66819931Y-64441394D01*
X66680775Y-64701736D01*
X66595084Y-64984223D01*
X66566149Y-65278000D01*
X66595084Y-65571777D01*
X66680775Y-65854264D01*
X66819931Y-66114606D01*
X67007203Y-66342797D01*
X67235394Y-66530069D01*
X67268940Y-66548000D01*
X67235394Y-66565931D01*
X67007203Y-66753203D01*
X66819931Y-66981394D01*
X66680775Y-67241736D01*
X66595084Y-67524223D01*
X66566149Y-67818000D01*
X66595084Y-68111777D01*
X66680775Y-68394264D01*
X66819931Y-68654606D01*
X67007203Y-68882797D01*
X67235394Y-69070069D01*
X67279910Y-69093863D01*
X67183512Y-69151183D01*
X66965146Y-69347707D01*
X66789316Y-69583056D01*
X66662778Y-69848186D01*
X66617042Y-69998974D01*
X66738183Y-70231000D01*
X67945000Y-70231000D01*
X67945000Y-70211000D01*
X68199000Y-70211000D01*
X68199000Y-70231000D01*
X70485000Y-70231000D01*
X70485000Y-70211000D01*
X70739000Y-70211000D01*
X70739000Y-70231000D01*
X71945817Y-70231000D01*
X72066958Y-69998974D01*
X72021222Y-69848186D01*
X71894684Y-69583056D01*
X71718854Y-69347707D01*
X71500488Y-69151183D01*
X71404090Y-69093863D01*
X71448606Y-69070069D01*
X71676797Y-68882797D01*
X71864069Y-68654606D01*
X71906926Y-68574427D01*
X71982300Y-68567003D01*
X72125561Y-68523546D01*
X72257590Y-68452974D01*
X72373315Y-68358001D01*
X72397118Y-68328997D01*
X75958116Y-64768000D01*
X87867199Y-64768000D01*
X89493928Y-66394730D01*
X89493928Y-68062000D01*
X89510992Y-68235254D01*
X89561528Y-68401850D01*
X89643595Y-68555386D01*
X89754038Y-68689962D01*
X89830813Y-68752969D01*
X89777506Y-68781463D01*
X89680815Y-68860815D01*
X89601463Y-68957506D01*
X89542498Y-69067820D01*
X89506188Y-69187518D01*
X89493928Y-69312000D01*
X89497000Y-70326250D01*
X89655750Y-70485000D01*
X90805000Y-70485000D01*
X90805000Y-70465000D01*
X91059000Y-70465000D01*
X91059000Y-70485000D01*
X91079000Y-70485000D01*
X91079000Y-70739000D01*
X91059000Y-70739000D01*
X91059000Y-73743000D01*
X91079000Y-73743000D01*
X91079000Y-73997000D01*
X91059000Y-73997000D01*
X91059000Y-74017000D01*
X90805000Y-74017000D01*
X90805000Y-73997000D01*
X89655750Y-73997000D01*
X89497000Y-74155750D01*
X89495338Y-74704537D01*
X88955804Y-74165003D01*
X88932001Y-74135999D01*
X88816276Y-74041026D01*
X88684247Y-73970454D01*
X88540986Y-73926997D01*
X88429333Y-73916000D01*
X88429322Y-73916000D01*
X88392000Y-73912324D01*
X88354678Y-73916000D01*
X82045800Y-73916000D01*
X81758755Y-73628956D01*
X81829937Y-73557774D01*
X81943205Y-73388256D01*
X82021226Y-73199898D01*
X82061000Y-72999939D01*
X82061000Y-72940671D01*
X82074001Y-72930001D01*
X82168974Y-72814276D01*
X82239546Y-72682247D01*
X82255434Y-72629872D01*
X82327709Y-72607947D01*
X82480164Y-72526458D01*
X82550000Y-72469145D01*
X82619836Y-72526458D01*
X82772291Y-72607947D01*
X82937715Y-72658128D01*
X83109750Y-72675072D01*
X84022250Y-72675072D01*
X84194285Y-72658128D01*
X84359709Y-72607947D01*
X84512164Y-72526458D01*
X84645792Y-72416792D01*
X84755458Y-72283164D01*
X84836947Y-72130709D01*
X84887128Y-71965285D01*
X84892376Y-71912000D01*
X89493928Y-71912000D01*
X89506188Y-72036482D01*
X89542498Y-72156180D01*
X89587836Y-72241000D01*
X89542498Y-72325820D01*
X89506188Y-72445518D01*
X89493928Y-72570000D01*
X89497000Y-73584250D01*
X89655750Y-73743000D01*
X90805000Y-73743000D01*
X90805000Y-70739000D01*
X89655750Y-70739000D01*
X89497000Y-70897750D01*
X89493928Y-71912000D01*
X84892376Y-71912000D01*
X84904072Y-71793250D01*
X84904072Y-71305750D01*
X84887128Y-71133715D01*
X84836947Y-70968291D01*
X84755458Y-70815836D01*
X84645792Y-70682208D01*
X84639436Y-70676992D01*
X84717185Y-70613185D01*
X84796537Y-70516494D01*
X84855502Y-70406180D01*
X84891812Y-70286482D01*
X84904072Y-70162000D01*
X84901000Y-69960250D01*
X84742250Y-69801500D01*
X83693000Y-69801500D01*
X83693000Y-69821500D01*
X83439000Y-69821500D01*
X83439000Y-69801500D01*
X83419000Y-69801500D01*
X83419000Y-69547500D01*
X83439000Y-69547500D01*
X83439000Y-69527500D01*
X83693000Y-69527500D01*
X83693000Y-69547500D01*
X84742250Y-69547500D01*
X84901000Y-69388750D01*
X84904072Y-69187000D01*
X84891812Y-69062518D01*
X84855502Y-68942820D01*
X84836970Y-68908149D01*
X84878475Y-68782080D01*
X83994000Y-67897605D01*
X83979858Y-67911748D01*
X83800253Y-67732143D01*
X83814395Y-67718000D01*
X84173605Y-67718000D01*
X85058080Y-68602475D01*
X85312261Y-68518792D01*
X85443158Y-68246225D01*
X85518365Y-67953358D01*
X85534991Y-67651447D01*
X85492397Y-67352093D01*
X85392222Y-67066801D01*
X85312261Y-66917208D01*
X85058080Y-66833525D01*
X84173605Y-67718000D01*
X83814395Y-67718000D01*
X82929920Y-66833525D01*
X82781738Y-66882310D01*
X82686312Y-66739495D01*
X82600737Y-66653920D01*
X83109525Y-66653920D01*
X83994000Y-67538395D01*
X84878475Y-66653920D01*
X84794792Y-66399739D01*
X84522225Y-66268842D01*
X84229358Y-66193635D01*
X83927447Y-66177009D01*
X83628093Y-66219603D01*
X83342801Y-66319778D01*
X83193208Y-66399739D01*
X83109525Y-66653920D01*
X82600737Y-66653920D01*
X82472505Y-66525688D01*
X82221095Y-66357701D01*
X81941743Y-66241989D01*
X81645184Y-66183000D01*
X81342816Y-66183000D01*
X81046257Y-66241989D01*
X80766905Y-66357701D01*
X80515495Y-66525688D01*
X80477880Y-66563303D01*
X80424537Y-66463506D01*
X80345185Y-66366815D01*
X80248494Y-66287463D01*
X80138180Y-66228498D01*
X80018482Y-66192188D01*
X79894000Y-66179928D01*
X78094000Y-66179928D01*
X77969518Y-66192188D01*
X77849820Y-66228498D01*
X77739506Y-66287463D01*
X77642815Y-66366815D01*
X77563463Y-66463506D01*
X77504498Y-66573820D01*
X77468188Y-66693518D01*
X77455928Y-66818000D01*
X77455928Y-68618000D01*
X77468188Y-68742482D01*
X77504498Y-68862180D01*
X77563463Y-68972494D01*
X77642815Y-69069185D01*
X77739506Y-69148537D01*
X77849820Y-69207502D01*
X77969518Y-69243812D01*
X78094000Y-69256072D01*
X78234000Y-69256072D01*
X78234001Y-71901670D01*
X78230324Y-71939002D01*
X78234001Y-71976335D01*
X78244998Y-72087988D01*
X78254349Y-72118815D01*
X78288454Y-72231248D01*
X78359026Y-72363278D01*
X78430201Y-72450004D01*
X78454000Y-72479003D01*
X78482998Y-72502801D01*
X81167198Y-75187002D01*
X81190997Y-75216001D01*
X81306722Y-75310974D01*
X81438751Y-75381546D01*
X81582012Y-75425003D01*
X81693665Y-75436000D01*
X81693673Y-75436000D01*
X81730998Y-75439676D01*
X81768323Y-75436000D01*
X88077199Y-75436000D01*
X89493928Y-76852730D01*
X89493928Y-77218000D01*
X71905016Y-77218000D01*
X71864069Y-77141394D01*
X71676797Y-76913203D01*
X71448606Y-76725931D01*
X71404090Y-76702137D01*
X71500488Y-76644817D01*
X71718854Y-76448293D01*
X71894684Y-76212944D01*
X72021222Y-75947814D01*
X72066958Y-75797026D01*
X71945817Y-75565000D01*
X70739000Y-75565000D01*
X70739000Y-75585000D01*
X70485000Y-75585000D01*
X70485000Y-75565000D01*
X68199000Y-75565000D01*
X68199000Y-75585000D01*
X67945000Y-75585000D01*
X67945000Y-75565000D01*
X66738183Y-75565000D01*
X66617042Y-75797026D01*
X66662778Y-75947814D01*
X66789316Y-76212944D01*
X66965146Y-76448293D01*
X67028574Y-76505376D01*
X66964220Y-76524898D01*
X66853906Y-76583863D01*
X66757215Y-76663215D01*
X66677863Y-76759906D01*
X66618898Y-76870220D01*
X66582588Y-76989918D01*
X66570328Y-77114400D01*
X66570328Y-78841600D01*
X66582588Y-78966082D01*
X66618898Y-79085780D01*
X66677863Y-79196094D01*
X66757215Y-79292785D01*
X66853906Y-79372137D01*
X66964220Y-79431102D01*
X67083918Y-79467412D01*
X67208400Y-79479672D01*
X68935600Y-79479672D01*
X69060082Y-79467412D01*
X69179780Y-79431102D01*
X69290094Y-79372137D01*
X69386785Y-79292785D01*
X69466137Y-79196094D01*
X69525102Y-79085780D01*
X69540586Y-79034735D01*
X69547203Y-79042797D01*
X69775394Y-79230069D01*
X70035736Y-79369225D01*
X70318223Y-79454916D01*
X70538381Y-79476600D01*
X70685619Y-79476600D01*
X70905777Y-79454916D01*
X71188264Y-79369225D01*
X71448606Y-79230069D01*
X71676797Y-79042797D01*
X71864069Y-78814606D01*
X71905016Y-78738000D01*
X75499071Y-78738000D01*
X75260530Y-78868260D01*
X74864178Y-79199515D01*
X74540067Y-79601730D01*
X74300652Y-80059447D01*
X74164333Y-80508838D01*
X74271009Y-80919000D01*
X76617000Y-80919000D01*
X76617000Y-80899000D01*
X76871000Y-80899000D01*
X76871000Y-80919000D01*
X79216991Y-80919000D01*
X79323667Y-80508838D01*
X79187348Y-80059447D01*
X78947933Y-79601730D01*
X78623822Y-79199515D01*
X78227470Y-78868260D01*
X77988929Y-78738000D01*
X84999071Y-78738000D01*
X84760530Y-78868260D01*
X84364178Y-79199515D01*
X84040067Y-79601730D01*
X83800652Y-80059447D01*
X83664333Y-80508838D01*
X83771009Y-80919000D01*
X86117000Y-80919000D01*
X86117000Y-80899000D01*
X86371000Y-80899000D01*
X86371000Y-80919000D01*
X88716991Y-80919000D01*
X88823667Y-80508838D01*
X88687348Y-80059447D01*
X88447933Y-79601730D01*
X88123822Y-79199515D01*
X87727470Y-78868260D01*
X87488929Y-78738000D01*
X89524565Y-78738000D01*
X89561528Y-78859850D01*
X89643595Y-79013386D01*
X89754038Y-79147962D01*
X89888614Y-79258405D01*
X90042150Y-79340472D01*
X90208746Y-79391008D01*
X90382000Y-79408072D01*
X90426001Y-79408072D01*
X90426000Y-81981198D01*
X87041199Y-85366000D01*
X80301322Y-85366000D01*
X80263999Y-85362324D01*
X80226676Y-85366000D01*
X80226667Y-85366000D01*
X80115014Y-85376997D01*
X79971753Y-85420454D01*
X79839724Y-85491026D01*
X79723999Y-85585999D01*
X79700201Y-85614997D01*
X78483003Y-86832196D01*
X78453999Y-86855999D01*
X78398871Y-86923174D01*
X78359026Y-86971724D01*
X78339674Y-87007928D01*
X78094000Y-87007928D01*
X77969518Y-87020188D01*
X77849820Y-87056498D01*
X77739506Y-87115463D01*
X77642815Y-87194815D01*
X77563463Y-87291506D01*
X77504498Y-87401820D01*
X77468188Y-87521518D01*
X77455928Y-87646000D01*
X77455928Y-89446000D01*
X77468188Y-89570482D01*
X77504498Y-89690180D01*
X77563463Y-89800494D01*
X77642815Y-89897185D01*
X77739506Y-89976537D01*
X77849820Y-90035502D01*
X77969518Y-90071812D01*
X78094000Y-90084072D01*
X78234001Y-90084072D01*
X78234000Y-94450677D01*
X78230324Y-94488000D01*
X78234000Y-94525322D01*
X78234000Y-94525332D01*
X78244997Y-94636985D01*
X78272910Y-94729002D01*
X78288454Y-94780246D01*
X78359026Y-94912276D01*
X78398871Y-94960826D01*
X78453999Y-95028001D01*
X78483002Y-95051804D01*
X80441501Y-97010304D01*
X80441501Y-98103849D01*
X79870654Y-97533002D01*
X79846851Y-97503999D01*
X79731126Y-97409026D01*
X79599097Y-97338454D01*
X79455836Y-97294997D01*
X79344183Y-97284000D01*
X79344172Y-97284000D01*
X79306850Y-97280324D01*
X79269528Y-97284000D01*
X78460173Y-97284000D01*
X78449947Y-97250291D01*
X78368458Y-97097836D01*
X78258792Y-96964208D01*
X78125164Y-96854542D01*
X77972709Y-96773053D01*
X77807285Y-96722872D01*
X77635250Y-96705928D01*
X77147750Y-96705928D01*
X76975715Y-96722872D01*
X76810291Y-96773053D01*
X76657836Y-96854542D01*
X76524208Y-96964208D01*
X76454000Y-97049756D01*
X76383792Y-96964208D01*
X76250164Y-96854542D01*
X76097709Y-96773053D01*
X75932285Y-96722872D01*
X75760250Y-96705928D01*
X75272750Y-96705928D01*
X75100715Y-96722872D01*
X74935291Y-96773053D01*
X74782836Y-96854542D01*
X74649208Y-96964208D01*
X74539542Y-97097836D01*
X74526217Y-97122765D01*
X74484182Y-96984192D01*
X74350932Y-96734899D01*
X74171608Y-96516392D01*
X73953101Y-96337068D01*
X73820142Y-96266000D01*
X73953101Y-96194932D01*
X74171608Y-96015608D01*
X74350932Y-95797101D01*
X74484182Y-95547808D01*
X74566236Y-95277309D01*
X74593943Y-94996000D01*
X74566236Y-94714691D01*
X74484182Y-94444192D01*
X74382968Y-94254834D01*
X74788003Y-93849799D01*
X74817002Y-93826000D01*
X74894142Y-93732005D01*
X74911975Y-93710276D01*
X74982547Y-93578246D01*
X75013681Y-93475608D01*
X75026004Y-93434985D01*
X75037001Y-93323332D01*
X75037001Y-93323322D01*
X75040677Y-93285999D01*
X75037001Y-93248676D01*
X75037001Y-90028323D01*
X75040677Y-89991000D01*
X75037001Y-89953678D01*
X75037001Y-89953668D01*
X75026004Y-89842015D01*
X74982547Y-89698754D01*
X74911975Y-89566725D01*
X74817002Y-89451000D01*
X74788003Y-89427201D01*
X74765802Y-89405000D01*
X74742001Y-89375999D01*
X74626276Y-89281026D01*
X74590072Y-89261674D01*
X74590072Y-89116000D01*
X74577812Y-88991518D01*
X74541502Y-88871820D01*
X74482537Y-88761506D01*
X74403185Y-88664815D01*
X74306494Y-88585463D01*
X74196180Y-88526498D01*
X74076482Y-88490188D01*
X73952000Y-88477928D01*
X73912000Y-88477928D01*
X73912000Y-88366173D01*
X73945709Y-88355947D01*
X74098164Y-88274458D01*
X74231792Y-88164792D01*
X74341458Y-88031164D01*
X74422947Y-87878709D01*
X74473128Y-87713285D01*
X74490072Y-87541250D01*
X74490072Y-87053750D01*
X74473128Y-86881715D01*
X74422947Y-86716291D01*
X74341458Y-86563836D01*
X74231792Y-86430208D01*
X74225436Y-86424992D01*
X74303185Y-86361185D01*
X74382537Y-86264494D01*
X74441502Y-86154180D01*
X74477812Y-86034482D01*
X74490072Y-85910000D01*
X74487000Y-85708250D01*
X74328250Y-85549500D01*
X73279000Y-85549500D01*
X73279000Y-85569500D01*
X73025000Y-85569500D01*
X73025000Y-85549500D01*
X71975750Y-85549500D01*
X71817000Y-85708250D01*
X71813928Y-85910000D01*
X71826188Y-86034482D01*
X71862498Y-86154180D01*
X71921463Y-86264494D01*
X72000815Y-86361185D01*
X72078564Y-86424992D01*
X72072208Y-86430208D01*
X71962542Y-86563836D01*
X71881053Y-86716291D01*
X71830872Y-86881715D01*
X71813928Y-87053750D01*
X71813928Y-87541250D01*
X71830872Y-87713285D01*
X71881053Y-87878709D01*
X71962542Y-88031164D01*
X72072208Y-88164792D01*
X72205836Y-88274458D01*
X72358291Y-88355947D01*
X72392001Y-88366173D01*
X72392001Y-88477928D01*
X72352000Y-88477928D01*
X72227518Y-88490188D01*
X72107820Y-88526498D01*
X71997506Y-88585463D01*
X71900815Y-88664815D01*
X71821463Y-88761506D01*
X71762498Y-88871820D01*
X71726188Y-88991518D01*
X71713928Y-89116000D01*
X71713928Y-90716000D01*
X71726188Y-90840482D01*
X71762498Y-90960180D01*
X71821463Y-91070494D01*
X71900815Y-91167185D01*
X71997506Y-91246537D01*
X72107820Y-91305502D01*
X72227518Y-91341812D01*
X72245482Y-91343581D01*
X72132392Y-91436392D01*
X71953068Y-91654899D01*
X71933379Y-91691735D01*
X71924447Y-91662291D01*
X71842958Y-91509836D01*
X71733292Y-91376208D01*
X71599664Y-91266542D01*
X71447209Y-91185053D01*
X71281785Y-91134872D01*
X71109750Y-91117928D01*
X70622250Y-91117928D01*
X70450215Y-91134872D01*
X70284791Y-91185053D01*
X70132336Y-91266542D01*
X69998708Y-91376208D01*
X69928500Y-91461756D01*
X69858292Y-91376208D01*
X69724664Y-91266542D01*
X69572209Y-91185053D01*
X69406785Y-91134872D01*
X69234750Y-91117928D01*
X68747250Y-91117928D01*
X68575215Y-91134872D01*
X68409791Y-91185053D01*
X68257336Y-91266542D01*
X68123708Y-91376208D01*
X68014042Y-91509836D01*
X67932553Y-91662291D01*
X67882372Y-91827715D01*
X67865428Y-91999750D01*
X67865428Y-92912250D01*
X67882372Y-93084285D01*
X67932553Y-93249709D01*
X68014042Y-93402164D01*
X68123708Y-93535792D01*
X68231001Y-93623845D01*
X68231000Y-97717219D01*
X68205008Y-97743211D01*
X68176010Y-97767009D01*
X68152212Y-97796007D01*
X68152211Y-97796008D01*
X68081036Y-97882734D01*
X68010464Y-98014764D01*
X67988875Y-98085937D01*
X67967008Y-98158024D01*
X67959926Y-98229928D01*
X67952334Y-98307010D01*
X67956011Y-98344342D01*
X67956010Y-101822928D01*
X67234750Y-101822928D01*
X67062715Y-101839872D01*
X67009548Y-101856000D01*
X66752901Y-101856000D01*
X66730932Y-101814899D01*
X66551608Y-101596392D01*
X66333101Y-101417068D01*
X66200142Y-101346000D01*
X66333101Y-101274932D01*
X66551608Y-101095608D01*
X66730932Y-100877101D01*
X66864182Y-100627808D01*
X66946236Y-100357309D01*
X66973943Y-100076000D01*
X66946236Y-99794691D01*
X66864182Y-99524192D01*
X66730932Y-99274899D01*
X66551608Y-99056392D01*
X66333101Y-98877068D01*
X66200142Y-98806000D01*
X66333101Y-98734932D01*
X66551608Y-98555608D01*
X66730932Y-98337101D01*
X66864182Y-98087808D01*
X66946236Y-97817309D01*
X66973943Y-97536000D01*
X66946236Y-97254691D01*
X66864182Y-96984192D01*
X66730932Y-96734899D01*
X66551608Y-96516392D01*
X66333101Y-96337068D01*
X66195318Y-96263421D01*
X66387131Y-96148385D01*
X66595519Y-95959414D01*
X66763037Y-95733420D01*
X66883246Y-95479087D01*
X66923904Y-95345039D01*
X66801915Y-95123000D01*
X65659000Y-95123000D01*
X65659000Y-95143000D01*
X65405000Y-95143000D01*
X65405000Y-95123000D01*
X65385000Y-95123000D01*
X65385000Y-94869000D01*
X65405000Y-94869000D01*
X65405000Y-94849000D01*
X65659000Y-94849000D01*
X65659000Y-94869000D01*
X66801915Y-94869000D01*
X66923904Y-94646961D01*
X66883246Y-94512913D01*
X66763037Y-94258580D01*
X66595519Y-94032586D01*
X66387131Y-93843615D01*
X66195318Y-93728579D01*
X66333101Y-93654932D01*
X66551608Y-93475608D01*
X66730932Y-93257101D01*
X66864182Y-93007808D01*
X66946236Y-92737309D01*
X66973943Y-92456000D01*
X66946236Y-92174691D01*
X66864182Y-91904192D01*
X66730932Y-91654899D01*
X66551608Y-91436392D01*
X66333101Y-91257068D01*
X66200142Y-91186000D01*
X66333101Y-91114932D01*
X66551608Y-90935608D01*
X66730932Y-90717101D01*
X66864182Y-90467808D01*
X66946236Y-90197309D01*
X66973943Y-89916000D01*
X66946236Y-89634691D01*
X66864182Y-89364192D01*
X66730932Y-89114899D01*
X66551608Y-88896392D01*
X66333101Y-88717068D01*
X66083808Y-88583818D01*
X65813309Y-88501764D01*
X65602492Y-88481000D01*
X65461508Y-88481000D01*
X65250691Y-88501764D01*
X64980192Y-88583818D01*
X64864010Y-88645919D01*
X64864010Y-84935000D01*
X71813928Y-84935000D01*
X71817000Y-85136750D01*
X71975750Y-85295500D01*
X73025000Y-85295500D01*
X73025000Y-84458750D01*
X73279000Y-84458750D01*
X73279000Y-85295500D01*
X74328250Y-85295500D01*
X74487000Y-85136750D01*
X74490072Y-84935000D01*
X74477812Y-84810518D01*
X74441502Y-84690820D01*
X74382537Y-84580506D01*
X74303185Y-84483815D01*
X74206494Y-84404463D01*
X74096180Y-84345498D01*
X73976482Y-84309188D01*
X73852000Y-84296928D01*
X73437750Y-84300000D01*
X73279000Y-84458750D01*
X73025000Y-84458750D01*
X72866250Y-84300000D01*
X72452000Y-84296928D01*
X72327518Y-84309188D01*
X72207820Y-84345498D01*
X72097506Y-84404463D01*
X72000815Y-84483815D01*
X71921463Y-84580506D01*
X71862498Y-84690820D01*
X71826188Y-84810518D01*
X71813928Y-84935000D01*
X64864010Y-84935000D01*
X64864010Y-81583162D01*
X74164333Y-81583162D01*
X74300652Y-82032553D01*
X74540067Y-82490270D01*
X74864178Y-82892485D01*
X75260530Y-83223740D01*
X75713890Y-83471306D01*
X76206837Y-83625669D01*
X76617000Y-83519190D01*
X76617000Y-81173000D01*
X76871000Y-81173000D01*
X76871000Y-83519190D01*
X77281163Y-83625669D01*
X77774110Y-83471306D01*
X78227470Y-83223740D01*
X78623822Y-82892485D01*
X78947933Y-82490270D01*
X79187348Y-82032553D01*
X79323667Y-81583162D01*
X83664333Y-81583162D01*
X83800652Y-82032553D01*
X84040067Y-82490270D01*
X84364178Y-82892485D01*
X84760530Y-83223740D01*
X85213890Y-83471306D01*
X85706837Y-83625669D01*
X86117000Y-83519190D01*
X86117000Y-81173000D01*
X86371000Y-81173000D01*
X86371000Y-83519190D01*
X86781163Y-83625669D01*
X87274110Y-83471306D01*
X87727470Y-83223740D01*
X88123822Y-82892485D01*
X88447933Y-82490270D01*
X88687348Y-82032553D01*
X88823667Y-81583162D01*
X88716991Y-81173000D01*
X86371000Y-81173000D01*
X86117000Y-81173000D01*
X83771009Y-81173000D01*
X83664333Y-81583162D01*
X79323667Y-81583162D01*
X79216991Y-81173000D01*
X76871000Y-81173000D01*
X76617000Y-81173000D01*
X74271009Y-81173000D01*
X74164333Y-81583162D01*
X64864010Y-81583162D01*
X64864010Y-73257026D01*
X66617042Y-73257026D01*
X66662778Y-73407814D01*
X66789316Y-73672944D01*
X66965146Y-73908293D01*
X67183512Y-74104817D01*
X67289770Y-74168000D01*
X67183512Y-74231183D01*
X66965146Y-74427707D01*
X66789316Y-74663056D01*
X66662778Y-74928186D01*
X66617042Y-75078974D01*
X66738183Y-75311000D01*
X67945000Y-75311000D01*
X67945000Y-73025000D01*
X68199000Y-73025000D01*
X68199000Y-75311000D01*
X70485000Y-75311000D01*
X70485000Y-73025000D01*
X70739000Y-73025000D01*
X70739000Y-75311000D01*
X71945817Y-75311000D01*
X72066958Y-75078974D01*
X72021222Y-74928186D01*
X71894684Y-74663056D01*
X71718854Y-74427707D01*
X71500488Y-74231183D01*
X71394230Y-74168000D01*
X71500488Y-74104817D01*
X71718854Y-73908293D01*
X71894684Y-73672944D01*
X72021222Y-73407814D01*
X72066958Y-73257026D01*
X71945817Y-73025000D01*
X70739000Y-73025000D01*
X70485000Y-73025000D01*
X68199000Y-73025000D01*
X67945000Y-73025000D01*
X66738183Y-73025000D01*
X66617042Y-73257026D01*
X64864010Y-73257026D01*
X64864010Y-70717026D01*
X66617042Y-70717026D01*
X66662778Y-70867814D01*
X66789316Y-71132944D01*
X66965146Y-71368293D01*
X67183512Y-71564817D01*
X67289770Y-71628000D01*
X67183512Y-71691183D01*
X66965146Y-71887707D01*
X66789316Y-72123056D01*
X66662778Y-72388186D01*
X66617042Y-72538974D01*
X66738183Y-72771000D01*
X67945000Y-72771000D01*
X67945000Y-70485000D01*
X68199000Y-70485000D01*
X68199000Y-72771000D01*
X70485000Y-72771000D01*
X70485000Y-70485000D01*
X70739000Y-70485000D01*
X70739000Y-72771000D01*
X71945817Y-72771000D01*
X72066958Y-72538974D01*
X72021222Y-72388186D01*
X71894684Y-72123056D01*
X71718854Y-71887707D01*
X71500488Y-71691183D01*
X71394230Y-71628000D01*
X71500488Y-71564817D01*
X71718854Y-71368293D01*
X71894684Y-71132944D01*
X72021222Y-70867814D01*
X72066958Y-70717026D01*
X71945817Y-70485000D01*
X70739000Y-70485000D01*
X70485000Y-70485000D01*
X68199000Y-70485000D01*
X67945000Y-70485000D01*
X66738183Y-70485000D01*
X66617042Y-70717026D01*
X64864010Y-70717026D01*
X64864010Y-64480791D01*
X66569794Y-62775008D01*
X66595084Y-63031777D01*
G36*
X93066000Y-67171198D02*
G01*
X92395803Y-66501002D01*
X92372001Y-66471999D01*
X92370072Y-66470416D01*
X92370072Y-65962000D01*
X92353008Y-65788746D01*
X92302472Y-65622150D01*
X92220405Y-65468614D01*
X92109962Y-65334038D01*
X91975386Y-65223595D01*
X91821850Y-65141528D01*
X91655254Y-65090992D01*
X91482000Y-65073928D01*
X90382000Y-65073928D01*
X90328044Y-65079242D01*
X88745804Y-63497003D01*
X88722001Y-63467999D01*
X88606276Y-63373026D01*
X88474247Y-63302454D01*
X88330986Y-63258997D01*
X88219333Y-63248000D01*
X88219322Y-63248000D01*
X88182000Y-63244324D01*
X88144678Y-63248000D01*
X75680639Y-63248000D01*
X75643314Y-63244324D01*
X75605989Y-63248000D01*
X75605981Y-63248000D01*
X75494328Y-63258997D01*
X75351067Y-63302454D01*
X75219038Y-63373026D01*
X75103313Y-63467999D01*
X75079515Y-63496997D01*
X71742838Y-66833674D01*
X71676797Y-66753203D01*
X71448606Y-66565931D01*
X71415060Y-66548000D01*
X71448606Y-66530069D01*
X71676797Y-66342797D01*
X71864069Y-66114606D01*
X72003225Y-65854264D01*
X72088916Y-65571777D01*
X72117851Y-65278000D01*
X72088916Y-64984223D01*
X72003225Y-64701736D01*
X71864069Y-64441394D01*
X71676797Y-64213203D01*
X71448606Y-64025931D01*
X71415060Y-64008000D01*
X71448606Y-63990069D01*
X71676797Y-63802797D01*
X71864069Y-63574606D01*
X72003225Y-63314264D01*
X72088916Y-63031777D01*
X72117851Y-62738000D01*
X72088916Y-62444223D01*
X72003225Y-62161736D01*
X71864069Y-61901394D01*
X71676797Y-61673203D01*
X71448606Y-61485931D01*
X71415060Y-61468000D01*
X71448606Y-61450069D01*
X71676797Y-61262797D01*
X71864069Y-61034606D01*
X72003225Y-60774264D01*
X72009019Y-60755162D01*
X74164333Y-60755162D01*
X74300652Y-61204553D01*
X74540067Y-61662270D01*
X74864178Y-62064485D01*
X75260530Y-62395740D01*
X75713890Y-62643306D01*
X76206837Y-62797669D01*
X76617000Y-62691190D01*
X76617000Y-60345000D01*
X76871000Y-60345000D01*
X76871000Y-62691190D01*
X77281163Y-62797669D01*
X77774110Y-62643306D01*
X78227470Y-62395740D01*
X78623822Y-62064485D01*
X78947933Y-61662270D01*
X79187348Y-61204553D01*
X79323667Y-60755162D01*
X83664333Y-60755162D01*
X83800652Y-61204553D01*
X84040067Y-61662270D01*
X84364178Y-62064485D01*
X84760530Y-62395740D01*
X85213890Y-62643306D01*
X85706837Y-62797669D01*
X86117000Y-62691190D01*
X86117000Y-60345000D01*
X86371000Y-60345000D01*
X86371000Y-62691190D01*
X86781163Y-62797669D01*
X87274110Y-62643306D01*
X87727470Y-62395740D01*
X88123822Y-62064485D01*
X88447933Y-61662270D01*
X88687348Y-61204553D01*
X88823667Y-60755162D01*
X88716991Y-60345000D01*
X86371000Y-60345000D01*
X86117000Y-60345000D01*
X83771009Y-60345000D01*
X83664333Y-60755162D01*
X79323667Y-60755162D01*
X79216991Y-60345000D01*
X76871000Y-60345000D01*
X76617000Y-60345000D01*
X74271009Y-60345000D01*
X74164333Y-60755162D01*
X72009019Y-60755162D01*
X72088916Y-60491777D01*
X72117851Y-60198000D01*
X72088916Y-59904223D01*
X72021154Y-59680838D01*
X74164333Y-59680838D01*
X74271009Y-60091000D01*
X76617000Y-60091000D01*
X76617000Y-57744810D01*
X76871000Y-57744810D01*
X76871000Y-60091000D01*
X79216991Y-60091000D01*
X79323667Y-59680838D01*
X83664333Y-59680838D01*
X83771009Y-60091000D01*
X86117000Y-60091000D01*
X86117000Y-57744810D01*
X86371000Y-57744810D01*
X86371000Y-60091000D01*
X88716991Y-60091000D01*
X88823667Y-59680838D01*
X88687348Y-59231447D01*
X88447933Y-58773730D01*
X88123822Y-58371515D01*
X87727470Y-58040260D01*
X87274110Y-57792694D01*
X86781163Y-57638331D01*
X86371000Y-57744810D01*
X86117000Y-57744810D01*
X85706837Y-57638331D01*
X85213890Y-57792694D01*
X84760530Y-58040260D01*
X84364178Y-58371515D01*
X84040067Y-58773730D01*
X83800652Y-59231447D01*
X83664333Y-59680838D01*
X79323667Y-59680838D01*
X79187348Y-59231447D01*
X78947933Y-58773730D01*
X78623822Y-58371515D01*
X78227470Y-58040260D01*
X77774110Y-57792694D01*
X77281163Y-57638331D01*
X76871000Y-57744810D01*
X76617000Y-57744810D01*
X76206837Y-57638331D01*
X75713890Y-57792694D01*
X75260530Y-58040260D01*
X74864178Y-58371515D01*
X74540067Y-58773730D01*
X74300652Y-59231447D01*
X74164333Y-59680838D01*
X72021154Y-59680838D01*
X72003225Y-59621736D01*
X71864069Y-59361394D01*
X71676797Y-59133203D01*
X71448606Y-58945931D01*
X71188264Y-58806775D01*
X70905777Y-58721084D01*
X70685619Y-58699400D01*
X70538381Y-58699400D01*
X70318223Y-58721084D01*
X70035736Y-58806775D01*
X69775394Y-58945931D01*
X69547203Y-59133203D01*
X69359931Y-59361394D01*
X69342000Y-59394940D01*
X69324069Y-59361394D01*
X69136797Y-59133203D01*
X68908606Y-58945931D01*
X68648264Y-58806775D01*
X68365777Y-58721084D01*
X68145619Y-58699400D01*
X67998381Y-58699400D01*
X67778223Y-58721084D01*
X67495736Y-58806775D01*
X67235394Y-58945931D01*
X67007203Y-59133203D01*
X66819931Y-59361394D01*
X66680775Y-59621736D01*
X66595084Y-59904223D01*
X66566149Y-60198000D01*
X66595084Y-60491777D01*
X66620299Y-60574899D01*
X64414000Y-62781199D01*
X64414000Y-48920000D01*
X93066000Y-48920000D01*
X93066000Y-67171198D01*
X93066000Y-67171198D01*
G37*
X93066000Y-67171198D02*
X92395803Y-66501002D01*
X92372001Y-66471999D01*
X92370072Y-66470416D01*
X92370072Y-65962000D01*
X92353008Y-65788746D01*
X92302472Y-65622150D01*
X92220405Y-65468614D01*
X92109962Y-65334038D01*
X91975386Y-65223595D01*
X91821850Y-65141528D01*
X91655254Y-65090992D01*
X91482000Y-65073928D01*
X90382000Y-65073928D01*
X90328044Y-65079242D01*
X88745804Y-63497003D01*
X88722001Y-63467999D01*
X88606276Y-63373026D01*
X88474247Y-63302454D01*
X88330986Y-63258997D01*
X88219333Y-63248000D01*
X88219322Y-63248000D01*
X88182000Y-63244324D01*
X88144678Y-63248000D01*
X75680639Y-63248000D01*
X75643314Y-63244324D01*
X75605989Y-63248000D01*
X75605981Y-63248000D01*
X75494328Y-63258997D01*
X75351067Y-63302454D01*
X75219038Y-63373026D01*
X75103313Y-63467999D01*
X75079515Y-63496997D01*
X71742838Y-66833674D01*
X71676797Y-66753203D01*
X71448606Y-66565931D01*
X71415060Y-66548000D01*
X71448606Y-66530069D01*
X71676797Y-66342797D01*
X71864069Y-66114606D01*
X72003225Y-65854264D01*
X72088916Y-65571777D01*
X72117851Y-65278000D01*
X72088916Y-64984223D01*
X72003225Y-64701736D01*
X71864069Y-64441394D01*
X71676797Y-64213203D01*
X71448606Y-64025931D01*
X71415060Y-64008000D01*
X71448606Y-63990069D01*
X71676797Y-63802797D01*
X71864069Y-63574606D01*
X72003225Y-63314264D01*
X72088916Y-63031777D01*
X72117851Y-62738000D01*
X72088916Y-62444223D01*
X72003225Y-62161736D01*
X71864069Y-61901394D01*
X71676797Y-61673203D01*
X71448606Y-61485931D01*
X71415060Y-61468000D01*
X71448606Y-61450069D01*
X71676797Y-61262797D01*
X71864069Y-61034606D01*
X72003225Y-60774264D01*
X72009019Y-60755162D01*
X74164333Y-60755162D01*
X74300652Y-61204553D01*
X74540067Y-61662270D01*
X74864178Y-62064485D01*
X75260530Y-62395740D01*
X75713890Y-62643306D01*
X76206837Y-62797669D01*
X76617000Y-62691190D01*
X76617000Y-60345000D01*
X76871000Y-60345000D01*
X76871000Y-62691190D01*
X77281163Y-62797669D01*
X77774110Y-62643306D01*
X78227470Y-62395740D01*
X78623822Y-62064485D01*
X78947933Y-61662270D01*
X79187348Y-61204553D01*
X79323667Y-60755162D01*
X83664333Y-60755162D01*
X83800652Y-61204553D01*
X84040067Y-61662270D01*
X84364178Y-62064485D01*
X84760530Y-62395740D01*
X85213890Y-62643306D01*
X85706837Y-62797669D01*
X86117000Y-62691190D01*
X86117000Y-60345000D01*
X86371000Y-60345000D01*
X86371000Y-62691190D01*
X86781163Y-62797669D01*
X87274110Y-62643306D01*
X87727470Y-62395740D01*
X88123822Y-62064485D01*
X88447933Y-61662270D01*
X88687348Y-61204553D01*
X88823667Y-60755162D01*
X88716991Y-60345000D01*
X86371000Y-60345000D01*
X86117000Y-60345000D01*
X83771009Y-60345000D01*
X83664333Y-60755162D01*
X79323667Y-60755162D01*
X79216991Y-60345000D01*
X76871000Y-60345000D01*
X76617000Y-60345000D01*
X74271009Y-60345000D01*
X74164333Y-60755162D01*
X72009019Y-60755162D01*
X72088916Y-60491777D01*
X72117851Y-60198000D01*
X72088916Y-59904223D01*
X72021154Y-59680838D01*
X74164333Y-59680838D01*
X74271009Y-60091000D01*
X76617000Y-60091000D01*
X76617000Y-57744810D01*
X76871000Y-57744810D01*
X76871000Y-60091000D01*
X79216991Y-60091000D01*
X79323667Y-59680838D01*
X83664333Y-59680838D01*
X83771009Y-60091000D01*
X86117000Y-60091000D01*
X86117000Y-57744810D01*
X86371000Y-57744810D01*
X86371000Y-60091000D01*
X88716991Y-60091000D01*
X88823667Y-59680838D01*
X88687348Y-59231447D01*
X88447933Y-58773730D01*
X88123822Y-58371515D01*
X87727470Y-58040260D01*
X87274110Y-57792694D01*
X86781163Y-57638331D01*
X86371000Y-57744810D01*
X86117000Y-57744810D01*
X85706837Y-57638331D01*
X85213890Y-57792694D01*
X84760530Y-58040260D01*
X84364178Y-58371515D01*
X84040067Y-58773730D01*
X83800652Y-59231447D01*
X83664333Y-59680838D01*
X79323667Y-59680838D01*
X79187348Y-59231447D01*
X78947933Y-58773730D01*
X78623822Y-58371515D01*
X78227470Y-58040260D01*
X77774110Y-57792694D01*
X77281163Y-57638331D01*
X76871000Y-57744810D01*
X76617000Y-57744810D01*
X76206837Y-57638331D01*
X75713890Y-57792694D01*
X75260530Y-58040260D01*
X74864178Y-58371515D01*
X74540067Y-58773730D01*
X74300652Y-59231447D01*
X74164333Y-59680838D01*
X72021154Y-59680838D01*
X72003225Y-59621736D01*
X71864069Y-59361394D01*
X71676797Y-59133203D01*
X71448606Y-58945931D01*
X71188264Y-58806775D01*
X70905777Y-58721084D01*
X70685619Y-58699400D01*
X70538381Y-58699400D01*
X70318223Y-58721084D01*
X70035736Y-58806775D01*
X69775394Y-58945931D01*
X69547203Y-59133203D01*
X69359931Y-59361394D01*
X69342000Y-59394940D01*
X69324069Y-59361394D01*
X69136797Y-59133203D01*
X68908606Y-58945931D01*
X68648264Y-58806775D01*
X68365777Y-58721084D01*
X68145619Y-58699400D01*
X67998381Y-58699400D01*
X67778223Y-58721084D01*
X67495736Y-58806775D01*
X67235394Y-58945931D01*
X67007203Y-59133203D01*
X66819931Y-59361394D01*
X66680775Y-59621736D01*
X66595084Y-59904223D01*
X66566149Y-60198000D01*
X66595084Y-60491777D01*
X66620299Y-60574899D01*
X64414000Y-62781199D01*
X64414000Y-48920000D01*
X93066000Y-48920000D01*
X93066000Y-67171198D01*
M02*
