G04 #@! TF.GenerationSoftware,KiCad,Pcbnew,(5.1.4-0-10_14)*
G04 #@! TF.CreationDate,2019-10-08T20:54:05-07:00*
G04 #@! TF.ProjectId,ADSR_Main_IO,41445352-5f4d-4616-996e-5f494f2e6b69,rev?*
G04 #@! TF.SameCoordinates,Original*
G04 #@! TF.FileFunction,Copper,L1,Top*
G04 #@! TF.FilePolarity,Positive*
%FSLAX46Y46*%
G04 Gerber Fmt 4.6, Leading zero omitted, Abs format (unit mm)*
G04 Created by KiCad (PCBNEW (5.1.4-0-10_14)) date 2019-10-08 20:54:05*
%MOMM*%
%LPD*%
G04 APERTURE LIST*
%ADD10C,3.100000*%
%ADD11C,2.130000*%
%ADD12R,1.830000X1.930000*%
%ADD13O,4.000000X4.000000*%
%ADD14C,1.800000*%
%ADD15R,1.800000X1.800000*%
%ADD16O,1.600000X1.600000*%
%ADD17R,1.600000X1.600000*%
%ADD18O,1.727200X1.727200*%
%ADD19R,1.727200X1.727200*%
%ADD20C,0.800000*%
%ADD21C,0.250000*%
%ADD22C,0.254000*%
G04 APERTURE END LIST*
D10*
X71628000Y-142240000D03*
D11*
X76578000Y-142240000D03*
D12*
X65178000Y-142240000D03*
D11*
X68278000Y-142240000D03*
D10*
X71628000Y-154686000D03*
D11*
X76578000Y-154686000D03*
D12*
X65178000Y-154686000D03*
D11*
X68278000Y-154686000D03*
D10*
X86614000Y-154686000D03*
D11*
X91564000Y-154686000D03*
D12*
X80164000Y-154686000D03*
D11*
X83264000Y-154686000D03*
D13*
X86244000Y-60218000D03*
X76744000Y-60218000D03*
D14*
X83994000Y-67718000D03*
X81494000Y-67718000D03*
D15*
X78994000Y-67718000D03*
D13*
X86244000Y-81046000D03*
X76744000Y-81046000D03*
D14*
X83994000Y-88546000D03*
X81494000Y-88546000D03*
D15*
X78994000Y-88546000D03*
D13*
X86244000Y-102636000D03*
X76744000Y-102636000D03*
D14*
X83994000Y-110136000D03*
X81494000Y-110136000D03*
D15*
X78994000Y-110136000D03*
D13*
X86244000Y-124226000D03*
X76744000Y-124226000D03*
D14*
X83994000Y-131726000D03*
X81494000Y-131726000D03*
D15*
X78994000Y-131726000D03*
D16*
X65532000Y-89916000D03*
X73152000Y-107696000D03*
X65532000Y-92456000D03*
X73152000Y-105156000D03*
X65532000Y-94996000D03*
X73152000Y-102616000D03*
X65532000Y-97536000D03*
X73152000Y-100076000D03*
X65532000Y-100076000D03*
X73152000Y-97536000D03*
X65532000Y-102616000D03*
X73152000Y-94996000D03*
X65532000Y-105156000D03*
X73152000Y-92456000D03*
X65532000Y-107696000D03*
D17*
X73152000Y-89916000D03*
D18*
X70612000Y-60198000D03*
X68072000Y-60198000D03*
X70612000Y-62738000D03*
X68072000Y-62738000D03*
X70612000Y-65278000D03*
X68072000Y-65278000D03*
X70612000Y-67818000D03*
X68072000Y-67818000D03*
X70612000Y-70358000D03*
X68072000Y-70358000D03*
X70612000Y-72898000D03*
X68072000Y-72898000D03*
X70612000Y-75438000D03*
X68072000Y-75438000D03*
X70612000Y-77978000D03*
D19*
X68072000Y-77978000D03*
D16*
X65278000Y-121158000D03*
X72898000Y-128778000D03*
X65278000Y-123698000D03*
X72898000Y-126238000D03*
X65278000Y-126238000D03*
X72898000Y-123698000D03*
X65278000Y-128778000D03*
D17*
X72898000Y-121158000D03*
D14*
X87630000Y-142240000D03*
D15*
X85090000Y-142240000D03*
D20*
X81026000Y-115824000D03*
X73147347Y-115828653D03*
X90424000Y-97282000D03*
X81026000Y-72898000D03*
X80264000Y-93980000D03*
X71628000Y-114554000D03*
X75946000Y-132451000D03*
D21*
X90424000Y-98300233D02*
X90424000Y-97282000D01*
X87360001Y-104961001D02*
X90424000Y-101897002D01*
X83018999Y-104961001D02*
X87360001Y-104961001D01*
X90424000Y-101897002D02*
X90424000Y-98300233D01*
X78994000Y-108986000D02*
X83018999Y-104961001D01*
X78994000Y-110136000D02*
X78994000Y-108986000D01*
X78994000Y-113792000D02*
X81026000Y-115824000D01*
X78994000Y-110136000D02*
X78994000Y-113792000D01*
X66077999Y-122898001D02*
X65278000Y-123698000D01*
X66403001Y-122572999D02*
X66077999Y-122898001D01*
X66403001Y-120617999D02*
X66403001Y-122572999D01*
X64406999Y-103741001D02*
X64406999Y-118621997D01*
X64406999Y-118621997D02*
X66403001Y-120617999D01*
X65532000Y-102616000D02*
X64406999Y-103741001D01*
X73147347Y-115828653D02*
X65278000Y-123698000D01*
X79577500Y-131726000D02*
X78994000Y-131726000D01*
X64732001Y-91656001D02*
X65532000Y-92456000D01*
X64406999Y-91330999D02*
X64732001Y-91656001D01*
X64406999Y-89375999D02*
X64406999Y-91330999D01*
X80484999Y-73297999D02*
X64406999Y-89375999D01*
X80626001Y-73297999D02*
X80484999Y-73297999D01*
X81026000Y-72898000D02*
X80626001Y-73297999D01*
X64406999Y-96995999D02*
X64406999Y-98950999D01*
X64732001Y-99276001D02*
X65532000Y-100076000D01*
X64991999Y-96410999D02*
X64406999Y-96995999D01*
X69451001Y-96410999D02*
X64991999Y-96410999D01*
X71991001Y-93870999D02*
X69451001Y-96410999D01*
X80154999Y-93870999D02*
X71991001Y-93870999D01*
X64406999Y-98950999D02*
X64732001Y-99276001D01*
X80264000Y-93980000D02*
X80154999Y-93870999D01*
X71258630Y-114554000D02*
X71628000Y-114554000D01*
X65532000Y-108827370D02*
X71258630Y-114554000D01*
X65532000Y-107696000D02*
X65532000Y-108827370D01*
X79069001Y-125250999D02*
X79069001Y-120725001D01*
X77768999Y-126551001D02*
X79069001Y-125250999D01*
X66331999Y-98335999D02*
X65532000Y-97536000D01*
X66657001Y-98661001D02*
X66331999Y-98335999D01*
X66657001Y-108313001D02*
X66657001Y-98661001D01*
X79069001Y-120725001D02*
X66657001Y-108313001D01*
X77768999Y-126551001D02*
X75946000Y-128374000D01*
X75946000Y-128374000D02*
X75946000Y-132451000D01*
X72644000Y-126238000D02*
X72898000Y-126238000D01*
X76678000Y-146386000D02*
X68378000Y-154686000D01*
X76678000Y-142240000D02*
X76678000Y-146386000D01*
X77642999Y-141175001D02*
X76578000Y-142240000D01*
X77642999Y-129367001D02*
X77642999Y-141175001D01*
X72026999Y-98661001D02*
X72026999Y-108236001D01*
X72026999Y-108236001D02*
X80219001Y-116428003D01*
X80219001Y-116428003D02*
X80219001Y-126790999D01*
X73152000Y-97536000D02*
X72026999Y-98661001D01*
X80219001Y-126790999D02*
X77642999Y-129367001D01*
X88900000Y-142240000D02*
X87630000Y-142240000D01*
X91564000Y-154686000D02*
X91564000Y-144904000D01*
X91564000Y-144904000D02*
X88900000Y-142240000D01*
D22*
G36*
X93066001Y-153873983D02*
G01*
X92884477Y-153602313D01*
X92647687Y-153365523D01*
X92369252Y-153179479D01*
X92324000Y-153160735D01*
X92324000Y-144941323D01*
X92327676Y-144904000D01*
X92324000Y-144866677D01*
X92324000Y-144866667D01*
X92313003Y-144755014D01*
X92269546Y-144611753D01*
X92198974Y-144479723D01*
X92127799Y-144392997D01*
X92104001Y-144363999D01*
X92075003Y-144340201D01*
X89463804Y-141729003D01*
X89440001Y-141699999D01*
X89324276Y-141605026D01*
X89192247Y-141534454D01*
X89048986Y-141490997D01*
X88970495Y-141483266D01*
X88822312Y-141261495D01*
X88608505Y-141047688D01*
X88357095Y-140879701D01*
X88077743Y-140763989D01*
X87781184Y-140705000D01*
X87478816Y-140705000D01*
X87182257Y-140763989D01*
X86902905Y-140879701D01*
X86651495Y-141047688D01*
X86585056Y-141114127D01*
X86579502Y-141095820D01*
X86520537Y-140985506D01*
X86441185Y-140888815D01*
X86344494Y-140809463D01*
X86234180Y-140750498D01*
X86114482Y-140714188D01*
X85990000Y-140701928D01*
X84190000Y-140701928D01*
X84065518Y-140714188D01*
X83945820Y-140750498D01*
X83835506Y-140809463D01*
X83738815Y-140888815D01*
X83659463Y-140985506D01*
X83600498Y-141095820D01*
X83564188Y-141215518D01*
X83551928Y-141340000D01*
X83551928Y-143140000D01*
X83564188Y-143264482D01*
X83600498Y-143384180D01*
X83659463Y-143494494D01*
X83738815Y-143591185D01*
X83835506Y-143670537D01*
X83945820Y-143729502D01*
X84065518Y-143765812D01*
X84190000Y-143778072D01*
X85990000Y-143778072D01*
X86114482Y-143765812D01*
X86234180Y-143729502D01*
X86344494Y-143670537D01*
X86441185Y-143591185D01*
X86520537Y-143494494D01*
X86579502Y-143384180D01*
X86585056Y-143365873D01*
X86651495Y-143432312D01*
X86902905Y-143600299D01*
X87182257Y-143716011D01*
X87478816Y-143775000D01*
X87781184Y-143775000D01*
X88077743Y-143716011D01*
X88357095Y-143600299D01*
X88608505Y-143432312D01*
X88813008Y-143227809D01*
X90804001Y-145218803D01*
X90804000Y-153160735D01*
X90758748Y-153179479D01*
X90480313Y-153365523D01*
X90243523Y-153602313D01*
X90057479Y-153880748D01*
X89929330Y-154190128D01*
X89864000Y-154518565D01*
X89864000Y-154853435D01*
X89929330Y-155181872D01*
X90057479Y-155491252D01*
X90243523Y-155769687D01*
X90480313Y-156006477D01*
X90758748Y-156192521D01*
X91068128Y-156320670D01*
X91396565Y-156386000D01*
X91731435Y-156386000D01*
X92059872Y-156320670D01*
X92369252Y-156192521D01*
X92647687Y-156006477D01*
X92884477Y-155769687D01*
X93066001Y-155498017D01*
X93066001Y-159360000D01*
X64414000Y-159360000D01*
X64414000Y-156288335D01*
X64892250Y-156286000D01*
X65051000Y-156127250D01*
X65051000Y-154813000D01*
X65031000Y-154813000D01*
X65031000Y-154559000D01*
X65051000Y-154559000D01*
X65051000Y-153244750D01*
X64892250Y-153086000D01*
X64414000Y-153083665D01*
X64414000Y-143842335D01*
X64892250Y-143840000D01*
X65051000Y-143681250D01*
X65051000Y-142367000D01*
X65031000Y-142367000D01*
X65031000Y-142113000D01*
X65051000Y-142113000D01*
X65051000Y-140798750D01*
X65305000Y-140798750D01*
X65305000Y-142113000D01*
X65325000Y-142113000D01*
X65325000Y-142367000D01*
X65305000Y-142367000D01*
X65305000Y-143681250D01*
X65463750Y-143840000D01*
X66093000Y-143843072D01*
X66217482Y-143830812D01*
X66337180Y-143794502D01*
X66447494Y-143735537D01*
X66544185Y-143656185D01*
X66623537Y-143559494D01*
X66682502Y-143449180D01*
X66718812Y-143329482D01*
X66731072Y-143205000D01*
X66729895Y-142944860D01*
X66771479Y-143045252D01*
X66957523Y-143323687D01*
X67194313Y-143560477D01*
X67472748Y-143746521D01*
X67782128Y-143874670D01*
X68110565Y-143940000D01*
X68445435Y-143940000D01*
X68773872Y-143874670D01*
X69083252Y-143746521D01*
X69361687Y-143560477D01*
X69598477Y-143323687D01*
X69668465Y-143218943D01*
X69691678Y-143274985D01*
X69930800Y-143632856D01*
X70235144Y-143937200D01*
X70593015Y-144176322D01*
X70990659Y-144341031D01*
X71412796Y-144425000D01*
X71843204Y-144425000D01*
X72265341Y-144341031D01*
X72662985Y-144176322D01*
X73020856Y-143937200D01*
X73325200Y-143632856D01*
X73564322Y-143274985D01*
X73729031Y-142877341D01*
X73813000Y-142455204D01*
X73813000Y-142024796D01*
X73729031Y-141602659D01*
X73564322Y-141205015D01*
X73325200Y-140847144D01*
X73020856Y-140542800D01*
X72662985Y-140303678D01*
X72265341Y-140138969D01*
X71843204Y-140055000D01*
X71412796Y-140055000D01*
X70990659Y-140138969D01*
X70593015Y-140303678D01*
X70235144Y-140542800D01*
X69930800Y-140847144D01*
X69691678Y-141205015D01*
X69668465Y-141261057D01*
X69598477Y-141156313D01*
X69361687Y-140919523D01*
X69083252Y-140733479D01*
X68773872Y-140605330D01*
X68445435Y-140540000D01*
X68110565Y-140540000D01*
X67782128Y-140605330D01*
X67472748Y-140733479D01*
X67194313Y-140919523D01*
X66957523Y-141156313D01*
X66771479Y-141434748D01*
X66729895Y-141535140D01*
X66731072Y-141275000D01*
X66718812Y-141150518D01*
X66682502Y-141030820D01*
X66623537Y-140920506D01*
X66544185Y-140823815D01*
X66447494Y-140744463D01*
X66337180Y-140685498D01*
X66217482Y-140649188D01*
X66093000Y-140636928D01*
X65463750Y-140640000D01*
X65305000Y-140798750D01*
X65051000Y-140798750D01*
X64892250Y-140640000D01*
X64414000Y-140637665D01*
X64414000Y-129925312D01*
X64476899Y-129976932D01*
X64726192Y-130110182D01*
X64996691Y-130192236D01*
X65207508Y-130213000D01*
X65348492Y-130213000D01*
X65559309Y-130192236D01*
X65829808Y-130110182D01*
X66079101Y-129976932D01*
X66297608Y-129797608D01*
X66476932Y-129579101D01*
X66610182Y-129329808D01*
X66692236Y-129059309D01*
X66719943Y-128778000D01*
X66692236Y-128496691D01*
X66610182Y-128226192D01*
X66476932Y-127976899D01*
X66297608Y-127758392D01*
X66079101Y-127579068D01*
X65946142Y-127508000D01*
X66079101Y-127436932D01*
X66297608Y-127257608D01*
X66476932Y-127039101D01*
X66610182Y-126789808D01*
X66692236Y-126519309D01*
X66719943Y-126238000D01*
X66692236Y-125956691D01*
X66610182Y-125686192D01*
X66476932Y-125436899D01*
X66297608Y-125218392D01*
X66079101Y-125039068D01*
X65946142Y-124968000D01*
X66079101Y-124896932D01*
X66297608Y-124717608D01*
X66476932Y-124499101D01*
X66610182Y-124249808D01*
X66692236Y-123979309D01*
X66719943Y-123698000D01*
X66692236Y-123416691D01*
X66678708Y-123372093D01*
X66913999Y-123136802D01*
X66943002Y-123113000D01*
X66966804Y-123083997D01*
X73187149Y-116863653D01*
X73249286Y-116863653D01*
X73449245Y-116823879D01*
X73637603Y-116745858D01*
X73807121Y-116632590D01*
X73854455Y-116585256D01*
X78309002Y-121039804D01*
X78309002Y-122116401D01*
X78227470Y-122048260D01*
X77774110Y-121800694D01*
X77281163Y-121646331D01*
X76871000Y-121752810D01*
X76871000Y-124099000D01*
X76891000Y-124099000D01*
X76891000Y-124353000D01*
X76871000Y-124353000D01*
X76871000Y-124373000D01*
X76617000Y-124373000D01*
X76617000Y-124353000D01*
X76597000Y-124353000D01*
X76597000Y-124099000D01*
X76617000Y-124099000D01*
X76617000Y-121752810D01*
X76206837Y-121646331D01*
X75713890Y-121800694D01*
X75260530Y-122048260D01*
X74864178Y-122379515D01*
X74540067Y-122781730D01*
X74300652Y-123239447D01*
X74279561Y-123308975D01*
X74230182Y-123146192D01*
X74096932Y-122896899D01*
X73917608Y-122678392D01*
X73804518Y-122585581D01*
X73822482Y-122583812D01*
X73942180Y-122547502D01*
X74052494Y-122488537D01*
X74149185Y-122409185D01*
X74228537Y-122312494D01*
X74287502Y-122202180D01*
X74323812Y-122082482D01*
X74336072Y-121958000D01*
X74336072Y-120358000D01*
X74323812Y-120233518D01*
X74287502Y-120113820D01*
X74228537Y-120003506D01*
X74149185Y-119906815D01*
X74052494Y-119827463D01*
X73942180Y-119768498D01*
X73822482Y-119732188D01*
X73698000Y-119719928D01*
X72098000Y-119719928D01*
X71973518Y-119732188D01*
X71853820Y-119768498D01*
X71743506Y-119827463D01*
X71646815Y-119906815D01*
X71567463Y-120003506D01*
X71508498Y-120113820D01*
X71472188Y-120233518D01*
X71459928Y-120358000D01*
X71459928Y-121958000D01*
X71472188Y-122082482D01*
X71508498Y-122202180D01*
X71567463Y-122312494D01*
X71646815Y-122409185D01*
X71743506Y-122488537D01*
X71853820Y-122547502D01*
X71973518Y-122583812D01*
X71991482Y-122585581D01*
X71878392Y-122678392D01*
X71699068Y-122896899D01*
X71565818Y-123146192D01*
X71483764Y-123416691D01*
X71456057Y-123698000D01*
X71483764Y-123979309D01*
X71565818Y-124249808D01*
X71699068Y-124499101D01*
X71878392Y-124717608D01*
X72096899Y-124896932D01*
X72229858Y-124968000D01*
X72096899Y-125039068D01*
X71878392Y-125218392D01*
X71699068Y-125436899D01*
X71565818Y-125686192D01*
X71483764Y-125956691D01*
X71456057Y-126238000D01*
X71483764Y-126519309D01*
X71565818Y-126789808D01*
X71699068Y-127039101D01*
X71878392Y-127257608D01*
X72096899Y-127436932D01*
X72229858Y-127508000D01*
X72096899Y-127579068D01*
X71878392Y-127758392D01*
X71699068Y-127976899D01*
X71565818Y-128226192D01*
X71483764Y-128496691D01*
X71456057Y-128778000D01*
X71483764Y-129059309D01*
X71565818Y-129329808D01*
X71699068Y-129579101D01*
X71878392Y-129797608D01*
X72096899Y-129976932D01*
X72346192Y-130110182D01*
X72616691Y-130192236D01*
X72827508Y-130213000D01*
X72968492Y-130213000D01*
X73179309Y-130192236D01*
X73449808Y-130110182D01*
X73699101Y-129976932D01*
X73917608Y-129797608D01*
X74096932Y-129579101D01*
X74230182Y-129329808D01*
X74312236Y-129059309D01*
X74339943Y-128778000D01*
X74312236Y-128496691D01*
X74230182Y-128226192D01*
X74096932Y-127976899D01*
X73917608Y-127758392D01*
X73699101Y-127579068D01*
X73566142Y-127508000D01*
X73699101Y-127436932D01*
X73917608Y-127257608D01*
X74096932Y-127039101D01*
X74230182Y-126789808D01*
X74312236Y-126519309D01*
X74339943Y-126238000D01*
X74312236Y-125956691D01*
X74230182Y-125686192D01*
X74096932Y-125436899D01*
X73917608Y-125218392D01*
X73699101Y-125039068D01*
X73566142Y-124968000D01*
X73699101Y-124896932D01*
X73917608Y-124717608D01*
X74096932Y-124499101D01*
X74175024Y-124353002D01*
X74271008Y-124353002D01*
X74164333Y-124763162D01*
X74300652Y-125212553D01*
X74540067Y-125670270D01*
X74864178Y-126072485D01*
X75260530Y-126403740D01*
X75713890Y-126651306D01*
X76206837Y-126805669D01*
X76521117Y-126724081D01*
X75435003Y-127810196D01*
X75405999Y-127833999D01*
X75350871Y-127901174D01*
X75311026Y-127949724D01*
X75296501Y-127976899D01*
X75240454Y-128081754D01*
X75196997Y-128225015D01*
X75186000Y-128336668D01*
X75186000Y-128336678D01*
X75182324Y-128374000D01*
X75186000Y-128411323D01*
X75186001Y-131747288D01*
X75142063Y-131791226D01*
X75028795Y-131960744D01*
X74950774Y-132149102D01*
X74911000Y-132349061D01*
X74911000Y-132552939D01*
X74950774Y-132752898D01*
X75028795Y-132941256D01*
X75142063Y-133110774D01*
X75286226Y-133254937D01*
X75455744Y-133368205D01*
X75644102Y-133446226D01*
X75844061Y-133486000D01*
X76047939Y-133486000D01*
X76247898Y-133446226D01*
X76436256Y-133368205D01*
X76605774Y-133254937D01*
X76749937Y-133110774D01*
X76863205Y-132941256D01*
X76882999Y-132893469D01*
X76883000Y-140567363D01*
X76745435Y-140540000D01*
X76410565Y-140540000D01*
X76082128Y-140605330D01*
X75772748Y-140733479D01*
X75494313Y-140919523D01*
X75257523Y-141156313D01*
X75071479Y-141434748D01*
X74943330Y-141744128D01*
X74878000Y-142072565D01*
X74878000Y-142407435D01*
X74943330Y-142735872D01*
X75071479Y-143045252D01*
X75257523Y-143323687D01*
X75494313Y-143560477D01*
X75772748Y-143746521D01*
X75918000Y-143806686D01*
X75918001Y-146071197D01*
X68889835Y-153099363D01*
X68773872Y-153051330D01*
X68445435Y-152986000D01*
X68110565Y-152986000D01*
X67782128Y-153051330D01*
X67472748Y-153179479D01*
X67194313Y-153365523D01*
X66957523Y-153602313D01*
X66771479Y-153880748D01*
X66729895Y-153981140D01*
X66731072Y-153721000D01*
X66718812Y-153596518D01*
X66682502Y-153476820D01*
X66623537Y-153366506D01*
X66544185Y-153269815D01*
X66447494Y-153190463D01*
X66337180Y-153131498D01*
X66217482Y-153095188D01*
X66093000Y-153082928D01*
X65463750Y-153086000D01*
X65305000Y-153244750D01*
X65305000Y-154559000D01*
X65325000Y-154559000D01*
X65325000Y-154813000D01*
X65305000Y-154813000D01*
X65305000Y-156127250D01*
X65463750Y-156286000D01*
X66093000Y-156289072D01*
X66217482Y-156276812D01*
X66337180Y-156240502D01*
X66447494Y-156181537D01*
X66544185Y-156102185D01*
X66623537Y-156005494D01*
X66682502Y-155895180D01*
X66718812Y-155775482D01*
X66731072Y-155651000D01*
X66729895Y-155390860D01*
X66771479Y-155491252D01*
X66957523Y-155769687D01*
X67194313Y-156006477D01*
X67472748Y-156192521D01*
X67782128Y-156320670D01*
X68110565Y-156386000D01*
X68445435Y-156386000D01*
X68773872Y-156320670D01*
X69083252Y-156192521D01*
X69361687Y-156006477D01*
X69598477Y-155769687D01*
X69668465Y-155664943D01*
X69691678Y-155720985D01*
X69930800Y-156078856D01*
X70235144Y-156383200D01*
X70593015Y-156622322D01*
X70990659Y-156787031D01*
X71412796Y-156871000D01*
X71843204Y-156871000D01*
X72265341Y-156787031D01*
X72662985Y-156622322D01*
X73020856Y-156383200D01*
X73325200Y-156078856D01*
X73564322Y-155720985D01*
X73729031Y-155323341D01*
X73813000Y-154901204D01*
X73813000Y-154518565D01*
X74878000Y-154518565D01*
X74878000Y-154853435D01*
X74943330Y-155181872D01*
X75071479Y-155491252D01*
X75257523Y-155769687D01*
X75494313Y-156006477D01*
X75772748Y-156192521D01*
X76082128Y-156320670D01*
X76410565Y-156386000D01*
X76745435Y-156386000D01*
X77073872Y-156320670D01*
X77383252Y-156192521D01*
X77661687Y-156006477D01*
X77898477Y-155769687D01*
X77977780Y-155651000D01*
X78610928Y-155651000D01*
X78623188Y-155775482D01*
X78659498Y-155895180D01*
X78718463Y-156005494D01*
X78797815Y-156102185D01*
X78894506Y-156181537D01*
X79004820Y-156240502D01*
X79124518Y-156276812D01*
X79249000Y-156289072D01*
X79878250Y-156286000D01*
X80037000Y-156127250D01*
X80037000Y-154813000D01*
X78772750Y-154813000D01*
X78614000Y-154971750D01*
X78610928Y-155651000D01*
X77977780Y-155651000D01*
X78084521Y-155491252D01*
X78212670Y-155181872D01*
X78278000Y-154853435D01*
X78278000Y-154518565D01*
X78212670Y-154190128D01*
X78084521Y-153880748D01*
X77977781Y-153721000D01*
X78610928Y-153721000D01*
X78614000Y-154400250D01*
X78772750Y-154559000D01*
X80037000Y-154559000D01*
X80037000Y-153244750D01*
X80291000Y-153244750D01*
X80291000Y-154559000D01*
X80311000Y-154559000D01*
X80311000Y-154813000D01*
X80291000Y-154813000D01*
X80291000Y-156127250D01*
X80449750Y-156286000D01*
X81079000Y-156289072D01*
X81203482Y-156276812D01*
X81323180Y-156240502D01*
X81433494Y-156181537D01*
X81530185Y-156102185D01*
X81609537Y-156005494D01*
X81668502Y-155895180D01*
X81704812Y-155775482D01*
X81717072Y-155651000D01*
X81715895Y-155390860D01*
X81757479Y-155491252D01*
X81943523Y-155769687D01*
X82180313Y-156006477D01*
X82458748Y-156192521D01*
X82768128Y-156320670D01*
X83096565Y-156386000D01*
X83431435Y-156386000D01*
X83759872Y-156320670D01*
X84069252Y-156192521D01*
X84347687Y-156006477D01*
X84584477Y-155769687D01*
X84654465Y-155664943D01*
X84677678Y-155720985D01*
X84916800Y-156078856D01*
X85221144Y-156383200D01*
X85579015Y-156622322D01*
X85976659Y-156787031D01*
X86398796Y-156871000D01*
X86829204Y-156871000D01*
X87251341Y-156787031D01*
X87648985Y-156622322D01*
X88006856Y-156383200D01*
X88311200Y-156078856D01*
X88550322Y-155720985D01*
X88715031Y-155323341D01*
X88799000Y-154901204D01*
X88799000Y-154470796D01*
X88715031Y-154048659D01*
X88550322Y-153651015D01*
X88311200Y-153293144D01*
X88006856Y-152988800D01*
X87648985Y-152749678D01*
X87251341Y-152584969D01*
X86829204Y-152501000D01*
X86398796Y-152501000D01*
X85976659Y-152584969D01*
X85579015Y-152749678D01*
X85221144Y-152988800D01*
X84916800Y-153293144D01*
X84677678Y-153651015D01*
X84654465Y-153707057D01*
X84584477Y-153602313D01*
X84347687Y-153365523D01*
X84069252Y-153179479D01*
X83759872Y-153051330D01*
X83431435Y-152986000D01*
X83096565Y-152986000D01*
X82768128Y-153051330D01*
X82458748Y-153179479D01*
X82180313Y-153365523D01*
X81943523Y-153602313D01*
X81757479Y-153880748D01*
X81715895Y-153981140D01*
X81717072Y-153721000D01*
X81704812Y-153596518D01*
X81668502Y-153476820D01*
X81609537Y-153366506D01*
X81530185Y-153269815D01*
X81433494Y-153190463D01*
X81323180Y-153131498D01*
X81203482Y-153095188D01*
X81079000Y-153082928D01*
X80449750Y-153086000D01*
X80291000Y-153244750D01*
X80037000Y-153244750D01*
X79878250Y-153086000D01*
X79249000Y-153082928D01*
X79124518Y-153095188D01*
X79004820Y-153131498D01*
X78894506Y-153190463D01*
X78797815Y-153269815D01*
X78718463Y-153366506D01*
X78659498Y-153476820D01*
X78623188Y-153596518D01*
X78610928Y-153721000D01*
X77977781Y-153721000D01*
X77898477Y-153602313D01*
X77661687Y-153365523D01*
X77383252Y-153179479D01*
X77073872Y-153051330D01*
X76745435Y-152986000D01*
X76410565Y-152986000D01*
X76082128Y-153051330D01*
X75772748Y-153179479D01*
X75494313Y-153365523D01*
X75257523Y-153602313D01*
X75071479Y-153880748D01*
X74943330Y-154190128D01*
X74878000Y-154518565D01*
X73813000Y-154518565D01*
X73813000Y-154470796D01*
X73729031Y-154048659D01*
X73564322Y-153651015D01*
X73325200Y-153293144D01*
X73020856Y-152988800D01*
X72662985Y-152749678D01*
X72265341Y-152584969D01*
X71843204Y-152501000D01*
X71637801Y-152501000D01*
X77189003Y-146949799D01*
X77218001Y-146926001D01*
X77312974Y-146810276D01*
X77383546Y-146678247D01*
X77427003Y-146534986D01*
X77438000Y-146423333D01*
X77441677Y-146386000D01*
X77438000Y-146348667D01*
X77438000Y-143709940D01*
X77661687Y-143560477D01*
X77898477Y-143323687D01*
X78084521Y-143045252D01*
X78212670Y-142735872D01*
X78278000Y-142407435D01*
X78278000Y-142072565D01*
X78212670Y-141744128D01*
X78194700Y-141700745D01*
X78214843Y-141676201D01*
X78277973Y-141599278D01*
X78348545Y-141467248D01*
X78392002Y-141323987D01*
X78402999Y-141212334D01*
X78402999Y-141212325D01*
X78406675Y-141175002D01*
X78402999Y-141137679D01*
X78402999Y-133264072D01*
X79894000Y-133264072D01*
X80018482Y-133251812D01*
X80138180Y-133215502D01*
X80248494Y-133156537D01*
X80345185Y-133077185D01*
X80424537Y-132980494D01*
X80477880Y-132880697D01*
X80515495Y-132918312D01*
X80766905Y-133086299D01*
X81046257Y-133202011D01*
X81342816Y-133261000D01*
X81645184Y-133261000D01*
X81941743Y-133202011D01*
X82221095Y-133086299D01*
X82472505Y-132918312D01*
X82600737Y-132790080D01*
X83109525Y-132790080D01*
X83193208Y-133044261D01*
X83465775Y-133175158D01*
X83758642Y-133250365D01*
X84060553Y-133266991D01*
X84359907Y-133224397D01*
X84645199Y-133124222D01*
X84794792Y-133044261D01*
X84878475Y-132790080D01*
X83994000Y-131905605D01*
X83109525Y-132790080D01*
X82600737Y-132790080D01*
X82686312Y-132704505D01*
X82781738Y-132561690D01*
X82929920Y-132610475D01*
X83814395Y-131726000D01*
X84173605Y-131726000D01*
X85058080Y-132610475D01*
X85312261Y-132526792D01*
X85443158Y-132254225D01*
X85518365Y-131961358D01*
X85534991Y-131659447D01*
X85492397Y-131360093D01*
X85392222Y-131074801D01*
X85312261Y-130925208D01*
X85058080Y-130841525D01*
X84173605Y-131726000D01*
X83814395Y-131726000D01*
X82929920Y-130841525D01*
X82781738Y-130890310D01*
X82686312Y-130747495D01*
X82600737Y-130661920D01*
X83109525Y-130661920D01*
X83994000Y-131546395D01*
X84878475Y-130661920D01*
X84794792Y-130407739D01*
X84522225Y-130276842D01*
X84229358Y-130201635D01*
X83927447Y-130185009D01*
X83628093Y-130227603D01*
X83342801Y-130327778D01*
X83193208Y-130407739D01*
X83109525Y-130661920D01*
X82600737Y-130661920D01*
X82472505Y-130533688D01*
X82221095Y-130365701D01*
X81941743Y-130249989D01*
X81645184Y-130191000D01*
X81342816Y-130191000D01*
X81046257Y-130249989D01*
X80766905Y-130365701D01*
X80515495Y-130533688D01*
X80477880Y-130571303D01*
X80424537Y-130471506D01*
X80345185Y-130374815D01*
X80248494Y-130295463D01*
X80138180Y-130236498D01*
X80018482Y-130200188D01*
X79894000Y-130187928D01*
X78402999Y-130187928D01*
X78402999Y-129681802D01*
X80730004Y-127354798D01*
X80759002Y-127331000D01*
X80785333Y-127298916D01*
X80853975Y-127215276D01*
X80924547Y-127083246D01*
X80968004Y-126939985D01*
X80979001Y-126828332D01*
X80979001Y-126828322D01*
X80982677Y-126790999D01*
X80979001Y-126753676D01*
X80979001Y-124763162D01*
X83664333Y-124763162D01*
X83800652Y-125212553D01*
X84040067Y-125670270D01*
X84364178Y-126072485D01*
X84760530Y-126403740D01*
X85213890Y-126651306D01*
X85706837Y-126805669D01*
X86117000Y-126699190D01*
X86117000Y-124353000D01*
X86371000Y-124353000D01*
X86371000Y-126699190D01*
X86781163Y-126805669D01*
X87274110Y-126651306D01*
X87727470Y-126403740D01*
X88123822Y-126072485D01*
X88447933Y-125670270D01*
X88687348Y-125212553D01*
X88823667Y-124763162D01*
X88716991Y-124353000D01*
X86371000Y-124353000D01*
X86117000Y-124353000D01*
X83771009Y-124353000D01*
X83664333Y-124763162D01*
X80979001Y-124763162D01*
X80979001Y-123688838D01*
X83664333Y-123688838D01*
X83771009Y-124099000D01*
X86117000Y-124099000D01*
X86117000Y-121752810D01*
X86371000Y-121752810D01*
X86371000Y-124099000D01*
X88716991Y-124099000D01*
X88823667Y-123688838D01*
X88687348Y-123239447D01*
X88447933Y-122781730D01*
X88123822Y-122379515D01*
X87727470Y-122048260D01*
X87274110Y-121800694D01*
X86781163Y-121646331D01*
X86371000Y-121752810D01*
X86117000Y-121752810D01*
X85706837Y-121646331D01*
X85213890Y-121800694D01*
X84760530Y-122048260D01*
X84364178Y-122379515D01*
X84040067Y-122781730D01*
X83800652Y-123239447D01*
X83664333Y-123688838D01*
X80979001Y-123688838D01*
X80979001Y-116859000D01*
X81127939Y-116859000D01*
X81327898Y-116819226D01*
X81516256Y-116741205D01*
X81685774Y-116627937D01*
X81829937Y-116483774D01*
X81943205Y-116314256D01*
X82021226Y-116125898D01*
X82061000Y-115925939D01*
X82061000Y-115722061D01*
X82021226Y-115522102D01*
X81943205Y-115333744D01*
X81829937Y-115164226D01*
X81685774Y-115020063D01*
X81516256Y-114906795D01*
X81327898Y-114828774D01*
X81127939Y-114789000D01*
X81065802Y-114789000D01*
X79754000Y-113477199D01*
X79754000Y-111674072D01*
X79894000Y-111674072D01*
X80018482Y-111661812D01*
X80138180Y-111625502D01*
X80248494Y-111566537D01*
X80345185Y-111487185D01*
X80424537Y-111390494D01*
X80477880Y-111290697D01*
X80515495Y-111328312D01*
X80766905Y-111496299D01*
X81046257Y-111612011D01*
X81342816Y-111671000D01*
X81645184Y-111671000D01*
X81941743Y-111612011D01*
X82221095Y-111496299D01*
X82472505Y-111328312D01*
X82600737Y-111200080D01*
X83109525Y-111200080D01*
X83193208Y-111454261D01*
X83465775Y-111585158D01*
X83758642Y-111660365D01*
X84060553Y-111676991D01*
X84359907Y-111634397D01*
X84645199Y-111534222D01*
X84794792Y-111454261D01*
X84878475Y-111200080D01*
X83994000Y-110315605D01*
X83109525Y-111200080D01*
X82600737Y-111200080D01*
X82686312Y-111114505D01*
X82781738Y-110971690D01*
X82929920Y-111020475D01*
X83814395Y-110136000D01*
X84173605Y-110136000D01*
X85058080Y-111020475D01*
X85312261Y-110936792D01*
X85443158Y-110664225D01*
X85518365Y-110371358D01*
X85534991Y-110069447D01*
X85492397Y-109770093D01*
X85392222Y-109484801D01*
X85312261Y-109335208D01*
X85058080Y-109251525D01*
X84173605Y-110136000D01*
X83814395Y-110136000D01*
X82929920Y-109251525D01*
X82781738Y-109300310D01*
X82686312Y-109157495D01*
X82600737Y-109071920D01*
X83109525Y-109071920D01*
X83994000Y-109956395D01*
X84878475Y-109071920D01*
X84794792Y-108817739D01*
X84522225Y-108686842D01*
X84229358Y-108611635D01*
X83927447Y-108595009D01*
X83628093Y-108637603D01*
X83342801Y-108737778D01*
X83193208Y-108817739D01*
X83109525Y-109071920D01*
X82600737Y-109071920D01*
X82472505Y-108943688D01*
X82221095Y-108775701D01*
X81941743Y-108659989D01*
X81645184Y-108601000D01*
X81342816Y-108601000D01*
X81046257Y-108659989D01*
X80766905Y-108775701D01*
X80515495Y-108943688D01*
X80477880Y-108981303D01*
X80424537Y-108881506D01*
X80345185Y-108784815D01*
X80303882Y-108750919D01*
X83333801Y-105721001D01*
X87322679Y-105721001D01*
X87360001Y-105724677D01*
X87397323Y-105721001D01*
X87397334Y-105721001D01*
X87508987Y-105710004D01*
X87652248Y-105666547D01*
X87784277Y-105595975D01*
X87900002Y-105501002D01*
X87923805Y-105471998D01*
X90935004Y-102460800D01*
X90964001Y-102437003D01*
X90990332Y-102404919D01*
X91058974Y-102321279D01*
X91129546Y-102189249D01*
X91163899Y-102075999D01*
X91173003Y-102045988D01*
X91184000Y-101934335D01*
X91184000Y-101934325D01*
X91187676Y-101897002D01*
X91184000Y-101859679D01*
X91184000Y-97985711D01*
X91227937Y-97941774D01*
X91341205Y-97772256D01*
X91419226Y-97583898D01*
X91459000Y-97383939D01*
X91459000Y-97180061D01*
X91419226Y-96980102D01*
X91341205Y-96791744D01*
X91227937Y-96622226D01*
X91083774Y-96478063D01*
X90914256Y-96364795D01*
X90725898Y-96286774D01*
X90525939Y-96247000D01*
X90322061Y-96247000D01*
X90122102Y-96286774D01*
X89933744Y-96364795D01*
X89764226Y-96478063D01*
X89620063Y-96622226D01*
X89506795Y-96791744D01*
X89428774Y-96980102D01*
X89389000Y-97180061D01*
X89389000Y-97383939D01*
X89428774Y-97583898D01*
X89506795Y-97772256D01*
X89620063Y-97941774D01*
X89664000Y-97985711D01*
X89664000Y-98337565D01*
X89664001Y-98337575D01*
X89664000Y-101582200D01*
X88737202Y-102508998D01*
X88716992Y-102508998D01*
X88823667Y-102098838D01*
X88687348Y-101649447D01*
X88447933Y-101191730D01*
X88123822Y-100789515D01*
X87727470Y-100458260D01*
X87274110Y-100210694D01*
X86781163Y-100056331D01*
X86371000Y-100162810D01*
X86371000Y-102509000D01*
X86391000Y-102509000D01*
X86391000Y-102763000D01*
X86371000Y-102763000D01*
X86371000Y-102783000D01*
X86117000Y-102783000D01*
X86117000Y-102763000D01*
X83771009Y-102763000D01*
X83664333Y-103173162D01*
X83800652Y-103622553D01*
X84040067Y-104080270D01*
X84137354Y-104201001D01*
X83056321Y-104201001D01*
X83018998Y-104197325D01*
X82981675Y-104201001D01*
X82981666Y-104201001D01*
X82870013Y-104211998D01*
X82726752Y-104255455D01*
X82594723Y-104326027D01*
X82478998Y-104421000D01*
X82455200Y-104449998D01*
X78482998Y-108422201D01*
X78454000Y-108445999D01*
X78430202Y-108474997D01*
X78430201Y-108474998D01*
X78359026Y-108561724D01*
X78339674Y-108597928D01*
X78094000Y-108597928D01*
X77969518Y-108610188D01*
X77849820Y-108646498D01*
X77739506Y-108705463D01*
X77642815Y-108784815D01*
X77563463Y-108881506D01*
X77504498Y-108991820D01*
X77468188Y-109111518D01*
X77455928Y-109236000D01*
X77455928Y-111036000D01*
X77468188Y-111160482D01*
X77504498Y-111280180D01*
X77563463Y-111390494D01*
X77642815Y-111487185D01*
X77739506Y-111566537D01*
X77849820Y-111625502D01*
X77969518Y-111661812D01*
X78094000Y-111674072D01*
X78234000Y-111674072D01*
X78234001Y-113368201D01*
X73827739Y-108961940D01*
X73953101Y-108894932D01*
X74171608Y-108715608D01*
X74350932Y-108497101D01*
X74484182Y-108247808D01*
X74566236Y-107977309D01*
X74593943Y-107696000D01*
X74566236Y-107414691D01*
X74484182Y-107144192D01*
X74350932Y-106894899D01*
X74171608Y-106676392D01*
X73953101Y-106497068D01*
X73815318Y-106423421D01*
X74007131Y-106308385D01*
X74215519Y-106119414D01*
X74383037Y-105893420D01*
X74503246Y-105639087D01*
X74543904Y-105505039D01*
X74421915Y-105283000D01*
X73279000Y-105283000D01*
X73279000Y-105303000D01*
X73025000Y-105303000D01*
X73025000Y-105283000D01*
X73005000Y-105283000D01*
X73005000Y-105029000D01*
X73025000Y-105029000D01*
X73025000Y-105009000D01*
X73279000Y-105009000D01*
X73279000Y-105029000D01*
X74421915Y-105029000D01*
X74543904Y-104806961D01*
X74503246Y-104672913D01*
X74383037Y-104418580D01*
X74215519Y-104192586D01*
X74007131Y-104003615D01*
X73815318Y-103888579D01*
X73953101Y-103814932D01*
X74171608Y-103635608D01*
X74268718Y-103517279D01*
X74300652Y-103622553D01*
X74540067Y-104080270D01*
X74864178Y-104482485D01*
X75260530Y-104813740D01*
X75713890Y-105061306D01*
X76206837Y-105215669D01*
X76617000Y-105109190D01*
X76617000Y-102763000D01*
X76871000Y-102763000D01*
X76871000Y-105109190D01*
X77281163Y-105215669D01*
X77774110Y-105061306D01*
X78227470Y-104813740D01*
X78623822Y-104482485D01*
X78947933Y-104080270D01*
X79187348Y-103622553D01*
X79323667Y-103173162D01*
X79216991Y-102763000D01*
X76871000Y-102763000D01*
X76617000Y-102763000D01*
X76597000Y-102763000D01*
X76597000Y-102509000D01*
X76617000Y-102509000D01*
X76617000Y-100162810D01*
X76871000Y-100162810D01*
X76871000Y-102509000D01*
X79216991Y-102509000D01*
X79323667Y-102098838D01*
X83664333Y-102098838D01*
X83771009Y-102509000D01*
X86117000Y-102509000D01*
X86117000Y-100162810D01*
X85706837Y-100056331D01*
X85213890Y-100210694D01*
X84760530Y-100458260D01*
X84364178Y-100789515D01*
X84040067Y-101191730D01*
X83800652Y-101649447D01*
X83664333Y-102098838D01*
X79323667Y-102098838D01*
X79187348Y-101649447D01*
X78947933Y-101191730D01*
X78623822Y-100789515D01*
X78227470Y-100458260D01*
X77774110Y-100210694D01*
X77281163Y-100056331D01*
X76871000Y-100162810D01*
X76617000Y-100162810D01*
X76206837Y-100056331D01*
X75713890Y-100210694D01*
X75260530Y-100458260D01*
X74864178Y-100789515D01*
X74540067Y-101191730D01*
X74300652Y-101649447D01*
X74277577Y-101725516D01*
X74171608Y-101596392D01*
X73953101Y-101417068D01*
X73820142Y-101346000D01*
X73953101Y-101274932D01*
X74171608Y-101095608D01*
X74350932Y-100877101D01*
X74484182Y-100627808D01*
X74566236Y-100357309D01*
X74593943Y-100076000D01*
X74566236Y-99794691D01*
X74484182Y-99524192D01*
X74350932Y-99274899D01*
X74171608Y-99056392D01*
X73953101Y-98877068D01*
X73820142Y-98806000D01*
X73953101Y-98734932D01*
X74171608Y-98555608D01*
X74350932Y-98337101D01*
X74484182Y-98087808D01*
X74566236Y-97817309D01*
X74593943Y-97536000D01*
X74566236Y-97254691D01*
X74484182Y-96984192D01*
X74350932Y-96734899D01*
X74171608Y-96516392D01*
X73953101Y-96337068D01*
X73820142Y-96266000D01*
X73953101Y-96194932D01*
X74171608Y-96015608D01*
X74350932Y-95797101D01*
X74484182Y-95547808D01*
X74566236Y-95277309D01*
X74593943Y-94996000D01*
X74566236Y-94714691D01*
X74540849Y-94630999D01*
X79454200Y-94630999D01*
X79460063Y-94639774D01*
X79604226Y-94783937D01*
X79773744Y-94897205D01*
X79962102Y-94975226D01*
X80162061Y-95015000D01*
X80365939Y-95015000D01*
X80565898Y-94975226D01*
X80754256Y-94897205D01*
X80923774Y-94783937D01*
X81067937Y-94639774D01*
X81181205Y-94470256D01*
X81259226Y-94281898D01*
X81299000Y-94081939D01*
X81299000Y-93878061D01*
X81259226Y-93678102D01*
X81181205Y-93489744D01*
X81067937Y-93320226D01*
X80923774Y-93176063D01*
X80754256Y-93062795D01*
X80565898Y-92984774D01*
X80365939Y-92945000D01*
X80162061Y-92945000D01*
X79962102Y-92984774D01*
X79773744Y-93062795D01*
X79701601Y-93110999D01*
X74429025Y-93110999D01*
X74484182Y-93007808D01*
X74566236Y-92737309D01*
X74593943Y-92456000D01*
X74566236Y-92174691D01*
X74484182Y-91904192D01*
X74350932Y-91654899D01*
X74171608Y-91436392D01*
X74058518Y-91343581D01*
X74076482Y-91341812D01*
X74196180Y-91305502D01*
X74306494Y-91246537D01*
X74403185Y-91167185D01*
X74482537Y-91070494D01*
X74541502Y-90960180D01*
X74577812Y-90840482D01*
X74590072Y-90716000D01*
X74590072Y-89116000D01*
X74577812Y-88991518D01*
X74541502Y-88871820D01*
X74482537Y-88761506D01*
X74403185Y-88664815D01*
X74306494Y-88585463D01*
X74196180Y-88526498D01*
X74076482Y-88490188D01*
X73952000Y-88477928D01*
X72352000Y-88477928D01*
X72227518Y-88490188D01*
X72107820Y-88526498D01*
X71997506Y-88585463D01*
X71900815Y-88664815D01*
X71821463Y-88761506D01*
X71762498Y-88871820D01*
X71726188Y-88991518D01*
X71713928Y-89116000D01*
X71713928Y-90716000D01*
X71726188Y-90840482D01*
X71762498Y-90960180D01*
X71821463Y-91070494D01*
X71900815Y-91167185D01*
X71997506Y-91246537D01*
X72107820Y-91305502D01*
X72227518Y-91341812D01*
X72245482Y-91343581D01*
X72132392Y-91436392D01*
X71953068Y-91654899D01*
X71819818Y-91904192D01*
X71737764Y-92174691D01*
X71710057Y-92456000D01*
X71737764Y-92737309D01*
X71819818Y-93007808D01*
X71878910Y-93118362D01*
X71842015Y-93121996D01*
X71698754Y-93165453D01*
X71566725Y-93236025D01*
X71566723Y-93236026D01*
X71566724Y-93236026D01*
X71479997Y-93307200D01*
X71479993Y-93307204D01*
X71451000Y-93330998D01*
X71427206Y-93359991D01*
X69136200Y-95650999D01*
X66801993Y-95650999D01*
X66883246Y-95479087D01*
X66923904Y-95345039D01*
X66801915Y-95123000D01*
X65659000Y-95123000D01*
X65659000Y-95143000D01*
X65405000Y-95143000D01*
X65405000Y-95123000D01*
X65385000Y-95123000D01*
X65385000Y-94869000D01*
X65405000Y-94869000D01*
X65405000Y-94849000D01*
X65659000Y-94849000D01*
X65659000Y-94869000D01*
X66801915Y-94869000D01*
X66923904Y-94646961D01*
X66883246Y-94512913D01*
X66763037Y-94258580D01*
X66595519Y-94032586D01*
X66387131Y-93843615D01*
X66195318Y-93728579D01*
X66333101Y-93654932D01*
X66551608Y-93475608D01*
X66730932Y-93257101D01*
X66864182Y-93007808D01*
X66946236Y-92737309D01*
X66973943Y-92456000D01*
X66946236Y-92174691D01*
X66864182Y-91904192D01*
X66730932Y-91654899D01*
X66551608Y-91436392D01*
X66333101Y-91257068D01*
X66200142Y-91186000D01*
X66333101Y-91114932D01*
X66551608Y-90935608D01*
X66730932Y-90717101D01*
X66864182Y-90467808D01*
X66946236Y-90197309D01*
X66973943Y-89916000D01*
X66946236Y-89634691D01*
X66864182Y-89364192D01*
X66730932Y-89114899D01*
X66551608Y-88896392D01*
X66333101Y-88717068D01*
X66207739Y-88650060D01*
X67211799Y-87646000D01*
X77455928Y-87646000D01*
X77455928Y-89446000D01*
X77468188Y-89570482D01*
X77504498Y-89690180D01*
X77563463Y-89800494D01*
X77642815Y-89897185D01*
X77739506Y-89976537D01*
X77849820Y-90035502D01*
X77969518Y-90071812D01*
X78094000Y-90084072D01*
X79894000Y-90084072D01*
X80018482Y-90071812D01*
X80138180Y-90035502D01*
X80248494Y-89976537D01*
X80345185Y-89897185D01*
X80424537Y-89800494D01*
X80477880Y-89700697D01*
X80515495Y-89738312D01*
X80766905Y-89906299D01*
X81046257Y-90022011D01*
X81342816Y-90081000D01*
X81645184Y-90081000D01*
X81941743Y-90022011D01*
X82221095Y-89906299D01*
X82472505Y-89738312D01*
X82600737Y-89610080D01*
X83109525Y-89610080D01*
X83193208Y-89864261D01*
X83465775Y-89995158D01*
X83758642Y-90070365D01*
X84060553Y-90086991D01*
X84359907Y-90044397D01*
X84645199Y-89944222D01*
X84794792Y-89864261D01*
X84878475Y-89610080D01*
X83994000Y-88725605D01*
X83109525Y-89610080D01*
X82600737Y-89610080D01*
X82686312Y-89524505D01*
X82781738Y-89381690D01*
X82929920Y-89430475D01*
X83814395Y-88546000D01*
X84173605Y-88546000D01*
X85058080Y-89430475D01*
X85312261Y-89346792D01*
X85443158Y-89074225D01*
X85518365Y-88781358D01*
X85534991Y-88479447D01*
X85492397Y-88180093D01*
X85392222Y-87894801D01*
X85312261Y-87745208D01*
X85058080Y-87661525D01*
X84173605Y-88546000D01*
X83814395Y-88546000D01*
X82929920Y-87661525D01*
X82781738Y-87710310D01*
X82686312Y-87567495D01*
X82600737Y-87481920D01*
X83109525Y-87481920D01*
X83994000Y-88366395D01*
X84878475Y-87481920D01*
X84794792Y-87227739D01*
X84522225Y-87096842D01*
X84229358Y-87021635D01*
X83927447Y-87005009D01*
X83628093Y-87047603D01*
X83342801Y-87147778D01*
X83193208Y-87227739D01*
X83109525Y-87481920D01*
X82600737Y-87481920D01*
X82472505Y-87353688D01*
X82221095Y-87185701D01*
X81941743Y-87069989D01*
X81645184Y-87011000D01*
X81342816Y-87011000D01*
X81046257Y-87069989D01*
X80766905Y-87185701D01*
X80515495Y-87353688D01*
X80477880Y-87391303D01*
X80424537Y-87291506D01*
X80345185Y-87194815D01*
X80248494Y-87115463D01*
X80138180Y-87056498D01*
X80018482Y-87020188D01*
X79894000Y-87007928D01*
X78094000Y-87007928D01*
X77969518Y-87020188D01*
X77849820Y-87056498D01*
X77739506Y-87115463D01*
X77642815Y-87194815D01*
X77563463Y-87291506D01*
X77504498Y-87401820D01*
X77468188Y-87521518D01*
X77455928Y-87646000D01*
X67211799Y-87646000D01*
X73274637Y-81583162D01*
X74164333Y-81583162D01*
X74300652Y-82032553D01*
X74540067Y-82490270D01*
X74864178Y-82892485D01*
X75260530Y-83223740D01*
X75713890Y-83471306D01*
X76206837Y-83625669D01*
X76617000Y-83519190D01*
X76617000Y-81173000D01*
X76871000Y-81173000D01*
X76871000Y-83519190D01*
X77281163Y-83625669D01*
X77774110Y-83471306D01*
X78227470Y-83223740D01*
X78623822Y-82892485D01*
X78947933Y-82490270D01*
X79187348Y-82032553D01*
X79323667Y-81583162D01*
X83664333Y-81583162D01*
X83800652Y-82032553D01*
X84040067Y-82490270D01*
X84364178Y-82892485D01*
X84760530Y-83223740D01*
X85213890Y-83471306D01*
X85706837Y-83625669D01*
X86117000Y-83519190D01*
X86117000Y-81173000D01*
X86371000Y-81173000D01*
X86371000Y-83519190D01*
X86781163Y-83625669D01*
X87274110Y-83471306D01*
X87727470Y-83223740D01*
X88123822Y-82892485D01*
X88447933Y-82490270D01*
X88687348Y-82032553D01*
X88823667Y-81583162D01*
X88716991Y-81173000D01*
X86371000Y-81173000D01*
X86117000Y-81173000D01*
X83771009Y-81173000D01*
X83664333Y-81583162D01*
X79323667Y-81583162D01*
X79216991Y-81173000D01*
X76871000Y-81173000D01*
X76617000Y-81173000D01*
X74271009Y-81173000D01*
X74164333Y-81583162D01*
X73274637Y-81583162D01*
X74202441Y-80655359D01*
X74271009Y-80919000D01*
X76617000Y-80919000D01*
X76617000Y-78572810D01*
X76871000Y-78572810D01*
X76871000Y-80919000D01*
X79216991Y-80919000D01*
X79323667Y-80508838D01*
X83664333Y-80508838D01*
X83771009Y-80919000D01*
X86117000Y-80919000D01*
X86117000Y-78572810D01*
X86371000Y-78572810D01*
X86371000Y-80919000D01*
X88716991Y-80919000D01*
X88823667Y-80508838D01*
X88687348Y-80059447D01*
X88447933Y-79601730D01*
X88123822Y-79199515D01*
X87727470Y-78868260D01*
X87274110Y-78620694D01*
X86781163Y-78466331D01*
X86371000Y-78572810D01*
X86117000Y-78572810D01*
X85706837Y-78466331D01*
X85213890Y-78620694D01*
X84760530Y-78868260D01*
X84364178Y-79199515D01*
X84040067Y-79601730D01*
X83800652Y-80059447D01*
X83664333Y-80508838D01*
X79323667Y-80508838D01*
X79187348Y-80059447D01*
X78947933Y-79601730D01*
X78623822Y-79199515D01*
X78227470Y-78868260D01*
X77774110Y-78620694D01*
X77281163Y-78466331D01*
X76871000Y-78572810D01*
X76617000Y-78572810D01*
X76353416Y-78504383D01*
X80826391Y-74031409D01*
X80918248Y-74003545D01*
X81050226Y-73933000D01*
X81127939Y-73933000D01*
X81327898Y-73893226D01*
X81516256Y-73815205D01*
X81685774Y-73701937D01*
X81829937Y-73557774D01*
X81943205Y-73388256D01*
X82021226Y-73199898D01*
X82061000Y-72999939D01*
X82061000Y-72796061D01*
X82021226Y-72596102D01*
X81943205Y-72407744D01*
X81829937Y-72238226D01*
X81685774Y-72094063D01*
X81516256Y-71980795D01*
X81327898Y-71902774D01*
X81127939Y-71863000D01*
X80924061Y-71863000D01*
X80724102Y-71902774D01*
X80535744Y-71980795D01*
X80366226Y-72094063D01*
X80222063Y-72238226D01*
X80108795Y-72407744D01*
X80030774Y-72596102D01*
X80009023Y-72705454D01*
X79944998Y-72757998D01*
X79921200Y-72786996D01*
X64414000Y-88294197D01*
X64414000Y-77114400D01*
X66570328Y-77114400D01*
X66570328Y-78841600D01*
X66582588Y-78966082D01*
X66618898Y-79085780D01*
X66677863Y-79196094D01*
X66757215Y-79292785D01*
X66853906Y-79372137D01*
X66964220Y-79431102D01*
X67083918Y-79467412D01*
X67208400Y-79479672D01*
X68935600Y-79479672D01*
X69060082Y-79467412D01*
X69179780Y-79431102D01*
X69290094Y-79372137D01*
X69386785Y-79292785D01*
X69466137Y-79196094D01*
X69525102Y-79085780D01*
X69540586Y-79034735D01*
X69547203Y-79042797D01*
X69775394Y-79230069D01*
X70035736Y-79369225D01*
X70318223Y-79454916D01*
X70538381Y-79476600D01*
X70685619Y-79476600D01*
X70905777Y-79454916D01*
X71188264Y-79369225D01*
X71448606Y-79230069D01*
X71676797Y-79042797D01*
X71864069Y-78814606D01*
X72003225Y-78554264D01*
X72088916Y-78271777D01*
X72117851Y-77978000D01*
X72088916Y-77684223D01*
X72003225Y-77401736D01*
X71864069Y-77141394D01*
X71676797Y-76913203D01*
X71448606Y-76725931D01*
X71404090Y-76702137D01*
X71500488Y-76644817D01*
X71718854Y-76448293D01*
X71894684Y-76212944D01*
X72021222Y-75947814D01*
X72066958Y-75797026D01*
X71945817Y-75565000D01*
X70739000Y-75565000D01*
X70739000Y-75585000D01*
X70485000Y-75585000D01*
X70485000Y-75565000D01*
X68199000Y-75565000D01*
X68199000Y-75585000D01*
X67945000Y-75585000D01*
X67945000Y-75565000D01*
X66738183Y-75565000D01*
X66617042Y-75797026D01*
X66662778Y-75947814D01*
X66789316Y-76212944D01*
X66965146Y-76448293D01*
X67028574Y-76505376D01*
X66964220Y-76524898D01*
X66853906Y-76583863D01*
X66757215Y-76663215D01*
X66677863Y-76759906D01*
X66618898Y-76870220D01*
X66582588Y-76989918D01*
X66570328Y-77114400D01*
X64414000Y-77114400D01*
X64414000Y-73257026D01*
X66617042Y-73257026D01*
X66662778Y-73407814D01*
X66789316Y-73672944D01*
X66965146Y-73908293D01*
X67183512Y-74104817D01*
X67289770Y-74168000D01*
X67183512Y-74231183D01*
X66965146Y-74427707D01*
X66789316Y-74663056D01*
X66662778Y-74928186D01*
X66617042Y-75078974D01*
X66738183Y-75311000D01*
X67945000Y-75311000D01*
X67945000Y-73025000D01*
X68199000Y-73025000D01*
X68199000Y-75311000D01*
X70485000Y-75311000D01*
X70485000Y-73025000D01*
X70739000Y-73025000D01*
X70739000Y-75311000D01*
X71945817Y-75311000D01*
X72066958Y-75078974D01*
X72021222Y-74928186D01*
X71894684Y-74663056D01*
X71718854Y-74427707D01*
X71500488Y-74231183D01*
X71394230Y-74168000D01*
X71500488Y-74104817D01*
X71718854Y-73908293D01*
X71894684Y-73672944D01*
X72021222Y-73407814D01*
X72066958Y-73257026D01*
X71945817Y-73025000D01*
X70739000Y-73025000D01*
X70485000Y-73025000D01*
X68199000Y-73025000D01*
X67945000Y-73025000D01*
X66738183Y-73025000D01*
X66617042Y-73257026D01*
X64414000Y-73257026D01*
X64414000Y-70717026D01*
X66617042Y-70717026D01*
X66662778Y-70867814D01*
X66789316Y-71132944D01*
X66965146Y-71368293D01*
X67183512Y-71564817D01*
X67289770Y-71628000D01*
X67183512Y-71691183D01*
X66965146Y-71887707D01*
X66789316Y-72123056D01*
X66662778Y-72388186D01*
X66617042Y-72538974D01*
X66738183Y-72771000D01*
X67945000Y-72771000D01*
X67945000Y-70485000D01*
X68199000Y-70485000D01*
X68199000Y-72771000D01*
X70485000Y-72771000D01*
X70485000Y-70485000D01*
X70739000Y-70485000D01*
X70739000Y-72771000D01*
X71945817Y-72771000D01*
X72066958Y-72538974D01*
X72021222Y-72388186D01*
X71894684Y-72123056D01*
X71718854Y-71887707D01*
X71500488Y-71691183D01*
X71394230Y-71628000D01*
X71500488Y-71564817D01*
X71718854Y-71368293D01*
X71894684Y-71132944D01*
X72021222Y-70867814D01*
X72066958Y-70717026D01*
X71945817Y-70485000D01*
X70739000Y-70485000D01*
X70485000Y-70485000D01*
X68199000Y-70485000D01*
X67945000Y-70485000D01*
X66738183Y-70485000D01*
X66617042Y-70717026D01*
X64414000Y-70717026D01*
X64414000Y-60198000D01*
X66566149Y-60198000D01*
X66595084Y-60491777D01*
X66680775Y-60774264D01*
X66819931Y-61034606D01*
X67007203Y-61262797D01*
X67235394Y-61450069D01*
X67268940Y-61468000D01*
X67235394Y-61485931D01*
X67007203Y-61673203D01*
X66819931Y-61901394D01*
X66680775Y-62161736D01*
X66595084Y-62444223D01*
X66566149Y-62738000D01*
X66595084Y-63031777D01*
X66680775Y-63314264D01*
X66819931Y-63574606D01*
X67007203Y-63802797D01*
X67235394Y-63990069D01*
X67268940Y-64008000D01*
X67235394Y-64025931D01*
X67007203Y-64213203D01*
X66819931Y-64441394D01*
X66680775Y-64701736D01*
X66595084Y-64984223D01*
X66566149Y-65278000D01*
X66595084Y-65571777D01*
X66680775Y-65854264D01*
X66819931Y-66114606D01*
X67007203Y-66342797D01*
X67235394Y-66530069D01*
X67268940Y-66548000D01*
X67235394Y-66565931D01*
X67007203Y-66753203D01*
X66819931Y-66981394D01*
X66680775Y-67241736D01*
X66595084Y-67524223D01*
X66566149Y-67818000D01*
X66595084Y-68111777D01*
X66680775Y-68394264D01*
X66819931Y-68654606D01*
X67007203Y-68882797D01*
X67235394Y-69070069D01*
X67279910Y-69093863D01*
X67183512Y-69151183D01*
X66965146Y-69347707D01*
X66789316Y-69583056D01*
X66662778Y-69848186D01*
X66617042Y-69998974D01*
X66738183Y-70231000D01*
X67945000Y-70231000D01*
X67945000Y-70211000D01*
X68199000Y-70211000D01*
X68199000Y-70231000D01*
X70485000Y-70231000D01*
X70485000Y-70211000D01*
X70739000Y-70211000D01*
X70739000Y-70231000D01*
X71945817Y-70231000D01*
X72066958Y-69998974D01*
X72021222Y-69848186D01*
X71894684Y-69583056D01*
X71718854Y-69347707D01*
X71500488Y-69151183D01*
X71404090Y-69093863D01*
X71448606Y-69070069D01*
X71676797Y-68882797D01*
X71864069Y-68654606D01*
X72003225Y-68394264D01*
X72088916Y-68111777D01*
X72117851Y-67818000D01*
X72088916Y-67524223D01*
X72003225Y-67241736D01*
X71864069Y-66981394D01*
X71729975Y-66818000D01*
X77455928Y-66818000D01*
X77455928Y-68618000D01*
X77468188Y-68742482D01*
X77504498Y-68862180D01*
X77563463Y-68972494D01*
X77642815Y-69069185D01*
X77739506Y-69148537D01*
X77849820Y-69207502D01*
X77969518Y-69243812D01*
X78094000Y-69256072D01*
X79894000Y-69256072D01*
X80018482Y-69243812D01*
X80138180Y-69207502D01*
X80248494Y-69148537D01*
X80345185Y-69069185D01*
X80424537Y-68972494D01*
X80477880Y-68872697D01*
X80515495Y-68910312D01*
X80766905Y-69078299D01*
X81046257Y-69194011D01*
X81342816Y-69253000D01*
X81645184Y-69253000D01*
X81941743Y-69194011D01*
X82221095Y-69078299D01*
X82472505Y-68910312D01*
X82600737Y-68782080D01*
X83109525Y-68782080D01*
X83193208Y-69036261D01*
X83465775Y-69167158D01*
X83758642Y-69242365D01*
X84060553Y-69258991D01*
X84359907Y-69216397D01*
X84645199Y-69116222D01*
X84794792Y-69036261D01*
X84878475Y-68782080D01*
X83994000Y-67897605D01*
X83109525Y-68782080D01*
X82600737Y-68782080D01*
X82686312Y-68696505D01*
X82781738Y-68553690D01*
X82929920Y-68602475D01*
X83814395Y-67718000D01*
X84173605Y-67718000D01*
X85058080Y-68602475D01*
X85312261Y-68518792D01*
X85443158Y-68246225D01*
X85518365Y-67953358D01*
X85534991Y-67651447D01*
X85492397Y-67352093D01*
X85392222Y-67066801D01*
X85312261Y-66917208D01*
X85058080Y-66833525D01*
X84173605Y-67718000D01*
X83814395Y-67718000D01*
X82929920Y-66833525D01*
X82781738Y-66882310D01*
X82686312Y-66739495D01*
X82600737Y-66653920D01*
X83109525Y-66653920D01*
X83994000Y-67538395D01*
X84878475Y-66653920D01*
X84794792Y-66399739D01*
X84522225Y-66268842D01*
X84229358Y-66193635D01*
X83927447Y-66177009D01*
X83628093Y-66219603D01*
X83342801Y-66319778D01*
X83193208Y-66399739D01*
X83109525Y-66653920D01*
X82600737Y-66653920D01*
X82472505Y-66525688D01*
X82221095Y-66357701D01*
X81941743Y-66241989D01*
X81645184Y-66183000D01*
X81342816Y-66183000D01*
X81046257Y-66241989D01*
X80766905Y-66357701D01*
X80515495Y-66525688D01*
X80477880Y-66563303D01*
X80424537Y-66463506D01*
X80345185Y-66366815D01*
X80248494Y-66287463D01*
X80138180Y-66228498D01*
X80018482Y-66192188D01*
X79894000Y-66179928D01*
X78094000Y-66179928D01*
X77969518Y-66192188D01*
X77849820Y-66228498D01*
X77739506Y-66287463D01*
X77642815Y-66366815D01*
X77563463Y-66463506D01*
X77504498Y-66573820D01*
X77468188Y-66693518D01*
X77455928Y-66818000D01*
X71729975Y-66818000D01*
X71676797Y-66753203D01*
X71448606Y-66565931D01*
X71415060Y-66548000D01*
X71448606Y-66530069D01*
X71676797Y-66342797D01*
X71864069Y-66114606D01*
X72003225Y-65854264D01*
X72088916Y-65571777D01*
X72117851Y-65278000D01*
X72088916Y-64984223D01*
X72003225Y-64701736D01*
X71864069Y-64441394D01*
X71676797Y-64213203D01*
X71448606Y-64025931D01*
X71415060Y-64008000D01*
X71448606Y-63990069D01*
X71676797Y-63802797D01*
X71864069Y-63574606D01*
X72003225Y-63314264D01*
X72088916Y-63031777D01*
X72117851Y-62738000D01*
X72088916Y-62444223D01*
X72003225Y-62161736D01*
X71864069Y-61901394D01*
X71676797Y-61673203D01*
X71448606Y-61485931D01*
X71415060Y-61468000D01*
X71448606Y-61450069D01*
X71676797Y-61262797D01*
X71864069Y-61034606D01*
X72003225Y-60774264D01*
X72009019Y-60755162D01*
X74164333Y-60755162D01*
X74300652Y-61204553D01*
X74540067Y-61662270D01*
X74864178Y-62064485D01*
X75260530Y-62395740D01*
X75713890Y-62643306D01*
X76206837Y-62797669D01*
X76617000Y-62691190D01*
X76617000Y-60345000D01*
X76871000Y-60345000D01*
X76871000Y-62691190D01*
X77281163Y-62797669D01*
X77774110Y-62643306D01*
X78227470Y-62395740D01*
X78623822Y-62064485D01*
X78947933Y-61662270D01*
X79187348Y-61204553D01*
X79323667Y-60755162D01*
X83664333Y-60755162D01*
X83800652Y-61204553D01*
X84040067Y-61662270D01*
X84364178Y-62064485D01*
X84760530Y-62395740D01*
X85213890Y-62643306D01*
X85706837Y-62797669D01*
X86117000Y-62691190D01*
X86117000Y-60345000D01*
X86371000Y-60345000D01*
X86371000Y-62691190D01*
X86781163Y-62797669D01*
X87274110Y-62643306D01*
X87727470Y-62395740D01*
X88123822Y-62064485D01*
X88447933Y-61662270D01*
X88687348Y-61204553D01*
X88823667Y-60755162D01*
X88716991Y-60345000D01*
X86371000Y-60345000D01*
X86117000Y-60345000D01*
X83771009Y-60345000D01*
X83664333Y-60755162D01*
X79323667Y-60755162D01*
X79216991Y-60345000D01*
X76871000Y-60345000D01*
X76617000Y-60345000D01*
X74271009Y-60345000D01*
X74164333Y-60755162D01*
X72009019Y-60755162D01*
X72088916Y-60491777D01*
X72117851Y-60198000D01*
X72088916Y-59904223D01*
X72021154Y-59680838D01*
X74164333Y-59680838D01*
X74271009Y-60091000D01*
X76617000Y-60091000D01*
X76617000Y-57744810D01*
X76871000Y-57744810D01*
X76871000Y-60091000D01*
X79216991Y-60091000D01*
X79323667Y-59680838D01*
X83664333Y-59680838D01*
X83771009Y-60091000D01*
X86117000Y-60091000D01*
X86117000Y-57744810D01*
X86371000Y-57744810D01*
X86371000Y-60091000D01*
X88716991Y-60091000D01*
X88823667Y-59680838D01*
X88687348Y-59231447D01*
X88447933Y-58773730D01*
X88123822Y-58371515D01*
X87727470Y-58040260D01*
X87274110Y-57792694D01*
X86781163Y-57638331D01*
X86371000Y-57744810D01*
X86117000Y-57744810D01*
X85706837Y-57638331D01*
X85213890Y-57792694D01*
X84760530Y-58040260D01*
X84364178Y-58371515D01*
X84040067Y-58773730D01*
X83800652Y-59231447D01*
X83664333Y-59680838D01*
X79323667Y-59680838D01*
X79187348Y-59231447D01*
X78947933Y-58773730D01*
X78623822Y-58371515D01*
X78227470Y-58040260D01*
X77774110Y-57792694D01*
X77281163Y-57638331D01*
X76871000Y-57744810D01*
X76617000Y-57744810D01*
X76206837Y-57638331D01*
X75713890Y-57792694D01*
X75260530Y-58040260D01*
X74864178Y-58371515D01*
X74540067Y-58773730D01*
X74300652Y-59231447D01*
X74164333Y-59680838D01*
X72021154Y-59680838D01*
X72003225Y-59621736D01*
X71864069Y-59361394D01*
X71676797Y-59133203D01*
X71448606Y-58945931D01*
X71188264Y-58806775D01*
X70905777Y-58721084D01*
X70685619Y-58699400D01*
X70538381Y-58699400D01*
X70318223Y-58721084D01*
X70035736Y-58806775D01*
X69775394Y-58945931D01*
X69547203Y-59133203D01*
X69359931Y-59361394D01*
X69342000Y-59394940D01*
X69324069Y-59361394D01*
X69136797Y-59133203D01*
X68908606Y-58945931D01*
X68648264Y-58806775D01*
X68365777Y-58721084D01*
X68145619Y-58699400D01*
X67998381Y-58699400D01*
X67778223Y-58721084D01*
X67495736Y-58806775D01*
X67235394Y-58945931D01*
X67007203Y-59133203D01*
X66819931Y-59361394D01*
X66680775Y-59621736D01*
X66595084Y-59904223D01*
X66566149Y-60198000D01*
X64414000Y-60198000D01*
X64414000Y-48920000D01*
X93066000Y-48920000D01*
X93066001Y-153873983D01*
X93066001Y-153873983D01*
G37*
X93066001Y-153873983D02*
X92884477Y-153602313D01*
X92647687Y-153365523D01*
X92369252Y-153179479D01*
X92324000Y-153160735D01*
X92324000Y-144941323D01*
X92327676Y-144904000D01*
X92324000Y-144866677D01*
X92324000Y-144866667D01*
X92313003Y-144755014D01*
X92269546Y-144611753D01*
X92198974Y-144479723D01*
X92127799Y-144392997D01*
X92104001Y-144363999D01*
X92075003Y-144340201D01*
X89463804Y-141729003D01*
X89440001Y-141699999D01*
X89324276Y-141605026D01*
X89192247Y-141534454D01*
X89048986Y-141490997D01*
X88970495Y-141483266D01*
X88822312Y-141261495D01*
X88608505Y-141047688D01*
X88357095Y-140879701D01*
X88077743Y-140763989D01*
X87781184Y-140705000D01*
X87478816Y-140705000D01*
X87182257Y-140763989D01*
X86902905Y-140879701D01*
X86651495Y-141047688D01*
X86585056Y-141114127D01*
X86579502Y-141095820D01*
X86520537Y-140985506D01*
X86441185Y-140888815D01*
X86344494Y-140809463D01*
X86234180Y-140750498D01*
X86114482Y-140714188D01*
X85990000Y-140701928D01*
X84190000Y-140701928D01*
X84065518Y-140714188D01*
X83945820Y-140750498D01*
X83835506Y-140809463D01*
X83738815Y-140888815D01*
X83659463Y-140985506D01*
X83600498Y-141095820D01*
X83564188Y-141215518D01*
X83551928Y-141340000D01*
X83551928Y-143140000D01*
X83564188Y-143264482D01*
X83600498Y-143384180D01*
X83659463Y-143494494D01*
X83738815Y-143591185D01*
X83835506Y-143670537D01*
X83945820Y-143729502D01*
X84065518Y-143765812D01*
X84190000Y-143778072D01*
X85990000Y-143778072D01*
X86114482Y-143765812D01*
X86234180Y-143729502D01*
X86344494Y-143670537D01*
X86441185Y-143591185D01*
X86520537Y-143494494D01*
X86579502Y-143384180D01*
X86585056Y-143365873D01*
X86651495Y-143432312D01*
X86902905Y-143600299D01*
X87182257Y-143716011D01*
X87478816Y-143775000D01*
X87781184Y-143775000D01*
X88077743Y-143716011D01*
X88357095Y-143600299D01*
X88608505Y-143432312D01*
X88813008Y-143227809D01*
X90804001Y-145218803D01*
X90804000Y-153160735D01*
X90758748Y-153179479D01*
X90480313Y-153365523D01*
X90243523Y-153602313D01*
X90057479Y-153880748D01*
X89929330Y-154190128D01*
X89864000Y-154518565D01*
X89864000Y-154853435D01*
X89929330Y-155181872D01*
X90057479Y-155491252D01*
X90243523Y-155769687D01*
X90480313Y-156006477D01*
X90758748Y-156192521D01*
X91068128Y-156320670D01*
X91396565Y-156386000D01*
X91731435Y-156386000D01*
X92059872Y-156320670D01*
X92369252Y-156192521D01*
X92647687Y-156006477D01*
X92884477Y-155769687D01*
X93066001Y-155498017D01*
X93066001Y-159360000D01*
X64414000Y-159360000D01*
X64414000Y-156288335D01*
X64892250Y-156286000D01*
X65051000Y-156127250D01*
X65051000Y-154813000D01*
X65031000Y-154813000D01*
X65031000Y-154559000D01*
X65051000Y-154559000D01*
X65051000Y-153244750D01*
X64892250Y-153086000D01*
X64414000Y-153083665D01*
X64414000Y-143842335D01*
X64892250Y-143840000D01*
X65051000Y-143681250D01*
X65051000Y-142367000D01*
X65031000Y-142367000D01*
X65031000Y-142113000D01*
X65051000Y-142113000D01*
X65051000Y-140798750D01*
X65305000Y-140798750D01*
X65305000Y-142113000D01*
X65325000Y-142113000D01*
X65325000Y-142367000D01*
X65305000Y-142367000D01*
X65305000Y-143681250D01*
X65463750Y-143840000D01*
X66093000Y-143843072D01*
X66217482Y-143830812D01*
X66337180Y-143794502D01*
X66447494Y-143735537D01*
X66544185Y-143656185D01*
X66623537Y-143559494D01*
X66682502Y-143449180D01*
X66718812Y-143329482D01*
X66731072Y-143205000D01*
X66729895Y-142944860D01*
X66771479Y-143045252D01*
X66957523Y-143323687D01*
X67194313Y-143560477D01*
X67472748Y-143746521D01*
X67782128Y-143874670D01*
X68110565Y-143940000D01*
X68445435Y-143940000D01*
X68773872Y-143874670D01*
X69083252Y-143746521D01*
X69361687Y-143560477D01*
X69598477Y-143323687D01*
X69668465Y-143218943D01*
X69691678Y-143274985D01*
X69930800Y-143632856D01*
X70235144Y-143937200D01*
X70593015Y-144176322D01*
X70990659Y-144341031D01*
X71412796Y-144425000D01*
X71843204Y-144425000D01*
X72265341Y-144341031D01*
X72662985Y-144176322D01*
X73020856Y-143937200D01*
X73325200Y-143632856D01*
X73564322Y-143274985D01*
X73729031Y-142877341D01*
X73813000Y-142455204D01*
X73813000Y-142024796D01*
X73729031Y-141602659D01*
X73564322Y-141205015D01*
X73325200Y-140847144D01*
X73020856Y-140542800D01*
X72662985Y-140303678D01*
X72265341Y-140138969D01*
X71843204Y-140055000D01*
X71412796Y-140055000D01*
X70990659Y-140138969D01*
X70593015Y-140303678D01*
X70235144Y-140542800D01*
X69930800Y-140847144D01*
X69691678Y-141205015D01*
X69668465Y-141261057D01*
X69598477Y-141156313D01*
X69361687Y-140919523D01*
X69083252Y-140733479D01*
X68773872Y-140605330D01*
X68445435Y-140540000D01*
X68110565Y-140540000D01*
X67782128Y-140605330D01*
X67472748Y-140733479D01*
X67194313Y-140919523D01*
X66957523Y-141156313D01*
X66771479Y-141434748D01*
X66729895Y-141535140D01*
X66731072Y-141275000D01*
X66718812Y-141150518D01*
X66682502Y-141030820D01*
X66623537Y-140920506D01*
X66544185Y-140823815D01*
X66447494Y-140744463D01*
X66337180Y-140685498D01*
X66217482Y-140649188D01*
X66093000Y-140636928D01*
X65463750Y-140640000D01*
X65305000Y-140798750D01*
X65051000Y-140798750D01*
X64892250Y-140640000D01*
X64414000Y-140637665D01*
X64414000Y-129925312D01*
X64476899Y-129976932D01*
X64726192Y-130110182D01*
X64996691Y-130192236D01*
X65207508Y-130213000D01*
X65348492Y-130213000D01*
X65559309Y-130192236D01*
X65829808Y-130110182D01*
X66079101Y-129976932D01*
X66297608Y-129797608D01*
X66476932Y-129579101D01*
X66610182Y-129329808D01*
X66692236Y-129059309D01*
X66719943Y-128778000D01*
X66692236Y-128496691D01*
X66610182Y-128226192D01*
X66476932Y-127976899D01*
X66297608Y-127758392D01*
X66079101Y-127579068D01*
X65946142Y-127508000D01*
X66079101Y-127436932D01*
X66297608Y-127257608D01*
X66476932Y-127039101D01*
X66610182Y-126789808D01*
X66692236Y-126519309D01*
X66719943Y-126238000D01*
X66692236Y-125956691D01*
X66610182Y-125686192D01*
X66476932Y-125436899D01*
X66297608Y-125218392D01*
X66079101Y-125039068D01*
X65946142Y-124968000D01*
X66079101Y-124896932D01*
X66297608Y-124717608D01*
X66476932Y-124499101D01*
X66610182Y-124249808D01*
X66692236Y-123979309D01*
X66719943Y-123698000D01*
X66692236Y-123416691D01*
X66678708Y-123372093D01*
X66913999Y-123136802D01*
X66943002Y-123113000D01*
X66966804Y-123083997D01*
X73187149Y-116863653D01*
X73249286Y-116863653D01*
X73449245Y-116823879D01*
X73637603Y-116745858D01*
X73807121Y-116632590D01*
X73854455Y-116585256D01*
X78309002Y-121039804D01*
X78309002Y-122116401D01*
X78227470Y-122048260D01*
X77774110Y-121800694D01*
X77281163Y-121646331D01*
X76871000Y-121752810D01*
X76871000Y-124099000D01*
X76891000Y-124099000D01*
X76891000Y-124353000D01*
X76871000Y-124353000D01*
X76871000Y-124373000D01*
X76617000Y-124373000D01*
X76617000Y-124353000D01*
X76597000Y-124353000D01*
X76597000Y-124099000D01*
X76617000Y-124099000D01*
X76617000Y-121752810D01*
X76206837Y-121646331D01*
X75713890Y-121800694D01*
X75260530Y-122048260D01*
X74864178Y-122379515D01*
X74540067Y-122781730D01*
X74300652Y-123239447D01*
X74279561Y-123308975D01*
X74230182Y-123146192D01*
X74096932Y-122896899D01*
X73917608Y-122678392D01*
X73804518Y-122585581D01*
X73822482Y-122583812D01*
X73942180Y-122547502D01*
X74052494Y-122488537D01*
X74149185Y-122409185D01*
X74228537Y-122312494D01*
X74287502Y-122202180D01*
X74323812Y-122082482D01*
X74336072Y-121958000D01*
X74336072Y-120358000D01*
X74323812Y-120233518D01*
X74287502Y-120113820D01*
X74228537Y-120003506D01*
X74149185Y-119906815D01*
X74052494Y-119827463D01*
X73942180Y-119768498D01*
X73822482Y-119732188D01*
X73698000Y-119719928D01*
X72098000Y-119719928D01*
X71973518Y-119732188D01*
X71853820Y-119768498D01*
X71743506Y-119827463D01*
X71646815Y-119906815D01*
X71567463Y-120003506D01*
X71508498Y-120113820D01*
X71472188Y-120233518D01*
X71459928Y-120358000D01*
X71459928Y-121958000D01*
X71472188Y-122082482D01*
X71508498Y-122202180D01*
X71567463Y-122312494D01*
X71646815Y-122409185D01*
X71743506Y-122488537D01*
X71853820Y-122547502D01*
X71973518Y-122583812D01*
X71991482Y-122585581D01*
X71878392Y-122678392D01*
X71699068Y-122896899D01*
X71565818Y-123146192D01*
X71483764Y-123416691D01*
X71456057Y-123698000D01*
X71483764Y-123979309D01*
X71565818Y-124249808D01*
X71699068Y-124499101D01*
X71878392Y-124717608D01*
X72096899Y-124896932D01*
X72229858Y-124968000D01*
X72096899Y-125039068D01*
X71878392Y-125218392D01*
X71699068Y-125436899D01*
X71565818Y-125686192D01*
X71483764Y-125956691D01*
X71456057Y-126238000D01*
X71483764Y-126519309D01*
X71565818Y-126789808D01*
X71699068Y-127039101D01*
X71878392Y-127257608D01*
X72096899Y-127436932D01*
X72229858Y-127508000D01*
X72096899Y-127579068D01*
X71878392Y-127758392D01*
X71699068Y-127976899D01*
X71565818Y-128226192D01*
X71483764Y-128496691D01*
X71456057Y-128778000D01*
X71483764Y-129059309D01*
X71565818Y-129329808D01*
X71699068Y-129579101D01*
X71878392Y-129797608D01*
X72096899Y-129976932D01*
X72346192Y-130110182D01*
X72616691Y-130192236D01*
X72827508Y-130213000D01*
X72968492Y-130213000D01*
X73179309Y-130192236D01*
X73449808Y-130110182D01*
X73699101Y-129976932D01*
X73917608Y-129797608D01*
X74096932Y-129579101D01*
X74230182Y-129329808D01*
X74312236Y-129059309D01*
X74339943Y-128778000D01*
X74312236Y-128496691D01*
X74230182Y-128226192D01*
X74096932Y-127976899D01*
X73917608Y-127758392D01*
X73699101Y-127579068D01*
X73566142Y-127508000D01*
X73699101Y-127436932D01*
X73917608Y-127257608D01*
X74096932Y-127039101D01*
X74230182Y-126789808D01*
X74312236Y-126519309D01*
X74339943Y-126238000D01*
X74312236Y-125956691D01*
X74230182Y-125686192D01*
X74096932Y-125436899D01*
X73917608Y-125218392D01*
X73699101Y-125039068D01*
X73566142Y-124968000D01*
X73699101Y-124896932D01*
X73917608Y-124717608D01*
X74096932Y-124499101D01*
X74175024Y-124353002D01*
X74271008Y-124353002D01*
X74164333Y-124763162D01*
X74300652Y-125212553D01*
X74540067Y-125670270D01*
X74864178Y-126072485D01*
X75260530Y-126403740D01*
X75713890Y-126651306D01*
X76206837Y-126805669D01*
X76521117Y-126724081D01*
X75435003Y-127810196D01*
X75405999Y-127833999D01*
X75350871Y-127901174D01*
X75311026Y-127949724D01*
X75296501Y-127976899D01*
X75240454Y-128081754D01*
X75196997Y-128225015D01*
X75186000Y-128336668D01*
X75186000Y-128336678D01*
X75182324Y-128374000D01*
X75186000Y-128411323D01*
X75186001Y-131747288D01*
X75142063Y-131791226D01*
X75028795Y-131960744D01*
X74950774Y-132149102D01*
X74911000Y-132349061D01*
X74911000Y-132552939D01*
X74950774Y-132752898D01*
X75028795Y-132941256D01*
X75142063Y-133110774D01*
X75286226Y-133254937D01*
X75455744Y-133368205D01*
X75644102Y-133446226D01*
X75844061Y-133486000D01*
X76047939Y-133486000D01*
X76247898Y-133446226D01*
X76436256Y-133368205D01*
X76605774Y-133254937D01*
X76749937Y-133110774D01*
X76863205Y-132941256D01*
X76882999Y-132893469D01*
X76883000Y-140567363D01*
X76745435Y-140540000D01*
X76410565Y-140540000D01*
X76082128Y-140605330D01*
X75772748Y-140733479D01*
X75494313Y-140919523D01*
X75257523Y-141156313D01*
X75071479Y-141434748D01*
X74943330Y-141744128D01*
X74878000Y-142072565D01*
X74878000Y-142407435D01*
X74943330Y-142735872D01*
X75071479Y-143045252D01*
X75257523Y-143323687D01*
X75494313Y-143560477D01*
X75772748Y-143746521D01*
X75918000Y-143806686D01*
X75918001Y-146071197D01*
X68889835Y-153099363D01*
X68773872Y-153051330D01*
X68445435Y-152986000D01*
X68110565Y-152986000D01*
X67782128Y-153051330D01*
X67472748Y-153179479D01*
X67194313Y-153365523D01*
X66957523Y-153602313D01*
X66771479Y-153880748D01*
X66729895Y-153981140D01*
X66731072Y-153721000D01*
X66718812Y-153596518D01*
X66682502Y-153476820D01*
X66623537Y-153366506D01*
X66544185Y-153269815D01*
X66447494Y-153190463D01*
X66337180Y-153131498D01*
X66217482Y-153095188D01*
X66093000Y-153082928D01*
X65463750Y-153086000D01*
X65305000Y-153244750D01*
X65305000Y-154559000D01*
X65325000Y-154559000D01*
X65325000Y-154813000D01*
X65305000Y-154813000D01*
X65305000Y-156127250D01*
X65463750Y-156286000D01*
X66093000Y-156289072D01*
X66217482Y-156276812D01*
X66337180Y-156240502D01*
X66447494Y-156181537D01*
X66544185Y-156102185D01*
X66623537Y-156005494D01*
X66682502Y-155895180D01*
X66718812Y-155775482D01*
X66731072Y-155651000D01*
X66729895Y-155390860D01*
X66771479Y-155491252D01*
X66957523Y-155769687D01*
X67194313Y-156006477D01*
X67472748Y-156192521D01*
X67782128Y-156320670D01*
X68110565Y-156386000D01*
X68445435Y-156386000D01*
X68773872Y-156320670D01*
X69083252Y-156192521D01*
X69361687Y-156006477D01*
X69598477Y-155769687D01*
X69668465Y-155664943D01*
X69691678Y-155720985D01*
X69930800Y-156078856D01*
X70235144Y-156383200D01*
X70593015Y-156622322D01*
X70990659Y-156787031D01*
X71412796Y-156871000D01*
X71843204Y-156871000D01*
X72265341Y-156787031D01*
X72662985Y-156622322D01*
X73020856Y-156383200D01*
X73325200Y-156078856D01*
X73564322Y-155720985D01*
X73729031Y-155323341D01*
X73813000Y-154901204D01*
X73813000Y-154518565D01*
X74878000Y-154518565D01*
X74878000Y-154853435D01*
X74943330Y-155181872D01*
X75071479Y-155491252D01*
X75257523Y-155769687D01*
X75494313Y-156006477D01*
X75772748Y-156192521D01*
X76082128Y-156320670D01*
X76410565Y-156386000D01*
X76745435Y-156386000D01*
X77073872Y-156320670D01*
X77383252Y-156192521D01*
X77661687Y-156006477D01*
X77898477Y-155769687D01*
X77977780Y-155651000D01*
X78610928Y-155651000D01*
X78623188Y-155775482D01*
X78659498Y-155895180D01*
X78718463Y-156005494D01*
X78797815Y-156102185D01*
X78894506Y-156181537D01*
X79004820Y-156240502D01*
X79124518Y-156276812D01*
X79249000Y-156289072D01*
X79878250Y-156286000D01*
X80037000Y-156127250D01*
X80037000Y-154813000D01*
X78772750Y-154813000D01*
X78614000Y-154971750D01*
X78610928Y-155651000D01*
X77977780Y-155651000D01*
X78084521Y-155491252D01*
X78212670Y-155181872D01*
X78278000Y-154853435D01*
X78278000Y-154518565D01*
X78212670Y-154190128D01*
X78084521Y-153880748D01*
X77977781Y-153721000D01*
X78610928Y-153721000D01*
X78614000Y-154400250D01*
X78772750Y-154559000D01*
X80037000Y-154559000D01*
X80037000Y-153244750D01*
X80291000Y-153244750D01*
X80291000Y-154559000D01*
X80311000Y-154559000D01*
X80311000Y-154813000D01*
X80291000Y-154813000D01*
X80291000Y-156127250D01*
X80449750Y-156286000D01*
X81079000Y-156289072D01*
X81203482Y-156276812D01*
X81323180Y-156240502D01*
X81433494Y-156181537D01*
X81530185Y-156102185D01*
X81609537Y-156005494D01*
X81668502Y-155895180D01*
X81704812Y-155775482D01*
X81717072Y-155651000D01*
X81715895Y-155390860D01*
X81757479Y-155491252D01*
X81943523Y-155769687D01*
X82180313Y-156006477D01*
X82458748Y-156192521D01*
X82768128Y-156320670D01*
X83096565Y-156386000D01*
X83431435Y-156386000D01*
X83759872Y-156320670D01*
X84069252Y-156192521D01*
X84347687Y-156006477D01*
X84584477Y-155769687D01*
X84654465Y-155664943D01*
X84677678Y-155720985D01*
X84916800Y-156078856D01*
X85221144Y-156383200D01*
X85579015Y-156622322D01*
X85976659Y-156787031D01*
X86398796Y-156871000D01*
X86829204Y-156871000D01*
X87251341Y-156787031D01*
X87648985Y-156622322D01*
X88006856Y-156383200D01*
X88311200Y-156078856D01*
X88550322Y-155720985D01*
X88715031Y-155323341D01*
X88799000Y-154901204D01*
X88799000Y-154470796D01*
X88715031Y-154048659D01*
X88550322Y-153651015D01*
X88311200Y-153293144D01*
X88006856Y-152988800D01*
X87648985Y-152749678D01*
X87251341Y-152584969D01*
X86829204Y-152501000D01*
X86398796Y-152501000D01*
X85976659Y-152584969D01*
X85579015Y-152749678D01*
X85221144Y-152988800D01*
X84916800Y-153293144D01*
X84677678Y-153651015D01*
X84654465Y-153707057D01*
X84584477Y-153602313D01*
X84347687Y-153365523D01*
X84069252Y-153179479D01*
X83759872Y-153051330D01*
X83431435Y-152986000D01*
X83096565Y-152986000D01*
X82768128Y-153051330D01*
X82458748Y-153179479D01*
X82180313Y-153365523D01*
X81943523Y-153602313D01*
X81757479Y-153880748D01*
X81715895Y-153981140D01*
X81717072Y-153721000D01*
X81704812Y-153596518D01*
X81668502Y-153476820D01*
X81609537Y-153366506D01*
X81530185Y-153269815D01*
X81433494Y-153190463D01*
X81323180Y-153131498D01*
X81203482Y-153095188D01*
X81079000Y-153082928D01*
X80449750Y-153086000D01*
X80291000Y-153244750D01*
X80037000Y-153244750D01*
X79878250Y-153086000D01*
X79249000Y-153082928D01*
X79124518Y-153095188D01*
X79004820Y-153131498D01*
X78894506Y-153190463D01*
X78797815Y-153269815D01*
X78718463Y-153366506D01*
X78659498Y-153476820D01*
X78623188Y-153596518D01*
X78610928Y-153721000D01*
X77977781Y-153721000D01*
X77898477Y-153602313D01*
X77661687Y-153365523D01*
X77383252Y-153179479D01*
X77073872Y-153051330D01*
X76745435Y-152986000D01*
X76410565Y-152986000D01*
X76082128Y-153051330D01*
X75772748Y-153179479D01*
X75494313Y-153365523D01*
X75257523Y-153602313D01*
X75071479Y-153880748D01*
X74943330Y-154190128D01*
X74878000Y-154518565D01*
X73813000Y-154518565D01*
X73813000Y-154470796D01*
X73729031Y-154048659D01*
X73564322Y-153651015D01*
X73325200Y-153293144D01*
X73020856Y-152988800D01*
X72662985Y-152749678D01*
X72265341Y-152584969D01*
X71843204Y-152501000D01*
X71637801Y-152501000D01*
X77189003Y-146949799D01*
X77218001Y-146926001D01*
X77312974Y-146810276D01*
X77383546Y-146678247D01*
X77427003Y-146534986D01*
X77438000Y-146423333D01*
X77441677Y-146386000D01*
X77438000Y-146348667D01*
X77438000Y-143709940D01*
X77661687Y-143560477D01*
X77898477Y-143323687D01*
X78084521Y-143045252D01*
X78212670Y-142735872D01*
X78278000Y-142407435D01*
X78278000Y-142072565D01*
X78212670Y-141744128D01*
X78194700Y-141700745D01*
X78214843Y-141676201D01*
X78277973Y-141599278D01*
X78348545Y-141467248D01*
X78392002Y-141323987D01*
X78402999Y-141212334D01*
X78402999Y-141212325D01*
X78406675Y-141175002D01*
X78402999Y-141137679D01*
X78402999Y-133264072D01*
X79894000Y-133264072D01*
X80018482Y-133251812D01*
X80138180Y-133215502D01*
X80248494Y-133156537D01*
X80345185Y-133077185D01*
X80424537Y-132980494D01*
X80477880Y-132880697D01*
X80515495Y-132918312D01*
X80766905Y-133086299D01*
X81046257Y-133202011D01*
X81342816Y-133261000D01*
X81645184Y-133261000D01*
X81941743Y-133202011D01*
X82221095Y-133086299D01*
X82472505Y-132918312D01*
X82600737Y-132790080D01*
X83109525Y-132790080D01*
X83193208Y-133044261D01*
X83465775Y-133175158D01*
X83758642Y-133250365D01*
X84060553Y-133266991D01*
X84359907Y-133224397D01*
X84645199Y-133124222D01*
X84794792Y-133044261D01*
X84878475Y-132790080D01*
X83994000Y-131905605D01*
X83109525Y-132790080D01*
X82600737Y-132790080D01*
X82686312Y-132704505D01*
X82781738Y-132561690D01*
X82929920Y-132610475D01*
X83814395Y-131726000D01*
X84173605Y-131726000D01*
X85058080Y-132610475D01*
X85312261Y-132526792D01*
X85443158Y-132254225D01*
X85518365Y-131961358D01*
X85534991Y-131659447D01*
X85492397Y-131360093D01*
X85392222Y-131074801D01*
X85312261Y-130925208D01*
X85058080Y-130841525D01*
X84173605Y-131726000D01*
X83814395Y-131726000D01*
X82929920Y-130841525D01*
X82781738Y-130890310D01*
X82686312Y-130747495D01*
X82600737Y-130661920D01*
X83109525Y-130661920D01*
X83994000Y-131546395D01*
X84878475Y-130661920D01*
X84794792Y-130407739D01*
X84522225Y-130276842D01*
X84229358Y-130201635D01*
X83927447Y-130185009D01*
X83628093Y-130227603D01*
X83342801Y-130327778D01*
X83193208Y-130407739D01*
X83109525Y-130661920D01*
X82600737Y-130661920D01*
X82472505Y-130533688D01*
X82221095Y-130365701D01*
X81941743Y-130249989D01*
X81645184Y-130191000D01*
X81342816Y-130191000D01*
X81046257Y-130249989D01*
X80766905Y-130365701D01*
X80515495Y-130533688D01*
X80477880Y-130571303D01*
X80424537Y-130471506D01*
X80345185Y-130374815D01*
X80248494Y-130295463D01*
X80138180Y-130236498D01*
X80018482Y-130200188D01*
X79894000Y-130187928D01*
X78402999Y-130187928D01*
X78402999Y-129681802D01*
X80730004Y-127354798D01*
X80759002Y-127331000D01*
X80785333Y-127298916D01*
X80853975Y-127215276D01*
X80924547Y-127083246D01*
X80968004Y-126939985D01*
X80979001Y-126828332D01*
X80979001Y-126828322D01*
X80982677Y-126790999D01*
X80979001Y-126753676D01*
X80979001Y-124763162D01*
X83664333Y-124763162D01*
X83800652Y-125212553D01*
X84040067Y-125670270D01*
X84364178Y-126072485D01*
X84760530Y-126403740D01*
X85213890Y-126651306D01*
X85706837Y-126805669D01*
X86117000Y-126699190D01*
X86117000Y-124353000D01*
X86371000Y-124353000D01*
X86371000Y-126699190D01*
X86781163Y-126805669D01*
X87274110Y-126651306D01*
X87727470Y-126403740D01*
X88123822Y-126072485D01*
X88447933Y-125670270D01*
X88687348Y-125212553D01*
X88823667Y-124763162D01*
X88716991Y-124353000D01*
X86371000Y-124353000D01*
X86117000Y-124353000D01*
X83771009Y-124353000D01*
X83664333Y-124763162D01*
X80979001Y-124763162D01*
X80979001Y-123688838D01*
X83664333Y-123688838D01*
X83771009Y-124099000D01*
X86117000Y-124099000D01*
X86117000Y-121752810D01*
X86371000Y-121752810D01*
X86371000Y-124099000D01*
X88716991Y-124099000D01*
X88823667Y-123688838D01*
X88687348Y-123239447D01*
X88447933Y-122781730D01*
X88123822Y-122379515D01*
X87727470Y-122048260D01*
X87274110Y-121800694D01*
X86781163Y-121646331D01*
X86371000Y-121752810D01*
X86117000Y-121752810D01*
X85706837Y-121646331D01*
X85213890Y-121800694D01*
X84760530Y-122048260D01*
X84364178Y-122379515D01*
X84040067Y-122781730D01*
X83800652Y-123239447D01*
X83664333Y-123688838D01*
X80979001Y-123688838D01*
X80979001Y-116859000D01*
X81127939Y-116859000D01*
X81327898Y-116819226D01*
X81516256Y-116741205D01*
X81685774Y-116627937D01*
X81829937Y-116483774D01*
X81943205Y-116314256D01*
X82021226Y-116125898D01*
X82061000Y-115925939D01*
X82061000Y-115722061D01*
X82021226Y-115522102D01*
X81943205Y-115333744D01*
X81829937Y-115164226D01*
X81685774Y-115020063D01*
X81516256Y-114906795D01*
X81327898Y-114828774D01*
X81127939Y-114789000D01*
X81065802Y-114789000D01*
X79754000Y-113477199D01*
X79754000Y-111674072D01*
X79894000Y-111674072D01*
X80018482Y-111661812D01*
X80138180Y-111625502D01*
X80248494Y-111566537D01*
X80345185Y-111487185D01*
X80424537Y-111390494D01*
X80477880Y-111290697D01*
X80515495Y-111328312D01*
X80766905Y-111496299D01*
X81046257Y-111612011D01*
X81342816Y-111671000D01*
X81645184Y-111671000D01*
X81941743Y-111612011D01*
X82221095Y-111496299D01*
X82472505Y-111328312D01*
X82600737Y-111200080D01*
X83109525Y-111200080D01*
X83193208Y-111454261D01*
X83465775Y-111585158D01*
X83758642Y-111660365D01*
X84060553Y-111676991D01*
X84359907Y-111634397D01*
X84645199Y-111534222D01*
X84794792Y-111454261D01*
X84878475Y-111200080D01*
X83994000Y-110315605D01*
X83109525Y-111200080D01*
X82600737Y-111200080D01*
X82686312Y-111114505D01*
X82781738Y-110971690D01*
X82929920Y-111020475D01*
X83814395Y-110136000D01*
X84173605Y-110136000D01*
X85058080Y-111020475D01*
X85312261Y-110936792D01*
X85443158Y-110664225D01*
X85518365Y-110371358D01*
X85534991Y-110069447D01*
X85492397Y-109770093D01*
X85392222Y-109484801D01*
X85312261Y-109335208D01*
X85058080Y-109251525D01*
X84173605Y-110136000D01*
X83814395Y-110136000D01*
X82929920Y-109251525D01*
X82781738Y-109300310D01*
X82686312Y-109157495D01*
X82600737Y-109071920D01*
X83109525Y-109071920D01*
X83994000Y-109956395D01*
X84878475Y-109071920D01*
X84794792Y-108817739D01*
X84522225Y-108686842D01*
X84229358Y-108611635D01*
X83927447Y-108595009D01*
X83628093Y-108637603D01*
X83342801Y-108737778D01*
X83193208Y-108817739D01*
X83109525Y-109071920D01*
X82600737Y-109071920D01*
X82472505Y-108943688D01*
X82221095Y-108775701D01*
X81941743Y-108659989D01*
X81645184Y-108601000D01*
X81342816Y-108601000D01*
X81046257Y-108659989D01*
X80766905Y-108775701D01*
X80515495Y-108943688D01*
X80477880Y-108981303D01*
X80424537Y-108881506D01*
X80345185Y-108784815D01*
X80303882Y-108750919D01*
X83333801Y-105721001D01*
X87322679Y-105721001D01*
X87360001Y-105724677D01*
X87397323Y-105721001D01*
X87397334Y-105721001D01*
X87508987Y-105710004D01*
X87652248Y-105666547D01*
X87784277Y-105595975D01*
X87900002Y-105501002D01*
X87923805Y-105471998D01*
X90935004Y-102460800D01*
X90964001Y-102437003D01*
X90990332Y-102404919D01*
X91058974Y-102321279D01*
X91129546Y-102189249D01*
X91163899Y-102075999D01*
X91173003Y-102045988D01*
X91184000Y-101934335D01*
X91184000Y-101934325D01*
X91187676Y-101897002D01*
X91184000Y-101859679D01*
X91184000Y-97985711D01*
X91227937Y-97941774D01*
X91341205Y-97772256D01*
X91419226Y-97583898D01*
X91459000Y-97383939D01*
X91459000Y-97180061D01*
X91419226Y-96980102D01*
X91341205Y-96791744D01*
X91227937Y-96622226D01*
X91083774Y-96478063D01*
X90914256Y-96364795D01*
X90725898Y-96286774D01*
X90525939Y-96247000D01*
X90322061Y-96247000D01*
X90122102Y-96286774D01*
X89933744Y-96364795D01*
X89764226Y-96478063D01*
X89620063Y-96622226D01*
X89506795Y-96791744D01*
X89428774Y-96980102D01*
X89389000Y-97180061D01*
X89389000Y-97383939D01*
X89428774Y-97583898D01*
X89506795Y-97772256D01*
X89620063Y-97941774D01*
X89664000Y-97985711D01*
X89664000Y-98337565D01*
X89664001Y-98337575D01*
X89664000Y-101582200D01*
X88737202Y-102508998D01*
X88716992Y-102508998D01*
X88823667Y-102098838D01*
X88687348Y-101649447D01*
X88447933Y-101191730D01*
X88123822Y-100789515D01*
X87727470Y-100458260D01*
X87274110Y-100210694D01*
X86781163Y-100056331D01*
X86371000Y-100162810D01*
X86371000Y-102509000D01*
X86391000Y-102509000D01*
X86391000Y-102763000D01*
X86371000Y-102763000D01*
X86371000Y-102783000D01*
X86117000Y-102783000D01*
X86117000Y-102763000D01*
X83771009Y-102763000D01*
X83664333Y-103173162D01*
X83800652Y-103622553D01*
X84040067Y-104080270D01*
X84137354Y-104201001D01*
X83056321Y-104201001D01*
X83018998Y-104197325D01*
X82981675Y-104201001D01*
X82981666Y-104201001D01*
X82870013Y-104211998D01*
X82726752Y-104255455D01*
X82594723Y-104326027D01*
X82478998Y-104421000D01*
X82455200Y-104449998D01*
X78482998Y-108422201D01*
X78454000Y-108445999D01*
X78430202Y-108474997D01*
X78430201Y-108474998D01*
X78359026Y-108561724D01*
X78339674Y-108597928D01*
X78094000Y-108597928D01*
X77969518Y-108610188D01*
X77849820Y-108646498D01*
X77739506Y-108705463D01*
X77642815Y-108784815D01*
X77563463Y-108881506D01*
X77504498Y-108991820D01*
X77468188Y-109111518D01*
X77455928Y-109236000D01*
X77455928Y-111036000D01*
X77468188Y-111160482D01*
X77504498Y-111280180D01*
X77563463Y-111390494D01*
X77642815Y-111487185D01*
X77739506Y-111566537D01*
X77849820Y-111625502D01*
X77969518Y-111661812D01*
X78094000Y-111674072D01*
X78234000Y-111674072D01*
X78234001Y-113368201D01*
X73827739Y-108961940D01*
X73953101Y-108894932D01*
X74171608Y-108715608D01*
X74350932Y-108497101D01*
X74484182Y-108247808D01*
X74566236Y-107977309D01*
X74593943Y-107696000D01*
X74566236Y-107414691D01*
X74484182Y-107144192D01*
X74350932Y-106894899D01*
X74171608Y-106676392D01*
X73953101Y-106497068D01*
X73815318Y-106423421D01*
X74007131Y-106308385D01*
X74215519Y-106119414D01*
X74383037Y-105893420D01*
X74503246Y-105639087D01*
X74543904Y-105505039D01*
X74421915Y-105283000D01*
X73279000Y-105283000D01*
X73279000Y-105303000D01*
X73025000Y-105303000D01*
X73025000Y-105283000D01*
X73005000Y-105283000D01*
X73005000Y-105029000D01*
X73025000Y-105029000D01*
X73025000Y-105009000D01*
X73279000Y-105009000D01*
X73279000Y-105029000D01*
X74421915Y-105029000D01*
X74543904Y-104806961D01*
X74503246Y-104672913D01*
X74383037Y-104418580D01*
X74215519Y-104192586D01*
X74007131Y-104003615D01*
X73815318Y-103888579D01*
X73953101Y-103814932D01*
X74171608Y-103635608D01*
X74268718Y-103517279D01*
X74300652Y-103622553D01*
X74540067Y-104080270D01*
X74864178Y-104482485D01*
X75260530Y-104813740D01*
X75713890Y-105061306D01*
X76206837Y-105215669D01*
X76617000Y-105109190D01*
X76617000Y-102763000D01*
X76871000Y-102763000D01*
X76871000Y-105109190D01*
X77281163Y-105215669D01*
X77774110Y-105061306D01*
X78227470Y-104813740D01*
X78623822Y-104482485D01*
X78947933Y-104080270D01*
X79187348Y-103622553D01*
X79323667Y-103173162D01*
X79216991Y-102763000D01*
X76871000Y-102763000D01*
X76617000Y-102763000D01*
X76597000Y-102763000D01*
X76597000Y-102509000D01*
X76617000Y-102509000D01*
X76617000Y-100162810D01*
X76871000Y-100162810D01*
X76871000Y-102509000D01*
X79216991Y-102509000D01*
X79323667Y-102098838D01*
X83664333Y-102098838D01*
X83771009Y-102509000D01*
X86117000Y-102509000D01*
X86117000Y-100162810D01*
X85706837Y-100056331D01*
X85213890Y-100210694D01*
X84760530Y-100458260D01*
X84364178Y-100789515D01*
X84040067Y-101191730D01*
X83800652Y-101649447D01*
X83664333Y-102098838D01*
X79323667Y-102098838D01*
X79187348Y-101649447D01*
X78947933Y-101191730D01*
X78623822Y-100789515D01*
X78227470Y-100458260D01*
X77774110Y-100210694D01*
X77281163Y-100056331D01*
X76871000Y-100162810D01*
X76617000Y-100162810D01*
X76206837Y-100056331D01*
X75713890Y-100210694D01*
X75260530Y-100458260D01*
X74864178Y-100789515D01*
X74540067Y-101191730D01*
X74300652Y-101649447D01*
X74277577Y-101725516D01*
X74171608Y-101596392D01*
X73953101Y-101417068D01*
X73820142Y-101346000D01*
X73953101Y-101274932D01*
X74171608Y-101095608D01*
X74350932Y-100877101D01*
X74484182Y-100627808D01*
X74566236Y-100357309D01*
X74593943Y-100076000D01*
X74566236Y-99794691D01*
X74484182Y-99524192D01*
X74350932Y-99274899D01*
X74171608Y-99056392D01*
X73953101Y-98877068D01*
X73820142Y-98806000D01*
X73953101Y-98734932D01*
X74171608Y-98555608D01*
X74350932Y-98337101D01*
X74484182Y-98087808D01*
X74566236Y-97817309D01*
X74593943Y-97536000D01*
X74566236Y-97254691D01*
X74484182Y-96984192D01*
X74350932Y-96734899D01*
X74171608Y-96516392D01*
X73953101Y-96337068D01*
X73820142Y-96266000D01*
X73953101Y-96194932D01*
X74171608Y-96015608D01*
X74350932Y-95797101D01*
X74484182Y-95547808D01*
X74566236Y-95277309D01*
X74593943Y-94996000D01*
X74566236Y-94714691D01*
X74540849Y-94630999D01*
X79454200Y-94630999D01*
X79460063Y-94639774D01*
X79604226Y-94783937D01*
X79773744Y-94897205D01*
X79962102Y-94975226D01*
X80162061Y-95015000D01*
X80365939Y-95015000D01*
X80565898Y-94975226D01*
X80754256Y-94897205D01*
X80923774Y-94783937D01*
X81067937Y-94639774D01*
X81181205Y-94470256D01*
X81259226Y-94281898D01*
X81299000Y-94081939D01*
X81299000Y-93878061D01*
X81259226Y-93678102D01*
X81181205Y-93489744D01*
X81067937Y-93320226D01*
X80923774Y-93176063D01*
X80754256Y-93062795D01*
X80565898Y-92984774D01*
X80365939Y-92945000D01*
X80162061Y-92945000D01*
X79962102Y-92984774D01*
X79773744Y-93062795D01*
X79701601Y-93110999D01*
X74429025Y-93110999D01*
X74484182Y-93007808D01*
X74566236Y-92737309D01*
X74593943Y-92456000D01*
X74566236Y-92174691D01*
X74484182Y-91904192D01*
X74350932Y-91654899D01*
X74171608Y-91436392D01*
X74058518Y-91343581D01*
X74076482Y-91341812D01*
X74196180Y-91305502D01*
X74306494Y-91246537D01*
X74403185Y-91167185D01*
X74482537Y-91070494D01*
X74541502Y-90960180D01*
X74577812Y-90840482D01*
X74590072Y-90716000D01*
X74590072Y-89116000D01*
X74577812Y-88991518D01*
X74541502Y-88871820D01*
X74482537Y-88761506D01*
X74403185Y-88664815D01*
X74306494Y-88585463D01*
X74196180Y-88526498D01*
X74076482Y-88490188D01*
X73952000Y-88477928D01*
X72352000Y-88477928D01*
X72227518Y-88490188D01*
X72107820Y-88526498D01*
X71997506Y-88585463D01*
X71900815Y-88664815D01*
X71821463Y-88761506D01*
X71762498Y-88871820D01*
X71726188Y-88991518D01*
X71713928Y-89116000D01*
X71713928Y-90716000D01*
X71726188Y-90840482D01*
X71762498Y-90960180D01*
X71821463Y-91070494D01*
X71900815Y-91167185D01*
X71997506Y-91246537D01*
X72107820Y-91305502D01*
X72227518Y-91341812D01*
X72245482Y-91343581D01*
X72132392Y-91436392D01*
X71953068Y-91654899D01*
X71819818Y-91904192D01*
X71737764Y-92174691D01*
X71710057Y-92456000D01*
X71737764Y-92737309D01*
X71819818Y-93007808D01*
X71878910Y-93118362D01*
X71842015Y-93121996D01*
X71698754Y-93165453D01*
X71566725Y-93236025D01*
X71566723Y-93236026D01*
X71566724Y-93236026D01*
X71479997Y-93307200D01*
X71479993Y-93307204D01*
X71451000Y-93330998D01*
X71427206Y-93359991D01*
X69136200Y-95650999D01*
X66801993Y-95650999D01*
X66883246Y-95479087D01*
X66923904Y-95345039D01*
X66801915Y-95123000D01*
X65659000Y-95123000D01*
X65659000Y-95143000D01*
X65405000Y-95143000D01*
X65405000Y-95123000D01*
X65385000Y-95123000D01*
X65385000Y-94869000D01*
X65405000Y-94869000D01*
X65405000Y-94849000D01*
X65659000Y-94849000D01*
X65659000Y-94869000D01*
X66801915Y-94869000D01*
X66923904Y-94646961D01*
X66883246Y-94512913D01*
X66763037Y-94258580D01*
X66595519Y-94032586D01*
X66387131Y-93843615D01*
X66195318Y-93728579D01*
X66333101Y-93654932D01*
X66551608Y-93475608D01*
X66730932Y-93257101D01*
X66864182Y-93007808D01*
X66946236Y-92737309D01*
X66973943Y-92456000D01*
X66946236Y-92174691D01*
X66864182Y-91904192D01*
X66730932Y-91654899D01*
X66551608Y-91436392D01*
X66333101Y-91257068D01*
X66200142Y-91186000D01*
X66333101Y-91114932D01*
X66551608Y-90935608D01*
X66730932Y-90717101D01*
X66864182Y-90467808D01*
X66946236Y-90197309D01*
X66973943Y-89916000D01*
X66946236Y-89634691D01*
X66864182Y-89364192D01*
X66730932Y-89114899D01*
X66551608Y-88896392D01*
X66333101Y-88717068D01*
X66207739Y-88650060D01*
X67211799Y-87646000D01*
X77455928Y-87646000D01*
X77455928Y-89446000D01*
X77468188Y-89570482D01*
X77504498Y-89690180D01*
X77563463Y-89800494D01*
X77642815Y-89897185D01*
X77739506Y-89976537D01*
X77849820Y-90035502D01*
X77969518Y-90071812D01*
X78094000Y-90084072D01*
X79894000Y-90084072D01*
X80018482Y-90071812D01*
X80138180Y-90035502D01*
X80248494Y-89976537D01*
X80345185Y-89897185D01*
X80424537Y-89800494D01*
X80477880Y-89700697D01*
X80515495Y-89738312D01*
X80766905Y-89906299D01*
X81046257Y-90022011D01*
X81342816Y-90081000D01*
X81645184Y-90081000D01*
X81941743Y-90022011D01*
X82221095Y-89906299D01*
X82472505Y-89738312D01*
X82600737Y-89610080D01*
X83109525Y-89610080D01*
X83193208Y-89864261D01*
X83465775Y-89995158D01*
X83758642Y-90070365D01*
X84060553Y-90086991D01*
X84359907Y-90044397D01*
X84645199Y-89944222D01*
X84794792Y-89864261D01*
X84878475Y-89610080D01*
X83994000Y-88725605D01*
X83109525Y-89610080D01*
X82600737Y-89610080D01*
X82686312Y-89524505D01*
X82781738Y-89381690D01*
X82929920Y-89430475D01*
X83814395Y-88546000D01*
X84173605Y-88546000D01*
X85058080Y-89430475D01*
X85312261Y-89346792D01*
X85443158Y-89074225D01*
X85518365Y-88781358D01*
X85534991Y-88479447D01*
X85492397Y-88180093D01*
X85392222Y-87894801D01*
X85312261Y-87745208D01*
X85058080Y-87661525D01*
X84173605Y-88546000D01*
X83814395Y-88546000D01*
X82929920Y-87661525D01*
X82781738Y-87710310D01*
X82686312Y-87567495D01*
X82600737Y-87481920D01*
X83109525Y-87481920D01*
X83994000Y-88366395D01*
X84878475Y-87481920D01*
X84794792Y-87227739D01*
X84522225Y-87096842D01*
X84229358Y-87021635D01*
X83927447Y-87005009D01*
X83628093Y-87047603D01*
X83342801Y-87147778D01*
X83193208Y-87227739D01*
X83109525Y-87481920D01*
X82600737Y-87481920D01*
X82472505Y-87353688D01*
X82221095Y-87185701D01*
X81941743Y-87069989D01*
X81645184Y-87011000D01*
X81342816Y-87011000D01*
X81046257Y-87069989D01*
X80766905Y-87185701D01*
X80515495Y-87353688D01*
X80477880Y-87391303D01*
X80424537Y-87291506D01*
X80345185Y-87194815D01*
X80248494Y-87115463D01*
X80138180Y-87056498D01*
X80018482Y-87020188D01*
X79894000Y-87007928D01*
X78094000Y-87007928D01*
X77969518Y-87020188D01*
X77849820Y-87056498D01*
X77739506Y-87115463D01*
X77642815Y-87194815D01*
X77563463Y-87291506D01*
X77504498Y-87401820D01*
X77468188Y-87521518D01*
X77455928Y-87646000D01*
X67211799Y-87646000D01*
X73274637Y-81583162D01*
X74164333Y-81583162D01*
X74300652Y-82032553D01*
X74540067Y-82490270D01*
X74864178Y-82892485D01*
X75260530Y-83223740D01*
X75713890Y-83471306D01*
X76206837Y-83625669D01*
X76617000Y-83519190D01*
X76617000Y-81173000D01*
X76871000Y-81173000D01*
X76871000Y-83519190D01*
X77281163Y-83625669D01*
X77774110Y-83471306D01*
X78227470Y-83223740D01*
X78623822Y-82892485D01*
X78947933Y-82490270D01*
X79187348Y-82032553D01*
X79323667Y-81583162D01*
X83664333Y-81583162D01*
X83800652Y-82032553D01*
X84040067Y-82490270D01*
X84364178Y-82892485D01*
X84760530Y-83223740D01*
X85213890Y-83471306D01*
X85706837Y-83625669D01*
X86117000Y-83519190D01*
X86117000Y-81173000D01*
X86371000Y-81173000D01*
X86371000Y-83519190D01*
X86781163Y-83625669D01*
X87274110Y-83471306D01*
X87727470Y-83223740D01*
X88123822Y-82892485D01*
X88447933Y-82490270D01*
X88687348Y-82032553D01*
X88823667Y-81583162D01*
X88716991Y-81173000D01*
X86371000Y-81173000D01*
X86117000Y-81173000D01*
X83771009Y-81173000D01*
X83664333Y-81583162D01*
X79323667Y-81583162D01*
X79216991Y-81173000D01*
X76871000Y-81173000D01*
X76617000Y-81173000D01*
X74271009Y-81173000D01*
X74164333Y-81583162D01*
X73274637Y-81583162D01*
X74202441Y-80655359D01*
X74271009Y-80919000D01*
X76617000Y-80919000D01*
X76617000Y-78572810D01*
X76871000Y-78572810D01*
X76871000Y-80919000D01*
X79216991Y-80919000D01*
X79323667Y-80508838D01*
X83664333Y-80508838D01*
X83771009Y-80919000D01*
X86117000Y-80919000D01*
X86117000Y-78572810D01*
X86371000Y-78572810D01*
X86371000Y-80919000D01*
X88716991Y-80919000D01*
X88823667Y-80508838D01*
X88687348Y-80059447D01*
X88447933Y-79601730D01*
X88123822Y-79199515D01*
X87727470Y-78868260D01*
X87274110Y-78620694D01*
X86781163Y-78466331D01*
X86371000Y-78572810D01*
X86117000Y-78572810D01*
X85706837Y-78466331D01*
X85213890Y-78620694D01*
X84760530Y-78868260D01*
X84364178Y-79199515D01*
X84040067Y-79601730D01*
X83800652Y-80059447D01*
X83664333Y-80508838D01*
X79323667Y-80508838D01*
X79187348Y-80059447D01*
X78947933Y-79601730D01*
X78623822Y-79199515D01*
X78227470Y-78868260D01*
X77774110Y-78620694D01*
X77281163Y-78466331D01*
X76871000Y-78572810D01*
X76617000Y-78572810D01*
X76353416Y-78504383D01*
X80826391Y-74031409D01*
X80918248Y-74003545D01*
X81050226Y-73933000D01*
X81127939Y-73933000D01*
X81327898Y-73893226D01*
X81516256Y-73815205D01*
X81685774Y-73701937D01*
X81829937Y-73557774D01*
X81943205Y-73388256D01*
X82021226Y-73199898D01*
X82061000Y-72999939D01*
X82061000Y-72796061D01*
X82021226Y-72596102D01*
X81943205Y-72407744D01*
X81829937Y-72238226D01*
X81685774Y-72094063D01*
X81516256Y-71980795D01*
X81327898Y-71902774D01*
X81127939Y-71863000D01*
X80924061Y-71863000D01*
X80724102Y-71902774D01*
X80535744Y-71980795D01*
X80366226Y-72094063D01*
X80222063Y-72238226D01*
X80108795Y-72407744D01*
X80030774Y-72596102D01*
X80009023Y-72705454D01*
X79944998Y-72757998D01*
X79921200Y-72786996D01*
X64414000Y-88294197D01*
X64414000Y-77114400D01*
X66570328Y-77114400D01*
X66570328Y-78841600D01*
X66582588Y-78966082D01*
X66618898Y-79085780D01*
X66677863Y-79196094D01*
X66757215Y-79292785D01*
X66853906Y-79372137D01*
X66964220Y-79431102D01*
X67083918Y-79467412D01*
X67208400Y-79479672D01*
X68935600Y-79479672D01*
X69060082Y-79467412D01*
X69179780Y-79431102D01*
X69290094Y-79372137D01*
X69386785Y-79292785D01*
X69466137Y-79196094D01*
X69525102Y-79085780D01*
X69540586Y-79034735D01*
X69547203Y-79042797D01*
X69775394Y-79230069D01*
X70035736Y-79369225D01*
X70318223Y-79454916D01*
X70538381Y-79476600D01*
X70685619Y-79476600D01*
X70905777Y-79454916D01*
X71188264Y-79369225D01*
X71448606Y-79230069D01*
X71676797Y-79042797D01*
X71864069Y-78814606D01*
X72003225Y-78554264D01*
X72088916Y-78271777D01*
X72117851Y-77978000D01*
X72088916Y-77684223D01*
X72003225Y-77401736D01*
X71864069Y-77141394D01*
X71676797Y-76913203D01*
X71448606Y-76725931D01*
X71404090Y-76702137D01*
X71500488Y-76644817D01*
X71718854Y-76448293D01*
X71894684Y-76212944D01*
X72021222Y-75947814D01*
X72066958Y-75797026D01*
X71945817Y-75565000D01*
X70739000Y-75565000D01*
X70739000Y-75585000D01*
X70485000Y-75585000D01*
X70485000Y-75565000D01*
X68199000Y-75565000D01*
X68199000Y-75585000D01*
X67945000Y-75585000D01*
X67945000Y-75565000D01*
X66738183Y-75565000D01*
X66617042Y-75797026D01*
X66662778Y-75947814D01*
X66789316Y-76212944D01*
X66965146Y-76448293D01*
X67028574Y-76505376D01*
X66964220Y-76524898D01*
X66853906Y-76583863D01*
X66757215Y-76663215D01*
X66677863Y-76759906D01*
X66618898Y-76870220D01*
X66582588Y-76989918D01*
X66570328Y-77114400D01*
X64414000Y-77114400D01*
X64414000Y-73257026D01*
X66617042Y-73257026D01*
X66662778Y-73407814D01*
X66789316Y-73672944D01*
X66965146Y-73908293D01*
X67183512Y-74104817D01*
X67289770Y-74168000D01*
X67183512Y-74231183D01*
X66965146Y-74427707D01*
X66789316Y-74663056D01*
X66662778Y-74928186D01*
X66617042Y-75078974D01*
X66738183Y-75311000D01*
X67945000Y-75311000D01*
X67945000Y-73025000D01*
X68199000Y-73025000D01*
X68199000Y-75311000D01*
X70485000Y-75311000D01*
X70485000Y-73025000D01*
X70739000Y-73025000D01*
X70739000Y-75311000D01*
X71945817Y-75311000D01*
X72066958Y-75078974D01*
X72021222Y-74928186D01*
X71894684Y-74663056D01*
X71718854Y-74427707D01*
X71500488Y-74231183D01*
X71394230Y-74168000D01*
X71500488Y-74104817D01*
X71718854Y-73908293D01*
X71894684Y-73672944D01*
X72021222Y-73407814D01*
X72066958Y-73257026D01*
X71945817Y-73025000D01*
X70739000Y-73025000D01*
X70485000Y-73025000D01*
X68199000Y-73025000D01*
X67945000Y-73025000D01*
X66738183Y-73025000D01*
X66617042Y-73257026D01*
X64414000Y-73257026D01*
X64414000Y-70717026D01*
X66617042Y-70717026D01*
X66662778Y-70867814D01*
X66789316Y-71132944D01*
X66965146Y-71368293D01*
X67183512Y-71564817D01*
X67289770Y-71628000D01*
X67183512Y-71691183D01*
X66965146Y-71887707D01*
X66789316Y-72123056D01*
X66662778Y-72388186D01*
X66617042Y-72538974D01*
X66738183Y-72771000D01*
X67945000Y-72771000D01*
X67945000Y-70485000D01*
X68199000Y-70485000D01*
X68199000Y-72771000D01*
X70485000Y-72771000D01*
X70485000Y-70485000D01*
X70739000Y-70485000D01*
X70739000Y-72771000D01*
X71945817Y-72771000D01*
X72066958Y-72538974D01*
X72021222Y-72388186D01*
X71894684Y-72123056D01*
X71718854Y-71887707D01*
X71500488Y-71691183D01*
X71394230Y-71628000D01*
X71500488Y-71564817D01*
X71718854Y-71368293D01*
X71894684Y-71132944D01*
X72021222Y-70867814D01*
X72066958Y-70717026D01*
X71945817Y-70485000D01*
X70739000Y-70485000D01*
X70485000Y-70485000D01*
X68199000Y-70485000D01*
X67945000Y-70485000D01*
X66738183Y-70485000D01*
X66617042Y-70717026D01*
X64414000Y-70717026D01*
X64414000Y-60198000D01*
X66566149Y-60198000D01*
X66595084Y-60491777D01*
X66680775Y-60774264D01*
X66819931Y-61034606D01*
X67007203Y-61262797D01*
X67235394Y-61450069D01*
X67268940Y-61468000D01*
X67235394Y-61485931D01*
X67007203Y-61673203D01*
X66819931Y-61901394D01*
X66680775Y-62161736D01*
X66595084Y-62444223D01*
X66566149Y-62738000D01*
X66595084Y-63031777D01*
X66680775Y-63314264D01*
X66819931Y-63574606D01*
X67007203Y-63802797D01*
X67235394Y-63990069D01*
X67268940Y-64008000D01*
X67235394Y-64025931D01*
X67007203Y-64213203D01*
X66819931Y-64441394D01*
X66680775Y-64701736D01*
X66595084Y-64984223D01*
X66566149Y-65278000D01*
X66595084Y-65571777D01*
X66680775Y-65854264D01*
X66819931Y-66114606D01*
X67007203Y-66342797D01*
X67235394Y-66530069D01*
X67268940Y-66548000D01*
X67235394Y-66565931D01*
X67007203Y-66753203D01*
X66819931Y-66981394D01*
X66680775Y-67241736D01*
X66595084Y-67524223D01*
X66566149Y-67818000D01*
X66595084Y-68111777D01*
X66680775Y-68394264D01*
X66819931Y-68654606D01*
X67007203Y-68882797D01*
X67235394Y-69070069D01*
X67279910Y-69093863D01*
X67183512Y-69151183D01*
X66965146Y-69347707D01*
X66789316Y-69583056D01*
X66662778Y-69848186D01*
X66617042Y-69998974D01*
X66738183Y-70231000D01*
X67945000Y-70231000D01*
X67945000Y-70211000D01*
X68199000Y-70211000D01*
X68199000Y-70231000D01*
X70485000Y-70231000D01*
X70485000Y-70211000D01*
X70739000Y-70211000D01*
X70739000Y-70231000D01*
X71945817Y-70231000D01*
X72066958Y-69998974D01*
X72021222Y-69848186D01*
X71894684Y-69583056D01*
X71718854Y-69347707D01*
X71500488Y-69151183D01*
X71404090Y-69093863D01*
X71448606Y-69070069D01*
X71676797Y-68882797D01*
X71864069Y-68654606D01*
X72003225Y-68394264D01*
X72088916Y-68111777D01*
X72117851Y-67818000D01*
X72088916Y-67524223D01*
X72003225Y-67241736D01*
X71864069Y-66981394D01*
X71729975Y-66818000D01*
X77455928Y-66818000D01*
X77455928Y-68618000D01*
X77468188Y-68742482D01*
X77504498Y-68862180D01*
X77563463Y-68972494D01*
X77642815Y-69069185D01*
X77739506Y-69148537D01*
X77849820Y-69207502D01*
X77969518Y-69243812D01*
X78094000Y-69256072D01*
X79894000Y-69256072D01*
X80018482Y-69243812D01*
X80138180Y-69207502D01*
X80248494Y-69148537D01*
X80345185Y-69069185D01*
X80424537Y-68972494D01*
X80477880Y-68872697D01*
X80515495Y-68910312D01*
X80766905Y-69078299D01*
X81046257Y-69194011D01*
X81342816Y-69253000D01*
X81645184Y-69253000D01*
X81941743Y-69194011D01*
X82221095Y-69078299D01*
X82472505Y-68910312D01*
X82600737Y-68782080D01*
X83109525Y-68782080D01*
X83193208Y-69036261D01*
X83465775Y-69167158D01*
X83758642Y-69242365D01*
X84060553Y-69258991D01*
X84359907Y-69216397D01*
X84645199Y-69116222D01*
X84794792Y-69036261D01*
X84878475Y-68782080D01*
X83994000Y-67897605D01*
X83109525Y-68782080D01*
X82600737Y-68782080D01*
X82686312Y-68696505D01*
X82781738Y-68553690D01*
X82929920Y-68602475D01*
X83814395Y-67718000D01*
X84173605Y-67718000D01*
X85058080Y-68602475D01*
X85312261Y-68518792D01*
X85443158Y-68246225D01*
X85518365Y-67953358D01*
X85534991Y-67651447D01*
X85492397Y-67352093D01*
X85392222Y-67066801D01*
X85312261Y-66917208D01*
X85058080Y-66833525D01*
X84173605Y-67718000D01*
X83814395Y-67718000D01*
X82929920Y-66833525D01*
X82781738Y-66882310D01*
X82686312Y-66739495D01*
X82600737Y-66653920D01*
X83109525Y-66653920D01*
X83994000Y-67538395D01*
X84878475Y-66653920D01*
X84794792Y-66399739D01*
X84522225Y-66268842D01*
X84229358Y-66193635D01*
X83927447Y-66177009D01*
X83628093Y-66219603D01*
X83342801Y-66319778D01*
X83193208Y-66399739D01*
X83109525Y-66653920D01*
X82600737Y-66653920D01*
X82472505Y-66525688D01*
X82221095Y-66357701D01*
X81941743Y-66241989D01*
X81645184Y-66183000D01*
X81342816Y-66183000D01*
X81046257Y-66241989D01*
X80766905Y-66357701D01*
X80515495Y-66525688D01*
X80477880Y-66563303D01*
X80424537Y-66463506D01*
X80345185Y-66366815D01*
X80248494Y-66287463D01*
X80138180Y-66228498D01*
X80018482Y-66192188D01*
X79894000Y-66179928D01*
X78094000Y-66179928D01*
X77969518Y-66192188D01*
X77849820Y-66228498D01*
X77739506Y-66287463D01*
X77642815Y-66366815D01*
X77563463Y-66463506D01*
X77504498Y-66573820D01*
X77468188Y-66693518D01*
X77455928Y-66818000D01*
X71729975Y-66818000D01*
X71676797Y-66753203D01*
X71448606Y-66565931D01*
X71415060Y-66548000D01*
X71448606Y-66530069D01*
X71676797Y-66342797D01*
X71864069Y-66114606D01*
X72003225Y-65854264D01*
X72088916Y-65571777D01*
X72117851Y-65278000D01*
X72088916Y-64984223D01*
X72003225Y-64701736D01*
X71864069Y-64441394D01*
X71676797Y-64213203D01*
X71448606Y-64025931D01*
X71415060Y-64008000D01*
X71448606Y-63990069D01*
X71676797Y-63802797D01*
X71864069Y-63574606D01*
X72003225Y-63314264D01*
X72088916Y-63031777D01*
X72117851Y-62738000D01*
X72088916Y-62444223D01*
X72003225Y-62161736D01*
X71864069Y-61901394D01*
X71676797Y-61673203D01*
X71448606Y-61485931D01*
X71415060Y-61468000D01*
X71448606Y-61450069D01*
X71676797Y-61262797D01*
X71864069Y-61034606D01*
X72003225Y-60774264D01*
X72009019Y-60755162D01*
X74164333Y-60755162D01*
X74300652Y-61204553D01*
X74540067Y-61662270D01*
X74864178Y-62064485D01*
X75260530Y-62395740D01*
X75713890Y-62643306D01*
X76206837Y-62797669D01*
X76617000Y-62691190D01*
X76617000Y-60345000D01*
X76871000Y-60345000D01*
X76871000Y-62691190D01*
X77281163Y-62797669D01*
X77774110Y-62643306D01*
X78227470Y-62395740D01*
X78623822Y-62064485D01*
X78947933Y-61662270D01*
X79187348Y-61204553D01*
X79323667Y-60755162D01*
X83664333Y-60755162D01*
X83800652Y-61204553D01*
X84040067Y-61662270D01*
X84364178Y-62064485D01*
X84760530Y-62395740D01*
X85213890Y-62643306D01*
X85706837Y-62797669D01*
X86117000Y-62691190D01*
X86117000Y-60345000D01*
X86371000Y-60345000D01*
X86371000Y-62691190D01*
X86781163Y-62797669D01*
X87274110Y-62643306D01*
X87727470Y-62395740D01*
X88123822Y-62064485D01*
X88447933Y-61662270D01*
X88687348Y-61204553D01*
X88823667Y-60755162D01*
X88716991Y-60345000D01*
X86371000Y-60345000D01*
X86117000Y-60345000D01*
X83771009Y-60345000D01*
X83664333Y-60755162D01*
X79323667Y-60755162D01*
X79216991Y-60345000D01*
X76871000Y-60345000D01*
X76617000Y-60345000D01*
X74271009Y-60345000D01*
X74164333Y-60755162D01*
X72009019Y-60755162D01*
X72088916Y-60491777D01*
X72117851Y-60198000D01*
X72088916Y-59904223D01*
X72021154Y-59680838D01*
X74164333Y-59680838D01*
X74271009Y-60091000D01*
X76617000Y-60091000D01*
X76617000Y-57744810D01*
X76871000Y-57744810D01*
X76871000Y-60091000D01*
X79216991Y-60091000D01*
X79323667Y-59680838D01*
X83664333Y-59680838D01*
X83771009Y-60091000D01*
X86117000Y-60091000D01*
X86117000Y-57744810D01*
X86371000Y-57744810D01*
X86371000Y-60091000D01*
X88716991Y-60091000D01*
X88823667Y-59680838D01*
X88687348Y-59231447D01*
X88447933Y-58773730D01*
X88123822Y-58371515D01*
X87727470Y-58040260D01*
X87274110Y-57792694D01*
X86781163Y-57638331D01*
X86371000Y-57744810D01*
X86117000Y-57744810D01*
X85706837Y-57638331D01*
X85213890Y-57792694D01*
X84760530Y-58040260D01*
X84364178Y-58371515D01*
X84040067Y-58773730D01*
X83800652Y-59231447D01*
X83664333Y-59680838D01*
X79323667Y-59680838D01*
X79187348Y-59231447D01*
X78947933Y-58773730D01*
X78623822Y-58371515D01*
X78227470Y-58040260D01*
X77774110Y-57792694D01*
X77281163Y-57638331D01*
X76871000Y-57744810D01*
X76617000Y-57744810D01*
X76206837Y-57638331D01*
X75713890Y-57792694D01*
X75260530Y-58040260D01*
X74864178Y-58371515D01*
X74540067Y-58773730D01*
X74300652Y-59231447D01*
X74164333Y-59680838D01*
X72021154Y-59680838D01*
X72003225Y-59621736D01*
X71864069Y-59361394D01*
X71676797Y-59133203D01*
X71448606Y-58945931D01*
X71188264Y-58806775D01*
X70905777Y-58721084D01*
X70685619Y-58699400D01*
X70538381Y-58699400D01*
X70318223Y-58721084D01*
X70035736Y-58806775D01*
X69775394Y-58945931D01*
X69547203Y-59133203D01*
X69359931Y-59361394D01*
X69342000Y-59394940D01*
X69324069Y-59361394D01*
X69136797Y-59133203D01*
X68908606Y-58945931D01*
X68648264Y-58806775D01*
X68365777Y-58721084D01*
X68145619Y-58699400D01*
X67998381Y-58699400D01*
X67778223Y-58721084D01*
X67495736Y-58806775D01*
X67235394Y-58945931D01*
X67007203Y-59133203D01*
X66819931Y-59361394D01*
X66680775Y-59621736D01*
X66595084Y-59904223D01*
X66566149Y-60198000D01*
X64414000Y-60198000D01*
X64414000Y-48920000D01*
X93066000Y-48920000D01*
X93066001Y-153873983D01*
M02*
