M48
; DRILL file {KiCad (5.1.4-0-10_14)} date Tuesday, October 08, 2019 at 08:54:10 PM
; FORMAT={-:-/ absolute / inch / decimal}
; #@! TF.CreationDate,2019-10-08T20:54:10-07:00
; #@! TF.GenerationSoftware,Kicad,Pcbnew,(5.1.4-0-10_14)
; #@! TF.FileFunction,Plated,1,2,PTH
FMAT,2
INCH
T1C0.0157
T2C0.0315
T3C0.0354
T4C0.0394
T5C0.0400
T6C0.0480
T7C0.0559
T8C0.0563
T9C0.0787
T10C0.1181
%
G90
G05
T1
X2.82Y-4.51
X2.8798Y-4.5602
X2.99Y-5.2146
X3.16Y-3.7
X3.19Y-2.87
X3.19Y-4.56
X3.56Y-3.83
T2
X2.58Y-3.54
X2.58Y-3.64
X2.58Y-3.74
X2.58Y-3.84
X2.58Y-3.94
X2.58Y-4.04
X2.58Y-4.14
X2.58Y-4.24
X2.88Y-3.54
X2.88Y-3.64
X2.88Y-3.74
X2.88Y-3.84
X2.88Y-3.94
X2.88Y-4.04
X2.88Y-4.14
X2.88Y-4.24
X2.57Y-4.77
X2.57Y-4.87
X2.57Y-4.97
X2.57Y-5.07
X2.87Y-4.77
X2.87Y-4.87
X2.87Y-4.97
X2.87Y-5.07
T3
X3.35Y-5.6
X3.45Y-5.6
T4
X3.11Y-4.3361
X3.2084Y-4.3361
X3.3069Y-4.3361
X3.11Y-5.1861
X3.2084Y-5.1861
X3.3069Y-5.1861
X3.11Y-2.6661
X3.2084Y-2.6661
X3.3069Y-2.6661
X3.11Y-3.4861
X3.2084Y-3.4861
X3.3069Y-3.4861
T5
X2.68Y-2.37
X2.68Y-2.47
X2.68Y-2.57
X2.68Y-2.67
X2.68Y-2.77
X2.68Y-2.87
X2.68Y-2.97
X2.68Y-3.07
X2.78Y-2.37
X2.78Y-2.47
X2.78Y-2.57
X2.78Y-2.67
X2.78Y-2.77
X2.78Y-2.87
X2.78Y-2.97
X2.78Y-3.07
T6
X2.5661Y-6.09
X2.5661Y-5.6
X3.1561Y-6.09
T7
X2.6881Y-6.09
X2.6881Y-5.6
X3.2781Y-6.09
T8
X3.0149Y-5.6
X3.0149Y-6.09
X3.6049Y-6.09
T9
X3.0214Y-4.8908
X3.3954Y-4.8908
X3.0214Y-4.0408
X3.3954Y-4.0408
X3.0214Y-2.3708
X3.3954Y-2.3708
X3.0214Y-3.1908
X3.3954Y-3.1908
T10
X2.82Y-5.6
X2.82Y-6.09
X3.41Y-6.09
T0
M30
