G04 #@! TF.GenerationSoftware,KiCad,Pcbnew,(5.1.4-0-10_14)*
G04 #@! TF.CreationDate,2019-10-08T20:54:05-07:00*
G04 #@! TF.ProjectId,ADSR_Main_IO,41445352-5f4d-4616-996e-5f494f2e6b69,rev?*
G04 #@! TF.SameCoordinates,Original*
G04 #@! TF.FileFunction,Legend,Bot*
G04 #@! TF.FilePolarity,Positive*
%FSLAX46Y46*%
G04 Gerber Fmt 4.6, Leading zero omitted, Abs format (unit mm)*
G04 Created by KiCad (PCBNEW (5.1.4-0-10_14)) date 2019-10-08 20:54:05*
%MOMM*%
%LPD*%
G04 APERTURE LIST*
%ADD10C,0.150000*%
%ADD11C,0.120000*%
G04 APERTURE END LIST*
D10*
X92138380Y-157694380D02*
X91900285Y-158694380D01*
X91709809Y-157980095D01*
X91519333Y-158694380D01*
X91281238Y-157694380D01*
X90900285Y-158694380D02*
X90900285Y-157694380D01*
X90900285Y-158170571D02*
X90328857Y-158170571D01*
X90328857Y-158694380D02*
X90328857Y-157694380D01*
X92597333Y-49950666D02*
X92121142Y-49950666D01*
X92692571Y-50236380D02*
X92359238Y-49236380D01*
X92025904Y-50236380D01*
X91692571Y-50236380D02*
X91692571Y-49236380D01*
X91454476Y-49236380D01*
X91311619Y-49284000D01*
X91216380Y-49379238D01*
X91168761Y-49474476D01*
X91121142Y-49664952D01*
X91121142Y-49807809D01*
X91168761Y-49998285D01*
X91216380Y-50093523D01*
X91311619Y-50188761D01*
X91454476Y-50236380D01*
X91692571Y-50236380D01*
X90740190Y-50188761D02*
X90597333Y-50236380D01*
X90359238Y-50236380D01*
X90264000Y-50188761D01*
X90216380Y-50141142D01*
X90168761Y-50045904D01*
X90168761Y-49950666D01*
X90216380Y-49855428D01*
X90264000Y-49807809D01*
X90359238Y-49760190D01*
X90549714Y-49712571D01*
X90644952Y-49664952D01*
X90692571Y-49617333D01*
X90740190Y-49522095D01*
X90740190Y-49426857D01*
X90692571Y-49331619D01*
X90644952Y-49284000D01*
X90549714Y-49236380D01*
X90311619Y-49236380D01*
X90168761Y-49284000D01*
X89168761Y-50236380D02*
X89502095Y-49760190D01*
X89740190Y-50236380D02*
X89740190Y-49236380D01*
X89359238Y-49236380D01*
X89264000Y-49284000D01*
X89216380Y-49331619D01*
X89168761Y-49426857D01*
X89168761Y-49569714D01*
X89216380Y-49664952D01*
X89264000Y-49712571D01*
X89359238Y-49760190D01*
X89740190Y-49760190D01*
X87978285Y-49712571D02*
X87644952Y-49712571D01*
X87502095Y-50236380D02*
X87978285Y-50236380D01*
X87978285Y-49236380D01*
X87502095Y-49236380D01*
X87073523Y-49569714D02*
X87073523Y-50236380D01*
X87073523Y-49664952D02*
X87025904Y-49617333D01*
X86930666Y-49569714D01*
X86787809Y-49569714D01*
X86692571Y-49617333D01*
X86644952Y-49712571D01*
X86644952Y-50236380D01*
X86264000Y-49569714D02*
X86025904Y-50236380D01*
X85787809Y-49569714D01*
X84121142Y-49284000D02*
X84216380Y-49236380D01*
X84359238Y-49236380D01*
X84502095Y-49284000D01*
X84597333Y-49379238D01*
X84644952Y-49474476D01*
X84692571Y-49664952D01*
X84692571Y-49807809D01*
X84644952Y-49998285D01*
X84597333Y-50093523D01*
X84502095Y-50188761D01*
X84359238Y-50236380D01*
X84264000Y-50236380D01*
X84121142Y-50188761D01*
X84073523Y-50141142D01*
X84073523Y-49807809D01*
X84264000Y-49807809D01*
X83264000Y-50188761D02*
X83359238Y-50236380D01*
X83549714Y-50236380D01*
X83644952Y-50188761D01*
X83692571Y-50093523D01*
X83692571Y-49712571D01*
X83644952Y-49617333D01*
X83549714Y-49569714D01*
X83359238Y-49569714D01*
X83264000Y-49617333D01*
X83216380Y-49712571D01*
X83216380Y-49807809D01*
X83692571Y-49903047D01*
X82787809Y-49569714D02*
X82787809Y-50236380D01*
X82787809Y-49664952D02*
X82740190Y-49617333D01*
X82644952Y-49569714D01*
X82502095Y-49569714D01*
X82406857Y-49617333D01*
X82359238Y-49712571D01*
X82359238Y-50236380D01*
X81121142Y-50236380D02*
X81121142Y-49236380D01*
X80787809Y-49950666D01*
X80454476Y-49236380D01*
X80454476Y-50236380D01*
X79549714Y-50236380D02*
X79549714Y-49712571D01*
X79597333Y-49617333D01*
X79692571Y-49569714D01*
X79883047Y-49569714D01*
X79978285Y-49617333D01*
X79549714Y-50188761D02*
X79644952Y-50236380D01*
X79883047Y-50236380D01*
X79978285Y-50188761D01*
X80025904Y-50093523D01*
X80025904Y-49998285D01*
X79978285Y-49903047D01*
X79883047Y-49855428D01*
X79644952Y-49855428D01*
X79549714Y-49807809D01*
X79073523Y-50236380D02*
X79073523Y-49569714D01*
X79073523Y-49236380D02*
X79121142Y-49284000D01*
X79073523Y-49331619D01*
X79025904Y-49284000D01*
X79073523Y-49236380D01*
X79073523Y-49331619D01*
X78597333Y-49569714D02*
X78597333Y-50236380D01*
X78597333Y-49664952D02*
X78549714Y-49617333D01*
X78454476Y-49569714D01*
X78311619Y-49569714D01*
X78216380Y-49617333D01*
X78168761Y-49712571D01*
X78168761Y-50236380D01*
X76597333Y-49712571D02*
X76454476Y-49760190D01*
X76406857Y-49807809D01*
X76359238Y-49903047D01*
X76359238Y-50045904D01*
X76406857Y-50141142D01*
X76454476Y-50188761D01*
X76549714Y-50236380D01*
X76930666Y-50236380D01*
X76930666Y-49236380D01*
X76597333Y-49236380D01*
X76502095Y-49284000D01*
X76454476Y-49331619D01*
X76406857Y-49426857D01*
X76406857Y-49522095D01*
X76454476Y-49617333D01*
X76502095Y-49664952D01*
X76597333Y-49712571D01*
X76930666Y-49712571D01*
X75787809Y-50236380D02*
X75883047Y-50188761D01*
X75930666Y-50141142D01*
X75978285Y-50045904D01*
X75978285Y-49760190D01*
X75930666Y-49664952D01*
X75883047Y-49617333D01*
X75787809Y-49569714D01*
X75644952Y-49569714D01*
X75549714Y-49617333D01*
X75502095Y-49664952D01*
X75454476Y-49760190D01*
X75454476Y-50045904D01*
X75502095Y-50141142D01*
X75549714Y-50188761D01*
X75644952Y-50236380D01*
X75787809Y-50236380D01*
X74597333Y-50236380D02*
X74597333Y-49712571D01*
X74644952Y-49617333D01*
X74740190Y-49569714D01*
X74930666Y-49569714D01*
X75025904Y-49617333D01*
X74597333Y-50188761D02*
X74692571Y-50236380D01*
X74930666Y-50236380D01*
X75025904Y-50188761D01*
X75073523Y-50093523D01*
X75073523Y-49998285D01*
X75025904Y-49903047D01*
X74930666Y-49855428D01*
X74692571Y-49855428D01*
X74597333Y-49807809D01*
X74121142Y-50236380D02*
X74121142Y-49569714D01*
X74121142Y-49760190D02*
X74073523Y-49664952D01*
X74025904Y-49617333D01*
X73930666Y-49569714D01*
X73835428Y-49569714D01*
X73073523Y-50236380D02*
X73073523Y-49236380D01*
X73073523Y-50188761D02*
X73168761Y-50236380D01*
X73359238Y-50236380D01*
X73454476Y-50188761D01*
X73502095Y-50141142D01*
X73549714Y-50045904D01*
X73549714Y-49760190D01*
X73502095Y-49664952D01*
X73454476Y-49617333D01*
X73359238Y-49569714D01*
X73168761Y-49569714D01*
X73073523Y-49617333D01*
X71264000Y-50236380D02*
X71597333Y-49760190D01*
X71835428Y-50236380D02*
X71835428Y-49236380D01*
X71454476Y-49236380D01*
X71359238Y-49284000D01*
X71311619Y-49331619D01*
X71264000Y-49426857D01*
X71264000Y-49569714D01*
X71311619Y-49664952D01*
X71359238Y-49712571D01*
X71454476Y-49760190D01*
X71835428Y-49760190D01*
X70454476Y-50188761D02*
X70549714Y-50236380D01*
X70740190Y-50236380D01*
X70835428Y-50188761D01*
X70883047Y-50093523D01*
X70883047Y-49712571D01*
X70835428Y-49617333D01*
X70740190Y-49569714D01*
X70549714Y-49569714D01*
X70454476Y-49617333D01*
X70406857Y-49712571D01*
X70406857Y-49807809D01*
X70883047Y-49903047D01*
X70073523Y-49569714D02*
X69835428Y-50236380D01*
X69597333Y-49569714D01*
X68502095Y-49331619D02*
X68454476Y-49284000D01*
X68359238Y-49236380D01*
X68121142Y-49236380D01*
X68025904Y-49284000D01*
X67978285Y-49331619D01*
X67930666Y-49426857D01*
X67930666Y-49522095D01*
X67978285Y-49664952D01*
X68549714Y-50236380D01*
X67930666Y-50236380D01*
D11*
X66692000Y-88586000D02*
X68342000Y-88586000D01*
X66692000Y-109026000D02*
X66692000Y-88586000D01*
X71992000Y-109026000D02*
X66692000Y-109026000D01*
X71992000Y-88586000D02*
X71992000Y-109026000D01*
X70342000Y-88586000D02*
X71992000Y-88586000D01*
X68342000Y-88586000D02*
G75*
G03X70342000Y-88586000I1000000J0D01*
G01*
X64417000Y-83578000D02*
X66957000Y-83578000D01*
X64417000Y-83578000D02*
X64417000Y-81038000D01*
X64667000Y-83328000D02*
X74017000Y-83328000D01*
X64667000Y-54848000D02*
X64667000Y-83328000D01*
X74017000Y-54848000D02*
X64667000Y-54848000D01*
X74017000Y-83328000D02*
X74017000Y-54848000D01*
X82244000Y-70353422D02*
X82244000Y-70870578D01*
X80824000Y-70353422D02*
X80824000Y-70870578D01*
X82856000Y-70870578D02*
X82856000Y-70353422D01*
X84276000Y-70870578D02*
X84276000Y-70353422D01*
X82244000Y-91181422D02*
X82244000Y-91698578D01*
X80824000Y-91181422D02*
X80824000Y-91698578D01*
X82856000Y-91698578D02*
X82856000Y-91181422D01*
X84276000Y-91698578D02*
X84276000Y-91181422D01*
X82244000Y-112771422D02*
X82244000Y-113288578D01*
X80824000Y-112771422D02*
X80824000Y-113288578D01*
X82856000Y-113288578D02*
X82856000Y-112771422D01*
X84276000Y-113288578D02*
X84276000Y-112771422D01*
X82244000Y-134361422D02*
X82244000Y-134878578D01*
X80824000Y-134361422D02*
X80824000Y-134878578D01*
X82856000Y-134878578D02*
X82856000Y-134361422D01*
X84276000Y-134878578D02*
X84276000Y-134361422D01*
X76195422Y-97334000D02*
X76712578Y-97334000D01*
X76195422Y-98754000D02*
X76712578Y-98754000D01*
X75941422Y-106986000D02*
X76458578Y-106986000D01*
X75941422Y-108406000D02*
X76458578Y-108406000D01*
X72442000Y-86618578D02*
X72442000Y-86101422D01*
X73862000Y-86618578D02*
X73862000Y-86101422D01*
X89122000Y-66062000D02*
X89622000Y-66062000D01*
X89372000Y-65812000D02*
X89372000Y-66312000D01*
X92127563Y-66552000D02*
X93192000Y-67616437D01*
X89736437Y-66552000D02*
X88672000Y-67616437D01*
X89736437Y-66552000D02*
X89872000Y-66552000D01*
X92127563Y-66552000D02*
X91992000Y-66552000D01*
X93192000Y-67616437D02*
X93192000Y-71072000D01*
X88672000Y-67616437D02*
X88672000Y-71072000D01*
X88672000Y-71072000D02*
X89872000Y-71072000D01*
X93192000Y-71072000D02*
X91992000Y-71072000D01*
X89122000Y-72920000D02*
X89622000Y-72920000D01*
X89372000Y-72670000D02*
X89372000Y-73170000D01*
X92127563Y-73410000D02*
X93192000Y-74474437D01*
X89736437Y-73410000D02*
X88672000Y-74474437D01*
X89736437Y-73410000D02*
X89872000Y-73410000D01*
X92127563Y-73410000D02*
X91992000Y-73410000D01*
X93192000Y-74474437D02*
X93192000Y-77930000D01*
X88672000Y-74474437D02*
X88672000Y-77930000D01*
X88672000Y-77930000D02*
X89872000Y-77930000D01*
X93192000Y-77930000D02*
X91992000Y-77930000D01*
X69669922Y-91746000D02*
X70187078Y-91746000D01*
X69669922Y-93166000D02*
X70187078Y-93166000D01*
X80005422Y-98858000D02*
X80522578Y-98858000D01*
X80005422Y-100278000D02*
X80522578Y-100278000D01*
X66438000Y-119828000D02*
X68088000Y-119828000D01*
X66438000Y-130108000D02*
X66438000Y-119828000D01*
X71738000Y-130108000D02*
X66438000Y-130108000D01*
X71738000Y-119828000D02*
X71738000Y-130108000D01*
X70088000Y-119828000D02*
X71738000Y-119828000D01*
X68088000Y-119828000D02*
G75*
G03X70088000Y-119828000I1000000J0D01*
G01*
X88086000Y-135513578D02*
X88086000Y-134996422D01*
X86666000Y-135513578D02*
X86666000Y-134996422D01*
X71703000Y-103627422D02*
X71703000Y-104144578D01*
X70283000Y-103627422D02*
X70283000Y-104144578D01*
X66981000Y-103627422D02*
X66981000Y-104144578D01*
X68401000Y-103627422D02*
X68401000Y-104144578D01*
D10*
X70103904Y-87038380D02*
X70103904Y-87847904D01*
X70056285Y-87943142D01*
X70008666Y-87990761D01*
X69913428Y-88038380D01*
X69722952Y-88038380D01*
X69627714Y-87990761D01*
X69580095Y-87943142D01*
X69532476Y-87847904D01*
X69532476Y-87038380D01*
X68532476Y-88038380D02*
X69103904Y-88038380D01*
X68818190Y-88038380D02*
X68818190Y-87038380D01*
X68913428Y-87181238D01*
X69008666Y-87276476D01*
X69103904Y-87324095D01*
X69675333Y-84034380D02*
X69675333Y-84748666D01*
X69722952Y-84891523D01*
X69818190Y-84986761D01*
X69961047Y-85034380D01*
X70056285Y-85034380D01*
X68770571Y-84367714D02*
X68770571Y-85034380D01*
X69008666Y-83986761D02*
X69246761Y-84701047D01*
X68627714Y-84701047D01*
X80336380Y-70445333D02*
X79860190Y-70112000D01*
X80336380Y-69873904D02*
X79336380Y-69873904D01*
X79336380Y-70254857D01*
X79384000Y-70350095D01*
X79431619Y-70397714D01*
X79526857Y-70445333D01*
X79669714Y-70445333D01*
X79764952Y-70397714D01*
X79812571Y-70350095D01*
X79860190Y-70254857D01*
X79860190Y-69873904D01*
X80336380Y-71397714D02*
X80336380Y-70826285D01*
X80336380Y-71112000D02*
X79336380Y-71112000D01*
X79479238Y-71016761D01*
X79574476Y-70921523D01*
X79622095Y-70826285D01*
X85668380Y-70445333D02*
X85192190Y-70112000D01*
X85668380Y-69873904D02*
X84668380Y-69873904D01*
X84668380Y-70254857D01*
X84716000Y-70350095D01*
X84763619Y-70397714D01*
X84858857Y-70445333D01*
X85001714Y-70445333D01*
X85096952Y-70397714D01*
X85144571Y-70350095D01*
X85192190Y-70254857D01*
X85192190Y-69873904D01*
X84763619Y-70826285D02*
X84716000Y-70873904D01*
X84668380Y-70969142D01*
X84668380Y-71207238D01*
X84716000Y-71302476D01*
X84763619Y-71350095D01*
X84858857Y-71397714D01*
X84954095Y-71397714D01*
X85096952Y-71350095D01*
X85668380Y-70778666D01*
X85668380Y-71397714D01*
X80336380Y-91273333D02*
X79860190Y-90940000D01*
X80336380Y-90701904D02*
X79336380Y-90701904D01*
X79336380Y-91082857D01*
X79384000Y-91178095D01*
X79431619Y-91225714D01*
X79526857Y-91273333D01*
X79669714Y-91273333D01*
X79764952Y-91225714D01*
X79812571Y-91178095D01*
X79860190Y-91082857D01*
X79860190Y-90701904D01*
X79336380Y-91606666D02*
X79336380Y-92225714D01*
X79717333Y-91892380D01*
X79717333Y-92035238D01*
X79764952Y-92130476D01*
X79812571Y-92178095D01*
X79907809Y-92225714D01*
X80145904Y-92225714D01*
X80241142Y-92178095D01*
X80288761Y-92130476D01*
X80336380Y-92035238D01*
X80336380Y-91749523D01*
X80288761Y-91654285D01*
X80241142Y-91606666D01*
X85668380Y-91273333D02*
X85192190Y-90940000D01*
X85668380Y-90701904D02*
X84668380Y-90701904D01*
X84668380Y-91082857D01*
X84716000Y-91178095D01*
X84763619Y-91225714D01*
X84858857Y-91273333D01*
X85001714Y-91273333D01*
X85096952Y-91225714D01*
X85144571Y-91178095D01*
X85192190Y-91082857D01*
X85192190Y-90701904D01*
X85001714Y-92130476D02*
X85668380Y-92130476D01*
X84620761Y-91892380D02*
X85335047Y-91654285D01*
X85335047Y-92273333D01*
X80336380Y-112863333D02*
X79860190Y-112530000D01*
X80336380Y-112291904D02*
X79336380Y-112291904D01*
X79336380Y-112672857D01*
X79384000Y-112768095D01*
X79431619Y-112815714D01*
X79526857Y-112863333D01*
X79669714Y-112863333D01*
X79764952Y-112815714D01*
X79812571Y-112768095D01*
X79860190Y-112672857D01*
X79860190Y-112291904D01*
X79336380Y-113768095D02*
X79336380Y-113291904D01*
X79812571Y-113244285D01*
X79764952Y-113291904D01*
X79717333Y-113387142D01*
X79717333Y-113625238D01*
X79764952Y-113720476D01*
X79812571Y-113768095D01*
X79907809Y-113815714D01*
X80145904Y-113815714D01*
X80241142Y-113768095D01*
X80288761Y-113720476D01*
X80336380Y-113625238D01*
X80336380Y-113387142D01*
X80288761Y-113291904D01*
X80241142Y-113244285D01*
X85668380Y-112863333D02*
X85192190Y-112530000D01*
X85668380Y-112291904D02*
X84668380Y-112291904D01*
X84668380Y-112672857D01*
X84716000Y-112768095D01*
X84763619Y-112815714D01*
X84858857Y-112863333D01*
X85001714Y-112863333D01*
X85096952Y-112815714D01*
X85144571Y-112768095D01*
X85192190Y-112672857D01*
X85192190Y-112291904D01*
X84668380Y-113720476D02*
X84668380Y-113530000D01*
X84716000Y-113434761D01*
X84763619Y-113387142D01*
X84906476Y-113291904D01*
X85096952Y-113244285D01*
X85477904Y-113244285D01*
X85573142Y-113291904D01*
X85620761Y-113339523D01*
X85668380Y-113434761D01*
X85668380Y-113625238D01*
X85620761Y-113720476D01*
X85573142Y-113768095D01*
X85477904Y-113815714D01*
X85239809Y-113815714D01*
X85144571Y-113768095D01*
X85096952Y-113720476D01*
X85049333Y-113625238D01*
X85049333Y-113434761D01*
X85096952Y-113339523D01*
X85144571Y-113291904D01*
X85239809Y-113244285D01*
X80336380Y-134453333D02*
X79860190Y-134120000D01*
X80336380Y-133881904D02*
X79336380Y-133881904D01*
X79336380Y-134262857D01*
X79384000Y-134358095D01*
X79431619Y-134405714D01*
X79526857Y-134453333D01*
X79669714Y-134453333D01*
X79764952Y-134405714D01*
X79812571Y-134358095D01*
X79860190Y-134262857D01*
X79860190Y-133881904D01*
X79336380Y-134786666D02*
X79336380Y-135453333D01*
X80336380Y-135024761D01*
X85668380Y-134453333D02*
X85192190Y-134120000D01*
X85668380Y-133881904D02*
X84668380Y-133881904D01*
X84668380Y-134262857D01*
X84716000Y-134358095D01*
X84763619Y-134405714D01*
X84858857Y-134453333D01*
X85001714Y-134453333D01*
X85096952Y-134405714D01*
X85144571Y-134358095D01*
X85192190Y-134262857D01*
X85192190Y-133881904D01*
X85096952Y-135024761D02*
X85049333Y-134929523D01*
X85001714Y-134881904D01*
X84906476Y-134834285D01*
X84858857Y-134834285D01*
X84763619Y-134881904D01*
X84716000Y-134929523D01*
X84668380Y-135024761D01*
X84668380Y-135215238D01*
X84716000Y-135310476D01*
X84763619Y-135358095D01*
X84858857Y-135405714D01*
X84906476Y-135405714D01*
X85001714Y-135358095D01*
X85049333Y-135310476D01*
X85096952Y-135215238D01*
X85096952Y-135024761D01*
X85144571Y-134929523D01*
X85192190Y-134881904D01*
X85287428Y-134834285D01*
X85477904Y-134834285D01*
X85573142Y-134881904D01*
X85620761Y-134929523D01*
X85668380Y-135024761D01*
X85668380Y-135215238D01*
X85620761Y-135310476D01*
X85573142Y-135358095D01*
X85477904Y-135405714D01*
X85287428Y-135405714D01*
X85192190Y-135358095D01*
X85144571Y-135310476D01*
X85096952Y-135215238D01*
X76620666Y-100051142D02*
X76668285Y-100098761D01*
X76811142Y-100146380D01*
X76906380Y-100146380D01*
X77049238Y-100098761D01*
X77144476Y-100003523D01*
X77192095Y-99908285D01*
X77239714Y-99717809D01*
X77239714Y-99574952D01*
X77192095Y-99384476D01*
X77144476Y-99289238D01*
X77049238Y-99194000D01*
X76906380Y-99146380D01*
X76811142Y-99146380D01*
X76668285Y-99194000D01*
X76620666Y-99241619D01*
X75668285Y-100146380D02*
X76239714Y-100146380D01*
X75954000Y-100146380D02*
X75954000Y-99146380D01*
X76049238Y-99289238D01*
X76144476Y-99384476D01*
X76239714Y-99432095D01*
X76366666Y-109703142D02*
X76414285Y-109750761D01*
X76557142Y-109798380D01*
X76652380Y-109798380D01*
X76795238Y-109750761D01*
X76890476Y-109655523D01*
X76938095Y-109560285D01*
X76985714Y-109369809D01*
X76985714Y-109226952D01*
X76938095Y-109036476D01*
X76890476Y-108941238D01*
X76795238Y-108846000D01*
X76652380Y-108798380D01*
X76557142Y-108798380D01*
X76414285Y-108846000D01*
X76366666Y-108893619D01*
X75985714Y-108893619D02*
X75938095Y-108846000D01*
X75842857Y-108798380D01*
X75604761Y-108798380D01*
X75509523Y-108846000D01*
X75461904Y-108893619D01*
X75414285Y-108988857D01*
X75414285Y-109084095D01*
X75461904Y-109226952D01*
X76033333Y-109798380D01*
X75414285Y-109798380D01*
X75159142Y-86193333D02*
X75206761Y-86145714D01*
X75254380Y-86002857D01*
X75254380Y-85907619D01*
X75206761Y-85764761D01*
X75111523Y-85669523D01*
X75016285Y-85621904D01*
X74825809Y-85574285D01*
X74682952Y-85574285D01*
X74492476Y-85621904D01*
X74397238Y-85669523D01*
X74302000Y-85764761D01*
X74254380Y-85907619D01*
X74254380Y-86002857D01*
X74302000Y-86145714D01*
X74349619Y-86193333D01*
X74254380Y-86526666D02*
X74254380Y-87145714D01*
X74635333Y-86812380D01*
X74635333Y-86955238D01*
X74682952Y-87050476D01*
X74730571Y-87098095D01*
X74825809Y-87145714D01*
X75063904Y-87145714D01*
X75159142Y-87098095D01*
X75206761Y-87050476D01*
X75254380Y-86955238D01*
X75254380Y-86669523D01*
X75206761Y-86574285D01*
X75159142Y-86526666D01*
X88089142Y-68645333D02*
X88136761Y-68597714D01*
X88184380Y-68454857D01*
X88184380Y-68359619D01*
X88136761Y-68216761D01*
X88041523Y-68121523D01*
X87946285Y-68073904D01*
X87755809Y-68026285D01*
X87612952Y-68026285D01*
X87422476Y-68073904D01*
X87327238Y-68121523D01*
X87232000Y-68216761D01*
X87184380Y-68359619D01*
X87184380Y-68454857D01*
X87232000Y-68597714D01*
X87279619Y-68645333D01*
X87517714Y-69502476D02*
X88184380Y-69502476D01*
X87136761Y-69264380D02*
X87851047Y-69026285D01*
X87851047Y-69645333D01*
X88089142Y-75503333D02*
X88136761Y-75455714D01*
X88184380Y-75312857D01*
X88184380Y-75217619D01*
X88136761Y-75074761D01*
X88041523Y-74979523D01*
X87946285Y-74931904D01*
X87755809Y-74884285D01*
X87612952Y-74884285D01*
X87422476Y-74931904D01*
X87327238Y-74979523D01*
X87232000Y-75074761D01*
X87184380Y-75217619D01*
X87184380Y-75312857D01*
X87232000Y-75455714D01*
X87279619Y-75503333D01*
X87184380Y-76408095D02*
X87184380Y-75931904D01*
X87660571Y-75884285D01*
X87612952Y-75931904D01*
X87565333Y-76027142D01*
X87565333Y-76265238D01*
X87612952Y-76360476D01*
X87660571Y-76408095D01*
X87755809Y-76455714D01*
X87993904Y-76455714D01*
X88089142Y-76408095D01*
X88136761Y-76360476D01*
X88184380Y-76265238D01*
X88184380Y-76027142D01*
X88136761Y-75931904D01*
X88089142Y-75884285D01*
X70095166Y-94558380D02*
X70428500Y-94082190D01*
X70666595Y-94558380D02*
X70666595Y-93558380D01*
X70285642Y-93558380D01*
X70190404Y-93606000D01*
X70142785Y-93653619D01*
X70095166Y-93748857D01*
X70095166Y-93891714D01*
X70142785Y-93986952D01*
X70190404Y-94034571D01*
X70285642Y-94082190D01*
X70666595Y-94082190D01*
X69618976Y-94558380D02*
X69428500Y-94558380D01*
X69333261Y-94510761D01*
X69285642Y-94463142D01*
X69190404Y-94320285D01*
X69142785Y-94129809D01*
X69142785Y-93748857D01*
X69190404Y-93653619D01*
X69238023Y-93606000D01*
X69333261Y-93558380D01*
X69523738Y-93558380D01*
X69618976Y-93606000D01*
X69666595Y-93653619D01*
X69714214Y-93748857D01*
X69714214Y-93986952D01*
X69666595Y-94082190D01*
X69618976Y-94129809D01*
X69523738Y-94177428D01*
X69333261Y-94177428D01*
X69238023Y-94129809D01*
X69190404Y-94082190D01*
X69142785Y-93986952D01*
X80906857Y-101670380D02*
X81240190Y-101194190D01*
X81478285Y-101670380D02*
X81478285Y-100670380D01*
X81097333Y-100670380D01*
X81002095Y-100718000D01*
X80954476Y-100765619D01*
X80906857Y-100860857D01*
X80906857Y-101003714D01*
X80954476Y-101098952D01*
X81002095Y-101146571D01*
X81097333Y-101194190D01*
X81478285Y-101194190D01*
X79954476Y-101670380D02*
X80525904Y-101670380D01*
X80240190Y-101670380D02*
X80240190Y-100670380D01*
X80335428Y-100813238D01*
X80430666Y-100908476D01*
X80525904Y-100956095D01*
X79002095Y-101670380D02*
X79573523Y-101670380D01*
X79287809Y-101670380D02*
X79287809Y-100670380D01*
X79383047Y-100813238D01*
X79478285Y-100908476D01*
X79573523Y-100956095D01*
X69849904Y-118280380D02*
X69849904Y-119089904D01*
X69802285Y-119185142D01*
X69754666Y-119232761D01*
X69659428Y-119280380D01*
X69468952Y-119280380D01*
X69373714Y-119232761D01*
X69326095Y-119185142D01*
X69278476Y-119089904D01*
X69278476Y-118280380D01*
X68849904Y-118375619D02*
X68802285Y-118328000D01*
X68707047Y-118280380D01*
X68468952Y-118280380D01*
X68373714Y-118328000D01*
X68326095Y-118375619D01*
X68278476Y-118470857D01*
X68278476Y-118566095D01*
X68326095Y-118708952D01*
X68897523Y-119280380D01*
X68278476Y-119280380D01*
X89478380Y-134612142D02*
X89002190Y-134278809D01*
X89478380Y-134040714D02*
X88478380Y-134040714D01*
X88478380Y-134421666D01*
X88526000Y-134516904D01*
X88573619Y-134564523D01*
X88668857Y-134612142D01*
X88811714Y-134612142D01*
X88906952Y-134564523D01*
X88954571Y-134516904D01*
X89002190Y-134421666D01*
X89002190Y-134040714D01*
X89478380Y-135564523D02*
X89478380Y-134993095D01*
X89478380Y-135278809D02*
X88478380Y-135278809D01*
X88621238Y-135183571D01*
X88716476Y-135088333D01*
X88764095Y-134993095D01*
X88573619Y-135945476D02*
X88526000Y-135993095D01*
X88478380Y-136088333D01*
X88478380Y-136326428D01*
X88526000Y-136421666D01*
X88573619Y-136469285D01*
X88668857Y-136516904D01*
X88764095Y-136516904D01*
X88906952Y-136469285D01*
X89478380Y-135897857D01*
X89478380Y-136516904D01*
X71350142Y-100925333D02*
X71397761Y-100877714D01*
X71445380Y-100734857D01*
X71445380Y-100639619D01*
X71397761Y-100496761D01*
X71302523Y-100401523D01*
X71207285Y-100353904D01*
X71016809Y-100306285D01*
X70873952Y-100306285D01*
X70683476Y-100353904D01*
X70588238Y-100401523D01*
X70493000Y-100496761D01*
X70445380Y-100639619D01*
X70445380Y-100734857D01*
X70493000Y-100877714D01*
X70540619Y-100925333D01*
X70445380Y-101782476D02*
X70445380Y-101592000D01*
X70493000Y-101496761D01*
X70540619Y-101449142D01*
X70683476Y-101353904D01*
X70873952Y-101306285D01*
X71254904Y-101306285D01*
X71350142Y-101353904D01*
X71397761Y-101401523D01*
X71445380Y-101496761D01*
X71445380Y-101687238D01*
X71397761Y-101782476D01*
X71350142Y-101830095D01*
X71254904Y-101877714D01*
X71016809Y-101877714D01*
X70921571Y-101830095D01*
X70873952Y-101782476D01*
X70826333Y-101687238D01*
X70826333Y-101496761D01*
X70873952Y-101401523D01*
X70921571Y-101353904D01*
X71016809Y-101306285D01*
X68048142Y-100925333D02*
X68095761Y-100877714D01*
X68143380Y-100734857D01*
X68143380Y-100639619D01*
X68095761Y-100496761D01*
X68000523Y-100401523D01*
X67905285Y-100353904D01*
X67714809Y-100306285D01*
X67571952Y-100306285D01*
X67381476Y-100353904D01*
X67286238Y-100401523D01*
X67191000Y-100496761D01*
X67143380Y-100639619D01*
X67143380Y-100734857D01*
X67191000Y-100877714D01*
X67238619Y-100925333D01*
X67143380Y-101258666D02*
X67143380Y-101925333D01*
X68143380Y-101496761D01*
M02*
