G04 #@! TF.GenerationSoftware,KiCad,Pcbnew,(5.1.4-0-10_14)*
G04 #@! TF.CreationDate,2019-10-08T20:53:36-07:00*
G04 #@! TF.ProjectId,ADSR_Front_Panel,41445352-5f46-4726-9f6e-745f50616e65,rev?*
G04 #@! TF.SameCoordinates,Original*
G04 #@! TF.FileFunction,Legend,Bot*
G04 #@! TF.FilePolarity,Positive*
%FSLAX46Y46*%
G04 Gerber Fmt 4.6, Leading zero omitted, Abs format (unit mm)*
G04 Created by KiCad (PCBNEW (5.1.4-0-10_14)) date 2019-10-08 20:53:36*
%MOMM*%
%LPD*%
G04 APERTURE LIST*
%ADD10C,0.300000*%
%ADD11C,0.010000*%
G04 APERTURE END LIST*
D10*
X92198000Y-41483714D02*
X92198000Y-42198000D01*
X92626571Y-41340857D02*
X91126571Y-41840857D01*
X92626571Y-42340857D01*
X92626571Y-42840857D02*
X91126571Y-42840857D01*
X91126571Y-43198000D01*
X91198000Y-43412285D01*
X91340857Y-43555142D01*
X91483714Y-43626571D01*
X91769428Y-43698000D01*
X91983714Y-43698000D01*
X92269428Y-43626571D01*
X92412285Y-43555142D01*
X92555142Y-43412285D01*
X92626571Y-43198000D01*
X92626571Y-42840857D01*
X92555142Y-44269428D02*
X92626571Y-44483714D01*
X92626571Y-44840857D01*
X92555142Y-44983714D01*
X92483714Y-45055142D01*
X92340857Y-45126571D01*
X92198000Y-45126571D01*
X92055142Y-45055142D01*
X91983714Y-44983714D01*
X91912285Y-44840857D01*
X91840857Y-44555142D01*
X91769428Y-44412285D01*
X91698000Y-44340857D01*
X91555142Y-44269428D01*
X91412285Y-44269428D01*
X91269428Y-44340857D01*
X91198000Y-44412285D01*
X91126571Y-44555142D01*
X91126571Y-44912285D01*
X91198000Y-45126571D01*
X92626571Y-46626571D02*
X91912285Y-46126571D01*
X92626571Y-45769428D02*
X91126571Y-45769428D01*
X91126571Y-46340857D01*
X91198000Y-46483714D01*
X91269428Y-46555142D01*
X91412285Y-46626571D01*
X91626571Y-46626571D01*
X91769428Y-46555142D01*
X91840857Y-46483714D01*
X91912285Y-46340857D01*
X91912285Y-45769428D01*
X91840857Y-48412285D02*
X91840857Y-48912285D01*
X92626571Y-49126571D02*
X92626571Y-48412285D01*
X91126571Y-48412285D01*
X91126571Y-49126571D01*
X91626571Y-49769428D02*
X92626571Y-49769428D01*
X91769428Y-49769428D02*
X91698000Y-49840857D01*
X91626571Y-49983714D01*
X91626571Y-50197999D01*
X91698000Y-50340857D01*
X91840857Y-50412285D01*
X92626571Y-50412285D01*
X91626571Y-50983714D02*
X92626571Y-51340857D01*
X91626571Y-51697999D01*
X91198000Y-54197999D02*
X91126571Y-54055142D01*
X91126571Y-53840857D01*
X91198000Y-53626571D01*
X91340857Y-53483714D01*
X91483714Y-53412285D01*
X91769428Y-53340857D01*
X91983714Y-53340857D01*
X92269428Y-53412285D01*
X92412285Y-53483714D01*
X92555142Y-53626571D01*
X92626571Y-53840857D01*
X92626571Y-53983714D01*
X92555142Y-54197999D01*
X92483714Y-54269428D01*
X91983714Y-54269428D01*
X91983714Y-53983714D01*
X92555142Y-55483714D02*
X92626571Y-55340857D01*
X92626571Y-55055142D01*
X92555142Y-54912285D01*
X92412285Y-54840857D01*
X91840857Y-54840857D01*
X91698000Y-54912285D01*
X91626571Y-55055142D01*
X91626571Y-55340857D01*
X91698000Y-55483714D01*
X91840857Y-55555142D01*
X91983714Y-55555142D01*
X92126571Y-54840857D01*
X91626571Y-56197999D02*
X92626571Y-56197999D01*
X91769428Y-56197999D02*
X91698000Y-56269428D01*
X91626571Y-56412285D01*
X91626571Y-56626571D01*
X91698000Y-56769428D01*
X91840857Y-56840857D01*
X92626571Y-56840857D01*
X91840857Y-59197999D02*
X91840857Y-58697999D01*
X92626571Y-58697999D02*
X91126571Y-58697999D01*
X91126571Y-59412285D01*
X92626571Y-59983714D02*
X91626571Y-59983714D01*
X91912285Y-59983714D02*
X91769428Y-60055142D01*
X91698000Y-60126571D01*
X91626571Y-60269428D01*
X91626571Y-60412285D01*
X92626571Y-61126571D02*
X92555142Y-60983714D01*
X92483714Y-60912285D01*
X92340857Y-60840857D01*
X91912285Y-60840857D01*
X91769428Y-60912285D01*
X91698000Y-60983714D01*
X91626571Y-61126571D01*
X91626571Y-61340857D01*
X91698000Y-61483714D01*
X91769428Y-61555142D01*
X91912285Y-61626571D01*
X92340857Y-61626571D01*
X92483714Y-61555142D01*
X92555142Y-61483714D01*
X92626571Y-61340857D01*
X92626571Y-61126571D01*
X91626571Y-62269428D02*
X92626571Y-62269428D01*
X91769428Y-62269428D02*
X91698000Y-62340857D01*
X91626571Y-62483714D01*
X91626571Y-62697999D01*
X91698000Y-62840857D01*
X91840857Y-62912285D01*
X92626571Y-62912285D01*
X91626571Y-63412285D02*
X91626571Y-63983714D01*
X91126571Y-63626571D02*
X92412285Y-63626571D01*
X92555142Y-63697999D01*
X92626571Y-63840857D01*
X92626571Y-63983714D01*
X92626571Y-65626571D02*
X91126571Y-65626571D01*
X91126571Y-66197999D01*
X91198000Y-66340857D01*
X91269428Y-66412285D01*
X91412285Y-66483714D01*
X91626571Y-66483714D01*
X91769428Y-66412285D01*
X91840857Y-66340857D01*
X91912285Y-66197999D01*
X91912285Y-65626571D01*
X92626571Y-67769428D02*
X91840857Y-67769428D01*
X91698000Y-67697999D01*
X91626571Y-67555142D01*
X91626571Y-67269428D01*
X91698000Y-67126571D01*
X92555142Y-67769428D02*
X92626571Y-67626571D01*
X92626571Y-67269428D01*
X92555142Y-67126571D01*
X92412285Y-67055142D01*
X92269428Y-67055142D01*
X92126571Y-67126571D01*
X92055142Y-67269428D01*
X92055142Y-67626571D01*
X91983714Y-67769428D01*
X91626571Y-68483714D02*
X92626571Y-68483714D01*
X91769428Y-68483714D02*
X91698000Y-68555142D01*
X91626571Y-68697999D01*
X91626571Y-68912285D01*
X91698000Y-69055142D01*
X91840857Y-69126571D01*
X92626571Y-69126571D01*
X92555142Y-70412285D02*
X92626571Y-70269428D01*
X92626571Y-69983714D01*
X92555142Y-69840857D01*
X92412285Y-69769428D01*
X91840857Y-69769428D01*
X91698000Y-69840857D01*
X91626571Y-69983714D01*
X91626571Y-70269428D01*
X91698000Y-70412285D01*
X91840857Y-70483714D01*
X91983714Y-70483714D01*
X92126571Y-69769428D01*
X92626571Y-71340857D02*
X92555142Y-71197999D01*
X92412285Y-71126571D01*
X91126571Y-71126571D01*
X92626571Y-73912285D02*
X91912285Y-73412285D01*
X92626571Y-73055142D02*
X91126571Y-73055142D01*
X91126571Y-73626571D01*
X91198000Y-73769428D01*
X91269428Y-73840857D01*
X91412285Y-73912285D01*
X91626571Y-73912285D01*
X91769428Y-73840857D01*
X91840857Y-73769428D01*
X91912285Y-73626571D01*
X91912285Y-73055142D01*
X92555142Y-75126571D02*
X92626571Y-74983714D01*
X92626571Y-74697999D01*
X92555142Y-74555142D01*
X92412285Y-74483714D01*
X91840857Y-74483714D01*
X91698000Y-74555142D01*
X91626571Y-74697999D01*
X91626571Y-74983714D01*
X91698000Y-75126571D01*
X91840857Y-75197999D01*
X91983714Y-75197999D01*
X92126571Y-74483714D01*
X91626571Y-75697999D02*
X92626571Y-76055142D01*
X91626571Y-76412285D01*
X92626571Y-78912285D02*
X92626571Y-78055142D01*
X92626571Y-78483714D02*
X91126571Y-78483714D01*
X91340857Y-78340857D01*
X91483714Y-78197999D01*
X91555142Y-78055142D01*
D11*
G36*
X82319090Y-41692348D02*
G01*
X82240546Y-41692778D01*
X82183702Y-41693942D01*
X82144895Y-41696207D01*
X82120462Y-41699940D01*
X82106738Y-41705506D01*
X82100060Y-41713273D01*
X82096764Y-41723605D01*
X82096444Y-41724943D01*
X82091438Y-41749079D01*
X82082171Y-41796701D01*
X82069608Y-41862741D01*
X82054713Y-41942128D01*
X82038449Y-42029796D01*
X82037881Y-42032875D01*
X82021590Y-42118789D01*
X82006348Y-42194696D01*
X81993139Y-42256045D01*
X81982946Y-42298282D01*
X81976752Y-42316855D01*
X81976457Y-42317184D01*
X81958212Y-42326253D01*
X81920595Y-42341367D01*
X81871729Y-42359262D01*
X81871457Y-42359358D01*
X81809907Y-42382493D01*
X81737343Y-42411965D01*
X81668943Y-42441597D01*
X81665706Y-42443062D01*
X81554298Y-42493626D01*
X81307601Y-42325160D01*
X81231923Y-42273803D01*
X81163369Y-42227889D01*
X81105912Y-42190030D01*
X81063524Y-42162837D01*
X81040175Y-42148921D01*
X81037958Y-42147889D01*
X81020990Y-42152484D01*
X80989299Y-42174655D01*
X80941648Y-42215447D01*
X80876802Y-42275905D01*
X80810603Y-42340227D01*
X80746786Y-42403612D01*
X80689671Y-42461451D01*
X80642695Y-42510175D01*
X80609297Y-42546210D01*
X80592915Y-42565984D01*
X80592306Y-42567002D01*
X80590495Y-42580572D01*
X80597317Y-42602733D01*
X80614460Y-42636478D01*
X80643607Y-42684800D01*
X80686445Y-42750692D01*
X80743552Y-42835517D01*
X80794234Y-42910177D01*
X80839539Y-42977140D01*
X80876850Y-43032516D01*
X80903548Y-43072420D01*
X80917015Y-43092962D01*
X80917863Y-43094356D01*
X80916219Y-43114038D01*
X80903755Y-43152293D01*
X80882952Y-43201889D01*
X80875538Y-43217728D01*
X80843186Y-43288290D01*
X80808672Y-43368353D01*
X80780635Y-43437629D01*
X80760432Y-43489045D01*
X80744385Y-43528119D01*
X80735112Y-43548541D01*
X80733959Y-43550114D01*
X80716904Y-43552721D01*
X80676702Y-43559863D01*
X80618698Y-43570523D01*
X80548237Y-43583685D01*
X80470665Y-43598333D01*
X80391328Y-43613449D01*
X80315569Y-43628018D01*
X80248736Y-43641022D01*
X80196172Y-43651445D01*
X80163224Y-43658270D01*
X80155143Y-43660199D01*
X80146795Y-43664962D01*
X80140494Y-43675718D01*
X80135955Y-43696098D01*
X80132896Y-43729734D01*
X80131033Y-43780255D01*
X80130082Y-43851292D01*
X80129760Y-43946476D01*
X80129743Y-43985492D01*
X80129743Y-44302799D01*
X80205943Y-44317839D01*
X80248337Y-44325995D01*
X80311600Y-44337899D01*
X80388038Y-44352116D01*
X80469957Y-44367210D01*
X80492600Y-44371355D01*
X80568194Y-44386053D01*
X80634047Y-44400505D01*
X80684634Y-44413375D01*
X80714426Y-44423322D01*
X80719388Y-44426287D01*
X80731574Y-44447283D01*
X80749047Y-44487967D01*
X80768423Y-44540322D01*
X80772266Y-44551600D01*
X80797661Y-44621523D01*
X80829183Y-44700418D01*
X80860031Y-44771266D01*
X80860183Y-44771595D01*
X80911553Y-44882733D01*
X80742601Y-45131253D01*
X80573648Y-45379772D01*
X80790571Y-45597058D01*
X80856181Y-45661726D01*
X80916021Y-45718733D01*
X80966733Y-45765033D01*
X81004954Y-45797584D01*
X81027325Y-45813343D01*
X81030534Y-45814343D01*
X81049374Y-45806469D01*
X81087820Y-45784578D01*
X81141670Y-45751267D01*
X81206724Y-45709131D01*
X81277060Y-45661943D01*
X81348445Y-45613810D01*
X81412092Y-45571928D01*
X81463959Y-45538871D01*
X81500005Y-45517218D01*
X81516133Y-45509543D01*
X81535811Y-45516037D01*
X81573125Y-45533150D01*
X81620379Y-45557326D01*
X81625388Y-45560013D01*
X81689023Y-45591927D01*
X81732659Y-45607579D01*
X81759798Y-45607745D01*
X81773943Y-45593204D01*
X81774025Y-45593000D01*
X81781095Y-45575779D01*
X81797958Y-45534899D01*
X81823305Y-45473525D01*
X81855829Y-45394819D01*
X81894222Y-45301947D01*
X81937178Y-45198072D01*
X81978778Y-45097502D01*
X82024496Y-44986516D01*
X82066474Y-44883703D01*
X82103452Y-44792215D01*
X82134173Y-44715201D01*
X82157378Y-44655815D01*
X82171810Y-44617209D01*
X82176257Y-44602800D01*
X82165104Y-44586272D01*
X82135931Y-44559930D01*
X82097029Y-44530887D01*
X81986243Y-44439039D01*
X81899649Y-44333759D01*
X81838284Y-44217266D01*
X81803185Y-44091776D01*
X81795392Y-43959507D01*
X81801057Y-43898457D01*
X81831922Y-43771795D01*
X81885080Y-43659941D01*
X81957233Y-43564001D01*
X82045083Y-43485076D01*
X82145335Y-43424270D01*
X82254690Y-43382687D01*
X82369853Y-43361428D01*
X82487525Y-43361599D01*
X82604410Y-43384301D01*
X82717211Y-43430638D01*
X82822631Y-43501713D01*
X82866632Y-43541911D01*
X82951021Y-43645129D01*
X83009778Y-43757925D01*
X83043296Y-43877010D01*
X83051965Y-43999095D01*
X83036177Y-44120893D01*
X82996322Y-44239116D01*
X82932793Y-44350475D01*
X82845979Y-44451684D01*
X82748971Y-44530887D01*
X82708563Y-44561162D01*
X82680018Y-44587219D01*
X82669743Y-44602825D01*
X82675123Y-44619843D01*
X82690425Y-44660500D01*
X82714388Y-44721642D01*
X82745756Y-44800119D01*
X82783268Y-44892780D01*
X82825667Y-44996472D01*
X82867337Y-45097526D01*
X82913310Y-45208607D01*
X82955893Y-45311541D01*
X82993779Y-45403165D01*
X83025660Y-45480316D01*
X83050229Y-45539831D01*
X83066180Y-45578544D01*
X83072090Y-45593000D01*
X83086052Y-45607685D01*
X83113060Y-45607642D01*
X83156587Y-45592099D01*
X83220110Y-45560284D01*
X83220612Y-45560013D01*
X83268440Y-45535323D01*
X83307103Y-45517338D01*
X83328905Y-45509614D01*
X83329867Y-45509543D01*
X83346279Y-45517378D01*
X83382513Y-45539165D01*
X83434526Y-45572328D01*
X83498275Y-45614291D01*
X83568940Y-45661943D01*
X83640884Y-45710191D01*
X83705726Y-45752151D01*
X83759265Y-45785227D01*
X83797303Y-45806821D01*
X83815467Y-45814343D01*
X83832192Y-45804457D01*
X83865820Y-45776826D01*
X83912990Y-45734495D01*
X83970342Y-45680505D01*
X84034516Y-45617899D01*
X84055503Y-45596983D01*
X84272501Y-45379623D01*
X84107332Y-45137220D01*
X84057136Y-45062781D01*
X84013081Y-44995972D01*
X83977638Y-44940665D01*
X83953281Y-44900729D01*
X83942478Y-44880036D01*
X83942162Y-44878563D01*
X83947857Y-44859058D01*
X83963174Y-44819822D01*
X83985463Y-44767430D01*
X84001107Y-44732355D01*
X84030359Y-44665201D01*
X84057906Y-44597358D01*
X84079263Y-44540034D01*
X84085065Y-44522572D01*
X84101548Y-44475938D01*
X84117660Y-44439905D01*
X84126510Y-44426287D01*
X84146040Y-44417952D01*
X84188666Y-44406137D01*
X84248855Y-44392181D01*
X84321078Y-44377422D01*
X84353400Y-44371355D01*
X84435478Y-44356273D01*
X84514205Y-44341669D01*
X84581891Y-44328980D01*
X84630840Y-44319642D01*
X84640057Y-44317839D01*
X84716257Y-44302799D01*
X84716257Y-43985492D01*
X84716086Y-43881154D01*
X84715384Y-43802213D01*
X84713866Y-43745038D01*
X84711251Y-43705999D01*
X84707254Y-43681465D01*
X84701591Y-43667805D01*
X84693980Y-43661389D01*
X84690857Y-43660199D01*
X84672022Y-43655980D01*
X84630412Y-43647562D01*
X84571370Y-43635961D01*
X84500243Y-43622195D01*
X84422375Y-43607280D01*
X84343113Y-43592232D01*
X84267802Y-43578069D01*
X84201787Y-43565806D01*
X84150413Y-43556461D01*
X84119025Y-43551050D01*
X84112041Y-43550114D01*
X84105715Y-43537596D01*
X84091710Y-43504246D01*
X84072645Y-43456377D01*
X84065366Y-43437629D01*
X84036004Y-43365195D01*
X84001429Y-43285170D01*
X83970463Y-43217728D01*
X83947677Y-43166159D01*
X83932518Y-43123785D01*
X83927458Y-43097834D01*
X83928264Y-43094356D01*
X83938959Y-43077936D01*
X83963380Y-43041417D01*
X83998905Y-42988687D01*
X84042913Y-42923635D01*
X84092783Y-42850151D01*
X84102644Y-42835645D01*
X84160508Y-42749704D01*
X84203044Y-42684261D01*
X84231946Y-42636304D01*
X84248910Y-42602820D01*
X84255633Y-42580795D01*
X84253810Y-42567217D01*
X84253764Y-42567131D01*
X84239414Y-42549297D01*
X84207677Y-42514817D01*
X84161990Y-42467268D01*
X84105796Y-42410222D01*
X84042532Y-42347255D01*
X84035398Y-42340227D01*
X83955670Y-42263020D01*
X83894143Y-42206330D01*
X83849579Y-42169110D01*
X83820743Y-42150315D01*
X83808042Y-42147889D01*
X83789506Y-42158471D01*
X83751039Y-42182916D01*
X83696614Y-42218612D01*
X83630202Y-42262947D01*
X83555775Y-42313311D01*
X83538399Y-42325160D01*
X83291703Y-42493626D01*
X83180294Y-42443062D01*
X83112543Y-42413595D01*
X83039817Y-42383959D01*
X82977297Y-42360330D01*
X82974543Y-42359358D01*
X82925640Y-42341457D01*
X82887943Y-42326320D01*
X82869575Y-42317210D01*
X82869544Y-42317184D01*
X82863715Y-42300717D01*
X82853808Y-42260219D01*
X82840805Y-42200242D01*
X82825691Y-42125340D01*
X82809448Y-42040064D01*
X82808119Y-42032875D01*
X82791825Y-41945014D01*
X82776867Y-41865260D01*
X82764209Y-41798681D01*
X82754814Y-41750347D01*
X82749646Y-41725325D01*
X82749556Y-41724943D01*
X82746411Y-41714299D01*
X82740296Y-41706262D01*
X82727547Y-41700467D01*
X82704500Y-41696547D01*
X82667491Y-41694135D01*
X82612856Y-41692865D01*
X82536933Y-41692371D01*
X82436056Y-41692286D01*
X82423000Y-41692286D01*
X82319090Y-41692348D01*
X82319090Y-41692348D01*
G37*
X82319090Y-41692348D02*
X82240546Y-41692778D01*
X82183702Y-41693942D01*
X82144895Y-41696207D01*
X82120462Y-41699940D01*
X82106738Y-41705506D01*
X82100060Y-41713273D01*
X82096764Y-41723605D01*
X82096444Y-41724943D01*
X82091438Y-41749079D01*
X82082171Y-41796701D01*
X82069608Y-41862741D01*
X82054713Y-41942128D01*
X82038449Y-42029796D01*
X82037881Y-42032875D01*
X82021590Y-42118789D01*
X82006348Y-42194696D01*
X81993139Y-42256045D01*
X81982946Y-42298282D01*
X81976752Y-42316855D01*
X81976457Y-42317184D01*
X81958212Y-42326253D01*
X81920595Y-42341367D01*
X81871729Y-42359262D01*
X81871457Y-42359358D01*
X81809907Y-42382493D01*
X81737343Y-42411965D01*
X81668943Y-42441597D01*
X81665706Y-42443062D01*
X81554298Y-42493626D01*
X81307601Y-42325160D01*
X81231923Y-42273803D01*
X81163369Y-42227889D01*
X81105912Y-42190030D01*
X81063524Y-42162837D01*
X81040175Y-42148921D01*
X81037958Y-42147889D01*
X81020990Y-42152484D01*
X80989299Y-42174655D01*
X80941648Y-42215447D01*
X80876802Y-42275905D01*
X80810603Y-42340227D01*
X80746786Y-42403612D01*
X80689671Y-42461451D01*
X80642695Y-42510175D01*
X80609297Y-42546210D01*
X80592915Y-42565984D01*
X80592306Y-42567002D01*
X80590495Y-42580572D01*
X80597317Y-42602733D01*
X80614460Y-42636478D01*
X80643607Y-42684800D01*
X80686445Y-42750692D01*
X80743552Y-42835517D01*
X80794234Y-42910177D01*
X80839539Y-42977140D01*
X80876850Y-43032516D01*
X80903548Y-43072420D01*
X80917015Y-43092962D01*
X80917863Y-43094356D01*
X80916219Y-43114038D01*
X80903755Y-43152293D01*
X80882952Y-43201889D01*
X80875538Y-43217728D01*
X80843186Y-43288290D01*
X80808672Y-43368353D01*
X80780635Y-43437629D01*
X80760432Y-43489045D01*
X80744385Y-43528119D01*
X80735112Y-43548541D01*
X80733959Y-43550114D01*
X80716904Y-43552721D01*
X80676702Y-43559863D01*
X80618698Y-43570523D01*
X80548237Y-43583685D01*
X80470665Y-43598333D01*
X80391328Y-43613449D01*
X80315569Y-43628018D01*
X80248736Y-43641022D01*
X80196172Y-43651445D01*
X80163224Y-43658270D01*
X80155143Y-43660199D01*
X80146795Y-43664962D01*
X80140494Y-43675718D01*
X80135955Y-43696098D01*
X80132896Y-43729734D01*
X80131033Y-43780255D01*
X80130082Y-43851292D01*
X80129760Y-43946476D01*
X80129743Y-43985492D01*
X80129743Y-44302799D01*
X80205943Y-44317839D01*
X80248337Y-44325995D01*
X80311600Y-44337899D01*
X80388038Y-44352116D01*
X80469957Y-44367210D01*
X80492600Y-44371355D01*
X80568194Y-44386053D01*
X80634047Y-44400505D01*
X80684634Y-44413375D01*
X80714426Y-44423322D01*
X80719388Y-44426287D01*
X80731574Y-44447283D01*
X80749047Y-44487967D01*
X80768423Y-44540322D01*
X80772266Y-44551600D01*
X80797661Y-44621523D01*
X80829183Y-44700418D01*
X80860031Y-44771266D01*
X80860183Y-44771595D01*
X80911553Y-44882733D01*
X80742601Y-45131253D01*
X80573648Y-45379772D01*
X80790571Y-45597058D01*
X80856181Y-45661726D01*
X80916021Y-45718733D01*
X80966733Y-45765033D01*
X81004954Y-45797584D01*
X81027325Y-45813343D01*
X81030534Y-45814343D01*
X81049374Y-45806469D01*
X81087820Y-45784578D01*
X81141670Y-45751267D01*
X81206724Y-45709131D01*
X81277060Y-45661943D01*
X81348445Y-45613810D01*
X81412092Y-45571928D01*
X81463959Y-45538871D01*
X81500005Y-45517218D01*
X81516133Y-45509543D01*
X81535811Y-45516037D01*
X81573125Y-45533150D01*
X81620379Y-45557326D01*
X81625388Y-45560013D01*
X81689023Y-45591927D01*
X81732659Y-45607579D01*
X81759798Y-45607745D01*
X81773943Y-45593204D01*
X81774025Y-45593000D01*
X81781095Y-45575779D01*
X81797958Y-45534899D01*
X81823305Y-45473525D01*
X81855829Y-45394819D01*
X81894222Y-45301947D01*
X81937178Y-45198072D01*
X81978778Y-45097502D01*
X82024496Y-44986516D01*
X82066474Y-44883703D01*
X82103452Y-44792215D01*
X82134173Y-44715201D01*
X82157378Y-44655815D01*
X82171810Y-44617209D01*
X82176257Y-44602800D01*
X82165104Y-44586272D01*
X82135931Y-44559930D01*
X82097029Y-44530887D01*
X81986243Y-44439039D01*
X81899649Y-44333759D01*
X81838284Y-44217266D01*
X81803185Y-44091776D01*
X81795392Y-43959507D01*
X81801057Y-43898457D01*
X81831922Y-43771795D01*
X81885080Y-43659941D01*
X81957233Y-43564001D01*
X82045083Y-43485076D01*
X82145335Y-43424270D01*
X82254690Y-43382687D01*
X82369853Y-43361428D01*
X82487525Y-43361599D01*
X82604410Y-43384301D01*
X82717211Y-43430638D01*
X82822631Y-43501713D01*
X82866632Y-43541911D01*
X82951021Y-43645129D01*
X83009778Y-43757925D01*
X83043296Y-43877010D01*
X83051965Y-43999095D01*
X83036177Y-44120893D01*
X82996322Y-44239116D01*
X82932793Y-44350475D01*
X82845979Y-44451684D01*
X82748971Y-44530887D01*
X82708563Y-44561162D01*
X82680018Y-44587219D01*
X82669743Y-44602825D01*
X82675123Y-44619843D01*
X82690425Y-44660500D01*
X82714388Y-44721642D01*
X82745756Y-44800119D01*
X82783268Y-44892780D01*
X82825667Y-44996472D01*
X82867337Y-45097526D01*
X82913310Y-45208607D01*
X82955893Y-45311541D01*
X82993779Y-45403165D01*
X83025660Y-45480316D01*
X83050229Y-45539831D01*
X83066180Y-45578544D01*
X83072090Y-45593000D01*
X83086052Y-45607685D01*
X83113060Y-45607642D01*
X83156587Y-45592099D01*
X83220110Y-45560284D01*
X83220612Y-45560013D01*
X83268440Y-45535323D01*
X83307103Y-45517338D01*
X83328905Y-45509614D01*
X83329867Y-45509543D01*
X83346279Y-45517378D01*
X83382513Y-45539165D01*
X83434526Y-45572328D01*
X83498275Y-45614291D01*
X83568940Y-45661943D01*
X83640884Y-45710191D01*
X83705726Y-45752151D01*
X83759265Y-45785227D01*
X83797303Y-45806821D01*
X83815467Y-45814343D01*
X83832192Y-45804457D01*
X83865820Y-45776826D01*
X83912990Y-45734495D01*
X83970342Y-45680505D01*
X84034516Y-45617899D01*
X84055503Y-45596983D01*
X84272501Y-45379623D01*
X84107332Y-45137220D01*
X84057136Y-45062781D01*
X84013081Y-44995972D01*
X83977638Y-44940665D01*
X83953281Y-44900729D01*
X83942478Y-44880036D01*
X83942162Y-44878563D01*
X83947857Y-44859058D01*
X83963174Y-44819822D01*
X83985463Y-44767430D01*
X84001107Y-44732355D01*
X84030359Y-44665201D01*
X84057906Y-44597358D01*
X84079263Y-44540034D01*
X84085065Y-44522572D01*
X84101548Y-44475938D01*
X84117660Y-44439905D01*
X84126510Y-44426287D01*
X84146040Y-44417952D01*
X84188666Y-44406137D01*
X84248855Y-44392181D01*
X84321078Y-44377422D01*
X84353400Y-44371355D01*
X84435478Y-44356273D01*
X84514205Y-44341669D01*
X84581891Y-44328980D01*
X84630840Y-44319642D01*
X84640057Y-44317839D01*
X84716257Y-44302799D01*
X84716257Y-43985492D01*
X84716086Y-43881154D01*
X84715384Y-43802213D01*
X84713866Y-43745038D01*
X84711251Y-43705999D01*
X84707254Y-43681465D01*
X84701591Y-43667805D01*
X84693980Y-43661389D01*
X84690857Y-43660199D01*
X84672022Y-43655980D01*
X84630412Y-43647562D01*
X84571370Y-43635961D01*
X84500243Y-43622195D01*
X84422375Y-43607280D01*
X84343113Y-43592232D01*
X84267802Y-43578069D01*
X84201787Y-43565806D01*
X84150413Y-43556461D01*
X84119025Y-43551050D01*
X84112041Y-43550114D01*
X84105715Y-43537596D01*
X84091710Y-43504246D01*
X84072645Y-43456377D01*
X84065366Y-43437629D01*
X84036004Y-43365195D01*
X84001429Y-43285170D01*
X83970463Y-43217728D01*
X83947677Y-43166159D01*
X83932518Y-43123785D01*
X83927458Y-43097834D01*
X83928264Y-43094356D01*
X83938959Y-43077936D01*
X83963380Y-43041417D01*
X83998905Y-42988687D01*
X84042913Y-42923635D01*
X84092783Y-42850151D01*
X84102644Y-42835645D01*
X84160508Y-42749704D01*
X84203044Y-42684261D01*
X84231946Y-42636304D01*
X84248910Y-42602820D01*
X84255633Y-42580795D01*
X84253810Y-42567217D01*
X84253764Y-42567131D01*
X84239414Y-42549297D01*
X84207677Y-42514817D01*
X84161990Y-42467268D01*
X84105796Y-42410222D01*
X84042532Y-42347255D01*
X84035398Y-42340227D01*
X83955670Y-42263020D01*
X83894143Y-42206330D01*
X83849579Y-42169110D01*
X83820743Y-42150315D01*
X83808042Y-42147889D01*
X83789506Y-42158471D01*
X83751039Y-42182916D01*
X83696614Y-42218612D01*
X83630202Y-42262947D01*
X83555775Y-42313311D01*
X83538399Y-42325160D01*
X83291703Y-42493626D01*
X83180294Y-42443062D01*
X83112543Y-42413595D01*
X83039817Y-42383959D01*
X82977297Y-42360330D01*
X82974543Y-42359358D01*
X82925640Y-42341457D01*
X82887943Y-42326320D01*
X82869575Y-42317210D01*
X82869544Y-42317184D01*
X82863715Y-42300717D01*
X82853808Y-42260219D01*
X82840805Y-42200242D01*
X82825691Y-42125340D01*
X82809448Y-42040064D01*
X82808119Y-42032875D01*
X82791825Y-41945014D01*
X82776867Y-41865260D01*
X82764209Y-41798681D01*
X82754814Y-41750347D01*
X82749646Y-41725325D01*
X82749556Y-41724943D01*
X82746411Y-41714299D01*
X82740296Y-41706262D01*
X82727547Y-41700467D01*
X82704500Y-41696547D01*
X82667491Y-41694135D01*
X82612856Y-41692865D01*
X82536933Y-41692371D01*
X82436056Y-41692286D01*
X82423000Y-41692286D01*
X82319090Y-41692348D01*
G36*
X79269405Y-46416966D02*
G01*
X79211979Y-46454497D01*
X79184281Y-46488096D01*
X79162338Y-46549064D01*
X79160595Y-46597308D01*
X79164543Y-46661816D01*
X79313314Y-46726934D01*
X79385651Y-46760202D01*
X79432916Y-46786964D01*
X79457493Y-46810144D01*
X79461763Y-46832667D01*
X79448111Y-46857455D01*
X79433057Y-46873886D01*
X79389254Y-46900235D01*
X79341611Y-46902081D01*
X79297855Y-46881546D01*
X79265711Y-46840752D01*
X79259962Y-46826347D01*
X79232424Y-46781356D01*
X79200742Y-46762182D01*
X79157286Y-46745779D01*
X79157286Y-46807966D01*
X79161128Y-46850283D01*
X79176177Y-46885969D01*
X79207720Y-46926943D01*
X79212408Y-46932267D01*
X79247494Y-46968720D01*
X79277653Y-46988283D01*
X79315385Y-46997283D01*
X79346665Y-47000230D01*
X79402615Y-47000965D01*
X79442445Y-46991660D01*
X79467292Y-46977846D01*
X79506344Y-46947467D01*
X79533375Y-46914613D01*
X79550483Y-46873294D01*
X79559762Y-46817521D01*
X79563307Y-46741305D01*
X79563590Y-46702622D01*
X79562628Y-46656247D01*
X79474993Y-46656247D01*
X79473977Y-46681126D01*
X79471444Y-46685200D01*
X79454726Y-46679665D01*
X79418751Y-46665017D01*
X79370669Y-46644190D01*
X79360614Y-46639714D01*
X79299848Y-46608814D01*
X79266368Y-46581657D01*
X79259010Y-46556220D01*
X79276609Y-46530481D01*
X79291144Y-46519109D01*
X79343590Y-46496364D01*
X79392678Y-46500122D01*
X79433773Y-46527884D01*
X79462242Y-46577152D01*
X79471369Y-46616257D01*
X79474993Y-46656247D01*
X79562628Y-46656247D01*
X79561715Y-46612249D01*
X79554804Y-46545384D01*
X79541116Y-46496695D01*
X79518904Y-46460849D01*
X79486426Y-46432513D01*
X79472267Y-46423355D01*
X79407947Y-46399507D01*
X79337527Y-46398006D01*
X79269405Y-46416966D01*
X79269405Y-46416966D01*
G37*
X79269405Y-46416966D02*
X79211979Y-46454497D01*
X79184281Y-46488096D01*
X79162338Y-46549064D01*
X79160595Y-46597308D01*
X79164543Y-46661816D01*
X79313314Y-46726934D01*
X79385651Y-46760202D01*
X79432916Y-46786964D01*
X79457493Y-46810144D01*
X79461763Y-46832667D01*
X79448111Y-46857455D01*
X79433057Y-46873886D01*
X79389254Y-46900235D01*
X79341611Y-46902081D01*
X79297855Y-46881546D01*
X79265711Y-46840752D01*
X79259962Y-46826347D01*
X79232424Y-46781356D01*
X79200742Y-46762182D01*
X79157286Y-46745779D01*
X79157286Y-46807966D01*
X79161128Y-46850283D01*
X79176177Y-46885969D01*
X79207720Y-46926943D01*
X79212408Y-46932267D01*
X79247494Y-46968720D01*
X79277653Y-46988283D01*
X79315385Y-46997283D01*
X79346665Y-47000230D01*
X79402615Y-47000965D01*
X79442445Y-46991660D01*
X79467292Y-46977846D01*
X79506344Y-46947467D01*
X79533375Y-46914613D01*
X79550483Y-46873294D01*
X79559762Y-46817521D01*
X79563307Y-46741305D01*
X79563590Y-46702622D01*
X79562628Y-46656247D01*
X79474993Y-46656247D01*
X79473977Y-46681126D01*
X79471444Y-46685200D01*
X79454726Y-46679665D01*
X79418751Y-46665017D01*
X79370669Y-46644190D01*
X79360614Y-46639714D01*
X79299848Y-46608814D01*
X79266368Y-46581657D01*
X79259010Y-46556220D01*
X79276609Y-46530481D01*
X79291144Y-46519109D01*
X79343590Y-46496364D01*
X79392678Y-46500122D01*
X79433773Y-46527884D01*
X79462242Y-46577152D01*
X79471369Y-46616257D01*
X79474993Y-46656247D01*
X79562628Y-46656247D01*
X79561715Y-46612249D01*
X79554804Y-46545384D01*
X79541116Y-46496695D01*
X79518904Y-46460849D01*
X79486426Y-46432513D01*
X79472267Y-46423355D01*
X79407947Y-46399507D01*
X79337527Y-46398006D01*
X79269405Y-46416966D01*
G36*
X79770400Y-46408752D02*
G01*
X79753052Y-46416334D01*
X79711644Y-46449128D01*
X79676235Y-46496547D01*
X79654336Y-46547151D01*
X79650771Y-46572098D01*
X79662721Y-46606927D01*
X79688933Y-46625357D01*
X79717036Y-46636516D01*
X79729905Y-46638572D01*
X79736171Y-46623649D01*
X79748544Y-46591175D01*
X79753972Y-46576502D01*
X79784410Y-46525744D01*
X79828480Y-46500427D01*
X79884990Y-46501206D01*
X79889175Y-46502203D01*
X79919345Y-46516507D01*
X79941524Y-46544393D01*
X79956673Y-46589287D01*
X79965750Y-46654615D01*
X79969714Y-46743804D01*
X79970086Y-46791261D01*
X79970270Y-46866071D01*
X79971478Y-46917069D01*
X79974691Y-46949471D01*
X79980891Y-46968495D01*
X79991060Y-46979356D01*
X80006181Y-46987272D01*
X80007054Y-46987670D01*
X80036172Y-46999981D01*
X80050597Y-47004514D01*
X80052814Y-46990809D01*
X80054711Y-46952925D01*
X80056153Y-46895715D01*
X80057002Y-46824027D01*
X80057171Y-46771565D01*
X80056308Y-46670047D01*
X80052930Y-46593032D01*
X80045858Y-46536023D01*
X80033912Y-46494526D01*
X80015910Y-46464043D01*
X79990673Y-46440080D01*
X79965753Y-46423355D01*
X79905829Y-46401097D01*
X79836089Y-46396076D01*
X79770400Y-46408752D01*
X79770400Y-46408752D01*
G37*
X79770400Y-46408752D02*
X79753052Y-46416334D01*
X79711644Y-46449128D01*
X79676235Y-46496547D01*
X79654336Y-46547151D01*
X79650771Y-46572098D01*
X79662721Y-46606927D01*
X79688933Y-46625357D01*
X79717036Y-46636516D01*
X79729905Y-46638572D01*
X79736171Y-46623649D01*
X79748544Y-46591175D01*
X79753972Y-46576502D01*
X79784410Y-46525744D01*
X79828480Y-46500427D01*
X79884990Y-46501206D01*
X79889175Y-46502203D01*
X79919345Y-46516507D01*
X79941524Y-46544393D01*
X79956673Y-46589287D01*
X79965750Y-46654615D01*
X79969714Y-46743804D01*
X79970086Y-46791261D01*
X79970270Y-46866071D01*
X79971478Y-46917069D01*
X79974691Y-46949471D01*
X79980891Y-46968495D01*
X79991060Y-46979356D01*
X80006181Y-46987272D01*
X80007054Y-46987670D01*
X80036172Y-46999981D01*
X80050597Y-47004514D01*
X80052814Y-46990809D01*
X80054711Y-46952925D01*
X80056153Y-46895715D01*
X80057002Y-46824027D01*
X80057171Y-46771565D01*
X80056308Y-46670047D01*
X80052930Y-46593032D01*
X80045858Y-46536023D01*
X80033912Y-46494526D01*
X80015910Y-46464043D01*
X79990673Y-46440080D01*
X79965753Y-46423355D01*
X79905829Y-46401097D01*
X79836089Y-46396076D01*
X79770400Y-46408752D01*
G36*
X80278124Y-46406335D02*
G01*
X80236333Y-46425344D01*
X80203531Y-46448378D01*
X80179497Y-46474133D01*
X80162903Y-46507358D01*
X80152423Y-46552800D01*
X80146729Y-46615207D01*
X80144493Y-46699327D01*
X80144257Y-46754721D01*
X80144257Y-46970826D01*
X80181226Y-46987670D01*
X80210344Y-46999981D01*
X80224769Y-47004514D01*
X80227528Y-46991025D01*
X80229718Y-46954653D01*
X80231058Y-46901542D01*
X80231343Y-46859372D01*
X80232566Y-46798447D01*
X80235864Y-46750115D01*
X80240679Y-46720518D01*
X80244504Y-46714229D01*
X80270217Y-46720652D01*
X80310582Y-46737125D01*
X80357321Y-46759458D01*
X80402155Y-46783457D01*
X80436807Y-46804930D01*
X80452998Y-46819685D01*
X80453062Y-46819845D01*
X80451670Y-46847152D01*
X80439182Y-46873219D01*
X80417257Y-46894392D01*
X80385257Y-46901474D01*
X80357908Y-46900649D01*
X80319174Y-46900042D01*
X80298842Y-46909116D01*
X80286631Y-46933092D01*
X80285091Y-46937613D01*
X80279797Y-46971806D01*
X80293953Y-46992568D01*
X80330852Y-47002462D01*
X80370711Y-47004292D01*
X80442438Y-46990727D01*
X80479568Y-46971355D01*
X80525424Y-46925845D01*
X80549744Y-46869983D01*
X80551927Y-46810957D01*
X80531371Y-46755953D01*
X80500451Y-46721486D01*
X80469580Y-46702189D01*
X80421058Y-46677759D01*
X80364515Y-46652985D01*
X80355090Y-46649199D01*
X80292981Y-46621791D01*
X80257178Y-46597634D01*
X80245663Y-46573619D01*
X80256420Y-46546635D01*
X80274886Y-46525543D01*
X80318531Y-46499572D01*
X80366554Y-46497624D01*
X80410594Y-46517637D01*
X80442291Y-46557551D01*
X80446451Y-46567848D01*
X80470673Y-46605724D01*
X80506035Y-46633842D01*
X80550657Y-46656917D01*
X80550657Y-46591485D01*
X80548031Y-46551506D01*
X80536770Y-46519997D01*
X80511801Y-46486378D01*
X80487831Y-46460484D01*
X80450559Y-46423817D01*
X80421599Y-46404121D01*
X80390495Y-46396220D01*
X80355287Y-46394914D01*
X80278124Y-46406335D01*
X80278124Y-46406335D01*
G37*
X80278124Y-46406335D02*
X80236333Y-46425344D01*
X80203531Y-46448378D01*
X80179497Y-46474133D01*
X80162903Y-46507358D01*
X80152423Y-46552800D01*
X80146729Y-46615207D01*
X80144493Y-46699327D01*
X80144257Y-46754721D01*
X80144257Y-46970826D01*
X80181226Y-46987670D01*
X80210344Y-46999981D01*
X80224769Y-47004514D01*
X80227528Y-46991025D01*
X80229718Y-46954653D01*
X80231058Y-46901542D01*
X80231343Y-46859372D01*
X80232566Y-46798447D01*
X80235864Y-46750115D01*
X80240679Y-46720518D01*
X80244504Y-46714229D01*
X80270217Y-46720652D01*
X80310582Y-46737125D01*
X80357321Y-46759458D01*
X80402155Y-46783457D01*
X80436807Y-46804930D01*
X80452998Y-46819685D01*
X80453062Y-46819845D01*
X80451670Y-46847152D01*
X80439182Y-46873219D01*
X80417257Y-46894392D01*
X80385257Y-46901474D01*
X80357908Y-46900649D01*
X80319174Y-46900042D01*
X80298842Y-46909116D01*
X80286631Y-46933092D01*
X80285091Y-46937613D01*
X80279797Y-46971806D01*
X80293953Y-46992568D01*
X80330852Y-47002462D01*
X80370711Y-47004292D01*
X80442438Y-46990727D01*
X80479568Y-46971355D01*
X80525424Y-46925845D01*
X80549744Y-46869983D01*
X80551927Y-46810957D01*
X80531371Y-46755953D01*
X80500451Y-46721486D01*
X80469580Y-46702189D01*
X80421058Y-46677759D01*
X80364515Y-46652985D01*
X80355090Y-46649199D01*
X80292981Y-46621791D01*
X80257178Y-46597634D01*
X80245663Y-46573619D01*
X80256420Y-46546635D01*
X80274886Y-46525543D01*
X80318531Y-46499572D01*
X80366554Y-46497624D01*
X80410594Y-46517637D01*
X80442291Y-46557551D01*
X80446451Y-46567848D01*
X80470673Y-46605724D01*
X80506035Y-46633842D01*
X80550657Y-46656917D01*
X80550657Y-46591485D01*
X80548031Y-46551506D01*
X80536770Y-46519997D01*
X80511801Y-46486378D01*
X80487831Y-46460484D01*
X80450559Y-46423817D01*
X80421599Y-46404121D01*
X80390495Y-46396220D01*
X80355287Y-46394914D01*
X80278124Y-46406335D01*
G36*
X80643167Y-46408663D02*
G01*
X80640952Y-46446850D01*
X80639216Y-46504886D01*
X80638101Y-46578180D01*
X80637743Y-46655055D01*
X80637743Y-46915196D01*
X80683674Y-46961127D01*
X80715325Y-46989429D01*
X80743110Y-47000893D01*
X80781085Y-47000168D01*
X80796160Y-46998321D01*
X80843274Y-46992948D01*
X80882244Y-46989869D01*
X80891743Y-46989585D01*
X80923767Y-46991445D01*
X80969568Y-46996114D01*
X80987326Y-46998321D01*
X81030943Y-47001735D01*
X81060255Y-46994320D01*
X81089320Y-46971427D01*
X81099812Y-46961127D01*
X81145743Y-46915196D01*
X81145743Y-46428602D01*
X81108774Y-46411758D01*
X81076941Y-46399282D01*
X81058317Y-46394914D01*
X81053542Y-46408718D01*
X81049079Y-46447286D01*
X81045225Y-46506356D01*
X81042278Y-46581663D01*
X81040857Y-46645286D01*
X81036886Y-46895657D01*
X81002241Y-46900556D01*
X80970732Y-46897131D01*
X80955292Y-46886041D01*
X80950977Y-46865308D01*
X80947292Y-46821145D01*
X80944531Y-46759146D01*
X80942988Y-46684909D01*
X80942765Y-46646706D01*
X80942543Y-46426783D01*
X80896834Y-46410849D01*
X80864482Y-46400015D01*
X80846885Y-46394962D01*
X80846377Y-46394914D01*
X80844612Y-46408648D01*
X80842671Y-46446730D01*
X80840718Y-46504482D01*
X80838916Y-46577227D01*
X80837657Y-46645286D01*
X80833686Y-46895657D01*
X80746600Y-46895657D01*
X80742604Y-46667240D01*
X80738608Y-46438822D01*
X80696153Y-46416868D01*
X80664808Y-46401793D01*
X80646256Y-46394951D01*
X80645721Y-46394914D01*
X80643167Y-46408663D01*
X80643167Y-46408663D01*
G37*
X80643167Y-46408663D02*
X80640952Y-46446850D01*
X80639216Y-46504886D01*
X80638101Y-46578180D01*
X80637743Y-46655055D01*
X80637743Y-46915196D01*
X80683674Y-46961127D01*
X80715325Y-46989429D01*
X80743110Y-47000893D01*
X80781085Y-47000168D01*
X80796160Y-46998321D01*
X80843274Y-46992948D01*
X80882244Y-46989869D01*
X80891743Y-46989585D01*
X80923767Y-46991445D01*
X80969568Y-46996114D01*
X80987326Y-46998321D01*
X81030943Y-47001735D01*
X81060255Y-46994320D01*
X81089320Y-46971427D01*
X81099812Y-46961127D01*
X81145743Y-46915196D01*
X81145743Y-46428602D01*
X81108774Y-46411758D01*
X81076941Y-46399282D01*
X81058317Y-46394914D01*
X81053542Y-46408718D01*
X81049079Y-46447286D01*
X81045225Y-46506356D01*
X81042278Y-46581663D01*
X81040857Y-46645286D01*
X81036886Y-46895657D01*
X81002241Y-46900556D01*
X80970732Y-46897131D01*
X80955292Y-46886041D01*
X80950977Y-46865308D01*
X80947292Y-46821145D01*
X80944531Y-46759146D01*
X80942988Y-46684909D01*
X80942765Y-46646706D01*
X80942543Y-46426783D01*
X80896834Y-46410849D01*
X80864482Y-46400015D01*
X80846885Y-46394962D01*
X80846377Y-46394914D01*
X80844612Y-46408648D01*
X80842671Y-46446730D01*
X80840718Y-46504482D01*
X80838916Y-46577227D01*
X80837657Y-46645286D01*
X80833686Y-46895657D01*
X80746600Y-46895657D01*
X80742604Y-46667240D01*
X80738608Y-46438822D01*
X80696153Y-46416868D01*
X80664808Y-46401793D01*
X80646256Y-46394951D01*
X80645721Y-46394914D01*
X80643167Y-46408663D01*
G36*
X81232883Y-46515358D02*
G01*
X81233067Y-46623837D01*
X81233781Y-46707287D01*
X81235325Y-46769704D01*
X81237999Y-46815085D01*
X81242106Y-46847429D01*
X81247945Y-46870733D01*
X81255818Y-46888995D01*
X81261779Y-46899418D01*
X81311145Y-46955945D01*
X81373736Y-46991377D01*
X81442987Y-47004090D01*
X81512332Y-46992463D01*
X81553625Y-46971568D01*
X81596975Y-46935422D01*
X81626519Y-46891276D01*
X81644345Y-46833462D01*
X81652537Y-46756313D01*
X81653698Y-46699714D01*
X81653542Y-46695647D01*
X81552143Y-46695647D01*
X81551524Y-46760550D01*
X81548686Y-46803514D01*
X81542160Y-46831622D01*
X81530477Y-46851953D01*
X81516517Y-46867288D01*
X81469635Y-46896890D01*
X81419299Y-46899419D01*
X81371724Y-46874705D01*
X81368021Y-46871356D01*
X81352217Y-46853935D01*
X81342307Y-46833209D01*
X81336942Y-46802362D01*
X81334772Y-46754577D01*
X81334429Y-46701748D01*
X81335173Y-46635381D01*
X81338252Y-46591106D01*
X81344939Y-46562009D01*
X81356504Y-46541173D01*
X81365987Y-46530107D01*
X81410040Y-46502198D01*
X81460776Y-46498843D01*
X81509204Y-46520159D01*
X81518550Y-46528073D01*
X81534460Y-46545647D01*
X81544390Y-46566587D01*
X81549722Y-46597782D01*
X81551837Y-46646122D01*
X81552143Y-46695647D01*
X81653542Y-46695647D01*
X81650190Y-46608568D01*
X81638274Y-46540086D01*
X81615865Y-46488600D01*
X81580876Y-46448443D01*
X81553625Y-46427861D01*
X81504093Y-46405625D01*
X81446684Y-46395304D01*
X81393318Y-46398067D01*
X81363457Y-46409212D01*
X81351739Y-46412383D01*
X81343963Y-46400557D01*
X81338535Y-46368866D01*
X81334429Y-46320593D01*
X81329933Y-46266829D01*
X81323687Y-46234482D01*
X81312324Y-46215985D01*
X81292472Y-46203770D01*
X81280000Y-46198362D01*
X81232829Y-46178601D01*
X81232883Y-46515358D01*
X81232883Y-46515358D01*
G37*
X81232883Y-46515358D02*
X81233067Y-46623837D01*
X81233781Y-46707287D01*
X81235325Y-46769704D01*
X81237999Y-46815085D01*
X81242106Y-46847429D01*
X81247945Y-46870733D01*
X81255818Y-46888995D01*
X81261779Y-46899418D01*
X81311145Y-46955945D01*
X81373736Y-46991377D01*
X81442987Y-47004090D01*
X81512332Y-46992463D01*
X81553625Y-46971568D01*
X81596975Y-46935422D01*
X81626519Y-46891276D01*
X81644345Y-46833462D01*
X81652537Y-46756313D01*
X81653698Y-46699714D01*
X81653542Y-46695647D01*
X81552143Y-46695647D01*
X81551524Y-46760550D01*
X81548686Y-46803514D01*
X81542160Y-46831622D01*
X81530477Y-46851953D01*
X81516517Y-46867288D01*
X81469635Y-46896890D01*
X81419299Y-46899419D01*
X81371724Y-46874705D01*
X81368021Y-46871356D01*
X81352217Y-46853935D01*
X81342307Y-46833209D01*
X81336942Y-46802362D01*
X81334772Y-46754577D01*
X81334429Y-46701748D01*
X81335173Y-46635381D01*
X81338252Y-46591106D01*
X81344939Y-46562009D01*
X81356504Y-46541173D01*
X81365987Y-46530107D01*
X81410040Y-46502198D01*
X81460776Y-46498843D01*
X81509204Y-46520159D01*
X81518550Y-46528073D01*
X81534460Y-46545647D01*
X81544390Y-46566587D01*
X81549722Y-46597782D01*
X81551837Y-46646122D01*
X81552143Y-46695647D01*
X81653542Y-46695647D01*
X81650190Y-46608568D01*
X81638274Y-46540086D01*
X81615865Y-46488600D01*
X81580876Y-46448443D01*
X81553625Y-46427861D01*
X81504093Y-46405625D01*
X81446684Y-46395304D01*
X81393318Y-46398067D01*
X81363457Y-46409212D01*
X81351739Y-46412383D01*
X81343963Y-46400557D01*
X81338535Y-46368866D01*
X81334429Y-46320593D01*
X81329933Y-46266829D01*
X81323687Y-46234482D01*
X81312324Y-46215985D01*
X81292472Y-46203770D01*
X81280000Y-46198362D01*
X81232829Y-46178601D01*
X81232883Y-46515358D01*
G36*
X81893074Y-46399755D02*
G01*
X81827142Y-46424084D01*
X81773727Y-46467117D01*
X81752836Y-46497409D01*
X81730061Y-46552994D01*
X81730534Y-46593186D01*
X81754438Y-46620217D01*
X81763283Y-46624813D01*
X81801470Y-46639144D01*
X81820972Y-46635472D01*
X81827578Y-46611407D01*
X81827914Y-46598114D01*
X81840008Y-46549210D01*
X81871529Y-46514999D01*
X81915341Y-46498476D01*
X81964305Y-46502634D01*
X82004106Y-46524227D01*
X82017550Y-46536544D01*
X82027079Y-46551487D01*
X82033515Y-46574075D01*
X82037683Y-46609328D01*
X82040403Y-46662266D01*
X82042498Y-46737907D01*
X82043040Y-46761857D01*
X82045019Y-46843790D01*
X82047269Y-46901455D01*
X82050643Y-46939608D01*
X82055994Y-46963004D01*
X82064176Y-46976398D01*
X82076041Y-46984545D01*
X82083638Y-46988144D01*
X82115898Y-47000452D01*
X82134889Y-47004514D01*
X82141164Y-46990948D01*
X82144994Y-46949934D01*
X82146400Y-46880999D01*
X82145402Y-46783669D01*
X82145092Y-46768657D01*
X82142899Y-46679859D01*
X82140307Y-46615019D01*
X82136618Y-46569067D01*
X82131136Y-46536935D01*
X82123165Y-46513553D01*
X82112007Y-46493852D01*
X82106170Y-46485410D01*
X82072704Y-46448057D01*
X82035273Y-46419003D01*
X82030691Y-46416467D01*
X81963574Y-46396443D01*
X81893074Y-46399755D01*
X81893074Y-46399755D01*
G37*
X81893074Y-46399755D02*
X81827142Y-46424084D01*
X81773727Y-46467117D01*
X81752836Y-46497409D01*
X81730061Y-46552994D01*
X81730534Y-46593186D01*
X81754438Y-46620217D01*
X81763283Y-46624813D01*
X81801470Y-46639144D01*
X81820972Y-46635472D01*
X81827578Y-46611407D01*
X81827914Y-46598114D01*
X81840008Y-46549210D01*
X81871529Y-46514999D01*
X81915341Y-46498476D01*
X81964305Y-46502634D01*
X82004106Y-46524227D01*
X82017550Y-46536544D01*
X82027079Y-46551487D01*
X82033515Y-46574075D01*
X82037683Y-46609328D01*
X82040403Y-46662266D01*
X82042498Y-46737907D01*
X82043040Y-46761857D01*
X82045019Y-46843790D01*
X82047269Y-46901455D01*
X82050643Y-46939608D01*
X82055994Y-46963004D01*
X82064176Y-46976398D01*
X82076041Y-46984545D01*
X82083638Y-46988144D01*
X82115898Y-47000452D01*
X82134889Y-47004514D01*
X82141164Y-46990948D01*
X82144994Y-46949934D01*
X82146400Y-46880999D01*
X82145402Y-46783669D01*
X82145092Y-46768657D01*
X82142899Y-46679859D01*
X82140307Y-46615019D01*
X82136618Y-46569067D01*
X82131136Y-46536935D01*
X82123165Y-46513553D01*
X82112007Y-46493852D01*
X82106170Y-46485410D01*
X82072704Y-46448057D01*
X82035273Y-46419003D01*
X82030691Y-46416467D01*
X81963574Y-46396443D01*
X81893074Y-46399755D01*
G36*
X82383256Y-46400968D02*
G01*
X82326384Y-46422087D01*
X82325733Y-46422493D01*
X82290560Y-46448380D01*
X82264593Y-46478633D01*
X82246330Y-46518058D01*
X82234268Y-46571462D01*
X82226904Y-46643651D01*
X82222736Y-46739432D01*
X82222371Y-46753078D01*
X82217124Y-46958842D01*
X82261284Y-46981678D01*
X82293237Y-46997110D01*
X82312530Y-47004423D01*
X82313422Y-47004514D01*
X82316761Y-46991022D01*
X82319413Y-46954626D01*
X82321044Y-46901452D01*
X82321400Y-46858393D01*
X82321408Y-46788641D01*
X82324597Y-46744837D01*
X82335712Y-46723944D01*
X82359499Y-46722925D01*
X82400704Y-46738741D01*
X82462914Y-46767815D01*
X82508659Y-46791963D01*
X82532187Y-46812913D01*
X82539104Y-46835747D01*
X82539114Y-46836877D01*
X82527701Y-46876212D01*
X82493908Y-46897462D01*
X82442191Y-46900539D01*
X82404939Y-46900006D01*
X82385297Y-46910735D01*
X82373048Y-46936505D01*
X82365998Y-46969337D01*
X82376158Y-46987966D01*
X82379983Y-46990632D01*
X82415999Y-47001340D01*
X82466434Y-47002856D01*
X82518374Y-46995759D01*
X82555178Y-46982788D01*
X82606062Y-46939585D01*
X82634986Y-46879446D01*
X82640714Y-46832462D01*
X82636343Y-46790082D01*
X82620525Y-46755488D01*
X82589203Y-46724763D01*
X82538322Y-46693990D01*
X82463824Y-46659252D01*
X82459286Y-46657288D01*
X82392179Y-46626287D01*
X82350768Y-46600862D01*
X82333019Y-46578014D01*
X82336893Y-46554745D01*
X82360357Y-46528056D01*
X82367373Y-46521914D01*
X82414370Y-46498100D01*
X82463067Y-46499103D01*
X82505478Y-46522451D01*
X82533616Y-46565675D01*
X82536231Y-46574160D01*
X82561692Y-46615308D01*
X82593999Y-46635128D01*
X82640714Y-46654770D01*
X82640714Y-46603950D01*
X82626504Y-46530082D01*
X82584325Y-46462327D01*
X82562376Y-46439661D01*
X82512483Y-46410569D01*
X82449033Y-46397400D01*
X82383256Y-46400968D01*
X82383256Y-46400968D01*
G37*
X82383256Y-46400968D02*
X82326384Y-46422087D01*
X82325733Y-46422493D01*
X82290560Y-46448380D01*
X82264593Y-46478633D01*
X82246330Y-46518058D01*
X82234268Y-46571462D01*
X82226904Y-46643651D01*
X82222736Y-46739432D01*
X82222371Y-46753078D01*
X82217124Y-46958842D01*
X82261284Y-46981678D01*
X82293237Y-46997110D01*
X82312530Y-47004423D01*
X82313422Y-47004514D01*
X82316761Y-46991022D01*
X82319413Y-46954626D01*
X82321044Y-46901452D01*
X82321400Y-46858393D01*
X82321408Y-46788641D01*
X82324597Y-46744837D01*
X82335712Y-46723944D01*
X82359499Y-46722925D01*
X82400704Y-46738741D01*
X82462914Y-46767815D01*
X82508659Y-46791963D01*
X82532187Y-46812913D01*
X82539104Y-46835747D01*
X82539114Y-46836877D01*
X82527701Y-46876212D01*
X82493908Y-46897462D01*
X82442191Y-46900539D01*
X82404939Y-46900006D01*
X82385297Y-46910735D01*
X82373048Y-46936505D01*
X82365998Y-46969337D01*
X82376158Y-46987966D01*
X82379983Y-46990632D01*
X82415999Y-47001340D01*
X82466434Y-47002856D01*
X82518374Y-46995759D01*
X82555178Y-46982788D01*
X82606062Y-46939585D01*
X82634986Y-46879446D01*
X82640714Y-46832462D01*
X82636343Y-46790082D01*
X82620525Y-46755488D01*
X82589203Y-46724763D01*
X82538322Y-46693990D01*
X82463824Y-46659252D01*
X82459286Y-46657288D01*
X82392179Y-46626287D01*
X82350768Y-46600862D01*
X82333019Y-46578014D01*
X82336893Y-46554745D01*
X82360357Y-46528056D01*
X82367373Y-46521914D01*
X82414370Y-46498100D01*
X82463067Y-46499103D01*
X82505478Y-46522451D01*
X82533616Y-46565675D01*
X82536231Y-46574160D01*
X82561692Y-46615308D01*
X82593999Y-46635128D01*
X82640714Y-46654770D01*
X82640714Y-46603950D01*
X82626504Y-46530082D01*
X82584325Y-46462327D01*
X82562376Y-46439661D01*
X82512483Y-46410569D01*
X82449033Y-46397400D01*
X82383256Y-46400968D01*
G36*
X83047114Y-46301289D02*
G01*
X83042861Y-46360613D01*
X83037975Y-46395572D01*
X83031205Y-46410820D01*
X83021298Y-46411015D01*
X83018086Y-46409195D01*
X82975356Y-46396015D01*
X82919773Y-46396785D01*
X82863263Y-46410333D01*
X82827918Y-46427861D01*
X82791679Y-46455861D01*
X82765187Y-46487549D01*
X82747001Y-46527813D01*
X82735678Y-46581543D01*
X82729778Y-46653626D01*
X82727857Y-46748951D01*
X82727823Y-46767237D01*
X82727800Y-46972646D01*
X82773509Y-46988580D01*
X82805973Y-46999420D01*
X82823785Y-47004468D01*
X82824309Y-47004514D01*
X82826063Y-46990828D01*
X82827556Y-46953076D01*
X82828674Y-46896224D01*
X82829303Y-46825234D01*
X82829400Y-46782073D01*
X82829602Y-46696973D01*
X82830642Y-46635981D01*
X82833169Y-46594177D01*
X82837836Y-46566642D01*
X82845293Y-46548456D01*
X82856189Y-46534698D01*
X82862993Y-46528073D01*
X82909728Y-46501375D01*
X82960728Y-46499375D01*
X83006999Y-46521955D01*
X83015556Y-46530107D01*
X83028107Y-46545436D01*
X83036812Y-46563618D01*
X83042369Y-46589909D01*
X83045474Y-46629562D01*
X83046824Y-46687832D01*
X83047114Y-46768173D01*
X83047114Y-46972646D01*
X83092823Y-46988580D01*
X83125287Y-46999420D01*
X83143099Y-47004468D01*
X83143623Y-47004514D01*
X83144963Y-46990623D01*
X83146172Y-46951439D01*
X83147199Y-46890700D01*
X83147998Y-46812141D01*
X83148519Y-46719498D01*
X83148714Y-46616509D01*
X83148714Y-46219342D01*
X83101543Y-46199444D01*
X83054371Y-46179547D01*
X83047114Y-46301289D01*
X83047114Y-46301289D01*
G37*
X83047114Y-46301289D02*
X83042861Y-46360613D01*
X83037975Y-46395572D01*
X83031205Y-46410820D01*
X83021298Y-46411015D01*
X83018086Y-46409195D01*
X82975356Y-46396015D01*
X82919773Y-46396785D01*
X82863263Y-46410333D01*
X82827918Y-46427861D01*
X82791679Y-46455861D01*
X82765187Y-46487549D01*
X82747001Y-46527813D01*
X82735678Y-46581543D01*
X82729778Y-46653626D01*
X82727857Y-46748951D01*
X82727823Y-46767237D01*
X82727800Y-46972646D01*
X82773509Y-46988580D01*
X82805973Y-46999420D01*
X82823785Y-47004468D01*
X82824309Y-47004514D01*
X82826063Y-46990828D01*
X82827556Y-46953076D01*
X82828674Y-46896224D01*
X82829303Y-46825234D01*
X82829400Y-46782073D01*
X82829602Y-46696973D01*
X82830642Y-46635981D01*
X82833169Y-46594177D01*
X82837836Y-46566642D01*
X82845293Y-46548456D01*
X82856189Y-46534698D01*
X82862993Y-46528073D01*
X82909728Y-46501375D01*
X82960728Y-46499375D01*
X83006999Y-46521955D01*
X83015556Y-46530107D01*
X83028107Y-46545436D01*
X83036812Y-46563618D01*
X83042369Y-46589909D01*
X83045474Y-46629562D01*
X83046824Y-46687832D01*
X83047114Y-46768173D01*
X83047114Y-46972646D01*
X83092823Y-46988580D01*
X83125287Y-46999420D01*
X83143099Y-47004468D01*
X83143623Y-47004514D01*
X83144963Y-46990623D01*
X83146172Y-46951439D01*
X83147199Y-46890700D01*
X83147998Y-46812141D01*
X83148519Y-46719498D01*
X83148714Y-46616509D01*
X83148714Y-46219342D01*
X83101543Y-46199444D01*
X83054371Y-46179547D01*
X83047114Y-46301289D01*
G36*
X84254697Y-46381239D02*
G01*
X84197473Y-46419735D01*
X84153251Y-46475335D01*
X84126833Y-46546086D01*
X84121490Y-46598162D01*
X84122097Y-46619893D01*
X84127178Y-46636531D01*
X84141145Y-46651437D01*
X84168411Y-46667973D01*
X84213388Y-46689498D01*
X84280489Y-46719374D01*
X84280829Y-46719524D01*
X84342593Y-46747813D01*
X84393241Y-46772933D01*
X84427596Y-46792179D01*
X84440482Y-46802848D01*
X84440486Y-46802934D01*
X84429128Y-46826166D01*
X84402569Y-46851774D01*
X84372077Y-46870221D01*
X84356630Y-46873886D01*
X84314485Y-46861212D01*
X84278192Y-46829471D01*
X84260483Y-46794572D01*
X84243448Y-46768845D01*
X84210078Y-46739546D01*
X84170851Y-46714235D01*
X84136244Y-46700471D01*
X84129007Y-46699714D01*
X84120861Y-46712160D01*
X84120370Y-46743972D01*
X84126357Y-46786866D01*
X84137643Y-46832558D01*
X84153050Y-46872761D01*
X84153829Y-46874322D01*
X84200196Y-46939062D01*
X84260289Y-46983097D01*
X84328535Y-47004711D01*
X84399362Y-47002185D01*
X84467196Y-46973804D01*
X84470212Y-46971808D01*
X84523573Y-46923448D01*
X84558660Y-46860352D01*
X84578078Y-46777387D01*
X84580684Y-46754078D01*
X84585299Y-46644055D01*
X84579767Y-46592748D01*
X84440486Y-46592748D01*
X84438676Y-46624753D01*
X84428778Y-46634093D01*
X84404102Y-46627105D01*
X84365205Y-46610587D01*
X84321725Y-46589881D01*
X84320644Y-46589333D01*
X84283791Y-46569949D01*
X84269000Y-46557013D01*
X84272647Y-46543451D01*
X84288005Y-46525632D01*
X84327077Y-46499845D01*
X84369154Y-46497950D01*
X84406897Y-46516717D01*
X84432966Y-46552915D01*
X84440486Y-46592748D01*
X84579767Y-46592748D01*
X84575806Y-46556027D01*
X84551450Y-46486212D01*
X84517544Y-46437302D01*
X84456347Y-46387878D01*
X84388937Y-46363359D01*
X84320120Y-46361797D01*
X84254697Y-46381239D01*
X84254697Y-46381239D01*
G37*
X84254697Y-46381239D02*
X84197473Y-46419735D01*
X84153251Y-46475335D01*
X84126833Y-46546086D01*
X84121490Y-46598162D01*
X84122097Y-46619893D01*
X84127178Y-46636531D01*
X84141145Y-46651437D01*
X84168411Y-46667973D01*
X84213388Y-46689498D01*
X84280489Y-46719374D01*
X84280829Y-46719524D01*
X84342593Y-46747813D01*
X84393241Y-46772933D01*
X84427596Y-46792179D01*
X84440482Y-46802848D01*
X84440486Y-46802934D01*
X84429128Y-46826166D01*
X84402569Y-46851774D01*
X84372077Y-46870221D01*
X84356630Y-46873886D01*
X84314485Y-46861212D01*
X84278192Y-46829471D01*
X84260483Y-46794572D01*
X84243448Y-46768845D01*
X84210078Y-46739546D01*
X84170851Y-46714235D01*
X84136244Y-46700471D01*
X84129007Y-46699714D01*
X84120861Y-46712160D01*
X84120370Y-46743972D01*
X84126357Y-46786866D01*
X84137643Y-46832558D01*
X84153050Y-46872761D01*
X84153829Y-46874322D01*
X84200196Y-46939062D01*
X84260289Y-46983097D01*
X84328535Y-47004711D01*
X84399362Y-47002185D01*
X84467196Y-46973804D01*
X84470212Y-46971808D01*
X84523573Y-46923448D01*
X84558660Y-46860352D01*
X84578078Y-46777387D01*
X84580684Y-46754078D01*
X84585299Y-46644055D01*
X84579767Y-46592748D01*
X84440486Y-46592748D01*
X84438676Y-46624753D01*
X84428778Y-46634093D01*
X84404102Y-46627105D01*
X84365205Y-46610587D01*
X84321725Y-46589881D01*
X84320644Y-46589333D01*
X84283791Y-46569949D01*
X84269000Y-46557013D01*
X84272647Y-46543451D01*
X84288005Y-46525632D01*
X84327077Y-46499845D01*
X84369154Y-46497950D01*
X84406897Y-46516717D01*
X84432966Y-46552915D01*
X84440486Y-46592748D01*
X84579767Y-46592748D01*
X84575806Y-46556027D01*
X84551450Y-46486212D01*
X84517544Y-46437302D01*
X84456347Y-46387878D01*
X84388937Y-46363359D01*
X84320120Y-46361797D01*
X84254697Y-46381239D01*
G36*
X85381885Y-46371962D02*
G01*
X85313855Y-46407733D01*
X85263649Y-46465301D01*
X85245815Y-46502312D01*
X85231937Y-46557882D01*
X85224833Y-46628096D01*
X85224160Y-46704727D01*
X85229573Y-46779552D01*
X85240730Y-46844342D01*
X85257286Y-46890873D01*
X85262374Y-46898887D01*
X85322645Y-46958707D01*
X85394231Y-46994535D01*
X85471908Y-47005020D01*
X85550452Y-46988810D01*
X85572311Y-46979092D01*
X85614878Y-46949143D01*
X85652237Y-46909433D01*
X85655768Y-46904397D01*
X85670119Y-46880124D01*
X85679606Y-46854178D01*
X85685210Y-46820022D01*
X85687914Y-46771119D01*
X85688701Y-46700935D01*
X85688714Y-46685200D01*
X85688678Y-46680192D01*
X85543571Y-46680192D01*
X85542727Y-46746430D01*
X85539404Y-46790386D01*
X85532417Y-46818779D01*
X85520584Y-46838325D01*
X85514543Y-46844857D01*
X85479814Y-46869680D01*
X85446097Y-46868548D01*
X85412005Y-46847016D01*
X85391671Y-46824029D01*
X85379629Y-46790478D01*
X85372866Y-46737569D01*
X85372402Y-46731399D01*
X85371248Y-46635513D01*
X85383312Y-46564299D01*
X85408430Y-46518194D01*
X85446440Y-46497635D01*
X85460008Y-46496514D01*
X85495636Y-46502152D01*
X85520006Y-46521686D01*
X85534907Y-46559042D01*
X85542125Y-46618150D01*
X85543571Y-46680192D01*
X85688678Y-46680192D01*
X85688174Y-46610413D01*
X85685904Y-46558159D01*
X85680932Y-46521949D01*
X85672287Y-46495299D01*
X85658995Y-46471722D01*
X85656057Y-46467338D01*
X85606687Y-46408249D01*
X85552891Y-46373947D01*
X85487398Y-46360331D01*
X85465158Y-46359665D01*
X85381885Y-46371962D01*
X85381885Y-46371962D01*
G37*
X85381885Y-46371962D02*
X85313855Y-46407733D01*
X85263649Y-46465301D01*
X85245815Y-46502312D01*
X85231937Y-46557882D01*
X85224833Y-46628096D01*
X85224160Y-46704727D01*
X85229573Y-46779552D01*
X85240730Y-46844342D01*
X85257286Y-46890873D01*
X85262374Y-46898887D01*
X85322645Y-46958707D01*
X85394231Y-46994535D01*
X85471908Y-47005020D01*
X85550452Y-46988810D01*
X85572311Y-46979092D01*
X85614878Y-46949143D01*
X85652237Y-46909433D01*
X85655768Y-46904397D01*
X85670119Y-46880124D01*
X85679606Y-46854178D01*
X85685210Y-46820022D01*
X85687914Y-46771119D01*
X85688701Y-46700935D01*
X85688714Y-46685200D01*
X85688678Y-46680192D01*
X85543571Y-46680192D01*
X85542727Y-46746430D01*
X85539404Y-46790386D01*
X85532417Y-46818779D01*
X85520584Y-46838325D01*
X85514543Y-46844857D01*
X85479814Y-46869680D01*
X85446097Y-46868548D01*
X85412005Y-46847016D01*
X85391671Y-46824029D01*
X85379629Y-46790478D01*
X85372866Y-46737569D01*
X85372402Y-46731399D01*
X85371248Y-46635513D01*
X85383312Y-46564299D01*
X85408430Y-46518194D01*
X85446440Y-46497635D01*
X85460008Y-46496514D01*
X85495636Y-46502152D01*
X85520006Y-46521686D01*
X85534907Y-46559042D01*
X85542125Y-46618150D01*
X85543571Y-46680192D01*
X85688678Y-46680192D01*
X85688174Y-46610413D01*
X85685904Y-46558159D01*
X85680932Y-46521949D01*
X85672287Y-46495299D01*
X85658995Y-46471722D01*
X85656057Y-46467338D01*
X85606687Y-46408249D01*
X85552891Y-46373947D01*
X85487398Y-46360331D01*
X85465158Y-46359665D01*
X85381885Y-46371962D01*
G36*
X83706907Y-46377780D02*
G01*
X83660328Y-46404723D01*
X83627943Y-46431466D01*
X83604258Y-46459484D01*
X83587941Y-46493748D01*
X83577661Y-46539227D01*
X83572086Y-46600892D01*
X83569884Y-46683711D01*
X83569629Y-46743246D01*
X83569629Y-46962391D01*
X83631314Y-46990044D01*
X83693000Y-47017697D01*
X83700257Y-46777670D01*
X83703256Y-46688028D01*
X83706402Y-46622962D01*
X83710299Y-46578026D01*
X83715553Y-46548770D01*
X83722769Y-46530748D01*
X83732550Y-46519511D01*
X83735688Y-46517079D01*
X83783239Y-46498083D01*
X83831303Y-46505600D01*
X83859914Y-46525543D01*
X83871553Y-46539675D01*
X83879609Y-46558220D01*
X83884729Y-46586334D01*
X83887559Y-46629173D01*
X83888744Y-46691895D01*
X83888943Y-46757261D01*
X83888982Y-46839268D01*
X83890386Y-46897316D01*
X83895086Y-46936465D01*
X83905013Y-46961780D01*
X83922097Y-46978323D01*
X83948268Y-46991156D01*
X83983225Y-47004491D01*
X84021404Y-47019007D01*
X84016859Y-46761389D01*
X84015029Y-46668519D01*
X84012888Y-46599889D01*
X84009819Y-46550711D01*
X84005206Y-46516198D01*
X83998432Y-46491562D01*
X83988881Y-46472016D01*
X83977366Y-46454770D01*
X83921810Y-46399680D01*
X83854020Y-46367822D01*
X83780287Y-46360191D01*
X83706907Y-46377780D01*
X83706907Y-46377780D01*
G37*
X83706907Y-46377780D02*
X83660328Y-46404723D01*
X83627943Y-46431466D01*
X83604258Y-46459484D01*
X83587941Y-46493748D01*
X83577661Y-46539227D01*
X83572086Y-46600892D01*
X83569884Y-46683711D01*
X83569629Y-46743246D01*
X83569629Y-46962391D01*
X83631314Y-46990044D01*
X83693000Y-47017697D01*
X83700257Y-46777670D01*
X83703256Y-46688028D01*
X83706402Y-46622962D01*
X83710299Y-46578026D01*
X83715553Y-46548770D01*
X83722769Y-46530748D01*
X83732550Y-46519511D01*
X83735688Y-46517079D01*
X83783239Y-46498083D01*
X83831303Y-46505600D01*
X83859914Y-46525543D01*
X83871553Y-46539675D01*
X83879609Y-46558220D01*
X83884729Y-46586334D01*
X83887559Y-46629173D01*
X83888744Y-46691895D01*
X83888943Y-46757261D01*
X83888982Y-46839268D01*
X83890386Y-46897316D01*
X83895086Y-46936465D01*
X83905013Y-46961780D01*
X83922097Y-46978323D01*
X83948268Y-46991156D01*
X83983225Y-47004491D01*
X84021404Y-47019007D01*
X84016859Y-46761389D01*
X84015029Y-46668519D01*
X84012888Y-46599889D01*
X84009819Y-46550711D01*
X84005206Y-46516198D01*
X83998432Y-46491562D01*
X83988881Y-46472016D01*
X83977366Y-46454770D01*
X83921810Y-46399680D01*
X83854020Y-46367822D01*
X83780287Y-46360191D01*
X83706907Y-46377780D01*
G36*
X84823256Y-46369918D02*
G01*
X84767799Y-46397568D01*
X84718852Y-46448480D01*
X84705371Y-46467338D01*
X84690686Y-46492015D01*
X84681158Y-46518816D01*
X84675707Y-46554587D01*
X84673253Y-46606169D01*
X84672714Y-46674267D01*
X84675148Y-46767588D01*
X84683606Y-46837657D01*
X84699826Y-46889931D01*
X84725546Y-46929869D01*
X84762503Y-46962929D01*
X84765218Y-46964886D01*
X84801640Y-46984908D01*
X84845498Y-46994815D01*
X84901276Y-46997257D01*
X84991952Y-46997257D01*
X84991990Y-47085283D01*
X84992834Y-47134308D01*
X84997976Y-47163065D01*
X85011413Y-47180311D01*
X85037142Y-47194808D01*
X85043321Y-47197769D01*
X85072236Y-47211648D01*
X85094624Y-47220414D01*
X85111271Y-47221171D01*
X85122964Y-47211023D01*
X85130490Y-47187073D01*
X85134634Y-47146426D01*
X85136185Y-47086186D01*
X85135929Y-47003455D01*
X85134651Y-46895339D01*
X85134252Y-46863000D01*
X85132815Y-46751524D01*
X85131528Y-46678603D01*
X84992029Y-46678603D01*
X84991245Y-46740499D01*
X84987760Y-46780997D01*
X84979876Y-46807708D01*
X84965895Y-46828244D01*
X84956403Y-46838260D01*
X84917596Y-46867567D01*
X84883237Y-46869952D01*
X84847784Y-46845750D01*
X84846886Y-46844857D01*
X84832461Y-46826153D01*
X84823687Y-46800732D01*
X84819261Y-46761584D01*
X84817882Y-46701697D01*
X84817857Y-46688430D01*
X84821188Y-46605901D01*
X84832031Y-46548691D01*
X84851660Y-46513766D01*
X84881350Y-46498094D01*
X84898509Y-46496514D01*
X84939234Y-46503926D01*
X84967168Y-46528330D01*
X84983983Y-46572980D01*
X84991350Y-46641130D01*
X84992029Y-46678603D01*
X85131528Y-46678603D01*
X85131292Y-46665245D01*
X85129323Y-46600333D01*
X85126550Y-46552958D01*
X85122612Y-46519290D01*
X85117151Y-46495498D01*
X85109808Y-46477753D01*
X85100223Y-46462224D01*
X85096113Y-46456381D01*
X85041595Y-46401185D01*
X84972664Y-46369890D01*
X84892928Y-46361165D01*
X84823256Y-46369918D01*
X84823256Y-46369918D01*
G37*
X84823256Y-46369918D02*
X84767799Y-46397568D01*
X84718852Y-46448480D01*
X84705371Y-46467338D01*
X84690686Y-46492015D01*
X84681158Y-46518816D01*
X84675707Y-46554587D01*
X84673253Y-46606169D01*
X84672714Y-46674267D01*
X84675148Y-46767588D01*
X84683606Y-46837657D01*
X84699826Y-46889931D01*
X84725546Y-46929869D01*
X84762503Y-46962929D01*
X84765218Y-46964886D01*
X84801640Y-46984908D01*
X84845498Y-46994815D01*
X84901276Y-46997257D01*
X84991952Y-46997257D01*
X84991990Y-47085283D01*
X84992834Y-47134308D01*
X84997976Y-47163065D01*
X85011413Y-47180311D01*
X85037142Y-47194808D01*
X85043321Y-47197769D01*
X85072236Y-47211648D01*
X85094624Y-47220414D01*
X85111271Y-47221171D01*
X85122964Y-47211023D01*
X85130490Y-47187073D01*
X85134634Y-47146426D01*
X85136185Y-47086186D01*
X85135929Y-47003455D01*
X85134651Y-46895339D01*
X85134252Y-46863000D01*
X85132815Y-46751524D01*
X85131528Y-46678603D01*
X84992029Y-46678603D01*
X84991245Y-46740499D01*
X84987760Y-46780997D01*
X84979876Y-46807708D01*
X84965895Y-46828244D01*
X84956403Y-46838260D01*
X84917596Y-46867567D01*
X84883237Y-46869952D01*
X84847784Y-46845750D01*
X84846886Y-46844857D01*
X84832461Y-46826153D01*
X84823687Y-46800732D01*
X84819261Y-46761584D01*
X84817882Y-46701697D01*
X84817857Y-46688430D01*
X84821188Y-46605901D01*
X84832031Y-46548691D01*
X84851660Y-46513766D01*
X84881350Y-46498094D01*
X84898509Y-46496514D01*
X84939234Y-46503926D01*
X84967168Y-46528330D01*
X84983983Y-46572980D01*
X84991350Y-46641130D01*
X84992029Y-46678603D01*
X85131528Y-46678603D01*
X85131292Y-46665245D01*
X85129323Y-46600333D01*
X85126550Y-46552958D01*
X85122612Y-46519290D01*
X85117151Y-46495498D01*
X85109808Y-46477753D01*
X85100223Y-46462224D01*
X85096113Y-46456381D01*
X85041595Y-46401185D01*
X84972664Y-46369890D01*
X84892928Y-46361165D01*
X84823256Y-46369918D01*
M02*
