M48
; DRILL file {KiCad (5.1.2-1)-1} date Wednesday, August 21, 2019 at 10:48:32 AM
; FORMAT={-:-/ absolute / inch / decimal}
; #@! TF.CreationDate,2019-08-21T10:48:32-07:00
; #@! TF.GenerationSoftware,Kicad,Pcbnew,(5.1.2-1)-1
; #@! TF.FileFunction,Plated,1,2,PTH
FMAT,2
INCH
T1C0.0157
T2C0.0315
T3C0.0394
T4C0.0400
T5C0.1181
%
G90
G05
T1
X3.67Y-2.47
X3.84Y-2.56
X3.89Y-2.23
X4.27Y-2.78
T2
X3.31Y-2.35
X3.31Y-2.65
X3.41Y-2.35
X3.41Y-2.65
X3.51Y-2.35
X3.51Y-2.65
X3.61Y-2.35
X3.61Y-2.65
X3.71Y-2.35
X3.71Y-2.65
X3.81Y-2.35
X3.81Y-2.65
X3.91Y-2.35
X3.91Y-2.65
X4.01Y-2.35
X4.01Y-2.65
X4.155Y-2.35
X4.155Y-2.65
X4.255Y-2.35
X4.255Y-2.65
X4.355Y-2.35
X4.355Y-2.65
X4.455Y-2.35
X4.455Y-2.65
T3
X3.1Y-2.5
X3.1Y-2.6
X4.15Y-2.2
X4.25Y-2.2
X4.35Y-2.2
X3.71Y-2.81
X3.81Y-2.81
X3.35Y-2.2
X3.45Y-2.2
X4.47Y-2.79
X4.57Y-2.79
X4.67Y-2.79
X4.77Y-2.79
X4.87Y-2.79
X4.97Y-2.79
X5.07Y-2.79
X5.3Y-2.58
X5.4Y-2.58
X5.5Y-2.58
T4
X4.72Y-2.25
X4.72Y-2.35
X4.82Y-2.25
X4.82Y-2.35
X4.92Y-2.25
X4.92Y-2.35
X5.02Y-2.25
X5.02Y-2.35
X5.12Y-2.25
X5.12Y-2.35
X5.22Y-2.25
X5.22Y-2.35
X5.32Y-2.25
X5.32Y-2.35
X5.42Y-2.25
X5.42Y-2.35
T5
X3.1Y-2.2
X3.1Y-2.8
X5.7Y-2.2
X5.7Y-2.8
T0
M30
