G04 #@! TF.GenerationSoftware,KiCad,Pcbnew,(5.1.2-1)-1*
G04 #@! TF.CreationDate,2019-08-22T09:13:01-07:00*
G04 #@! TF.ProjectId,AS3310_ADSR,41533333-3130-45f4-9144-53522e6b6963,rev?*
G04 #@! TF.SameCoordinates,Original*
G04 #@! TF.FileFunction,Legend,Top*
G04 #@! TF.FilePolarity,Positive*
%FSLAX46Y46*%
G04 Gerber Fmt 4.6, Leading zero omitted, Abs format (unit mm)*
G04 Created by KiCad (PCBNEW (5.1.2-1)-1) date 2019-08-22 09:13:01*
%MOMM*%
%LPD*%
G04 APERTURE LIST*
%ADD10C,0.150000*%
%ADD11C,0.120000*%
G04 APERTURE END LIST*
D10*
X117762047Y-54062380D02*
X118000142Y-55062380D01*
X118190619Y-54348095D01*
X118381095Y-55062380D01*
X118619190Y-54062380D01*
X119000142Y-55062380D02*
X119000142Y-54062380D01*
X119000142Y-54538571D02*
X119571571Y-54538571D01*
X119571571Y-55062380D02*
X119571571Y-54062380D01*
X120000142Y-55014761D02*
X120143000Y-55062380D01*
X120381095Y-55062380D01*
X120476333Y-55014761D01*
X120523952Y-54967142D01*
X120571571Y-54871904D01*
X120571571Y-54776666D01*
X120523952Y-54681428D01*
X120476333Y-54633809D01*
X120381095Y-54586190D01*
X120190619Y-54538571D01*
X120095380Y-54490952D01*
X120047761Y-54443333D01*
X120000142Y-54348095D01*
X120000142Y-54252857D01*
X120047761Y-54157619D01*
X120095380Y-54110000D01*
X120190619Y-54062380D01*
X120428714Y-54062380D01*
X120571571Y-54110000D01*
X120904904Y-54395714D02*
X121143000Y-55062380D01*
X121381095Y-54395714D02*
X121143000Y-55062380D01*
X121047761Y-55300476D01*
X121000142Y-55348095D01*
X120904904Y-55395714D01*
X121762047Y-54395714D02*
X121762047Y-55062380D01*
X121762047Y-54490952D02*
X121809666Y-54443333D01*
X121904904Y-54395714D01*
X122047761Y-54395714D01*
X122143000Y-54443333D01*
X122190619Y-54538571D01*
X122190619Y-55062380D01*
X122523952Y-54395714D02*
X122904904Y-54395714D01*
X122666809Y-54062380D02*
X122666809Y-54919523D01*
X122714428Y-55014761D01*
X122809666Y-55062380D01*
X122904904Y-55062380D01*
X123238238Y-55062380D02*
X123238238Y-54062380D01*
X123666809Y-55062380D02*
X123666809Y-54538571D01*
X123619190Y-54443333D01*
X123523952Y-54395714D01*
X123381095Y-54395714D01*
X123285857Y-54443333D01*
X123238238Y-54490952D01*
X124857285Y-54776666D02*
X125333476Y-54776666D01*
X124762047Y-55062380D02*
X125095380Y-54062380D01*
X125428714Y-55062380D01*
X125762047Y-55062380D02*
X125762047Y-54062380D01*
X126000142Y-54062380D01*
X126143000Y-54110000D01*
X126238238Y-54205238D01*
X126285857Y-54300476D01*
X126333476Y-54490952D01*
X126333476Y-54633809D01*
X126285857Y-54824285D01*
X126238238Y-54919523D01*
X126143000Y-55014761D01*
X126000142Y-55062380D01*
X125762047Y-55062380D01*
X126714428Y-55014761D02*
X126857285Y-55062380D01*
X127095380Y-55062380D01*
X127190619Y-55014761D01*
X127238238Y-54967142D01*
X127285857Y-54871904D01*
X127285857Y-54776666D01*
X127238238Y-54681428D01*
X127190619Y-54633809D01*
X127095380Y-54586190D01*
X126904904Y-54538571D01*
X126809666Y-54490952D01*
X126762047Y-54443333D01*
X126714428Y-54348095D01*
X126714428Y-54252857D01*
X126762047Y-54157619D01*
X126809666Y-54110000D01*
X126904904Y-54062380D01*
X127143000Y-54062380D01*
X127285857Y-54110000D01*
X128285857Y-55062380D02*
X127952523Y-54586190D01*
X127714428Y-55062380D02*
X127714428Y-54062380D01*
X128095380Y-54062380D01*
X128190619Y-54110000D01*
X128238238Y-54157619D01*
X128285857Y-54252857D01*
X128285857Y-54395714D01*
X128238238Y-54490952D01*
X128190619Y-54538571D01*
X128095380Y-54586190D01*
X127714428Y-54586190D01*
X129809666Y-54538571D02*
X129952523Y-54586190D01*
X130000142Y-54633809D01*
X130047761Y-54729047D01*
X130047761Y-54871904D01*
X130000142Y-54967142D01*
X129952523Y-55014761D01*
X129857285Y-55062380D01*
X129476333Y-55062380D01*
X129476333Y-54062380D01*
X129809666Y-54062380D01*
X129904904Y-54110000D01*
X129952523Y-54157619D01*
X130000142Y-54252857D01*
X130000142Y-54348095D01*
X129952523Y-54443333D01*
X129904904Y-54490952D01*
X129809666Y-54538571D01*
X129476333Y-54538571D01*
X130619190Y-55062380D02*
X130523952Y-55014761D01*
X130476333Y-54967142D01*
X130428714Y-54871904D01*
X130428714Y-54586190D01*
X130476333Y-54490952D01*
X130523952Y-54443333D01*
X130619190Y-54395714D01*
X130762047Y-54395714D01*
X130857285Y-54443333D01*
X130904904Y-54490952D01*
X130952523Y-54586190D01*
X130952523Y-54871904D01*
X130904904Y-54967142D01*
X130857285Y-55014761D01*
X130762047Y-55062380D01*
X130619190Y-55062380D01*
X131809666Y-55062380D02*
X131809666Y-54538571D01*
X131762047Y-54443333D01*
X131666809Y-54395714D01*
X131476333Y-54395714D01*
X131381095Y-54443333D01*
X131809666Y-55014761D02*
X131714428Y-55062380D01*
X131476333Y-55062380D01*
X131381095Y-55014761D01*
X131333476Y-54919523D01*
X131333476Y-54824285D01*
X131381095Y-54729047D01*
X131476333Y-54681428D01*
X131714428Y-54681428D01*
X131809666Y-54633809D01*
X132285857Y-55062380D02*
X132285857Y-54395714D01*
X132285857Y-54586190D02*
X132333476Y-54490952D01*
X132381095Y-54443333D01*
X132476333Y-54395714D01*
X132571571Y-54395714D01*
X133333476Y-55062380D02*
X133333476Y-54062380D01*
X133333476Y-55014761D02*
X133238238Y-55062380D01*
X133047761Y-55062380D01*
X132952523Y-55014761D01*
X132904904Y-54967142D01*
X132857285Y-54871904D01*
X132857285Y-54586190D01*
X132904904Y-54490952D01*
X132952523Y-54443333D01*
X133047761Y-54395714D01*
X133238238Y-54395714D01*
X133333476Y-54443333D01*
X135143000Y-55062380D02*
X134809666Y-54586190D01*
X134571571Y-55062380D02*
X134571571Y-54062380D01*
X134952523Y-54062380D01*
X135047761Y-54110000D01*
X135095380Y-54157619D01*
X135143000Y-54252857D01*
X135143000Y-54395714D01*
X135095380Y-54490952D01*
X135047761Y-54538571D01*
X134952523Y-54586190D01*
X134571571Y-54586190D01*
X135952523Y-55014761D02*
X135857285Y-55062380D01*
X135666809Y-55062380D01*
X135571571Y-55014761D01*
X135523952Y-54919523D01*
X135523952Y-54538571D01*
X135571571Y-54443333D01*
X135666809Y-54395714D01*
X135857285Y-54395714D01*
X135952523Y-54443333D01*
X136000142Y-54538571D01*
X136000142Y-54633809D01*
X135523952Y-54729047D01*
X136333476Y-54395714D02*
X136571571Y-55062380D01*
X136809666Y-54395714D01*
X138476333Y-55062380D02*
X137904904Y-55062380D01*
X138190619Y-55062380D02*
X138190619Y-54062380D01*
X138095380Y-54205238D01*
X138000142Y-54300476D01*
X137904904Y-54348095D01*
D11*
X76200000Y-73660000D02*
X76200000Y-53340000D01*
X98104000Y-72704000D02*
X98104000Y-70044000D01*
X95504000Y-72704000D02*
X98104000Y-72704000D01*
X95504000Y-70044000D02*
X98104000Y-70044000D01*
X95504000Y-72704000D02*
X95504000Y-70044000D01*
X94234000Y-72704000D02*
X92904000Y-72704000D01*
X92904000Y-72704000D02*
X92904000Y-71374000D01*
X83760000Y-54550000D02*
X83760000Y-57210000D01*
X86360000Y-54550000D02*
X83760000Y-54550000D01*
X86360000Y-57210000D02*
X83760000Y-57210000D01*
X86360000Y-54550000D02*
X86360000Y-57210000D01*
X87630000Y-54550000D02*
X88960000Y-54550000D01*
X88960000Y-54550000D02*
X88960000Y-55880000D01*
X80070000Y-67370000D02*
X78740000Y-67370000D01*
X80070000Y-66040000D02*
X80070000Y-67370000D01*
X80070000Y-64770000D02*
X77410000Y-64770000D01*
X77410000Y-64770000D02*
X77410000Y-62170000D01*
X80070000Y-64770000D02*
X80070000Y-62170000D01*
X80070000Y-62170000D02*
X77410000Y-62170000D01*
X82744000Y-62500000D02*
G75*
G02X82744000Y-64500000I0J-1000000D01*
G01*
X82744000Y-64500000D02*
X82744000Y-66150000D01*
X82744000Y-66150000D02*
X103184000Y-66150000D01*
X103184000Y-66150000D02*
X103184000Y-60850000D01*
X103184000Y-60850000D02*
X82744000Y-60850000D01*
X82744000Y-60850000D02*
X82744000Y-62500000D01*
X104207000Y-62500000D02*
G75*
G02X104207000Y-64500000I0J-1000000D01*
G01*
X104207000Y-64500000D02*
X104207000Y-66150000D01*
X104207000Y-66150000D02*
X114487000Y-66150000D01*
X114487000Y-66150000D02*
X114487000Y-60850000D01*
X114487000Y-60850000D02*
X104207000Y-60850000D01*
X104207000Y-60850000D02*
X104207000Y-62500000D01*
X101008922Y-55170000D02*
X101526078Y-55170000D01*
X101008922Y-56590000D02*
X101526078Y-56590000D01*
X100842578Y-69140000D02*
X100325422Y-69140000D01*
X100842578Y-70560000D02*
X100325422Y-70560000D01*
X84831422Y-70410000D02*
X85348578Y-70410000D01*
X84831422Y-71830000D02*
X85348578Y-71830000D01*
X112208000Y-69536000D02*
X112208000Y-72196000D01*
X127508000Y-69536000D02*
X112208000Y-69536000D01*
X127508000Y-72196000D02*
X112208000Y-72196000D01*
X127508000Y-69536000D02*
X127508000Y-72196000D01*
X128778000Y-69536000D02*
X130108000Y-69536000D01*
X130108000Y-69536000D02*
X130108000Y-70866000D01*
X141030000Y-64202000D02*
X141030000Y-65532000D01*
X139700000Y-64202000D02*
X141030000Y-64202000D01*
X138430000Y-64202000D02*
X138430000Y-66862000D01*
X138430000Y-66862000D02*
X133290000Y-66862000D01*
X138430000Y-64202000D02*
X133290000Y-64202000D01*
X133290000Y-64202000D02*
X133290000Y-66862000D01*
X104080000Y-54550000D02*
X104080000Y-57210000D01*
X109220000Y-54550000D02*
X104080000Y-54550000D01*
X109220000Y-57210000D02*
X104080000Y-57210000D01*
X109220000Y-54550000D02*
X109220000Y-57210000D01*
X110490000Y-54550000D02*
X111820000Y-54550000D01*
X111820000Y-54550000D02*
X111820000Y-55880000D01*
X129488000Y-66875922D02*
X129488000Y-67393078D01*
X128068000Y-66875922D02*
X128068000Y-67393078D01*
X128068000Y-62987422D02*
X128068000Y-63504578D01*
X129488000Y-62987422D02*
X129488000Y-63504578D01*
X126948000Y-66875922D02*
X126948000Y-67393078D01*
X125528000Y-66875922D02*
X125528000Y-67393078D01*
X125528000Y-62987422D02*
X125528000Y-63504578D01*
X126948000Y-62987422D02*
X126948000Y-63504578D01*
X124408000Y-67051422D02*
X124408000Y-67568578D01*
X122988000Y-67051422D02*
X122988000Y-67568578D01*
X122988000Y-62987422D02*
X122988000Y-63504578D01*
X124408000Y-62987422D02*
X124408000Y-63504578D01*
X121868000Y-67051422D02*
X121868000Y-67568578D01*
X120448000Y-67051422D02*
X120448000Y-67568578D01*
X120448000Y-62987422D02*
X120448000Y-63504578D01*
X121868000Y-62987422D02*
X121868000Y-63504578D01*
X140711422Y-62940000D02*
X141228578Y-62940000D01*
X140711422Y-61520000D02*
X141228578Y-61520000D01*
X89334078Y-71576000D02*
X88816922Y-71576000D01*
X89334078Y-70156000D02*
X88816922Y-70156000D01*
X92968578Y-55170000D02*
X92451422Y-55170000D01*
X92968578Y-56590000D02*
X92451422Y-56590000D01*
X105151422Y-70410000D02*
X105668578Y-70410000D01*
X105151422Y-71830000D02*
X105668578Y-71830000D01*
D10*
X91356380Y-71707333D02*
X92070666Y-71707333D01*
X92213523Y-71754952D01*
X92308761Y-71850190D01*
X92356380Y-71993047D01*
X92356380Y-72088285D01*
X91356380Y-71326380D02*
X91356380Y-70707333D01*
X91737333Y-71040666D01*
X91737333Y-70897809D01*
X91784952Y-70802571D01*
X91832571Y-70754952D01*
X91927809Y-70707333D01*
X92165904Y-70707333D01*
X92261142Y-70754952D01*
X92308761Y-70802571D01*
X92356380Y-70897809D01*
X92356380Y-71183523D01*
X92308761Y-71278761D01*
X92261142Y-71326380D01*
X89412380Y-56213333D02*
X90126666Y-56213333D01*
X90269523Y-56260952D01*
X90364761Y-56356190D01*
X90412380Y-56499047D01*
X90412380Y-56594285D01*
X89745714Y-55308571D02*
X90412380Y-55308571D01*
X89364761Y-55546666D02*
X90079047Y-55784761D01*
X90079047Y-55165714D01*
X78406666Y-67822380D02*
X78406666Y-68536666D01*
X78359047Y-68679523D01*
X78263809Y-68774761D01*
X78120952Y-68822380D01*
X78025714Y-68822380D01*
X79359047Y-67822380D02*
X78882857Y-67822380D01*
X78835238Y-68298571D01*
X78882857Y-68250952D01*
X78978095Y-68203333D01*
X79216190Y-68203333D01*
X79311428Y-68250952D01*
X79359047Y-68298571D01*
X79406666Y-68393809D01*
X79406666Y-68631904D01*
X79359047Y-68727142D01*
X79311428Y-68774761D01*
X79216190Y-68822380D01*
X78978095Y-68822380D01*
X78882857Y-68774761D01*
X78835238Y-68727142D01*
X81196380Y-64261904D02*
X82005904Y-64261904D01*
X82101142Y-64214285D01*
X82148761Y-64166666D01*
X82196380Y-64071428D01*
X82196380Y-63880952D01*
X82148761Y-63785714D01*
X82101142Y-63738095D01*
X82005904Y-63690476D01*
X81196380Y-63690476D01*
X82196380Y-62690476D02*
X82196380Y-63261904D01*
X82196380Y-62976190D02*
X81196380Y-62976190D01*
X81339238Y-63071428D01*
X81434476Y-63166666D01*
X81482095Y-63261904D01*
X114895380Y-64896904D02*
X115704904Y-64896904D01*
X115800142Y-64849285D01*
X115847761Y-64801666D01*
X115895380Y-64706428D01*
X115895380Y-64515952D01*
X115847761Y-64420714D01*
X115800142Y-64373095D01*
X115704904Y-64325476D01*
X114895380Y-64325476D01*
X114990619Y-63896904D02*
X114943000Y-63849285D01*
X114895380Y-63754047D01*
X114895380Y-63515952D01*
X114943000Y-63420714D01*
X114990619Y-63373095D01*
X115085857Y-63325476D01*
X115181095Y-63325476D01*
X115323952Y-63373095D01*
X115895380Y-63944523D01*
X115895380Y-63325476D01*
X101100833Y-54587142D02*
X101053214Y-54634761D01*
X100910357Y-54682380D01*
X100815119Y-54682380D01*
X100672261Y-54634761D01*
X100577023Y-54539523D01*
X100529404Y-54444285D01*
X100481785Y-54253809D01*
X100481785Y-54110952D01*
X100529404Y-53920476D01*
X100577023Y-53825238D01*
X100672261Y-53730000D01*
X100815119Y-53682380D01*
X100910357Y-53682380D01*
X101053214Y-53730000D01*
X101100833Y-53777619D01*
X102053214Y-54682380D02*
X101481785Y-54682380D01*
X101767500Y-54682380D02*
X101767500Y-53682380D01*
X101672261Y-53825238D01*
X101577023Y-53920476D01*
X101481785Y-53968095D01*
X100417333Y-71857142D02*
X100369714Y-71904761D01*
X100226857Y-71952380D01*
X100131619Y-71952380D01*
X99988761Y-71904761D01*
X99893523Y-71809523D01*
X99845904Y-71714285D01*
X99798285Y-71523809D01*
X99798285Y-71380952D01*
X99845904Y-71190476D01*
X99893523Y-71095238D01*
X99988761Y-71000000D01*
X100131619Y-70952380D01*
X100226857Y-70952380D01*
X100369714Y-71000000D01*
X100417333Y-71047619D01*
X100798285Y-71047619D02*
X100845904Y-71000000D01*
X100941142Y-70952380D01*
X101179238Y-70952380D01*
X101274476Y-71000000D01*
X101322095Y-71047619D01*
X101369714Y-71142857D01*
X101369714Y-71238095D01*
X101322095Y-71380952D01*
X100750666Y-71952380D01*
X101369714Y-71952380D01*
X84923333Y-69827142D02*
X84875714Y-69874761D01*
X84732857Y-69922380D01*
X84637619Y-69922380D01*
X84494761Y-69874761D01*
X84399523Y-69779523D01*
X84351904Y-69684285D01*
X84304285Y-69493809D01*
X84304285Y-69350952D01*
X84351904Y-69160476D01*
X84399523Y-69065238D01*
X84494761Y-68970000D01*
X84637619Y-68922380D01*
X84732857Y-68922380D01*
X84875714Y-68970000D01*
X84923333Y-69017619D01*
X85256666Y-68922380D02*
X85875714Y-68922380D01*
X85542380Y-69303333D01*
X85685238Y-69303333D01*
X85780476Y-69350952D01*
X85828095Y-69398571D01*
X85875714Y-69493809D01*
X85875714Y-69731904D01*
X85828095Y-69827142D01*
X85780476Y-69874761D01*
X85685238Y-69922380D01*
X85399523Y-69922380D01*
X85304285Y-69874761D01*
X85256666Y-69827142D01*
X130560380Y-71199333D02*
X131274666Y-71199333D01*
X131417523Y-71246952D01*
X131512761Y-71342190D01*
X131560380Y-71485047D01*
X131560380Y-71580285D01*
X131560380Y-70199333D02*
X131560380Y-70770761D01*
X131560380Y-70485047D02*
X130560380Y-70485047D01*
X130703238Y-70580285D01*
X130798476Y-70675523D01*
X130846095Y-70770761D01*
X141482380Y-65865333D02*
X142196666Y-65865333D01*
X142339523Y-65912952D01*
X142434761Y-66008190D01*
X142482380Y-66151047D01*
X142482380Y-66246285D01*
X141577619Y-65436761D02*
X141530000Y-65389142D01*
X141482380Y-65293904D01*
X141482380Y-65055809D01*
X141530000Y-64960571D01*
X141577619Y-64912952D01*
X141672857Y-64865333D01*
X141768095Y-64865333D01*
X141910952Y-64912952D01*
X142482380Y-65484380D01*
X142482380Y-64865333D01*
X112272380Y-56213333D02*
X112986666Y-56213333D01*
X113129523Y-56260952D01*
X113224761Y-56356190D01*
X113272380Y-56499047D01*
X113272380Y-56594285D01*
X112272380Y-55308571D02*
X112272380Y-55499047D01*
X112320000Y-55594285D01*
X112367619Y-55641904D01*
X112510476Y-55737142D01*
X112700952Y-55784761D01*
X113081904Y-55784761D01*
X113177142Y-55737142D01*
X113224761Y-55689523D01*
X113272380Y-55594285D01*
X113272380Y-55403809D01*
X113224761Y-55308571D01*
X113177142Y-55260952D01*
X113081904Y-55213333D01*
X112843809Y-55213333D01*
X112748571Y-55260952D01*
X112700952Y-55308571D01*
X112653333Y-55403809D01*
X112653333Y-55594285D01*
X112700952Y-55689523D01*
X112748571Y-55737142D01*
X112843809Y-55784761D01*
X130880380Y-67301166D02*
X130404190Y-67634500D01*
X130880380Y-67872595D02*
X129880380Y-67872595D01*
X129880380Y-67491642D01*
X129928000Y-67396404D01*
X129975619Y-67348785D01*
X130070857Y-67301166D01*
X130213714Y-67301166D01*
X130308952Y-67348785D01*
X130356571Y-67396404D01*
X130404190Y-67491642D01*
X130404190Y-67872595D01*
X130880380Y-66348785D02*
X130880380Y-66920214D01*
X130880380Y-66634500D02*
X129880380Y-66634500D01*
X130023238Y-66729738D01*
X130118476Y-66824976D01*
X130166095Y-66920214D01*
X130880380Y-63412666D02*
X130404190Y-63746000D01*
X130880380Y-63984095D02*
X129880380Y-63984095D01*
X129880380Y-63603142D01*
X129928000Y-63507904D01*
X129975619Y-63460285D01*
X130070857Y-63412666D01*
X130213714Y-63412666D01*
X130308952Y-63460285D01*
X130356571Y-63507904D01*
X130404190Y-63603142D01*
X130404190Y-63984095D01*
X129975619Y-63031714D02*
X129928000Y-62984095D01*
X129880380Y-62888857D01*
X129880380Y-62650761D01*
X129928000Y-62555523D01*
X129975619Y-62507904D01*
X130070857Y-62460285D01*
X130166095Y-62460285D01*
X130308952Y-62507904D01*
X130880380Y-63079333D01*
X130880380Y-62460285D01*
X128340380Y-67301166D02*
X127864190Y-67634500D01*
X128340380Y-67872595D02*
X127340380Y-67872595D01*
X127340380Y-67491642D01*
X127388000Y-67396404D01*
X127435619Y-67348785D01*
X127530857Y-67301166D01*
X127673714Y-67301166D01*
X127768952Y-67348785D01*
X127816571Y-67396404D01*
X127864190Y-67491642D01*
X127864190Y-67872595D01*
X127340380Y-66967833D02*
X127340380Y-66348785D01*
X127721333Y-66682119D01*
X127721333Y-66539261D01*
X127768952Y-66444023D01*
X127816571Y-66396404D01*
X127911809Y-66348785D01*
X128149904Y-66348785D01*
X128245142Y-66396404D01*
X128292761Y-66444023D01*
X128340380Y-66539261D01*
X128340380Y-66824976D01*
X128292761Y-66920214D01*
X128245142Y-66967833D01*
X128340380Y-63412666D02*
X127864190Y-63746000D01*
X128340380Y-63984095D02*
X127340380Y-63984095D01*
X127340380Y-63603142D01*
X127388000Y-63507904D01*
X127435619Y-63460285D01*
X127530857Y-63412666D01*
X127673714Y-63412666D01*
X127768952Y-63460285D01*
X127816571Y-63507904D01*
X127864190Y-63603142D01*
X127864190Y-63984095D01*
X127673714Y-62555523D02*
X128340380Y-62555523D01*
X127292761Y-62793619D02*
X128007047Y-63031714D01*
X128007047Y-62412666D01*
X125800380Y-67476666D02*
X125324190Y-67810000D01*
X125800380Y-68048095D02*
X124800380Y-68048095D01*
X124800380Y-67667142D01*
X124848000Y-67571904D01*
X124895619Y-67524285D01*
X124990857Y-67476666D01*
X125133714Y-67476666D01*
X125228952Y-67524285D01*
X125276571Y-67571904D01*
X125324190Y-67667142D01*
X125324190Y-68048095D01*
X124800380Y-66571904D02*
X124800380Y-67048095D01*
X125276571Y-67095714D01*
X125228952Y-67048095D01*
X125181333Y-66952857D01*
X125181333Y-66714761D01*
X125228952Y-66619523D01*
X125276571Y-66571904D01*
X125371809Y-66524285D01*
X125609904Y-66524285D01*
X125705142Y-66571904D01*
X125752761Y-66619523D01*
X125800380Y-66714761D01*
X125800380Y-66952857D01*
X125752761Y-67048095D01*
X125705142Y-67095714D01*
X125800380Y-63412666D02*
X125324190Y-63746000D01*
X125800380Y-63984095D02*
X124800380Y-63984095D01*
X124800380Y-63603142D01*
X124848000Y-63507904D01*
X124895619Y-63460285D01*
X124990857Y-63412666D01*
X125133714Y-63412666D01*
X125228952Y-63460285D01*
X125276571Y-63507904D01*
X125324190Y-63603142D01*
X125324190Y-63984095D01*
X124800380Y-62555523D02*
X124800380Y-62746000D01*
X124848000Y-62841238D01*
X124895619Y-62888857D01*
X125038476Y-62984095D01*
X125228952Y-63031714D01*
X125609904Y-63031714D01*
X125705142Y-62984095D01*
X125752761Y-62936476D01*
X125800380Y-62841238D01*
X125800380Y-62650761D01*
X125752761Y-62555523D01*
X125705142Y-62507904D01*
X125609904Y-62460285D01*
X125371809Y-62460285D01*
X125276571Y-62507904D01*
X125228952Y-62555523D01*
X125181333Y-62650761D01*
X125181333Y-62841238D01*
X125228952Y-62936476D01*
X125276571Y-62984095D01*
X125371809Y-63031714D01*
X123260380Y-67476666D02*
X122784190Y-67810000D01*
X123260380Y-68048095D02*
X122260380Y-68048095D01*
X122260380Y-67667142D01*
X122308000Y-67571904D01*
X122355619Y-67524285D01*
X122450857Y-67476666D01*
X122593714Y-67476666D01*
X122688952Y-67524285D01*
X122736571Y-67571904D01*
X122784190Y-67667142D01*
X122784190Y-68048095D01*
X122260380Y-67143333D02*
X122260380Y-66476666D01*
X123260380Y-66905238D01*
X123260380Y-63412666D02*
X122784190Y-63746000D01*
X123260380Y-63984095D02*
X122260380Y-63984095D01*
X122260380Y-63603142D01*
X122308000Y-63507904D01*
X122355619Y-63460285D01*
X122450857Y-63412666D01*
X122593714Y-63412666D01*
X122688952Y-63460285D01*
X122736571Y-63507904D01*
X122784190Y-63603142D01*
X122784190Y-63984095D01*
X122688952Y-62841238D02*
X122641333Y-62936476D01*
X122593714Y-62984095D01*
X122498476Y-63031714D01*
X122450857Y-63031714D01*
X122355619Y-62984095D01*
X122308000Y-62936476D01*
X122260380Y-62841238D01*
X122260380Y-62650761D01*
X122308000Y-62555523D01*
X122355619Y-62507904D01*
X122450857Y-62460285D01*
X122498476Y-62460285D01*
X122593714Y-62507904D01*
X122641333Y-62555523D01*
X122688952Y-62650761D01*
X122688952Y-62841238D01*
X122736571Y-62936476D01*
X122784190Y-62984095D01*
X122879428Y-63031714D01*
X123069904Y-63031714D01*
X123165142Y-62984095D01*
X123212761Y-62936476D01*
X123260380Y-62841238D01*
X123260380Y-62650761D01*
X123212761Y-62555523D01*
X123165142Y-62507904D01*
X123069904Y-62460285D01*
X122879428Y-62460285D01*
X122784190Y-62507904D01*
X122736571Y-62555523D01*
X122688952Y-62650761D01*
X140327142Y-61032380D02*
X139993809Y-60556190D01*
X139755714Y-61032380D02*
X139755714Y-60032380D01*
X140136666Y-60032380D01*
X140231904Y-60080000D01*
X140279523Y-60127619D01*
X140327142Y-60222857D01*
X140327142Y-60365714D01*
X140279523Y-60460952D01*
X140231904Y-60508571D01*
X140136666Y-60556190D01*
X139755714Y-60556190D01*
X141279523Y-61032380D02*
X140708095Y-61032380D01*
X140993809Y-61032380D02*
X140993809Y-60032380D01*
X140898571Y-60175238D01*
X140803333Y-60270476D01*
X140708095Y-60318095D01*
X141898571Y-60032380D02*
X141993809Y-60032380D01*
X142089047Y-60080000D01*
X142136666Y-60127619D01*
X142184285Y-60222857D01*
X142231904Y-60413333D01*
X142231904Y-60651428D01*
X142184285Y-60841904D01*
X142136666Y-60937142D01*
X142089047Y-60984761D01*
X141993809Y-61032380D01*
X141898571Y-61032380D01*
X141803333Y-60984761D01*
X141755714Y-60937142D01*
X141708095Y-60841904D01*
X141660476Y-60651428D01*
X141660476Y-60413333D01*
X141708095Y-60222857D01*
X141755714Y-60127619D01*
X141803333Y-60080000D01*
X141898571Y-60032380D01*
X88432642Y-72968380D02*
X88099309Y-72492190D01*
X87861214Y-72968380D02*
X87861214Y-71968380D01*
X88242166Y-71968380D01*
X88337404Y-72016000D01*
X88385023Y-72063619D01*
X88432642Y-72158857D01*
X88432642Y-72301714D01*
X88385023Y-72396952D01*
X88337404Y-72444571D01*
X88242166Y-72492190D01*
X87861214Y-72492190D01*
X89385023Y-72968380D02*
X88813595Y-72968380D01*
X89099309Y-72968380D02*
X89099309Y-71968380D01*
X89004071Y-72111238D01*
X88908833Y-72206476D01*
X88813595Y-72254095D01*
X90337404Y-72968380D02*
X89765976Y-72968380D01*
X90051690Y-72968380D02*
X90051690Y-71968380D01*
X89956452Y-72111238D01*
X89861214Y-72206476D01*
X89765976Y-72254095D01*
X92067142Y-57982380D02*
X91733809Y-57506190D01*
X91495714Y-57982380D02*
X91495714Y-56982380D01*
X91876666Y-56982380D01*
X91971904Y-57030000D01*
X92019523Y-57077619D01*
X92067142Y-57172857D01*
X92067142Y-57315714D01*
X92019523Y-57410952D01*
X91971904Y-57458571D01*
X91876666Y-57506190D01*
X91495714Y-57506190D01*
X93019523Y-57982380D02*
X92448095Y-57982380D01*
X92733809Y-57982380D02*
X92733809Y-56982380D01*
X92638571Y-57125238D01*
X92543333Y-57220476D01*
X92448095Y-57268095D01*
X93400476Y-57077619D02*
X93448095Y-57030000D01*
X93543333Y-56982380D01*
X93781428Y-56982380D01*
X93876666Y-57030000D01*
X93924285Y-57077619D01*
X93971904Y-57172857D01*
X93971904Y-57268095D01*
X93924285Y-57410952D01*
X93352857Y-57982380D01*
X93971904Y-57982380D01*
X104767142Y-69922380D02*
X104433809Y-69446190D01*
X104195714Y-69922380D02*
X104195714Y-68922380D01*
X104576666Y-68922380D01*
X104671904Y-68970000D01*
X104719523Y-69017619D01*
X104767142Y-69112857D01*
X104767142Y-69255714D01*
X104719523Y-69350952D01*
X104671904Y-69398571D01*
X104576666Y-69446190D01*
X104195714Y-69446190D01*
X105719523Y-69922380D02*
X105148095Y-69922380D01*
X105433809Y-69922380D02*
X105433809Y-68922380D01*
X105338571Y-69065238D01*
X105243333Y-69160476D01*
X105148095Y-69208095D01*
X106052857Y-68922380D02*
X106671904Y-68922380D01*
X106338571Y-69303333D01*
X106481428Y-69303333D01*
X106576666Y-69350952D01*
X106624285Y-69398571D01*
X106671904Y-69493809D01*
X106671904Y-69731904D01*
X106624285Y-69827142D01*
X106576666Y-69874761D01*
X106481428Y-69922380D01*
X106195714Y-69922380D01*
X106100476Y-69874761D01*
X106052857Y-69827142D01*
M02*
