G04 #@! TF.GenerationSoftware,KiCad,Pcbnew,(5.1.2-1)-1*
G04 #@! TF.CreationDate,2019-08-22T09:13:01-07:00*
G04 #@! TF.ProjectId,AS3310_ADSR,41533333-3130-45f4-9144-53522e6b6963,rev?*
G04 #@! TF.SameCoordinates,Original*
G04 #@! TF.FileFunction,Legend,Bot*
G04 #@! TF.FilePolarity,Positive*
%FSLAX46Y46*%
G04 Gerber Fmt 4.6, Leading zero omitted, Abs format (unit mm)*
G04 Created by KiCad (PCBNEW (5.1.2-1)-1) date 2019-08-22 09:13:01*
%MOMM*%
%LPD*%
G04 APERTURE LIST*
%ADD10C,0.120000*%
%ADD11C,0.150000*%
G04 APERTURE END LIST*
D10*
X118811000Y-68739000D02*
X118811000Y-68239000D01*
X118561000Y-68489000D02*
X119061000Y-68489000D01*
X119301000Y-65733437D02*
X120365437Y-64669000D01*
X119301000Y-68124563D02*
X120365437Y-69189000D01*
X119301000Y-68124563D02*
X119301000Y-67989000D01*
X119301000Y-65733437D02*
X119301000Y-65869000D01*
X120365437Y-64669000D02*
X123821000Y-64669000D01*
X120365437Y-69189000D02*
X123821000Y-69189000D01*
X123821000Y-69189000D02*
X123821000Y-67989000D01*
X123821000Y-64669000D02*
X123821000Y-65869000D01*
X131038000Y-64669000D02*
X131038000Y-65869000D01*
X131038000Y-69189000D02*
X131038000Y-67989000D01*
X127582437Y-69189000D02*
X131038000Y-69189000D01*
X127582437Y-64669000D02*
X131038000Y-64669000D01*
X126518000Y-65733437D02*
X126518000Y-65869000D01*
X126518000Y-68124563D02*
X126518000Y-67989000D01*
X126518000Y-68124563D02*
X127582437Y-69189000D01*
X126518000Y-65733437D02*
X127582437Y-64669000D01*
X125778000Y-68489000D02*
X126278000Y-68489000D01*
X126028000Y-68739000D02*
X126028000Y-68239000D01*
X143018000Y-53745000D02*
X114538000Y-53745000D01*
X114538000Y-53745000D02*
X114538000Y-63095000D01*
X114538000Y-63095000D02*
X143018000Y-63095000D01*
X143018000Y-63095000D02*
X143018000Y-53745000D01*
X143268000Y-63345000D02*
X140728000Y-63345000D01*
X143268000Y-63345000D02*
X143268000Y-60805000D01*
D11*
X121959666Y-64365142D02*
X122007285Y-64412761D01*
X122150142Y-64460380D01*
X122245380Y-64460380D01*
X122388238Y-64412761D01*
X122483476Y-64317523D01*
X122531095Y-64222285D01*
X122578714Y-64031809D01*
X122578714Y-63888952D01*
X122531095Y-63698476D01*
X122483476Y-63603238D01*
X122388238Y-63508000D01*
X122245380Y-63460380D01*
X122150142Y-63460380D01*
X122007285Y-63508000D01*
X121959666Y-63555619D01*
X121102523Y-63793714D02*
X121102523Y-64460380D01*
X121340619Y-63412761D02*
X121578714Y-64127047D01*
X120959666Y-64127047D01*
X129198666Y-64365142D02*
X129246285Y-64412761D01*
X129389142Y-64460380D01*
X129484380Y-64460380D01*
X129627238Y-64412761D01*
X129722476Y-64317523D01*
X129770095Y-64222285D01*
X129817714Y-64031809D01*
X129817714Y-63888952D01*
X129770095Y-63698476D01*
X129722476Y-63603238D01*
X129627238Y-63508000D01*
X129484380Y-63460380D01*
X129389142Y-63460380D01*
X129246285Y-63508000D01*
X129198666Y-63555619D01*
X128293904Y-63460380D02*
X128770095Y-63460380D01*
X128817714Y-63936571D01*
X128770095Y-63888952D01*
X128674857Y-63841333D01*
X128436761Y-63841333D01*
X128341523Y-63888952D01*
X128293904Y-63936571D01*
X128246285Y-64031809D01*
X128246285Y-64269904D01*
X128293904Y-64365142D01*
X128341523Y-64412761D01*
X128436761Y-64460380D01*
X128674857Y-64460380D01*
X128770095Y-64412761D01*
X128817714Y-64365142D01*
X143724380Y-58086666D02*
X144438666Y-58086666D01*
X144581523Y-58039047D01*
X144676761Y-57943809D01*
X144724380Y-57800952D01*
X144724380Y-57705714D01*
X143724380Y-58467619D02*
X143724380Y-59134285D01*
X144724380Y-58705714D01*
M02*
