G04 #@! TF.GenerationSoftware,KiCad,Pcbnew,(5.1.2-1)-1*
G04 #@! TF.CreationDate,2019-08-22T09:13:01-07:00*
G04 #@! TF.ProjectId,AS3310_ADSR,41533333-3130-45f4-9144-53522e6b6963,rev?*
G04 #@! TF.SameCoordinates,Original*
G04 #@! TF.FileFunction,Copper,L2,Bot*
G04 #@! TF.FilePolarity,Positive*
%FSLAX46Y46*%
G04 Gerber Fmt 4.6, Leading zero omitted, Abs format (unit mm)*
G04 Created by KiCad (PCBNEW (5.1.2-1)-1) date 2019-08-22 09:13:01*
%MOMM*%
%LPD*%
G04 APERTURE LIST*
%ADD10R,1.700000X1.700000*%
%ADD11O,1.700000X1.700000*%
%ADD12R,1.600000X1.600000*%
%ADD13O,1.600000X1.600000*%
%ADD14C,0.100000*%
%ADD15C,1.600000*%
%ADD16R,1.727200X1.727200*%
%ADD17O,1.727200X1.727200*%
%ADD18C,0.800000*%
%ADD19C,3.200001*%
%ADD20C,0.250000*%
%ADD21C,0.254000*%
G04 APERTURE END LIST*
D10*
X94234000Y-71374000D03*
D11*
X96774000Y-71374000D03*
D10*
X87630000Y-55880000D03*
D11*
X85090000Y-55880000D03*
X78740000Y-63500000D03*
D10*
X78740000Y-66040000D03*
D12*
X84074000Y-67310000D03*
D13*
X101854000Y-59690000D03*
X86614000Y-67310000D03*
X99314000Y-59690000D03*
X89154000Y-67310000D03*
X96774000Y-59690000D03*
X91694000Y-67310000D03*
X94234000Y-59690000D03*
X94234000Y-67310000D03*
X91694000Y-59690000D03*
X96774000Y-67310000D03*
X89154000Y-59690000D03*
X99314000Y-67310000D03*
X86614000Y-59690000D03*
X101854000Y-67310000D03*
X84074000Y-59690000D03*
D12*
X105537000Y-67310000D03*
D13*
X113157000Y-59690000D03*
X108077000Y-67310000D03*
X110617000Y-59690000D03*
X110617000Y-67310000D03*
X108077000Y-59690000D03*
X113157000Y-67310000D03*
X105537000Y-59690000D03*
D14*
G36*
X124435504Y-66130204D02*
G01*
X124459773Y-66133804D01*
X124483571Y-66139765D01*
X124506671Y-66148030D01*
X124528849Y-66158520D01*
X124549893Y-66171133D01*
X124569598Y-66185747D01*
X124587777Y-66202223D01*
X124604253Y-66220402D01*
X124618867Y-66240107D01*
X124631480Y-66261151D01*
X124641970Y-66283329D01*
X124650235Y-66306429D01*
X124656196Y-66330227D01*
X124659796Y-66354496D01*
X124661000Y-66379000D01*
X124661000Y-67479000D01*
X124659796Y-67503504D01*
X124656196Y-67527773D01*
X124650235Y-67551571D01*
X124641970Y-67574671D01*
X124631480Y-67596849D01*
X124618867Y-67617893D01*
X124604253Y-67637598D01*
X124587777Y-67655777D01*
X124569598Y-67672253D01*
X124549893Y-67686867D01*
X124528849Y-67699480D01*
X124506671Y-67709970D01*
X124483571Y-67718235D01*
X124459773Y-67724196D01*
X124435504Y-67727796D01*
X124411000Y-67729000D01*
X122311000Y-67729000D01*
X122286496Y-67727796D01*
X122262227Y-67724196D01*
X122238429Y-67718235D01*
X122215329Y-67709970D01*
X122193151Y-67699480D01*
X122172107Y-67686867D01*
X122152402Y-67672253D01*
X122134223Y-67655777D01*
X122117747Y-67637598D01*
X122103133Y-67617893D01*
X122090520Y-67596849D01*
X122080030Y-67574671D01*
X122071765Y-67551571D01*
X122065804Y-67527773D01*
X122062204Y-67503504D01*
X122061000Y-67479000D01*
X122061000Y-66379000D01*
X122062204Y-66354496D01*
X122065804Y-66330227D01*
X122071765Y-66306429D01*
X122080030Y-66283329D01*
X122090520Y-66261151D01*
X122103133Y-66240107D01*
X122117747Y-66220402D01*
X122134223Y-66202223D01*
X122152402Y-66185747D01*
X122172107Y-66171133D01*
X122193151Y-66158520D01*
X122215329Y-66148030D01*
X122238429Y-66139765D01*
X122262227Y-66133804D01*
X122286496Y-66130204D01*
X122311000Y-66129000D01*
X124411000Y-66129000D01*
X124435504Y-66130204D01*
X124435504Y-66130204D01*
G37*
D15*
X123361000Y-66929000D03*
D14*
G36*
X120835504Y-66130204D02*
G01*
X120859773Y-66133804D01*
X120883571Y-66139765D01*
X120906671Y-66148030D01*
X120928849Y-66158520D01*
X120949893Y-66171133D01*
X120969598Y-66185747D01*
X120987777Y-66202223D01*
X121004253Y-66220402D01*
X121018867Y-66240107D01*
X121031480Y-66261151D01*
X121041970Y-66283329D01*
X121050235Y-66306429D01*
X121056196Y-66330227D01*
X121059796Y-66354496D01*
X121061000Y-66379000D01*
X121061000Y-67479000D01*
X121059796Y-67503504D01*
X121056196Y-67527773D01*
X121050235Y-67551571D01*
X121041970Y-67574671D01*
X121031480Y-67596849D01*
X121018867Y-67617893D01*
X121004253Y-67637598D01*
X120987777Y-67655777D01*
X120969598Y-67672253D01*
X120949893Y-67686867D01*
X120928849Y-67699480D01*
X120906671Y-67709970D01*
X120883571Y-67718235D01*
X120859773Y-67724196D01*
X120835504Y-67727796D01*
X120811000Y-67729000D01*
X118711000Y-67729000D01*
X118686496Y-67727796D01*
X118662227Y-67724196D01*
X118638429Y-67718235D01*
X118615329Y-67709970D01*
X118593151Y-67699480D01*
X118572107Y-67686867D01*
X118552402Y-67672253D01*
X118534223Y-67655777D01*
X118517747Y-67637598D01*
X118503133Y-67617893D01*
X118490520Y-67596849D01*
X118480030Y-67574671D01*
X118471765Y-67551571D01*
X118465804Y-67527773D01*
X118462204Y-67503504D01*
X118461000Y-67479000D01*
X118461000Y-66379000D01*
X118462204Y-66354496D01*
X118465804Y-66330227D01*
X118471765Y-66306429D01*
X118480030Y-66283329D01*
X118490520Y-66261151D01*
X118503133Y-66240107D01*
X118517747Y-66220402D01*
X118534223Y-66202223D01*
X118552402Y-66185747D01*
X118572107Y-66171133D01*
X118593151Y-66158520D01*
X118615329Y-66148030D01*
X118638429Y-66139765D01*
X118662227Y-66133804D01*
X118686496Y-66130204D01*
X118711000Y-66129000D01*
X120811000Y-66129000D01*
X120835504Y-66130204D01*
X120835504Y-66130204D01*
G37*
D15*
X119761000Y-66929000D03*
D14*
G36*
X128052504Y-66130204D02*
G01*
X128076773Y-66133804D01*
X128100571Y-66139765D01*
X128123671Y-66148030D01*
X128145849Y-66158520D01*
X128166893Y-66171133D01*
X128186598Y-66185747D01*
X128204777Y-66202223D01*
X128221253Y-66220402D01*
X128235867Y-66240107D01*
X128248480Y-66261151D01*
X128258970Y-66283329D01*
X128267235Y-66306429D01*
X128273196Y-66330227D01*
X128276796Y-66354496D01*
X128278000Y-66379000D01*
X128278000Y-67479000D01*
X128276796Y-67503504D01*
X128273196Y-67527773D01*
X128267235Y-67551571D01*
X128258970Y-67574671D01*
X128248480Y-67596849D01*
X128235867Y-67617893D01*
X128221253Y-67637598D01*
X128204777Y-67655777D01*
X128186598Y-67672253D01*
X128166893Y-67686867D01*
X128145849Y-67699480D01*
X128123671Y-67709970D01*
X128100571Y-67718235D01*
X128076773Y-67724196D01*
X128052504Y-67727796D01*
X128028000Y-67729000D01*
X125928000Y-67729000D01*
X125903496Y-67727796D01*
X125879227Y-67724196D01*
X125855429Y-67718235D01*
X125832329Y-67709970D01*
X125810151Y-67699480D01*
X125789107Y-67686867D01*
X125769402Y-67672253D01*
X125751223Y-67655777D01*
X125734747Y-67637598D01*
X125720133Y-67617893D01*
X125707520Y-67596849D01*
X125697030Y-67574671D01*
X125688765Y-67551571D01*
X125682804Y-67527773D01*
X125679204Y-67503504D01*
X125678000Y-67479000D01*
X125678000Y-66379000D01*
X125679204Y-66354496D01*
X125682804Y-66330227D01*
X125688765Y-66306429D01*
X125697030Y-66283329D01*
X125707520Y-66261151D01*
X125720133Y-66240107D01*
X125734747Y-66220402D01*
X125751223Y-66202223D01*
X125769402Y-66185747D01*
X125789107Y-66171133D01*
X125810151Y-66158520D01*
X125832329Y-66148030D01*
X125855429Y-66139765D01*
X125879227Y-66133804D01*
X125903496Y-66130204D01*
X125928000Y-66129000D01*
X128028000Y-66129000D01*
X128052504Y-66130204D01*
X128052504Y-66130204D01*
G37*
D15*
X126978000Y-66929000D03*
D14*
G36*
X131652504Y-66130204D02*
G01*
X131676773Y-66133804D01*
X131700571Y-66139765D01*
X131723671Y-66148030D01*
X131745849Y-66158520D01*
X131766893Y-66171133D01*
X131786598Y-66185747D01*
X131804777Y-66202223D01*
X131821253Y-66220402D01*
X131835867Y-66240107D01*
X131848480Y-66261151D01*
X131858970Y-66283329D01*
X131867235Y-66306429D01*
X131873196Y-66330227D01*
X131876796Y-66354496D01*
X131878000Y-66379000D01*
X131878000Y-67479000D01*
X131876796Y-67503504D01*
X131873196Y-67527773D01*
X131867235Y-67551571D01*
X131858970Y-67574671D01*
X131848480Y-67596849D01*
X131835867Y-67617893D01*
X131821253Y-67637598D01*
X131804777Y-67655777D01*
X131786598Y-67672253D01*
X131766893Y-67686867D01*
X131745849Y-67699480D01*
X131723671Y-67709970D01*
X131700571Y-67718235D01*
X131676773Y-67724196D01*
X131652504Y-67727796D01*
X131628000Y-67729000D01*
X129528000Y-67729000D01*
X129503496Y-67727796D01*
X129479227Y-67724196D01*
X129455429Y-67718235D01*
X129432329Y-67709970D01*
X129410151Y-67699480D01*
X129389107Y-67686867D01*
X129369402Y-67672253D01*
X129351223Y-67655777D01*
X129334747Y-67637598D01*
X129320133Y-67617893D01*
X129307520Y-67596849D01*
X129297030Y-67574671D01*
X129288765Y-67551571D01*
X129282804Y-67527773D01*
X129279204Y-67503504D01*
X129278000Y-67479000D01*
X129278000Y-66379000D01*
X129279204Y-66354496D01*
X129282804Y-66330227D01*
X129288765Y-66306429D01*
X129297030Y-66283329D01*
X129307520Y-66261151D01*
X129320133Y-66240107D01*
X129334747Y-66220402D01*
X129351223Y-66202223D01*
X129369402Y-66185747D01*
X129389107Y-66171133D01*
X129410151Y-66158520D01*
X129432329Y-66148030D01*
X129455429Y-66139765D01*
X129479227Y-66133804D01*
X129503496Y-66130204D01*
X129528000Y-66129000D01*
X131628000Y-66129000D01*
X131652504Y-66130204D01*
X131652504Y-66130204D01*
G37*
D15*
X130578000Y-66929000D03*
D10*
X128778000Y-70866000D03*
D11*
X126238000Y-70866000D03*
X123698000Y-70866000D03*
X121158000Y-70866000D03*
X118618000Y-70866000D03*
X116078000Y-70866000D03*
X113538000Y-70866000D03*
X134620000Y-65532000D03*
X137160000Y-65532000D03*
D10*
X139700000Y-65532000D03*
X110490000Y-55880000D03*
D11*
X107950000Y-55880000D03*
X105410000Y-55880000D03*
D16*
X137668000Y-59690000D03*
D17*
X137668000Y-57150000D03*
X135128000Y-59690000D03*
X135128000Y-57150000D03*
X132588000Y-59690000D03*
X132588000Y-57150000D03*
X130048000Y-59690000D03*
X130048000Y-57150000D03*
X127508000Y-59690000D03*
X127508000Y-57150000D03*
X124968000Y-59690000D03*
X124968000Y-57150000D03*
X122428000Y-59690000D03*
X122428000Y-57150000D03*
X119888000Y-59690000D03*
X119888000Y-57150000D03*
D18*
X98806000Y-56642000D03*
D19*
X78740000Y-55880000D03*
X78740000Y-71120000D03*
X144780000Y-71120000D03*
X144780000Y-55880000D03*
D18*
X93218000Y-62738000D03*
X97536000Y-65024000D03*
X108458000Y-70612000D03*
D20*
X94234000Y-66178630D02*
X94234000Y-67310000D01*
X97899001Y-62513629D02*
X94234000Y-66178630D01*
X97899001Y-57548999D02*
X97899001Y-62513629D01*
X98806000Y-56642000D02*
X97899001Y-57548999D01*
X84074000Y-68360000D02*
X84074000Y-67310000D01*
X84149001Y-68435001D02*
X84074000Y-68360000D01*
X92632601Y-68885011D02*
X109563991Y-68885011D01*
X92182591Y-68435001D02*
X92632601Y-68885011D01*
X84149001Y-68435001D02*
X92182591Y-68435001D01*
X109563991Y-68885011D02*
X109563991Y-68363009D01*
X109563991Y-68363009D02*
X110617000Y-67310000D01*
X85090000Y-58674000D02*
X84074000Y-59690000D01*
X85090000Y-55880000D02*
X85090000Y-58674000D01*
X108077000Y-67310000D02*
X110617000Y-64770000D01*
X110617000Y-64770000D02*
X110617000Y-59690000D01*
X114554000Y-69342000D02*
X116078000Y-70866000D01*
X130556000Y-64878130D02*
X130556000Y-67056000D01*
X127602999Y-71533001D02*
X127602999Y-69755001D01*
X127094999Y-72041001D02*
X127602999Y-71533001D01*
X117253001Y-72041001D02*
X127094999Y-72041001D01*
X116078000Y-70866000D02*
X117253001Y-72041001D01*
X127602999Y-69755001D02*
X130556000Y-66802000D01*
X114554000Y-69342000D02*
X114554000Y-68707000D01*
X114554000Y-68707000D02*
X113157000Y-67310000D01*
X137668000Y-57150000D02*
X137668000Y-59690000D01*
X133593470Y-64878130D02*
X130556000Y-64878130D01*
X137668000Y-60803600D02*
X133593470Y-64878130D01*
X137668000Y-59690000D02*
X137668000Y-60803600D01*
X99669999Y-54704999D02*
X111600001Y-54704999D01*
X96774000Y-57600998D02*
X99669999Y-54704999D01*
X96774000Y-59690000D02*
X96774000Y-57600998D01*
X119467999Y-70016001D02*
X119467999Y-66968001D01*
X118618000Y-70866000D02*
X119467999Y-70016001D01*
X119467999Y-66968001D02*
X119555998Y-67056000D01*
X119555998Y-67056000D02*
X119555998Y-66626002D01*
X109765001Y-58890001D02*
X108876999Y-58890001D01*
X111665001Y-56990001D02*
X109765001Y-58890001D01*
X111665001Y-54769999D02*
X111665001Y-56990001D01*
X108876999Y-58890001D02*
X108077000Y-59690000D01*
X112122003Y-56990001D02*
X111665001Y-56990001D01*
X117768001Y-62635999D02*
X112122003Y-56990001D01*
X117768001Y-70016001D02*
X117768001Y-62635999D01*
X118618000Y-70866000D02*
X117768001Y-70016001D01*
X127508000Y-57150000D02*
X127508000Y-59690000D01*
X127508000Y-59690000D02*
X120142000Y-67056000D01*
X120142000Y-67056000D02*
X119634000Y-67056000D01*
X119888000Y-57150000D02*
X119888000Y-59563000D01*
X119888000Y-59563000D02*
X119761000Y-59690000D01*
X107100001Y-56729999D02*
X107950000Y-55880000D01*
X98188999Y-65641001D02*
X103014999Y-60815001D01*
X98188999Y-67560003D02*
X98188999Y-65641001D01*
X97314001Y-68435001D02*
X98188999Y-67560003D01*
X92819001Y-68435001D02*
X97314001Y-68435001D01*
X91694000Y-67310000D02*
X92819001Y-68435001D01*
X106831999Y-56729999D02*
X107100001Y-56729999D01*
X103014999Y-60546999D02*
X106831999Y-56729999D01*
X103014999Y-60815001D02*
X103014999Y-60546999D01*
X124968000Y-57150000D02*
X124968000Y-58371314D01*
X124968000Y-58371314D02*
X124968000Y-59690000D01*
X122428000Y-57150000D02*
X122428000Y-58371314D01*
X122428000Y-58371314D02*
X122428000Y-59690000D01*
D21*
G36*
X99245722Y-54070025D02*
G01*
X99166520Y-54135025D01*
X99129998Y-54164998D01*
X99106200Y-54193996D01*
X96262998Y-57037199D01*
X96234000Y-57060997D01*
X96210202Y-57089995D01*
X96210201Y-57089996D01*
X96139026Y-57176722D01*
X96068454Y-57308752D01*
X96051392Y-57365000D01*
X96024998Y-57452012D01*
X96014440Y-57559205D01*
X96010324Y-57600998D01*
X96014001Y-57638330D01*
X96014001Y-58469099D01*
X95972899Y-58491068D01*
X95754392Y-58670392D01*
X95575068Y-58888899D01*
X95504000Y-59021858D01*
X95432932Y-58888899D01*
X95253608Y-58670392D01*
X95035101Y-58491068D01*
X94785808Y-58357818D01*
X94515309Y-58275764D01*
X94304492Y-58255000D01*
X94163508Y-58255000D01*
X93952691Y-58275764D01*
X93682192Y-58357818D01*
X93432899Y-58491068D01*
X93214392Y-58670392D01*
X93035068Y-58888899D01*
X92964000Y-59021858D01*
X92892932Y-58888899D01*
X92713608Y-58670392D01*
X92495101Y-58491068D01*
X92245808Y-58357818D01*
X91975309Y-58275764D01*
X91764492Y-58255000D01*
X91623508Y-58255000D01*
X91412691Y-58275764D01*
X91142192Y-58357818D01*
X90892899Y-58491068D01*
X90674392Y-58670392D01*
X90495068Y-58888899D01*
X90421421Y-59026682D01*
X90306385Y-58834869D01*
X90117414Y-58626481D01*
X89891420Y-58458963D01*
X89637087Y-58338754D01*
X89503039Y-58298096D01*
X89281000Y-58420085D01*
X89281000Y-59563000D01*
X89301000Y-59563000D01*
X89301000Y-59817000D01*
X89281000Y-59817000D01*
X89281000Y-60959915D01*
X89503039Y-61081904D01*
X89637087Y-61041246D01*
X89891420Y-60921037D01*
X90117414Y-60753519D01*
X90306385Y-60545131D01*
X90421421Y-60353318D01*
X90495068Y-60491101D01*
X90674392Y-60709608D01*
X90892899Y-60888932D01*
X91142192Y-61022182D01*
X91412691Y-61104236D01*
X91623508Y-61125000D01*
X91764492Y-61125000D01*
X91975309Y-61104236D01*
X92245808Y-61022182D01*
X92495101Y-60888932D01*
X92713608Y-60709608D01*
X92892932Y-60491101D01*
X92964000Y-60358142D01*
X93035068Y-60491101D01*
X93214392Y-60709608D01*
X93432899Y-60888932D01*
X93682192Y-61022182D01*
X93952691Y-61104236D01*
X94163508Y-61125000D01*
X94304492Y-61125000D01*
X94515309Y-61104236D01*
X94785808Y-61022182D01*
X95035101Y-60888932D01*
X95253608Y-60709608D01*
X95432932Y-60491101D01*
X95504000Y-60358142D01*
X95575068Y-60491101D01*
X95754392Y-60709608D01*
X95972899Y-60888932D01*
X96222192Y-61022182D01*
X96492691Y-61104236D01*
X96703508Y-61125000D01*
X96844492Y-61125000D01*
X97055309Y-61104236D01*
X97139002Y-61078848D01*
X97139002Y-62198826D01*
X93723003Y-65614826D01*
X93693999Y-65638629D01*
X93638871Y-65705804D01*
X93599026Y-65754354D01*
X93541314Y-65862325D01*
X93528454Y-65886384D01*
X93484997Y-66029645D01*
X93479427Y-66086198D01*
X93432899Y-66111068D01*
X93214392Y-66290392D01*
X93035068Y-66508899D01*
X92964000Y-66641858D01*
X92892932Y-66508899D01*
X92713608Y-66290392D01*
X92495101Y-66111068D01*
X92245808Y-65977818D01*
X91975309Y-65895764D01*
X91764492Y-65875000D01*
X91623508Y-65875000D01*
X91412691Y-65895764D01*
X91142192Y-65977818D01*
X90892899Y-66111068D01*
X90674392Y-66290392D01*
X90495068Y-66508899D01*
X90424000Y-66641858D01*
X90352932Y-66508899D01*
X90173608Y-66290392D01*
X89955101Y-66111068D01*
X89705808Y-65977818D01*
X89435309Y-65895764D01*
X89224492Y-65875000D01*
X89083508Y-65875000D01*
X88872691Y-65895764D01*
X88602192Y-65977818D01*
X88352899Y-66111068D01*
X88134392Y-66290392D01*
X87955068Y-66508899D01*
X87884000Y-66641858D01*
X87812932Y-66508899D01*
X87633608Y-66290392D01*
X87415101Y-66111068D01*
X87165808Y-65977818D01*
X86895309Y-65895764D01*
X86684492Y-65875000D01*
X86543508Y-65875000D01*
X86332691Y-65895764D01*
X86062192Y-65977818D01*
X85812899Y-66111068D01*
X85594392Y-66290392D01*
X85501581Y-66403482D01*
X85499812Y-66385518D01*
X85463502Y-66265820D01*
X85404537Y-66155506D01*
X85325185Y-66058815D01*
X85228494Y-65979463D01*
X85118180Y-65920498D01*
X84998482Y-65884188D01*
X84874000Y-65871928D01*
X83274000Y-65871928D01*
X83149518Y-65884188D01*
X83029820Y-65920498D01*
X82919506Y-65979463D01*
X82822815Y-66058815D01*
X82743463Y-66155506D01*
X82684498Y-66265820D01*
X82648188Y-66385518D01*
X82635928Y-66510000D01*
X82635928Y-68110000D01*
X82648188Y-68234482D01*
X82684498Y-68354180D01*
X82743463Y-68464494D01*
X82822815Y-68561185D01*
X82919506Y-68640537D01*
X83029820Y-68699502D01*
X83149518Y-68735812D01*
X83274000Y-68748072D01*
X83419674Y-68748072D01*
X83439026Y-68784276D01*
X83478871Y-68832826D01*
X83533999Y-68900001D01*
X83563000Y-68923802D01*
X83585200Y-68946002D01*
X83609000Y-68975002D01*
X83724725Y-69069975D01*
X83856754Y-69140547D01*
X84000015Y-69184004D01*
X84111668Y-69195001D01*
X84111678Y-69195001D01*
X84149000Y-69198677D01*
X84186323Y-69195001D01*
X91867790Y-69195001D01*
X92068797Y-69396008D01*
X92092600Y-69425012D01*
X92208325Y-69519985D01*
X92340354Y-69590557D01*
X92483615Y-69634014D01*
X92595268Y-69645011D01*
X92595277Y-69645011D01*
X92632600Y-69648687D01*
X92669923Y-69645011D01*
X109526658Y-69645011D01*
X109563991Y-69648688D01*
X109601324Y-69645011D01*
X109712977Y-69634014D01*
X109856238Y-69590557D01*
X109988267Y-69519985D01*
X110103992Y-69425012D01*
X110198965Y-69309287D01*
X110269537Y-69177258D01*
X110312994Y-69033997D01*
X110327668Y-68885011D01*
X110323991Y-68847678D01*
X110323991Y-68720687D01*
X110335691Y-68724236D01*
X110546508Y-68745000D01*
X110687492Y-68745000D01*
X110898309Y-68724236D01*
X111168808Y-68642182D01*
X111418101Y-68508932D01*
X111636608Y-68329608D01*
X111815932Y-68111101D01*
X111887000Y-67978142D01*
X111958068Y-68111101D01*
X112137392Y-68329608D01*
X112355899Y-68508932D01*
X112605192Y-68642182D01*
X112875691Y-68724236D01*
X113086508Y-68745000D01*
X113227492Y-68745000D01*
X113438309Y-68724236D01*
X113482906Y-68710708D01*
X113794000Y-69021802D01*
X113794000Y-69304678D01*
X113790324Y-69342000D01*
X113794000Y-69379322D01*
X113794000Y-69379332D01*
X113803216Y-69472904D01*
X113665000Y-69545845D01*
X113665000Y-70739000D01*
X113685000Y-70739000D01*
X113685000Y-70993000D01*
X113665000Y-70993000D01*
X113665000Y-72186155D01*
X113894890Y-72307476D01*
X114042099Y-72262825D01*
X114304920Y-72137641D01*
X114538269Y-71963588D01*
X114733178Y-71747355D01*
X114802799Y-71630477D01*
X114837294Y-71695014D01*
X115022866Y-71921134D01*
X115248986Y-72106706D01*
X115506966Y-72244599D01*
X115786889Y-72329513D01*
X116005050Y-72351000D01*
X116150950Y-72351000D01*
X116369111Y-72329513D01*
X116443995Y-72306797D01*
X116689202Y-72552004D01*
X116713000Y-72581002D01*
X116828725Y-72675975D01*
X116960754Y-72746547D01*
X117104015Y-72790004D01*
X117215668Y-72801001D01*
X117215677Y-72801001D01*
X117253000Y-72804677D01*
X117290323Y-72801001D01*
X127057677Y-72801001D01*
X127094999Y-72804677D01*
X127132321Y-72801001D01*
X127132332Y-72801001D01*
X127243985Y-72790004D01*
X127387246Y-72746547D01*
X127519275Y-72675975D01*
X127635000Y-72581002D01*
X127658802Y-72551999D01*
X127863119Y-72347682D01*
X127928000Y-72354072D01*
X129628000Y-72354072D01*
X129752482Y-72341812D01*
X129872180Y-72305502D01*
X129982494Y-72246537D01*
X130079185Y-72167185D01*
X130158537Y-72070494D01*
X130217502Y-71960180D01*
X130253812Y-71840482D01*
X130266072Y-71716000D01*
X130266072Y-70016000D01*
X130253812Y-69891518D01*
X130217502Y-69771820D01*
X130158537Y-69661506D01*
X130079185Y-69564815D01*
X129982494Y-69485463D01*
X129872180Y-69426498D01*
X129752482Y-69390188D01*
X129628000Y-69377928D01*
X129054873Y-69377928D01*
X130065730Y-68367072D01*
X131628000Y-68367072D01*
X131801254Y-68350008D01*
X131967850Y-68299472D01*
X132121386Y-68217405D01*
X132255962Y-68106962D01*
X132366405Y-67972386D01*
X132448472Y-67818850D01*
X132499008Y-67652254D01*
X132516072Y-67479000D01*
X132516072Y-66379000D01*
X132499008Y-66205746D01*
X132448472Y-66039150D01*
X132366405Y-65885614D01*
X132255962Y-65751038D01*
X132121386Y-65640595D01*
X132116774Y-65638130D01*
X133135000Y-65638130D01*
X133135000Y-65659002D01*
X133299185Y-65659002D01*
X133178519Y-65888891D01*
X133275843Y-66163252D01*
X133424822Y-66413355D01*
X133619731Y-66629588D01*
X133853080Y-66803641D01*
X134115901Y-66928825D01*
X134263110Y-66973476D01*
X134493000Y-66852155D01*
X134493000Y-65659000D01*
X134473000Y-65659000D01*
X134473000Y-65405000D01*
X134493000Y-65405000D01*
X134493000Y-65385000D01*
X134747000Y-65385000D01*
X134747000Y-65405000D01*
X134767000Y-65405000D01*
X134767000Y-65659000D01*
X134747000Y-65659000D01*
X134747000Y-66852155D01*
X134976890Y-66973476D01*
X135124099Y-66928825D01*
X135386920Y-66803641D01*
X135620269Y-66629588D01*
X135815178Y-66413355D01*
X135884799Y-66296477D01*
X135919294Y-66361014D01*
X136104866Y-66587134D01*
X136330986Y-66772706D01*
X136588966Y-66910599D01*
X136868889Y-66995513D01*
X137087050Y-67017000D01*
X137232950Y-67017000D01*
X137451111Y-66995513D01*
X137731034Y-66910599D01*
X137989014Y-66772706D01*
X138215134Y-66587134D01*
X138239607Y-66557313D01*
X138260498Y-66626180D01*
X138319463Y-66736494D01*
X138398815Y-66833185D01*
X138495506Y-66912537D01*
X138605820Y-66971502D01*
X138725518Y-67007812D01*
X138850000Y-67020072D01*
X140550000Y-67020072D01*
X140674482Y-67007812D01*
X140794180Y-66971502D01*
X140904494Y-66912537D01*
X141001185Y-66833185D01*
X141080537Y-66736494D01*
X141139502Y-66626180D01*
X141175812Y-66506482D01*
X141188072Y-66382000D01*
X141188072Y-64682000D01*
X141175812Y-64557518D01*
X141139502Y-64437820D01*
X141080537Y-64327506D01*
X141001185Y-64230815D01*
X140904494Y-64151463D01*
X140794180Y-64092498D01*
X140674482Y-64056188D01*
X140550000Y-64043928D01*
X138850000Y-64043928D01*
X138725518Y-64056188D01*
X138605820Y-64092498D01*
X138495506Y-64151463D01*
X138398815Y-64230815D01*
X138319463Y-64327506D01*
X138260498Y-64437820D01*
X138239607Y-64506687D01*
X138215134Y-64476866D01*
X137989014Y-64291294D01*
X137731034Y-64153401D01*
X137451111Y-64068487D01*
X137232950Y-64047000D01*
X137087050Y-64047000D01*
X136868889Y-64068487D01*
X136588966Y-64153401D01*
X136330986Y-64291294D01*
X136104866Y-64476866D01*
X135919294Y-64702986D01*
X135884799Y-64767523D01*
X135815178Y-64650645D01*
X135620269Y-64434412D01*
X135386920Y-64260359D01*
X135318589Y-64227812D01*
X138179003Y-61367399D01*
X138208001Y-61343601D01*
X138302974Y-61227876D01*
X138322326Y-61191672D01*
X138531600Y-61191672D01*
X138656082Y-61179412D01*
X138775780Y-61143102D01*
X138886094Y-61084137D01*
X138982785Y-61004785D01*
X139062137Y-60908094D01*
X139121102Y-60797780D01*
X139157412Y-60678082D01*
X139169672Y-60553600D01*
X139169672Y-58826400D01*
X139157412Y-58701918D01*
X139121102Y-58582220D01*
X139062137Y-58471906D01*
X138982785Y-58375215D01*
X138886094Y-58295863D01*
X138775780Y-58236898D01*
X138724735Y-58221414D01*
X138732797Y-58214797D01*
X138920069Y-57986606D01*
X139059225Y-57726264D01*
X139144916Y-57443777D01*
X139173851Y-57150000D01*
X139144916Y-56856223D01*
X139059225Y-56573736D01*
X138920069Y-56313394D01*
X138732797Y-56085203D01*
X138504606Y-55897931D01*
X138244264Y-55758775D01*
X137961777Y-55673084D01*
X137741619Y-55651400D01*
X137594381Y-55651400D01*
X137374223Y-55673084D01*
X137091736Y-55758775D01*
X136831394Y-55897931D01*
X136603203Y-56085203D01*
X136415931Y-56313394D01*
X136392137Y-56357910D01*
X136334817Y-56261512D01*
X136138293Y-56043146D01*
X135902944Y-55867316D01*
X135637814Y-55740778D01*
X135487026Y-55695042D01*
X135255000Y-55816183D01*
X135255000Y-57023000D01*
X135275000Y-57023000D01*
X135275000Y-57277000D01*
X135255000Y-57277000D01*
X135255000Y-59563000D01*
X135275000Y-59563000D01*
X135275000Y-59817000D01*
X135255000Y-59817000D01*
X135255000Y-61023817D01*
X135487026Y-61144958D01*
X135637814Y-61099222D01*
X135902944Y-60972684D01*
X136138293Y-60796854D01*
X136195376Y-60733426D01*
X136214898Y-60797780D01*
X136273863Y-60908094D01*
X136353215Y-61004785D01*
X136374525Y-61022273D01*
X133278669Y-64118130D01*
X130593333Y-64118130D01*
X130556000Y-64114453D01*
X130518667Y-64118130D01*
X130407014Y-64129127D01*
X130263753Y-64172584D01*
X130131724Y-64243156D01*
X130015999Y-64338129D01*
X129921026Y-64453854D01*
X129850454Y-64585883D01*
X129806997Y-64729144D01*
X129792323Y-64878130D01*
X129796000Y-64915463D01*
X129796000Y-65490928D01*
X129528000Y-65490928D01*
X129354746Y-65507992D01*
X129188150Y-65558528D01*
X129034614Y-65640595D01*
X128900038Y-65751038D01*
X128837031Y-65827813D01*
X128808537Y-65774506D01*
X128729185Y-65677815D01*
X128632494Y-65598463D01*
X128522180Y-65539498D01*
X128402482Y-65503188D01*
X128278000Y-65490928D01*
X127263750Y-65494000D01*
X127105000Y-65652750D01*
X127105000Y-66802000D01*
X127125000Y-66802000D01*
X127125000Y-67056000D01*
X127105000Y-67056000D01*
X127105000Y-68205250D01*
X127263750Y-68364000D01*
X127917219Y-68365979D01*
X127091997Y-69191202D01*
X127062999Y-69215000D01*
X127039201Y-69243998D01*
X127039200Y-69243999D01*
X126968025Y-69330725D01*
X126897453Y-69462755D01*
X126880093Y-69519985D01*
X126878684Y-69524630D01*
X126809034Y-69487401D01*
X126529111Y-69402487D01*
X126310950Y-69381000D01*
X126165050Y-69381000D01*
X125946889Y-69402487D01*
X125666966Y-69487401D01*
X125408986Y-69625294D01*
X125182866Y-69810866D01*
X124997294Y-70036986D01*
X124968000Y-70091791D01*
X124938706Y-70036986D01*
X124753134Y-69810866D01*
X124527014Y-69625294D01*
X124269034Y-69487401D01*
X123989111Y-69402487D01*
X123770950Y-69381000D01*
X123625050Y-69381000D01*
X123406889Y-69402487D01*
X123126966Y-69487401D01*
X122868986Y-69625294D01*
X122642866Y-69810866D01*
X122457294Y-70036986D01*
X122428000Y-70091791D01*
X122398706Y-70036986D01*
X122213134Y-69810866D01*
X121987014Y-69625294D01*
X121729034Y-69487401D01*
X121449111Y-69402487D01*
X121230950Y-69381000D01*
X121085050Y-69381000D01*
X120866889Y-69402487D01*
X120586966Y-69487401D01*
X120328986Y-69625294D01*
X120227999Y-69708172D01*
X120227999Y-68367072D01*
X120811000Y-68367072D01*
X120984254Y-68350008D01*
X121150850Y-68299472D01*
X121304386Y-68217405D01*
X121438962Y-68106962D01*
X121501969Y-68030187D01*
X121530463Y-68083494D01*
X121609815Y-68180185D01*
X121706506Y-68259537D01*
X121816820Y-68318502D01*
X121936518Y-68354812D01*
X122061000Y-68367072D01*
X123075250Y-68364000D01*
X123234000Y-68205250D01*
X123234000Y-67056000D01*
X123488000Y-67056000D01*
X123488000Y-68205250D01*
X123646750Y-68364000D01*
X124661000Y-68367072D01*
X124785482Y-68354812D01*
X124905180Y-68318502D01*
X125015494Y-68259537D01*
X125112185Y-68180185D01*
X125169500Y-68110346D01*
X125226815Y-68180185D01*
X125323506Y-68259537D01*
X125433820Y-68318502D01*
X125553518Y-68354812D01*
X125678000Y-68367072D01*
X126692250Y-68364000D01*
X126851000Y-68205250D01*
X126851000Y-67056000D01*
X125201750Y-67056000D01*
X125169500Y-67088250D01*
X125137250Y-67056000D01*
X123488000Y-67056000D01*
X123234000Y-67056000D01*
X123214000Y-67056000D01*
X123214000Y-66802000D01*
X123234000Y-66802000D01*
X123234000Y-65652750D01*
X123488000Y-65652750D01*
X123488000Y-66802000D01*
X125137250Y-66802000D01*
X125169500Y-66769750D01*
X125201750Y-66802000D01*
X126851000Y-66802000D01*
X126851000Y-65652750D01*
X126692250Y-65494000D01*
X125678000Y-65490928D01*
X125553518Y-65503188D01*
X125433820Y-65539498D01*
X125323506Y-65598463D01*
X125226815Y-65677815D01*
X125169500Y-65747654D01*
X125112185Y-65677815D01*
X125015494Y-65598463D01*
X124905180Y-65539498D01*
X124785482Y-65503188D01*
X124661000Y-65490928D01*
X123646750Y-65494000D01*
X123488000Y-65652750D01*
X123234000Y-65652750D01*
X123075250Y-65494000D01*
X122779696Y-65493105D01*
X127131101Y-61141701D01*
X127214223Y-61166916D01*
X127434381Y-61188600D01*
X127581619Y-61188600D01*
X127801777Y-61166916D01*
X128084264Y-61081225D01*
X128344606Y-60942069D01*
X128572797Y-60754797D01*
X128760069Y-60526606D01*
X128783863Y-60482090D01*
X128841183Y-60578488D01*
X129037707Y-60796854D01*
X129273056Y-60972684D01*
X129538186Y-61099222D01*
X129688974Y-61144958D01*
X129921000Y-61023817D01*
X129921000Y-59817000D01*
X130175000Y-59817000D01*
X130175000Y-61023817D01*
X130407026Y-61144958D01*
X130557814Y-61099222D01*
X130822944Y-60972684D01*
X131058293Y-60796854D01*
X131254817Y-60578488D01*
X131318000Y-60472230D01*
X131381183Y-60578488D01*
X131577707Y-60796854D01*
X131813056Y-60972684D01*
X132078186Y-61099222D01*
X132228974Y-61144958D01*
X132461000Y-61023817D01*
X132461000Y-59817000D01*
X132715000Y-59817000D01*
X132715000Y-61023817D01*
X132947026Y-61144958D01*
X133097814Y-61099222D01*
X133362944Y-60972684D01*
X133598293Y-60796854D01*
X133794817Y-60578488D01*
X133858000Y-60472230D01*
X133921183Y-60578488D01*
X134117707Y-60796854D01*
X134353056Y-60972684D01*
X134618186Y-61099222D01*
X134768974Y-61144958D01*
X135001000Y-61023817D01*
X135001000Y-59817000D01*
X132715000Y-59817000D01*
X132461000Y-59817000D01*
X130175000Y-59817000D01*
X129921000Y-59817000D01*
X129901000Y-59817000D01*
X129901000Y-59563000D01*
X129921000Y-59563000D01*
X129921000Y-57277000D01*
X130175000Y-57277000D01*
X130175000Y-59563000D01*
X132461000Y-59563000D01*
X132461000Y-57277000D01*
X132715000Y-57277000D01*
X132715000Y-59563000D01*
X135001000Y-59563000D01*
X135001000Y-57277000D01*
X132715000Y-57277000D01*
X132461000Y-57277000D01*
X130175000Y-57277000D01*
X129921000Y-57277000D01*
X129901000Y-57277000D01*
X129901000Y-57023000D01*
X129921000Y-57023000D01*
X129921000Y-55816183D01*
X130175000Y-55816183D01*
X130175000Y-57023000D01*
X132461000Y-57023000D01*
X132461000Y-55816183D01*
X132715000Y-55816183D01*
X132715000Y-57023000D01*
X135001000Y-57023000D01*
X135001000Y-55816183D01*
X134768974Y-55695042D01*
X134618186Y-55740778D01*
X134353056Y-55867316D01*
X134117707Y-56043146D01*
X133921183Y-56261512D01*
X133858000Y-56367770D01*
X133794817Y-56261512D01*
X133598293Y-56043146D01*
X133362944Y-55867316D01*
X133097814Y-55740778D01*
X132947026Y-55695042D01*
X132715000Y-55816183D01*
X132461000Y-55816183D01*
X132228974Y-55695042D01*
X132078186Y-55740778D01*
X131813056Y-55867316D01*
X131577707Y-56043146D01*
X131381183Y-56261512D01*
X131318000Y-56367770D01*
X131254817Y-56261512D01*
X131058293Y-56043146D01*
X130822944Y-55867316D01*
X130557814Y-55740778D01*
X130407026Y-55695042D01*
X130175000Y-55816183D01*
X129921000Y-55816183D01*
X129688974Y-55695042D01*
X129538186Y-55740778D01*
X129273056Y-55867316D01*
X129037707Y-56043146D01*
X128841183Y-56261512D01*
X128783863Y-56357910D01*
X128760069Y-56313394D01*
X128572797Y-56085203D01*
X128344606Y-55897931D01*
X128084264Y-55758775D01*
X127801777Y-55673084D01*
X127581619Y-55651400D01*
X127434381Y-55651400D01*
X127214223Y-55673084D01*
X126931736Y-55758775D01*
X126671394Y-55897931D01*
X126443203Y-56085203D01*
X126255931Y-56313394D01*
X126238000Y-56346940D01*
X126220069Y-56313394D01*
X126032797Y-56085203D01*
X125804606Y-55897931D01*
X125544264Y-55758775D01*
X125261777Y-55673084D01*
X125041619Y-55651400D01*
X124894381Y-55651400D01*
X124674223Y-55673084D01*
X124391736Y-55758775D01*
X124131394Y-55897931D01*
X123903203Y-56085203D01*
X123715931Y-56313394D01*
X123698000Y-56346940D01*
X123680069Y-56313394D01*
X123492797Y-56085203D01*
X123264606Y-55897931D01*
X123004264Y-55758775D01*
X122721777Y-55673084D01*
X122501619Y-55651400D01*
X122354381Y-55651400D01*
X122134223Y-55673084D01*
X121851736Y-55758775D01*
X121591394Y-55897931D01*
X121363203Y-56085203D01*
X121175931Y-56313394D01*
X121158000Y-56346940D01*
X121140069Y-56313394D01*
X120952797Y-56085203D01*
X120724606Y-55897931D01*
X120464264Y-55758775D01*
X120181777Y-55673084D01*
X119961619Y-55651400D01*
X119814381Y-55651400D01*
X119594223Y-55673084D01*
X119311736Y-55758775D01*
X119051394Y-55897931D01*
X118823203Y-56085203D01*
X118635931Y-56313394D01*
X118496775Y-56573736D01*
X118411084Y-56856223D01*
X118382149Y-57150000D01*
X118411084Y-57443777D01*
X118496775Y-57726264D01*
X118635931Y-57986606D01*
X118823203Y-58214797D01*
X119051394Y-58402069D01*
X119084940Y-58420000D01*
X119051394Y-58437931D01*
X118823203Y-58625203D01*
X118635931Y-58853394D01*
X118496775Y-59113736D01*
X118411084Y-59396223D01*
X118382149Y-59690000D01*
X118411084Y-59983777D01*
X118496775Y-60266264D01*
X118635931Y-60526606D01*
X118823203Y-60754797D01*
X119051394Y-60942069D01*
X119311736Y-61081225D01*
X119594223Y-61166916D01*
X119814381Y-61188600D01*
X119961619Y-61188600D01*
X120181777Y-61166916D01*
X120464264Y-61081225D01*
X120724606Y-60942069D01*
X120952797Y-60754797D01*
X121140069Y-60526606D01*
X121158000Y-60493060D01*
X121175931Y-60526606D01*
X121363203Y-60754797D01*
X121591394Y-60942069D01*
X121851736Y-61081225D01*
X122134223Y-61166916D01*
X122354381Y-61188600D01*
X122501619Y-61188600D01*
X122721777Y-61166916D01*
X123004264Y-61081225D01*
X123264606Y-60942069D01*
X123492797Y-60754797D01*
X123680069Y-60526606D01*
X123698000Y-60493060D01*
X123715931Y-60526606D01*
X123903203Y-60754797D01*
X124131394Y-60942069D01*
X124391736Y-61081225D01*
X124674223Y-61166916D01*
X124894381Y-61188600D01*
X124934598Y-61188600D01*
X120632271Y-65490928D01*
X118711000Y-65490928D01*
X118537746Y-65507992D01*
X118528001Y-65510948D01*
X118528001Y-62673322D01*
X118531677Y-62635999D01*
X118528001Y-62598676D01*
X118528001Y-62598666D01*
X118517004Y-62487013D01*
X118473547Y-62343752D01*
X118428403Y-62259294D01*
X118402975Y-62211722D01*
X118331800Y-62124996D01*
X118308002Y-62095998D01*
X118279004Y-62072200D01*
X112685807Y-56479004D01*
X112662004Y-56450000D01*
X112546279Y-56355027D01*
X112425001Y-56290202D01*
X112425001Y-54732666D01*
X112414004Y-54621013D01*
X112370547Y-54477752D01*
X112299975Y-54345723D01*
X112205002Y-54229998D01*
X112169302Y-54200700D01*
X112140002Y-54164998D01*
X112024277Y-54070025D01*
X111893271Y-54000000D01*
X146660000Y-54000000D01*
X146660001Y-73000000D01*
X76860000Y-73000000D01*
X76860000Y-70524000D01*
X92745928Y-70524000D01*
X92745928Y-72224000D01*
X92758188Y-72348482D01*
X92794498Y-72468180D01*
X92853463Y-72578494D01*
X92932815Y-72675185D01*
X93029506Y-72754537D01*
X93139820Y-72813502D01*
X93259518Y-72849812D01*
X93384000Y-72862072D01*
X95084000Y-72862072D01*
X95208482Y-72849812D01*
X95328180Y-72813502D01*
X95438494Y-72754537D01*
X95535185Y-72675185D01*
X95614537Y-72578494D01*
X95673502Y-72468180D01*
X95697966Y-72387534D01*
X95773731Y-72471588D01*
X96007080Y-72645641D01*
X96269901Y-72770825D01*
X96417110Y-72815476D01*
X96647000Y-72694155D01*
X96647000Y-71501000D01*
X96901000Y-71501000D01*
X96901000Y-72694155D01*
X97130890Y-72815476D01*
X97278099Y-72770825D01*
X97540920Y-72645641D01*
X97774269Y-72471588D01*
X97969178Y-72255355D01*
X98118157Y-72005252D01*
X98215481Y-71730891D01*
X98094814Y-71501000D01*
X96901000Y-71501000D01*
X96647000Y-71501000D01*
X96627000Y-71501000D01*
X96627000Y-71247000D01*
X96647000Y-71247000D01*
X96647000Y-70053845D01*
X96901000Y-70053845D01*
X96901000Y-71247000D01*
X98094814Y-71247000D01*
X98107468Y-71222891D01*
X112096519Y-71222891D01*
X112193843Y-71497252D01*
X112342822Y-71747355D01*
X112537731Y-71963588D01*
X112771080Y-72137641D01*
X113033901Y-72262825D01*
X113181110Y-72307476D01*
X113411000Y-72186155D01*
X113411000Y-70993000D01*
X112217186Y-70993000D01*
X112096519Y-71222891D01*
X98107468Y-71222891D01*
X98215481Y-71017109D01*
X98118157Y-70742748D01*
X97978986Y-70509109D01*
X112096519Y-70509109D01*
X112217186Y-70739000D01*
X113411000Y-70739000D01*
X113411000Y-69545845D01*
X113181110Y-69424524D01*
X113033901Y-69469175D01*
X112771080Y-69594359D01*
X112537731Y-69768412D01*
X112342822Y-69984645D01*
X112193843Y-70234748D01*
X112096519Y-70509109D01*
X97978986Y-70509109D01*
X97969178Y-70492645D01*
X97774269Y-70276412D01*
X97540920Y-70102359D01*
X97278099Y-69977175D01*
X97130890Y-69932524D01*
X96901000Y-70053845D01*
X96647000Y-70053845D01*
X96417110Y-69932524D01*
X96269901Y-69977175D01*
X96007080Y-70102359D01*
X95773731Y-70276412D01*
X95697966Y-70360466D01*
X95673502Y-70279820D01*
X95614537Y-70169506D01*
X95535185Y-70072815D01*
X95438494Y-69993463D01*
X95328180Y-69934498D01*
X95208482Y-69898188D01*
X95084000Y-69885928D01*
X93384000Y-69885928D01*
X93259518Y-69898188D01*
X93139820Y-69934498D01*
X93029506Y-69993463D01*
X92932815Y-70072815D01*
X92853463Y-70169506D01*
X92794498Y-70279820D01*
X92758188Y-70399518D01*
X92745928Y-70524000D01*
X76860000Y-70524000D01*
X76860000Y-66890000D01*
X77251928Y-66890000D01*
X77264188Y-67014482D01*
X77300498Y-67134180D01*
X77359463Y-67244494D01*
X77438815Y-67341185D01*
X77535506Y-67420537D01*
X77645820Y-67479502D01*
X77765518Y-67515812D01*
X77890000Y-67528072D01*
X78454250Y-67525000D01*
X78613000Y-67366250D01*
X78613000Y-66167000D01*
X78867000Y-66167000D01*
X78867000Y-67366250D01*
X79025750Y-67525000D01*
X79590000Y-67528072D01*
X79714482Y-67515812D01*
X79834180Y-67479502D01*
X79944494Y-67420537D01*
X80041185Y-67341185D01*
X80120537Y-67244494D01*
X80179502Y-67134180D01*
X80215812Y-67014482D01*
X80228072Y-66890000D01*
X80225000Y-66325750D01*
X80066250Y-66167000D01*
X78867000Y-66167000D01*
X78613000Y-66167000D01*
X77413750Y-66167000D01*
X77255000Y-66325750D01*
X77251928Y-66890000D01*
X76860000Y-66890000D01*
X76860000Y-63500000D01*
X77247815Y-63500000D01*
X77276487Y-63791111D01*
X77361401Y-64071034D01*
X77499294Y-64329014D01*
X77684866Y-64555134D01*
X77714687Y-64579607D01*
X77645820Y-64600498D01*
X77535506Y-64659463D01*
X77438815Y-64738815D01*
X77359463Y-64835506D01*
X77300498Y-64945820D01*
X77264188Y-65065518D01*
X77251928Y-65190000D01*
X77255000Y-65754250D01*
X77413750Y-65913000D01*
X78613000Y-65913000D01*
X78613000Y-65893000D01*
X78867000Y-65893000D01*
X78867000Y-65913000D01*
X80066250Y-65913000D01*
X80225000Y-65754250D01*
X80228072Y-65190000D01*
X80215812Y-65065518D01*
X80179502Y-64945820D01*
X80120537Y-64835506D01*
X80041185Y-64738815D01*
X79944494Y-64659463D01*
X79834180Y-64600498D01*
X79765313Y-64579607D01*
X79795134Y-64555134D01*
X79980706Y-64329014D01*
X80118599Y-64071034D01*
X80203513Y-63791111D01*
X80232185Y-63500000D01*
X80203513Y-63208889D01*
X80118599Y-62928966D01*
X79980706Y-62670986D01*
X79795134Y-62444866D01*
X79569014Y-62259294D01*
X79311034Y-62121401D01*
X79031111Y-62036487D01*
X78812950Y-62015000D01*
X78667050Y-62015000D01*
X78448889Y-62036487D01*
X78168966Y-62121401D01*
X77910986Y-62259294D01*
X77684866Y-62444866D01*
X77499294Y-62670986D01*
X77361401Y-62928966D01*
X77276487Y-63208889D01*
X77247815Y-63500000D01*
X76860000Y-63500000D01*
X76860000Y-59690000D01*
X82632057Y-59690000D01*
X82659764Y-59971309D01*
X82741818Y-60241808D01*
X82875068Y-60491101D01*
X83054392Y-60709608D01*
X83272899Y-60888932D01*
X83522192Y-61022182D01*
X83792691Y-61104236D01*
X84003508Y-61125000D01*
X84144492Y-61125000D01*
X84355309Y-61104236D01*
X84625808Y-61022182D01*
X84875101Y-60888932D01*
X85093608Y-60709608D01*
X85272932Y-60491101D01*
X85344000Y-60358142D01*
X85415068Y-60491101D01*
X85594392Y-60709608D01*
X85812899Y-60888932D01*
X86062192Y-61022182D01*
X86332691Y-61104236D01*
X86543508Y-61125000D01*
X86684492Y-61125000D01*
X86895309Y-61104236D01*
X87165808Y-61022182D01*
X87415101Y-60888932D01*
X87633608Y-60709608D01*
X87812932Y-60491101D01*
X87886579Y-60353318D01*
X88001615Y-60545131D01*
X88190586Y-60753519D01*
X88416580Y-60921037D01*
X88670913Y-61041246D01*
X88804961Y-61081904D01*
X89027000Y-60959915D01*
X89027000Y-59817000D01*
X89007000Y-59817000D01*
X89007000Y-59563000D01*
X89027000Y-59563000D01*
X89027000Y-58420085D01*
X88804961Y-58298096D01*
X88670913Y-58338754D01*
X88416580Y-58458963D01*
X88190586Y-58626481D01*
X88001615Y-58834869D01*
X87886579Y-59026682D01*
X87812932Y-58888899D01*
X87633608Y-58670392D01*
X87415101Y-58491068D01*
X87165808Y-58357818D01*
X86895309Y-58275764D01*
X86684492Y-58255000D01*
X86543508Y-58255000D01*
X86332691Y-58275764D01*
X86062192Y-58357818D01*
X85850000Y-58471237D01*
X85850000Y-57157595D01*
X85919014Y-57120706D01*
X86145134Y-56935134D01*
X86169607Y-56905313D01*
X86190498Y-56974180D01*
X86249463Y-57084494D01*
X86328815Y-57181185D01*
X86425506Y-57260537D01*
X86535820Y-57319502D01*
X86655518Y-57355812D01*
X86780000Y-57368072D01*
X87344250Y-57365000D01*
X87503000Y-57206250D01*
X87503000Y-56007000D01*
X87757000Y-56007000D01*
X87757000Y-57206250D01*
X87915750Y-57365000D01*
X88480000Y-57368072D01*
X88604482Y-57355812D01*
X88724180Y-57319502D01*
X88834494Y-57260537D01*
X88931185Y-57181185D01*
X89010537Y-57084494D01*
X89069502Y-56974180D01*
X89105812Y-56854482D01*
X89118072Y-56730000D01*
X89115000Y-56165750D01*
X88956250Y-56007000D01*
X87757000Y-56007000D01*
X87503000Y-56007000D01*
X87483000Y-56007000D01*
X87483000Y-55753000D01*
X87503000Y-55753000D01*
X87503000Y-54553750D01*
X87757000Y-54553750D01*
X87757000Y-55753000D01*
X88956250Y-55753000D01*
X89115000Y-55594250D01*
X89118072Y-55030000D01*
X89105812Y-54905518D01*
X89069502Y-54785820D01*
X89010537Y-54675506D01*
X88931185Y-54578815D01*
X88834494Y-54499463D01*
X88724180Y-54440498D01*
X88604482Y-54404188D01*
X88480000Y-54391928D01*
X87915750Y-54395000D01*
X87757000Y-54553750D01*
X87503000Y-54553750D01*
X87344250Y-54395000D01*
X86780000Y-54391928D01*
X86655518Y-54404188D01*
X86535820Y-54440498D01*
X86425506Y-54499463D01*
X86328815Y-54578815D01*
X86249463Y-54675506D01*
X86190498Y-54785820D01*
X86169607Y-54854687D01*
X86145134Y-54824866D01*
X85919014Y-54639294D01*
X85661034Y-54501401D01*
X85381111Y-54416487D01*
X85162950Y-54395000D01*
X85017050Y-54395000D01*
X84798889Y-54416487D01*
X84518966Y-54501401D01*
X84260986Y-54639294D01*
X84034866Y-54824866D01*
X83849294Y-55050986D01*
X83711401Y-55308966D01*
X83626487Y-55588889D01*
X83597815Y-55880000D01*
X83626487Y-56171111D01*
X83711401Y-56451034D01*
X83849294Y-56709014D01*
X84034866Y-56935134D01*
X84260986Y-57120706D01*
X84330000Y-57157595D01*
X84330001Y-58273271D01*
X84144492Y-58255000D01*
X84003508Y-58255000D01*
X83792691Y-58275764D01*
X83522192Y-58357818D01*
X83272899Y-58491068D01*
X83054392Y-58670392D01*
X82875068Y-58888899D01*
X82741818Y-59138192D01*
X82659764Y-59408691D01*
X82632057Y-59690000D01*
X76860000Y-59690000D01*
X76860000Y-54000000D01*
X99376729Y-54000000D01*
X99245722Y-54070025D01*
X99245722Y-54070025D01*
G37*
X99245722Y-54070025D02*
X99166520Y-54135025D01*
X99129998Y-54164998D01*
X99106200Y-54193996D01*
X96262998Y-57037199D01*
X96234000Y-57060997D01*
X96210202Y-57089995D01*
X96210201Y-57089996D01*
X96139026Y-57176722D01*
X96068454Y-57308752D01*
X96051392Y-57365000D01*
X96024998Y-57452012D01*
X96014440Y-57559205D01*
X96010324Y-57600998D01*
X96014001Y-57638330D01*
X96014001Y-58469099D01*
X95972899Y-58491068D01*
X95754392Y-58670392D01*
X95575068Y-58888899D01*
X95504000Y-59021858D01*
X95432932Y-58888899D01*
X95253608Y-58670392D01*
X95035101Y-58491068D01*
X94785808Y-58357818D01*
X94515309Y-58275764D01*
X94304492Y-58255000D01*
X94163508Y-58255000D01*
X93952691Y-58275764D01*
X93682192Y-58357818D01*
X93432899Y-58491068D01*
X93214392Y-58670392D01*
X93035068Y-58888899D01*
X92964000Y-59021858D01*
X92892932Y-58888899D01*
X92713608Y-58670392D01*
X92495101Y-58491068D01*
X92245808Y-58357818D01*
X91975309Y-58275764D01*
X91764492Y-58255000D01*
X91623508Y-58255000D01*
X91412691Y-58275764D01*
X91142192Y-58357818D01*
X90892899Y-58491068D01*
X90674392Y-58670392D01*
X90495068Y-58888899D01*
X90421421Y-59026682D01*
X90306385Y-58834869D01*
X90117414Y-58626481D01*
X89891420Y-58458963D01*
X89637087Y-58338754D01*
X89503039Y-58298096D01*
X89281000Y-58420085D01*
X89281000Y-59563000D01*
X89301000Y-59563000D01*
X89301000Y-59817000D01*
X89281000Y-59817000D01*
X89281000Y-60959915D01*
X89503039Y-61081904D01*
X89637087Y-61041246D01*
X89891420Y-60921037D01*
X90117414Y-60753519D01*
X90306385Y-60545131D01*
X90421421Y-60353318D01*
X90495068Y-60491101D01*
X90674392Y-60709608D01*
X90892899Y-60888932D01*
X91142192Y-61022182D01*
X91412691Y-61104236D01*
X91623508Y-61125000D01*
X91764492Y-61125000D01*
X91975309Y-61104236D01*
X92245808Y-61022182D01*
X92495101Y-60888932D01*
X92713608Y-60709608D01*
X92892932Y-60491101D01*
X92964000Y-60358142D01*
X93035068Y-60491101D01*
X93214392Y-60709608D01*
X93432899Y-60888932D01*
X93682192Y-61022182D01*
X93952691Y-61104236D01*
X94163508Y-61125000D01*
X94304492Y-61125000D01*
X94515309Y-61104236D01*
X94785808Y-61022182D01*
X95035101Y-60888932D01*
X95253608Y-60709608D01*
X95432932Y-60491101D01*
X95504000Y-60358142D01*
X95575068Y-60491101D01*
X95754392Y-60709608D01*
X95972899Y-60888932D01*
X96222192Y-61022182D01*
X96492691Y-61104236D01*
X96703508Y-61125000D01*
X96844492Y-61125000D01*
X97055309Y-61104236D01*
X97139002Y-61078848D01*
X97139002Y-62198826D01*
X93723003Y-65614826D01*
X93693999Y-65638629D01*
X93638871Y-65705804D01*
X93599026Y-65754354D01*
X93541314Y-65862325D01*
X93528454Y-65886384D01*
X93484997Y-66029645D01*
X93479427Y-66086198D01*
X93432899Y-66111068D01*
X93214392Y-66290392D01*
X93035068Y-66508899D01*
X92964000Y-66641858D01*
X92892932Y-66508899D01*
X92713608Y-66290392D01*
X92495101Y-66111068D01*
X92245808Y-65977818D01*
X91975309Y-65895764D01*
X91764492Y-65875000D01*
X91623508Y-65875000D01*
X91412691Y-65895764D01*
X91142192Y-65977818D01*
X90892899Y-66111068D01*
X90674392Y-66290392D01*
X90495068Y-66508899D01*
X90424000Y-66641858D01*
X90352932Y-66508899D01*
X90173608Y-66290392D01*
X89955101Y-66111068D01*
X89705808Y-65977818D01*
X89435309Y-65895764D01*
X89224492Y-65875000D01*
X89083508Y-65875000D01*
X88872691Y-65895764D01*
X88602192Y-65977818D01*
X88352899Y-66111068D01*
X88134392Y-66290392D01*
X87955068Y-66508899D01*
X87884000Y-66641858D01*
X87812932Y-66508899D01*
X87633608Y-66290392D01*
X87415101Y-66111068D01*
X87165808Y-65977818D01*
X86895309Y-65895764D01*
X86684492Y-65875000D01*
X86543508Y-65875000D01*
X86332691Y-65895764D01*
X86062192Y-65977818D01*
X85812899Y-66111068D01*
X85594392Y-66290392D01*
X85501581Y-66403482D01*
X85499812Y-66385518D01*
X85463502Y-66265820D01*
X85404537Y-66155506D01*
X85325185Y-66058815D01*
X85228494Y-65979463D01*
X85118180Y-65920498D01*
X84998482Y-65884188D01*
X84874000Y-65871928D01*
X83274000Y-65871928D01*
X83149518Y-65884188D01*
X83029820Y-65920498D01*
X82919506Y-65979463D01*
X82822815Y-66058815D01*
X82743463Y-66155506D01*
X82684498Y-66265820D01*
X82648188Y-66385518D01*
X82635928Y-66510000D01*
X82635928Y-68110000D01*
X82648188Y-68234482D01*
X82684498Y-68354180D01*
X82743463Y-68464494D01*
X82822815Y-68561185D01*
X82919506Y-68640537D01*
X83029820Y-68699502D01*
X83149518Y-68735812D01*
X83274000Y-68748072D01*
X83419674Y-68748072D01*
X83439026Y-68784276D01*
X83478871Y-68832826D01*
X83533999Y-68900001D01*
X83563000Y-68923802D01*
X83585200Y-68946002D01*
X83609000Y-68975002D01*
X83724725Y-69069975D01*
X83856754Y-69140547D01*
X84000015Y-69184004D01*
X84111668Y-69195001D01*
X84111678Y-69195001D01*
X84149000Y-69198677D01*
X84186323Y-69195001D01*
X91867790Y-69195001D01*
X92068797Y-69396008D01*
X92092600Y-69425012D01*
X92208325Y-69519985D01*
X92340354Y-69590557D01*
X92483615Y-69634014D01*
X92595268Y-69645011D01*
X92595277Y-69645011D01*
X92632600Y-69648687D01*
X92669923Y-69645011D01*
X109526658Y-69645011D01*
X109563991Y-69648688D01*
X109601324Y-69645011D01*
X109712977Y-69634014D01*
X109856238Y-69590557D01*
X109988267Y-69519985D01*
X110103992Y-69425012D01*
X110198965Y-69309287D01*
X110269537Y-69177258D01*
X110312994Y-69033997D01*
X110327668Y-68885011D01*
X110323991Y-68847678D01*
X110323991Y-68720687D01*
X110335691Y-68724236D01*
X110546508Y-68745000D01*
X110687492Y-68745000D01*
X110898309Y-68724236D01*
X111168808Y-68642182D01*
X111418101Y-68508932D01*
X111636608Y-68329608D01*
X111815932Y-68111101D01*
X111887000Y-67978142D01*
X111958068Y-68111101D01*
X112137392Y-68329608D01*
X112355899Y-68508932D01*
X112605192Y-68642182D01*
X112875691Y-68724236D01*
X113086508Y-68745000D01*
X113227492Y-68745000D01*
X113438309Y-68724236D01*
X113482906Y-68710708D01*
X113794000Y-69021802D01*
X113794000Y-69304678D01*
X113790324Y-69342000D01*
X113794000Y-69379322D01*
X113794000Y-69379332D01*
X113803216Y-69472904D01*
X113665000Y-69545845D01*
X113665000Y-70739000D01*
X113685000Y-70739000D01*
X113685000Y-70993000D01*
X113665000Y-70993000D01*
X113665000Y-72186155D01*
X113894890Y-72307476D01*
X114042099Y-72262825D01*
X114304920Y-72137641D01*
X114538269Y-71963588D01*
X114733178Y-71747355D01*
X114802799Y-71630477D01*
X114837294Y-71695014D01*
X115022866Y-71921134D01*
X115248986Y-72106706D01*
X115506966Y-72244599D01*
X115786889Y-72329513D01*
X116005050Y-72351000D01*
X116150950Y-72351000D01*
X116369111Y-72329513D01*
X116443995Y-72306797D01*
X116689202Y-72552004D01*
X116713000Y-72581002D01*
X116828725Y-72675975D01*
X116960754Y-72746547D01*
X117104015Y-72790004D01*
X117215668Y-72801001D01*
X117215677Y-72801001D01*
X117253000Y-72804677D01*
X117290323Y-72801001D01*
X127057677Y-72801001D01*
X127094999Y-72804677D01*
X127132321Y-72801001D01*
X127132332Y-72801001D01*
X127243985Y-72790004D01*
X127387246Y-72746547D01*
X127519275Y-72675975D01*
X127635000Y-72581002D01*
X127658802Y-72551999D01*
X127863119Y-72347682D01*
X127928000Y-72354072D01*
X129628000Y-72354072D01*
X129752482Y-72341812D01*
X129872180Y-72305502D01*
X129982494Y-72246537D01*
X130079185Y-72167185D01*
X130158537Y-72070494D01*
X130217502Y-71960180D01*
X130253812Y-71840482D01*
X130266072Y-71716000D01*
X130266072Y-70016000D01*
X130253812Y-69891518D01*
X130217502Y-69771820D01*
X130158537Y-69661506D01*
X130079185Y-69564815D01*
X129982494Y-69485463D01*
X129872180Y-69426498D01*
X129752482Y-69390188D01*
X129628000Y-69377928D01*
X129054873Y-69377928D01*
X130065730Y-68367072D01*
X131628000Y-68367072D01*
X131801254Y-68350008D01*
X131967850Y-68299472D01*
X132121386Y-68217405D01*
X132255962Y-68106962D01*
X132366405Y-67972386D01*
X132448472Y-67818850D01*
X132499008Y-67652254D01*
X132516072Y-67479000D01*
X132516072Y-66379000D01*
X132499008Y-66205746D01*
X132448472Y-66039150D01*
X132366405Y-65885614D01*
X132255962Y-65751038D01*
X132121386Y-65640595D01*
X132116774Y-65638130D01*
X133135000Y-65638130D01*
X133135000Y-65659002D01*
X133299185Y-65659002D01*
X133178519Y-65888891D01*
X133275843Y-66163252D01*
X133424822Y-66413355D01*
X133619731Y-66629588D01*
X133853080Y-66803641D01*
X134115901Y-66928825D01*
X134263110Y-66973476D01*
X134493000Y-66852155D01*
X134493000Y-65659000D01*
X134473000Y-65659000D01*
X134473000Y-65405000D01*
X134493000Y-65405000D01*
X134493000Y-65385000D01*
X134747000Y-65385000D01*
X134747000Y-65405000D01*
X134767000Y-65405000D01*
X134767000Y-65659000D01*
X134747000Y-65659000D01*
X134747000Y-66852155D01*
X134976890Y-66973476D01*
X135124099Y-66928825D01*
X135386920Y-66803641D01*
X135620269Y-66629588D01*
X135815178Y-66413355D01*
X135884799Y-66296477D01*
X135919294Y-66361014D01*
X136104866Y-66587134D01*
X136330986Y-66772706D01*
X136588966Y-66910599D01*
X136868889Y-66995513D01*
X137087050Y-67017000D01*
X137232950Y-67017000D01*
X137451111Y-66995513D01*
X137731034Y-66910599D01*
X137989014Y-66772706D01*
X138215134Y-66587134D01*
X138239607Y-66557313D01*
X138260498Y-66626180D01*
X138319463Y-66736494D01*
X138398815Y-66833185D01*
X138495506Y-66912537D01*
X138605820Y-66971502D01*
X138725518Y-67007812D01*
X138850000Y-67020072D01*
X140550000Y-67020072D01*
X140674482Y-67007812D01*
X140794180Y-66971502D01*
X140904494Y-66912537D01*
X141001185Y-66833185D01*
X141080537Y-66736494D01*
X141139502Y-66626180D01*
X141175812Y-66506482D01*
X141188072Y-66382000D01*
X141188072Y-64682000D01*
X141175812Y-64557518D01*
X141139502Y-64437820D01*
X141080537Y-64327506D01*
X141001185Y-64230815D01*
X140904494Y-64151463D01*
X140794180Y-64092498D01*
X140674482Y-64056188D01*
X140550000Y-64043928D01*
X138850000Y-64043928D01*
X138725518Y-64056188D01*
X138605820Y-64092498D01*
X138495506Y-64151463D01*
X138398815Y-64230815D01*
X138319463Y-64327506D01*
X138260498Y-64437820D01*
X138239607Y-64506687D01*
X138215134Y-64476866D01*
X137989014Y-64291294D01*
X137731034Y-64153401D01*
X137451111Y-64068487D01*
X137232950Y-64047000D01*
X137087050Y-64047000D01*
X136868889Y-64068487D01*
X136588966Y-64153401D01*
X136330986Y-64291294D01*
X136104866Y-64476866D01*
X135919294Y-64702986D01*
X135884799Y-64767523D01*
X135815178Y-64650645D01*
X135620269Y-64434412D01*
X135386920Y-64260359D01*
X135318589Y-64227812D01*
X138179003Y-61367399D01*
X138208001Y-61343601D01*
X138302974Y-61227876D01*
X138322326Y-61191672D01*
X138531600Y-61191672D01*
X138656082Y-61179412D01*
X138775780Y-61143102D01*
X138886094Y-61084137D01*
X138982785Y-61004785D01*
X139062137Y-60908094D01*
X139121102Y-60797780D01*
X139157412Y-60678082D01*
X139169672Y-60553600D01*
X139169672Y-58826400D01*
X139157412Y-58701918D01*
X139121102Y-58582220D01*
X139062137Y-58471906D01*
X138982785Y-58375215D01*
X138886094Y-58295863D01*
X138775780Y-58236898D01*
X138724735Y-58221414D01*
X138732797Y-58214797D01*
X138920069Y-57986606D01*
X139059225Y-57726264D01*
X139144916Y-57443777D01*
X139173851Y-57150000D01*
X139144916Y-56856223D01*
X139059225Y-56573736D01*
X138920069Y-56313394D01*
X138732797Y-56085203D01*
X138504606Y-55897931D01*
X138244264Y-55758775D01*
X137961777Y-55673084D01*
X137741619Y-55651400D01*
X137594381Y-55651400D01*
X137374223Y-55673084D01*
X137091736Y-55758775D01*
X136831394Y-55897931D01*
X136603203Y-56085203D01*
X136415931Y-56313394D01*
X136392137Y-56357910D01*
X136334817Y-56261512D01*
X136138293Y-56043146D01*
X135902944Y-55867316D01*
X135637814Y-55740778D01*
X135487026Y-55695042D01*
X135255000Y-55816183D01*
X135255000Y-57023000D01*
X135275000Y-57023000D01*
X135275000Y-57277000D01*
X135255000Y-57277000D01*
X135255000Y-59563000D01*
X135275000Y-59563000D01*
X135275000Y-59817000D01*
X135255000Y-59817000D01*
X135255000Y-61023817D01*
X135487026Y-61144958D01*
X135637814Y-61099222D01*
X135902944Y-60972684D01*
X136138293Y-60796854D01*
X136195376Y-60733426D01*
X136214898Y-60797780D01*
X136273863Y-60908094D01*
X136353215Y-61004785D01*
X136374525Y-61022273D01*
X133278669Y-64118130D01*
X130593333Y-64118130D01*
X130556000Y-64114453D01*
X130518667Y-64118130D01*
X130407014Y-64129127D01*
X130263753Y-64172584D01*
X130131724Y-64243156D01*
X130015999Y-64338129D01*
X129921026Y-64453854D01*
X129850454Y-64585883D01*
X129806997Y-64729144D01*
X129792323Y-64878130D01*
X129796000Y-64915463D01*
X129796000Y-65490928D01*
X129528000Y-65490928D01*
X129354746Y-65507992D01*
X129188150Y-65558528D01*
X129034614Y-65640595D01*
X128900038Y-65751038D01*
X128837031Y-65827813D01*
X128808537Y-65774506D01*
X128729185Y-65677815D01*
X128632494Y-65598463D01*
X128522180Y-65539498D01*
X128402482Y-65503188D01*
X128278000Y-65490928D01*
X127263750Y-65494000D01*
X127105000Y-65652750D01*
X127105000Y-66802000D01*
X127125000Y-66802000D01*
X127125000Y-67056000D01*
X127105000Y-67056000D01*
X127105000Y-68205250D01*
X127263750Y-68364000D01*
X127917219Y-68365979D01*
X127091997Y-69191202D01*
X127062999Y-69215000D01*
X127039201Y-69243998D01*
X127039200Y-69243999D01*
X126968025Y-69330725D01*
X126897453Y-69462755D01*
X126880093Y-69519985D01*
X126878684Y-69524630D01*
X126809034Y-69487401D01*
X126529111Y-69402487D01*
X126310950Y-69381000D01*
X126165050Y-69381000D01*
X125946889Y-69402487D01*
X125666966Y-69487401D01*
X125408986Y-69625294D01*
X125182866Y-69810866D01*
X124997294Y-70036986D01*
X124968000Y-70091791D01*
X124938706Y-70036986D01*
X124753134Y-69810866D01*
X124527014Y-69625294D01*
X124269034Y-69487401D01*
X123989111Y-69402487D01*
X123770950Y-69381000D01*
X123625050Y-69381000D01*
X123406889Y-69402487D01*
X123126966Y-69487401D01*
X122868986Y-69625294D01*
X122642866Y-69810866D01*
X122457294Y-70036986D01*
X122428000Y-70091791D01*
X122398706Y-70036986D01*
X122213134Y-69810866D01*
X121987014Y-69625294D01*
X121729034Y-69487401D01*
X121449111Y-69402487D01*
X121230950Y-69381000D01*
X121085050Y-69381000D01*
X120866889Y-69402487D01*
X120586966Y-69487401D01*
X120328986Y-69625294D01*
X120227999Y-69708172D01*
X120227999Y-68367072D01*
X120811000Y-68367072D01*
X120984254Y-68350008D01*
X121150850Y-68299472D01*
X121304386Y-68217405D01*
X121438962Y-68106962D01*
X121501969Y-68030187D01*
X121530463Y-68083494D01*
X121609815Y-68180185D01*
X121706506Y-68259537D01*
X121816820Y-68318502D01*
X121936518Y-68354812D01*
X122061000Y-68367072D01*
X123075250Y-68364000D01*
X123234000Y-68205250D01*
X123234000Y-67056000D01*
X123488000Y-67056000D01*
X123488000Y-68205250D01*
X123646750Y-68364000D01*
X124661000Y-68367072D01*
X124785482Y-68354812D01*
X124905180Y-68318502D01*
X125015494Y-68259537D01*
X125112185Y-68180185D01*
X125169500Y-68110346D01*
X125226815Y-68180185D01*
X125323506Y-68259537D01*
X125433820Y-68318502D01*
X125553518Y-68354812D01*
X125678000Y-68367072D01*
X126692250Y-68364000D01*
X126851000Y-68205250D01*
X126851000Y-67056000D01*
X125201750Y-67056000D01*
X125169500Y-67088250D01*
X125137250Y-67056000D01*
X123488000Y-67056000D01*
X123234000Y-67056000D01*
X123214000Y-67056000D01*
X123214000Y-66802000D01*
X123234000Y-66802000D01*
X123234000Y-65652750D01*
X123488000Y-65652750D01*
X123488000Y-66802000D01*
X125137250Y-66802000D01*
X125169500Y-66769750D01*
X125201750Y-66802000D01*
X126851000Y-66802000D01*
X126851000Y-65652750D01*
X126692250Y-65494000D01*
X125678000Y-65490928D01*
X125553518Y-65503188D01*
X125433820Y-65539498D01*
X125323506Y-65598463D01*
X125226815Y-65677815D01*
X125169500Y-65747654D01*
X125112185Y-65677815D01*
X125015494Y-65598463D01*
X124905180Y-65539498D01*
X124785482Y-65503188D01*
X124661000Y-65490928D01*
X123646750Y-65494000D01*
X123488000Y-65652750D01*
X123234000Y-65652750D01*
X123075250Y-65494000D01*
X122779696Y-65493105D01*
X127131101Y-61141701D01*
X127214223Y-61166916D01*
X127434381Y-61188600D01*
X127581619Y-61188600D01*
X127801777Y-61166916D01*
X128084264Y-61081225D01*
X128344606Y-60942069D01*
X128572797Y-60754797D01*
X128760069Y-60526606D01*
X128783863Y-60482090D01*
X128841183Y-60578488D01*
X129037707Y-60796854D01*
X129273056Y-60972684D01*
X129538186Y-61099222D01*
X129688974Y-61144958D01*
X129921000Y-61023817D01*
X129921000Y-59817000D01*
X130175000Y-59817000D01*
X130175000Y-61023817D01*
X130407026Y-61144958D01*
X130557814Y-61099222D01*
X130822944Y-60972684D01*
X131058293Y-60796854D01*
X131254817Y-60578488D01*
X131318000Y-60472230D01*
X131381183Y-60578488D01*
X131577707Y-60796854D01*
X131813056Y-60972684D01*
X132078186Y-61099222D01*
X132228974Y-61144958D01*
X132461000Y-61023817D01*
X132461000Y-59817000D01*
X132715000Y-59817000D01*
X132715000Y-61023817D01*
X132947026Y-61144958D01*
X133097814Y-61099222D01*
X133362944Y-60972684D01*
X133598293Y-60796854D01*
X133794817Y-60578488D01*
X133858000Y-60472230D01*
X133921183Y-60578488D01*
X134117707Y-60796854D01*
X134353056Y-60972684D01*
X134618186Y-61099222D01*
X134768974Y-61144958D01*
X135001000Y-61023817D01*
X135001000Y-59817000D01*
X132715000Y-59817000D01*
X132461000Y-59817000D01*
X130175000Y-59817000D01*
X129921000Y-59817000D01*
X129901000Y-59817000D01*
X129901000Y-59563000D01*
X129921000Y-59563000D01*
X129921000Y-57277000D01*
X130175000Y-57277000D01*
X130175000Y-59563000D01*
X132461000Y-59563000D01*
X132461000Y-57277000D01*
X132715000Y-57277000D01*
X132715000Y-59563000D01*
X135001000Y-59563000D01*
X135001000Y-57277000D01*
X132715000Y-57277000D01*
X132461000Y-57277000D01*
X130175000Y-57277000D01*
X129921000Y-57277000D01*
X129901000Y-57277000D01*
X129901000Y-57023000D01*
X129921000Y-57023000D01*
X129921000Y-55816183D01*
X130175000Y-55816183D01*
X130175000Y-57023000D01*
X132461000Y-57023000D01*
X132461000Y-55816183D01*
X132715000Y-55816183D01*
X132715000Y-57023000D01*
X135001000Y-57023000D01*
X135001000Y-55816183D01*
X134768974Y-55695042D01*
X134618186Y-55740778D01*
X134353056Y-55867316D01*
X134117707Y-56043146D01*
X133921183Y-56261512D01*
X133858000Y-56367770D01*
X133794817Y-56261512D01*
X133598293Y-56043146D01*
X133362944Y-55867316D01*
X133097814Y-55740778D01*
X132947026Y-55695042D01*
X132715000Y-55816183D01*
X132461000Y-55816183D01*
X132228974Y-55695042D01*
X132078186Y-55740778D01*
X131813056Y-55867316D01*
X131577707Y-56043146D01*
X131381183Y-56261512D01*
X131318000Y-56367770D01*
X131254817Y-56261512D01*
X131058293Y-56043146D01*
X130822944Y-55867316D01*
X130557814Y-55740778D01*
X130407026Y-55695042D01*
X130175000Y-55816183D01*
X129921000Y-55816183D01*
X129688974Y-55695042D01*
X129538186Y-55740778D01*
X129273056Y-55867316D01*
X129037707Y-56043146D01*
X128841183Y-56261512D01*
X128783863Y-56357910D01*
X128760069Y-56313394D01*
X128572797Y-56085203D01*
X128344606Y-55897931D01*
X128084264Y-55758775D01*
X127801777Y-55673084D01*
X127581619Y-55651400D01*
X127434381Y-55651400D01*
X127214223Y-55673084D01*
X126931736Y-55758775D01*
X126671394Y-55897931D01*
X126443203Y-56085203D01*
X126255931Y-56313394D01*
X126238000Y-56346940D01*
X126220069Y-56313394D01*
X126032797Y-56085203D01*
X125804606Y-55897931D01*
X125544264Y-55758775D01*
X125261777Y-55673084D01*
X125041619Y-55651400D01*
X124894381Y-55651400D01*
X124674223Y-55673084D01*
X124391736Y-55758775D01*
X124131394Y-55897931D01*
X123903203Y-56085203D01*
X123715931Y-56313394D01*
X123698000Y-56346940D01*
X123680069Y-56313394D01*
X123492797Y-56085203D01*
X123264606Y-55897931D01*
X123004264Y-55758775D01*
X122721777Y-55673084D01*
X122501619Y-55651400D01*
X122354381Y-55651400D01*
X122134223Y-55673084D01*
X121851736Y-55758775D01*
X121591394Y-55897931D01*
X121363203Y-56085203D01*
X121175931Y-56313394D01*
X121158000Y-56346940D01*
X121140069Y-56313394D01*
X120952797Y-56085203D01*
X120724606Y-55897931D01*
X120464264Y-55758775D01*
X120181777Y-55673084D01*
X119961619Y-55651400D01*
X119814381Y-55651400D01*
X119594223Y-55673084D01*
X119311736Y-55758775D01*
X119051394Y-55897931D01*
X118823203Y-56085203D01*
X118635931Y-56313394D01*
X118496775Y-56573736D01*
X118411084Y-56856223D01*
X118382149Y-57150000D01*
X118411084Y-57443777D01*
X118496775Y-57726264D01*
X118635931Y-57986606D01*
X118823203Y-58214797D01*
X119051394Y-58402069D01*
X119084940Y-58420000D01*
X119051394Y-58437931D01*
X118823203Y-58625203D01*
X118635931Y-58853394D01*
X118496775Y-59113736D01*
X118411084Y-59396223D01*
X118382149Y-59690000D01*
X118411084Y-59983777D01*
X118496775Y-60266264D01*
X118635931Y-60526606D01*
X118823203Y-60754797D01*
X119051394Y-60942069D01*
X119311736Y-61081225D01*
X119594223Y-61166916D01*
X119814381Y-61188600D01*
X119961619Y-61188600D01*
X120181777Y-61166916D01*
X120464264Y-61081225D01*
X120724606Y-60942069D01*
X120952797Y-60754797D01*
X121140069Y-60526606D01*
X121158000Y-60493060D01*
X121175931Y-60526606D01*
X121363203Y-60754797D01*
X121591394Y-60942069D01*
X121851736Y-61081225D01*
X122134223Y-61166916D01*
X122354381Y-61188600D01*
X122501619Y-61188600D01*
X122721777Y-61166916D01*
X123004264Y-61081225D01*
X123264606Y-60942069D01*
X123492797Y-60754797D01*
X123680069Y-60526606D01*
X123698000Y-60493060D01*
X123715931Y-60526606D01*
X123903203Y-60754797D01*
X124131394Y-60942069D01*
X124391736Y-61081225D01*
X124674223Y-61166916D01*
X124894381Y-61188600D01*
X124934598Y-61188600D01*
X120632271Y-65490928D01*
X118711000Y-65490928D01*
X118537746Y-65507992D01*
X118528001Y-65510948D01*
X118528001Y-62673322D01*
X118531677Y-62635999D01*
X118528001Y-62598676D01*
X118528001Y-62598666D01*
X118517004Y-62487013D01*
X118473547Y-62343752D01*
X118428403Y-62259294D01*
X118402975Y-62211722D01*
X118331800Y-62124996D01*
X118308002Y-62095998D01*
X118279004Y-62072200D01*
X112685807Y-56479004D01*
X112662004Y-56450000D01*
X112546279Y-56355027D01*
X112425001Y-56290202D01*
X112425001Y-54732666D01*
X112414004Y-54621013D01*
X112370547Y-54477752D01*
X112299975Y-54345723D01*
X112205002Y-54229998D01*
X112169302Y-54200700D01*
X112140002Y-54164998D01*
X112024277Y-54070025D01*
X111893271Y-54000000D01*
X146660000Y-54000000D01*
X146660001Y-73000000D01*
X76860000Y-73000000D01*
X76860000Y-70524000D01*
X92745928Y-70524000D01*
X92745928Y-72224000D01*
X92758188Y-72348482D01*
X92794498Y-72468180D01*
X92853463Y-72578494D01*
X92932815Y-72675185D01*
X93029506Y-72754537D01*
X93139820Y-72813502D01*
X93259518Y-72849812D01*
X93384000Y-72862072D01*
X95084000Y-72862072D01*
X95208482Y-72849812D01*
X95328180Y-72813502D01*
X95438494Y-72754537D01*
X95535185Y-72675185D01*
X95614537Y-72578494D01*
X95673502Y-72468180D01*
X95697966Y-72387534D01*
X95773731Y-72471588D01*
X96007080Y-72645641D01*
X96269901Y-72770825D01*
X96417110Y-72815476D01*
X96647000Y-72694155D01*
X96647000Y-71501000D01*
X96901000Y-71501000D01*
X96901000Y-72694155D01*
X97130890Y-72815476D01*
X97278099Y-72770825D01*
X97540920Y-72645641D01*
X97774269Y-72471588D01*
X97969178Y-72255355D01*
X98118157Y-72005252D01*
X98215481Y-71730891D01*
X98094814Y-71501000D01*
X96901000Y-71501000D01*
X96647000Y-71501000D01*
X96627000Y-71501000D01*
X96627000Y-71247000D01*
X96647000Y-71247000D01*
X96647000Y-70053845D01*
X96901000Y-70053845D01*
X96901000Y-71247000D01*
X98094814Y-71247000D01*
X98107468Y-71222891D01*
X112096519Y-71222891D01*
X112193843Y-71497252D01*
X112342822Y-71747355D01*
X112537731Y-71963588D01*
X112771080Y-72137641D01*
X113033901Y-72262825D01*
X113181110Y-72307476D01*
X113411000Y-72186155D01*
X113411000Y-70993000D01*
X112217186Y-70993000D01*
X112096519Y-71222891D01*
X98107468Y-71222891D01*
X98215481Y-71017109D01*
X98118157Y-70742748D01*
X97978986Y-70509109D01*
X112096519Y-70509109D01*
X112217186Y-70739000D01*
X113411000Y-70739000D01*
X113411000Y-69545845D01*
X113181110Y-69424524D01*
X113033901Y-69469175D01*
X112771080Y-69594359D01*
X112537731Y-69768412D01*
X112342822Y-69984645D01*
X112193843Y-70234748D01*
X112096519Y-70509109D01*
X97978986Y-70509109D01*
X97969178Y-70492645D01*
X97774269Y-70276412D01*
X97540920Y-70102359D01*
X97278099Y-69977175D01*
X97130890Y-69932524D01*
X96901000Y-70053845D01*
X96647000Y-70053845D01*
X96417110Y-69932524D01*
X96269901Y-69977175D01*
X96007080Y-70102359D01*
X95773731Y-70276412D01*
X95697966Y-70360466D01*
X95673502Y-70279820D01*
X95614537Y-70169506D01*
X95535185Y-70072815D01*
X95438494Y-69993463D01*
X95328180Y-69934498D01*
X95208482Y-69898188D01*
X95084000Y-69885928D01*
X93384000Y-69885928D01*
X93259518Y-69898188D01*
X93139820Y-69934498D01*
X93029506Y-69993463D01*
X92932815Y-70072815D01*
X92853463Y-70169506D01*
X92794498Y-70279820D01*
X92758188Y-70399518D01*
X92745928Y-70524000D01*
X76860000Y-70524000D01*
X76860000Y-66890000D01*
X77251928Y-66890000D01*
X77264188Y-67014482D01*
X77300498Y-67134180D01*
X77359463Y-67244494D01*
X77438815Y-67341185D01*
X77535506Y-67420537D01*
X77645820Y-67479502D01*
X77765518Y-67515812D01*
X77890000Y-67528072D01*
X78454250Y-67525000D01*
X78613000Y-67366250D01*
X78613000Y-66167000D01*
X78867000Y-66167000D01*
X78867000Y-67366250D01*
X79025750Y-67525000D01*
X79590000Y-67528072D01*
X79714482Y-67515812D01*
X79834180Y-67479502D01*
X79944494Y-67420537D01*
X80041185Y-67341185D01*
X80120537Y-67244494D01*
X80179502Y-67134180D01*
X80215812Y-67014482D01*
X80228072Y-66890000D01*
X80225000Y-66325750D01*
X80066250Y-66167000D01*
X78867000Y-66167000D01*
X78613000Y-66167000D01*
X77413750Y-66167000D01*
X77255000Y-66325750D01*
X77251928Y-66890000D01*
X76860000Y-66890000D01*
X76860000Y-63500000D01*
X77247815Y-63500000D01*
X77276487Y-63791111D01*
X77361401Y-64071034D01*
X77499294Y-64329014D01*
X77684866Y-64555134D01*
X77714687Y-64579607D01*
X77645820Y-64600498D01*
X77535506Y-64659463D01*
X77438815Y-64738815D01*
X77359463Y-64835506D01*
X77300498Y-64945820D01*
X77264188Y-65065518D01*
X77251928Y-65190000D01*
X77255000Y-65754250D01*
X77413750Y-65913000D01*
X78613000Y-65913000D01*
X78613000Y-65893000D01*
X78867000Y-65893000D01*
X78867000Y-65913000D01*
X80066250Y-65913000D01*
X80225000Y-65754250D01*
X80228072Y-65190000D01*
X80215812Y-65065518D01*
X80179502Y-64945820D01*
X80120537Y-64835506D01*
X80041185Y-64738815D01*
X79944494Y-64659463D01*
X79834180Y-64600498D01*
X79765313Y-64579607D01*
X79795134Y-64555134D01*
X79980706Y-64329014D01*
X80118599Y-64071034D01*
X80203513Y-63791111D01*
X80232185Y-63500000D01*
X80203513Y-63208889D01*
X80118599Y-62928966D01*
X79980706Y-62670986D01*
X79795134Y-62444866D01*
X79569014Y-62259294D01*
X79311034Y-62121401D01*
X79031111Y-62036487D01*
X78812950Y-62015000D01*
X78667050Y-62015000D01*
X78448889Y-62036487D01*
X78168966Y-62121401D01*
X77910986Y-62259294D01*
X77684866Y-62444866D01*
X77499294Y-62670986D01*
X77361401Y-62928966D01*
X77276487Y-63208889D01*
X77247815Y-63500000D01*
X76860000Y-63500000D01*
X76860000Y-59690000D01*
X82632057Y-59690000D01*
X82659764Y-59971309D01*
X82741818Y-60241808D01*
X82875068Y-60491101D01*
X83054392Y-60709608D01*
X83272899Y-60888932D01*
X83522192Y-61022182D01*
X83792691Y-61104236D01*
X84003508Y-61125000D01*
X84144492Y-61125000D01*
X84355309Y-61104236D01*
X84625808Y-61022182D01*
X84875101Y-60888932D01*
X85093608Y-60709608D01*
X85272932Y-60491101D01*
X85344000Y-60358142D01*
X85415068Y-60491101D01*
X85594392Y-60709608D01*
X85812899Y-60888932D01*
X86062192Y-61022182D01*
X86332691Y-61104236D01*
X86543508Y-61125000D01*
X86684492Y-61125000D01*
X86895309Y-61104236D01*
X87165808Y-61022182D01*
X87415101Y-60888932D01*
X87633608Y-60709608D01*
X87812932Y-60491101D01*
X87886579Y-60353318D01*
X88001615Y-60545131D01*
X88190586Y-60753519D01*
X88416580Y-60921037D01*
X88670913Y-61041246D01*
X88804961Y-61081904D01*
X89027000Y-60959915D01*
X89027000Y-59817000D01*
X89007000Y-59817000D01*
X89007000Y-59563000D01*
X89027000Y-59563000D01*
X89027000Y-58420085D01*
X88804961Y-58298096D01*
X88670913Y-58338754D01*
X88416580Y-58458963D01*
X88190586Y-58626481D01*
X88001615Y-58834869D01*
X87886579Y-59026682D01*
X87812932Y-58888899D01*
X87633608Y-58670392D01*
X87415101Y-58491068D01*
X87165808Y-58357818D01*
X86895309Y-58275764D01*
X86684492Y-58255000D01*
X86543508Y-58255000D01*
X86332691Y-58275764D01*
X86062192Y-58357818D01*
X85850000Y-58471237D01*
X85850000Y-57157595D01*
X85919014Y-57120706D01*
X86145134Y-56935134D01*
X86169607Y-56905313D01*
X86190498Y-56974180D01*
X86249463Y-57084494D01*
X86328815Y-57181185D01*
X86425506Y-57260537D01*
X86535820Y-57319502D01*
X86655518Y-57355812D01*
X86780000Y-57368072D01*
X87344250Y-57365000D01*
X87503000Y-57206250D01*
X87503000Y-56007000D01*
X87757000Y-56007000D01*
X87757000Y-57206250D01*
X87915750Y-57365000D01*
X88480000Y-57368072D01*
X88604482Y-57355812D01*
X88724180Y-57319502D01*
X88834494Y-57260537D01*
X88931185Y-57181185D01*
X89010537Y-57084494D01*
X89069502Y-56974180D01*
X89105812Y-56854482D01*
X89118072Y-56730000D01*
X89115000Y-56165750D01*
X88956250Y-56007000D01*
X87757000Y-56007000D01*
X87503000Y-56007000D01*
X87483000Y-56007000D01*
X87483000Y-55753000D01*
X87503000Y-55753000D01*
X87503000Y-54553750D01*
X87757000Y-54553750D01*
X87757000Y-55753000D01*
X88956250Y-55753000D01*
X89115000Y-55594250D01*
X89118072Y-55030000D01*
X89105812Y-54905518D01*
X89069502Y-54785820D01*
X89010537Y-54675506D01*
X88931185Y-54578815D01*
X88834494Y-54499463D01*
X88724180Y-54440498D01*
X88604482Y-54404188D01*
X88480000Y-54391928D01*
X87915750Y-54395000D01*
X87757000Y-54553750D01*
X87503000Y-54553750D01*
X87344250Y-54395000D01*
X86780000Y-54391928D01*
X86655518Y-54404188D01*
X86535820Y-54440498D01*
X86425506Y-54499463D01*
X86328815Y-54578815D01*
X86249463Y-54675506D01*
X86190498Y-54785820D01*
X86169607Y-54854687D01*
X86145134Y-54824866D01*
X85919014Y-54639294D01*
X85661034Y-54501401D01*
X85381111Y-54416487D01*
X85162950Y-54395000D01*
X85017050Y-54395000D01*
X84798889Y-54416487D01*
X84518966Y-54501401D01*
X84260986Y-54639294D01*
X84034866Y-54824866D01*
X83849294Y-55050986D01*
X83711401Y-55308966D01*
X83626487Y-55588889D01*
X83597815Y-55880000D01*
X83626487Y-56171111D01*
X83711401Y-56451034D01*
X83849294Y-56709014D01*
X84034866Y-56935134D01*
X84260986Y-57120706D01*
X84330000Y-57157595D01*
X84330001Y-58273271D01*
X84144492Y-58255000D01*
X84003508Y-58255000D01*
X83792691Y-58275764D01*
X83522192Y-58357818D01*
X83272899Y-58491068D01*
X83054392Y-58670392D01*
X82875068Y-58888899D01*
X82741818Y-59138192D01*
X82659764Y-59408691D01*
X82632057Y-59690000D01*
X76860000Y-59690000D01*
X76860000Y-54000000D01*
X99376729Y-54000000D01*
X99245722Y-54070025D01*
G36*
X109418068Y-60491101D02*
G01*
X109597392Y-60709608D01*
X109815899Y-60888932D01*
X109857001Y-60910901D01*
X109857000Y-64455197D01*
X108402906Y-65909292D01*
X108358309Y-65895764D01*
X108147492Y-65875000D01*
X108006508Y-65875000D01*
X107795691Y-65895764D01*
X107525192Y-65977818D01*
X107275899Y-66111068D01*
X107057392Y-66290392D01*
X106964581Y-66403482D01*
X106962812Y-66385518D01*
X106926502Y-66265820D01*
X106867537Y-66155506D01*
X106788185Y-66058815D01*
X106691494Y-65979463D01*
X106581180Y-65920498D01*
X106461482Y-65884188D01*
X106337000Y-65871928D01*
X104737000Y-65871928D01*
X104612518Y-65884188D01*
X104492820Y-65920498D01*
X104382506Y-65979463D01*
X104285815Y-66058815D01*
X104206463Y-66155506D01*
X104147498Y-66265820D01*
X104111188Y-66385518D01*
X104098928Y-66510000D01*
X104098928Y-68110000D01*
X104100406Y-68125011D01*
X103041516Y-68125011D01*
X103052932Y-68111101D01*
X103186182Y-67861808D01*
X103268236Y-67591309D01*
X103295943Y-67310000D01*
X103268236Y-67028691D01*
X103186182Y-66758192D01*
X103052932Y-66508899D01*
X102873608Y-66290392D01*
X102655101Y-66111068D01*
X102405808Y-65977818D01*
X102135309Y-65895764D01*
X101924492Y-65875000D01*
X101783508Y-65875000D01*
X101572691Y-65895764D01*
X101302192Y-65977818D01*
X101052899Y-66111068D01*
X100834392Y-66290392D01*
X100655068Y-66508899D01*
X100581421Y-66646682D01*
X100466385Y-66454869D01*
X100277414Y-66246481D01*
X100051420Y-66078963D01*
X99797087Y-65958754D01*
X99663039Y-65918096D01*
X99441000Y-66040085D01*
X99441000Y-67183000D01*
X99461000Y-67183000D01*
X99461000Y-67437000D01*
X99441000Y-67437000D01*
X99441000Y-67457000D01*
X99187000Y-67457000D01*
X99187000Y-67437000D01*
X99167000Y-67437000D01*
X99167000Y-67183000D01*
X99187000Y-67183000D01*
X99187000Y-66040085D01*
X98978995Y-65925806D01*
X103526003Y-61378799D01*
X103555000Y-61355002D01*
X103649973Y-61239277D01*
X103720545Y-61107248D01*
X103764002Y-60963987D01*
X103773965Y-60862834D01*
X104271060Y-60365739D01*
X104338068Y-60491101D01*
X104517392Y-60709608D01*
X104735899Y-60888932D01*
X104985192Y-61022182D01*
X105255691Y-61104236D01*
X105466508Y-61125000D01*
X105607492Y-61125000D01*
X105818309Y-61104236D01*
X106088808Y-61022182D01*
X106338101Y-60888932D01*
X106556608Y-60709608D01*
X106735932Y-60491101D01*
X106807000Y-60358142D01*
X106878068Y-60491101D01*
X107057392Y-60709608D01*
X107275899Y-60888932D01*
X107525192Y-61022182D01*
X107795691Y-61104236D01*
X108006508Y-61125000D01*
X108147492Y-61125000D01*
X108358309Y-61104236D01*
X108628808Y-61022182D01*
X108878101Y-60888932D01*
X109096608Y-60709608D01*
X109275932Y-60491101D01*
X109347000Y-60358142D01*
X109418068Y-60491101D01*
X109418068Y-60491101D01*
G37*
X109418068Y-60491101D02*
X109597392Y-60709608D01*
X109815899Y-60888932D01*
X109857001Y-60910901D01*
X109857000Y-64455197D01*
X108402906Y-65909292D01*
X108358309Y-65895764D01*
X108147492Y-65875000D01*
X108006508Y-65875000D01*
X107795691Y-65895764D01*
X107525192Y-65977818D01*
X107275899Y-66111068D01*
X107057392Y-66290392D01*
X106964581Y-66403482D01*
X106962812Y-66385518D01*
X106926502Y-66265820D01*
X106867537Y-66155506D01*
X106788185Y-66058815D01*
X106691494Y-65979463D01*
X106581180Y-65920498D01*
X106461482Y-65884188D01*
X106337000Y-65871928D01*
X104737000Y-65871928D01*
X104612518Y-65884188D01*
X104492820Y-65920498D01*
X104382506Y-65979463D01*
X104285815Y-66058815D01*
X104206463Y-66155506D01*
X104147498Y-66265820D01*
X104111188Y-66385518D01*
X104098928Y-66510000D01*
X104098928Y-68110000D01*
X104100406Y-68125011D01*
X103041516Y-68125011D01*
X103052932Y-68111101D01*
X103186182Y-67861808D01*
X103268236Y-67591309D01*
X103295943Y-67310000D01*
X103268236Y-67028691D01*
X103186182Y-66758192D01*
X103052932Y-66508899D01*
X102873608Y-66290392D01*
X102655101Y-66111068D01*
X102405808Y-65977818D01*
X102135309Y-65895764D01*
X101924492Y-65875000D01*
X101783508Y-65875000D01*
X101572691Y-65895764D01*
X101302192Y-65977818D01*
X101052899Y-66111068D01*
X100834392Y-66290392D01*
X100655068Y-66508899D01*
X100581421Y-66646682D01*
X100466385Y-66454869D01*
X100277414Y-66246481D01*
X100051420Y-66078963D01*
X99797087Y-65958754D01*
X99663039Y-65918096D01*
X99441000Y-66040085D01*
X99441000Y-67183000D01*
X99461000Y-67183000D01*
X99461000Y-67437000D01*
X99441000Y-67437000D01*
X99441000Y-67457000D01*
X99187000Y-67457000D01*
X99187000Y-67437000D01*
X99167000Y-67437000D01*
X99167000Y-67183000D01*
X99187000Y-67183000D01*
X99187000Y-66040085D01*
X98978995Y-65925806D01*
X103526003Y-61378799D01*
X103555000Y-61355002D01*
X103649973Y-61239277D01*
X103720545Y-61107248D01*
X103764002Y-60963987D01*
X103773965Y-60862834D01*
X104271060Y-60365739D01*
X104338068Y-60491101D01*
X104517392Y-60709608D01*
X104735899Y-60888932D01*
X104985192Y-61022182D01*
X105255691Y-61104236D01*
X105466508Y-61125000D01*
X105607492Y-61125000D01*
X105818309Y-61104236D01*
X106088808Y-61022182D01*
X106338101Y-60888932D01*
X106556608Y-60709608D01*
X106735932Y-60491101D01*
X106807000Y-60358142D01*
X106878068Y-60491101D01*
X107057392Y-60709608D01*
X107275899Y-60888932D01*
X107525192Y-61022182D01*
X107795691Y-61104236D01*
X108006508Y-61125000D01*
X108147492Y-61125000D01*
X108358309Y-61104236D01*
X108628808Y-61022182D01*
X108878101Y-60888932D01*
X109096608Y-60709608D01*
X109275932Y-60491101D01*
X109347000Y-60358142D01*
X109418068Y-60491101D01*
G36*
X100655068Y-60491101D02*
G01*
X100834392Y-60709608D01*
X101052899Y-60888932D01*
X101302192Y-61022182D01*
X101572691Y-61104236D01*
X101643944Y-61111254D01*
X97677997Y-65077202D01*
X97648999Y-65101000D01*
X97625201Y-65129998D01*
X97625200Y-65129999D01*
X97554025Y-65216725D01*
X97483453Y-65348755D01*
X97466400Y-65404974D01*
X97439997Y-65492015D01*
X97438897Y-65503188D01*
X97425323Y-65641001D01*
X97429000Y-65678333D01*
X97429000Y-66032975D01*
X97325808Y-65977818D01*
X97055309Y-65895764D01*
X96844492Y-65875000D01*
X96703508Y-65875000D01*
X96492691Y-65895764D01*
X96222192Y-65977818D01*
X95972899Y-66111068D01*
X95754392Y-66290392D01*
X95575068Y-66508899D01*
X95504000Y-66641858D01*
X95432932Y-66508899D01*
X95253608Y-66290392D01*
X95222538Y-66264893D01*
X98410004Y-63077428D01*
X98439002Y-63053630D01*
X98465333Y-63021546D01*
X98533975Y-62937906D01*
X98604547Y-62805876D01*
X98610884Y-62784985D01*
X98648004Y-62662615D01*
X98659001Y-62550962D01*
X98659001Y-62550953D01*
X98662677Y-62513630D01*
X98659001Y-62476307D01*
X98659001Y-60967025D01*
X98762192Y-61022182D01*
X99032691Y-61104236D01*
X99243508Y-61125000D01*
X99384492Y-61125000D01*
X99595309Y-61104236D01*
X99865808Y-61022182D01*
X100115101Y-60888932D01*
X100333608Y-60709608D01*
X100512932Y-60491101D01*
X100584000Y-60358142D01*
X100655068Y-60491101D01*
X100655068Y-60491101D01*
G37*
X100655068Y-60491101D02*
X100834392Y-60709608D01*
X101052899Y-60888932D01*
X101302192Y-61022182D01*
X101572691Y-61104236D01*
X101643944Y-61111254D01*
X97677997Y-65077202D01*
X97648999Y-65101000D01*
X97625201Y-65129998D01*
X97625200Y-65129999D01*
X97554025Y-65216725D01*
X97483453Y-65348755D01*
X97466400Y-65404974D01*
X97439997Y-65492015D01*
X97438897Y-65503188D01*
X97425323Y-65641001D01*
X97429000Y-65678333D01*
X97429000Y-66032975D01*
X97325808Y-65977818D01*
X97055309Y-65895764D01*
X96844492Y-65875000D01*
X96703508Y-65875000D01*
X96492691Y-65895764D01*
X96222192Y-65977818D01*
X95972899Y-66111068D01*
X95754392Y-66290392D01*
X95575068Y-66508899D01*
X95504000Y-66641858D01*
X95432932Y-66508899D01*
X95253608Y-66290392D01*
X95222538Y-66264893D01*
X98410004Y-63077428D01*
X98439002Y-63053630D01*
X98465333Y-63021546D01*
X98533975Y-62937906D01*
X98604547Y-62805876D01*
X98610884Y-62784985D01*
X98648004Y-62662615D01*
X98659001Y-62550962D01*
X98659001Y-62550953D01*
X98662677Y-62513630D01*
X98659001Y-62476307D01*
X98659001Y-60967025D01*
X98762192Y-61022182D01*
X99032691Y-61104236D01*
X99243508Y-61125000D01*
X99384492Y-61125000D01*
X99595309Y-61104236D01*
X99865808Y-61022182D01*
X100115101Y-60888932D01*
X100333608Y-60709608D01*
X100512932Y-60491101D01*
X100584000Y-60358142D01*
X100655068Y-60491101D01*
G36*
X103968519Y-55523109D02*
G01*
X104089186Y-55753000D01*
X105283000Y-55753000D01*
X105283000Y-55733000D01*
X105537000Y-55733000D01*
X105537000Y-55753000D01*
X105557000Y-55753000D01*
X105557000Y-56007000D01*
X105537000Y-56007000D01*
X105537000Y-56027000D01*
X105283000Y-56027000D01*
X105283000Y-56007000D01*
X104089186Y-56007000D01*
X103968519Y-56236891D01*
X104065843Y-56511252D01*
X104214822Y-56761355D01*
X104409731Y-56977588D01*
X104643080Y-57151641D01*
X104905901Y-57276825D01*
X105053110Y-57321476D01*
X105282998Y-57200156D01*
X105282998Y-57204198D01*
X103224078Y-59263119D01*
X103186182Y-59138192D01*
X103052932Y-58888899D01*
X102873608Y-58670392D01*
X102655101Y-58491068D01*
X102405808Y-58357818D01*
X102135309Y-58275764D01*
X101924492Y-58255000D01*
X101783508Y-58255000D01*
X101572691Y-58275764D01*
X101302192Y-58357818D01*
X101052899Y-58491068D01*
X100834392Y-58670392D01*
X100655068Y-58888899D01*
X100584000Y-59021858D01*
X100512932Y-58888899D01*
X100333608Y-58670392D01*
X100115101Y-58491068D01*
X99865808Y-58357818D01*
X99595309Y-58275764D01*
X99384492Y-58255000D01*
X99243508Y-58255000D01*
X99032691Y-58275764D01*
X98762192Y-58357818D01*
X98659001Y-58412975D01*
X98659001Y-57863800D01*
X98845801Y-57677000D01*
X98907939Y-57677000D01*
X99107898Y-57637226D01*
X99296256Y-57559205D01*
X99465774Y-57445937D01*
X99609937Y-57301774D01*
X99723205Y-57132256D01*
X99801226Y-56943898D01*
X99841000Y-56743939D01*
X99841000Y-56540061D01*
X99801226Y-56340102D01*
X99723205Y-56151744D01*
X99609937Y-55982226D01*
X99538755Y-55911044D01*
X99984801Y-55464999D01*
X103989132Y-55464999D01*
X103968519Y-55523109D01*
X103968519Y-55523109D01*
G37*
X103968519Y-55523109D02*
X104089186Y-55753000D01*
X105283000Y-55753000D01*
X105283000Y-55733000D01*
X105537000Y-55733000D01*
X105537000Y-55753000D01*
X105557000Y-55753000D01*
X105557000Y-56007000D01*
X105537000Y-56007000D01*
X105537000Y-56027000D01*
X105283000Y-56027000D01*
X105283000Y-56007000D01*
X104089186Y-56007000D01*
X103968519Y-56236891D01*
X104065843Y-56511252D01*
X104214822Y-56761355D01*
X104409731Y-56977588D01*
X104643080Y-57151641D01*
X104905901Y-57276825D01*
X105053110Y-57321476D01*
X105282998Y-57200156D01*
X105282998Y-57204198D01*
X103224078Y-59263119D01*
X103186182Y-59138192D01*
X103052932Y-58888899D01*
X102873608Y-58670392D01*
X102655101Y-58491068D01*
X102405808Y-58357818D01*
X102135309Y-58275764D01*
X101924492Y-58255000D01*
X101783508Y-58255000D01*
X101572691Y-58275764D01*
X101302192Y-58357818D01*
X101052899Y-58491068D01*
X100834392Y-58670392D01*
X100655068Y-58888899D01*
X100584000Y-59021858D01*
X100512932Y-58888899D01*
X100333608Y-58670392D01*
X100115101Y-58491068D01*
X99865808Y-58357818D01*
X99595309Y-58275764D01*
X99384492Y-58255000D01*
X99243508Y-58255000D01*
X99032691Y-58275764D01*
X98762192Y-58357818D01*
X98659001Y-58412975D01*
X98659001Y-57863800D01*
X98845801Y-57677000D01*
X98907939Y-57677000D01*
X99107898Y-57637226D01*
X99296256Y-57559205D01*
X99465774Y-57445937D01*
X99609937Y-57301774D01*
X99723205Y-57132256D01*
X99801226Y-56943898D01*
X99841000Y-56743939D01*
X99841000Y-56540061D01*
X99801226Y-56340102D01*
X99723205Y-56151744D01*
X99609937Y-55982226D01*
X99538755Y-55911044D01*
X99984801Y-55464999D01*
X103989132Y-55464999D01*
X103968519Y-55523109D01*
M02*
