G04 #@! TF.GenerationSoftware,KiCad,Pcbnew,(5.1.2-1)-1*
G04 #@! TF.CreationDate,2019-08-22T09:13:01-07:00*
G04 #@! TF.ProjectId,AS3310_ADSR,41533333-3130-45f4-9144-53522e6b6963,rev?*
G04 #@! TF.SameCoordinates,Original*
G04 #@! TF.FileFunction,Soldermask,Top*
G04 #@! TF.FilePolarity,Negative*
%FSLAX46Y46*%
G04 Gerber Fmt 4.6, Leading zero omitted, Abs format (unit mm)*
G04 Created by KiCad (PCBNEW (5.1.2-1)-1) date 2019-08-22 09:13:01*
%MOMM*%
%LPD*%
G04 APERTURE LIST*
%ADD10C,0.100000*%
G04 APERTURE END LIST*
D10*
G36*
X96884443Y-70479519D02*
G01*
X96950627Y-70486037D01*
X97120466Y-70537557D01*
X97276991Y-70621222D01*
X97312729Y-70650552D01*
X97414186Y-70733814D01*
X97497448Y-70835271D01*
X97526778Y-70871009D01*
X97610443Y-71027534D01*
X97661963Y-71197373D01*
X97679359Y-71374000D01*
X97661963Y-71550627D01*
X97610443Y-71720466D01*
X97610442Y-71720468D01*
X97593942Y-71751337D01*
X97526778Y-71876991D01*
X97497448Y-71912729D01*
X97414186Y-72014186D01*
X97312729Y-72097448D01*
X97276991Y-72126778D01*
X97120466Y-72210443D01*
X96950627Y-72261963D01*
X96884443Y-72268481D01*
X96818260Y-72275000D01*
X96729740Y-72275000D01*
X96663557Y-72268481D01*
X96597373Y-72261963D01*
X96427534Y-72210443D01*
X96271009Y-72126778D01*
X96235271Y-72097448D01*
X96133814Y-72014186D01*
X96050552Y-71912729D01*
X96021222Y-71876991D01*
X95954058Y-71751337D01*
X95937558Y-71720468D01*
X95937557Y-71720466D01*
X95886037Y-71550627D01*
X95868641Y-71374000D01*
X95886037Y-71197373D01*
X95937557Y-71027534D01*
X96021222Y-70871009D01*
X96050552Y-70835271D01*
X96133814Y-70733814D01*
X96235271Y-70650552D01*
X96271009Y-70621222D01*
X96427534Y-70537557D01*
X96597373Y-70486037D01*
X96663557Y-70479519D01*
X96729740Y-70473000D01*
X96818260Y-70473000D01*
X96884443Y-70479519D01*
X96884443Y-70479519D01*
G37*
G36*
X95135000Y-72275000D02*
G01*
X93333000Y-72275000D01*
X93333000Y-70473000D01*
X95135000Y-70473000D01*
X95135000Y-72275000D01*
X95135000Y-72275000D01*
G37*
G36*
X86399468Y-70373565D02*
G01*
X86438138Y-70385296D01*
X86473777Y-70404346D01*
X86505017Y-70429983D01*
X86530654Y-70461223D01*
X86549704Y-70496862D01*
X86561435Y-70535532D01*
X86566000Y-70581888D01*
X86566000Y-71658112D01*
X86561435Y-71704468D01*
X86549704Y-71743138D01*
X86530654Y-71778777D01*
X86505017Y-71810017D01*
X86473777Y-71835654D01*
X86438138Y-71854704D01*
X86399468Y-71866435D01*
X86353112Y-71871000D01*
X85701888Y-71871000D01*
X85655532Y-71866435D01*
X85616862Y-71854704D01*
X85581223Y-71835654D01*
X85549983Y-71810017D01*
X85524346Y-71778777D01*
X85505296Y-71743138D01*
X85493565Y-71704468D01*
X85489000Y-71658112D01*
X85489000Y-70581888D01*
X85493565Y-70535532D01*
X85505296Y-70496862D01*
X85524346Y-70461223D01*
X85549983Y-70429983D01*
X85581223Y-70404346D01*
X85616862Y-70385296D01*
X85655532Y-70373565D01*
X85701888Y-70369000D01*
X86353112Y-70369000D01*
X86399468Y-70373565D01*
X86399468Y-70373565D01*
G37*
G36*
X84524468Y-70373565D02*
G01*
X84563138Y-70385296D01*
X84598777Y-70404346D01*
X84630017Y-70429983D01*
X84655654Y-70461223D01*
X84674704Y-70496862D01*
X84686435Y-70535532D01*
X84691000Y-70581888D01*
X84691000Y-71658112D01*
X84686435Y-71704468D01*
X84674704Y-71743138D01*
X84655654Y-71778777D01*
X84630017Y-71810017D01*
X84598777Y-71835654D01*
X84563138Y-71854704D01*
X84524468Y-71866435D01*
X84478112Y-71871000D01*
X83826888Y-71871000D01*
X83780532Y-71866435D01*
X83741862Y-71854704D01*
X83706223Y-71835654D01*
X83674983Y-71810017D01*
X83649346Y-71778777D01*
X83630296Y-71743138D01*
X83618565Y-71704468D01*
X83614000Y-71658112D01*
X83614000Y-70581888D01*
X83618565Y-70535532D01*
X83630296Y-70496862D01*
X83649346Y-70461223D01*
X83674983Y-70429983D01*
X83706223Y-70404346D01*
X83741862Y-70385296D01*
X83780532Y-70373565D01*
X83826888Y-70369000D01*
X84478112Y-70369000D01*
X84524468Y-70373565D01*
X84524468Y-70373565D01*
G37*
G36*
X104844468Y-70373565D02*
G01*
X104883138Y-70385296D01*
X104918777Y-70404346D01*
X104950017Y-70429983D01*
X104975654Y-70461223D01*
X104994704Y-70496862D01*
X105006435Y-70535532D01*
X105011000Y-70581888D01*
X105011000Y-71658112D01*
X105006435Y-71704468D01*
X104994704Y-71743138D01*
X104975654Y-71778777D01*
X104950017Y-71810017D01*
X104918777Y-71835654D01*
X104883138Y-71854704D01*
X104844468Y-71866435D01*
X104798112Y-71871000D01*
X104146888Y-71871000D01*
X104100532Y-71866435D01*
X104061862Y-71854704D01*
X104026223Y-71835654D01*
X103994983Y-71810017D01*
X103969346Y-71778777D01*
X103950296Y-71743138D01*
X103938565Y-71704468D01*
X103934000Y-71658112D01*
X103934000Y-70581888D01*
X103938565Y-70535532D01*
X103950296Y-70496862D01*
X103969346Y-70461223D01*
X103994983Y-70429983D01*
X104026223Y-70404346D01*
X104061862Y-70385296D01*
X104100532Y-70373565D01*
X104146888Y-70369000D01*
X104798112Y-70369000D01*
X104844468Y-70373565D01*
X104844468Y-70373565D01*
G37*
G36*
X106719468Y-70373565D02*
G01*
X106758138Y-70385296D01*
X106793777Y-70404346D01*
X106825017Y-70429983D01*
X106850654Y-70461223D01*
X106869704Y-70496862D01*
X106881435Y-70535532D01*
X106886000Y-70581888D01*
X106886000Y-71658112D01*
X106881435Y-71704468D01*
X106869704Y-71743138D01*
X106850654Y-71778777D01*
X106825017Y-71810017D01*
X106793777Y-71835654D01*
X106758138Y-71854704D01*
X106719468Y-71866435D01*
X106673112Y-71871000D01*
X106021888Y-71871000D01*
X105975532Y-71866435D01*
X105936862Y-71854704D01*
X105901223Y-71835654D01*
X105869983Y-71810017D01*
X105844346Y-71778777D01*
X105825296Y-71743138D01*
X105813565Y-71704468D01*
X105809000Y-71658112D01*
X105809000Y-70581888D01*
X105813565Y-70535532D01*
X105825296Y-70496862D01*
X105844346Y-70461223D01*
X105869983Y-70429983D01*
X105901223Y-70404346D01*
X105936862Y-70385296D01*
X105975532Y-70373565D01*
X106021888Y-70369000D01*
X106673112Y-70369000D01*
X106719468Y-70373565D01*
X106719468Y-70373565D01*
G37*
G36*
X113648443Y-69971519D02*
G01*
X113714627Y-69978037D01*
X113884466Y-70029557D01*
X114040991Y-70113222D01*
X114076729Y-70142552D01*
X114178186Y-70225814D01*
X114261448Y-70327271D01*
X114290778Y-70363009D01*
X114290779Y-70363011D01*
X114362325Y-70496862D01*
X114374443Y-70519534D01*
X114425963Y-70689373D01*
X114443359Y-70866000D01*
X114425963Y-71042627D01*
X114374443Y-71212466D01*
X114290778Y-71368991D01*
X114286667Y-71374000D01*
X114178186Y-71506186D01*
X114076729Y-71589448D01*
X114040991Y-71618778D01*
X113884466Y-71702443D01*
X113714627Y-71753963D01*
X113648442Y-71760482D01*
X113582260Y-71767000D01*
X113493740Y-71767000D01*
X113427558Y-71760482D01*
X113361373Y-71753963D01*
X113191534Y-71702443D01*
X113035009Y-71618778D01*
X112999271Y-71589448D01*
X112897814Y-71506186D01*
X112789333Y-71374000D01*
X112785222Y-71368991D01*
X112701557Y-71212466D01*
X112650037Y-71042627D01*
X112632641Y-70866000D01*
X112650037Y-70689373D01*
X112701557Y-70519534D01*
X112713676Y-70496862D01*
X112785221Y-70363011D01*
X112785222Y-70363009D01*
X112814552Y-70327271D01*
X112897814Y-70225814D01*
X112999271Y-70142552D01*
X113035009Y-70113222D01*
X113191534Y-70029557D01*
X113361373Y-69978037D01*
X113427557Y-69971519D01*
X113493740Y-69965000D01*
X113582260Y-69965000D01*
X113648443Y-69971519D01*
X113648443Y-69971519D01*
G37*
G36*
X129679000Y-71767000D02*
G01*
X127877000Y-71767000D01*
X127877000Y-69965000D01*
X129679000Y-69965000D01*
X129679000Y-71767000D01*
X129679000Y-71767000D01*
G37*
G36*
X116188443Y-69971519D02*
G01*
X116254627Y-69978037D01*
X116424466Y-70029557D01*
X116580991Y-70113222D01*
X116616729Y-70142552D01*
X116718186Y-70225814D01*
X116801448Y-70327271D01*
X116830778Y-70363009D01*
X116830779Y-70363011D01*
X116902325Y-70496862D01*
X116914443Y-70519534D01*
X116965963Y-70689373D01*
X116983359Y-70866000D01*
X116965963Y-71042627D01*
X116914443Y-71212466D01*
X116830778Y-71368991D01*
X116826667Y-71374000D01*
X116718186Y-71506186D01*
X116616729Y-71589448D01*
X116580991Y-71618778D01*
X116424466Y-71702443D01*
X116254627Y-71753963D01*
X116188442Y-71760482D01*
X116122260Y-71767000D01*
X116033740Y-71767000D01*
X115967558Y-71760482D01*
X115901373Y-71753963D01*
X115731534Y-71702443D01*
X115575009Y-71618778D01*
X115539271Y-71589448D01*
X115437814Y-71506186D01*
X115329333Y-71374000D01*
X115325222Y-71368991D01*
X115241557Y-71212466D01*
X115190037Y-71042627D01*
X115172641Y-70866000D01*
X115190037Y-70689373D01*
X115241557Y-70519534D01*
X115253676Y-70496862D01*
X115325221Y-70363011D01*
X115325222Y-70363009D01*
X115354552Y-70327271D01*
X115437814Y-70225814D01*
X115539271Y-70142552D01*
X115575009Y-70113222D01*
X115731534Y-70029557D01*
X115901373Y-69978037D01*
X115967557Y-69971519D01*
X116033740Y-69965000D01*
X116122260Y-69965000D01*
X116188443Y-69971519D01*
X116188443Y-69971519D01*
G37*
G36*
X118728443Y-69971519D02*
G01*
X118794627Y-69978037D01*
X118964466Y-70029557D01*
X119120991Y-70113222D01*
X119156729Y-70142552D01*
X119258186Y-70225814D01*
X119341448Y-70327271D01*
X119370778Y-70363009D01*
X119370779Y-70363011D01*
X119442325Y-70496862D01*
X119454443Y-70519534D01*
X119505963Y-70689373D01*
X119523359Y-70866000D01*
X119505963Y-71042627D01*
X119454443Y-71212466D01*
X119370778Y-71368991D01*
X119366667Y-71374000D01*
X119258186Y-71506186D01*
X119156729Y-71589448D01*
X119120991Y-71618778D01*
X118964466Y-71702443D01*
X118794627Y-71753963D01*
X118728442Y-71760482D01*
X118662260Y-71767000D01*
X118573740Y-71767000D01*
X118507558Y-71760482D01*
X118441373Y-71753963D01*
X118271534Y-71702443D01*
X118115009Y-71618778D01*
X118079271Y-71589448D01*
X117977814Y-71506186D01*
X117869333Y-71374000D01*
X117865222Y-71368991D01*
X117781557Y-71212466D01*
X117730037Y-71042627D01*
X117712641Y-70866000D01*
X117730037Y-70689373D01*
X117781557Y-70519534D01*
X117793676Y-70496862D01*
X117865221Y-70363011D01*
X117865222Y-70363009D01*
X117894552Y-70327271D01*
X117977814Y-70225814D01*
X118079271Y-70142552D01*
X118115009Y-70113222D01*
X118271534Y-70029557D01*
X118441373Y-69978037D01*
X118507557Y-69971519D01*
X118573740Y-69965000D01*
X118662260Y-69965000D01*
X118728443Y-69971519D01*
X118728443Y-69971519D01*
G37*
G36*
X121268443Y-69971519D02*
G01*
X121334627Y-69978037D01*
X121504466Y-70029557D01*
X121660991Y-70113222D01*
X121696729Y-70142552D01*
X121798186Y-70225814D01*
X121881448Y-70327271D01*
X121910778Y-70363009D01*
X121910779Y-70363011D01*
X121982325Y-70496862D01*
X121994443Y-70519534D01*
X122045963Y-70689373D01*
X122063359Y-70866000D01*
X122045963Y-71042627D01*
X121994443Y-71212466D01*
X121910778Y-71368991D01*
X121906667Y-71374000D01*
X121798186Y-71506186D01*
X121696729Y-71589448D01*
X121660991Y-71618778D01*
X121504466Y-71702443D01*
X121334627Y-71753963D01*
X121268442Y-71760482D01*
X121202260Y-71767000D01*
X121113740Y-71767000D01*
X121047558Y-71760482D01*
X120981373Y-71753963D01*
X120811534Y-71702443D01*
X120655009Y-71618778D01*
X120619271Y-71589448D01*
X120517814Y-71506186D01*
X120409333Y-71374000D01*
X120405222Y-71368991D01*
X120321557Y-71212466D01*
X120270037Y-71042627D01*
X120252641Y-70866000D01*
X120270037Y-70689373D01*
X120321557Y-70519534D01*
X120333676Y-70496862D01*
X120405221Y-70363011D01*
X120405222Y-70363009D01*
X120434552Y-70327271D01*
X120517814Y-70225814D01*
X120619271Y-70142552D01*
X120655009Y-70113222D01*
X120811534Y-70029557D01*
X120981373Y-69978037D01*
X121047557Y-69971519D01*
X121113740Y-69965000D01*
X121202260Y-69965000D01*
X121268443Y-69971519D01*
X121268443Y-69971519D01*
G37*
G36*
X123808443Y-69971519D02*
G01*
X123874627Y-69978037D01*
X124044466Y-70029557D01*
X124200991Y-70113222D01*
X124236729Y-70142552D01*
X124338186Y-70225814D01*
X124421448Y-70327271D01*
X124450778Y-70363009D01*
X124450779Y-70363011D01*
X124522325Y-70496862D01*
X124534443Y-70519534D01*
X124585963Y-70689373D01*
X124603359Y-70866000D01*
X124585963Y-71042627D01*
X124534443Y-71212466D01*
X124450778Y-71368991D01*
X124446667Y-71374000D01*
X124338186Y-71506186D01*
X124236729Y-71589448D01*
X124200991Y-71618778D01*
X124044466Y-71702443D01*
X123874627Y-71753963D01*
X123808442Y-71760482D01*
X123742260Y-71767000D01*
X123653740Y-71767000D01*
X123587558Y-71760482D01*
X123521373Y-71753963D01*
X123351534Y-71702443D01*
X123195009Y-71618778D01*
X123159271Y-71589448D01*
X123057814Y-71506186D01*
X122949333Y-71374000D01*
X122945222Y-71368991D01*
X122861557Y-71212466D01*
X122810037Y-71042627D01*
X122792641Y-70866000D01*
X122810037Y-70689373D01*
X122861557Y-70519534D01*
X122873676Y-70496862D01*
X122945221Y-70363011D01*
X122945222Y-70363009D01*
X122974552Y-70327271D01*
X123057814Y-70225814D01*
X123159271Y-70142552D01*
X123195009Y-70113222D01*
X123351534Y-70029557D01*
X123521373Y-69978037D01*
X123587557Y-69971519D01*
X123653740Y-69965000D01*
X123742260Y-69965000D01*
X123808443Y-69971519D01*
X123808443Y-69971519D01*
G37*
G36*
X126348443Y-69971519D02*
G01*
X126414627Y-69978037D01*
X126584466Y-70029557D01*
X126740991Y-70113222D01*
X126776729Y-70142552D01*
X126878186Y-70225814D01*
X126961448Y-70327271D01*
X126990778Y-70363009D01*
X126990779Y-70363011D01*
X127062325Y-70496862D01*
X127074443Y-70519534D01*
X127125963Y-70689373D01*
X127143359Y-70866000D01*
X127125963Y-71042627D01*
X127074443Y-71212466D01*
X126990778Y-71368991D01*
X126986667Y-71374000D01*
X126878186Y-71506186D01*
X126776729Y-71589448D01*
X126740991Y-71618778D01*
X126584466Y-71702443D01*
X126414627Y-71753963D01*
X126348442Y-71760482D01*
X126282260Y-71767000D01*
X126193740Y-71767000D01*
X126127558Y-71760482D01*
X126061373Y-71753963D01*
X125891534Y-71702443D01*
X125735009Y-71618778D01*
X125699271Y-71589448D01*
X125597814Y-71506186D01*
X125489333Y-71374000D01*
X125485222Y-71368991D01*
X125401557Y-71212466D01*
X125350037Y-71042627D01*
X125332641Y-70866000D01*
X125350037Y-70689373D01*
X125401557Y-70519534D01*
X125413676Y-70496862D01*
X125485221Y-70363011D01*
X125485222Y-70363009D01*
X125514552Y-70327271D01*
X125597814Y-70225814D01*
X125699271Y-70142552D01*
X125735009Y-70113222D01*
X125891534Y-70029557D01*
X126061373Y-69978037D01*
X126127557Y-69971519D01*
X126193740Y-69965000D01*
X126282260Y-69965000D01*
X126348443Y-69971519D01*
X126348443Y-69971519D01*
G37*
G36*
X90384968Y-70119565D02*
G01*
X90423638Y-70131296D01*
X90459277Y-70150346D01*
X90490517Y-70175983D01*
X90516154Y-70207223D01*
X90535204Y-70242862D01*
X90546935Y-70281532D01*
X90551500Y-70327888D01*
X90551500Y-71404112D01*
X90546935Y-71450468D01*
X90535204Y-71489138D01*
X90516154Y-71524777D01*
X90490517Y-71556017D01*
X90459277Y-71581654D01*
X90423638Y-71600704D01*
X90384968Y-71612435D01*
X90338612Y-71617000D01*
X89687388Y-71617000D01*
X89641032Y-71612435D01*
X89602362Y-71600704D01*
X89566723Y-71581654D01*
X89535483Y-71556017D01*
X89509846Y-71524777D01*
X89490796Y-71489138D01*
X89479065Y-71450468D01*
X89474500Y-71404112D01*
X89474500Y-70327888D01*
X89479065Y-70281532D01*
X89490796Y-70242862D01*
X89509846Y-70207223D01*
X89535483Y-70175983D01*
X89566723Y-70150346D01*
X89602362Y-70131296D01*
X89641032Y-70119565D01*
X89687388Y-70115000D01*
X90338612Y-70115000D01*
X90384968Y-70119565D01*
X90384968Y-70119565D01*
G37*
G36*
X88509968Y-70119565D02*
G01*
X88548638Y-70131296D01*
X88584277Y-70150346D01*
X88615517Y-70175983D01*
X88641154Y-70207223D01*
X88660204Y-70242862D01*
X88671935Y-70281532D01*
X88676500Y-70327888D01*
X88676500Y-71404112D01*
X88671935Y-71450468D01*
X88660204Y-71489138D01*
X88641154Y-71524777D01*
X88615517Y-71556017D01*
X88584277Y-71581654D01*
X88548638Y-71600704D01*
X88509968Y-71612435D01*
X88463612Y-71617000D01*
X87812388Y-71617000D01*
X87766032Y-71612435D01*
X87727362Y-71600704D01*
X87691723Y-71581654D01*
X87660483Y-71556017D01*
X87634846Y-71524777D01*
X87615796Y-71489138D01*
X87604065Y-71450468D01*
X87599500Y-71404112D01*
X87599500Y-70327888D01*
X87604065Y-70281532D01*
X87615796Y-70242862D01*
X87634846Y-70207223D01*
X87660483Y-70175983D01*
X87691723Y-70150346D01*
X87727362Y-70131296D01*
X87766032Y-70119565D01*
X87812388Y-70115000D01*
X88463612Y-70115000D01*
X88509968Y-70119565D01*
X88509968Y-70119565D01*
G37*
G36*
X101893468Y-69103565D02*
G01*
X101932138Y-69115296D01*
X101967777Y-69134346D01*
X101999017Y-69159983D01*
X102024654Y-69191223D01*
X102043704Y-69226862D01*
X102055435Y-69265532D01*
X102060000Y-69311888D01*
X102060000Y-70388112D01*
X102055435Y-70434468D01*
X102043704Y-70473138D01*
X102024654Y-70508777D01*
X101999017Y-70540017D01*
X101967777Y-70565654D01*
X101932138Y-70584704D01*
X101893468Y-70596435D01*
X101847112Y-70601000D01*
X101195888Y-70601000D01*
X101149532Y-70596435D01*
X101110862Y-70584704D01*
X101075223Y-70565654D01*
X101043983Y-70540017D01*
X101018346Y-70508777D01*
X100999296Y-70473138D01*
X100987565Y-70434468D01*
X100983000Y-70388112D01*
X100983000Y-69311888D01*
X100987565Y-69265532D01*
X100999296Y-69226862D01*
X101018346Y-69191223D01*
X101043983Y-69159983D01*
X101075223Y-69134346D01*
X101110862Y-69115296D01*
X101149532Y-69103565D01*
X101195888Y-69099000D01*
X101847112Y-69099000D01*
X101893468Y-69103565D01*
X101893468Y-69103565D01*
G37*
G36*
X100018468Y-69103565D02*
G01*
X100057138Y-69115296D01*
X100092777Y-69134346D01*
X100124017Y-69159983D01*
X100149654Y-69191223D01*
X100168704Y-69226862D01*
X100180435Y-69265532D01*
X100185000Y-69311888D01*
X100185000Y-70388112D01*
X100180435Y-70434468D01*
X100168704Y-70473138D01*
X100149654Y-70508777D01*
X100124017Y-70540017D01*
X100092777Y-70565654D01*
X100057138Y-70584704D01*
X100018468Y-70596435D01*
X99972112Y-70601000D01*
X99320888Y-70601000D01*
X99274532Y-70596435D01*
X99235862Y-70584704D01*
X99200223Y-70565654D01*
X99168983Y-70540017D01*
X99143346Y-70508777D01*
X99124296Y-70473138D01*
X99112565Y-70434468D01*
X99108000Y-70388112D01*
X99108000Y-69311888D01*
X99112565Y-69265532D01*
X99124296Y-69226862D01*
X99143346Y-69191223D01*
X99168983Y-69159983D01*
X99200223Y-69134346D01*
X99235862Y-69115296D01*
X99274532Y-69103565D01*
X99320888Y-69099000D01*
X99972112Y-69099000D01*
X100018468Y-69103565D01*
X100018468Y-69103565D01*
G37*
G36*
X124282468Y-67713565D02*
G01*
X124321138Y-67725296D01*
X124356777Y-67744346D01*
X124388017Y-67769983D01*
X124413654Y-67801223D01*
X124432704Y-67836862D01*
X124444435Y-67875532D01*
X124449000Y-67921888D01*
X124449000Y-68573112D01*
X124444435Y-68619468D01*
X124432704Y-68658138D01*
X124413654Y-68693777D01*
X124388017Y-68725017D01*
X124356777Y-68750654D01*
X124321138Y-68769704D01*
X124282468Y-68781435D01*
X124236112Y-68786000D01*
X123159888Y-68786000D01*
X123113532Y-68781435D01*
X123074862Y-68769704D01*
X123039223Y-68750654D01*
X123007983Y-68725017D01*
X122982346Y-68693777D01*
X122963296Y-68658138D01*
X122951565Y-68619468D01*
X122947000Y-68573112D01*
X122947000Y-67921888D01*
X122951565Y-67875532D01*
X122963296Y-67836862D01*
X122982346Y-67801223D01*
X123007983Y-67769983D01*
X123039223Y-67744346D01*
X123074862Y-67725296D01*
X123113532Y-67713565D01*
X123159888Y-67709000D01*
X124236112Y-67709000D01*
X124282468Y-67713565D01*
X124282468Y-67713565D01*
G37*
G36*
X121742468Y-67713565D02*
G01*
X121781138Y-67725296D01*
X121816777Y-67744346D01*
X121848017Y-67769983D01*
X121873654Y-67801223D01*
X121892704Y-67836862D01*
X121904435Y-67875532D01*
X121909000Y-67921888D01*
X121909000Y-68573112D01*
X121904435Y-68619468D01*
X121892704Y-68658138D01*
X121873654Y-68693777D01*
X121848017Y-68725017D01*
X121816777Y-68750654D01*
X121781138Y-68769704D01*
X121742468Y-68781435D01*
X121696112Y-68786000D01*
X120619888Y-68786000D01*
X120573532Y-68781435D01*
X120534862Y-68769704D01*
X120499223Y-68750654D01*
X120467983Y-68725017D01*
X120442346Y-68693777D01*
X120423296Y-68658138D01*
X120411565Y-68619468D01*
X120407000Y-68573112D01*
X120407000Y-67921888D01*
X120411565Y-67875532D01*
X120423296Y-67836862D01*
X120442346Y-67801223D01*
X120467983Y-67769983D01*
X120499223Y-67744346D01*
X120534862Y-67725296D01*
X120573532Y-67713565D01*
X120619888Y-67709000D01*
X121696112Y-67709000D01*
X121742468Y-67713565D01*
X121742468Y-67713565D01*
G37*
G36*
X129362468Y-67538065D02*
G01*
X129401138Y-67549796D01*
X129436777Y-67568846D01*
X129468017Y-67594483D01*
X129493654Y-67625723D01*
X129512704Y-67661362D01*
X129524435Y-67700032D01*
X129529000Y-67746388D01*
X129529000Y-68397612D01*
X129524435Y-68443968D01*
X129512704Y-68482638D01*
X129493654Y-68518277D01*
X129468017Y-68549517D01*
X129436777Y-68575154D01*
X129401138Y-68594204D01*
X129362468Y-68605935D01*
X129316112Y-68610500D01*
X128239888Y-68610500D01*
X128193532Y-68605935D01*
X128154862Y-68594204D01*
X128119223Y-68575154D01*
X128087983Y-68549517D01*
X128062346Y-68518277D01*
X128043296Y-68482638D01*
X128031565Y-68443968D01*
X128027000Y-68397612D01*
X128027000Y-67746388D01*
X128031565Y-67700032D01*
X128043296Y-67661362D01*
X128062346Y-67625723D01*
X128087983Y-67594483D01*
X128119223Y-67568846D01*
X128154862Y-67549796D01*
X128193532Y-67538065D01*
X128239888Y-67533500D01*
X129316112Y-67533500D01*
X129362468Y-67538065D01*
X129362468Y-67538065D01*
G37*
G36*
X126822468Y-67538065D02*
G01*
X126861138Y-67549796D01*
X126896777Y-67568846D01*
X126928017Y-67594483D01*
X126953654Y-67625723D01*
X126972704Y-67661362D01*
X126984435Y-67700032D01*
X126989000Y-67746388D01*
X126989000Y-68397612D01*
X126984435Y-68443968D01*
X126972704Y-68482638D01*
X126953654Y-68518277D01*
X126928017Y-68549517D01*
X126896777Y-68575154D01*
X126861138Y-68594204D01*
X126822468Y-68605935D01*
X126776112Y-68610500D01*
X125699888Y-68610500D01*
X125653532Y-68605935D01*
X125614862Y-68594204D01*
X125579223Y-68575154D01*
X125547983Y-68549517D01*
X125522346Y-68518277D01*
X125503296Y-68482638D01*
X125491565Y-68443968D01*
X125487000Y-68397612D01*
X125487000Y-67746388D01*
X125491565Y-67700032D01*
X125503296Y-67661362D01*
X125522346Y-67625723D01*
X125547983Y-67594483D01*
X125579223Y-67568846D01*
X125614862Y-67549796D01*
X125653532Y-67538065D01*
X125699888Y-67533500D01*
X126776112Y-67533500D01*
X126822468Y-67538065D01*
X126822468Y-67538065D01*
G37*
G36*
X84925000Y-68161000D02*
G01*
X83223000Y-68161000D01*
X83223000Y-66459000D01*
X84925000Y-66459000D01*
X84925000Y-68161000D01*
X84925000Y-68161000D01*
G37*
G36*
X108243823Y-66471313D02*
G01*
X108404242Y-66519976D01*
X108495899Y-66568968D01*
X108552078Y-66598996D01*
X108681659Y-66705341D01*
X108788004Y-66834922D01*
X108788005Y-66834924D01*
X108867024Y-66982758D01*
X108915687Y-67143177D01*
X108932117Y-67310000D01*
X108915687Y-67476823D01*
X108867024Y-67637242D01*
X108826228Y-67713565D01*
X108788004Y-67785078D01*
X108681659Y-67914659D01*
X108552078Y-68021004D01*
X108552076Y-68021005D01*
X108404242Y-68100024D01*
X108243823Y-68148687D01*
X108118804Y-68161000D01*
X108035196Y-68161000D01*
X107910177Y-68148687D01*
X107749758Y-68100024D01*
X107601924Y-68021005D01*
X107601922Y-68021004D01*
X107472341Y-67914659D01*
X107365996Y-67785078D01*
X107327772Y-67713565D01*
X107286976Y-67637242D01*
X107238313Y-67476823D01*
X107221883Y-67310000D01*
X107238313Y-67143177D01*
X107286976Y-66982758D01*
X107365995Y-66834924D01*
X107365996Y-66834922D01*
X107472341Y-66705341D01*
X107601922Y-66598996D01*
X107658101Y-66568968D01*
X107749758Y-66519976D01*
X107910177Y-66471313D01*
X108035196Y-66459000D01*
X108118804Y-66459000D01*
X108243823Y-66471313D01*
X108243823Y-66471313D01*
G37*
G36*
X99480823Y-66471313D02*
G01*
X99641242Y-66519976D01*
X99732899Y-66568968D01*
X99789078Y-66598996D01*
X99918659Y-66705341D01*
X100025004Y-66834922D01*
X100025005Y-66834924D01*
X100104024Y-66982758D01*
X100152687Y-67143177D01*
X100169117Y-67310000D01*
X100152687Y-67476823D01*
X100104024Y-67637242D01*
X100063228Y-67713565D01*
X100025004Y-67785078D01*
X99918659Y-67914659D01*
X99789078Y-68021004D01*
X99789076Y-68021005D01*
X99641242Y-68100024D01*
X99480823Y-68148687D01*
X99355804Y-68161000D01*
X99272196Y-68161000D01*
X99147177Y-68148687D01*
X98986758Y-68100024D01*
X98838924Y-68021005D01*
X98838922Y-68021004D01*
X98709341Y-67914659D01*
X98602996Y-67785078D01*
X98564772Y-67713565D01*
X98523976Y-67637242D01*
X98475313Y-67476823D01*
X98458883Y-67310000D01*
X98475313Y-67143177D01*
X98523976Y-66982758D01*
X98602995Y-66834924D01*
X98602996Y-66834922D01*
X98709341Y-66705341D01*
X98838922Y-66598996D01*
X98895101Y-66568968D01*
X98986758Y-66519976D01*
X99147177Y-66471313D01*
X99272196Y-66459000D01*
X99355804Y-66459000D01*
X99480823Y-66471313D01*
X99480823Y-66471313D01*
G37*
G36*
X113323823Y-66471313D02*
G01*
X113484242Y-66519976D01*
X113575899Y-66568968D01*
X113632078Y-66598996D01*
X113761659Y-66705341D01*
X113868004Y-66834922D01*
X113868005Y-66834924D01*
X113947024Y-66982758D01*
X113995687Y-67143177D01*
X114012117Y-67310000D01*
X113995687Y-67476823D01*
X113947024Y-67637242D01*
X113906228Y-67713565D01*
X113868004Y-67785078D01*
X113761659Y-67914659D01*
X113632078Y-68021004D01*
X113632076Y-68021005D01*
X113484242Y-68100024D01*
X113323823Y-68148687D01*
X113198804Y-68161000D01*
X113115196Y-68161000D01*
X112990177Y-68148687D01*
X112829758Y-68100024D01*
X112681924Y-68021005D01*
X112681922Y-68021004D01*
X112552341Y-67914659D01*
X112445996Y-67785078D01*
X112407772Y-67713565D01*
X112366976Y-67637242D01*
X112318313Y-67476823D01*
X112301883Y-67310000D01*
X112318313Y-67143177D01*
X112366976Y-66982758D01*
X112445995Y-66834924D01*
X112445996Y-66834922D01*
X112552341Y-66705341D01*
X112681922Y-66598996D01*
X112738101Y-66568968D01*
X112829758Y-66519976D01*
X112990177Y-66471313D01*
X113115196Y-66459000D01*
X113198804Y-66459000D01*
X113323823Y-66471313D01*
X113323823Y-66471313D01*
G37*
G36*
X102020823Y-66471313D02*
G01*
X102181242Y-66519976D01*
X102272899Y-66568968D01*
X102329078Y-66598996D01*
X102458659Y-66705341D01*
X102565004Y-66834922D01*
X102565005Y-66834924D01*
X102644024Y-66982758D01*
X102692687Y-67143177D01*
X102709117Y-67310000D01*
X102692687Y-67476823D01*
X102644024Y-67637242D01*
X102603228Y-67713565D01*
X102565004Y-67785078D01*
X102458659Y-67914659D01*
X102329078Y-68021004D01*
X102329076Y-68021005D01*
X102181242Y-68100024D01*
X102020823Y-68148687D01*
X101895804Y-68161000D01*
X101812196Y-68161000D01*
X101687177Y-68148687D01*
X101526758Y-68100024D01*
X101378924Y-68021005D01*
X101378922Y-68021004D01*
X101249341Y-67914659D01*
X101142996Y-67785078D01*
X101104772Y-67713565D01*
X101063976Y-67637242D01*
X101015313Y-67476823D01*
X100998883Y-67310000D01*
X101015313Y-67143177D01*
X101063976Y-66982758D01*
X101142995Y-66834924D01*
X101142996Y-66834922D01*
X101249341Y-66705341D01*
X101378922Y-66598996D01*
X101435101Y-66568968D01*
X101526758Y-66519976D01*
X101687177Y-66471313D01*
X101812196Y-66459000D01*
X101895804Y-66459000D01*
X102020823Y-66471313D01*
X102020823Y-66471313D01*
G37*
G36*
X110783823Y-66471313D02*
G01*
X110944242Y-66519976D01*
X111035899Y-66568968D01*
X111092078Y-66598996D01*
X111221659Y-66705341D01*
X111328004Y-66834922D01*
X111328005Y-66834924D01*
X111407024Y-66982758D01*
X111455687Y-67143177D01*
X111472117Y-67310000D01*
X111455687Y-67476823D01*
X111407024Y-67637242D01*
X111366228Y-67713565D01*
X111328004Y-67785078D01*
X111221659Y-67914659D01*
X111092078Y-68021004D01*
X111092076Y-68021005D01*
X110944242Y-68100024D01*
X110783823Y-68148687D01*
X110658804Y-68161000D01*
X110575196Y-68161000D01*
X110450177Y-68148687D01*
X110289758Y-68100024D01*
X110141924Y-68021005D01*
X110141922Y-68021004D01*
X110012341Y-67914659D01*
X109905996Y-67785078D01*
X109867772Y-67713565D01*
X109826976Y-67637242D01*
X109778313Y-67476823D01*
X109761883Y-67310000D01*
X109778313Y-67143177D01*
X109826976Y-66982758D01*
X109905995Y-66834924D01*
X109905996Y-66834922D01*
X110012341Y-66705341D01*
X110141922Y-66598996D01*
X110198101Y-66568968D01*
X110289758Y-66519976D01*
X110450177Y-66471313D01*
X110575196Y-66459000D01*
X110658804Y-66459000D01*
X110783823Y-66471313D01*
X110783823Y-66471313D01*
G37*
G36*
X86780823Y-66471313D02*
G01*
X86941242Y-66519976D01*
X87032899Y-66568968D01*
X87089078Y-66598996D01*
X87218659Y-66705341D01*
X87325004Y-66834922D01*
X87325005Y-66834924D01*
X87404024Y-66982758D01*
X87452687Y-67143177D01*
X87469117Y-67310000D01*
X87452687Y-67476823D01*
X87404024Y-67637242D01*
X87363228Y-67713565D01*
X87325004Y-67785078D01*
X87218659Y-67914659D01*
X87089078Y-68021004D01*
X87089076Y-68021005D01*
X86941242Y-68100024D01*
X86780823Y-68148687D01*
X86655804Y-68161000D01*
X86572196Y-68161000D01*
X86447177Y-68148687D01*
X86286758Y-68100024D01*
X86138924Y-68021005D01*
X86138922Y-68021004D01*
X86009341Y-67914659D01*
X85902996Y-67785078D01*
X85864772Y-67713565D01*
X85823976Y-67637242D01*
X85775313Y-67476823D01*
X85758883Y-67310000D01*
X85775313Y-67143177D01*
X85823976Y-66982758D01*
X85902995Y-66834924D01*
X85902996Y-66834922D01*
X86009341Y-66705341D01*
X86138922Y-66598996D01*
X86195101Y-66568968D01*
X86286758Y-66519976D01*
X86447177Y-66471313D01*
X86572196Y-66459000D01*
X86655804Y-66459000D01*
X86780823Y-66471313D01*
X86780823Y-66471313D01*
G37*
G36*
X96940823Y-66471313D02*
G01*
X97101242Y-66519976D01*
X97192899Y-66568968D01*
X97249078Y-66598996D01*
X97378659Y-66705341D01*
X97485004Y-66834922D01*
X97485005Y-66834924D01*
X97564024Y-66982758D01*
X97612687Y-67143177D01*
X97629117Y-67310000D01*
X97612687Y-67476823D01*
X97564024Y-67637242D01*
X97523228Y-67713565D01*
X97485004Y-67785078D01*
X97378659Y-67914659D01*
X97249078Y-68021004D01*
X97249076Y-68021005D01*
X97101242Y-68100024D01*
X96940823Y-68148687D01*
X96815804Y-68161000D01*
X96732196Y-68161000D01*
X96607177Y-68148687D01*
X96446758Y-68100024D01*
X96298924Y-68021005D01*
X96298922Y-68021004D01*
X96169341Y-67914659D01*
X96062996Y-67785078D01*
X96024772Y-67713565D01*
X95983976Y-67637242D01*
X95935313Y-67476823D01*
X95918883Y-67310000D01*
X95935313Y-67143177D01*
X95983976Y-66982758D01*
X96062995Y-66834924D01*
X96062996Y-66834922D01*
X96169341Y-66705341D01*
X96298922Y-66598996D01*
X96355101Y-66568968D01*
X96446758Y-66519976D01*
X96607177Y-66471313D01*
X96732196Y-66459000D01*
X96815804Y-66459000D01*
X96940823Y-66471313D01*
X96940823Y-66471313D01*
G37*
G36*
X106388000Y-68161000D02*
G01*
X104686000Y-68161000D01*
X104686000Y-66459000D01*
X106388000Y-66459000D01*
X106388000Y-68161000D01*
X106388000Y-68161000D01*
G37*
G36*
X89320823Y-66471313D02*
G01*
X89481242Y-66519976D01*
X89572899Y-66568968D01*
X89629078Y-66598996D01*
X89758659Y-66705341D01*
X89865004Y-66834922D01*
X89865005Y-66834924D01*
X89944024Y-66982758D01*
X89992687Y-67143177D01*
X90009117Y-67310000D01*
X89992687Y-67476823D01*
X89944024Y-67637242D01*
X89903228Y-67713565D01*
X89865004Y-67785078D01*
X89758659Y-67914659D01*
X89629078Y-68021004D01*
X89629076Y-68021005D01*
X89481242Y-68100024D01*
X89320823Y-68148687D01*
X89195804Y-68161000D01*
X89112196Y-68161000D01*
X88987177Y-68148687D01*
X88826758Y-68100024D01*
X88678924Y-68021005D01*
X88678922Y-68021004D01*
X88549341Y-67914659D01*
X88442996Y-67785078D01*
X88404772Y-67713565D01*
X88363976Y-67637242D01*
X88315313Y-67476823D01*
X88298883Y-67310000D01*
X88315313Y-67143177D01*
X88363976Y-66982758D01*
X88442995Y-66834924D01*
X88442996Y-66834922D01*
X88549341Y-66705341D01*
X88678922Y-66598996D01*
X88735101Y-66568968D01*
X88826758Y-66519976D01*
X88987177Y-66471313D01*
X89112196Y-66459000D01*
X89195804Y-66459000D01*
X89320823Y-66471313D01*
X89320823Y-66471313D01*
G37*
G36*
X94400823Y-66471313D02*
G01*
X94561242Y-66519976D01*
X94652899Y-66568968D01*
X94709078Y-66598996D01*
X94838659Y-66705341D01*
X94945004Y-66834922D01*
X94945005Y-66834924D01*
X95024024Y-66982758D01*
X95072687Y-67143177D01*
X95089117Y-67310000D01*
X95072687Y-67476823D01*
X95024024Y-67637242D01*
X94983228Y-67713565D01*
X94945004Y-67785078D01*
X94838659Y-67914659D01*
X94709078Y-68021004D01*
X94709076Y-68021005D01*
X94561242Y-68100024D01*
X94400823Y-68148687D01*
X94275804Y-68161000D01*
X94192196Y-68161000D01*
X94067177Y-68148687D01*
X93906758Y-68100024D01*
X93758924Y-68021005D01*
X93758922Y-68021004D01*
X93629341Y-67914659D01*
X93522996Y-67785078D01*
X93484772Y-67713565D01*
X93443976Y-67637242D01*
X93395313Y-67476823D01*
X93378883Y-67310000D01*
X93395313Y-67143177D01*
X93443976Y-66982758D01*
X93522995Y-66834924D01*
X93522996Y-66834922D01*
X93629341Y-66705341D01*
X93758922Y-66598996D01*
X93815101Y-66568968D01*
X93906758Y-66519976D01*
X94067177Y-66471313D01*
X94192196Y-66459000D01*
X94275804Y-66459000D01*
X94400823Y-66471313D01*
X94400823Y-66471313D01*
G37*
G36*
X91860823Y-66471313D02*
G01*
X92021242Y-66519976D01*
X92112899Y-66568968D01*
X92169078Y-66598996D01*
X92298659Y-66705341D01*
X92405004Y-66834922D01*
X92405005Y-66834924D01*
X92484024Y-66982758D01*
X92532687Y-67143177D01*
X92549117Y-67310000D01*
X92532687Y-67476823D01*
X92484024Y-67637242D01*
X92443228Y-67713565D01*
X92405004Y-67785078D01*
X92298659Y-67914659D01*
X92169078Y-68021004D01*
X92169076Y-68021005D01*
X92021242Y-68100024D01*
X91860823Y-68148687D01*
X91735804Y-68161000D01*
X91652196Y-68161000D01*
X91527177Y-68148687D01*
X91366758Y-68100024D01*
X91218924Y-68021005D01*
X91218922Y-68021004D01*
X91089341Y-67914659D01*
X90982996Y-67785078D01*
X90944772Y-67713565D01*
X90903976Y-67637242D01*
X90855313Y-67476823D01*
X90838883Y-67310000D01*
X90855313Y-67143177D01*
X90903976Y-66982758D01*
X90982995Y-66834924D01*
X90982996Y-66834922D01*
X91089341Y-66705341D01*
X91218922Y-66598996D01*
X91275101Y-66568968D01*
X91366758Y-66519976D01*
X91527177Y-66471313D01*
X91652196Y-66459000D01*
X91735804Y-66459000D01*
X91860823Y-66471313D01*
X91860823Y-66471313D01*
G37*
G36*
X79641000Y-66941000D02*
G01*
X77839000Y-66941000D01*
X77839000Y-65139000D01*
X79641000Y-65139000D01*
X79641000Y-66941000D01*
X79641000Y-66941000D01*
G37*
G36*
X121742468Y-65838565D02*
G01*
X121781138Y-65850296D01*
X121816777Y-65869346D01*
X121848017Y-65894983D01*
X121873654Y-65926223D01*
X121892704Y-65961862D01*
X121904435Y-66000532D01*
X121909000Y-66046888D01*
X121909000Y-66698112D01*
X121904435Y-66744468D01*
X121892704Y-66783138D01*
X121873654Y-66818777D01*
X121848017Y-66850017D01*
X121816777Y-66875654D01*
X121781138Y-66894704D01*
X121742468Y-66906435D01*
X121696112Y-66911000D01*
X120619888Y-66911000D01*
X120573532Y-66906435D01*
X120534862Y-66894704D01*
X120499223Y-66875654D01*
X120467983Y-66850017D01*
X120442346Y-66818777D01*
X120423296Y-66783138D01*
X120411565Y-66744468D01*
X120407000Y-66698112D01*
X120407000Y-66046888D01*
X120411565Y-66000532D01*
X120423296Y-65961862D01*
X120442346Y-65926223D01*
X120467983Y-65894983D01*
X120499223Y-65869346D01*
X120534862Y-65850296D01*
X120573532Y-65838565D01*
X120619888Y-65834000D01*
X121696112Y-65834000D01*
X121742468Y-65838565D01*
X121742468Y-65838565D01*
G37*
G36*
X124282468Y-65838565D02*
G01*
X124321138Y-65850296D01*
X124356777Y-65869346D01*
X124388017Y-65894983D01*
X124413654Y-65926223D01*
X124432704Y-65961862D01*
X124444435Y-66000532D01*
X124449000Y-66046888D01*
X124449000Y-66698112D01*
X124444435Y-66744468D01*
X124432704Y-66783138D01*
X124413654Y-66818777D01*
X124388017Y-66850017D01*
X124356777Y-66875654D01*
X124321138Y-66894704D01*
X124282468Y-66906435D01*
X124236112Y-66911000D01*
X123159888Y-66911000D01*
X123113532Y-66906435D01*
X123074862Y-66894704D01*
X123039223Y-66875654D01*
X123007983Y-66850017D01*
X122982346Y-66818777D01*
X122963296Y-66783138D01*
X122951565Y-66744468D01*
X122947000Y-66698112D01*
X122947000Y-66046888D01*
X122951565Y-66000532D01*
X122963296Y-65961862D01*
X122982346Y-65926223D01*
X123007983Y-65894983D01*
X123039223Y-65869346D01*
X123074862Y-65850296D01*
X123113532Y-65838565D01*
X123159888Y-65834000D01*
X124236112Y-65834000D01*
X124282468Y-65838565D01*
X124282468Y-65838565D01*
G37*
G36*
X129362468Y-65663065D02*
G01*
X129401138Y-65674796D01*
X129436777Y-65693846D01*
X129468017Y-65719483D01*
X129493654Y-65750723D01*
X129512704Y-65786362D01*
X129524435Y-65825032D01*
X129529000Y-65871388D01*
X129529000Y-66522612D01*
X129524435Y-66568968D01*
X129512704Y-66607638D01*
X129493654Y-66643277D01*
X129468017Y-66674517D01*
X129436777Y-66700154D01*
X129401138Y-66719204D01*
X129362468Y-66730935D01*
X129316112Y-66735500D01*
X128239888Y-66735500D01*
X128193532Y-66730935D01*
X128154862Y-66719204D01*
X128119223Y-66700154D01*
X128087983Y-66674517D01*
X128062346Y-66643277D01*
X128043296Y-66607638D01*
X128031565Y-66568968D01*
X128027000Y-66522612D01*
X128027000Y-65871388D01*
X128031565Y-65825032D01*
X128043296Y-65786362D01*
X128062346Y-65750723D01*
X128087983Y-65719483D01*
X128119223Y-65693846D01*
X128154862Y-65674796D01*
X128193532Y-65663065D01*
X128239888Y-65658500D01*
X129316112Y-65658500D01*
X129362468Y-65663065D01*
X129362468Y-65663065D01*
G37*
G36*
X126822468Y-65663065D02*
G01*
X126861138Y-65674796D01*
X126896777Y-65693846D01*
X126928017Y-65719483D01*
X126953654Y-65750723D01*
X126972704Y-65786362D01*
X126984435Y-65825032D01*
X126989000Y-65871388D01*
X126989000Y-66522612D01*
X126984435Y-66568968D01*
X126972704Y-66607638D01*
X126953654Y-66643277D01*
X126928017Y-66674517D01*
X126896777Y-66700154D01*
X126861138Y-66719204D01*
X126822468Y-66730935D01*
X126776112Y-66735500D01*
X125699888Y-66735500D01*
X125653532Y-66730935D01*
X125614862Y-66719204D01*
X125579223Y-66700154D01*
X125547983Y-66674517D01*
X125522346Y-66643277D01*
X125503296Y-66607638D01*
X125491565Y-66568968D01*
X125487000Y-66522612D01*
X125487000Y-65871388D01*
X125491565Y-65825032D01*
X125503296Y-65786362D01*
X125522346Y-65750723D01*
X125547983Y-65719483D01*
X125579223Y-65693846D01*
X125614862Y-65674796D01*
X125653532Y-65663065D01*
X125699888Y-65658500D01*
X126776112Y-65658500D01*
X126822468Y-65663065D01*
X126822468Y-65663065D01*
G37*
G36*
X137270443Y-64637519D02*
G01*
X137336627Y-64644037D01*
X137506466Y-64695557D01*
X137662991Y-64779222D01*
X137698729Y-64808552D01*
X137800186Y-64891814D01*
X137883448Y-64993271D01*
X137912778Y-65029009D01*
X137996443Y-65185534D01*
X138047963Y-65355373D01*
X138065359Y-65532000D01*
X138047963Y-65708627D01*
X137996443Y-65878466D01*
X137912778Y-66034991D01*
X137883448Y-66070729D01*
X137800186Y-66172186D01*
X137698729Y-66255448D01*
X137662991Y-66284778D01*
X137506466Y-66368443D01*
X137336627Y-66419963D01*
X137270443Y-66426481D01*
X137204260Y-66433000D01*
X137115740Y-66433000D01*
X137049557Y-66426481D01*
X136983373Y-66419963D01*
X136813534Y-66368443D01*
X136657009Y-66284778D01*
X136621271Y-66255448D01*
X136519814Y-66172186D01*
X136436552Y-66070729D01*
X136407222Y-66034991D01*
X136323557Y-65878466D01*
X136272037Y-65708627D01*
X136254641Y-65532000D01*
X136272037Y-65355373D01*
X136323557Y-65185534D01*
X136407222Y-65029009D01*
X136436552Y-64993271D01*
X136519814Y-64891814D01*
X136621271Y-64808552D01*
X136657009Y-64779222D01*
X136813534Y-64695557D01*
X136983373Y-64644037D01*
X137049557Y-64637519D01*
X137115740Y-64631000D01*
X137204260Y-64631000D01*
X137270443Y-64637519D01*
X137270443Y-64637519D01*
G37*
G36*
X140601000Y-66433000D02*
G01*
X138799000Y-66433000D01*
X138799000Y-64631000D01*
X140601000Y-64631000D01*
X140601000Y-66433000D01*
X140601000Y-66433000D01*
G37*
G36*
X134730443Y-64637519D02*
G01*
X134796627Y-64644037D01*
X134966466Y-64695557D01*
X135122991Y-64779222D01*
X135158729Y-64808552D01*
X135260186Y-64891814D01*
X135343448Y-64993271D01*
X135372778Y-65029009D01*
X135456443Y-65185534D01*
X135507963Y-65355373D01*
X135525359Y-65532000D01*
X135507963Y-65708627D01*
X135456443Y-65878466D01*
X135372778Y-66034991D01*
X135343448Y-66070729D01*
X135260186Y-66172186D01*
X135158729Y-66255448D01*
X135122991Y-66284778D01*
X134966466Y-66368443D01*
X134796627Y-66419963D01*
X134730443Y-66426481D01*
X134664260Y-66433000D01*
X134575740Y-66433000D01*
X134509557Y-66426481D01*
X134443373Y-66419963D01*
X134273534Y-66368443D01*
X134117009Y-66284778D01*
X134081271Y-66255448D01*
X133979814Y-66172186D01*
X133896552Y-66070729D01*
X133867222Y-66034991D01*
X133783557Y-65878466D01*
X133732037Y-65708627D01*
X133714641Y-65532000D01*
X133732037Y-65355373D01*
X133783557Y-65185534D01*
X133867222Y-65029009D01*
X133896552Y-64993271D01*
X133979814Y-64891814D01*
X134081271Y-64808552D01*
X134117009Y-64779222D01*
X134273534Y-64695557D01*
X134443373Y-64644037D01*
X134509557Y-64637519D01*
X134575740Y-64631000D01*
X134664260Y-64631000D01*
X134730443Y-64637519D01*
X134730443Y-64637519D01*
G37*
G36*
X124282468Y-63649565D02*
G01*
X124321138Y-63661296D01*
X124356777Y-63680346D01*
X124388017Y-63705983D01*
X124413654Y-63737223D01*
X124432704Y-63772862D01*
X124444435Y-63811532D01*
X124449000Y-63857888D01*
X124449000Y-64509112D01*
X124444435Y-64555468D01*
X124432704Y-64594138D01*
X124413654Y-64629777D01*
X124388017Y-64661017D01*
X124356777Y-64686654D01*
X124321138Y-64705704D01*
X124282468Y-64717435D01*
X124236112Y-64722000D01*
X123159888Y-64722000D01*
X123113532Y-64717435D01*
X123074862Y-64705704D01*
X123039223Y-64686654D01*
X123007983Y-64661017D01*
X122982346Y-64629777D01*
X122963296Y-64594138D01*
X122951565Y-64555468D01*
X122947000Y-64509112D01*
X122947000Y-63857888D01*
X122951565Y-63811532D01*
X122963296Y-63772862D01*
X122982346Y-63737223D01*
X123007983Y-63705983D01*
X123039223Y-63680346D01*
X123074862Y-63661296D01*
X123113532Y-63649565D01*
X123159888Y-63645000D01*
X124236112Y-63645000D01*
X124282468Y-63649565D01*
X124282468Y-63649565D01*
G37*
G36*
X121742468Y-63649565D02*
G01*
X121781138Y-63661296D01*
X121816777Y-63680346D01*
X121848017Y-63705983D01*
X121873654Y-63737223D01*
X121892704Y-63772862D01*
X121904435Y-63811532D01*
X121909000Y-63857888D01*
X121909000Y-64509112D01*
X121904435Y-64555468D01*
X121892704Y-64594138D01*
X121873654Y-64629777D01*
X121848017Y-64661017D01*
X121816777Y-64686654D01*
X121781138Y-64705704D01*
X121742468Y-64717435D01*
X121696112Y-64722000D01*
X120619888Y-64722000D01*
X120573532Y-64717435D01*
X120534862Y-64705704D01*
X120499223Y-64686654D01*
X120467983Y-64661017D01*
X120442346Y-64629777D01*
X120423296Y-64594138D01*
X120411565Y-64555468D01*
X120407000Y-64509112D01*
X120407000Y-63857888D01*
X120411565Y-63811532D01*
X120423296Y-63772862D01*
X120442346Y-63737223D01*
X120467983Y-63705983D01*
X120499223Y-63680346D01*
X120534862Y-63661296D01*
X120573532Y-63649565D01*
X120619888Y-63645000D01*
X121696112Y-63645000D01*
X121742468Y-63649565D01*
X121742468Y-63649565D01*
G37*
G36*
X129362468Y-63649565D02*
G01*
X129401138Y-63661296D01*
X129436777Y-63680346D01*
X129468017Y-63705983D01*
X129493654Y-63737223D01*
X129512704Y-63772862D01*
X129524435Y-63811532D01*
X129529000Y-63857888D01*
X129529000Y-64509112D01*
X129524435Y-64555468D01*
X129512704Y-64594138D01*
X129493654Y-64629777D01*
X129468017Y-64661017D01*
X129436777Y-64686654D01*
X129401138Y-64705704D01*
X129362468Y-64717435D01*
X129316112Y-64722000D01*
X128239888Y-64722000D01*
X128193532Y-64717435D01*
X128154862Y-64705704D01*
X128119223Y-64686654D01*
X128087983Y-64661017D01*
X128062346Y-64629777D01*
X128043296Y-64594138D01*
X128031565Y-64555468D01*
X128027000Y-64509112D01*
X128027000Y-63857888D01*
X128031565Y-63811532D01*
X128043296Y-63772862D01*
X128062346Y-63737223D01*
X128087983Y-63705983D01*
X128119223Y-63680346D01*
X128154862Y-63661296D01*
X128193532Y-63649565D01*
X128239888Y-63645000D01*
X129316112Y-63645000D01*
X129362468Y-63649565D01*
X129362468Y-63649565D01*
G37*
G36*
X126822468Y-63649565D02*
G01*
X126861138Y-63661296D01*
X126896777Y-63680346D01*
X126928017Y-63705983D01*
X126953654Y-63737223D01*
X126972704Y-63772862D01*
X126984435Y-63811532D01*
X126989000Y-63857888D01*
X126989000Y-64509112D01*
X126984435Y-64555468D01*
X126972704Y-64594138D01*
X126953654Y-64629777D01*
X126928017Y-64661017D01*
X126896777Y-64686654D01*
X126861138Y-64705704D01*
X126822468Y-64717435D01*
X126776112Y-64722000D01*
X125699888Y-64722000D01*
X125653532Y-64717435D01*
X125614862Y-64705704D01*
X125579223Y-64686654D01*
X125547983Y-64661017D01*
X125522346Y-64629777D01*
X125503296Y-64594138D01*
X125491565Y-64555468D01*
X125487000Y-64509112D01*
X125487000Y-63857888D01*
X125491565Y-63811532D01*
X125503296Y-63772862D01*
X125522346Y-63737223D01*
X125547983Y-63705983D01*
X125579223Y-63680346D01*
X125614862Y-63661296D01*
X125653532Y-63649565D01*
X125699888Y-63645000D01*
X126776112Y-63645000D01*
X126822468Y-63649565D01*
X126822468Y-63649565D01*
G37*
G36*
X78850442Y-62605518D02*
G01*
X78916627Y-62612037D01*
X79086466Y-62663557D01*
X79242991Y-62747222D01*
X79268445Y-62768112D01*
X79380186Y-62859814D01*
X79450632Y-62945654D01*
X79492778Y-62997009D01*
X79576443Y-63153534D01*
X79627963Y-63323373D01*
X79645359Y-63500000D01*
X79627963Y-63676627D01*
X79576443Y-63846466D01*
X79492778Y-64002991D01*
X79463448Y-64038729D01*
X79380186Y-64140186D01*
X79278729Y-64223448D01*
X79242991Y-64252778D01*
X79086466Y-64336443D01*
X78916627Y-64387963D01*
X78850442Y-64394482D01*
X78784260Y-64401000D01*
X78695740Y-64401000D01*
X78629558Y-64394482D01*
X78563373Y-64387963D01*
X78393534Y-64336443D01*
X78237009Y-64252778D01*
X78201271Y-64223448D01*
X78099814Y-64140186D01*
X78016552Y-64038729D01*
X77987222Y-64002991D01*
X77903557Y-63846466D01*
X77852037Y-63676627D01*
X77834641Y-63500000D01*
X77852037Y-63323373D01*
X77903557Y-63153534D01*
X77987222Y-62997009D01*
X78029368Y-62945654D01*
X78099814Y-62859814D01*
X78211555Y-62768112D01*
X78237009Y-62747222D01*
X78393534Y-62663557D01*
X78563373Y-62612037D01*
X78629558Y-62605518D01*
X78695740Y-62599000D01*
X78784260Y-62599000D01*
X78850442Y-62605518D01*
X78850442Y-62605518D01*
G37*
G36*
X142279468Y-61483565D02*
G01*
X142318138Y-61495296D01*
X142353777Y-61514346D01*
X142385017Y-61539983D01*
X142410654Y-61571223D01*
X142429704Y-61606862D01*
X142441435Y-61645532D01*
X142446000Y-61691888D01*
X142446000Y-62768112D01*
X142441435Y-62814468D01*
X142429704Y-62853138D01*
X142410654Y-62888777D01*
X142385017Y-62920017D01*
X142353777Y-62945654D01*
X142318138Y-62964704D01*
X142279468Y-62976435D01*
X142233112Y-62981000D01*
X141581888Y-62981000D01*
X141535532Y-62976435D01*
X141496862Y-62964704D01*
X141461223Y-62945654D01*
X141429983Y-62920017D01*
X141404346Y-62888777D01*
X141385296Y-62853138D01*
X141373565Y-62814468D01*
X141369000Y-62768112D01*
X141369000Y-61691888D01*
X141373565Y-61645532D01*
X141385296Y-61606862D01*
X141404346Y-61571223D01*
X141429983Y-61539983D01*
X141461223Y-61514346D01*
X141496862Y-61495296D01*
X141535532Y-61483565D01*
X141581888Y-61479000D01*
X142233112Y-61479000D01*
X142279468Y-61483565D01*
X142279468Y-61483565D01*
G37*
G36*
X140404468Y-61483565D02*
G01*
X140443138Y-61495296D01*
X140478777Y-61514346D01*
X140510017Y-61539983D01*
X140535654Y-61571223D01*
X140554704Y-61606862D01*
X140566435Y-61645532D01*
X140571000Y-61691888D01*
X140571000Y-62768112D01*
X140566435Y-62814468D01*
X140554704Y-62853138D01*
X140535654Y-62888777D01*
X140510017Y-62920017D01*
X140478777Y-62945654D01*
X140443138Y-62964704D01*
X140404468Y-62976435D01*
X140358112Y-62981000D01*
X139706888Y-62981000D01*
X139660532Y-62976435D01*
X139621862Y-62964704D01*
X139586223Y-62945654D01*
X139554983Y-62920017D01*
X139529346Y-62888777D01*
X139510296Y-62853138D01*
X139498565Y-62814468D01*
X139494000Y-62768112D01*
X139494000Y-61691888D01*
X139498565Y-61645532D01*
X139510296Y-61606862D01*
X139529346Y-61571223D01*
X139554983Y-61539983D01*
X139586223Y-61514346D01*
X139621862Y-61495296D01*
X139660532Y-61483565D01*
X139706888Y-61479000D01*
X140358112Y-61479000D01*
X140404468Y-61483565D01*
X140404468Y-61483565D01*
G37*
G36*
X129362468Y-61774565D02*
G01*
X129401138Y-61786296D01*
X129436777Y-61805346D01*
X129468017Y-61830983D01*
X129493654Y-61862223D01*
X129512704Y-61897862D01*
X129524435Y-61936532D01*
X129529000Y-61982888D01*
X129529000Y-62634112D01*
X129524435Y-62680468D01*
X129512704Y-62719138D01*
X129493654Y-62754777D01*
X129468017Y-62786017D01*
X129436777Y-62811654D01*
X129401138Y-62830704D01*
X129362468Y-62842435D01*
X129316112Y-62847000D01*
X128239888Y-62847000D01*
X128193532Y-62842435D01*
X128154862Y-62830704D01*
X128119223Y-62811654D01*
X128087983Y-62786017D01*
X128062346Y-62754777D01*
X128043296Y-62719138D01*
X128031565Y-62680468D01*
X128027000Y-62634112D01*
X128027000Y-61982888D01*
X128031565Y-61936532D01*
X128043296Y-61897862D01*
X128062346Y-61862223D01*
X128087983Y-61830983D01*
X128119223Y-61805346D01*
X128154862Y-61786296D01*
X128193532Y-61774565D01*
X128239888Y-61770000D01*
X129316112Y-61770000D01*
X129362468Y-61774565D01*
X129362468Y-61774565D01*
G37*
G36*
X126822468Y-61774565D02*
G01*
X126861138Y-61786296D01*
X126896777Y-61805346D01*
X126928017Y-61830983D01*
X126953654Y-61862223D01*
X126972704Y-61897862D01*
X126984435Y-61936532D01*
X126989000Y-61982888D01*
X126989000Y-62634112D01*
X126984435Y-62680468D01*
X126972704Y-62719138D01*
X126953654Y-62754777D01*
X126928017Y-62786017D01*
X126896777Y-62811654D01*
X126861138Y-62830704D01*
X126822468Y-62842435D01*
X126776112Y-62847000D01*
X125699888Y-62847000D01*
X125653532Y-62842435D01*
X125614862Y-62830704D01*
X125579223Y-62811654D01*
X125547983Y-62786017D01*
X125522346Y-62754777D01*
X125503296Y-62719138D01*
X125491565Y-62680468D01*
X125487000Y-62634112D01*
X125487000Y-61982888D01*
X125491565Y-61936532D01*
X125503296Y-61897862D01*
X125522346Y-61862223D01*
X125547983Y-61830983D01*
X125579223Y-61805346D01*
X125614862Y-61786296D01*
X125653532Y-61774565D01*
X125699888Y-61770000D01*
X126776112Y-61770000D01*
X126822468Y-61774565D01*
X126822468Y-61774565D01*
G37*
G36*
X124282468Y-61774565D02*
G01*
X124321138Y-61786296D01*
X124356777Y-61805346D01*
X124388017Y-61830983D01*
X124413654Y-61862223D01*
X124432704Y-61897862D01*
X124444435Y-61936532D01*
X124449000Y-61982888D01*
X124449000Y-62634112D01*
X124444435Y-62680468D01*
X124432704Y-62719138D01*
X124413654Y-62754777D01*
X124388017Y-62786017D01*
X124356777Y-62811654D01*
X124321138Y-62830704D01*
X124282468Y-62842435D01*
X124236112Y-62847000D01*
X123159888Y-62847000D01*
X123113532Y-62842435D01*
X123074862Y-62830704D01*
X123039223Y-62811654D01*
X123007983Y-62786017D01*
X122982346Y-62754777D01*
X122963296Y-62719138D01*
X122951565Y-62680468D01*
X122947000Y-62634112D01*
X122947000Y-61982888D01*
X122951565Y-61936532D01*
X122963296Y-61897862D01*
X122982346Y-61862223D01*
X123007983Y-61830983D01*
X123039223Y-61805346D01*
X123074862Y-61786296D01*
X123113532Y-61774565D01*
X123159888Y-61770000D01*
X124236112Y-61770000D01*
X124282468Y-61774565D01*
X124282468Y-61774565D01*
G37*
G36*
X121742468Y-61774565D02*
G01*
X121781138Y-61786296D01*
X121816777Y-61805346D01*
X121848017Y-61830983D01*
X121873654Y-61862223D01*
X121892704Y-61897862D01*
X121904435Y-61936532D01*
X121909000Y-61982888D01*
X121909000Y-62634112D01*
X121904435Y-62680468D01*
X121892704Y-62719138D01*
X121873654Y-62754777D01*
X121848017Y-62786017D01*
X121816777Y-62811654D01*
X121781138Y-62830704D01*
X121742468Y-62842435D01*
X121696112Y-62847000D01*
X120619888Y-62847000D01*
X120573532Y-62842435D01*
X120534862Y-62830704D01*
X120499223Y-62811654D01*
X120467983Y-62786017D01*
X120442346Y-62754777D01*
X120423296Y-62719138D01*
X120411565Y-62680468D01*
X120407000Y-62634112D01*
X120407000Y-61982888D01*
X120411565Y-61936532D01*
X120423296Y-61897862D01*
X120442346Y-61862223D01*
X120467983Y-61830983D01*
X120499223Y-61805346D01*
X120534862Y-61786296D01*
X120573532Y-61774565D01*
X120619888Y-61770000D01*
X121696112Y-61770000D01*
X121742468Y-61774565D01*
X121742468Y-61774565D01*
G37*
G36*
X122607294Y-58788633D02*
G01*
X122779695Y-58840931D01*
X122938583Y-58925858D01*
X123077849Y-59040151D01*
X123192142Y-59179417D01*
X123277069Y-59338305D01*
X123329367Y-59510706D01*
X123347025Y-59690000D01*
X123329367Y-59869294D01*
X123277069Y-60041695D01*
X123192142Y-60200583D01*
X123077849Y-60339849D01*
X122938583Y-60454142D01*
X122779695Y-60539069D01*
X122607294Y-60591367D01*
X122472931Y-60604600D01*
X122383069Y-60604600D01*
X122248706Y-60591367D01*
X122076305Y-60539069D01*
X121917417Y-60454142D01*
X121778151Y-60339849D01*
X121663858Y-60200583D01*
X121578931Y-60041695D01*
X121526633Y-59869294D01*
X121508975Y-59690000D01*
X121526633Y-59510706D01*
X121578931Y-59338305D01*
X121663858Y-59179417D01*
X121778151Y-59040151D01*
X121917417Y-58925858D01*
X122076305Y-58840931D01*
X122248706Y-58788633D01*
X122383069Y-58775400D01*
X122472931Y-58775400D01*
X122607294Y-58788633D01*
X122607294Y-58788633D01*
G37*
G36*
X125147294Y-58788633D02*
G01*
X125319695Y-58840931D01*
X125478583Y-58925858D01*
X125617849Y-59040151D01*
X125732142Y-59179417D01*
X125817069Y-59338305D01*
X125869367Y-59510706D01*
X125887025Y-59690000D01*
X125869367Y-59869294D01*
X125817069Y-60041695D01*
X125732142Y-60200583D01*
X125617849Y-60339849D01*
X125478583Y-60454142D01*
X125319695Y-60539069D01*
X125147294Y-60591367D01*
X125012931Y-60604600D01*
X124923069Y-60604600D01*
X124788706Y-60591367D01*
X124616305Y-60539069D01*
X124457417Y-60454142D01*
X124318151Y-60339849D01*
X124203858Y-60200583D01*
X124118931Y-60041695D01*
X124066633Y-59869294D01*
X124048975Y-59690000D01*
X124066633Y-59510706D01*
X124118931Y-59338305D01*
X124203858Y-59179417D01*
X124318151Y-59040151D01*
X124457417Y-58925858D01*
X124616305Y-58840931D01*
X124788706Y-58788633D01*
X124923069Y-58775400D01*
X125012931Y-58775400D01*
X125147294Y-58788633D01*
X125147294Y-58788633D01*
G37*
G36*
X127687294Y-58788633D02*
G01*
X127859695Y-58840931D01*
X128018583Y-58925858D01*
X128157849Y-59040151D01*
X128272142Y-59179417D01*
X128357069Y-59338305D01*
X128409367Y-59510706D01*
X128427025Y-59690000D01*
X128409367Y-59869294D01*
X128357069Y-60041695D01*
X128272142Y-60200583D01*
X128157849Y-60339849D01*
X128018583Y-60454142D01*
X127859695Y-60539069D01*
X127687294Y-60591367D01*
X127552931Y-60604600D01*
X127463069Y-60604600D01*
X127328706Y-60591367D01*
X127156305Y-60539069D01*
X126997417Y-60454142D01*
X126858151Y-60339849D01*
X126743858Y-60200583D01*
X126658931Y-60041695D01*
X126606633Y-59869294D01*
X126588975Y-59690000D01*
X126606633Y-59510706D01*
X126658931Y-59338305D01*
X126743858Y-59179417D01*
X126858151Y-59040151D01*
X126997417Y-58925858D01*
X127156305Y-58840931D01*
X127328706Y-58788633D01*
X127463069Y-58775400D01*
X127552931Y-58775400D01*
X127687294Y-58788633D01*
X127687294Y-58788633D01*
G37*
G36*
X130227294Y-58788633D02*
G01*
X130399695Y-58840931D01*
X130558583Y-58925858D01*
X130697849Y-59040151D01*
X130812142Y-59179417D01*
X130897069Y-59338305D01*
X130949367Y-59510706D01*
X130967025Y-59690000D01*
X130949367Y-59869294D01*
X130897069Y-60041695D01*
X130812142Y-60200583D01*
X130697849Y-60339849D01*
X130558583Y-60454142D01*
X130399695Y-60539069D01*
X130227294Y-60591367D01*
X130092931Y-60604600D01*
X130003069Y-60604600D01*
X129868706Y-60591367D01*
X129696305Y-60539069D01*
X129537417Y-60454142D01*
X129398151Y-60339849D01*
X129283858Y-60200583D01*
X129198931Y-60041695D01*
X129146633Y-59869294D01*
X129128975Y-59690000D01*
X129146633Y-59510706D01*
X129198931Y-59338305D01*
X129283858Y-59179417D01*
X129398151Y-59040151D01*
X129537417Y-58925858D01*
X129696305Y-58840931D01*
X129868706Y-58788633D01*
X130003069Y-58775400D01*
X130092931Y-58775400D01*
X130227294Y-58788633D01*
X130227294Y-58788633D01*
G37*
G36*
X132767294Y-58788633D02*
G01*
X132939695Y-58840931D01*
X133098583Y-58925858D01*
X133237849Y-59040151D01*
X133352142Y-59179417D01*
X133437069Y-59338305D01*
X133489367Y-59510706D01*
X133507025Y-59690000D01*
X133489367Y-59869294D01*
X133437069Y-60041695D01*
X133352142Y-60200583D01*
X133237849Y-60339849D01*
X133098583Y-60454142D01*
X132939695Y-60539069D01*
X132767294Y-60591367D01*
X132632931Y-60604600D01*
X132543069Y-60604600D01*
X132408706Y-60591367D01*
X132236305Y-60539069D01*
X132077417Y-60454142D01*
X131938151Y-60339849D01*
X131823858Y-60200583D01*
X131738931Y-60041695D01*
X131686633Y-59869294D01*
X131668975Y-59690000D01*
X131686633Y-59510706D01*
X131738931Y-59338305D01*
X131823858Y-59179417D01*
X131938151Y-59040151D01*
X132077417Y-58925858D01*
X132236305Y-58840931D01*
X132408706Y-58788633D01*
X132543069Y-58775400D01*
X132632931Y-58775400D01*
X132767294Y-58788633D01*
X132767294Y-58788633D01*
G37*
G36*
X135307294Y-58788633D02*
G01*
X135479695Y-58840931D01*
X135638583Y-58925858D01*
X135777849Y-59040151D01*
X135892142Y-59179417D01*
X135977069Y-59338305D01*
X136029367Y-59510706D01*
X136047025Y-59690000D01*
X136029367Y-59869294D01*
X135977069Y-60041695D01*
X135892142Y-60200583D01*
X135777849Y-60339849D01*
X135638583Y-60454142D01*
X135479695Y-60539069D01*
X135307294Y-60591367D01*
X135172931Y-60604600D01*
X135083069Y-60604600D01*
X134948706Y-60591367D01*
X134776305Y-60539069D01*
X134617417Y-60454142D01*
X134478151Y-60339849D01*
X134363858Y-60200583D01*
X134278931Y-60041695D01*
X134226633Y-59869294D01*
X134208975Y-59690000D01*
X134226633Y-59510706D01*
X134278931Y-59338305D01*
X134363858Y-59179417D01*
X134478151Y-59040151D01*
X134617417Y-58925858D01*
X134776305Y-58840931D01*
X134948706Y-58788633D01*
X135083069Y-58775400D01*
X135172931Y-58775400D01*
X135307294Y-58788633D01*
X135307294Y-58788633D01*
G37*
G36*
X138582600Y-60604600D02*
G01*
X136753400Y-60604600D01*
X136753400Y-58775400D01*
X138582600Y-58775400D01*
X138582600Y-60604600D01*
X138582600Y-60604600D01*
G37*
G36*
X120067294Y-58788633D02*
G01*
X120239695Y-58840931D01*
X120398583Y-58925858D01*
X120537849Y-59040151D01*
X120652142Y-59179417D01*
X120737069Y-59338305D01*
X120789367Y-59510706D01*
X120807025Y-59690000D01*
X120789367Y-59869294D01*
X120737069Y-60041695D01*
X120652142Y-60200583D01*
X120537849Y-60339849D01*
X120398583Y-60454142D01*
X120239695Y-60539069D01*
X120067294Y-60591367D01*
X119932931Y-60604600D01*
X119843069Y-60604600D01*
X119708706Y-60591367D01*
X119536305Y-60539069D01*
X119377417Y-60454142D01*
X119238151Y-60339849D01*
X119123858Y-60200583D01*
X119038931Y-60041695D01*
X118986633Y-59869294D01*
X118968975Y-59690000D01*
X118986633Y-59510706D01*
X119038931Y-59338305D01*
X119123858Y-59179417D01*
X119238151Y-59040151D01*
X119377417Y-58925858D01*
X119536305Y-58840931D01*
X119708706Y-58788633D01*
X119843069Y-58775400D01*
X119932931Y-58775400D01*
X120067294Y-58788633D01*
X120067294Y-58788633D01*
G37*
G36*
X84240823Y-58851313D02*
G01*
X84401242Y-58899976D01*
X84533906Y-58970886D01*
X84549078Y-58978996D01*
X84678659Y-59085341D01*
X84785004Y-59214922D01*
X84785005Y-59214924D01*
X84864024Y-59362758D01*
X84912687Y-59523177D01*
X84929117Y-59690000D01*
X84912687Y-59856823D01*
X84864024Y-60017242D01*
X84850953Y-60041696D01*
X84785004Y-60165078D01*
X84678659Y-60294659D01*
X84549078Y-60401004D01*
X84549076Y-60401005D01*
X84401242Y-60480024D01*
X84240823Y-60528687D01*
X84115804Y-60541000D01*
X84032196Y-60541000D01*
X83907177Y-60528687D01*
X83746758Y-60480024D01*
X83598924Y-60401005D01*
X83598922Y-60401004D01*
X83469341Y-60294659D01*
X83362996Y-60165078D01*
X83297047Y-60041696D01*
X83283976Y-60017242D01*
X83235313Y-59856823D01*
X83218883Y-59690000D01*
X83235313Y-59523177D01*
X83283976Y-59362758D01*
X83362995Y-59214924D01*
X83362996Y-59214922D01*
X83469341Y-59085341D01*
X83598922Y-58978996D01*
X83614094Y-58970886D01*
X83746758Y-58899976D01*
X83907177Y-58851313D01*
X84032196Y-58839000D01*
X84115804Y-58839000D01*
X84240823Y-58851313D01*
X84240823Y-58851313D01*
G37*
G36*
X96940823Y-58851313D02*
G01*
X97101242Y-58899976D01*
X97233906Y-58970886D01*
X97249078Y-58978996D01*
X97378659Y-59085341D01*
X97485004Y-59214922D01*
X97485005Y-59214924D01*
X97564024Y-59362758D01*
X97612687Y-59523177D01*
X97629117Y-59690000D01*
X97612687Y-59856823D01*
X97564024Y-60017242D01*
X97550953Y-60041696D01*
X97485004Y-60165078D01*
X97378659Y-60294659D01*
X97249078Y-60401004D01*
X97249076Y-60401005D01*
X97101242Y-60480024D01*
X96940823Y-60528687D01*
X96815804Y-60541000D01*
X96732196Y-60541000D01*
X96607177Y-60528687D01*
X96446758Y-60480024D01*
X96298924Y-60401005D01*
X96298922Y-60401004D01*
X96169341Y-60294659D01*
X96062996Y-60165078D01*
X95997047Y-60041696D01*
X95983976Y-60017242D01*
X95935313Y-59856823D01*
X95918883Y-59690000D01*
X95935313Y-59523177D01*
X95983976Y-59362758D01*
X96062995Y-59214924D01*
X96062996Y-59214922D01*
X96169341Y-59085341D01*
X96298922Y-58978996D01*
X96314094Y-58970886D01*
X96446758Y-58899976D01*
X96607177Y-58851313D01*
X96732196Y-58839000D01*
X96815804Y-58839000D01*
X96940823Y-58851313D01*
X96940823Y-58851313D01*
G37*
G36*
X105703823Y-58851313D02*
G01*
X105864242Y-58899976D01*
X105996906Y-58970886D01*
X106012078Y-58978996D01*
X106141659Y-59085341D01*
X106248004Y-59214922D01*
X106248005Y-59214924D01*
X106327024Y-59362758D01*
X106375687Y-59523177D01*
X106392117Y-59690000D01*
X106375687Y-59856823D01*
X106327024Y-60017242D01*
X106313953Y-60041696D01*
X106248004Y-60165078D01*
X106141659Y-60294659D01*
X106012078Y-60401004D01*
X106012076Y-60401005D01*
X105864242Y-60480024D01*
X105703823Y-60528687D01*
X105578804Y-60541000D01*
X105495196Y-60541000D01*
X105370177Y-60528687D01*
X105209758Y-60480024D01*
X105061924Y-60401005D01*
X105061922Y-60401004D01*
X104932341Y-60294659D01*
X104825996Y-60165078D01*
X104760047Y-60041696D01*
X104746976Y-60017242D01*
X104698313Y-59856823D01*
X104681883Y-59690000D01*
X104698313Y-59523177D01*
X104746976Y-59362758D01*
X104825995Y-59214924D01*
X104825996Y-59214922D01*
X104932341Y-59085341D01*
X105061922Y-58978996D01*
X105077094Y-58970886D01*
X105209758Y-58899976D01*
X105370177Y-58851313D01*
X105495196Y-58839000D01*
X105578804Y-58839000D01*
X105703823Y-58851313D01*
X105703823Y-58851313D01*
G37*
G36*
X108243823Y-58851313D02*
G01*
X108404242Y-58899976D01*
X108536906Y-58970886D01*
X108552078Y-58978996D01*
X108681659Y-59085341D01*
X108788004Y-59214922D01*
X108788005Y-59214924D01*
X108867024Y-59362758D01*
X108915687Y-59523177D01*
X108932117Y-59690000D01*
X108915687Y-59856823D01*
X108867024Y-60017242D01*
X108853953Y-60041696D01*
X108788004Y-60165078D01*
X108681659Y-60294659D01*
X108552078Y-60401004D01*
X108552076Y-60401005D01*
X108404242Y-60480024D01*
X108243823Y-60528687D01*
X108118804Y-60541000D01*
X108035196Y-60541000D01*
X107910177Y-60528687D01*
X107749758Y-60480024D01*
X107601924Y-60401005D01*
X107601922Y-60401004D01*
X107472341Y-60294659D01*
X107365996Y-60165078D01*
X107300047Y-60041696D01*
X107286976Y-60017242D01*
X107238313Y-59856823D01*
X107221883Y-59690000D01*
X107238313Y-59523177D01*
X107286976Y-59362758D01*
X107365995Y-59214924D01*
X107365996Y-59214922D01*
X107472341Y-59085341D01*
X107601922Y-58978996D01*
X107617094Y-58970886D01*
X107749758Y-58899976D01*
X107910177Y-58851313D01*
X108035196Y-58839000D01*
X108118804Y-58839000D01*
X108243823Y-58851313D01*
X108243823Y-58851313D01*
G37*
G36*
X110783823Y-58851313D02*
G01*
X110944242Y-58899976D01*
X111076906Y-58970886D01*
X111092078Y-58978996D01*
X111221659Y-59085341D01*
X111328004Y-59214922D01*
X111328005Y-59214924D01*
X111407024Y-59362758D01*
X111455687Y-59523177D01*
X111472117Y-59690000D01*
X111455687Y-59856823D01*
X111407024Y-60017242D01*
X111393953Y-60041696D01*
X111328004Y-60165078D01*
X111221659Y-60294659D01*
X111092078Y-60401004D01*
X111092076Y-60401005D01*
X110944242Y-60480024D01*
X110783823Y-60528687D01*
X110658804Y-60541000D01*
X110575196Y-60541000D01*
X110450177Y-60528687D01*
X110289758Y-60480024D01*
X110141924Y-60401005D01*
X110141922Y-60401004D01*
X110012341Y-60294659D01*
X109905996Y-60165078D01*
X109840047Y-60041696D01*
X109826976Y-60017242D01*
X109778313Y-59856823D01*
X109761883Y-59690000D01*
X109778313Y-59523177D01*
X109826976Y-59362758D01*
X109905995Y-59214924D01*
X109905996Y-59214922D01*
X110012341Y-59085341D01*
X110141922Y-58978996D01*
X110157094Y-58970886D01*
X110289758Y-58899976D01*
X110450177Y-58851313D01*
X110575196Y-58839000D01*
X110658804Y-58839000D01*
X110783823Y-58851313D01*
X110783823Y-58851313D01*
G37*
G36*
X113323823Y-58851313D02*
G01*
X113484242Y-58899976D01*
X113616906Y-58970886D01*
X113632078Y-58978996D01*
X113761659Y-59085341D01*
X113868004Y-59214922D01*
X113868005Y-59214924D01*
X113947024Y-59362758D01*
X113995687Y-59523177D01*
X114012117Y-59690000D01*
X113995687Y-59856823D01*
X113947024Y-60017242D01*
X113933953Y-60041696D01*
X113868004Y-60165078D01*
X113761659Y-60294659D01*
X113632078Y-60401004D01*
X113632076Y-60401005D01*
X113484242Y-60480024D01*
X113323823Y-60528687D01*
X113198804Y-60541000D01*
X113115196Y-60541000D01*
X112990177Y-60528687D01*
X112829758Y-60480024D01*
X112681924Y-60401005D01*
X112681922Y-60401004D01*
X112552341Y-60294659D01*
X112445996Y-60165078D01*
X112380047Y-60041696D01*
X112366976Y-60017242D01*
X112318313Y-59856823D01*
X112301883Y-59690000D01*
X112318313Y-59523177D01*
X112366976Y-59362758D01*
X112445995Y-59214924D01*
X112445996Y-59214922D01*
X112552341Y-59085341D01*
X112681922Y-58978996D01*
X112697094Y-58970886D01*
X112829758Y-58899976D01*
X112990177Y-58851313D01*
X113115196Y-58839000D01*
X113198804Y-58839000D01*
X113323823Y-58851313D01*
X113323823Y-58851313D01*
G37*
G36*
X86780823Y-58851313D02*
G01*
X86941242Y-58899976D01*
X87073906Y-58970886D01*
X87089078Y-58978996D01*
X87218659Y-59085341D01*
X87325004Y-59214922D01*
X87325005Y-59214924D01*
X87404024Y-59362758D01*
X87452687Y-59523177D01*
X87469117Y-59690000D01*
X87452687Y-59856823D01*
X87404024Y-60017242D01*
X87390953Y-60041696D01*
X87325004Y-60165078D01*
X87218659Y-60294659D01*
X87089078Y-60401004D01*
X87089076Y-60401005D01*
X86941242Y-60480024D01*
X86780823Y-60528687D01*
X86655804Y-60541000D01*
X86572196Y-60541000D01*
X86447177Y-60528687D01*
X86286758Y-60480024D01*
X86138924Y-60401005D01*
X86138922Y-60401004D01*
X86009341Y-60294659D01*
X85902996Y-60165078D01*
X85837047Y-60041696D01*
X85823976Y-60017242D01*
X85775313Y-59856823D01*
X85758883Y-59690000D01*
X85775313Y-59523177D01*
X85823976Y-59362758D01*
X85902995Y-59214924D01*
X85902996Y-59214922D01*
X86009341Y-59085341D01*
X86138922Y-58978996D01*
X86154094Y-58970886D01*
X86286758Y-58899976D01*
X86447177Y-58851313D01*
X86572196Y-58839000D01*
X86655804Y-58839000D01*
X86780823Y-58851313D01*
X86780823Y-58851313D01*
G37*
G36*
X89320823Y-58851313D02*
G01*
X89481242Y-58899976D01*
X89613906Y-58970886D01*
X89629078Y-58978996D01*
X89758659Y-59085341D01*
X89865004Y-59214922D01*
X89865005Y-59214924D01*
X89944024Y-59362758D01*
X89992687Y-59523177D01*
X90009117Y-59690000D01*
X89992687Y-59856823D01*
X89944024Y-60017242D01*
X89930953Y-60041696D01*
X89865004Y-60165078D01*
X89758659Y-60294659D01*
X89629078Y-60401004D01*
X89629076Y-60401005D01*
X89481242Y-60480024D01*
X89320823Y-60528687D01*
X89195804Y-60541000D01*
X89112196Y-60541000D01*
X88987177Y-60528687D01*
X88826758Y-60480024D01*
X88678924Y-60401005D01*
X88678922Y-60401004D01*
X88549341Y-60294659D01*
X88442996Y-60165078D01*
X88377047Y-60041696D01*
X88363976Y-60017242D01*
X88315313Y-59856823D01*
X88298883Y-59690000D01*
X88315313Y-59523177D01*
X88363976Y-59362758D01*
X88442995Y-59214924D01*
X88442996Y-59214922D01*
X88549341Y-59085341D01*
X88678922Y-58978996D01*
X88694094Y-58970886D01*
X88826758Y-58899976D01*
X88987177Y-58851313D01*
X89112196Y-58839000D01*
X89195804Y-58839000D01*
X89320823Y-58851313D01*
X89320823Y-58851313D01*
G37*
G36*
X91860823Y-58851313D02*
G01*
X92021242Y-58899976D01*
X92153906Y-58970886D01*
X92169078Y-58978996D01*
X92298659Y-59085341D01*
X92405004Y-59214922D01*
X92405005Y-59214924D01*
X92484024Y-59362758D01*
X92532687Y-59523177D01*
X92549117Y-59690000D01*
X92532687Y-59856823D01*
X92484024Y-60017242D01*
X92470953Y-60041696D01*
X92405004Y-60165078D01*
X92298659Y-60294659D01*
X92169078Y-60401004D01*
X92169076Y-60401005D01*
X92021242Y-60480024D01*
X91860823Y-60528687D01*
X91735804Y-60541000D01*
X91652196Y-60541000D01*
X91527177Y-60528687D01*
X91366758Y-60480024D01*
X91218924Y-60401005D01*
X91218922Y-60401004D01*
X91089341Y-60294659D01*
X90982996Y-60165078D01*
X90917047Y-60041696D01*
X90903976Y-60017242D01*
X90855313Y-59856823D01*
X90838883Y-59690000D01*
X90855313Y-59523177D01*
X90903976Y-59362758D01*
X90982995Y-59214924D01*
X90982996Y-59214922D01*
X91089341Y-59085341D01*
X91218922Y-58978996D01*
X91234094Y-58970886D01*
X91366758Y-58899976D01*
X91527177Y-58851313D01*
X91652196Y-58839000D01*
X91735804Y-58839000D01*
X91860823Y-58851313D01*
X91860823Y-58851313D01*
G37*
G36*
X94400823Y-58851313D02*
G01*
X94561242Y-58899976D01*
X94693906Y-58970886D01*
X94709078Y-58978996D01*
X94838659Y-59085341D01*
X94945004Y-59214922D01*
X94945005Y-59214924D01*
X95024024Y-59362758D01*
X95072687Y-59523177D01*
X95089117Y-59690000D01*
X95072687Y-59856823D01*
X95024024Y-60017242D01*
X95010953Y-60041696D01*
X94945004Y-60165078D01*
X94838659Y-60294659D01*
X94709078Y-60401004D01*
X94709076Y-60401005D01*
X94561242Y-60480024D01*
X94400823Y-60528687D01*
X94275804Y-60541000D01*
X94192196Y-60541000D01*
X94067177Y-60528687D01*
X93906758Y-60480024D01*
X93758924Y-60401005D01*
X93758922Y-60401004D01*
X93629341Y-60294659D01*
X93522996Y-60165078D01*
X93457047Y-60041696D01*
X93443976Y-60017242D01*
X93395313Y-59856823D01*
X93378883Y-59690000D01*
X93395313Y-59523177D01*
X93443976Y-59362758D01*
X93522995Y-59214924D01*
X93522996Y-59214922D01*
X93629341Y-59085341D01*
X93758922Y-58978996D01*
X93774094Y-58970886D01*
X93906758Y-58899976D01*
X94067177Y-58851313D01*
X94192196Y-58839000D01*
X94275804Y-58839000D01*
X94400823Y-58851313D01*
X94400823Y-58851313D01*
G37*
G36*
X99480823Y-58851313D02*
G01*
X99641242Y-58899976D01*
X99773906Y-58970886D01*
X99789078Y-58978996D01*
X99918659Y-59085341D01*
X100025004Y-59214922D01*
X100025005Y-59214924D01*
X100104024Y-59362758D01*
X100152687Y-59523177D01*
X100169117Y-59690000D01*
X100152687Y-59856823D01*
X100104024Y-60017242D01*
X100090953Y-60041696D01*
X100025004Y-60165078D01*
X99918659Y-60294659D01*
X99789078Y-60401004D01*
X99789076Y-60401005D01*
X99641242Y-60480024D01*
X99480823Y-60528687D01*
X99355804Y-60541000D01*
X99272196Y-60541000D01*
X99147177Y-60528687D01*
X98986758Y-60480024D01*
X98838924Y-60401005D01*
X98838922Y-60401004D01*
X98709341Y-60294659D01*
X98602996Y-60165078D01*
X98537047Y-60041696D01*
X98523976Y-60017242D01*
X98475313Y-59856823D01*
X98458883Y-59690000D01*
X98475313Y-59523177D01*
X98523976Y-59362758D01*
X98602995Y-59214924D01*
X98602996Y-59214922D01*
X98709341Y-59085341D01*
X98838922Y-58978996D01*
X98854094Y-58970886D01*
X98986758Y-58899976D01*
X99147177Y-58851313D01*
X99272196Y-58839000D01*
X99355804Y-58839000D01*
X99480823Y-58851313D01*
X99480823Y-58851313D01*
G37*
G36*
X102020823Y-58851313D02*
G01*
X102181242Y-58899976D01*
X102313906Y-58970886D01*
X102329078Y-58978996D01*
X102458659Y-59085341D01*
X102565004Y-59214922D01*
X102565005Y-59214924D01*
X102644024Y-59362758D01*
X102692687Y-59523177D01*
X102709117Y-59690000D01*
X102692687Y-59856823D01*
X102644024Y-60017242D01*
X102630953Y-60041696D01*
X102565004Y-60165078D01*
X102458659Y-60294659D01*
X102329078Y-60401004D01*
X102329076Y-60401005D01*
X102181242Y-60480024D01*
X102020823Y-60528687D01*
X101895804Y-60541000D01*
X101812196Y-60541000D01*
X101687177Y-60528687D01*
X101526758Y-60480024D01*
X101378924Y-60401005D01*
X101378922Y-60401004D01*
X101249341Y-60294659D01*
X101142996Y-60165078D01*
X101077047Y-60041696D01*
X101063976Y-60017242D01*
X101015313Y-59856823D01*
X100998883Y-59690000D01*
X101015313Y-59523177D01*
X101063976Y-59362758D01*
X101142995Y-59214924D01*
X101142996Y-59214922D01*
X101249341Y-59085341D01*
X101378922Y-58978996D01*
X101394094Y-58970886D01*
X101526758Y-58899976D01*
X101687177Y-58851313D01*
X101812196Y-58839000D01*
X101895804Y-58839000D01*
X102020823Y-58851313D01*
X102020823Y-58851313D01*
G37*
G36*
X132767294Y-56248633D02*
G01*
X132939695Y-56300931D01*
X133098583Y-56385858D01*
X133237849Y-56500151D01*
X133352142Y-56639417D01*
X133437069Y-56798305D01*
X133489367Y-56970706D01*
X133507025Y-57150000D01*
X133489367Y-57329294D01*
X133437069Y-57501695D01*
X133352142Y-57660583D01*
X133237849Y-57799849D01*
X133098583Y-57914142D01*
X132939695Y-57999069D01*
X132767294Y-58051367D01*
X132632931Y-58064600D01*
X132543069Y-58064600D01*
X132408706Y-58051367D01*
X132236305Y-57999069D01*
X132077417Y-57914142D01*
X131938151Y-57799849D01*
X131823858Y-57660583D01*
X131738931Y-57501695D01*
X131686633Y-57329294D01*
X131668975Y-57150000D01*
X131686633Y-56970706D01*
X131738931Y-56798305D01*
X131823858Y-56639417D01*
X131938151Y-56500151D01*
X132077417Y-56385858D01*
X132236305Y-56300931D01*
X132408706Y-56248633D01*
X132543069Y-56235400D01*
X132632931Y-56235400D01*
X132767294Y-56248633D01*
X132767294Y-56248633D01*
G37*
G36*
X130227294Y-56248633D02*
G01*
X130399695Y-56300931D01*
X130558583Y-56385858D01*
X130697849Y-56500151D01*
X130812142Y-56639417D01*
X130897069Y-56798305D01*
X130949367Y-56970706D01*
X130967025Y-57150000D01*
X130949367Y-57329294D01*
X130897069Y-57501695D01*
X130812142Y-57660583D01*
X130697849Y-57799849D01*
X130558583Y-57914142D01*
X130399695Y-57999069D01*
X130227294Y-58051367D01*
X130092931Y-58064600D01*
X130003069Y-58064600D01*
X129868706Y-58051367D01*
X129696305Y-57999069D01*
X129537417Y-57914142D01*
X129398151Y-57799849D01*
X129283858Y-57660583D01*
X129198931Y-57501695D01*
X129146633Y-57329294D01*
X129128975Y-57150000D01*
X129146633Y-56970706D01*
X129198931Y-56798305D01*
X129283858Y-56639417D01*
X129398151Y-56500151D01*
X129537417Y-56385858D01*
X129696305Y-56300931D01*
X129868706Y-56248633D01*
X130003069Y-56235400D01*
X130092931Y-56235400D01*
X130227294Y-56248633D01*
X130227294Y-56248633D01*
G37*
G36*
X135307294Y-56248633D02*
G01*
X135479695Y-56300931D01*
X135638583Y-56385858D01*
X135777849Y-56500151D01*
X135892142Y-56639417D01*
X135977069Y-56798305D01*
X136029367Y-56970706D01*
X136047025Y-57150000D01*
X136029367Y-57329294D01*
X135977069Y-57501695D01*
X135892142Y-57660583D01*
X135777849Y-57799849D01*
X135638583Y-57914142D01*
X135479695Y-57999069D01*
X135307294Y-58051367D01*
X135172931Y-58064600D01*
X135083069Y-58064600D01*
X134948706Y-58051367D01*
X134776305Y-57999069D01*
X134617417Y-57914142D01*
X134478151Y-57799849D01*
X134363858Y-57660583D01*
X134278931Y-57501695D01*
X134226633Y-57329294D01*
X134208975Y-57150000D01*
X134226633Y-56970706D01*
X134278931Y-56798305D01*
X134363858Y-56639417D01*
X134478151Y-56500151D01*
X134617417Y-56385858D01*
X134776305Y-56300931D01*
X134948706Y-56248633D01*
X135083069Y-56235400D01*
X135172931Y-56235400D01*
X135307294Y-56248633D01*
X135307294Y-56248633D01*
G37*
G36*
X127687294Y-56248633D02*
G01*
X127859695Y-56300931D01*
X128018583Y-56385858D01*
X128157849Y-56500151D01*
X128272142Y-56639417D01*
X128357069Y-56798305D01*
X128409367Y-56970706D01*
X128427025Y-57150000D01*
X128409367Y-57329294D01*
X128357069Y-57501695D01*
X128272142Y-57660583D01*
X128157849Y-57799849D01*
X128018583Y-57914142D01*
X127859695Y-57999069D01*
X127687294Y-58051367D01*
X127552931Y-58064600D01*
X127463069Y-58064600D01*
X127328706Y-58051367D01*
X127156305Y-57999069D01*
X126997417Y-57914142D01*
X126858151Y-57799849D01*
X126743858Y-57660583D01*
X126658931Y-57501695D01*
X126606633Y-57329294D01*
X126588975Y-57150000D01*
X126606633Y-56970706D01*
X126658931Y-56798305D01*
X126743858Y-56639417D01*
X126858151Y-56500151D01*
X126997417Y-56385858D01*
X127156305Y-56300931D01*
X127328706Y-56248633D01*
X127463069Y-56235400D01*
X127552931Y-56235400D01*
X127687294Y-56248633D01*
X127687294Y-56248633D01*
G37*
G36*
X125147294Y-56248633D02*
G01*
X125319695Y-56300931D01*
X125478583Y-56385858D01*
X125617849Y-56500151D01*
X125732142Y-56639417D01*
X125817069Y-56798305D01*
X125869367Y-56970706D01*
X125887025Y-57150000D01*
X125869367Y-57329294D01*
X125817069Y-57501695D01*
X125732142Y-57660583D01*
X125617849Y-57799849D01*
X125478583Y-57914142D01*
X125319695Y-57999069D01*
X125147294Y-58051367D01*
X125012931Y-58064600D01*
X124923069Y-58064600D01*
X124788706Y-58051367D01*
X124616305Y-57999069D01*
X124457417Y-57914142D01*
X124318151Y-57799849D01*
X124203858Y-57660583D01*
X124118931Y-57501695D01*
X124066633Y-57329294D01*
X124048975Y-57150000D01*
X124066633Y-56970706D01*
X124118931Y-56798305D01*
X124203858Y-56639417D01*
X124318151Y-56500151D01*
X124457417Y-56385858D01*
X124616305Y-56300931D01*
X124788706Y-56248633D01*
X124923069Y-56235400D01*
X125012931Y-56235400D01*
X125147294Y-56248633D01*
X125147294Y-56248633D01*
G37*
G36*
X137847294Y-56248633D02*
G01*
X138019695Y-56300931D01*
X138178583Y-56385858D01*
X138317849Y-56500151D01*
X138432142Y-56639417D01*
X138517069Y-56798305D01*
X138569367Y-56970706D01*
X138587025Y-57150000D01*
X138569367Y-57329294D01*
X138517069Y-57501695D01*
X138432142Y-57660583D01*
X138317849Y-57799849D01*
X138178583Y-57914142D01*
X138019695Y-57999069D01*
X137847294Y-58051367D01*
X137712931Y-58064600D01*
X137623069Y-58064600D01*
X137488706Y-58051367D01*
X137316305Y-57999069D01*
X137157417Y-57914142D01*
X137018151Y-57799849D01*
X136903858Y-57660583D01*
X136818931Y-57501695D01*
X136766633Y-57329294D01*
X136748975Y-57150000D01*
X136766633Y-56970706D01*
X136818931Y-56798305D01*
X136903858Y-56639417D01*
X137018151Y-56500151D01*
X137157417Y-56385858D01*
X137316305Y-56300931D01*
X137488706Y-56248633D01*
X137623069Y-56235400D01*
X137712931Y-56235400D01*
X137847294Y-56248633D01*
X137847294Y-56248633D01*
G37*
G36*
X122607294Y-56248633D02*
G01*
X122779695Y-56300931D01*
X122938583Y-56385858D01*
X123077849Y-56500151D01*
X123192142Y-56639417D01*
X123277069Y-56798305D01*
X123329367Y-56970706D01*
X123347025Y-57150000D01*
X123329367Y-57329294D01*
X123277069Y-57501695D01*
X123192142Y-57660583D01*
X123077849Y-57799849D01*
X122938583Y-57914142D01*
X122779695Y-57999069D01*
X122607294Y-58051367D01*
X122472931Y-58064600D01*
X122383069Y-58064600D01*
X122248706Y-58051367D01*
X122076305Y-57999069D01*
X121917417Y-57914142D01*
X121778151Y-57799849D01*
X121663858Y-57660583D01*
X121578931Y-57501695D01*
X121526633Y-57329294D01*
X121508975Y-57150000D01*
X121526633Y-56970706D01*
X121578931Y-56798305D01*
X121663858Y-56639417D01*
X121778151Y-56500151D01*
X121917417Y-56385858D01*
X122076305Y-56300931D01*
X122248706Y-56248633D01*
X122383069Y-56235400D01*
X122472931Y-56235400D01*
X122607294Y-56248633D01*
X122607294Y-56248633D01*
G37*
G36*
X120067294Y-56248633D02*
G01*
X120239695Y-56300931D01*
X120398583Y-56385858D01*
X120537849Y-56500151D01*
X120652142Y-56639417D01*
X120737069Y-56798305D01*
X120789367Y-56970706D01*
X120807025Y-57150000D01*
X120789367Y-57329294D01*
X120737069Y-57501695D01*
X120652142Y-57660583D01*
X120537849Y-57799849D01*
X120398583Y-57914142D01*
X120239695Y-57999069D01*
X120067294Y-58051367D01*
X119932931Y-58064600D01*
X119843069Y-58064600D01*
X119708706Y-58051367D01*
X119536305Y-57999069D01*
X119377417Y-57914142D01*
X119238151Y-57799849D01*
X119123858Y-57660583D01*
X119038931Y-57501695D01*
X118986633Y-57329294D01*
X118968975Y-57150000D01*
X118986633Y-56970706D01*
X119038931Y-56798305D01*
X119123858Y-56639417D01*
X119238151Y-56500151D01*
X119377417Y-56385858D01*
X119536305Y-56300931D01*
X119708706Y-56248633D01*
X119843069Y-56235400D01*
X119932931Y-56235400D01*
X120067294Y-56248633D01*
X120067294Y-56248633D01*
G37*
G36*
X111391000Y-56781000D02*
G01*
X109589000Y-56781000D01*
X109589000Y-54979000D01*
X111391000Y-54979000D01*
X111391000Y-56781000D01*
X111391000Y-56781000D01*
G37*
G36*
X108060443Y-54985519D02*
G01*
X108126627Y-54992037D01*
X108296466Y-55043557D01*
X108452991Y-55127222D01*
X108488729Y-55156552D01*
X108590186Y-55239814D01*
X108673448Y-55341271D01*
X108702778Y-55377009D01*
X108786443Y-55533534D01*
X108837963Y-55703373D01*
X108855359Y-55880000D01*
X108837963Y-56056627D01*
X108786443Y-56226466D01*
X108702778Y-56382991D01*
X108700425Y-56385858D01*
X108590186Y-56520186D01*
X108488729Y-56603448D01*
X108452991Y-56632778D01*
X108296466Y-56716443D01*
X108126627Y-56767963D01*
X108060443Y-56774481D01*
X107994260Y-56781000D01*
X107905740Y-56781000D01*
X107839557Y-56774481D01*
X107773373Y-56767963D01*
X107603534Y-56716443D01*
X107447009Y-56632778D01*
X107411271Y-56603448D01*
X107309814Y-56520186D01*
X107199575Y-56385858D01*
X107197222Y-56382991D01*
X107113557Y-56226466D01*
X107062037Y-56056627D01*
X107044641Y-55880000D01*
X107062037Y-55703373D01*
X107113557Y-55533534D01*
X107197222Y-55377009D01*
X107226552Y-55341271D01*
X107309814Y-55239814D01*
X107411271Y-55156552D01*
X107447009Y-55127222D01*
X107603534Y-55043557D01*
X107773373Y-54992037D01*
X107839557Y-54985519D01*
X107905740Y-54979000D01*
X107994260Y-54979000D01*
X108060443Y-54985519D01*
X108060443Y-54985519D01*
G37*
G36*
X105520443Y-54985519D02*
G01*
X105586627Y-54992037D01*
X105756466Y-55043557D01*
X105912991Y-55127222D01*
X105948729Y-55156552D01*
X106050186Y-55239814D01*
X106133448Y-55341271D01*
X106162778Y-55377009D01*
X106246443Y-55533534D01*
X106297963Y-55703373D01*
X106315359Y-55880000D01*
X106297963Y-56056627D01*
X106246443Y-56226466D01*
X106162778Y-56382991D01*
X106160425Y-56385858D01*
X106050186Y-56520186D01*
X105948729Y-56603448D01*
X105912991Y-56632778D01*
X105756466Y-56716443D01*
X105586627Y-56767963D01*
X105520443Y-56774481D01*
X105454260Y-56781000D01*
X105365740Y-56781000D01*
X105299557Y-56774481D01*
X105233373Y-56767963D01*
X105063534Y-56716443D01*
X104907009Y-56632778D01*
X104871271Y-56603448D01*
X104769814Y-56520186D01*
X104659575Y-56385858D01*
X104657222Y-56382991D01*
X104573557Y-56226466D01*
X104522037Y-56056627D01*
X104504641Y-55880000D01*
X104522037Y-55703373D01*
X104573557Y-55533534D01*
X104657222Y-55377009D01*
X104686552Y-55341271D01*
X104769814Y-55239814D01*
X104871271Y-55156552D01*
X104907009Y-55127222D01*
X105063534Y-55043557D01*
X105233373Y-54992037D01*
X105299557Y-54985519D01*
X105365740Y-54979000D01*
X105454260Y-54979000D01*
X105520443Y-54985519D01*
X105520443Y-54985519D01*
G37*
G36*
X88531000Y-56781000D02*
G01*
X86729000Y-56781000D01*
X86729000Y-54979000D01*
X88531000Y-54979000D01*
X88531000Y-56781000D01*
X88531000Y-56781000D01*
G37*
G36*
X85200443Y-54985519D02*
G01*
X85266627Y-54992037D01*
X85436466Y-55043557D01*
X85592991Y-55127222D01*
X85628729Y-55156552D01*
X85730186Y-55239814D01*
X85813448Y-55341271D01*
X85842778Y-55377009D01*
X85926443Y-55533534D01*
X85977963Y-55703373D01*
X85995359Y-55880000D01*
X85977963Y-56056627D01*
X85926443Y-56226466D01*
X85842778Y-56382991D01*
X85840425Y-56385858D01*
X85730186Y-56520186D01*
X85628729Y-56603448D01*
X85592991Y-56632778D01*
X85436466Y-56716443D01*
X85266627Y-56767963D01*
X85200443Y-56774481D01*
X85134260Y-56781000D01*
X85045740Y-56781000D01*
X84979557Y-56774481D01*
X84913373Y-56767963D01*
X84743534Y-56716443D01*
X84587009Y-56632778D01*
X84551271Y-56603448D01*
X84449814Y-56520186D01*
X84339575Y-56385858D01*
X84337222Y-56382991D01*
X84253557Y-56226466D01*
X84202037Y-56056627D01*
X84184641Y-55880000D01*
X84202037Y-55703373D01*
X84253557Y-55533534D01*
X84337222Y-55377009D01*
X84366552Y-55341271D01*
X84449814Y-55239814D01*
X84551271Y-55156552D01*
X84587009Y-55127222D01*
X84743534Y-55043557D01*
X84913373Y-54992037D01*
X84979557Y-54985519D01*
X85045740Y-54979000D01*
X85134260Y-54979000D01*
X85200443Y-54985519D01*
X85200443Y-54985519D01*
G37*
G36*
X102576968Y-55133565D02*
G01*
X102615638Y-55145296D01*
X102651277Y-55164346D01*
X102682517Y-55189983D01*
X102708154Y-55221223D01*
X102727204Y-55256862D01*
X102738935Y-55295532D01*
X102743500Y-55341888D01*
X102743500Y-56418112D01*
X102738935Y-56464468D01*
X102727204Y-56503138D01*
X102708154Y-56538777D01*
X102682517Y-56570017D01*
X102651277Y-56595654D01*
X102615638Y-56614704D01*
X102576968Y-56626435D01*
X102530612Y-56631000D01*
X101879388Y-56631000D01*
X101833032Y-56626435D01*
X101794362Y-56614704D01*
X101758723Y-56595654D01*
X101727483Y-56570017D01*
X101701846Y-56538777D01*
X101682796Y-56503138D01*
X101671065Y-56464468D01*
X101666500Y-56418112D01*
X101666500Y-55341888D01*
X101671065Y-55295532D01*
X101682796Y-55256862D01*
X101701846Y-55221223D01*
X101727483Y-55189983D01*
X101758723Y-55164346D01*
X101794362Y-55145296D01*
X101833032Y-55133565D01*
X101879388Y-55129000D01*
X102530612Y-55129000D01*
X102576968Y-55133565D01*
X102576968Y-55133565D01*
G37*
G36*
X100701968Y-55133565D02*
G01*
X100740638Y-55145296D01*
X100776277Y-55164346D01*
X100807517Y-55189983D01*
X100833154Y-55221223D01*
X100852204Y-55256862D01*
X100863935Y-55295532D01*
X100868500Y-55341888D01*
X100868500Y-56418112D01*
X100863935Y-56464468D01*
X100852204Y-56503138D01*
X100833154Y-56538777D01*
X100807517Y-56570017D01*
X100776277Y-56595654D01*
X100740638Y-56614704D01*
X100701968Y-56626435D01*
X100655612Y-56631000D01*
X100004388Y-56631000D01*
X99958032Y-56626435D01*
X99919362Y-56614704D01*
X99883723Y-56595654D01*
X99852483Y-56570017D01*
X99826846Y-56538777D01*
X99807796Y-56503138D01*
X99796065Y-56464468D01*
X99791500Y-56418112D01*
X99791500Y-55341888D01*
X99796065Y-55295532D01*
X99807796Y-55256862D01*
X99826846Y-55221223D01*
X99852483Y-55189983D01*
X99883723Y-55164346D01*
X99919362Y-55145296D01*
X99958032Y-55133565D01*
X100004388Y-55129000D01*
X100655612Y-55129000D01*
X100701968Y-55133565D01*
X100701968Y-55133565D01*
G37*
G36*
X94019468Y-55133565D02*
G01*
X94058138Y-55145296D01*
X94093777Y-55164346D01*
X94125017Y-55189983D01*
X94150654Y-55221223D01*
X94169704Y-55256862D01*
X94181435Y-55295532D01*
X94186000Y-55341888D01*
X94186000Y-56418112D01*
X94181435Y-56464468D01*
X94169704Y-56503138D01*
X94150654Y-56538777D01*
X94125017Y-56570017D01*
X94093777Y-56595654D01*
X94058138Y-56614704D01*
X94019468Y-56626435D01*
X93973112Y-56631000D01*
X93321888Y-56631000D01*
X93275532Y-56626435D01*
X93236862Y-56614704D01*
X93201223Y-56595654D01*
X93169983Y-56570017D01*
X93144346Y-56538777D01*
X93125296Y-56503138D01*
X93113565Y-56464468D01*
X93109000Y-56418112D01*
X93109000Y-55341888D01*
X93113565Y-55295532D01*
X93125296Y-55256862D01*
X93144346Y-55221223D01*
X93169983Y-55189983D01*
X93201223Y-55164346D01*
X93236862Y-55145296D01*
X93275532Y-55133565D01*
X93321888Y-55129000D01*
X93973112Y-55129000D01*
X94019468Y-55133565D01*
X94019468Y-55133565D01*
G37*
G36*
X92144468Y-55133565D02*
G01*
X92183138Y-55145296D01*
X92218777Y-55164346D01*
X92250017Y-55189983D01*
X92275654Y-55221223D01*
X92294704Y-55256862D01*
X92306435Y-55295532D01*
X92311000Y-55341888D01*
X92311000Y-56418112D01*
X92306435Y-56464468D01*
X92294704Y-56503138D01*
X92275654Y-56538777D01*
X92250017Y-56570017D01*
X92218777Y-56595654D01*
X92183138Y-56614704D01*
X92144468Y-56626435D01*
X92098112Y-56631000D01*
X91446888Y-56631000D01*
X91400532Y-56626435D01*
X91361862Y-56614704D01*
X91326223Y-56595654D01*
X91294983Y-56570017D01*
X91269346Y-56538777D01*
X91250296Y-56503138D01*
X91238565Y-56464468D01*
X91234000Y-56418112D01*
X91234000Y-55341888D01*
X91238565Y-55295532D01*
X91250296Y-55256862D01*
X91269346Y-55221223D01*
X91294983Y-55189983D01*
X91326223Y-55164346D01*
X91361862Y-55145296D01*
X91400532Y-55133565D01*
X91446888Y-55129000D01*
X92098112Y-55129000D01*
X92144468Y-55133565D01*
X92144468Y-55133565D01*
G37*
M02*
