G04 #@! TF.GenerationSoftware,KiCad,Pcbnew,(5.1.4-0-10_14)*
G04 #@! TF.CreationDate,2019-10-08T20:54:48-07:00*
G04 #@! TF.ProjectId,VCA_Front_Panel,5643415f-4672-46f6-9e74-5f50616e656c,rev?*
G04 #@! TF.SameCoordinates,Original*
G04 #@! TF.FileFunction,Soldermask,Bot*
G04 #@! TF.FilePolarity,Negative*
%FSLAX46Y46*%
G04 Gerber Fmt 4.6, Leading zero omitted, Abs format (unit mm)*
G04 Created by KiCad (PCBNEW (5.1.4-0-10_14)) date 2019-10-08 20:54:48*
%MOMM*%
%LPD*%
G04 APERTURE LIST*
%ADD10C,0.100000*%
G04 APERTURE END LIST*
D10*
G36*
X72118098Y-162901033D02*
G01*
X72582350Y-163093332D01*
X72582352Y-163093333D01*
X73000168Y-163372509D01*
X73355491Y-163727832D01*
X73634667Y-164145648D01*
X73634668Y-164145650D01*
X73826967Y-164609902D01*
X73925000Y-165102747D01*
X73925000Y-165605253D01*
X73826967Y-166098098D01*
X73634668Y-166562350D01*
X73634667Y-166562352D01*
X73355491Y-166980168D01*
X73000168Y-167335491D01*
X72582352Y-167614667D01*
X72582351Y-167614668D01*
X72582350Y-167614668D01*
X72118098Y-167806967D01*
X71625253Y-167905000D01*
X71122747Y-167905000D01*
X70629902Y-167806967D01*
X70165650Y-167614668D01*
X70165649Y-167614668D01*
X70165648Y-167614667D01*
X69747832Y-167335491D01*
X69392509Y-166980168D01*
X69113333Y-166562352D01*
X69113332Y-166562350D01*
X68921033Y-166098098D01*
X68823000Y-165605253D01*
X68823000Y-165102747D01*
X68921033Y-164609902D01*
X69113332Y-164145650D01*
X69113333Y-164145648D01*
X69392509Y-163727832D01*
X69747832Y-163372509D01*
X70165648Y-163093333D01*
X70165650Y-163093332D01*
X70629902Y-162901033D01*
X71122747Y-162803000D01*
X71625253Y-162803000D01*
X72118098Y-162901033D01*
X72118098Y-162901033D01*
G37*
G36*
X87795632Y-150790678D02*
G01*
X88532866Y-151096050D01*
X88532868Y-151096051D01*
X88699867Y-151207637D01*
X89196361Y-151539383D01*
X89760617Y-152103639D01*
X90203950Y-152767134D01*
X90509322Y-153504368D01*
X90664999Y-154287010D01*
X90664999Y-155084990D01*
X90509322Y-155867632D01*
X90203950Y-156604866D01*
X89760617Y-157268361D01*
X89196361Y-157832617D01*
X88699867Y-158164364D01*
X88532868Y-158275949D01*
X88532867Y-158275950D01*
X88532866Y-158275950D01*
X87795632Y-158581322D01*
X87012990Y-158736999D01*
X86215010Y-158736999D01*
X85432368Y-158581322D01*
X84695134Y-158275950D01*
X84695133Y-158275950D01*
X84695132Y-158275949D01*
X84528133Y-158164364D01*
X84031639Y-157832617D01*
X83467383Y-157268361D01*
X83024050Y-156604866D01*
X82718678Y-155867632D01*
X82563001Y-155084990D01*
X82563001Y-154287010D01*
X82718678Y-153504368D01*
X83024050Y-152767134D01*
X83467383Y-152103639D01*
X84031639Y-151539383D01*
X84528133Y-151207637D01*
X84695132Y-151096051D01*
X84695134Y-151096050D01*
X85432368Y-150790678D01*
X86215010Y-150635001D01*
X87012990Y-150635001D01*
X87795632Y-150790678D01*
X87795632Y-150790678D01*
G37*
G36*
X73317632Y-150790678D02*
G01*
X74054866Y-151096050D01*
X74054868Y-151096051D01*
X74221867Y-151207637D01*
X74718361Y-151539383D01*
X75282617Y-152103639D01*
X75725950Y-152767134D01*
X76031322Y-153504368D01*
X76186999Y-154287010D01*
X76186999Y-155084990D01*
X76031322Y-155867632D01*
X75725950Y-156604866D01*
X75282617Y-157268361D01*
X74718361Y-157832617D01*
X74221867Y-158164364D01*
X74054868Y-158275949D01*
X74054867Y-158275950D01*
X74054866Y-158275950D01*
X73317632Y-158581322D01*
X72534990Y-158736999D01*
X71737010Y-158736999D01*
X70954368Y-158581322D01*
X70217134Y-158275950D01*
X70217133Y-158275950D01*
X70217132Y-158275949D01*
X70050133Y-158164364D01*
X69553639Y-157832617D01*
X68989383Y-157268361D01*
X68546050Y-156604866D01*
X68240678Y-155867632D01*
X68085001Y-155084990D01*
X68085001Y-154287010D01*
X68240678Y-153504368D01*
X68546050Y-152767134D01*
X68989383Y-152103639D01*
X69553639Y-151539383D01*
X70050133Y-151207637D01*
X70217132Y-151096051D01*
X70217134Y-151096050D01*
X70954368Y-150790678D01*
X71737010Y-150635001D01*
X72534990Y-150635001D01*
X73317632Y-150790678D01*
X73317632Y-150790678D01*
G37*
G36*
X87795632Y-139614678D02*
G01*
X88532866Y-139920050D01*
X88532868Y-139920051D01*
X88699867Y-140031637D01*
X89196361Y-140363383D01*
X89760617Y-140927639D01*
X90203950Y-141591134D01*
X90509322Y-142328368D01*
X90664999Y-143111010D01*
X90664999Y-143908990D01*
X90509322Y-144691632D01*
X90203950Y-145428866D01*
X89760617Y-146092361D01*
X89196361Y-146656617D01*
X88699867Y-146988364D01*
X88532868Y-147099949D01*
X88532867Y-147099950D01*
X88532866Y-147099950D01*
X87795632Y-147405322D01*
X87012990Y-147560999D01*
X86215010Y-147560999D01*
X85432368Y-147405322D01*
X84695134Y-147099950D01*
X84695133Y-147099950D01*
X84695132Y-147099949D01*
X84528133Y-146988364D01*
X84031639Y-146656617D01*
X83467383Y-146092361D01*
X83024050Y-145428866D01*
X82718678Y-144691632D01*
X82563001Y-143908990D01*
X82563001Y-143111010D01*
X82718678Y-142328368D01*
X83024050Y-141591134D01*
X83467383Y-140927639D01*
X84031639Y-140363383D01*
X84528133Y-140031637D01*
X84695132Y-139920051D01*
X84695134Y-139920050D01*
X85432368Y-139614678D01*
X86215010Y-139459001D01*
X87012990Y-139459001D01*
X87795632Y-139614678D01*
X87795632Y-139614678D01*
G37*
G36*
X73317632Y-139614678D02*
G01*
X74054866Y-139920050D01*
X74054868Y-139920051D01*
X74221867Y-140031637D01*
X74718361Y-140363383D01*
X75282617Y-140927639D01*
X75725950Y-141591134D01*
X76031322Y-142328368D01*
X76186999Y-143111010D01*
X76186999Y-143908990D01*
X76031322Y-144691632D01*
X75725950Y-145428866D01*
X75282617Y-146092361D01*
X74718361Y-146656617D01*
X74221867Y-146988364D01*
X74054868Y-147099949D01*
X74054867Y-147099950D01*
X74054866Y-147099950D01*
X73317632Y-147405322D01*
X72534990Y-147560999D01*
X71737010Y-147560999D01*
X70954368Y-147405322D01*
X70217134Y-147099950D01*
X70217133Y-147099950D01*
X70217132Y-147099949D01*
X70050133Y-146988364D01*
X69553639Y-146656617D01*
X68989383Y-146092361D01*
X68546050Y-145428866D01*
X68240678Y-144691632D01*
X68085001Y-143908990D01*
X68085001Y-143111010D01*
X68240678Y-142328368D01*
X68546050Y-141591134D01*
X68989383Y-140927639D01*
X69553639Y-140363383D01*
X70050133Y-140031637D01*
X70217132Y-139920051D01*
X70217134Y-139920050D01*
X70954368Y-139614678D01*
X71737010Y-139459001D01*
X72534990Y-139459001D01*
X73317632Y-139614678D01*
X73317632Y-139614678D01*
G37*
G36*
X79921632Y-126279678D02*
G01*
X80658866Y-126585050D01*
X80658868Y-126585051D01*
X80825867Y-126696637D01*
X81322361Y-127028383D01*
X81886617Y-127592639D01*
X82329950Y-128256134D01*
X82635322Y-128993368D01*
X82790999Y-129776010D01*
X82790999Y-130573990D01*
X82635322Y-131356632D01*
X82329950Y-132093866D01*
X81886617Y-132757361D01*
X81322361Y-133321617D01*
X80825867Y-133653364D01*
X80658868Y-133764949D01*
X80658867Y-133764950D01*
X80658866Y-133764950D01*
X79921632Y-134070322D01*
X79138990Y-134225999D01*
X78341010Y-134225999D01*
X77558368Y-134070322D01*
X76821134Y-133764950D01*
X76821133Y-133764950D01*
X76821132Y-133764949D01*
X76654133Y-133653364D01*
X76157639Y-133321617D01*
X75593383Y-132757361D01*
X75150050Y-132093866D01*
X74844678Y-131356632D01*
X74689001Y-130573990D01*
X74689001Y-129776010D01*
X74844678Y-128993368D01*
X75150050Y-128256134D01*
X75593383Y-127592639D01*
X76157639Y-127028383D01*
X76654133Y-126696637D01*
X76821132Y-126585051D01*
X76821134Y-126585050D01*
X77558368Y-126279678D01*
X78341010Y-126124001D01*
X79138990Y-126124001D01*
X79921632Y-126279678D01*
X79921632Y-126279678D01*
G37*
G36*
X83045010Y-109497537D02*
G01*
X83501147Y-109686476D01*
X84146223Y-109953674D01*
X85137287Y-110615882D01*
X85980118Y-111458713D01*
X86642326Y-112449777D01*
X86909524Y-113094853D01*
X87098463Y-113550990D01*
X87330999Y-114720027D01*
X87330999Y-115911973D01*
X87098463Y-117081010D01*
X86909524Y-117537147D01*
X86642326Y-118182223D01*
X85980118Y-119173287D01*
X85137287Y-120016118D01*
X84146223Y-120678326D01*
X83501147Y-120945524D01*
X83045010Y-121134463D01*
X81875973Y-121366999D01*
X80684027Y-121366999D01*
X79514990Y-121134463D01*
X79058853Y-120945524D01*
X78413777Y-120678326D01*
X77422713Y-120016118D01*
X76579882Y-119173287D01*
X75917674Y-118182223D01*
X75650476Y-117537147D01*
X75461537Y-117081010D01*
X75229001Y-115911973D01*
X75229001Y-114720027D01*
X75461537Y-113550990D01*
X75650476Y-113094853D01*
X75917674Y-112449777D01*
X76579882Y-111458713D01*
X77422713Y-110615882D01*
X78413777Y-109953674D01*
X79058853Y-109686476D01*
X79514990Y-109497537D01*
X80684027Y-109265001D01*
X81875973Y-109265001D01*
X83045010Y-109497537D01*
X83045010Y-109497537D01*
G37*
G36*
X87795632Y-93640678D02*
G01*
X88532866Y-93946050D01*
X88532868Y-93946051D01*
X88699867Y-94057636D01*
X89196361Y-94389383D01*
X89760617Y-94953639D01*
X90203950Y-95617134D01*
X90509322Y-96354368D01*
X90664999Y-97137010D01*
X90664999Y-97934990D01*
X90509322Y-98717632D01*
X90203950Y-99454866D01*
X89760617Y-100118361D01*
X89196361Y-100682617D01*
X88699867Y-101014363D01*
X88532868Y-101125949D01*
X88532867Y-101125950D01*
X88532866Y-101125950D01*
X87795632Y-101431322D01*
X87012990Y-101586999D01*
X86215010Y-101586999D01*
X85432368Y-101431322D01*
X84695134Y-101125950D01*
X84695133Y-101125950D01*
X84695132Y-101125949D01*
X84528133Y-101014363D01*
X84031639Y-100682617D01*
X83467383Y-100118361D01*
X83024050Y-99454866D01*
X82718678Y-98717632D01*
X82563001Y-97934990D01*
X82563001Y-97137010D01*
X82718678Y-96354368D01*
X83024050Y-95617134D01*
X83467383Y-94953639D01*
X84031639Y-94389383D01*
X84528133Y-94057636D01*
X84695132Y-93946051D01*
X84695134Y-93946050D01*
X85432368Y-93640678D01*
X86215010Y-93485001D01*
X87012990Y-93485001D01*
X87795632Y-93640678D01*
X87795632Y-93640678D01*
G37*
G36*
X73317632Y-93640678D02*
G01*
X74054866Y-93946050D01*
X74054868Y-93946051D01*
X74221867Y-94057636D01*
X74718361Y-94389383D01*
X75282617Y-94953639D01*
X75725950Y-95617134D01*
X76031322Y-96354368D01*
X76186999Y-97137010D01*
X76186999Y-97934990D01*
X76031322Y-98717632D01*
X75725950Y-99454866D01*
X75282617Y-100118361D01*
X74718361Y-100682617D01*
X74221867Y-101014363D01*
X74054868Y-101125949D01*
X74054867Y-101125950D01*
X74054866Y-101125950D01*
X73317632Y-101431322D01*
X72534990Y-101586999D01*
X71737010Y-101586999D01*
X70954368Y-101431322D01*
X70217134Y-101125950D01*
X70217133Y-101125950D01*
X70217132Y-101125949D01*
X70050133Y-101014363D01*
X69553639Y-100682617D01*
X68989383Y-100118361D01*
X68546050Y-99454866D01*
X68240678Y-98717632D01*
X68085001Y-97934990D01*
X68085001Y-97137010D01*
X68240678Y-96354368D01*
X68546050Y-95617134D01*
X68989383Y-94953639D01*
X69553639Y-94389383D01*
X70050133Y-94057636D01*
X70217132Y-93946051D01*
X70217134Y-93946050D01*
X70954368Y-93640678D01*
X71737010Y-93485001D01*
X72534990Y-93485001D01*
X73317632Y-93640678D01*
X73317632Y-93640678D01*
G37*
G36*
X87795632Y-82464678D02*
G01*
X88532866Y-82770050D01*
X88532868Y-82770051D01*
X88699867Y-82881636D01*
X89196361Y-83213383D01*
X89760617Y-83777639D01*
X90203950Y-84441134D01*
X90509322Y-85178368D01*
X90664999Y-85961010D01*
X90664999Y-86758990D01*
X90509322Y-87541632D01*
X90203950Y-88278866D01*
X89760617Y-88942361D01*
X89196361Y-89506617D01*
X88699867Y-89838364D01*
X88532868Y-89949949D01*
X88532867Y-89949950D01*
X88532866Y-89949950D01*
X87795632Y-90255322D01*
X87012990Y-90410999D01*
X86215010Y-90410999D01*
X85432368Y-90255322D01*
X84695134Y-89949950D01*
X84695133Y-89949950D01*
X84695132Y-89949949D01*
X84528133Y-89838364D01*
X84031639Y-89506617D01*
X83467383Y-88942361D01*
X83024050Y-88278866D01*
X82718678Y-87541632D01*
X82563001Y-86758990D01*
X82563001Y-85961010D01*
X82718678Y-85178368D01*
X83024050Y-84441134D01*
X83467383Y-83777639D01*
X84031639Y-83213383D01*
X84528133Y-82881636D01*
X84695132Y-82770051D01*
X84695134Y-82770050D01*
X85432368Y-82464678D01*
X86215010Y-82309001D01*
X87012990Y-82309001D01*
X87795632Y-82464678D01*
X87795632Y-82464678D01*
G37*
G36*
X73317632Y-82464678D02*
G01*
X74054866Y-82770050D01*
X74054868Y-82770051D01*
X74221867Y-82881636D01*
X74718361Y-83213383D01*
X75282617Y-83777639D01*
X75725950Y-84441134D01*
X76031322Y-85178368D01*
X76186999Y-85961010D01*
X76186999Y-86758990D01*
X76031322Y-87541632D01*
X75725950Y-88278866D01*
X75282617Y-88942361D01*
X74718361Y-89506617D01*
X74221867Y-89838364D01*
X74054868Y-89949949D01*
X74054867Y-89949950D01*
X74054866Y-89949950D01*
X73317632Y-90255322D01*
X72534990Y-90410999D01*
X71737010Y-90410999D01*
X70954368Y-90255322D01*
X70217134Y-89949950D01*
X70217133Y-89949950D01*
X70217132Y-89949949D01*
X70050133Y-89838364D01*
X69553639Y-89506617D01*
X68989383Y-88942361D01*
X68546050Y-88278866D01*
X68240678Y-87541632D01*
X68085001Y-86758990D01*
X68085001Y-85961010D01*
X68240678Y-85178368D01*
X68546050Y-84441134D01*
X68989383Y-83777639D01*
X69553639Y-83213383D01*
X70050133Y-82881636D01*
X70217132Y-82770051D01*
X70217134Y-82770050D01*
X70954368Y-82464678D01*
X71737010Y-82309001D01*
X72534990Y-82309001D01*
X73317632Y-82464678D01*
X73317632Y-82464678D01*
G37*
G36*
X79921632Y-69129678D02*
G01*
X80658866Y-69435050D01*
X80658868Y-69435051D01*
X80825867Y-69546636D01*
X81322361Y-69878383D01*
X81886617Y-70442639D01*
X82329950Y-71106134D01*
X82635322Y-71843368D01*
X82790999Y-72626010D01*
X82790999Y-73423990D01*
X82635322Y-74206632D01*
X82329950Y-74943866D01*
X81886617Y-75607361D01*
X81322361Y-76171617D01*
X80825867Y-76503364D01*
X80658868Y-76614949D01*
X80658867Y-76614950D01*
X80658866Y-76614950D01*
X79921632Y-76920322D01*
X79138990Y-77075999D01*
X78341010Y-77075999D01*
X77558368Y-76920322D01*
X76821134Y-76614950D01*
X76821133Y-76614950D01*
X76821132Y-76614949D01*
X76654133Y-76503364D01*
X76157639Y-76171617D01*
X75593383Y-75607361D01*
X75150050Y-74943866D01*
X74844678Y-74206632D01*
X74689001Y-73423990D01*
X74689001Y-72626010D01*
X74844678Y-71843368D01*
X75150050Y-71106134D01*
X75593383Y-70442639D01*
X76157639Y-69878383D01*
X76654133Y-69546636D01*
X76821132Y-69435051D01*
X76821134Y-69435050D01*
X77558368Y-69129678D01*
X78341010Y-68974001D01*
X79138990Y-68974001D01*
X79921632Y-69129678D01*
X79921632Y-69129678D01*
G37*
G36*
X83045010Y-52347537D02*
G01*
X83501147Y-52536476D01*
X84146223Y-52803674D01*
X85137287Y-53465882D01*
X85980118Y-54308713D01*
X86642326Y-55299777D01*
X86909524Y-55944853D01*
X87098463Y-56400990D01*
X87330999Y-57570027D01*
X87330999Y-58761973D01*
X87098463Y-59931010D01*
X86909524Y-60387147D01*
X86642326Y-61032223D01*
X85980118Y-62023287D01*
X85137287Y-62866118D01*
X84146223Y-63528326D01*
X83501147Y-63795524D01*
X83045010Y-63984463D01*
X81875973Y-64216999D01*
X80684027Y-64216999D01*
X79514990Y-63984463D01*
X79058853Y-63795524D01*
X78413777Y-63528326D01*
X77422713Y-62866118D01*
X76579882Y-62023287D01*
X75917674Y-61032223D01*
X75650476Y-60387147D01*
X75461537Y-59931010D01*
X75229001Y-58761973D01*
X75229001Y-57570027D01*
X75461537Y-56400990D01*
X75650476Y-55944853D01*
X75917674Y-55299777D01*
X76579882Y-54308713D01*
X77422713Y-53465882D01*
X78413777Y-52803674D01*
X79058853Y-52536476D01*
X79514990Y-52347537D01*
X80684027Y-52115001D01*
X81875973Y-52115001D01*
X83045010Y-52347537D01*
X83045010Y-52347537D01*
G37*
G36*
X72118098Y-40473033D02*
G01*
X72582350Y-40665332D01*
X72582352Y-40665333D01*
X73000168Y-40944509D01*
X73355491Y-41299832D01*
X73634667Y-41717648D01*
X73634668Y-41717650D01*
X73826967Y-42181902D01*
X73925000Y-42674747D01*
X73925000Y-43177253D01*
X73826967Y-43670098D01*
X73634668Y-44134350D01*
X73634667Y-44134352D01*
X73355491Y-44552168D01*
X73000168Y-44907491D01*
X72582352Y-45186667D01*
X72582351Y-45186668D01*
X72582350Y-45186668D01*
X72118098Y-45378967D01*
X71625253Y-45477000D01*
X71122747Y-45477000D01*
X70629902Y-45378967D01*
X70165650Y-45186668D01*
X70165649Y-45186668D01*
X70165648Y-45186667D01*
X69747832Y-44907491D01*
X69392509Y-44552168D01*
X69113333Y-44134352D01*
X69113332Y-44134350D01*
X68921033Y-43670098D01*
X68823000Y-43177253D01*
X68823000Y-42674747D01*
X68921033Y-42181902D01*
X69113332Y-41717650D01*
X69113333Y-41717648D01*
X69392509Y-41299832D01*
X69747832Y-40944509D01*
X70165648Y-40665333D01*
X70165650Y-40665332D01*
X70629902Y-40473033D01*
X71122747Y-40375000D01*
X71625253Y-40375000D01*
X72118098Y-40473033D01*
X72118098Y-40473033D01*
G37*
M02*
