G04 #@! TF.GenerationSoftware,KiCad,Pcbnew,(5.1.4-0-10_14)*
G04 #@! TF.CreationDate,2019-10-08T20:54:48-07:00*
G04 #@! TF.ProjectId,VCA_Front_Panel,5643415f-4672-46f6-9e74-5f50616e656c,rev?*
G04 #@! TF.SameCoordinates,Original*
G04 #@! TF.FileFunction,Legend,Bot*
G04 #@! TF.FilePolarity,Positive*
%FSLAX46Y46*%
G04 Gerber Fmt 4.6, Leading zero omitted, Abs format (unit mm)*
G04 Created by KiCad (PCBNEW (5.1.4-0-10_14)) date 2019-10-08 20:54:48*
%MOMM*%
%LPD*%
G04 APERTURE LIST*
%ADD10C,0.150000*%
%ADD11C,0.300000*%
%ADD12C,0.010000*%
G04 APERTURE END LIST*
D10*
X92646380Y-166330380D02*
X92408285Y-167330380D01*
X92217809Y-166616095D01*
X92027333Y-167330380D01*
X91789238Y-166330380D01*
X91408285Y-167330380D02*
X91408285Y-166330380D01*
X91408285Y-166806571D02*
X90836857Y-166806571D01*
X90836857Y-167330380D02*
X90836857Y-166330380D01*
D11*
X91253571Y-41082142D02*
X92753571Y-41582142D01*
X91253571Y-42082142D01*
X92610714Y-43439285D02*
X92682142Y-43367857D01*
X92753571Y-43153571D01*
X92753571Y-43010714D01*
X92682142Y-42796428D01*
X92539285Y-42653571D01*
X92396428Y-42582142D01*
X92110714Y-42510714D01*
X91896428Y-42510714D01*
X91610714Y-42582142D01*
X91467857Y-42653571D01*
X91325000Y-42796428D01*
X91253571Y-43010714D01*
X91253571Y-43153571D01*
X91325000Y-43367857D01*
X91396428Y-43439285D01*
X92325000Y-44010714D02*
X92325000Y-44725000D01*
X92753571Y-43867857D02*
X91253571Y-44367857D01*
X92753571Y-44867857D01*
X91967857Y-47010714D02*
X91967857Y-46510714D01*
X92753571Y-46510714D02*
X91253571Y-46510714D01*
X91253571Y-47225000D01*
X92753571Y-47796428D02*
X91753571Y-47796428D01*
X92039285Y-47796428D02*
X91896428Y-47867857D01*
X91825000Y-47939285D01*
X91753571Y-48082142D01*
X91753571Y-48225000D01*
X92753571Y-48939285D02*
X92682142Y-48796428D01*
X92610714Y-48725000D01*
X92467857Y-48653571D01*
X92039285Y-48653571D01*
X91896428Y-48725000D01*
X91825000Y-48796428D01*
X91753571Y-48939285D01*
X91753571Y-49153571D01*
X91825000Y-49296428D01*
X91896428Y-49367857D01*
X92039285Y-49439285D01*
X92467857Y-49439285D01*
X92610714Y-49367857D01*
X92682142Y-49296428D01*
X92753571Y-49153571D01*
X92753571Y-48939285D01*
X91753571Y-50082142D02*
X92753571Y-50082142D01*
X91896428Y-50082142D02*
X91825000Y-50153571D01*
X91753571Y-50296428D01*
X91753571Y-50510714D01*
X91825000Y-50653571D01*
X91967857Y-50725000D01*
X92753571Y-50725000D01*
X91753571Y-51225000D02*
X91753571Y-51796428D01*
X91253571Y-51439285D02*
X92539285Y-51439285D01*
X92682142Y-51510714D01*
X92753571Y-51653571D01*
X92753571Y-51796428D01*
X92753571Y-53439285D02*
X91253571Y-53439285D01*
X91253571Y-54010714D01*
X91325000Y-54153571D01*
X91396428Y-54225000D01*
X91539285Y-54296428D01*
X91753571Y-54296428D01*
X91896428Y-54225000D01*
X91967857Y-54153571D01*
X92039285Y-54010714D01*
X92039285Y-53439285D01*
X92753571Y-55582142D02*
X91967857Y-55582142D01*
X91825000Y-55510714D01*
X91753571Y-55367857D01*
X91753571Y-55082142D01*
X91825000Y-54939285D01*
X92682142Y-55582142D02*
X92753571Y-55439285D01*
X92753571Y-55082142D01*
X92682142Y-54939285D01*
X92539285Y-54867857D01*
X92396428Y-54867857D01*
X92253571Y-54939285D01*
X92182142Y-55082142D01*
X92182142Y-55439285D01*
X92110714Y-55582142D01*
X91753571Y-56296428D02*
X92753571Y-56296428D01*
X91896428Y-56296428D02*
X91825000Y-56367857D01*
X91753571Y-56510714D01*
X91753571Y-56725000D01*
X91825000Y-56867857D01*
X91967857Y-56939285D01*
X92753571Y-56939285D01*
X92682142Y-58225000D02*
X92753571Y-58082142D01*
X92753571Y-57796428D01*
X92682142Y-57653571D01*
X92539285Y-57582142D01*
X91967857Y-57582142D01*
X91825000Y-57653571D01*
X91753571Y-57796428D01*
X91753571Y-58082142D01*
X91825000Y-58225000D01*
X91967857Y-58296428D01*
X92110714Y-58296428D01*
X92253571Y-57582142D01*
X92753571Y-59153571D02*
X92682142Y-59010714D01*
X92539285Y-58939285D01*
X91253571Y-58939285D01*
X92753571Y-61725000D02*
X92039285Y-61225000D01*
X92753571Y-60867857D02*
X91253571Y-60867857D01*
X91253571Y-61439285D01*
X91325000Y-61582142D01*
X91396428Y-61653571D01*
X91539285Y-61725000D01*
X91753571Y-61725000D01*
X91896428Y-61653571D01*
X91967857Y-61582142D01*
X92039285Y-61439285D01*
X92039285Y-60867857D01*
X92682142Y-62939285D02*
X92753571Y-62796428D01*
X92753571Y-62510714D01*
X92682142Y-62367857D01*
X92539285Y-62296428D01*
X91967857Y-62296428D01*
X91825000Y-62367857D01*
X91753571Y-62510714D01*
X91753571Y-62796428D01*
X91825000Y-62939285D01*
X91967857Y-63010714D01*
X92110714Y-63010714D01*
X92253571Y-62296428D01*
X91753571Y-63510714D02*
X92753571Y-63867857D01*
X91753571Y-64225000D01*
X92753571Y-66725000D02*
X92753571Y-65867857D01*
X92753571Y-66296428D02*
X91253571Y-66296428D01*
X91467857Y-66153571D01*
X91610714Y-66010714D01*
X91682142Y-65867857D01*
D12*
G36*
X81430090Y-41819348D02*
G01*
X81351546Y-41819778D01*
X81294702Y-41820942D01*
X81255895Y-41823207D01*
X81231462Y-41826940D01*
X81217738Y-41832506D01*
X81211060Y-41840273D01*
X81207764Y-41850605D01*
X81207444Y-41851943D01*
X81202438Y-41876079D01*
X81193171Y-41923701D01*
X81180608Y-41989741D01*
X81165713Y-42069128D01*
X81149449Y-42156796D01*
X81148881Y-42159875D01*
X81132590Y-42245789D01*
X81117348Y-42321696D01*
X81104139Y-42383045D01*
X81093946Y-42425282D01*
X81087752Y-42443855D01*
X81087457Y-42444184D01*
X81069212Y-42453253D01*
X81031595Y-42468367D01*
X80982729Y-42486262D01*
X80982457Y-42486358D01*
X80920907Y-42509493D01*
X80848343Y-42538965D01*
X80779943Y-42568597D01*
X80776706Y-42570062D01*
X80665298Y-42620626D01*
X80418601Y-42452160D01*
X80342923Y-42400803D01*
X80274369Y-42354889D01*
X80216912Y-42317030D01*
X80174524Y-42289837D01*
X80151175Y-42275921D01*
X80148958Y-42274889D01*
X80131990Y-42279484D01*
X80100299Y-42301655D01*
X80052648Y-42342447D01*
X79987802Y-42402905D01*
X79921603Y-42467227D01*
X79857786Y-42530612D01*
X79800671Y-42588451D01*
X79753695Y-42637175D01*
X79720297Y-42673210D01*
X79703915Y-42692984D01*
X79703306Y-42694002D01*
X79701495Y-42707572D01*
X79708317Y-42729733D01*
X79725460Y-42763478D01*
X79754607Y-42811800D01*
X79797445Y-42877692D01*
X79854552Y-42962517D01*
X79905234Y-43037177D01*
X79950539Y-43104140D01*
X79987850Y-43159516D01*
X80014548Y-43199420D01*
X80028015Y-43219962D01*
X80028863Y-43221356D01*
X80027219Y-43241038D01*
X80014755Y-43279293D01*
X79993952Y-43328889D01*
X79986538Y-43344728D01*
X79954186Y-43415290D01*
X79919672Y-43495353D01*
X79891635Y-43564629D01*
X79871432Y-43616045D01*
X79855385Y-43655119D01*
X79846112Y-43675541D01*
X79844959Y-43677114D01*
X79827904Y-43679721D01*
X79787702Y-43686863D01*
X79729698Y-43697523D01*
X79659237Y-43710685D01*
X79581665Y-43725333D01*
X79502328Y-43740449D01*
X79426569Y-43755018D01*
X79359736Y-43768022D01*
X79307172Y-43778445D01*
X79274224Y-43785270D01*
X79266143Y-43787199D01*
X79257795Y-43791962D01*
X79251494Y-43802718D01*
X79246955Y-43823098D01*
X79243896Y-43856734D01*
X79242033Y-43907255D01*
X79241082Y-43978292D01*
X79240760Y-44073476D01*
X79240743Y-44112492D01*
X79240743Y-44429799D01*
X79316943Y-44444839D01*
X79359337Y-44452995D01*
X79422600Y-44464899D01*
X79499038Y-44479116D01*
X79580957Y-44494210D01*
X79603600Y-44498355D01*
X79679194Y-44513053D01*
X79745047Y-44527505D01*
X79795634Y-44540375D01*
X79825426Y-44550322D01*
X79830388Y-44553287D01*
X79842574Y-44574283D01*
X79860047Y-44614967D01*
X79879423Y-44667322D01*
X79883266Y-44678600D01*
X79908661Y-44748523D01*
X79940183Y-44827418D01*
X79971031Y-44898266D01*
X79971183Y-44898595D01*
X80022553Y-45009733D01*
X79853601Y-45258253D01*
X79684648Y-45506772D01*
X79901571Y-45724058D01*
X79967181Y-45788726D01*
X80027021Y-45845733D01*
X80077733Y-45892033D01*
X80115954Y-45924584D01*
X80138325Y-45940343D01*
X80141534Y-45941343D01*
X80160374Y-45933469D01*
X80198820Y-45911578D01*
X80252670Y-45878267D01*
X80317724Y-45836131D01*
X80388060Y-45788943D01*
X80459445Y-45740810D01*
X80523092Y-45698928D01*
X80574959Y-45665871D01*
X80611005Y-45644218D01*
X80627133Y-45636543D01*
X80646811Y-45643037D01*
X80684125Y-45660150D01*
X80731379Y-45684326D01*
X80736388Y-45687013D01*
X80800023Y-45718927D01*
X80843659Y-45734579D01*
X80870798Y-45734745D01*
X80884943Y-45720204D01*
X80885025Y-45720000D01*
X80892095Y-45702779D01*
X80908958Y-45661899D01*
X80934305Y-45600525D01*
X80966829Y-45521819D01*
X81005222Y-45428947D01*
X81048178Y-45325072D01*
X81089778Y-45224502D01*
X81135496Y-45113516D01*
X81177474Y-45010703D01*
X81214452Y-44919215D01*
X81245173Y-44842201D01*
X81268378Y-44782815D01*
X81282810Y-44744209D01*
X81287257Y-44729800D01*
X81276104Y-44713272D01*
X81246931Y-44686930D01*
X81208029Y-44657887D01*
X81097243Y-44566039D01*
X81010649Y-44460759D01*
X80949284Y-44344266D01*
X80914185Y-44218776D01*
X80906392Y-44086507D01*
X80912057Y-44025457D01*
X80942922Y-43898795D01*
X80996080Y-43786941D01*
X81068233Y-43691001D01*
X81156083Y-43612076D01*
X81256335Y-43551270D01*
X81365690Y-43509687D01*
X81480853Y-43488428D01*
X81598525Y-43488599D01*
X81715410Y-43511301D01*
X81828211Y-43557638D01*
X81933631Y-43628713D01*
X81977632Y-43668911D01*
X82062021Y-43772129D01*
X82120778Y-43884925D01*
X82154296Y-44004010D01*
X82162965Y-44126095D01*
X82147177Y-44247893D01*
X82107322Y-44366116D01*
X82043793Y-44477475D01*
X81956979Y-44578684D01*
X81859971Y-44657887D01*
X81819563Y-44688162D01*
X81791018Y-44714219D01*
X81780743Y-44729825D01*
X81786123Y-44746843D01*
X81801425Y-44787500D01*
X81825388Y-44848642D01*
X81856756Y-44927119D01*
X81894268Y-45019780D01*
X81936667Y-45123472D01*
X81978337Y-45224526D01*
X82024310Y-45335607D01*
X82066893Y-45438541D01*
X82104779Y-45530165D01*
X82136660Y-45607316D01*
X82161229Y-45666831D01*
X82177180Y-45705544D01*
X82183090Y-45720000D01*
X82197052Y-45734685D01*
X82224060Y-45734642D01*
X82267587Y-45719099D01*
X82331110Y-45687284D01*
X82331612Y-45687013D01*
X82379440Y-45662323D01*
X82418103Y-45644338D01*
X82439905Y-45636614D01*
X82440867Y-45636543D01*
X82457279Y-45644378D01*
X82493513Y-45666165D01*
X82545526Y-45699328D01*
X82609275Y-45741291D01*
X82679940Y-45788943D01*
X82751884Y-45837191D01*
X82816726Y-45879151D01*
X82870265Y-45912227D01*
X82908303Y-45933821D01*
X82926467Y-45941343D01*
X82943192Y-45931457D01*
X82976820Y-45903826D01*
X83023990Y-45861495D01*
X83081342Y-45807505D01*
X83145516Y-45744899D01*
X83166503Y-45723983D01*
X83383501Y-45506623D01*
X83218332Y-45264220D01*
X83168136Y-45189781D01*
X83124081Y-45122972D01*
X83088638Y-45067665D01*
X83064281Y-45027729D01*
X83053478Y-45007036D01*
X83053162Y-45005563D01*
X83058857Y-44986058D01*
X83074174Y-44946822D01*
X83096463Y-44894430D01*
X83112107Y-44859355D01*
X83141359Y-44792201D01*
X83168906Y-44724358D01*
X83190263Y-44667034D01*
X83196065Y-44649572D01*
X83212548Y-44602938D01*
X83228660Y-44566905D01*
X83237510Y-44553287D01*
X83257040Y-44544952D01*
X83299666Y-44533137D01*
X83359855Y-44519181D01*
X83432078Y-44504422D01*
X83464400Y-44498355D01*
X83546478Y-44483273D01*
X83625205Y-44468669D01*
X83692891Y-44455980D01*
X83741840Y-44446642D01*
X83751057Y-44444839D01*
X83827257Y-44429799D01*
X83827257Y-44112492D01*
X83827086Y-44008154D01*
X83826384Y-43929213D01*
X83824866Y-43872038D01*
X83822251Y-43832999D01*
X83818254Y-43808465D01*
X83812591Y-43794805D01*
X83804980Y-43788389D01*
X83801857Y-43787199D01*
X83783022Y-43782980D01*
X83741412Y-43774562D01*
X83682370Y-43762961D01*
X83611243Y-43749195D01*
X83533375Y-43734280D01*
X83454113Y-43719232D01*
X83378802Y-43705069D01*
X83312787Y-43692806D01*
X83261413Y-43683461D01*
X83230025Y-43678050D01*
X83223041Y-43677114D01*
X83216715Y-43664596D01*
X83202710Y-43631246D01*
X83183645Y-43583377D01*
X83176366Y-43564629D01*
X83147004Y-43492195D01*
X83112429Y-43412170D01*
X83081463Y-43344728D01*
X83058677Y-43293159D01*
X83043518Y-43250785D01*
X83038458Y-43224834D01*
X83039264Y-43221356D01*
X83049959Y-43204936D01*
X83074380Y-43168417D01*
X83109905Y-43115687D01*
X83153913Y-43050635D01*
X83203783Y-42977151D01*
X83213644Y-42962645D01*
X83271508Y-42876704D01*
X83314044Y-42811261D01*
X83342946Y-42763304D01*
X83359910Y-42729820D01*
X83366633Y-42707795D01*
X83364810Y-42694217D01*
X83364764Y-42694131D01*
X83350414Y-42676297D01*
X83318677Y-42641817D01*
X83272990Y-42594268D01*
X83216796Y-42537222D01*
X83153532Y-42474255D01*
X83146398Y-42467227D01*
X83066670Y-42390020D01*
X83005143Y-42333330D01*
X82960579Y-42296110D01*
X82931743Y-42277315D01*
X82919042Y-42274889D01*
X82900506Y-42285471D01*
X82862039Y-42309916D01*
X82807614Y-42345612D01*
X82741202Y-42389947D01*
X82666775Y-42440311D01*
X82649399Y-42452160D01*
X82402703Y-42620626D01*
X82291294Y-42570062D01*
X82223543Y-42540595D01*
X82150817Y-42510959D01*
X82088297Y-42487330D01*
X82085543Y-42486358D01*
X82036640Y-42468457D01*
X81998943Y-42453320D01*
X81980575Y-42444210D01*
X81980544Y-42444184D01*
X81974715Y-42427717D01*
X81964808Y-42387219D01*
X81951805Y-42327242D01*
X81936691Y-42252340D01*
X81920448Y-42167064D01*
X81919119Y-42159875D01*
X81902825Y-42072014D01*
X81887867Y-41992260D01*
X81875209Y-41925681D01*
X81865814Y-41877347D01*
X81860646Y-41852325D01*
X81860556Y-41851943D01*
X81857411Y-41841299D01*
X81851296Y-41833262D01*
X81838547Y-41827467D01*
X81815500Y-41823547D01*
X81778491Y-41821135D01*
X81723856Y-41819865D01*
X81647933Y-41819371D01*
X81547056Y-41819286D01*
X81534000Y-41819286D01*
X81430090Y-41819348D01*
X81430090Y-41819348D01*
G37*
X81430090Y-41819348D02*
X81351546Y-41819778D01*
X81294702Y-41820942D01*
X81255895Y-41823207D01*
X81231462Y-41826940D01*
X81217738Y-41832506D01*
X81211060Y-41840273D01*
X81207764Y-41850605D01*
X81207444Y-41851943D01*
X81202438Y-41876079D01*
X81193171Y-41923701D01*
X81180608Y-41989741D01*
X81165713Y-42069128D01*
X81149449Y-42156796D01*
X81148881Y-42159875D01*
X81132590Y-42245789D01*
X81117348Y-42321696D01*
X81104139Y-42383045D01*
X81093946Y-42425282D01*
X81087752Y-42443855D01*
X81087457Y-42444184D01*
X81069212Y-42453253D01*
X81031595Y-42468367D01*
X80982729Y-42486262D01*
X80982457Y-42486358D01*
X80920907Y-42509493D01*
X80848343Y-42538965D01*
X80779943Y-42568597D01*
X80776706Y-42570062D01*
X80665298Y-42620626D01*
X80418601Y-42452160D01*
X80342923Y-42400803D01*
X80274369Y-42354889D01*
X80216912Y-42317030D01*
X80174524Y-42289837D01*
X80151175Y-42275921D01*
X80148958Y-42274889D01*
X80131990Y-42279484D01*
X80100299Y-42301655D01*
X80052648Y-42342447D01*
X79987802Y-42402905D01*
X79921603Y-42467227D01*
X79857786Y-42530612D01*
X79800671Y-42588451D01*
X79753695Y-42637175D01*
X79720297Y-42673210D01*
X79703915Y-42692984D01*
X79703306Y-42694002D01*
X79701495Y-42707572D01*
X79708317Y-42729733D01*
X79725460Y-42763478D01*
X79754607Y-42811800D01*
X79797445Y-42877692D01*
X79854552Y-42962517D01*
X79905234Y-43037177D01*
X79950539Y-43104140D01*
X79987850Y-43159516D01*
X80014548Y-43199420D01*
X80028015Y-43219962D01*
X80028863Y-43221356D01*
X80027219Y-43241038D01*
X80014755Y-43279293D01*
X79993952Y-43328889D01*
X79986538Y-43344728D01*
X79954186Y-43415290D01*
X79919672Y-43495353D01*
X79891635Y-43564629D01*
X79871432Y-43616045D01*
X79855385Y-43655119D01*
X79846112Y-43675541D01*
X79844959Y-43677114D01*
X79827904Y-43679721D01*
X79787702Y-43686863D01*
X79729698Y-43697523D01*
X79659237Y-43710685D01*
X79581665Y-43725333D01*
X79502328Y-43740449D01*
X79426569Y-43755018D01*
X79359736Y-43768022D01*
X79307172Y-43778445D01*
X79274224Y-43785270D01*
X79266143Y-43787199D01*
X79257795Y-43791962D01*
X79251494Y-43802718D01*
X79246955Y-43823098D01*
X79243896Y-43856734D01*
X79242033Y-43907255D01*
X79241082Y-43978292D01*
X79240760Y-44073476D01*
X79240743Y-44112492D01*
X79240743Y-44429799D01*
X79316943Y-44444839D01*
X79359337Y-44452995D01*
X79422600Y-44464899D01*
X79499038Y-44479116D01*
X79580957Y-44494210D01*
X79603600Y-44498355D01*
X79679194Y-44513053D01*
X79745047Y-44527505D01*
X79795634Y-44540375D01*
X79825426Y-44550322D01*
X79830388Y-44553287D01*
X79842574Y-44574283D01*
X79860047Y-44614967D01*
X79879423Y-44667322D01*
X79883266Y-44678600D01*
X79908661Y-44748523D01*
X79940183Y-44827418D01*
X79971031Y-44898266D01*
X79971183Y-44898595D01*
X80022553Y-45009733D01*
X79853601Y-45258253D01*
X79684648Y-45506772D01*
X79901571Y-45724058D01*
X79967181Y-45788726D01*
X80027021Y-45845733D01*
X80077733Y-45892033D01*
X80115954Y-45924584D01*
X80138325Y-45940343D01*
X80141534Y-45941343D01*
X80160374Y-45933469D01*
X80198820Y-45911578D01*
X80252670Y-45878267D01*
X80317724Y-45836131D01*
X80388060Y-45788943D01*
X80459445Y-45740810D01*
X80523092Y-45698928D01*
X80574959Y-45665871D01*
X80611005Y-45644218D01*
X80627133Y-45636543D01*
X80646811Y-45643037D01*
X80684125Y-45660150D01*
X80731379Y-45684326D01*
X80736388Y-45687013D01*
X80800023Y-45718927D01*
X80843659Y-45734579D01*
X80870798Y-45734745D01*
X80884943Y-45720204D01*
X80885025Y-45720000D01*
X80892095Y-45702779D01*
X80908958Y-45661899D01*
X80934305Y-45600525D01*
X80966829Y-45521819D01*
X81005222Y-45428947D01*
X81048178Y-45325072D01*
X81089778Y-45224502D01*
X81135496Y-45113516D01*
X81177474Y-45010703D01*
X81214452Y-44919215D01*
X81245173Y-44842201D01*
X81268378Y-44782815D01*
X81282810Y-44744209D01*
X81287257Y-44729800D01*
X81276104Y-44713272D01*
X81246931Y-44686930D01*
X81208029Y-44657887D01*
X81097243Y-44566039D01*
X81010649Y-44460759D01*
X80949284Y-44344266D01*
X80914185Y-44218776D01*
X80906392Y-44086507D01*
X80912057Y-44025457D01*
X80942922Y-43898795D01*
X80996080Y-43786941D01*
X81068233Y-43691001D01*
X81156083Y-43612076D01*
X81256335Y-43551270D01*
X81365690Y-43509687D01*
X81480853Y-43488428D01*
X81598525Y-43488599D01*
X81715410Y-43511301D01*
X81828211Y-43557638D01*
X81933631Y-43628713D01*
X81977632Y-43668911D01*
X82062021Y-43772129D01*
X82120778Y-43884925D01*
X82154296Y-44004010D01*
X82162965Y-44126095D01*
X82147177Y-44247893D01*
X82107322Y-44366116D01*
X82043793Y-44477475D01*
X81956979Y-44578684D01*
X81859971Y-44657887D01*
X81819563Y-44688162D01*
X81791018Y-44714219D01*
X81780743Y-44729825D01*
X81786123Y-44746843D01*
X81801425Y-44787500D01*
X81825388Y-44848642D01*
X81856756Y-44927119D01*
X81894268Y-45019780D01*
X81936667Y-45123472D01*
X81978337Y-45224526D01*
X82024310Y-45335607D01*
X82066893Y-45438541D01*
X82104779Y-45530165D01*
X82136660Y-45607316D01*
X82161229Y-45666831D01*
X82177180Y-45705544D01*
X82183090Y-45720000D01*
X82197052Y-45734685D01*
X82224060Y-45734642D01*
X82267587Y-45719099D01*
X82331110Y-45687284D01*
X82331612Y-45687013D01*
X82379440Y-45662323D01*
X82418103Y-45644338D01*
X82439905Y-45636614D01*
X82440867Y-45636543D01*
X82457279Y-45644378D01*
X82493513Y-45666165D01*
X82545526Y-45699328D01*
X82609275Y-45741291D01*
X82679940Y-45788943D01*
X82751884Y-45837191D01*
X82816726Y-45879151D01*
X82870265Y-45912227D01*
X82908303Y-45933821D01*
X82926467Y-45941343D01*
X82943192Y-45931457D01*
X82976820Y-45903826D01*
X83023990Y-45861495D01*
X83081342Y-45807505D01*
X83145516Y-45744899D01*
X83166503Y-45723983D01*
X83383501Y-45506623D01*
X83218332Y-45264220D01*
X83168136Y-45189781D01*
X83124081Y-45122972D01*
X83088638Y-45067665D01*
X83064281Y-45027729D01*
X83053478Y-45007036D01*
X83053162Y-45005563D01*
X83058857Y-44986058D01*
X83074174Y-44946822D01*
X83096463Y-44894430D01*
X83112107Y-44859355D01*
X83141359Y-44792201D01*
X83168906Y-44724358D01*
X83190263Y-44667034D01*
X83196065Y-44649572D01*
X83212548Y-44602938D01*
X83228660Y-44566905D01*
X83237510Y-44553287D01*
X83257040Y-44544952D01*
X83299666Y-44533137D01*
X83359855Y-44519181D01*
X83432078Y-44504422D01*
X83464400Y-44498355D01*
X83546478Y-44483273D01*
X83625205Y-44468669D01*
X83692891Y-44455980D01*
X83741840Y-44446642D01*
X83751057Y-44444839D01*
X83827257Y-44429799D01*
X83827257Y-44112492D01*
X83827086Y-44008154D01*
X83826384Y-43929213D01*
X83824866Y-43872038D01*
X83822251Y-43832999D01*
X83818254Y-43808465D01*
X83812591Y-43794805D01*
X83804980Y-43788389D01*
X83801857Y-43787199D01*
X83783022Y-43782980D01*
X83741412Y-43774562D01*
X83682370Y-43762961D01*
X83611243Y-43749195D01*
X83533375Y-43734280D01*
X83454113Y-43719232D01*
X83378802Y-43705069D01*
X83312787Y-43692806D01*
X83261413Y-43683461D01*
X83230025Y-43678050D01*
X83223041Y-43677114D01*
X83216715Y-43664596D01*
X83202710Y-43631246D01*
X83183645Y-43583377D01*
X83176366Y-43564629D01*
X83147004Y-43492195D01*
X83112429Y-43412170D01*
X83081463Y-43344728D01*
X83058677Y-43293159D01*
X83043518Y-43250785D01*
X83038458Y-43224834D01*
X83039264Y-43221356D01*
X83049959Y-43204936D01*
X83074380Y-43168417D01*
X83109905Y-43115687D01*
X83153913Y-43050635D01*
X83203783Y-42977151D01*
X83213644Y-42962645D01*
X83271508Y-42876704D01*
X83314044Y-42811261D01*
X83342946Y-42763304D01*
X83359910Y-42729820D01*
X83366633Y-42707795D01*
X83364810Y-42694217D01*
X83364764Y-42694131D01*
X83350414Y-42676297D01*
X83318677Y-42641817D01*
X83272990Y-42594268D01*
X83216796Y-42537222D01*
X83153532Y-42474255D01*
X83146398Y-42467227D01*
X83066670Y-42390020D01*
X83005143Y-42333330D01*
X82960579Y-42296110D01*
X82931743Y-42277315D01*
X82919042Y-42274889D01*
X82900506Y-42285471D01*
X82862039Y-42309916D01*
X82807614Y-42345612D01*
X82741202Y-42389947D01*
X82666775Y-42440311D01*
X82649399Y-42452160D01*
X82402703Y-42620626D01*
X82291294Y-42570062D01*
X82223543Y-42540595D01*
X82150817Y-42510959D01*
X82088297Y-42487330D01*
X82085543Y-42486358D01*
X82036640Y-42468457D01*
X81998943Y-42453320D01*
X81980575Y-42444210D01*
X81980544Y-42444184D01*
X81974715Y-42427717D01*
X81964808Y-42387219D01*
X81951805Y-42327242D01*
X81936691Y-42252340D01*
X81920448Y-42167064D01*
X81919119Y-42159875D01*
X81902825Y-42072014D01*
X81887867Y-41992260D01*
X81875209Y-41925681D01*
X81865814Y-41877347D01*
X81860646Y-41852325D01*
X81860556Y-41851943D01*
X81857411Y-41841299D01*
X81851296Y-41833262D01*
X81838547Y-41827467D01*
X81815500Y-41823547D01*
X81778491Y-41821135D01*
X81723856Y-41819865D01*
X81647933Y-41819371D01*
X81547056Y-41819286D01*
X81534000Y-41819286D01*
X81430090Y-41819348D01*
G36*
X78380405Y-46543966D02*
G01*
X78322979Y-46581497D01*
X78295281Y-46615096D01*
X78273338Y-46676064D01*
X78271595Y-46724308D01*
X78275543Y-46788816D01*
X78424314Y-46853934D01*
X78496651Y-46887202D01*
X78543916Y-46913964D01*
X78568493Y-46937144D01*
X78572763Y-46959667D01*
X78559111Y-46984455D01*
X78544057Y-47000886D01*
X78500254Y-47027235D01*
X78452611Y-47029081D01*
X78408855Y-47008546D01*
X78376711Y-46967752D01*
X78370962Y-46953347D01*
X78343424Y-46908356D01*
X78311742Y-46889182D01*
X78268286Y-46872779D01*
X78268286Y-46934966D01*
X78272128Y-46977283D01*
X78287177Y-47012969D01*
X78318720Y-47053943D01*
X78323408Y-47059267D01*
X78358494Y-47095720D01*
X78388653Y-47115283D01*
X78426385Y-47124283D01*
X78457665Y-47127230D01*
X78513615Y-47127965D01*
X78553445Y-47118660D01*
X78578292Y-47104846D01*
X78617344Y-47074467D01*
X78644375Y-47041613D01*
X78661483Y-47000294D01*
X78670762Y-46944521D01*
X78674307Y-46868305D01*
X78674590Y-46829622D01*
X78673628Y-46783247D01*
X78585993Y-46783247D01*
X78584977Y-46808126D01*
X78582444Y-46812200D01*
X78565726Y-46806665D01*
X78529751Y-46792017D01*
X78481669Y-46771190D01*
X78471614Y-46766714D01*
X78410848Y-46735814D01*
X78377368Y-46708657D01*
X78370010Y-46683220D01*
X78387609Y-46657481D01*
X78402144Y-46646109D01*
X78454590Y-46623364D01*
X78503678Y-46627122D01*
X78544773Y-46654884D01*
X78573242Y-46704152D01*
X78582369Y-46743257D01*
X78585993Y-46783247D01*
X78673628Y-46783247D01*
X78672715Y-46739249D01*
X78665804Y-46672384D01*
X78652116Y-46623695D01*
X78629904Y-46587849D01*
X78597426Y-46559513D01*
X78583267Y-46550355D01*
X78518947Y-46526507D01*
X78448527Y-46525006D01*
X78380405Y-46543966D01*
X78380405Y-46543966D01*
G37*
X78380405Y-46543966D02*
X78322979Y-46581497D01*
X78295281Y-46615096D01*
X78273338Y-46676064D01*
X78271595Y-46724308D01*
X78275543Y-46788816D01*
X78424314Y-46853934D01*
X78496651Y-46887202D01*
X78543916Y-46913964D01*
X78568493Y-46937144D01*
X78572763Y-46959667D01*
X78559111Y-46984455D01*
X78544057Y-47000886D01*
X78500254Y-47027235D01*
X78452611Y-47029081D01*
X78408855Y-47008546D01*
X78376711Y-46967752D01*
X78370962Y-46953347D01*
X78343424Y-46908356D01*
X78311742Y-46889182D01*
X78268286Y-46872779D01*
X78268286Y-46934966D01*
X78272128Y-46977283D01*
X78287177Y-47012969D01*
X78318720Y-47053943D01*
X78323408Y-47059267D01*
X78358494Y-47095720D01*
X78388653Y-47115283D01*
X78426385Y-47124283D01*
X78457665Y-47127230D01*
X78513615Y-47127965D01*
X78553445Y-47118660D01*
X78578292Y-47104846D01*
X78617344Y-47074467D01*
X78644375Y-47041613D01*
X78661483Y-47000294D01*
X78670762Y-46944521D01*
X78674307Y-46868305D01*
X78674590Y-46829622D01*
X78673628Y-46783247D01*
X78585993Y-46783247D01*
X78584977Y-46808126D01*
X78582444Y-46812200D01*
X78565726Y-46806665D01*
X78529751Y-46792017D01*
X78481669Y-46771190D01*
X78471614Y-46766714D01*
X78410848Y-46735814D01*
X78377368Y-46708657D01*
X78370010Y-46683220D01*
X78387609Y-46657481D01*
X78402144Y-46646109D01*
X78454590Y-46623364D01*
X78503678Y-46627122D01*
X78544773Y-46654884D01*
X78573242Y-46704152D01*
X78582369Y-46743257D01*
X78585993Y-46783247D01*
X78673628Y-46783247D01*
X78672715Y-46739249D01*
X78665804Y-46672384D01*
X78652116Y-46623695D01*
X78629904Y-46587849D01*
X78597426Y-46559513D01*
X78583267Y-46550355D01*
X78518947Y-46526507D01*
X78448527Y-46525006D01*
X78380405Y-46543966D01*
G36*
X78881400Y-46535752D02*
G01*
X78864052Y-46543334D01*
X78822644Y-46576128D01*
X78787235Y-46623547D01*
X78765336Y-46674151D01*
X78761771Y-46699098D01*
X78773721Y-46733927D01*
X78799933Y-46752357D01*
X78828036Y-46763516D01*
X78840905Y-46765572D01*
X78847171Y-46750649D01*
X78859544Y-46718175D01*
X78864972Y-46703502D01*
X78895410Y-46652744D01*
X78939480Y-46627427D01*
X78995990Y-46628206D01*
X79000175Y-46629203D01*
X79030345Y-46643507D01*
X79052524Y-46671393D01*
X79067673Y-46716287D01*
X79076750Y-46781615D01*
X79080714Y-46870804D01*
X79081086Y-46918261D01*
X79081270Y-46993071D01*
X79082478Y-47044069D01*
X79085691Y-47076471D01*
X79091891Y-47095495D01*
X79102060Y-47106356D01*
X79117181Y-47114272D01*
X79118054Y-47114670D01*
X79147172Y-47126981D01*
X79161597Y-47131514D01*
X79163814Y-47117809D01*
X79165711Y-47079925D01*
X79167153Y-47022715D01*
X79168002Y-46951027D01*
X79168171Y-46898565D01*
X79167308Y-46797047D01*
X79163930Y-46720032D01*
X79156858Y-46663023D01*
X79144912Y-46621526D01*
X79126910Y-46591043D01*
X79101673Y-46567080D01*
X79076753Y-46550355D01*
X79016829Y-46528097D01*
X78947089Y-46523076D01*
X78881400Y-46535752D01*
X78881400Y-46535752D01*
G37*
X78881400Y-46535752D02*
X78864052Y-46543334D01*
X78822644Y-46576128D01*
X78787235Y-46623547D01*
X78765336Y-46674151D01*
X78761771Y-46699098D01*
X78773721Y-46733927D01*
X78799933Y-46752357D01*
X78828036Y-46763516D01*
X78840905Y-46765572D01*
X78847171Y-46750649D01*
X78859544Y-46718175D01*
X78864972Y-46703502D01*
X78895410Y-46652744D01*
X78939480Y-46627427D01*
X78995990Y-46628206D01*
X79000175Y-46629203D01*
X79030345Y-46643507D01*
X79052524Y-46671393D01*
X79067673Y-46716287D01*
X79076750Y-46781615D01*
X79080714Y-46870804D01*
X79081086Y-46918261D01*
X79081270Y-46993071D01*
X79082478Y-47044069D01*
X79085691Y-47076471D01*
X79091891Y-47095495D01*
X79102060Y-47106356D01*
X79117181Y-47114272D01*
X79118054Y-47114670D01*
X79147172Y-47126981D01*
X79161597Y-47131514D01*
X79163814Y-47117809D01*
X79165711Y-47079925D01*
X79167153Y-47022715D01*
X79168002Y-46951027D01*
X79168171Y-46898565D01*
X79167308Y-46797047D01*
X79163930Y-46720032D01*
X79156858Y-46663023D01*
X79144912Y-46621526D01*
X79126910Y-46591043D01*
X79101673Y-46567080D01*
X79076753Y-46550355D01*
X79016829Y-46528097D01*
X78947089Y-46523076D01*
X78881400Y-46535752D01*
G36*
X79389124Y-46533335D02*
G01*
X79347333Y-46552344D01*
X79314531Y-46575378D01*
X79290497Y-46601133D01*
X79273903Y-46634358D01*
X79263423Y-46679800D01*
X79257729Y-46742207D01*
X79255493Y-46826327D01*
X79255257Y-46881721D01*
X79255257Y-47097826D01*
X79292226Y-47114670D01*
X79321344Y-47126981D01*
X79335769Y-47131514D01*
X79338528Y-47118025D01*
X79340718Y-47081653D01*
X79342058Y-47028542D01*
X79342343Y-46986372D01*
X79343566Y-46925447D01*
X79346864Y-46877115D01*
X79351679Y-46847518D01*
X79355504Y-46841229D01*
X79381217Y-46847652D01*
X79421582Y-46864125D01*
X79468321Y-46886458D01*
X79513155Y-46910457D01*
X79547807Y-46931930D01*
X79563998Y-46946685D01*
X79564062Y-46946845D01*
X79562670Y-46974152D01*
X79550182Y-47000219D01*
X79528257Y-47021392D01*
X79496257Y-47028474D01*
X79468908Y-47027649D01*
X79430174Y-47027042D01*
X79409842Y-47036116D01*
X79397631Y-47060092D01*
X79396091Y-47064613D01*
X79390797Y-47098806D01*
X79404953Y-47119568D01*
X79441852Y-47129462D01*
X79481711Y-47131292D01*
X79553438Y-47117727D01*
X79590568Y-47098355D01*
X79636424Y-47052845D01*
X79660744Y-46996983D01*
X79662927Y-46937957D01*
X79642371Y-46882953D01*
X79611451Y-46848486D01*
X79580580Y-46829189D01*
X79532058Y-46804759D01*
X79475515Y-46779985D01*
X79466090Y-46776199D01*
X79403981Y-46748791D01*
X79368178Y-46724634D01*
X79356663Y-46700619D01*
X79367420Y-46673635D01*
X79385886Y-46652543D01*
X79429531Y-46626572D01*
X79477554Y-46624624D01*
X79521594Y-46644637D01*
X79553291Y-46684551D01*
X79557451Y-46694848D01*
X79581673Y-46732724D01*
X79617035Y-46760842D01*
X79661657Y-46783917D01*
X79661657Y-46718485D01*
X79659031Y-46678506D01*
X79647770Y-46646997D01*
X79622801Y-46613378D01*
X79598831Y-46587484D01*
X79561559Y-46550817D01*
X79532599Y-46531121D01*
X79501495Y-46523220D01*
X79466287Y-46521914D01*
X79389124Y-46533335D01*
X79389124Y-46533335D01*
G37*
X79389124Y-46533335D02*
X79347333Y-46552344D01*
X79314531Y-46575378D01*
X79290497Y-46601133D01*
X79273903Y-46634358D01*
X79263423Y-46679800D01*
X79257729Y-46742207D01*
X79255493Y-46826327D01*
X79255257Y-46881721D01*
X79255257Y-47097826D01*
X79292226Y-47114670D01*
X79321344Y-47126981D01*
X79335769Y-47131514D01*
X79338528Y-47118025D01*
X79340718Y-47081653D01*
X79342058Y-47028542D01*
X79342343Y-46986372D01*
X79343566Y-46925447D01*
X79346864Y-46877115D01*
X79351679Y-46847518D01*
X79355504Y-46841229D01*
X79381217Y-46847652D01*
X79421582Y-46864125D01*
X79468321Y-46886458D01*
X79513155Y-46910457D01*
X79547807Y-46931930D01*
X79563998Y-46946685D01*
X79564062Y-46946845D01*
X79562670Y-46974152D01*
X79550182Y-47000219D01*
X79528257Y-47021392D01*
X79496257Y-47028474D01*
X79468908Y-47027649D01*
X79430174Y-47027042D01*
X79409842Y-47036116D01*
X79397631Y-47060092D01*
X79396091Y-47064613D01*
X79390797Y-47098806D01*
X79404953Y-47119568D01*
X79441852Y-47129462D01*
X79481711Y-47131292D01*
X79553438Y-47117727D01*
X79590568Y-47098355D01*
X79636424Y-47052845D01*
X79660744Y-46996983D01*
X79662927Y-46937957D01*
X79642371Y-46882953D01*
X79611451Y-46848486D01*
X79580580Y-46829189D01*
X79532058Y-46804759D01*
X79475515Y-46779985D01*
X79466090Y-46776199D01*
X79403981Y-46748791D01*
X79368178Y-46724634D01*
X79356663Y-46700619D01*
X79367420Y-46673635D01*
X79385886Y-46652543D01*
X79429531Y-46626572D01*
X79477554Y-46624624D01*
X79521594Y-46644637D01*
X79553291Y-46684551D01*
X79557451Y-46694848D01*
X79581673Y-46732724D01*
X79617035Y-46760842D01*
X79661657Y-46783917D01*
X79661657Y-46718485D01*
X79659031Y-46678506D01*
X79647770Y-46646997D01*
X79622801Y-46613378D01*
X79598831Y-46587484D01*
X79561559Y-46550817D01*
X79532599Y-46531121D01*
X79501495Y-46523220D01*
X79466287Y-46521914D01*
X79389124Y-46533335D01*
G36*
X79754167Y-46535663D02*
G01*
X79751952Y-46573850D01*
X79750216Y-46631886D01*
X79749101Y-46705180D01*
X79748743Y-46782055D01*
X79748743Y-47042196D01*
X79794674Y-47088127D01*
X79826325Y-47116429D01*
X79854110Y-47127893D01*
X79892085Y-47127168D01*
X79907160Y-47125321D01*
X79954274Y-47119948D01*
X79993244Y-47116869D01*
X80002743Y-47116585D01*
X80034767Y-47118445D01*
X80080568Y-47123114D01*
X80098326Y-47125321D01*
X80141943Y-47128735D01*
X80171255Y-47121320D01*
X80200320Y-47098427D01*
X80210812Y-47088127D01*
X80256743Y-47042196D01*
X80256743Y-46555602D01*
X80219774Y-46538758D01*
X80187941Y-46526282D01*
X80169317Y-46521914D01*
X80164542Y-46535718D01*
X80160079Y-46574286D01*
X80156225Y-46633356D01*
X80153278Y-46708663D01*
X80151857Y-46772286D01*
X80147886Y-47022657D01*
X80113241Y-47027556D01*
X80081732Y-47024131D01*
X80066292Y-47013041D01*
X80061977Y-46992308D01*
X80058292Y-46948145D01*
X80055531Y-46886146D01*
X80053988Y-46811909D01*
X80053765Y-46773706D01*
X80053543Y-46553783D01*
X80007834Y-46537849D01*
X79975482Y-46527015D01*
X79957885Y-46521962D01*
X79957377Y-46521914D01*
X79955612Y-46535648D01*
X79953671Y-46573730D01*
X79951718Y-46631482D01*
X79949916Y-46704227D01*
X79948657Y-46772286D01*
X79944686Y-47022657D01*
X79857600Y-47022657D01*
X79853604Y-46794240D01*
X79849608Y-46565822D01*
X79807153Y-46543868D01*
X79775808Y-46528793D01*
X79757256Y-46521951D01*
X79756721Y-46521914D01*
X79754167Y-46535663D01*
X79754167Y-46535663D01*
G37*
X79754167Y-46535663D02*
X79751952Y-46573850D01*
X79750216Y-46631886D01*
X79749101Y-46705180D01*
X79748743Y-46782055D01*
X79748743Y-47042196D01*
X79794674Y-47088127D01*
X79826325Y-47116429D01*
X79854110Y-47127893D01*
X79892085Y-47127168D01*
X79907160Y-47125321D01*
X79954274Y-47119948D01*
X79993244Y-47116869D01*
X80002743Y-47116585D01*
X80034767Y-47118445D01*
X80080568Y-47123114D01*
X80098326Y-47125321D01*
X80141943Y-47128735D01*
X80171255Y-47121320D01*
X80200320Y-47098427D01*
X80210812Y-47088127D01*
X80256743Y-47042196D01*
X80256743Y-46555602D01*
X80219774Y-46538758D01*
X80187941Y-46526282D01*
X80169317Y-46521914D01*
X80164542Y-46535718D01*
X80160079Y-46574286D01*
X80156225Y-46633356D01*
X80153278Y-46708663D01*
X80151857Y-46772286D01*
X80147886Y-47022657D01*
X80113241Y-47027556D01*
X80081732Y-47024131D01*
X80066292Y-47013041D01*
X80061977Y-46992308D01*
X80058292Y-46948145D01*
X80055531Y-46886146D01*
X80053988Y-46811909D01*
X80053765Y-46773706D01*
X80053543Y-46553783D01*
X80007834Y-46537849D01*
X79975482Y-46527015D01*
X79957885Y-46521962D01*
X79957377Y-46521914D01*
X79955612Y-46535648D01*
X79953671Y-46573730D01*
X79951718Y-46631482D01*
X79949916Y-46704227D01*
X79948657Y-46772286D01*
X79944686Y-47022657D01*
X79857600Y-47022657D01*
X79853604Y-46794240D01*
X79849608Y-46565822D01*
X79807153Y-46543868D01*
X79775808Y-46528793D01*
X79757256Y-46521951D01*
X79756721Y-46521914D01*
X79754167Y-46535663D01*
G36*
X80343883Y-46642358D02*
G01*
X80344067Y-46750837D01*
X80344781Y-46834287D01*
X80346325Y-46896704D01*
X80348999Y-46942085D01*
X80353106Y-46974429D01*
X80358945Y-46997733D01*
X80366818Y-47015995D01*
X80372779Y-47026418D01*
X80422145Y-47082945D01*
X80484736Y-47118377D01*
X80553987Y-47131090D01*
X80623332Y-47119463D01*
X80664625Y-47098568D01*
X80707975Y-47062422D01*
X80737519Y-47018276D01*
X80755345Y-46960462D01*
X80763537Y-46883313D01*
X80764698Y-46826714D01*
X80764542Y-46822647D01*
X80663143Y-46822647D01*
X80662524Y-46887550D01*
X80659686Y-46930514D01*
X80653160Y-46958622D01*
X80641477Y-46978953D01*
X80627517Y-46994288D01*
X80580635Y-47023890D01*
X80530299Y-47026419D01*
X80482724Y-47001705D01*
X80479021Y-46998356D01*
X80463217Y-46980935D01*
X80453307Y-46960209D01*
X80447942Y-46929362D01*
X80445772Y-46881577D01*
X80445429Y-46828748D01*
X80446173Y-46762381D01*
X80449252Y-46718106D01*
X80455939Y-46689009D01*
X80467504Y-46668173D01*
X80476987Y-46657107D01*
X80521040Y-46629198D01*
X80571776Y-46625843D01*
X80620204Y-46647159D01*
X80629550Y-46655073D01*
X80645460Y-46672647D01*
X80655390Y-46693587D01*
X80660722Y-46724782D01*
X80662837Y-46773122D01*
X80663143Y-46822647D01*
X80764542Y-46822647D01*
X80761190Y-46735568D01*
X80749274Y-46667086D01*
X80726865Y-46615600D01*
X80691876Y-46575443D01*
X80664625Y-46554861D01*
X80615093Y-46532625D01*
X80557684Y-46522304D01*
X80504318Y-46525067D01*
X80474457Y-46536212D01*
X80462739Y-46539383D01*
X80454963Y-46527557D01*
X80449535Y-46495866D01*
X80445429Y-46447593D01*
X80440933Y-46393829D01*
X80434687Y-46361482D01*
X80423324Y-46342985D01*
X80403472Y-46330770D01*
X80391000Y-46325362D01*
X80343829Y-46305601D01*
X80343883Y-46642358D01*
X80343883Y-46642358D01*
G37*
X80343883Y-46642358D02*
X80344067Y-46750837D01*
X80344781Y-46834287D01*
X80346325Y-46896704D01*
X80348999Y-46942085D01*
X80353106Y-46974429D01*
X80358945Y-46997733D01*
X80366818Y-47015995D01*
X80372779Y-47026418D01*
X80422145Y-47082945D01*
X80484736Y-47118377D01*
X80553987Y-47131090D01*
X80623332Y-47119463D01*
X80664625Y-47098568D01*
X80707975Y-47062422D01*
X80737519Y-47018276D01*
X80755345Y-46960462D01*
X80763537Y-46883313D01*
X80764698Y-46826714D01*
X80764542Y-46822647D01*
X80663143Y-46822647D01*
X80662524Y-46887550D01*
X80659686Y-46930514D01*
X80653160Y-46958622D01*
X80641477Y-46978953D01*
X80627517Y-46994288D01*
X80580635Y-47023890D01*
X80530299Y-47026419D01*
X80482724Y-47001705D01*
X80479021Y-46998356D01*
X80463217Y-46980935D01*
X80453307Y-46960209D01*
X80447942Y-46929362D01*
X80445772Y-46881577D01*
X80445429Y-46828748D01*
X80446173Y-46762381D01*
X80449252Y-46718106D01*
X80455939Y-46689009D01*
X80467504Y-46668173D01*
X80476987Y-46657107D01*
X80521040Y-46629198D01*
X80571776Y-46625843D01*
X80620204Y-46647159D01*
X80629550Y-46655073D01*
X80645460Y-46672647D01*
X80655390Y-46693587D01*
X80660722Y-46724782D01*
X80662837Y-46773122D01*
X80663143Y-46822647D01*
X80764542Y-46822647D01*
X80761190Y-46735568D01*
X80749274Y-46667086D01*
X80726865Y-46615600D01*
X80691876Y-46575443D01*
X80664625Y-46554861D01*
X80615093Y-46532625D01*
X80557684Y-46522304D01*
X80504318Y-46525067D01*
X80474457Y-46536212D01*
X80462739Y-46539383D01*
X80454963Y-46527557D01*
X80449535Y-46495866D01*
X80445429Y-46447593D01*
X80440933Y-46393829D01*
X80434687Y-46361482D01*
X80423324Y-46342985D01*
X80403472Y-46330770D01*
X80391000Y-46325362D01*
X80343829Y-46305601D01*
X80343883Y-46642358D01*
G36*
X81004074Y-46526755D02*
G01*
X80938142Y-46551084D01*
X80884727Y-46594117D01*
X80863836Y-46624409D01*
X80841061Y-46679994D01*
X80841534Y-46720186D01*
X80865438Y-46747217D01*
X80874283Y-46751813D01*
X80912470Y-46766144D01*
X80931972Y-46762472D01*
X80938578Y-46738407D01*
X80938914Y-46725114D01*
X80951008Y-46676210D01*
X80982529Y-46641999D01*
X81026341Y-46625476D01*
X81075305Y-46629634D01*
X81115106Y-46651227D01*
X81128550Y-46663544D01*
X81138079Y-46678487D01*
X81144515Y-46701075D01*
X81148683Y-46736328D01*
X81151403Y-46789266D01*
X81153498Y-46864907D01*
X81154040Y-46888857D01*
X81156019Y-46970790D01*
X81158269Y-47028455D01*
X81161643Y-47066608D01*
X81166994Y-47090004D01*
X81175176Y-47103398D01*
X81187041Y-47111545D01*
X81194638Y-47115144D01*
X81226898Y-47127452D01*
X81245889Y-47131514D01*
X81252164Y-47117948D01*
X81255994Y-47076934D01*
X81257400Y-47007999D01*
X81256402Y-46910669D01*
X81256092Y-46895657D01*
X81253899Y-46806859D01*
X81251307Y-46742019D01*
X81247618Y-46696067D01*
X81242136Y-46663935D01*
X81234165Y-46640553D01*
X81223007Y-46620852D01*
X81217170Y-46612410D01*
X81183704Y-46575057D01*
X81146273Y-46546003D01*
X81141691Y-46543467D01*
X81074574Y-46523443D01*
X81004074Y-46526755D01*
X81004074Y-46526755D01*
G37*
X81004074Y-46526755D02*
X80938142Y-46551084D01*
X80884727Y-46594117D01*
X80863836Y-46624409D01*
X80841061Y-46679994D01*
X80841534Y-46720186D01*
X80865438Y-46747217D01*
X80874283Y-46751813D01*
X80912470Y-46766144D01*
X80931972Y-46762472D01*
X80938578Y-46738407D01*
X80938914Y-46725114D01*
X80951008Y-46676210D01*
X80982529Y-46641999D01*
X81026341Y-46625476D01*
X81075305Y-46629634D01*
X81115106Y-46651227D01*
X81128550Y-46663544D01*
X81138079Y-46678487D01*
X81144515Y-46701075D01*
X81148683Y-46736328D01*
X81151403Y-46789266D01*
X81153498Y-46864907D01*
X81154040Y-46888857D01*
X81156019Y-46970790D01*
X81158269Y-47028455D01*
X81161643Y-47066608D01*
X81166994Y-47090004D01*
X81175176Y-47103398D01*
X81187041Y-47111545D01*
X81194638Y-47115144D01*
X81226898Y-47127452D01*
X81245889Y-47131514D01*
X81252164Y-47117948D01*
X81255994Y-47076934D01*
X81257400Y-47007999D01*
X81256402Y-46910669D01*
X81256092Y-46895657D01*
X81253899Y-46806859D01*
X81251307Y-46742019D01*
X81247618Y-46696067D01*
X81242136Y-46663935D01*
X81234165Y-46640553D01*
X81223007Y-46620852D01*
X81217170Y-46612410D01*
X81183704Y-46575057D01*
X81146273Y-46546003D01*
X81141691Y-46543467D01*
X81074574Y-46523443D01*
X81004074Y-46526755D01*
G36*
X81494256Y-46527968D02*
G01*
X81437384Y-46549087D01*
X81436733Y-46549493D01*
X81401560Y-46575380D01*
X81375593Y-46605633D01*
X81357330Y-46645058D01*
X81345268Y-46698462D01*
X81337904Y-46770651D01*
X81333736Y-46866432D01*
X81333371Y-46880078D01*
X81328124Y-47085842D01*
X81372284Y-47108678D01*
X81404237Y-47124110D01*
X81423530Y-47131423D01*
X81424422Y-47131514D01*
X81427761Y-47118022D01*
X81430413Y-47081626D01*
X81432044Y-47028452D01*
X81432400Y-46985393D01*
X81432408Y-46915641D01*
X81435597Y-46871837D01*
X81446712Y-46850944D01*
X81470499Y-46849925D01*
X81511704Y-46865741D01*
X81573914Y-46894815D01*
X81619659Y-46918963D01*
X81643187Y-46939913D01*
X81650104Y-46962747D01*
X81650114Y-46963877D01*
X81638701Y-47003212D01*
X81604908Y-47024462D01*
X81553191Y-47027539D01*
X81515939Y-47027006D01*
X81496297Y-47037735D01*
X81484048Y-47063505D01*
X81476998Y-47096337D01*
X81487158Y-47114966D01*
X81490983Y-47117632D01*
X81526999Y-47128340D01*
X81577434Y-47129856D01*
X81629374Y-47122759D01*
X81666178Y-47109788D01*
X81717062Y-47066585D01*
X81745986Y-47006446D01*
X81751714Y-46959462D01*
X81747343Y-46917082D01*
X81731525Y-46882488D01*
X81700203Y-46851763D01*
X81649322Y-46820990D01*
X81574824Y-46786252D01*
X81570286Y-46784288D01*
X81503179Y-46753287D01*
X81461768Y-46727862D01*
X81444019Y-46705014D01*
X81447893Y-46681745D01*
X81471357Y-46655056D01*
X81478373Y-46648914D01*
X81525370Y-46625100D01*
X81574067Y-46626103D01*
X81616478Y-46649451D01*
X81644616Y-46692675D01*
X81647231Y-46701160D01*
X81672692Y-46742308D01*
X81704999Y-46762128D01*
X81751714Y-46781770D01*
X81751714Y-46730950D01*
X81737504Y-46657082D01*
X81695325Y-46589327D01*
X81673376Y-46566661D01*
X81623483Y-46537569D01*
X81560033Y-46524400D01*
X81494256Y-46527968D01*
X81494256Y-46527968D01*
G37*
X81494256Y-46527968D02*
X81437384Y-46549087D01*
X81436733Y-46549493D01*
X81401560Y-46575380D01*
X81375593Y-46605633D01*
X81357330Y-46645058D01*
X81345268Y-46698462D01*
X81337904Y-46770651D01*
X81333736Y-46866432D01*
X81333371Y-46880078D01*
X81328124Y-47085842D01*
X81372284Y-47108678D01*
X81404237Y-47124110D01*
X81423530Y-47131423D01*
X81424422Y-47131514D01*
X81427761Y-47118022D01*
X81430413Y-47081626D01*
X81432044Y-47028452D01*
X81432400Y-46985393D01*
X81432408Y-46915641D01*
X81435597Y-46871837D01*
X81446712Y-46850944D01*
X81470499Y-46849925D01*
X81511704Y-46865741D01*
X81573914Y-46894815D01*
X81619659Y-46918963D01*
X81643187Y-46939913D01*
X81650104Y-46962747D01*
X81650114Y-46963877D01*
X81638701Y-47003212D01*
X81604908Y-47024462D01*
X81553191Y-47027539D01*
X81515939Y-47027006D01*
X81496297Y-47037735D01*
X81484048Y-47063505D01*
X81476998Y-47096337D01*
X81487158Y-47114966D01*
X81490983Y-47117632D01*
X81526999Y-47128340D01*
X81577434Y-47129856D01*
X81629374Y-47122759D01*
X81666178Y-47109788D01*
X81717062Y-47066585D01*
X81745986Y-47006446D01*
X81751714Y-46959462D01*
X81747343Y-46917082D01*
X81731525Y-46882488D01*
X81700203Y-46851763D01*
X81649322Y-46820990D01*
X81574824Y-46786252D01*
X81570286Y-46784288D01*
X81503179Y-46753287D01*
X81461768Y-46727862D01*
X81444019Y-46705014D01*
X81447893Y-46681745D01*
X81471357Y-46655056D01*
X81478373Y-46648914D01*
X81525370Y-46625100D01*
X81574067Y-46626103D01*
X81616478Y-46649451D01*
X81644616Y-46692675D01*
X81647231Y-46701160D01*
X81672692Y-46742308D01*
X81704999Y-46762128D01*
X81751714Y-46781770D01*
X81751714Y-46730950D01*
X81737504Y-46657082D01*
X81695325Y-46589327D01*
X81673376Y-46566661D01*
X81623483Y-46537569D01*
X81560033Y-46524400D01*
X81494256Y-46527968D01*
G36*
X82158114Y-46428289D02*
G01*
X82153861Y-46487613D01*
X82148975Y-46522572D01*
X82142205Y-46537820D01*
X82132298Y-46538015D01*
X82129086Y-46536195D01*
X82086356Y-46523015D01*
X82030773Y-46523785D01*
X81974263Y-46537333D01*
X81938918Y-46554861D01*
X81902679Y-46582861D01*
X81876187Y-46614549D01*
X81858001Y-46654813D01*
X81846678Y-46708543D01*
X81840778Y-46780626D01*
X81838857Y-46875951D01*
X81838823Y-46894237D01*
X81838800Y-47099646D01*
X81884509Y-47115580D01*
X81916973Y-47126420D01*
X81934785Y-47131468D01*
X81935309Y-47131514D01*
X81937063Y-47117828D01*
X81938556Y-47080076D01*
X81939674Y-47023224D01*
X81940303Y-46952234D01*
X81940400Y-46909073D01*
X81940602Y-46823973D01*
X81941642Y-46762981D01*
X81944169Y-46721177D01*
X81948836Y-46693642D01*
X81956293Y-46675456D01*
X81967189Y-46661698D01*
X81973993Y-46655073D01*
X82020728Y-46628375D01*
X82071728Y-46626375D01*
X82117999Y-46648955D01*
X82126556Y-46657107D01*
X82139107Y-46672436D01*
X82147812Y-46690618D01*
X82153369Y-46716909D01*
X82156474Y-46756562D01*
X82157824Y-46814832D01*
X82158114Y-46895173D01*
X82158114Y-47099646D01*
X82203823Y-47115580D01*
X82236287Y-47126420D01*
X82254099Y-47131468D01*
X82254623Y-47131514D01*
X82255963Y-47117623D01*
X82257172Y-47078439D01*
X82258199Y-47017700D01*
X82258998Y-46939141D01*
X82259519Y-46846498D01*
X82259714Y-46743509D01*
X82259714Y-46346342D01*
X82212543Y-46326444D01*
X82165371Y-46306547D01*
X82158114Y-46428289D01*
X82158114Y-46428289D01*
G37*
X82158114Y-46428289D02*
X82153861Y-46487613D01*
X82148975Y-46522572D01*
X82142205Y-46537820D01*
X82132298Y-46538015D01*
X82129086Y-46536195D01*
X82086356Y-46523015D01*
X82030773Y-46523785D01*
X81974263Y-46537333D01*
X81938918Y-46554861D01*
X81902679Y-46582861D01*
X81876187Y-46614549D01*
X81858001Y-46654813D01*
X81846678Y-46708543D01*
X81840778Y-46780626D01*
X81838857Y-46875951D01*
X81838823Y-46894237D01*
X81838800Y-47099646D01*
X81884509Y-47115580D01*
X81916973Y-47126420D01*
X81934785Y-47131468D01*
X81935309Y-47131514D01*
X81937063Y-47117828D01*
X81938556Y-47080076D01*
X81939674Y-47023224D01*
X81940303Y-46952234D01*
X81940400Y-46909073D01*
X81940602Y-46823973D01*
X81941642Y-46762981D01*
X81944169Y-46721177D01*
X81948836Y-46693642D01*
X81956293Y-46675456D01*
X81967189Y-46661698D01*
X81973993Y-46655073D01*
X82020728Y-46628375D01*
X82071728Y-46626375D01*
X82117999Y-46648955D01*
X82126556Y-46657107D01*
X82139107Y-46672436D01*
X82147812Y-46690618D01*
X82153369Y-46716909D01*
X82156474Y-46756562D01*
X82157824Y-46814832D01*
X82158114Y-46895173D01*
X82158114Y-47099646D01*
X82203823Y-47115580D01*
X82236287Y-47126420D01*
X82254099Y-47131468D01*
X82254623Y-47131514D01*
X82255963Y-47117623D01*
X82257172Y-47078439D01*
X82258199Y-47017700D01*
X82258998Y-46939141D01*
X82259519Y-46846498D01*
X82259714Y-46743509D01*
X82259714Y-46346342D01*
X82212543Y-46326444D01*
X82165371Y-46306547D01*
X82158114Y-46428289D01*
G36*
X83365697Y-46508239D02*
G01*
X83308473Y-46546735D01*
X83264251Y-46602335D01*
X83237833Y-46673086D01*
X83232490Y-46725162D01*
X83233097Y-46746893D01*
X83238178Y-46763531D01*
X83252145Y-46778437D01*
X83279411Y-46794973D01*
X83324388Y-46816498D01*
X83391489Y-46846374D01*
X83391829Y-46846524D01*
X83453593Y-46874813D01*
X83504241Y-46899933D01*
X83538596Y-46919179D01*
X83551482Y-46929848D01*
X83551486Y-46929934D01*
X83540128Y-46953166D01*
X83513569Y-46978774D01*
X83483077Y-46997221D01*
X83467630Y-47000886D01*
X83425485Y-46988212D01*
X83389192Y-46956471D01*
X83371483Y-46921572D01*
X83354448Y-46895845D01*
X83321078Y-46866546D01*
X83281851Y-46841235D01*
X83247244Y-46827471D01*
X83240007Y-46826714D01*
X83231861Y-46839160D01*
X83231370Y-46870972D01*
X83237357Y-46913866D01*
X83248643Y-46959558D01*
X83264050Y-46999761D01*
X83264829Y-47001322D01*
X83311196Y-47066062D01*
X83371289Y-47110097D01*
X83439535Y-47131711D01*
X83510362Y-47129185D01*
X83578196Y-47100804D01*
X83581212Y-47098808D01*
X83634573Y-47050448D01*
X83669660Y-46987352D01*
X83689078Y-46904387D01*
X83691684Y-46881078D01*
X83696299Y-46771055D01*
X83690767Y-46719748D01*
X83551486Y-46719748D01*
X83549676Y-46751753D01*
X83539778Y-46761093D01*
X83515102Y-46754105D01*
X83476205Y-46737587D01*
X83432725Y-46716881D01*
X83431644Y-46716333D01*
X83394791Y-46696949D01*
X83380000Y-46684013D01*
X83383647Y-46670451D01*
X83399005Y-46652632D01*
X83438077Y-46626845D01*
X83480154Y-46624950D01*
X83517897Y-46643717D01*
X83543966Y-46679915D01*
X83551486Y-46719748D01*
X83690767Y-46719748D01*
X83686806Y-46683027D01*
X83662450Y-46613212D01*
X83628544Y-46564302D01*
X83567347Y-46514878D01*
X83499937Y-46490359D01*
X83431120Y-46488797D01*
X83365697Y-46508239D01*
X83365697Y-46508239D01*
G37*
X83365697Y-46508239D02*
X83308473Y-46546735D01*
X83264251Y-46602335D01*
X83237833Y-46673086D01*
X83232490Y-46725162D01*
X83233097Y-46746893D01*
X83238178Y-46763531D01*
X83252145Y-46778437D01*
X83279411Y-46794973D01*
X83324388Y-46816498D01*
X83391489Y-46846374D01*
X83391829Y-46846524D01*
X83453593Y-46874813D01*
X83504241Y-46899933D01*
X83538596Y-46919179D01*
X83551482Y-46929848D01*
X83551486Y-46929934D01*
X83540128Y-46953166D01*
X83513569Y-46978774D01*
X83483077Y-46997221D01*
X83467630Y-47000886D01*
X83425485Y-46988212D01*
X83389192Y-46956471D01*
X83371483Y-46921572D01*
X83354448Y-46895845D01*
X83321078Y-46866546D01*
X83281851Y-46841235D01*
X83247244Y-46827471D01*
X83240007Y-46826714D01*
X83231861Y-46839160D01*
X83231370Y-46870972D01*
X83237357Y-46913866D01*
X83248643Y-46959558D01*
X83264050Y-46999761D01*
X83264829Y-47001322D01*
X83311196Y-47066062D01*
X83371289Y-47110097D01*
X83439535Y-47131711D01*
X83510362Y-47129185D01*
X83578196Y-47100804D01*
X83581212Y-47098808D01*
X83634573Y-47050448D01*
X83669660Y-46987352D01*
X83689078Y-46904387D01*
X83691684Y-46881078D01*
X83696299Y-46771055D01*
X83690767Y-46719748D01*
X83551486Y-46719748D01*
X83549676Y-46751753D01*
X83539778Y-46761093D01*
X83515102Y-46754105D01*
X83476205Y-46737587D01*
X83432725Y-46716881D01*
X83431644Y-46716333D01*
X83394791Y-46696949D01*
X83380000Y-46684013D01*
X83383647Y-46670451D01*
X83399005Y-46652632D01*
X83438077Y-46626845D01*
X83480154Y-46624950D01*
X83517897Y-46643717D01*
X83543966Y-46679915D01*
X83551486Y-46719748D01*
X83690767Y-46719748D01*
X83686806Y-46683027D01*
X83662450Y-46613212D01*
X83628544Y-46564302D01*
X83567347Y-46514878D01*
X83499937Y-46490359D01*
X83431120Y-46488797D01*
X83365697Y-46508239D01*
G36*
X84492885Y-46498962D02*
G01*
X84424855Y-46534733D01*
X84374649Y-46592301D01*
X84356815Y-46629312D01*
X84342937Y-46684882D01*
X84335833Y-46755096D01*
X84335160Y-46831727D01*
X84340573Y-46906552D01*
X84351730Y-46971342D01*
X84368286Y-47017873D01*
X84373374Y-47025887D01*
X84433645Y-47085707D01*
X84505231Y-47121535D01*
X84582908Y-47132020D01*
X84661452Y-47115810D01*
X84683311Y-47106092D01*
X84725878Y-47076143D01*
X84763237Y-47036433D01*
X84766768Y-47031397D01*
X84781119Y-47007124D01*
X84790606Y-46981178D01*
X84796210Y-46947022D01*
X84798914Y-46898119D01*
X84799701Y-46827935D01*
X84799714Y-46812200D01*
X84799678Y-46807192D01*
X84654571Y-46807192D01*
X84653727Y-46873430D01*
X84650404Y-46917386D01*
X84643417Y-46945779D01*
X84631584Y-46965325D01*
X84625543Y-46971857D01*
X84590814Y-46996680D01*
X84557097Y-46995548D01*
X84523005Y-46974016D01*
X84502671Y-46951029D01*
X84490629Y-46917478D01*
X84483866Y-46864569D01*
X84483402Y-46858399D01*
X84482248Y-46762513D01*
X84494312Y-46691299D01*
X84519430Y-46645194D01*
X84557440Y-46624635D01*
X84571008Y-46623514D01*
X84606636Y-46629152D01*
X84631006Y-46648686D01*
X84645907Y-46686042D01*
X84653125Y-46745150D01*
X84654571Y-46807192D01*
X84799678Y-46807192D01*
X84799174Y-46737413D01*
X84796904Y-46685159D01*
X84791932Y-46648949D01*
X84783287Y-46622299D01*
X84769995Y-46598722D01*
X84767057Y-46594338D01*
X84717687Y-46535249D01*
X84663891Y-46500947D01*
X84598398Y-46487331D01*
X84576158Y-46486665D01*
X84492885Y-46498962D01*
X84492885Y-46498962D01*
G37*
X84492885Y-46498962D02*
X84424855Y-46534733D01*
X84374649Y-46592301D01*
X84356815Y-46629312D01*
X84342937Y-46684882D01*
X84335833Y-46755096D01*
X84335160Y-46831727D01*
X84340573Y-46906552D01*
X84351730Y-46971342D01*
X84368286Y-47017873D01*
X84373374Y-47025887D01*
X84433645Y-47085707D01*
X84505231Y-47121535D01*
X84582908Y-47132020D01*
X84661452Y-47115810D01*
X84683311Y-47106092D01*
X84725878Y-47076143D01*
X84763237Y-47036433D01*
X84766768Y-47031397D01*
X84781119Y-47007124D01*
X84790606Y-46981178D01*
X84796210Y-46947022D01*
X84798914Y-46898119D01*
X84799701Y-46827935D01*
X84799714Y-46812200D01*
X84799678Y-46807192D01*
X84654571Y-46807192D01*
X84653727Y-46873430D01*
X84650404Y-46917386D01*
X84643417Y-46945779D01*
X84631584Y-46965325D01*
X84625543Y-46971857D01*
X84590814Y-46996680D01*
X84557097Y-46995548D01*
X84523005Y-46974016D01*
X84502671Y-46951029D01*
X84490629Y-46917478D01*
X84483866Y-46864569D01*
X84483402Y-46858399D01*
X84482248Y-46762513D01*
X84494312Y-46691299D01*
X84519430Y-46645194D01*
X84557440Y-46624635D01*
X84571008Y-46623514D01*
X84606636Y-46629152D01*
X84631006Y-46648686D01*
X84645907Y-46686042D01*
X84653125Y-46745150D01*
X84654571Y-46807192D01*
X84799678Y-46807192D01*
X84799174Y-46737413D01*
X84796904Y-46685159D01*
X84791932Y-46648949D01*
X84783287Y-46622299D01*
X84769995Y-46598722D01*
X84767057Y-46594338D01*
X84717687Y-46535249D01*
X84663891Y-46500947D01*
X84598398Y-46487331D01*
X84576158Y-46486665D01*
X84492885Y-46498962D01*
G36*
X82817907Y-46504780D02*
G01*
X82771328Y-46531723D01*
X82738943Y-46558466D01*
X82715258Y-46586484D01*
X82698941Y-46620748D01*
X82688661Y-46666227D01*
X82683086Y-46727892D01*
X82680884Y-46810711D01*
X82680629Y-46870246D01*
X82680629Y-47089391D01*
X82742314Y-47117044D01*
X82804000Y-47144697D01*
X82811257Y-46904670D01*
X82814256Y-46815028D01*
X82817402Y-46749962D01*
X82821299Y-46705026D01*
X82826553Y-46675770D01*
X82833769Y-46657748D01*
X82843550Y-46646511D01*
X82846688Y-46644079D01*
X82894239Y-46625083D01*
X82942303Y-46632600D01*
X82970914Y-46652543D01*
X82982553Y-46666675D01*
X82990609Y-46685220D01*
X82995729Y-46713334D01*
X82998559Y-46756173D01*
X82999744Y-46818895D01*
X82999943Y-46884261D01*
X82999982Y-46966268D01*
X83001386Y-47024316D01*
X83006086Y-47063465D01*
X83016013Y-47088780D01*
X83033097Y-47105323D01*
X83059268Y-47118156D01*
X83094225Y-47131491D01*
X83132404Y-47146007D01*
X83127859Y-46888389D01*
X83126029Y-46795519D01*
X83123888Y-46726889D01*
X83120819Y-46677711D01*
X83116206Y-46643198D01*
X83109432Y-46618562D01*
X83099881Y-46599016D01*
X83088366Y-46581770D01*
X83032810Y-46526680D01*
X82965020Y-46494822D01*
X82891287Y-46487191D01*
X82817907Y-46504780D01*
X82817907Y-46504780D01*
G37*
X82817907Y-46504780D02*
X82771328Y-46531723D01*
X82738943Y-46558466D01*
X82715258Y-46586484D01*
X82698941Y-46620748D01*
X82688661Y-46666227D01*
X82683086Y-46727892D01*
X82680884Y-46810711D01*
X82680629Y-46870246D01*
X82680629Y-47089391D01*
X82742314Y-47117044D01*
X82804000Y-47144697D01*
X82811257Y-46904670D01*
X82814256Y-46815028D01*
X82817402Y-46749962D01*
X82821299Y-46705026D01*
X82826553Y-46675770D01*
X82833769Y-46657748D01*
X82843550Y-46646511D01*
X82846688Y-46644079D01*
X82894239Y-46625083D01*
X82942303Y-46632600D01*
X82970914Y-46652543D01*
X82982553Y-46666675D01*
X82990609Y-46685220D01*
X82995729Y-46713334D01*
X82998559Y-46756173D01*
X82999744Y-46818895D01*
X82999943Y-46884261D01*
X82999982Y-46966268D01*
X83001386Y-47024316D01*
X83006086Y-47063465D01*
X83016013Y-47088780D01*
X83033097Y-47105323D01*
X83059268Y-47118156D01*
X83094225Y-47131491D01*
X83132404Y-47146007D01*
X83127859Y-46888389D01*
X83126029Y-46795519D01*
X83123888Y-46726889D01*
X83120819Y-46677711D01*
X83116206Y-46643198D01*
X83109432Y-46618562D01*
X83099881Y-46599016D01*
X83088366Y-46581770D01*
X83032810Y-46526680D01*
X82965020Y-46494822D01*
X82891287Y-46487191D01*
X82817907Y-46504780D01*
G36*
X83934256Y-46496918D02*
G01*
X83878799Y-46524568D01*
X83829852Y-46575480D01*
X83816371Y-46594338D01*
X83801686Y-46619015D01*
X83792158Y-46645816D01*
X83786707Y-46681587D01*
X83784253Y-46733169D01*
X83783714Y-46801267D01*
X83786148Y-46894588D01*
X83794606Y-46964657D01*
X83810826Y-47016931D01*
X83836546Y-47056869D01*
X83873503Y-47089929D01*
X83876218Y-47091886D01*
X83912640Y-47111908D01*
X83956498Y-47121815D01*
X84012276Y-47124257D01*
X84102952Y-47124257D01*
X84102990Y-47212283D01*
X84103834Y-47261308D01*
X84108976Y-47290065D01*
X84122413Y-47307311D01*
X84148142Y-47321808D01*
X84154321Y-47324769D01*
X84183236Y-47338648D01*
X84205624Y-47347414D01*
X84222271Y-47348171D01*
X84233964Y-47338023D01*
X84241490Y-47314073D01*
X84245634Y-47273426D01*
X84247185Y-47213186D01*
X84246929Y-47130455D01*
X84245651Y-47022339D01*
X84245252Y-46990000D01*
X84243815Y-46878524D01*
X84242528Y-46805603D01*
X84103029Y-46805603D01*
X84102245Y-46867499D01*
X84098760Y-46907997D01*
X84090876Y-46934708D01*
X84076895Y-46955244D01*
X84067403Y-46965260D01*
X84028596Y-46994567D01*
X83994237Y-46996952D01*
X83958784Y-46972750D01*
X83957886Y-46971857D01*
X83943461Y-46953153D01*
X83934687Y-46927732D01*
X83930261Y-46888584D01*
X83928882Y-46828697D01*
X83928857Y-46815430D01*
X83932188Y-46732901D01*
X83943031Y-46675691D01*
X83962660Y-46640766D01*
X83992350Y-46625094D01*
X84009509Y-46623514D01*
X84050234Y-46630926D01*
X84078168Y-46655330D01*
X84094983Y-46699980D01*
X84102350Y-46768130D01*
X84103029Y-46805603D01*
X84242528Y-46805603D01*
X84242292Y-46792245D01*
X84240323Y-46727333D01*
X84237550Y-46679958D01*
X84233612Y-46646290D01*
X84228151Y-46622498D01*
X84220808Y-46604753D01*
X84211223Y-46589224D01*
X84207113Y-46583381D01*
X84152595Y-46528185D01*
X84083664Y-46496890D01*
X84003928Y-46488165D01*
X83934256Y-46496918D01*
X83934256Y-46496918D01*
G37*
X83934256Y-46496918D02*
X83878799Y-46524568D01*
X83829852Y-46575480D01*
X83816371Y-46594338D01*
X83801686Y-46619015D01*
X83792158Y-46645816D01*
X83786707Y-46681587D01*
X83784253Y-46733169D01*
X83783714Y-46801267D01*
X83786148Y-46894588D01*
X83794606Y-46964657D01*
X83810826Y-47016931D01*
X83836546Y-47056869D01*
X83873503Y-47089929D01*
X83876218Y-47091886D01*
X83912640Y-47111908D01*
X83956498Y-47121815D01*
X84012276Y-47124257D01*
X84102952Y-47124257D01*
X84102990Y-47212283D01*
X84103834Y-47261308D01*
X84108976Y-47290065D01*
X84122413Y-47307311D01*
X84148142Y-47321808D01*
X84154321Y-47324769D01*
X84183236Y-47338648D01*
X84205624Y-47347414D01*
X84222271Y-47348171D01*
X84233964Y-47338023D01*
X84241490Y-47314073D01*
X84245634Y-47273426D01*
X84247185Y-47213186D01*
X84246929Y-47130455D01*
X84245651Y-47022339D01*
X84245252Y-46990000D01*
X84243815Y-46878524D01*
X84242528Y-46805603D01*
X84103029Y-46805603D01*
X84102245Y-46867499D01*
X84098760Y-46907997D01*
X84090876Y-46934708D01*
X84076895Y-46955244D01*
X84067403Y-46965260D01*
X84028596Y-46994567D01*
X83994237Y-46996952D01*
X83958784Y-46972750D01*
X83957886Y-46971857D01*
X83943461Y-46953153D01*
X83934687Y-46927732D01*
X83930261Y-46888584D01*
X83928882Y-46828697D01*
X83928857Y-46815430D01*
X83932188Y-46732901D01*
X83943031Y-46675691D01*
X83962660Y-46640766D01*
X83992350Y-46625094D01*
X84009509Y-46623514D01*
X84050234Y-46630926D01*
X84078168Y-46655330D01*
X84094983Y-46699980D01*
X84102350Y-46768130D01*
X84103029Y-46805603D01*
X84242528Y-46805603D01*
X84242292Y-46792245D01*
X84240323Y-46727333D01*
X84237550Y-46679958D01*
X84233612Y-46646290D01*
X84228151Y-46622498D01*
X84220808Y-46604753D01*
X84211223Y-46589224D01*
X84207113Y-46583381D01*
X84152595Y-46528185D01*
X84083664Y-46496890D01*
X84003928Y-46488165D01*
X83934256Y-46496918D01*
M02*
