M48
; DRILL file {KiCad (5.1.2-1)-1} date Wednesday, August 21, 2019 at 10:56:28 AM
; FORMAT={-:-/ absolute / inch / decimal}
; #@! TF.CreationDate,2019-08-21T10:56:28-07:00
; #@! TF.GenerationSoftware,Kicad,Pcbnew,(5.1.2-1)-1
; #@! TF.FileFunction,Plated,1,2,PTH
FMAT,2
INCH
T1C0.0157
T2C0.0315
T3C0.0394
T4C0.0400
T5C0.1181
%
G90
G05
T1
X2.73Y-3.705
X2.745Y-3.9
X2.75Y-4.095
T2
X3.205Y-3.67
X3.205Y-3.77
X3.205Y-3.87
X3.205Y-3.97
X3.205Y-4.07
X3.205Y-4.17
X3.205Y-4.27
X3.505Y-3.67
X3.505Y-3.77
X3.505Y-3.87
X3.505Y-3.97
X3.505Y-4.07
X3.505Y-4.17
X3.505Y-4.27
X3.74Y-3.785
X3.74Y-3.885
X3.74Y-3.985
X3.74Y-4.085
X4.04Y-3.785
X4.04Y-3.885
X4.04Y-3.985
X4.04Y-4.085
X2.595Y-3.78
X2.595Y-3.88
X2.595Y-3.98
X2.595Y-4.08
X2.895Y-3.78
X2.895Y-3.88
X2.895Y-3.98
X2.895Y-4.08
T3
X2.25Y-3.635
X2.25Y-3.735
X2.25Y-3.835
X2.25Y-3.935
X2.25Y-4.035
X2.33Y-4.23
X2.43Y-4.23
X2.53Y-4.23
X2.88Y-4.23
X2.98Y-4.23
X3.08Y-4.23
X4.4Y-4.26
X4.5Y-4.26
X4.6Y-4.26
X3.79Y-4.25
X3.89Y-4.25
X3.99Y-4.25
X4.45Y-3.665
X4.45Y-3.765
X4.45Y-3.865
X4.45Y-3.965
X4.45Y-4.065
T4
X4.715Y-3.855
X4.715Y-3.955
X4.815Y-3.855
X4.815Y-3.955
X4.915Y-3.855
X4.915Y-3.955
X5.015Y-3.855
X5.015Y-3.955
X5.115Y-3.855
X5.115Y-3.955
T5
X2.1Y-3.65
X2.1Y-4.25
X5.3Y-3.65
X5.3Y-4.25
T0
M30
