G04 #@! TF.GenerationSoftware,KiCad,Pcbnew,(5.1.2-1)-1*
G04 #@! TF.CreationDate,2019-08-21T10:56:26-07:00*
G04 #@! TF.ProjectId,AS3360_VCA,41533333-3630-45f5-9643-412e6b696361,rev?*
G04 #@! TF.SameCoordinates,Original*
G04 #@! TF.FileFunction,Paste,Top*
G04 #@! TF.FilePolarity,Positive*
%FSLAX46Y46*%
G04 Gerber Fmt 4.6, Leading zero omitted, Abs format (unit mm)*
G04 Created by KiCad (PCBNEW (5.1.2-1)-1) date 2019-08-21 10:56:26*
%MOMM*%
%LPD*%
G04 APERTURE LIST*
%ADD10C,0.100000*%
%ADD11C,0.975000*%
G04 APERTURE END LIST*
D10*
G36*
X91356642Y-108013174D02*
G01*
X91380303Y-108016684D01*
X91403507Y-108022496D01*
X91426029Y-108030554D01*
X91447653Y-108040782D01*
X91468170Y-108053079D01*
X91487383Y-108067329D01*
X91505107Y-108083393D01*
X91521171Y-108101117D01*
X91535421Y-108120330D01*
X91547718Y-108140847D01*
X91557946Y-108162471D01*
X91566004Y-108184993D01*
X91571816Y-108208197D01*
X91575326Y-108231858D01*
X91576500Y-108255750D01*
X91576500Y-109168250D01*
X91575326Y-109192142D01*
X91571816Y-109215803D01*
X91566004Y-109239007D01*
X91557946Y-109261529D01*
X91547718Y-109283153D01*
X91535421Y-109303670D01*
X91521171Y-109322883D01*
X91505107Y-109340607D01*
X91487383Y-109356671D01*
X91468170Y-109370921D01*
X91447653Y-109383218D01*
X91426029Y-109393446D01*
X91403507Y-109401504D01*
X91380303Y-109407316D01*
X91356642Y-109410826D01*
X91332750Y-109412000D01*
X90845250Y-109412000D01*
X90821358Y-109410826D01*
X90797697Y-109407316D01*
X90774493Y-109401504D01*
X90751971Y-109393446D01*
X90730347Y-109383218D01*
X90709830Y-109370921D01*
X90690617Y-109356671D01*
X90672893Y-109340607D01*
X90656829Y-109322883D01*
X90642579Y-109303670D01*
X90630282Y-109283153D01*
X90620054Y-109261529D01*
X90611996Y-109239007D01*
X90606184Y-109215803D01*
X90602674Y-109192142D01*
X90601500Y-109168250D01*
X90601500Y-108255750D01*
X90602674Y-108231858D01*
X90606184Y-108208197D01*
X90611996Y-108184993D01*
X90620054Y-108162471D01*
X90630282Y-108140847D01*
X90642579Y-108120330D01*
X90656829Y-108101117D01*
X90672893Y-108083393D01*
X90690617Y-108067329D01*
X90709830Y-108053079D01*
X90730347Y-108040782D01*
X90751971Y-108030554D01*
X90774493Y-108022496D01*
X90797697Y-108016684D01*
X90821358Y-108013174D01*
X90845250Y-108012000D01*
X91332750Y-108012000D01*
X91356642Y-108013174D01*
X91356642Y-108013174D01*
G37*
D11*
X91089000Y-108712000D03*
D10*
G36*
X93231642Y-108013174D02*
G01*
X93255303Y-108016684D01*
X93278507Y-108022496D01*
X93301029Y-108030554D01*
X93322653Y-108040782D01*
X93343170Y-108053079D01*
X93362383Y-108067329D01*
X93380107Y-108083393D01*
X93396171Y-108101117D01*
X93410421Y-108120330D01*
X93422718Y-108140847D01*
X93432946Y-108162471D01*
X93441004Y-108184993D01*
X93446816Y-108208197D01*
X93450326Y-108231858D01*
X93451500Y-108255750D01*
X93451500Y-109168250D01*
X93450326Y-109192142D01*
X93446816Y-109215803D01*
X93441004Y-109239007D01*
X93432946Y-109261529D01*
X93422718Y-109283153D01*
X93410421Y-109303670D01*
X93396171Y-109322883D01*
X93380107Y-109340607D01*
X93362383Y-109356671D01*
X93343170Y-109370921D01*
X93322653Y-109383218D01*
X93301029Y-109393446D01*
X93278507Y-109401504D01*
X93255303Y-109407316D01*
X93231642Y-109410826D01*
X93207750Y-109412000D01*
X92720250Y-109412000D01*
X92696358Y-109410826D01*
X92672697Y-109407316D01*
X92649493Y-109401504D01*
X92626971Y-109393446D01*
X92605347Y-109383218D01*
X92584830Y-109370921D01*
X92565617Y-109356671D01*
X92547893Y-109340607D01*
X92531829Y-109322883D01*
X92517579Y-109303670D01*
X92505282Y-109283153D01*
X92495054Y-109261529D01*
X92486996Y-109239007D01*
X92481184Y-109215803D01*
X92477674Y-109192142D01*
X92476500Y-109168250D01*
X92476500Y-108255750D01*
X92477674Y-108231858D01*
X92481184Y-108208197D01*
X92486996Y-108184993D01*
X92495054Y-108162471D01*
X92505282Y-108140847D01*
X92517579Y-108120330D01*
X92531829Y-108101117D01*
X92547893Y-108083393D01*
X92565617Y-108067329D01*
X92584830Y-108053079D01*
X92605347Y-108040782D01*
X92626971Y-108030554D01*
X92649493Y-108022496D01*
X92672697Y-108016684D01*
X92696358Y-108013174D01*
X92720250Y-108012000D01*
X93207750Y-108012000D01*
X93231642Y-108013174D01*
X93231642Y-108013174D01*
G37*
D11*
X92964000Y-108712000D03*
D10*
G36*
X60163142Y-90995174D02*
G01*
X60186803Y-90998684D01*
X60210007Y-91004496D01*
X60232529Y-91012554D01*
X60254153Y-91022782D01*
X60274670Y-91035079D01*
X60293883Y-91049329D01*
X60311607Y-91065393D01*
X60327671Y-91083117D01*
X60341921Y-91102330D01*
X60354218Y-91122847D01*
X60364446Y-91144471D01*
X60372504Y-91166993D01*
X60378316Y-91190197D01*
X60381826Y-91213858D01*
X60383000Y-91237750D01*
X60383000Y-92150250D01*
X60381826Y-92174142D01*
X60378316Y-92197803D01*
X60372504Y-92221007D01*
X60364446Y-92243529D01*
X60354218Y-92265153D01*
X60341921Y-92285670D01*
X60327671Y-92304883D01*
X60311607Y-92322607D01*
X60293883Y-92338671D01*
X60274670Y-92352921D01*
X60254153Y-92365218D01*
X60232529Y-92375446D01*
X60210007Y-92383504D01*
X60186803Y-92389316D01*
X60163142Y-92392826D01*
X60139250Y-92394000D01*
X59651750Y-92394000D01*
X59627858Y-92392826D01*
X59604197Y-92389316D01*
X59580993Y-92383504D01*
X59558471Y-92375446D01*
X59536847Y-92365218D01*
X59516330Y-92352921D01*
X59497117Y-92338671D01*
X59479393Y-92322607D01*
X59463329Y-92304883D01*
X59449079Y-92285670D01*
X59436782Y-92265153D01*
X59426554Y-92243529D01*
X59418496Y-92221007D01*
X59412684Y-92197803D01*
X59409174Y-92174142D01*
X59408000Y-92150250D01*
X59408000Y-91237750D01*
X59409174Y-91213858D01*
X59412684Y-91190197D01*
X59418496Y-91166993D01*
X59426554Y-91144471D01*
X59436782Y-91122847D01*
X59449079Y-91102330D01*
X59463329Y-91083117D01*
X59479393Y-91065393D01*
X59497117Y-91049329D01*
X59516330Y-91035079D01*
X59536847Y-91022782D01*
X59558471Y-91012554D01*
X59580993Y-91004496D01*
X59604197Y-90998684D01*
X59627858Y-90995174D01*
X59651750Y-90994000D01*
X60139250Y-90994000D01*
X60163142Y-90995174D01*
X60163142Y-90995174D01*
G37*
D11*
X59895500Y-91694000D03*
D10*
G36*
X62038142Y-90995174D02*
G01*
X62061803Y-90998684D01*
X62085007Y-91004496D01*
X62107529Y-91012554D01*
X62129153Y-91022782D01*
X62149670Y-91035079D01*
X62168883Y-91049329D01*
X62186607Y-91065393D01*
X62202671Y-91083117D01*
X62216921Y-91102330D01*
X62229218Y-91122847D01*
X62239446Y-91144471D01*
X62247504Y-91166993D01*
X62253316Y-91190197D01*
X62256826Y-91213858D01*
X62258000Y-91237750D01*
X62258000Y-92150250D01*
X62256826Y-92174142D01*
X62253316Y-92197803D01*
X62247504Y-92221007D01*
X62239446Y-92243529D01*
X62229218Y-92265153D01*
X62216921Y-92285670D01*
X62202671Y-92304883D01*
X62186607Y-92322607D01*
X62168883Y-92338671D01*
X62149670Y-92352921D01*
X62129153Y-92365218D01*
X62107529Y-92375446D01*
X62085007Y-92383504D01*
X62061803Y-92389316D01*
X62038142Y-92392826D01*
X62014250Y-92394000D01*
X61526750Y-92394000D01*
X61502858Y-92392826D01*
X61479197Y-92389316D01*
X61455993Y-92383504D01*
X61433471Y-92375446D01*
X61411847Y-92365218D01*
X61391330Y-92352921D01*
X61372117Y-92338671D01*
X61354393Y-92322607D01*
X61338329Y-92304883D01*
X61324079Y-92285670D01*
X61311782Y-92265153D01*
X61301554Y-92243529D01*
X61293496Y-92221007D01*
X61287684Y-92197803D01*
X61284174Y-92174142D01*
X61283000Y-92150250D01*
X61283000Y-91237750D01*
X61284174Y-91213858D01*
X61287684Y-91190197D01*
X61293496Y-91166993D01*
X61301554Y-91144471D01*
X61311782Y-91122847D01*
X61324079Y-91102330D01*
X61338329Y-91083117D01*
X61354393Y-91065393D01*
X61372117Y-91049329D01*
X61391330Y-91035079D01*
X61411847Y-91022782D01*
X61433471Y-91012554D01*
X61455993Y-91004496D01*
X61479197Y-90998684D01*
X61502858Y-90995174D01*
X61526750Y-90994000D01*
X62014250Y-90994000D01*
X62038142Y-90995174D01*
X62038142Y-90995174D01*
G37*
D11*
X61770500Y-91694000D03*
D10*
G36*
X62038142Y-94170174D02*
G01*
X62061803Y-94173684D01*
X62085007Y-94179496D01*
X62107529Y-94187554D01*
X62129153Y-94197782D01*
X62149670Y-94210079D01*
X62168883Y-94224329D01*
X62186607Y-94240393D01*
X62202671Y-94258117D01*
X62216921Y-94277330D01*
X62229218Y-94297847D01*
X62239446Y-94319471D01*
X62247504Y-94341993D01*
X62253316Y-94365197D01*
X62256826Y-94388858D01*
X62258000Y-94412750D01*
X62258000Y-95325250D01*
X62256826Y-95349142D01*
X62253316Y-95372803D01*
X62247504Y-95396007D01*
X62239446Y-95418529D01*
X62229218Y-95440153D01*
X62216921Y-95460670D01*
X62202671Y-95479883D01*
X62186607Y-95497607D01*
X62168883Y-95513671D01*
X62149670Y-95527921D01*
X62129153Y-95540218D01*
X62107529Y-95550446D01*
X62085007Y-95558504D01*
X62061803Y-95564316D01*
X62038142Y-95567826D01*
X62014250Y-95569000D01*
X61526750Y-95569000D01*
X61502858Y-95567826D01*
X61479197Y-95564316D01*
X61455993Y-95558504D01*
X61433471Y-95550446D01*
X61411847Y-95540218D01*
X61391330Y-95527921D01*
X61372117Y-95513671D01*
X61354393Y-95497607D01*
X61338329Y-95479883D01*
X61324079Y-95460670D01*
X61311782Y-95440153D01*
X61301554Y-95418529D01*
X61293496Y-95396007D01*
X61287684Y-95372803D01*
X61284174Y-95349142D01*
X61283000Y-95325250D01*
X61283000Y-94412750D01*
X61284174Y-94388858D01*
X61287684Y-94365197D01*
X61293496Y-94341993D01*
X61301554Y-94319471D01*
X61311782Y-94297847D01*
X61324079Y-94277330D01*
X61338329Y-94258117D01*
X61354393Y-94240393D01*
X61372117Y-94224329D01*
X61391330Y-94210079D01*
X61411847Y-94197782D01*
X61433471Y-94187554D01*
X61455993Y-94179496D01*
X61479197Y-94173684D01*
X61502858Y-94170174D01*
X61526750Y-94169000D01*
X62014250Y-94169000D01*
X62038142Y-94170174D01*
X62038142Y-94170174D01*
G37*
D11*
X61770500Y-94869000D03*
D10*
G36*
X60163142Y-94170174D02*
G01*
X60186803Y-94173684D01*
X60210007Y-94179496D01*
X60232529Y-94187554D01*
X60254153Y-94197782D01*
X60274670Y-94210079D01*
X60293883Y-94224329D01*
X60311607Y-94240393D01*
X60327671Y-94258117D01*
X60341921Y-94277330D01*
X60354218Y-94297847D01*
X60364446Y-94319471D01*
X60372504Y-94341993D01*
X60378316Y-94365197D01*
X60381826Y-94388858D01*
X60383000Y-94412750D01*
X60383000Y-95325250D01*
X60381826Y-95349142D01*
X60378316Y-95372803D01*
X60372504Y-95396007D01*
X60364446Y-95418529D01*
X60354218Y-95440153D01*
X60341921Y-95460670D01*
X60327671Y-95479883D01*
X60311607Y-95497607D01*
X60293883Y-95513671D01*
X60274670Y-95527921D01*
X60254153Y-95540218D01*
X60232529Y-95550446D01*
X60210007Y-95558504D01*
X60186803Y-95564316D01*
X60163142Y-95567826D01*
X60139250Y-95569000D01*
X59651750Y-95569000D01*
X59627858Y-95567826D01*
X59604197Y-95564316D01*
X59580993Y-95558504D01*
X59558471Y-95550446D01*
X59536847Y-95540218D01*
X59516330Y-95527921D01*
X59497117Y-95513671D01*
X59479393Y-95497607D01*
X59463329Y-95479883D01*
X59449079Y-95460670D01*
X59436782Y-95440153D01*
X59426554Y-95418529D01*
X59418496Y-95396007D01*
X59412684Y-95372803D01*
X59409174Y-95349142D01*
X59408000Y-95325250D01*
X59408000Y-94412750D01*
X59409174Y-94388858D01*
X59412684Y-94365197D01*
X59418496Y-94341993D01*
X59426554Y-94319471D01*
X59436782Y-94297847D01*
X59449079Y-94277330D01*
X59463329Y-94258117D01*
X59479393Y-94240393D01*
X59497117Y-94224329D01*
X59516330Y-94210079D01*
X59536847Y-94197782D01*
X59558471Y-94187554D01*
X59580993Y-94179496D01*
X59604197Y-94173684D01*
X59627858Y-94170174D01*
X59651750Y-94169000D01*
X60139250Y-94169000D01*
X60163142Y-94170174D01*
X60163142Y-94170174D01*
G37*
D11*
X59895500Y-94869000D03*
D10*
G36*
X62202142Y-104083174D02*
G01*
X62225803Y-104086684D01*
X62249007Y-104092496D01*
X62271529Y-104100554D01*
X62293153Y-104110782D01*
X62313670Y-104123079D01*
X62332883Y-104137329D01*
X62350607Y-104153393D01*
X62366671Y-104171117D01*
X62380921Y-104190330D01*
X62393218Y-104210847D01*
X62403446Y-104232471D01*
X62411504Y-104254993D01*
X62417316Y-104278197D01*
X62420826Y-104301858D01*
X62422000Y-104325750D01*
X62422000Y-104813250D01*
X62420826Y-104837142D01*
X62417316Y-104860803D01*
X62411504Y-104884007D01*
X62403446Y-104906529D01*
X62393218Y-104928153D01*
X62380921Y-104948670D01*
X62366671Y-104967883D01*
X62350607Y-104985607D01*
X62332883Y-105001671D01*
X62313670Y-105015921D01*
X62293153Y-105028218D01*
X62271529Y-105038446D01*
X62249007Y-105046504D01*
X62225803Y-105052316D01*
X62202142Y-105055826D01*
X62178250Y-105057000D01*
X61265750Y-105057000D01*
X61241858Y-105055826D01*
X61218197Y-105052316D01*
X61194993Y-105046504D01*
X61172471Y-105038446D01*
X61150847Y-105028218D01*
X61130330Y-105015921D01*
X61111117Y-105001671D01*
X61093393Y-104985607D01*
X61077329Y-104967883D01*
X61063079Y-104948670D01*
X61050782Y-104928153D01*
X61040554Y-104906529D01*
X61032496Y-104884007D01*
X61026684Y-104860803D01*
X61023174Y-104837142D01*
X61022000Y-104813250D01*
X61022000Y-104325750D01*
X61023174Y-104301858D01*
X61026684Y-104278197D01*
X61032496Y-104254993D01*
X61040554Y-104232471D01*
X61050782Y-104210847D01*
X61063079Y-104190330D01*
X61077329Y-104171117D01*
X61093393Y-104153393D01*
X61111117Y-104137329D01*
X61130330Y-104123079D01*
X61150847Y-104110782D01*
X61172471Y-104100554D01*
X61194993Y-104092496D01*
X61218197Y-104086684D01*
X61241858Y-104083174D01*
X61265750Y-104082000D01*
X62178250Y-104082000D01*
X62202142Y-104083174D01*
X62202142Y-104083174D01*
G37*
D11*
X61722000Y-104569500D03*
D10*
G36*
X62202142Y-102208174D02*
G01*
X62225803Y-102211684D01*
X62249007Y-102217496D01*
X62271529Y-102225554D01*
X62293153Y-102235782D01*
X62313670Y-102248079D01*
X62332883Y-102262329D01*
X62350607Y-102278393D01*
X62366671Y-102296117D01*
X62380921Y-102315330D01*
X62393218Y-102335847D01*
X62403446Y-102357471D01*
X62411504Y-102379993D01*
X62417316Y-102403197D01*
X62420826Y-102426858D01*
X62422000Y-102450750D01*
X62422000Y-102938250D01*
X62420826Y-102962142D01*
X62417316Y-102985803D01*
X62411504Y-103009007D01*
X62403446Y-103031529D01*
X62393218Y-103053153D01*
X62380921Y-103073670D01*
X62366671Y-103092883D01*
X62350607Y-103110607D01*
X62332883Y-103126671D01*
X62313670Y-103140921D01*
X62293153Y-103153218D01*
X62271529Y-103163446D01*
X62249007Y-103171504D01*
X62225803Y-103177316D01*
X62202142Y-103180826D01*
X62178250Y-103182000D01*
X61265750Y-103182000D01*
X61241858Y-103180826D01*
X61218197Y-103177316D01*
X61194993Y-103171504D01*
X61172471Y-103163446D01*
X61150847Y-103153218D01*
X61130330Y-103140921D01*
X61111117Y-103126671D01*
X61093393Y-103110607D01*
X61077329Y-103092883D01*
X61063079Y-103073670D01*
X61050782Y-103053153D01*
X61040554Y-103031529D01*
X61032496Y-103009007D01*
X61026684Y-102985803D01*
X61023174Y-102962142D01*
X61022000Y-102938250D01*
X61022000Y-102450750D01*
X61023174Y-102426858D01*
X61026684Y-102403197D01*
X61032496Y-102379993D01*
X61040554Y-102357471D01*
X61050782Y-102335847D01*
X61063079Y-102315330D01*
X61077329Y-102296117D01*
X61093393Y-102278393D01*
X61111117Y-102262329D01*
X61130330Y-102248079D01*
X61150847Y-102235782D01*
X61172471Y-102225554D01*
X61194993Y-102217496D01*
X61218197Y-102211684D01*
X61241858Y-102208174D01*
X61265750Y-102207000D01*
X62178250Y-102207000D01*
X62202142Y-102208174D01*
X62202142Y-102208174D01*
G37*
D11*
X61722000Y-102694500D03*
D10*
G36*
X110552142Y-92392174D02*
G01*
X110575803Y-92395684D01*
X110599007Y-92401496D01*
X110621529Y-92409554D01*
X110643153Y-92419782D01*
X110663670Y-92432079D01*
X110682883Y-92446329D01*
X110700607Y-92462393D01*
X110716671Y-92480117D01*
X110730921Y-92499330D01*
X110743218Y-92519847D01*
X110753446Y-92541471D01*
X110761504Y-92563993D01*
X110767316Y-92587197D01*
X110770826Y-92610858D01*
X110772000Y-92634750D01*
X110772000Y-93547250D01*
X110770826Y-93571142D01*
X110767316Y-93594803D01*
X110761504Y-93618007D01*
X110753446Y-93640529D01*
X110743218Y-93662153D01*
X110730921Y-93682670D01*
X110716671Y-93701883D01*
X110700607Y-93719607D01*
X110682883Y-93735671D01*
X110663670Y-93749921D01*
X110643153Y-93762218D01*
X110621529Y-93772446D01*
X110599007Y-93780504D01*
X110575803Y-93786316D01*
X110552142Y-93789826D01*
X110528250Y-93791000D01*
X110040750Y-93791000D01*
X110016858Y-93789826D01*
X109993197Y-93786316D01*
X109969993Y-93780504D01*
X109947471Y-93772446D01*
X109925847Y-93762218D01*
X109905330Y-93749921D01*
X109886117Y-93735671D01*
X109868393Y-93719607D01*
X109852329Y-93701883D01*
X109838079Y-93682670D01*
X109825782Y-93662153D01*
X109815554Y-93640529D01*
X109807496Y-93618007D01*
X109801684Y-93594803D01*
X109798174Y-93571142D01*
X109797000Y-93547250D01*
X109797000Y-92634750D01*
X109798174Y-92610858D01*
X109801684Y-92587197D01*
X109807496Y-92563993D01*
X109815554Y-92541471D01*
X109825782Y-92519847D01*
X109838079Y-92499330D01*
X109852329Y-92480117D01*
X109868393Y-92462393D01*
X109886117Y-92446329D01*
X109905330Y-92432079D01*
X109925847Y-92419782D01*
X109947471Y-92409554D01*
X109969993Y-92401496D01*
X109993197Y-92395684D01*
X110016858Y-92392174D01*
X110040750Y-92391000D01*
X110528250Y-92391000D01*
X110552142Y-92392174D01*
X110552142Y-92392174D01*
G37*
D11*
X110284500Y-93091000D03*
D10*
G36*
X108677142Y-92392174D02*
G01*
X108700803Y-92395684D01*
X108724007Y-92401496D01*
X108746529Y-92409554D01*
X108768153Y-92419782D01*
X108788670Y-92432079D01*
X108807883Y-92446329D01*
X108825607Y-92462393D01*
X108841671Y-92480117D01*
X108855921Y-92499330D01*
X108868218Y-92519847D01*
X108878446Y-92541471D01*
X108886504Y-92563993D01*
X108892316Y-92587197D01*
X108895826Y-92610858D01*
X108897000Y-92634750D01*
X108897000Y-93547250D01*
X108895826Y-93571142D01*
X108892316Y-93594803D01*
X108886504Y-93618007D01*
X108878446Y-93640529D01*
X108868218Y-93662153D01*
X108855921Y-93682670D01*
X108841671Y-93701883D01*
X108825607Y-93719607D01*
X108807883Y-93735671D01*
X108788670Y-93749921D01*
X108768153Y-93762218D01*
X108746529Y-93772446D01*
X108724007Y-93780504D01*
X108700803Y-93786316D01*
X108677142Y-93789826D01*
X108653250Y-93791000D01*
X108165750Y-93791000D01*
X108141858Y-93789826D01*
X108118197Y-93786316D01*
X108094993Y-93780504D01*
X108072471Y-93772446D01*
X108050847Y-93762218D01*
X108030330Y-93749921D01*
X108011117Y-93735671D01*
X107993393Y-93719607D01*
X107977329Y-93701883D01*
X107963079Y-93682670D01*
X107950782Y-93662153D01*
X107940554Y-93640529D01*
X107932496Y-93618007D01*
X107926684Y-93594803D01*
X107923174Y-93571142D01*
X107922000Y-93547250D01*
X107922000Y-92634750D01*
X107923174Y-92610858D01*
X107926684Y-92587197D01*
X107932496Y-92563993D01*
X107940554Y-92541471D01*
X107950782Y-92519847D01*
X107963079Y-92499330D01*
X107977329Y-92480117D01*
X107993393Y-92462393D01*
X108011117Y-92446329D01*
X108030330Y-92432079D01*
X108050847Y-92419782D01*
X108072471Y-92409554D01*
X108094993Y-92401496D01*
X108118197Y-92395684D01*
X108141858Y-92392174D01*
X108165750Y-92391000D01*
X108653250Y-92391000D01*
X108677142Y-92392174D01*
X108677142Y-92392174D01*
G37*
D11*
X108409500Y-93091000D03*
D10*
G36*
X108677142Y-95694174D02*
G01*
X108700803Y-95697684D01*
X108724007Y-95703496D01*
X108746529Y-95711554D01*
X108768153Y-95721782D01*
X108788670Y-95734079D01*
X108807883Y-95748329D01*
X108825607Y-95764393D01*
X108841671Y-95782117D01*
X108855921Y-95801330D01*
X108868218Y-95821847D01*
X108878446Y-95843471D01*
X108886504Y-95865993D01*
X108892316Y-95889197D01*
X108895826Y-95912858D01*
X108897000Y-95936750D01*
X108897000Y-96849250D01*
X108895826Y-96873142D01*
X108892316Y-96896803D01*
X108886504Y-96920007D01*
X108878446Y-96942529D01*
X108868218Y-96964153D01*
X108855921Y-96984670D01*
X108841671Y-97003883D01*
X108825607Y-97021607D01*
X108807883Y-97037671D01*
X108788670Y-97051921D01*
X108768153Y-97064218D01*
X108746529Y-97074446D01*
X108724007Y-97082504D01*
X108700803Y-97088316D01*
X108677142Y-97091826D01*
X108653250Y-97093000D01*
X108165750Y-97093000D01*
X108141858Y-97091826D01*
X108118197Y-97088316D01*
X108094993Y-97082504D01*
X108072471Y-97074446D01*
X108050847Y-97064218D01*
X108030330Y-97051921D01*
X108011117Y-97037671D01*
X107993393Y-97021607D01*
X107977329Y-97003883D01*
X107963079Y-96984670D01*
X107950782Y-96964153D01*
X107940554Y-96942529D01*
X107932496Y-96920007D01*
X107926684Y-96896803D01*
X107923174Y-96873142D01*
X107922000Y-96849250D01*
X107922000Y-95936750D01*
X107923174Y-95912858D01*
X107926684Y-95889197D01*
X107932496Y-95865993D01*
X107940554Y-95843471D01*
X107950782Y-95821847D01*
X107963079Y-95801330D01*
X107977329Y-95782117D01*
X107993393Y-95764393D01*
X108011117Y-95748329D01*
X108030330Y-95734079D01*
X108050847Y-95721782D01*
X108072471Y-95711554D01*
X108094993Y-95703496D01*
X108118197Y-95697684D01*
X108141858Y-95694174D01*
X108165750Y-95693000D01*
X108653250Y-95693000D01*
X108677142Y-95694174D01*
X108677142Y-95694174D01*
G37*
D11*
X108409500Y-96393000D03*
D10*
G36*
X110552142Y-95694174D02*
G01*
X110575803Y-95697684D01*
X110599007Y-95703496D01*
X110621529Y-95711554D01*
X110643153Y-95721782D01*
X110663670Y-95734079D01*
X110682883Y-95748329D01*
X110700607Y-95764393D01*
X110716671Y-95782117D01*
X110730921Y-95801330D01*
X110743218Y-95821847D01*
X110753446Y-95843471D01*
X110761504Y-95865993D01*
X110767316Y-95889197D01*
X110770826Y-95912858D01*
X110772000Y-95936750D01*
X110772000Y-96849250D01*
X110770826Y-96873142D01*
X110767316Y-96896803D01*
X110761504Y-96920007D01*
X110753446Y-96942529D01*
X110743218Y-96964153D01*
X110730921Y-96984670D01*
X110716671Y-97003883D01*
X110700607Y-97021607D01*
X110682883Y-97037671D01*
X110663670Y-97051921D01*
X110643153Y-97064218D01*
X110621529Y-97074446D01*
X110599007Y-97082504D01*
X110575803Y-97088316D01*
X110552142Y-97091826D01*
X110528250Y-97093000D01*
X110040750Y-97093000D01*
X110016858Y-97091826D01*
X109993197Y-97088316D01*
X109969993Y-97082504D01*
X109947471Y-97074446D01*
X109925847Y-97064218D01*
X109905330Y-97051921D01*
X109886117Y-97037671D01*
X109868393Y-97021607D01*
X109852329Y-97003883D01*
X109838079Y-96984670D01*
X109825782Y-96964153D01*
X109815554Y-96942529D01*
X109807496Y-96920007D01*
X109801684Y-96896803D01*
X109798174Y-96873142D01*
X109797000Y-96849250D01*
X109797000Y-95936750D01*
X109798174Y-95912858D01*
X109801684Y-95889197D01*
X109807496Y-95865993D01*
X109815554Y-95843471D01*
X109825782Y-95821847D01*
X109838079Y-95801330D01*
X109852329Y-95782117D01*
X109868393Y-95764393D01*
X109886117Y-95748329D01*
X109905330Y-95734079D01*
X109925847Y-95721782D01*
X109947471Y-95711554D01*
X109969993Y-95703496D01*
X109993197Y-95697684D01*
X110016858Y-95694174D01*
X110040750Y-95693000D01*
X110528250Y-95693000D01*
X110552142Y-95694174D01*
X110552142Y-95694174D01*
G37*
D11*
X110284500Y-96393000D03*
D10*
G36*
X110208142Y-104210174D02*
G01*
X110231803Y-104213684D01*
X110255007Y-104219496D01*
X110277529Y-104227554D01*
X110299153Y-104237782D01*
X110319670Y-104250079D01*
X110338883Y-104264329D01*
X110356607Y-104280393D01*
X110372671Y-104298117D01*
X110386921Y-104317330D01*
X110399218Y-104337847D01*
X110409446Y-104359471D01*
X110417504Y-104381993D01*
X110423316Y-104405197D01*
X110426826Y-104428858D01*
X110428000Y-104452750D01*
X110428000Y-104940250D01*
X110426826Y-104964142D01*
X110423316Y-104987803D01*
X110417504Y-105011007D01*
X110409446Y-105033529D01*
X110399218Y-105055153D01*
X110386921Y-105075670D01*
X110372671Y-105094883D01*
X110356607Y-105112607D01*
X110338883Y-105128671D01*
X110319670Y-105142921D01*
X110299153Y-105155218D01*
X110277529Y-105165446D01*
X110255007Y-105173504D01*
X110231803Y-105179316D01*
X110208142Y-105182826D01*
X110184250Y-105184000D01*
X109271750Y-105184000D01*
X109247858Y-105182826D01*
X109224197Y-105179316D01*
X109200993Y-105173504D01*
X109178471Y-105165446D01*
X109156847Y-105155218D01*
X109136330Y-105142921D01*
X109117117Y-105128671D01*
X109099393Y-105112607D01*
X109083329Y-105094883D01*
X109069079Y-105075670D01*
X109056782Y-105055153D01*
X109046554Y-105033529D01*
X109038496Y-105011007D01*
X109032684Y-104987803D01*
X109029174Y-104964142D01*
X109028000Y-104940250D01*
X109028000Y-104452750D01*
X109029174Y-104428858D01*
X109032684Y-104405197D01*
X109038496Y-104381993D01*
X109046554Y-104359471D01*
X109056782Y-104337847D01*
X109069079Y-104317330D01*
X109083329Y-104298117D01*
X109099393Y-104280393D01*
X109117117Y-104264329D01*
X109136330Y-104250079D01*
X109156847Y-104237782D01*
X109178471Y-104227554D01*
X109200993Y-104219496D01*
X109224197Y-104213684D01*
X109247858Y-104210174D01*
X109271750Y-104209000D01*
X110184250Y-104209000D01*
X110208142Y-104210174D01*
X110208142Y-104210174D01*
G37*
D11*
X109728000Y-104696500D03*
D10*
G36*
X110208142Y-102335174D02*
G01*
X110231803Y-102338684D01*
X110255007Y-102344496D01*
X110277529Y-102352554D01*
X110299153Y-102362782D01*
X110319670Y-102375079D01*
X110338883Y-102389329D01*
X110356607Y-102405393D01*
X110372671Y-102423117D01*
X110386921Y-102442330D01*
X110399218Y-102462847D01*
X110409446Y-102484471D01*
X110417504Y-102506993D01*
X110423316Y-102530197D01*
X110426826Y-102553858D01*
X110428000Y-102577750D01*
X110428000Y-103065250D01*
X110426826Y-103089142D01*
X110423316Y-103112803D01*
X110417504Y-103136007D01*
X110409446Y-103158529D01*
X110399218Y-103180153D01*
X110386921Y-103200670D01*
X110372671Y-103219883D01*
X110356607Y-103237607D01*
X110338883Y-103253671D01*
X110319670Y-103267921D01*
X110299153Y-103280218D01*
X110277529Y-103290446D01*
X110255007Y-103298504D01*
X110231803Y-103304316D01*
X110208142Y-103307826D01*
X110184250Y-103309000D01*
X109271750Y-103309000D01*
X109247858Y-103307826D01*
X109224197Y-103304316D01*
X109200993Y-103298504D01*
X109178471Y-103290446D01*
X109156847Y-103280218D01*
X109136330Y-103267921D01*
X109117117Y-103253671D01*
X109099393Y-103237607D01*
X109083329Y-103219883D01*
X109069079Y-103200670D01*
X109056782Y-103180153D01*
X109046554Y-103158529D01*
X109038496Y-103136007D01*
X109032684Y-103112803D01*
X109029174Y-103089142D01*
X109028000Y-103065250D01*
X109028000Y-102577750D01*
X109029174Y-102553858D01*
X109032684Y-102530197D01*
X109038496Y-102506993D01*
X109046554Y-102484471D01*
X109056782Y-102462847D01*
X109069079Y-102442330D01*
X109083329Y-102423117D01*
X109099393Y-102405393D01*
X109117117Y-102389329D01*
X109136330Y-102375079D01*
X109156847Y-102362782D01*
X109178471Y-102352554D01*
X109200993Y-102344496D01*
X109224197Y-102338684D01*
X109247858Y-102335174D01*
X109271750Y-102334000D01*
X110184250Y-102334000D01*
X110208142Y-102335174D01*
X110208142Y-102335174D01*
G37*
D11*
X109728000Y-102821500D03*
D10*
G36*
X64234142Y-91921174D02*
G01*
X64257803Y-91924684D01*
X64281007Y-91930496D01*
X64303529Y-91938554D01*
X64325153Y-91948782D01*
X64345670Y-91961079D01*
X64364883Y-91975329D01*
X64382607Y-91991393D01*
X64398671Y-92009117D01*
X64412921Y-92028330D01*
X64425218Y-92048847D01*
X64435446Y-92070471D01*
X64443504Y-92092993D01*
X64449316Y-92116197D01*
X64452826Y-92139858D01*
X64454000Y-92163750D01*
X64454000Y-92651250D01*
X64452826Y-92675142D01*
X64449316Y-92698803D01*
X64443504Y-92722007D01*
X64435446Y-92744529D01*
X64425218Y-92766153D01*
X64412921Y-92786670D01*
X64398671Y-92805883D01*
X64382607Y-92823607D01*
X64364883Y-92839671D01*
X64345670Y-92853921D01*
X64325153Y-92866218D01*
X64303529Y-92876446D01*
X64281007Y-92884504D01*
X64257803Y-92890316D01*
X64234142Y-92893826D01*
X64210250Y-92895000D01*
X63297750Y-92895000D01*
X63273858Y-92893826D01*
X63250197Y-92890316D01*
X63226993Y-92884504D01*
X63204471Y-92876446D01*
X63182847Y-92866218D01*
X63162330Y-92853921D01*
X63143117Y-92839671D01*
X63125393Y-92823607D01*
X63109329Y-92805883D01*
X63095079Y-92786670D01*
X63082782Y-92766153D01*
X63072554Y-92744529D01*
X63064496Y-92722007D01*
X63058684Y-92698803D01*
X63055174Y-92675142D01*
X63054000Y-92651250D01*
X63054000Y-92163750D01*
X63055174Y-92139858D01*
X63058684Y-92116197D01*
X63064496Y-92092993D01*
X63072554Y-92070471D01*
X63082782Y-92048847D01*
X63095079Y-92028330D01*
X63109329Y-92009117D01*
X63125393Y-91991393D01*
X63143117Y-91975329D01*
X63162330Y-91961079D01*
X63182847Y-91948782D01*
X63204471Y-91938554D01*
X63226993Y-91930496D01*
X63250197Y-91924684D01*
X63273858Y-91921174D01*
X63297750Y-91920000D01*
X64210250Y-91920000D01*
X64234142Y-91921174D01*
X64234142Y-91921174D01*
G37*
D11*
X63754000Y-92407500D03*
D10*
G36*
X64234142Y-93796174D02*
G01*
X64257803Y-93799684D01*
X64281007Y-93805496D01*
X64303529Y-93813554D01*
X64325153Y-93823782D01*
X64345670Y-93836079D01*
X64364883Y-93850329D01*
X64382607Y-93866393D01*
X64398671Y-93884117D01*
X64412921Y-93903330D01*
X64425218Y-93923847D01*
X64435446Y-93945471D01*
X64443504Y-93967993D01*
X64449316Y-93991197D01*
X64452826Y-94014858D01*
X64454000Y-94038750D01*
X64454000Y-94526250D01*
X64452826Y-94550142D01*
X64449316Y-94573803D01*
X64443504Y-94597007D01*
X64435446Y-94619529D01*
X64425218Y-94641153D01*
X64412921Y-94661670D01*
X64398671Y-94680883D01*
X64382607Y-94698607D01*
X64364883Y-94714671D01*
X64345670Y-94728921D01*
X64325153Y-94741218D01*
X64303529Y-94751446D01*
X64281007Y-94759504D01*
X64257803Y-94765316D01*
X64234142Y-94768826D01*
X64210250Y-94770000D01*
X63297750Y-94770000D01*
X63273858Y-94768826D01*
X63250197Y-94765316D01*
X63226993Y-94759504D01*
X63204471Y-94751446D01*
X63182847Y-94741218D01*
X63162330Y-94728921D01*
X63143117Y-94714671D01*
X63125393Y-94698607D01*
X63109329Y-94680883D01*
X63095079Y-94661670D01*
X63082782Y-94641153D01*
X63072554Y-94619529D01*
X63064496Y-94597007D01*
X63058684Y-94573803D01*
X63055174Y-94550142D01*
X63054000Y-94526250D01*
X63054000Y-94038750D01*
X63055174Y-94014858D01*
X63058684Y-93991197D01*
X63064496Y-93967993D01*
X63072554Y-93945471D01*
X63082782Y-93923847D01*
X63095079Y-93903330D01*
X63109329Y-93884117D01*
X63125393Y-93866393D01*
X63143117Y-93850329D01*
X63162330Y-93836079D01*
X63182847Y-93823782D01*
X63204471Y-93813554D01*
X63226993Y-93805496D01*
X63250197Y-93799684D01*
X63273858Y-93796174D01*
X63297750Y-93795000D01*
X64210250Y-93795000D01*
X64234142Y-93796174D01*
X64234142Y-93796174D01*
G37*
D11*
X63754000Y-94282500D03*
D10*
G36*
X94834142Y-92773174D02*
G01*
X94857803Y-92776684D01*
X94881007Y-92782496D01*
X94903529Y-92790554D01*
X94925153Y-92800782D01*
X94945670Y-92813079D01*
X94964883Y-92827329D01*
X94982607Y-92843393D01*
X94998671Y-92861117D01*
X95012921Y-92880330D01*
X95025218Y-92900847D01*
X95035446Y-92922471D01*
X95043504Y-92944993D01*
X95049316Y-92968197D01*
X95052826Y-92991858D01*
X95054000Y-93015750D01*
X95054000Y-93928250D01*
X95052826Y-93952142D01*
X95049316Y-93975803D01*
X95043504Y-93999007D01*
X95035446Y-94021529D01*
X95025218Y-94043153D01*
X95012921Y-94063670D01*
X94998671Y-94082883D01*
X94982607Y-94100607D01*
X94964883Y-94116671D01*
X94945670Y-94130921D01*
X94925153Y-94143218D01*
X94903529Y-94153446D01*
X94881007Y-94161504D01*
X94857803Y-94167316D01*
X94834142Y-94170826D01*
X94810250Y-94172000D01*
X94322750Y-94172000D01*
X94298858Y-94170826D01*
X94275197Y-94167316D01*
X94251993Y-94161504D01*
X94229471Y-94153446D01*
X94207847Y-94143218D01*
X94187330Y-94130921D01*
X94168117Y-94116671D01*
X94150393Y-94100607D01*
X94134329Y-94082883D01*
X94120079Y-94063670D01*
X94107782Y-94043153D01*
X94097554Y-94021529D01*
X94089496Y-93999007D01*
X94083684Y-93975803D01*
X94080174Y-93952142D01*
X94079000Y-93928250D01*
X94079000Y-93015750D01*
X94080174Y-92991858D01*
X94083684Y-92968197D01*
X94089496Y-92944993D01*
X94097554Y-92922471D01*
X94107782Y-92900847D01*
X94120079Y-92880330D01*
X94134329Y-92861117D01*
X94150393Y-92843393D01*
X94168117Y-92827329D01*
X94187330Y-92813079D01*
X94207847Y-92800782D01*
X94229471Y-92790554D01*
X94251993Y-92782496D01*
X94275197Y-92776684D01*
X94298858Y-92773174D01*
X94322750Y-92772000D01*
X94810250Y-92772000D01*
X94834142Y-92773174D01*
X94834142Y-92773174D01*
G37*
D11*
X94566500Y-93472000D03*
D10*
G36*
X96709142Y-92773174D02*
G01*
X96732803Y-92776684D01*
X96756007Y-92782496D01*
X96778529Y-92790554D01*
X96800153Y-92800782D01*
X96820670Y-92813079D01*
X96839883Y-92827329D01*
X96857607Y-92843393D01*
X96873671Y-92861117D01*
X96887921Y-92880330D01*
X96900218Y-92900847D01*
X96910446Y-92922471D01*
X96918504Y-92944993D01*
X96924316Y-92968197D01*
X96927826Y-92991858D01*
X96929000Y-93015750D01*
X96929000Y-93928250D01*
X96927826Y-93952142D01*
X96924316Y-93975803D01*
X96918504Y-93999007D01*
X96910446Y-94021529D01*
X96900218Y-94043153D01*
X96887921Y-94063670D01*
X96873671Y-94082883D01*
X96857607Y-94100607D01*
X96839883Y-94116671D01*
X96820670Y-94130921D01*
X96800153Y-94143218D01*
X96778529Y-94153446D01*
X96756007Y-94161504D01*
X96732803Y-94167316D01*
X96709142Y-94170826D01*
X96685250Y-94172000D01*
X96197750Y-94172000D01*
X96173858Y-94170826D01*
X96150197Y-94167316D01*
X96126993Y-94161504D01*
X96104471Y-94153446D01*
X96082847Y-94143218D01*
X96062330Y-94130921D01*
X96043117Y-94116671D01*
X96025393Y-94100607D01*
X96009329Y-94082883D01*
X95995079Y-94063670D01*
X95982782Y-94043153D01*
X95972554Y-94021529D01*
X95964496Y-93999007D01*
X95958684Y-93975803D01*
X95955174Y-93952142D01*
X95954000Y-93928250D01*
X95954000Y-93015750D01*
X95955174Y-92991858D01*
X95958684Y-92968197D01*
X95964496Y-92944993D01*
X95972554Y-92922471D01*
X95982782Y-92900847D01*
X95995079Y-92880330D01*
X96009329Y-92861117D01*
X96025393Y-92843393D01*
X96043117Y-92827329D01*
X96062330Y-92813079D01*
X96082847Y-92800782D01*
X96104471Y-92790554D01*
X96126993Y-92782496D01*
X96150197Y-92776684D01*
X96173858Y-92773174D01*
X96197750Y-92772000D01*
X96685250Y-92772000D01*
X96709142Y-92773174D01*
X96709142Y-92773174D01*
G37*
D11*
X96441500Y-93472000D03*
D10*
G36*
X76213642Y-102933174D02*
G01*
X76237303Y-102936684D01*
X76260507Y-102942496D01*
X76283029Y-102950554D01*
X76304653Y-102960782D01*
X76325170Y-102973079D01*
X76344383Y-102987329D01*
X76362107Y-103003393D01*
X76378171Y-103021117D01*
X76392421Y-103040330D01*
X76404718Y-103060847D01*
X76414946Y-103082471D01*
X76423004Y-103104993D01*
X76428816Y-103128197D01*
X76432326Y-103151858D01*
X76433500Y-103175750D01*
X76433500Y-104088250D01*
X76432326Y-104112142D01*
X76428816Y-104135803D01*
X76423004Y-104159007D01*
X76414946Y-104181529D01*
X76404718Y-104203153D01*
X76392421Y-104223670D01*
X76378171Y-104242883D01*
X76362107Y-104260607D01*
X76344383Y-104276671D01*
X76325170Y-104290921D01*
X76304653Y-104303218D01*
X76283029Y-104313446D01*
X76260507Y-104321504D01*
X76237303Y-104327316D01*
X76213642Y-104330826D01*
X76189750Y-104332000D01*
X75702250Y-104332000D01*
X75678358Y-104330826D01*
X75654697Y-104327316D01*
X75631493Y-104321504D01*
X75608971Y-104313446D01*
X75587347Y-104303218D01*
X75566830Y-104290921D01*
X75547617Y-104276671D01*
X75529893Y-104260607D01*
X75513829Y-104242883D01*
X75499579Y-104223670D01*
X75487282Y-104203153D01*
X75477054Y-104181529D01*
X75468996Y-104159007D01*
X75463184Y-104135803D01*
X75459674Y-104112142D01*
X75458500Y-104088250D01*
X75458500Y-103175750D01*
X75459674Y-103151858D01*
X75463184Y-103128197D01*
X75468996Y-103104993D01*
X75477054Y-103082471D01*
X75487282Y-103060847D01*
X75499579Y-103040330D01*
X75513829Y-103021117D01*
X75529893Y-103003393D01*
X75547617Y-102987329D01*
X75566830Y-102973079D01*
X75587347Y-102960782D01*
X75608971Y-102950554D01*
X75631493Y-102942496D01*
X75654697Y-102936684D01*
X75678358Y-102933174D01*
X75702250Y-102932000D01*
X76189750Y-102932000D01*
X76213642Y-102933174D01*
X76213642Y-102933174D01*
G37*
D11*
X75946000Y-103632000D03*
D10*
G36*
X78088642Y-102933174D02*
G01*
X78112303Y-102936684D01*
X78135507Y-102942496D01*
X78158029Y-102950554D01*
X78179653Y-102960782D01*
X78200170Y-102973079D01*
X78219383Y-102987329D01*
X78237107Y-103003393D01*
X78253171Y-103021117D01*
X78267421Y-103040330D01*
X78279718Y-103060847D01*
X78289946Y-103082471D01*
X78298004Y-103104993D01*
X78303816Y-103128197D01*
X78307326Y-103151858D01*
X78308500Y-103175750D01*
X78308500Y-104088250D01*
X78307326Y-104112142D01*
X78303816Y-104135803D01*
X78298004Y-104159007D01*
X78289946Y-104181529D01*
X78279718Y-104203153D01*
X78267421Y-104223670D01*
X78253171Y-104242883D01*
X78237107Y-104260607D01*
X78219383Y-104276671D01*
X78200170Y-104290921D01*
X78179653Y-104303218D01*
X78158029Y-104313446D01*
X78135507Y-104321504D01*
X78112303Y-104327316D01*
X78088642Y-104330826D01*
X78064750Y-104332000D01*
X77577250Y-104332000D01*
X77553358Y-104330826D01*
X77529697Y-104327316D01*
X77506493Y-104321504D01*
X77483971Y-104313446D01*
X77462347Y-104303218D01*
X77441830Y-104290921D01*
X77422617Y-104276671D01*
X77404893Y-104260607D01*
X77388829Y-104242883D01*
X77374579Y-104223670D01*
X77362282Y-104203153D01*
X77352054Y-104181529D01*
X77343996Y-104159007D01*
X77338184Y-104135803D01*
X77334674Y-104112142D01*
X77333500Y-104088250D01*
X77333500Y-103175750D01*
X77334674Y-103151858D01*
X77338184Y-103128197D01*
X77343996Y-103104993D01*
X77352054Y-103082471D01*
X77362282Y-103060847D01*
X77374579Y-103040330D01*
X77388829Y-103021117D01*
X77404893Y-103003393D01*
X77422617Y-102987329D01*
X77441830Y-102973079D01*
X77462347Y-102960782D01*
X77483971Y-102950554D01*
X77506493Y-102942496D01*
X77529697Y-102936684D01*
X77553358Y-102933174D01*
X77577250Y-102932000D01*
X78064750Y-102932000D01*
X78088642Y-102933174D01*
X78088642Y-102933174D01*
G37*
D11*
X77821000Y-103632000D03*
D10*
G36*
X67148142Y-106489174D02*
G01*
X67171803Y-106492684D01*
X67195007Y-106498496D01*
X67217529Y-106506554D01*
X67239153Y-106516782D01*
X67259670Y-106529079D01*
X67278883Y-106543329D01*
X67296607Y-106559393D01*
X67312671Y-106577117D01*
X67326921Y-106596330D01*
X67339218Y-106616847D01*
X67349446Y-106638471D01*
X67357504Y-106660993D01*
X67363316Y-106684197D01*
X67366826Y-106707858D01*
X67368000Y-106731750D01*
X67368000Y-107644250D01*
X67366826Y-107668142D01*
X67363316Y-107691803D01*
X67357504Y-107715007D01*
X67349446Y-107737529D01*
X67339218Y-107759153D01*
X67326921Y-107779670D01*
X67312671Y-107798883D01*
X67296607Y-107816607D01*
X67278883Y-107832671D01*
X67259670Y-107846921D01*
X67239153Y-107859218D01*
X67217529Y-107869446D01*
X67195007Y-107877504D01*
X67171803Y-107883316D01*
X67148142Y-107886826D01*
X67124250Y-107888000D01*
X66636750Y-107888000D01*
X66612858Y-107886826D01*
X66589197Y-107883316D01*
X66565993Y-107877504D01*
X66543471Y-107869446D01*
X66521847Y-107859218D01*
X66501330Y-107846921D01*
X66482117Y-107832671D01*
X66464393Y-107816607D01*
X66448329Y-107798883D01*
X66434079Y-107779670D01*
X66421782Y-107759153D01*
X66411554Y-107737529D01*
X66403496Y-107715007D01*
X66397684Y-107691803D01*
X66394174Y-107668142D01*
X66393000Y-107644250D01*
X66393000Y-106731750D01*
X66394174Y-106707858D01*
X66397684Y-106684197D01*
X66403496Y-106660993D01*
X66411554Y-106638471D01*
X66421782Y-106616847D01*
X66434079Y-106596330D01*
X66448329Y-106577117D01*
X66464393Y-106559393D01*
X66482117Y-106543329D01*
X66501330Y-106529079D01*
X66521847Y-106516782D01*
X66543471Y-106506554D01*
X66565993Y-106498496D01*
X66589197Y-106492684D01*
X66612858Y-106489174D01*
X66636750Y-106488000D01*
X67124250Y-106488000D01*
X67148142Y-106489174D01*
X67148142Y-106489174D01*
G37*
D11*
X66880500Y-107188000D03*
D10*
G36*
X69023142Y-106489174D02*
G01*
X69046803Y-106492684D01*
X69070007Y-106498496D01*
X69092529Y-106506554D01*
X69114153Y-106516782D01*
X69134670Y-106529079D01*
X69153883Y-106543329D01*
X69171607Y-106559393D01*
X69187671Y-106577117D01*
X69201921Y-106596330D01*
X69214218Y-106616847D01*
X69224446Y-106638471D01*
X69232504Y-106660993D01*
X69238316Y-106684197D01*
X69241826Y-106707858D01*
X69243000Y-106731750D01*
X69243000Y-107644250D01*
X69241826Y-107668142D01*
X69238316Y-107691803D01*
X69232504Y-107715007D01*
X69224446Y-107737529D01*
X69214218Y-107759153D01*
X69201921Y-107779670D01*
X69187671Y-107798883D01*
X69171607Y-107816607D01*
X69153883Y-107832671D01*
X69134670Y-107846921D01*
X69114153Y-107859218D01*
X69092529Y-107869446D01*
X69070007Y-107877504D01*
X69046803Y-107883316D01*
X69023142Y-107886826D01*
X68999250Y-107888000D01*
X68511750Y-107888000D01*
X68487858Y-107886826D01*
X68464197Y-107883316D01*
X68440993Y-107877504D01*
X68418471Y-107869446D01*
X68396847Y-107859218D01*
X68376330Y-107846921D01*
X68357117Y-107832671D01*
X68339393Y-107816607D01*
X68323329Y-107798883D01*
X68309079Y-107779670D01*
X68296782Y-107759153D01*
X68286554Y-107737529D01*
X68278496Y-107715007D01*
X68272684Y-107691803D01*
X68269174Y-107668142D01*
X68268000Y-107644250D01*
X68268000Y-106731750D01*
X68269174Y-106707858D01*
X68272684Y-106684197D01*
X68278496Y-106660993D01*
X68286554Y-106638471D01*
X68296782Y-106616847D01*
X68309079Y-106596330D01*
X68323329Y-106577117D01*
X68339393Y-106559393D01*
X68357117Y-106543329D01*
X68376330Y-106529079D01*
X68396847Y-106516782D01*
X68418471Y-106506554D01*
X68440993Y-106498496D01*
X68464197Y-106492684D01*
X68487858Y-106489174D01*
X68511750Y-106488000D01*
X68999250Y-106488000D01*
X69023142Y-106489174D01*
X69023142Y-106489174D01*
G37*
D11*
X68755500Y-107188000D03*
D10*
G36*
X107631142Y-107124174D02*
G01*
X107654803Y-107127684D01*
X107678007Y-107133496D01*
X107700529Y-107141554D01*
X107722153Y-107151782D01*
X107742670Y-107164079D01*
X107761883Y-107178329D01*
X107779607Y-107194393D01*
X107795671Y-107212117D01*
X107809921Y-107231330D01*
X107822218Y-107251847D01*
X107832446Y-107273471D01*
X107840504Y-107295993D01*
X107846316Y-107319197D01*
X107849826Y-107342858D01*
X107851000Y-107366750D01*
X107851000Y-108279250D01*
X107849826Y-108303142D01*
X107846316Y-108326803D01*
X107840504Y-108350007D01*
X107832446Y-108372529D01*
X107822218Y-108394153D01*
X107809921Y-108414670D01*
X107795671Y-108433883D01*
X107779607Y-108451607D01*
X107761883Y-108467671D01*
X107742670Y-108481921D01*
X107722153Y-108494218D01*
X107700529Y-108504446D01*
X107678007Y-108512504D01*
X107654803Y-108518316D01*
X107631142Y-108521826D01*
X107607250Y-108523000D01*
X107119750Y-108523000D01*
X107095858Y-108521826D01*
X107072197Y-108518316D01*
X107048993Y-108512504D01*
X107026471Y-108504446D01*
X107004847Y-108494218D01*
X106984330Y-108481921D01*
X106965117Y-108467671D01*
X106947393Y-108451607D01*
X106931329Y-108433883D01*
X106917079Y-108414670D01*
X106904782Y-108394153D01*
X106894554Y-108372529D01*
X106886496Y-108350007D01*
X106880684Y-108326803D01*
X106877174Y-108303142D01*
X106876000Y-108279250D01*
X106876000Y-107366750D01*
X106877174Y-107342858D01*
X106880684Y-107319197D01*
X106886496Y-107295993D01*
X106894554Y-107273471D01*
X106904782Y-107251847D01*
X106917079Y-107231330D01*
X106931329Y-107212117D01*
X106947393Y-107194393D01*
X106965117Y-107178329D01*
X106984330Y-107164079D01*
X107004847Y-107151782D01*
X107026471Y-107141554D01*
X107048993Y-107133496D01*
X107072197Y-107127684D01*
X107095858Y-107124174D01*
X107119750Y-107123000D01*
X107607250Y-107123000D01*
X107631142Y-107124174D01*
X107631142Y-107124174D01*
G37*
D11*
X107363500Y-107823000D03*
D10*
G36*
X105756142Y-107124174D02*
G01*
X105779803Y-107127684D01*
X105803007Y-107133496D01*
X105825529Y-107141554D01*
X105847153Y-107151782D01*
X105867670Y-107164079D01*
X105886883Y-107178329D01*
X105904607Y-107194393D01*
X105920671Y-107212117D01*
X105934921Y-107231330D01*
X105947218Y-107251847D01*
X105957446Y-107273471D01*
X105965504Y-107295993D01*
X105971316Y-107319197D01*
X105974826Y-107342858D01*
X105976000Y-107366750D01*
X105976000Y-108279250D01*
X105974826Y-108303142D01*
X105971316Y-108326803D01*
X105965504Y-108350007D01*
X105957446Y-108372529D01*
X105947218Y-108394153D01*
X105934921Y-108414670D01*
X105920671Y-108433883D01*
X105904607Y-108451607D01*
X105886883Y-108467671D01*
X105867670Y-108481921D01*
X105847153Y-108494218D01*
X105825529Y-108504446D01*
X105803007Y-108512504D01*
X105779803Y-108518316D01*
X105756142Y-108521826D01*
X105732250Y-108523000D01*
X105244750Y-108523000D01*
X105220858Y-108521826D01*
X105197197Y-108518316D01*
X105173993Y-108512504D01*
X105151471Y-108504446D01*
X105129847Y-108494218D01*
X105109330Y-108481921D01*
X105090117Y-108467671D01*
X105072393Y-108451607D01*
X105056329Y-108433883D01*
X105042079Y-108414670D01*
X105029782Y-108394153D01*
X105019554Y-108372529D01*
X105011496Y-108350007D01*
X105005684Y-108326803D01*
X105002174Y-108303142D01*
X105001000Y-108279250D01*
X105001000Y-107366750D01*
X105002174Y-107342858D01*
X105005684Y-107319197D01*
X105011496Y-107295993D01*
X105019554Y-107273471D01*
X105029782Y-107251847D01*
X105042079Y-107231330D01*
X105056329Y-107212117D01*
X105072393Y-107194393D01*
X105090117Y-107178329D01*
X105109330Y-107164079D01*
X105129847Y-107151782D01*
X105151471Y-107141554D01*
X105173993Y-107133496D01*
X105197197Y-107127684D01*
X105220858Y-107124174D01*
X105244750Y-107123000D01*
X105732250Y-107123000D01*
X105756142Y-107124174D01*
X105756142Y-107124174D01*
G37*
D11*
X105488500Y-107823000D03*
D10*
G36*
X93280142Y-104584174D02*
G01*
X93303803Y-104587684D01*
X93327007Y-104593496D01*
X93349529Y-104601554D01*
X93371153Y-104611782D01*
X93391670Y-104624079D01*
X93410883Y-104638329D01*
X93428607Y-104654393D01*
X93444671Y-104672117D01*
X93458921Y-104691330D01*
X93471218Y-104711847D01*
X93481446Y-104733471D01*
X93489504Y-104755993D01*
X93495316Y-104779197D01*
X93498826Y-104802858D01*
X93500000Y-104826750D01*
X93500000Y-105739250D01*
X93498826Y-105763142D01*
X93495316Y-105786803D01*
X93489504Y-105810007D01*
X93481446Y-105832529D01*
X93471218Y-105854153D01*
X93458921Y-105874670D01*
X93444671Y-105893883D01*
X93428607Y-105911607D01*
X93410883Y-105927671D01*
X93391670Y-105941921D01*
X93371153Y-105954218D01*
X93349529Y-105964446D01*
X93327007Y-105972504D01*
X93303803Y-105978316D01*
X93280142Y-105981826D01*
X93256250Y-105983000D01*
X92768750Y-105983000D01*
X92744858Y-105981826D01*
X92721197Y-105978316D01*
X92697993Y-105972504D01*
X92675471Y-105964446D01*
X92653847Y-105954218D01*
X92633330Y-105941921D01*
X92614117Y-105927671D01*
X92596393Y-105911607D01*
X92580329Y-105893883D01*
X92566079Y-105874670D01*
X92553782Y-105854153D01*
X92543554Y-105832529D01*
X92535496Y-105810007D01*
X92529684Y-105786803D01*
X92526174Y-105763142D01*
X92525000Y-105739250D01*
X92525000Y-104826750D01*
X92526174Y-104802858D01*
X92529684Y-104779197D01*
X92535496Y-104755993D01*
X92543554Y-104733471D01*
X92553782Y-104711847D01*
X92566079Y-104691330D01*
X92580329Y-104672117D01*
X92596393Y-104654393D01*
X92614117Y-104638329D01*
X92633330Y-104624079D01*
X92653847Y-104611782D01*
X92675471Y-104601554D01*
X92697993Y-104593496D01*
X92721197Y-104587684D01*
X92744858Y-104584174D01*
X92768750Y-104583000D01*
X93256250Y-104583000D01*
X93280142Y-104584174D01*
X93280142Y-104584174D01*
G37*
D11*
X93012500Y-105283000D03*
D10*
G36*
X91405142Y-104584174D02*
G01*
X91428803Y-104587684D01*
X91452007Y-104593496D01*
X91474529Y-104601554D01*
X91496153Y-104611782D01*
X91516670Y-104624079D01*
X91535883Y-104638329D01*
X91553607Y-104654393D01*
X91569671Y-104672117D01*
X91583921Y-104691330D01*
X91596218Y-104711847D01*
X91606446Y-104733471D01*
X91614504Y-104755993D01*
X91620316Y-104779197D01*
X91623826Y-104802858D01*
X91625000Y-104826750D01*
X91625000Y-105739250D01*
X91623826Y-105763142D01*
X91620316Y-105786803D01*
X91614504Y-105810007D01*
X91606446Y-105832529D01*
X91596218Y-105854153D01*
X91583921Y-105874670D01*
X91569671Y-105893883D01*
X91553607Y-105911607D01*
X91535883Y-105927671D01*
X91516670Y-105941921D01*
X91496153Y-105954218D01*
X91474529Y-105964446D01*
X91452007Y-105972504D01*
X91428803Y-105978316D01*
X91405142Y-105981826D01*
X91381250Y-105983000D01*
X90893750Y-105983000D01*
X90869858Y-105981826D01*
X90846197Y-105978316D01*
X90822993Y-105972504D01*
X90800471Y-105964446D01*
X90778847Y-105954218D01*
X90758330Y-105941921D01*
X90739117Y-105927671D01*
X90721393Y-105911607D01*
X90705329Y-105893883D01*
X90691079Y-105874670D01*
X90678782Y-105854153D01*
X90668554Y-105832529D01*
X90660496Y-105810007D01*
X90654684Y-105786803D01*
X90651174Y-105763142D01*
X90650000Y-105739250D01*
X90650000Y-104826750D01*
X90651174Y-104802858D01*
X90654684Y-104779197D01*
X90660496Y-104755993D01*
X90668554Y-104733471D01*
X90678782Y-104711847D01*
X90691079Y-104691330D01*
X90705329Y-104672117D01*
X90721393Y-104654393D01*
X90739117Y-104638329D01*
X90758330Y-104624079D01*
X90778847Y-104611782D01*
X90800471Y-104601554D01*
X90822993Y-104593496D01*
X90846197Y-104587684D01*
X90869858Y-104584174D01*
X90893750Y-104583000D01*
X91381250Y-104583000D01*
X91405142Y-104584174D01*
X91405142Y-104584174D01*
G37*
D11*
X91137500Y-105283000D03*
D10*
G36*
X54328142Y-99511174D02*
G01*
X54351803Y-99514684D01*
X54375007Y-99520496D01*
X54397529Y-99528554D01*
X54419153Y-99538782D01*
X54439670Y-99551079D01*
X54458883Y-99565329D01*
X54476607Y-99581393D01*
X54492671Y-99599117D01*
X54506921Y-99618330D01*
X54519218Y-99638847D01*
X54529446Y-99660471D01*
X54537504Y-99682993D01*
X54543316Y-99706197D01*
X54546826Y-99729858D01*
X54548000Y-99753750D01*
X54548000Y-100241250D01*
X54546826Y-100265142D01*
X54543316Y-100288803D01*
X54537504Y-100312007D01*
X54529446Y-100334529D01*
X54519218Y-100356153D01*
X54506921Y-100376670D01*
X54492671Y-100395883D01*
X54476607Y-100413607D01*
X54458883Y-100429671D01*
X54439670Y-100443921D01*
X54419153Y-100456218D01*
X54397529Y-100466446D01*
X54375007Y-100474504D01*
X54351803Y-100480316D01*
X54328142Y-100483826D01*
X54304250Y-100485000D01*
X53391750Y-100485000D01*
X53367858Y-100483826D01*
X53344197Y-100480316D01*
X53320993Y-100474504D01*
X53298471Y-100466446D01*
X53276847Y-100456218D01*
X53256330Y-100443921D01*
X53237117Y-100429671D01*
X53219393Y-100413607D01*
X53203329Y-100395883D01*
X53189079Y-100376670D01*
X53176782Y-100356153D01*
X53166554Y-100334529D01*
X53158496Y-100312007D01*
X53152684Y-100288803D01*
X53149174Y-100265142D01*
X53148000Y-100241250D01*
X53148000Y-99753750D01*
X53149174Y-99729858D01*
X53152684Y-99706197D01*
X53158496Y-99682993D01*
X53166554Y-99660471D01*
X53176782Y-99638847D01*
X53189079Y-99618330D01*
X53203329Y-99599117D01*
X53219393Y-99581393D01*
X53237117Y-99565329D01*
X53256330Y-99551079D01*
X53276847Y-99538782D01*
X53298471Y-99528554D01*
X53320993Y-99520496D01*
X53344197Y-99514684D01*
X53367858Y-99511174D01*
X53391750Y-99510000D01*
X54304250Y-99510000D01*
X54328142Y-99511174D01*
X54328142Y-99511174D01*
G37*
D11*
X53848000Y-99997500D03*
D10*
G36*
X54328142Y-97636174D02*
G01*
X54351803Y-97639684D01*
X54375007Y-97645496D01*
X54397529Y-97653554D01*
X54419153Y-97663782D01*
X54439670Y-97676079D01*
X54458883Y-97690329D01*
X54476607Y-97706393D01*
X54492671Y-97724117D01*
X54506921Y-97743330D01*
X54519218Y-97763847D01*
X54529446Y-97785471D01*
X54537504Y-97807993D01*
X54543316Y-97831197D01*
X54546826Y-97854858D01*
X54548000Y-97878750D01*
X54548000Y-98366250D01*
X54546826Y-98390142D01*
X54543316Y-98413803D01*
X54537504Y-98437007D01*
X54529446Y-98459529D01*
X54519218Y-98481153D01*
X54506921Y-98501670D01*
X54492671Y-98520883D01*
X54476607Y-98538607D01*
X54458883Y-98554671D01*
X54439670Y-98568921D01*
X54419153Y-98581218D01*
X54397529Y-98591446D01*
X54375007Y-98599504D01*
X54351803Y-98605316D01*
X54328142Y-98608826D01*
X54304250Y-98610000D01*
X53391750Y-98610000D01*
X53367858Y-98608826D01*
X53344197Y-98605316D01*
X53320993Y-98599504D01*
X53298471Y-98591446D01*
X53276847Y-98581218D01*
X53256330Y-98568921D01*
X53237117Y-98554671D01*
X53219393Y-98538607D01*
X53203329Y-98520883D01*
X53189079Y-98501670D01*
X53176782Y-98481153D01*
X53166554Y-98459529D01*
X53158496Y-98437007D01*
X53152684Y-98413803D01*
X53149174Y-98390142D01*
X53148000Y-98366250D01*
X53148000Y-97878750D01*
X53149174Y-97854858D01*
X53152684Y-97831197D01*
X53158496Y-97807993D01*
X53166554Y-97785471D01*
X53176782Y-97763847D01*
X53189079Y-97743330D01*
X53203329Y-97724117D01*
X53219393Y-97706393D01*
X53237117Y-97690329D01*
X53256330Y-97676079D01*
X53276847Y-97663782D01*
X53298471Y-97653554D01*
X53320993Y-97645496D01*
X53344197Y-97639684D01*
X53367858Y-97636174D01*
X53391750Y-97635000D01*
X54304250Y-97635000D01*
X54328142Y-97636174D01*
X54328142Y-97636174D01*
G37*
D11*
X53848000Y-98122500D03*
D10*
G36*
X108677142Y-98996174D02*
G01*
X108700803Y-98999684D01*
X108724007Y-99005496D01*
X108746529Y-99013554D01*
X108768153Y-99023782D01*
X108788670Y-99036079D01*
X108807883Y-99050329D01*
X108825607Y-99066393D01*
X108841671Y-99084117D01*
X108855921Y-99103330D01*
X108868218Y-99123847D01*
X108878446Y-99145471D01*
X108886504Y-99167993D01*
X108892316Y-99191197D01*
X108895826Y-99214858D01*
X108897000Y-99238750D01*
X108897000Y-100151250D01*
X108895826Y-100175142D01*
X108892316Y-100198803D01*
X108886504Y-100222007D01*
X108878446Y-100244529D01*
X108868218Y-100266153D01*
X108855921Y-100286670D01*
X108841671Y-100305883D01*
X108825607Y-100323607D01*
X108807883Y-100339671D01*
X108788670Y-100353921D01*
X108768153Y-100366218D01*
X108746529Y-100376446D01*
X108724007Y-100384504D01*
X108700803Y-100390316D01*
X108677142Y-100393826D01*
X108653250Y-100395000D01*
X108165750Y-100395000D01*
X108141858Y-100393826D01*
X108118197Y-100390316D01*
X108094993Y-100384504D01*
X108072471Y-100376446D01*
X108050847Y-100366218D01*
X108030330Y-100353921D01*
X108011117Y-100339671D01*
X107993393Y-100323607D01*
X107977329Y-100305883D01*
X107963079Y-100286670D01*
X107950782Y-100266153D01*
X107940554Y-100244529D01*
X107932496Y-100222007D01*
X107926684Y-100198803D01*
X107923174Y-100175142D01*
X107922000Y-100151250D01*
X107922000Y-99238750D01*
X107923174Y-99214858D01*
X107926684Y-99191197D01*
X107932496Y-99167993D01*
X107940554Y-99145471D01*
X107950782Y-99123847D01*
X107963079Y-99103330D01*
X107977329Y-99084117D01*
X107993393Y-99066393D01*
X108011117Y-99050329D01*
X108030330Y-99036079D01*
X108050847Y-99023782D01*
X108072471Y-99013554D01*
X108094993Y-99005496D01*
X108118197Y-98999684D01*
X108141858Y-98996174D01*
X108165750Y-98995000D01*
X108653250Y-98995000D01*
X108677142Y-98996174D01*
X108677142Y-98996174D01*
G37*
D11*
X108409500Y-99695000D03*
D10*
G36*
X110552142Y-98996174D02*
G01*
X110575803Y-98999684D01*
X110599007Y-99005496D01*
X110621529Y-99013554D01*
X110643153Y-99023782D01*
X110663670Y-99036079D01*
X110682883Y-99050329D01*
X110700607Y-99066393D01*
X110716671Y-99084117D01*
X110730921Y-99103330D01*
X110743218Y-99123847D01*
X110753446Y-99145471D01*
X110761504Y-99167993D01*
X110767316Y-99191197D01*
X110770826Y-99214858D01*
X110772000Y-99238750D01*
X110772000Y-100151250D01*
X110770826Y-100175142D01*
X110767316Y-100198803D01*
X110761504Y-100222007D01*
X110753446Y-100244529D01*
X110743218Y-100266153D01*
X110730921Y-100286670D01*
X110716671Y-100305883D01*
X110700607Y-100323607D01*
X110682883Y-100339671D01*
X110663670Y-100353921D01*
X110643153Y-100366218D01*
X110621529Y-100376446D01*
X110599007Y-100384504D01*
X110575803Y-100390316D01*
X110552142Y-100393826D01*
X110528250Y-100395000D01*
X110040750Y-100395000D01*
X110016858Y-100393826D01*
X109993197Y-100390316D01*
X109969993Y-100384504D01*
X109947471Y-100376446D01*
X109925847Y-100366218D01*
X109905330Y-100353921D01*
X109886117Y-100339671D01*
X109868393Y-100323607D01*
X109852329Y-100305883D01*
X109838079Y-100286670D01*
X109825782Y-100266153D01*
X109815554Y-100244529D01*
X109807496Y-100222007D01*
X109801684Y-100198803D01*
X109798174Y-100175142D01*
X109797000Y-100151250D01*
X109797000Y-99238750D01*
X109798174Y-99214858D01*
X109801684Y-99191197D01*
X109807496Y-99167993D01*
X109815554Y-99145471D01*
X109825782Y-99123847D01*
X109838079Y-99103330D01*
X109852329Y-99084117D01*
X109868393Y-99066393D01*
X109886117Y-99050329D01*
X109905330Y-99036079D01*
X109925847Y-99023782D01*
X109947471Y-99013554D01*
X109969993Y-99005496D01*
X109993197Y-98999684D01*
X110016858Y-98996174D01*
X110040750Y-98995000D01*
X110528250Y-98995000D01*
X110552142Y-98996174D01*
X110552142Y-98996174D01*
G37*
D11*
X110284500Y-99695000D03*
D10*
G36*
X74865142Y-91376174D02*
G01*
X74888803Y-91379684D01*
X74912007Y-91385496D01*
X74934529Y-91393554D01*
X74956153Y-91403782D01*
X74976670Y-91416079D01*
X74995883Y-91430329D01*
X75013607Y-91446393D01*
X75029671Y-91464117D01*
X75043921Y-91483330D01*
X75056218Y-91503847D01*
X75066446Y-91525471D01*
X75074504Y-91547993D01*
X75080316Y-91571197D01*
X75083826Y-91594858D01*
X75085000Y-91618750D01*
X75085000Y-92531250D01*
X75083826Y-92555142D01*
X75080316Y-92578803D01*
X75074504Y-92602007D01*
X75066446Y-92624529D01*
X75056218Y-92646153D01*
X75043921Y-92666670D01*
X75029671Y-92685883D01*
X75013607Y-92703607D01*
X74995883Y-92719671D01*
X74976670Y-92733921D01*
X74956153Y-92746218D01*
X74934529Y-92756446D01*
X74912007Y-92764504D01*
X74888803Y-92770316D01*
X74865142Y-92773826D01*
X74841250Y-92775000D01*
X74353750Y-92775000D01*
X74329858Y-92773826D01*
X74306197Y-92770316D01*
X74282993Y-92764504D01*
X74260471Y-92756446D01*
X74238847Y-92746218D01*
X74218330Y-92733921D01*
X74199117Y-92719671D01*
X74181393Y-92703607D01*
X74165329Y-92685883D01*
X74151079Y-92666670D01*
X74138782Y-92646153D01*
X74128554Y-92624529D01*
X74120496Y-92602007D01*
X74114684Y-92578803D01*
X74111174Y-92555142D01*
X74110000Y-92531250D01*
X74110000Y-91618750D01*
X74111174Y-91594858D01*
X74114684Y-91571197D01*
X74120496Y-91547993D01*
X74128554Y-91525471D01*
X74138782Y-91503847D01*
X74151079Y-91483330D01*
X74165329Y-91464117D01*
X74181393Y-91446393D01*
X74199117Y-91430329D01*
X74218330Y-91416079D01*
X74238847Y-91403782D01*
X74260471Y-91393554D01*
X74282993Y-91385496D01*
X74306197Y-91379684D01*
X74329858Y-91376174D01*
X74353750Y-91375000D01*
X74841250Y-91375000D01*
X74865142Y-91376174D01*
X74865142Y-91376174D01*
G37*
D11*
X74597500Y-92075000D03*
D10*
G36*
X72990142Y-91376174D02*
G01*
X73013803Y-91379684D01*
X73037007Y-91385496D01*
X73059529Y-91393554D01*
X73081153Y-91403782D01*
X73101670Y-91416079D01*
X73120883Y-91430329D01*
X73138607Y-91446393D01*
X73154671Y-91464117D01*
X73168921Y-91483330D01*
X73181218Y-91503847D01*
X73191446Y-91525471D01*
X73199504Y-91547993D01*
X73205316Y-91571197D01*
X73208826Y-91594858D01*
X73210000Y-91618750D01*
X73210000Y-92531250D01*
X73208826Y-92555142D01*
X73205316Y-92578803D01*
X73199504Y-92602007D01*
X73191446Y-92624529D01*
X73181218Y-92646153D01*
X73168921Y-92666670D01*
X73154671Y-92685883D01*
X73138607Y-92703607D01*
X73120883Y-92719671D01*
X73101670Y-92733921D01*
X73081153Y-92746218D01*
X73059529Y-92756446D01*
X73037007Y-92764504D01*
X73013803Y-92770316D01*
X72990142Y-92773826D01*
X72966250Y-92775000D01*
X72478750Y-92775000D01*
X72454858Y-92773826D01*
X72431197Y-92770316D01*
X72407993Y-92764504D01*
X72385471Y-92756446D01*
X72363847Y-92746218D01*
X72343330Y-92733921D01*
X72324117Y-92719671D01*
X72306393Y-92703607D01*
X72290329Y-92685883D01*
X72276079Y-92666670D01*
X72263782Y-92646153D01*
X72253554Y-92624529D01*
X72245496Y-92602007D01*
X72239684Y-92578803D01*
X72236174Y-92555142D01*
X72235000Y-92531250D01*
X72235000Y-91618750D01*
X72236174Y-91594858D01*
X72239684Y-91571197D01*
X72245496Y-91547993D01*
X72253554Y-91525471D01*
X72263782Y-91503847D01*
X72276079Y-91483330D01*
X72290329Y-91464117D01*
X72306393Y-91446393D01*
X72324117Y-91430329D01*
X72343330Y-91416079D01*
X72363847Y-91403782D01*
X72385471Y-91393554D01*
X72407993Y-91385496D01*
X72431197Y-91379684D01*
X72454858Y-91376174D01*
X72478750Y-91375000D01*
X72966250Y-91375000D01*
X72990142Y-91376174D01*
X72990142Y-91376174D01*
G37*
D11*
X72722500Y-92075000D03*
D10*
G36*
X93063142Y-93923174D02*
G01*
X93086803Y-93926684D01*
X93110007Y-93932496D01*
X93132529Y-93940554D01*
X93154153Y-93950782D01*
X93174670Y-93963079D01*
X93193883Y-93977329D01*
X93211607Y-93993393D01*
X93227671Y-94011117D01*
X93241921Y-94030330D01*
X93254218Y-94050847D01*
X93264446Y-94072471D01*
X93272504Y-94094993D01*
X93278316Y-94118197D01*
X93281826Y-94141858D01*
X93283000Y-94165750D01*
X93283000Y-94653250D01*
X93281826Y-94677142D01*
X93278316Y-94700803D01*
X93272504Y-94724007D01*
X93264446Y-94746529D01*
X93254218Y-94768153D01*
X93241921Y-94788670D01*
X93227671Y-94807883D01*
X93211607Y-94825607D01*
X93193883Y-94841671D01*
X93174670Y-94855921D01*
X93154153Y-94868218D01*
X93132529Y-94878446D01*
X93110007Y-94886504D01*
X93086803Y-94892316D01*
X93063142Y-94895826D01*
X93039250Y-94897000D01*
X92126750Y-94897000D01*
X92102858Y-94895826D01*
X92079197Y-94892316D01*
X92055993Y-94886504D01*
X92033471Y-94878446D01*
X92011847Y-94868218D01*
X91991330Y-94855921D01*
X91972117Y-94841671D01*
X91954393Y-94825607D01*
X91938329Y-94807883D01*
X91924079Y-94788670D01*
X91911782Y-94768153D01*
X91901554Y-94746529D01*
X91893496Y-94724007D01*
X91887684Y-94700803D01*
X91884174Y-94677142D01*
X91883000Y-94653250D01*
X91883000Y-94165750D01*
X91884174Y-94141858D01*
X91887684Y-94118197D01*
X91893496Y-94094993D01*
X91901554Y-94072471D01*
X91911782Y-94050847D01*
X91924079Y-94030330D01*
X91938329Y-94011117D01*
X91954393Y-93993393D01*
X91972117Y-93977329D01*
X91991330Y-93963079D01*
X92011847Y-93950782D01*
X92033471Y-93940554D01*
X92055993Y-93932496D01*
X92079197Y-93926684D01*
X92102858Y-93923174D01*
X92126750Y-93922000D01*
X93039250Y-93922000D01*
X93063142Y-93923174D01*
X93063142Y-93923174D01*
G37*
D11*
X92583000Y-94409500D03*
D10*
G36*
X93063142Y-92048174D02*
G01*
X93086803Y-92051684D01*
X93110007Y-92057496D01*
X93132529Y-92065554D01*
X93154153Y-92075782D01*
X93174670Y-92088079D01*
X93193883Y-92102329D01*
X93211607Y-92118393D01*
X93227671Y-92136117D01*
X93241921Y-92155330D01*
X93254218Y-92175847D01*
X93264446Y-92197471D01*
X93272504Y-92219993D01*
X93278316Y-92243197D01*
X93281826Y-92266858D01*
X93283000Y-92290750D01*
X93283000Y-92778250D01*
X93281826Y-92802142D01*
X93278316Y-92825803D01*
X93272504Y-92849007D01*
X93264446Y-92871529D01*
X93254218Y-92893153D01*
X93241921Y-92913670D01*
X93227671Y-92932883D01*
X93211607Y-92950607D01*
X93193883Y-92966671D01*
X93174670Y-92980921D01*
X93154153Y-92993218D01*
X93132529Y-93003446D01*
X93110007Y-93011504D01*
X93086803Y-93017316D01*
X93063142Y-93020826D01*
X93039250Y-93022000D01*
X92126750Y-93022000D01*
X92102858Y-93020826D01*
X92079197Y-93017316D01*
X92055993Y-93011504D01*
X92033471Y-93003446D01*
X92011847Y-92993218D01*
X91991330Y-92980921D01*
X91972117Y-92966671D01*
X91954393Y-92950607D01*
X91938329Y-92932883D01*
X91924079Y-92913670D01*
X91911782Y-92893153D01*
X91901554Y-92871529D01*
X91893496Y-92849007D01*
X91887684Y-92825803D01*
X91884174Y-92802142D01*
X91883000Y-92778250D01*
X91883000Y-92290750D01*
X91884174Y-92266858D01*
X91887684Y-92243197D01*
X91893496Y-92219993D01*
X91901554Y-92197471D01*
X91911782Y-92175847D01*
X91924079Y-92155330D01*
X91938329Y-92136117D01*
X91954393Y-92118393D01*
X91972117Y-92102329D01*
X91991330Y-92088079D01*
X92011847Y-92075782D01*
X92033471Y-92065554D01*
X92055993Y-92057496D01*
X92079197Y-92051684D01*
X92102858Y-92048174D01*
X92126750Y-92047000D01*
X93039250Y-92047000D01*
X93063142Y-92048174D01*
X93063142Y-92048174D01*
G37*
D11*
X92583000Y-92534500D03*
D10*
G36*
X77569142Y-94285674D02*
G01*
X77592803Y-94289184D01*
X77616007Y-94294996D01*
X77638529Y-94303054D01*
X77660153Y-94313282D01*
X77680670Y-94325579D01*
X77699883Y-94339829D01*
X77717607Y-94355893D01*
X77733671Y-94373617D01*
X77747921Y-94392830D01*
X77760218Y-94413347D01*
X77770446Y-94434971D01*
X77778504Y-94457493D01*
X77784316Y-94480697D01*
X77787826Y-94504358D01*
X77789000Y-94528250D01*
X77789000Y-95015750D01*
X77787826Y-95039642D01*
X77784316Y-95063303D01*
X77778504Y-95086507D01*
X77770446Y-95109029D01*
X77760218Y-95130653D01*
X77747921Y-95151170D01*
X77733671Y-95170383D01*
X77717607Y-95188107D01*
X77699883Y-95204171D01*
X77680670Y-95218421D01*
X77660153Y-95230718D01*
X77638529Y-95240946D01*
X77616007Y-95249004D01*
X77592803Y-95254816D01*
X77569142Y-95258326D01*
X77545250Y-95259500D01*
X76632750Y-95259500D01*
X76608858Y-95258326D01*
X76585197Y-95254816D01*
X76561993Y-95249004D01*
X76539471Y-95240946D01*
X76517847Y-95230718D01*
X76497330Y-95218421D01*
X76478117Y-95204171D01*
X76460393Y-95188107D01*
X76444329Y-95170383D01*
X76430079Y-95151170D01*
X76417782Y-95130653D01*
X76407554Y-95109029D01*
X76399496Y-95086507D01*
X76393684Y-95063303D01*
X76390174Y-95039642D01*
X76389000Y-95015750D01*
X76389000Y-94528250D01*
X76390174Y-94504358D01*
X76393684Y-94480697D01*
X76399496Y-94457493D01*
X76407554Y-94434971D01*
X76417782Y-94413347D01*
X76430079Y-94392830D01*
X76444329Y-94373617D01*
X76460393Y-94355893D01*
X76478117Y-94339829D01*
X76497330Y-94325579D01*
X76517847Y-94313282D01*
X76539471Y-94303054D01*
X76561993Y-94294996D01*
X76585197Y-94289184D01*
X76608858Y-94285674D01*
X76632750Y-94284500D01*
X77545250Y-94284500D01*
X77569142Y-94285674D01*
X77569142Y-94285674D01*
G37*
D11*
X77089000Y-94772000D03*
D10*
G36*
X77569142Y-96160674D02*
G01*
X77592803Y-96164184D01*
X77616007Y-96169996D01*
X77638529Y-96178054D01*
X77660153Y-96188282D01*
X77680670Y-96200579D01*
X77699883Y-96214829D01*
X77717607Y-96230893D01*
X77733671Y-96248617D01*
X77747921Y-96267830D01*
X77760218Y-96288347D01*
X77770446Y-96309971D01*
X77778504Y-96332493D01*
X77784316Y-96355697D01*
X77787826Y-96379358D01*
X77789000Y-96403250D01*
X77789000Y-96890750D01*
X77787826Y-96914642D01*
X77784316Y-96938303D01*
X77778504Y-96961507D01*
X77770446Y-96984029D01*
X77760218Y-97005653D01*
X77747921Y-97026170D01*
X77733671Y-97045383D01*
X77717607Y-97063107D01*
X77699883Y-97079171D01*
X77680670Y-97093421D01*
X77660153Y-97105718D01*
X77638529Y-97115946D01*
X77616007Y-97124004D01*
X77592803Y-97129816D01*
X77569142Y-97133326D01*
X77545250Y-97134500D01*
X76632750Y-97134500D01*
X76608858Y-97133326D01*
X76585197Y-97129816D01*
X76561993Y-97124004D01*
X76539471Y-97115946D01*
X76517847Y-97105718D01*
X76497330Y-97093421D01*
X76478117Y-97079171D01*
X76460393Y-97063107D01*
X76444329Y-97045383D01*
X76430079Y-97026170D01*
X76417782Y-97005653D01*
X76407554Y-96984029D01*
X76399496Y-96961507D01*
X76393684Y-96938303D01*
X76390174Y-96914642D01*
X76389000Y-96890750D01*
X76389000Y-96403250D01*
X76390174Y-96379358D01*
X76393684Y-96355697D01*
X76399496Y-96332493D01*
X76407554Y-96309971D01*
X76417782Y-96288347D01*
X76430079Y-96267830D01*
X76444329Y-96248617D01*
X76460393Y-96230893D01*
X76478117Y-96214829D01*
X76497330Y-96200579D01*
X76517847Y-96188282D01*
X76539471Y-96178054D01*
X76561993Y-96169996D01*
X76585197Y-96164184D01*
X76608858Y-96160674D01*
X76632750Y-96159500D01*
X77545250Y-96159500D01*
X77569142Y-96160674D01*
X77569142Y-96160674D01*
G37*
D11*
X77089000Y-96647000D03*
D10*
G36*
X93317142Y-95809674D02*
G01*
X93340803Y-95813184D01*
X93364007Y-95818996D01*
X93386529Y-95827054D01*
X93408153Y-95837282D01*
X93428670Y-95849579D01*
X93447883Y-95863829D01*
X93465607Y-95879893D01*
X93481671Y-95897617D01*
X93495921Y-95916830D01*
X93508218Y-95937347D01*
X93518446Y-95958971D01*
X93526504Y-95981493D01*
X93532316Y-96004697D01*
X93535826Y-96028358D01*
X93537000Y-96052250D01*
X93537000Y-96539750D01*
X93535826Y-96563642D01*
X93532316Y-96587303D01*
X93526504Y-96610507D01*
X93518446Y-96633029D01*
X93508218Y-96654653D01*
X93495921Y-96675170D01*
X93481671Y-96694383D01*
X93465607Y-96712107D01*
X93447883Y-96728171D01*
X93428670Y-96742421D01*
X93408153Y-96754718D01*
X93386529Y-96764946D01*
X93364007Y-96773004D01*
X93340803Y-96778816D01*
X93317142Y-96782326D01*
X93293250Y-96783500D01*
X92380750Y-96783500D01*
X92356858Y-96782326D01*
X92333197Y-96778816D01*
X92309993Y-96773004D01*
X92287471Y-96764946D01*
X92265847Y-96754718D01*
X92245330Y-96742421D01*
X92226117Y-96728171D01*
X92208393Y-96712107D01*
X92192329Y-96694383D01*
X92178079Y-96675170D01*
X92165782Y-96654653D01*
X92155554Y-96633029D01*
X92147496Y-96610507D01*
X92141684Y-96587303D01*
X92138174Y-96563642D01*
X92137000Y-96539750D01*
X92137000Y-96052250D01*
X92138174Y-96028358D01*
X92141684Y-96004697D01*
X92147496Y-95981493D01*
X92155554Y-95958971D01*
X92165782Y-95937347D01*
X92178079Y-95916830D01*
X92192329Y-95897617D01*
X92208393Y-95879893D01*
X92226117Y-95863829D01*
X92245330Y-95849579D01*
X92265847Y-95837282D01*
X92287471Y-95827054D01*
X92309993Y-95818996D01*
X92333197Y-95813184D01*
X92356858Y-95809674D01*
X92380750Y-95808500D01*
X93293250Y-95808500D01*
X93317142Y-95809674D01*
X93317142Y-95809674D01*
G37*
D11*
X92837000Y-96296000D03*
D10*
G36*
X93317142Y-97684674D02*
G01*
X93340803Y-97688184D01*
X93364007Y-97693996D01*
X93386529Y-97702054D01*
X93408153Y-97712282D01*
X93428670Y-97724579D01*
X93447883Y-97738829D01*
X93465607Y-97754893D01*
X93481671Y-97772617D01*
X93495921Y-97791830D01*
X93508218Y-97812347D01*
X93518446Y-97833971D01*
X93526504Y-97856493D01*
X93532316Y-97879697D01*
X93535826Y-97903358D01*
X93537000Y-97927250D01*
X93537000Y-98414750D01*
X93535826Y-98438642D01*
X93532316Y-98462303D01*
X93526504Y-98485507D01*
X93518446Y-98508029D01*
X93508218Y-98529653D01*
X93495921Y-98550170D01*
X93481671Y-98569383D01*
X93465607Y-98587107D01*
X93447883Y-98603171D01*
X93428670Y-98617421D01*
X93408153Y-98629718D01*
X93386529Y-98639946D01*
X93364007Y-98648004D01*
X93340803Y-98653816D01*
X93317142Y-98657326D01*
X93293250Y-98658500D01*
X92380750Y-98658500D01*
X92356858Y-98657326D01*
X92333197Y-98653816D01*
X92309993Y-98648004D01*
X92287471Y-98639946D01*
X92265847Y-98629718D01*
X92245330Y-98617421D01*
X92226117Y-98603171D01*
X92208393Y-98587107D01*
X92192329Y-98569383D01*
X92178079Y-98550170D01*
X92165782Y-98529653D01*
X92155554Y-98508029D01*
X92147496Y-98485507D01*
X92141684Y-98462303D01*
X92138174Y-98438642D01*
X92137000Y-98414750D01*
X92137000Y-97927250D01*
X92138174Y-97903358D01*
X92141684Y-97879697D01*
X92147496Y-97856493D01*
X92155554Y-97833971D01*
X92165782Y-97812347D01*
X92178079Y-97791830D01*
X92192329Y-97772617D01*
X92208393Y-97754893D01*
X92226117Y-97738829D01*
X92245330Y-97724579D01*
X92265847Y-97712282D01*
X92287471Y-97702054D01*
X92309993Y-97693996D01*
X92333197Y-97688184D01*
X92356858Y-97684674D01*
X92380750Y-97683500D01*
X93293250Y-97683500D01*
X93317142Y-97684674D01*
X93317142Y-97684674D01*
G37*
D11*
X92837000Y-98171000D03*
D10*
G36*
X77569142Y-98017174D02*
G01*
X77592803Y-98020684D01*
X77616007Y-98026496D01*
X77638529Y-98034554D01*
X77660153Y-98044782D01*
X77680670Y-98057079D01*
X77699883Y-98071329D01*
X77717607Y-98087393D01*
X77733671Y-98105117D01*
X77747921Y-98124330D01*
X77760218Y-98144847D01*
X77770446Y-98166471D01*
X77778504Y-98188993D01*
X77784316Y-98212197D01*
X77787826Y-98235858D01*
X77789000Y-98259750D01*
X77789000Y-98747250D01*
X77787826Y-98771142D01*
X77784316Y-98794803D01*
X77778504Y-98818007D01*
X77770446Y-98840529D01*
X77760218Y-98862153D01*
X77747921Y-98882670D01*
X77733671Y-98901883D01*
X77717607Y-98919607D01*
X77699883Y-98935671D01*
X77680670Y-98949921D01*
X77660153Y-98962218D01*
X77638529Y-98972446D01*
X77616007Y-98980504D01*
X77592803Y-98986316D01*
X77569142Y-98989826D01*
X77545250Y-98991000D01*
X76632750Y-98991000D01*
X76608858Y-98989826D01*
X76585197Y-98986316D01*
X76561993Y-98980504D01*
X76539471Y-98972446D01*
X76517847Y-98962218D01*
X76497330Y-98949921D01*
X76478117Y-98935671D01*
X76460393Y-98919607D01*
X76444329Y-98901883D01*
X76430079Y-98882670D01*
X76417782Y-98862153D01*
X76407554Y-98840529D01*
X76399496Y-98818007D01*
X76393684Y-98794803D01*
X76390174Y-98771142D01*
X76389000Y-98747250D01*
X76389000Y-98259750D01*
X76390174Y-98235858D01*
X76393684Y-98212197D01*
X76399496Y-98188993D01*
X76407554Y-98166471D01*
X76417782Y-98144847D01*
X76430079Y-98124330D01*
X76444329Y-98105117D01*
X76460393Y-98087393D01*
X76478117Y-98071329D01*
X76497330Y-98057079D01*
X76517847Y-98044782D01*
X76539471Y-98034554D01*
X76561993Y-98026496D01*
X76585197Y-98020684D01*
X76608858Y-98017174D01*
X76632750Y-98016000D01*
X77545250Y-98016000D01*
X77569142Y-98017174D01*
X77569142Y-98017174D01*
G37*
D11*
X77089000Y-98503500D03*
D10*
G36*
X77569142Y-99892174D02*
G01*
X77592803Y-99895684D01*
X77616007Y-99901496D01*
X77638529Y-99909554D01*
X77660153Y-99919782D01*
X77680670Y-99932079D01*
X77699883Y-99946329D01*
X77717607Y-99962393D01*
X77733671Y-99980117D01*
X77747921Y-99999330D01*
X77760218Y-100019847D01*
X77770446Y-100041471D01*
X77778504Y-100063993D01*
X77784316Y-100087197D01*
X77787826Y-100110858D01*
X77789000Y-100134750D01*
X77789000Y-100622250D01*
X77787826Y-100646142D01*
X77784316Y-100669803D01*
X77778504Y-100693007D01*
X77770446Y-100715529D01*
X77760218Y-100737153D01*
X77747921Y-100757670D01*
X77733671Y-100776883D01*
X77717607Y-100794607D01*
X77699883Y-100810671D01*
X77680670Y-100824921D01*
X77660153Y-100837218D01*
X77638529Y-100847446D01*
X77616007Y-100855504D01*
X77592803Y-100861316D01*
X77569142Y-100864826D01*
X77545250Y-100866000D01*
X76632750Y-100866000D01*
X76608858Y-100864826D01*
X76585197Y-100861316D01*
X76561993Y-100855504D01*
X76539471Y-100847446D01*
X76517847Y-100837218D01*
X76497330Y-100824921D01*
X76478117Y-100810671D01*
X76460393Y-100794607D01*
X76444329Y-100776883D01*
X76430079Y-100757670D01*
X76417782Y-100737153D01*
X76407554Y-100715529D01*
X76399496Y-100693007D01*
X76393684Y-100669803D01*
X76390174Y-100646142D01*
X76389000Y-100622250D01*
X76389000Y-100134750D01*
X76390174Y-100110858D01*
X76393684Y-100087197D01*
X76399496Y-100063993D01*
X76407554Y-100041471D01*
X76417782Y-100019847D01*
X76430079Y-99999330D01*
X76444329Y-99980117D01*
X76460393Y-99962393D01*
X76478117Y-99946329D01*
X76497330Y-99932079D01*
X76517847Y-99919782D01*
X76539471Y-99909554D01*
X76561993Y-99901496D01*
X76585197Y-99895684D01*
X76608858Y-99892174D01*
X76632750Y-99891000D01*
X77545250Y-99891000D01*
X77569142Y-99892174D01*
X77569142Y-99892174D01*
G37*
D11*
X77089000Y-100378500D03*
D10*
G36*
X105763142Y-100448674D02*
G01*
X105786803Y-100452184D01*
X105810007Y-100457996D01*
X105832529Y-100466054D01*
X105854153Y-100476282D01*
X105874670Y-100488579D01*
X105893883Y-100502829D01*
X105911607Y-100518893D01*
X105927671Y-100536617D01*
X105941921Y-100555830D01*
X105954218Y-100576347D01*
X105964446Y-100597971D01*
X105972504Y-100620493D01*
X105978316Y-100643697D01*
X105981826Y-100667358D01*
X105983000Y-100691250D01*
X105983000Y-101178750D01*
X105981826Y-101202642D01*
X105978316Y-101226303D01*
X105972504Y-101249507D01*
X105964446Y-101272029D01*
X105954218Y-101293653D01*
X105941921Y-101314170D01*
X105927671Y-101333383D01*
X105911607Y-101351107D01*
X105893883Y-101367171D01*
X105874670Y-101381421D01*
X105854153Y-101393718D01*
X105832529Y-101403946D01*
X105810007Y-101412004D01*
X105786803Y-101417816D01*
X105763142Y-101421326D01*
X105739250Y-101422500D01*
X104826750Y-101422500D01*
X104802858Y-101421326D01*
X104779197Y-101417816D01*
X104755993Y-101412004D01*
X104733471Y-101403946D01*
X104711847Y-101393718D01*
X104691330Y-101381421D01*
X104672117Y-101367171D01*
X104654393Y-101351107D01*
X104638329Y-101333383D01*
X104624079Y-101314170D01*
X104611782Y-101293653D01*
X104601554Y-101272029D01*
X104593496Y-101249507D01*
X104587684Y-101226303D01*
X104584174Y-101202642D01*
X104583000Y-101178750D01*
X104583000Y-100691250D01*
X104584174Y-100667358D01*
X104587684Y-100643697D01*
X104593496Y-100620493D01*
X104601554Y-100597971D01*
X104611782Y-100576347D01*
X104624079Y-100555830D01*
X104638329Y-100536617D01*
X104654393Y-100518893D01*
X104672117Y-100502829D01*
X104691330Y-100488579D01*
X104711847Y-100476282D01*
X104733471Y-100466054D01*
X104755993Y-100457996D01*
X104779197Y-100452184D01*
X104802858Y-100448674D01*
X104826750Y-100447500D01*
X105739250Y-100447500D01*
X105763142Y-100448674D01*
X105763142Y-100448674D01*
G37*
D11*
X105283000Y-100935000D03*
D10*
G36*
X105763142Y-98573674D02*
G01*
X105786803Y-98577184D01*
X105810007Y-98582996D01*
X105832529Y-98591054D01*
X105854153Y-98601282D01*
X105874670Y-98613579D01*
X105893883Y-98627829D01*
X105911607Y-98643893D01*
X105927671Y-98661617D01*
X105941921Y-98680830D01*
X105954218Y-98701347D01*
X105964446Y-98722971D01*
X105972504Y-98745493D01*
X105978316Y-98768697D01*
X105981826Y-98792358D01*
X105983000Y-98816250D01*
X105983000Y-99303750D01*
X105981826Y-99327642D01*
X105978316Y-99351303D01*
X105972504Y-99374507D01*
X105964446Y-99397029D01*
X105954218Y-99418653D01*
X105941921Y-99439170D01*
X105927671Y-99458383D01*
X105911607Y-99476107D01*
X105893883Y-99492171D01*
X105874670Y-99506421D01*
X105854153Y-99518718D01*
X105832529Y-99528946D01*
X105810007Y-99537004D01*
X105786803Y-99542816D01*
X105763142Y-99546326D01*
X105739250Y-99547500D01*
X104826750Y-99547500D01*
X104802858Y-99546326D01*
X104779197Y-99542816D01*
X104755993Y-99537004D01*
X104733471Y-99528946D01*
X104711847Y-99518718D01*
X104691330Y-99506421D01*
X104672117Y-99492171D01*
X104654393Y-99476107D01*
X104638329Y-99458383D01*
X104624079Y-99439170D01*
X104611782Y-99418653D01*
X104601554Y-99397029D01*
X104593496Y-99374507D01*
X104587684Y-99351303D01*
X104584174Y-99327642D01*
X104583000Y-99303750D01*
X104583000Y-98816250D01*
X104584174Y-98792358D01*
X104587684Y-98768697D01*
X104593496Y-98745493D01*
X104601554Y-98722971D01*
X104611782Y-98701347D01*
X104624079Y-98680830D01*
X104638329Y-98661617D01*
X104654393Y-98643893D01*
X104672117Y-98627829D01*
X104691330Y-98613579D01*
X104711847Y-98601282D01*
X104733471Y-98591054D01*
X104755993Y-98582996D01*
X104779197Y-98577184D01*
X104802858Y-98573674D01*
X104826750Y-98572500D01*
X105739250Y-98572500D01*
X105763142Y-98573674D01*
X105763142Y-98573674D01*
G37*
D11*
X105283000Y-99060000D03*
M02*
