M48
; DRILL file {KiCad (5.1.2-1)-1} date Wednesday, August 21, 2019 at 10:52:09 AM
; FORMAT={-:-/ absolute / inch / decimal}
; #@! TF.CreationDate,2019-08-21T10:52:09-07:00
; #@! TF.GenerationSoftware,Kicad,Pcbnew,(5.1.2-1)-1
; #@! TF.FileFunction,Plated,1,2,PTH
FMAT,2
INCH
T1C0.0354
T2C0.0394
T3C0.0400
T4C0.0598
T5C0.1181
%
G90
G05
T1
X10.02Y-2.66
X10.12Y-2.66
X10.02Y-2.96
X10.12Y-2.96
X10.02Y-3.26
X10.12Y-3.26
T2
X9.75Y-3.41
X9.75Y-3.51
X9.75Y-3.61
X3.9Y-3.4
X3.9Y-3.5
X3.9Y-3.6
T3
X5.65Y-2.8
X5.65Y-2.9
X5.65Y-3.0
X5.65Y-3.1
X5.65Y-3.2
X5.65Y-3.3
X5.65Y-3.4
X5.65Y-3.5
X5.75Y-2.8
X5.75Y-2.9
X5.75Y-3.0
X5.75Y-3.1
X5.75Y-3.2
X5.75Y-3.3
X5.75Y-3.4
X5.75Y-3.5
X6.4Y-2.8
X6.4Y-2.9
X6.4Y-3.0
X6.4Y-3.1
X6.4Y-3.2
X6.4Y-3.3
X6.4Y-3.4
X6.4Y-3.5
X6.5Y-2.8
X6.5Y-2.9
X6.5Y-3.0
X6.5Y-3.1
X6.5Y-3.2
X6.5Y-3.3
X6.5Y-3.4
X6.5Y-3.5
X4.9Y-2.8
X4.9Y-2.9
X4.9Y-3.0
X4.9Y-3.1
X4.9Y-3.2
X4.9Y-3.3
X4.9Y-3.4
X4.9Y-3.5
X5.0Y-2.8
X5.0Y-2.9
X5.0Y-3.0
X5.0Y-3.1
X5.0Y-3.2
X5.0Y-3.3
X5.0Y-3.4
X5.0Y-3.5
X8.65Y-2.8
X8.65Y-2.9
X8.65Y-3.0
X8.65Y-3.1
X8.65Y-3.2
X8.65Y-3.3
X8.65Y-3.4
X8.65Y-3.5
X8.75Y-2.8
X8.75Y-2.9
X8.75Y-3.0
X8.75Y-3.1
X8.75Y-3.2
X8.75Y-3.3
X8.75Y-3.4
X8.75Y-3.5
X7.9Y-2.8
X7.9Y-2.9
X7.9Y-3.0
X7.9Y-3.1
X7.9Y-3.2
X7.9Y-3.3
X7.9Y-3.4
X7.9Y-3.5
X8.0Y-2.8
X8.0Y-2.9
X8.0Y-3.0
X8.0Y-3.1
X8.0Y-3.2
X8.0Y-3.3
X8.0Y-3.4
X8.0Y-3.5
X4.1363Y-2.8
X4.1363Y-2.9
X4.1363Y-3.0
X4.1363Y-3.1
X4.1363Y-3.2
X4.1363Y-3.3
X4.1363Y-3.4
X4.1363Y-3.5
X4.2363Y-2.8
X4.2363Y-2.9
X4.2363Y-3.0
X4.2363Y-3.1
X4.2363Y-3.2
X4.2363Y-3.3
X4.2363Y-3.4
X4.2363Y-3.5
X7.15Y-2.8
X7.15Y-2.9
X7.15Y-3.0
X7.15Y-3.1
X7.15Y-3.2
X7.15Y-3.3
X7.15Y-3.4
X7.15Y-3.5
X7.25Y-2.8
X7.25Y-2.9
X7.25Y-3.0
X7.25Y-3.1
X7.25Y-3.2
X7.25Y-3.3
X7.25Y-3.4
X7.25Y-3.5
X9.4Y-2.8
X9.4Y-2.9
X9.4Y-3.0
X9.4Y-3.1
X9.4Y-3.2
X9.4Y-3.3
X9.4Y-3.4
X9.4Y-3.5
X9.5Y-2.8
X9.5Y-2.9
X9.5Y-3.0
X9.5Y-3.1
X9.5Y-3.2
X9.5Y-3.3
X9.5Y-3.4
X9.5Y-3.5
T4
X3.3Y-3.6
X3.5Y-3.6
X3.7Y-3.6
X10.02Y-3.59
X10.22Y-3.59
X10.42Y-3.59
X10.37Y-2.66
X10.37Y-2.86
X10.37Y-3.06
X10.37Y-3.26
X3.5Y-2.7
X3.5Y-2.9
X3.5Y-3.1
X3.5Y-3.3
T5
X4.5Y-2.6
X4.5Y-3.7
X9.15Y-2.6
X9.15Y-3.7
T0
M30
