G04 #@! TF.GenerationSoftware,KiCad,Pcbnew,(5.1.2-1)-1*
G04 #@! TF.CreationDate,2019-08-21T10:52:07-07:00*
G04 #@! TF.ProjectId,ER_Bus_Board,45525f42-7573-45f4-926f-6172642e6b69,rev?*
G04 #@! TF.SameCoordinates,Original*
G04 #@! TF.FileFunction,Copper,L2,Bot*
G04 #@! TF.FilePolarity,Positive*
%FSLAX46Y46*%
G04 Gerber Fmt 4.6, Leading zero omitted, Abs format (unit mm)*
G04 Created by KiCad (PCBNEW (5.1.2-1)-1) date 2019-08-21 10:52:07*
%MOMM*%
%LPD*%
G04 APERTURE LIST*
%ADD10R,1.800000X1.800000*%
%ADD11C,1.800000*%
%ADD12O,1.727200X1.727200*%
%ADD13R,1.727200X1.727200*%
%ADD14C,3.000000*%
%ADD15R,3.000000X3.000000*%
%ADD16O,1.700000X1.700000*%
%ADD17R,1.700000X1.700000*%
%ADD18C,3.200001*%
%ADD19C,0.254000*%
G04 APERTURE END LIST*
D10*
X257048000Y-75184000D03*
D11*
X254508000Y-75184000D03*
D10*
X257048000Y-67564000D03*
D11*
X254508000Y-67564000D03*
X254508000Y-82804000D03*
D10*
X257048000Y-82804000D03*
D12*
X107601001Y-88900000D03*
X105061001Y-88900000D03*
X107601001Y-86360000D03*
X105061001Y-86360000D03*
X107601001Y-83820000D03*
X105061001Y-83820000D03*
X107601001Y-81280000D03*
X105061001Y-81280000D03*
X107601001Y-78740000D03*
X105061001Y-78740000D03*
X107601001Y-76200000D03*
X105061001Y-76200000D03*
X107601001Y-73660000D03*
X105061001Y-73660000D03*
X107601001Y-71120000D03*
D13*
X105061001Y-71120000D03*
D14*
X88900000Y-68580000D03*
D15*
X88900000Y-83820000D03*
D14*
X88900000Y-73660000D03*
X88900000Y-78740000D03*
D16*
X99060000Y-91440000D03*
X99060000Y-88900000D03*
D17*
X99060000Y-86360000D03*
D13*
X124460000Y-71120000D03*
D12*
X127000000Y-71120000D03*
X124460000Y-73660000D03*
X127000000Y-73660000D03*
X124460000Y-76200000D03*
X127000000Y-76200000D03*
X124460000Y-78740000D03*
X127000000Y-78740000D03*
X124460000Y-81280000D03*
X127000000Y-81280000D03*
X124460000Y-83820000D03*
X127000000Y-83820000D03*
X124460000Y-86360000D03*
X127000000Y-86360000D03*
X124460000Y-88900000D03*
X127000000Y-88900000D03*
X146050000Y-88900000D03*
X143510000Y-88900000D03*
X146050000Y-86360000D03*
X143510000Y-86360000D03*
X146050000Y-83820000D03*
X143510000Y-83820000D03*
X146050000Y-81280000D03*
X143510000Y-81280000D03*
X146050000Y-78740000D03*
X143510000Y-78740000D03*
X146050000Y-76200000D03*
X143510000Y-76200000D03*
X146050000Y-73660000D03*
X143510000Y-73660000D03*
X146050000Y-71120000D03*
D13*
X143510000Y-71120000D03*
X162560000Y-71120000D03*
D12*
X165100000Y-71120000D03*
X162560000Y-73660000D03*
X165100000Y-73660000D03*
X162560000Y-76200000D03*
X165100000Y-76200000D03*
X162560000Y-78740000D03*
X165100000Y-78740000D03*
X162560000Y-81280000D03*
X165100000Y-81280000D03*
X162560000Y-83820000D03*
X165100000Y-83820000D03*
X162560000Y-86360000D03*
X165100000Y-86360000D03*
X162560000Y-88900000D03*
X165100000Y-88900000D03*
X184150000Y-88900000D03*
X181610000Y-88900000D03*
X184150000Y-86360000D03*
X181610000Y-86360000D03*
X184150000Y-83820000D03*
X181610000Y-83820000D03*
X184150000Y-81280000D03*
X181610000Y-81280000D03*
X184150000Y-78740000D03*
X181610000Y-78740000D03*
X184150000Y-76200000D03*
X181610000Y-76200000D03*
X184150000Y-73660000D03*
X181610000Y-73660000D03*
X184150000Y-71120000D03*
D13*
X181610000Y-71120000D03*
X200660000Y-71120000D03*
D12*
X203200000Y-71120000D03*
X200660000Y-73660000D03*
X203200000Y-73660000D03*
X200660000Y-76200000D03*
X203200000Y-76200000D03*
X200660000Y-78740000D03*
X203200000Y-78740000D03*
X200660000Y-81280000D03*
X203200000Y-81280000D03*
X200660000Y-83820000D03*
X203200000Y-83820000D03*
X200660000Y-86360000D03*
X203200000Y-86360000D03*
X200660000Y-88900000D03*
X203200000Y-88900000D03*
X222250000Y-88900000D03*
X219710000Y-88900000D03*
X222250000Y-86360000D03*
X219710000Y-86360000D03*
X222250000Y-83820000D03*
X219710000Y-83820000D03*
X222250000Y-81280000D03*
X219710000Y-81280000D03*
X222250000Y-78740000D03*
X219710000Y-78740000D03*
X222250000Y-76200000D03*
X219710000Y-76200000D03*
X222250000Y-73660000D03*
X219710000Y-73660000D03*
X222250000Y-71120000D03*
D13*
X219710000Y-71120000D03*
X238760000Y-71120000D03*
D12*
X241300000Y-71120000D03*
X238760000Y-73660000D03*
X241300000Y-73660000D03*
X238760000Y-76200000D03*
X241300000Y-76200000D03*
X238760000Y-78740000D03*
X241300000Y-78740000D03*
X238760000Y-81280000D03*
X241300000Y-81280000D03*
X238760000Y-83820000D03*
X241300000Y-83820000D03*
X238760000Y-86360000D03*
X241300000Y-86360000D03*
X238760000Y-88900000D03*
X241300000Y-88900000D03*
D14*
X263398000Y-72644000D03*
X263398000Y-77724000D03*
D15*
X263398000Y-67564000D03*
D14*
X263398000Y-82804000D03*
X93980000Y-91440000D03*
X88900000Y-91440000D03*
D15*
X83820000Y-91440000D03*
D17*
X247650000Y-86614000D03*
D16*
X247650000Y-89154000D03*
X247650000Y-91694000D03*
D15*
X264668000Y-91186000D03*
D14*
X259588000Y-91186000D03*
X254508000Y-91186000D03*
D18*
X114300000Y-66040000D03*
X114300000Y-93980000D03*
X232410000Y-93980000D03*
X232410000Y-66040000D03*
D19*
G36*
X268580001Y-95860000D02*
G01*
X80670000Y-95860000D01*
X80670000Y-92940000D01*
X81681928Y-92940000D01*
X81694188Y-93064482D01*
X81730498Y-93184180D01*
X81789463Y-93294494D01*
X81868815Y-93391185D01*
X81965506Y-93470537D01*
X82075820Y-93529502D01*
X82195518Y-93565812D01*
X82320000Y-93578072D01*
X83534250Y-93575000D01*
X83693000Y-93416250D01*
X83693000Y-91567000D01*
X83947000Y-91567000D01*
X83947000Y-93416250D01*
X84105750Y-93575000D01*
X85320000Y-93578072D01*
X85444482Y-93565812D01*
X85564180Y-93529502D01*
X85674494Y-93470537D01*
X85771185Y-93391185D01*
X85850537Y-93294494D01*
X85909502Y-93184180D01*
X85945812Y-93064482D01*
X85958072Y-92940000D01*
X85955000Y-91725750D01*
X85796250Y-91567000D01*
X83947000Y-91567000D01*
X83693000Y-91567000D01*
X81843750Y-91567000D01*
X81685000Y-91725750D01*
X81681928Y-92940000D01*
X80670000Y-92940000D01*
X80670000Y-89940000D01*
X81681928Y-89940000D01*
X81685000Y-91154250D01*
X81843750Y-91313000D01*
X83693000Y-91313000D01*
X83693000Y-89463750D01*
X83947000Y-89463750D01*
X83947000Y-91313000D01*
X85796250Y-91313000D01*
X85879529Y-91229721D01*
X86765000Y-91229721D01*
X86765000Y-91650279D01*
X86847047Y-92062756D01*
X87007988Y-92451302D01*
X87241637Y-92800983D01*
X87539017Y-93098363D01*
X87888698Y-93332012D01*
X88277244Y-93492953D01*
X88689721Y-93575000D01*
X89110279Y-93575000D01*
X89522756Y-93492953D01*
X89911302Y-93332012D01*
X90260983Y-93098363D01*
X90558363Y-92800983D01*
X90792012Y-92451302D01*
X90952953Y-92062756D01*
X91035000Y-91650279D01*
X91035000Y-91229721D01*
X91845000Y-91229721D01*
X91845000Y-91650279D01*
X91927047Y-92062756D01*
X92087988Y-92451302D01*
X92321637Y-92800983D01*
X92619017Y-93098363D01*
X92968698Y-93332012D01*
X93357244Y-93492953D01*
X93769721Y-93575000D01*
X94190279Y-93575000D01*
X94602756Y-93492953D01*
X94991302Y-93332012D01*
X95340983Y-93098363D01*
X95638363Y-92800983D01*
X95872012Y-92451302D01*
X96032953Y-92062756D01*
X96115000Y-91650279D01*
X96115000Y-91229721D01*
X96032953Y-90817244D01*
X95872012Y-90428698D01*
X95638363Y-90079017D01*
X95340983Y-89781637D01*
X94991302Y-89547988D01*
X94602756Y-89387047D01*
X94190279Y-89305000D01*
X93769721Y-89305000D01*
X93357244Y-89387047D01*
X92968698Y-89547988D01*
X92619017Y-89781637D01*
X92321637Y-90079017D01*
X92087988Y-90428698D01*
X91927047Y-90817244D01*
X91845000Y-91229721D01*
X91035000Y-91229721D01*
X90952953Y-90817244D01*
X90792012Y-90428698D01*
X90558363Y-90079017D01*
X90260983Y-89781637D01*
X89911302Y-89547988D01*
X89522756Y-89387047D01*
X89110279Y-89305000D01*
X88689721Y-89305000D01*
X88277244Y-89387047D01*
X87888698Y-89547988D01*
X87539017Y-89781637D01*
X87241637Y-90079017D01*
X87007988Y-90428698D01*
X86847047Y-90817244D01*
X86765000Y-91229721D01*
X85879529Y-91229721D01*
X85955000Y-91154250D01*
X85958072Y-89940000D01*
X85945812Y-89815518D01*
X85909502Y-89695820D01*
X85850537Y-89585506D01*
X85771185Y-89488815D01*
X85674494Y-89409463D01*
X85564180Y-89350498D01*
X85444482Y-89314188D01*
X85320000Y-89301928D01*
X84105750Y-89305000D01*
X83947000Y-89463750D01*
X83693000Y-89463750D01*
X83534250Y-89305000D01*
X82320000Y-89301928D01*
X82195518Y-89314188D01*
X82075820Y-89350498D01*
X81965506Y-89409463D01*
X81868815Y-89488815D01*
X81789463Y-89585506D01*
X81730498Y-89695820D01*
X81694188Y-89815518D01*
X81681928Y-89940000D01*
X80670000Y-89940000D01*
X80670000Y-88900000D01*
X97567815Y-88900000D01*
X97596487Y-89191111D01*
X97681401Y-89471034D01*
X97819294Y-89729014D01*
X98004866Y-89955134D01*
X98230986Y-90140706D01*
X98285791Y-90170000D01*
X98230986Y-90199294D01*
X98004866Y-90384866D01*
X97819294Y-90610986D01*
X97681401Y-90868966D01*
X97596487Y-91148889D01*
X97567815Y-91440000D01*
X97596487Y-91731111D01*
X97681401Y-92011034D01*
X97819294Y-92269014D01*
X98004866Y-92495134D01*
X98230986Y-92680706D01*
X98488966Y-92818599D01*
X98768889Y-92903513D01*
X98987050Y-92925000D01*
X99132950Y-92925000D01*
X99351111Y-92903513D01*
X99631034Y-92818599D01*
X99889014Y-92680706D01*
X100115134Y-92495134D01*
X100300706Y-92269014D01*
X100438599Y-92011034D01*
X100523513Y-91731111D01*
X100552185Y-91440000D01*
X100523513Y-91148889D01*
X100438599Y-90868966D01*
X100300706Y-90610986D01*
X100115134Y-90384866D01*
X99889014Y-90199294D01*
X99834209Y-90170000D01*
X99889014Y-90140706D01*
X100115134Y-89955134D01*
X100300706Y-89729014D01*
X100438599Y-89471034D01*
X100523513Y-89191111D01*
X100552185Y-88900000D01*
X100523513Y-88608889D01*
X100438599Y-88328966D01*
X100300706Y-88070986D01*
X100115134Y-87844866D01*
X100085313Y-87820393D01*
X100154180Y-87799502D01*
X100264494Y-87740537D01*
X100361185Y-87661185D01*
X100440537Y-87564494D01*
X100499502Y-87454180D01*
X100535812Y-87334482D01*
X100548072Y-87210000D01*
X100545000Y-86645750D01*
X100386250Y-86487000D01*
X99187000Y-86487000D01*
X99187000Y-86507000D01*
X98933000Y-86507000D01*
X98933000Y-86487000D01*
X97733750Y-86487000D01*
X97575000Y-86645750D01*
X97571928Y-87210000D01*
X97584188Y-87334482D01*
X97620498Y-87454180D01*
X97679463Y-87564494D01*
X97758815Y-87661185D01*
X97855506Y-87740537D01*
X97965820Y-87799502D01*
X98034687Y-87820393D01*
X98004866Y-87844866D01*
X97819294Y-88070986D01*
X97681401Y-88328966D01*
X97596487Y-88608889D01*
X97567815Y-88900000D01*
X80670000Y-88900000D01*
X80670000Y-82320000D01*
X86761928Y-82320000D01*
X86761928Y-85320000D01*
X86774188Y-85444482D01*
X86810498Y-85564180D01*
X86869463Y-85674494D01*
X86948815Y-85771185D01*
X87045506Y-85850537D01*
X87155820Y-85909502D01*
X87275518Y-85945812D01*
X87400000Y-85958072D01*
X90400000Y-85958072D01*
X90524482Y-85945812D01*
X90644180Y-85909502D01*
X90754494Y-85850537D01*
X90851185Y-85771185D01*
X90930537Y-85674494D01*
X90989502Y-85564180D01*
X91005937Y-85510000D01*
X97571928Y-85510000D01*
X97575000Y-86074250D01*
X97733750Y-86233000D01*
X98933000Y-86233000D01*
X98933000Y-85033750D01*
X99187000Y-85033750D01*
X99187000Y-86233000D01*
X100386250Y-86233000D01*
X100545000Y-86074250D01*
X100548072Y-85510000D01*
X100535812Y-85385518D01*
X100499502Y-85265820D01*
X100440537Y-85155506D01*
X100361185Y-85058815D01*
X100264494Y-84979463D01*
X100154180Y-84920498D01*
X100034482Y-84884188D01*
X99910000Y-84871928D01*
X99345750Y-84875000D01*
X99187000Y-85033750D01*
X98933000Y-85033750D01*
X98774250Y-84875000D01*
X98210000Y-84871928D01*
X98085518Y-84884188D01*
X97965820Y-84920498D01*
X97855506Y-84979463D01*
X97758815Y-85058815D01*
X97679463Y-85155506D01*
X97620498Y-85265820D01*
X97584188Y-85385518D01*
X97571928Y-85510000D01*
X91005937Y-85510000D01*
X91025812Y-85444482D01*
X91038072Y-85320000D01*
X91038072Y-82320000D01*
X91025812Y-82195518D01*
X90989502Y-82075820D01*
X90930537Y-81965506D01*
X90851185Y-81868815D01*
X90754494Y-81789463D01*
X90644180Y-81730498D01*
X90524482Y-81694188D01*
X90400000Y-81681928D01*
X87400000Y-81681928D01*
X87275518Y-81694188D01*
X87155820Y-81730498D01*
X87045506Y-81789463D01*
X86948815Y-81868815D01*
X86869463Y-81965506D01*
X86810498Y-82075820D01*
X86774188Y-82195518D01*
X86761928Y-82320000D01*
X80670000Y-82320000D01*
X80670000Y-81280000D01*
X103555150Y-81280000D01*
X103584085Y-81573777D01*
X103669776Y-81856264D01*
X103808932Y-82116606D01*
X103996204Y-82344797D01*
X104224395Y-82532069D01*
X104257941Y-82550000D01*
X104224395Y-82567931D01*
X103996204Y-82755203D01*
X103808932Y-82983394D01*
X103669776Y-83243736D01*
X103584085Y-83526223D01*
X103555150Y-83820000D01*
X103584085Y-84113777D01*
X103669776Y-84396264D01*
X103808932Y-84656606D01*
X103996204Y-84884797D01*
X104224395Y-85072069D01*
X104257941Y-85090000D01*
X104224395Y-85107931D01*
X103996204Y-85295203D01*
X103808932Y-85523394D01*
X103669776Y-85783736D01*
X103584085Y-86066223D01*
X103555150Y-86360000D01*
X103584085Y-86653777D01*
X103669776Y-86936264D01*
X103808932Y-87196606D01*
X103996204Y-87424797D01*
X104224395Y-87612069D01*
X104257941Y-87630000D01*
X104224395Y-87647931D01*
X103996204Y-87835203D01*
X103808932Y-88063394D01*
X103669776Y-88323736D01*
X103584085Y-88606223D01*
X103555150Y-88900000D01*
X103584085Y-89193777D01*
X103669776Y-89476264D01*
X103808932Y-89736606D01*
X103996204Y-89964797D01*
X104224395Y-90152069D01*
X104484737Y-90291225D01*
X104767224Y-90376916D01*
X104987382Y-90398600D01*
X105134620Y-90398600D01*
X105354778Y-90376916D01*
X105637265Y-90291225D01*
X105897607Y-90152069D01*
X106125798Y-89964797D01*
X106313070Y-89736606D01*
X106331001Y-89703060D01*
X106348932Y-89736606D01*
X106536204Y-89964797D01*
X106764395Y-90152069D01*
X107024737Y-90291225D01*
X107307224Y-90376916D01*
X107527382Y-90398600D01*
X107674620Y-90398600D01*
X107894778Y-90376916D01*
X108177265Y-90291225D01*
X108437607Y-90152069D01*
X108665798Y-89964797D01*
X108853070Y-89736606D01*
X108992226Y-89476264D01*
X109077917Y-89193777D01*
X109106852Y-88900000D01*
X109077917Y-88606223D01*
X108992226Y-88323736D01*
X108853070Y-88063394D01*
X108665798Y-87835203D01*
X108437607Y-87647931D01*
X108404061Y-87630000D01*
X108437607Y-87612069D01*
X108665798Y-87424797D01*
X108853070Y-87196606D01*
X108992226Y-86936264D01*
X109077917Y-86653777D01*
X109106852Y-86360000D01*
X109077917Y-86066223D01*
X108992226Y-85783736D01*
X108853070Y-85523394D01*
X108665798Y-85295203D01*
X108437607Y-85107931D01*
X108404061Y-85090000D01*
X108437607Y-85072069D01*
X108665798Y-84884797D01*
X108853070Y-84656606D01*
X108992226Y-84396264D01*
X109077917Y-84113777D01*
X109106852Y-83820000D01*
X109077917Y-83526223D01*
X108992226Y-83243736D01*
X108853070Y-82983394D01*
X108665798Y-82755203D01*
X108437607Y-82567931D01*
X108404061Y-82550000D01*
X108437607Y-82532069D01*
X108665798Y-82344797D01*
X108853070Y-82116606D01*
X108992226Y-81856264D01*
X109077917Y-81573777D01*
X109106852Y-81280000D01*
X122954149Y-81280000D01*
X122983084Y-81573777D01*
X123068775Y-81856264D01*
X123207931Y-82116606D01*
X123395203Y-82344797D01*
X123623394Y-82532069D01*
X123656940Y-82550000D01*
X123623394Y-82567931D01*
X123395203Y-82755203D01*
X123207931Y-82983394D01*
X123068775Y-83243736D01*
X122983084Y-83526223D01*
X122954149Y-83820000D01*
X122983084Y-84113777D01*
X123068775Y-84396264D01*
X123207931Y-84656606D01*
X123395203Y-84884797D01*
X123623394Y-85072069D01*
X123656940Y-85090000D01*
X123623394Y-85107931D01*
X123395203Y-85295203D01*
X123207931Y-85523394D01*
X123068775Y-85783736D01*
X122983084Y-86066223D01*
X122954149Y-86360000D01*
X122983084Y-86653777D01*
X123068775Y-86936264D01*
X123207931Y-87196606D01*
X123395203Y-87424797D01*
X123623394Y-87612069D01*
X123656940Y-87630000D01*
X123623394Y-87647931D01*
X123395203Y-87835203D01*
X123207931Y-88063394D01*
X123068775Y-88323736D01*
X122983084Y-88606223D01*
X122954149Y-88900000D01*
X122983084Y-89193777D01*
X123068775Y-89476264D01*
X123207931Y-89736606D01*
X123395203Y-89964797D01*
X123623394Y-90152069D01*
X123883736Y-90291225D01*
X124166223Y-90376916D01*
X124386381Y-90398600D01*
X124533619Y-90398600D01*
X124753777Y-90376916D01*
X125036264Y-90291225D01*
X125296606Y-90152069D01*
X125524797Y-89964797D01*
X125712069Y-89736606D01*
X125730000Y-89703060D01*
X125747931Y-89736606D01*
X125935203Y-89964797D01*
X126163394Y-90152069D01*
X126423736Y-90291225D01*
X126706223Y-90376916D01*
X126926381Y-90398600D01*
X127073619Y-90398600D01*
X127293777Y-90376916D01*
X127576264Y-90291225D01*
X127836606Y-90152069D01*
X128064797Y-89964797D01*
X128252069Y-89736606D01*
X128391225Y-89476264D01*
X128476916Y-89193777D01*
X128505851Y-88900000D01*
X128476916Y-88606223D01*
X128391225Y-88323736D01*
X128252069Y-88063394D01*
X128064797Y-87835203D01*
X127836606Y-87647931D01*
X127803060Y-87630000D01*
X127836606Y-87612069D01*
X128064797Y-87424797D01*
X128252069Y-87196606D01*
X128391225Y-86936264D01*
X128476916Y-86653777D01*
X128505851Y-86360000D01*
X128476916Y-86066223D01*
X128391225Y-85783736D01*
X128252069Y-85523394D01*
X128064797Y-85295203D01*
X127836606Y-85107931D01*
X127803060Y-85090000D01*
X127836606Y-85072069D01*
X128064797Y-84884797D01*
X128252069Y-84656606D01*
X128391225Y-84396264D01*
X128476916Y-84113777D01*
X128505851Y-83820000D01*
X128476916Y-83526223D01*
X128391225Y-83243736D01*
X128252069Y-82983394D01*
X128064797Y-82755203D01*
X127836606Y-82567931D01*
X127803060Y-82550000D01*
X127836606Y-82532069D01*
X128064797Y-82344797D01*
X128252069Y-82116606D01*
X128391225Y-81856264D01*
X128476916Y-81573777D01*
X128505851Y-81280000D01*
X142004149Y-81280000D01*
X142033084Y-81573777D01*
X142118775Y-81856264D01*
X142257931Y-82116606D01*
X142445203Y-82344797D01*
X142673394Y-82532069D01*
X142706940Y-82550000D01*
X142673394Y-82567931D01*
X142445203Y-82755203D01*
X142257931Y-82983394D01*
X142118775Y-83243736D01*
X142033084Y-83526223D01*
X142004149Y-83820000D01*
X142033084Y-84113777D01*
X142118775Y-84396264D01*
X142257931Y-84656606D01*
X142445203Y-84884797D01*
X142673394Y-85072069D01*
X142706940Y-85090000D01*
X142673394Y-85107931D01*
X142445203Y-85295203D01*
X142257931Y-85523394D01*
X142118775Y-85783736D01*
X142033084Y-86066223D01*
X142004149Y-86360000D01*
X142033084Y-86653777D01*
X142118775Y-86936264D01*
X142257931Y-87196606D01*
X142445203Y-87424797D01*
X142673394Y-87612069D01*
X142706940Y-87630000D01*
X142673394Y-87647931D01*
X142445203Y-87835203D01*
X142257931Y-88063394D01*
X142118775Y-88323736D01*
X142033084Y-88606223D01*
X142004149Y-88900000D01*
X142033084Y-89193777D01*
X142118775Y-89476264D01*
X142257931Y-89736606D01*
X142445203Y-89964797D01*
X142673394Y-90152069D01*
X142933736Y-90291225D01*
X143216223Y-90376916D01*
X143436381Y-90398600D01*
X143583619Y-90398600D01*
X143803777Y-90376916D01*
X144086264Y-90291225D01*
X144346606Y-90152069D01*
X144574797Y-89964797D01*
X144762069Y-89736606D01*
X144780000Y-89703060D01*
X144797931Y-89736606D01*
X144985203Y-89964797D01*
X145213394Y-90152069D01*
X145473736Y-90291225D01*
X145756223Y-90376916D01*
X145976381Y-90398600D01*
X146123619Y-90398600D01*
X146343777Y-90376916D01*
X146626264Y-90291225D01*
X146886606Y-90152069D01*
X147114797Y-89964797D01*
X147302069Y-89736606D01*
X147441225Y-89476264D01*
X147526916Y-89193777D01*
X147555851Y-88900000D01*
X147526916Y-88606223D01*
X147441225Y-88323736D01*
X147302069Y-88063394D01*
X147114797Y-87835203D01*
X146886606Y-87647931D01*
X146853060Y-87630000D01*
X146886606Y-87612069D01*
X147114797Y-87424797D01*
X147302069Y-87196606D01*
X147441225Y-86936264D01*
X147526916Y-86653777D01*
X147555851Y-86360000D01*
X147526916Y-86066223D01*
X147441225Y-85783736D01*
X147302069Y-85523394D01*
X147114797Y-85295203D01*
X146886606Y-85107931D01*
X146853060Y-85090000D01*
X146886606Y-85072069D01*
X147114797Y-84884797D01*
X147302069Y-84656606D01*
X147441225Y-84396264D01*
X147526916Y-84113777D01*
X147555851Y-83820000D01*
X147526916Y-83526223D01*
X147441225Y-83243736D01*
X147302069Y-82983394D01*
X147114797Y-82755203D01*
X146886606Y-82567931D01*
X146853060Y-82550000D01*
X146886606Y-82532069D01*
X147114797Y-82344797D01*
X147302069Y-82116606D01*
X147441225Y-81856264D01*
X147526916Y-81573777D01*
X147555851Y-81280000D01*
X161054149Y-81280000D01*
X161083084Y-81573777D01*
X161168775Y-81856264D01*
X161307931Y-82116606D01*
X161495203Y-82344797D01*
X161723394Y-82532069D01*
X161756940Y-82550000D01*
X161723394Y-82567931D01*
X161495203Y-82755203D01*
X161307931Y-82983394D01*
X161168775Y-83243736D01*
X161083084Y-83526223D01*
X161054149Y-83820000D01*
X161083084Y-84113777D01*
X161168775Y-84396264D01*
X161307931Y-84656606D01*
X161495203Y-84884797D01*
X161723394Y-85072069D01*
X161756940Y-85090000D01*
X161723394Y-85107931D01*
X161495203Y-85295203D01*
X161307931Y-85523394D01*
X161168775Y-85783736D01*
X161083084Y-86066223D01*
X161054149Y-86360000D01*
X161083084Y-86653777D01*
X161168775Y-86936264D01*
X161307931Y-87196606D01*
X161495203Y-87424797D01*
X161723394Y-87612069D01*
X161756940Y-87630000D01*
X161723394Y-87647931D01*
X161495203Y-87835203D01*
X161307931Y-88063394D01*
X161168775Y-88323736D01*
X161083084Y-88606223D01*
X161054149Y-88900000D01*
X161083084Y-89193777D01*
X161168775Y-89476264D01*
X161307931Y-89736606D01*
X161495203Y-89964797D01*
X161723394Y-90152069D01*
X161983736Y-90291225D01*
X162266223Y-90376916D01*
X162486381Y-90398600D01*
X162633619Y-90398600D01*
X162853777Y-90376916D01*
X163136264Y-90291225D01*
X163396606Y-90152069D01*
X163624797Y-89964797D01*
X163812069Y-89736606D01*
X163830000Y-89703060D01*
X163847931Y-89736606D01*
X164035203Y-89964797D01*
X164263394Y-90152069D01*
X164523736Y-90291225D01*
X164806223Y-90376916D01*
X165026381Y-90398600D01*
X165173619Y-90398600D01*
X165393777Y-90376916D01*
X165676264Y-90291225D01*
X165936606Y-90152069D01*
X166164797Y-89964797D01*
X166352069Y-89736606D01*
X166491225Y-89476264D01*
X166576916Y-89193777D01*
X166605851Y-88900000D01*
X166576916Y-88606223D01*
X166491225Y-88323736D01*
X166352069Y-88063394D01*
X166164797Y-87835203D01*
X165936606Y-87647931D01*
X165903060Y-87630000D01*
X165936606Y-87612069D01*
X166164797Y-87424797D01*
X166352069Y-87196606D01*
X166491225Y-86936264D01*
X166576916Y-86653777D01*
X166605851Y-86360000D01*
X166576916Y-86066223D01*
X166491225Y-85783736D01*
X166352069Y-85523394D01*
X166164797Y-85295203D01*
X165936606Y-85107931D01*
X165903060Y-85090000D01*
X165936606Y-85072069D01*
X166164797Y-84884797D01*
X166352069Y-84656606D01*
X166491225Y-84396264D01*
X166576916Y-84113777D01*
X166605851Y-83820000D01*
X166576916Y-83526223D01*
X166491225Y-83243736D01*
X166352069Y-82983394D01*
X166164797Y-82755203D01*
X165936606Y-82567931D01*
X165903060Y-82550000D01*
X165936606Y-82532069D01*
X166164797Y-82344797D01*
X166352069Y-82116606D01*
X166491225Y-81856264D01*
X166576916Y-81573777D01*
X166605851Y-81280000D01*
X180104149Y-81280000D01*
X180133084Y-81573777D01*
X180218775Y-81856264D01*
X180357931Y-82116606D01*
X180545203Y-82344797D01*
X180773394Y-82532069D01*
X180806940Y-82550000D01*
X180773394Y-82567931D01*
X180545203Y-82755203D01*
X180357931Y-82983394D01*
X180218775Y-83243736D01*
X180133084Y-83526223D01*
X180104149Y-83820000D01*
X180133084Y-84113777D01*
X180218775Y-84396264D01*
X180357931Y-84656606D01*
X180545203Y-84884797D01*
X180773394Y-85072069D01*
X180806940Y-85090000D01*
X180773394Y-85107931D01*
X180545203Y-85295203D01*
X180357931Y-85523394D01*
X180218775Y-85783736D01*
X180133084Y-86066223D01*
X180104149Y-86360000D01*
X180133084Y-86653777D01*
X180218775Y-86936264D01*
X180357931Y-87196606D01*
X180545203Y-87424797D01*
X180773394Y-87612069D01*
X180806940Y-87630000D01*
X180773394Y-87647931D01*
X180545203Y-87835203D01*
X180357931Y-88063394D01*
X180218775Y-88323736D01*
X180133084Y-88606223D01*
X180104149Y-88900000D01*
X180133084Y-89193777D01*
X180218775Y-89476264D01*
X180357931Y-89736606D01*
X180545203Y-89964797D01*
X180773394Y-90152069D01*
X181033736Y-90291225D01*
X181316223Y-90376916D01*
X181536381Y-90398600D01*
X181683619Y-90398600D01*
X181903777Y-90376916D01*
X182186264Y-90291225D01*
X182446606Y-90152069D01*
X182674797Y-89964797D01*
X182862069Y-89736606D01*
X182880000Y-89703060D01*
X182897931Y-89736606D01*
X183085203Y-89964797D01*
X183313394Y-90152069D01*
X183573736Y-90291225D01*
X183856223Y-90376916D01*
X184076381Y-90398600D01*
X184223619Y-90398600D01*
X184443777Y-90376916D01*
X184726264Y-90291225D01*
X184986606Y-90152069D01*
X185214797Y-89964797D01*
X185402069Y-89736606D01*
X185541225Y-89476264D01*
X185626916Y-89193777D01*
X185655851Y-88900000D01*
X185626916Y-88606223D01*
X185541225Y-88323736D01*
X185402069Y-88063394D01*
X185214797Y-87835203D01*
X184986606Y-87647931D01*
X184953060Y-87630000D01*
X184986606Y-87612069D01*
X185214797Y-87424797D01*
X185402069Y-87196606D01*
X185541225Y-86936264D01*
X185626916Y-86653777D01*
X185655851Y-86360000D01*
X185626916Y-86066223D01*
X185541225Y-85783736D01*
X185402069Y-85523394D01*
X185214797Y-85295203D01*
X184986606Y-85107931D01*
X184953060Y-85090000D01*
X184986606Y-85072069D01*
X185214797Y-84884797D01*
X185402069Y-84656606D01*
X185541225Y-84396264D01*
X185626916Y-84113777D01*
X185655851Y-83820000D01*
X185626916Y-83526223D01*
X185541225Y-83243736D01*
X185402069Y-82983394D01*
X185214797Y-82755203D01*
X184986606Y-82567931D01*
X184953060Y-82550000D01*
X184986606Y-82532069D01*
X185214797Y-82344797D01*
X185402069Y-82116606D01*
X185541225Y-81856264D01*
X185626916Y-81573777D01*
X185655851Y-81280000D01*
X199154149Y-81280000D01*
X199183084Y-81573777D01*
X199268775Y-81856264D01*
X199407931Y-82116606D01*
X199595203Y-82344797D01*
X199823394Y-82532069D01*
X199856940Y-82550000D01*
X199823394Y-82567931D01*
X199595203Y-82755203D01*
X199407931Y-82983394D01*
X199268775Y-83243736D01*
X199183084Y-83526223D01*
X199154149Y-83820000D01*
X199183084Y-84113777D01*
X199268775Y-84396264D01*
X199407931Y-84656606D01*
X199595203Y-84884797D01*
X199823394Y-85072069D01*
X199856940Y-85090000D01*
X199823394Y-85107931D01*
X199595203Y-85295203D01*
X199407931Y-85523394D01*
X199268775Y-85783736D01*
X199183084Y-86066223D01*
X199154149Y-86360000D01*
X199183084Y-86653777D01*
X199268775Y-86936264D01*
X199407931Y-87196606D01*
X199595203Y-87424797D01*
X199823394Y-87612069D01*
X199856940Y-87630000D01*
X199823394Y-87647931D01*
X199595203Y-87835203D01*
X199407931Y-88063394D01*
X199268775Y-88323736D01*
X199183084Y-88606223D01*
X199154149Y-88900000D01*
X199183084Y-89193777D01*
X199268775Y-89476264D01*
X199407931Y-89736606D01*
X199595203Y-89964797D01*
X199823394Y-90152069D01*
X200083736Y-90291225D01*
X200366223Y-90376916D01*
X200586381Y-90398600D01*
X200733619Y-90398600D01*
X200953777Y-90376916D01*
X201236264Y-90291225D01*
X201496606Y-90152069D01*
X201724797Y-89964797D01*
X201912069Y-89736606D01*
X201930000Y-89703060D01*
X201947931Y-89736606D01*
X202135203Y-89964797D01*
X202363394Y-90152069D01*
X202623736Y-90291225D01*
X202906223Y-90376916D01*
X203126381Y-90398600D01*
X203273619Y-90398600D01*
X203493777Y-90376916D01*
X203776264Y-90291225D01*
X204036606Y-90152069D01*
X204264797Y-89964797D01*
X204452069Y-89736606D01*
X204591225Y-89476264D01*
X204676916Y-89193777D01*
X204705851Y-88900000D01*
X204676916Y-88606223D01*
X204591225Y-88323736D01*
X204452069Y-88063394D01*
X204264797Y-87835203D01*
X204036606Y-87647931D01*
X204003060Y-87630000D01*
X204036606Y-87612069D01*
X204264797Y-87424797D01*
X204452069Y-87196606D01*
X204591225Y-86936264D01*
X204676916Y-86653777D01*
X204705851Y-86360000D01*
X204676916Y-86066223D01*
X204591225Y-85783736D01*
X204452069Y-85523394D01*
X204264797Y-85295203D01*
X204036606Y-85107931D01*
X204003060Y-85090000D01*
X204036606Y-85072069D01*
X204264797Y-84884797D01*
X204452069Y-84656606D01*
X204591225Y-84396264D01*
X204676916Y-84113777D01*
X204705851Y-83820000D01*
X204676916Y-83526223D01*
X204591225Y-83243736D01*
X204452069Y-82983394D01*
X204264797Y-82755203D01*
X204036606Y-82567931D01*
X204003060Y-82550000D01*
X204036606Y-82532069D01*
X204264797Y-82344797D01*
X204452069Y-82116606D01*
X204591225Y-81856264D01*
X204676916Y-81573777D01*
X204705851Y-81280000D01*
X218204149Y-81280000D01*
X218233084Y-81573777D01*
X218318775Y-81856264D01*
X218457931Y-82116606D01*
X218645203Y-82344797D01*
X218873394Y-82532069D01*
X218906940Y-82550000D01*
X218873394Y-82567931D01*
X218645203Y-82755203D01*
X218457931Y-82983394D01*
X218318775Y-83243736D01*
X218233084Y-83526223D01*
X218204149Y-83820000D01*
X218233084Y-84113777D01*
X218318775Y-84396264D01*
X218457931Y-84656606D01*
X218645203Y-84884797D01*
X218873394Y-85072069D01*
X218906940Y-85090000D01*
X218873394Y-85107931D01*
X218645203Y-85295203D01*
X218457931Y-85523394D01*
X218318775Y-85783736D01*
X218233084Y-86066223D01*
X218204149Y-86360000D01*
X218233084Y-86653777D01*
X218318775Y-86936264D01*
X218457931Y-87196606D01*
X218645203Y-87424797D01*
X218873394Y-87612069D01*
X218906940Y-87630000D01*
X218873394Y-87647931D01*
X218645203Y-87835203D01*
X218457931Y-88063394D01*
X218318775Y-88323736D01*
X218233084Y-88606223D01*
X218204149Y-88900000D01*
X218233084Y-89193777D01*
X218318775Y-89476264D01*
X218457931Y-89736606D01*
X218645203Y-89964797D01*
X218873394Y-90152069D01*
X219133736Y-90291225D01*
X219416223Y-90376916D01*
X219636381Y-90398600D01*
X219783619Y-90398600D01*
X220003777Y-90376916D01*
X220286264Y-90291225D01*
X220546606Y-90152069D01*
X220774797Y-89964797D01*
X220962069Y-89736606D01*
X220980000Y-89703060D01*
X220997931Y-89736606D01*
X221185203Y-89964797D01*
X221413394Y-90152069D01*
X221673736Y-90291225D01*
X221956223Y-90376916D01*
X222176381Y-90398600D01*
X222323619Y-90398600D01*
X222543777Y-90376916D01*
X222826264Y-90291225D01*
X223086606Y-90152069D01*
X223314797Y-89964797D01*
X223502069Y-89736606D01*
X223641225Y-89476264D01*
X223726916Y-89193777D01*
X223755851Y-88900000D01*
X223726916Y-88606223D01*
X223641225Y-88323736D01*
X223502069Y-88063394D01*
X223314797Y-87835203D01*
X223086606Y-87647931D01*
X223053060Y-87630000D01*
X223086606Y-87612069D01*
X223314797Y-87424797D01*
X223502069Y-87196606D01*
X223641225Y-86936264D01*
X223726916Y-86653777D01*
X223755851Y-86360000D01*
X223726916Y-86066223D01*
X223641225Y-85783736D01*
X223502069Y-85523394D01*
X223314797Y-85295203D01*
X223086606Y-85107931D01*
X223053060Y-85090000D01*
X223086606Y-85072069D01*
X223314797Y-84884797D01*
X223502069Y-84656606D01*
X223641225Y-84396264D01*
X223726916Y-84113777D01*
X223755851Y-83820000D01*
X223726916Y-83526223D01*
X223641225Y-83243736D01*
X223502069Y-82983394D01*
X223314797Y-82755203D01*
X223086606Y-82567931D01*
X223053060Y-82550000D01*
X223086606Y-82532069D01*
X223314797Y-82344797D01*
X223502069Y-82116606D01*
X223641225Y-81856264D01*
X223726916Y-81573777D01*
X223755851Y-81280000D01*
X237254149Y-81280000D01*
X237283084Y-81573777D01*
X237368775Y-81856264D01*
X237507931Y-82116606D01*
X237695203Y-82344797D01*
X237923394Y-82532069D01*
X237956940Y-82550000D01*
X237923394Y-82567931D01*
X237695203Y-82755203D01*
X237507931Y-82983394D01*
X237368775Y-83243736D01*
X237283084Y-83526223D01*
X237254149Y-83820000D01*
X237283084Y-84113777D01*
X237368775Y-84396264D01*
X237507931Y-84656606D01*
X237695203Y-84884797D01*
X237923394Y-85072069D01*
X237956940Y-85090000D01*
X237923394Y-85107931D01*
X237695203Y-85295203D01*
X237507931Y-85523394D01*
X237368775Y-85783736D01*
X237283084Y-86066223D01*
X237254149Y-86360000D01*
X237283084Y-86653777D01*
X237368775Y-86936264D01*
X237507931Y-87196606D01*
X237695203Y-87424797D01*
X237923394Y-87612069D01*
X237956940Y-87630000D01*
X237923394Y-87647931D01*
X237695203Y-87835203D01*
X237507931Y-88063394D01*
X237368775Y-88323736D01*
X237283084Y-88606223D01*
X237254149Y-88900000D01*
X237283084Y-89193777D01*
X237368775Y-89476264D01*
X237507931Y-89736606D01*
X237695203Y-89964797D01*
X237923394Y-90152069D01*
X238183736Y-90291225D01*
X238466223Y-90376916D01*
X238686381Y-90398600D01*
X238833619Y-90398600D01*
X239053777Y-90376916D01*
X239336264Y-90291225D01*
X239596606Y-90152069D01*
X239824797Y-89964797D01*
X240012069Y-89736606D01*
X240030000Y-89703060D01*
X240047931Y-89736606D01*
X240235203Y-89964797D01*
X240463394Y-90152069D01*
X240723736Y-90291225D01*
X241006223Y-90376916D01*
X241226381Y-90398600D01*
X241373619Y-90398600D01*
X241593777Y-90376916D01*
X241876264Y-90291225D01*
X242136606Y-90152069D01*
X242364797Y-89964797D01*
X242552069Y-89736606D01*
X242691225Y-89476264D01*
X242776916Y-89193777D01*
X242780833Y-89154000D01*
X246157815Y-89154000D01*
X246186487Y-89445111D01*
X246271401Y-89725034D01*
X246409294Y-89983014D01*
X246594866Y-90209134D01*
X246820986Y-90394706D01*
X246875791Y-90424000D01*
X246820986Y-90453294D01*
X246594866Y-90638866D01*
X246409294Y-90864986D01*
X246271401Y-91122966D01*
X246186487Y-91402889D01*
X246157815Y-91694000D01*
X246186487Y-91985111D01*
X246271401Y-92265034D01*
X246409294Y-92523014D01*
X246594866Y-92749134D01*
X246820986Y-92934706D01*
X247078966Y-93072599D01*
X247358889Y-93157513D01*
X247577050Y-93179000D01*
X247722950Y-93179000D01*
X247941111Y-93157513D01*
X248221034Y-93072599D01*
X248479014Y-92934706D01*
X248705134Y-92749134D01*
X248890706Y-92523014D01*
X249028599Y-92265034D01*
X249113513Y-91985111D01*
X249142185Y-91694000D01*
X249113513Y-91402889D01*
X249028599Y-91122966D01*
X248949896Y-90975721D01*
X252373000Y-90975721D01*
X252373000Y-91396279D01*
X252455047Y-91808756D01*
X252615988Y-92197302D01*
X252849637Y-92546983D01*
X253147017Y-92844363D01*
X253496698Y-93078012D01*
X253885244Y-93238953D01*
X254297721Y-93321000D01*
X254718279Y-93321000D01*
X255130756Y-93238953D01*
X255519302Y-93078012D01*
X255868983Y-92844363D01*
X256166363Y-92546983D01*
X256400012Y-92197302D01*
X256560953Y-91808756D01*
X256643000Y-91396279D01*
X256643000Y-90975721D01*
X257453000Y-90975721D01*
X257453000Y-91396279D01*
X257535047Y-91808756D01*
X257695988Y-92197302D01*
X257929637Y-92546983D01*
X258227017Y-92844363D01*
X258576698Y-93078012D01*
X258965244Y-93238953D01*
X259377721Y-93321000D01*
X259798279Y-93321000D01*
X260210756Y-93238953D01*
X260599302Y-93078012D01*
X260948983Y-92844363D01*
X261107346Y-92686000D01*
X262529928Y-92686000D01*
X262542188Y-92810482D01*
X262578498Y-92930180D01*
X262637463Y-93040494D01*
X262716815Y-93137185D01*
X262813506Y-93216537D01*
X262923820Y-93275502D01*
X263043518Y-93311812D01*
X263168000Y-93324072D01*
X264382250Y-93321000D01*
X264541000Y-93162250D01*
X264541000Y-91313000D01*
X264795000Y-91313000D01*
X264795000Y-93162250D01*
X264953750Y-93321000D01*
X266168000Y-93324072D01*
X266292482Y-93311812D01*
X266412180Y-93275502D01*
X266522494Y-93216537D01*
X266619185Y-93137185D01*
X266698537Y-93040494D01*
X266757502Y-92930180D01*
X266793812Y-92810482D01*
X266806072Y-92686000D01*
X266803000Y-91471750D01*
X266644250Y-91313000D01*
X264795000Y-91313000D01*
X264541000Y-91313000D01*
X262691750Y-91313000D01*
X262533000Y-91471750D01*
X262529928Y-92686000D01*
X261107346Y-92686000D01*
X261246363Y-92546983D01*
X261480012Y-92197302D01*
X261640953Y-91808756D01*
X261723000Y-91396279D01*
X261723000Y-90975721D01*
X261640953Y-90563244D01*
X261480012Y-90174698D01*
X261246363Y-89825017D01*
X261107346Y-89686000D01*
X262529928Y-89686000D01*
X262533000Y-90900250D01*
X262691750Y-91059000D01*
X264541000Y-91059000D01*
X264541000Y-89209750D01*
X264795000Y-89209750D01*
X264795000Y-91059000D01*
X266644250Y-91059000D01*
X266803000Y-90900250D01*
X266806072Y-89686000D01*
X266793812Y-89561518D01*
X266757502Y-89441820D01*
X266698537Y-89331506D01*
X266619185Y-89234815D01*
X266522494Y-89155463D01*
X266412180Y-89096498D01*
X266292482Y-89060188D01*
X266168000Y-89047928D01*
X264953750Y-89051000D01*
X264795000Y-89209750D01*
X264541000Y-89209750D01*
X264382250Y-89051000D01*
X263168000Y-89047928D01*
X263043518Y-89060188D01*
X262923820Y-89096498D01*
X262813506Y-89155463D01*
X262716815Y-89234815D01*
X262637463Y-89331506D01*
X262578498Y-89441820D01*
X262542188Y-89561518D01*
X262529928Y-89686000D01*
X261107346Y-89686000D01*
X260948983Y-89527637D01*
X260599302Y-89293988D01*
X260210756Y-89133047D01*
X259798279Y-89051000D01*
X259377721Y-89051000D01*
X258965244Y-89133047D01*
X258576698Y-89293988D01*
X258227017Y-89527637D01*
X257929637Y-89825017D01*
X257695988Y-90174698D01*
X257535047Y-90563244D01*
X257453000Y-90975721D01*
X256643000Y-90975721D01*
X256560953Y-90563244D01*
X256400012Y-90174698D01*
X256166363Y-89825017D01*
X255868983Y-89527637D01*
X255519302Y-89293988D01*
X255130756Y-89133047D01*
X254718279Y-89051000D01*
X254297721Y-89051000D01*
X253885244Y-89133047D01*
X253496698Y-89293988D01*
X253147017Y-89527637D01*
X252849637Y-89825017D01*
X252615988Y-90174698D01*
X252455047Y-90563244D01*
X252373000Y-90975721D01*
X248949896Y-90975721D01*
X248890706Y-90864986D01*
X248705134Y-90638866D01*
X248479014Y-90453294D01*
X248424209Y-90424000D01*
X248479014Y-90394706D01*
X248705134Y-90209134D01*
X248890706Y-89983014D01*
X249028599Y-89725034D01*
X249113513Y-89445111D01*
X249142185Y-89154000D01*
X249113513Y-88862889D01*
X249028599Y-88582966D01*
X248890706Y-88324986D01*
X248705134Y-88098866D01*
X248675313Y-88074393D01*
X248744180Y-88053502D01*
X248854494Y-87994537D01*
X248951185Y-87915185D01*
X249030537Y-87818494D01*
X249089502Y-87708180D01*
X249125812Y-87588482D01*
X249138072Y-87464000D01*
X249135000Y-86899750D01*
X248976250Y-86741000D01*
X247777000Y-86741000D01*
X247777000Y-86761000D01*
X247523000Y-86761000D01*
X247523000Y-86741000D01*
X246323750Y-86741000D01*
X246165000Y-86899750D01*
X246161928Y-87464000D01*
X246174188Y-87588482D01*
X246210498Y-87708180D01*
X246269463Y-87818494D01*
X246348815Y-87915185D01*
X246445506Y-87994537D01*
X246555820Y-88053502D01*
X246624687Y-88074393D01*
X246594866Y-88098866D01*
X246409294Y-88324986D01*
X246271401Y-88582966D01*
X246186487Y-88862889D01*
X246157815Y-89154000D01*
X242780833Y-89154000D01*
X242805851Y-88900000D01*
X242776916Y-88606223D01*
X242691225Y-88323736D01*
X242552069Y-88063394D01*
X242364797Y-87835203D01*
X242136606Y-87647931D01*
X242103060Y-87630000D01*
X242136606Y-87612069D01*
X242364797Y-87424797D01*
X242552069Y-87196606D01*
X242691225Y-86936264D01*
X242776916Y-86653777D01*
X242805851Y-86360000D01*
X242776916Y-86066223D01*
X242691225Y-85783736D01*
X242680676Y-85764000D01*
X246161928Y-85764000D01*
X246165000Y-86328250D01*
X246323750Y-86487000D01*
X247523000Y-86487000D01*
X247523000Y-85287750D01*
X247777000Y-85287750D01*
X247777000Y-86487000D01*
X248976250Y-86487000D01*
X249135000Y-86328250D01*
X249138072Y-85764000D01*
X249125812Y-85639518D01*
X249089502Y-85519820D01*
X249030537Y-85409506D01*
X248951185Y-85312815D01*
X248854494Y-85233463D01*
X248744180Y-85174498D01*
X248624482Y-85138188D01*
X248500000Y-85125928D01*
X247935750Y-85129000D01*
X247777000Y-85287750D01*
X247523000Y-85287750D01*
X247364250Y-85129000D01*
X246800000Y-85125928D01*
X246675518Y-85138188D01*
X246555820Y-85174498D01*
X246445506Y-85233463D01*
X246348815Y-85312815D01*
X246269463Y-85409506D01*
X246210498Y-85519820D01*
X246174188Y-85639518D01*
X246161928Y-85764000D01*
X242680676Y-85764000D01*
X242552069Y-85523394D01*
X242364797Y-85295203D01*
X242136606Y-85107931D01*
X242103060Y-85090000D01*
X242136606Y-85072069D01*
X242364797Y-84884797D01*
X242552069Y-84656606D01*
X242691225Y-84396264D01*
X242776916Y-84113777D01*
X242805851Y-83820000D01*
X242776916Y-83526223D01*
X242691225Y-83243736D01*
X242552069Y-82983394D01*
X242364797Y-82755203D01*
X242240039Y-82652816D01*
X252973000Y-82652816D01*
X252973000Y-82955184D01*
X253031989Y-83251743D01*
X253147701Y-83531095D01*
X253315688Y-83782505D01*
X253529495Y-83996312D01*
X253780905Y-84164299D01*
X254060257Y-84280011D01*
X254356816Y-84339000D01*
X254659184Y-84339000D01*
X254955743Y-84280011D01*
X255235095Y-84164299D01*
X255486505Y-83996312D01*
X255552944Y-83929873D01*
X255558498Y-83948180D01*
X255617463Y-84058494D01*
X255696815Y-84155185D01*
X255793506Y-84234537D01*
X255903820Y-84293502D01*
X256023518Y-84329812D01*
X256148000Y-84342072D01*
X256762250Y-84339000D01*
X256921000Y-84180250D01*
X256921000Y-82931000D01*
X257175000Y-82931000D01*
X257175000Y-84180250D01*
X257333750Y-84339000D01*
X257948000Y-84342072D01*
X258072482Y-84329812D01*
X258192180Y-84293502D01*
X258302494Y-84234537D01*
X258399185Y-84155185D01*
X258478537Y-84058494D01*
X258537502Y-83948180D01*
X258573812Y-83828482D01*
X258586072Y-83704000D01*
X258583000Y-83089750D01*
X258424250Y-82931000D01*
X257175000Y-82931000D01*
X256921000Y-82931000D01*
X256901000Y-82931000D01*
X256901000Y-82677000D01*
X256921000Y-82677000D01*
X256921000Y-81427750D01*
X257175000Y-81427750D01*
X257175000Y-82677000D01*
X258424250Y-82677000D01*
X258507529Y-82593721D01*
X261263000Y-82593721D01*
X261263000Y-83014279D01*
X261345047Y-83426756D01*
X261505988Y-83815302D01*
X261739637Y-84164983D01*
X262037017Y-84462363D01*
X262386698Y-84696012D01*
X262775244Y-84856953D01*
X263187721Y-84939000D01*
X263608279Y-84939000D01*
X264020756Y-84856953D01*
X264409302Y-84696012D01*
X264758983Y-84462363D01*
X265056363Y-84164983D01*
X265290012Y-83815302D01*
X265450953Y-83426756D01*
X265533000Y-83014279D01*
X265533000Y-82593721D01*
X265450953Y-82181244D01*
X265290012Y-81792698D01*
X265056363Y-81443017D01*
X264758983Y-81145637D01*
X264409302Y-80911988D01*
X264020756Y-80751047D01*
X263608279Y-80669000D01*
X263187721Y-80669000D01*
X262775244Y-80751047D01*
X262386698Y-80911988D01*
X262037017Y-81145637D01*
X261739637Y-81443017D01*
X261505988Y-81792698D01*
X261345047Y-82181244D01*
X261263000Y-82593721D01*
X258507529Y-82593721D01*
X258583000Y-82518250D01*
X258586072Y-81904000D01*
X258573812Y-81779518D01*
X258537502Y-81659820D01*
X258478537Y-81549506D01*
X258399185Y-81452815D01*
X258302494Y-81373463D01*
X258192180Y-81314498D01*
X258072482Y-81278188D01*
X257948000Y-81265928D01*
X257333750Y-81269000D01*
X257175000Y-81427750D01*
X256921000Y-81427750D01*
X256762250Y-81269000D01*
X256148000Y-81265928D01*
X256023518Y-81278188D01*
X255903820Y-81314498D01*
X255793506Y-81373463D01*
X255696815Y-81452815D01*
X255617463Y-81549506D01*
X255558498Y-81659820D01*
X255552944Y-81678127D01*
X255486505Y-81611688D01*
X255235095Y-81443701D01*
X254955743Y-81327989D01*
X254659184Y-81269000D01*
X254356816Y-81269000D01*
X254060257Y-81327989D01*
X253780905Y-81443701D01*
X253529495Y-81611688D01*
X253315688Y-81825495D01*
X253147701Y-82076905D01*
X253031989Y-82356257D01*
X252973000Y-82652816D01*
X242240039Y-82652816D01*
X242136606Y-82567931D01*
X242103060Y-82550000D01*
X242136606Y-82532069D01*
X242364797Y-82344797D01*
X242552069Y-82116606D01*
X242691225Y-81856264D01*
X242776916Y-81573777D01*
X242805851Y-81280000D01*
X242776916Y-80986223D01*
X242691225Y-80703736D01*
X242552069Y-80443394D01*
X242364797Y-80215203D01*
X242136606Y-80027931D01*
X242092090Y-80004137D01*
X242188488Y-79946817D01*
X242406854Y-79750293D01*
X242582684Y-79514944D01*
X242709222Y-79249814D01*
X242754958Y-79099026D01*
X242633817Y-78867000D01*
X241427000Y-78867000D01*
X241427000Y-78887000D01*
X241173000Y-78887000D01*
X241173000Y-78867000D01*
X238887000Y-78867000D01*
X238887000Y-78887000D01*
X238633000Y-78887000D01*
X238633000Y-78867000D01*
X237426183Y-78867000D01*
X237305042Y-79099026D01*
X237350778Y-79249814D01*
X237477316Y-79514944D01*
X237653146Y-79750293D01*
X237871512Y-79946817D01*
X237967910Y-80004137D01*
X237923394Y-80027931D01*
X237695203Y-80215203D01*
X237507931Y-80443394D01*
X237368775Y-80703736D01*
X237283084Y-80986223D01*
X237254149Y-81280000D01*
X223755851Y-81280000D01*
X223726916Y-80986223D01*
X223641225Y-80703736D01*
X223502069Y-80443394D01*
X223314797Y-80215203D01*
X223086606Y-80027931D01*
X223042090Y-80004137D01*
X223138488Y-79946817D01*
X223356854Y-79750293D01*
X223532684Y-79514944D01*
X223659222Y-79249814D01*
X223704958Y-79099026D01*
X223583817Y-78867000D01*
X222377000Y-78867000D01*
X222377000Y-78887000D01*
X222123000Y-78887000D01*
X222123000Y-78867000D01*
X219837000Y-78867000D01*
X219837000Y-78887000D01*
X219583000Y-78887000D01*
X219583000Y-78867000D01*
X218376183Y-78867000D01*
X218255042Y-79099026D01*
X218300778Y-79249814D01*
X218427316Y-79514944D01*
X218603146Y-79750293D01*
X218821512Y-79946817D01*
X218917910Y-80004137D01*
X218873394Y-80027931D01*
X218645203Y-80215203D01*
X218457931Y-80443394D01*
X218318775Y-80703736D01*
X218233084Y-80986223D01*
X218204149Y-81280000D01*
X204705851Y-81280000D01*
X204676916Y-80986223D01*
X204591225Y-80703736D01*
X204452069Y-80443394D01*
X204264797Y-80215203D01*
X204036606Y-80027931D01*
X203992090Y-80004137D01*
X204088488Y-79946817D01*
X204306854Y-79750293D01*
X204482684Y-79514944D01*
X204609222Y-79249814D01*
X204654958Y-79099026D01*
X204533817Y-78867000D01*
X203327000Y-78867000D01*
X203327000Y-78887000D01*
X203073000Y-78887000D01*
X203073000Y-78867000D01*
X200787000Y-78867000D01*
X200787000Y-78887000D01*
X200533000Y-78887000D01*
X200533000Y-78867000D01*
X199326183Y-78867000D01*
X199205042Y-79099026D01*
X199250778Y-79249814D01*
X199377316Y-79514944D01*
X199553146Y-79750293D01*
X199771512Y-79946817D01*
X199867910Y-80004137D01*
X199823394Y-80027931D01*
X199595203Y-80215203D01*
X199407931Y-80443394D01*
X199268775Y-80703736D01*
X199183084Y-80986223D01*
X199154149Y-81280000D01*
X185655851Y-81280000D01*
X185626916Y-80986223D01*
X185541225Y-80703736D01*
X185402069Y-80443394D01*
X185214797Y-80215203D01*
X184986606Y-80027931D01*
X184942090Y-80004137D01*
X185038488Y-79946817D01*
X185256854Y-79750293D01*
X185432684Y-79514944D01*
X185559222Y-79249814D01*
X185604958Y-79099026D01*
X185483817Y-78867000D01*
X184277000Y-78867000D01*
X184277000Y-78887000D01*
X184023000Y-78887000D01*
X184023000Y-78867000D01*
X181737000Y-78867000D01*
X181737000Y-78887000D01*
X181483000Y-78887000D01*
X181483000Y-78867000D01*
X180276183Y-78867000D01*
X180155042Y-79099026D01*
X180200778Y-79249814D01*
X180327316Y-79514944D01*
X180503146Y-79750293D01*
X180721512Y-79946817D01*
X180817910Y-80004137D01*
X180773394Y-80027931D01*
X180545203Y-80215203D01*
X180357931Y-80443394D01*
X180218775Y-80703736D01*
X180133084Y-80986223D01*
X180104149Y-81280000D01*
X166605851Y-81280000D01*
X166576916Y-80986223D01*
X166491225Y-80703736D01*
X166352069Y-80443394D01*
X166164797Y-80215203D01*
X165936606Y-80027931D01*
X165892090Y-80004137D01*
X165988488Y-79946817D01*
X166206854Y-79750293D01*
X166382684Y-79514944D01*
X166509222Y-79249814D01*
X166554958Y-79099026D01*
X166433817Y-78867000D01*
X165227000Y-78867000D01*
X165227000Y-78887000D01*
X164973000Y-78887000D01*
X164973000Y-78867000D01*
X162687000Y-78867000D01*
X162687000Y-78887000D01*
X162433000Y-78887000D01*
X162433000Y-78867000D01*
X161226183Y-78867000D01*
X161105042Y-79099026D01*
X161150778Y-79249814D01*
X161277316Y-79514944D01*
X161453146Y-79750293D01*
X161671512Y-79946817D01*
X161767910Y-80004137D01*
X161723394Y-80027931D01*
X161495203Y-80215203D01*
X161307931Y-80443394D01*
X161168775Y-80703736D01*
X161083084Y-80986223D01*
X161054149Y-81280000D01*
X147555851Y-81280000D01*
X147526916Y-80986223D01*
X147441225Y-80703736D01*
X147302069Y-80443394D01*
X147114797Y-80215203D01*
X146886606Y-80027931D01*
X146842090Y-80004137D01*
X146938488Y-79946817D01*
X147156854Y-79750293D01*
X147332684Y-79514944D01*
X147459222Y-79249814D01*
X147504958Y-79099026D01*
X147383817Y-78867000D01*
X146177000Y-78867000D01*
X146177000Y-78887000D01*
X145923000Y-78887000D01*
X145923000Y-78867000D01*
X143637000Y-78867000D01*
X143637000Y-78887000D01*
X143383000Y-78887000D01*
X143383000Y-78867000D01*
X142176183Y-78867000D01*
X142055042Y-79099026D01*
X142100778Y-79249814D01*
X142227316Y-79514944D01*
X142403146Y-79750293D01*
X142621512Y-79946817D01*
X142717910Y-80004137D01*
X142673394Y-80027931D01*
X142445203Y-80215203D01*
X142257931Y-80443394D01*
X142118775Y-80703736D01*
X142033084Y-80986223D01*
X142004149Y-81280000D01*
X128505851Y-81280000D01*
X128476916Y-80986223D01*
X128391225Y-80703736D01*
X128252069Y-80443394D01*
X128064797Y-80215203D01*
X127836606Y-80027931D01*
X127792090Y-80004137D01*
X127888488Y-79946817D01*
X128106854Y-79750293D01*
X128282684Y-79514944D01*
X128409222Y-79249814D01*
X128454958Y-79099026D01*
X128333817Y-78867000D01*
X127127000Y-78867000D01*
X127127000Y-78887000D01*
X126873000Y-78887000D01*
X126873000Y-78867000D01*
X124587000Y-78867000D01*
X124587000Y-78887000D01*
X124333000Y-78887000D01*
X124333000Y-78867000D01*
X123126183Y-78867000D01*
X123005042Y-79099026D01*
X123050778Y-79249814D01*
X123177316Y-79514944D01*
X123353146Y-79750293D01*
X123571512Y-79946817D01*
X123667910Y-80004137D01*
X123623394Y-80027931D01*
X123395203Y-80215203D01*
X123207931Y-80443394D01*
X123068775Y-80703736D01*
X122983084Y-80986223D01*
X122954149Y-81280000D01*
X109106852Y-81280000D01*
X109077917Y-80986223D01*
X108992226Y-80703736D01*
X108853070Y-80443394D01*
X108665798Y-80215203D01*
X108437607Y-80027931D01*
X108393091Y-80004137D01*
X108489489Y-79946817D01*
X108707855Y-79750293D01*
X108883685Y-79514944D01*
X109010223Y-79249814D01*
X109055959Y-79099026D01*
X108934818Y-78867000D01*
X107728001Y-78867000D01*
X107728001Y-78887000D01*
X107474001Y-78887000D01*
X107474001Y-78867000D01*
X105188001Y-78867000D01*
X105188001Y-78887000D01*
X104934001Y-78887000D01*
X104934001Y-78867000D01*
X103727184Y-78867000D01*
X103606043Y-79099026D01*
X103651779Y-79249814D01*
X103778317Y-79514944D01*
X103954147Y-79750293D01*
X104172513Y-79946817D01*
X104268911Y-80004137D01*
X104224395Y-80027931D01*
X103996204Y-80215203D01*
X103808932Y-80443394D01*
X103669776Y-80703736D01*
X103584085Y-80986223D01*
X103555150Y-81280000D01*
X80670000Y-81280000D01*
X80670000Y-78529721D01*
X86765000Y-78529721D01*
X86765000Y-78950279D01*
X86847047Y-79362756D01*
X87007988Y-79751302D01*
X87241637Y-80100983D01*
X87539017Y-80398363D01*
X87888698Y-80632012D01*
X88277244Y-80792953D01*
X88689721Y-80875000D01*
X89110279Y-80875000D01*
X89522756Y-80792953D01*
X89911302Y-80632012D01*
X90260983Y-80398363D01*
X90558363Y-80100983D01*
X90792012Y-79751302D01*
X90952953Y-79362756D01*
X91035000Y-78950279D01*
X91035000Y-78529721D01*
X90952953Y-78117244D01*
X90792012Y-77728698D01*
X90558363Y-77379017D01*
X90260983Y-77081637D01*
X89911302Y-76847988D01*
X89522756Y-76687047D01*
X89110279Y-76605000D01*
X88689721Y-76605000D01*
X88277244Y-76687047D01*
X87888698Y-76847988D01*
X87539017Y-77081637D01*
X87241637Y-77379017D01*
X87007988Y-77728698D01*
X86847047Y-78117244D01*
X86765000Y-78529721D01*
X80670000Y-78529721D01*
X80670000Y-76559026D01*
X103606043Y-76559026D01*
X103651779Y-76709814D01*
X103778317Y-76974944D01*
X103954147Y-77210293D01*
X104172513Y-77406817D01*
X104278771Y-77470000D01*
X104172513Y-77533183D01*
X103954147Y-77729707D01*
X103778317Y-77965056D01*
X103651779Y-78230186D01*
X103606043Y-78380974D01*
X103727184Y-78613000D01*
X104934001Y-78613000D01*
X104934001Y-76327000D01*
X105188001Y-76327000D01*
X105188001Y-78613000D01*
X107474001Y-78613000D01*
X107474001Y-76327000D01*
X107728001Y-76327000D01*
X107728001Y-78613000D01*
X108934818Y-78613000D01*
X109055959Y-78380974D01*
X109010223Y-78230186D01*
X108883685Y-77965056D01*
X108707855Y-77729707D01*
X108489489Y-77533183D01*
X108383231Y-77470000D01*
X108489489Y-77406817D01*
X108707855Y-77210293D01*
X108883685Y-76974944D01*
X109010223Y-76709814D01*
X109055959Y-76559026D01*
X123005042Y-76559026D01*
X123050778Y-76709814D01*
X123177316Y-76974944D01*
X123353146Y-77210293D01*
X123571512Y-77406817D01*
X123677770Y-77470000D01*
X123571512Y-77533183D01*
X123353146Y-77729707D01*
X123177316Y-77965056D01*
X123050778Y-78230186D01*
X123005042Y-78380974D01*
X123126183Y-78613000D01*
X124333000Y-78613000D01*
X124333000Y-76327000D01*
X124587000Y-76327000D01*
X124587000Y-78613000D01*
X126873000Y-78613000D01*
X126873000Y-76327000D01*
X127127000Y-76327000D01*
X127127000Y-78613000D01*
X128333817Y-78613000D01*
X128454958Y-78380974D01*
X128409222Y-78230186D01*
X128282684Y-77965056D01*
X128106854Y-77729707D01*
X127888488Y-77533183D01*
X127782230Y-77470000D01*
X127888488Y-77406817D01*
X128106854Y-77210293D01*
X128282684Y-76974944D01*
X128409222Y-76709814D01*
X128454958Y-76559026D01*
X142055042Y-76559026D01*
X142100778Y-76709814D01*
X142227316Y-76974944D01*
X142403146Y-77210293D01*
X142621512Y-77406817D01*
X142727770Y-77470000D01*
X142621512Y-77533183D01*
X142403146Y-77729707D01*
X142227316Y-77965056D01*
X142100778Y-78230186D01*
X142055042Y-78380974D01*
X142176183Y-78613000D01*
X143383000Y-78613000D01*
X143383000Y-76327000D01*
X143637000Y-76327000D01*
X143637000Y-78613000D01*
X145923000Y-78613000D01*
X145923000Y-76327000D01*
X146177000Y-76327000D01*
X146177000Y-78613000D01*
X147383817Y-78613000D01*
X147504958Y-78380974D01*
X147459222Y-78230186D01*
X147332684Y-77965056D01*
X147156854Y-77729707D01*
X146938488Y-77533183D01*
X146832230Y-77470000D01*
X146938488Y-77406817D01*
X147156854Y-77210293D01*
X147332684Y-76974944D01*
X147459222Y-76709814D01*
X147504958Y-76559026D01*
X161105042Y-76559026D01*
X161150778Y-76709814D01*
X161277316Y-76974944D01*
X161453146Y-77210293D01*
X161671512Y-77406817D01*
X161777770Y-77470000D01*
X161671512Y-77533183D01*
X161453146Y-77729707D01*
X161277316Y-77965056D01*
X161150778Y-78230186D01*
X161105042Y-78380974D01*
X161226183Y-78613000D01*
X162433000Y-78613000D01*
X162433000Y-76327000D01*
X162687000Y-76327000D01*
X162687000Y-78613000D01*
X164973000Y-78613000D01*
X164973000Y-76327000D01*
X165227000Y-76327000D01*
X165227000Y-78613000D01*
X166433817Y-78613000D01*
X166554958Y-78380974D01*
X166509222Y-78230186D01*
X166382684Y-77965056D01*
X166206854Y-77729707D01*
X165988488Y-77533183D01*
X165882230Y-77470000D01*
X165988488Y-77406817D01*
X166206854Y-77210293D01*
X166382684Y-76974944D01*
X166509222Y-76709814D01*
X166554958Y-76559026D01*
X180155042Y-76559026D01*
X180200778Y-76709814D01*
X180327316Y-76974944D01*
X180503146Y-77210293D01*
X180721512Y-77406817D01*
X180827770Y-77470000D01*
X180721512Y-77533183D01*
X180503146Y-77729707D01*
X180327316Y-77965056D01*
X180200778Y-78230186D01*
X180155042Y-78380974D01*
X180276183Y-78613000D01*
X181483000Y-78613000D01*
X181483000Y-76327000D01*
X181737000Y-76327000D01*
X181737000Y-78613000D01*
X184023000Y-78613000D01*
X184023000Y-76327000D01*
X184277000Y-76327000D01*
X184277000Y-78613000D01*
X185483817Y-78613000D01*
X185604958Y-78380974D01*
X185559222Y-78230186D01*
X185432684Y-77965056D01*
X185256854Y-77729707D01*
X185038488Y-77533183D01*
X184932230Y-77470000D01*
X185038488Y-77406817D01*
X185256854Y-77210293D01*
X185432684Y-76974944D01*
X185559222Y-76709814D01*
X185604958Y-76559026D01*
X199205042Y-76559026D01*
X199250778Y-76709814D01*
X199377316Y-76974944D01*
X199553146Y-77210293D01*
X199771512Y-77406817D01*
X199877770Y-77470000D01*
X199771512Y-77533183D01*
X199553146Y-77729707D01*
X199377316Y-77965056D01*
X199250778Y-78230186D01*
X199205042Y-78380974D01*
X199326183Y-78613000D01*
X200533000Y-78613000D01*
X200533000Y-76327000D01*
X200787000Y-76327000D01*
X200787000Y-78613000D01*
X203073000Y-78613000D01*
X203073000Y-76327000D01*
X203327000Y-76327000D01*
X203327000Y-78613000D01*
X204533817Y-78613000D01*
X204654958Y-78380974D01*
X204609222Y-78230186D01*
X204482684Y-77965056D01*
X204306854Y-77729707D01*
X204088488Y-77533183D01*
X203982230Y-77470000D01*
X204088488Y-77406817D01*
X204306854Y-77210293D01*
X204482684Y-76974944D01*
X204609222Y-76709814D01*
X204654958Y-76559026D01*
X218255042Y-76559026D01*
X218300778Y-76709814D01*
X218427316Y-76974944D01*
X218603146Y-77210293D01*
X218821512Y-77406817D01*
X218927770Y-77470000D01*
X218821512Y-77533183D01*
X218603146Y-77729707D01*
X218427316Y-77965056D01*
X218300778Y-78230186D01*
X218255042Y-78380974D01*
X218376183Y-78613000D01*
X219583000Y-78613000D01*
X219583000Y-76327000D01*
X219837000Y-76327000D01*
X219837000Y-78613000D01*
X222123000Y-78613000D01*
X222123000Y-76327000D01*
X222377000Y-76327000D01*
X222377000Y-78613000D01*
X223583817Y-78613000D01*
X223704958Y-78380974D01*
X223659222Y-78230186D01*
X223532684Y-77965056D01*
X223356854Y-77729707D01*
X223138488Y-77533183D01*
X223032230Y-77470000D01*
X223138488Y-77406817D01*
X223356854Y-77210293D01*
X223532684Y-76974944D01*
X223659222Y-76709814D01*
X223704958Y-76559026D01*
X237305042Y-76559026D01*
X237350778Y-76709814D01*
X237477316Y-76974944D01*
X237653146Y-77210293D01*
X237871512Y-77406817D01*
X237977770Y-77470000D01*
X237871512Y-77533183D01*
X237653146Y-77729707D01*
X237477316Y-77965056D01*
X237350778Y-78230186D01*
X237305042Y-78380974D01*
X237426183Y-78613000D01*
X238633000Y-78613000D01*
X238633000Y-76327000D01*
X238887000Y-76327000D01*
X238887000Y-78613000D01*
X241173000Y-78613000D01*
X241173000Y-76327000D01*
X241427000Y-76327000D01*
X241427000Y-78613000D01*
X242633817Y-78613000D01*
X242754958Y-78380974D01*
X242709222Y-78230186D01*
X242582684Y-77965056D01*
X242406854Y-77729707D01*
X242188488Y-77533183D01*
X242155758Y-77513721D01*
X261263000Y-77513721D01*
X261263000Y-77934279D01*
X261345047Y-78346756D01*
X261505988Y-78735302D01*
X261739637Y-79084983D01*
X262037017Y-79382363D01*
X262386698Y-79616012D01*
X262775244Y-79776953D01*
X263187721Y-79859000D01*
X263608279Y-79859000D01*
X264020756Y-79776953D01*
X264409302Y-79616012D01*
X264758983Y-79382363D01*
X265056363Y-79084983D01*
X265290012Y-78735302D01*
X265450953Y-78346756D01*
X265533000Y-77934279D01*
X265533000Y-77513721D01*
X265450953Y-77101244D01*
X265290012Y-76712698D01*
X265056363Y-76363017D01*
X264758983Y-76065637D01*
X264409302Y-75831988D01*
X264020756Y-75671047D01*
X263608279Y-75589000D01*
X263187721Y-75589000D01*
X262775244Y-75671047D01*
X262386698Y-75831988D01*
X262037017Y-76065637D01*
X261739637Y-76363017D01*
X261505988Y-76712698D01*
X261345047Y-77101244D01*
X261263000Y-77513721D01*
X242155758Y-77513721D01*
X242082230Y-77470000D01*
X242188488Y-77406817D01*
X242406854Y-77210293D01*
X242582684Y-76974944D01*
X242709222Y-76709814D01*
X242754958Y-76559026D01*
X242633817Y-76327000D01*
X241427000Y-76327000D01*
X241173000Y-76327000D01*
X238887000Y-76327000D01*
X238633000Y-76327000D01*
X237426183Y-76327000D01*
X237305042Y-76559026D01*
X223704958Y-76559026D01*
X223583817Y-76327000D01*
X222377000Y-76327000D01*
X222123000Y-76327000D01*
X219837000Y-76327000D01*
X219583000Y-76327000D01*
X218376183Y-76327000D01*
X218255042Y-76559026D01*
X204654958Y-76559026D01*
X204533817Y-76327000D01*
X203327000Y-76327000D01*
X203073000Y-76327000D01*
X200787000Y-76327000D01*
X200533000Y-76327000D01*
X199326183Y-76327000D01*
X199205042Y-76559026D01*
X185604958Y-76559026D01*
X185483817Y-76327000D01*
X184277000Y-76327000D01*
X184023000Y-76327000D01*
X181737000Y-76327000D01*
X181483000Y-76327000D01*
X180276183Y-76327000D01*
X180155042Y-76559026D01*
X166554958Y-76559026D01*
X166433817Y-76327000D01*
X165227000Y-76327000D01*
X164973000Y-76327000D01*
X162687000Y-76327000D01*
X162433000Y-76327000D01*
X161226183Y-76327000D01*
X161105042Y-76559026D01*
X147504958Y-76559026D01*
X147383817Y-76327000D01*
X146177000Y-76327000D01*
X145923000Y-76327000D01*
X143637000Y-76327000D01*
X143383000Y-76327000D01*
X142176183Y-76327000D01*
X142055042Y-76559026D01*
X128454958Y-76559026D01*
X128333817Y-76327000D01*
X127127000Y-76327000D01*
X126873000Y-76327000D01*
X124587000Y-76327000D01*
X124333000Y-76327000D01*
X123126183Y-76327000D01*
X123005042Y-76559026D01*
X109055959Y-76559026D01*
X108934818Y-76327000D01*
X107728001Y-76327000D01*
X107474001Y-76327000D01*
X105188001Y-76327000D01*
X104934001Y-76327000D01*
X103727184Y-76327000D01*
X103606043Y-76559026D01*
X80670000Y-76559026D01*
X80670000Y-75151653D01*
X87587952Y-75151653D01*
X87743962Y-75467214D01*
X88118745Y-75658020D01*
X88523551Y-75772044D01*
X88942824Y-75804902D01*
X89360451Y-75755334D01*
X89760383Y-75625243D01*
X90056038Y-75467214D01*
X90212048Y-75151653D01*
X88900000Y-73839605D01*
X87587952Y-75151653D01*
X80670000Y-75151653D01*
X80670000Y-73702824D01*
X86755098Y-73702824D01*
X86804666Y-74120451D01*
X86934757Y-74520383D01*
X87092786Y-74816038D01*
X87408347Y-74972048D01*
X88720395Y-73660000D01*
X89079605Y-73660000D01*
X90391653Y-74972048D01*
X90707214Y-74816038D01*
X90898020Y-74441255D01*
X91012044Y-74036449D01*
X91013409Y-74019026D01*
X103606043Y-74019026D01*
X103651779Y-74169814D01*
X103778317Y-74434944D01*
X103954147Y-74670293D01*
X104172513Y-74866817D01*
X104278771Y-74930000D01*
X104172513Y-74993183D01*
X103954147Y-75189707D01*
X103778317Y-75425056D01*
X103651779Y-75690186D01*
X103606043Y-75840974D01*
X103727184Y-76073000D01*
X104934001Y-76073000D01*
X104934001Y-73787000D01*
X105188001Y-73787000D01*
X105188001Y-76073000D01*
X107474001Y-76073000D01*
X107474001Y-73787000D01*
X107728001Y-73787000D01*
X107728001Y-76073000D01*
X108934818Y-76073000D01*
X109055959Y-75840974D01*
X109010223Y-75690186D01*
X108883685Y-75425056D01*
X108707855Y-75189707D01*
X108489489Y-74993183D01*
X108383231Y-74930000D01*
X108489489Y-74866817D01*
X108707855Y-74670293D01*
X108883685Y-74434944D01*
X109010223Y-74169814D01*
X109055959Y-74019026D01*
X123005042Y-74019026D01*
X123050778Y-74169814D01*
X123177316Y-74434944D01*
X123353146Y-74670293D01*
X123571512Y-74866817D01*
X123677770Y-74930000D01*
X123571512Y-74993183D01*
X123353146Y-75189707D01*
X123177316Y-75425056D01*
X123050778Y-75690186D01*
X123005042Y-75840974D01*
X123126183Y-76073000D01*
X124333000Y-76073000D01*
X124333000Y-73787000D01*
X124587000Y-73787000D01*
X124587000Y-76073000D01*
X126873000Y-76073000D01*
X126873000Y-73787000D01*
X127127000Y-73787000D01*
X127127000Y-76073000D01*
X128333817Y-76073000D01*
X128454958Y-75840974D01*
X128409222Y-75690186D01*
X128282684Y-75425056D01*
X128106854Y-75189707D01*
X127888488Y-74993183D01*
X127782230Y-74930000D01*
X127888488Y-74866817D01*
X128106854Y-74670293D01*
X128282684Y-74434944D01*
X128409222Y-74169814D01*
X128454958Y-74019026D01*
X142055042Y-74019026D01*
X142100778Y-74169814D01*
X142227316Y-74434944D01*
X142403146Y-74670293D01*
X142621512Y-74866817D01*
X142727770Y-74930000D01*
X142621512Y-74993183D01*
X142403146Y-75189707D01*
X142227316Y-75425056D01*
X142100778Y-75690186D01*
X142055042Y-75840974D01*
X142176183Y-76073000D01*
X143383000Y-76073000D01*
X143383000Y-73787000D01*
X143637000Y-73787000D01*
X143637000Y-76073000D01*
X145923000Y-76073000D01*
X145923000Y-73787000D01*
X146177000Y-73787000D01*
X146177000Y-76073000D01*
X147383817Y-76073000D01*
X147504958Y-75840974D01*
X147459222Y-75690186D01*
X147332684Y-75425056D01*
X147156854Y-75189707D01*
X146938488Y-74993183D01*
X146832230Y-74930000D01*
X146938488Y-74866817D01*
X147156854Y-74670293D01*
X147332684Y-74434944D01*
X147459222Y-74169814D01*
X147504958Y-74019026D01*
X161105042Y-74019026D01*
X161150778Y-74169814D01*
X161277316Y-74434944D01*
X161453146Y-74670293D01*
X161671512Y-74866817D01*
X161777770Y-74930000D01*
X161671512Y-74993183D01*
X161453146Y-75189707D01*
X161277316Y-75425056D01*
X161150778Y-75690186D01*
X161105042Y-75840974D01*
X161226183Y-76073000D01*
X162433000Y-76073000D01*
X162433000Y-73787000D01*
X162687000Y-73787000D01*
X162687000Y-76073000D01*
X164973000Y-76073000D01*
X164973000Y-73787000D01*
X165227000Y-73787000D01*
X165227000Y-76073000D01*
X166433817Y-76073000D01*
X166554958Y-75840974D01*
X166509222Y-75690186D01*
X166382684Y-75425056D01*
X166206854Y-75189707D01*
X165988488Y-74993183D01*
X165882230Y-74930000D01*
X165988488Y-74866817D01*
X166206854Y-74670293D01*
X166382684Y-74434944D01*
X166509222Y-74169814D01*
X166554958Y-74019026D01*
X180155042Y-74019026D01*
X180200778Y-74169814D01*
X180327316Y-74434944D01*
X180503146Y-74670293D01*
X180721512Y-74866817D01*
X180827770Y-74930000D01*
X180721512Y-74993183D01*
X180503146Y-75189707D01*
X180327316Y-75425056D01*
X180200778Y-75690186D01*
X180155042Y-75840974D01*
X180276183Y-76073000D01*
X181483000Y-76073000D01*
X181483000Y-73787000D01*
X181737000Y-73787000D01*
X181737000Y-76073000D01*
X184023000Y-76073000D01*
X184023000Y-73787000D01*
X184277000Y-73787000D01*
X184277000Y-76073000D01*
X185483817Y-76073000D01*
X185604958Y-75840974D01*
X185559222Y-75690186D01*
X185432684Y-75425056D01*
X185256854Y-75189707D01*
X185038488Y-74993183D01*
X184932230Y-74930000D01*
X185038488Y-74866817D01*
X185256854Y-74670293D01*
X185432684Y-74434944D01*
X185559222Y-74169814D01*
X185604958Y-74019026D01*
X199205042Y-74019026D01*
X199250778Y-74169814D01*
X199377316Y-74434944D01*
X199553146Y-74670293D01*
X199771512Y-74866817D01*
X199877770Y-74930000D01*
X199771512Y-74993183D01*
X199553146Y-75189707D01*
X199377316Y-75425056D01*
X199250778Y-75690186D01*
X199205042Y-75840974D01*
X199326183Y-76073000D01*
X200533000Y-76073000D01*
X200533000Y-73787000D01*
X200787000Y-73787000D01*
X200787000Y-76073000D01*
X203073000Y-76073000D01*
X203073000Y-73787000D01*
X203327000Y-73787000D01*
X203327000Y-76073000D01*
X204533817Y-76073000D01*
X204654958Y-75840974D01*
X204609222Y-75690186D01*
X204482684Y-75425056D01*
X204306854Y-75189707D01*
X204088488Y-74993183D01*
X203982230Y-74930000D01*
X204088488Y-74866817D01*
X204306854Y-74670293D01*
X204482684Y-74434944D01*
X204609222Y-74169814D01*
X204654958Y-74019026D01*
X218255042Y-74019026D01*
X218300778Y-74169814D01*
X218427316Y-74434944D01*
X218603146Y-74670293D01*
X218821512Y-74866817D01*
X218927770Y-74930000D01*
X218821512Y-74993183D01*
X218603146Y-75189707D01*
X218427316Y-75425056D01*
X218300778Y-75690186D01*
X218255042Y-75840974D01*
X218376183Y-76073000D01*
X219583000Y-76073000D01*
X219583000Y-73787000D01*
X219837000Y-73787000D01*
X219837000Y-76073000D01*
X222123000Y-76073000D01*
X222123000Y-73787000D01*
X222377000Y-73787000D01*
X222377000Y-76073000D01*
X223583817Y-76073000D01*
X223704958Y-75840974D01*
X223659222Y-75690186D01*
X223532684Y-75425056D01*
X223356854Y-75189707D01*
X223138488Y-74993183D01*
X223032230Y-74930000D01*
X223138488Y-74866817D01*
X223356854Y-74670293D01*
X223532684Y-74434944D01*
X223659222Y-74169814D01*
X223704958Y-74019026D01*
X237305042Y-74019026D01*
X237350778Y-74169814D01*
X237477316Y-74434944D01*
X237653146Y-74670293D01*
X237871512Y-74866817D01*
X237977770Y-74930000D01*
X237871512Y-74993183D01*
X237653146Y-75189707D01*
X237477316Y-75425056D01*
X237350778Y-75690186D01*
X237305042Y-75840974D01*
X237426183Y-76073000D01*
X238633000Y-76073000D01*
X238633000Y-73787000D01*
X238887000Y-73787000D01*
X238887000Y-76073000D01*
X241173000Y-76073000D01*
X241173000Y-73787000D01*
X241427000Y-73787000D01*
X241427000Y-76073000D01*
X242633817Y-76073000D01*
X242754958Y-75840974D01*
X242709222Y-75690186D01*
X242582684Y-75425056D01*
X242406854Y-75189707D01*
X242232526Y-75032816D01*
X252973000Y-75032816D01*
X252973000Y-75335184D01*
X253031989Y-75631743D01*
X253147701Y-75911095D01*
X253315688Y-76162505D01*
X253529495Y-76376312D01*
X253780905Y-76544299D01*
X254060257Y-76660011D01*
X254356816Y-76719000D01*
X254659184Y-76719000D01*
X254955743Y-76660011D01*
X255235095Y-76544299D01*
X255486505Y-76376312D01*
X255552944Y-76309873D01*
X255558498Y-76328180D01*
X255617463Y-76438494D01*
X255696815Y-76535185D01*
X255793506Y-76614537D01*
X255903820Y-76673502D01*
X256023518Y-76709812D01*
X256148000Y-76722072D01*
X256762250Y-76719000D01*
X256921000Y-76560250D01*
X256921000Y-75311000D01*
X257175000Y-75311000D01*
X257175000Y-76560250D01*
X257333750Y-76719000D01*
X257948000Y-76722072D01*
X258072482Y-76709812D01*
X258192180Y-76673502D01*
X258302494Y-76614537D01*
X258399185Y-76535185D01*
X258478537Y-76438494D01*
X258537502Y-76328180D01*
X258573812Y-76208482D01*
X258586072Y-76084000D01*
X258583000Y-75469750D01*
X258424250Y-75311000D01*
X257175000Y-75311000D01*
X256921000Y-75311000D01*
X256901000Y-75311000D01*
X256901000Y-75057000D01*
X256921000Y-75057000D01*
X256921000Y-73807750D01*
X257175000Y-73807750D01*
X257175000Y-75057000D01*
X258424250Y-75057000D01*
X258583000Y-74898250D01*
X258586072Y-74284000D01*
X258573812Y-74159518D01*
X258566573Y-74135653D01*
X262085952Y-74135653D01*
X262241962Y-74451214D01*
X262616745Y-74642020D01*
X263021551Y-74756044D01*
X263440824Y-74788902D01*
X263858451Y-74739334D01*
X264258383Y-74609243D01*
X264554038Y-74451214D01*
X264710048Y-74135653D01*
X263398000Y-72823605D01*
X262085952Y-74135653D01*
X258566573Y-74135653D01*
X258537502Y-74039820D01*
X258478537Y-73929506D01*
X258399185Y-73832815D01*
X258302494Y-73753463D01*
X258192180Y-73694498D01*
X258072482Y-73658188D01*
X257948000Y-73645928D01*
X257333750Y-73649000D01*
X257175000Y-73807750D01*
X256921000Y-73807750D01*
X256762250Y-73649000D01*
X256148000Y-73645928D01*
X256023518Y-73658188D01*
X255903820Y-73694498D01*
X255793506Y-73753463D01*
X255696815Y-73832815D01*
X255617463Y-73929506D01*
X255558498Y-74039820D01*
X255552944Y-74058127D01*
X255486505Y-73991688D01*
X255235095Y-73823701D01*
X254955743Y-73707989D01*
X254659184Y-73649000D01*
X254356816Y-73649000D01*
X254060257Y-73707989D01*
X253780905Y-73823701D01*
X253529495Y-73991688D01*
X253315688Y-74205495D01*
X253147701Y-74456905D01*
X253031989Y-74736257D01*
X252973000Y-75032816D01*
X242232526Y-75032816D01*
X242188488Y-74993183D01*
X242082230Y-74930000D01*
X242188488Y-74866817D01*
X242406854Y-74670293D01*
X242582684Y-74434944D01*
X242709222Y-74169814D01*
X242754958Y-74019026D01*
X242633817Y-73787000D01*
X241427000Y-73787000D01*
X241173000Y-73787000D01*
X238887000Y-73787000D01*
X238633000Y-73787000D01*
X237426183Y-73787000D01*
X237305042Y-74019026D01*
X223704958Y-74019026D01*
X223583817Y-73787000D01*
X222377000Y-73787000D01*
X222123000Y-73787000D01*
X219837000Y-73787000D01*
X219583000Y-73787000D01*
X218376183Y-73787000D01*
X218255042Y-74019026D01*
X204654958Y-74019026D01*
X204533817Y-73787000D01*
X203327000Y-73787000D01*
X203073000Y-73787000D01*
X200787000Y-73787000D01*
X200533000Y-73787000D01*
X199326183Y-73787000D01*
X199205042Y-74019026D01*
X185604958Y-74019026D01*
X185483817Y-73787000D01*
X184277000Y-73787000D01*
X184023000Y-73787000D01*
X181737000Y-73787000D01*
X181483000Y-73787000D01*
X180276183Y-73787000D01*
X180155042Y-74019026D01*
X166554958Y-74019026D01*
X166433817Y-73787000D01*
X165227000Y-73787000D01*
X164973000Y-73787000D01*
X162687000Y-73787000D01*
X162433000Y-73787000D01*
X161226183Y-73787000D01*
X161105042Y-74019026D01*
X147504958Y-74019026D01*
X147383817Y-73787000D01*
X146177000Y-73787000D01*
X145923000Y-73787000D01*
X143637000Y-73787000D01*
X143383000Y-73787000D01*
X142176183Y-73787000D01*
X142055042Y-74019026D01*
X128454958Y-74019026D01*
X128333817Y-73787000D01*
X127127000Y-73787000D01*
X126873000Y-73787000D01*
X124587000Y-73787000D01*
X124333000Y-73787000D01*
X123126183Y-73787000D01*
X123005042Y-74019026D01*
X109055959Y-74019026D01*
X108934818Y-73787000D01*
X107728001Y-73787000D01*
X107474001Y-73787000D01*
X105188001Y-73787000D01*
X104934001Y-73787000D01*
X103727184Y-73787000D01*
X103606043Y-74019026D01*
X91013409Y-74019026D01*
X91044902Y-73617176D01*
X90995334Y-73199549D01*
X90865243Y-72799617D01*
X90707214Y-72503962D01*
X90391653Y-72347952D01*
X89079605Y-73660000D01*
X88720395Y-73660000D01*
X87408347Y-72347952D01*
X87092786Y-72503962D01*
X86901980Y-72878745D01*
X86787956Y-73283551D01*
X86755098Y-73702824D01*
X80670000Y-73702824D01*
X80670000Y-72168347D01*
X87587952Y-72168347D01*
X88900000Y-73480395D01*
X90212048Y-72168347D01*
X90056038Y-71852786D01*
X89681255Y-71661980D01*
X89276449Y-71547956D01*
X88857176Y-71515098D01*
X88439549Y-71564666D01*
X88039617Y-71694757D01*
X87743962Y-71852786D01*
X87587952Y-72168347D01*
X80670000Y-72168347D01*
X80670000Y-68369721D01*
X86765000Y-68369721D01*
X86765000Y-68790279D01*
X86847047Y-69202756D01*
X87007988Y-69591302D01*
X87241637Y-69940983D01*
X87539017Y-70238363D01*
X87888698Y-70472012D01*
X88277244Y-70632953D01*
X88689721Y-70715000D01*
X89110279Y-70715000D01*
X89522756Y-70632953D01*
X89911302Y-70472012D01*
X90233988Y-70256400D01*
X103559329Y-70256400D01*
X103559329Y-71983600D01*
X103571589Y-72108082D01*
X103607899Y-72227780D01*
X103666864Y-72338094D01*
X103746216Y-72434785D01*
X103842907Y-72514137D01*
X103953221Y-72573102D01*
X104017575Y-72592624D01*
X103954147Y-72649707D01*
X103778317Y-72885056D01*
X103651779Y-73150186D01*
X103606043Y-73300974D01*
X103727184Y-73533000D01*
X104934001Y-73533000D01*
X104934001Y-73513000D01*
X105188001Y-73513000D01*
X105188001Y-73533000D01*
X107474001Y-73533000D01*
X107474001Y-73513000D01*
X107728001Y-73513000D01*
X107728001Y-73533000D01*
X108934818Y-73533000D01*
X109055959Y-73300974D01*
X109010223Y-73150186D01*
X108883685Y-72885056D01*
X108707855Y-72649707D01*
X108489489Y-72453183D01*
X108393091Y-72395863D01*
X108437607Y-72372069D01*
X108665798Y-72184797D01*
X108853070Y-71956606D01*
X108992226Y-71696264D01*
X109077917Y-71413777D01*
X109106852Y-71120000D01*
X109077917Y-70826223D01*
X108992226Y-70543736D01*
X108853070Y-70283394D01*
X108830917Y-70256400D01*
X122958328Y-70256400D01*
X122958328Y-71983600D01*
X122970588Y-72108082D01*
X123006898Y-72227780D01*
X123065863Y-72338094D01*
X123145215Y-72434785D01*
X123241906Y-72514137D01*
X123352220Y-72573102D01*
X123416574Y-72592624D01*
X123353146Y-72649707D01*
X123177316Y-72885056D01*
X123050778Y-73150186D01*
X123005042Y-73300974D01*
X123126183Y-73533000D01*
X124333000Y-73533000D01*
X124333000Y-73513000D01*
X124587000Y-73513000D01*
X124587000Y-73533000D01*
X126873000Y-73533000D01*
X126873000Y-73513000D01*
X127127000Y-73513000D01*
X127127000Y-73533000D01*
X128333817Y-73533000D01*
X128454958Y-73300974D01*
X128409222Y-73150186D01*
X128282684Y-72885056D01*
X128106854Y-72649707D01*
X127888488Y-72453183D01*
X127792090Y-72395863D01*
X127836606Y-72372069D01*
X128064797Y-72184797D01*
X128252069Y-71956606D01*
X128391225Y-71696264D01*
X128476916Y-71413777D01*
X128505851Y-71120000D01*
X128476916Y-70826223D01*
X128391225Y-70543736D01*
X128252069Y-70283394D01*
X128229916Y-70256400D01*
X142008328Y-70256400D01*
X142008328Y-71983600D01*
X142020588Y-72108082D01*
X142056898Y-72227780D01*
X142115863Y-72338094D01*
X142195215Y-72434785D01*
X142291906Y-72514137D01*
X142402220Y-72573102D01*
X142466574Y-72592624D01*
X142403146Y-72649707D01*
X142227316Y-72885056D01*
X142100778Y-73150186D01*
X142055042Y-73300974D01*
X142176183Y-73533000D01*
X143383000Y-73533000D01*
X143383000Y-73513000D01*
X143637000Y-73513000D01*
X143637000Y-73533000D01*
X145923000Y-73533000D01*
X145923000Y-73513000D01*
X146177000Y-73513000D01*
X146177000Y-73533000D01*
X147383817Y-73533000D01*
X147504958Y-73300974D01*
X147459222Y-73150186D01*
X147332684Y-72885056D01*
X147156854Y-72649707D01*
X146938488Y-72453183D01*
X146842090Y-72395863D01*
X146886606Y-72372069D01*
X147114797Y-72184797D01*
X147302069Y-71956606D01*
X147441225Y-71696264D01*
X147526916Y-71413777D01*
X147555851Y-71120000D01*
X147526916Y-70826223D01*
X147441225Y-70543736D01*
X147302069Y-70283394D01*
X147279916Y-70256400D01*
X161058328Y-70256400D01*
X161058328Y-71983600D01*
X161070588Y-72108082D01*
X161106898Y-72227780D01*
X161165863Y-72338094D01*
X161245215Y-72434785D01*
X161341906Y-72514137D01*
X161452220Y-72573102D01*
X161516574Y-72592624D01*
X161453146Y-72649707D01*
X161277316Y-72885056D01*
X161150778Y-73150186D01*
X161105042Y-73300974D01*
X161226183Y-73533000D01*
X162433000Y-73533000D01*
X162433000Y-73513000D01*
X162687000Y-73513000D01*
X162687000Y-73533000D01*
X164973000Y-73533000D01*
X164973000Y-73513000D01*
X165227000Y-73513000D01*
X165227000Y-73533000D01*
X166433817Y-73533000D01*
X166554958Y-73300974D01*
X166509222Y-73150186D01*
X166382684Y-72885056D01*
X166206854Y-72649707D01*
X165988488Y-72453183D01*
X165892090Y-72395863D01*
X165936606Y-72372069D01*
X166164797Y-72184797D01*
X166352069Y-71956606D01*
X166491225Y-71696264D01*
X166576916Y-71413777D01*
X166605851Y-71120000D01*
X166576916Y-70826223D01*
X166491225Y-70543736D01*
X166352069Y-70283394D01*
X166329916Y-70256400D01*
X180108328Y-70256400D01*
X180108328Y-71983600D01*
X180120588Y-72108082D01*
X180156898Y-72227780D01*
X180215863Y-72338094D01*
X180295215Y-72434785D01*
X180391906Y-72514137D01*
X180502220Y-72573102D01*
X180566574Y-72592624D01*
X180503146Y-72649707D01*
X180327316Y-72885056D01*
X180200778Y-73150186D01*
X180155042Y-73300974D01*
X180276183Y-73533000D01*
X181483000Y-73533000D01*
X181483000Y-73513000D01*
X181737000Y-73513000D01*
X181737000Y-73533000D01*
X184023000Y-73533000D01*
X184023000Y-73513000D01*
X184277000Y-73513000D01*
X184277000Y-73533000D01*
X185483817Y-73533000D01*
X185604958Y-73300974D01*
X185559222Y-73150186D01*
X185432684Y-72885056D01*
X185256854Y-72649707D01*
X185038488Y-72453183D01*
X184942090Y-72395863D01*
X184986606Y-72372069D01*
X185214797Y-72184797D01*
X185402069Y-71956606D01*
X185541225Y-71696264D01*
X185626916Y-71413777D01*
X185655851Y-71120000D01*
X185626916Y-70826223D01*
X185541225Y-70543736D01*
X185402069Y-70283394D01*
X185379916Y-70256400D01*
X199158328Y-70256400D01*
X199158328Y-71983600D01*
X199170588Y-72108082D01*
X199206898Y-72227780D01*
X199265863Y-72338094D01*
X199345215Y-72434785D01*
X199441906Y-72514137D01*
X199552220Y-72573102D01*
X199616574Y-72592624D01*
X199553146Y-72649707D01*
X199377316Y-72885056D01*
X199250778Y-73150186D01*
X199205042Y-73300974D01*
X199326183Y-73533000D01*
X200533000Y-73533000D01*
X200533000Y-73513000D01*
X200787000Y-73513000D01*
X200787000Y-73533000D01*
X203073000Y-73533000D01*
X203073000Y-73513000D01*
X203327000Y-73513000D01*
X203327000Y-73533000D01*
X204533817Y-73533000D01*
X204654958Y-73300974D01*
X204609222Y-73150186D01*
X204482684Y-72885056D01*
X204306854Y-72649707D01*
X204088488Y-72453183D01*
X203992090Y-72395863D01*
X204036606Y-72372069D01*
X204264797Y-72184797D01*
X204452069Y-71956606D01*
X204591225Y-71696264D01*
X204676916Y-71413777D01*
X204705851Y-71120000D01*
X204676916Y-70826223D01*
X204591225Y-70543736D01*
X204452069Y-70283394D01*
X204429916Y-70256400D01*
X218208328Y-70256400D01*
X218208328Y-71983600D01*
X218220588Y-72108082D01*
X218256898Y-72227780D01*
X218315863Y-72338094D01*
X218395215Y-72434785D01*
X218491906Y-72514137D01*
X218602220Y-72573102D01*
X218666574Y-72592624D01*
X218603146Y-72649707D01*
X218427316Y-72885056D01*
X218300778Y-73150186D01*
X218255042Y-73300974D01*
X218376183Y-73533000D01*
X219583000Y-73533000D01*
X219583000Y-73513000D01*
X219837000Y-73513000D01*
X219837000Y-73533000D01*
X222123000Y-73533000D01*
X222123000Y-73513000D01*
X222377000Y-73513000D01*
X222377000Y-73533000D01*
X223583817Y-73533000D01*
X223704958Y-73300974D01*
X223659222Y-73150186D01*
X223532684Y-72885056D01*
X223356854Y-72649707D01*
X223138488Y-72453183D01*
X223042090Y-72395863D01*
X223086606Y-72372069D01*
X223314797Y-72184797D01*
X223502069Y-71956606D01*
X223641225Y-71696264D01*
X223726916Y-71413777D01*
X223755851Y-71120000D01*
X223726916Y-70826223D01*
X223641225Y-70543736D01*
X223502069Y-70283394D01*
X223479916Y-70256400D01*
X237258328Y-70256400D01*
X237258328Y-71983600D01*
X237270588Y-72108082D01*
X237306898Y-72227780D01*
X237365863Y-72338094D01*
X237445215Y-72434785D01*
X237541906Y-72514137D01*
X237652220Y-72573102D01*
X237716574Y-72592624D01*
X237653146Y-72649707D01*
X237477316Y-72885056D01*
X237350778Y-73150186D01*
X237305042Y-73300974D01*
X237426183Y-73533000D01*
X238633000Y-73533000D01*
X238633000Y-73513000D01*
X238887000Y-73513000D01*
X238887000Y-73533000D01*
X241173000Y-73533000D01*
X241173000Y-73513000D01*
X241427000Y-73513000D01*
X241427000Y-73533000D01*
X242633817Y-73533000D01*
X242754958Y-73300974D01*
X242709222Y-73150186D01*
X242582684Y-72885056D01*
X242434585Y-72686824D01*
X261253098Y-72686824D01*
X261302666Y-73104451D01*
X261432757Y-73504383D01*
X261590786Y-73800038D01*
X261906347Y-73956048D01*
X263218395Y-72644000D01*
X263577605Y-72644000D01*
X264889653Y-73956048D01*
X265205214Y-73800038D01*
X265396020Y-73425255D01*
X265510044Y-73020449D01*
X265542902Y-72601176D01*
X265493334Y-72183549D01*
X265363243Y-71783617D01*
X265205214Y-71487962D01*
X264889653Y-71331952D01*
X263577605Y-72644000D01*
X263218395Y-72644000D01*
X261906347Y-71331952D01*
X261590786Y-71487962D01*
X261399980Y-71862745D01*
X261285956Y-72267551D01*
X261253098Y-72686824D01*
X242434585Y-72686824D01*
X242406854Y-72649707D01*
X242188488Y-72453183D01*
X242092090Y-72395863D01*
X242136606Y-72372069D01*
X242364797Y-72184797D01*
X242552069Y-71956606D01*
X242691225Y-71696264D01*
X242776916Y-71413777D01*
X242802665Y-71152347D01*
X262085952Y-71152347D01*
X263398000Y-72464395D01*
X264710048Y-71152347D01*
X264554038Y-70836786D01*
X264179255Y-70645980D01*
X263774449Y-70531956D01*
X263355176Y-70499098D01*
X262937549Y-70548666D01*
X262537617Y-70678757D01*
X262241962Y-70836786D01*
X262085952Y-71152347D01*
X242802665Y-71152347D01*
X242805851Y-71120000D01*
X242776916Y-70826223D01*
X242691225Y-70543736D01*
X242552069Y-70283394D01*
X242364797Y-70055203D01*
X242136606Y-69867931D01*
X241876264Y-69728775D01*
X241593777Y-69643084D01*
X241373619Y-69621400D01*
X241226381Y-69621400D01*
X241006223Y-69643084D01*
X240723736Y-69728775D01*
X240463394Y-69867931D01*
X240235203Y-70055203D01*
X240228586Y-70063265D01*
X240213102Y-70012220D01*
X240154137Y-69901906D01*
X240074785Y-69805215D01*
X239978094Y-69725863D01*
X239867780Y-69666898D01*
X239748082Y-69630588D01*
X239623600Y-69618328D01*
X237896400Y-69618328D01*
X237771918Y-69630588D01*
X237652220Y-69666898D01*
X237541906Y-69725863D01*
X237445215Y-69805215D01*
X237365863Y-69901906D01*
X237306898Y-70012220D01*
X237270588Y-70131918D01*
X237258328Y-70256400D01*
X223479916Y-70256400D01*
X223314797Y-70055203D01*
X223086606Y-69867931D01*
X222826264Y-69728775D01*
X222543777Y-69643084D01*
X222323619Y-69621400D01*
X222176381Y-69621400D01*
X221956223Y-69643084D01*
X221673736Y-69728775D01*
X221413394Y-69867931D01*
X221185203Y-70055203D01*
X221178586Y-70063265D01*
X221163102Y-70012220D01*
X221104137Y-69901906D01*
X221024785Y-69805215D01*
X220928094Y-69725863D01*
X220817780Y-69666898D01*
X220698082Y-69630588D01*
X220573600Y-69618328D01*
X218846400Y-69618328D01*
X218721918Y-69630588D01*
X218602220Y-69666898D01*
X218491906Y-69725863D01*
X218395215Y-69805215D01*
X218315863Y-69901906D01*
X218256898Y-70012220D01*
X218220588Y-70131918D01*
X218208328Y-70256400D01*
X204429916Y-70256400D01*
X204264797Y-70055203D01*
X204036606Y-69867931D01*
X203776264Y-69728775D01*
X203493777Y-69643084D01*
X203273619Y-69621400D01*
X203126381Y-69621400D01*
X202906223Y-69643084D01*
X202623736Y-69728775D01*
X202363394Y-69867931D01*
X202135203Y-70055203D01*
X202128586Y-70063265D01*
X202113102Y-70012220D01*
X202054137Y-69901906D01*
X201974785Y-69805215D01*
X201878094Y-69725863D01*
X201767780Y-69666898D01*
X201648082Y-69630588D01*
X201523600Y-69618328D01*
X199796400Y-69618328D01*
X199671918Y-69630588D01*
X199552220Y-69666898D01*
X199441906Y-69725863D01*
X199345215Y-69805215D01*
X199265863Y-69901906D01*
X199206898Y-70012220D01*
X199170588Y-70131918D01*
X199158328Y-70256400D01*
X185379916Y-70256400D01*
X185214797Y-70055203D01*
X184986606Y-69867931D01*
X184726264Y-69728775D01*
X184443777Y-69643084D01*
X184223619Y-69621400D01*
X184076381Y-69621400D01*
X183856223Y-69643084D01*
X183573736Y-69728775D01*
X183313394Y-69867931D01*
X183085203Y-70055203D01*
X183078586Y-70063265D01*
X183063102Y-70012220D01*
X183004137Y-69901906D01*
X182924785Y-69805215D01*
X182828094Y-69725863D01*
X182717780Y-69666898D01*
X182598082Y-69630588D01*
X182473600Y-69618328D01*
X180746400Y-69618328D01*
X180621918Y-69630588D01*
X180502220Y-69666898D01*
X180391906Y-69725863D01*
X180295215Y-69805215D01*
X180215863Y-69901906D01*
X180156898Y-70012220D01*
X180120588Y-70131918D01*
X180108328Y-70256400D01*
X166329916Y-70256400D01*
X166164797Y-70055203D01*
X165936606Y-69867931D01*
X165676264Y-69728775D01*
X165393777Y-69643084D01*
X165173619Y-69621400D01*
X165026381Y-69621400D01*
X164806223Y-69643084D01*
X164523736Y-69728775D01*
X164263394Y-69867931D01*
X164035203Y-70055203D01*
X164028586Y-70063265D01*
X164013102Y-70012220D01*
X163954137Y-69901906D01*
X163874785Y-69805215D01*
X163778094Y-69725863D01*
X163667780Y-69666898D01*
X163548082Y-69630588D01*
X163423600Y-69618328D01*
X161696400Y-69618328D01*
X161571918Y-69630588D01*
X161452220Y-69666898D01*
X161341906Y-69725863D01*
X161245215Y-69805215D01*
X161165863Y-69901906D01*
X161106898Y-70012220D01*
X161070588Y-70131918D01*
X161058328Y-70256400D01*
X147279916Y-70256400D01*
X147114797Y-70055203D01*
X146886606Y-69867931D01*
X146626264Y-69728775D01*
X146343777Y-69643084D01*
X146123619Y-69621400D01*
X145976381Y-69621400D01*
X145756223Y-69643084D01*
X145473736Y-69728775D01*
X145213394Y-69867931D01*
X144985203Y-70055203D01*
X144978586Y-70063265D01*
X144963102Y-70012220D01*
X144904137Y-69901906D01*
X144824785Y-69805215D01*
X144728094Y-69725863D01*
X144617780Y-69666898D01*
X144498082Y-69630588D01*
X144373600Y-69618328D01*
X142646400Y-69618328D01*
X142521918Y-69630588D01*
X142402220Y-69666898D01*
X142291906Y-69725863D01*
X142195215Y-69805215D01*
X142115863Y-69901906D01*
X142056898Y-70012220D01*
X142020588Y-70131918D01*
X142008328Y-70256400D01*
X128229916Y-70256400D01*
X128064797Y-70055203D01*
X127836606Y-69867931D01*
X127576264Y-69728775D01*
X127293777Y-69643084D01*
X127073619Y-69621400D01*
X126926381Y-69621400D01*
X126706223Y-69643084D01*
X126423736Y-69728775D01*
X126163394Y-69867931D01*
X125935203Y-70055203D01*
X125928586Y-70063265D01*
X125913102Y-70012220D01*
X125854137Y-69901906D01*
X125774785Y-69805215D01*
X125678094Y-69725863D01*
X125567780Y-69666898D01*
X125448082Y-69630588D01*
X125323600Y-69618328D01*
X123596400Y-69618328D01*
X123471918Y-69630588D01*
X123352220Y-69666898D01*
X123241906Y-69725863D01*
X123145215Y-69805215D01*
X123065863Y-69901906D01*
X123006898Y-70012220D01*
X122970588Y-70131918D01*
X122958328Y-70256400D01*
X108830917Y-70256400D01*
X108665798Y-70055203D01*
X108437607Y-69867931D01*
X108177265Y-69728775D01*
X107894778Y-69643084D01*
X107674620Y-69621400D01*
X107527382Y-69621400D01*
X107307224Y-69643084D01*
X107024737Y-69728775D01*
X106764395Y-69867931D01*
X106536204Y-70055203D01*
X106529587Y-70063265D01*
X106514103Y-70012220D01*
X106455138Y-69901906D01*
X106375786Y-69805215D01*
X106279095Y-69725863D01*
X106168781Y-69666898D01*
X106049083Y-69630588D01*
X105924601Y-69618328D01*
X104197401Y-69618328D01*
X104072919Y-69630588D01*
X103953221Y-69666898D01*
X103842907Y-69725863D01*
X103746216Y-69805215D01*
X103666864Y-69901906D01*
X103607899Y-70012220D01*
X103571589Y-70131918D01*
X103559329Y-70256400D01*
X90233988Y-70256400D01*
X90260983Y-70238363D01*
X90558363Y-69940983D01*
X90792012Y-69591302D01*
X90952953Y-69202756D01*
X91035000Y-68790279D01*
X91035000Y-68369721D01*
X90952953Y-67957244D01*
X90792012Y-67568698D01*
X90687856Y-67412816D01*
X252973000Y-67412816D01*
X252973000Y-67715184D01*
X253031989Y-68011743D01*
X253147701Y-68291095D01*
X253315688Y-68542505D01*
X253529495Y-68756312D01*
X253780905Y-68924299D01*
X254060257Y-69040011D01*
X254356816Y-69099000D01*
X254659184Y-69099000D01*
X254955743Y-69040011D01*
X255235095Y-68924299D01*
X255486505Y-68756312D01*
X255552944Y-68689873D01*
X255558498Y-68708180D01*
X255617463Y-68818494D01*
X255696815Y-68915185D01*
X255793506Y-68994537D01*
X255903820Y-69053502D01*
X256023518Y-69089812D01*
X256148000Y-69102072D01*
X257948000Y-69102072D01*
X258072482Y-69089812D01*
X258192180Y-69053502D01*
X258302494Y-68994537D01*
X258399185Y-68915185D01*
X258478537Y-68818494D01*
X258537502Y-68708180D01*
X258573812Y-68588482D01*
X258586072Y-68464000D01*
X258586072Y-66664000D01*
X258573812Y-66539518D01*
X258537502Y-66419820D01*
X258478537Y-66309506D01*
X258399185Y-66212815D01*
X258302494Y-66133463D01*
X258192180Y-66074498D01*
X258157573Y-66064000D01*
X261259928Y-66064000D01*
X261259928Y-69064000D01*
X261272188Y-69188482D01*
X261308498Y-69308180D01*
X261367463Y-69418494D01*
X261446815Y-69515185D01*
X261543506Y-69594537D01*
X261653820Y-69653502D01*
X261773518Y-69689812D01*
X261898000Y-69702072D01*
X264898000Y-69702072D01*
X265022482Y-69689812D01*
X265142180Y-69653502D01*
X265252494Y-69594537D01*
X265349185Y-69515185D01*
X265428537Y-69418494D01*
X265487502Y-69308180D01*
X265523812Y-69188482D01*
X265536072Y-69064000D01*
X265536072Y-66064000D01*
X265523812Y-65939518D01*
X265487502Y-65819820D01*
X265428537Y-65709506D01*
X265349185Y-65612815D01*
X265252494Y-65533463D01*
X265142180Y-65474498D01*
X265022482Y-65438188D01*
X264898000Y-65425928D01*
X261898000Y-65425928D01*
X261773518Y-65438188D01*
X261653820Y-65474498D01*
X261543506Y-65533463D01*
X261446815Y-65612815D01*
X261367463Y-65709506D01*
X261308498Y-65819820D01*
X261272188Y-65939518D01*
X261259928Y-66064000D01*
X258157573Y-66064000D01*
X258072482Y-66038188D01*
X257948000Y-66025928D01*
X256148000Y-66025928D01*
X256023518Y-66038188D01*
X255903820Y-66074498D01*
X255793506Y-66133463D01*
X255696815Y-66212815D01*
X255617463Y-66309506D01*
X255558498Y-66419820D01*
X255552944Y-66438127D01*
X255486505Y-66371688D01*
X255235095Y-66203701D01*
X254955743Y-66087989D01*
X254659184Y-66029000D01*
X254356816Y-66029000D01*
X254060257Y-66087989D01*
X253780905Y-66203701D01*
X253529495Y-66371688D01*
X253315688Y-66585495D01*
X253147701Y-66836905D01*
X253031989Y-67116257D01*
X252973000Y-67412816D01*
X90687856Y-67412816D01*
X90558363Y-67219017D01*
X90260983Y-66921637D01*
X89911302Y-66687988D01*
X89522756Y-66527047D01*
X89110279Y-66445000D01*
X88689721Y-66445000D01*
X88277244Y-66527047D01*
X87888698Y-66687988D01*
X87539017Y-66921637D01*
X87241637Y-67219017D01*
X87007988Y-67568698D01*
X86847047Y-67957244D01*
X86765000Y-68369721D01*
X80670000Y-68369721D01*
X80670000Y-64160000D01*
X268580000Y-64160000D01*
X268580001Y-95860000D01*
X268580001Y-95860000D01*
G37*
X268580001Y-95860000D02*
X80670000Y-95860000D01*
X80670000Y-92940000D01*
X81681928Y-92940000D01*
X81694188Y-93064482D01*
X81730498Y-93184180D01*
X81789463Y-93294494D01*
X81868815Y-93391185D01*
X81965506Y-93470537D01*
X82075820Y-93529502D01*
X82195518Y-93565812D01*
X82320000Y-93578072D01*
X83534250Y-93575000D01*
X83693000Y-93416250D01*
X83693000Y-91567000D01*
X83947000Y-91567000D01*
X83947000Y-93416250D01*
X84105750Y-93575000D01*
X85320000Y-93578072D01*
X85444482Y-93565812D01*
X85564180Y-93529502D01*
X85674494Y-93470537D01*
X85771185Y-93391185D01*
X85850537Y-93294494D01*
X85909502Y-93184180D01*
X85945812Y-93064482D01*
X85958072Y-92940000D01*
X85955000Y-91725750D01*
X85796250Y-91567000D01*
X83947000Y-91567000D01*
X83693000Y-91567000D01*
X81843750Y-91567000D01*
X81685000Y-91725750D01*
X81681928Y-92940000D01*
X80670000Y-92940000D01*
X80670000Y-89940000D01*
X81681928Y-89940000D01*
X81685000Y-91154250D01*
X81843750Y-91313000D01*
X83693000Y-91313000D01*
X83693000Y-89463750D01*
X83947000Y-89463750D01*
X83947000Y-91313000D01*
X85796250Y-91313000D01*
X85879529Y-91229721D01*
X86765000Y-91229721D01*
X86765000Y-91650279D01*
X86847047Y-92062756D01*
X87007988Y-92451302D01*
X87241637Y-92800983D01*
X87539017Y-93098363D01*
X87888698Y-93332012D01*
X88277244Y-93492953D01*
X88689721Y-93575000D01*
X89110279Y-93575000D01*
X89522756Y-93492953D01*
X89911302Y-93332012D01*
X90260983Y-93098363D01*
X90558363Y-92800983D01*
X90792012Y-92451302D01*
X90952953Y-92062756D01*
X91035000Y-91650279D01*
X91035000Y-91229721D01*
X91845000Y-91229721D01*
X91845000Y-91650279D01*
X91927047Y-92062756D01*
X92087988Y-92451302D01*
X92321637Y-92800983D01*
X92619017Y-93098363D01*
X92968698Y-93332012D01*
X93357244Y-93492953D01*
X93769721Y-93575000D01*
X94190279Y-93575000D01*
X94602756Y-93492953D01*
X94991302Y-93332012D01*
X95340983Y-93098363D01*
X95638363Y-92800983D01*
X95872012Y-92451302D01*
X96032953Y-92062756D01*
X96115000Y-91650279D01*
X96115000Y-91229721D01*
X96032953Y-90817244D01*
X95872012Y-90428698D01*
X95638363Y-90079017D01*
X95340983Y-89781637D01*
X94991302Y-89547988D01*
X94602756Y-89387047D01*
X94190279Y-89305000D01*
X93769721Y-89305000D01*
X93357244Y-89387047D01*
X92968698Y-89547988D01*
X92619017Y-89781637D01*
X92321637Y-90079017D01*
X92087988Y-90428698D01*
X91927047Y-90817244D01*
X91845000Y-91229721D01*
X91035000Y-91229721D01*
X90952953Y-90817244D01*
X90792012Y-90428698D01*
X90558363Y-90079017D01*
X90260983Y-89781637D01*
X89911302Y-89547988D01*
X89522756Y-89387047D01*
X89110279Y-89305000D01*
X88689721Y-89305000D01*
X88277244Y-89387047D01*
X87888698Y-89547988D01*
X87539017Y-89781637D01*
X87241637Y-90079017D01*
X87007988Y-90428698D01*
X86847047Y-90817244D01*
X86765000Y-91229721D01*
X85879529Y-91229721D01*
X85955000Y-91154250D01*
X85958072Y-89940000D01*
X85945812Y-89815518D01*
X85909502Y-89695820D01*
X85850537Y-89585506D01*
X85771185Y-89488815D01*
X85674494Y-89409463D01*
X85564180Y-89350498D01*
X85444482Y-89314188D01*
X85320000Y-89301928D01*
X84105750Y-89305000D01*
X83947000Y-89463750D01*
X83693000Y-89463750D01*
X83534250Y-89305000D01*
X82320000Y-89301928D01*
X82195518Y-89314188D01*
X82075820Y-89350498D01*
X81965506Y-89409463D01*
X81868815Y-89488815D01*
X81789463Y-89585506D01*
X81730498Y-89695820D01*
X81694188Y-89815518D01*
X81681928Y-89940000D01*
X80670000Y-89940000D01*
X80670000Y-88900000D01*
X97567815Y-88900000D01*
X97596487Y-89191111D01*
X97681401Y-89471034D01*
X97819294Y-89729014D01*
X98004866Y-89955134D01*
X98230986Y-90140706D01*
X98285791Y-90170000D01*
X98230986Y-90199294D01*
X98004866Y-90384866D01*
X97819294Y-90610986D01*
X97681401Y-90868966D01*
X97596487Y-91148889D01*
X97567815Y-91440000D01*
X97596487Y-91731111D01*
X97681401Y-92011034D01*
X97819294Y-92269014D01*
X98004866Y-92495134D01*
X98230986Y-92680706D01*
X98488966Y-92818599D01*
X98768889Y-92903513D01*
X98987050Y-92925000D01*
X99132950Y-92925000D01*
X99351111Y-92903513D01*
X99631034Y-92818599D01*
X99889014Y-92680706D01*
X100115134Y-92495134D01*
X100300706Y-92269014D01*
X100438599Y-92011034D01*
X100523513Y-91731111D01*
X100552185Y-91440000D01*
X100523513Y-91148889D01*
X100438599Y-90868966D01*
X100300706Y-90610986D01*
X100115134Y-90384866D01*
X99889014Y-90199294D01*
X99834209Y-90170000D01*
X99889014Y-90140706D01*
X100115134Y-89955134D01*
X100300706Y-89729014D01*
X100438599Y-89471034D01*
X100523513Y-89191111D01*
X100552185Y-88900000D01*
X100523513Y-88608889D01*
X100438599Y-88328966D01*
X100300706Y-88070986D01*
X100115134Y-87844866D01*
X100085313Y-87820393D01*
X100154180Y-87799502D01*
X100264494Y-87740537D01*
X100361185Y-87661185D01*
X100440537Y-87564494D01*
X100499502Y-87454180D01*
X100535812Y-87334482D01*
X100548072Y-87210000D01*
X100545000Y-86645750D01*
X100386250Y-86487000D01*
X99187000Y-86487000D01*
X99187000Y-86507000D01*
X98933000Y-86507000D01*
X98933000Y-86487000D01*
X97733750Y-86487000D01*
X97575000Y-86645750D01*
X97571928Y-87210000D01*
X97584188Y-87334482D01*
X97620498Y-87454180D01*
X97679463Y-87564494D01*
X97758815Y-87661185D01*
X97855506Y-87740537D01*
X97965820Y-87799502D01*
X98034687Y-87820393D01*
X98004866Y-87844866D01*
X97819294Y-88070986D01*
X97681401Y-88328966D01*
X97596487Y-88608889D01*
X97567815Y-88900000D01*
X80670000Y-88900000D01*
X80670000Y-82320000D01*
X86761928Y-82320000D01*
X86761928Y-85320000D01*
X86774188Y-85444482D01*
X86810498Y-85564180D01*
X86869463Y-85674494D01*
X86948815Y-85771185D01*
X87045506Y-85850537D01*
X87155820Y-85909502D01*
X87275518Y-85945812D01*
X87400000Y-85958072D01*
X90400000Y-85958072D01*
X90524482Y-85945812D01*
X90644180Y-85909502D01*
X90754494Y-85850537D01*
X90851185Y-85771185D01*
X90930537Y-85674494D01*
X90989502Y-85564180D01*
X91005937Y-85510000D01*
X97571928Y-85510000D01*
X97575000Y-86074250D01*
X97733750Y-86233000D01*
X98933000Y-86233000D01*
X98933000Y-85033750D01*
X99187000Y-85033750D01*
X99187000Y-86233000D01*
X100386250Y-86233000D01*
X100545000Y-86074250D01*
X100548072Y-85510000D01*
X100535812Y-85385518D01*
X100499502Y-85265820D01*
X100440537Y-85155506D01*
X100361185Y-85058815D01*
X100264494Y-84979463D01*
X100154180Y-84920498D01*
X100034482Y-84884188D01*
X99910000Y-84871928D01*
X99345750Y-84875000D01*
X99187000Y-85033750D01*
X98933000Y-85033750D01*
X98774250Y-84875000D01*
X98210000Y-84871928D01*
X98085518Y-84884188D01*
X97965820Y-84920498D01*
X97855506Y-84979463D01*
X97758815Y-85058815D01*
X97679463Y-85155506D01*
X97620498Y-85265820D01*
X97584188Y-85385518D01*
X97571928Y-85510000D01*
X91005937Y-85510000D01*
X91025812Y-85444482D01*
X91038072Y-85320000D01*
X91038072Y-82320000D01*
X91025812Y-82195518D01*
X90989502Y-82075820D01*
X90930537Y-81965506D01*
X90851185Y-81868815D01*
X90754494Y-81789463D01*
X90644180Y-81730498D01*
X90524482Y-81694188D01*
X90400000Y-81681928D01*
X87400000Y-81681928D01*
X87275518Y-81694188D01*
X87155820Y-81730498D01*
X87045506Y-81789463D01*
X86948815Y-81868815D01*
X86869463Y-81965506D01*
X86810498Y-82075820D01*
X86774188Y-82195518D01*
X86761928Y-82320000D01*
X80670000Y-82320000D01*
X80670000Y-81280000D01*
X103555150Y-81280000D01*
X103584085Y-81573777D01*
X103669776Y-81856264D01*
X103808932Y-82116606D01*
X103996204Y-82344797D01*
X104224395Y-82532069D01*
X104257941Y-82550000D01*
X104224395Y-82567931D01*
X103996204Y-82755203D01*
X103808932Y-82983394D01*
X103669776Y-83243736D01*
X103584085Y-83526223D01*
X103555150Y-83820000D01*
X103584085Y-84113777D01*
X103669776Y-84396264D01*
X103808932Y-84656606D01*
X103996204Y-84884797D01*
X104224395Y-85072069D01*
X104257941Y-85090000D01*
X104224395Y-85107931D01*
X103996204Y-85295203D01*
X103808932Y-85523394D01*
X103669776Y-85783736D01*
X103584085Y-86066223D01*
X103555150Y-86360000D01*
X103584085Y-86653777D01*
X103669776Y-86936264D01*
X103808932Y-87196606D01*
X103996204Y-87424797D01*
X104224395Y-87612069D01*
X104257941Y-87630000D01*
X104224395Y-87647931D01*
X103996204Y-87835203D01*
X103808932Y-88063394D01*
X103669776Y-88323736D01*
X103584085Y-88606223D01*
X103555150Y-88900000D01*
X103584085Y-89193777D01*
X103669776Y-89476264D01*
X103808932Y-89736606D01*
X103996204Y-89964797D01*
X104224395Y-90152069D01*
X104484737Y-90291225D01*
X104767224Y-90376916D01*
X104987382Y-90398600D01*
X105134620Y-90398600D01*
X105354778Y-90376916D01*
X105637265Y-90291225D01*
X105897607Y-90152069D01*
X106125798Y-89964797D01*
X106313070Y-89736606D01*
X106331001Y-89703060D01*
X106348932Y-89736606D01*
X106536204Y-89964797D01*
X106764395Y-90152069D01*
X107024737Y-90291225D01*
X107307224Y-90376916D01*
X107527382Y-90398600D01*
X107674620Y-90398600D01*
X107894778Y-90376916D01*
X108177265Y-90291225D01*
X108437607Y-90152069D01*
X108665798Y-89964797D01*
X108853070Y-89736606D01*
X108992226Y-89476264D01*
X109077917Y-89193777D01*
X109106852Y-88900000D01*
X109077917Y-88606223D01*
X108992226Y-88323736D01*
X108853070Y-88063394D01*
X108665798Y-87835203D01*
X108437607Y-87647931D01*
X108404061Y-87630000D01*
X108437607Y-87612069D01*
X108665798Y-87424797D01*
X108853070Y-87196606D01*
X108992226Y-86936264D01*
X109077917Y-86653777D01*
X109106852Y-86360000D01*
X109077917Y-86066223D01*
X108992226Y-85783736D01*
X108853070Y-85523394D01*
X108665798Y-85295203D01*
X108437607Y-85107931D01*
X108404061Y-85090000D01*
X108437607Y-85072069D01*
X108665798Y-84884797D01*
X108853070Y-84656606D01*
X108992226Y-84396264D01*
X109077917Y-84113777D01*
X109106852Y-83820000D01*
X109077917Y-83526223D01*
X108992226Y-83243736D01*
X108853070Y-82983394D01*
X108665798Y-82755203D01*
X108437607Y-82567931D01*
X108404061Y-82550000D01*
X108437607Y-82532069D01*
X108665798Y-82344797D01*
X108853070Y-82116606D01*
X108992226Y-81856264D01*
X109077917Y-81573777D01*
X109106852Y-81280000D01*
X122954149Y-81280000D01*
X122983084Y-81573777D01*
X123068775Y-81856264D01*
X123207931Y-82116606D01*
X123395203Y-82344797D01*
X123623394Y-82532069D01*
X123656940Y-82550000D01*
X123623394Y-82567931D01*
X123395203Y-82755203D01*
X123207931Y-82983394D01*
X123068775Y-83243736D01*
X122983084Y-83526223D01*
X122954149Y-83820000D01*
X122983084Y-84113777D01*
X123068775Y-84396264D01*
X123207931Y-84656606D01*
X123395203Y-84884797D01*
X123623394Y-85072069D01*
X123656940Y-85090000D01*
X123623394Y-85107931D01*
X123395203Y-85295203D01*
X123207931Y-85523394D01*
X123068775Y-85783736D01*
X122983084Y-86066223D01*
X122954149Y-86360000D01*
X122983084Y-86653777D01*
X123068775Y-86936264D01*
X123207931Y-87196606D01*
X123395203Y-87424797D01*
X123623394Y-87612069D01*
X123656940Y-87630000D01*
X123623394Y-87647931D01*
X123395203Y-87835203D01*
X123207931Y-88063394D01*
X123068775Y-88323736D01*
X122983084Y-88606223D01*
X122954149Y-88900000D01*
X122983084Y-89193777D01*
X123068775Y-89476264D01*
X123207931Y-89736606D01*
X123395203Y-89964797D01*
X123623394Y-90152069D01*
X123883736Y-90291225D01*
X124166223Y-90376916D01*
X124386381Y-90398600D01*
X124533619Y-90398600D01*
X124753777Y-90376916D01*
X125036264Y-90291225D01*
X125296606Y-90152069D01*
X125524797Y-89964797D01*
X125712069Y-89736606D01*
X125730000Y-89703060D01*
X125747931Y-89736606D01*
X125935203Y-89964797D01*
X126163394Y-90152069D01*
X126423736Y-90291225D01*
X126706223Y-90376916D01*
X126926381Y-90398600D01*
X127073619Y-90398600D01*
X127293777Y-90376916D01*
X127576264Y-90291225D01*
X127836606Y-90152069D01*
X128064797Y-89964797D01*
X128252069Y-89736606D01*
X128391225Y-89476264D01*
X128476916Y-89193777D01*
X128505851Y-88900000D01*
X128476916Y-88606223D01*
X128391225Y-88323736D01*
X128252069Y-88063394D01*
X128064797Y-87835203D01*
X127836606Y-87647931D01*
X127803060Y-87630000D01*
X127836606Y-87612069D01*
X128064797Y-87424797D01*
X128252069Y-87196606D01*
X128391225Y-86936264D01*
X128476916Y-86653777D01*
X128505851Y-86360000D01*
X128476916Y-86066223D01*
X128391225Y-85783736D01*
X128252069Y-85523394D01*
X128064797Y-85295203D01*
X127836606Y-85107931D01*
X127803060Y-85090000D01*
X127836606Y-85072069D01*
X128064797Y-84884797D01*
X128252069Y-84656606D01*
X128391225Y-84396264D01*
X128476916Y-84113777D01*
X128505851Y-83820000D01*
X128476916Y-83526223D01*
X128391225Y-83243736D01*
X128252069Y-82983394D01*
X128064797Y-82755203D01*
X127836606Y-82567931D01*
X127803060Y-82550000D01*
X127836606Y-82532069D01*
X128064797Y-82344797D01*
X128252069Y-82116606D01*
X128391225Y-81856264D01*
X128476916Y-81573777D01*
X128505851Y-81280000D01*
X142004149Y-81280000D01*
X142033084Y-81573777D01*
X142118775Y-81856264D01*
X142257931Y-82116606D01*
X142445203Y-82344797D01*
X142673394Y-82532069D01*
X142706940Y-82550000D01*
X142673394Y-82567931D01*
X142445203Y-82755203D01*
X142257931Y-82983394D01*
X142118775Y-83243736D01*
X142033084Y-83526223D01*
X142004149Y-83820000D01*
X142033084Y-84113777D01*
X142118775Y-84396264D01*
X142257931Y-84656606D01*
X142445203Y-84884797D01*
X142673394Y-85072069D01*
X142706940Y-85090000D01*
X142673394Y-85107931D01*
X142445203Y-85295203D01*
X142257931Y-85523394D01*
X142118775Y-85783736D01*
X142033084Y-86066223D01*
X142004149Y-86360000D01*
X142033084Y-86653777D01*
X142118775Y-86936264D01*
X142257931Y-87196606D01*
X142445203Y-87424797D01*
X142673394Y-87612069D01*
X142706940Y-87630000D01*
X142673394Y-87647931D01*
X142445203Y-87835203D01*
X142257931Y-88063394D01*
X142118775Y-88323736D01*
X142033084Y-88606223D01*
X142004149Y-88900000D01*
X142033084Y-89193777D01*
X142118775Y-89476264D01*
X142257931Y-89736606D01*
X142445203Y-89964797D01*
X142673394Y-90152069D01*
X142933736Y-90291225D01*
X143216223Y-90376916D01*
X143436381Y-90398600D01*
X143583619Y-90398600D01*
X143803777Y-90376916D01*
X144086264Y-90291225D01*
X144346606Y-90152069D01*
X144574797Y-89964797D01*
X144762069Y-89736606D01*
X144780000Y-89703060D01*
X144797931Y-89736606D01*
X144985203Y-89964797D01*
X145213394Y-90152069D01*
X145473736Y-90291225D01*
X145756223Y-90376916D01*
X145976381Y-90398600D01*
X146123619Y-90398600D01*
X146343777Y-90376916D01*
X146626264Y-90291225D01*
X146886606Y-90152069D01*
X147114797Y-89964797D01*
X147302069Y-89736606D01*
X147441225Y-89476264D01*
X147526916Y-89193777D01*
X147555851Y-88900000D01*
X147526916Y-88606223D01*
X147441225Y-88323736D01*
X147302069Y-88063394D01*
X147114797Y-87835203D01*
X146886606Y-87647931D01*
X146853060Y-87630000D01*
X146886606Y-87612069D01*
X147114797Y-87424797D01*
X147302069Y-87196606D01*
X147441225Y-86936264D01*
X147526916Y-86653777D01*
X147555851Y-86360000D01*
X147526916Y-86066223D01*
X147441225Y-85783736D01*
X147302069Y-85523394D01*
X147114797Y-85295203D01*
X146886606Y-85107931D01*
X146853060Y-85090000D01*
X146886606Y-85072069D01*
X147114797Y-84884797D01*
X147302069Y-84656606D01*
X147441225Y-84396264D01*
X147526916Y-84113777D01*
X147555851Y-83820000D01*
X147526916Y-83526223D01*
X147441225Y-83243736D01*
X147302069Y-82983394D01*
X147114797Y-82755203D01*
X146886606Y-82567931D01*
X146853060Y-82550000D01*
X146886606Y-82532069D01*
X147114797Y-82344797D01*
X147302069Y-82116606D01*
X147441225Y-81856264D01*
X147526916Y-81573777D01*
X147555851Y-81280000D01*
X161054149Y-81280000D01*
X161083084Y-81573777D01*
X161168775Y-81856264D01*
X161307931Y-82116606D01*
X161495203Y-82344797D01*
X161723394Y-82532069D01*
X161756940Y-82550000D01*
X161723394Y-82567931D01*
X161495203Y-82755203D01*
X161307931Y-82983394D01*
X161168775Y-83243736D01*
X161083084Y-83526223D01*
X161054149Y-83820000D01*
X161083084Y-84113777D01*
X161168775Y-84396264D01*
X161307931Y-84656606D01*
X161495203Y-84884797D01*
X161723394Y-85072069D01*
X161756940Y-85090000D01*
X161723394Y-85107931D01*
X161495203Y-85295203D01*
X161307931Y-85523394D01*
X161168775Y-85783736D01*
X161083084Y-86066223D01*
X161054149Y-86360000D01*
X161083084Y-86653777D01*
X161168775Y-86936264D01*
X161307931Y-87196606D01*
X161495203Y-87424797D01*
X161723394Y-87612069D01*
X161756940Y-87630000D01*
X161723394Y-87647931D01*
X161495203Y-87835203D01*
X161307931Y-88063394D01*
X161168775Y-88323736D01*
X161083084Y-88606223D01*
X161054149Y-88900000D01*
X161083084Y-89193777D01*
X161168775Y-89476264D01*
X161307931Y-89736606D01*
X161495203Y-89964797D01*
X161723394Y-90152069D01*
X161983736Y-90291225D01*
X162266223Y-90376916D01*
X162486381Y-90398600D01*
X162633619Y-90398600D01*
X162853777Y-90376916D01*
X163136264Y-90291225D01*
X163396606Y-90152069D01*
X163624797Y-89964797D01*
X163812069Y-89736606D01*
X163830000Y-89703060D01*
X163847931Y-89736606D01*
X164035203Y-89964797D01*
X164263394Y-90152069D01*
X164523736Y-90291225D01*
X164806223Y-90376916D01*
X165026381Y-90398600D01*
X165173619Y-90398600D01*
X165393777Y-90376916D01*
X165676264Y-90291225D01*
X165936606Y-90152069D01*
X166164797Y-89964797D01*
X166352069Y-89736606D01*
X166491225Y-89476264D01*
X166576916Y-89193777D01*
X166605851Y-88900000D01*
X166576916Y-88606223D01*
X166491225Y-88323736D01*
X166352069Y-88063394D01*
X166164797Y-87835203D01*
X165936606Y-87647931D01*
X165903060Y-87630000D01*
X165936606Y-87612069D01*
X166164797Y-87424797D01*
X166352069Y-87196606D01*
X166491225Y-86936264D01*
X166576916Y-86653777D01*
X166605851Y-86360000D01*
X166576916Y-86066223D01*
X166491225Y-85783736D01*
X166352069Y-85523394D01*
X166164797Y-85295203D01*
X165936606Y-85107931D01*
X165903060Y-85090000D01*
X165936606Y-85072069D01*
X166164797Y-84884797D01*
X166352069Y-84656606D01*
X166491225Y-84396264D01*
X166576916Y-84113777D01*
X166605851Y-83820000D01*
X166576916Y-83526223D01*
X166491225Y-83243736D01*
X166352069Y-82983394D01*
X166164797Y-82755203D01*
X165936606Y-82567931D01*
X165903060Y-82550000D01*
X165936606Y-82532069D01*
X166164797Y-82344797D01*
X166352069Y-82116606D01*
X166491225Y-81856264D01*
X166576916Y-81573777D01*
X166605851Y-81280000D01*
X180104149Y-81280000D01*
X180133084Y-81573777D01*
X180218775Y-81856264D01*
X180357931Y-82116606D01*
X180545203Y-82344797D01*
X180773394Y-82532069D01*
X180806940Y-82550000D01*
X180773394Y-82567931D01*
X180545203Y-82755203D01*
X180357931Y-82983394D01*
X180218775Y-83243736D01*
X180133084Y-83526223D01*
X180104149Y-83820000D01*
X180133084Y-84113777D01*
X180218775Y-84396264D01*
X180357931Y-84656606D01*
X180545203Y-84884797D01*
X180773394Y-85072069D01*
X180806940Y-85090000D01*
X180773394Y-85107931D01*
X180545203Y-85295203D01*
X180357931Y-85523394D01*
X180218775Y-85783736D01*
X180133084Y-86066223D01*
X180104149Y-86360000D01*
X180133084Y-86653777D01*
X180218775Y-86936264D01*
X180357931Y-87196606D01*
X180545203Y-87424797D01*
X180773394Y-87612069D01*
X180806940Y-87630000D01*
X180773394Y-87647931D01*
X180545203Y-87835203D01*
X180357931Y-88063394D01*
X180218775Y-88323736D01*
X180133084Y-88606223D01*
X180104149Y-88900000D01*
X180133084Y-89193777D01*
X180218775Y-89476264D01*
X180357931Y-89736606D01*
X180545203Y-89964797D01*
X180773394Y-90152069D01*
X181033736Y-90291225D01*
X181316223Y-90376916D01*
X181536381Y-90398600D01*
X181683619Y-90398600D01*
X181903777Y-90376916D01*
X182186264Y-90291225D01*
X182446606Y-90152069D01*
X182674797Y-89964797D01*
X182862069Y-89736606D01*
X182880000Y-89703060D01*
X182897931Y-89736606D01*
X183085203Y-89964797D01*
X183313394Y-90152069D01*
X183573736Y-90291225D01*
X183856223Y-90376916D01*
X184076381Y-90398600D01*
X184223619Y-90398600D01*
X184443777Y-90376916D01*
X184726264Y-90291225D01*
X184986606Y-90152069D01*
X185214797Y-89964797D01*
X185402069Y-89736606D01*
X185541225Y-89476264D01*
X185626916Y-89193777D01*
X185655851Y-88900000D01*
X185626916Y-88606223D01*
X185541225Y-88323736D01*
X185402069Y-88063394D01*
X185214797Y-87835203D01*
X184986606Y-87647931D01*
X184953060Y-87630000D01*
X184986606Y-87612069D01*
X185214797Y-87424797D01*
X185402069Y-87196606D01*
X185541225Y-86936264D01*
X185626916Y-86653777D01*
X185655851Y-86360000D01*
X185626916Y-86066223D01*
X185541225Y-85783736D01*
X185402069Y-85523394D01*
X185214797Y-85295203D01*
X184986606Y-85107931D01*
X184953060Y-85090000D01*
X184986606Y-85072069D01*
X185214797Y-84884797D01*
X185402069Y-84656606D01*
X185541225Y-84396264D01*
X185626916Y-84113777D01*
X185655851Y-83820000D01*
X185626916Y-83526223D01*
X185541225Y-83243736D01*
X185402069Y-82983394D01*
X185214797Y-82755203D01*
X184986606Y-82567931D01*
X184953060Y-82550000D01*
X184986606Y-82532069D01*
X185214797Y-82344797D01*
X185402069Y-82116606D01*
X185541225Y-81856264D01*
X185626916Y-81573777D01*
X185655851Y-81280000D01*
X199154149Y-81280000D01*
X199183084Y-81573777D01*
X199268775Y-81856264D01*
X199407931Y-82116606D01*
X199595203Y-82344797D01*
X199823394Y-82532069D01*
X199856940Y-82550000D01*
X199823394Y-82567931D01*
X199595203Y-82755203D01*
X199407931Y-82983394D01*
X199268775Y-83243736D01*
X199183084Y-83526223D01*
X199154149Y-83820000D01*
X199183084Y-84113777D01*
X199268775Y-84396264D01*
X199407931Y-84656606D01*
X199595203Y-84884797D01*
X199823394Y-85072069D01*
X199856940Y-85090000D01*
X199823394Y-85107931D01*
X199595203Y-85295203D01*
X199407931Y-85523394D01*
X199268775Y-85783736D01*
X199183084Y-86066223D01*
X199154149Y-86360000D01*
X199183084Y-86653777D01*
X199268775Y-86936264D01*
X199407931Y-87196606D01*
X199595203Y-87424797D01*
X199823394Y-87612069D01*
X199856940Y-87630000D01*
X199823394Y-87647931D01*
X199595203Y-87835203D01*
X199407931Y-88063394D01*
X199268775Y-88323736D01*
X199183084Y-88606223D01*
X199154149Y-88900000D01*
X199183084Y-89193777D01*
X199268775Y-89476264D01*
X199407931Y-89736606D01*
X199595203Y-89964797D01*
X199823394Y-90152069D01*
X200083736Y-90291225D01*
X200366223Y-90376916D01*
X200586381Y-90398600D01*
X200733619Y-90398600D01*
X200953777Y-90376916D01*
X201236264Y-90291225D01*
X201496606Y-90152069D01*
X201724797Y-89964797D01*
X201912069Y-89736606D01*
X201930000Y-89703060D01*
X201947931Y-89736606D01*
X202135203Y-89964797D01*
X202363394Y-90152069D01*
X202623736Y-90291225D01*
X202906223Y-90376916D01*
X203126381Y-90398600D01*
X203273619Y-90398600D01*
X203493777Y-90376916D01*
X203776264Y-90291225D01*
X204036606Y-90152069D01*
X204264797Y-89964797D01*
X204452069Y-89736606D01*
X204591225Y-89476264D01*
X204676916Y-89193777D01*
X204705851Y-88900000D01*
X204676916Y-88606223D01*
X204591225Y-88323736D01*
X204452069Y-88063394D01*
X204264797Y-87835203D01*
X204036606Y-87647931D01*
X204003060Y-87630000D01*
X204036606Y-87612069D01*
X204264797Y-87424797D01*
X204452069Y-87196606D01*
X204591225Y-86936264D01*
X204676916Y-86653777D01*
X204705851Y-86360000D01*
X204676916Y-86066223D01*
X204591225Y-85783736D01*
X204452069Y-85523394D01*
X204264797Y-85295203D01*
X204036606Y-85107931D01*
X204003060Y-85090000D01*
X204036606Y-85072069D01*
X204264797Y-84884797D01*
X204452069Y-84656606D01*
X204591225Y-84396264D01*
X204676916Y-84113777D01*
X204705851Y-83820000D01*
X204676916Y-83526223D01*
X204591225Y-83243736D01*
X204452069Y-82983394D01*
X204264797Y-82755203D01*
X204036606Y-82567931D01*
X204003060Y-82550000D01*
X204036606Y-82532069D01*
X204264797Y-82344797D01*
X204452069Y-82116606D01*
X204591225Y-81856264D01*
X204676916Y-81573777D01*
X204705851Y-81280000D01*
X218204149Y-81280000D01*
X218233084Y-81573777D01*
X218318775Y-81856264D01*
X218457931Y-82116606D01*
X218645203Y-82344797D01*
X218873394Y-82532069D01*
X218906940Y-82550000D01*
X218873394Y-82567931D01*
X218645203Y-82755203D01*
X218457931Y-82983394D01*
X218318775Y-83243736D01*
X218233084Y-83526223D01*
X218204149Y-83820000D01*
X218233084Y-84113777D01*
X218318775Y-84396264D01*
X218457931Y-84656606D01*
X218645203Y-84884797D01*
X218873394Y-85072069D01*
X218906940Y-85090000D01*
X218873394Y-85107931D01*
X218645203Y-85295203D01*
X218457931Y-85523394D01*
X218318775Y-85783736D01*
X218233084Y-86066223D01*
X218204149Y-86360000D01*
X218233084Y-86653777D01*
X218318775Y-86936264D01*
X218457931Y-87196606D01*
X218645203Y-87424797D01*
X218873394Y-87612069D01*
X218906940Y-87630000D01*
X218873394Y-87647931D01*
X218645203Y-87835203D01*
X218457931Y-88063394D01*
X218318775Y-88323736D01*
X218233084Y-88606223D01*
X218204149Y-88900000D01*
X218233084Y-89193777D01*
X218318775Y-89476264D01*
X218457931Y-89736606D01*
X218645203Y-89964797D01*
X218873394Y-90152069D01*
X219133736Y-90291225D01*
X219416223Y-90376916D01*
X219636381Y-90398600D01*
X219783619Y-90398600D01*
X220003777Y-90376916D01*
X220286264Y-90291225D01*
X220546606Y-90152069D01*
X220774797Y-89964797D01*
X220962069Y-89736606D01*
X220980000Y-89703060D01*
X220997931Y-89736606D01*
X221185203Y-89964797D01*
X221413394Y-90152069D01*
X221673736Y-90291225D01*
X221956223Y-90376916D01*
X222176381Y-90398600D01*
X222323619Y-90398600D01*
X222543777Y-90376916D01*
X222826264Y-90291225D01*
X223086606Y-90152069D01*
X223314797Y-89964797D01*
X223502069Y-89736606D01*
X223641225Y-89476264D01*
X223726916Y-89193777D01*
X223755851Y-88900000D01*
X223726916Y-88606223D01*
X223641225Y-88323736D01*
X223502069Y-88063394D01*
X223314797Y-87835203D01*
X223086606Y-87647931D01*
X223053060Y-87630000D01*
X223086606Y-87612069D01*
X223314797Y-87424797D01*
X223502069Y-87196606D01*
X223641225Y-86936264D01*
X223726916Y-86653777D01*
X223755851Y-86360000D01*
X223726916Y-86066223D01*
X223641225Y-85783736D01*
X223502069Y-85523394D01*
X223314797Y-85295203D01*
X223086606Y-85107931D01*
X223053060Y-85090000D01*
X223086606Y-85072069D01*
X223314797Y-84884797D01*
X223502069Y-84656606D01*
X223641225Y-84396264D01*
X223726916Y-84113777D01*
X223755851Y-83820000D01*
X223726916Y-83526223D01*
X223641225Y-83243736D01*
X223502069Y-82983394D01*
X223314797Y-82755203D01*
X223086606Y-82567931D01*
X223053060Y-82550000D01*
X223086606Y-82532069D01*
X223314797Y-82344797D01*
X223502069Y-82116606D01*
X223641225Y-81856264D01*
X223726916Y-81573777D01*
X223755851Y-81280000D01*
X237254149Y-81280000D01*
X237283084Y-81573777D01*
X237368775Y-81856264D01*
X237507931Y-82116606D01*
X237695203Y-82344797D01*
X237923394Y-82532069D01*
X237956940Y-82550000D01*
X237923394Y-82567931D01*
X237695203Y-82755203D01*
X237507931Y-82983394D01*
X237368775Y-83243736D01*
X237283084Y-83526223D01*
X237254149Y-83820000D01*
X237283084Y-84113777D01*
X237368775Y-84396264D01*
X237507931Y-84656606D01*
X237695203Y-84884797D01*
X237923394Y-85072069D01*
X237956940Y-85090000D01*
X237923394Y-85107931D01*
X237695203Y-85295203D01*
X237507931Y-85523394D01*
X237368775Y-85783736D01*
X237283084Y-86066223D01*
X237254149Y-86360000D01*
X237283084Y-86653777D01*
X237368775Y-86936264D01*
X237507931Y-87196606D01*
X237695203Y-87424797D01*
X237923394Y-87612069D01*
X237956940Y-87630000D01*
X237923394Y-87647931D01*
X237695203Y-87835203D01*
X237507931Y-88063394D01*
X237368775Y-88323736D01*
X237283084Y-88606223D01*
X237254149Y-88900000D01*
X237283084Y-89193777D01*
X237368775Y-89476264D01*
X237507931Y-89736606D01*
X237695203Y-89964797D01*
X237923394Y-90152069D01*
X238183736Y-90291225D01*
X238466223Y-90376916D01*
X238686381Y-90398600D01*
X238833619Y-90398600D01*
X239053777Y-90376916D01*
X239336264Y-90291225D01*
X239596606Y-90152069D01*
X239824797Y-89964797D01*
X240012069Y-89736606D01*
X240030000Y-89703060D01*
X240047931Y-89736606D01*
X240235203Y-89964797D01*
X240463394Y-90152069D01*
X240723736Y-90291225D01*
X241006223Y-90376916D01*
X241226381Y-90398600D01*
X241373619Y-90398600D01*
X241593777Y-90376916D01*
X241876264Y-90291225D01*
X242136606Y-90152069D01*
X242364797Y-89964797D01*
X242552069Y-89736606D01*
X242691225Y-89476264D01*
X242776916Y-89193777D01*
X242780833Y-89154000D01*
X246157815Y-89154000D01*
X246186487Y-89445111D01*
X246271401Y-89725034D01*
X246409294Y-89983014D01*
X246594866Y-90209134D01*
X246820986Y-90394706D01*
X246875791Y-90424000D01*
X246820986Y-90453294D01*
X246594866Y-90638866D01*
X246409294Y-90864986D01*
X246271401Y-91122966D01*
X246186487Y-91402889D01*
X246157815Y-91694000D01*
X246186487Y-91985111D01*
X246271401Y-92265034D01*
X246409294Y-92523014D01*
X246594866Y-92749134D01*
X246820986Y-92934706D01*
X247078966Y-93072599D01*
X247358889Y-93157513D01*
X247577050Y-93179000D01*
X247722950Y-93179000D01*
X247941111Y-93157513D01*
X248221034Y-93072599D01*
X248479014Y-92934706D01*
X248705134Y-92749134D01*
X248890706Y-92523014D01*
X249028599Y-92265034D01*
X249113513Y-91985111D01*
X249142185Y-91694000D01*
X249113513Y-91402889D01*
X249028599Y-91122966D01*
X248949896Y-90975721D01*
X252373000Y-90975721D01*
X252373000Y-91396279D01*
X252455047Y-91808756D01*
X252615988Y-92197302D01*
X252849637Y-92546983D01*
X253147017Y-92844363D01*
X253496698Y-93078012D01*
X253885244Y-93238953D01*
X254297721Y-93321000D01*
X254718279Y-93321000D01*
X255130756Y-93238953D01*
X255519302Y-93078012D01*
X255868983Y-92844363D01*
X256166363Y-92546983D01*
X256400012Y-92197302D01*
X256560953Y-91808756D01*
X256643000Y-91396279D01*
X256643000Y-90975721D01*
X257453000Y-90975721D01*
X257453000Y-91396279D01*
X257535047Y-91808756D01*
X257695988Y-92197302D01*
X257929637Y-92546983D01*
X258227017Y-92844363D01*
X258576698Y-93078012D01*
X258965244Y-93238953D01*
X259377721Y-93321000D01*
X259798279Y-93321000D01*
X260210756Y-93238953D01*
X260599302Y-93078012D01*
X260948983Y-92844363D01*
X261107346Y-92686000D01*
X262529928Y-92686000D01*
X262542188Y-92810482D01*
X262578498Y-92930180D01*
X262637463Y-93040494D01*
X262716815Y-93137185D01*
X262813506Y-93216537D01*
X262923820Y-93275502D01*
X263043518Y-93311812D01*
X263168000Y-93324072D01*
X264382250Y-93321000D01*
X264541000Y-93162250D01*
X264541000Y-91313000D01*
X264795000Y-91313000D01*
X264795000Y-93162250D01*
X264953750Y-93321000D01*
X266168000Y-93324072D01*
X266292482Y-93311812D01*
X266412180Y-93275502D01*
X266522494Y-93216537D01*
X266619185Y-93137185D01*
X266698537Y-93040494D01*
X266757502Y-92930180D01*
X266793812Y-92810482D01*
X266806072Y-92686000D01*
X266803000Y-91471750D01*
X266644250Y-91313000D01*
X264795000Y-91313000D01*
X264541000Y-91313000D01*
X262691750Y-91313000D01*
X262533000Y-91471750D01*
X262529928Y-92686000D01*
X261107346Y-92686000D01*
X261246363Y-92546983D01*
X261480012Y-92197302D01*
X261640953Y-91808756D01*
X261723000Y-91396279D01*
X261723000Y-90975721D01*
X261640953Y-90563244D01*
X261480012Y-90174698D01*
X261246363Y-89825017D01*
X261107346Y-89686000D01*
X262529928Y-89686000D01*
X262533000Y-90900250D01*
X262691750Y-91059000D01*
X264541000Y-91059000D01*
X264541000Y-89209750D01*
X264795000Y-89209750D01*
X264795000Y-91059000D01*
X266644250Y-91059000D01*
X266803000Y-90900250D01*
X266806072Y-89686000D01*
X266793812Y-89561518D01*
X266757502Y-89441820D01*
X266698537Y-89331506D01*
X266619185Y-89234815D01*
X266522494Y-89155463D01*
X266412180Y-89096498D01*
X266292482Y-89060188D01*
X266168000Y-89047928D01*
X264953750Y-89051000D01*
X264795000Y-89209750D01*
X264541000Y-89209750D01*
X264382250Y-89051000D01*
X263168000Y-89047928D01*
X263043518Y-89060188D01*
X262923820Y-89096498D01*
X262813506Y-89155463D01*
X262716815Y-89234815D01*
X262637463Y-89331506D01*
X262578498Y-89441820D01*
X262542188Y-89561518D01*
X262529928Y-89686000D01*
X261107346Y-89686000D01*
X260948983Y-89527637D01*
X260599302Y-89293988D01*
X260210756Y-89133047D01*
X259798279Y-89051000D01*
X259377721Y-89051000D01*
X258965244Y-89133047D01*
X258576698Y-89293988D01*
X258227017Y-89527637D01*
X257929637Y-89825017D01*
X257695988Y-90174698D01*
X257535047Y-90563244D01*
X257453000Y-90975721D01*
X256643000Y-90975721D01*
X256560953Y-90563244D01*
X256400012Y-90174698D01*
X256166363Y-89825017D01*
X255868983Y-89527637D01*
X255519302Y-89293988D01*
X255130756Y-89133047D01*
X254718279Y-89051000D01*
X254297721Y-89051000D01*
X253885244Y-89133047D01*
X253496698Y-89293988D01*
X253147017Y-89527637D01*
X252849637Y-89825017D01*
X252615988Y-90174698D01*
X252455047Y-90563244D01*
X252373000Y-90975721D01*
X248949896Y-90975721D01*
X248890706Y-90864986D01*
X248705134Y-90638866D01*
X248479014Y-90453294D01*
X248424209Y-90424000D01*
X248479014Y-90394706D01*
X248705134Y-90209134D01*
X248890706Y-89983014D01*
X249028599Y-89725034D01*
X249113513Y-89445111D01*
X249142185Y-89154000D01*
X249113513Y-88862889D01*
X249028599Y-88582966D01*
X248890706Y-88324986D01*
X248705134Y-88098866D01*
X248675313Y-88074393D01*
X248744180Y-88053502D01*
X248854494Y-87994537D01*
X248951185Y-87915185D01*
X249030537Y-87818494D01*
X249089502Y-87708180D01*
X249125812Y-87588482D01*
X249138072Y-87464000D01*
X249135000Y-86899750D01*
X248976250Y-86741000D01*
X247777000Y-86741000D01*
X247777000Y-86761000D01*
X247523000Y-86761000D01*
X247523000Y-86741000D01*
X246323750Y-86741000D01*
X246165000Y-86899750D01*
X246161928Y-87464000D01*
X246174188Y-87588482D01*
X246210498Y-87708180D01*
X246269463Y-87818494D01*
X246348815Y-87915185D01*
X246445506Y-87994537D01*
X246555820Y-88053502D01*
X246624687Y-88074393D01*
X246594866Y-88098866D01*
X246409294Y-88324986D01*
X246271401Y-88582966D01*
X246186487Y-88862889D01*
X246157815Y-89154000D01*
X242780833Y-89154000D01*
X242805851Y-88900000D01*
X242776916Y-88606223D01*
X242691225Y-88323736D01*
X242552069Y-88063394D01*
X242364797Y-87835203D01*
X242136606Y-87647931D01*
X242103060Y-87630000D01*
X242136606Y-87612069D01*
X242364797Y-87424797D01*
X242552069Y-87196606D01*
X242691225Y-86936264D01*
X242776916Y-86653777D01*
X242805851Y-86360000D01*
X242776916Y-86066223D01*
X242691225Y-85783736D01*
X242680676Y-85764000D01*
X246161928Y-85764000D01*
X246165000Y-86328250D01*
X246323750Y-86487000D01*
X247523000Y-86487000D01*
X247523000Y-85287750D01*
X247777000Y-85287750D01*
X247777000Y-86487000D01*
X248976250Y-86487000D01*
X249135000Y-86328250D01*
X249138072Y-85764000D01*
X249125812Y-85639518D01*
X249089502Y-85519820D01*
X249030537Y-85409506D01*
X248951185Y-85312815D01*
X248854494Y-85233463D01*
X248744180Y-85174498D01*
X248624482Y-85138188D01*
X248500000Y-85125928D01*
X247935750Y-85129000D01*
X247777000Y-85287750D01*
X247523000Y-85287750D01*
X247364250Y-85129000D01*
X246800000Y-85125928D01*
X246675518Y-85138188D01*
X246555820Y-85174498D01*
X246445506Y-85233463D01*
X246348815Y-85312815D01*
X246269463Y-85409506D01*
X246210498Y-85519820D01*
X246174188Y-85639518D01*
X246161928Y-85764000D01*
X242680676Y-85764000D01*
X242552069Y-85523394D01*
X242364797Y-85295203D01*
X242136606Y-85107931D01*
X242103060Y-85090000D01*
X242136606Y-85072069D01*
X242364797Y-84884797D01*
X242552069Y-84656606D01*
X242691225Y-84396264D01*
X242776916Y-84113777D01*
X242805851Y-83820000D01*
X242776916Y-83526223D01*
X242691225Y-83243736D01*
X242552069Y-82983394D01*
X242364797Y-82755203D01*
X242240039Y-82652816D01*
X252973000Y-82652816D01*
X252973000Y-82955184D01*
X253031989Y-83251743D01*
X253147701Y-83531095D01*
X253315688Y-83782505D01*
X253529495Y-83996312D01*
X253780905Y-84164299D01*
X254060257Y-84280011D01*
X254356816Y-84339000D01*
X254659184Y-84339000D01*
X254955743Y-84280011D01*
X255235095Y-84164299D01*
X255486505Y-83996312D01*
X255552944Y-83929873D01*
X255558498Y-83948180D01*
X255617463Y-84058494D01*
X255696815Y-84155185D01*
X255793506Y-84234537D01*
X255903820Y-84293502D01*
X256023518Y-84329812D01*
X256148000Y-84342072D01*
X256762250Y-84339000D01*
X256921000Y-84180250D01*
X256921000Y-82931000D01*
X257175000Y-82931000D01*
X257175000Y-84180250D01*
X257333750Y-84339000D01*
X257948000Y-84342072D01*
X258072482Y-84329812D01*
X258192180Y-84293502D01*
X258302494Y-84234537D01*
X258399185Y-84155185D01*
X258478537Y-84058494D01*
X258537502Y-83948180D01*
X258573812Y-83828482D01*
X258586072Y-83704000D01*
X258583000Y-83089750D01*
X258424250Y-82931000D01*
X257175000Y-82931000D01*
X256921000Y-82931000D01*
X256901000Y-82931000D01*
X256901000Y-82677000D01*
X256921000Y-82677000D01*
X256921000Y-81427750D01*
X257175000Y-81427750D01*
X257175000Y-82677000D01*
X258424250Y-82677000D01*
X258507529Y-82593721D01*
X261263000Y-82593721D01*
X261263000Y-83014279D01*
X261345047Y-83426756D01*
X261505988Y-83815302D01*
X261739637Y-84164983D01*
X262037017Y-84462363D01*
X262386698Y-84696012D01*
X262775244Y-84856953D01*
X263187721Y-84939000D01*
X263608279Y-84939000D01*
X264020756Y-84856953D01*
X264409302Y-84696012D01*
X264758983Y-84462363D01*
X265056363Y-84164983D01*
X265290012Y-83815302D01*
X265450953Y-83426756D01*
X265533000Y-83014279D01*
X265533000Y-82593721D01*
X265450953Y-82181244D01*
X265290012Y-81792698D01*
X265056363Y-81443017D01*
X264758983Y-81145637D01*
X264409302Y-80911988D01*
X264020756Y-80751047D01*
X263608279Y-80669000D01*
X263187721Y-80669000D01*
X262775244Y-80751047D01*
X262386698Y-80911988D01*
X262037017Y-81145637D01*
X261739637Y-81443017D01*
X261505988Y-81792698D01*
X261345047Y-82181244D01*
X261263000Y-82593721D01*
X258507529Y-82593721D01*
X258583000Y-82518250D01*
X258586072Y-81904000D01*
X258573812Y-81779518D01*
X258537502Y-81659820D01*
X258478537Y-81549506D01*
X258399185Y-81452815D01*
X258302494Y-81373463D01*
X258192180Y-81314498D01*
X258072482Y-81278188D01*
X257948000Y-81265928D01*
X257333750Y-81269000D01*
X257175000Y-81427750D01*
X256921000Y-81427750D01*
X256762250Y-81269000D01*
X256148000Y-81265928D01*
X256023518Y-81278188D01*
X255903820Y-81314498D01*
X255793506Y-81373463D01*
X255696815Y-81452815D01*
X255617463Y-81549506D01*
X255558498Y-81659820D01*
X255552944Y-81678127D01*
X255486505Y-81611688D01*
X255235095Y-81443701D01*
X254955743Y-81327989D01*
X254659184Y-81269000D01*
X254356816Y-81269000D01*
X254060257Y-81327989D01*
X253780905Y-81443701D01*
X253529495Y-81611688D01*
X253315688Y-81825495D01*
X253147701Y-82076905D01*
X253031989Y-82356257D01*
X252973000Y-82652816D01*
X242240039Y-82652816D01*
X242136606Y-82567931D01*
X242103060Y-82550000D01*
X242136606Y-82532069D01*
X242364797Y-82344797D01*
X242552069Y-82116606D01*
X242691225Y-81856264D01*
X242776916Y-81573777D01*
X242805851Y-81280000D01*
X242776916Y-80986223D01*
X242691225Y-80703736D01*
X242552069Y-80443394D01*
X242364797Y-80215203D01*
X242136606Y-80027931D01*
X242092090Y-80004137D01*
X242188488Y-79946817D01*
X242406854Y-79750293D01*
X242582684Y-79514944D01*
X242709222Y-79249814D01*
X242754958Y-79099026D01*
X242633817Y-78867000D01*
X241427000Y-78867000D01*
X241427000Y-78887000D01*
X241173000Y-78887000D01*
X241173000Y-78867000D01*
X238887000Y-78867000D01*
X238887000Y-78887000D01*
X238633000Y-78887000D01*
X238633000Y-78867000D01*
X237426183Y-78867000D01*
X237305042Y-79099026D01*
X237350778Y-79249814D01*
X237477316Y-79514944D01*
X237653146Y-79750293D01*
X237871512Y-79946817D01*
X237967910Y-80004137D01*
X237923394Y-80027931D01*
X237695203Y-80215203D01*
X237507931Y-80443394D01*
X237368775Y-80703736D01*
X237283084Y-80986223D01*
X237254149Y-81280000D01*
X223755851Y-81280000D01*
X223726916Y-80986223D01*
X223641225Y-80703736D01*
X223502069Y-80443394D01*
X223314797Y-80215203D01*
X223086606Y-80027931D01*
X223042090Y-80004137D01*
X223138488Y-79946817D01*
X223356854Y-79750293D01*
X223532684Y-79514944D01*
X223659222Y-79249814D01*
X223704958Y-79099026D01*
X223583817Y-78867000D01*
X222377000Y-78867000D01*
X222377000Y-78887000D01*
X222123000Y-78887000D01*
X222123000Y-78867000D01*
X219837000Y-78867000D01*
X219837000Y-78887000D01*
X219583000Y-78887000D01*
X219583000Y-78867000D01*
X218376183Y-78867000D01*
X218255042Y-79099026D01*
X218300778Y-79249814D01*
X218427316Y-79514944D01*
X218603146Y-79750293D01*
X218821512Y-79946817D01*
X218917910Y-80004137D01*
X218873394Y-80027931D01*
X218645203Y-80215203D01*
X218457931Y-80443394D01*
X218318775Y-80703736D01*
X218233084Y-80986223D01*
X218204149Y-81280000D01*
X204705851Y-81280000D01*
X204676916Y-80986223D01*
X204591225Y-80703736D01*
X204452069Y-80443394D01*
X204264797Y-80215203D01*
X204036606Y-80027931D01*
X203992090Y-80004137D01*
X204088488Y-79946817D01*
X204306854Y-79750293D01*
X204482684Y-79514944D01*
X204609222Y-79249814D01*
X204654958Y-79099026D01*
X204533817Y-78867000D01*
X203327000Y-78867000D01*
X203327000Y-78887000D01*
X203073000Y-78887000D01*
X203073000Y-78867000D01*
X200787000Y-78867000D01*
X200787000Y-78887000D01*
X200533000Y-78887000D01*
X200533000Y-78867000D01*
X199326183Y-78867000D01*
X199205042Y-79099026D01*
X199250778Y-79249814D01*
X199377316Y-79514944D01*
X199553146Y-79750293D01*
X199771512Y-79946817D01*
X199867910Y-80004137D01*
X199823394Y-80027931D01*
X199595203Y-80215203D01*
X199407931Y-80443394D01*
X199268775Y-80703736D01*
X199183084Y-80986223D01*
X199154149Y-81280000D01*
X185655851Y-81280000D01*
X185626916Y-80986223D01*
X185541225Y-80703736D01*
X185402069Y-80443394D01*
X185214797Y-80215203D01*
X184986606Y-80027931D01*
X184942090Y-80004137D01*
X185038488Y-79946817D01*
X185256854Y-79750293D01*
X185432684Y-79514944D01*
X185559222Y-79249814D01*
X185604958Y-79099026D01*
X185483817Y-78867000D01*
X184277000Y-78867000D01*
X184277000Y-78887000D01*
X184023000Y-78887000D01*
X184023000Y-78867000D01*
X181737000Y-78867000D01*
X181737000Y-78887000D01*
X181483000Y-78887000D01*
X181483000Y-78867000D01*
X180276183Y-78867000D01*
X180155042Y-79099026D01*
X180200778Y-79249814D01*
X180327316Y-79514944D01*
X180503146Y-79750293D01*
X180721512Y-79946817D01*
X180817910Y-80004137D01*
X180773394Y-80027931D01*
X180545203Y-80215203D01*
X180357931Y-80443394D01*
X180218775Y-80703736D01*
X180133084Y-80986223D01*
X180104149Y-81280000D01*
X166605851Y-81280000D01*
X166576916Y-80986223D01*
X166491225Y-80703736D01*
X166352069Y-80443394D01*
X166164797Y-80215203D01*
X165936606Y-80027931D01*
X165892090Y-80004137D01*
X165988488Y-79946817D01*
X166206854Y-79750293D01*
X166382684Y-79514944D01*
X166509222Y-79249814D01*
X166554958Y-79099026D01*
X166433817Y-78867000D01*
X165227000Y-78867000D01*
X165227000Y-78887000D01*
X164973000Y-78887000D01*
X164973000Y-78867000D01*
X162687000Y-78867000D01*
X162687000Y-78887000D01*
X162433000Y-78887000D01*
X162433000Y-78867000D01*
X161226183Y-78867000D01*
X161105042Y-79099026D01*
X161150778Y-79249814D01*
X161277316Y-79514944D01*
X161453146Y-79750293D01*
X161671512Y-79946817D01*
X161767910Y-80004137D01*
X161723394Y-80027931D01*
X161495203Y-80215203D01*
X161307931Y-80443394D01*
X161168775Y-80703736D01*
X161083084Y-80986223D01*
X161054149Y-81280000D01*
X147555851Y-81280000D01*
X147526916Y-80986223D01*
X147441225Y-80703736D01*
X147302069Y-80443394D01*
X147114797Y-80215203D01*
X146886606Y-80027931D01*
X146842090Y-80004137D01*
X146938488Y-79946817D01*
X147156854Y-79750293D01*
X147332684Y-79514944D01*
X147459222Y-79249814D01*
X147504958Y-79099026D01*
X147383817Y-78867000D01*
X146177000Y-78867000D01*
X146177000Y-78887000D01*
X145923000Y-78887000D01*
X145923000Y-78867000D01*
X143637000Y-78867000D01*
X143637000Y-78887000D01*
X143383000Y-78887000D01*
X143383000Y-78867000D01*
X142176183Y-78867000D01*
X142055042Y-79099026D01*
X142100778Y-79249814D01*
X142227316Y-79514944D01*
X142403146Y-79750293D01*
X142621512Y-79946817D01*
X142717910Y-80004137D01*
X142673394Y-80027931D01*
X142445203Y-80215203D01*
X142257931Y-80443394D01*
X142118775Y-80703736D01*
X142033084Y-80986223D01*
X142004149Y-81280000D01*
X128505851Y-81280000D01*
X128476916Y-80986223D01*
X128391225Y-80703736D01*
X128252069Y-80443394D01*
X128064797Y-80215203D01*
X127836606Y-80027931D01*
X127792090Y-80004137D01*
X127888488Y-79946817D01*
X128106854Y-79750293D01*
X128282684Y-79514944D01*
X128409222Y-79249814D01*
X128454958Y-79099026D01*
X128333817Y-78867000D01*
X127127000Y-78867000D01*
X127127000Y-78887000D01*
X126873000Y-78887000D01*
X126873000Y-78867000D01*
X124587000Y-78867000D01*
X124587000Y-78887000D01*
X124333000Y-78887000D01*
X124333000Y-78867000D01*
X123126183Y-78867000D01*
X123005042Y-79099026D01*
X123050778Y-79249814D01*
X123177316Y-79514944D01*
X123353146Y-79750293D01*
X123571512Y-79946817D01*
X123667910Y-80004137D01*
X123623394Y-80027931D01*
X123395203Y-80215203D01*
X123207931Y-80443394D01*
X123068775Y-80703736D01*
X122983084Y-80986223D01*
X122954149Y-81280000D01*
X109106852Y-81280000D01*
X109077917Y-80986223D01*
X108992226Y-80703736D01*
X108853070Y-80443394D01*
X108665798Y-80215203D01*
X108437607Y-80027931D01*
X108393091Y-80004137D01*
X108489489Y-79946817D01*
X108707855Y-79750293D01*
X108883685Y-79514944D01*
X109010223Y-79249814D01*
X109055959Y-79099026D01*
X108934818Y-78867000D01*
X107728001Y-78867000D01*
X107728001Y-78887000D01*
X107474001Y-78887000D01*
X107474001Y-78867000D01*
X105188001Y-78867000D01*
X105188001Y-78887000D01*
X104934001Y-78887000D01*
X104934001Y-78867000D01*
X103727184Y-78867000D01*
X103606043Y-79099026D01*
X103651779Y-79249814D01*
X103778317Y-79514944D01*
X103954147Y-79750293D01*
X104172513Y-79946817D01*
X104268911Y-80004137D01*
X104224395Y-80027931D01*
X103996204Y-80215203D01*
X103808932Y-80443394D01*
X103669776Y-80703736D01*
X103584085Y-80986223D01*
X103555150Y-81280000D01*
X80670000Y-81280000D01*
X80670000Y-78529721D01*
X86765000Y-78529721D01*
X86765000Y-78950279D01*
X86847047Y-79362756D01*
X87007988Y-79751302D01*
X87241637Y-80100983D01*
X87539017Y-80398363D01*
X87888698Y-80632012D01*
X88277244Y-80792953D01*
X88689721Y-80875000D01*
X89110279Y-80875000D01*
X89522756Y-80792953D01*
X89911302Y-80632012D01*
X90260983Y-80398363D01*
X90558363Y-80100983D01*
X90792012Y-79751302D01*
X90952953Y-79362756D01*
X91035000Y-78950279D01*
X91035000Y-78529721D01*
X90952953Y-78117244D01*
X90792012Y-77728698D01*
X90558363Y-77379017D01*
X90260983Y-77081637D01*
X89911302Y-76847988D01*
X89522756Y-76687047D01*
X89110279Y-76605000D01*
X88689721Y-76605000D01*
X88277244Y-76687047D01*
X87888698Y-76847988D01*
X87539017Y-77081637D01*
X87241637Y-77379017D01*
X87007988Y-77728698D01*
X86847047Y-78117244D01*
X86765000Y-78529721D01*
X80670000Y-78529721D01*
X80670000Y-76559026D01*
X103606043Y-76559026D01*
X103651779Y-76709814D01*
X103778317Y-76974944D01*
X103954147Y-77210293D01*
X104172513Y-77406817D01*
X104278771Y-77470000D01*
X104172513Y-77533183D01*
X103954147Y-77729707D01*
X103778317Y-77965056D01*
X103651779Y-78230186D01*
X103606043Y-78380974D01*
X103727184Y-78613000D01*
X104934001Y-78613000D01*
X104934001Y-76327000D01*
X105188001Y-76327000D01*
X105188001Y-78613000D01*
X107474001Y-78613000D01*
X107474001Y-76327000D01*
X107728001Y-76327000D01*
X107728001Y-78613000D01*
X108934818Y-78613000D01*
X109055959Y-78380974D01*
X109010223Y-78230186D01*
X108883685Y-77965056D01*
X108707855Y-77729707D01*
X108489489Y-77533183D01*
X108383231Y-77470000D01*
X108489489Y-77406817D01*
X108707855Y-77210293D01*
X108883685Y-76974944D01*
X109010223Y-76709814D01*
X109055959Y-76559026D01*
X123005042Y-76559026D01*
X123050778Y-76709814D01*
X123177316Y-76974944D01*
X123353146Y-77210293D01*
X123571512Y-77406817D01*
X123677770Y-77470000D01*
X123571512Y-77533183D01*
X123353146Y-77729707D01*
X123177316Y-77965056D01*
X123050778Y-78230186D01*
X123005042Y-78380974D01*
X123126183Y-78613000D01*
X124333000Y-78613000D01*
X124333000Y-76327000D01*
X124587000Y-76327000D01*
X124587000Y-78613000D01*
X126873000Y-78613000D01*
X126873000Y-76327000D01*
X127127000Y-76327000D01*
X127127000Y-78613000D01*
X128333817Y-78613000D01*
X128454958Y-78380974D01*
X128409222Y-78230186D01*
X128282684Y-77965056D01*
X128106854Y-77729707D01*
X127888488Y-77533183D01*
X127782230Y-77470000D01*
X127888488Y-77406817D01*
X128106854Y-77210293D01*
X128282684Y-76974944D01*
X128409222Y-76709814D01*
X128454958Y-76559026D01*
X142055042Y-76559026D01*
X142100778Y-76709814D01*
X142227316Y-76974944D01*
X142403146Y-77210293D01*
X142621512Y-77406817D01*
X142727770Y-77470000D01*
X142621512Y-77533183D01*
X142403146Y-77729707D01*
X142227316Y-77965056D01*
X142100778Y-78230186D01*
X142055042Y-78380974D01*
X142176183Y-78613000D01*
X143383000Y-78613000D01*
X143383000Y-76327000D01*
X143637000Y-76327000D01*
X143637000Y-78613000D01*
X145923000Y-78613000D01*
X145923000Y-76327000D01*
X146177000Y-76327000D01*
X146177000Y-78613000D01*
X147383817Y-78613000D01*
X147504958Y-78380974D01*
X147459222Y-78230186D01*
X147332684Y-77965056D01*
X147156854Y-77729707D01*
X146938488Y-77533183D01*
X146832230Y-77470000D01*
X146938488Y-77406817D01*
X147156854Y-77210293D01*
X147332684Y-76974944D01*
X147459222Y-76709814D01*
X147504958Y-76559026D01*
X161105042Y-76559026D01*
X161150778Y-76709814D01*
X161277316Y-76974944D01*
X161453146Y-77210293D01*
X161671512Y-77406817D01*
X161777770Y-77470000D01*
X161671512Y-77533183D01*
X161453146Y-77729707D01*
X161277316Y-77965056D01*
X161150778Y-78230186D01*
X161105042Y-78380974D01*
X161226183Y-78613000D01*
X162433000Y-78613000D01*
X162433000Y-76327000D01*
X162687000Y-76327000D01*
X162687000Y-78613000D01*
X164973000Y-78613000D01*
X164973000Y-76327000D01*
X165227000Y-76327000D01*
X165227000Y-78613000D01*
X166433817Y-78613000D01*
X166554958Y-78380974D01*
X166509222Y-78230186D01*
X166382684Y-77965056D01*
X166206854Y-77729707D01*
X165988488Y-77533183D01*
X165882230Y-77470000D01*
X165988488Y-77406817D01*
X166206854Y-77210293D01*
X166382684Y-76974944D01*
X166509222Y-76709814D01*
X166554958Y-76559026D01*
X180155042Y-76559026D01*
X180200778Y-76709814D01*
X180327316Y-76974944D01*
X180503146Y-77210293D01*
X180721512Y-77406817D01*
X180827770Y-77470000D01*
X180721512Y-77533183D01*
X180503146Y-77729707D01*
X180327316Y-77965056D01*
X180200778Y-78230186D01*
X180155042Y-78380974D01*
X180276183Y-78613000D01*
X181483000Y-78613000D01*
X181483000Y-76327000D01*
X181737000Y-76327000D01*
X181737000Y-78613000D01*
X184023000Y-78613000D01*
X184023000Y-76327000D01*
X184277000Y-76327000D01*
X184277000Y-78613000D01*
X185483817Y-78613000D01*
X185604958Y-78380974D01*
X185559222Y-78230186D01*
X185432684Y-77965056D01*
X185256854Y-77729707D01*
X185038488Y-77533183D01*
X184932230Y-77470000D01*
X185038488Y-77406817D01*
X185256854Y-77210293D01*
X185432684Y-76974944D01*
X185559222Y-76709814D01*
X185604958Y-76559026D01*
X199205042Y-76559026D01*
X199250778Y-76709814D01*
X199377316Y-76974944D01*
X199553146Y-77210293D01*
X199771512Y-77406817D01*
X199877770Y-77470000D01*
X199771512Y-77533183D01*
X199553146Y-77729707D01*
X199377316Y-77965056D01*
X199250778Y-78230186D01*
X199205042Y-78380974D01*
X199326183Y-78613000D01*
X200533000Y-78613000D01*
X200533000Y-76327000D01*
X200787000Y-76327000D01*
X200787000Y-78613000D01*
X203073000Y-78613000D01*
X203073000Y-76327000D01*
X203327000Y-76327000D01*
X203327000Y-78613000D01*
X204533817Y-78613000D01*
X204654958Y-78380974D01*
X204609222Y-78230186D01*
X204482684Y-77965056D01*
X204306854Y-77729707D01*
X204088488Y-77533183D01*
X203982230Y-77470000D01*
X204088488Y-77406817D01*
X204306854Y-77210293D01*
X204482684Y-76974944D01*
X204609222Y-76709814D01*
X204654958Y-76559026D01*
X218255042Y-76559026D01*
X218300778Y-76709814D01*
X218427316Y-76974944D01*
X218603146Y-77210293D01*
X218821512Y-77406817D01*
X218927770Y-77470000D01*
X218821512Y-77533183D01*
X218603146Y-77729707D01*
X218427316Y-77965056D01*
X218300778Y-78230186D01*
X218255042Y-78380974D01*
X218376183Y-78613000D01*
X219583000Y-78613000D01*
X219583000Y-76327000D01*
X219837000Y-76327000D01*
X219837000Y-78613000D01*
X222123000Y-78613000D01*
X222123000Y-76327000D01*
X222377000Y-76327000D01*
X222377000Y-78613000D01*
X223583817Y-78613000D01*
X223704958Y-78380974D01*
X223659222Y-78230186D01*
X223532684Y-77965056D01*
X223356854Y-77729707D01*
X223138488Y-77533183D01*
X223032230Y-77470000D01*
X223138488Y-77406817D01*
X223356854Y-77210293D01*
X223532684Y-76974944D01*
X223659222Y-76709814D01*
X223704958Y-76559026D01*
X237305042Y-76559026D01*
X237350778Y-76709814D01*
X237477316Y-76974944D01*
X237653146Y-77210293D01*
X237871512Y-77406817D01*
X237977770Y-77470000D01*
X237871512Y-77533183D01*
X237653146Y-77729707D01*
X237477316Y-77965056D01*
X237350778Y-78230186D01*
X237305042Y-78380974D01*
X237426183Y-78613000D01*
X238633000Y-78613000D01*
X238633000Y-76327000D01*
X238887000Y-76327000D01*
X238887000Y-78613000D01*
X241173000Y-78613000D01*
X241173000Y-76327000D01*
X241427000Y-76327000D01*
X241427000Y-78613000D01*
X242633817Y-78613000D01*
X242754958Y-78380974D01*
X242709222Y-78230186D01*
X242582684Y-77965056D01*
X242406854Y-77729707D01*
X242188488Y-77533183D01*
X242155758Y-77513721D01*
X261263000Y-77513721D01*
X261263000Y-77934279D01*
X261345047Y-78346756D01*
X261505988Y-78735302D01*
X261739637Y-79084983D01*
X262037017Y-79382363D01*
X262386698Y-79616012D01*
X262775244Y-79776953D01*
X263187721Y-79859000D01*
X263608279Y-79859000D01*
X264020756Y-79776953D01*
X264409302Y-79616012D01*
X264758983Y-79382363D01*
X265056363Y-79084983D01*
X265290012Y-78735302D01*
X265450953Y-78346756D01*
X265533000Y-77934279D01*
X265533000Y-77513721D01*
X265450953Y-77101244D01*
X265290012Y-76712698D01*
X265056363Y-76363017D01*
X264758983Y-76065637D01*
X264409302Y-75831988D01*
X264020756Y-75671047D01*
X263608279Y-75589000D01*
X263187721Y-75589000D01*
X262775244Y-75671047D01*
X262386698Y-75831988D01*
X262037017Y-76065637D01*
X261739637Y-76363017D01*
X261505988Y-76712698D01*
X261345047Y-77101244D01*
X261263000Y-77513721D01*
X242155758Y-77513721D01*
X242082230Y-77470000D01*
X242188488Y-77406817D01*
X242406854Y-77210293D01*
X242582684Y-76974944D01*
X242709222Y-76709814D01*
X242754958Y-76559026D01*
X242633817Y-76327000D01*
X241427000Y-76327000D01*
X241173000Y-76327000D01*
X238887000Y-76327000D01*
X238633000Y-76327000D01*
X237426183Y-76327000D01*
X237305042Y-76559026D01*
X223704958Y-76559026D01*
X223583817Y-76327000D01*
X222377000Y-76327000D01*
X222123000Y-76327000D01*
X219837000Y-76327000D01*
X219583000Y-76327000D01*
X218376183Y-76327000D01*
X218255042Y-76559026D01*
X204654958Y-76559026D01*
X204533817Y-76327000D01*
X203327000Y-76327000D01*
X203073000Y-76327000D01*
X200787000Y-76327000D01*
X200533000Y-76327000D01*
X199326183Y-76327000D01*
X199205042Y-76559026D01*
X185604958Y-76559026D01*
X185483817Y-76327000D01*
X184277000Y-76327000D01*
X184023000Y-76327000D01*
X181737000Y-76327000D01*
X181483000Y-76327000D01*
X180276183Y-76327000D01*
X180155042Y-76559026D01*
X166554958Y-76559026D01*
X166433817Y-76327000D01*
X165227000Y-76327000D01*
X164973000Y-76327000D01*
X162687000Y-76327000D01*
X162433000Y-76327000D01*
X161226183Y-76327000D01*
X161105042Y-76559026D01*
X147504958Y-76559026D01*
X147383817Y-76327000D01*
X146177000Y-76327000D01*
X145923000Y-76327000D01*
X143637000Y-76327000D01*
X143383000Y-76327000D01*
X142176183Y-76327000D01*
X142055042Y-76559026D01*
X128454958Y-76559026D01*
X128333817Y-76327000D01*
X127127000Y-76327000D01*
X126873000Y-76327000D01*
X124587000Y-76327000D01*
X124333000Y-76327000D01*
X123126183Y-76327000D01*
X123005042Y-76559026D01*
X109055959Y-76559026D01*
X108934818Y-76327000D01*
X107728001Y-76327000D01*
X107474001Y-76327000D01*
X105188001Y-76327000D01*
X104934001Y-76327000D01*
X103727184Y-76327000D01*
X103606043Y-76559026D01*
X80670000Y-76559026D01*
X80670000Y-75151653D01*
X87587952Y-75151653D01*
X87743962Y-75467214D01*
X88118745Y-75658020D01*
X88523551Y-75772044D01*
X88942824Y-75804902D01*
X89360451Y-75755334D01*
X89760383Y-75625243D01*
X90056038Y-75467214D01*
X90212048Y-75151653D01*
X88900000Y-73839605D01*
X87587952Y-75151653D01*
X80670000Y-75151653D01*
X80670000Y-73702824D01*
X86755098Y-73702824D01*
X86804666Y-74120451D01*
X86934757Y-74520383D01*
X87092786Y-74816038D01*
X87408347Y-74972048D01*
X88720395Y-73660000D01*
X89079605Y-73660000D01*
X90391653Y-74972048D01*
X90707214Y-74816038D01*
X90898020Y-74441255D01*
X91012044Y-74036449D01*
X91013409Y-74019026D01*
X103606043Y-74019026D01*
X103651779Y-74169814D01*
X103778317Y-74434944D01*
X103954147Y-74670293D01*
X104172513Y-74866817D01*
X104278771Y-74930000D01*
X104172513Y-74993183D01*
X103954147Y-75189707D01*
X103778317Y-75425056D01*
X103651779Y-75690186D01*
X103606043Y-75840974D01*
X103727184Y-76073000D01*
X104934001Y-76073000D01*
X104934001Y-73787000D01*
X105188001Y-73787000D01*
X105188001Y-76073000D01*
X107474001Y-76073000D01*
X107474001Y-73787000D01*
X107728001Y-73787000D01*
X107728001Y-76073000D01*
X108934818Y-76073000D01*
X109055959Y-75840974D01*
X109010223Y-75690186D01*
X108883685Y-75425056D01*
X108707855Y-75189707D01*
X108489489Y-74993183D01*
X108383231Y-74930000D01*
X108489489Y-74866817D01*
X108707855Y-74670293D01*
X108883685Y-74434944D01*
X109010223Y-74169814D01*
X109055959Y-74019026D01*
X123005042Y-74019026D01*
X123050778Y-74169814D01*
X123177316Y-74434944D01*
X123353146Y-74670293D01*
X123571512Y-74866817D01*
X123677770Y-74930000D01*
X123571512Y-74993183D01*
X123353146Y-75189707D01*
X123177316Y-75425056D01*
X123050778Y-75690186D01*
X123005042Y-75840974D01*
X123126183Y-76073000D01*
X124333000Y-76073000D01*
X124333000Y-73787000D01*
X124587000Y-73787000D01*
X124587000Y-76073000D01*
X126873000Y-76073000D01*
X126873000Y-73787000D01*
X127127000Y-73787000D01*
X127127000Y-76073000D01*
X128333817Y-76073000D01*
X128454958Y-75840974D01*
X128409222Y-75690186D01*
X128282684Y-75425056D01*
X128106854Y-75189707D01*
X127888488Y-74993183D01*
X127782230Y-74930000D01*
X127888488Y-74866817D01*
X128106854Y-74670293D01*
X128282684Y-74434944D01*
X128409222Y-74169814D01*
X128454958Y-74019026D01*
X142055042Y-74019026D01*
X142100778Y-74169814D01*
X142227316Y-74434944D01*
X142403146Y-74670293D01*
X142621512Y-74866817D01*
X142727770Y-74930000D01*
X142621512Y-74993183D01*
X142403146Y-75189707D01*
X142227316Y-75425056D01*
X142100778Y-75690186D01*
X142055042Y-75840974D01*
X142176183Y-76073000D01*
X143383000Y-76073000D01*
X143383000Y-73787000D01*
X143637000Y-73787000D01*
X143637000Y-76073000D01*
X145923000Y-76073000D01*
X145923000Y-73787000D01*
X146177000Y-73787000D01*
X146177000Y-76073000D01*
X147383817Y-76073000D01*
X147504958Y-75840974D01*
X147459222Y-75690186D01*
X147332684Y-75425056D01*
X147156854Y-75189707D01*
X146938488Y-74993183D01*
X146832230Y-74930000D01*
X146938488Y-74866817D01*
X147156854Y-74670293D01*
X147332684Y-74434944D01*
X147459222Y-74169814D01*
X147504958Y-74019026D01*
X161105042Y-74019026D01*
X161150778Y-74169814D01*
X161277316Y-74434944D01*
X161453146Y-74670293D01*
X161671512Y-74866817D01*
X161777770Y-74930000D01*
X161671512Y-74993183D01*
X161453146Y-75189707D01*
X161277316Y-75425056D01*
X161150778Y-75690186D01*
X161105042Y-75840974D01*
X161226183Y-76073000D01*
X162433000Y-76073000D01*
X162433000Y-73787000D01*
X162687000Y-73787000D01*
X162687000Y-76073000D01*
X164973000Y-76073000D01*
X164973000Y-73787000D01*
X165227000Y-73787000D01*
X165227000Y-76073000D01*
X166433817Y-76073000D01*
X166554958Y-75840974D01*
X166509222Y-75690186D01*
X166382684Y-75425056D01*
X166206854Y-75189707D01*
X165988488Y-74993183D01*
X165882230Y-74930000D01*
X165988488Y-74866817D01*
X166206854Y-74670293D01*
X166382684Y-74434944D01*
X166509222Y-74169814D01*
X166554958Y-74019026D01*
X180155042Y-74019026D01*
X180200778Y-74169814D01*
X180327316Y-74434944D01*
X180503146Y-74670293D01*
X180721512Y-74866817D01*
X180827770Y-74930000D01*
X180721512Y-74993183D01*
X180503146Y-75189707D01*
X180327316Y-75425056D01*
X180200778Y-75690186D01*
X180155042Y-75840974D01*
X180276183Y-76073000D01*
X181483000Y-76073000D01*
X181483000Y-73787000D01*
X181737000Y-73787000D01*
X181737000Y-76073000D01*
X184023000Y-76073000D01*
X184023000Y-73787000D01*
X184277000Y-73787000D01*
X184277000Y-76073000D01*
X185483817Y-76073000D01*
X185604958Y-75840974D01*
X185559222Y-75690186D01*
X185432684Y-75425056D01*
X185256854Y-75189707D01*
X185038488Y-74993183D01*
X184932230Y-74930000D01*
X185038488Y-74866817D01*
X185256854Y-74670293D01*
X185432684Y-74434944D01*
X185559222Y-74169814D01*
X185604958Y-74019026D01*
X199205042Y-74019026D01*
X199250778Y-74169814D01*
X199377316Y-74434944D01*
X199553146Y-74670293D01*
X199771512Y-74866817D01*
X199877770Y-74930000D01*
X199771512Y-74993183D01*
X199553146Y-75189707D01*
X199377316Y-75425056D01*
X199250778Y-75690186D01*
X199205042Y-75840974D01*
X199326183Y-76073000D01*
X200533000Y-76073000D01*
X200533000Y-73787000D01*
X200787000Y-73787000D01*
X200787000Y-76073000D01*
X203073000Y-76073000D01*
X203073000Y-73787000D01*
X203327000Y-73787000D01*
X203327000Y-76073000D01*
X204533817Y-76073000D01*
X204654958Y-75840974D01*
X204609222Y-75690186D01*
X204482684Y-75425056D01*
X204306854Y-75189707D01*
X204088488Y-74993183D01*
X203982230Y-74930000D01*
X204088488Y-74866817D01*
X204306854Y-74670293D01*
X204482684Y-74434944D01*
X204609222Y-74169814D01*
X204654958Y-74019026D01*
X218255042Y-74019026D01*
X218300778Y-74169814D01*
X218427316Y-74434944D01*
X218603146Y-74670293D01*
X218821512Y-74866817D01*
X218927770Y-74930000D01*
X218821512Y-74993183D01*
X218603146Y-75189707D01*
X218427316Y-75425056D01*
X218300778Y-75690186D01*
X218255042Y-75840974D01*
X218376183Y-76073000D01*
X219583000Y-76073000D01*
X219583000Y-73787000D01*
X219837000Y-73787000D01*
X219837000Y-76073000D01*
X222123000Y-76073000D01*
X222123000Y-73787000D01*
X222377000Y-73787000D01*
X222377000Y-76073000D01*
X223583817Y-76073000D01*
X223704958Y-75840974D01*
X223659222Y-75690186D01*
X223532684Y-75425056D01*
X223356854Y-75189707D01*
X223138488Y-74993183D01*
X223032230Y-74930000D01*
X223138488Y-74866817D01*
X223356854Y-74670293D01*
X223532684Y-74434944D01*
X223659222Y-74169814D01*
X223704958Y-74019026D01*
X237305042Y-74019026D01*
X237350778Y-74169814D01*
X237477316Y-74434944D01*
X237653146Y-74670293D01*
X237871512Y-74866817D01*
X237977770Y-74930000D01*
X237871512Y-74993183D01*
X237653146Y-75189707D01*
X237477316Y-75425056D01*
X237350778Y-75690186D01*
X237305042Y-75840974D01*
X237426183Y-76073000D01*
X238633000Y-76073000D01*
X238633000Y-73787000D01*
X238887000Y-73787000D01*
X238887000Y-76073000D01*
X241173000Y-76073000D01*
X241173000Y-73787000D01*
X241427000Y-73787000D01*
X241427000Y-76073000D01*
X242633817Y-76073000D01*
X242754958Y-75840974D01*
X242709222Y-75690186D01*
X242582684Y-75425056D01*
X242406854Y-75189707D01*
X242232526Y-75032816D01*
X252973000Y-75032816D01*
X252973000Y-75335184D01*
X253031989Y-75631743D01*
X253147701Y-75911095D01*
X253315688Y-76162505D01*
X253529495Y-76376312D01*
X253780905Y-76544299D01*
X254060257Y-76660011D01*
X254356816Y-76719000D01*
X254659184Y-76719000D01*
X254955743Y-76660011D01*
X255235095Y-76544299D01*
X255486505Y-76376312D01*
X255552944Y-76309873D01*
X255558498Y-76328180D01*
X255617463Y-76438494D01*
X255696815Y-76535185D01*
X255793506Y-76614537D01*
X255903820Y-76673502D01*
X256023518Y-76709812D01*
X256148000Y-76722072D01*
X256762250Y-76719000D01*
X256921000Y-76560250D01*
X256921000Y-75311000D01*
X257175000Y-75311000D01*
X257175000Y-76560250D01*
X257333750Y-76719000D01*
X257948000Y-76722072D01*
X258072482Y-76709812D01*
X258192180Y-76673502D01*
X258302494Y-76614537D01*
X258399185Y-76535185D01*
X258478537Y-76438494D01*
X258537502Y-76328180D01*
X258573812Y-76208482D01*
X258586072Y-76084000D01*
X258583000Y-75469750D01*
X258424250Y-75311000D01*
X257175000Y-75311000D01*
X256921000Y-75311000D01*
X256901000Y-75311000D01*
X256901000Y-75057000D01*
X256921000Y-75057000D01*
X256921000Y-73807750D01*
X257175000Y-73807750D01*
X257175000Y-75057000D01*
X258424250Y-75057000D01*
X258583000Y-74898250D01*
X258586072Y-74284000D01*
X258573812Y-74159518D01*
X258566573Y-74135653D01*
X262085952Y-74135653D01*
X262241962Y-74451214D01*
X262616745Y-74642020D01*
X263021551Y-74756044D01*
X263440824Y-74788902D01*
X263858451Y-74739334D01*
X264258383Y-74609243D01*
X264554038Y-74451214D01*
X264710048Y-74135653D01*
X263398000Y-72823605D01*
X262085952Y-74135653D01*
X258566573Y-74135653D01*
X258537502Y-74039820D01*
X258478537Y-73929506D01*
X258399185Y-73832815D01*
X258302494Y-73753463D01*
X258192180Y-73694498D01*
X258072482Y-73658188D01*
X257948000Y-73645928D01*
X257333750Y-73649000D01*
X257175000Y-73807750D01*
X256921000Y-73807750D01*
X256762250Y-73649000D01*
X256148000Y-73645928D01*
X256023518Y-73658188D01*
X255903820Y-73694498D01*
X255793506Y-73753463D01*
X255696815Y-73832815D01*
X255617463Y-73929506D01*
X255558498Y-74039820D01*
X255552944Y-74058127D01*
X255486505Y-73991688D01*
X255235095Y-73823701D01*
X254955743Y-73707989D01*
X254659184Y-73649000D01*
X254356816Y-73649000D01*
X254060257Y-73707989D01*
X253780905Y-73823701D01*
X253529495Y-73991688D01*
X253315688Y-74205495D01*
X253147701Y-74456905D01*
X253031989Y-74736257D01*
X252973000Y-75032816D01*
X242232526Y-75032816D01*
X242188488Y-74993183D01*
X242082230Y-74930000D01*
X242188488Y-74866817D01*
X242406854Y-74670293D01*
X242582684Y-74434944D01*
X242709222Y-74169814D01*
X242754958Y-74019026D01*
X242633817Y-73787000D01*
X241427000Y-73787000D01*
X241173000Y-73787000D01*
X238887000Y-73787000D01*
X238633000Y-73787000D01*
X237426183Y-73787000D01*
X237305042Y-74019026D01*
X223704958Y-74019026D01*
X223583817Y-73787000D01*
X222377000Y-73787000D01*
X222123000Y-73787000D01*
X219837000Y-73787000D01*
X219583000Y-73787000D01*
X218376183Y-73787000D01*
X218255042Y-74019026D01*
X204654958Y-74019026D01*
X204533817Y-73787000D01*
X203327000Y-73787000D01*
X203073000Y-73787000D01*
X200787000Y-73787000D01*
X200533000Y-73787000D01*
X199326183Y-73787000D01*
X199205042Y-74019026D01*
X185604958Y-74019026D01*
X185483817Y-73787000D01*
X184277000Y-73787000D01*
X184023000Y-73787000D01*
X181737000Y-73787000D01*
X181483000Y-73787000D01*
X180276183Y-73787000D01*
X180155042Y-74019026D01*
X166554958Y-74019026D01*
X166433817Y-73787000D01*
X165227000Y-73787000D01*
X164973000Y-73787000D01*
X162687000Y-73787000D01*
X162433000Y-73787000D01*
X161226183Y-73787000D01*
X161105042Y-74019026D01*
X147504958Y-74019026D01*
X147383817Y-73787000D01*
X146177000Y-73787000D01*
X145923000Y-73787000D01*
X143637000Y-73787000D01*
X143383000Y-73787000D01*
X142176183Y-73787000D01*
X142055042Y-74019026D01*
X128454958Y-74019026D01*
X128333817Y-73787000D01*
X127127000Y-73787000D01*
X126873000Y-73787000D01*
X124587000Y-73787000D01*
X124333000Y-73787000D01*
X123126183Y-73787000D01*
X123005042Y-74019026D01*
X109055959Y-74019026D01*
X108934818Y-73787000D01*
X107728001Y-73787000D01*
X107474001Y-73787000D01*
X105188001Y-73787000D01*
X104934001Y-73787000D01*
X103727184Y-73787000D01*
X103606043Y-74019026D01*
X91013409Y-74019026D01*
X91044902Y-73617176D01*
X90995334Y-73199549D01*
X90865243Y-72799617D01*
X90707214Y-72503962D01*
X90391653Y-72347952D01*
X89079605Y-73660000D01*
X88720395Y-73660000D01*
X87408347Y-72347952D01*
X87092786Y-72503962D01*
X86901980Y-72878745D01*
X86787956Y-73283551D01*
X86755098Y-73702824D01*
X80670000Y-73702824D01*
X80670000Y-72168347D01*
X87587952Y-72168347D01*
X88900000Y-73480395D01*
X90212048Y-72168347D01*
X90056038Y-71852786D01*
X89681255Y-71661980D01*
X89276449Y-71547956D01*
X88857176Y-71515098D01*
X88439549Y-71564666D01*
X88039617Y-71694757D01*
X87743962Y-71852786D01*
X87587952Y-72168347D01*
X80670000Y-72168347D01*
X80670000Y-68369721D01*
X86765000Y-68369721D01*
X86765000Y-68790279D01*
X86847047Y-69202756D01*
X87007988Y-69591302D01*
X87241637Y-69940983D01*
X87539017Y-70238363D01*
X87888698Y-70472012D01*
X88277244Y-70632953D01*
X88689721Y-70715000D01*
X89110279Y-70715000D01*
X89522756Y-70632953D01*
X89911302Y-70472012D01*
X90233988Y-70256400D01*
X103559329Y-70256400D01*
X103559329Y-71983600D01*
X103571589Y-72108082D01*
X103607899Y-72227780D01*
X103666864Y-72338094D01*
X103746216Y-72434785D01*
X103842907Y-72514137D01*
X103953221Y-72573102D01*
X104017575Y-72592624D01*
X103954147Y-72649707D01*
X103778317Y-72885056D01*
X103651779Y-73150186D01*
X103606043Y-73300974D01*
X103727184Y-73533000D01*
X104934001Y-73533000D01*
X104934001Y-73513000D01*
X105188001Y-73513000D01*
X105188001Y-73533000D01*
X107474001Y-73533000D01*
X107474001Y-73513000D01*
X107728001Y-73513000D01*
X107728001Y-73533000D01*
X108934818Y-73533000D01*
X109055959Y-73300974D01*
X109010223Y-73150186D01*
X108883685Y-72885056D01*
X108707855Y-72649707D01*
X108489489Y-72453183D01*
X108393091Y-72395863D01*
X108437607Y-72372069D01*
X108665798Y-72184797D01*
X108853070Y-71956606D01*
X108992226Y-71696264D01*
X109077917Y-71413777D01*
X109106852Y-71120000D01*
X109077917Y-70826223D01*
X108992226Y-70543736D01*
X108853070Y-70283394D01*
X108830917Y-70256400D01*
X122958328Y-70256400D01*
X122958328Y-71983600D01*
X122970588Y-72108082D01*
X123006898Y-72227780D01*
X123065863Y-72338094D01*
X123145215Y-72434785D01*
X123241906Y-72514137D01*
X123352220Y-72573102D01*
X123416574Y-72592624D01*
X123353146Y-72649707D01*
X123177316Y-72885056D01*
X123050778Y-73150186D01*
X123005042Y-73300974D01*
X123126183Y-73533000D01*
X124333000Y-73533000D01*
X124333000Y-73513000D01*
X124587000Y-73513000D01*
X124587000Y-73533000D01*
X126873000Y-73533000D01*
X126873000Y-73513000D01*
X127127000Y-73513000D01*
X127127000Y-73533000D01*
X128333817Y-73533000D01*
X128454958Y-73300974D01*
X128409222Y-73150186D01*
X128282684Y-72885056D01*
X128106854Y-72649707D01*
X127888488Y-72453183D01*
X127792090Y-72395863D01*
X127836606Y-72372069D01*
X128064797Y-72184797D01*
X128252069Y-71956606D01*
X128391225Y-71696264D01*
X128476916Y-71413777D01*
X128505851Y-71120000D01*
X128476916Y-70826223D01*
X128391225Y-70543736D01*
X128252069Y-70283394D01*
X128229916Y-70256400D01*
X142008328Y-70256400D01*
X142008328Y-71983600D01*
X142020588Y-72108082D01*
X142056898Y-72227780D01*
X142115863Y-72338094D01*
X142195215Y-72434785D01*
X142291906Y-72514137D01*
X142402220Y-72573102D01*
X142466574Y-72592624D01*
X142403146Y-72649707D01*
X142227316Y-72885056D01*
X142100778Y-73150186D01*
X142055042Y-73300974D01*
X142176183Y-73533000D01*
X143383000Y-73533000D01*
X143383000Y-73513000D01*
X143637000Y-73513000D01*
X143637000Y-73533000D01*
X145923000Y-73533000D01*
X145923000Y-73513000D01*
X146177000Y-73513000D01*
X146177000Y-73533000D01*
X147383817Y-73533000D01*
X147504958Y-73300974D01*
X147459222Y-73150186D01*
X147332684Y-72885056D01*
X147156854Y-72649707D01*
X146938488Y-72453183D01*
X146842090Y-72395863D01*
X146886606Y-72372069D01*
X147114797Y-72184797D01*
X147302069Y-71956606D01*
X147441225Y-71696264D01*
X147526916Y-71413777D01*
X147555851Y-71120000D01*
X147526916Y-70826223D01*
X147441225Y-70543736D01*
X147302069Y-70283394D01*
X147279916Y-70256400D01*
X161058328Y-70256400D01*
X161058328Y-71983600D01*
X161070588Y-72108082D01*
X161106898Y-72227780D01*
X161165863Y-72338094D01*
X161245215Y-72434785D01*
X161341906Y-72514137D01*
X161452220Y-72573102D01*
X161516574Y-72592624D01*
X161453146Y-72649707D01*
X161277316Y-72885056D01*
X161150778Y-73150186D01*
X161105042Y-73300974D01*
X161226183Y-73533000D01*
X162433000Y-73533000D01*
X162433000Y-73513000D01*
X162687000Y-73513000D01*
X162687000Y-73533000D01*
X164973000Y-73533000D01*
X164973000Y-73513000D01*
X165227000Y-73513000D01*
X165227000Y-73533000D01*
X166433817Y-73533000D01*
X166554958Y-73300974D01*
X166509222Y-73150186D01*
X166382684Y-72885056D01*
X166206854Y-72649707D01*
X165988488Y-72453183D01*
X165892090Y-72395863D01*
X165936606Y-72372069D01*
X166164797Y-72184797D01*
X166352069Y-71956606D01*
X166491225Y-71696264D01*
X166576916Y-71413777D01*
X166605851Y-71120000D01*
X166576916Y-70826223D01*
X166491225Y-70543736D01*
X166352069Y-70283394D01*
X166329916Y-70256400D01*
X180108328Y-70256400D01*
X180108328Y-71983600D01*
X180120588Y-72108082D01*
X180156898Y-72227780D01*
X180215863Y-72338094D01*
X180295215Y-72434785D01*
X180391906Y-72514137D01*
X180502220Y-72573102D01*
X180566574Y-72592624D01*
X180503146Y-72649707D01*
X180327316Y-72885056D01*
X180200778Y-73150186D01*
X180155042Y-73300974D01*
X180276183Y-73533000D01*
X181483000Y-73533000D01*
X181483000Y-73513000D01*
X181737000Y-73513000D01*
X181737000Y-73533000D01*
X184023000Y-73533000D01*
X184023000Y-73513000D01*
X184277000Y-73513000D01*
X184277000Y-73533000D01*
X185483817Y-73533000D01*
X185604958Y-73300974D01*
X185559222Y-73150186D01*
X185432684Y-72885056D01*
X185256854Y-72649707D01*
X185038488Y-72453183D01*
X184942090Y-72395863D01*
X184986606Y-72372069D01*
X185214797Y-72184797D01*
X185402069Y-71956606D01*
X185541225Y-71696264D01*
X185626916Y-71413777D01*
X185655851Y-71120000D01*
X185626916Y-70826223D01*
X185541225Y-70543736D01*
X185402069Y-70283394D01*
X185379916Y-70256400D01*
X199158328Y-70256400D01*
X199158328Y-71983600D01*
X199170588Y-72108082D01*
X199206898Y-72227780D01*
X199265863Y-72338094D01*
X199345215Y-72434785D01*
X199441906Y-72514137D01*
X199552220Y-72573102D01*
X199616574Y-72592624D01*
X199553146Y-72649707D01*
X199377316Y-72885056D01*
X199250778Y-73150186D01*
X199205042Y-73300974D01*
X199326183Y-73533000D01*
X200533000Y-73533000D01*
X200533000Y-73513000D01*
X200787000Y-73513000D01*
X200787000Y-73533000D01*
X203073000Y-73533000D01*
X203073000Y-73513000D01*
X203327000Y-73513000D01*
X203327000Y-73533000D01*
X204533817Y-73533000D01*
X204654958Y-73300974D01*
X204609222Y-73150186D01*
X204482684Y-72885056D01*
X204306854Y-72649707D01*
X204088488Y-72453183D01*
X203992090Y-72395863D01*
X204036606Y-72372069D01*
X204264797Y-72184797D01*
X204452069Y-71956606D01*
X204591225Y-71696264D01*
X204676916Y-71413777D01*
X204705851Y-71120000D01*
X204676916Y-70826223D01*
X204591225Y-70543736D01*
X204452069Y-70283394D01*
X204429916Y-70256400D01*
X218208328Y-70256400D01*
X218208328Y-71983600D01*
X218220588Y-72108082D01*
X218256898Y-72227780D01*
X218315863Y-72338094D01*
X218395215Y-72434785D01*
X218491906Y-72514137D01*
X218602220Y-72573102D01*
X218666574Y-72592624D01*
X218603146Y-72649707D01*
X218427316Y-72885056D01*
X218300778Y-73150186D01*
X218255042Y-73300974D01*
X218376183Y-73533000D01*
X219583000Y-73533000D01*
X219583000Y-73513000D01*
X219837000Y-73513000D01*
X219837000Y-73533000D01*
X222123000Y-73533000D01*
X222123000Y-73513000D01*
X222377000Y-73513000D01*
X222377000Y-73533000D01*
X223583817Y-73533000D01*
X223704958Y-73300974D01*
X223659222Y-73150186D01*
X223532684Y-72885056D01*
X223356854Y-72649707D01*
X223138488Y-72453183D01*
X223042090Y-72395863D01*
X223086606Y-72372069D01*
X223314797Y-72184797D01*
X223502069Y-71956606D01*
X223641225Y-71696264D01*
X223726916Y-71413777D01*
X223755851Y-71120000D01*
X223726916Y-70826223D01*
X223641225Y-70543736D01*
X223502069Y-70283394D01*
X223479916Y-70256400D01*
X237258328Y-70256400D01*
X237258328Y-71983600D01*
X237270588Y-72108082D01*
X237306898Y-72227780D01*
X237365863Y-72338094D01*
X237445215Y-72434785D01*
X237541906Y-72514137D01*
X237652220Y-72573102D01*
X237716574Y-72592624D01*
X237653146Y-72649707D01*
X237477316Y-72885056D01*
X237350778Y-73150186D01*
X237305042Y-73300974D01*
X237426183Y-73533000D01*
X238633000Y-73533000D01*
X238633000Y-73513000D01*
X238887000Y-73513000D01*
X238887000Y-73533000D01*
X241173000Y-73533000D01*
X241173000Y-73513000D01*
X241427000Y-73513000D01*
X241427000Y-73533000D01*
X242633817Y-73533000D01*
X242754958Y-73300974D01*
X242709222Y-73150186D01*
X242582684Y-72885056D01*
X242434585Y-72686824D01*
X261253098Y-72686824D01*
X261302666Y-73104451D01*
X261432757Y-73504383D01*
X261590786Y-73800038D01*
X261906347Y-73956048D01*
X263218395Y-72644000D01*
X263577605Y-72644000D01*
X264889653Y-73956048D01*
X265205214Y-73800038D01*
X265396020Y-73425255D01*
X265510044Y-73020449D01*
X265542902Y-72601176D01*
X265493334Y-72183549D01*
X265363243Y-71783617D01*
X265205214Y-71487962D01*
X264889653Y-71331952D01*
X263577605Y-72644000D01*
X263218395Y-72644000D01*
X261906347Y-71331952D01*
X261590786Y-71487962D01*
X261399980Y-71862745D01*
X261285956Y-72267551D01*
X261253098Y-72686824D01*
X242434585Y-72686824D01*
X242406854Y-72649707D01*
X242188488Y-72453183D01*
X242092090Y-72395863D01*
X242136606Y-72372069D01*
X242364797Y-72184797D01*
X242552069Y-71956606D01*
X242691225Y-71696264D01*
X242776916Y-71413777D01*
X242802665Y-71152347D01*
X262085952Y-71152347D01*
X263398000Y-72464395D01*
X264710048Y-71152347D01*
X264554038Y-70836786D01*
X264179255Y-70645980D01*
X263774449Y-70531956D01*
X263355176Y-70499098D01*
X262937549Y-70548666D01*
X262537617Y-70678757D01*
X262241962Y-70836786D01*
X262085952Y-71152347D01*
X242802665Y-71152347D01*
X242805851Y-71120000D01*
X242776916Y-70826223D01*
X242691225Y-70543736D01*
X242552069Y-70283394D01*
X242364797Y-70055203D01*
X242136606Y-69867931D01*
X241876264Y-69728775D01*
X241593777Y-69643084D01*
X241373619Y-69621400D01*
X241226381Y-69621400D01*
X241006223Y-69643084D01*
X240723736Y-69728775D01*
X240463394Y-69867931D01*
X240235203Y-70055203D01*
X240228586Y-70063265D01*
X240213102Y-70012220D01*
X240154137Y-69901906D01*
X240074785Y-69805215D01*
X239978094Y-69725863D01*
X239867780Y-69666898D01*
X239748082Y-69630588D01*
X239623600Y-69618328D01*
X237896400Y-69618328D01*
X237771918Y-69630588D01*
X237652220Y-69666898D01*
X237541906Y-69725863D01*
X237445215Y-69805215D01*
X237365863Y-69901906D01*
X237306898Y-70012220D01*
X237270588Y-70131918D01*
X237258328Y-70256400D01*
X223479916Y-70256400D01*
X223314797Y-70055203D01*
X223086606Y-69867931D01*
X222826264Y-69728775D01*
X222543777Y-69643084D01*
X222323619Y-69621400D01*
X222176381Y-69621400D01*
X221956223Y-69643084D01*
X221673736Y-69728775D01*
X221413394Y-69867931D01*
X221185203Y-70055203D01*
X221178586Y-70063265D01*
X221163102Y-70012220D01*
X221104137Y-69901906D01*
X221024785Y-69805215D01*
X220928094Y-69725863D01*
X220817780Y-69666898D01*
X220698082Y-69630588D01*
X220573600Y-69618328D01*
X218846400Y-69618328D01*
X218721918Y-69630588D01*
X218602220Y-69666898D01*
X218491906Y-69725863D01*
X218395215Y-69805215D01*
X218315863Y-69901906D01*
X218256898Y-70012220D01*
X218220588Y-70131918D01*
X218208328Y-70256400D01*
X204429916Y-70256400D01*
X204264797Y-70055203D01*
X204036606Y-69867931D01*
X203776264Y-69728775D01*
X203493777Y-69643084D01*
X203273619Y-69621400D01*
X203126381Y-69621400D01*
X202906223Y-69643084D01*
X202623736Y-69728775D01*
X202363394Y-69867931D01*
X202135203Y-70055203D01*
X202128586Y-70063265D01*
X202113102Y-70012220D01*
X202054137Y-69901906D01*
X201974785Y-69805215D01*
X201878094Y-69725863D01*
X201767780Y-69666898D01*
X201648082Y-69630588D01*
X201523600Y-69618328D01*
X199796400Y-69618328D01*
X199671918Y-69630588D01*
X199552220Y-69666898D01*
X199441906Y-69725863D01*
X199345215Y-69805215D01*
X199265863Y-69901906D01*
X199206898Y-70012220D01*
X199170588Y-70131918D01*
X199158328Y-70256400D01*
X185379916Y-70256400D01*
X185214797Y-70055203D01*
X184986606Y-69867931D01*
X184726264Y-69728775D01*
X184443777Y-69643084D01*
X184223619Y-69621400D01*
X184076381Y-69621400D01*
X183856223Y-69643084D01*
X183573736Y-69728775D01*
X183313394Y-69867931D01*
X183085203Y-70055203D01*
X183078586Y-70063265D01*
X183063102Y-70012220D01*
X183004137Y-69901906D01*
X182924785Y-69805215D01*
X182828094Y-69725863D01*
X182717780Y-69666898D01*
X182598082Y-69630588D01*
X182473600Y-69618328D01*
X180746400Y-69618328D01*
X180621918Y-69630588D01*
X180502220Y-69666898D01*
X180391906Y-69725863D01*
X180295215Y-69805215D01*
X180215863Y-69901906D01*
X180156898Y-70012220D01*
X180120588Y-70131918D01*
X180108328Y-70256400D01*
X166329916Y-70256400D01*
X166164797Y-70055203D01*
X165936606Y-69867931D01*
X165676264Y-69728775D01*
X165393777Y-69643084D01*
X165173619Y-69621400D01*
X165026381Y-69621400D01*
X164806223Y-69643084D01*
X164523736Y-69728775D01*
X164263394Y-69867931D01*
X164035203Y-70055203D01*
X164028586Y-70063265D01*
X164013102Y-70012220D01*
X163954137Y-69901906D01*
X163874785Y-69805215D01*
X163778094Y-69725863D01*
X163667780Y-69666898D01*
X163548082Y-69630588D01*
X163423600Y-69618328D01*
X161696400Y-69618328D01*
X161571918Y-69630588D01*
X161452220Y-69666898D01*
X161341906Y-69725863D01*
X161245215Y-69805215D01*
X161165863Y-69901906D01*
X161106898Y-70012220D01*
X161070588Y-70131918D01*
X161058328Y-70256400D01*
X147279916Y-70256400D01*
X147114797Y-70055203D01*
X146886606Y-69867931D01*
X146626264Y-69728775D01*
X146343777Y-69643084D01*
X146123619Y-69621400D01*
X145976381Y-69621400D01*
X145756223Y-69643084D01*
X145473736Y-69728775D01*
X145213394Y-69867931D01*
X144985203Y-70055203D01*
X144978586Y-70063265D01*
X144963102Y-70012220D01*
X144904137Y-69901906D01*
X144824785Y-69805215D01*
X144728094Y-69725863D01*
X144617780Y-69666898D01*
X144498082Y-69630588D01*
X144373600Y-69618328D01*
X142646400Y-69618328D01*
X142521918Y-69630588D01*
X142402220Y-69666898D01*
X142291906Y-69725863D01*
X142195215Y-69805215D01*
X142115863Y-69901906D01*
X142056898Y-70012220D01*
X142020588Y-70131918D01*
X142008328Y-70256400D01*
X128229916Y-70256400D01*
X128064797Y-70055203D01*
X127836606Y-69867931D01*
X127576264Y-69728775D01*
X127293777Y-69643084D01*
X127073619Y-69621400D01*
X126926381Y-69621400D01*
X126706223Y-69643084D01*
X126423736Y-69728775D01*
X126163394Y-69867931D01*
X125935203Y-70055203D01*
X125928586Y-70063265D01*
X125913102Y-70012220D01*
X125854137Y-69901906D01*
X125774785Y-69805215D01*
X125678094Y-69725863D01*
X125567780Y-69666898D01*
X125448082Y-69630588D01*
X125323600Y-69618328D01*
X123596400Y-69618328D01*
X123471918Y-69630588D01*
X123352220Y-69666898D01*
X123241906Y-69725863D01*
X123145215Y-69805215D01*
X123065863Y-69901906D01*
X123006898Y-70012220D01*
X122970588Y-70131918D01*
X122958328Y-70256400D01*
X108830917Y-70256400D01*
X108665798Y-70055203D01*
X108437607Y-69867931D01*
X108177265Y-69728775D01*
X107894778Y-69643084D01*
X107674620Y-69621400D01*
X107527382Y-69621400D01*
X107307224Y-69643084D01*
X107024737Y-69728775D01*
X106764395Y-69867931D01*
X106536204Y-70055203D01*
X106529587Y-70063265D01*
X106514103Y-70012220D01*
X106455138Y-69901906D01*
X106375786Y-69805215D01*
X106279095Y-69725863D01*
X106168781Y-69666898D01*
X106049083Y-69630588D01*
X105924601Y-69618328D01*
X104197401Y-69618328D01*
X104072919Y-69630588D01*
X103953221Y-69666898D01*
X103842907Y-69725863D01*
X103746216Y-69805215D01*
X103666864Y-69901906D01*
X103607899Y-70012220D01*
X103571589Y-70131918D01*
X103559329Y-70256400D01*
X90233988Y-70256400D01*
X90260983Y-70238363D01*
X90558363Y-69940983D01*
X90792012Y-69591302D01*
X90952953Y-69202756D01*
X91035000Y-68790279D01*
X91035000Y-68369721D01*
X90952953Y-67957244D01*
X90792012Y-67568698D01*
X90687856Y-67412816D01*
X252973000Y-67412816D01*
X252973000Y-67715184D01*
X253031989Y-68011743D01*
X253147701Y-68291095D01*
X253315688Y-68542505D01*
X253529495Y-68756312D01*
X253780905Y-68924299D01*
X254060257Y-69040011D01*
X254356816Y-69099000D01*
X254659184Y-69099000D01*
X254955743Y-69040011D01*
X255235095Y-68924299D01*
X255486505Y-68756312D01*
X255552944Y-68689873D01*
X255558498Y-68708180D01*
X255617463Y-68818494D01*
X255696815Y-68915185D01*
X255793506Y-68994537D01*
X255903820Y-69053502D01*
X256023518Y-69089812D01*
X256148000Y-69102072D01*
X257948000Y-69102072D01*
X258072482Y-69089812D01*
X258192180Y-69053502D01*
X258302494Y-68994537D01*
X258399185Y-68915185D01*
X258478537Y-68818494D01*
X258537502Y-68708180D01*
X258573812Y-68588482D01*
X258586072Y-68464000D01*
X258586072Y-66664000D01*
X258573812Y-66539518D01*
X258537502Y-66419820D01*
X258478537Y-66309506D01*
X258399185Y-66212815D01*
X258302494Y-66133463D01*
X258192180Y-66074498D01*
X258157573Y-66064000D01*
X261259928Y-66064000D01*
X261259928Y-69064000D01*
X261272188Y-69188482D01*
X261308498Y-69308180D01*
X261367463Y-69418494D01*
X261446815Y-69515185D01*
X261543506Y-69594537D01*
X261653820Y-69653502D01*
X261773518Y-69689812D01*
X261898000Y-69702072D01*
X264898000Y-69702072D01*
X265022482Y-69689812D01*
X265142180Y-69653502D01*
X265252494Y-69594537D01*
X265349185Y-69515185D01*
X265428537Y-69418494D01*
X265487502Y-69308180D01*
X265523812Y-69188482D01*
X265536072Y-69064000D01*
X265536072Y-66064000D01*
X265523812Y-65939518D01*
X265487502Y-65819820D01*
X265428537Y-65709506D01*
X265349185Y-65612815D01*
X265252494Y-65533463D01*
X265142180Y-65474498D01*
X265022482Y-65438188D01*
X264898000Y-65425928D01*
X261898000Y-65425928D01*
X261773518Y-65438188D01*
X261653820Y-65474498D01*
X261543506Y-65533463D01*
X261446815Y-65612815D01*
X261367463Y-65709506D01*
X261308498Y-65819820D01*
X261272188Y-65939518D01*
X261259928Y-66064000D01*
X258157573Y-66064000D01*
X258072482Y-66038188D01*
X257948000Y-66025928D01*
X256148000Y-66025928D01*
X256023518Y-66038188D01*
X255903820Y-66074498D01*
X255793506Y-66133463D01*
X255696815Y-66212815D01*
X255617463Y-66309506D01*
X255558498Y-66419820D01*
X255552944Y-66438127D01*
X255486505Y-66371688D01*
X255235095Y-66203701D01*
X254955743Y-66087989D01*
X254659184Y-66029000D01*
X254356816Y-66029000D01*
X254060257Y-66087989D01*
X253780905Y-66203701D01*
X253529495Y-66371688D01*
X253315688Y-66585495D01*
X253147701Y-66836905D01*
X253031989Y-67116257D01*
X252973000Y-67412816D01*
X90687856Y-67412816D01*
X90558363Y-67219017D01*
X90260983Y-66921637D01*
X89911302Y-66687988D01*
X89522756Y-66527047D01*
X89110279Y-66445000D01*
X88689721Y-66445000D01*
X88277244Y-66527047D01*
X87888698Y-66687988D01*
X87539017Y-66921637D01*
X87241637Y-67219017D01*
X87007988Y-67568698D01*
X86847047Y-67957244D01*
X86765000Y-68369721D01*
X80670000Y-68369721D01*
X80670000Y-64160000D01*
X268580000Y-64160000D01*
X268580001Y-95860000D01*
M02*
