G04 #@! TF.GenerationSoftware,KiCad,Pcbnew,(5.1.2-1)-1*
G04 #@! TF.CreationDate,2019-08-21T10:52:07-07:00*
G04 #@! TF.ProjectId,ER_Bus_Board,45525f42-7573-45f4-926f-6172642e6b69,rev?*
G04 #@! TF.SameCoordinates,Original*
G04 #@! TF.FileFunction,Paste,Top*
G04 #@! TF.FilePolarity,Positive*
%FSLAX46Y46*%
G04 Gerber Fmt 4.6, Leading zero omitted, Abs format (unit mm)*
G04 Created by KiCad (PCBNEW (5.1.2-1)-1) date 2019-08-21 10:52:07*
%MOMM*%
%LPD*%
G04 APERTURE LIST*
%ADD10C,0.100000*%
%ADD11C,0.975000*%
G04 APERTURE END LIST*
D10*
G36*
X251940142Y-73760174D02*
G01*
X251963803Y-73763684D01*
X251987007Y-73769496D01*
X252009529Y-73777554D01*
X252031153Y-73787782D01*
X252051670Y-73800079D01*
X252070883Y-73814329D01*
X252088607Y-73830393D01*
X252104671Y-73848117D01*
X252118921Y-73867330D01*
X252131218Y-73887847D01*
X252141446Y-73909471D01*
X252149504Y-73931993D01*
X252155316Y-73955197D01*
X252158826Y-73978858D01*
X252160000Y-74002750D01*
X252160000Y-74490250D01*
X252158826Y-74514142D01*
X252155316Y-74537803D01*
X252149504Y-74561007D01*
X252141446Y-74583529D01*
X252131218Y-74605153D01*
X252118921Y-74625670D01*
X252104671Y-74644883D01*
X252088607Y-74662607D01*
X252070883Y-74678671D01*
X252051670Y-74692921D01*
X252031153Y-74705218D01*
X252009529Y-74715446D01*
X251987007Y-74723504D01*
X251963803Y-74729316D01*
X251940142Y-74732826D01*
X251916250Y-74734000D01*
X251003750Y-74734000D01*
X250979858Y-74732826D01*
X250956197Y-74729316D01*
X250932993Y-74723504D01*
X250910471Y-74715446D01*
X250888847Y-74705218D01*
X250868330Y-74692921D01*
X250849117Y-74678671D01*
X250831393Y-74662607D01*
X250815329Y-74644883D01*
X250801079Y-74625670D01*
X250788782Y-74605153D01*
X250778554Y-74583529D01*
X250770496Y-74561007D01*
X250764684Y-74537803D01*
X250761174Y-74514142D01*
X250760000Y-74490250D01*
X250760000Y-74002750D01*
X250761174Y-73978858D01*
X250764684Y-73955197D01*
X250770496Y-73931993D01*
X250778554Y-73909471D01*
X250788782Y-73887847D01*
X250801079Y-73867330D01*
X250815329Y-73848117D01*
X250831393Y-73830393D01*
X250849117Y-73814329D01*
X250868330Y-73800079D01*
X250888847Y-73787782D01*
X250910471Y-73777554D01*
X250932993Y-73769496D01*
X250956197Y-73763684D01*
X250979858Y-73760174D01*
X251003750Y-73759000D01*
X251916250Y-73759000D01*
X251940142Y-73760174D01*
X251940142Y-73760174D01*
G37*
D11*
X251460000Y-74246500D03*
D10*
G36*
X251940142Y-75635174D02*
G01*
X251963803Y-75638684D01*
X251987007Y-75644496D01*
X252009529Y-75652554D01*
X252031153Y-75662782D01*
X252051670Y-75675079D01*
X252070883Y-75689329D01*
X252088607Y-75705393D01*
X252104671Y-75723117D01*
X252118921Y-75742330D01*
X252131218Y-75762847D01*
X252141446Y-75784471D01*
X252149504Y-75806993D01*
X252155316Y-75830197D01*
X252158826Y-75853858D01*
X252160000Y-75877750D01*
X252160000Y-76365250D01*
X252158826Y-76389142D01*
X252155316Y-76412803D01*
X252149504Y-76436007D01*
X252141446Y-76458529D01*
X252131218Y-76480153D01*
X252118921Y-76500670D01*
X252104671Y-76519883D01*
X252088607Y-76537607D01*
X252070883Y-76553671D01*
X252051670Y-76567921D01*
X252031153Y-76580218D01*
X252009529Y-76590446D01*
X251987007Y-76598504D01*
X251963803Y-76604316D01*
X251940142Y-76607826D01*
X251916250Y-76609000D01*
X251003750Y-76609000D01*
X250979858Y-76607826D01*
X250956197Y-76604316D01*
X250932993Y-76598504D01*
X250910471Y-76590446D01*
X250888847Y-76580218D01*
X250868330Y-76567921D01*
X250849117Y-76553671D01*
X250831393Y-76537607D01*
X250815329Y-76519883D01*
X250801079Y-76500670D01*
X250788782Y-76480153D01*
X250778554Y-76458529D01*
X250770496Y-76436007D01*
X250764684Y-76412803D01*
X250761174Y-76389142D01*
X250760000Y-76365250D01*
X250760000Y-75877750D01*
X250761174Y-75853858D01*
X250764684Y-75830197D01*
X250770496Y-75806993D01*
X250778554Y-75784471D01*
X250788782Y-75762847D01*
X250801079Y-75742330D01*
X250815329Y-75723117D01*
X250831393Y-75705393D01*
X250849117Y-75689329D01*
X250868330Y-75675079D01*
X250888847Y-75662782D01*
X250910471Y-75652554D01*
X250932993Y-75644496D01*
X250956197Y-75638684D01*
X250979858Y-75635174D01*
X251003750Y-75634000D01*
X251916250Y-75634000D01*
X251940142Y-75635174D01*
X251940142Y-75635174D01*
G37*
D11*
X251460000Y-76121500D03*
D10*
G36*
X251940142Y-68015174D02*
G01*
X251963803Y-68018684D01*
X251987007Y-68024496D01*
X252009529Y-68032554D01*
X252031153Y-68042782D01*
X252051670Y-68055079D01*
X252070883Y-68069329D01*
X252088607Y-68085393D01*
X252104671Y-68103117D01*
X252118921Y-68122330D01*
X252131218Y-68142847D01*
X252141446Y-68164471D01*
X252149504Y-68186993D01*
X252155316Y-68210197D01*
X252158826Y-68233858D01*
X252160000Y-68257750D01*
X252160000Y-68745250D01*
X252158826Y-68769142D01*
X252155316Y-68792803D01*
X252149504Y-68816007D01*
X252141446Y-68838529D01*
X252131218Y-68860153D01*
X252118921Y-68880670D01*
X252104671Y-68899883D01*
X252088607Y-68917607D01*
X252070883Y-68933671D01*
X252051670Y-68947921D01*
X252031153Y-68960218D01*
X252009529Y-68970446D01*
X251987007Y-68978504D01*
X251963803Y-68984316D01*
X251940142Y-68987826D01*
X251916250Y-68989000D01*
X251003750Y-68989000D01*
X250979858Y-68987826D01*
X250956197Y-68984316D01*
X250932993Y-68978504D01*
X250910471Y-68970446D01*
X250888847Y-68960218D01*
X250868330Y-68947921D01*
X250849117Y-68933671D01*
X250831393Y-68917607D01*
X250815329Y-68899883D01*
X250801079Y-68880670D01*
X250788782Y-68860153D01*
X250778554Y-68838529D01*
X250770496Y-68816007D01*
X250764684Y-68792803D01*
X250761174Y-68769142D01*
X250760000Y-68745250D01*
X250760000Y-68257750D01*
X250761174Y-68233858D01*
X250764684Y-68210197D01*
X250770496Y-68186993D01*
X250778554Y-68164471D01*
X250788782Y-68142847D01*
X250801079Y-68122330D01*
X250815329Y-68103117D01*
X250831393Y-68085393D01*
X250849117Y-68069329D01*
X250868330Y-68055079D01*
X250888847Y-68042782D01*
X250910471Y-68032554D01*
X250932993Y-68024496D01*
X250956197Y-68018684D01*
X250979858Y-68015174D01*
X251003750Y-68014000D01*
X251916250Y-68014000D01*
X251940142Y-68015174D01*
X251940142Y-68015174D01*
G37*
D11*
X251460000Y-68501500D03*
D10*
G36*
X251940142Y-66140174D02*
G01*
X251963803Y-66143684D01*
X251987007Y-66149496D01*
X252009529Y-66157554D01*
X252031153Y-66167782D01*
X252051670Y-66180079D01*
X252070883Y-66194329D01*
X252088607Y-66210393D01*
X252104671Y-66228117D01*
X252118921Y-66247330D01*
X252131218Y-66267847D01*
X252141446Y-66289471D01*
X252149504Y-66311993D01*
X252155316Y-66335197D01*
X252158826Y-66358858D01*
X252160000Y-66382750D01*
X252160000Y-66870250D01*
X252158826Y-66894142D01*
X252155316Y-66917803D01*
X252149504Y-66941007D01*
X252141446Y-66963529D01*
X252131218Y-66985153D01*
X252118921Y-67005670D01*
X252104671Y-67024883D01*
X252088607Y-67042607D01*
X252070883Y-67058671D01*
X252051670Y-67072921D01*
X252031153Y-67085218D01*
X252009529Y-67095446D01*
X251987007Y-67103504D01*
X251963803Y-67109316D01*
X251940142Y-67112826D01*
X251916250Y-67114000D01*
X251003750Y-67114000D01*
X250979858Y-67112826D01*
X250956197Y-67109316D01*
X250932993Y-67103504D01*
X250910471Y-67095446D01*
X250888847Y-67085218D01*
X250868330Y-67072921D01*
X250849117Y-67058671D01*
X250831393Y-67042607D01*
X250815329Y-67024883D01*
X250801079Y-67005670D01*
X250788782Y-66985153D01*
X250778554Y-66963529D01*
X250770496Y-66941007D01*
X250764684Y-66917803D01*
X250761174Y-66894142D01*
X250760000Y-66870250D01*
X250760000Y-66382750D01*
X250761174Y-66358858D01*
X250764684Y-66335197D01*
X250770496Y-66311993D01*
X250778554Y-66289471D01*
X250788782Y-66267847D01*
X250801079Y-66247330D01*
X250815329Y-66228117D01*
X250831393Y-66210393D01*
X250849117Y-66194329D01*
X250868330Y-66180079D01*
X250888847Y-66167782D01*
X250910471Y-66157554D01*
X250932993Y-66149496D01*
X250956197Y-66143684D01*
X250979858Y-66140174D01*
X251003750Y-66139000D01*
X251916250Y-66139000D01*
X251940142Y-66140174D01*
X251940142Y-66140174D01*
G37*
D11*
X251460000Y-66626500D03*
D10*
G36*
X251940142Y-83255174D02*
G01*
X251963803Y-83258684D01*
X251987007Y-83264496D01*
X252009529Y-83272554D01*
X252031153Y-83282782D01*
X252051670Y-83295079D01*
X252070883Y-83309329D01*
X252088607Y-83325393D01*
X252104671Y-83343117D01*
X252118921Y-83362330D01*
X252131218Y-83382847D01*
X252141446Y-83404471D01*
X252149504Y-83426993D01*
X252155316Y-83450197D01*
X252158826Y-83473858D01*
X252160000Y-83497750D01*
X252160000Y-83985250D01*
X252158826Y-84009142D01*
X252155316Y-84032803D01*
X252149504Y-84056007D01*
X252141446Y-84078529D01*
X252131218Y-84100153D01*
X252118921Y-84120670D01*
X252104671Y-84139883D01*
X252088607Y-84157607D01*
X252070883Y-84173671D01*
X252051670Y-84187921D01*
X252031153Y-84200218D01*
X252009529Y-84210446D01*
X251987007Y-84218504D01*
X251963803Y-84224316D01*
X251940142Y-84227826D01*
X251916250Y-84229000D01*
X251003750Y-84229000D01*
X250979858Y-84227826D01*
X250956197Y-84224316D01*
X250932993Y-84218504D01*
X250910471Y-84210446D01*
X250888847Y-84200218D01*
X250868330Y-84187921D01*
X250849117Y-84173671D01*
X250831393Y-84157607D01*
X250815329Y-84139883D01*
X250801079Y-84120670D01*
X250788782Y-84100153D01*
X250778554Y-84078529D01*
X250770496Y-84056007D01*
X250764684Y-84032803D01*
X250761174Y-84009142D01*
X250760000Y-83985250D01*
X250760000Y-83497750D01*
X250761174Y-83473858D01*
X250764684Y-83450197D01*
X250770496Y-83426993D01*
X250778554Y-83404471D01*
X250788782Y-83382847D01*
X250801079Y-83362330D01*
X250815329Y-83343117D01*
X250831393Y-83325393D01*
X250849117Y-83309329D01*
X250868330Y-83295079D01*
X250888847Y-83282782D01*
X250910471Y-83272554D01*
X250932993Y-83264496D01*
X250956197Y-83258684D01*
X250979858Y-83255174D01*
X251003750Y-83254000D01*
X251916250Y-83254000D01*
X251940142Y-83255174D01*
X251940142Y-83255174D01*
G37*
D11*
X251460000Y-83741500D03*
D10*
G36*
X251940142Y-81380174D02*
G01*
X251963803Y-81383684D01*
X251987007Y-81389496D01*
X252009529Y-81397554D01*
X252031153Y-81407782D01*
X252051670Y-81420079D01*
X252070883Y-81434329D01*
X252088607Y-81450393D01*
X252104671Y-81468117D01*
X252118921Y-81487330D01*
X252131218Y-81507847D01*
X252141446Y-81529471D01*
X252149504Y-81551993D01*
X252155316Y-81575197D01*
X252158826Y-81598858D01*
X252160000Y-81622750D01*
X252160000Y-82110250D01*
X252158826Y-82134142D01*
X252155316Y-82157803D01*
X252149504Y-82181007D01*
X252141446Y-82203529D01*
X252131218Y-82225153D01*
X252118921Y-82245670D01*
X252104671Y-82264883D01*
X252088607Y-82282607D01*
X252070883Y-82298671D01*
X252051670Y-82312921D01*
X252031153Y-82325218D01*
X252009529Y-82335446D01*
X251987007Y-82343504D01*
X251963803Y-82349316D01*
X251940142Y-82352826D01*
X251916250Y-82354000D01*
X251003750Y-82354000D01*
X250979858Y-82352826D01*
X250956197Y-82349316D01*
X250932993Y-82343504D01*
X250910471Y-82335446D01*
X250888847Y-82325218D01*
X250868330Y-82312921D01*
X250849117Y-82298671D01*
X250831393Y-82282607D01*
X250815329Y-82264883D01*
X250801079Y-82245670D01*
X250788782Y-82225153D01*
X250778554Y-82203529D01*
X250770496Y-82181007D01*
X250764684Y-82157803D01*
X250761174Y-82134142D01*
X250760000Y-82110250D01*
X250760000Y-81622750D01*
X250761174Y-81598858D01*
X250764684Y-81575197D01*
X250770496Y-81551993D01*
X250778554Y-81529471D01*
X250788782Y-81507847D01*
X250801079Y-81487330D01*
X250815329Y-81468117D01*
X250831393Y-81450393D01*
X250849117Y-81434329D01*
X250868330Y-81420079D01*
X250888847Y-81407782D01*
X250910471Y-81397554D01*
X250932993Y-81389496D01*
X250956197Y-81383684D01*
X250979858Y-81380174D01*
X251003750Y-81379000D01*
X251916250Y-81379000D01*
X251940142Y-81380174D01*
X251940142Y-81380174D01*
G37*
D11*
X251460000Y-81866500D03*
M02*
