G04 #@! TF.GenerationSoftware,KiCad,Pcbnew,(5.1.2-1)-1*
G04 #@! TF.CreationDate,2019-08-21T10:52:07-07:00*
G04 #@! TF.ProjectId,ER_Bus_Board,45525f42-7573-45f4-926f-6172642e6b69,rev?*
G04 #@! TF.SameCoordinates,Original*
G04 #@! TF.FileFunction,Legend,Top*
G04 #@! TF.FilePolarity,Positive*
%FSLAX46Y46*%
G04 Gerber Fmt 4.6, Leading zero omitted, Abs format (unit mm)*
G04 Created by KiCad (PCBNEW (5.1.2-1)-1) date 2019-08-21 10:52:07*
%MOMM*%
%LPD*%
G04 APERTURE LIST*
%ADD10C,0.150000*%
%ADD11C,0.120000*%
G04 APERTURE END LIST*
D10*
X150670000Y-64222380D02*
X150908095Y-65222380D01*
X151098571Y-64508095D01*
X151289047Y-65222380D01*
X151527142Y-64222380D01*
X151908095Y-65222380D02*
X151908095Y-64222380D01*
X151908095Y-64698571D02*
X152479523Y-64698571D01*
X152479523Y-65222380D02*
X152479523Y-64222380D01*
X152908095Y-65174761D02*
X153050952Y-65222380D01*
X153289047Y-65222380D01*
X153384285Y-65174761D01*
X153431904Y-65127142D01*
X153479523Y-65031904D01*
X153479523Y-64936666D01*
X153431904Y-64841428D01*
X153384285Y-64793809D01*
X153289047Y-64746190D01*
X153098571Y-64698571D01*
X153003333Y-64650952D01*
X152955714Y-64603333D01*
X152908095Y-64508095D01*
X152908095Y-64412857D01*
X152955714Y-64317619D01*
X153003333Y-64270000D01*
X153098571Y-64222380D01*
X153336666Y-64222380D01*
X153479523Y-64270000D01*
X153812857Y-64555714D02*
X154050952Y-65222380D01*
X154289047Y-64555714D02*
X154050952Y-65222380D01*
X153955714Y-65460476D01*
X153908095Y-65508095D01*
X153812857Y-65555714D01*
X154670000Y-64555714D02*
X154670000Y-65222380D01*
X154670000Y-64650952D02*
X154717619Y-64603333D01*
X154812857Y-64555714D01*
X154955714Y-64555714D01*
X155050952Y-64603333D01*
X155098571Y-64698571D01*
X155098571Y-65222380D01*
X155431904Y-64555714D02*
X155812857Y-64555714D01*
X155574761Y-64222380D02*
X155574761Y-65079523D01*
X155622380Y-65174761D01*
X155717619Y-65222380D01*
X155812857Y-65222380D01*
X156146190Y-65222380D02*
X156146190Y-64222380D01*
X156574761Y-65222380D02*
X156574761Y-64698571D01*
X156527142Y-64603333D01*
X156431904Y-64555714D01*
X156289047Y-64555714D01*
X156193809Y-64603333D01*
X156146190Y-64650952D01*
X166839047Y-64698571D02*
X166981904Y-64746190D01*
X167029523Y-64793809D01*
X167077142Y-64889047D01*
X167077142Y-65031904D01*
X167029523Y-65127142D01*
X166981904Y-65174761D01*
X166886666Y-65222380D01*
X166505714Y-65222380D01*
X166505714Y-64222380D01*
X166839047Y-64222380D01*
X166934285Y-64270000D01*
X166981904Y-64317619D01*
X167029523Y-64412857D01*
X167029523Y-64508095D01*
X166981904Y-64603333D01*
X166934285Y-64650952D01*
X166839047Y-64698571D01*
X166505714Y-64698571D01*
X167934285Y-64555714D02*
X167934285Y-65222380D01*
X167505714Y-64555714D02*
X167505714Y-65079523D01*
X167553333Y-65174761D01*
X167648571Y-65222380D01*
X167791428Y-65222380D01*
X167886666Y-65174761D01*
X167934285Y-65127142D01*
X168362857Y-65174761D02*
X168458095Y-65222380D01*
X168648571Y-65222380D01*
X168743809Y-65174761D01*
X168791428Y-65079523D01*
X168791428Y-65031904D01*
X168743809Y-64936666D01*
X168648571Y-64889047D01*
X168505714Y-64889047D01*
X168410476Y-64841428D01*
X168362857Y-64746190D01*
X168362857Y-64698571D01*
X168410476Y-64603333D01*
X168505714Y-64555714D01*
X168648571Y-64555714D01*
X168743809Y-64603333D01*
X170315238Y-64698571D02*
X170458095Y-64746190D01*
X170505714Y-64793809D01*
X170553333Y-64889047D01*
X170553333Y-65031904D01*
X170505714Y-65127142D01*
X170458095Y-65174761D01*
X170362857Y-65222380D01*
X169981904Y-65222380D01*
X169981904Y-64222380D01*
X170315238Y-64222380D01*
X170410476Y-64270000D01*
X170458095Y-64317619D01*
X170505714Y-64412857D01*
X170505714Y-64508095D01*
X170458095Y-64603333D01*
X170410476Y-64650952D01*
X170315238Y-64698571D01*
X169981904Y-64698571D01*
X171124761Y-65222380D02*
X171029523Y-65174761D01*
X170981904Y-65127142D01*
X170934285Y-65031904D01*
X170934285Y-64746190D01*
X170981904Y-64650952D01*
X171029523Y-64603333D01*
X171124761Y-64555714D01*
X171267619Y-64555714D01*
X171362857Y-64603333D01*
X171410476Y-64650952D01*
X171458095Y-64746190D01*
X171458095Y-65031904D01*
X171410476Y-65127142D01*
X171362857Y-65174761D01*
X171267619Y-65222380D01*
X171124761Y-65222380D01*
X172315238Y-65222380D02*
X172315238Y-64698571D01*
X172267619Y-64603333D01*
X172172380Y-64555714D01*
X171981904Y-64555714D01*
X171886666Y-64603333D01*
X172315238Y-65174761D02*
X172220000Y-65222380D01*
X171981904Y-65222380D01*
X171886666Y-65174761D01*
X171839047Y-65079523D01*
X171839047Y-64984285D01*
X171886666Y-64889047D01*
X171981904Y-64841428D01*
X172220000Y-64841428D01*
X172315238Y-64793809D01*
X172791428Y-65222380D02*
X172791428Y-64555714D01*
X172791428Y-64746190D02*
X172839047Y-64650952D01*
X172886666Y-64603333D01*
X172981904Y-64555714D01*
X173077142Y-64555714D01*
X173839047Y-65222380D02*
X173839047Y-64222380D01*
X173839047Y-65174761D02*
X173743809Y-65222380D01*
X173553333Y-65222380D01*
X173458095Y-65174761D01*
X173410476Y-65127142D01*
X173362857Y-65031904D01*
X173362857Y-64746190D01*
X173410476Y-64650952D01*
X173458095Y-64603333D01*
X173553333Y-64555714D01*
X173743809Y-64555714D01*
X173839047Y-64603333D01*
X175648571Y-65222380D02*
X175315238Y-64746190D01*
X175077142Y-65222380D02*
X175077142Y-64222380D01*
X175458095Y-64222380D01*
X175553333Y-64270000D01*
X175600952Y-64317619D01*
X175648571Y-64412857D01*
X175648571Y-64555714D01*
X175600952Y-64650952D01*
X175553333Y-64698571D01*
X175458095Y-64746190D01*
X175077142Y-64746190D01*
X176458095Y-65174761D02*
X176362857Y-65222380D01*
X176172380Y-65222380D01*
X176077142Y-65174761D01*
X176029523Y-65079523D01*
X176029523Y-64698571D01*
X176077142Y-64603333D01*
X176172380Y-64555714D01*
X176362857Y-64555714D01*
X176458095Y-64603333D01*
X176505714Y-64698571D01*
X176505714Y-64793809D01*
X176029523Y-64889047D01*
X176839047Y-64555714D02*
X177077142Y-65222380D01*
X177315238Y-64555714D01*
X178981904Y-65222380D02*
X178410476Y-65222380D01*
X178696190Y-65222380D02*
X178696190Y-64222380D01*
X178600952Y-64365238D01*
X178505714Y-64460476D01*
X178410476Y-64508095D01*
D11*
X252788000Y-75183538D02*
G75*
G03X258338000Y-76728830I2990000J-462D01*
G01*
X252788000Y-75184462D02*
G75*
G02X258338000Y-73639170I2990000J462D01*
G01*
X258278000Y-75184000D02*
G75*
G03X258278000Y-75184000I-2500000J0D01*
G01*
X258338000Y-76729000D02*
X258338000Y-73639000D01*
X252788000Y-67563538D02*
G75*
G03X258338000Y-69108830I2990000J-462D01*
G01*
X252788000Y-67564462D02*
G75*
G02X258338000Y-66019170I2990000J462D01*
G01*
X258278000Y-67564000D02*
G75*
G03X258278000Y-67564000I-2500000J0D01*
G01*
X258338000Y-69109000D02*
X258338000Y-66019000D01*
X258338000Y-84349000D02*
X258338000Y-81259000D01*
X258278000Y-82804000D02*
G75*
G03X258278000Y-82804000I-2500000J0D01*
G01*
X252788000Y-82804462D02*
G75*
G02X258338000Y-81259170I2990000J462D01*
G01*
X252788000Y-82803538D02*
G75*
G03X258338000Y-84348830I2990000J-462D01*
G01*
X101406001Y-65520000D02*
X103946001Y-65520000D01*
X101406001Y-65520000D02*
X101406001Y-68060000D01*
X101656001Y-65770000D02*
X111006001Y-65770000D01*
X101656001Y-94250000D02*
X101656001Y-65770000D01*
X111006001Y-94250000D02*
X101656001Y-94250000D01*
X111006001Y-65770000D02*
X111006001Y-94250000D01*
X92710000Y-86360000D02*
X92710000Y-66040000D01*
X85090000Y-86360000D02*
X85090000Y-66040000D01*
X91440000Y-66040000D02*
X91440000Y-86360000D01*
X92710000Y-66040000D02*
X85090000Y-66040000D01*
X85090000Y-86360000D02*
X92710000Y-86360000D01*
X97730000Y-85030000D02*
X99060000Y-85030000D01*
X97730000Y-86360000D02*
X97730000Y-85030000D01*
X97730000Y-87630000D02*
X100390000Y-87630000D01*
X100390000Y-87630000D02*
X100390000Y-92770000D01*
X97730000Y-87630000D02*
X97730000Y-92770000D01*
X97730000Y-92770000D02*
X100390000Y-92770000D01*
X130405000Y-65770000D02*
X130405000Y-94250000D01*
X130405000Y-94250000D02*
X121055000Y-94250000D01*
X121055000Y-94250000D02*
X121055000Y-65770000D01*
X121055000Y-65770000D02*
X130405000Y-65770000D01*
X120805000Y-65520000D02*
X120805000Y-68060000D01*
X120805000Y-65520000D02*
X123345000Y-65520000D01*
X139855000Y-65520000D02*
X142395000Y-65520000D01*
X139855000Y-65520000D02*
X139855000Y-68060000D01*
X140105000Y-65770000D02*
X149455000Y-65770000D01*
X140105000Y-94250000D02*
X140105000Y-65770000D01*
X149455000Y-94250000D02*
X140105000Y-94250000D01*
X149455000Y-65770000D02*
X149455000Y-94250000D01*
X168505000Y-65770000D02*
X168505000Y-94250000D01*
X168505000Y-94250000D02*
X159155000Y-94250000D01*
X159155000Y-94250000D02*
X159155000Y-65770000D01*
X159155000Y-65770000D02*
X168505000Y-65770000D01*
X158905000Y-65520000D02*
X158905000Y-68060000D01*
X158905000Y-65520000D02*
X161445000Y-65520000D01*
X177955000Y-65520000D02*
X180495000Y-65520000D01*
X177955000Y-65520000D02*
X177955000Y-68060000D01*
X178205000Y-65770000D02*
X187555000Y-65770000D01*
X178205000Y-94250000D02*
X178205000Y-65770000D01*
X187555000Y-94250000D02*
X178205000Y-94250000D01*
X187555000Y-65770000D02*
X187555000Y-94250000D01*
X206605000Y-65770000D02*
X206605000Y-94250000D01*
X206605000Y-94250000D02*
X197255000Y-94250000D01*
X197255000Y-94250000D02*
X197255000Y-65770000D01*
X197255000Y-65770000D02*
X206605000Y-65770000D01*
X197005000Y-65520000D02*
X197005000Y-68060000D01*
X197005000Y-65520000D02*
X199545000Y-65520000D01*
X216055000Y-65520000D02*
X218595000Y-65520000D01*
X216055000Y-65520000D02*
X216055000Y-68060000D01*
X216305000Y-65770000D02*
X225655000Y-65770000D01*
X216305000Y-94250000D02*
X216305000Y-65770000D01*
X225655000Y-94250000D02*
X216305000Y-94250000D01*
X225655000Y-65770000D02*
X225655000Y-94250000D01*
X244705000Y-65770000D02*
X244705000Y-94250000D01*
X244705000Y-94250000D02*
X235355000Y-94250000D01*
X235355000Y-94250000D02*
X235355000Y-65770000D01*
X235355000Y-65770000D02*
X244705000Y-65770000D01*
X235105000Y-65520000D02*
X235105000Y-68060000D01*
X235105000Y-65520000D02*
X237645000Y-65520000D01*
X267208000Y-65024000D02*
X259588000Y-65024000D01*
X259588000Y-85344000D02*
X267208000Y-85344000D01*
X260858000Y-85344000D02*
X260858000Y-65024000D01*
X267208000Y-65024000D02*
X267208000Y-85344000D01*
X259588000Y-65024000D02*
X259588000Y-85344000D01*
X81280000Y-95250000D02*
X96520000Y-95250000D01*
X81280000Y-87630000D02*
X96520000Y-87630000D01*
X81280000Y-93980000D02*
X96520000Y-93980000D01*
X96520000Y-95250000D02*
X96520000Y-87630000D01*
X81280000Y-95250000D02*
X81280000Y-87630000D01*
X246320000Y-93024000D02*
X248980000Y-93024000D01*
X246320000Y-87884000D02*
X246320000Y-93024000D01*
X248980000Y-87884000D02*
X248980000Y-93024000D01*
X246320000Y-87884000D02*
X248980000Y-87884000D01*
X246320000Y-86614000D02*
X246320000Y-85284000D01*
X246320000Y-85284000D02*
X247650000Y-85284000D01*
X267208000Y-87376000D02*
X267208000Y-94996000D01*
X251968000Y-87376000D02*
X251968000Y-94996000D01*
X267208000Y-88646000D02*
X251968000Y-88646000D01*
X267208000Y-94996000D02*
X251968000Y-94996000D01*
X267208000Y-87376000D02*
X251968000Y-87376000D01*
X252170000Y-75442578D02*
X252170000Y-74925422D01*
X250750000Y-75442578D02*
X250750000Y-74925422D01*
X250750000Y-67822578D02*
X250750000Y-67305422D01*
X252170000Y-67822578D02*
X252170000Y-67305422D01*
X250750000Y-83062578D02*
X250750000Y-82545422D01*
X252170000Y-83062578D02*
X252170000Y-82545422D01*
D10*
X255039904Y-79596380D02*
X255039904Y-78596380D01*
X255278000Y-78596380D01*
X255420857Y-78644000D01*
X255516095Y-78739238D01*
X255563714Y-78834476D01*
X255611333Y-79024952D01*
X255611333Y-79167809D01*
X255563714Y-79358285D01*
X255516095Y-79453523D01*
X255420857Y-79548761D01*
X255278000Y-79596380D01*
X255039904Y-79596380D01*
X256563714Y-79596380D02*
X255992285Y-79596380D01*
X256278000Y-79596380D02*
X256278000Y-78596380D01*
X256182761Y-78739238D01*
X256087523Y-78834476D01*
X255992285Y-78882095D01*
X255039904Y-71976380D02*
X255039904Y-70976380D01*
X255278000Y-70976380D01*
X255420857Y-71024000D01*
X255516095Y-71119238D01*
X255563714Y-71214476D01*
X255611333Y-71404952D01*
X255611333Y-71547809D01*
X255563714Y-71738285D01*
X255516095Y-71833523D01*
X255420857Y-71928761D01*
X255278000Y-71976380D01*
X255039904Y-71976380D01*
X255992285Y-71071619D02*
X256039904Y-71024000D01*
X256135142Y-70976380D01*
X256373238Y-70976380D01*
X256468476Y-71024000D01*
X256516095Y-71071619D01*
X256563714Y-71166857D01*
X256563714Y-71262095D01*
X256516095Y-71404952D01*
X255944666Y-71976380D01*
X256563714Y-71976380D01*
X255039904Y-87216380D02*
X255039904Y-86216380D01*
X255278000Y-86216380D01*
X255420857Y-86264000D01*
X255516095Y-86359238D01*
X255563714Y-86454476D01*
X255611333Y-86644952D01*
X255611333Y-86787809D01*
X255563714Y-86978285D01*
X255516095Y-87073523D01*
X255420857Y-87168761D01*
X255278000Y-87216380D01*
X255039904Y-87216380D01*
X255944666Y-86216380D02*
X256563714Y-86216380D01*
X256230380Y-86597333D01*
X256373238Y-86597333D01*
X256468476Y-86644952D01*
X256516095Y-86692571D01*
X256563714Y-86787809D01*
X256563714Y-87025904D01*
X256516095Y-87121142D01*
X256468476Y-87168761D01*
X256373238Y-87216380D01*
X256087523Y-87216380D01*
X255992285Y-87168761D01*
X255944666Y-87121142D01*
X105997667Y-63968380D02*
X105997667Y-64682666D01*
X105950048Y-64825523D01*
X105854810Y-64920761D01*
X105711953Y-64968380D01*
X105616715Y-64968380D01*
X106997667Y-64968380D02*
X106426239Y-64968380D01*
X106711953Y-64968380D02*
X106711953Y-63968380D01*
X106616715Y-64111238D01*
X106521477Y-64206476D01*
X106426239Y-64254095D01*
X83552380Y-76553333D02*
X84266666Y-76553333D01*
X84409523Y-76600952D01*
X84504761Y-76696190D01*
X84552380Y-76839047D01*
X84552380Y-76934285D01*
X83647619Y-76124761D02*
X83600000Y-76077142D01*
X83552380Y-75981904D01*
X83552380Y-75743809D01*
X83600000Y-75648571D01*
X83647619Y-75600952D01*
X83742857Y-75553333D01*
X83838095Y-75553333D01*
X83980952Y-75600952D01*
X84552380Y-76172380D01*
X84552380Y-75553333D01*
X98726666Y-83482380D02*
X98726666Y-84196666D01*
X98679047Y-84339523D01*
X98583809Y-84434761D01*
X98440952Y-84482380D01*
X98345714Y-84482380D01*
X99107619Y-83482380D02*
X99726666Y-83482380D01*
X99393333Y-83863333D01*
X99536190Y-83863333D01*
X99631428Y-83910952D01*
X99679047Y-83958571D01*
X99726666Y-84053809D01*
X99726666Y-84291904D01*
X99679047Y-84387142D01*
X99631428Y-84434761D01*
X99536190Y-84482380D01*
X99250476Y-84482380D01*
X99155238Y-84434761D01*
X99107619Y-84387142D01*
X125396666Y-63968380D02*
X125396666Y-64682666D01*
X125349047Y-64825523D01*
X125253809Y-64920761D01*
X125110952Y-64968380D01*
X125015714Y-64968380D01*
X126301428Y-64301714D02*
X126301428Y-64968380D01*
X126063333Y-63920761D02*
X125825238Y-64635047D01*
X126444285Y-64635047D01*
X144446666Y-63968380D02*
X144446666Y-64682666D01*
X144399047Y-64825523D01*
X144303809Y-64920761D01*
X144160952Y-64968380D01*
X144065714Y-64968380D01*
X145399047Y-63968380D02*
X144922857Y-63968380D01*
X144875238Y-64444571D01*
X144922857Y-64396952D01*
X145018095Y-64349333D01*
X145256190Y-64349333D01*
X145351428Y-64396952D01*
X145399047Y-64444571D01*
X145446666Y-64539809D01*
X145446666Y-64777904D01*
X145399047Y-64873142D01*
X145351428Y-64920761D01*
X145256190Y-64968380D01*
X145018095Y-64968380D01*
X144922857Y-64920761D01*
X144875238Y-64873142D01*
X163496666Y-63968380D02*
X163496666Y-64682666D01*
X163449047Y-64825523D01*
X163353809Y-64920761D01*
X163210952Y-64968380D01*
X163115714Y-64968380D01*
X164401428Y-63968380D02*
X164210952Y-63968380D01*
X164115714Y-64016000D01*
X164068095Y-64063619D01*
X163972857Y-64206476D01*
X163925238Y-64396952D01*
X163925238Y-64777904D01*
X163972857Y-64873142D01*
X164020476Y-64920761D01*
X164115714Y-64968380D01*
X164306190Y-64968380D01*
X164401428Y-64920761D01*
X164449047Y-64873142D01*
X164496666Y-64777904D01*
X164496666Y-64539809D01*
X164449047Y-64444571D01*
X164401428Y-64396952D01*
X164306190Y-64349333D01*
X164115714Y-64349333D01*
X164020476Y-64396952D01*
X163972857Y-64444571D01*
X163925238Y-64539809D01*
X182546666Y-63968380D02*
X182546666Y-64682666D01*
X182499047Y-64825523D01*
X182403809Y-64920761D01*
X182260952Y-64968380D01*
X182165714Y-64968380D01*
X182927619Y-63968380D02*
X183594285Y-63968380D01*
X183165714Y-64968380D01*
X201596666Y-63968380D02*
X201596666Y-64682666D01*
X201549047Y-64825523D01*
X201453809Y-64920761D01*
X201310952Y-64968380D01*
X201215714Y-64968380D01*
X202215714Y-64396952D02*
X202120476Y-64349333D01*
X202072857Y-64301714D01*
X202025238Y-64206476D01*
X202025238Y-64158857D01*
X202072857Y-64063619D01*
X202120476Y-64016000D01*
X202215714Y-63968380D01*
X202406190Y-63968380D01*
X202501428Y-64016000D01*
X202549047Y-64063619D01*
X202596666Y-64158857D01*
X202596666Y-64206476D01*
X202549047Y-64301714D01*
X202501428Y-64349333D01*
X202406190Y-64396952D01*
X202215714Y-64396952D01*
X202120476Y-64444571D01*
X202072857Y-64492190D01*
X202025238Y-64587428D01*
X202025238Y-64777904D01*
X202072857Y-64873142D01*
X202120476Y-64920761D01*
X202215714Y-64968380D01*
X202406190Y-64968380D01*
X202501428Y-64920761D01*
X202549047Y-64873142D01*
X202596666Y-64777904D01*
X202596666Y-64587428D01*
X202549047Y-64492190D01*
X202501428Y-64444571D01*
X202406190Y-64396952D01*
X220646666Y-63968380D02*
X220646666Y-64682666D01*
X220599047Y-64825523D01*
X220503809Y-64920761D01*
X220360952Y-64968380D01*
X220265714Y-64968380D01*
X221170476Y-64968380D02*
X221360952Y-64968380D01*
X221456190Y-64920761D01*
X221503809Y-64873142D01*
X221599047Y-64730285D01*
X221646666Y-64539809D01*
X221646666Y-64158857D01*
X221599047Y-64063619D01*
X221551428Y-64016000D01*
X221456190Y-63968380D01*
X221265714Y-63968380D01*
X221170476Y-64016000D01*
X221122857Y-64063619D01*
X221075238Y-64158857D01*
X221075238Y-64396952D01*
X221122857Y-64492190D01*
X221170476Y-64539809D01*
X221265714Y-64587428D01*
X221456190Y-64587428D01*
X221551428Y-64539809D01*
X221599047Y-64492190D01*
X221646666Y-64396952D01*
X239220476Y-63968380D02*
X239220476Y-64682666D01*
X239172857Y-64825523D01*
X239077619Y-64920761D01*
X238934761Y-64968380D01*
X238839523Y-64968380D01*
X240220476Y-64968380D02*
X239649047Y-64968380D01*
X239934761Y-64968380D02*
X239934761Y-63968380D01*
X239839523Y-64111238D01*
X239744285Y-64206476D01*
X239649047Y-64254095D01*
X240839523Y-63968380D02*
X240934761Y-63968380D01*
X241030000Y-64016000D01*
X241077619Y-64063619D01*
X241125238Y-64158857D01*
X241172857Y-64349333D01*
X241172857Y-64587428D01*
X241125238Y-64777904D01*
X241077619Y-64873142D01*
X241030000Y-64920761D01*
X240934761Y-64968380D01*
X240839523Y-64968380D01*
X240744285Y-64920761D01*
X240696666Y-64873142D01*
X240649047Y-64777904D01*
X240601428Y-64587428D01*
X240601428Y-64349333D01*
X240649047Y-64158857D01*
X240696666Y-64063619D01*
X240744285Y-64016000D01*
X240839523Y-63968380D01*
X267650380Y-75973523D02*
X268364666Y-75973523D01*
X268507523Y-76021142D01*
X268602761Y-76116380D01*
X268650380Y-76259238D01*
X268650380Y-76354476D01*
X268650380Y-74973523D02*
X268650380Y-75544952D01*
X268650380Y-75259238D02*
X267650380Y-75259238D01*
X267793238Y-75354476D01*
X267888476Y-75449714D01*
X267936095Y-75544952D01*
X268650380Y-74021142D02*
X268650380Y-74592571D01*
X268650380Y-74306857D02*
X267650380Y-74306857D01*
X267793238Y-74402095D01*
X267888476Y-74497333D01*
X267936095Y-74592571D01*
X88060476Y-86242380D02*
X88060476Y-86956666D01*
X88012857Y-87099523D01*
X87917619Y-87194761D01*
X87774761Y-87242380D01*
X87679523Y-87242380D01*
X89060476Y-87242380D02*
X88489047Y-87242380D01*
X88774761Y-87242380D02*
X88774761Y-86242380D01*
X88679523Y-86385238D01*
X88584285Y-86480476D01*
X88489047Y-86528095D01*
X89441428Y-86337619D02*
X89489047Y-86290000D01*
X89584285Y-86242380D01*
X89822380Y-86242380D01*
X89917619Y-86290000D01*
X89965238Y-86337619D01*
X90012857Y-86432857D01*
X90012857Y-86528095D01*
X89965238Y-86670952D01*
X89393809Y-87242380D01*
X90012857Y-87242380D01*
X246840476Y-83736380D02*
X246840476Y-84450666D01*
X246792857Y-84593523D01*
X246697619Y-84688761D01*
X246554761Y-84736380D01*
X246459523Y-84736380D01*
X247840476Y-84736380D02*
X247269047Y-84736380D01*
X247554761Y-84736380D02*
X247554761Y-83736380D01*
X247459523Y-83879238D01*
X247364285Y-83974476D01*
X247269047Y-84022095D01*
X248173809Y-83736380D02*
X248792857Y-83736380D01*
X248459523Y-84117333D01*
X248602380Y-84117333D01*
X248697619Y-84164952D01*
X248745238Y-84212571D01*
X248792857Y-84307809D01*
X248792857Y-84545904D01*
X248745238Y-84641142D01*
X248697619Y-84688761D01*
X248602380Y-84736380D01*
X248316666Y-84736380D01*
X248221428Y-84688761D01*
X248173809Y-84641142D01*
X260810476Y-86066380D02*
X260810476Y-86780666D01*
X260762857Y-86923523D01*
X260667619Y-87018761D01*
X260524761Y-87066380D01*
X260429523Y-87066380D01*
X261810476Y-87066380D02*
X261239047Y-87066380D01*
X261524761Y-87066380D02*
X261524761Y-86066380D01*
X261429523Y-86209238D01*
X261334285Y-86304476D01*
X261239047Y-86352095D01*
X262667619Y-86399714D02*
X262667619Y-87066380D01*
X262429523Y-86018761D02*
X262191428Y-86733047D01*
X262810476Y-86733047D01*
X250262380Y-75350666D02*
X249786190Y-75684000D01*
X250262380Y-75922095D02*
X249262380Y-75922095D01*
X249262380Y-75541142D01*
X249310000Y-75445904D01*
X249357619Y-75398285D01*
X249452857Y-75350666D01*
X249595714Y-75350666D01*
X249690952Y-75398285D01*
X249738571Y-75445904D01*
X249786190Y-75541142D01*
X249786190Y-75922095D01*
X250262380Y-74398285D02*
X250262380Y-74969714D01*
X250262380Y-74684000D02*
X249262380Y-74684000D01*
X249405238Y-74779238D01*
X249500476Y-74874476D01*
X249548095Y-74969714D01*
X250262380Y-67730666D02*
X249786190Y-68064000D01*
X250262380Y-68302095D02*
X249262380Y-68302095D01*
X249262380Y-67921142D01*
X249310000Y-67825904D01*
X249357619Y-67778285D01*
X249452857Y-67730666D01*
X249595714Y-67730666D01*
X249690952Y-67778285D01*
X249738571Y-67825904D01*
X249786190Y-67921142D01*
X249786190Y-68302095D01*
X249357619Y-67349714D02*
X249310000Y-67302095D01*
X249262380Y-67206857D01*
X249262380Y-66968761D01*
X249310000Y-66873523D01*
X249357619Y-66825904D01*
X249452857Y-66778285D01*
X249548095Y-66778285D01*
X249690952Y-66825904D01*
X250262380Y-67397333D01*
X250262380Y-66778285D01*
X250262380Y-82970666D02*
X249786190Y-83304000D01*
X250262380Y-83542095D02*
X249262380Y-83542095D01*
X249262380Y-83161142D01*
X249310000Y-83065904D01*
X249357619Y-83018285D01*
X249452857Y-82970666D01*
X249595714Y-82970666D01*
X249690952Y-83018285D01*
X249738571Y-83065904D01*
X249786190Y-83161142D01*
X249786190Y-83542095D01*
X249262380Y-82637333D02*
X249262380Y-82018285D01*
X249643333Y-82351619D01*
X249643333Y-82208761D01*
X249690952Y-82113523D01*
X249738571Y-82065904D01*
X249833809Y-82018285D01*
X250071904Y-82018285D01*
X250167142Y-82065904D01*
X250214761Y-82113523D01*
X250262380Y-82208761D01*
X250262380Y-82494476D01*
X250214761Y-82589714D01*
X250167142Y-82637333D01*
M02*
