G04 #@! TF.GenerationSoftware,KiCad,Pcbnew,(5.1.2-1)-1*
G04 #@! TF.CreationDate,2019-08-21T10:52:07-07:00*
G04 #@! TF.ProjectId,ER_Bus_Board,45525f42-7573-45f4-926f-6172642e6b69,rev?*
G04 #@! TF.SameCoordinates,Original*
G04 #@! TF.FileFunction,Copper,L1,Top*
G04 #@! TF.FilePolarity,Positive*
%FSLAX46Y46*%
G04 Gerber Fmt 4.6, Leading zero omitted, Abs format (unit mm)*
G04 Created by KiCad (PCBNEW (5.1.2-1)-1) date 2019-08-21 10:52:07*
%MOMM*%
%LPD*%
G04 APERTURE LIST*
%ADD10R,1.800000X1.800000*%
%ADD11C,1.800000*%
%ADD12O,1.727200X1.727200*%
%ADD13R,1.727200X1.727200*%
%ADD14C,3.000000*%
%ADD15R,3.000000X3.000000*%
%ADD16O,1.700000X1.700000*%
%ADD17R,1.700000X1.700000*%
%ADD18C,0.100000*%
%ADD19C,0.975000*%
%ADD20C,3.200001*%
%ADD21C,0.250000*%
%ADD22C,0.500000*%
%ADD23C,0.254000*%
G04 APERTURE END LIST*
D10*
X257048000Y-75184000D03*
D11*
X254508000Y-75184000D03*
D10*
X257048000Y-67564000D03*
D11*
X254508000Y-67564000D03*
X254508000Y-82804000D03*
D10*
X257048000Y-82804000D03*
D12*
X107601001Y-88900000D03*
X105061001Y-88900000D03*
X107601001Y-86360000D03*
X105061001Y-86360000D03*
X107601001Y-83820000D03*
X105061001Y-83820000D03*
X107601001Y-81280000D03*
X105061001Y-81280000D03*
X107601001Y-78740000D03*
X105061001Y-78740000D03*
X107601001Y-76200000D03*
X105061001Y-76200000D03*
X107601001Y-73660000D03*
X105061001Y-73660000D03*
X107601001Y-71120000D03*
D13*
X105061001Y-71120000D03*
D14*
X88900000Y-68580000D03*
D15*
X88900000Y-83820000D03*
D14*
X88900000Y-73660000D03*
X88900000Y-78740000D03*
D16*
X99060000Y-91440000D03*
X99060000Y-88900000D03*
D17*
X99060000Y-86360000D03*
D13*
X124460000Y-71120000D03*
D12*
X127000000Y-71120000D03*
X124460000Y-73660000D03*
X127000000Y-73660000D03*
X124460000Y-76200000D03*
X127000000Y-76200000D03*
X124460000Y-78740000D03*
X127000000Y-78740000D03*
X124460000Y-81280000D03*
X127000000Y-81280000D03*
X124460000Y-83820000D03*
X127000000Y-83820000D03*
X124460000Y-86360000D03*
X127000000Y-86360000D03*
X124460000Y-88900000D03*
X127000000Y-88900000D03*
X146050000Y-88900000D03*
X143510000Y-88900000D03*
X146050000Y-86360000D03*
X143510000Y-86360000D03*
X146050000Y-83820000D03*
X143510000Y-83820000D03*
X146050000Y-81280000D03*
X143510000Y-81280000D03*
X146050000Y-78740000D03*
X143510000Y-78740000D03*
X146050000Y-76200000D03*
X143510000Y-76200000D03*
X146050000Y-73660000D03*
X143510000Y-73660000D03*
X146050000Y-71120000D03*
D13*
X143510000Y-71120000D03*
X162560000Y-71120000D03*
D12*
X165100000Y-71120000D03*
X162560000Y-73660000D03*
X165100000Y-73660000D03*
X162560000Y-76200000D03*
X165100000Y-76200000D03*
X162560000Y-78740000D03*
X165100000Y-78740000D03*
X162560000Y-81280000D03*
X165100000Y-81280000D03*
X162560000Y-83820000D03*
X165100000Y-83820000D03*
X162560000Y-86360000D03*
X165100000Y-86360000D03*
X162560000Y-88900000D03*
X165100000Y-88900000D03*
X184150000Y-88900000D03*
X181610000Y-88900000D03*
X184150000Y-86360000D03*
X181610000Y-86360000D03*
X184150000Y-83820000D03*
X181610000Y-83820000D03*
X184150000Y-81280000D03*
X181610000Y-81280000D03*
X184150000Y-78740000D03*
X181610000Y-78740000D03*
X184150000Y-76200000D03*
X181610000Y-76200000D03*
X184150000Y-73660000D03*
X181610000Y-73660000D03*
X184150000Y-71120000D03*
D13*
X181610000Y-71120000D03*
X200660000Y-71120000D03*
D12*
X203200000Y-71120000D03*
X200660000Y-73660000D03*
X203200000Y-73660000D03*
X200660000Y-76200000D03*
X203200000Y-76200000D03*
X200660000Y-78740000D03*
X203200000Y-78740000D03*
X200660000Y-81280000D03*
X203200000Y-81280000D03*
X200660000Y-83820000D03*
X203200000Y-83820000D03*
X200660000Y-86360000D03*
X203200000Y-86360000D03*
X200660000Y-88900000D03*
X203200000Y-88900000D03*
X222250000Y-88900000D03*
X219710000Y-88900000D03*
X222250000Y-86360000D03*
X219710000Y-86360000D03*
X222250000Y-83820000D03*
X219710000Y-83820000D03*
X222250000Y-81280000D03*
X219710000Y-81280000D03*
X222250000Y-78740000D03*
X219710000Y-78740000D03*
X222250000Y-76200000D03*
X219710000Y-76200000D03*
X222250000Y-73660000D03*
X219710000Y-73660000D03*
X222250000Y-71120000D03*
D13*
X219710000Y-71120000D03*
X238760000Y-71120000D03*
D12*
X241300000Y-71120000D03*
X238760000Y-73660000D03*
X241300000Y-73660000D03*
X238760000Y-76200000D03*
X241300000Y-76200000D03*
X238760000Y-78740000D03*
X241300000Y-78740000D03*
X238760000Y-81280000D03*
X241300000Y-81280000D03*
X238760000Y-83820000D03*
X241300000Y-83820000D03*
X238760000Y-86360000D03*
X241300000Y-86360000D03*
X238760000Y-88900000D03*
X241300000Y-88900000D03*
D14*
X263398000Y-72644000D03*
X263398000Y-77724000D03*
D15*
X263398000Y-67564000D03*
D14*
X263398000Y-82804000D03*
X93980000Y-91440000D03*
X88900000Y-91440000D03*
D15*
X83820000Y-91440000D03*
D17*
X247650000Y-86614000D03*
D16*
X247650000Y-89154000D03*
X247650000Y-91694000D03*
D15*
X264668000Y-91186000D03*
D14*
X259588000Y-91186000D03*
X254508000Y-91186000D03*
D18*
G36*
X251940142Y-73760174D02*
G01*
X251963803Y-73763684D01*
X251987007Y-73769496D01*
X252009529Y-73777554D01*
X252031153Y-73787782D01*
X252051670Y-73800079D01*
X252070883Y-73814329D01*
X252088607Y-73830393D01*
X252104671Y-73848117D01*
X252118921Y-73867330D01*
X252131218Y-73887847D01*
X252141446Y-73909471D01*
X252149504Y-73931993D01*
X252155316Y-73955197D01*
X252158826Y-73978858D01*
X252160000Y-74002750D01*
X252160000Y-74490250D01*
X252158826Y-74514142D01*
X252155316Y-74537803D01*
X252149504Y-74561007D01*
X252141446Y-74583529D01*
X252131218Y-74605153D01*
X252118921Y-74625670D01*
X252104671Y-74644883D01*
X252088607Y-74662607D01*
X252070883Y-74678671D01*
X252051670Y-74692921D01*
X252031153Y-74705218D01*
X252009529Y-74715446D01*
X251987007Y-74723504D01*
X251963803Y-74729316D01*
X251940142Y-74732826D01*
X251916250Y-74734000D01*
X251003750Y-74734000D01*
X250979858Y-74732826D01*
X250956197Y-74729316D01*
X250932993Y-74723504D01*
X250910471Y-74715446D01*
X250888847Y-74705218D01*
X250868330Y-74692921D01*
X250849117Y-74678671D01*
X250831393Y-74662607D01*
X250815329Y-74644883D01*
X250801079Y-74625670D01*
X250788782Y-74605153D01*
X250778554Y-74583529D01*
X250770496Y-74561007D01*
X250764684Y-74537803D01*
X250761174Y-74514142D01*
X250760000Y-74490250D01*
X250760000Y-74002750D01*
X250761174Y-73978858D01*
X250764684Y-73955197D01*
X250770496Y-73931993D01*
X250778554Y-73909471D01*
X250788782Y-73887847D01*
X250801079Y-73867330D01*
X250815329Y-73848117D01*
X250831393Y-73830393D01*
X250849117Y-73814329D01*
X250868330Y-73800079D01*
X250888847Y-73787782D01*
X250910471Y-73777554D01*
X250932993Y-73769496D01*
X250956197Y-73763684D01*
X250979858Y-73760174D01*
X251003750Y-73759000D01*
X251916250Y-73759000D01*
X251940142Y-73760174D01*
X251940142Y-73760174D01*
G37*
D19*
X251460000Y-74246500D03*
D18*
G36*
X251940142Y-75635174D02*
G01*
X251963803Y-75638684D01*
X251987007Y-75644496D01*
X252009529Y-75652554D01*
X252031153Y-75662782D01*
X252051670Y-75675079D01*
X252070883Y-75689329D01*
X252088607Y-75705393D01*
X252104671Y-75723117D01*
X252118921Y-75742330D01*
X252131218Y-75762847D01*
X252141446Y-75784471D01*
X252149504Y-75806993D01*
X252155316Y-75830197D01*
X252158826Y-75853858D01*
X252160000Y-75877750D01*
X252160000Y-76365250D01*
X252158826Y-76389142D01*
X252155316Y-76412803D01*
X252149504Y-76436007D01*
X252141446Y-76458529D01*
X252131218Y-76480153D01*
X252118921Y-76500670D01*
X252104671Y-76519883D01*
X252088607Y-76537607D01*
X252070883Y-76553671D01*
X252051670Y-76567921D01*
X252031153Y-76580218D01*
X252009529Y-76590446D01*
X251987007Y-76598504D01*
X251963803Y-76604316D01*
X251940142Y-76607826D01*
X251916250Y-76609000D01*
X251003750Y-76609000D01*
X250979858Y-76607826D01*
X250956197Y-76604316D01*
X250932993Y-76598504D01*
X250910471Y-76590446D01*
X250888847Y-76580218D01*
X250868330Y-76567921D01*
X250849117Y-76553671D01*
X250831393Y-76537607D01*
X250815329Y-76519883D01*
X250801079Y-76500670D01*
X250788782Y-76480153D01*
X250778554Y-76458529D01*
X250770496Y-76436007D01*
X250764684Y-76412803D01*
X250761174Y-76389142D01*
X250760000Y-76365250D01*
X250760000Y-75877750D01*
X250761174Y-75853858D01*
X250764684Y-75830197D01*
X250770496Y-75806993D01*
X250778554Y-75784471D01*
X250788782Y-75762847D01*
X250801079Y-75742330D01*
X250815329Y-75723117D01*
X250831393Y-75705393D01*
X250849117Y-75689329D01*
X250868330Y-75675079D01*
X250888847Y-75662782D01*
X250910471Y-75652554D01*
X250932993Y-75644496D01*
X250956197Y-75638684D01*
X250979858Y-75635174D01*
X251003750Y-75634000D01*
X251916250Y-75634000D01*
X251940142Y-75635174D01*
X251940142Y-75635174D01*
G37*
D19*
X251460000Y-76121500D03*
D18*
G36*
X251940142Y-68015174D02*
G01*
X251963803Y-68018684D01*
X251987007Y-68024496D01*
X252009529Y-68032554D01*
X252031153Y-68042782D01*
X252051670Y-68055079D01*
X252070883Y-68069329D01*
X252088607Y-68085393D01*
X252104671Y-68103117D01*
X252118921Y-68122330D01*
X252131218Y-68142847D01*
X252141446Y-68164471D01*
X252149504Y-68186993D01*
X252155316Y-68210197D01*
X252158826Y-68233858D01*
X252160000Y-68257750D01*
X252160000Y-68745250D01*
X252158826Y-68769142D01*
X252155316Y-68792803D01*
X252149504Y-68816007D01*
X252141446Y-68838529D01*
X252131218Y-68860153D01*
X252118921Y-68880670D01*
X252104671Y-68899883D01*
X252088607Y-68917607D01*
X252070883Y-68933671D01*
X252051670Y-68947921D01*
X252031153Y-68960218D01*
X252009529Y-68970446D01*
X251987007Y-68978504D01*
X251963803Y-68984316D01*
X251940142Y-68987826D01*
X251916250Y-68989000D01*
X251003750Y-68989000D01*
X250979858Y-68987826D01*
X250956197Y-68984316D01*
X250932993Y-68978504D01*
X250910471Y-68970446D01*
X250888847Y-68960218D01*
X250868330Y-68947921D01*
X250849117Y-68933671D01*
X250831393Y-68917607D01*
X250815329Y-68899883D01*
X250801079Y-68880670D01*
X250788782Y-68860153D01*
X250778554Y-68838529D01*
X250770496Y-68816007D01*
X250764684Y-68792803D01*
X250761174Y-68769142D01*
X250760000Y-68745250D01*
X250760000Y-68257750D01*
X250761174Y-68233858D01*
X250764684Y-68210197D01*
X250770496Y-68186993D01*
X250778554Y-68164471D01*
X250788782Y-68142847D01*
X250801079Y-68122330D01*
X250815329Y-68103117D01*
X250831393Y-68085393D01*
X250849117Y-68069329D01*
X250868330Y-68055079D01*
X250888847Y-68042782D01*
X250910471Y-68032554D01*
X250932993Y-68024496D01*
X250956197Y-68018684D01*
X250979858Y-68015174D01*
X251003750Y-68014000D01*
X251916250Y-68014000D01*
X251940142Y-68015174D01*
X251940142Y-68015174D01*
G37*
D19*
X251460000Y-68501500D03*
D18*
G36*
X251940142Y-66140174D02*
G01*
X251963803Y-66143684D01*
X251987007Y-66149496D01*
X252009529Y-66157554D01*
X252031153Y-66167782D01*
X252051670Y-66180079D01*
X252070883Y-66194329D01*
X252088607Y-66210393D01*
X252104671Y-66228117D01*
X252118921Y-66247330D01*
X252131218Y-66267847D01*
X252141446Y-66289471D01*
X252149504Y-66311993D01*
X252155316Y-66335197D01*
X252158826Y-66358858D01*
X252160000Y-66382750D01*
X252160000Y-66870250D01*
X252158826Y-66894142D01*
X252155316Y-66917803D01*
X252149504Y-66941007D01*
X252141446Y-66963529D01*
X252131218Y-66985153D01*
X252118921Y-67005670D01*
X252104671Y-67024883D01*
X252088607Y-67042607D01*
X252070883Y-67058671D01*
X252051670Y-67072921D01*
X252031153Y-67085218D01*
X252009529Y-67095446D01*
X251987007Y-67103504D01*
X251963803Y-67109316D01*
X251940142Y-67112826D01*
X251916250Y-67114000D01*
X251003750Y-67114000D01*
X250979858Y-67112826D01*
X250956197Y-67109316D01*
X250932993Y-67103504D01*
X250910471Y-67095446D01*
X250888847Y-67085218D01*
X250868330Y-67072921D01*
X250849117Y-67058671D01*
X250831393Y-67042607D01*
X250815329Y-67024883D01*
X250801079Y-67005670D01*
X250788782Y-66985153D01*
X250778554Y-66963529D01*
X250770496Y-66941007D01*
X250764684Y-66917803D01*
X250761174Y-66894142D01*
X250760000Y-66870250D01*
X250760000Y-66382750D01*
X250761174Y-66358858D01*
X250764684Y-66335197D01*
X250770496Y-66311993D01*
X250778554Y-66289471D01*
X250788782Y-66267847D01*
X250801079Y-66247330D01*
X250815329Y-66228117D01*
X250831393Y-66210393D01*
X250849117Y-66194329D01*
X250868330Y-66180079D01*
X250888847Y-66167782D01*
X250910471Y-66157554D01*
X250932993Y-66149496D01*
X250956197Y-66143684D01*
X250979858Y-66140174D01*
X251003750Y-66139000D01*
X251916250Y-66139000D01*
X251940142Y-66140174D01*
X251940142Y-66140174D01*
G37*
D19*
X251460000Y-66626500D03*
D18*
G36*
X251940142Y-83255174D02*
G01*
X251963803Y-83258684D01*
X251987007Y-83264496D01*
X252009529Y-83272554D01*
X252031153Y-83282782D01*
X252051670Y-83295079D01*
X252070883Y-83309329D01*
X252088607Y-83325393D01*
X252104671Y-83343117D01*
X252118921Y-83362330D01*
X252131218Y-83382847D01*
X252141446Y-83404471D01*
X252149504Y-83426993D01*
X252155316Y-83450197D01*
X252158826Y-83473858D01*
X252160000Y-83497750D01*
X252160000Y-83985250D01*
X252158826Y-84009142D01*
X252155316Y-84032803D01*
X252149504Y-84056007D01*
X252141446Y-84078529D01*
X252131218Y-84100153D01*
X252118921Y-84120670D01*
X252104671Y-84139883D01*
X252088607Y-84157607D01*
X252070883Y-84173671D01*
X252051670Y-84187921D01*
X252031153Y-84200218D01*
X252009529Y-84210446D01*
X251987007Y-84218504D01*
X251963803Y-84224316D01*
X251940142Y-84227826D01*
X251916250Y-84229000D01*
X251003750Y-84229000D01*
X250979858Y-84227826D01*
X250956197Y-84224316D01*
X250932993Y-84218504D01*
X250910471Y-84210446D01*
X250888847Y-84200218D01*
X250868330Y-84187921D01*
X250849117Y-84173671D01*
X250831393Y-84157607D01*
X250815329Y-84139883D01*
X250801079Y-84120670D01*
X250788782Y-84100153D01*
X250778554Y-84078529D01*
X250770496Y-84056007D01*
X250764684Y-84032803D01*
X250761174Y-84009142D01*
X250760000Y-83985250D01*
X250760000Y-83497750D01*
X250761174Y-83473858D01*
X250764684Y-83450197D01*
X250770496Y-83426993D01*
X250778554Y-83404471D01*
X250788782Y-83382847D01*
X250801079Y-83362330D01*
X250815329Y-83343117D01*
X250831393Y-83325393D01*
X250849117Y-83309329D01*
X250868330Y-83295079D01*
X250888847Y-83282782D01*
X250910471Y-83272554D01*
X250932993Y-83264496D01*
X250956197Y-83258684D01*
X250979858Y-83255174D01*
X251003750Y-83254000D01*
X251916250Y-83254000D01*
X251940142Y-83255174D01*
X251940142Y-83255174D01*
G37*
D19*
X251460000Y-83741500D03*
D18*
G36*
X251940142Y-81380174D02*
G01*
X251963803Y-81383684D01*
X251987007Y-81389496D01*
X252009529Y-81397554D01*
X252031153Y-81407782D01*
X252051670Y-81420079D01*
X252070883Y-81434329D01*
X252088607Y-81450393D01*
X252104671Y-81468117D01*
X252118921Y-81487330D01*
X252131218Y-81507847D01*
X252141446Y-81529471D01*
X252149504Y-81551993D01*
X252155316Y-81575197D01*
X252158826Y-81598858D01*
X252160000Y-81622750D01*
X252160000Y-82110250D01*
X252158826Y-82134142D01*
X252155316Y-82157803D01*
X252149504Y-82181007D01*
X252141446Y-82203529D01*
X252131218Y-82225153D01*
X252118921Y-82245670D01*
X252104671Y-82264883D01*
X252088607Y-82282607D01*
X252070883Y-82298671D01*
X252051670Y-82312921D01*
X252031153Y-82325218D01*
X252009529Y-82335446D01*
X251987007Y-82343504D01*
X251963803Y-82349316D01*
X251940142Y-82352826D01*
X251916250Y-82354000D01*
X251003750Y-82354000D01*
X250979858Y-82352826D01*
X250956197Y-82349316D01*
X250932993Y-82343504D01*
X250910471Y-82335446D01*
X250888847Y-82325218D01*
X250868330Y-82312921D01*
X250849117Y-82298671D01*
X250831393Y-82282607D01*
X250815329Y-82264883D01*
X250801079Y-82245670D01*
X250788782Y-82225153D01*
X250778554Y-82203529D01*
X250770496Y-82181007D01*
X250764684Y-82157803D01*
X250761174Y-82134142D01*
X250760000Y-82110250D01*
X250760000Y-81622750D01*
X250761174Y-81598858D01*
X250764684Y-81575197D01*
X250770496Y-81551993D01*
X250778554Y-81529471D01*
X250788782Y-81507847D01*
X250801079Y-81487330D01*
X250815329Y-81468117D01*
X250831393Y-81450393D01*
X250849117Y-81434329D01*
X250868330Y-81420079D01*
X250888847Y-81407782D01*
X250910471Y-81397554D01*
X250932993Y-81389496D01*
X250956197Y-81383684D01*
X250979858Y-81380174D01*
X251003750Y-81379000D01*
X251916250Y-81379000D01*
X251940142Y-81380174D01*
X251940142Y-81380174D01*
G37*
D19*
X251460000Y-81866500D03*
D20*
X114300000Y-66040000D03*
X114300000Y-93980000D03*
X232410000Y-93980000D03*
X232410000Y-66040000D03*
D21*
X251460000Y-74246500D02*
X253570500Y-74246500D01*
X253570500Y-74246500D02*
X254508000Y-75184000D01*
D22*
X88900000Y-68580000D02*
X102870000Y-68580000D01*
X102870000Y-68580000D02*
X105410000Y-71120000D01*
X105410000Y-71120000D02*
X107950000Y-71120000D01*
X121158000Y-71120000D02*
X124460000Y-71120000D01*
X107601001Y-71120000D02*
X121158000Y-71120000D01*
X124460000Y-71120000D02*
X127254000Y-71120000D01*
X127254000Y-71120000D02*
X143510000Y-71120000D01*
X143510000Y-71120000D02*
X146304000Y-71120000D01*
X146304000Y-71120000D02*
X162560000Y-71120000D01*
X162560000Y-71120000D02*
X165100000Y-71120000D01*
X165100000Y-71120000D02*
X181610000Y-71120000D01*
X181610000Y-71120000D02*
X184150000Y-71120000D01*
X184150000Y-71120000D02*
X200660000Y-71120000D01*
X200660000Y-71120000D02*
X202946000Y-71120000D01*
X202946000Y-71120000D02*
X219710000Y-71120000D01*
X219710000Y-71120000D02*
X222504000Y-71120000D01*
X222504000Y-71120000D02*
X238760000Y-71120000D01*
X238760000Y-71120000D02*
X241300000Y-71120000D01*
X261842000Y-71120000D02*
X263398000Y-69564000D01*
X263398000Y-69564000D02*
X263398000Y-67564000D01*
D21*
X257048000Y-68714000D02*
X257048000Y-71120000D01*
X257048000Y-67564000D02*
X257048000Y-68714000D01*
D22*
X257048000Y-71120000D02*
X261842000Y-71120000D01*
X241300000Y-71120000D02*
X257048000Y-71120000D01*
D21*
X251460000Y-66626500D02*
X253570500Y-66626500D01*
X253570500Y-66626500D02*
X254508000Y-67564000D01*
X253608001Y-81904001D02*
X251576001Y-81904001D01*
X254508000Y-82804000D02*
X253608001Y-81904001D01*
X251576001Y-81904001D02*
X251460000Y-81788000D01*
X254508000Y-91186000D02*
X248158000Y-91186000D01*
X248158000Y-91186000D02*
X243586000Y-91186000D01*
X243586000Y-91186000D02*
X241300000Y-88900000D01*
X241300000Y-88900000D02*
X238760000Y-88900000D01*
X238760000Y-88900000D02*
X222250000Y-88900000D01*
X222250000Y-88900000D02*
X219710000Y-88900000D01*
X219710000Y-88900000D02*
X203200000Y-88900000D01*
X203200000Y-88900000D02*
X200660000Y-88900000D01*
X200660000Y-88900000D02*
X199438686Y-88900000D01*
X199438686Y-88900000D02*
X181610000Y-88900000D01*
X181610000Y-88900000D02*
X180388686Y-88900000D01*
X180388686Y-88900000D02*
X162560000Y-88900000D01*
X162560000Y-88900000D02*
X146050000Y-88900000D01*
X146050000Y-88900000D02*
X143510000Y-88900000D01*
X143510000Y-88900000D02*
X127000000Y-88900000D01*
X127000000Y-88900000D02*
X124460000Y-88900000D01*
X124460000Y-88900000D02*
X107696000Y-88900000D01*
X107696000Y-88900000D02*
X105156000Y-88900000D01*
X105156000Y-88900000D02*
X102616000Y-91440000D01*
X102616000Y-91440000D02*
X93980000Y-91440000D01*
X93818998Y-88900000D02*
X97857919Y-88900000D01*
X92778997Y-89940001D02*
X93818998Y-88900000D01*
X90399999Y-89940001D02*
X92778997Y-89940001D01*
X88900000Y-91440000D02*
X90399999Y-89940001D01*
X97857919Y-88900000D02*
X102616000Y-88900000D01*
X102616000Y-88900000D02*
X105156000Y-86360000D01*
X105156000Y-86360000D02*
X124460000Y-86360000D01*
X124460000Y-86360000D02*
X127000000Y-86360000D01*
X127000000Y-86360000D02*
X143510000Y-86360000D01*
X143510000Y-86360000D02*
X146050000Y-86360000D01*
X146050000Y-86360000D02*
X162560000Y-86360000D01*
X162560000Y-86360000D02*
X165100000Y-86360000D01*
X165100000Y-86360000D02*
X181610000Y-86360000D01*
X181610000Y-86360000D02*
X184150000Y-86360000D01*
X184150000Y-86360000D02*
X200660000Y-86360000D01*
X200660000Y-86360000D02*
X203200000Y-86360000D01*
X203200000Y-86360000D02*
X219710000Y-86360000D01*
X219710000Y-86360000D02*
X222250000Y-86360000D01*
X222250000Y-86360000D02*
X238760000Y-86360000D01*
X238760000Y-86360000D02*
X241300000Y-86360000D01*
X241300000Y-86360000D02*
X244856000Y-86360000D01*
X257762999Y-89360999D02*
X258088001Y-89686001D01*
X247856999Y-89360999D02*
X257762999Y-89360999D01*
X244856000Y-86360000D02*
X247856999Y-89360999D01*
X258088001Y-89686001D02*
X259588000Y-91186000D01*
D22*
X88900000Y-83820000D02*
X105156000Y-83820000D01*
X105156000Y-83820000D02*
X107696000Y-83820000D01*
X107696000Y-83820000D02*
X124460000Y-83820000D01*
X124460000Y-83820000D02*
X127000000Y-83820000D01*
X127000000Y-83820000D02*
X143764000Y-83820000D01*
X143764000Y-83820000D02*
X146050000Y-83820000D01*
X146050000Y-83820000D02*
X147271314Y-83820000D01*
X147271314Y-83820000D02*
X165100000Y-83820000D01*
X165100000Y-83820000D02*
X181610000Y-83820000D01*
X181610000Y-83820000D02*
X184404000Y-83820000D01*
X184404000Y-83820000D02*
X219710000Y-83820000D01*
X219710000Y-83820000D02*
X222250000Y-83820000D01*
X222250000Y-83820000D02*
X238760000Y-83820000D01*
X238760000Y-83820000D02*
X241300000Y-83820000D01*
X261518401Y-84683599D02*
X261898001Y-84303999D01*
X241300000Y-83820000D02*
X242163599Y-84683599D01*
X261898001Y-84303999D02*
X263398000Y-82804000D01*
X251561599Y-84430599D02*
X251561599Y-84683599D01*
X251460000Y-83741500D02*
X251460000Y-84329000D01*
X251561599Y-84683599D02*
X261518401Y-84683599D01*
X251460000Y-84329000D02*
X251561599Y-84430599D01*
X242163599Y-84683599D02*
X251561599Y-84683599D01*
X91021320Y-78740000D02*
X93561320Y-81280000D01*
X88900000Y-78740000D02*
X91021320Y-78740000D01*
X93561320Y-81280000D02*
X107696000Y-81280000D01*
X107696000Y-81280000D02*
X124460000Y-81280000D01*
X124460000Y-81280000D02*
X127254000Y-81280000D01*
X127254000Y-81280000D02*
X143510000Y-81280000D01*
X143510000Y-81280000D02*
X146050000Y-81280000D01*
X146050000Y-81280000D02*
X162560000Y-81280000D01*
X162560000Y-81280000D02*
X165100000Y-81280000D01*
X165100000Y-81280000D02*
X181610000Y-81280000D01*
X181610000Y-81280000D02*
X184150000Y-81280000D01*
X184150000Y-81280000D02*
X200660000Y-81280000D01*
X200660000Y-81280000D02*
X202946000Y-81280000D01*
X202946000Y-81280000D02*
X219710000Y-81280000D01*
X219710000Y-81280000D02*
X222504000Y-81280000D01*
X222504000Y-81280000D02*
X238760000Y-81280000D01*
X238760000Y-81280000D02*
X241300000Y-81280000D01*
X241300000Y-81280000D02*
X244856000Y-77724000D01*
D21*
X251460000Y-76121500D02*
X251460000Y-77470000D01*
X251460000Y-77470000D02*
X251206000Y-77724000D01*
D22*
X251206000Y-77724000D02*
X263652000Y-77724000D01*
X244856000Y-77724000D02*
X251206000Y-77724000D01*
D23*
G36*
X268580001Y-95860000D02*
G01*
X80670000Y-95860000D01*
X80670000Y-92940000D01*
X81681928Y-92940000D01*
X81694188Y-93064482D01*
X81730498Y-93184180D01*
X81789463Y-93294494D01*
X81868815Y-93391185D01*
X81965506Y-93470537D01*
X82075820Y-93529502D01*
X82195518Y-93565812D01*
X82320000Y-93578072D01*
X83534250Y-93575000D01*
X83693000Y-93416250D01*
X83693000Y-91567000D01*
X83947000Y-91567000D01*
X83947000Y-93416250D01*
X84105750Y-93575000D01*
X85320000Y-93578072D01*
X85444482Y-93565812D01*
X85564180Y-93529502D01*
X85674494Y-93470537D01*
X85771185Y-93391185D01*
X85850537Y-93294494D01*
X85909502Y-93184180D01*
X85945812Y-93064482D01*
X85958072Y-92940000D01*
X85955000Y-91725750D01*
X85796250Y-91567000D01*
X83947000Y-91567000D01*
X83693000Y-91567000D01*
X81843750Y-91567000D01*
X81685000Y-91725750D01*
X81681928Y-92940000D01*
X80670000Y-92940000D01*
X80670000Y-89940000D01*
X81681928Y-89940000D01*
X81685000Y-91154250D01*
X81843750Y-91313000D01*
X83693000Y-91313000D01*
X83693000Y-89463750D01*
X83947000Y-89463750D01*
X83947000Y-91313000D01*
X85796250Y-91313000D01*
X85955000Y-91154250D01*
X85958072Y-89940000D01*
X85945812Y-89815518D01*
X85909502Y-89695820D01*
X85850537Y-89585506D01*
X85771185Y-89488815D01*
X85674494Y-89409463D01*
X85564180Y-89350498D01*
X85444482Y-89314188D01*
X85320000Y-89301928D01*
X84105750Y-89305000D01*
X83947000Y-89463750D01*
X83693000Y-89463750D01*
X83534250Y-89305000D01*
X82320000Y-89301928D01*
X82195518Y-89314188D01*
X82075820Y-89350498D01*
X81965506Y-89409463D01*
X81868815Y-89488815D01*
X81789463Y-89585506D01*
X81730498Y-89695820D01*
X81694188Y-89815518D01*
X81681928Y-89940000D01*
X80670000Y-89940000D01*
X80670000Y-82320000D01*
X86761928Y-82320000D01*
X86761928Y-85320000D01*
X86774188Y-85444482D01*
X86810498Y-85564180D01*
X86869463Y-85674494D01*
X86948815Y-85771185D01*
X87045506Y-85850537D01*
X87155820Y-85909502D01*
X87275518Y-85945812D01*
X87400000Y-85958072D01*
X90400000Y-85958072D01*
X90524482Y-85945812D01*
X90644180Y-85909502D01*
X90754494Y-85850537D01*
X90851185Y-85771185D01*
X90930537Y-85674494D01*
X90989502Y-85564180D01*
X91005937Y-85510000D01*
X97571928Y-85510000D01*
X97575000Y-86074250D01*
X97733750Y-86233000D01*
X98933000Y-86233000D01*
X98933000Y-85033750D01*
X99187000Y-85033750D01*
X99187000Y-86233000D01*
X100386250Y-86233000D01*
X100545000Y-86074250D01*
X100548072Y-85510000D01*
X100535812Y-85385518D01*
X100499502Y-85265820D01*
X100440537Y-85155506D01*
X100361185Y-85058815D01*
X100264494Y-84979463D01*
X100154180Y-84920498D01*
X100034482Y-84884188D01*
X99910000Y-84871928D01*
X99345750Y-84875000D01*
X99187000Y-85033750D01*
X98933000Y-85033750D01*
X98774250Y-84875000D01*
X98210000Y-84871928D01*
X98085518Y-84884188D01*
X97965820Y-84920498D01*
X97855506Y-84979463D01*
X97758815Y-85058815D01*
X97679463Y-85155506D01*
X97620498Y-85265820D01*
X97584188Y-85385518D01*
X97571928Y-85510000D01*
X91005937Y-85510000D01*
X91025812Y-85444482D01*
X91038072Y-85320000D01*
X91038072Y-84705000D01*
X103848648Y-84705000D01*
X103996204Y-84884797D01*
X104224395Y-85072069D01*
X104257941Y-85090000D01*
X104224395Y-85107931D01*
X103996204Y-85295203D01*
X103808932Y-85523394D01*
X103669776Y-85783736D01*
X103584085Y-86066223D01*
X103555150Y-86360000D01*
X103584085Y-86653777D01*
X103631410Y-86809788D01*
X102301199Y-88140000D01*
X100337595Y-88140000D01*
X100300706Y-88070986D01*
X100115134Y-87844866D01*
X100085313Y-87820393D01*
X100154180Y-87799502D01*
X100264494Y-87740537D01*
X100361185Y-87661185D01*
X100440537Y-87564494D01*
X100499502Y-87454180D01*
X100535812Y-87334482D01*
X100548072Y-87210000D01*
X100545000Y-86645750D01*
X100386250Y-86487000D01*
X99187000Y-86487000D01*
X99187000Y-86507000D01*
X98933000Y-86507000D01*
X98933000Y-86487000D01*
X97733750Y-86487000D01*
X97575000Y-86645750D01*
X97571928Y-87210000D01*
X97584188Y-87334482D01*
X97620498Y-87454180D01*
X97679463Y-87564494D01*
X97758815Y-87661185D01*
X97855506Y-87740537D01*
X97965820Y-87799502D01*
X98034687Y-87820393D01*
X98004866Y-87844866D01*
X97819294Y-88070986D01*
X97782405Y-88140000D01*
X93856331Y-88140000D01*
X93818998Y-88136323D01*
X93781665Y-88140000D01*
X93670012Y-88150997D01*
X93526751Y-88194454D01*
X93394722Y-88265026D01*
X93278997Y-88359999D01*
X93255199Y-88388997D01*
X92464196Y-89180001D01*
X90437322Y-89180001D01*
X90399999Y-89176325D01*
X90362676Y-89180001D01*
X90362666Y-89180001D01*
X90251013Y-89190998D01*
X90107752Y-89234455D01*
X89975722Y-89305027D01*
X89943458Y-89331506D01*
X89859998Y-89400000D01*
X89836200Y-89428998D01*
X89774058Y-89491140D01*
X89522756Y-89387047D01*
X89110279Y-89305000D01*
X88689721Y-89305000D01*
X88277244Y-89387047D01*
X87888698Y-89547988D01*
X87539017Y-89781637D01*
X87241637Y-90079017D01*
X87007988Y-90428698D01*
X86847047Y-90817244D01*
X86765000Y-91229721D01*
X86765000Y-91650279D01*
X86847047Y-92062756D01*
X87007988Y-92451302D01*
X87241637Y-92800983D01*
X87539017Y-93098363D01*
X87888698Y-93332012D01*
X88277244Y-93492953D01*
X88689721Y-93575000D01*
X89110279Y-93575000D01*
X89522756Y-93492953D01*
X89911302Y-93332012D01*
X90260983Y-93098363D01*
X90558363Y-92800983D01*
X90792012Y-92451302D01*
X90952953Y-92062756D01*
X91035000Y-91650279D01*
X91035000Y-91229721D01*
X90952953Y-90817244D01*
X90904389Y-90700001D01*
X91975611Y-90700001D01*
X91927047Y-90817244D01*
X91845000Y-91229721D01*
X91845000Y-91650279D01*
X91927047Y-92062756D01*
X92087988Y-92451302D01*
X92321637Y-92800983D01*
X92619017Y-93098363D01*
X92968698Y-93332012D01*
X93357244Y-93492953D01*
X93769721Y-93575000D01*
X94190279Y-93575000D01*
X94602756Y-93492953D01*
X94991302Y-93332012D01*
X95340983Y-93098363D01*
X95638363Y-92800983D01*
X95872012Y-92451302D01*
X95976105Y-92200000D01*
X97782405Y-92200000D01*
X97819294Y-92269014D01*
X98004866Y-92495134D01*
X98230986Y-92680706D01*
X98488966Y-92818599D01*
X98768889Y-92903513D01*
X98987050Y-92925000D01*
X99132950Y-92925000D01*
X99351111Y-92903513D01*
X99631034Y-92818599D01*
X99889014Y-92680706D01*
X100115134Y-92495134D01*
X100300706Y-92269014D01*
X100337595Y-92200000D01*
X102578678Y-92200000D01*
X102616000Y-92203676D01*
X102653322Y-92200000D01*
X102653333Y-92200000D01*
X102764986Y-92189003D01*
X102908247Y-92145546D01*
X103040276Y-92074974D01*
X103156001Y-91980001D01*
X103179804Y-91950997D01*
X104756991Y-90373812D01*
X104767224Y-90376916D01*
X104987382Y-90398600D01*
X105134620Y-90398600D01*
X105354778Y-90376916D01*
X105637265Y-90291225D01*
X105897607Y-90152069D01*
X106125798Y-89964797D01*
X106313070Y-89736606D01*
X106331001Y-89703060D01*
X106348932Y-89736606D01*
X106536204Y-89964797D01*
X106764395Y-90152069D01*
X107024737Y-90291225D01*
X107307224Y-90376916D01*
X107527382Y-90398600D01*
X107674620Y-90398600D01*
X107894778Y-90376916D01*
X108177265Y-90291225D01*
X108437607Y-90152069D01*
X108665798Y-89964797D01*
X108853070Y-89736606D01*
X108894017Y-89660000D01*
X123166984Y-89660000D01*
X123207931Y-89736606D01*
X123395203Y-89964797D01*
X123623394Y-90152069D01*
X123883736Y-90291225D01*
X124166223Y-90376916D01*
X124386381Y-90398600D01*
X124533619Y-90398600D01*
X124753777Y-90376916D01*
X125036264Y-90291225D01*
X125296606Y-90152069D01*
X125524797Y-89964797D01*
X125712069Y-89736606D01*
X125730000Y-89703060D01*
X125747931Y-89736606D01*
X125935203Y-89964797D01*
X126163394Y-90152069D01*
X126423736Y-90291225D01*
X126706223Y-90376916D01*
X126926381Y-90398600D01*
X127073619Y-90398600D01*
X127293777Y-90376916D01*
X127576264Y-90291225D01*
X127836606Y-90152069D01*
X128064797Y-89964797D01*
X128252069Y-89736606D01*
X128293016Y-89660000D01*
X142216984Y-89660000D01*
X142257931Y-89736606D01*
X142445203Y-89964797D01*
X142673394Y-90152069D01*
X142933736Y-90291225D01*
X143216223Y-90376916D01*
X143436381Y-90398600D01*
X143583619Y-90398600D01*
X143803777Y-90376916D01*
X144086264Y-90291225D01*
X144346606Y-90152069D01*
X144574797Y-89964797D01*
X144762069Y-89736606D01*
X144780000Y-89703060D01*
X144797931Y-89736606D01*
X144985203Y-89964797D01*
X145213394Y-90152069D01*
X145473736Y-90291225D01*
X145756223Y-90376916D01*
X145976381Y-90398600D01*
X146123619Y-90398600D01*
X146343777Y-90376916D01*
X146626264Y-90291225D01*
X146886606Y-90152069D01*
X147114797Y-89964797D01*
X147302069Y-89736606D01*
X147343016Y-89660000D01*
X161266984Y-89660000D01*
X161307931Y-89736606D01*
X161495203Y-89964797D01*
X161723394Y-90152069D01*
X161983736Y-90291225D01*
X162266223Y-90376916D01*
X162486381Y-90398600D01*
X162633619Y-90398600D01*
X162853777Y-90376916D01*
X163136264Y-90291225D01*
X163396606Y-90152069D01*
X163624797Y-89964797D01*
X163812069Y-89736606D01*
X163830000Y-89703060D01*
X163847931Y-89736606D01*
X164035203Y-89964797D01*
X164263394Y-90152069D01*
X164523736Y-90291225D01*
X164806223Y-90376916D01*
X165026381Y-90398600D01*
X165173619Y-90398600D01*
X165393777Y-90376916D01*
X165676264Y-90291225D01*
X165936606Y-90152069D01*
X166164797Y-89964797D01*
X166352069Y-89736606D01*
X166393016Y-89660000D01*
X180316984Y-89660000D01*
X180357931Y-89736606D01*
X180545203Y-89964797D01*
X180773394Y-90152069D01*
X181033736Y-90291225D01*
X181316223Y-90376916D01*
X181536381Y-90398600D01*
X181683619Y-90398600D01*
X181903777Y-90376916D01*
X182186264Y-90291225D01*
X182446606Y-90152069D01*
X182674797Y-89964797D01*
X182862069Y-89736606D01*
X182880000Y-89703060D01*
X182897931Y-89736606D01*
X183085203Y-89964797D01*
X183313394Y-90152069D01*
X183573736Y-90291225D01*
X183856223Y-90376916D01*
X184076381Y-90398600D01*
X184223619Y-90398600D01*
X184443777Y-90376916D01*
X184726264Y-90291225D01*
X184986606Y-90152069D01*
X185214797Y-89964797D01*
X185402069Y-89736606D01*
X185443016Y-89660000D01*
X199366984Y-89660000D01*
X199407931Y-89736606D01*
X199595203Y-89964797D01*
X199823394Y-90152069D01*
X200083736Y-90291225D01*
X200366223Y-90376916D01*
X200586381Y-90398600D01*
X200733619Y-90398600D01*
X200953777Y-90376916D01*
X201236264Y-90291225D01*
X201496606Y-90152069D01*
X201724797Y-89964797D01*
X201912069Y-89736606D01*
X201930000Y-89703060D01*
X201947931Y-89736606D01*
X202135203Y-89964797D01*
X202363394Y-90152069D01*
X202623736Y-90291225D01*
X202906223Y-90376916D01*
X203126381Y-90398600D01*
X203273619Y-90398600D01*
X203493777Y-90376916D01*
X203776264Y-90291225D01*
X204036606Y-90152069D01*
X204264797Y-89964797D01*
X204452069Y-89736606D01*
X204493016Y-89660000D01*
X218416984Y-89660000D01*
X218457931Y-89736606D01*
X218645203Y-89964797D01*
X218873394Y-90152069D01*
X219133736Y-90291225D01*
X219416223Y-90376916D01*
X219636381Y-90398600D01*
X219783619Y-90398600D01*
X220003777Y-90376916D01*
X220286264Y-90291225D01*
X220546606Y-90152069D01*
X220774797Y-89964797D01*
X220962069Y-89736606D01*
X220980000Y-89703060D01*
X220997931Y-89736606D01*
X221185203Y-89964797D01*
X221413394Y-90152069D01*
X221673736Y-90291225D01*
X221956223Y-90376916D01*
X222176381Y-90398600D01*
X222323619Y-90398600D01*
X222543777Y-90376916D01*
X222826264Y-90291225D01*
X223086606Y-90152069D01*
X223314797Y-89964797D01*
X223502069Y-89736606D01*
X223543016Y-89660000D01*
X237466984Y-89660000D01*
X237507931Y-89736606D01*
X237695203Y-89964797D01*
X237923394Y-90152069D01*
X238183736Y-90291225D01*
X238466223Y-90376916D01*
X238686381Y-90398600D01*
X238833619Y-90398600D01*
X239053777Y-90376916D01*
X239336264Y-90291225D01*
X239596606Y-90152069D01*
X239824797Y-89964797D01*
X240012069Y-89736606D01*
X240030000Y-89703060D01*
X240047931Y-89736606D01*
X240235203Y-89964797D01*
X240463394Y-90152069D01*
X240723736Y-90291225D01*
X241006223Y-90376916D01*
X241226381Y-90398600D01*
X241373619Y-90398600D01*
X241593777Y-90376916D01*
X241676900Y-90351701D01*
X243022201Y-91697003D01*
X243045999Y-91726001D01*
X243161724Y-91820974D01*
X243293753Y-91891546D01*
X243437014Y-91935003D01*
X243548667Y-91946000D01*
X243548676Y-91946000D01*
X243585999Y-91949676D01*
X243623322Y-91946000D01*
X246182635Y-91946000D01*
X246186487Y-91985111D01*
X246271401Y-92265034D01*
X246409294Y-92523014D01*
X246594866Y-92749134D01*
X246820986Y-92934706D01*
X247078966Y-93072599D01*
X247358889Y-93157513D01*
X247577050Y-93179000D01*
X247722950Y-93179000D01*
X247941111Y-93157513D01*
X248221034Y-93072599D01*
X248479014Y-92934706D01*
X248705134Y-92749134D01*
X248890706Y-92523014D01*
X249028599Y-92265034D01*
X249113513Y-91985111D01*
X249117365Y-91946000D01*
X252511895Y-91946000D01*
X252615988Y-92197302D01*
X252849637Y-92546983D01*
X253147017Y-92844363D01*
X253496698Y-93078012D01*
X253885244Y-93238953D01*
X254297721Y-93321000D01*
X254718279Y-93321000D01*
X255130756Y-93238953D01*
X255519302Y-93078012D01*
X255868983Y-92844363D01*
X256166363Y-92546983D01*
X256400012Y-92197302D01*
X256560953Y-91808756D01*
X256643000Y-91396279D01*
X256643000Y-90975721D01*
X256560953Y-90563244D01*
X256400012Y-90174698D01*
X256364132Y-90120999D01*
X257448198Y-90120999D01*
X257639140Y-90311941D01*
X257535047Y-90563244D01*
X257453000Y-90975721D01*
X257453000Y-91396279D01*
X257535047Y-91808756D01*
X257695988Y-92197302D01*
X257929637Y-92546983D01*
X258227017Y-92844363D01*
X258576698Y-93078012D01*
X258965244Y-93238953D01*
X259377721Y-93321000D01*
X259798279Y-93321000D01*
X260210756Y-93238953D01*
X260599302Y-93078012D01*
X260948983Y-92844363D01*
X261107346Y-92686000D01*
X262529928Y-92686000D01*
X262542188Y-92810482D01*
X262578498Y-92930180D01*
X262637463Y-93040494D01*
X262716815Y-93137185D01*
X262813506Y-93216537D01*
X262923820Y-93275502D01*
X263043518Y-93311812D01*
X263168000Y-93324072D01*
X264382250Y-93321000D01*
X264541000Y-93162250D01*
X264541000Y-91313000D01*
X264795000Y-91313000D01*
X264795000Y-93162250D01*
X264953750Y-93321000D01*
X266168000Y-93324072D01*
X266292482Y-93311812D01*
X266412180Y-93275502D01*
X266522494Y-93216537D01*
X266619185Y-93137185D01*
X266698537Y-93040494D01*
X266757502Y-92930180D01*
X266793812Y-92810482D01*
X266806072Y-92686000D01*
X266803000Y-91471750D01*
X266644250Y-91313000D01*
X264795000Y-91313000D01*
X264541000Y-91313000D01*
X262691750Y-91313000D01*
X262533000Y-91471750D01*
X262529928Y-92686000D01*
X261107346Y-92686000D01*
X261246363Y-92546983D01*
X261480012Y-92197302D01*
X261640953Y-91808756D01*
X261723000Y-91396279D01*
X261723000Y-90975721D01*
X261640953Y-90563244D01*
X261480012Y-90174698D01*
X261246363Y-89825017D01*
X261107346Y-89686000D01*
X262529928Y-89686000D01*
X262533000Y-90900250D01*
X262691750Y-91059000D01*
X264541000Y-91059000D01*
X264541000Y-89209750D01*
X264795000Y-89209750D01*
X264795000Y-91059000D01*
X266644250Y-91059000D01*
X266803000Y-90900250D01*
X266806072Y-89686000D01*
X266793812Y-89561518D01*
X266757502Y-89441820D01*
X266698537Y-89331506D01*
X266619185Y-89234815D01*
X266522494Y-89155463D01*
X266412180Y-89096498D01*
X266292482Y-89060188D01*
X266168000Y-89047928D01*
X264953750Y-89051000D01*
X264795000Y-89209750D01*
X264541000Y-89209750D01*
X264382250Y-89051000D01*
X263168000Y-89047928D01*
X263043518Y-89060188D01*
X262923820Y-89096498D01*
X262813506Y-89155463D01*
X262716815Y-89234815D01*
X262637463Y-89331506D01*
X262578498Y-89441820D01*
X262542188Y-89561518D01*
X262529928Y-89686000D01*
X261107346Y-89686000D01*
X260948983Y-89527637D01*
X260599302Y-89293988D01*
X260210756Y-89133047D01*
X259798279Y-89051000D01*
X259377721Y-89051000D01*
X258965244Y-89133047D01*
X258713941Y-89237140D01*
X258326803Y-88850002D01*
X258303000Y-88820998D01*
X258187275Y-88726025D01*
X258055246Y-88655453D01*
X257911985Y-88611996D01*
X257800332Y-88600999D01*
X257800321Y-88600999D01*
X257762999Y-88597323D01*
X257725677Y-88600999D01*
X249034069Y-88600999D01*
X249028599Y-88582966D01*
X248890706Y-88324986D01*
X248705134Y-88098866D01*
X248675313Y-88074393D01*
X248744180Y-88053502D01*
X248854494Y-87994537D01*
X248951185Y-87915185D01*
X249030537Y-87818494D01*
X249089502Y-87708180D01*
X249125812Y-87588482D01*
X249138072Y-87464000D01*
X249135000Y-86899750D01*
X248976250Y-86741000D01*
X247777000Y-86741000D01*
X247777000Y-86761000D01*
X247523000Y-86761000D01*
X247523000Y-86741000D01*
X247503000Y-86741000D01*
X247503000Y-86487000D01*
X247523000Y-86487000D01*
X247523000Y-86467000D01*
X247777000Y-86467000D01*
X247777000Y-86487000D01*
X248976250Y-86487000D01*
X249135000Y-86328250D01*
X249138072Y-85764000D01*
X249125812Y-85639518D01*
X249104299Y-85568599D01*
X251518123Y-85568599D01*
X251561599Y-85572881D01*
X251605076Y-85568599D01*
X261474932Y-85568599D01*
X261518401Y-85572880D01*
X261561870Y-85568599D01*
X261561878Y-85568599D01*
X261691891Y-85555794D01*
X261858714Y-85505188D01*
X262012460Y-85423010D01*
X262147218Y-85312416D01*
X262174935Y-85278643D01*
X262648941Y-84804637D01*
X262775244Y-84856953D01*
X263187721Y-84939000D01*
X263608279Y-84939000D01*
X264020756Y-84856953D01*
X264409302Y-84696012D01*
X264758983Y-84462363D01*
X265056363Y-84164983D01*
X265290012Y-83815302D01*
X265450953Y-83426756D01*
X265533000Y-83014279D01*
X265533000Y-82593721D01*
X265450953Y-82181244D01*
X265290012Y-81792698D01*
X265056363Y-81443017D01*
X264758983Y-81145637D01*
X264409302Y-80911988D01*
X264020756Y-80751047D01*
X263608279Y-80669000D01*
X263187721Y-80669000D01*
X262775244Y-80751047D01*
X262386698Y-80911988D01*
X262037017Y-81145637D01*
X261739637Y-81443017D01*
X261505988Y-81792698D01*
X261345047Y-82181244D01*
X261263000Y-82593721D01*
X261263000Y-83014279D01*
X261345047Y-83426756D01*
X261397363Y-83553059D01*
X261151823Y-83798599D01*
X258576755Y-83798599D01*
X258586072Y-83704000D01*
X258583000Y-83089750D01*
X258424250Y-82931000D01*
X257175000Y-82931000D01*
X257175000Y-82951000D01*
X256921000Y-82951000D01*
X256921000Y-82931000D01*
X256901000Y-82931000D01*
X256901000Y-82677000D01*
X256921000Y-82677000D01*
X256921000Y-81427750D01*
X257175000Y-81427750D01*
X257175000Y-82677000D01*
X258424250Y-82677000D01*
X258583000Y-82518250D01*
X258586072Y-81904000D01*
X258573812Y-81779518D01*
X258537502Y-81659820D01*
X258478537Y-81549506D01*
X258399185Y-81452815D01*
X258302494Y-81373463D01*
X258192180Y-81314498D01*
X258072482Y-81278188D01*
X257948000Y-81265928D01*
X257333750Y-81269000D01*
X257175000Y-81427750D01*
X256921000Y-81427750D01*
X256762250Y-81269000D01*
X256148000Y-81265928D01*
X256023518Y-81278188D01*
X255903820Y-81314498D01*
X255793506Y-81373463D01*
X255696815Y-81452815D01*
X255617463Y-81549506D01*
X255558498Y-81659820D01*
X255552944Y-81678127D01*
X255486505Y-81611688D01*
X255235095Y-81443701D01*
X254955743Y-81327989D01*
X254659184Y-81269000D01*
X254356816Y-81269000D01*
X254095565Y-81320966D01*
X254032277Y-81269027D01*
X253900248Y-81198455D01*
X253756987Y-81154998D01*
X253645334Y-81144001D01*
X253645323Y-81144001D01*
X253608001Y-81140325D01*
X253570679Y-81144001D01*
X252655426Y-81144001D01*
X252649458Y-81132836D01*
X252539792Y-80999208D01*
X252406164Y-80889542D01*
X252253709Y-80808053D01*
X252088285Y-80757872D01*
X251916250Y-80740928D01*
X251003750Y-80740928D01*
X250831715Y-80757872D01*
X250666291Y-80808053D01*
X250513836Y-80889542D01*
X250380208Y-80999208D01*
X250270542Y-81132836D01*
X250189053Y-81285291D01*
X250138872Y-81450715D01*
X250121928Y-81622750D01*
X250121928Y-82110250D01*
X250138872Y-82282285D01*
X250189053Y-82447709D01*
X250270542Y-82600164D01*
X250380208Y-82733792D01*
X250465756Y-82804000D01*
X250380208Y-82874208D01*
X250270542Y-83007836D01*
X250189053Y-83160291D01*
X250138872Y-83325715D01*
X250121928Y-83497750D01*
X250121928Y-83798599D01*
X242803743Y-83798599D01*
X242776916Y-83526223D01*
X242691225Y-83243736D01*
X242552069Y-82983394D01*
X242364797Y-82755203D01*
X242136606Y-82567931D01*
X242103060Y-82550000D01*
X242136606Y-82532069D01*
X242364797Y-82344797D01*
X242552069Y-82116606D01*
X242691225Y-81856264D01*
X242776916Y-81573777D01*
X242805851Y-81280000D01*
X242783052Y-81048526D01*
X245222579Y-78609000D01*
X261453672Y-78609000D01*
X261505988Y-78735302D01*
X261739637Y-79084983D01*
X262037017Y-79382363D01*
X262386698Y-79616012D01*
X262775244Y-79776953D01*
X263187721Y-79859000D01*
X263608279Y-79859000D01*
X264020756Y-79776953D01*
X264409302Y-79616012D01*
X264758983Y-79382363D01*
X265056363Y-79084983D01*
X265290012Y-78735302D01*
X265450953Y-78346756D01*
X265533000Y-77934279D01*
X265533000Y-77513721D01*
X265450953Y-77101244D01*
X265290012Y-76712698D01*
X265056363Y-76363017D01*
X264758983Y-76065637D01*
X264409302Y-75831988D01*
X264020756Y-75671047D01*
X263608279Y-75589000D01*
X263187721Y-75589000D01*
X262775244Y-75671047D01*
X262386698Y-75831988D01*
X262037017Y-76065637D01*
X261739637Y-76363017D01*
X261505988Y-76712698D01*
X261453672Y-76839000D01*
X252658098Y-76839000D01*
X252730947Y-76702709D01*
X252781128Y-76537285D01*
X252798072Y-76365250D01*
X252798072Y-75877750D01*
X252781128Y-75705715D01*
X252730947Y-75540291D01*
X252649458Y-75387836D01*
X252539792Y-75254208D01*
X252454244Y-75184000D01*
X252539792Y-75113792D01*
X252627845Y-75006500D01*
X252978235Y-75006500D01*
X252973000Y-75032816D01*
X252973000Y-75335184D01*
X253031989Y-75631743D01*
X253147701Y-75911095D01*
X253315688Y-76162505D01*
X253529495Y-76376312D01*
X253780905Y-76544299D01*
X254060257Y-76660011D01*
X254356816Y-76719000D01*
X254659184Y-76719000D01*
X254955743Y-76660011D01*
X255235095Y-76544299D01*
X255486505Y-76376312D01*
X255552944Y-76309873D01*
X255558498Y-76328180D01*
X255617463Y-76438494D01*
X255696815Y-76535185D01*
X255793506Y-76614537D01*
X255903820Y-76673502D01*
X256023518Y-76709812D01*
X256148000Y-76722072D01*
X256762250Y-76719000D01*
X256921000Y-76560250D01*
X256921000Y-75311000D01*
X257175000Y-75311000D01*
X257175000Y-76560250D01*
X257333750Y-76719000D01*
X257948000Y-76722072D01*
X258072482Y-76709812D01*
X258192180Y-76673502D01*
X258302494Y-76614537D01*
X258399185Y-76535185D01*
X258478537Y-76438494D01*
X258537502Y-76328180D01*
X258573812Y-76208482D01*
X258586072Y-76084000D01*
X258583000Y-75469750D01*
X258424250Y-75311000D01*
X257175000Y-75311000D01*
X256921000Y-75311000D01*
X256901000Y-75311000D01*
X256901000Y-75057000D01*
X256921000Y-75057000D01*
X256921000Y-73807750D01*
X257175000Y-73807750D01*
X257175000Y-75057000D01*
X258424250Y-75057000D01*
X258583000Y-74898250D01*
X258586072Y-74284000D01*
X258573812Y-74159518D01*
X258566573Y-74135653D01*
X262085952Y-74135653D01*
X262241962Y-74451214D01*
X262616745Y-74642020D01*
X263021551Y-74756044D01*
X263440824Y-74788902D01*
X263858451Y-74739334D01*
X264258383Y-74609243D01*
X264554038Y-74451214D01*
X264710048Y-74135653D01*
X263398000Y-72823605D01*
X262085952Y-74135653D01*
X258566573Y-74135653D01*
X258537502Y-74039820D01*
X258478537Y-73929506D01*
X258399185Y-73832815D01*
X258302494Y-73753463D01*
X258192180Y-73694498D01*
X258072482Y-73658188D01*
X257948000Y-73645928D01*
X257333750Y-73649000D01*
X257175000Y-73807750D01*
X256921000Y-73807750D01*
X256762250Y-73649000D01*
X256148000Y-73645928D01*
X256023518Y-73658188D01*
X255903820Y-73694498D01*
X255793506Y-73753463D01*
X255696815Y-73832815D01*
X255617463Y-73929506D01*
X255558498Y-74039820D01*
X255552944Y-74058127D01*
X255486505Y-73991688D01*
X255235095Y-73823701D01*
X254955743Y-73707989D01*
X254659184Y-73649000D01*
X254356816Y-73649000D01*
X254102160Y-73699654D01*
X253994776Y-73611526D01*
X253862747Y-73540954D01*
X253719486Y-73497497D01*
X253607833Y-73486500D01*
X253607822Y-73486500D01*
X253570500Y-73482824D01*
X253533178Y-73486500D01*
X252627845Y-73486500D01*
X252539792Y-73379208D01*
X252406164Y-73269542D01*
X252253709Y-73188053D01*
X252088285Y-73137872D01*
X251916250Y-73120928D01*
X251003750Y-73120928D01*
X250831715Y-73137872D01*
X250666291Y-73188053D01*
X250513836Y-73269542D01*
X250380208Y-73379208D01*
X250270542Y-73512836D01*
X250189053Y-73665291D01*
X250138872Y-73830715D01*
X250121928Y-74002750D01*
X250121928Y-74490250D01*
X250138872Y-74662285D01*
X250189053Y-74827709D01*
X250270542Y-74980164D01*
X250380208Y-75113792D01*
X250465756Y-75184000D01*
X250380208Y-75254208D01*
X250270542Y-75387836D01*
X250189053Y-75540291D01*
X250138872Y-75705715D01*
X250121928Y-75877750D01*
X250121928Y-76365250D01*
X250138872Y-76537285D01*
X250189053Y-76702709D01*
X250261902Y-76839000D01*
X244899465Y-76839000D01*
X244855999Y-76834719D01*
X244812533Y-76839000D01*
X244812523Y-76839000D01*
X244682510Y-76851805D01*
X244515687Y-76902411D01*
X244361941Y-76984589D01*
X244361939Y-76984590D01*
X244361940Y-76984590D01*
X244260953Y-77067468D01*
X244260951Y-77067470D01*
X244227183Y-77095183D01*
X244199470Y-77128951D01*
X242715423Y-78612998D01*
X242633818Y-78612998D01*
X242754958Y-78380974D01*
X242709222Y-78230186D01*
X242582684Y-77965056D01*
X242406854Y-77729707D01*
X242188488Y-77533183D01*
X242082230Y-77470000D01*
X242188488Y-77406817D01*
X242406854Y-77210293D01*
X242582684Y-76974944D01*
X242709222Y-76709814D01*
X242754958Y-76559026D01*
X242633817Y-76327000D01*
X241427000Y-76327000D01*
X241427000Y-78613000D01*
X241447000Y-78613000D01*
X241447000Y-78867000D01*
X241427000Y-78867000D01*
X241427000Y-78887000D01*
X241173000Y-78887000D01*
X241173000Y-78867000D01*
X238887000Y-78867000D01*
X238887000Y-78887000D01*
X238633000Y-78887000D01*
X238633000Y-78867000D01*
X237426183Y-78867000D01*
X237305042Y-79099026D01*
X237350778Y-79249814D01*
X237477316Y-79514944D01*
X237653146Y-79750293D01*
X237871512Y-79946817D01*
X237967910Y-80004137D01*
X237923394Y-80027931D01*
X237695203Y-80215203D01*
X237547647Y-80395000D01*
X223462353Y-80395000D01*
X223314797Y-80215203D01*
X223086606Y-80027931D01*
X223042090Y-80004137D01*
X223138488Y-79946817D01*
X223356854Y-79750293D01*
X223532684Y-79514944D01*
X223659222Y-79249814D01*
X223704958Y-79099026D01*
X223583817Y-78867000D01*
X222377000Y-78867000D01*
X222377000Y-78887000D01*
X222123000Y-78887000D01*
X222123000Y-78867000D01*
X219837000Y-78867000D01*
X219837000Y-78887000D01*
X219583000Y-78887000D01*
X219583000Y-78867000D01*
X218376183Y-78867000D01*
X218255042Y-79099026D01*
X218300778Y-79249814D01*
X218427316Y-79514944D01*
X218603146Y-79750293D01*
X218821512Y-79946817D01*
X218917910Y-80004137D01*
X218873394Y-80027931D01*
X218645203Y-80215203D01*
X218497647Y-80395000D01*
X204412353Y-80395000D01*
X204264797Y-80215203D01*
X204036606Y-80027931D01*
X203992090Y-80004137D01*
X204088488Y-79946817D01*
X204306854Y-79750293D01*
X204482684Y-79514944D01*
X204609222Y-79249814D01*
X204654958Y-79099026D01*
X204533817Y-78867000D01*
X203327000Y-78867000D01*
X203327000Y-78887000D01*
X203073000Y-78887000D01*
X203073000Y-78867000D01*
X200787000Y-78867000D01*
X200787000Y-78887000D01*
X200533000Y-78887000D01*
X200533000Y-78867000D01*
X199326183Y-78867000D01*
X199205042Y-79099026D01*
X199250778Y-79249814D01*
X199377316Y-79514944D01*
X199553146Y-79750293D01*
X199771512Y-79946817D01*
X199867910Y-80004137D01*
X199823394Y-80027931D01*
X199595203Y-80215203D01*
X199447647Y-80395000D01*
X185362353Y-80395000D01*
X185214797Y-80215203D01*
X184986606Y-80027931D01*
X184942090Y-80004137D01*
X185038488Y-79946817D01*
X185256854Y-79750293D01*
X185432684Y-79514944D01*
X185559222Y-79249814D01*
X185604958Y-79099026D01*
X185483817Y-78867000D01*
X184277000Y-78867000D01*
X184277000Y-78887000D01*
X184023000Y-78887000D01*
X184023000Y-78867000D01*
X181737000Y-78867000D01*
X181737000Y-78887000D01*
X181483000Y-78887000D01*
X181483000Y-78867000D01*
X180276183Y-78867000D01*
X180155042Y-79099026D01*
X180200778Y-79249814D01*
X180327316Y-79514944D01*
X180503146Y-79750293D01*
X180721512Y-79946817D01*
X180817910Y-80004137D01*
X180773394Y-80027931D01*
X180545203Y-80215203D01*
X180397647Y-80395000D01*
X166312353Y-80395000D01*
X166164797Y-80215203D01*
X165936606Y-80027931D01*
X165892090Y-80004137D01*
X165988488Y-79946817D01*
X166206854Y-79750293D01*
X166382684Y-79514944D01*
X166509222Y-79249814D01*
X166554958Y-79099026D01*
X166433817Y-78867000D01*
X165227000Y-78867000D01*
X165227000Y-78887000D01*
X164973000Y-78887000D01*
X164973000Y-78867000D01*
X162687000Y-78867000D01*
X162687000Y-78887000D01*
X162433000Y-78887000D01*
X162433000Y-78867000D01*
X161226183Y-78867000D01*
X161105042Y-79099026D01*
X161150778Y-79249814D01*
X161277316Y-79514944D01*
X161453146Y-79750293D01*
X161671512Y-79946817D01*
X161767910Y-80004137D01*
X161723394Y-80027931D01*
X161495203Y-80215203D01*
X161347647Y-80395000D01*
X147262353Y-80395000D01*
X147114797Y-80215203D01*
X146886606Y-80027931D01*
X146842090Y-80004137D01*
X146938488Y-79946817D01*
X147156854Y-79750293D01*
X147332684Y-79514944D01*
X147459222Y-79249814D01*
X147504958Y-79099026D01*
X147383817Y-78867000D01*
X146177000Y-78867000D01*
X146177000Y-78887000D01*
X145923000Y-78887000D01*
X145923000Y-78867000D01*
X143637000Y-78867000D01*
X143637000Y-78887000D01*
X143383000Y-78887000D01*
X143383000Y-78867000D01*
X142176183Y-78867000D01*
X142055042Y-79099026D01*
X142100778Y-79249814D01*
X142227316Y-79514944D01*
X142403146Y-79750293D01*
X142621512Y-79946817D01*
X142717910Y-80004137D01*
X142673394Y-80027931D01*
X142445203Y-80215203D01*
X142297647Y-80395000D01*
X128212353Y-80395000D01*
X128064797Y-80215203D01*
X127836606Y-80027931D01*
X127792090Y-80004137D01*
X127888488Y-79946817D01*
X128106854Y-79750293D01*
X128282684Y-79514944D01*
X128409222Y-79249814D01*
X128454958Y-79099026D01*
X128333817Y-78867000D01*
X127127000Y-78867000D01*
X127127000Y-78887000D01*
X126873000Y-78887000D01*
X126873000Y-78867000D01*
X124587000Y-78867000D01*
X124587000Y-78887000D01*
X124333000Y-78887000D01*
X124333000Y-78867000D01*
X123126183Y-78867000D01*
X123005042Y-79099026D01*
X123050778Y-79249814D01*
X123177316Y-79514944D01*
X123353146Y-79750293D01*
X123571512Y-79946817D01*
X123667910Y-80004137D01*
X123623394Y-80027931D01*
X123395203Y-80215203D01*
X123247647Y-80395000D01*
X108813354Y-80395000D01*
X108665798Y-80215203D01*
X108437607Y-80027931D01*
X108393091Y-80004137D01*
X108489489Y-79946817D01*
X108707855Y-79750293D01*
X108883685Y-79514944D01*
X109010223Y-79249814D01*
X109055959Y-79099026D01*
X108934818Y-78867000D01*
X107728001Y-78867000D01*
X107728001Y-78887000D01*
X107474001Y-78887000D01*
X107474001Y-78867000D01*
X105188001Y-78867000D01*
X105188001Y-78887000D01*
X104934001Y-78887000D01*
X104934001Y-78867000D01*
X103727184Y-78867000D01*
X103606043Y-79099026D01*
X103651779Y-79249814D01*
X103778317Y-79514944D01*
X103954147Y-79750293D01*
X104172513Y-79946817D01*
X104268911Y-80004137D01*
X104224395Y-80027931D01*
X103996204Y-80215203D01*
X103848648Y-80395000D01*
X93927899Y-80395000D01*
X91677854Y-78144956D01*
X91650137Y-78111183D01*
X91515379Y-78000589D01*
X91361633Y-77918411D01*
X91194810Y-77867805D01*
X91064797Y-77855000D01*
X91064789Y-77855000D01*
X91021320Y-77850719D01*
X90977851Y-77855000D01*
X90844328Y-77855000D01*
X90792012Y-77728698D01*
X90558363Y-77379017D01*
X90260983Y-77081637D01*
X89911302Y-76847988D01*
X89522756Y-76687047D01*
X89110279Y-76605000D01*
X88689721Y-76605000D01*
X88277244Y-76687047D01*
X87888698Y-76847988D01*
X87539017Y-77081637D01*
X87241637Y-77379017D01*
X87007988Y-77728698D01*
X86847047Y-78117244D01*
X86765000Y-78529721D01*
X86765000Y-78950279D01*
X86847047Y-79362756D01*
X87007988Y-79751302D01*
X87241637Y-80100983D01*
X87539017Y-80398363D01*
X87888698Y-80632012D01*
X88277244Y-80792953D01*
X88689721Y-80875000D01*
X89110279Y-80875000D01*
X89522756Y-80792953D01*
X89911302Y-80632012D01*
X90260983Y-80398363D01*
X90558363Y-80100983D01*
X90787619Y-79757877D01*
X92904790Y-81875049D01*
X92932503Y-81908817D01*
X92966271Y-81936530D01*
X92966273Y-81936532D01*
X93001578Y-81965506D01*
X93067261Y-82019411D01*
X93221007Y-82101589D01*
X93387830Y-82152195D01*
X93517843Y-82165000D01*
X93517853Y-82165000D01*
X93561319Y-82169281D01*
X93604785Y-82165000D01*
X103848648Y-82165000D01*
X103996204Y-82344797D01*
X104224395Y-82532069D01*
X104257941Y-82550000D01*
X104224395Y-82567931D01*
X103996204Y-82755203D01*
X103848648Y-82935000D01*
X91038072Y-82935000D01*
X91038072Y-82320000D01*
X91025812Y-82195518D01*
X90989502Y-82075820D01*
X90930537Y-81965506D01*
X90851185Y-81868815D01*
X90754494Y-81789463D01*
X90644180Y-81730498D01*
X90524482Y-81694188D01*
X90400000Y-81681928D01*
X87400000Y-81681928D01*
X87275518Y-81694188D01*
X87155820Y-81730498D01*
X87045506Y-81789463D01*
X86948815Y-81868815D01*
X86869463Y-81965506D01*
X86810498Y-82075820D01*
X86774188Y-82195518D01*
X86761928Y-82320000D01*
X80670000Y-82320000D01*
X80670000Y-76559026D01*
X103606043Y-76559026D01*
X103651779Y-76709814D01*
X103778317Y-76974944D01*
X103954147Y-77210293D01*
X104172513Y-77406817D01*
X104278771Y-77470000D01*
X104172513Y-77533183D01*
X103954147Y-77729707D01*
X103778317Y-77965056D01*
X103651779Y-78230186D01*
X103606043Y-78380974D01*
X103727184Y-78613000D01*
X104934001Y-78613000D01*
X104934001Y-76327000D01*
X105188001Y-76327000D01*
X105188001Y-78613000D01*
X107474001Y-78613000D01*
X107474001Y-76327000D01*
X107728001Y-76327000D01*
X107728001Y-78613000D01*
X108934818Y-78613000D01*
X109055959Y-78380974D01*
X109010223Y-78230186D01*
X108883685Y-77965056D01*
X108707855Y-77729707D01*
X108489489Y-77533183D01*
X108383231Y-77470000D01*
X108489489Y-77406817D01*
X108707855Y-77210293D01*
X108883685Y-76974944D01*
X109010223Y-76709814D01*
X109055959Y-76559026D01*
X123005042Y-76559026D01*
X123050778Y-76709814D01*
X123177316Y-76974944D01*
X123353146Y-77210293D01*
X123571512Y-77406817D01*
X123677770Y-77470000D01*
X123571512Y-77533183D01*
X123353146Y-77729707D01*
X123177316Y-77965056D01*
X123050778Y-78230186D01*
X123005042Y-78380974D01*
X123126183Y-78613000D01*
X124333000Y-78613000D01*
X124333000Y-76327000D01*
X124587000Y-76327000D01*
X124587000Y-78613000D01*
X126873000Y-78613000D01*
X126873000Y-76327000D01*
X127127000Y-76327000D01*
X127127000Y-78613000D01*
X128333817Y-78613000D01*
X128454958Y-78380974D01*
X128409222Y-78230186D01*
X128282684Y-77965056D01*
X128106854Y-77729707D01*
X127888488Y-77533183D01*
X127782230Y-77470000D01*
X127888488Y-77406817D01*
X128106854Y-77210293D01*
X128282684Y-76974944D01*
X128409222Y-76709814D01*
X128454958Y-76559026D01*
X142055042Y-76559026D01*
X142100778Y-76709814D01*
X142227316Y-76974944D01*
X142403146Y-77210293D01*
X142621512Y-77406817D01*
X142727770Y-77470000D01*
X142621512Y-77533183D01*
X142403146Y-77729707D01*
X142227316Y-77965056D01*
X142100778Y-78230186D01*
X142055042Y-78380974D01*
X142176183Y-78613000D01*
X143383000Y-78613000D01*
X143383000Y-76327000D01*
X143637000Y-76327000D01*
X143637000Y-78613000D01*
X145923000Y-78613000D01*
X145923000Y-76327000D01*
X146177000Y-76327000D01*
X146177000Y-78613000D01*
X147383817Y-78613000D01*
X147504958Y-78380974D01*
X147459222Y-78230186D01*
X147332684Y-77965056D01*
X147156854Y-77729707D01*
X146938488Y-77533183D01*
X146832230Y-77470000D01*
X146938488Y-77406817D01*
X147156854Y-77210293D01*
X147332684Y-76974944D01*
X147459222Y-76709814D01*
X147504958Y-76559026D01*
X161105042Y-76559026D01*
X161150778Y-76709814D01*
X161277316Y-76974944D01*
X161453146Y-77210293D01*
X161671512Y-77406817D01*
X161777770Y-77470000D01*
X161671512Y-77533183D01*
X161453146Y-77729707D01*
X161277316Y-77965056D01*
X161150778Y-78230186D01*
X161105042Y-78380974D01*
X161226183Y-78613000D01*
X162433000Y-78613000D01*
X162433000Y-76327000D01*
X162687000Y-76327000D01*
X162687000Y-78613000D01*
X164973000Y-78613000D01*
X164973000Y-76327000D01*
X165227000Y-76327000D01*
X165227000Y-78613000D01*
X166433817Y-78613000D01*
X166554958Y-78380974D01*
X166509222Y-78230186D01*
X166382684Y-77965056D01*
X166206854Y-77729707D01*
X165988488Y-77533183D01*
X165882230Y-77470000D01*
X165988488Y-77406817D01*
X166206854Y-77210293D01*
X166382684Y-76974944D01*
X166509222Y-76709814D01*
X166554958Y-76559026D01*
X180155042Y-76559026D01*
X180200778Y-76709814D01*
X180327316Y-76974944D01*
X180503146Y-77210293D01*
X180721512Y-77406817D01*
X180827770Y-77470000D01*
X180721512Y-77533183D01*
X180503146Y-77729707D01*
X180327316Y-77965056D01*
X180200778Y-78230186D01*
X180155042Y-78380974D01*
X180276183Y-78613000D01*
X181483000Y-78613000D01*
X181483000Y-76327000D01*
X181737000Y-76327000D01*
X181737000Y-78613000D01*
X184023000Y-78613000D01*
X184023000Y-76327000D01*
X184277000Y-76327000D01*
X184277000Y-78613000D01*
X185483817Y-78613000D01*
X185604958Y-78380974D01*
X185559222Y-78230186D01*
X185432684Y-77965056D01*
X185256854Y-77729707D01*
X185038488Y-77533183D01*
X184932230Y-77470000D01*
X185038488Y-77406817D01*
X185256854Y-77210293D01*
X185432684Y-76974944D01*
X185559222Y-76709814D01*
X185604958Y-76559026D01*
X199205042Y-76559026D01*
X199250778Y-76709814D01*
X199377316Y-76974944D01*
X199553146Y-77210293D01*
X199771512Y-77406817D01*
X199877770Y-77470000D01*
X199771512Y-77533183D01*
X199553146Y-77729707D01*
X199377316Y-77965056D01*
X199250778Y-78230186D01*
X199205042Y-78380974D01*
X199326183Y-78613000D01*
X200533000Y-78613000D01*
X200533000Y-76327000D01*
X200787000Y-76327000D01*
X200787000Y-78613000D01*
X203073000Y-78613000D01*
X203073000Y-76327000D01*
X203327000Y-76327000D01*
X203327000Y-78613000D01*
X204533817Y-78613000D01*
X204654958Y-78380974D01*
X204609222Y-78230186D01*
X204482684Y-77965056D01*
X204306854Y-77729707D01*
X204088488Y-77533183D01*
X203982230Y-77470000D01*
X204088488Y-77406817D01*
X204306854Y-77210293D01*
X204482684Y-76974944D01*
X204609222Y-76709814D01*
X204654958Y-76559026D01*
X218255042Y-76559026D01*
X218300778Y-76709814D01*
X218427316Y-76974944D01*
X218603146Y-77210293D01*
X218821512Y-77406817D01*
X218927770Y-77470000D01*
X218821512Y-77533183D01*
X218603146Y-77729707D01*
X218427316Y-77965056D01*
X218300778Y-78230186D01*
X218255042Y-78380974D01*
X218376183Y-78613000D01*
X219583000Y-78613000D01*
X219583000Y-76327000D01*
X219837000Y-76327000D01*
X219837000Y-78613000D01*
X222123000Y-78613000D01*
X222123000Y-76327000D01*
X222377000Y-76327000D01*
X222377000Y-78613000D01*
X223583817Y-78613000D01*
X223704958Y-78380974D01*
X223659222Y-78230186D01*
X223532684Y-77965056D01*
X223356854Y-77729707D01*
X223138488Y-77533183D01*
X223032230Y-77470000D01*
X223138488Y-77406817D01*
X223356854Y-77210293D01*
X223532684Y-76974944D01*
X223659222Y-76709814D01*
X223704958Y-76559026D01*
X237305042Y-76559026D01*
X237350778Y-76709814D01*
X237477316Y-76974944D01*
X237653146Y-77210293D01*
X237871512Y-77406817D01*
X237977770Y-77470000D01*
X237871512Y-77533183D01*
X237653146Y-77729707D01*
X237477316Y-77965056D01*
X237350778Y-78230186D01*
X237305042Y-78380974D01*
X237426183Y-78613000D01*
X238633000Y-78613000D01*
X238633000Y-76327000D01*
X238887000Y-76327000D01*
X238887000Y-78613000D01*
X241173000Y-78613000D01*
X241173000Y-76327000D01*
X238887000Y-76327000D01*
X238633000Y-76327000D01*
X237426183Y-76327000D01*
X237305042Y-76559026D01*
X223704958Y-76559026D01*
X223583817Y-76327000D01*
X222377000Y-76327000D01*
X222123000Y-76327000D01*
X219837000Y-76327000D01*
X219583000Y-76327000D01*
X218376183Y-76327000D01*
X218255042Y-76559026D01*
X204654958Y-76559026D01*
X204533817Y-76327000D01*
X203327000Y-76327000D01*
X203073000Y-76327000D01*
X200787000Y-76327000D01*
X200533000Y-76327000D01*
X199326183Y-76327000D01*
X199205042Y-76559026D01*
X185604958Y-76559026D01*
X185483817Y-76327000D01*
X184277000Y-76327000D01*
X184023000Y-76327000D01*
X181737000Y-76327000D01*
X181483000Y-76327000D01*
X180276183Y-76327000D01*
X180155042Y-76559026D01*
X166554958Y-76559026D01*
X166433817Y-76327000D01*
X165227000Y-76327000D01*
X164973000Y-76327000D01*
X162687000Y-76327000D01*
X162433000Y-76327000D01*
X161226183Y-76327000D01*
X161105042Y-76559026D01*
X147504958Y-76559026D01*
X147383817Y-76327000D01*
X146177000Y-76327000D01*
X145923000Y-76327000D01*
X143637000Y-76327000D01*
X143383000Y-76327000D01*
X142176183Y-76327000D01*
X142055042Y-76559026D01*
X128454958Y-76559026D01*
X128333817Y-76327000D01*
X127127000Y-76327000D01*
X126873000Y-76327000D01*
X124587000Y-76327000D01*
X124333000Y-76327000D01*
X123126183Y-76327000D01*
X123005042Y-76559026D01*
X109055959Y-76559026D01*
X108934818Y-76327000D01*
X107728001Y-76327000D01*
X107474001Y-76327000D01*
X105188001Y-76327000D01*
X104934001Y-76327000D01*
X103727184Y-76327000D01*
X103606043Y-76559026D01*
X80670000Y-76559026D01*
X80670000Y-75151653D01*
X87587952Y-75151653D01*
X87743962Y-75467214D01*
X88118745Y-75658020D01*
X88523551Y-75772044D01*
X88942824Y-75804902D01*
X89360451Y-75755334D01*
X89760383Y-75625243D01*
X90056038Y-75467214D01*
X90212048Y-75151653D01*
X88900000Y-73839605D01*
X87587952Y-75151653D01*
X80670000Y-75151653D01*
X80670000Y-73702824D01*
X86755098Y-73702824D01*
X86804666Y-74120451D01*
X86934757Y-74520383D01*
X87092786Y-74816038D01*
X87408347Y-74972048D01*
X88720395Y-73660000D01*
X89079605Y-73660000D01*
X90391653Y-74972048D01*
X90707214Y-74816038D01*
X90898020Y-74441255D01*
X91012044Y-74036449D01*
X91013409Y-74019026D01*
X103606043Y-74019026D01*
X103651779Y-74169814D01*
X103778317Y-74434944D01*
X103954147Y-74670293D01*
X104172513Y-74866817D01*
X104278771Y-74930000D01*
X104172513Y-74993183D01*
X103954147Y-75189707D01*
X103778317Y-75425056D01*
X103651779Y-75690186D01*
X103606043Y-75840974D01*
X103727184Y-76073000D01*
X104934001Y-76073000D01*
X104934001Y-73787000D01*
X105188001Y-73787000D01*
X105188001Y-76073000D01*
X107474001Y-76073000D01*
X107474001Y-73787000D01*
X107728001Y-73787000D01*
X107728001Y-76073000D01*
X108934818Y-76073000D01*
X109055959Y-75840974D01*
X109010223Y-75690186D01*
X108883685Y-75425056D01*
X108707855Y-75189707D01*
X108489489Y-74993183D01*
X108383231Y-74930000D01*
X108489489Y-74866817D01*
X108707855Y-74670293D01*
X108883685Y-74434944D01*
X109010223Y-74169814D01*
X109055959Y-74019026D01*
X123005042Y-74019026D01*
X123050778Y-74169814D01*
X123177316Y-74434944D01*
X123353146Y-74670293D01*
X123571512Y-74866817D01*
X123677770Y-74930000D01*
X123571512Y-74993183D01*
X123353146Y-75189707D01*
X123177316Y-75425056D01*
X123050778Y-75690186D01*
X123005042Y-75840974D01*
X123126183Y-76073000D01*
X124333000Y-76073000D01*
X124333000Y-73787000D01*
X124587000Y-73787000D01*
X124587000Y-76073000D01*
X126873000Y-76073000D01*
X126873000Y-73787000D01*
X127127000Y-73787000D01*
X127127000Y-76073000D01*
X128333817Y-76073000D01*
X128454958Y-75840974D01*
X128409222Y-75690186D01*
X128282684Y-75425056D01*
X128106854Y-75189707D01*
X127888488Y-74993183D01*
X127782230Y-74930000D01*
X127888488Y-74866817D01*
X128106854Y-74670293D01*
X128282684Y-74434944D01*
X128409222Y-74169814D01*
X128454958Y-74019026D01*
X142055042Y-74019026D01*
X142100778Y-74169814D01*
X142227316Y-74434944D01*
X142403146Y-74670293D01*
X142621512Y-74866817D01*
X142727770Y-74930000D01*
X142621512Y-74993183D01*
X142403146Y-75189707D01*
X142227316Y-75425056D01*
X142100778Y-75690186D01*
X142055042Y-75840974D01*
X142176183Y-76073000D01*
X143383000Y-76073000D01*
X143383000Y-73787000D01*
X143637000Y-73787000D01*
X143637000Y-76073000D01*
X145923000Y-76073000D01*
X145923000Y-73787000D01*
X146177000Y-73787000D01*
X146177000Y-76073000D01*
X147383817Y-76073000D01*
X147504958Y-75840974D01*
X147459222Y-75690186D01*
X147332684Y-75425056D01*
X147156854Y-75189707D01*
X146938488Y-74993183D01*
X146832230Y-74930000D01*
X146938488Y-74866817D01*
X147156854Y-74670293D01*
X147332684Y-74434944D01*
X147459222Y-74169814D01*
X147504958Y-74019026D01*
X161105042Y-74019026D01*
X161150778Y-74169814D01*
X161277316Y-74434944D01*
X161453146Y-74670293D01*
X161671512Y-74866817D01*
X161777770Y-74930000D01*
X161671512Y-74993183D01*
X161453146Y-75189707D01*
X161277316Y-75425056D01*
X161150778Y-75690186D01*
X161105042Y-75840974D01*
X161226183Y-76073000D01*
X162433000Y-76073000D01*
X162433000Y-73787000D01*
X162687000Y-73787000D01*
X162687000Y-76073000D01*
X164973000Y-76073000D01*
X164973000Y-73787000D01*
X165227000Y-73787000D01*
X165227000Y-76073000D01*
X166433817Y-76073000D01*
X166554958Y-75840974D01*
X166509222Y-75690186D01*
X166382684Y-75425056D01*
X166206854Y-75189707D01*
X165988488Y-74993183D01*
X165882230Y-74930000D01*
X165988488Y-74866817D01*
X166206854Y-74670293D01*
X166382684Y-74434944D01*
X166509222Y-74169814D01*
X166554958Y-74019026D01*
X180155042Y-74019026D01*
X180200778Y-74169814D01*
X180327316Y-74434944D01*
X180503146Y-74670293D01*
X180721512Y-74866817D01*
X180827770Y-74930000D01*
X180721512Y-74993183D01*
X180503146Y-75189707D01*
X180327316Y-75425056D01*
X180200778Y-75690186D01*
X180155042Y-75840974D01*
X180276183Y-76073000D01*
X181483000Y-76073000D01*
X181483000Y-73787000D01*
X181737000Y-73787000D01*
X181737000Y-76073000D01*
X184023000Y-76073000D01*
X184023000Y-73787000D01*
X184277000Y-73787000D01*
X184277000Y-76073000D01*
X185483817Y-76073000D01*
X185604958Y-75840974D01*
X185559222Y-75690186D01*
X185432684Y-75425056D01*
X185256854Y-75189707D01*
X185038488Y-74993183D01*
X184932230Y-74930000D01*
X185038488Y-74866817D01*
X185256854Y-74670293D01*
X185432684Y-74434944D01*
X185559222Y-74169814D01*
X185604958Y-74019026D01*
X199205042Y-74019026D01*
X199250778Y-74169814D01*
X199377316Y-74434944D01*
X199553146Y-74670293D01*
X199771512Y-74866817D01*
X199877770Y-74930000D01*
X199771512Y-74993183D01*
X199553146Y-75189707D01*
X199377316Y-75425056D01*
X199250778Y-75690186D01*
X199205042Y-75840974D01*
X199326183Y-76073000D01*
X200533000Y-76073000D01*
X200533000Y-73787000D01*
X200787000Y-73787000D01*
X200787000Y-76073000D01*
X203073000Y-76073000D01*
X203073000Y-73787000D01*
X203327000Y-73787000D01*
X203327000Y-76073000D01*
X204533817Y-76073000D01*
X204654958Y-75840974D01*
X204609222Y-75690186D01*
X204482684Y-75425056D01*
X204306854Y-75189707D01*
X204088488Y-74993183D01*
X203982230Y-74930000D01*
X204088488Y-74866817D01*
X204306854Y-74670293D01*
X204482684Y-74434944D01*
X204609222Y-74169814D01*
X204654958Y-74019026D01*
X218255042Y-74019026D01*
X218300778Y-74169814D01*
X218427316Y-74434944D01*
X218603146Y-74670293D01*
X218821512Y-74866817D01*
X218927770Y-74930000D01*
X218821512Y-74993183D01*
X218603146Y-75189707D01*
X218427316Y-75425056D01*
X218300778Y-75690186D01*
X218255042Y-75840974D01*
X218376183Y-76073000D01*
X219583000Y-76073000D01*
X219583000Y-73787000D01*
X219837000Y-73787000D01*
X219837000Y-76073000D01*
X222123000Y-76073000D01*
X222123000Y-73787000D01*
X222377000Y-73787000D01*
X222377000Y-76073000D01*
X223583817Y-76073000D01*
X223704958Y-75840974D01*
X223659222Y-75690186D01*
X223532684Y-75425056D01*
X223356854Y-75189707D01*
X223138488Y-74993183D01*
X223032230Y-74930000D01*
X223138488Y-74866817D01*
X223356854Y-74670293D01*
X223532684Y-74434944D01*
X223659222Y-74169814D01*
X223704958Y-74019026D01*
X237305042Y-74019026D01*
X237350778Y-74169814D01*
X237477316Y-74434944D01*
X237653146Y-74670293D01*
X237871512Y-74866817D01*
X237977770Y-74930000D01*
X237871512Y-74993183D01*
X237653146Y-75189707D01*
X237477316Y-75425056D01*
X237350778Y-75690186D01*
X237305042Y-75840974D01*
X237426183Y-76073000D01*
X238633000Y-76073000D01*
X238633000Y-73787000D01*
X238887000Y-73787000D01*
X238887000Y-76073000D01*
X241173000Y-76073000D01*
X241173000Y-73787000D01*
X241427000Y-73787000D01*
X241427000Y-76073000D01*
X242633817Y-76073000D01*
X242754958Y-75840974D01*
X242709222Y-75690186D01*
X242582684Y-75425056D01*
X242406854Y-75189707D01*
X242188488Y-74993183D01*
X242082230Y-74930000D01*
X242188488Y-74866817D01*
X242406854Y-74670293D01*
X242582684Y-74434944D01*
X242709222Y-74169814D01*
X242754958Y-74019026D01*
X242633817Y-73787000D01*
X241427000Y-73787000D01*
X241173000Y-73787000D01*
X238887000Y-73787000D01*
X238633000Y-73787000D01*
X237426183Y-73787000D01*
X237305042Y-74019026D01*
X223704958Y-74019026D01*
X223583817Y-73787000D01*
X222377000Y-73787000D01*
X222123000Y-73787000D01*
X219837000Y-73787000D01*
X219583000Y-73787000D01*
X218376183Y-73787000D01*
X218255042Y-74019026D01*
X204654958Y-74019026D01*
X204533817Y-73787000D01*
X203327000Y-73787000D01*
X203073000Y-73787000D01*
X200787000Y-73787000D01*
X200533000Y-73787000D01*
X199326183Y-73787000D01*
X199205042Y-74019026D01*
X185604958Y-74019026D01*
X185483817Y-73787000D01*
X184277000Y-73787000D01*
X184023000Y-73787000D01*
X181737000Y-73787000D01*
X181483000Y-73787000D01*
X180276183Y-73787000D01*
X180155042Y-74019026D01*
X166554958Y-74019026D01*
X166433817Y-73787000D01*
X165227000Y-73787000D01*
X164973000Y-73787000D01*
X162687000Y-73787000D01*
X162433000Y-73787000D01*
X161226183Y-73787000D01*
X161105042Y-74019026D01*
X147504958Y-74019026D01*
X147383817Y-73787000D01*
X146177000Y-73787000D01*
X145923000Y-73787000D01*
X143637000Y-73787000D01*
X143383000Y-73787000D01*
X142176183Y-73787000D01*
X142055042Y-74019026D01*
X128454958Y-74019026D01*
X128333817Y-73787000D01*
X127127000Y-73787000D01*
X126873000Y-73787000D01*
X124587000Y-73787000D01*
X124333000Y-73787000D01*
X123126183Y-73787000D01*
X123005042Y-74019026D01*
X109055959Y-74019026D01*
X108934818Y-73787000D01*
X107728001Y-73787000D01*
X107474001Y-73787000D01*
X105188001Y-73787000D01*
X104934001Y-73787000D01*
X103727184Y-73787000D01*
X103606043Y-74019026D01*
X91013409Y-74019026D01*
X91044902Y-73617176D01*
X90995334Y-73199549D01*
X90865243Y-72799617D01*
X90707214Y-72503962D01*
X90391653Y-72347952D01*
X89079605Y-73660000D01*
X88720395Y-73660000D01*
X87408347Y-72347952D01*
X87092786Y-72503962D01*
X86901980Y-72878745D01*
X86787956Y-73283551D01*
X86755098Y-73702824D01*
X80670000Y-73702824D01*
X80670000Y-72168347D01*
X87587952Y-72168347D01*
X88900000Y-73480395D01*
X90212048Y-72168347D01*
X90056038Y-71852786D01*
X89681255Y-71661980D01*
X89276449Y-71547956D01*
X88857176Y-71515098D01*
X88439549Y-71564666D01*
X88039617Y-71694757D01*
X87743962Y-71852786D01*
X87587952Y-72168347D01*
X80670000Y-72168347D01*
X80670000Y-68369721D01*
X86765000Y-68369721D01*
X86765000Y-68790279D01*
X86847047Y-69202756D01*
X87007988Y-69591302D01*
X87241637Y-69940983D01*
X87539017Y-70238363D01*
X87888698Y-70472012D01*
X88277244Y-70632953D01*
X88689721Y-70715000D01*
X89110279Y-70715000D01*
X89522756Y-70632953D01*
X89911302Y-70472012D01*
X90260983Y-70238363D01*
X90558363Y-69940983D01*
X90792012Y-69591302D01*
X90844328Y-69465000D01*
X102503422Y-69465000D01*
X103559329Y-70520908D01*
X103559329Y-71983600D01*
X103571589Y-72108082D01*
X103607899Y-72227780D01*
X103666864Y-72338094D01*
X103746216Y-72434785D01*
X103842907Y-72514137D01*
X103953221Y-72573102D01*
X104017575Y-72592624D01*
X103954147Y-72649707D01*
X103778317Y-72885056D01*
X103651779Y-73150186D01*
X103606043Y-73300974D01*
X103727184Y-73533000D01*
X104934001Y-73533000D01*
X104934001Y-73513000D01*
X105188001Y-73513000D01*
X105188001Y-73533000D01*
X107474001Y-73533000D01*
X107474001Y-73513000D01*
X107728001Y-73513000D01*
X107728001Y-73533000D01*
X108934818Y-73533000D01*
X109055959Y-73300974D01*
X109010223Y-73150186D01*
X108883685Y-72885056D01*
X108707855Y-72649707D01*
X108489489Y-72453183D01*
X108393091Y-72395863D01*
X108437607Y-72372069D01*
X108665798Y-72184797D01*
X108813354Y-72005000D01*
X122960436Y-72005000D01*
X122970588Y-72108082D01*
X123006898Y-72227780D01*
X123065863Y-72338094D01*
X123145215Y-72434785D01*
X123241906Y-72514137D01*
X123352220Y-72573102D01*
X123416574Y-72592624D01*
X123353146Y-72649707D01*
X123177316Y-72885056D01*
X123050778Y-73150186D01*
X123005042Y-73300974D01*
X123126183Y-73533000D01*
X124333000Y-73533000D01*
X124333000Y-73513000D01*
X124587000Y-73513000D01*
X124587000Y-73533000D01*
X126873000Y-73533000D01*
X126873000Y-73513000D01*
X127127000Y-73513000D01*
X127127000Y-73533000D01*
X128333817Y-73533000D01*
X128454958Y-73300974D01*
X128409222Y-73150186D01*
X128282684Y-72885056D01*
X128106854Y-72649707D01*
X127888488Y-72453183D01*
X127792090Y-72395863D01*
X127836606Y-72372069D01*
X128064797Y-72184797D01*
X128212353Y-72005000D01*
X142010436Y-72005000D01*
X142020588Y-72108082D01*
X142056898Y-72227780D01*
X142115863Y-72338094D01*
X142195215Y-72434785D01*
X142291906Y-72514137D01*
X142402220Y-72573102D01*
X142466574Y-72592624D01*
X142403146Y-72649707D01*
X142227316Y-72885056D01*
X142100778Y-73150186D01*
X142055042Y-73300974D01*
X142176183Y-73533000D01*
X143383000Y-73533000D01*
X143383000Y-73513000D01*
X143637000Y-73513000D01*
X143637000Y-73533000D01*
X145923000Y-73533000D01*
X145923000Y-73513000D01*
X146177000Y-73513000D01*
X146177000Y-73533000D01*
X147383817Y-73533000D01*
X147504958Y-73300974D01*
X147459222Y-73150186D01*
X147332684Y-72885056D01*
X147156854Y-72649707D01*
X146938488Y-72453183D01*
X146842090Y-72395863D01*
X146886606Y-72372069D01*
X147114797Y-72184797D01*
X147262353Y-72005000D01*
X161060436Y-72005000D01*
X161070588Y-72108082D01*
X161106898Y-72227780D01*
X161165863Y-72338094D01*
X161245215Y-72434785D01*
X161341906Y-72514137D01*
X161452220Y-72573102D01*
X161516574Y-72592624D01*
X161453146Y-72649707D01*
X161277316Y-72885056D01*
X161150778Y-73150186D01*
X161105042Y-73300974D01*
X161226183Y-73533000D01*
X162433000Y-73533000D01*
X162433000Y-73513000D01*
X162687000Y-73513000D01*
X162687000Y-73533000D01*
X164973000Y-73533000D01*
X164973000Y-73513000D01*
X165227000Y-73513000D01*
X165227000Y-73533000D01*
X166433817Y-73533000D01*
X166554958Y-73300974D01*
X166509222Y-73150186D01*
X166382684Y-72885056D01*
X166206854Y-72649707D01*
X165988488Y-72453183D01*
X165892090Y-72395863D01*
X165936606Y-72372069D01*
X166164797Y-72184797D01*
X166312353Y-72005000D01*
X180110436Y-72005000D01*
X180120588Y-72108082D01*
X180156898Y-72227780D01*
X180215863Y-72338094D01*
X180295215Y-72434785D01*
X180391906Y-72514137D01*
X180502220Y-72573102D01*
X180566574Y-72592624D01*
X180503146Y-72649707D01*
X180327316Y-72885056D01*
X180200778Y-73150186D01*
X180155042Y-73300974D01*
X180276183Y-73533000D01*
X181483000Y-73533000D01*
X181483000Y-73513000D01*
X181737000Y-73513000D01*
X181737000Y-73533000D01*
X184023000Y-73533000D01*
X184023000Y-73513000D01*
X184277000Y-73513000D01*
X184277000Y-73533000D01*
X185483817Y-73533000D01*
X185604958Y-73300974D01*
X185559222Y-73150186D01*
X185432684Y-72885056D01*
X185256854Y-72649707D01*
X185038488Y-72453183D01*
X184942090Y-72395863D01*
X184986606Y-72372069D01*
X185214797Y-72184797D01*
X185362353Y-72005000D01*
X199160436Y-72005000D01*
X199170588Y-72108082D01*
X199206898Y-72227780D01*
X199265863Y-72338094D01*
X199345215Y-72434785D01*
X199441906Y-72514137D01*
X199552220Y-72573102D01*
X199616574Y-72592624D01*
X199553146Y-72649707D01*
X199377316Y-72885056D01*
X199250778Y-73150186D01*
X199205042Y-73300974D01*
X199326183Y-73533000D01*
X200533000Y-73533000D01*
X200533000Y-73513000D01*
X200787000Y-73513000D01*
X200787000Y-73533000D01*
X203073000Y-73533000D01*
X203073000Y-73513000D01*
X203327000Y-73513000D01*
X203327000Y-73533000D01*
X204533817Y-73533000D01*
X204654958Y-73300974D01*
X204609222Y-73150186D01*
X204482684Y-72885056D01*
X204306854Y-72649707D01*
X204088488Y-72453183D01*
X203992090Y-72395863D01*
X204036606Y-72372069D01*
X204264797Y-72184797D01*
X204412353Y-72005000D01*
X218210436Y-72005000D01*
X218220588Y-72108082D01*
X218256898Y-72227780D01*
X218315863Y-72338094D01*
X218395215Y-72434785D01*
X218491906Y-72514137D01*
X218602220Y-72573102D01*
X218666574Y-72592624D01*
X218603146Y-72649707D01*
X218427316Y-72885056D01*
X218300778Y-73150186D01*
X218255042Y-73300974D01*
X218376183Y-73533000D01*
X219583000Y-73533000D01*
X219583000Y-73513000D01*
X219837000Y-73513000D01*
X219837000Y-73533000D01*
X222123000Y-73533000D01*
X222123000Y-73513000D01*
X222377000Y-73513000D01*
X222377000Y-73533000D01*
X223583817Y-73533000D01*
X223704958Y-73300974D01*
X223659222Y-73150186D01*
X223532684Y-72885056D01*
X223356854Y-72649707D01*
X223138488Y-72453183D01*
X223042090Y-72395863D01*
X223086606Y-72372069D01*
X223314797Y-72184797D01*
X223462353Y-72005000D01*
X237260436Y-72005000D01*
X237270588Y-72108082D01*
X237306898Y-72227780D01*
X237365863Y-72338094D01*
X237445215Y-72434785D01*
X237541906Y-72514137D01*
X237652220Y-72573102D01*
X237716574Y-72592624D01*
X237653146Y-72649707D01*
X237477316Y-72885056D01*
X237350778Y-73150186D01*
X237305042Y-73300974D01*
X237426183Y-73533000D01*
X238633000Y-73533000D01*
X238633000Y-73513000D01*
X238887000Y-73513000D01*
X238887000Y-73533000D01*
X241173000Y-73533000D01*
X241173000Y-73513000D01*
X241427000Y-73513000D01*
X241427000Y-73533000D01*
X242633817Y-73533000D01*
X242754958Y-73300974D01*
X242709222Y-73150186D01*
X242582684Y-72885056D01*
X242406854Y-72649707D01*
X242188488Y-72453183D01*
X242092090Y-72395863D01*
X242136606Y-72372069D01*
X242364797Y-72184797D01*
X242512353Y-72005000D01*
X261359910Y-72005000D01*
X261285956Y-72267551D01*
X261253098Y-72686824D01*
X261302666Y-73104451D01*
X261432757Y-73504383D01*
X261590786Y-73800038D01*
X261906347Y-73956048D01*
X263218395Y-72644000D01*
X263577605Y-72644000D01*
X264889653Y-73956048D01*
X265205214Y-73800038D01*
X265396020Y-73425255D01*
X265510044Y-73020449D01*
X265542902Y-72601176D01*
X265493334Y-72183549D01*
X265363243Y-71783617D01*
X265205214Y-71487962D01*
X264889653Y-71331952D01*
X263577605Y-72644000D01*
X263218395Y-72644000D01*
X263204253Y-72629858D01*
X263383858Y-72450253D01*
X263398000Y-72464395D01*
X264710048Y-71152347D01*
X264554038Y-70836786D01*
X264179255Y-70645980D01*
X263774449Y-70531956D01*
X263688369Y-70525210D01*
X263993050Y-70220529D01*
X264026817Y-70192817D01*
X264137411Y-70058059D01*
X264219589Y-69904313D01*
X264270195Y-69737490D01*
X264273683Y-69702072D01*
X264898000Y-69702072D01*
X265022482Y-69689812D01*
X265142180Y-69653502D01*
X265252494Y-69594537D01*
X265349185Y-69515185D01*
X265428537Y-69418494D01*
X265487502Y-69308180D01*
X265523812Y-69188482D01*
X265536072Y-69064000D01*
X265536072Y-66064000D01*
X265523812Y-65939518D01*
X265487502Y-65819820D01*
X265428537Y-65709506D01*
X265349185Y-65612815D01*
X265252494Y-65533463D01*
X265142180Y-65474498D01*
X265022482Y-65438188D01*
X264898000Y-65425928D01*
X261898000Y-65425928D01*
X261773518Y-65438188D01*
X261653820Y-65474498D01*
X261543506Y-65533463D01*
X261446815Y-65612815D01*
X261367463Y-65709506D01*
X261308498Y-65819820D01*
X261272188Y-65939518D01*
X261259928Y-66064000D01*
X261259928Y-69064000D01*
X261272188Y-69188482D01*
X261308498Y-69308180D01*
X261367463Y-69418494D01*
X261446815Y-69515185D01*
X261543506Y-69594537D01*
X261653820Y-69653502D01*
X261773518Y-69689812D01*
X261898000Y-69702072D01*
X262008349Y-69702072D01*
X261475422Y-70235000D01*
X257808000Y-70235000D01*
X257808000Y-69102072D01*
X257948000Y-69102072D01*
X258072482Y-69089812D01*
X258192180Y-69053502D01*
X258302494Y-68994537D01*
X258399185Y-68915185D01*
X258478537Y-68818494D01*
X258537502Y-68708180D01*
X258573812Y-68588482D01*
X258586072Y-68464000D01*
X258586072Y-66664000D01*
X258573812Y-66539518D01*
X258537502Y-66419820D01*
X258478537Y-66309506D01*
X258399185Y-66212815D01*
X258302494Y-66133463D01*
X258192180Y-66074498D01*
X258072482Y-66038188D01*
X257948000Y-66025928D01*
X256148000Y-66025928D01*
X256023518Y-66038188D01*
X255903820Y-66074498D01*
X255793506Y-66133463D01*
X255696815Y-66212815D01*
X255617463Y-66309506D01*
X255558498Y-66419820D01*
X255552944Y-66438127D01*
X255486505Y-66371688D01*
X255235095Y-66203701D01*
X254955743Y-66087989D01*
X254659184Y-66029000D01*
X254356816Y-66029000D01*
X254102160Y-66079654D01*
X253994776Y-65991526D01*
X253862747Y-65920954D01*
X253719486Y-65877497D01*
X253607833Y-65866500D01*
X253607822Y-65866500D01*
X253570500Y-65862824D01*
X253533178Y-65866500D01*
X252627845Y-65866500D01*
X252539792Y-65759208D01*
X252406164Y-65649542D01*
X252253709Y-65568053D01*
X252088285Y-65517872D01*
X251916250Y-65500928D01*
X251003750Y-65500928D01*
X250831715Y-65517872D01*
X250666291Y-65568053D01*
X250513836Y-65649542D01*
X250380208Y-65759208D01*
X250270542Y-65892836D01*
X250189053Y-66045291D01*
X250138872Y-66210715D01*
X250121928Y-66382750D01*
X250121928Y-66870250D01*
X250138872Y-67042285D01*
X250189053Y-67207709D01*
X250270542Y-67360164D01*
X250380208Y-67493792D01*
X250386564Y-67499008D01*
X250308815Y-67562815D01*
X250229463Y-67659506D01*
X250170498Y-67769820D01*
X250134188Y-67889518D01*
X250121928Y-68014000D01*
X250125000Y-68215750D01*
X250283750Y-68374500D01*
X251333000Y-68374500D01*
X251333000Y-68354500D01*
X251587000Y-68354500D01*
X251587000Y-68374500D01*
X252636250Y-68374500D01*
X252795000Y-68215750D01*
X252798072Y-68014000D01*
X252785812Y-67889518D01*
X252749502Y-67769820D01*
X252690537Y-67659506D01*
X252611185Y-67562815D01*
X252533436Y-67499008D01*
X252539792Y-67493792D01*
X252627845Y-67386500D01*
X252978235Y-67386500D01*
X252973000Y-67412816D01*
X252973000Y-67715184D01*
X253031989Y-68011743D01*
X253147701Y-68291095D01*
X253315688Y-68542505D01*
X253529495Y-68756312D01*
X253780905Y-68924299D01*
X254060257Y-69040011D01*
X254356816Y-69099000D01*
X254659184Y-69099000D01*
X254955743Y-69040011D01*
X255235095Y-68924299D01*
X255486505Y-68756312D01*
X255552944Y-68689873D01*
X255558498Y-68708180D01*
X255617463Y-68818494D01*
X255696815Y-68915185D01*
X255793506Y-68994537D01*
X255903820Y-69053502D01*
X256023518Y-69089812D01*
X256148000Y-69102072D01*
X256288000Y-69102072D01*
X256288001Y-70235000D01*
X242512353Y-70235000D01*
X242364797Y-70055203D01*
X242136606Y-69867931D01*
X241876264Y-69728775D01*
X241593777Y-69643084D01*
X241373619Y-69621400D01*
X241226381Y-69621400D01*
X241006223Y-69643084D01*
X240723736Y-69728775D01*
X240463394Y-69867931D01*
X240235203Y-70055203D01*
X240228586Y-70063265D01*
X240213102Y-70012220D01*
X240154137Y-69901906D01*
X240074785Y-69805215D01*
X239978094Y-69725863D01*
X239867780Y-69666898D01*
X239748082Y-69630588D01*
X239623600Y-69618328D01*
X237896400Y-69618328D01*
X237771918Y-69630588D01*
X237652220Y-69666898D01*
X237541906Y-69725863D01*
X237445215Y-69805215D01*
X237365863Y-69901906D01*
X237306898Y-70012220D01*
X237270588Y-70131918D01*
X237260436Y-70235000D01*
X223462353Y-70235000D01*
X223314797Y-70055203D01*
X223086606Y-69867931D01*
X222826264Y-69728775D01*
X222543777Y-69643084D01*
X222323619Y-69621400D01*
X222176381Y-69621400D01*
X221956223Y-69643084D01*
X221673736Y-69728775D01*
X221413394Y-69867931D01*
X221185203Y-70055203D01*
X221178586Y-70063265D01*
X221163102Y-70012220D01*
X221104137Y-69901906D01*
X221024785Y-69805215D01*
X220928094Y-69725863D01*
X220817780Y-69666898D01*
X220698082Y-69630588D01*
X220573600Y-69618328D01*
X218846400Y-69618328D01*
X218721918Y-69630588D01*
X218602220Y-69666898D01*
X218491906Y-69725863D01*
X218395215Y-69805215D01*
X218315863Y-69901906D01*
X218256898Y-70012220D01*
X218220588Y-70131918D01*
X218210436Y-70235000D01*
X204412353Y-70235000D01*
X204264797Y-70055203D01*
X204036606Y-69867931D01*
X203776264Y-69728775D01*
X203493777Y-69643084D01*
X203273619Y-69621400D01*
X203126381Y-69621400D01*
X202906223Y-69643084D01*
X202623736Y-69728775D01*
X202363394Y-69867931D01*
X202135203Y-70055203D01*
X202128586Y-70063265D01*
X202113102Y-70012220D01*
X202054137Y-69901906D01*
X201974785Y-69805215D01*
X201878094Y-69725863D01*
X201767780Y-69666898D01*
X201648082Y-69630588D01*
X201523600Y-69618328D01*
X199796400Y-69618328D01*
X199671918Y-69630588D01*
X199552220Y-69666898D01*
X199441906Y-69725863D01*
X199345215Y-69805215D01*
X199265863Y-69901906D01*
X199206898Y-70012220D01*
X199170588Y-70131918D01*
X199160436Y-70235000D01*
X185362353Y-70235000D01*
X185214797Y-70055203D01*
X184986606Y-69867931D01*
X184726264Y-69728775D01*
X184443777Y-69643084D01*
X184223619Y-69621400D01*
X184076381Y-69621400D01*
X183856223Y-69643084D01*
X183573736Y-69728775D01*
X183313394Y-69867931D01*
X183085203Y-70055203D01*
X183078586Y-70063265D01*
X183063102Y-70012220D01*
X183004137Y-69901906D01*
X182924785Y-69805215D01*
X182828094Y-69725863D01*
X182717780Y-69666898D01*
X182598082Y-69630588D01*
X182473600Y-69618328D01*
X180746400Y-69618328D01*
X180621918Y-69630588D01*
X180502220Y-69666898D01*
X180391906Y-69725863D01*
X180295215Y-69805215D01*
X180215863Y-69901906D01*
X180156898Y-70012220D01*
X180120588Y-70131918D01*
X180110436Y-70235000D01*
X166312353Y-70235000D01*
X166164797Y-70055203D01*
X165936606Y-69867931D01*
X165676264Y-69728775D01*
X165393777Y-69643084D01*
X165173619Y-69621400D01*
X165026381Y-69621400D01*
X164806223Y-69643084D01*
X164523736Y-69728775D01*
X164263394Y-69867931D01*
X164035203Y-70055203D01*
X164028586Y-70063265D01*
X164013102Y-70012220D01*
X163954137Y-69901906D01*
X163874785Y-69805215D01*
X163778094Y-69725863D01*
X163667780Y-69666898D01*
X163548082Y-69630588D01*
X163423600Y-69618328D01*
X161696400Y-69618328D01*
X161571918Y-69630588D01*
X161452220Y-69666898D01*
X161341906Y-69725863D01*
X161245215Y-69805215D01*
X161165863Y-69901906D01*
X161106898Y-70012220D01*
X161070588Y-70131918D01*
X161060436Y-70235000D01*
X147262353Y-70235000D01*
X147114797Y-70055203D01*
X146886606Y-69867931D01*
X146626264Y-69728775D01*
X146343777Y-69643084D01*
X146123619Y-69621400D01*
X145976381Y-69621400D01*
X145756223Y-69643084D01*
X145473736Y-69728775D01*
X145213394Y-69867931D01*
X144985203Y-70055203D01*
X144978586Y-70063265D01*
X144963102Y-70012220D01*
X144904137Y-69901906D01*
X144824785Y-69805215D01*
X144728094Y-69725863D01*
X144617780Y-69666898D01*
X144498082Y-69630588D01*
X144373600Y-69618328D01*
X142646400Y-69618328D01*
X142521918Y-69630588D01*
X142402220Y-69666898D01*
X142291906Y-69725863D01*
X142195215Y-69805215D01*
X142115863Y-69901906D01*
X142056898Y-70012220D01*
X142020588Y-70131918D01*
X142010436Y-70235000D01*
X128212353Y-70235000D01*
X128064797Y-70055203D01*
X127836606Y-69867931D01*
X127576264Y-69728775D01*
X127293777Y-69643084D01*
X127073619Y-69621400D01*
X126926381Y-69621400D01*
X126706223Y-69643084D01*
X126423736Y-69728775D01*
X126163394Y-69867931D01*
X125935203Y-70055203D01*
X125928586Y-70063265D01*
X125913102Y-70012220D01*
X125854137Y-69901906D01*
X125774785Y-69805215D01*
X125678094Y-69725863D01*
X125567780Y-69666898D01*
X125448082Y-69630588D01*
X125323600Y-69618328D01*
X123596400Y-69618328D01*
X123471918Y-69630588D01*
X123352220Y-69666898D01*
X123241906Y-69725863D01*
X123145215Y-69805215D01*
X123065863Y-69901906D01*
X123006898Y-70012220D01*
X122970588Y-70131918D01*
X122960436Y-70235000D01*
X108813354Y-70235000D01*
X108665798Y-70055203D01*
X108437607Y-69867931D01*
X108177265Y-69728775D01*
X107894778Y-69643084D01*
X107674620Y-69621400D01*
X107527382Y-69621400D01*
X107307224Y-69643084D01*
X107024737Y-69728775D01*
X106764395Y-69867931D01*
X106536204Y-70055203D01*
X106529587Y-70063265D01*
X106514103Y-70012220D01*
X106455138Y-69901906D01*
X106375786Y-69805215D01*
X106279095Y-69725863D01*
X106168781Y-69666898D01*
X106049083Y-69630588D01*
X105924601Y-69618328D01*
X105159907Y-69618328D01*
X104530579Y-68989000D01*
X250121928Y-68989000D01*
X250134188Y-69113482D01*
X250170498Y-69233180D01*
X250229463Y-69343494D01*
X250308815Y-69440185D01*
X250405506Y-69519537D01*
X250515820Y-69578502D01*
X250635518Y-69614812D01*
X250760000Y-69627072D01*
X251174250Y-69624000D01*
X251333000Y-69465250D01*
X251333000Y-68628500D01*
X251587000Y-68628500D01*
X251587000Y-69465250D01*
X251745750Y-69624000D01*
X252160000Y-69627072D01*
X252284482Y-69614812D01*
X252404180Y-69578502D01*
X252514494Y-69519537D01*
X252611185Y-69440185D01*
X252690537Y-69343494D01*
X252749502Y-69233180D01*
X252785812Y-69113482D01*
X252798072Y-68989000D01*
X252795000Y-68787250D01*
X252636250Y-68628500D01*
X251587000Y-68628500D01*
X251333000Y-68628500D01*
X250283750Y-68628500D01*
X250125000Y-68787250D01*
X250121928Y-68989000D01*
X104530579Y-68989000D01*
X103526534Y-67984956D01*
X103498817Y-67951183D01*
X103364059Y-67840589D01*
X103210313Y-67758411D01*
X103043490Y-67707805D01*
X102913477Y-67695000D01*
X102913469Y-67695000D01*
X102870000Y-67690719D01*
X102826531Y-67695000D01*
X90844328Y-67695000D01*
X90792012Y-67568698D01*
X90558363Y-67219017D01*
X90260983Y-66921637D01*
X89911302Y-66687988D01*
X89522756Y-66527047D01*
X89110279Y-66445000D01*
X88689721Y-66445000D01*
X88277244Y-66527047D01*
X87888698Y-66687988D01*
X87539017Y-66921637D01*
X87241637Y-67219017D01*
X87007988Y-67568698D01*
X86847047Y-67957244D01*
X86765000Y-68369721D01*
X80670000Y-68369721D01*
X80670000Y-64160000D01*
X268580000Y-64160000D01*
X268580001Y-95860000D01*
X268580001Y-95860000D01*
G37*
X268580001Y-95860000D02*
X80670000Y-95860000D01*
X80670000Y-92940000D01*
X81681928Y-92940000D01*
X81694188Y-93064482D01*
X81730498Y-93184180D01*
X81789463Y-93294494D01*
X81868815Y-93391185D01*
X81965506Y-93470537D01*
X82075820Y-93529502D01*
X82195518Y-93565812D01*
X82320000Y-93578072D01*
X83534250Y-93575000D01*
X83693000Y-93416250D01*
X83693000Y-91567000D01*
X83947000Y-91567000D01*
X83947000Y-93416250D01*
X84105750Y-93575000D01*
X85320000Y-93578072D01*
X85444482Y-93565812D01*
X85564180Y-93529502D01*
X85674494Y-93470537D01*
X85771185Y-93391185D01*
X85850537Y-93294494D01*
X85909502Y-93184180D01*
X85945812Y-93064482D01*
X85958072Y-92940000D01*
X85955000Y-91725750D01*
X85796250Y-91567000D01*
X83947000Y-91567000D01*
X83693000Y-91567000D01*
X81843750Y-91567000D01*
X81685000Y-91725750D01*
X81681928Y-92940000D01*
X80670000Y-92940000D01*
X80670000Y-89940000D01*
X81681928Y-89940000D01*
X81685000Y-91154250D01*
X81843750Y-91313000D01*
X83693000Y-91313000D01*
X83693000Y-89463750D01*
X83947000Y-89463750D01*
X83947000Y-91313000D01*
X85796250Y-91313000D01*
X85955000Y-91154250D01*
X85958072Y-89940000D01*
X85945812Y-89815518D01*
X85909502Y-89695820D01*
X85850537Y-89585506D01*
X85771185Y-89488815D01*
X85674494Y-89409463D01*
X85564180Y-89350498D01*
X85444482Y-89314188D01*
X85320000Y-89301928D01*
X84105750Y-89305000D01*
X83947000Y-89463750D01*
X83693000Y-89463750D01*
X83534250Y-89305000D01*
X82320000Y-89301928D01*
X82195518Y-89314188D01*
X82075820Y-89350498D01*
X81965506Y-89409463D01*
X81868815Y-89488815D01*
X81789463Y-89585506D01*
X81730498Y-89695820D01*
X81694188Y-89815518D01*
X81681928Y-89940000D01*
X80670000Y-89940000D01*
X80670000Y-82320000D01*
X86761928Y-82320000D01*
X86761928Y-85320000D01*
X86774188Y-85444482D01*
X86810498Y-85564180D01*
X86869463Y-85674494D01*
X86948815Y-85771185D01*
X87045506Y-85850537D01*
X87155820Y-85909502D01*
X87275518Y-85945812D01*
X87400000Y-85958072D01*
X90400000Y-85958072D01*
X90524482Y-85945812D01*
X90644180Y-85909502D01*
X90754494Y-85850537D01*
X90851185Y-85771185D01*
X90930537Y-85674494D01*
X90989502Y-85564180D01*
X91005937Y-85510000D01*
X97571928Y-85510000D01*
X97575000Y-86074250D01*
X97733750Y-86233000D01*
X98933000Y-86233000D01*
X98933000Y-85033750D01*
X99187000Y-85033750D01*
X99187000Y-86233000D01*
X100386250Y-86233000D01*
X100545000Y-86074250D01*
X100548072Y-85510000D01*
X100535812Y-85385518D01*
X100499502Y-85265820D01*
X100440537Y-85155506D01*
X100361185Y-85058815D01*
X100264494Y-84979463D01*
X100154180Y-84920498D01*
X100034482Y-84884188D01*
X99910000Y-84871928D01*
X99345750Y-84875000D01*
X99187000Y-85033750D01*
X98933000Y-85033750D01*
X98774250Y-84875000D01*
X98210000Y-84871928D01*
X98085518Y-84884188D01*
X97965820Y-84920498D01*
X97855506Y-84979463D01*
X97758815Y-85058815D01*
X97679463Y-85155506D01*
X97620498Y-85265820D01*
X97584188Y-85385518D01*
X97571928Y-85510000D01*
X91005937Y-85510000D01*
X91025812Y-85444482D01*
X91038072Y-85320000D01*
X91038072Y-84705000D01*
X103848648Y-84705000D01*
X103996204Y-84884797D01*
X104224395Y-85072069D01*
X104257941Y-85090000D01*
X104224395Y-85107931D01*
X103996204Y-85295203D01*
X103808932Y-85523394D01*
X103669776Y-85783736D01*
X103584085Y-86066223D01*
X103555150Y-86360000D01*
X103584085Y-86653777D01*
X103631410Y-86809788D01*
X102301199Y-88140000D01*
X100337595Y-88140000D01*
X100300706Y-88070986D01*
X100115134Y-87844866D01*
X100085313Y-87820393D01*
X100154180Y-87799502D01*
X100264494Y-87740537D01*
X100361185Y-87661185D01*
X100440537Y-87564494D01*
X100499502Y-87454180D01*
X100535812Y-87334482D01*
X100548072Y-87210000D01*
X100545000Y-86645750D01*
X100386250Y-86487000D01*
X99187000Y-86487000D01*
X99187000Y-86507000D01*
X98933000Y-86507000D01*
X98933000Y-86487000D01*
X97733750Y-86487000D01*
X97575000Y-86645750D01*
X97571928Y-87210000D01*
X97584188Y-87334482D01*
X97620498Y-87454180D01*
X97679463Y-87564494D01*
X97758815Y-87661185D01*
X97855506Y-87740537D01*
X97965820Y-87799502D01*
X98034687Y-87820393D01*
X98004866Y-87844866D01*
X97819294Y-88070986D01*
X97782405Y-88140000D01*
X93856331Y-88140000D01*
X93818998Y-88136323D01*
X93781665Y-88140000D01*
X93670012Y-88150997D01*
X93526751Y-88194454D01*
X93394722Y-88265026D01*
X93278997Y-88359999D01*
X93255199Y-88388997D01*
X92464196Y-89180001D01*
X90437322Y-89180001D01*
X90399999Y-89176325D01*
X90362676Y-89180001D01*
X90362666Y-89180001D01*
X90251013Y-89190998D01*
X90107752Y-89234455D01*
X89975722Y-89305027D01*
X89943458Y-89331506D01*
X89859998Y-89400000D01*
X89836200Y-89428998D01*
X89774058Y-89491140D01*
X89522756Y-89387047D01*
X89110279Y-89305000D01*
X88689721Y-89305000D01*
X88277244Y-89387047D01*
X87888698Y-89547988D01*
X87539017Y-89781637D01*
X87241637Y-90079017D01*
X87007988Y-90428698D01*
X86847047Y-90817244D01*
X86765000Y-91229721D01*
X86765000Y-91650279D01*
X86847047Y-92062756D01*
X87007988Y-92451302D01*
X87241637Y-92800983D01*
X87539017Y-93098363D01*
X87888698Y-93332012D01*
X88277244Y-93492953D01*
X88689721Y-93575000D01*
X89110279Y-93575000D01*
X89522756Y-93492953D01*
X89911302Y-93332012D01*
X90260983Y-93098363D01*
X90558363Y-92800983D01*
X90792012Y-92451302D01*
X90952953Y-92062756D01*
X91035000Y-91650279D01*
X91035000Y-91229721D01*
X90952953Y-90817244D01*
X90904389Y-90700001D01*
X91975611Y-90700001D01*
X91927047Y-90817244D01*
X91845000Y-91229721D01*
X91845000Y-91650279D01*
X91927047Y-92062756D01*
X92087988Y-92451302D01*
X92321637Y-92800983D01*
X92619017Y-93098363D01*
X92968698Y-93332012D01*
X93357244Y-93492953D01*
X93769721Y-93575000D01*
X94190279Y-93575000D01*
X94602756Y-93492953D01*
X94991302Y-93332012D01*
X95340983Y-93098363D01*
X95638363Y-92800983D01*
X95872012Y-92451302D01*
X95976105Y-92200000D01*
X97782405Y-92200000D01*
X97819294Y-92269014D01*
X98004866Y-92495134D01*
X98230986Y-92680706D01*
X98488966Y-92818599D01*
X98768889Y-92903513D01*
X98987050Y-92925000D01*
X99132950Y-92925000D01*
X99351111Y-92903513D01*
X99631034Y-92818599D01*
X99889014Y-92680706D01*
X100115134Y-92495134D01*
X100300706Y-92269014D01*
X100337595Y-92200000D01*
X102578678Y-92200000D01*
X102616000Y-92203676D01*
X102653322Y-92200000D01*
X102653333Y-92200000D01*
X102764986Y-92189003D01*
X102908247Y-92145546D01*
X103040276Y-92074974D01*
X103156001Y-91980001D01*
X103179804Y-91950997D01*
X104756991Y-90373812D01*
X104767224Y-90376916D01*
X104987382Y-90398600D01*
X105134620Y-90398600D01*
X105354778Y-90376916D01*
X105637265Y-90291225D01*
X105897607Y-90152069D01*
X106125798Y-89964797D01*
X106313070Y-89736606D01*
X106331001Y-89703060D01*
X106348932Y-89736606D01*
X106536204Y-89964797D01*
X106764395Y-90152069D01*
X107024737Y-90291225D01*
X107307224Y-90376916D01*
X107527382Y-90398600D01*
X107674620Y-90398600D01*
X107894778Y-90376916D01*
X108177265Y-90291225D01*
X108437607Y-90152069D01*
X108665798Y-89964797D01*
X108853070Y-89736606D01*
X108894017Y-89660000D01*
X123166984Y-89660000D01*
X123207931Y-89736606D01*
X123395203Y-89964797D01*
X123623394Y-90152069D01*
X123883736Y-90291225D01*
X124166223Y-90376916D01*
X124386381Y-90398600D01*
X124533619Y-90398600D01*
X124753777Y-90376916D01*
X125036264Y-90291225D01*
X125296606Y-90152069D01*
X125524797Y-89964797D01*
X125712069Y-89736606D01*
X125730000Y-89703060D01*
X125747931Y-89736606D01*
X125935203Y-89964797D01*
X126163394Y-90152069D01*
X126423736Y-90291225D01*
X126706223Y-90376916D01*
X126926381Y-90398600D01*
X127073619Y-90398600D01*
X127293777Y-90376916D01*
X127576264Y-90291225D01*
X127836606Y-90152069D01*
X128064797Y-89964797D01*
X128252069Y-89736606D01*
X128293016Y-89660000D01*
X142216984Y-89660000D01*
X142257931Y-89736606D01*
X142445203Y-89964797D01*
X142673394Y-90152069D01*
X142933736Y-90291225D01*
X143216223Y-90376916D01*
X143436381Y-90398600D01*
X143583619Y-90398600D01*
X143803777Y-90376916D01*
X144086264Y-90291225D01*
X144346606Y-90152069D01*
X144574797Y-89964797D01*
X144762069Y-89736606D01*
X144780000Y-89703060D01*
X144797931Y-89736606D01*
X144985203Y-89964797D01*
X145213394Y-90152069D01*
X145473736Y-90291225D01*
X145756223Y-90376916D01*
X145976381Y-90398600D01*
X146123619Y-90398600D01*
X146343777Y-90376916D01*
X146626264Y-90291225D01*
X146886606Y-90152069D01*
X147114797Y-89964797D01*
X147302069Y-89736606D01*
X147343016Y-89660000D01*
X161266984Y-89660000D01*
X161307931Y-89736606D01*
X161495203Y-89964797D01*
X161723394Y-90152069D01*
X161983736Y-90291225D01*
X162266223Y-90376916D01*
X162486381Y-90398600D01*
X162633619Y-90398600D01*
X162853777Y-90376916D01*
X163136264Y-90291225D01*
X163396606Y-90152069D01*
X163624797Y-89964797D01*
X163812069Y-89736606D01*
X163830000Y-89703060D01*
X163847931Y-89736606D01*
X164035203Y-89964797D01*
X164263394Y-90152069D01*
X164523736Y-90291225D01*
X164806223Y-90376916D01*
X165026381Y-90398600D01*
X165173619Y-90398600D01*
X165393777Y-90376916D01*
X165676264Y-90291225D01*
X165936606Y-90152069D01*
X166164797Y-89964797D01*
X166352069Y-89736606D01*
X166393016Y-89660000D01*
X180316984Y-89660000D01*
X180357931Y-89736606D01*
X180545203Y-89964797D01*
X180773394Y-90152069D01*
X181033736Y-90291225D01*
X181316223Y-90376916D01*
X181536381Y-90398600D01*
X181683619Y-90398600D01*
X181903777Y-90376916D01*
X182186264Y-90291225D01*
X182446606Y-90152069D01*
X182674797Y-89964797D01*
X182862069Y-89736606D01*
X182880000Y-89703060D01*
X182897931Y-89736606D01*
X183085203Y-89964797D01*
X183313394Y-90152069D01*
X183573736Y-90291225D01*
X183856223Y-90376916D01*
X184076381Y-90398600D01*
X184223619Y-90398600D01*
X184443777Y-90376916D01*
X184726264Y-90291225D01*
X184986606Y-90152069D01*
X185214797Y-89964797D01*
X185402069Y-89736606D01*
X185443016Y-89660000D01*
X199366984Y-89660000D01*
X199407931Y-89736606D01*
X199595203Y-89964797D01*
X199823394Y-90152069D01*
X200083736Y-90291225D01*
X200366223Y-90376916D01*
X200586381Y-90398600D01*
X200733619Y-90398600D01*
X200953777Y-90376916D01*
X201236264Y-90291225D01*
X201496606Y-90152069D01*
X201724797Y-89964797D01*
X201912069Y-89736606D01*
X201930000Y-89703060D01*
X201947931Y-89736606D01*
X202135203Y-89964797D01*
X202363394Y-90152069D01*
X202623736Y-90291225D01*
X202906223Y-90376916D01*
X203126381Y-90398600D01*
X203273619Y-90398600D01*
X203493777Y-90376916D01*
X203776264Y-90291225D01*
X204036606Y-90152069D01*
X204264797Y-89964797D01*
X204452069Y-89736606D01*
X204493016Y-89660000D01*
X218416984Y-89660000D01*
X218457931Y-89736606D01*
X218645203Y-89964797D01*
X218873394Y-90152069D01*
X219133736Y-90291225D01*
X219416223Y-90376916D01*
X219636381Y-90398600D01*
X219783619Y-90398600D01*
X220003777Y-90376916D01*
X220286264Y-90291225D01*
X220546606Y-90152069D01*
X220774797Y-89964797D01*
X220962069Y-89736606D01*
X220980000Y-89703060D01*
X220997931Y-89736606D01*
X221185203Y-89964797D01*
X221413394Y-90152069D01*
X221673736Y-90291225D01*
X221956223Y-90376916D01*
X222176381Y-90398600D01*
X222323619Y-90398600D01*
X222543777Y-90376916D01*
X222826264Y-90291225D01*
X223086606Y-90152069D01*
X223314797Y-89964797D01*
X223502069Y-89736606D01*
X223543016Y-89660000D01*
X237466984Y-89660000D01*
X237507931Y-89736606D01*
X237695203Y-89964797D01*
X237923394Y-90152069D01*
X238183736Y-90291225D01*
X238466223Y-90376916D01*
X238686381Y-90398600D01*
X238833619Y-90398600D01*
X239053777Y-90376916D01*
X239336264Y-90291225D01*
X239596606Y-90152069D01*
X239824797Y-89964797D01*
X240012069Y-89736606D01*
X240030000Y-89703060D01*
X240047931Y-89736606D01*
X240235203Y-89964797D01*
X240463394Y-90152069D01*
X240723736Y-90291225D01*
X241006223Y-90376916D01*
X241226381Y-90398600D01*
X241373619Y-90398600D01*
X241593777Y-90376916D01*
X241676900Y-90351701D01*
X243022201Y-91697003D01*
X243045999Y-91726001D01*
X243161724Y-91820974D01*
X243293753Y-91891546D01*
X243437014Y-91935003D01*
X243548667Y-91946000D01*
X243548676Y-91946000D01*
X243585999Y-91949676D01*
X243623322Y-91946000D01*
X246182635Y-91946000D01*
X246186487Y-91985111D01*
X246271401Y-92265034D01*
X246409294Y-92523014D01*
X246594866Y-92749134D01*
X246820986Y-92934706D01*
X247078966Y-93072599D01*
X247358889Y-93157513D01*
X247577050Y-93179000D01*
X247722950Y-93179000D01*
X247941111Y-93157513D01*
X248221034Y-93072599D01*
X248479014Y-92934706D01*
X248705134Y-92749134D01*
X248890706Y-92523014D01*
X249028599Y-92265034D01*
X249113513Y-91985111D01*
X249117365Y-91946000D01*
X252511895Y-91946000D01*
X252615988Y-92197302D01*
X252849637Y-92546983D01*
X253147017Y-92844363D01*
X253496698Y-93078012D01*
X253885244Y-93238953D01*
X254297721Y-93321000D01*
X254718279Y-93321000D01*
X255130756Y-93238953D01*
X255519302Y-93078012D01*
X255868983Y-92844363D01*
X256166363Y-92546983D01*
X256400012Y-92197302D01*
X256560953Y-91808756D01*
X256643000Y-91396279D01*
X256643000Y-90975721D01*
X256560953Y-90563244D01*
X256400012Y-90174698D01*
X256364132Y-90120999D01*
X257448198Y-90120999D01*
X257639140Y-90311941D01*
X257535047Y-90563244D01*
X257453000Y-90975721D01*
X257453000Y-91396279D01*
X257535047Y-91808756D01*
X257695988Y-92197302D01*
X257929637Y-92546983D01*
X258227017Y-92844363D01*
X258576698Y-93078012D01*
X258965244Y-93238953D01*
X259377721Y-93321000D01*
X259798279Y-93321000D01*
X260210756Y-93238953D01*
X260599302Y-93078012D01*
X260948983Y-92844363D01*
X261107346Y-92686000D01*
X262529928Y-92686000D01*
X262542188Y-92810482D01*
X262578498Y-92930180D01*
X262637463Y-93040494D01*
X262716815Y-93137185D01*
X262813506Y-93216537D01*
X262923820Y-93275502D01*
X263043518Y-93311812D01*
X263168000Y-93324072D01*
X264382250Y-93321000D01*
X264541000Y-93162250D01*
X264541000Y-91313000D01*
X264795000Y-91313000D01*
X264795000Y-93162250D01*
X264953750Y-93321000D01*
X266168000Y-93324072D01*
X266292482Y-93311812D01*
X266412180Y-93275502D01*
X266522494Y-93216537D01*
X266619185Y-93137185D01*
X266698537Y-93040494D01*
X266757502Y-92930180D01*
X266793812Y-92810482D01*
X266806072Y-92686000D01*
X266803000Y-91471750D01*
X266644250Y-91313000D01*
X264795000Y-91313000D01*
X264541000Y-91313000D01*
X262691750Y-91313000D01*
X262533000Y-91471750D01*
X262529928Y-92686000D01*
X261107346Y-92686000D01*
X261246363Y-92546983D01*
X261480012Y-92197302D01*
X261640953Y-91808756D01*
X261723000Y-91396279D01*
X261723000Y-90975721D01*
X261640953Y-90563244D01*
X261480012Y-90174698D01*
X261246363Y-89825017D01*
X261107346Y-89686000D01*
X262529928Y-89686000D01*
X262533000Y-90900250D01*
X262691750Y-91059000D01*
X264541000Y-91059000D01*
X264541000Y-89209750D01*
X264795000Y-89209750D01*
X264795000Y-91059000D01*
X266644250Y-91059000D01*
X266803000Y-90900250D01*
X266806072Y-89686000D01*
X266793812Y-89561518D01*
X266757502Y-89441820D01*
X266698537Y-89331506D01*
X266619185Y-89234815D01*
X266522494Y-89155463D01*
X266412180Y-89096498D01*
X266292482Y-89060188D01*
X266168000Y-89047928D01*
X264953750Y-89051000D01*
X264795000Y-89209750D01*
X264541000Y-89209750D01*
X264382250Y-89051000D01*
X263168000Y-89047928D01*
X263043518Y-89060188D01*
X262923820Y-89096498D01*
X262813506Y-89155463D01*
X262716815Y-89234815D01*
X262637463Y-89331506D01*
X262578498Y-89441820D01*
X262542188Y-89561518D01*
X262529928Y-89686000D01*
X261107346Y-89686000D01*
X260948983Y-89527637D01*
X260599302Y-89293988D01*
X260210756Y-89133047D01*
X259798279Y-89051000D01*
X259377721Y-89051000D01*
X258965244Y-89133047D01*
X258713941Y-89237140D01*
X258326803Y-88850002D01*
X258303000Y-88820998D01*
X258187275Y-88726025D01*
X258055246Y-88655453D01*
X257911985Y-88611996D01*
X257800332Y-88600999D01*
X257800321Y-88600999D01*
X257762999Y-88597323D01*
X257725677Y-88600999D01*
X249034069Y-88600999D01*
X249028599Y-88582966D01*
X248890706Y-88324986D01*
X248705134Y-88098866D01*
X248675313Y-88074393D01*
X248744180Y-88053502D01*
X248854494Y-87994537D01*
X248951185Y-87915185D01*
X249030537Y-87818494D01*
X249089502Y-87708180D01*
X249125812Y-87588482D01*
X249138072Y-87464000D01*
X249135000Y-86899750D01*
X248976250Y-86741000D01*
X247777000Y-86741000D01*
X247777000Y-86761000D01*
X247523000Y-86761000D01*
X247523000Y-86741000D01*
X247503000Y-86741000D01*
X247503000Y-86487000D01*
X247523000Y-86487000D01*
X247523000Y-86467000D01*
X247777000Y-86467000D01*
X247777000Y-86487000D01*
X248976250Y-86487000D01*
X249135000Y-86328250D01*
X249138072Y-85764000D01*
X249125812Y-85639518D01*
X249104299Y-85568599D01*
X251518123Y-85568599D01*
X251561599Y-85572881D01*
X251605076Y-85568599D01*
X261474932Y-85568599D01*
X261518401Y-85572880D01*
X261561870Y-85568599D01*
X261561878Y-85568599D01*
X261691891Y-85555794D01*
X261858714Y-85505188D01*
X262012460Y-85423010D01*
X262147218Y-85312416D01*
X262174935Y-85278643D01*
X262648941Y-84804637D01*
X262775244Y-84856953D01*
X263187721Y-84939000D01*
X263608279Y-84939000D01*
X264020756Y-84856953D01*
X264409302Y-84696012D01*
X264758983Y-84462363D01*
X265056363Y-84164983D01*
X265290012Y-83815302D01*
X265450953Y-83426756D01*
X265533000Y-83014279D01*
X265533000Y-82593721D01*
X265450953Y-82181244D01*
X265290012Y-81792698D01*
X265056363Y-81443017D01*
X264758983Y-81145637D01*
X264409302Y-80911988D01*
X264020756Y-80751047D01*
X263608279Y-80669000D01*
X263187721Y-80669000D01*
X262775244Y-80751047D01*
X262386698Y-80911988D01*
X262037017Y-81145637D01*
X261739637Y-81443017D01*
X261505988Y-81792698D01*
X261345047Y-82181244D01*
X261263000Y-82593721D01*
X261263000Y-83014279D01*
X261345047Y-83426756D01*
X261397363Y-83553059D01*
X261151823Y-83798599D01*
X258576755Y-83798599D01*
X258586072Y-83704000D01*
X258583000Y-83089750D01*
X258424250Y-82931000D01*
X257175000Y-82931000D01*
X257175000Y-82951000D01*
X256921000Y-82951000D01*
X256921000Y-82931000D01*
X256901000Y-82931000D01*
X256901000Y-82677000D01*
X256921000Y-82677000D01*
X256921000Y-81427750D01*
X257175000Y-81427750D01*
X257175000Y-82677000D01*
X258424250Y-82677000D01*
X258583000Y-82518250D01*
X258586072Y-81904000D01*
X258573812Y-81779518D01*
X258537502Y-81659820D01*
X258478537Y-81549506D01*
X258399185Y-81452815D01*
X258302494Y-81373463D01*
X258192180Y-81314498D01*
X258072482Y-81278188D01*
X257948000Y-81265928D01*
X257333750Y-81269000D01*
X257175000Y-81427750D01*
X256921000Y-81427750D01*
X256762250Y-81269000D01*
X256148000Y-81265928D01*
X256023518Y-81278188D01*
X255903820Y-81314498D01*
X255793506Y-81373463D01*
X255696815Y-81452815D01*
X255617463Y-81549506D01*
X255558498Y-81659820D01*
X255552944Y-81678127D01*
X255486505Y-81611688D01*
X255235095Y-81443701D01*
X254955743Y-81327989D01*
X254659184Y-81269000D01*
X254356816Y-81269000D01*
X254095565Y-81320966D01*
X254032277Y-81269027D01*
X253900248Y-81198455D01*
X253756987Y-81154998D01*
X253645334Y-81144001D01*
X253645323Y-81144001D01*
X253608001Y-81140325D01*
X253570679Y-81144001D01*
X252655426Y-81144001D01*
X252649458Y-81132836D01*
X252539792Y-80999208D01*
X252406164Y-80889542D01*
X252253709Y-80808053D01*
X252088285Y-80757872D01*
X251916250Y-80740928D01*
X251003750Y-80740928D01*
X250831715Y-80757872D01*
X250666291Y-80808053D01*
X250513836Y-80889542D01*
X250380208Y-80999208D01*
X250270542Y-81132836D01*
X250189053Y-81285291D01*
X250138872Y-81450715D01*
X250121928Y-81622750D01*
X250121928Y-82110250D01*
X250138872Y-82282285D01*
X250189053Y-82447709D01*
X250270542Y-82600164D01*
X250380208Y-82733792D01*
X250465756Y-82804000D01*
X250380208Y-82874208D01*
X250270542Y-83007836D01*
X250189053Y-83160291D01*
X250138872Y-83325715D01*
X250121928Y-83497750D01*
X250121928Y-83798599D01*
X242803743Y-83798599D01*
X242776916Y-83526223D01*
X242691225Y-83243736D01*
X242552069Y-82983394D01*
X242364797Y-82755203D01*
X242136606Y-82567931D01*
X242103060Y-82550000D01*
X242136606Y-82532069D01*
X242364797Y-82344797D01*
X242552069Y-82116606D01*
X242691225Y-81856264D01*
X242776916Y-81573777D01*
X242805851Y-81280000D01*
X242783052Y-81048526D01*
X245222579Y-78609000D01*
X261453672Y-78609000D01*
X261505988Y-78735302D01*
X261739637Y-79084983D01*
X262037017Y-79382363D01*
X262386698Y-79616012D01*
X262775244Y-79776953D01*
X263187721Y-79859000D01*
X263608279Y-79859000D01*
X264020756Y-79776953D01*
X264409302Y-79616012D01*
X264758983Y-79382363D01*
X265056363Y-79084983D01*
X265290012Y-78735302D01*
X265450953Y-78346756D01*
X265533000Y-77934279D01*
X265533000Y-77513721D01*
X265450953Y-77101244D01*
X265290012Y-76712698D01*
X265056363Y-76363017D01*
X264758983Y-76065637D01*
X264409302Y-75831988D01*
X264020756Y-75671047D01*
X263608279Y-75589000D01*
X263187721Y-75589000D01*
X262775244Y-75671047D01*
X262386698Y-75831988D01*
X262037017Y-76065637D01*
X261739637Y-76363017D01*
X261505988Y-76712698D01*
X261453672Y-76839000D01*
X252658098Y-76839000D01*
X252730947Y-76702709D01*
X252781128Y-76537285D01*
X252798072Y-76365250D01*
X252798072Y-75877750D01*
X252781128Y-75705715D01*
X252730947Y-75540291D01*
X252649458Y-75387836D01*
X252539792Y-75254208D01*
X252454244Y-75184000D01*
X252539792Y-75113792D01*
X252627845Y-75006500D01*
X252978235Y-75006500D01*
X252973000Y-75032816D01*
X252973000Y-75335184D01*
X253031989Y-75631743D01*
X253147701Y-75911095D01*
X253315688Y-76162505D01*
X253529495Y-76376312D01*
X253780905Y-76544299D01*
X254060257Y-76660011D01*
X254356816Y-76719000D01*
X254659184Y-76719000D01*
X254955743Y-76660011D01*
X255235095Y-76544299D01*
X255486505Y-76376312D01*
X255552944Y-76309873D01*
X255558498Y-76328180D01*
X255617463Y-76438494D01*
X255696815Y-76535185D01*
X255793506Y-76614537D01*
X255903820Y-76673502D01*
X256023518Y-76709812D01*
X256148000Y-76722072D01*
X256762250Y-76719000D01*
X256921000Y-76560250D01*
X256921000Y-75311000D01*
X257175000Y-75311000D01*
X257175000Y-76560250D01*
X257333750Y-76719000D01*
X257948000Y-76722072D01*
X258072482Y-76709812D01*
X258192180Y-76673502D01*
X258302494Y-76614537D01*
X258399185Y-76535185D01*
X258478537Y-76438494D01*
X258537502Y-76328180D01*
X258573812Y-76208482D01*
X258586072Y-76084000D01*
X258583000Y-75469750D01*
X258424250Y-75311000D01*
X257175000Y-75311000D01*
X256921000Y-75311000D01*
X256901000Y-75311000D01*
X256901000Y-75057000D01*
X256921000Y-75057000D01*
X256921000Y-73807750D01*
X257175000Y-73807750D01*
X257175000Y-75057000D01*
X258424250Y-75057000D01*
X258583000Y-74898250D01*
X258586072Y-74284000D01*
X258573812Y-74159518D01*
X258566573Y-74135653D01*
X262085952Y-74135653D01*
X262241962Y-74451214D01*
X262616745Y-74642020D01*
X263021551Y-74756044D01*
X263440824Y-74788902D01*
X263858451Y-74739334D01*
X264258383Y-74609243D01*
X264554038Y-74451214D01*
X264710048Y-74135653D01*
X263398000Y-72823605D01*
X262085952Y-74135653D01*
X258566573Y-74135653D01*
X258537502Y-74039820D01*
X258478537Y-73929506D01*
X258399185Y-73832815D01*
X258302494Y-73753463D01*
X258192180Y-73694498D01*
X258072482Y-73658188D01*
X257948000Y-73645928D01*
X257333750Y-73649000D01*
X257175000Y-73807750D01*
X256921000Y-73807750D01*
X256762250Y-73649000D01*
X256148000Y-73645928D01*
X256023518Y-73658188D01*
X255903820Y-73694498D01*
X255793506Y-73753463D01*
X255696815Y-73832815D01*
X255617463Y-73929506D01*
X255558498Y-74039820D01*
X255552944Y-74058127D01*
X255486505Y-73991688D01*
X255235095Y-73823701D01*
X254955743Y-73707989D01*
X254659184Y-73649000D01*
X254356816Y-73649000D01*
X254102160Y-73699654D01*
X253994776Y-73611526D01*
X253862747Y-73540954D01*
X253719486Y-73497497D01*
X253607833Y-73486500D01*
X253607822Y-73486500D01*
X253570500Y-73482824D01*
X253533178Y-73486500D01*
X252627845Y-73486500D01*
X252539792Y-73379208D01*
X252406164Y-73269542D01*
X252253709Y-73188053D01*
X252088285Y-73137872D01*
X251916250Y-73120928D01*
X251003750Y-73120928D01*
X250831715Y-73137872D01*
X250666291Y-73188053D01*
X250513836Y-73269542D01*
X250380208Y-73379208D01*
X250270542Y-73512836D01*
X250189053Y-73665291D01*
X250138872Y-73830715D01*
X250121928Y-74002750D01*
X250121928Y-74490250D01*
X250138872Y-74662285D01*
X250189053Y-74827709D01*
X250270542Y-74980164D01*
X250380208Y-75113792D01*
X250465756Y-75184000D01*
X250380208Y-75254208D01*
X250270542Y-75387836D01*
X250189053Y-75540291D01*
X250138872Y-75705715D01*
X250121928Y-75877750D01*
X250121928Y-76365250D01*
X250138872Y-76537285D01*
X250189053Y-76702709D01*
X250261902Y-76839000D01*
X244899465Y-76839000D01*
X244855999Y-76834719D01*
X244812533Y-76839000D01*
X244812523Y-76839000D01*
X244682510Y-76851805D01*
X244515687Y-76902411D01*
X244361941Y-76984589D01*
X244361939Y-76984590D01*
X244361940Y-76984590D01*
X244260953Y-77067468D01*
X244260951Y-77067470D01*
X244227183Y-77095183D01*
X244199470Y-77128951D01*
X242715423Y-78612998D01*
X242633818Y-78612998D01*
X242754958Y-78380974D01*
X242709222Y-78230186D01*
X242582684Y-77965056D01*
X242406854Y-77729707D01*
X242188488Y-77533183D01*
X242082230Y-77470000D01*
X242188488Y-77406817D01*
X242406854Y-77210293D01*
X242582684Y-76974944D01*
X242709222Y-76709814D01*
X242754958Y-76559026D01*
X242633817Y-76327000D01*
X241427000Y-76327000D01*
X241427000Y-78613000D01*
X241447000Y-78613000D01*
X241447000Y-78867000D01*
X241427000Y-78867000D01*
X241427000Y-78887000D01*
X241173000Y-78887000D01*
X241173000Y-78867000D01*
X238887000Y-78867000D01*
X238887000Y-78887000D01*
X238633000Y-78887000D01*
X238633000Y-78867000D01*
X237426183Y-78867000D01*
X237305042Y-79099026D01*
X237350778Y-79249814D01*
X237477316Y-79514944D01*
X237653146Y-79750293D01*
X237871512Y-79946817D01*
X237967910Y-80004137D01*
X237923394Y-80027931D01*
X237695203Y-80215203D01*
X237547647Y-80395000D01*
X223462353Y-80395000D01*
X223314797Y-80215203D01*
X223086606Y-80027931D01*
X223042090Y-80004137D01*
X223138488Y-79946817D01*
X223356854Y-79750293D01*
X223532684Y-79514944D01*
X223659222Y-79249814D01*
X223704958Y-79099026D01*
X223583817Y-78867000D01*
X222377000Y-78867000D01*
X222377000Y-78887000D01*
X222123000Y-78887000D01*
X222123000Y-78867000D01*
X219837000Y-78867000D01*
X219837000Y-78887000D01*
X219583000Y-78887000D01*
X219583000Y-78867000D01*
X218376183Y-78867000D01*
X218255042Y-79099026D01*
X218300778Y-79249814D01*
X218427316Y-79514944D01*
X218603146Y-79750293D01*
X218821512Y-79946817D01*
X218917910Y-80004137D01*
X218873394Y-80027931D01*
X218645203Y-80215203D01*
X218497647Y-80395000D01*
X204412353Y-80395000D01*
X204264797Y-80215203D01*
X204036606Y-80027931D01*
X203992090Y-80004137D01*
X204088488Y-79946817D01*
X204306854Y-79750293D01*
X204482684Y-79514944D01*
X204609222Y-79249814D01*
X204654958Y-79099026D01*
X204533817Y-78867000D01*
X203327000Y-78867000D01*
X203327000Y-78887000D01*
X203073000Y-78887000D01*
X203073000Y-78867000D01*
X200787000Y-78867000D01*
X200787000Y-78887000D01*
X200533000Y-78887000D01*
X200533000Y-78867000D01*
X199326183Y-78867000D01*
X199205042Y-79099026D01*
X199250778Y-79249814D01*
X199377316Y-79514944D01*
X199553146Y-79750293D01*
X199771512Y-79946817D01*
X199867910Y-80004137D01*
X199823394Y-80027931D01*
X199595203Y-80215203D01*
X199447647Y-80395000D01*
X185362353Y-80395000D01*
X185214797Y-80215203D01*
X184986606Y-80027931D01*
X184942090Y-80004137D01*
X185038488Y-79946817D01*
X185256854Y-79750293D01*
X185432684Y-79514944D01*
X185559222Y-79249814D01*
X185604958Y-79099026D01*
X185483817Y-78867000D01*
X184277000Y-78867000D01*
X184277000Y-78887000D01*
X184023000Y-78887000D01*
X184023000Y-78867000D01*
X181737000Y-78867000D01*
X181737000Y-78887000D01*
X181483000Y-78887000D01*
X181483000Y-78867000D01*
X180276183Y-78867000D01*
X180155042Y-79099026D01*
X180200778Y-79249814D01*
X180327316Y-79514944D01*
X180503146Y-79750293D01*
X180721512Y-79946817D01*
X180817910Y-80004137D01*
X180773394Y-80027931D01*
X180545203Y-80215203D01*
X180397647Y-80395000D01*
X166312353Y-80395000D01*
X166164797Y-80215203D01*
X165936606Y-80027931D01*
X165892090Y-80004137D01*
X165988488Y-79946817D01*
X166206854Y-79750293D01*
X166382684Y-79514944D01*
X166509222Y-79249814D01*
X166554958Y-79099026D01*
X166433817Y-78867000D01*
X165227000Y-78867000D01*
X165227000Y-78887000D01*
X164973000Y-78887000D01*
X164973000Y-78867000D01*
X162687000Y-78867000D01*
X162687000Y-78887000D01*
X162433000Y-78887000D01*
X162433000Y-78867000D01*
X161226183Y-78867000D01*
X161105042Y-79099026D01*
X161150778Y-79249814D01*
X161277316Y-79514944D01*
X161453146Y-79750293D01*
X161671512Y-79946817D01*
X161767910Y-80004137D01*
X161723394Y-80027931D01*
X161495203Y-80215203D01*
X161347647Y-80395000D01*
X147262353Y-80395000D01*
X147114797Y-80215203D01*
X146886606Y-80027931D01*
X146842090Y-80004137D01*
X146938488Y-79946817D01*
X147156854Y-79750293D01*
X147332684Y-79514944D01*
X147459222Y-79249814D01*
X147504958Y-79099026D01*
X147383817Y-78867000D01*
X146177000Y-78867000D01*
X146177000Y-78887000D01*
X145923000Y-78887000D01*
X145923000Y-78867000D01*
X143637000Y-78867000D01*
X143637000Y-78887000D01*
X143383000Y-78887000D01*
X143383000Y-78867000D01*
X142176183Y-78867000D01*
X142055042Y-79099026D01*
X142100778Y-79249814D01*
X142227316Y-79514944D01*
X142403146Y-79750293D01*
X142621512Y-79946817D01*
X142717910Y-80004137D01*
X142673394Y-80027931D01*
X142445203Y-80215203D01*
X142297647Y-80395000D01*
X128212353Y-80395000D01*
X128064797Y-80215203D01*
X127836606Y-80027931D01*
X127792090Y-80004137D01*
X127888488Y-79946817D01*
X128106854Y-79750293D01*
X128282684Y-79514944D01*
X128409222Y-79249814D01*
X128454958Y-79099026D01*
X128333817Y-78867000D01*
X127127000Y-78867000D01*
X127127000Y-78887000D01*
X126873000Y-78887000D01*
X126873000Y-78867000D01*
X124587000Y-78867000D01*
X124587000Y-78887000D01*
X124333000Y-78887000D01*
X124333000Y-78867000D01*
X123126183Y-78867000D01*
X123005042Y-79099026D01*
X123050778Y-79249814D01*
X123177316Y-79514944D01*
X123353146Y-79750293D01*
X123571512Y-79946817D01*
X123667910Y-80004137D01*
X123623394Y-80027931D01*
X123395203Y-80215203D01*
X123247647Y-80395000D01*
X108813354Y-80395000D01*
X108665798Y-80215203D01*
X108437607Y-80027931D01*
X108393091Y-80004137D01*
X108489489Y-79946817D01*
X108707855Y-79750293D01*
X108883685Y-79514944D01*
X109010223Y-79249814D01*
X109055959Y-79099026D01*
X108934818Y-78867000D01*
X107728001Y-78867000D01*
X107728001Y-78887000D01*
X107474001Y-78887000D01*
X107474001Y-78867000D01*
X105188001Y-78867000D01*
X105188001Y-78887000D01*
X104934001Y-78887000D01*
X104934001Y-78867000D01*
X103727184Y-78867000D01*
X103606043Y-79099026D01*
X103651779Y-79249814D01*
X103778317Y-79514944D01*
X103954147Y-79750293D01*
X104172513Y-79946817D01*
X104268911Y-80004137D01*
X104224395Y-80027931D01*
X103996204Y-80215203D01*
X103848648Y-80395000D01*
X93927899Y-80395000D01*
X91677854Y-78144956D01*
X91650137Y-78111183D01*
X91515379Y-78000589D01*
X91361633Y-77918411D01*
X91194810Y-77867805D01*
X91064797Y-77855000D01*
X91064789Y-77855000D01*
X91021320Y-77850719D01*
X90977851Y-77855000D01*
X90844328Y-77855000D01*
X90792012Y-77728698D01*
X90558363Y-77379017D01*
X90260983Y-77081637D01*
X89911302Y-76847988D01*
X89522756Y-76687047D01*
X89110279Y-76605000D01*
X88689721Y-76605000D01*
X88277244Y-76687047D01*
X87888698Y-76847988D01*
X87539017Y-77081637D01*
X87241637Y-77379017D01*
X87007988Y-77728698D01*
X86847047Y-78117244D01*
X86765000Y-78529721D01*
X86765000Y-78950279D01*
X86847047Y-79362756D01*
X87007988Y-79751302D01*
X87241637Y-80100983D01*
X87539017Y-80398363D01*
X87888698Y-80632012D01*
X88277244Y-80792953D01*
X88689721Y-80875000D01*
X89110279Y-80875000D01*
X89522756Y-80792953D01*
X89911302Y-80632012D01*
X90260983Y-80398363D01*
X90558363Y-80100983D01*
X90787619Y-79757877D01*
X92904790Y-81875049D01*
X92932503Y-81908817D01*
X92966271Y-81936530D01*
X92966273Y-81936532D01*
X93001578Y-81965506D01*
X93067261Y-82019411D01*
X93221007Y-82101589D01*
X93387830Y-82152195D01*
X93517843Y-82165000D01*
X93517853Y-82165000D01*
X93561319Y-82169281D01*
X93604785Y-82165000D01*
X103848648Y-82165000D01*
X103996204Y-82344797D01*
X104224395Y-82532069D01*
X104257941Y-82550000D01*
X104224395Y-82567931D01*
X103996204Y-82755203D01*
X103848648Y-82935000D01*
X91038072Y-82935000D01*
X91038072Y-82320000D01*
X91025812Y-82195518D01*
X90989502Y-82075820D01*
X90930537Y-81965506D01*
X90851185Y-81868815D01*
X90754494Y-81789463D01*
X90644180Y-81730498D01*
X90524482Y-81694188D01*
X90400000Y-81681928D01*
X87400000Y-81681928D01*
X87275518Y-81694188D01*
X87155820Y-81730498D01*
X87045506Y-81789463D01*
X86948815Y-81868815D01*
X86869463Y-81965506D01*
X86810498Y-82075820D01*
X86774188Y-82195518D01*
X86761928Y-82320000D01*
X80670000Y-82320000D01*
X80670000Y-76559026D01*
X103606043Y-76559026D01*
X103651779Y-76709814D01*
X103778317Y-76974944D01*
X103954147Y-77210293D01*
X104172513Y-77406817D01*
X104278771Y-77470000D01*
X104172513Y-77533183D01*
X103954147Y-77729707D01*
X103778317Y-77965056D01*
X103651779Y-78230186D01*
X103606043Y-78380974D01*
X103727184Y-78613000D01*
X104934001Y-78613000D01*
X104934001Y-76327000D01*
X105188001Y-76327000D01*
X105188001Y-78613000D01*
X107474001Y-78613000D01*
X107474001Y-76327000D01*
X107728001Y-76327000D01*
X107728001Y-78613000D01*
X108934818Y-78613000D01*
X109055959Y-78380974D01*
X109010223Y-78230186D01*
X108883685Y-77965056D01*
X108707855Y-77729707D01*
X108489489Y-77533183D01*
X108383231Y-77470000D01*
X108489489Y-77406817D01*
X108707855Y-77210293D01*
X108883685Y-76974944D01*
X109010223Y-76709814D01*
X109055959Y-76559026D01*
X123005042Y-76559026D01*
X123050778Y-76709814D01*
X123177316Y-76974944D01*
X123353146Y-77210293D01*
X123571512Y-77406817D01*
X123677770Y-77470000D01*
X123571512Y-77533183D01*
X123353146Y-77729707D01*
X123177316Y-77965056D01*
X123050778Y-78230186D01*
X123005042Y-78380974D01*
X123126183Y-78613000D01*
X124333000Y-78613000D01*
X124333000Y-76327000D01*
X124587000Y-76327000D01*
X124587000Y-78613000D01*
X126873000Y-78613000D01*
X126873000Y-76327000D01*
X127127000Y-76327000D01*
X127127000Y-78613000D01*
X128333817Y-78613000D01*
X128454958Y-78380974D01*
X128409222Y-78230186D01*
X128282684Y-77965056D01*
X128106854Y-77729707D01*
X127888488Y-77533183D01*
X127782230Y-77470000D01*
X127888488Y-77406817D01*
X128106854Y-77210293D01*
X128282684Y-76974944D01*
X128409222Y-76709814D01*
X128454958Y-76559026D01*
X142055042Y-76559026D01*
X142100778Y-76709814D01*
X142227316Y-76974944D01*
X142403146Y-77210293D01*
X142621512Y-77406817D01*
X142727770Y-77470000D01*
X142621512Y-77533183D01*
X142403146Y-77729707D01*
X142227316Y-77965056D01*
X142100778Y-78230186D01*
X142055042Y-78380974D01*
X142176183Y-78613000D01*
X143383000Y-78613000D01*
X143383000Y-76327000D01*
X143637000Y-76327000D01*
X143637000Y-78613000D01*
X145923000Y-78613000D01*
X145923000Y-76327000D01*
X146177000Y-76327000D01*
X146177000Y-78613000D01*
X147383817Y-78613000D01*
X147504958Y-78380974D01*
X147459222Y-78230186D01*
X147332684Y-77965056D01*
X147156854Y-77729707D01*
X146938488Y-77533183D01*
X146832230Y-77470000D01*
X146938488Y-77406817D01*
X147156854Y-77210293D01*
X147332684Y-76974944D01*
X147459222Y-76709814D01*
X147504958Y-76559026D01*
X161105042Y-76559026D01*
X161150778Y-76709814D01*
X161277316Y-76974944D01*
X161453146Y-77210293D01*
X161671512Y-77406817D01*
X161777770Y-77470000D01*
X161671512Y-77533183D01*
X161453146Y-77729707D01*
X161277316Y-77965056D01*
X161150778Y-78230186D01*
X161105042Y-78380974D01*
X161226183Y-78613000D01*
X162433000Y-78613000D01*
X162433000Y-76327000D01*
X162687000Y-76327000D01*
X162687000Y-78613000D01*
X164973000Y-78613000D01*
X164973000Y-76327000D01*
X165227000Y-76327000D01*
X165227000Y-78613000D01*
X166433817Y-78613000D01*
X166554958Y-78380974D01*
X166509222Y-78230186D01*
X166382684Y-77965056D01*
X166206854Y-77729707D01*
X165988488Y-77533183D01*
X165882230Y-77470000D01*
X165988488Y-77406817D01*
X166206854Y-77210293D01*
X166382684Y-76974944D01*
X166509222Y-76709814D01*
X166554958Y-76559026D01*
X180155042Y-76559026D01*
X180200778Y-76709814D01*
X180327316Y-76974944D01*
X180503146Y-77210293D01*
X180721512Y-77406817D01*
X180827770Y-77470000D01*
X180721512Y-77533183D01*
X180503146Y-77729707D01*
X180327316Y-77965056D01*
X180200778Y-78230186D01*
X180155042Y-78380974D01*
X180276183Y-78613000D01*
X181483000Y-78613000D01*
X181483000Y-76327000D01*
X181737000Y-76327000D01*
X181737000Y-78613000D01*
X184023000Y-78613000D01*
X184023000Y-76327000D01*
X184277000Y-76327000D01*
X184277000Y-78613000D01*
X185483817Y-78613000D01*
X185604958Y-78380974D01*
X185559222Y-78230186D01*
X185432684Y-77965056D01*
X185256854Y-77729707D01*
X185038488Y-77533183D01*
X184932230Y-77470000D01*
X185038488Y-77406817D01*
X185256854Y-77210293D01*
X185432684Y-76974944D01*
X185559222Y-76709814D01*
X185604958Y-76559026D01*
X199205042Y-76559026D01*
X199250778Y-76709814D01*
X199377316Y-76974944D01*
X199553146Y-77210293D01*
X199771512Y-77406817D01*
X199877770Y-77470000D01*
X199771512Y-77533183D01*
X199553146Y-77729707D01*
X199377316Y-77965056D01*
X199250778Y-78230186D01*
X199205042Y-78380974D01*
X199326183Y-78613000D01*
X200533000Y-78613000D01*
X200533000Y-76327000D01*
X200787000Y-76327000D01*
X200787000Y-78613000D01*
X203073000Y-78613000D01*
X203073000Y-76327000D01*
X203327000Y-76327000D01*
X203327000Y-78613000D01*
X204533817Y-78613000D01*
X204654958Y-78380974D01*
X204609222Y-78230186D01*
X204482684Y-77965056D01*
X204306854Y-77729707D01*
X204088488Y-77533183D01*
X203982230Y-77470000D01*
X204088488Y-77406817D01*
X204306854Y-77210293D01*
X204482684Y-76974944D01*
X204609222Y-76709814D01*
X204654958Y-76559026D01*
X218255042Y-76559026D01*
X218300778Y-76709814D01*
X218427316Y-76974944D01*
X218603146Y-77210293D01*
X218821512Y-77406817D01*
X218927770Y-77470000D01*
X218821512Y-77533183D01*
X218603146Y-77729707D01*
X218427316Y-77965056D01*
X218300778Y-78230186D01*
X218255042Y-78380974D01*
X218376183Y-78613000D01*
X219583000Y-78613000D01*
X219583000Y-76327000D01*
X219837000Y-76327000D01*
X219837000Y-78613000D01*
X222123000Y-78613000D01*
X222123000Y-76327000D01*
X222377000Y-76327000D01*
X222377000Y-78613000D01*
X223583817Y-78613000D01*
X223704958Y-78380974D01*
X223659222Y-78230186D01*
X223532684Y-77965056D01*
X223356854Y-77729707D01*
X223138488Y-77533183D01*
X223032230Y-77470000D01*
X223138488Y-77406817D01*
X223356854Y-77210293D01*
X223532684Y-76974944D01*
X223659222Y-76709814D01*
X223704958Y-76559026D01*
X237305042Y-76559026D01*
X237350778Y-76709814D01*
X237477316Y-76974944D01*
X237653146Y-77210293D01*
X237871512Y-77406817D01*
X237977770Y-77470000D01*
X237871512Y-77533183D01*
X237653146Y-77729707D01*
X237477316Y-77965056D01*
X237350778Y-78230186D01*
X237305042Y-78380974D01*
X237426183Y-78613000D01*
X238633000Y-78613000D01*
X238633000Y-76327000D01*
X238887000Y-76327000D01*
X238887000Y-78613000D01*
X241173000Y-78613000D01*
X241173000Y-76327000D01*
X238887000Y-76327000D01*
X238633000Y-76327000D01*
X237426183Y-76327000D01*
X237305042Y-76559026D01*
X223704958Y-76559026D01*
X223583817Y-76327000D01*
X222377000Y-76327000D01*
X222123000Y-76327000D01*
X219837000Y-76327000D01*
X219583000Y-76327000D01*
X218376183Y-76327000D01*
X218255042Y-76559026D01*
X204654958Y-76559026D01*
X204533817Y-76327000D01*
X203327000Y-76327000D01*
X203073000Y-76327000D01*
X200787000Y-76327000D01*
X200533000Y-76327000D01*
X199326183Y-76327000D01*
X199205042Y-76559026D01*
X185604958Y-76559026D01*
X185483817Y-76327000D01*
X184277000Y-76327000D01*
X184023000Y-76327000D01*
X181737000Y-76327000D01*
X181483000Y-76327000D01*
X180276183Y-76327000D01*
X180155042Y-76559026D01*
X166554958Y-76559026D01*
X166433817Y-76327000D01*
X165227000Y-76327000D01*
X164973000Y-76327000D01*
X162687000Y-76327000D01*
X162433000Y-76327000D01*
X161226183Y-76327000D01*
X161105042Y-76559026D01*
X147504958Y-76559026D01*
X147383817Y-76327000D01*
X146177000Y-76327000D01*
X145923000Y-76327000D01*
X143637000Y-76327000D01*
X143383000Y-76327000D01*
X142176183Y-76327000D01*
X142055042Y-76559026D01*
X128454958Y-76559026D01*
X128333817Y-76327000D01*
X127127000Y-76327000D01*
X126873000Y-76327000D01*
X124587000Y-76327000D01*
X124333000Y-76327000D01*
X123126183Y-76327000D01*
X123005042Y-76559026D01*
X109055959Y-76559026D01*
X108934818Y-76327000D01*
X107728001Y-76327000D01*
X107474001Y-76327000D01*
X105188001Y-76327000D01*
X104934001Y-76327000D01*
X103727184Y-76327000D01*
X103606043Y-76559026D01*
X80670000Y-76559026D01*
X80670000Y-75151653D01*
X87587952Y-75151653D01*
X87743962Y-75467214D01*
X88118745Y-75658020D01*
X88523551Y-75772044D01*
X88942824Y-75804902D01*
X89360451Y-75755334D01*
X89760383Y-75625243D01*
X90056038Y-75467214D01*
X90212048Y-75151653D01*
X88900000Y-73839605D01*
X87587952Y-75151653D01*
X80670000Y-75151653D01*
X80670000Y-73702824D01*
X86755098Y-73702824D01*
X86804666Y-74120451D01*
X86934757Y-74520383D01*
X87092786Y-74816038D01*
X87408347Y-74972048D01*
X88720395Y-73660000D01*
X89079605Y-73660000D01*
X90391653Y-74972048D01*
X90707214Y-74816038D01*
X90898020Y-74441255D01*
X91012044Y-74036449D01*
X91013409Y-74019026D01*
X103606043Y-74019026D01*
X103651779Y-74169814D01*
X103778317Y-74434944D01*
X103954147Y-74670293D01*
X104172513Y-74866817D01*
X104278771Y-74930000D01*
X104172513Y-74993183D01*
X103954147Y-75189707D01*
X103778317Y-75425056D01*
X103651779Y-75690186D01*
X103606043Y-75840974D01*
X103727184Y-76073000D01*
X104934001Y-76073000D01*
X104934001Y-73787000D01*
X105188001Y-73787000D01*
X105188001Y-76073000D01*
X107474001Y-76073000D01*
X107474001Y-73787000D01*
X107728001Y-73787000D01*
X107728001Y-76073000D01*
X108934818Y-76073000D01*
X109055959Y-75840974D01*
X109010223Y-75690186D01*
X108883685Y-75425056D01*
X108707855Y-75189707D01*
X108489489Y-74993183D01*
X108383231Y-74930000D01*
X108489489Y-74866817D01*
X108707855Y-74670293D01*
X108883685Y-74434944D01*
X109010223Y-74169814D01*
X109055959Y-74019026D01*
X123005042Y-74019026D01*
X123050778Y-74169814D01*
X123177316Y-74434944D01*
X123353146Y-74670293D01*
X123571512Y-74866817D01*
X123677770Y-74930000D01*
X123571512Y-74993183D01*
X123353146Y-75189707D01*
X123177316Y-75425056D01*
X123050778Y-75690186D01*
X123005042Y-75840974D01*
X123126183Y-76073000D01*
X124333000Y-76073000D01*
X124333000Y-73787000D01*
X124587000Y-73787000D01*
X124587000Y-76073000D01*
X126873000Y-76073000D01*
X126873000Y-73787000D01*
X127127000Y-73787000D01*
X127127000Y-76073000D01*
X128333817Y-76073000D01*
X128454958Y-75840974D01*
X128409222Y-75690186D01*
X128282684Y-75425056D01*
X128106854Y-75189707D01*
X127888488Y-74993183D01*
X127782230Y-74930000D01*
X127888488Y-74866817D01*
X128106854Y-74670293D01*
X128282684Y-74434944D01*
X128409222Y-74169814D01*
X128454958Y-74019026D01*
X142055042Y-74019026D01*
X142100778Y-74169814D01*
X142227316Y-74434944D01*
X142403146Y-74670293D01*
X142621512Y-74866817D01*
X142727770Y-74930000D01*
X142621512Y-74993183D01*
X142403146Y-75189707D01*
X142227316Y-75425056D01*
X142100778Y-75690186D01*
X142055042Y-75840974D01*
X142176183Y-76073000D01*
X143383000Y-76073000D01*
X143383000Y-73787000D01*
X143637000Y-73787000D01*
X143637000Y-76073000D01*
X145923000Y-76073000D01*
X145923000Y-73787000D01*
X146177000Y-73787000D01*
X146177000Y-76073000D01*
X147383817Y-76073000D01*
X147504958Y-75840974D01*
X147459222Y-75690186D01*
X147332684Y-75425056D01*
X147156854Y-75189707D01*
X146938488Y-74993183D01*
X146832230Y-74930000D01*
X146938488Y-74866817D01*
X147156854Y-74670293D01*
X147332684Y-74434944D01*
X147459222Y-74169814D01*
X147504958Y-74019026D01*
X161105042Y-74019026D01*
X161150778Y-74169814D01*
X161277316Y-74434944D01*
X161453146Y-74670293D01*
X161671512Y-74866817D01*
X161777770Y-74930000D01*
X161671512Y-74993183D01*
X161453146Y-75189707D01*
X161277316Y-75425056D01*
X161150778Y-75690186D01*
X161105042Y-75840974D01*
X161226183Y-76073000D01*
X162433000Y-76073000D01*
X162433000Y-73787000D01*
X162687000Y-73787000D01*
X162687000Y-76073000D01*
X164973000Y-76073000D01*
X164973000Y-73787000D01*
X165227000Y-73787000D01*
X165227000Y-76073000D01*
X166433817Y-76073000D01*
X166554958Y-75840974D01*
X166509222Y-75690186D01*
X166382684Y-75425056D01*
X166206854Y-75189707D01*
X165988488Y-74993183D01*
X165882230Y-74930000D01*
X165988488Y-74866817D01*
X166206854Y-74670293D01*
X166382684Y-74434944D01*
X166509222Y-74169814D01*
X166554958Y-74019026D01*
X180155042Y-74019026D01*
X180200778Y-74169814D01*
X180327316Y-74434944D01*
X180503146Y-74670293D01*
X180721512Y-74866817D01*
X180827770Y-74930000D01*
X180721512Y-74993183D01*
X180503146Y-75189707D01*
X180327316Y-75425056D01*
X180200778Y-75690186D01*
X180155042Y-75840974D01*
X180276183Y-76073000D01*
X181483000Y-76073000D01*
X181483000Y-73787000D01*
X181737000Y-73787000D01*
X181737000Y-76073000D01*
X184023000Y-76073000D01*
X184023000Y-73787000D01*
X184277000Y-73787000D01*
X184277000Y-76073000D01*
X185483817Y-76073000D01*
X185604958Y-75840974D01*
X185559222Y-75690186D01*
X185432684Y-75425056D01*
X185256854Y-75189707D01*
X185038488Y-74993183D01*
X184932230Y-74930000D01*
X185038488Y-74866817D01*
X185256854Y-74670293D01*
X185432684Y-74434944D01*
X185559222Y-74169814D01*
X185604958Y-74019026D01*
X199205042Y-74019026D01*
X199250778Y-74169814D01*
X199377316Y-74434944D01*
X199553146Y-74670293D01*
X199771512Y-74866817D01*
X199877770Y-74930000D01*
X199771512Y-74993183D01*
X199553146Y-75189707D01*
X199377316Y-75425056D01*
X199250778Y-75690186D01*
X199205042Y-75840974D01*
X199326183Y-76073000D01*
X200533000Y-76073000D01*
X200533000Y-73787000D01*
X200787000Y-73787000D01*
X200787000Y-76073000D01*
X203073000Y-76073000D01*
X203073000Y-73787000D01*
X203327000Y-73787000D01*
X203327000Y-76073000D01*
X204533817Y-76073000D01*
X204654958Y-75840974D01*
X204609222Y-75690186D01*
X204482684Y-75425056D01*
X204306854Y-75189707D01*
X204088488Y-74993183D01*
X203982230Y-74930000D01*
X204088488Y-74866817D01*
X204306854Y-74670293D01*
X204482684Y-74434944D01*
X204609222Y-74169814D01*
X204654958Y-74019026D01*
X218255042Y-74019026D01*
X218300778Y-74169814D01*
X218427316Y-74434944D01*
X218603146Y-74670293D01*
X218821512Y-74866817D01*
X218927770Y-74930000D01*
X218821512Y-74993183D01*
X218603146Y-75189707D01*
X218427316Y-75425056D01*
X218300778Y-75690186D01*
X218255042Y-75840974D01*
X218376183Y-76073000D01*
X219583000Y-76073000D01*
X219583000Y-73787000D01*
X219837000Y-73787000D01*
X219837000Y-76073000D01*
X222123000Y-76073000D01*
X222123000Y-73787000D01*
X222377000Y-73787000D01*
X222377000Y-76073000D01*
X223583817Y-76073000D01*
X223704958Y-75840974D01*
X223659222Y-75690186D01*
X223532684Y-75425056D01*
X223356854Y-75189707D01*
X223138488Y-74993183D01*
X223032230Y-74930000D01*
X223138488Y-74866817D01*
X223356854Y-74670293D01*
X223532684Y-74434944D01*
X223659222Y-74169814D01*
X223704958Y-74019026D01*
X237305042Y-74019026D01*
X237350778Y-74169814D01*
X237477316Y-74434944D01*
X237653146Y-74670293D01*
X237871512Y-74866817D01*
X237977770Y-74930000D01*
X237871512Y-74993183D01*
X237653146Y-75189707D01*
X237477316Y-75425056D01*
X237350778Y-75690186D01*
X237305042Y-75840974D01*
X237426183Y-76073000D01*
X238633000Y-76073000D01*
X238633000Y-73787000D01*
X238887000Y-73787000D01*
X238887000Y-76073000D01*
X241173000Y-76073000D01*
X241173000Y-73787000D01*
X241427000Y-73787000D01*
X241427000Y-76073000D01*
X242633817Y-76073000D01*
X242754958Y-75840974D01*
X242709222Y-75690186D01*
X242582684Y-75425056D01*
X242406854Y-75189707D01*
X242188488Y-74993183D01*
X242082230Y-74930000D01*
X242188488Y-74866817D01*
X242406854Y-74670293D01*
X242582684Y-74434944D01*
X242709222Y-74169814D01*
X242754958Y-74019026D01*
X242633817Y-73787000D01*
X241427000Y-73787000D01*
X241173000Y-73787000D01*
X238887000Y-73787000D01*
X238633000Y-73787000D01*
X237426183Y-73787000D01*
X237305042Y-74019026D01*
X223704958Y-74019026D01*
X223583817Y-73787000D01*
X222377000Y-73787000D01*
X222123000Y-73787000D01*
X219837000Y-73787000D01*
X219583000Y-73787000D01*
X218376183Y-73787000D01*
X218255042Y-74019026D01*
X204654958Y-74019026D01*
X204533817Y-73787000D01*
X203327000Y-73787000D01*
X203073000Y-73787000D01*
X200787000Y-73787000D01*
X200533000Y-73787000D01*
X199326183Y-73787000D01*
X199205042Y-74019026D01*
X185604958Y-74019026D01*
X185483817Y-73787000D01*
X184277000Y-73787000D01*
X184023000Y-73787000D01*
X181737000Y-73787000D01*
X181483000Y-73787000D01*
X180276183Y-73787000D01*
X180155042Y-74019026D01*
X166554958Y-74019026D01*
X166433817Y-73787000D01*
X165227000Y-73787000D01*
X164973000Y-73787000D01*
X162687000Y-73787000D01*
X162433000Y-73787000D01*
X161226183Y-73787000D01*
X161105042Y-74019026D01*
X147504958Y-74019026D01*
X147383817Y-73787000D01*
X146177000Y-73787000D01*
X145923000Y-73787000D01*
X143637000Y-73787000D01*
X143383000Y-73787000D01*
X142176183Y-73787000D01*
X142055042Y-74019026D01*
X128454958Y-74019026D01*
X128333817Y-73787000D01*
X127127000Y-73787000D01*
X126873000Y-73787000D01*
X124587000Y-73787000D01*
X124333000Y-73787000D01*
X123126183Y-73787000D01*
X123005042Y-74019026D01*
X109055959Y-74019026D01*
X108934818Y-73787000D01*
X107728001Y-73787000D01*
X107474001Y-73787000D01*
X105188001Y-73787000D01*
X104934001Y-73787000D01*
X103727184Y-73787000D01*
X103606043Y-74019026D01*
X91013409Y-74019026D01*
X91044902Y-73617176D01*
X90995334Y-73199549D01*
X90865243Y-72799617D01*
X90707214Y-72503962D01*
X90391653Y-72347952D01*
X89079605Y-73660000D01*
X88720395Y-73660000D01*
X87408347Y-72347952D01*
X87092786Y-72503962D01*
X86901980Y-72878745D01*
X86787956Y-73283551D01*
X86755098Y-73702824D01*
X80670000Y-73702824D01*
X80670000Y-72168347D01*
X87587952Y-72168347D01*
X88900000Y-73480395D01*
X90212048Y-72168347D01*
X90056038Y-71852786D01*
X89681255Y-71661980D01*
X89276449Y-71547956D01*
X88857176Y-71515098D01*
X88439549Y-71564666D01*
X88039617Y-71694757D01*
X87743962Y-71852786D01*
X87587952Y-72168347D01*
X80670000Y-72168347D01*
X80670000Y-68369721D01*
X86765000Y-68369721D01*
X86765000Y-68790279D01*
X86847047Y-69202756D01*
X87007988Y-69591302D01*
X87241637Y-69940983D01*
X87539017Y-70238363D01*
X87888698Y-70472012D01*
X88277244Y-70632953D01*
X88689721Y-70715000D01*
X89110279Y-70715000D01*
X89522756Y-70632953D01*
X89911302Y-70472012D01*
X90260983Y-70238363D01*
X90558363Y-69940983D01*
X90792012Y-69591302D01*
X90844328Y-69465000D01*
X102503422Y-69465000D01*
X103559329Y-70520908D01*
X103559329Y-71983600D01*
X103571589Y-72108082D01*
X103607899Y-72227780D01*
X103666864Y-72338094D01*
X103746216Y-72434785D01*
X103842907Y-72514137D01*
X103953221Y-72573102D01*
X104017575Y-72592624D01*
X103954147Y-72649707D01*
X103778317Y-72885056D01*
X103651779Y-73150186D01*
X103606043Y-73300974D01*
X103727184Y-73533000D01*
X104934001Y-73533000D01*
X104934001Y-73513000D01*
X105188001Y-73513000D01*
X105188001Y-73533000D01*
X107474001Y-73533000D01*
X107474001Y-73513000D01*
X107728001Y-73513000D01*
X107728001Y-73533000D01*
X108934818Y-73533000D01*
X109055959Y-73300974D01*
X109010223Y-73150186D01*
X108883685Y-72885056D01*
X108707855Y-72649707D01*
X108489489Y-72453183D01*
X108393091Y-72395863D01*
X108437607Y-72372069D01*
X108665798Y-72184797D01*
X108813354Y-72005000D01*
X122960436Y-72005000D01*
X122970588Y-72108082D01*
X123006898Y-72227780D01*
X123065863Y-72338094D01*
X123145215Y-72434785D01*
X123241906Y-72514137D01*
X123352220Y-72573102D01*
X123416574Y-72592624D01*
X123353146Y-72649707D01*
X123177316Y-72885056D01*
X123050778Y-73150186D01*
X123005042Y-73300974D01*
X123126183Y-73533000D01*
X124333000Y-73533000D01*
X124333000Y-73513000D01*
X124587000Y-73513000D01*
X124587000Y-73533000D01*
X126873000Y-73533000D01*
X126873000Y-73513000D01*
X127127000Y-73513000D01*
X127127000Y-73533000D01*
X128333817Y-73533000D01*
X128454958Y-73300974D01*
X128409222Y-73150186D01*
X128282684Y-72885056D01*
X128106854Y-72649707D01*
X127888488Y-72453183D01*
X127792090Y-72395863D01*
X127836606Y-72372069D01*
X128064797Y-72184797D01*
X128212353Y-72005000D01*
X142010436Y-72005000D01*
X142020588Y-72108082D01*
X142056898Y-72227780D01*
X142115863Y-72338094D01*
X142195215Y-72434785D01*
X142291906Y-72514137D01*
X142402220Y-72573102D01*
X142466574Y-72592624D01*
X142403146Y-72649707D01*
X142227316Y-72885056D01*
X142100778Y-73150186D01*
X142055042Y-73300974D01*
X142176183Y-73533000D01*
X143383000Y-73533000D01*
X143383000Y-73513000D01*
X143637000Y-73513000D01*
X143637000Y-73533000D01*
X145923000Y-73533000D01*
X145923000Y-73513000D01*
X146177000Y-73513000D01*
X146177000Y-73533000D01*
X147383817Y-73533000D01*
X147504958Y-73300974D01*
X147459222Y-73150186D01*
X147332684Y-72885056D01*
X147156854Y-72649707D01*
X146938488Y-72453183D01*
X146842090Y-72395863D01*
X146886606Y-72372069D01*
X147114797Y-72184797D01*
X147262353Y-72005000D01*
X161060436Y-72005000D01*
X161070588Y-72108082D01*
X161106898Y-72227780D01*
X161165863Y-72338094D01*
X161245215Y-72434785D01*
X161341906Y-72514137D01*
X161452220Y-72573102D01*
X161516574Y-72592624D01*
X161453146Y-72649707D01*
X161277316Y-72885056D01*
X161150778Y-73150186D01*
X161105042Y-73300974D01*
X161226183Y-73533000D01*
X162433000Y-73533000D01*
X162433000Y-73513000D01*
X162687000Y-73513000D01*
X162687000Y-73533000D01*
X164973000Y-73533000D01*
X164973000Y-73513000D01*
X165227000Y-73513000D01*
X165227000Y-73533000D01*
X166433817Y-73533000D01*
X166554958Y-73300974D01*
X166509222Y-73150186D01*
X166382684Y-72885056D01*
X166206854Y-72649707D01*
X165988488Y-72453183D01*
X165892090Y-72395863D01*
X165936606Y-72372069D01*
X166164797Y-72184797D01*
X166312353Y-72005000D01*
X180110436Y-72005000D01*
X180120588Y-72108082D01*
X180156898Y-72227780D01*
X180215863Y-72338094D01*
X180295215Y-72434785D01*
X180391906Y-72514137D01*
X180502220Y-72573102D01*
X180566574Y-72592624D01*
X180503146Y-72649707D01*
X180327316Y-72885056D01*
X180200778Y-73150186D01*
X180155042Y-73300974D01*
X180276183Y-73533000D01*
X181483000Y-73533000D01*
X181483000Y-73513000D01*
X181737000Y-73513000D01*
X181737000Y-73533000D01*
X184023000Y-73533000D01*
X184023000Y-73513000D01*
X184277000Y-73513000D01*
X184277000Y-73533000D01*
X185483817Y-73533000D01*
X185604958Y-73300974D01*
X185559222Y-73150186D01*
X185432684Y-72885056D01*
X185256854Y-72649707D01*
X185038488Y-72453183D01*
X184942090Y-72395863D01*
X184986606Y-72372069D01*
X185214797Y-72184797D01*
X185362353Y-72005000D01*
X199160436Y-72005000D01*
X199170588Y-72108082D01*
X199206898Y-72227780D01*
X199265863Y-72338094D01*
X199345215Y-72434785D01*
X199441906Y-72514137D01*
X199552220Y-72573102D01*
X199616574Y-72592624D01*
X199553146Y-72649707D01*
X199377316Y-72885056D01*
X199250778Y-73150186D01*
X199205042Y-73300974D01*
X199326183Y-73533000D01*
X200533000Y-73533000D01*
X200533000Y-73513000D01*
X200787000Y-73513000D01*
X200787000Y-73533000D01*
X203073000Y-73533000D01*
X203073000Y-73513000D01*
X203327000Y-73513000D01*
X203327000Y-73533000D01*
X204533817Y-73533000D01*
X204654958Y-73300974D01*
X204609222Y-73150186D01*
X204482684Y-72885056D01*
X204306854Y-72649707D01*
X204088488Y-72453183D01*
X203992090Y-72395863D01*
X204036606Y-72372069D01*
X204264797Y-72184797D01*
X204412353Y-72005000D01*
X218210436Y-72005000D01*
X218220588Y-72108082D01*
X218256898Y-72227780D01*
X218315863Y-72338094D01*
X218395215Y-72434785D01*
X218491906Y-72514137D01*
X218602220Y-72573102D01*
X218666574Y-72592624D01*
X218603146Y-72649707D01*
X218427316Y-72885056D01*
X218300778Y-73150186D01*
X218255042Y-73300974D01*
X218376183Y-73533000D01*
X219583000Y-73533000D01*
X219583000Y-73513000D01*
X219837000Y-73513000D01*
X219837000Y-73533000D01*
X222123000Y-73533000D01*
X222123000Y-73513000D01*
X222377000Y-73513000D01*
X222377000Y-73533000D01*
X223583817Y-73533000D01*
X223704958Y-73300974D01*
X223659222Y-73150186D01*
X223532684Y-72885056D01*
X223356854Y-72649707D01*
X223138488Y-72453183D01*
X223042090Y-72395863D01*
X223086606Y-72372069D01*
X223314797Y-72184797D01*
X223462353Y-72005000D01*
X237260436Y-72005000D01*
X237270588Y-72108082D01*
X237306898Y-72227780D01*
X237365863Y-72338094D01*
X237445215Y-72434785D01*
X237541906Y-72514137D01*
X237652220Y-72573102D01*
X237716574Y-72592624D01*
X237653146Y-72649707D01*
X237477316Y-72885056D01*
X237350778Y-73150186D01*
X237305042Y-73300974D01*
X237426183Y-73533000D01*
X238633000Y-73533000D01*
X238633000Y-73513000D01*
X238887000Y-73513000D01*
X238887000Y-73533000D01*
X241173000Y-73533000D01*
X241173000Y-73513000D01*
X241427000Y-73513000D01*
X241427000Y-73533000D01*
X242633817Y-73533000D01*
X242754958Y-73300974D01*
X242709222Y-73150186D01*
X242582684Y-72885056D01*
X242406854Y-72649707D01*
X242188488Y-72453183D01*
X242092090Y-72395863D01*
X242136606Y-72372069D01*
X242364797Y-72184797D01*
X242512353Y-72005000D01*
X261359910Y-72005000D01*
X261285956Y-72267551D01*
X261253098Y-72686824D01*
X261302666Y-73104451D01*
X261432757Y-73504383D01*
X261590786Y-73800038D01*
X261906347Y-73956048D01*
X263218395Y-72644000D01*
X263577605Y-72644000D01*
X264889653Y-73956048D01*
X265205214Y-73800038D01*
X265396020Y-73425255D01*
X265510044Y-73020449D01*
X265542902Y-72601176D01*
X265493334Y-72183549D01*
X265363243Y-71783617D01*
X265205214Y-71487962D01*
X264889653Y-71331952D01*
X263577605Y-72644000D01*
X263218395Y-72644000D01*
X263204253Y-72629858D01*
X263383858Y-72450253D01*
X263398000Y-72464395D01*
X264710048Y-71152347D01*
X264554038Y-70836786D01*
X264179255Y-70645980D01*
X263774449Y-70531956D01*
X263688369Y-70525210D01*
X263993050Y-70220529D01*
X264026817Y-70192817D01*
X264137411Y-70058059D01*
X264219589Y-69904313D01*
X264270195Y-69737490D01*
X264273683Y-69702072D01*
X264898000Y-69702072D01*
X265022482Y-69689812D01*
X265142180Y-69653502D01*
X265252494Y-69594537D01*
X265349185Y-69515185D01*
X265428537Y-69418494D01*
X265487502Y-69308180D01*
X265523812Y-69188482D01*
X265536072Y-69064000D01*
X265536072Y-66064000D01*
X265523812Y-65939518D01*
X265487502Y-65819820D01*
X265428537Y-65709506D01*
X265349185Y-65612815D01*
X265252494Y-65533463D01*
X265142180Y-65474498D01*
X265022482Y-65438188D01*
X264898000Y-65425928D01*
X261898000Y-65425928D01*
X261773518Y-65438188D01*
X261653820Y-65474498D01*
X261543506Y-65533463D01*
X261446815Y-65612815D01*
X261367463Y-65709506D01*
X261308498Y-65819820D01*
X261272188Y-65939518D01*
X261259928Y-66064000D01*
X261259928Y-69064000D01*
X261272188Y-69188482D01*
X261308498Y-69308180D01*
X261367463Y-69418494D01*
X261446815Y-69515185D01*
X261543506Y-69594537D01*
X261653820Y-69653502D01*
X261773518Y-69689812D01*
X261898000Y-69702072D01*
X262008349Y-69702072D01*
X261475422Y-70235000D01*
X257808000Y-70235000D01*
X257808000Y-69102072D01*
X257948000Y-69102072D01*
X258072482Y-69089812D01*
X258192180Y-69053502D01*
X258302494Y-68994537D01*
X258399185Y-68915185D01*
X258478537Y-68818494D01*
X258537502Y-68708180D01*
X258573812Y-68588482D01*
X258586072Y-68464000D01*
X258586072Y-66664000D01*
X258573812Y-66539518D01*
X258537502Y-66419820D01*
X258478537Y-66309506D01*
X258399185Y-66212815D01*
X258302494Y-66133463D01*
X258192180Y-66074498D01*
X258072482Y-66038188D01*
X257948000Y-66025928D01*
X256148000Y-66025928D01*
X256023518Y-66038188D01*
X255903820Y-66074498D01*
X255793506Y-66133463D01*
X255696815Y-66212815D01*
X255617463Y-66309506D01*
X255558498Y-66419820D01*
X255552944Y-66438127D01*
X255486505Y-66371688D01*
X255235095Y-66203701D01*
X254955743Y-66087989D01*
X254659184Y-66029000D01*
X254356816Y-66029000D01*
X254102160Y-66079654D01*
X253994776Y-65991526D01*
X253862747Y-65920954D01*
X253719486Y-65877497D01*
X253607833Y-65866500D01*
X253607822Y-65866500D01*
X253570500Y-65862824D01*
X253533178Y-65866500D01*
X252627845Y-65866500D01*
X252539792Y-65759208D01*
X252406164Y-65649542D01*
X252253709Y-65568053D01*
X252088285Y-65517872D01*
X251916250Y-65500928D01*
X251003750Y-65500928D01*
X250831715Y-65517872D01*
X250666291Y-65568053D01*
X250513836Y-65649542D01*
X250380208Y-65759208D01*
X250270542Y-65892836D01*
X250189053Y-66045291D01*
X250138872Y-66210715D01*
X250121928Y-66382750D01*
X250121928Y-66870250D01*
X250138872Y-67042285D01*
X250189053Y-67207709D01*
X250270542Y-67360164D01*
X250380208Y-67493792D01*
X250386564Y-67499008D01*
X250308815Y-67562815D01*
X250229463Y-67659506D01*
X250170498Y-67769820D01*
X250134188Y-67889518D01*
X250121928Y-68014000D01*
X250125000Y-68215750D01*
X250283750Y-68374500D01*
X251333000Y-68374500D01*
X251333000Y-68354500D01*
X251587000Y-68354500D01*
X251587000Y-68374500D01*
X252636250Y-68374500D01*
X252795000Y-68215750D01*
X252798072Y-68014000D01*
X252785812Y-67889518D01*
X252749502Y-67769820D01*
X252690537Y-67659506D01*
X252611185Y-67562815D01*
X252533436Y-67499008D01*
X252539792Y-67493792D01*
X252627845Y-67386500D01*
X252978235Y-67386500D01*
X252973000Y-67412816D01*
X252973000Y-67715184D01*
X253031989Y-68011743D01*
X253147701Y-68291095D01*
X253315688Y-68542505D01*
X253529495Y-68756312D01*
X253780905Y-68924299D01*
X254060257Y-69040011D01*
X254356816Y-69099000D01*
X254659184Y-69099000D01*
X254955743Y-69040011D01*
X255235095Y-68924299D01*
X255486505Y-68756312D01*
X255552944Y-68689873D01*
X255558498Y-68708180D01*
X255617463Y-68818494D01*
X255696815Y-68915185D01*
X255793506Y-68994537D01*
X255903820Y-69053502D01*
X256023518Y-69089812D01*
X256148000Y-69102072D01*
X256288000Y-69102072D01*
X256288001Y-70235000D01*
X242512353Y-70235000D01*
X242364797Y-70055203D01*
X242136606Y-69867931D01*
X241876264Y-69728775D01*
X241593777Y-69643084D01*
X241373619Y-69621400D01*
X241226381Y-69621400D01*
X241006223Y-69643084D01*
X240723736Y-69728775D01*
X240463394Y-69867931D01*
X240235203Y-70055203D01*
X240228586Y-70063265D01*
X240213102Y-70012220D01*
X240154137Y-69901906D01*
X240074785Y-69805215D01*
X239978094Y-69725863D01*
X239867780Y-69666898D01*
X239748082Y-69630588D01*
X239623600Y-69618328D01*
X237896400Y-69618328D01*
X237771918Y-69630588D01*
X237652220Y-69666898D01*
X237541906Y-69725863D01*
X237445215Y-69805215D01*
X237365863Y-69901906D01*
X237306898Y-70012220D01*
X237270588Y-70131918D01*
X237260436Y-70235000D01*
X223462353Y-70235000D01*
X223314797Y-70055203D01*
X223086606Y-69867931D01*
X222826264Y-69728775D01*
X222543777Y-69643084D01*
X222323619Y-69621400D01*
X222176381Y-69621400D01*
X221956223Y-69643084D01*
X221673736Y-69728775D01*
X221413394Y-69867931D01*
X221185203Y-70055203D01*
X221178586Y-70063265D01*
X221163102Y-70012220D01*
X221104137Y-69901906D01*
X221024785Y-69805215D01*
X220928094Y-69725863D01*
X220817780Y-69666898D01*
X220698082Y-69630588D01*
X220573600Y-69618328D01*
X218846400Y-69618328D01*
X218721918Y-69630588D01*
X218602220Y-69666898D01*
X218491906Y-69725863D01*
X218395215Y-69805215D01*
X218315863Y-69901906D01*
X218256898Y-70012220D01*
X218220588Y-70131918D01*
X218210436Y-70235000D01*
X204412353Y-70235000D01*
X204264797Y-70055203D01*
X204036606Y-69867931D01*
X203776264Y-69728775D01*
X203493777Y-69643084D01*
X203273619Y-69621400D01*
X203126381Y-69621400D01*
X202906223Y-69643084D01*
X202623736Y-69728775D01*
X202363394Y-69867931D01*
X202135203Y-70055203D01*
X202128586Y-70063265D01*
X202113102Y-70012220D01*
X202054137Y-69901906D01*
X201974785Y-69805215D01*
X201878094Y-69725863D01*
X201767780Y-69666898D01*
X201648082Y-69630588D01*
X201523600Y-69618328D01*
X199796400Y-69618328D01*
X199671918Y-69630588D01*
X199552220Y-69666898D01*
X199441906Y-69725863D01*
X199345215Y-69805215D01*
X199265863Y-69901906D01*
X199206898Y-70012220D01*
X199170588Y-70131918D01*
X199160436Y-70235000D01*
X185362353Y-70235000D01*
X185214797Y-70055203D01*
X184986606Y-69867931D01*
X184726264Y-69728775D01*
X184443777Y-69643084D01*
X184223619Y-69621400D01*
X184076381Y-69621400D01*
X183856223Y-69643084D01*
X183573736Y-69728775D01*
X183313394Y-69867931D01*
X183085203Y-70055203D01*
X183078586Y-70063265D01*
X183063102Y-70012220D01*
X183004137Y-69901906D01*
X182924785Y-69805215D01*
X182828094Y-69725863D01*
X182717780Y-69666898D01*
X182598082Y-69630588D01*
X182473600Y-69618328D01*
X180746400Y-69618328D01*
X180621918Y-69630588D01*
X180502220Y-69666898D01*
X180391906Y-69725863D01*
X180295215Y-69805215D01*
X180215863Y-69901906D01*
X180156898Y-70012220D01*
X180120588Y-70131918D01*
X180110436Y-70235000D01*
X166312353Y-70235000D01*
X166164797Y-70055203D01*
X165936606Y-69867931D01*
X165676264Y-69728775D01*
X165393777Y-69643084D01*
X165173619Y-69621400D01*
X165026381Y-69621400D01*
X164806223Y-69643084D01*
X164523736Y-69728775D01*
X164263394Y-69867931D01*
X164035203Y-70055203D01*
X164028586Y-70063265D01*
X164013102Y-70012220D01*
X163954137Y-69901906D01*
X163874785Y-69805215D01*
X163778094Y-69725863D01*
X163667780Y-69666898D01*
X163548082Y-69630588D01*
X163423600Y-69618328D01*
X161696400Y-69618328D01*
X161571918Y-69630588D01*
X161452220Y-69666898D01*
X161341906Y-69725863D01*
X161245215Y-69805215D01*
X161165863Y-69901906D01*
X161106898Y-70012220D01*
X161070588Y-70131918D01*
X161060436Y-70235000D01*
X147262353Y-70235000D01*
X147114797Y-70055203D01*
X146886606Y-69867931D01*
X146626264Y-69728775D01*
X146343777Y-69643084D01*
X146123619Y-69621400D01*
X145976381Y-69621400D01*
X145756223Y-69643084D01*
X145473736Y-69728775D01*
X145213394Y-69867931D01*
X144985203Y-70055203D01*
X144978586Y-70063265D01*
X144963102Y-70012220D01*
X144904137Y-69901906D01*
X144824785Y-69805215D01*
X144728094Y-69725863D01*
X144617780Y-69666898D01*
X144498082Y-69630588D01*
X144373600Y-69618328D01*
X142646400Y-69618328D01*
X142521918Y-69630588D01*
X142402220Y-69666898D01*
X142291906Y-69725863D01*
X142195215Y-69805215D01*
X142115863Y-69901906D01*
X142056898Y-70012220D01*
X142020588Y-70131918D01*
X142010436Y-70235000D01*
X128212353Y-70235000D01*
X128064797Y-70055203D01*
X127836606Y-69867931D01*
X127576264Y-69728775D01*
X127293777Y-69643084D01*
X127073619Y-69621400D01*
X126926381Y-69621400D01*
X126706223Y-69643084D01*
X126423736Y-69728775D01*
X126163394Y-69867931D01*
X125935203Y-70055203D01*
X125928586Y-70063265D01*
X125913102Y-70012220D01*
X125854137Y-69901906D01*
X125774785Y-69805215D01*
X125678094Y-69725863D01*
X125567780Y-69666898D01*
X125448082Y-69630588D01*
X125323600Y-69618328D01*
X123596400Y-69618328D01*
X123471918Y-69630588D01*
X123352220Y-69666898D01*
X123241906Y-69725863D01*
X123145215Y-69805215D01*
X123065863Y-69901906D01*
X123006898Y-70012220D01*
X122970588Y-70131918D01*
X122960436Y-70235000D01*
X108813354Y-70235000D01*
X108665798Y-70055203D01*
X108437607Y-69867931D01*
X108177265Y-69728775D01*
X107894778Y-69643084D01*
X107674620Y-69621400D01*
X107527382Y-69621400D01*
X107307224Y-69643084D01*
X107024737Y-69728775D01*
X106764395Y-69867931D01*
X106536204Y-70055203D01*
X106529587Y-70063265D01*
X106514103Y-70012220D01*
X106455138Y-69901906D01*
X106375786Y-69805215D01*
X106279095Y-69725863D01*
X106168781Y-69666898D01*
X106049083Y-69630588D01*
X105924601Y-69618328D01*
X105159907Y-69618328D01*
X104530579Y-68989000D01*
X250121928Y-68989000D01*
X250134188Y-69113482D01*
X250170498Y-69233180D01*
X250229463Y-69343494D01*
X250308815Y-69440185D01*
X250405506Y-69519537D01*
X250515820Y-69578502D01*
X250635518Y-69614812D01*
X250760000Y-69627072D01*
X251174250Y-69624000D01*
X251333000Y-69465250D01*
X251333000Y-68628500D01*
X251587000Y-68628500D01*
X251587000Y-69465250D01*
X251745750Y-69624000D01*
X252160000Y-69627072D01*
X252284482Y-69614812D01*
X252404180Y-69578502D01*
X252514494Y-69519537D01*
X252611185Y-69440185D01*
X252690537Y-69343494D01*
X252749502Y-69233180D01*
X252785812Y-69113482D01*
X252798072Y-68989000D01*
X252795000Y-68787250D01*
X252636250Y-68628500D01*
X251587000Y-68628500D01*
X251333000Y-68628500D01*
X250283750Y-68628500D01*
X250125000Y-68787250D01*
X250121928Y-68989000D01*
X104530579Y-68989000D01*
X103526534Y-67984956D01*
X103498817Y-67951183D01*
X103364059Y-67840589D01*
X103210313Y-67758411D01*
X103043490Y-67707805D01*
X102913477Y-67695000D01*
X102913469Y-67695000D01*
X102870000Y-67690719D01*
X102826531Y-67695000D01*
X90844328Y-67695000D01*
X90792012Y-67568698D01*
X90558363Y-67219017D01*
X90260983Y-66921637D01*
X89911302Y-66687988D01*
X89522756Y-66527047D01*
X89110279Y-66445000D01*
X88689721Y-66445000D01*
X88277244Y-66527047D01*
X87888698Y-66687988D01*
X87539017Y-66921637D01*
X87241637Y-67219017D01*
X87007988Y-67568698D01*
X86847047Y-67957244D01*
X86765000Y-68369721D01*
X80670000Y-68369721D01*
X80670000Y-64160000D01*
X268580000Y-64160000D01*
X268580001Y-95860000D01*
M02*
