M48
; DRILL file {KiCad (5.1.2-1)-1} date Monday, July 22, 2019 at 02:26:28 PM
; FORMAT={-:-/ absolute / inch / decimal}
; #@! TF.CreationDate,2019-07-22T14:26:28-07:00
; #@! TF.GenerationSoftware,Kicad,Pcbnew,(5.1.2-1)-1
; #@! TF.FileFunction,Plated,1,2,PTH
FMAT,2
INCH
T1C0.0157
T2C0.0315
T3C0.0394
T4C0.0400
T5C0.1181
%
G90
G05
T1
X2.46Y-2.715
X2.47Y-3.105
X2.53Y-3.4
X2.66Y-2.67
X2.745Y-3.32
X2.95Y-3.7
X2.97Y-2.925
X3.0Y-3.465
X3.045Y-3.29
X3.155Y-3.825
X3.205Y-3.56
X3.24Y-3.32
X3.26Y-3.605
X3.295Y-3.58
X3.54Y-3.045
X3.64Y-4.005
X3.65Y-3.885
X3.82Y-3.83
X3.8464Y-3.435
X3.8464Y-3.505
X4.3Y-3.31
X4.59Y-3.3
X4.63Y-3.375
T2
X3.78Y-3.065
X3.78Y-3.165
X3.78Y-3.265
X3.97Y-3.89
X3.97Y-3.99
X3.97Y-4.09
X4.13Y-3.52
X4.23Y-3.52
X4.33Y-3.52
X3.31Y-3.805
X3.31Y-3.905
X3.31Y-4.005
X3.115Y-3.0
X3.215Y-3.0
X3.315Y-3.0
X4.425Y-2.915
X4.525Y-2.915
X4.625Y-2.915
X2.85Y-2.705
X2.95Y-2.705
X3.05Y-2.705
X4.015Y-3.09
X4.115Y-3.09
X4.215Y-3.09
T3
X2.125Y-2.9
X2.225Y-2.9
X2.325Y-2.9
X2.3Y-3.2
X2.3Y-3.3
X2.3Y-3.4
X2.3Y-3.5
X2.3Y-3.6
X2.3Y-3.7
X2.3Y-3.8
X2.3Y-3.9
X2.73Y-4.045
X2.83Y-4.045
X2.93Y-4.045
X2.73Y-3.9
X2.83Y-3.9
X2.93Y-3.9
X3.6Y-3.1325
X3.6Y-3.475
X2.125Y-3.05
X2.225Y-3.05
X2.325Y-3.05
X4.08Y-3.75
X4.18Y-3.75
X4.28Y-3.75
X4.38Y-3.75
X4.48Y-3.75
T4
X3.69Y-2.65
X3.69Y-2.75
X3.79Y-2.65
X3.79Y-2.75
X3.89Y-2.65
X3.89Y-2.75
X3.99Y-2.65
X3.99Y-2.75
X4.09Y-2.65
X4.09Y-2.75
T5
X2.1Y-2.6
X2.1Y-4.1
X4.7Y-2.6
X4.7Y-4.1
T0
M30
