G04 #@! TF.GenerationSoftware,KiCad,Pcbnew,(5.1.2-1)-1*
G04 #@! TF.CreationDate,2019-07-22T14:26:25-07:00*
G04 #@! TF.ProjectId,AS3340_VCO,41533333-3430-45f5-9643-4f2e6b696361,rev?*
G04 #@! TF.SameCoordinates,Original*
G04 #@! TF.FileFunction,Legend,Bot*
G04 #@! TF.FilePolarity,Positive*
%FSLAX46Y46*%
G04 Gerber Fmt 4.6, Leading zero omitted, Abs format (unit mm)*
G04 Created by KiCad (PCBNEW (5.1.2-1)-1) date 2019-07-22 14:26:25*
%MOMM*%
%LPD*%
G04 APERTURE LIST*
%ADD10C,0.150000*%
%ADD11C,0.120000*%
G04 APERTURE END LIST*
D10*
X98496047Y-74001380D02*
X97924619Y-74001380D01*
X98210333Y-75001380D02*
X98210333Y-74001380D01*
X97591285Y-75001380D02*
X97591285Y-74334714D01*
X97591285Y-74525190D02*
X97543666Y-74429952D01*
X97496047Y-74382333D01*
X97400809Y-74334714D01*
X97305571Y-74334714D01*
X96972238Y-75001380D02*
X96972238Y-74334714D01*
X96972238Y-74001380D02*
X97019857Y-74049000D01*
X96972238Y-74096619D01*
X96924619Y-74049000D01*
X96972238Y-74001380D01*
X96972238Y-74096619D01*
X95257952Y-75001380D02*
X95734142Y-75001380D01*
X95734142Y-74001380D01*
X94543666Y-74953761D02*
X94638904Y-75001380D01*
X94829380Y-75001380D01*
X94924619Y-74953761D01*
X94972238Y-74858523D01*
X94972238Y-74477571D01*
X94924619Y-74382333D01*
X94829380Y-74334714D01*
X94638904Y-74334714D01*
X94543666Y-74382333D01*
X94496047Y-74477571D01*
X94496047Y-74572809D01*
X94972238Y-74668047D01*
X94162714Y-74334714D02*
X93924619Y-75001380D01*
X93686523Y-74334714D01*
X92924619Y-74953761D02*
X93019857Y-75001380D01*
X93210333Y-75001380D01*
X93305571Y-74953761D01*
X93353190Y-74858523D01*
X93353190Y-74477571D01*
X93305571Y-74382333D01*
X93210333Y-74334714D01*
X93019857Y-74334714D01*
X92924619Y-74382333D01*
X92877000Y-74477571D01*
X92877000Y-74572809D01*
X93353190Y-74668047D01*
X92305571Y-75001380D02*
X92400809Y-74953761D01*
X92448428Y-74858523D01*
X92448428Y-74001380D01*
X102139238Y-96083380D02*
X102139238Y-95083380D01*
X101758285Y-95083380D01*
X101663047Y-95131000D01*
X101615428Y-95178619D01*
X101567809Y-95273857D01*
X101567809Y-95416714D01*
X101615428Y-95511952D01*
X101663047Y-95559571D01*
X101758285Y-95607190D01*
X102139238Y-95607190D01*
X100710666Y-95416714D02*
X100710666Y-96083380D01*
X101139238Y-95416714D02*
X101139238Y-95940523D01*
X101091619Y-96035761D01*
X100996380Y-96083380D01*
X100853523Y-96083380D01*
X100758285Y-96035761D01*
X100710666Y-95988142D01*
X100091619Y-96083380D02*
X100186857Y-96035761D01*
X100234476Y-95940523D01*
X100234476Y-95083380D01*
X99758285Y-96035761D02*
X99663047Y-96083380D01*
X99472571Y-96083380D01*
X99377333Y-96035761D01*
X99329714Y-95940523D01*
X99329714Y-95892904D01*
X99377333Y-95797666D01*
X99472571Y-95750047D01*
X99615428Y-95750047D01*
X99710666Y-95702428D01*
X99758285Y-95607190D01*
X99758285Y-95559571D01*
X99710666Y-95464333D01*
X99615428Y-95416714D01*
X99472571Y-95416714D01*
X99377333Y-95464333D01*
X98520190Y-96035761D02*
X98615428Y-96083380D01*
X98805904Y-96083380D01*
X98901142Y-96035761D01*
X98948761Y-95940523D01*
X98948761Y-95559571D01*
X98901142Y-95464333D01*
X98805904Y-95416714D01*
X98615428Y-95416714D01*
X98520190Y-95464333D01*
X98472571Y-95559571D01*
X98472571Y-95654809D01*
X98948761Y-95750047D01*
X96805904Y-96083380D02*
X97282095Y-96083380D01*
X97282095Y-95083380D01*
X96091619Y-96035761D02*
X96186857Y-96083380D01*
X96377333Y-96083380D01*
X96472571Y-96035761D01*
X96520190Y-95940523D01*
X96520190Y-95559571D01*
X96472571Y-95464333D01*
X96377333Y-95416714D01*
X96186857Y-95416714D01*
X96091619Y-95464333D01*
X96044000Y-95559571D01*
X96044000Y-95654809D01*
X96520190Y-95750047D01*
X95710666Y-95416714D02*
X95472571Y-96083380D01*
X95234476Y-95416714D01*
X94472571Y-96035761D02*
X94567809Y-96083380D01*
X94758285Y-96083380D01*
X94853523Y-96035761D01*
X94901142Y-95940523D01*
X94901142Y-95559571D01*
X94853523Y-95464333D01*
X94758285Y-95416714D01*
X94567809Y-95416714D01*
X94472571Y-95464333D01*
X94424952Y-95559571D01*
X94424952Y-95654809D01*
X94901142Y-95750047D01*
X93853523Y-96083380D02*
X93948761Y-96035761D01*
X93996380Y-95940523D01*
X93996380Y-95083380D01*
X86478619Y-93876761D02*
X86335761Y-93924380D01*
X86097666Y-93924380D01*
X86002428Y-93876761D01*
X85954809Y-93829142D01*
X85907190Y-93733904D01*
X85907190Y-93638666D01*
X85954809Y-93543428D01*
X86002428Y-93495809D01*
X86097666Y-93448190D01*
X86288142Y-93400571D01*
X86383380Y-93352952D01*
X86431000Y-93305333D01*
X86478619Y-93210095D01*
X86478619Y-93114857D01*
X86431000Y-93019619D01*
X86383380Y-92972000D01*
X86288142Y-92924380D01*
X86050047Y-92924380D01*
X85907190Y-92972000D01*
X85050047Y-93924380D02*
X85050047Y-93400571D01*
X85097666Y-93305333D01*
X85192904Y-93257714D01*
X85383380Y-93257714D01*
X85478619Y-93305333D01*
X85050047Y-93876761D02*
X85145285Y-93924380D01*
X85383380Y-93924380D01*
X85478619Y-93876761D01*
X85526238Y-93781523D01*
X85526238Y-93686285D01*
X85478619Y-93591047D01*
X85383380Y-93543428D01*
X85145285Y-93543428D01*
X85050047Y-93495809D01*
X84669095Y-93257714D02*
X84478619Y-93924380D01*
X84288142Y-93448190D01*
X84097666Y-93924380D01*
X83907190Y-93257714D01*
X82288142Y-93924380D02*
X82764333Y-93924380D01*
X82764333Y-92924380D01*
X81573857Y-93876761D02*
X81669095Y-93924380D01*
X81859571Y-93924380D01*
X81954809Y-93876761D01*
X82002428Y-93781523D01*
X82002428Y-93400571D01*
X81954809Y-93305333D01*
X81859571Y-93257714D01*
X81669095Y-93257714D01*
X81573857Y-93305333D01*
X81526238Y-93400571D01*
X81526238Y-93495809D01*
X82002428Y-93591047D01*
X81192904Y-93257714D02*
X80954809Y-93924380D01*
X80716714Y-93257714D01*
X79954809Y-93876761D02*
X80050047Y-93924380D01*
X80240523Y-93924380D01*
X80335761Y-93876761D01*
X80383380Y-93781523D01*
X80383380Y-93400571D01*
X80335761Y-93305333D01*
X80240523Y-93257714D01*
X80050047Y-93257714D01*
X79954809Y-93305333D01*
X79907190Y-93400571D01*
X79907190Y-93495809D01*
X80383380Y-93591047D01*
X79335761Y-93924380D02*
X79431000Y-93876761D01*
X79478619Y-93781523D01*
X79478619Y-92924380D01*
X86312142Y-73048761D02*
X86169285Y-73096380D01*
X85931190Y-73096380D01*
X85835952Y-73048761D01*
X85788333Y-73001142D01*
X85740714Y-72905904D01*
X85740714Y-72810666D01*
X85788333Y-72715428D01*
X85835952Y-72667809D01*
X85931190Y-72620190D01*
X86121666Y-72572571D01*
X86216904Y-72524952D01*
X86264523Y-72477333D01*
X86312142Y-72382095D01*
X86312142Y-72286857D01*
X86264523Y-72191619D01*
X86216904Y-72144000D01*
X86121666Y-72096380D01*
X85883571Y-72096380D01*
X85740714Y-72144000D01*
X84883571Y-73048761D02*
X84978809Y-73096380D01*
X85169285Y-73096380D01*
X85264523Y-73048761D01*
X85312142Y-73001142D01*
X85359761Y-72905904D01*
X85359761Y-72620190D01*
X85312142Y-72524952D01*
X85264523Y-72477333D01*
X85169285Y-72429714D01*
X84978809Y-72429714D01*
X84883571Y-72477333D01*
X84026428Y-73096380D02*
X84026428Y-72572571D01*
X84074047Y-72477333D01*
X84169285Y-72429714D01*
X84359761Y-72429714D01*
X84455000Y-72477333D01*
X84026428Y-73048761D02*
X84121666Y-73096380D01*
X84359761Y-73096380D01*
X84455000Y-73048761D01*
X84502619Y-72953523D01*
X84502619Y-72858285D01*
X84455000Y-72763047D01*
X84359761Y-72715428D01*
X84121666Y-72715428D01*
X84026428Y-72667809D01*
X83407380Y-73096380D02*
X83502619Y-73048761D01*
X83550238Y-72953523D01*
X83550238Y-72096380D01*
X82645476Y-73048761D02*
X82740714Y-73096380D01*
X82931190Y-73096380D01*
X83026428Y-73048761D01*
X83074047Y-72953523D01*
X83074047Y-72572571D01*
X83026428Y-72477333D01*
X82931190Y-72429714D01*
X82740714Y-72429714D01*
X82645476Y-72477333D01*
X82597857Y-72572571D01*
X82597857Y-72667809D01*
X83074047Y-72763047D01*
X112886619Y-85621761D02*
X112743761Y-85669380D01*
X112505666Y-85669380D01*
X112410428Y-85621761D01*
X112362809Y-85574142D01*
X112315190Y-85478904D01*
X112315190Y-85383666D01*
X112362809Y-85288428D01*
X112410428Y-85240809D01*
X112505666Y-85193190D01*
X112696142Y-85145571D01*
X112791380Y-85097952D01*
X112839000Y-85050333D01*
X112886619Y-84955095D01*
X112886619Y-84859857D01*
X112839000Y-84764619D01*
X112791380Y-84717000D01*
X112696142Y-84669380D01*
X112458047Y-84669380D01*
X112315190Y-84717000D01*
X111886619Y-85669380D02*
X111886619Y-85002714D01*
X111886619Y-84669380D02*
X111934238Y-84717000D01*
X111886619Y-84764619D01*
X111839000Y-84717000D01*
X111886619Y-84669380D01*
X111886619Y-84764619D01*
X111410428Y-85002714D02*
X111410428Y-85669380D01*
X111410428Y-85097952D02*
X111362809Y-85050333D01*
X111267571Y-85002714D01*
X111124714Y-85002714D01*
X111029476Y-85050333D01*
X110981857Y-85145571D01*
X110981857Y-85669380D01*
X110124714Y-85621761D02*
X110219952Y-85669380D01*
X110410428Y-85669380D01*
X110505666Y-85621761D01*
X110553285Y-85526523D01*
X110553285Y-85145571D01*
X110505666Y-85050333D01*
X110410428Y-85002714D01*
X110219952Y-85002714D01*
X110124714Y-85050333D01*
X110077095Y-85145571D01*
X110077095Y-85240809D01*
X110553285Y-85336047D01*
X108934238Y-85621761D02*
X108791380Y-85669380D01*
X108553285Y-85669380D01*
X108458047Y-85621761D01*
X108410428Y-85574142D01*
X108362809Y-85478904D01*
X108362809Y-85383666D01*
X108410428Y-85288428D01*
X108458047Y-85240809D01*
X108553285Y-85193190D01*
X108743761Y-85145571D01*
X108839000Y-85097952D01*
X108886619Y-85050333D01*
X108934238Y-84955095D01*
X108934238Y-84859857D01*
X108886619Y-84764619D01*
X108839000Y-84717000D01*
X108743761Y-84669380D01*
X108505666Y-84669380D01*
X108362809Y-84717000D01*
X107934238Y-85669380D02*
X107934238Y-84669380D01*
X107505666Y-85669380D02*
X107505666Y-85145571D01*
X107553285Y-85050333D01*
X107648523Y-85002714D01*
X107791380Y-85002714D01*
X107886619Y-85050333D01*
X107934238Y-85097952D01*
X106600904Y-85669380D02*
X106600904Y-85145571D01*
X106648523Y-85050333D01*
X106743761Y-85002714D01*
X106934238Y-85002714D01*
X107029476Y-85050333D01*
X106600904Y-85621761D02*
X106696142Y-85669380D01*
X106934238Y-85669380D01*
X107029476Y-85621761D01*
X107077095Y-85526523D01*
X107077095Y-85431285D01*
X107029476Y-85336047D01*
X106934238Y-85288428D01*
X106696142Y-85288428D01*
X106600904Y-85240809D01*
X106124714Y-85002714D02*
X106124714Y-86002714D01*
X106124714Y-85050333D02*
X106029476Y-85002714D01*
X105839000Y-85002714D01*
X105743761Y-85050333D01*
X105696142Y-85097952D01*
X105648523Y-85193190D01*
X105648523Y-85478904D01*
X105696142Y-85574142D01*
X105743761Y-85621761D01*
X105839000Y-85669380D01*
X106029476Y-85669380D01*
X106124714Y-85621761D01*
X104839000Y-85621761D02*
X104934238Y-85669380D01*
X105124714Y-85669380D01*
X105219952Y-85621761D01*
X105267571Y-85526523D01*
X105267571Y-85145571D01*
X105219952Y-85050333D01*
X105124714Y-85002714D01*
X104934238Y-85002714D01*
X104839000Y-85050333D01*
X104791380Y-85145571D01*
X104791380Y-85240809D01*
X105267571Y-85336047D01*
X109171952Y-75461761D02*
X109029095Y-75509380D01*
X108791000Y-75509380D01*
X108695761Y-75461761D01*
X108648142Y-75414142D01*
X108600523Y-75318904D01*
X108600523Y-75223666D01*
X108648142Y-75128428D01*
X108695761Y-75080809D01*
X108791000Y-75033190D01*
X108981476Y-74985571D01*
X109076714Y-74937952D01*
X109124333Y-74890333D01*
X109171952Y-74795095D01*
X109171952Y-74699857D01*
X109124333Y-74604619D01*
X109076714Y-74557000D01*
X108981476Y-74509380D01*
X108743380Y-74509380D01*
X108600523Y-74557000D01*
X108171952Y-75509380D02*
X108171952Y-74842714D01*
X108171952Y-74509380D02*
X108219571Y-74557000D01*
X108171952Y-74604619D01*
X108124333Y-74557000D01*
X108171952Y-74509380D01*
X108171952Y-74604619D01*
X107695761Y-74842714D02*
X107695761Y-75509380D01*
X107695761Y-74937952D02*
X107648142Y-74890333D01*
X107552904Y-74842714D01*
X107410047Y-74842714D01*
X107314809Y-74890333D01*
X107267190Y-74985571D01*
X107267190Y-75509380D01*
X106410047Y-75461761D02*
X106505285Y-75509380D01*
X106695761Y-75509380D01*
X106791000Y-75461761D01*
X106838619Y-75366523D01*
X106838619Y-74985571D01*
X106791000Y-74890333D01*
X106695761Y-74842714D01*
X106505285Y-74842714D01*
X106410047Y-74890333D01*
X106362428Y-74985571D01*
X106362428Y-75080809D01*
X106838619Y-75176047D01*
X104838619Y-74985571D02*
X104695761Y-75033190D01*
X104648142Y-75080809D01*
X104600523Y-75176047D01*
X104600523Y-75318904D01*
X104648142Y-75414142D01*
X104695761Y-75461761D01*
X104791000Y-75509380D01*
X105171952Y-75509380D01*
X105171952Y-74509380D01*
X104838619Y-74509380D01*
X104743380Y-74557000D01*
X104695761Y-74604619D01*
X104648142Y-74699857D01*
X104648142Y-74795095D01*
X104695761Y-74890333D01*
X104743380Y-74937952D01*
X104838619Y-74985571D01*
X105171952Y-74985571D01*
X104171952Y-75509380D02*
X104171952Y-74842714D01*
X104171952Y-74509380D02*
X104219571Y-74557000D01*
X104171952Y-74604619D01*
X104124333Y-74557000D01*
X104171952Y-74509380D01*
X104171952Y-74604619D01*
X103267190Y-75509380D02*
X103267190Y-74985571D01*
X103314809Y-74890333D01*
X103410047Y-74842714D01*
X103600523Y-74842714D01*
X103695761Y-74890333D01*
X103267190Y-75461761D02*
X103362428Y-75509380D01*
X103600523Y-75509380D01*
X103695761Y-75461761D01*
X103743380Y-75366523D01*
X103743380Y-75271285D01*
X103695761Y-75176047D01*
X103600523Y-75128428D01*
X103362428Y-75128428D01*
X103267190Y-75080809D01*
X102838619Y-75461761D02*
X102743380Y-75509380D01*
X102552904Y-75509380D01*
X102457666Y-75461761D01*
X102410047Y-75366523D01*
X102410047Y-75318904D01*
X102457666Y-75223666D01*
X102552904Y-75176047D01*
X102695761Y-75176047D01*
X102791000Y-75128428D01*
X102838619Y-75033190D01*
X102838619Y-74985571D01*
X102791000Y-74890333D01*
X102695761Y-74842714D01*
X102552904Y-74842714D01*
X102457666Y-74890333D01*
X119641476Y-70889761D02*
X119498619Y-70937380D01*
X119260523Y-70937380D01*
X119165285Y-70889761D01*
X119117666Y-70842142D01*
X119070047Y-70746904D01*
X119070047Y-70651666D01*
X119117666Y-70556428D01*
X119165285Y-70508809D01*
X119260523Y-70461190D01*
X119451000Y-70413571D01*
X119546238Y-70365952D01*
X119593857Y-70318333D01*
X119641476Y-70223095D01*
X119641476Y-70127857D01*
X119593857Y-70032619D01*
X119546238Y-69985000D01*
X119451000Y-69937380D01*
X119212904Y-69937380D01*
X119070047Y-69985000D01*
X118641476Y-70937380D02*
X118641476Y-70270714D01*
X118641476Y-69937380D02*
X118689095Y-69985000D01*
X118641476Y-70032619D01*
X118593857Y-69985000D01*
X118641476Y-69937380D01*
X118641476Y-70032619D01*
X118165285Y-70270714D02*
X118165285Y-70937380D01*
X118165285Y-70365952D02*
X118117666Y-70318333D01*
X118022428Y-70270714D01*
X117879571Y-70270714D01*
X117784333Y-70318333D01*
X117736714Y-70413571D01*
X117736714Y-70937380D01*
X116879571Y-70889761D02*
X116974809Y-70937380D01*
X117165285Y-70937380D01*
X117260523Y-70889761D01*
X117308142Y-70794523D01*
X117308142Y-70413571D01*
X117260523Y-70318333D01*
X117165285Y-70270714D01*
X116974809Y-70270714D01*
X116879571Y-70318333D01*
X116831952Y-70413571D01*
X116831952Y-70508809D01*
X117308142Y-70604047D01*
X115165285Y-70937380D02*
X115641476Y-70937380D01*
X115641476Y-69937380D01*
X114450999Y-70889761D02*
X114546238Y-70937380D01*
X114736714Y-70937380D01*
X114831952Y-70889761D01*
X114879571Y-70794523D01*
X114879571Y-70413571D01*
X114831952Y-70318333D01*
X114736714Y-70270714D01*
X114546238Y-70270714D01*
X114450999Y-70318333D01*
X114403380Y-70413571D01*
X114403380Y-70508809D01*
X114879571Y-70604047D01*
X114070047Y-70270714D02*
X113831952Y-70937380D01*
X113593857Y-70270714D01*
X112831952Y-70889761D02*
X112927190Y-70937380D01*
X113117666Y-70937380D01*
X113212904Y-70889761D01*
X113260523Y-70794523D01*
X113260523Y-70413571D01*
X113212904Y-70318333D01*
X113117666Y-70270714D01*
X112927190Y-70270714D01*
X112831952Y-70318333D01*
X112784333Y-70413571D01*
X112784333Y-70508809D01*
X113260523Y-70604047D01*
X112212904Y-70937380D02*
X112308142Y-70889761D01*
X112355761Y-70794523D01*
X112355761Y-69937380D01*
X79581238Y-65603380D02*
X79581238Y-64603380D01*
X79581238Y-65079571D02*
X79009809Y-65079571D01*
X79009809Y-65603380D02*
X79009809Y-64603380D01*
X78200285Y-65079571D02*
X78533619Y-65079571D01*
X78533619Y-65603380D02*
X78533619Y-64603380D01*
X78057428Y-64603380D01*
X77819333Y-64603380D02*
X77247904Y-64603380D01*
X77533619Y-65603380D02*
X77533619Y-64603380D01*
D11*
X88126000Y-63655000D02*
X88126000Y-66195000D01*
X88126000Y-63655000D02*
X90666000Y-63655000D01*
X88376000Y-63905000D02*
X88376000Y-73255000D01*
X109236000Y-63905000D02*
X88376000Y-63905000D01*
X109236000Y-73255000D02*
X109236000Y-63905000D01*
X88376000Y-73255000D02*
X109236000Y-73255000D01*
X86546000Y-78730000D02*
X86546000Y-73660000D01*
X76776000Y-78730000D02*
X76776000Y-73660000D01*
X76776000Y-73660000D02*
X86546000Y-73660000D01*
X76776000Y-78730000D02*
X86546000Y-78730000D01*
X79815000Y-66177000D02*
X70045000Y-66177000D01*
X79815000Y-71247000D02*
X70045000Y-71247000D01*
X79815000Y-66177000D02*
X79815000Y-71247000D01*
X70045000Y-66177000D02*
X70045000Y-71247000D01*
X98542000Y-75506000D02*
X93472000Y-75506000D01*
X98542000Y-85276000D02*
X93472000Y-85276000D01*
X93472000Y-85276000D02*
X93472000Y-75506000D01*
X98542000Y-85276000D02*
X98542000Y-75506000D01*
X112327000Y-86878000D02*
X102557000Y-86878000D01*
X112327000Y-91948000D02*
X102557000Y-91948000D01*
X112327000Y-86878000D02*
X112327000Y-91948000D01*
X102557000Y-86878000D02*
X102557000Y-91948000D01*
X109406000Y-75956000D02*
X99636000Y-75956000D01*
X109406000Y-81026000D02*
X99636000Y-81026000D01*
X109406000Y-75956000D02*
X109406000Y-81026000D01*
X99636000Y-75956000D02*
X99636000Y-81026000D01*
X119820000Y-76571000D02*
X119820000Y-71501000D01*
X110050000Y-76571000D02*
X110050000Y-71501000D01*
X110050000Y-71501000D02*
X119820000Y-71501000D01*
X110050000Y-76571000D02*
X119820000Y-76571000D01*
X81544000Y-104072000D02*
X86614000Y-104072000D01*
X81544000Y-94302000D02*
X86614000Y-94302000D01*
X86614000Y-94302000D02*
X86614000Y-104072000D01*
X81544000Y-94302000D02*
X81544000Y-104072000D01*
X98308000Y-96461000D02*
X98308000Y-106231000D01*
X103378000Y-96461000D02*
X103378000Y-106231000D01*
X98308000Y-96461000D02*
X103378000Y-96461000D01*
X98308000Y-106231000D02*
X103378000Y-106231000D01*
D10*
X86574380Y-67770476D02*
X87288666Y-67770476D01*
X87431523Y-67722857D01*
X87526761Y-67627619D01*
X87574380Y-67484761D01*
X87574380Y-67389523D01*
X87574380Y-68770476D02*
X87574380Y-68199047D01*
X87574380Y-68484761D02*
X86574380Y-68484761D01*
X86717238Y-68389523D01*
X86812476Y-68294285D01*
X86860095Y-68199047D01*
X86669619Y-69151428D02*
X86622000Y-69199047D01*
X86574380Y-69294285D01*
X86574380Y-69532380D01*
X86622000Y-69627619D01*
X86669619Y-69675238D01*
X86764857Y-69722857D01*
X86860095Y-69722857D01*
X87002952Y-69675238D01*
X87574380Y-69103809D01*
X87574380Y-69722857D01*
X82256238Y-80312380D02*
X82589571Y-79836190D01*
X82827666Y-80312380D02*
X82827666Y-79312380D01*
X82446714Y-79312380D01*
X82351476Y-79360000D01*
X82303857Y-79407619D01*
X82256238Y-79502857D01*
X82256238Y-79645714D01*
X82303857Y-79740952D01*
X82351476Y-79788571D01*
X82446714Y-79836190D01*
X82827666Y-79836190D01*
X81970523Y-79312380D02*
X81637190Y-80312380D01*
X81303857Y-79312380D01*
X80446714Y-80312380D02*
X81018142Y-80312380D01*
X80732428Y-80312380D02*
X80732428Y-79312380D01*
X80827666Y-79455238D01*
X80922904Y-79550476D01*
X81018142Y-79598095D01*
X75652238Y-72842380D02*
X75985571Y-72366190D01*
X76223666Y-72842380D02*
X76223666Y-71842380D01*
X75842714Y-71842380D01*
X75747476Y-71890000D01*
X75699857Y-71937619D01*
X75652238Y-72032857D01*
X75652238Y-72175714D01*
X75699857Y-72270952D01*
X75747476Y-72318571D01*
X75842714Y-72366190D01*
X76223666Y-72366190D01*
X75366523Y-71842380D02*
X75033190Y-72842380D01*
X74699857Y-71842380D01*
X74461761Y-71842380D02*
X73842714Y-71842380D01*
X74176047Y-72223333D01*
X74033190Y-72223333D01*
X73937952Y-72270952D01*
X73890333Y-72318571D01*
X73842714Y-72413809D01*
X73842714Y-72651904D01*
X73890333Y-72747142D01*
X73937952Y-72794761D01*
X74033190Y-72842380D01*
X74318904Y-72842380D01*
X74414142Y-72794761D01*
X74461761Y-72747142D01*
X100124380Y-82335761D02*
X99648190Y-82002428D01*
X100124380Y-81764333D02*
X99124380Y-81764333D01*
X99124380Y-82145285D01*
X99172000Y-82240523D01*
X99219619Y-82288142D01*
X99314857Y-82335761D01*
X99457714Y-82335761D01*
X99552952Y-82288142D01*
X99600571Y-82240523D01*
X99648190Y-82145285D01*
X99648190Y-81764333D01*
X99124380Y-82621476D02*
X100124380Y-82954809D01*
X99124380Y-83288142D01*
X99124380Y-84050047D02*
X99124380Y-83859571D01*
X99172000Y-83764333D01*
X99219619Y-83716714D01*
X99362476Y-83621476D01*
X99552952Y-83573857D01*
X99933904Y-83573857D01*
X100029142Y-83621476D01*
X100076761Y-83669095D01*
X100124380Y-83764333D01*
X100124380Y-83954809D01*
X100076761Y-84050047D01*
X100029142Y-84097666D01*
X99933904Y-84145285D01*
X99695809Y-84145285D01*
X99600571Y-84097666D01*
X99552952Y-84050047D01*
X99505333Y-83954809D01*
X99505333Y-83764333D01*
X99552952Y-83669095D01*
X99600571Y-83621476D01*
X99695809Y-83573857D01*
X108164238Y-93289380D02*
X108497571Y-92813190D01*
X108735666Y-93289380D02*
X108735666Y-92289380D01*
X108354714Y-92289380D01*
X108259476Y-92337000D01*
X108211857Y-92384619D01*
X108164238Y-92479857D01*
X108164238Y-92622714D01*
X108211857Y-92717952D01*
X108259476Y-92765571D01*
X108354714Y-92813190D01*
X108735666Y-92813190D01*
X107878523Y-92289380D02*
X107545190Y-93289380D01*
X107211857Y-92289380D01*
X106973761Y-92289380D02*
X106307095Y-92289380D01*
X106735666Y-93289380D01*
X105243238Y-82367380D02*
X105576571Y-81891190D01*
X105814666Y-82367380D02*
X105814666Y-81367380D01*
X105433714Y-81367380D01*
X105338476Y-81415000D01*
X105290857Y-81462619D01*
X105243238Y-81557857D01*
X105243238Y-81700714D01*
X105290857Y-81795952D01*
X105338476Y-81843571D01*
X105433714Y-81891190D01*
X105814666Y-81891190D01*
X104957523Y-81367380D02*
X104624190Y-82367380D01*
X104290857Y-81367380D01*
X103814666Y-81795952D02*
X103909904Y-81748333D01*
X103957523Y-81700714D01*
X104005142Y-81605476D01*
X104005142Y-81557857D01*
X103957523Y-81462619D01*
X103909904Y-81415000D01*
X103814666Y-81367380D01*
X103624190Y-81367380D01*
X103528952Y-81415000D01*
X103481333Y-81462619D01*
X103433714Y-81557857D01*
X103433714Y-81605476D01*
X103481333Y-81700714D01*
X103528952Y-81748333D01*
X103624190Y-81795952D01*
X103814666Y-81795952D01*
X103909904Y-81843571D01*
X103957523Y-81891190D01*
X104005142Y-81986428D01*
X104005142Y-82176904D01*
X103957523Y-82272142D01*
X103909904Y-82319761D01*
X103814666Y-82367380D01*
X103624190Y-82367380D01*
X103528952Y-82319761D01*
X103481333Y-82272142D01*
X103433714Y-82176904D01*
X103433714Y-81986428D01*
X103481333Y-81891190D01*
X103528952Y-81843571D01*
X103624190Y-81795952D01*
X115530238Y-78153380D02*
X115863571Y-77677190D01*
X116101666Y-78153380D02*
X116101666Y-77153380D01*
X115720714Y-77153380D01*
X115625476Y-77201000D01*
X115577857Y-77248619D01*
X115530238Y-77343857D01*
X115530238Y-77486714D01*
X115577857Y-77581952D01*
X115625476Y-77629571D01*
X115720714Y-77677190D01*
X116101666Y-77677190D01*
X115244523Y-77153380D02*
X114911190Y-78153380D01*
X114577857Y-77153380D01*
X114196904Y-78153380D02*
X114006428Y-78153380D01*
X113911190Y-78105761D01*
X113863571Y-78058142D01*
X113768333Y-77915285D01*
X113720714Y-77724809D01*
X113720714Y-77343857D01*
X113768333Y-77248619D01*
X113815952Y-77201000D01*
X113911190Y-77153380D01*
X114101666Y-77153380D01*
X114196904Y-77201000D01*
X114244523Y-77248619D01*
X114292142Y-77343857D01*
X114292142Y-77581952D01*
X114244523Y-77677190D01*
X114196904Y-77724809D01*
X114101666Y-77772428D01*
X113911190Y-77772428D01*
X113815952Y-77724809D01*
X113768333Y-77677190D01*
X113720714Y-77581952D01*
X80866380Y-98115571D02*
X80390190Y-97782238D01*
X80866380Y-97544142D02*
X79866380Y-97544142D01*
X79866380Y-97925095D01*
X79914000Y-98020333D01*
X79961619Y-98067952D01*
X80056857Y-98115571D01*
X80199714Y-98115571D01*
X80294952Y-98067952D01*
X80342571Y-98020333D01*
X80390190Y-97925095D01*
X80390190Y-97544142D01*
X79866380Y-98401285D02*
X80866380Y-98734619D01*
X79866380Y-99067952D01*
X80866380Y-99925095D02*
X80866380Y-99353666D01*
X80866380Y-99639380D02*
X79866380Y-99639380D01*
X80009238Y-99544142D01*
X80104476Y-99448904D01*
X80152095Y-99353666D01*
X79866380Y-100544142D02*
X79866380Y-100639380D01*
X79914000Y-100734619D01*
X79961619Y-100782238D01*
X80056857Y-100829857D01*
X80247333Y-100877476D01*
X80485428Y-100877476D01*
X80675904Y-100829857D01*
X80771142Y-100782238D01*
X80818761Y-100734619D01*
X80866380Y-100639380D01*
X80866380Y-100544142D01*
X80818761Y-100448904D01*
X80771142Y-100401285D01*
X80675904Y-100353666D01*
X80485428Y-100306047D01*
X80247333Y-100306047D01*
X80056857Y-100353666D01*
X79961619Y-100401285D01*
X79914000Y-100448904D01*
X79866380Y-100544142D01*
X97630380Y-100274571D02*
X97154190Y-99941238D01*
X97630380Y-99703142D02*
X96630380Y-99703142D01*
X96630380Y-100084095D01*
X96678000Y-100179333D01*
X96725619Y-100226952D01*
X96820857Y-100274571D01*
X96963714Y-100274571D01*
X97058952Y-100226952D01*
X97106571Y-100179333D01*
X97154190Y-100084095D01*
X97154190Y-99703142D01*
X96630380Y-100560285D02*
X97630380Y-100893619D01*
X96630380Y-101226952D01*
X97630380Y-102084095D02*
X97630380Y-101512666D01*
X97630380Y-101798380D02*
X96630380Y-101798380D01*
X96773238Y-101703142D01*
X96868476Y-101607904D01*
X96916095Y-101512666D01*
X97630380Y-103036476D02*
X97630380Y-102465047D01*
X97630380Y-102750761D02*
X96630380Y-102750761D01*
X96773238Y-102655523D01*
X96868476Y-102560285D01*
X96916095Y-102465047D01*
M02*
